G04 #@! TF.GenerationSoftware,KiCad,Pcbnew,7.0.8*
G04 #@! TF.CreationDate,2024-01-05T15:27:59+00:00*
G04 #@! TF.ProjectId,AudioSID,41756469-6f53-4494-942e-6b696361645f,rev?*
G04 #@! TF.SameCoordinates,Original*
G04 #@! TF.FileFunction,Copper,L1,Top*
G04 #@! TF.FilePolarity,Positive*
%FSLAX46Y46*%
G04 Gerber Fmt 4.6, Leading zero omitted, Abs format (unit mm)*
G04 Created by KiCad (PCBNEW 7.0.8) date 2024-01-05 15:27:59*
%MOMM*%
%LPD*%
G01*
G04 APERTURE LIST*
G04 Aperture macros list*
%AMRoundRect*
0 Rectangle with rounded corners*
0 $1 Rounding radius*
0 $2 $3 $4 $5 $6 $7 $8 $9 X,Y pos of 4 corners*
0 Add a 4 corners polygon primitive as box body*
4,1,4,$2,$3,$4,$5,$6,$7,$8,$9,$2,$3,0*
0 Add four circle primitives for the rounded corners*
1,1,$1+$1,$2,$3*
1,1,$1+$1,$4,$5*
1,1,$1+$1,$6,$7*
1,1,$1+$1,$8,$9*
0 Add four rect primitives between the rounded corners*
20,1,$1+$1,$2,$3,$4,$5,0*
20,1,$1+$1,$4,$5,$6,$7,0*
20,1,$1+$1,$6,$7,$8,$9,0*
20,1,$1+$1,$8,$9,$2,$3,0*%
G04 Aperture macros list end*
G04 #@! TA.AperFunction,ComponentPad*
%ADD10RoundRect,0.249999X0.525001X0.525001X-0.525001X0.525001X-0.525001X-0.525001X0.525001X-0.525001X0*%
G04 #@! TD*
G04 #@! TA.AperFunction,ComponentPad*
%ADD11C,1.550000*%
G04 #@! TD*
G04 #@! TA.AperFunction,ComponentPad*
%ADD12R,1.700000X1.700000*%
G04 #@! TD*
G04 #@! TA.AperFunction,ComponentPad*
%ADD13O,1.700000X1.700000*%
G04 #@! TD*
G04 #@! TA.AperFunction,ComponentPad*
%ADD14C,1.600000*%
G04 #@! TD*
G04 #@! TA.AperFunction,ComponentPad*
%ADD15O,1.600000X1.600000*%
G04 #@! TD*
G04 #@! TA.AperFunction,ComponentPad*
%ADD16R,1.600000X1.600000*%
G04 #@! TD*
G04 #@! TA.AperFunction,ComponentPad*
%ADD17O,1.208000X2.416000*%
G04 #@! TD*
G04 #@! TA.AperFunction,ComponentPad*
%ADD18O,2.416000X1.208000*%
G04 #@! TD*
G04 #@! TA.AperFunction,ComponentPad*
%ADD19R,1.050000X1.500000*%
G04 #@! TD*
G04 #@! TA.AperFunction,ComponentPad*
%ADD20O,1.050000X1.500000*%
G04 #@! TD*
G04 #@! TA.AperFunction,ComponentPad*
%ADD21R,3.000000X3.000000*%
G04 #@! TD*
G04 #@! TA.AperFunction,ComponentPad*
%ADD22C,3.000000*%
G04 #@! TD*
G04 #@! TA.AperFunction,ComponentPad*
%ADD23R,1.422400X1.422400*%
G04 #@! TD*
G04 #@! TA.AperFunction,ComponentPad*
%ADD24C,1.422400*%
G04 #@! TD*
G04 #@! TA.AperFunction,ComponentPad*
%ADD25R,1.905000X2.000000*%
G04 #@! TD*
G04 #@! TA.AperFunction,ComponentPad*
%ADD26O,1.905000X2.000000*%
G04 #@! TD*
G04 #@! TA.AperFunction,ComponentPad*
%ADD27R,1.800000X1.800000*%
G04 #@! TD*
G04 #@! TA.AperFunction,ComponentPad*
%ADD28C,1.800000*%
G04 #@! TD*
G04 #@! TA.AperFunction,ViaPad*
%ADD29C,0.800000*%
G04 #@! TD*
G04 #@! TA.AperFunction,Conductor*
%ADD30C,0.250000*%
G04 #@! TD*
G04 #@! TA.AperFunction,Conductor*
%ADD31C,0.500000*%
G04 #@! TD*
G04 APERTURE END LIST*
D10*
X188722000Y-144780000D03*
D11*
X186182000Y-144780000D03*
X183642000Y-144780000D03*
X181102000Y-144780000D03*
X178562000Y-144780000D03*
X176022000Y-144780000D03*
X173482000Y-144780000D03*
X170942000Y-144780000D03*
X168402000Y-144780000D03*
X165862000Y-144780000D03*
X163322000Y-144780000D03*
X160782000Y-144780000D03*
X158242000Y-144780000D03*
X155702000Y-144780000D03*
X153162000Y-144780000D03*
X150622000Y-144780000D03*
X148082000Y-144780000D03*
X145542000Y-144780000D03*
X143002000Y-144780000D03*
X140462000Y-144780000D03*
X137922000Y-144780000D03*
X135382000Y-144780000D03*
X132842000Y-144780000D03*
X130302000Y-144780000D03*
X127762000Y-144780000D03*
X125222000Y-144780000D03*
X122682000Y-144780000D03*
X120142000Y-144780000D03*
X117602000Y-144780000D03*
X115062000Y-144780000D03*
X112522000Y-144780000D03*
X109982000Y-144780000D03*
X188722000Y-139700000D03*
X186182000Y-139700000D03*
X183642000Y-139700000D03*
X181102000Y-139700000D03*
X178562000Y-139700000D03*
X176022000Y-139700000D03*
X173482000Y-139700000D03*
X170942000Y-139700000D03*
X168402000Y-139700000D03*
X165862000Y-139700000D03*
X163322000Y-139700000D03*
X160782000Y-139700000D03*
X158242000Y-139700000D03*
X155702000Y-139700000D03*
X153162000Y-139700000D03*
X150622000Y-139700000D03*
X148082000Y-139700000D03*
X145542000Y-139700000D03*
X143002000Y-139700000D03*
X140462000Y-139700000D03*
X137922000Y-139700000D03*
X135382000Y-139700000D03*
X132842000Y-139700000D03*
X130302000Y-139700000D03*
X127762000Y-139700000D03*
X125222000Y-139700000D03*
X122682000Y-139700000D03*
X120142000Y-139700000D03*
X117602000Y-139700000D03*
X115062000Y-139700000D03*
X112522000Y-139700000D03*
X109982000Y-139700000D03*
D12*
X164846000Y-53848000D03*
D13*
X167386000Y-53848000D03*
X169926000Y-53848000D03*
X172466000Y-53848000D03*
D12*
X114310000Y-84587000D03*
D13*
X111770000Y-84587000D03*
X109230000Y-84587000D03*
D14*
X160782000Y-68072000D03*
D15*
X170942000Y-68072000D03*
D14*
X160782000Y-63514000D03*
D15*
X170942000Y-63514000D03*
D12*
X152410000Y-53848000D03*
D13*
X154950000Y-53848000D03*
X157490000Y-53848000D03*
X160030000Y-53848000D03*
D14*
X121960000Y-104140000D03*
X124460000Y-104140000D03*
D12*
X114031000Y-74422000D03*
D13*
X111491000Y-74422000D03*
X108951000Y-74422000D03*
D12*
X114285000Y-100076000D03*
D13*
X111745000Y-100076000D03*
X109205000Y-100076000D03*
D12*
X114046000Y-70612000D03*
D13*
X111506000Y-70612000D03*
X108966000Y-70612000D03*
D16*
X181142000Y-76454000D03*
D14*
X183642000Y-76454000D03*
D16*
X180888000Y-58166000D03*
D14*
X183388000Y-58166000D03*
X118603000Y-63540000D03*
X118603000Y-66040000D03*
D17*
X195326000Y-80518000D03*
D18*
X190326000Y-75518000D03*
X190326000Y-85518000D03*
D16*
X181142000Y-83820000D03*
D14*
X183642000Y-83820000D03*
D12*
X114031000Y-59182000D03*
D13*
X111491000Y-59182000D03*
X108951000Y-59182000D03*
D19*
X174498000Y-66294000D03*
D20*
X175768000Y-66294000D03*
X177038000Y-66294000D03*
D19*
X174498000Y-59690000D03*
D20*
X175768000Y-59690000D03*
X177038000Y-59690000D03*
D12*
X114285000Y-96266000D03*
D13*
X111745000Y-96266000D03*
X109205000Y-96266000D03*
D17*
X195326000Y-63754000D03*
D18*
X190326000Y-58754000D03*
X190326000Y-68754000D03*
D21*
X196342000Y-107282000D03*
D22*
X196342000Y-102282000D03*
X196342000Y-97282000D03*
X191342000Y-107282000D03*
X191342000Y-102282000D03*
X191342000Y-97282000D03*
D16*
X180888000Y-65786000D03*
D14*
X183388000Y-65786000D03*
D23*
X162052000Y-120904000D03*
D24*
X159512000Y-123444000D03*
X162052000Y-123444000D03*
X159512000Y-125984000D03*
X162052000Y-125984000D03*
X159512000Y-128524000D03*
X162052000Y-131064000D03*
X162052000Y-128524000D03*
X164592000Y-131064000D03*
X164592000Y-128524000D03*
X167132000Y-131064000D03*
X167132000Y-128524000D03*
X169672000Y-131064000D03*
X169672000Y-128524000D03*
X172212000Y-131064000D03*
X172212000Y-128524000D03*
X174752000Y-131064000D03*
X177292000Y-128524000D03*
X174752000Y-128524000D03*
X177292000Y-125984000D03*
X174752000Y-125984000D03*
X177292000Y-123444000D03*
X174752000Y-123444000D03*
X177292000Y-120904000D03*
X174752000Y-120904000D03*
X177292000Y-118364000D03*
X174752000Y-118364000D03*
X177292000Y-115824000D03*
X174752000Y-113284000D03*
X174752000Y-115824000D03*
X172212000Y-113284000D03*
X172212000Y-115824000D03*
X169672000Y-113284000D03*
X169672000Y-115824000D03*
X167132000Y-113284000D03*
X167132000Y-115824000D03*
X164592000Y-113284000D03*
X164592000Y-115824000D03*
X162052000Y-113284000D03*
X159512000Y-115824000D03*
X162052000Y-115824000D03*
X159512000Y-118364000D03*
X162052000Y-118364000D03*
X159512000Y-120904000D03*
D14*
X138176000Y-124206000D03*
D15*
X128016000Y-124206000D03*
D25*
X111252000Y-128524000D03*
D26*
X113792000Y-128524000D03*
X116332000Y-128524000D03*
D14*
X110236000Y-134874000D03*
D15*
X120396000Y-134874000D03*
D14*
X121198000Y-117094000D03*
X123698000Y-117094000D03*
X104633000Y-96814000D03*
X104633000Y-99314000D03*
X175808000Y-106680000D03*
X178308000Y-106680000D03*
X104379000Y-70906000D03*
X104379000Y-73406000D03*
D27*
X102870000Y-136398000D03*
D28*
X105410000Y-136398000D03*
D14*
X160782000Y-72658000D03*
D15*
X170942000Y-72658000D03*
D14*
X155508000Y-104140000D03*
X158008000Y-104140000D03*
X160762000Y-94488000D03*
D15*
X170922000Y-94488000D03*
D14*
X118603000Y-70652000D03*
X118603000Y-73152000D03*
D16*
X103418000Y-123952000D03*
D14*
X105918000Y-123952000D03*
D16*
X121198000Y-124206000D03*
D14*
X123698000Y-124206000D03*
X104633000Y-88940000D03*
X104633000Y-91440000D03*
X103164000Y-116586000D03*
X105664000Y-116586000D03*
D16*
X155702000Y-84582000D03*
D15*
X153162000Y-84582000D03*
X150622000Y-84582000D03*
X148082000Y-84582000D03*
X145542000Y-84582000D03*
X143002000Y-84582000D03*
X140462000Y-84582000D03*
X137922000Y-84582000D03*
X135382000Y-84582000D03*
X132842000Y-84582000D03*
X130302000Y-84582000D03*
X127762000Y-84582000D03*
X125222000Y-84582000D03*
X122682000Y-84582000D03*
X122682000Y-99822000D03*
X125222000Y-99822000D03*
X127762000Y-99822000D03*
X130302000Y-99822000D03*
X132842000Y-99822000D03*
X135382000Y-99822000D03*
X137922000Y-99822000D03*
X140462000Y-99822000D03*
X143002000Y-99822000D03*
X145542000Y-99822000D03*
X148082000Y-99822000D03*
X150622000Y-99822000D03*
X153162000Y-99822000D03*
X155702000Y-99822000D03*
D14*
X161056000Y-84850000D03*
X163556000Y-84850000D03*
D16*
X155702000Y-59182000D03*
D15*
X153162000Y-59182000D03*
X150622000Y-59182000D03*
X148082000Y-59182000D03*
X145542000Y-59182000D03*
X143002000Y-59182000D03*
X140462000Y-59182000D03*
X137922000Y-59182000D03*
X135382000Y-59182000D03*
X132842000Y-59182000D03*
X130302000Y-59182000D03*
X127762000Y-59182000D03*
X125222000Y-59182000D03*
X122682000Y-59182000D03*
X122682000Y-74422000D03*
X125222000Y-74422000D03*
X127762000Y-74422000D03*
X130302000Y-74422000D03*
X132842000Y-74422000D03*
X135382000Y-74422000D03*
X137922000Y-74422000D03*
X140462000Y-74422000D03*
X143002000Y-74422000D03*
X145542000Y-74422000D03*
X148082000Y-74422000D03*
X150622000Y-74422000D03*
X153162000Y-74422000D03*
X155702000Y-74422000D03*
D12*
X114031000Y-62992000D03*
D13*
X111491000Y-62992000D03*
X108951000Y-62992000D03*
D14*
X163790000Y-77484000D03*
X161290000Y-77484000D03*
X118349000Y-88940000D03*
X118349000Y-91440000D03*
X112308000Y-105918000D03*
X114808000Y-105918000D03*
X142534000Y-54864000D03*
X145034000Y-54864000D03*
X160762000Y-99328000D03*
D15*
X170922000Y-99328000D03*
D14*
X143296000Y-104140000D03*
X145796000Y-104140000D03*
X120436000Y-54864000D03*
X122936000Y-54864000D03*
D19*
X128524000Y-130302000D03*
D20*
X129794000Y-130302000D03*
X131064000Y-130302000D03*
D14*
X118349000Y-96560000D03*
X118349000Y-99060000D03*
X143804000Y-78994000D03*
X146304000Y-78994000D03*
D12*
X114285000Y-92456000D03*
D13*
X111745000Y-92456000D03*
X109205000Y-92456000D03*
D14*
X183622000Y-88646000D03*
X181122000Y-88646000D03*
X149098000Y-104140000D03*
X151598000Y-104140000D03*
D12*
X114285000Y-88454000D03*
D13*
X111745000Y-88454000D03*
X109205000Y-88454000D03*
D14*
X182920000Y-112268000D03*
X185420000Y-112268000D03*
X149626000Y-78994000D03*
X152126000Y-78994000D03*
X132120000Y-54864000D03*
X134620000Y-54864000D03*
D12*
X114046000Y-66802000D03*
D13*
X111506000Y-66802000D03*
X108966000Y-66802000D03*
D14*
X160762000Y-89676000D03*
D15*
X170922000Y-89676000D03*
D12*
X186690000Y-121412000D03*
D13*
X186690000Y-123952000D03*
X186690000Y-126492000D03*
X186690000Y-129032000D03*
X186690000Y-131572000D03*
X186690000Y-134112000D03*
D14*
X168148000Y-84836000D03*
X170648000Y-84836000D03*
X104379000Y-63540000D03*
X104379000Y-66040000D03*
X138176000Y-120142000D03*
D15*
X128016000Y-120142000D03*
D14*
X181162000Y-71882000D03*
X183662000Y-71882000D03*
X170902000Y-77484000D03*
X168402000Y-77484000D03*
X119126000Y-80772000D03*
X121626000Y-80772000D03*
D29*
X115570000Y-141478000D03*
X109220000Y-125984000D03*
X117856000Y-113538000D03*
X129540000Y-112268000D03*
X125730000Y-107950000D03*
X134112000Y-141986000D03*
X164846000Y-64516000D03*
X145542000Y-63754000D03*
X165608000Y-106172000D03*
X126746000Y-112268000D03*
X127762000Y-133096000D03*
X135382000Y-133096000D03*
X135382000Y-117094000D03*
X179832000Y-146812000D03*
X179324000Y-127254000D03*
X150368000Y-118364000D03*
X152908000Y-120904000D03*
X127762000Y-87884000D03*
X149352000Y-87884000D03*
X170942000Y-124714000D03*
X136652000Y-106172000D03*
X162052000Y-142494000D03*
X170942000Y-108204000D03*
X136652000Y-93218000D03*
X131572000Y-93218000D03*
X147066000Y-125984000D03*
X165862000Y-136398000D03*
X160782000Y-136398000D03*
X145288000Y-131064000D03*
X168402000Y-141224000D03*
X162052000Y-141224000D03*
X143256000Y-132334000D03*
X141478000Y-127254000D03*
X146812000Y-82042000D03*
X158750000Y-82042000D03*
X118872000Y-126238000D03*
X118872000Y-142531500D03*
X118872000Y-109982000D03*
X146812000Y-96774000D03*
X164592000Y-96774000D03*
X146812000Y-93218000D03*
X139192000Y-93218000D03*
X122428000Y-114554000D03*
X125476000Y-113284000D03*
X149352000Y-115824000D03*
X123952000Y-95504000D03*
X151638000Y-119634000D03*
X144272000Y-95504000D03*
X141732000Y-96774000D03*
X129032000Y-96774000D03*
X148336000Y-122174000D03*
X134112000Y-104902000D03*
X153670000Y-107188000D03*
X146304000Y-128524000D03*
X159512000Y-135382000D03*
X164592000Y-135382000D03*
X144272000Y-129794000D03*
X142240000Y-133604000D03*
X167132000Y-133604000D03*
X140462000Y-124714000D03*
X131064000Y-137414000D03*
X120142000Y-137414000D03*
X157734000Y-81026000D03*
X143764000Y-81026000D03*
X191770000Y-126492000D03*
X184404000Y-117094000D03*
X128016000Y-108966000D03*
X178562000Y-69850000D03*
X193802000Y-61976000D03*
X153162000Y-60960000D03*
X143002000Y-66040000D03*
X166370000Y-66040000D03*
X136906000Y-70866000D03*
X174244000Y-70866000D03*
X173228000Y-87376000D03*
X150622000Y-91948000D03*
X175768000Y-94488000D03*
X175768000Y-83058000D03*
X177038000Y-84836000D03*
X177038000Y-101346000D03*
X172974000Y-56642000D03*
X162814000Y-57912000D03*
X155702000Y-87884000D03*
X150622000Y-90170000D03*
X148082000Y-94234000D03*
X154432000Y-97790000D03*
X151892000Y-101854000D03*
X155702000Y-61976000D03*
X150622000Y-64770000D03*
X148082000Y-68580000D03*
X154432000Y-71882000D03*
X149352000Y-75946000D03*
D30*
X114046000Y-125984000D02*
X109220000Y-125984000D01*
X122682000Y-139700000D02*
X120904000Y-141478000D01*
X120904000Y-141478000D02*
X115570000Y-141478000D01*
X114046000Y-125984000D02*
X117856000Y-122174000D01*
X117856000Y-113538000D02*
X117856000Y-122174000D01*
X165608000Y-107442000D02*
X165608000Y-106172000D01*
X145034000Y-76454000D02*
X144272000Y-75692000D01*
X144272000Y-69850000D02*
X145542000Y-68580000D01*
X165608000Y-106172000D02*
X165608000Y-67818000D01*
X132334000Y-119888000D02*
X132334000Y-125730000D01*
X125730000Y-111252000D02*
X126746000Y-112268000D01*
X145542000Y-63754000D02*
X145542000Y-59182000D01*
X134112000Y-127508000D02*
X134112000Y-141986000D01*
X145542000Y-82042000D02*
X145034000Y-81534000D01*
X165608000Y-67818000D02*
X164846000Y-67056000D01*
X169672000Y-115824000D02*
X168402000Y-114554000D01*
X145542000Y-84582000D02*
X145542000Y-82042000D01*
X145034000Y-81534000D02*
X145034000Y-76454000D01*
X132334000Y-125730000D02*
X134112000Y-127508000D01*
X145542000Y-68580000D02*
X145542000Y-63754000D01*
X129540000Y-112268000D02*
X129540000Y-117094000D01*
X144272000Y-75692000D02*
X144272000Y-69850000D01*
X168402000Y-114554000D02*
X168402000Y-110236000D01*
X125730000Y-107950000D02*
X125730000Y-111252000D01*
X129540000Y-117094000D02*
X132334000Y-119888000D01*
X164846000Y-67056000D02*
X164846000Y-64516000D01*
X168402000Y-110236000D02*
X165608000Y-107442000D01*
X127762000Y-133096000D02*
X127762000Y-139700000D01*
X135382000Y-117094000D02*
X135382000Y-133096000D01*
X173228000Y-127254000D02*
X179324000Y-127254000D01*
X132588000Y-147320000D02*
X131572000Y-146304000D01*
X160274000Y-146812000D02*
X159766000Y-147320000D01*
X132842000Y-141732000D02*
X132842000Y-139700000D01*
X162052000Y-125984000D02*
X171958000Y-125984000D01*
X131572000Y-146304000D02*
X131572000Y-143002000D01*
X179832000Y-146812000D02*
X160274000Y-146812000D01*
X171958000Y-125984000D02*
X173228000Y-127254000D01*
X159766000Y-147320000D02*
X132588000Y-147320000D01*
X131572000Y-143002000D02*
X132842000Y-141732000D01*
X155702000Y-138430000D02*
X155702000Y-139700000D01*
X150368000Y-118364000D02*
X150368000Y-133096000D01*
X150368000Y-133096000D02*
X155702000Y-138430000D01*
X152908000Y-132842000D02*
X152908000Y-120904000D01*
X126492000Y-68072000D02*
X126492000Y-76708000D01*
X149352000Y-101346000D02*
X150368000Y-102362000D01*
X127762000Y-77978000D02*
X127762000Y-84582000D01*
X149352000Y-101346000D02*
X149352000Y-87884000D01*
X150368000Y-113284000D02*
X150368000Y-102362000D01*
X152908000Y-120904000D02*
X152908000Y-115824000D01*
X152908000Y-132842000D02*
X158242000Y-138176000D01*
X127762000Y-87884000D02*
X127762000Y-84582000D01*
X150368000Y-113284000D02*
X152908000Y-115824000D01*
X127762000Y-66802000D02*
X126492000Y-68072000D01*
X127762000Y-59182000D02*
X127762000Y-66802000D01*
X158242000Y-139700000D02*
X158242000Y-138176000D01*
X126492000Y-76708000D02*
X127762000Y-77978000D01*
X132842000Y-67056000D02*
X132842000Y-59182000D01*
X131717000Y-76345000D02*
X131717000Y-68181000D01*
X160782000Y-124714000D02*
X159512000Y-123444000D01*
X170942000Y-124714000D02*
X160782000Y-124714000D01*
X132842000Y-84582000D02*
X132842000Y-77470000D01*
X136652000Y-106172000D02*
X136652000Y-93218000D01*
X131572000Y-93218000D02*
X131572000Y-91440000D01*
X160782000Y-141986000D02*
X160782000Y-139700000D01*
X132842000Y-77470000D02*
X131717000Y-76345000D01*
X170942000Y-124714000D02*
X170942000Y-108204000D01*
X131717000Y-68181000D02*
X132842000Y-67056000D01*
X132842000Y-90170000D02*
X132842000Y-84582000D01*
X162052000Y-142494000D02*
X161290000Y-142494000D01*
X131572000Y-91440000D02*
X132842000Y-90170000D01*
X161290000Y-142494000D02*
X160782000Y-141986000D01*
X165862000Y-136398000D02*
X165862000Y-139700000D01*
X141732000Y-90678000D02*
X141732000Y-82804000D01*
X147066000Y-125984000D02*
X147066000Y-115570000D01*
X141732000Y-82804000D02*
X141224000Y-82296000D01*
X141224000Y-82296000D02*
X141224000Y-77216000D01*
X147066000Y-115570000D02*
X140462000Y-108966000D01*
X140462000Y-108966000D02*
X140462000Y-99822000D01*
X159512000Y-125984000D02*
X160782000Y-127254000D01*
X141224000Y-77216000D02*
X140462000Y-76454000D01*
X140462000Y-91948000D02*
X141732000Y-90678000D01*
X140462000Y-76454000D02*
X140462000Y-74422000D01*
X140462000Y-99822000D02*
X140462000Y-91948000D01*
X160782000Y-127254000D02*
X160782000Y-136398000D01*
X162052000Y-131318000D02*
X162052000Y-132588000D01*
X135382000Y-106680000D02*
X135382000Y-99822000D01*
X135382000Y-76454000D02*
X135382000Y-74422000D01*
X168402000Y-141224000D02*
X168402000Y-139700000D01*
X162052000Y-132588000D02*
X162052000Y-141224000D01*
X135382000Y-99822000D02*
X135382000Y-91948000D01*
X145288000Y-116586000D02*
X135382000Y-106680000D01*
X162052000Y-132588000D02*
X162052000Y-131064000D01*
X136652000Y-77724000D02*
X135382000Y-76454000D01*
X136652000Y-90678000D02*
X136652000Y-77724000D01*
X145288000Y-131064000D02*
X145288000Y-116586000D01*
X135382000Y-91948000D02*
X136652000Y-90678000D01*
X143256000Y-117348000D02*
X130302000Y-104394000D01*
X164846000Y-131064000D02*
X164846000Y-130810000D01*
X167640000Y-129794000D02*
X168402000Y-130556000D01*
X131572000Y-77978000D02*
X130302000Y-76708000D01*
X170942000Y-136906000D02*
X170942000Y-139700000D01*
X168402000Y-130556000D02*
X168402000Y-134366000D01*
X165862000Y-129794000D02*
X167640000Y-129794000D01*
X168402000Y-134366000D02*
X170942000Y-136906000D01*
X165354000Y-130302000D02*
X165862000Y-129794000D01*
X130302000Y-76708000D02*
X130302000Y-74422000D01*
X130302000Y-104394000D02*
X130302000Y-99822000D01*
X130302000Y-99822000D02*
X130302000Y-91694000D01*
X164846000Y-130810000D02*
X165354000Y-130302000D01*
X165354000Y-130302000D02*
X164592000Y-131064000D01*
X143256000Y-132334000D02*
X143256000Y-117348000D01*
X130302000Y-91694000D02*
X131572000Y-90424000D01*
X131572000Y-90424000D02*
X131572000Y-77978000D01*
X167132000Y-127762000D02*
X167132000Y-128524000D01*
X126746000Y-101346000D02*
X125222000Y-99822000D01*
X173482000Y-139700000D02*
X173482000Y-136652000D01*
X125222000Y-91440000D02*
X126347000Y-90315000D01*
X126746000Y-103378000D02*
X126746000Y-101346000D01*
X173482000Y-136652000D02*
X170942000Y-134112000D01*
X126347000Y-90315000D02*
X126347000Y-77833000D01*
X125222000Y-76708000D02*
X125222000Y-74422000D01*
X170180000Y-127000000D02*
X167894000Y-127000000D01*
X125222000Y-99822000D02*
X125222000Y-91440000D01*
X141478000Y-127254000D02*
X141478000Y-118110000D01*
X167894000Y-127000000D02*
X167132000Y-127762000D01*
X126347000Y-77833000D02*
X125222000Y-76708000D01*
X141478000Y-118110000D02*
X126746000Y-103378000D01*
X170942000Y-134112000D02*
X170942000Y-127762000D01*
X170942000Y-127762000D02*
X170180000Y-127000000D01*
X169164000Y-56896000D02*
X159766000Y-56896000D01*
X145542000Y-99822000D02*
X149098000Y-103378000D01*
X145542000Y-88900000D02*
X146812000Y-87630000D01*
X158750000Y-57912000D02*
X158750000Y-82042000D01*
X159766000Y-56896000D02*
X158750000Y-57912000D01*
X145542000Y-99822000D02*
X145542000Y-88900000D01*
X169926000Y-53848000D02*
X169926000Y-56134000D01*
X169926000Y-56134000D02*
X169164000Y-56896000D01*
X149098000Y-103378000D02*
X149098000Y-104140000D01*
X146812000Y-87630000D02*
X146812000Y-82042000D01*
X118872000Y-109982000D02*
X118872000Y-126238000D01*
X122211500Y-142531500D02*
X122682000Y-143002000D01*
X122682000Y-143002000D02*
X122682000Y-144780000D01*
X118872000Y-142531500D02*
X122211500Y-142531500D01*
X140462000Y-90678000D02*
X140462000Y-84582000D01*
X139192000Y-68834000D02*
X140462000Y-67564000D01*
X123952000Y-140970000D02*
X123952000Y-134620000D01*
X125222000Y-144780000D02*
X125222000Y-142240000D01*
X125222000Y-142240000D02*
X123952000Y-140970000D01*
X139192000Y-76454000D02*
X139192000Y-68834000D01*
X140462000Y-77724000D02*
X139192000Y-76454000D01*
X139192000Y-91948000D02*
X140462000Y-90678000D01*
X146812000Y-96774000D02*
X146812000Y-93218000D01*
X140462000Y-67564000D02*
X140462000Y-59182000D01*
X122428000Y-133096000D02*
X122428000Y-114554000D01*
X140462000Y-84582000D02*
X140462000Y-77724000D01*
X123952000Y-134620000D02*
X122428000Y-133096000D01*
X164592000Y-113284000D02*
X164592000Y-96774000D01*
X139192000Y-93218000D02*
X139192000Y-91948000D01*
X126492000Y-141224000D02*
X127762000Y-142494000D01*
X126492000Y-137414000D02*
X126492000Y-141224000D01*
X127762000Y-142494000D02*
X127762000Y-144780000D01*
X125476000Y-136398000D02*
X126492000Y-137414000D01*
X125476000Y-113284000D02*
X125476000Y-136398000D01*
X149352000Y-133604000D02*
X154432000Y-138684000D01*
X149352000Y-115824000D02*
X149352000Y-133604000D01*
X154432000Y-138684000D02*
X154432000Y-142748000D01*
X153162000Y-144018000D02*
X153162000Y-144780000D01*
X154432000Y-142748000D02*
X153162000Y-144018000D01*
X151638000Y-119634000D02*
X151638000Y-116078000D01*
X125222000Y-84582000D02*
X125222000Y-77978000D01*
X124097000Y-67927000D02*
X125222000Y-66802000D01*
X144272000Y-101346000D02*
X144272000Y-95504000D01*
X151638000Y-119634000D02*
X151638000Y-132842000D01*
X144526000Y-108966000D02*
X144526000Y-101600000D01*
X155702000Y-143256000D02*
X155702000Y-144780000D01*
X144526000Y-101600000D02*
X144272000Y-101346000D01*
X123952000Y-95504000D02*
X123952000Y-91567000D01*
X123952000Y-91567000D02*
X125222000Y-90297000D01*
X125222000Y-66802000D02*
X125222000Y-59182000D01*
X156972000Y-141986000D02*
X155702000Y-143256000D01*
X124097000Y-76853000D02*
X124097000Y-67927000D01*
X124097000Y-76853000D02*
X125222000Y-77978000D01*
X144526000Y-108966000D02*
X151638000Y-116078000D01*
X151638000Y-132842000D02*
X156972000Y-138176000D01*
X125222000Y-90297000D02*
X125222000Y-84582000D01*
X156972000Y-138176000D02*
X156972000Y-141986000D01*
X129032000Y-91694000D02*
X130302000Y-90424000D01*
X148336000Y-122174000D02*
X148336000Y-115570000D01*
X130302000Y-84582000D02*
X130302000Y-77470000D01*
X130302000Y-90424000D02*
X130302000Y-84582000D01*
X157480000Y-146558000D02*
X158242000Y-145796000D01*
X148336000Y-134112000D02*
X151892000Y-137668000D01*
X129177000Y-68181000D02*
X130302000Y-67056000D01*
X151892000Y-145796000D02*
X152654000Y-146558000D01*
X152654000Y-146558000D02*
X157480000Y-146558000D01*
X158242000Y-145796000D02*
X158242000Y-144780000D01*
X129032000Y-96774000D02*
X129032000Y-91694000D01*
X130302000Y-77470000D02*
X129177000Y-76345000D01*
X129177000Y-76345000D02*
X129177000Y-68181000D01*
X148336000Y-122174000D02*
X148336000Y-134112000D01*
X141732000Y-108966000D02*
X141732000Y-96774000D01*
X141732000Y-108966000D02*
X148336000Y-115570000D01*
X151892000Y-137668000D02*
X151892000Y-145796000D01*
X130302000Y-67056000D02*
X130302000Y-59182000D01*
X160782000Y-144780000D02*
X160782000Y-143256000D01*
X134112000Y-91948000D02*
X135382000Y-90678000D01*
X159512000Y-138176000D02*
X156718000Y-135382000D01*
X153670000Y-107188000D02*
X153670000Y-108458000D01*
X156972000Y-122174000D02*
X156718000Y-121920000D01*
X135382000Y-77724000D02*
X134112000Y-76454000D01*
X159512000Y-141986000D02*
X159512000Y-138176000D01*
X160782000Y-143256000D02*
X159512000Y-141986000D01*
X134112000Y-76454000D02*
X134112000Y-68326000D01*
X156718000Y-122428000D02*
X156972000Y-122174000D01*
X135382000Y-84582000D02*
X135382000Y-77724000D01*
X156718000Y-111506000D02*
X156718000Y-121920000D01*
X135382000Y-67056000D02*
X135382000Y-59182000D01*
X156718000Y-123952000D02*
X156718000Y-121920000D01*
X134112000Y-104902000D02*
X134112000Y-91948000D01*
X134112000Y-68326000D02*
X135382000Y-67056000D01*
X156718000Y-135382000D02*
X156718000Y-123952000D01*
X156718000Y-123952000D02*
X156718000Y-122428000D01*
X160782000Y-122174000D02*
X162052000Y-120904000D01*
X156972000Y-122174000D02*
X160782000Y-122174000D01*
X153670000Y-108458000D02*
X156718000Y-111506000D01*
X135382000Y-90678000D02*
X135382000Y-84582000D01*
X146304000Y-116078000D02*
X146304000Y-128524000D01*
X164592000Y-143510000D02*
X165862000Y-144780000D01*
X137922000Y-107696000D02*
X146304000Y-116078000D01*
X137922000Y-99822000D02*
X137922000Y-107696000D01*
X159512000Y-128524000D02*
X159512000Y-135382000D01*
X164592000Y-135382000D02*
X164592000Y-143510000D01*
X139047000Y-90678000D02*
X139047000Y-77579000D01*
X139047000Y-77579000D02*
X137922000Y-76454000D01*
X137922000Y-99822000D02*
X137922000Y-91803000D01*
X137922000Y-76454000D02*
X137922000Y-74422000D01*
X137922000Y-91803000D02*
X139047000Y-90678000D01*
X163322000Y-129540000D02*
X163322000Y-132334000D01*
X144272000Y-129794000D02*
X144272000Y-116840000D01*
X132842000Y-91948000D02*
X134112000Y-90678000D01*
X134112000Y-90678000D02*
X134112000Y-77724000D01*
X132842000Y-105410000D02*
X132842000Y-99822000D01*
X167132000Y-141986000D02*
X168402000Y-143256000D01*
X162306000Y-128524000D02*
X163322000Y-129540000D01*
X134112000Y-77724000D02*
X132842000Y-76454000D01*
X168402000Y-143256000D02*
X168402000Y-144780000D01*
X163322000Y-132334000D02*
X167132000Y-136144000D01*
X132842000Y-99822000D02*
X132842000Y-91948000D01*
X132842000Y-76454000D02*
X132842000Y-74422000D01*
X144272000Y-116840000D02*
X132842000Y-105410000D01*
X167132000Y-136144000D02*
X167132000Y-141986000D01*
X129032000Y-90424000D02*
X129032000Y-77724000D01*
X169672000Y-141732000D02*
X170942000Y-143002000D01*
X169672000Y-136906000D02*
X169672000Y-141732000D01*
X142240000Y-117602000D02*
X127762000Y-103124000D01*
X167132000Y-131064000D02*
X167132000Y-133604000D01*
X129032000Y-77724000D02*
X127762000Y-76454000D01*
X142240000Y-133604000D02*
X142240000Y-117602000D01*
X170942000Y-143002000D02*
X170942000Y-144780000D01*
X167132000Y-134366000D02*
X169672000Y-136906000D01*
X127762000Y-91694000D02*
X129032000Y-90424000D01*
X127762000Y-76454000D02*
X127762000Y-74422000D01*
X127762000Y-99822000D02*
X127762000Y-91694000D01*
X127762000Y-103124000D02*
X127762000Y-99822000D01*
X167132000Y-133604000D02*
X167132000Y-134366000D01*
X172212000Y-136906000D02*
X172212000Y-141732000D01*
X173482000Y-143002000D02*
X173482000Y-144780000D01*
X122682000Y-76708000D02*
X123952000Y-77978000D01*
X123952000Y-90170000D02*
X122682000Y-91440000D01*
X129032000Y-106934000D02*
X125222000Y-106934000D01*
X122682000Y-91440000D02*
X122682000Y-99822000D01*
X123952000Y-77978000D02*
X123952000Y-90170000D01*
X169926000Y-134620000D02*
X172212000Y-136906000D01*
X140462000Y-118364000D02*
X129032000Y-106934000D01*
X125222000Y-106934000D02*
X123190000Y-104902000D01*
X123190000Y-104902000D02*
X123190000Y-101346000D01*
X122682000Y-100838000D02*
X122682000Y-99822000D01*
X123190000Y-101346000D02*
X122682000Y-100838000D01*
X172212000Y-141732000D02*
X173482000Y-143002000D01*
X122682000Y-74422000D02*
X122682000Y-76708000D01*
X169926000Y-131064000D02*
X169926000Y-134620000D01*
X140462000Y-124714000D02*
X140462000Y-118364000D01*
X131064000Y-127254000D02*
X128016000Y-124206000D01*
X131064000Y-130302000D02*
X131064000Y-127254000D01*
X120142000Y-137414000D02*
X120142000Y-139700000D01*
X131064000Y-130302000D02*
X131064000Y-137414000D01*
X157734000Y-57404000D02*
X159004000Y-56134000D01*
X144272000Y-91440000D02*
X144272000Y-81534000D01*
X167386000Y-55626000D02*
X167386000Y-53848000D01*
X166878000Y-56134000D02*
X167386000Y-55626000D01*
X143002000Y-99822000D02*
X143002000Y-103846000D01*
X159004000Y-56134000D02*
X166878000Y-56134000D01*
X144272000Y-81534000D02*
X143764000Y-81026000D01*
X143002000Y-103846000D02*
X143296000Y-104140000D01*
X143002000Y-99822000D02*
X143002000Y-92710000D01*
X143002000Y-92710000D02*
X144272000Y-91440000D01*
X157734000Y-81026000D02*
X157734000Y-57404000D01*
X190326000Y-85518000D02*
X185340000Y-85518000D01*
X185340000Y-85518000D02*
X183642000Y-83820000D01*
X188134000Y-68754000D02*
X185166000Y-65786000D01*
X190326000Y-68754000D02*
X188134000Y-68754000D01*
X185166000Y-65786000D02*
X183388000Y-65786000D01*
X183642000Y-76454000D02*
X187198000Y-76454000D01*
X188134000Y-75518000D02*
X190326000Y-75518000D01*
X187198000Y-76454000D02*
X188134000Y-75518000D01*
X186008000Y-58754000D02*
X185420000Y-58166000D01*
X190326000Y-58754000D02*
X186008000Y-58754000D01*
X185420000Y-58166000D02*
X183388000Y-58166000D01*
D31*
X102362000Y-81788000D02*
X102362000Y-102108000D01*
X103164000Y-116586000D02*
X103164000Y-102910000D01*
X112776000Y-81280000D02*
X114310000Y-82814000D01*
X102870000Y-81280000D02*
X102362000Y-80772000D01*
X102870000Y-81280000D02*
X112776000Y-81280000D01*
X104648000Y-51308000D02*
X174498000Y-51308000D01*
X175514000Y-52324000D02*
X175514000Y-56388000D01*
X174498000Y-51308000D02*
X175514000Y-52324000D01*
X111252000Y-131318000D02*
X111252000Y-128524000D01*
X174498000Y-59690000D02*
X174498000Y-66294000D01*
X102362000Y-58674000D02*
X102362000Y-55880000D01*
X114310000Y-82814000D02*
X114310000Y-84587000D01*
X102362000Y-56896000D02*
X102362000Y-58674000D01*
X112522000Y-139700000D02*
X112522000Y-132588000D01*
X102362000Y-53594000D02*
X104648000Y-51308000D01*
X114031000Y-57389000D02*
X113030000Y-56388000D01*
X102870000Y-56388000D02*
X102362000Y-55880000D01*
X102362000Y-81280000D02*
X102362000Y-81788000D01*
X102362000Y-55880000D02*
X102362000Y-53594000D01*
X112522000Y-144780000D02*
X112522000Y-139700000D01*
X174498000Y-57404000D02*
X174498000Y-59690000D01*
X113030000Y-56388000D02*
X102870000Y-56388000D01*
X111252000Y-128524000D02*
X105410000Y-128524000D01*
X112522000Y-132588000D02*
X111252000Y-131318000D01*
X114031000Y-59182000D02*
X114031000Y-57389000D01*
X102362000Y-80772000D02*
X102362000Y-81280000D01*
X102870000Y-56388000D02*
X102362000Y-56896000D01*
X175514000Y-56388000D02*
X174498000Y-57404000D01*
X103418000Y-123952000D02*
X103418000Y-116840000D01*
X103418000Y-116840000D02*
X103164000Y-116586000D01*
X103418000Y-126532000D02*
X103418000Y-123952000D01*
X102870000Y-81280000D02*
X102362000Y-81788000D01*
X103164000Y-102910000D02*
X102362000Y-102108000D01*
X102362000Y-58674000D02*
X102362000Y-80772000D01*
X102870000Y-81280000D02*
X102362000Y-81280000D01*
X105410000Y-128524000D02*
X103418000Y-126532000D01*
D30*
X187960000Y-132842000D02*
X188976000Y-131826000D01*
X188976000Y-131826000D02*
X188976000Y-124206000D01*
X188722000Y-123952000D02*
X186690000Y-123952000D01*
X174752000Y-131064000D02*
X176530000Y-132842000D01*
X176530000Y-132842000D02*
X187960000Y-132842000D01*
X188976000Y-124206000D02*
X188722000Y-123952000D01*
X177038000Y-135890000D02*
X188976000Y-135890000D01*
X188976000Y-135890000D02*
X191770000Y-133096000D01*
X172212000Y-131064000D02*
X177038000Y-135890000D01*
X191770000Y-133096000D02*
X191770000Y-126492000D01*
X186690000Y-129032000D02*
X185166000Y-129032000D01*
X185166000Y-129032000D02*
X184404000Y-128270000D01*
X184404000Y-128270000D02*
X184404000Y-117094000D01*
X173482000Y-129794000D02*
X176530000Y-129794000D01*
X178308000Y-131572000D02*
X186690000Y-131572000D01*
X176530000Y-129794000D02*
X178308000Y-131572000D01*
X172212000Y-128524000D02*
X173482000Y-129794000D01*
X126238000Y-121920000D02*
X128016000Y-120142000D01*
X129794000Y-128270000D02*
X129032000Y-127508000D01*
X129794000Y-130302000D02*
X129794000Y-128270000D01*
X126238000Y-125730000D02*
X126238000Y-121920000D01*
X128016000Y-127508000D02*
X126238000Y-125730000D01*
X129032000Y-127508000D02*
X128016000Y-127508000D01*
X128016000Y-108966000D02*
X128016000Y-120142000D01*
X160762000Y-89676000D02*
X160762000Y-94488000D01*
X179244000Y-102282000D02*
X191342000Y-102282000D01*
X178562000Y-101600000D02*
X179244000Y-102282000D01*
X160782000Y-63514000D02*
X160782000Y-68072000D01*
X178562000Y-69850000D02*
X178562000Y-101600000D01*
X191342000Y-107282000D02*
X193802000Y-104822000D01*
X153162000Y-60960000D02*
X153162000Y-74422000D01*
X193802000Y-104822000D02*
X193802000Y-61976000D01*
X143002000Y-59182000D02*
X143002000Y-66040000D01*
X141732000Y-76454000D02*
X141986000Y-76708000D01*
X143002000Y-68580000D02*
X141732000Y-69850000D01*
X171704000Y-103632000D02*
X168656000Y-103632000D01*
X172212000Y-104140000D02*
X171704000Y-103632000D01*
X168148000Y-103124000D02*
X168148000Y-89662000D01*
X168656000Y-103632000D02*
X168148000Y-103124000D01*
X173482000Y-117094000D02*
X173482000Y-111252000D01*
X174752000Y-118364000D02*
X173482000Y-117094000D01*
X166370000Y-87884000D02*
X166370000Y-66040000D01*
X172212000Y-109982000D02*
X172212000Y-104140000D01*
X141732000Y-69850000D02*
X141732000Y-76454000D01*
X173482000Y-111252000D02*
X172212000Y-109982000D01*
X141986000Y-76708000D02*
X141986000Y-81280000D01*
X143002000Y-82296000D02*
X143002000Y-84582000D01*
X143002000Y-66040000D02*
X143002000Y-68580000D01*
X168148000Y-89662000D02*
X166370000Y-87884000D01*
X141986000Y-81280000D02*
X143002000Y-82296000D01*
X136906000Y-68326000D02*
X137922000Y-67310000D01*
X137922000Y-67310000D02*
X137922000Y-59182000D01*
X177292000Y-108966000D02*
X177038000Y-108712000D01*
X174244000Y-100838000D02*
X174244000Y-70866000D01*
X177038000Y-108712000D02*
X177038000Y-103632000D01*
X177038000Y-103632000D02*
X174244000Y-100838000D01*
X177292000Y-115824000D02*
X177292000Y-108966000D01*
X136906000Y-70866000D02*
X136906000Y-68326000D01*
X173228000Y-109220000D02*
X173228000Y-87376000D01*
X173228000Y-109220000D02*
X174752000Y-110744000D01*
X174752000Y-113284000D02*
X174752000Y-110744000D01*
X104633000Y-88940000D02*
X107402000Y-88940000D01*
X107888000Y-88454000D02*
X109205000Y-88454000D01*
X107402000Y-88940000D02*
X107888000Y-88454000D01*
X106680000Y-91440000D02*
X104633000Y-91440000D01*
X107696000Y-92456000D02*
X106680000Y-91440000D01*
X109205000Y-92456000D02*
X107696000Y-92456000D01*
X114285000Y-88454000D02*
X115886000Y-88454000D01*
X115886000Y-88454000D02*
X116372000Y-88940000D01*
X116372000Y-88940000D02*
X118349000Y-88940000D01*
X115570000Y-92456000D02*
X116586000Y-91440000D01*
X114285000Y-92456000D02*
X115570000Y-92456000D01*
X116586000Y-91440000D02*
X118349000Y-91440000D01*
X183622000Y-87356000D02*
X183622000Y-88646000D01*
X181142000Y-84876000D02*
X183622000Y-87356000D01*
X181142000Y-83820000D02*
X181142000Y-84876000D01*
X150622000Y-99822000D02*
X150622000Y-91948000D01*
X104633000Y-96814000D02*
X106386000Y-96814000D01*
X106386000Y-96814000D02*
X106934000Y-96266000D01*
X106934000Y-96266000D02*
X109205000Y-96266000D01*
X106426000Y-99314000D02*
X104633000Y-99314000D01*
X109205000Y-100076000D02*
X107188000Y-100076000D01*
X107188000Y-100076000D02*
X106426000Y-99314000D01*
X116118000Y-96560000D02*
X118349000Y-96560000D01*
X114285000Y-96266000D02*
X115824000Y-96266000D01*
X115824000Y-96266000D02*
X116118000Y-96560000D01*
X114285000Y-100076000D02*
X115824000Y-100076000D01*
X115824000Y-100076000D02*
X116840000Y-99060000D01*
X116840000Y-99060000D02*
X118349000Y-99060000D01*
X175768000Y-83058000D02*
X175768000Y-82296000D01*
X175768000Y-82296000D02*
X175768000Y-94488000D01*
X175768000Y-82296000D02*
X175768000Y-66294000D01*
X177038000Y-84836000D02*
X177038000Y-84074000D01*
X177038000Y-84074000D02*
X177038000Y-101346000D01*
X177038000Y-84074000D02*
X177038000Y-66294000D01*
X149626000Y-78994000D02*
X149626000Y-77744000D01*
X148082000Y-76200000D02*
X146304000Y-76200000D01*
X146812000Y-58166000D02*
X147574000Y-57404000D01*
X157490000Y-56378000D02*
X157490000Y-53848000D01*
X145542000Y-75438000D02*
X145542000Y-74422000D01*
X145542000Y-70358000D02*
X146812000Y-69088000D01*
X146812000Y-69088000D02*
X146812000Y-58166000D01*
X146304000Y-76200000D02*
X145542000Y-75438000D01*
X156464000Y-57404000D02*
X157490000Y-56378000D01*
X145542000Y-74422000D02*
X145542000Y-70358000D01*
X147574000Y-57404000D02*
X156464000Y-57404000D01*
X149626000Y-77744000D02*
X148082000Y-76200000D01*
X107188000Y-62992000D02*
X106640000Y-63540000D01*
X106640000Y-63540000D02*
X104379000Y-63540000D01*
X108951000Y-62992000D02*
X107188000Y-62992000D01*
X106680000Y-66040000D02*
X104379000Y-66040000D01*
X107442000Y-66802000D02*
X106680000Y-66040000D01*
X108966000Y-66802000D02*
X107442000Y-66802000D01*
X154950000Y-55870000D02*
X154950000Y-53848000D01*
X143002000Y-74422000D02*
X143002000Y-69342000D01*
X143804000Y-77002000D02*
X143804000Y-78994000D01*
X143002000Y-69342000D02*
X144272000Y-68072000D01*
X144272000Y-68072000D02*
X144272000Y-57404000D01*
X144272000Y-57404000D02*
X145034000Y-56642000D01*
X145034000Y-56642000D02*
X154178000Y-56642000D01*
X143002000Y-74422000D02*
X143002000Y-76200000D01*
X154178000Y-56642000D02*
X154950000Y-55870000D01*
X143002000Y-76200000D02*
X143804000Y-77002000D01*
X115570000Y-62992000D02*
X116118000Y-63540000D01*
X116118000Y-63540000D02*
X118603000Y-63540000D01*
X114031000Y-62992000D02*
X115570000Y-62992000D01*
X115316000Y-66802000D02*
X116078000Y-66040000D01*
X114046000Y-66802000D02*
X115316000Y-66802000D01*
X116078000Y-66040000D02*
X118603000Y-66040000D01*
X181162000Y-71882000D02*
X181162000Y-76434000D01*
X181162000Y-76434000D02*
X181142000Y-76454000D01*
X108966000Y-70612000D02*
X107188000Y-70612000D01*
X106894000Y-70906000D02*
X104379000Y-70906000D01*
X107188000Y-70612000D02*
X106894000Y-70906000D01*
X108951000Y-74422000D02*
X107696000Y-74422000D01*
X107696000Y-74422000D02*
X106680000Y-73406000D01*
X106680000Y-73406000D02*
X104379000Y-73406000D01*
X114046000Y-70612000D02*
X118563000Y-70612000D01*
X118563000Y-70612000D02*
X118603000Y-70652000D01*
X116840000Y-73152000D02*
X118603000Y-73152000D01*
X114031000Y-74422000D02*
X115570000Y-74422000D01*
X115570000Y-74422000D02*
X116840000Y-73152000D01*
X170902000Y-75652000D02*
X168656000Y-73406000D01*
X172974000Y-56642000D02*
X172974000Y-66040000D01*
X168656000Y-73406000D02*
X168656000Y-71882000D01*
X168656000Y-71882000D02*
X170942000Y-69596000D01*
X170902000Y-77484000D02*
X170902000Y-75652000D01*
X172974000Y-66040000D02*
X170942000Y-68072000D01*
X170942000Y-69596000D02*
X170942000Y-68072000D01*
X162814000Y-70626000D02*
X162814000Y-57912000D01*
X177546000Y-59690000D02*
X179070000Y-58166000D01*
X179070000Y-58166000D02*
X180888000Y-58166000D01*
X161290000Y-74676000D02*
X161290000Y-77484000D01*
X160782000Y-72658000D02*
X162814000Y-70626000D01*
X160782000Y-72658000D02*
X160782000Y-74168000D01*
X177038000Y-59690000D02*
X177546000Y-59690000D01*
X160782000Y-74168000D02*
X161290000Y-74676000D01*
D31*
X121198000Y-126960000D02*
X121198000Y-124206000D01*
X116332000Y-128524000D02*
X119634000Y-128524000D01*
X121198000Y-124206000D02*
X121198000Y-117094000D01*
X119634000Y-128524000D02*
X121198000Y-126960000D01*
D30*
X106934000Y-134874000D02*
X110236000Y-134874000D01*
X105410000Y-136398000D02*
X106934000Y-134874000D01*
D31*
X155702000Y-87884000D02*
X155702000Y-99822000D01*
D30*
X150622000Y-90170000D02*
X150622000Y-84582000D01*
X148082000Y-94234000D02*
X148082000Y-84582000D01*
X154432000Y-87122000D02*
X155702000Y-85852000D01*
X154432000Y-97790000D02*
X154432000Y-87122000D01*
X155702000Y-85852000D02*
X155702000Y-84582000D01*
X153162000Y-91694000D02*
X153162000Y-84582000D01*
X151892000Y-92964000D02*
X153162000Y-91694000D01*
X151892000Y-101854000D02*
X151892000Y-92964000D01*
D31*
X155702000Y-61976000D02*
X155702000Y-74422000D01*
D30*
X150622000Y-64770000D02*
X150622000Y-59182000D01*
X148082000Y-68580000D02*
X148082000Y-59182000D01*
X155702000Y-60452000D02*
X155702000Y-59182000D01*
X154432000Y-71882000D02*
X154432000Y-61722000D01*
X154432000Y-61722000D02*
X155702000Y-60452000D01*
X149352000Y-75946000D02*
X149352000Y-71374000D01*
X149352000Y-71374000D02*
X151892000Y-68834000D01*
X151892000Y-68834000D02*
X151892000Y-60452000D01*
X151892000Y-60452000D02*
X153162000Y-59182000D01*
M02*
