%TF.GenerationSoftware,KiCad,Pcbnew,7.0.8*%
%TF.CreationDate,2024-01-05T15:28:03+00:00*%
%TF.ProjectId,AudioSID,41756469-6f53-4494-942e-6b696361645f,rev?*%
%TF.SameCoordinates,Original*%
%TF.FileFunction,Drillmap*%
%TF.FilePolarity,Positive*%
%FSLAX45Y45*%
G04 Gerber Fmt 4.5, Leading zero omitted, Abs format (unit mm)*
G04 Created by KiCad (PCBNEW 7.0.8) date 2024-01-05 15:28:03*
%MOMM*%
%LPD*%
G01*
G04 APERTURE LIST*
%ADD10C,0.050000*%
%ADD11C,0.200000*%
%ADD12C,0.120000*%
%ADD13C,0.285000*%
%ADD14C,0.350000*%
G04 APERTURE END LIST*
D10*
X20000000Y-11250000D02*
X20000000Y-10750000D01*
X20000000Y-10750000D02*
X20000000Y-5250000D01*
X19750000Y-15000000D02*
X10250000Y-15000000D01*
X10000000Y-14750000D02*
X10000000Y-5250000D01*
X10250000Y-5000000D02*
X19750000Y-5000000D01*
X10000000Y-14750000D02*
G75*
G03*
X10250000Y-15000000I250000J0D01*
G01*
X10250000Y-5000000D02*
G75*
G03*
X10000000Y-5250000I0J-250000D01*
G01*
X20000000Y-14750000D02*
X20000000Y-11250000D01*
X19750000Y-15000000D02*
G75*
G03*
X20000000Y-14750000I0J250000D01*
G01*
X20000000Y-5250000D02*
G75*
G03*
X19750000Y-5000000I-250000J0D01*
G01*
D11*
D12*
X18972600Y-6315400D02*
X19092600Y-6435400D01*
X19092600Y-6315400D02*
X18972600Y-6435400D01*
X18972600Y-7991800D02*
X19092600Y-8111800D01*
X19092600Y-7991800D02*
X18972600Y-8111800D01*
X19472600Y-5815400D02*
X19592600Y-5935400D01*
X19592600Y-5815400D02*
X19472600Y-5935400D01*
X19472600Y-6815400D02*
X19592600Y-6935400D01*
X19592600Y-6815400D02*
X19472600Y-6935400D01*
X19472600Y-7491800D02*
X19592600Y-7611800D01*
X19592600Y-7491800D02*
X19472600Y-7611800D01*
X19472600Y-8491800D02*
X19592600Y-8611800D01*
X19592600Y-8491800D02*
X19472600Y-8611800D01*
X19722600Y-5815400D02*
X19842600Y-5935400D01*
X19842600Y-5815400D02*
X19722600Y-5935400D01*
X19722600Y-6815400D02*
X19842600Y-6935400D01*
X19842600Y-6815400D02*
X19722600Y-6935400D01*
X19722600Y-7491800D02*
X19842600Y-7611800D01*
X19842600Y-7491800D02*
X19722600Y-7611800D01*
X19722600Y-8491800D02*
X19842600Y-8611800D01*
X19842600Y-8491800D02*
X19722600Y-8611800D01*
D13*
X10632700Y-14732000D02*
G75*
G03*
X10632700Y-14732000I-142500J0D01*
G01*
X19522700Y-14732000D02*
G75*
G03*
X19522700Y-14732000I-142500J0D01*
G01*
D14*
X11379200Y-11011400D02*
X11379200Y-11361400D01*
X11204200Y-11186400D02*
X11554200Y-11186400D01*
D11*
X10258277Y-15313984D02*
X10258277Y-15113984D01*
X10258277Y-15113984D02*
X10305896Y-15113984D01*
X10305896Y-15113984D02*
X10334467Y-15123508D01*
X10334467Y-15123508D02*
X10353515Y-15142555D01*
X10353515Y-15142555D02*
X10363039Y-15161603D01*
X10363039Y-15161603D02*
X10372563Y-15199698D01*
X10372563Y-15199698D02*
X10372563Y-15228269D01*
X10372563Y-15228269D02*
X10363039Y-15266365D01*
X10363039Y-15266365D02*
X10353515Y-15285412D01*
X10353515Y-15285412D02*
X10334467Y-15304460D01*
X10334467Y-15304460D02*
X10305896Y-15313984D01*
X10305896Y-15313984D02*
X10258277Y-15313984D01*
X10458277Y-15313984D02*
X10458277Y-15180650D01*
X10458277Y-15218746D02*
X10467801Y-15199698D01*
X10467801Y-15199698D02*
X10477324Y-15190174D01*
X10477324Y-15190174D02*
X10496372Y-15180650D01*
X10496372Y-15180650D02*
X10515420Y-15180650D01*
X10582086Y-15313984D02*
X10582086Y-15180650D01*
X10582086Y-15113984D02*
X10572563Y-15123508D01*
X10572563Y-15123508D02*
X10582086Y-15133031D01*
X10582086Y-15133031D02*
X10591610Y-15123508D01*
X10591610Y-15123508D02*
X10582086Y-15113984D01*
X10582086Y-15113984D02*
X10582086Y-15133031D01*
X10705896Y-15313984D02*
X10686848Y-15304460D01*
X10686848Y-15304460D02*
X10677324Y-15285412D01*
X10677324Y-15285412D02*
X10677324Y-15113984D01*
X10810658Y-15313984D02*
X10791610Y-15304460D01*
X10791610Y-15304460D02*
X10782086Y-15285412D01*
X10782086Y-15285412D02*
X10782086Y-15113984D01*
X11039229Y-15313984D02*
X11039229Y-15113984D01*
X11039229Y-15113984D02*
X11105896Y-15256841D01*
X11105896Y-15256841D02*
X11172563Y-15113984D01*
X11172563Y-15113984D02*
X11172563Y-15313984D01*
X11353515Y-15313984D02*
X11353515Y-15209222D01*
X11353515Y-15209222D02*
X11343991Y-15190174D01*
X11343991Y-15190174D02*
X11324943Y-15180650D01*
X11324943Y-15180650D02*
X11286848Y-15180650D01*
X11286848Y-15180650D02*
X11267801Y-15190174D01*
X11353515Y-15304460D02*
X11334467Y-15313984D01*
X11334467Y-15313984D02*
X11286848Y-15313984D01*
X11286848Y-15313984D02*
X11267801Y-15304460D01*
X11267801Y-15304460D02*
X11258277Y-15285412D01*
X11258277Y-15285412D02*
X11258277Y-15266365D01*
X11258277Y-15266365D02*
X11267801Y-15247317D01*
X11267801Y-15247317D02*
X11286848Y-15237793D01*
X11286848Y-15237793D02*
X11334467Y-15237793D01*
X11334467Y-15237793D02*
X11353515Y-15228269D01*
X11448753Y-15180650D02*
X11448753Y-15380650D01*
X11448753Y-15190174D02*
X11467801Y-15180650D01*
X11467801Y-15180650D02*
X11505896Y-15180650D01*
X11505896Y-15180650D02*
X11524943Y-15190174D01*
X11524943Y-15190174D02*
X11534467Y-15199698D01*
X11534467Y-15199698D02*
X11543991Y-15218746D01*
X11543991Y-15218746D02*
X11543991Y-15275888D01*
X11543991Y-15275888D02*
X11534467Y-15294936D01*
X11534467Y-15294936D02*
X11524943Y-15304460D01*
X11524943Y-15304460D02*
X11505896Y-15313984D01*
X11505896Y-15313984D02*
X11467801Y-15313984D01*
X11467801Y-15313984D02*
X11448753Y-15304460D01*
X11629705Y-15294936D02*
X11639229Y-15304460D01*
X11639229Y-15304460D02*
X11629705Y-15313984D01*
X11629705Y-15313984D02*
X11620182Y-15304460D01*
X11620182Y-15304460D02*
X11629705Y-15294936D01*
X11629705Y-15294936D02*
X11629705Y-15313984D01*
X11629705Y-15190174D02*
X11639229Y-15199698D01*
X11639229Y-15199698D02*
X11629705Y-15209222D01*
X11629705Y-15209222D02*
X11620182Y-15199698D01*
X11620182Y-15199698D02*
X11629705Y-15190174D01*
X11629705Y-15190174D02*
X11629705Y-15209222D01*
D12*
X9877500Y-15582500D02*
X9997500Y-15702500D01*
X9997500Y-15582500D02*
X9877500Y-15702500D01*
D11*
X10363039Y-15733984D02*
X10248753Y-15733984D01*
X10305896Y-15733984D02*
X10305896Y-15533984D01*
X10305896Y-15533984D02*
X10286848Y-15562555D01*
X10286848Y-15562555D02*
X10267801Y-15581603D01*
X10267801Y-15581603D02*
X10248753Y-15591127D01*
X10448753Y-15714936D02*
X10458277Y-15724460D01*
X10458277Y-15724460D02*
X10448753Y-15733984D01*
X10448753Y-15733984D02*
X10439229Y-15724460D01*
X10439229Y-15724460D02*
X10448753Y-15714936D01*
X10448753Y-15714936D02*
X10448753Y-15733984D01*
X10534467Y-15553031D02*
X10543991Y-15543508D01*
X10543991Y-15543508D02*
X10563039Y-15533984D01*
X10563039Y-15533984D02*
X10610658Y-15533984D01*
X10610658Y-15533984D02*
X10629705Y-15543508D01*
X10629705Y-15543508D02*
X10639229Y-15553031D01*
X10639229Y-15553031D02*
X10648753Y-15572079D01*
X10648753Y-15572079D02*
X10648753Y-15591127D01*
X10648753Y-15591127D02*
X10639229Y-15619698D01*
X10639229Y-15619698D02*
X10524944Y-15733984D01*
X10524944Y-15733984D02*
X10648753Y-15733984D01*
X10772563Y-15533984D02*
X10791610Y-15533984D01*
X10791610Y-15533984D02*
X10810658Y-15543508D01*
X10810658Y-15543508D02*
X10820182Y-15553031D01*
X10820182Y-15553031D02*
X10829705Y-15572079D01*
X10829705Y-15572079D02*
X10839229Y-15610174D01*
X10839229Y-15610174D02*
X10839229Y-15657793D01*
X10839229Y-15657793D02*
X10829705Y-15695888D01*
X10829705Y-15695888D02*
X10820182Y-15714936D01*
X10820182Y-15714936D02*
X10810658Y-15724460D01*
X10810658Y-15724460D02*
X10791610Y-15733984D01*
X10791610Y-15733984D02*
X10772563Y-15733984D01*
X10772563Y-15733984D02*
X10753515Y-15724460D01*
X10753515Y-15724460D02*
X10743991Y-15714936D01*
X10743991Y-15714936D02*
X10734467Y-15695888D01*
X10734467Y-15695888D02*
X10724944Y-15657793D01*
X10724944Y-15657793D02*
X10724944Y-15610174D01*
X10724944Y-15610174D02*
X10734467Y-15572079D01*
X10734467Y-15572079D02*
X10743991Y-15553031D01*
X10743991Y-15553031D02*
X10753515Y-15543508D01*
X10753515Y-15543508D02*
X10772563Y-15533984D01*
X10963039Y-15533984D02*
X10982086Y-15533984D01*
X10982086Y-15533984D02*
X11001134Y-15543508D01*
X11001134Y-15543508D02*
X11010658Y-15553031D01*
X11010658Y-15553031D02*
X11020182Y-15572079D01*
X11020182Y-15572079D02*
X11029705Y-15610174D01*
X11029705Y-15610174D02*
X11029705Y-15657793D01*
X11029705Y-15657793D02*
X11020182Y-15695888D01*
X11020182Y-15695888D02*
X11010658Y-15714936D01*
X11010658Y-15714936D02*
X11001134Y-15724460D01*
X11001134Y-15724460D02*
X10982086Y-15733984D01*
X10982086Y-15733984D02*
X10963039Y-15733984D01*
X10963039Y-15733984D02*
X10943991Y-15724460D01*
X10943991Y-15724460D02*
X10934467Y-15714936D01*
X10934467Y-15714936D02*
X10924944Y-15695888D01*
X10924944Y-15695888D02*
X10915420Y-15657793D01*
X10915420Y-15657793D02*
X10915420Y-15610174D01*
X10915420Y-15610174D02*
X10924944Y-15572079D01*
X10924944Y-15572079D02*
X10934467Y-15553031D01*
X10934467Y-15553031D02*
X10943991Y-15543508D01*
X10943991Y-15543508D02*
X10963039Y-15533984D01*
X11115420Y-15733984D02*
X11115420Y-15600650D01*
X11115420Y-15619698D02*
X11124944Y-15610174D01*
X11124944Y-15610174D02*
X11143991Y-15600650D01*
X11143991Y-15600650D02*
X11172563Y-15600650D01*
X11172563Y-15600650D02*
X11191610Y-15610174D01*
X11191610Y-15610174D02*
X11201134Y-15629222D01*
X11201134Y-15629222D02*
X11201134Y-15733984D01*
X11201134Y-15629222D02*
X11210658Y-15610174D01*
X11210658Y-15610174D02*
X11229705Y-15600650D01*
X11229705Y-15600650D02*
X11258277Y-15600650D01*
X11258277Y-15600650D02*
X11277324Y-15610174D01*
X11277324Y-15610174D02*
X11286848Y-15629222D01*
X11286848Y-15629222D02*
X11286848Y-15733984D01*
X11382086Y-15733984D02*
X11382086Y-15600650D01*
X11382086Y-15619698D02*
X11391610Y-15610174D01*
X11391610Y-15610174D02*
X11410658Y-15600650D01*
X11410658Y-15600650D02*
X11439229Y-15600650D01*
X11439229Y-15600650D02*
X11458277Y-15610174D01*
X11458277Y-15610174D02*
X11467801Y-15629222D01*
X11467801Y-15629222D02*
X11467801Y-15733984D01*
X11467801Y-15629222D02*
X11477324Y-15610174D01*
X11477324Y-15610174D02*
X11496372Y-15600650D01*
X11496372Y-15600650D02*
X11524943Y-15600650D01*
X11524943Y-15600650D02*
X11543991Y-15610174D01*
X11543991Y-15610174D02*
X11553515Y-15629222D01*
X11553515Y-15629222D02*
X11553515Y-15733984D01*
X11943991Y-15524460D02*
X11772563Y-15781603D01*
X12201134Y-15533984D02*
X12220182Y-15533984D01*
X12220182Y-15533984D02*
X12239229Y-15543508D01*
X12239229Y-15543508D02*
X12248753Y-15553031D01*
X12248753Y-15553031D02*
X12258277Y-15572079D01*
X12258277Y-15572079D02*
X12267801Y-15610174D01*
X12267801Y-15610174D02*
X12267801Y-15657793D01*
X12267801Y-15657793D02*
X12258277Y-15695888D01*
X12258277Y-15695888D02*
X12248753Y-15714936D01*
X12248753Y-15714936D02*
X12239229Y-15724460D01*
X12239229Y-15724460D02*
X12220182Y-15733984D01*
X12220182Y-15733984D02*
X12201134Y-15733984D01*
X12201134Y-15733984D02*
X12182086Y-15724460D01*
X12182086Y-15724460D02*
X12172563Y-15714936D01*
X12172563Y-15714936D02*
X12163039Y-15695888D01*
X12163039Y-15695888D02*
X12153515Y-15657793D01*
X12153515Y-15657793D02*
X12153515Y-15610174D01*
X12153515Y-15610174D02*
X12163039Y-15572079D01*
X12163039Y-15572079D02*
X12172563Y-15553031D01*
X12172563Y-15553031D02*
X12182086Y-15543508D01*
X12182086Y-15543508D02*
X12201134Y-15533984D01*
X12353515Y-15714936D02*
X12363039Y-15724460D01*
X12363039Y-15724460D02*
X12353515Y-15733984D01*
X12353515Y-15733984D02*
X12343991Y-15724460D01*
X12343991Y-15724460D02*
X12353515Y-15714936D01*
X12353515Y-15714936D02*
X12353515Y-15733984D01*
X12486848Y-15533984D02*
X12505896Y-15533984D01*
X12505896Y-15533984D02*
X12524944Y-15543508D01*
X12524944Y-15543508D02*
X12534467Y-15553031D01*
X12534467Y-15553031D02*
X12543991Y-15572079D01*
X12543991Y-15572079D02*
X12553515Y-15610174D01*
X12553515Y-15610174D02*
X12553515Y-15657793D01*
X12553515Y-15657793D02*
X12543991Y-15695888D01*
X12543991Y-15695888D02*
X12534467Y-15714936D01*
X12534467Y-15714936D02*
X12524944Y-15724460D01*
X12524944Y-15724460D02*
X12505896Y-15733984D01*
X12505896Y-15733984D02*
X12486848Y-15733984D01*
X12486848Y-15733984D02*
X12467801Y-15724460D01*
X12467801Y-15724460D02*
X12458277Y-15714936D01*
X12458277Y-15714936D02*
X12448753Y-15695888D01*
X12448753Y-15695888D02*
X12439229Y-15657793D01*
X12439229Y-15657793D02*
X12439229Y-15610174D01*
X12439229Y-15610174D02*
X12448753Y-15572079D01*
X12448753Y-15572079D02*
X12458277Y-15553031D01*
X12458277Y-15553031D02*
X12467801Y-15543508D01*
X12467801Y-15543508D02*
X12486848Y-15533984D01*
X12724944Y-15600650D02*
X12724944Y-15733984D01*
X12677325Y-15524460D02*
X12629706Y-15667317D01*
X12629706Y-15667317D02*
X12753515Y-15667317D01*
X12810658Y-15533984D02*
X12943991Y-15533984D01*
X12943991Y-15533984D02*
X12858277Y-15733984D01*
X13010658Y-15553031D02*
X13020182Y-15543508D01*
X13020182Y-15543508D02*
X13039229Y-15533984D01*
X13039229Y-15533984D02*
X13086848Y-15533984D01*
X13086848Y-15533984D02*
X13105896Y-15543508D01*
X13105896Y-15543508D02*
X13115420Y-15553031D01*
X13115420Y-15553031D02*
X13124944Y-15572079D01*
X13124944Y-15572079D02*
X13124944Y-15591127D01*
X13124944Y-15591127D02*
X13115420Y-15619698D01*
X13115420Y-15619698D02*
X13001134Y-15733984D01*
X13001134Y-15733984D02*
X13124944Y-15733984D01*
X13201134Y-15533984D02*
X13201134Y-15572079D01*
X13277325Y-15533984D02*
X13277325Y-15572079D01*
X13572563Y-15810174D02*
X13563039Y-15800650D01*
X13563039Y-15800650D02*
X13543991Y-15772079D01*
X13543991Y-15772079D02*
X13534468Y-15753031D01*
X13534468Y-15753031D02*
X13524944Y-15724460D01*
X13524944Y-15724460D02*
X13515420Y-15676841D01*
X13515420Y-15676841D02*
X13515420Y-15638746D01*
X13515420Y-15638746D02*
X13524944Y-15591127D01*
X13524944Y-15591127D02*
X13534468Y-15562555D01*
X13534468Y-15562555D02*
X13543991Y-15543508D01*
X13543991Y-15543508D02*
X13563039Y-15514936D01*
X13563039Y-15514936D02*
X13572563Y-15505412D01*
X13753515Y-15733984D02*
X13639229Y-15733984D01*
X13696372Y-15733984D02*
X13696372Y-15533984D01*
X13696372Y-15533984D02*
X13677325Y-15562555D01*
X13677325Y-15562555D02*
X13658277Y-15581603D01*
X13658277Y-15581603D02*
X13639229Y-15591127D01*
X13877325Y-15533984D02*
X13896372Y-15533984D01*
X13896372Y-15533984D02*
X13915420Y-15543508D01*
X13915420Y-15543508D02*
X13924944Y-15553031D01*
X13924944Y-15553031D02*
X13934468Y-15572079D01*
X13934468Y-15572079D02*
X13943991Y-15610174D01*
X13943991Y-15610174D02*
X13943991Y-15657793D01*
X13943991Y-15657793D02*
X13934468Y-15695888D01*
X13934468Y-15695888D02*
X13924944Y-15714936D01*
X13924944Y-15714936D02*
X13915420Y-15724460D01*
X13915420Y-15724460D02*
X13896372Y-15733984D01*
X13896372Y-15733984D02*
X13877325Y-15733984D01*
X13877325Y-15733984D02*
X13858277Y-15724460D01*
X13858277Y-15724460D02*
X13848753Y-15714936D01*
X13848753Y-15714936D02*
X13839229Y-15695888D01*
X13839229Y-15695888D02*
X13829706Y-15657793D01*
X13829706Y-15657793D02*
X13829706Y-15610174D01*
X13829706Y-15610174D02*
X13839229Y-15572079D01*
X13839229Y-15572079D02*
X13848753Y-15553031D01*
X13848753Y-15553031D02*
X13858277Y-15543508D01*
X13858277Y-15543508D02*
X13877325Y-15533984D01*
X14182087Y-15733984D02*
X14182087Y-15533984D01*
X14267801Y-15733984D02*
X14267801Y-15629222D01*
X14267801Y-15629222D02*
X14258277Y-15610174D01*
X14258277Y-15610174D02*
X14239230Y-15600650D01*
X14239230Y-15600650D02*
X14210658Y-15600650D01*
X14210658Y-15600650D02*
X14191610Y-15610174D01*
X14191610Y-15610174D02*
X14182087Y-15619698D01*
X14391610Y-15733984D02*
X14372563Y-15724460D01*
X14372563Y-15724460D02*
X14363039Y-15714936D01*
X14363039Y-15714936D02*
X14353515Y-15695888D01*
X14353515Y-15695888D02*
X14353515Y-15638746D01*
X14353515Y-15638746D02*
X14363039Y-15619698D01*
X14363039Y-15619698D02*
X14372563Y-15610174D01*
X14372563Y-15610174D02*
X14391610Y-15600650D01*
X14391610Y-15600650D02*
X14420182Y-15600650D01*
X14420182Y-15600650D02*
X14439230Y-15610174D01*
X14439230Y-15610174D02*
X14448753Y-15619698D01*
X14448753Y-15619698D02*
X14458277Y-15638746D01*
X14458277Y-15638746D02*
X14458277Y-15695888D01*
X14458277Y-15695888D02*
X14448753Y-15714936D01*
X14448753Y-15714936D02*
X14439230Y-15724460D01*
X14439230Y-15724460D02*
X14420182Y-15733984D01*
X14420182Y-15733984D02*
X14391610Y-15733984D01*
X14572563Y-15733984D02*
X14553515Y-15724460D01*
X14553515Y-15724460D02*
X14543991Y-15705412D01*
X14543991Y-15705412D02*
X14543991Y-15533984D01*
X14724944Y-15724460D02*
X14705896Y-15733984D01*
X14705896Y-15733984D02*
X14667801Y-15733984D01*
X14667801Y-15733984D02*
X14648753Y-15724460D01*
X14648753Y-15724460D02*
X14639230Y-15705412D01*
X14639230Y-15705412D02*
X14639230Y-15629222D01*
X14639230Y-15629222D02*
X14648753Y-15610174D01*
X14648753Y-15610174D02*
X14667801Y-15600650D01*
X14667801Y-15600650D02*
X14705896Y-15600650D01*
X14705896Y-15600650D02*
X14724944Y-15610174D01*
X14724944Y-15610174D02*
X14734468Y-15629222D01*
X14734468Y-15629222D02*
X14734468Y-15648269D01*
X14734468Y-15648269D02*
X14639230Y-15667317D01*
X14810658Y-15724460D02*
X14829706Y-15733984D01*
X14829706Y-15733984D02*
X14867801Y-15733984D01*
X14867801Y-15733984D02*
X14886849Y-15724460D01*
X14886849Y-15724460D02*
X14896372Y-15705412D01*
X14896372Y-15705412D02*
X14896372Y-15695888D01*
X14896372Y-15695888D02*
X14886849Y-15676841D01*
X14886849Y-15676841D02*
X14867801Y-15667317D01*
X14867801Y-15667317D02*
X14839230Y-15667317D01*
X14839230Y-15667317D02*
X14820182Y-15657793D01*
X14820182Y-15657793D02*
X14810658Y-15638746D01*
X14810658Y-15638746D02*
X14810658Y-15629222D01*
X14810658Y-15629222D02*
X14820182Y-15610174D01*
X14820182Y-15610174D02*
X14839230Y-15600650D01*
X14839230Y-15600650D02*
X14867801Y-15600650D01*
X14867801Y-15600650D02*
X14886849Y-15610174D01*
X14963039Y-15810174D02*
X14972563Y-15800650D01*
X14972563Y-15800650D02*
X14991611Y-15772079D01*
X14991611Y-15772079D02*
X15001134Y-15753031D01*
X15001134Y-15753031D02*
X15010658Y-15724460D01*
X15010658Y-15724460D02*
X15020182Y-15676841D01*
X15020182Y-15676841D02*
X15020182Y-15638746D01*
X15020182Y-15638746D02*
X15010658Y-15591127D01*
X15010658Y-15591127D02*
X15001134Y-15562555D01*
X15001134Y-15562555D02*
X14991611Y-15543508D01*
X14991611Y-15543508D02*
X14972563Y-15514936D01*
X14972563Y-15514936D02*
X14963039Y-15505412D01*
X15324944Y-15810174D02*
X15315420Y-15800650D01*
X15315420Y-15800650D02*
X15296372Y-15772079D01*
X15296372Y-15772079D02*
X15286849Y-15753031D01*
X15286849Y-15753031D02*
X15277325Y-15724460D01*
X15277325Y-15724460D02*
X15267801Y-15676841D01*
X15267801Y-15676841D02*
X15267801Y-15638746D01*
X15267801Y-15638746D02*
X15277325Y-15591127D01*
X15277325Y-15591127D02*
X15286849Y-15562555D01*
X15286849Y-15562555D02*
X15296372Y-15543508D01*
X15296372Y-15543508D02*
X15315420Y-15514936D01*
X15315420Y-15514936D02*
X15324944Y-15505412D01*
X15401134Y-15600650D02*
X15401134Y-15733984D01*
X15401134Y-15619698D02*
X15410658Y-15610174D01*
X15410658Y-15610174D02*
X15429706Y-15600650D01*
X15429706Y-15600650D02*
X15458277Y-15600650D01*
X15458277Y-15600650D02*
X15477325Y-15610174D01*
X15477325Y-15610174D02*
X15486849Y-15629222D01*
X15486849Y-15629222D02*
X15486849Y-15733984D01*
X15610658Y-15733984D02*
X15591611Y-15724460D01*
X15591611Y-15724460D02*
X15582087Y-15714936D01*
X15582087Y-15714936D02*
X15572563Y-15695888D01*
X15572563Y-15695888D02*
X15572563Y-15638746D01*
X15572563Y-15638746D02*
X15582087Y-15619698D01*
X15582087Y-15619698D02*
X15591611Y-15610174D01*
X15591611Y-15610174D02*
X15610658Y-15600650D01*
X15610658Y-15600650D02*
X15639230Y-15600650D01*
X15639230Y-15600650D02*
X15658277Y-15610174D01*
X15658277Y-15610174D02*
X15667801Y-15619698D01*
X15667801Y-15619698D02*
X15677325Y-15638746D01*
X15677325Y-15638746D02*
X15677325Y-15695888D01*
X15677325Y-15695888D02*
X15667801Y-15714936D01*
X15667801Y-15714936D02*
X15658277Y-15724460D01*
X15658277Y-15724460D02*
X15639230Y-15733984D01*
X15639230Y-15733984D02*
X15610658Y-15733984D01*
X15734468Y-15600650D02*
X15810658Y-15600650D01*
X15763039Y-15533984D02*
X15763039Y-15705412D01*
X15763039Y-15705412D02*
X15772563Y-15724460D01*
X15772563Y-15724460D02*
X15791611Y-15733984D01*
X15791611Y-15733984D02*
X15810658Y-15733984D01*
X16029706Y-15600650D02*
X16029706Y-15800650D01*
X16029706Y-15610174D02*
X16048753Y-15600650D01*
X16048753Y-15600650D02*
X16086849Y-15600650D01*
X16086849Y-15600650D02*
X16105896Y-15610174D01*
X16105896Y-15610174D02*
X16115420Y-15619698D01*
X16115420Y-15619698D02*
X16124944Y-15638746D01*
X16124944Y-15638746D02*
X16124944Y-15695888D01*
X16124944Y-15695888D02*
X16115420Y-15714936D01*
X16115420Y-15714936D02*
X16105896Y-15724460D01*
X16105896Y-15724460D02*
X16086849Y-15733984D01*
X16086849Y-15733984D02*
X16048753Y-15733984D01*
X16048753Y-15733984D02*
X16029706Y-15724460D01*
X16239230Y-15733984D02*
X16220182Y-15724460D01*
X16220182Y-15724460D02*
X16210658Y-15705412D01*
X16210658Y-15705412D02*
X16210658Y-15533984D01*
X16401134Y-15733984D02*
X16401134Y-15629222D01*
X16401134Y-15629222D02*
X16391611Y-15610174D01*
X16391611Y-15610174D02*
X16372563Y-15600650D01*
X16372563Y-15600650D02*
X16334468Y-15600650D01*
X16334468Y-15600650D02*
X16315420Y-15610174D01*
X16401134Y-15724460D02*
X16382087Y-15733984D01*
X16382087Y-15733984D02*
X16334468Y-15733984D01*
X16334468Y-15733984D02*
X16315420Y-15724460D01*
X16315420Y-15724460D02*
X16305896Y-15705412D01*
X16305896Y-15705412D02*
X16305896Y-15686365D01*
X16305896Y-15686365D02*
X16315420Y-15667317D01*
X16315420Y-15667317D02*
X16334468Y-15657793D01*
X16334468Y-15657793D02*
X16382087Y-15657793D01*
X16382087Y-15657793D02*
X16401134Y-15648269D01*
X16467801Y-15600650D02*
X16543992Y-15600650D01*
X16496373Y-15533984D02*
X16496373Y-15705412D01*
X16496373Y-15705412D02*
X16505896Y-15724460D01*
X16505896Y-15724460D02*
X16524944Y-15733984D01*
X16524944Y-15733984D02*
X16543992Y-15733984D01*
X16686849Y-15724460D02*
X16667801Y-15733984D01*
X16667801Y-15733984D02*
X16629706Y-15733984D01*
X16629706Y-15733984D02*
X16610658Y-15724460D01*
X16610658Y-15724460D02*
X16601134Y-15705412D01*
X16601134Y-15705412D02*
X16601134Y-15629222D01*
X16601134Y-15629222D02*
X16610658Y-15610174D01*
X16610658Y-15610174D02*
X16629706Y-15600650D01*
X16629706Y-15600650D02*
X16667801Y-15600650D01*
X16667801Y-15600650D02*
X16686849Y-15610174D01*
X16686849Y-15610174D02*
X16696373Y-15629222D01*
X16696373Y-15629222D02*
X16696373Y-15648269D01*
X16696373Y-15648269D02*
X16601134Y-15667317D01*
X16867801Y-15733984D02*
X16867801Y-15533984D01*
X16867801Y-15724460D02*
X16848754Y-15733984D01*
X16848754Y-15733984D02*
X16810658Y-15733984D01*
X16810658Y-15733984D02*
X16791611Y-15724460D01*
X16791611Y-15724460D02*
X16782087Y-15714936D01*
X16782087Y-15714936D02*
X16772563Y-15695888D01*
X16772563Y-15695888D02*
X16772563Y-15638746D01*
X16772563Y-15638746D02*
X16782087Y-15619698D01*
X16782087Y-15619698D02*
X16791611Y-15610174D01*
X16791611Y-15610174D02*
X16810658Y-15600650D01*
X16810658Y-15600650D02*
X16848754Y-15600650D01*
X16848754Y-15600650D02*
X16867801Y-15610174D01*
X16943992Y-15810174D02*
X16953516Y-15800650D01*
X16953516Y-15800650D02*
X16972563Y-15772079D01*
X16972563Y-15772079D02*
X16982087Y-15753031D01*
X16982087Y-15753031D02*
X16991611Y-15724460D01*
X16991611Y-15724460D02*
X17001135Y-15676841D01*
X17001135Y-15676841D02*
X17001135Y-15638746D01*
X17001135Y-15638746D02*
X16991611Y-15591127D01*
X16991611Y-15591127D02*
X16982087Y-15562555D01*
X16982087Y-15562555D02*
X16972563Y-15543508D01*
X16972563Y-15543508D02*
X16953516Y-15514936D01*
X16953516Y-15514936D02*
X16943992Y-15505412D01*
X9997500Y-15906500D02*
G75*
G03*
X9997500Y-15906500I-100000J0D01*
G01*
X10248753Y-15817031D02*
X10258277Y-15807508D01*
X10258277Y-15807508D02*
X10277324Y-15797984D01*
X10277324Y-15797984D02*
X10324944Y-15797984D01*
X10324944Y-15797984D02*
X10343991Y-15807508D01*
X10343991Y-15807508D02*
X10353515Y-15817031D01*
X10353515Y-15817031D02*
X10363039Y-15836079D01*
X10363039Y-15836079D02*
X10363039Y-15855127D01*
X10363039Y-15855127D02*
X10353515Y-15883698D01*
X10353515Y-15883698D02*
X10239229Y-15997984D01*
X10239229Y-15997984D02*
X10363039Y-15997984D01*
X10448753Y-15978936D02*
X10458277Y-15988460D01*
X10458277Y-15988460D02*
X10448753Y-15997984D01*
X10448753Y-15997984D02*
X10439229Y-15988460D01*
X10439229Y-15988460D02*
X10448753Y-15978936D01*
X10448753Y-15978936D02*
X10448753Y-15997984D01*
X10572563Y-15883698D02*
X10553515Y-15874174D01*
X10553515Y-15874174D02*
X10543991Y-15864650D01*
X10543991Y-15864650D02*
X10534467Y-15845603D01*
X10534467Y-15845603D02*
X10534467Y-15836079D01*
X10534467Y-15836079D02*
X10543991Y-15817031D01*
X10543991Y-15817031D02*
X10553515Y-15807508D01*
X10553515Y-15807508D02*
X10572563Y-15797984D01*
X10572563Y-15797984D02*
X10610658Y-15797984D01*
X10610658Y-15797984D02*
X10629705Y-15807508D01*
X10629705Y-15807508D02*
X10639229Y-15817031D01*
X10639229Y-15817031D02*
X10648753Y-15836079D01*
X10648753Y-15836079D02*
X10648753Y-15845603D01*
X10648753Y-15845603D02*
X10639229Y-15864650D01*
X10639229Y-15864650D02*
X10629705Y-15874174D01*
X10629705Y-15874174D02*
X10610658Y-15883698D01*
X10610658Y-15883698D02*
X10572563Y-15883698D01*
X10572563Y-15883698D02*
X10553515Y-15893222D01*
X10553515Y-15893222D02*
X10543991Y-15902746D01*
X10543991Y-15902746D02*
X10534467Y-15921793D01*
X10534467Y-15921793D02*
X10534467Y-15959888D01*
X10534467Y-15959888D02*
X10543991Y-15978936D01*
X10543991Y-15978936D02*
X10553515Y-15988460D01*
X10553515Y-15988460D02*
X10572563Y-15997984D01*
X10572563Y-15997984D02*
X10610658Y-15997984D01*
X10610658Y-15997984D02*
X10629705Y-15988460D01*
X10629705Y-15988460D02*
X10639229Y-15978936D01*
X10639229Y-15978936D02*
X10648753Y-15959888D01*
X10648753Y-15959888D02*
X10648753Y-15921793D01*
X10648753Y-15921793D02*
X10639229Y-15902746D01*
X10639229Y-15902746D02*
X10629705Y-15893222D01*
X10629705Y-15893222D02*
X10610658Y-15883698D01*
X10829705Y-15797984D02*
X10734467Y-15797984D01*
X10734467Y-15797984D02*
X10724944Y-15893222D01*
X10724944Y-15893222D02*
X10734467Y-15883698D01*
X10734467Y-15883698D02*
X10753515Y-15874174D01*
X10753515Y-15874174D02*
X10801134Y-15874174D01*
X10801134Y-15874174D02*
X10820182Y-15883698D01*
X10820182Y-15883698D02*
X10829705Y-15893222D01*
X10829705Y-15893222D02*
X10839229Y-15912269D01*
X10839229Y-15912269D02*
X10839229Y-15959888D01*
X10839229Y-15959888D02*
X10829705Y-15978936D01*
X10829705Y-15978936D02*
X10820182Y-15988460D01*
X10820182Y-15988460D02*
X10801134Y-15997984D01*
X10801134Y-15997984D02*
X10753515Y-15997984D01*
X10753515Y-15997984D02*
X10734467Y-15988460D01*
X10734467Y-15988460D02*
X10724944Y-15978936D01*
X10963039Y-15797984D02*
X10982086Y-15797984D01*
X10982086Y-15797984D02*
X11001134Y-15807508D01*
X11001134Y-15807508D02*
X11010658Y-15817031D01*
X11010658Y-15817031D02*
X11020182Y-15836079D01*
X11020182Y-15836079D02*
X11029705Y-15874174D01*
X11029705Y-15874174D02*
X11029705Y-15921793D01*
X11029705Y-15921793D02*
X11020182Y-15959888D01*
X11020182Y-15959888D02*
X11010658Y-15978936D01*
X11010658Y-15978936D02*
X11001134Y-15988460D01*
X11001134Y-15988460D02*
X10982086Y-15997984D01*
X10982086Y-15997984D02*
X10963039Y-15997984D01*
X10963039Y-15997984D02*
X10943991Y-15988460D01*
X10943991Y-15988460D02*
X10934467Y-15978936D01*
X10934467Y-15978936D02*
X10924944Y-15959888D01*
X10924944Y-15959888D02*
X10915420Y-15921793D01*
X10915420Y-15921793D02*
X10915420Y-15874174D01*
X10915420Y-15874174D02*
X10924944Y-15836079D01*
X10924944Y-15836079D02*
X10934467Y-15817031D01*
X10934467Y-15817031D02*
X10943991Y-15807508D01*
X10943991Y-15807508D02*
X10963039Y-15797984D01*
X11115420Y-15997984D02*
X11115420Y-15864650D01*
X11115420Y-15883698D02*
X11124944Y-15874174D01*
X11124944Y-15874174D02*
X11143991Y-15864650D01*
X11143991Y-15864650D02*
X11172563Y-15864650D01*
X11172563Y-15864650D02*
X11191610Y-15874174D01*
X11191610Y-15874174D02*
X11201134Y-15893222D01*
X11201134Y-15893222D02*
X11201134Y-15997984D01*
X11201134Y-15893222D02*
X11210658Y-15874174D01*
X11210658Y-15874174D02*
X11229705Y-15864650D01*
X11229705Y-15864650D02*
X11258277Y-15864650D01*
X11258277Y-15864650D02*
X11277324Y-15874174D01*
X11277324Y-15874174D02*
X11286848Y-15893222D01*
X11286848Y-15893222D02*
X11286848Y-15997984D01*
X11382086Y-15997984D02*
X11382086Y-15864650D01*
X11382086Y-15883698D02*
X11391610Y-15874174D01*
X11391610Y-15874174D02*
X11410658Y-15864650D01*
X11410658Y-15864650D02*
X11439229Y-15864650D01*
X11439229Y-15864650D02*
X11458277Y-15874174D01*
X11458277Y-15874174D02*
X11467801Y-15893222D01*
X11467801Y-15893222D02*
X11467801Y-15997984D01*
X11467801Y-15893222D02*
X11477324Y-15874174D01*
X11477324Y-15874174D02*
X11496372Y-15864650D01*
X11496372Y-15864650D02*
X11524943Y-15864650D01*
X11524943Y-15864650D02*
X11543991Y-15874174D01*
X11543991Y-15874174D02*
X11553515Y-15893222D01*
X11553515Y-15893222D02*
X11553515Y-15997984D01*
X11943991Y-15788460D02*
X11772563Y-16045603D01*
X12201134Y-15797984D02*
X12220182Y-15797984D01*
X12220182Y-15797984D02*
X12239229Y-15807508D01*
X12239229Y-15807508D02*
X12248753Y-15817031D01*
X12248753Y-15817031D02*
X12258277Y-15836079D01*
X12258277Y-15836079D02*
X12267801Y-15874174D01*
X12267801Y-15874174D02*
X12267801Y-15921793D01*
X12267801Y-15921793D02*
X12258277Y-15959888D01*
X12258277Y-15959888D02*
X12248753Y-15978936D01*
X12248753Y-15978936D02*
X12239229Y-15988460D01*
X12239229Y-15988460D02*
X12220182Y-15997984D01*
X12220182Y-15997984D02*
X12201134Y-15997984D01*
X12201134Y-15997984D02*
X12182086Y-15988460D01*
X12182086Y-15988460D02*
X12172563Y-15978936D01*
X12172563Y-15978936D02*
X12163039Y-15959888D01*
X12163039Y-15959888D02*
X12153515Y-15921793D01*
X12153515Y-15921793D02*
X12153515Y-15874174D01*
X12153515Y-15874174D02*
X12163039Y-15836079D01*
X12163039Y-15836079D02*
X12172563Y-15817031D01*
X12172563Y-15817031D02*
X12182086Y-15807508D01*
X12182086Y-15807508D02*
X12201134Y-15797984D01*
X12353515Y-15978936D02*
X12363039Y-15988460D01*
X12363039Y-15988460D02*
X12353515Y-15997984D01*
X12353515Y-15997984D02*
X12343991Y-15988460D01*
X12343991Y-15988460D02*
X12353515Y-15978936D01*
X12353515Y-15978936D02*
X12353515Y-15997984D01*
X12553515Y-15997984D02*
X12439229Y-15997984D01*
X12496372Y-15997984D02*
X12496372Y-15797984D01*
X12496372Y-15797984D02*
X12477325Y-15826555D01*
X12477325Y-15826555D02*
X12458277Y-15845603D01*
X12458277Y-15845603D02*
X12439229Y-15855127D01*
X12743991Y-15997984D02*
X12629706Y-15997984D01*
X12686848Y-15997984D02*
X12686848Y-15797984D01*
X12686848Y-15797984D02*
X12667801Y-15826555D01*
X12667801Y-15826555D02*
X12648753Y-15845603D01*
X12648753Y-15845603D02*
X12629706Y-15855127D01*
X12820182Y-15817031D02*
X12829706Y-15807508D01*
X12829706Y-15807508D02*
X12848753Y-15797984D01*
X12848753Y-15797984D02*
X12896372Y-15797984D01*
X12896372Y-15797984D02*
X12915420Y-15807508D01*
X12915420Y-15807508D02*
X12924944Y-15817031D01*
X12924944Y-15817031D02*
X12934467Y-15836079D01*
X12934467Y-15836079D02*
X12934467Y-15855127D01*
X12934467Y-15855127D02*
X12924944Y-15883698D01*
X12924944Y-15883698D02*
X12810658Y-15997984D01*
X12810658Y-15997984D02*
X12934467Y-15997984D01*
X13010658Y-15817031D02*
X13020182Y-15807508D01*
X13020182Y-15807508D02*
X13039229Y-15797984D01*
X13039229Y-15797984D02*
X13086848Y-15797984D01*
X13086848Y-15797984D02*
X13105896Y-15807508D01*
X13105896Y-15807508D02*
X13115420Y-15817031D01*
X13115420Y-15817031D02*
X13124944Y-15836079D01*
X13124944Y-15836079D02*
X13124944Y-15855127D01*
X13124944Y-15855127D02*
X13115420Y-15883698D01*
X13115420Y-15883698D02*
X13001134Y-15997984D01*
X13001134Y-15997984D02*
X13124944Y-15997984D01*
X13201134Y-15797984D02*
X13201134Y-15836079D01*
X13277325Y-15797984D02*
X13277325Y-15836079D01*
X13572563Y-16074174D02*
X13563039Y-16064650D01*
X13563039Y-16064650D02*
X13543991Y-16036079D01*
X13543991Y-16036079D02*
X13534468Y-16017031D01*
X13534468Y-16017031D02*
X13524944Y-15988460D01*
X13524944Y-15988460D02*
X13515420Y-15940841D01*
X13515420Y-15940841D02*
X13515420Y-15902746D01*
X13515420Y-15902746D02*
X13524944Y-15855127D01*
X13524944Y-15855127D02*
X13534468Y-15826555D01*
X13534468Y-15826555D02*
X13543991Y-15807508D01*
X13543991Y-15807508D02*
X13563039Y-15778936D01*
X13563039Y-15778936D02*
X13572563Y-15769412D01*
X13639229Y-15817031D02*
X13648753Y-15807508D01*
X13648753Y-15807508D02*
X13667801Y-15797984D01*
X13667801Y-15797984D02*
X13715420Y-15797984D01*
X13715420Y-15797984D02*
X13734468Y-15807508D01*
X13734468Y-15807508D02*
X13743991Y-15817031D01*
X13743991Y-15817031D02*
X13753515Y-15836079D01*
X13753515Y-15836079D02*
X13753515Y-15855127D01*
X13753515Y-15855127D02*
X13743991Y-15883698D01*
X13743991Y-15883698D02*
X13629706Y-15997984D01*
X13629706Y-15997984D02*
X13753515Y-15997984D01*
X13991610Y-15997984D02*
X13991610Y-15797984D01*
X14077325Y-15997984D02*
X14077325Y-15893222D01*
X14077325Y-15893222D02*
X14067801Y-15874174D01*
X14067801Y-15874174D02*
X14048753Y-15864650D01*
X14048753Y-15864650D02*
X14020182Y-15864650D01*
X14020182Y-15864650D02*
X14001134Y-15874174D01*
X14001134Y-15874174D02*
X13991610Y-15883698D01*
X14201134Y-15997984D02*
X14182087Y-15988460D01*
X14182087Y-15988460D02*
X14172563Y-15978936D01*
X14172563Y-15978936D02*
X14163039Y-15959888D01*
X14163039Y-15959888D02*
X14163039Y-15902746D01*
X14163039Y-15902746D02*
X14172563Y-15883698D01*
X14172563Y-15883698D02*
X14182087Y-15874174D01*
X14182087Y-15874174D02*
X14201134Y-15864650D01*
X14201134Y-15864650D02*
X14229706Y-15864650D01*
X14229706Y-15864650D02*
X14248753Y-15874174D01*
X14248753Y-15874174D02*
X14258277Y-15883698D01*
X14258277Y-15883698D02*
X14267801Y-15902746D01*
X14267801Y-15902746D02*
X14267801Y-15959888D01*
X14267801Y-15959888D02*
X14258277Y-15978936D01*
X14258277Y-15978936D02*
X14248753Y-15988460D01*
X14248753Y-15988460D02*
X14229706Y-15997984D01*
X14229706Y-15997984D02*
X14201134Y-15997984D01*
X14382087Y-15997984D02*
X14363039Y-15988460D01*
X14363039Y-15988460D02*
X14353515Y-15969412D01*
X14353515Y-15969412D02*
X14353515Y-15797984D01*
X14534468Y-15988460D02*
X14515420Y-15997984D01*
X14515420Y-15997984D02*
X14477325Y-15997984D01*
X14477325Y-15997984D02*
X14458277Y-15988460D01*
X14458277Y-15988460D02*
X14448753Y-15969412D01*
X14448753Y-15969412D02*
X14448753Y-15893222D01*
X14448753Y-15893222D02*
X14458277Y-15874174D01*
X14458277Y-15874174D02*
X14477325Y-15864650D01*
X14477325Y-15864650D02*
X14515420Y-15864650D01*
X14515420Y-15864650D02*
X14534468Y-15874174D01*
X14534468Y-15874174D02*
X14543991Y-15893222D01*
X14543991Y-15893222D02*
X14543991Y-15912269D01*
X14543991Y-15912269D02*
X14448753Y-15931317D01*
X14620182Y-15988460D02*
X14639230Y-15997984D01*
X14639230Y-15997984D02*
X14677325Y-15997984D01*
X14677325Y-15997984D02*
X14696372Y-15988460D01*
X14696372Y-15988460D02*
X14705896Y-15969412D01*
X14705896Y-15969412D02*
X14705896Y-15959888D01*
X14705896Y-15959888D02*
X14696372Y-15940841D01*
X14696372Y-15940841D02*
X14677325Y-15931317D01*
X14677325Y-15931317D02*
X14648753Y-15931317D01*
X14648753Y-15931317D02*
X14629706Y-15921793D01*
X14629706Y-15921793D02*
X14620182Y-15902746D01*
X14620182Y-15902746D02*
X14620182Y-15893222D01*
X14620182Y-15893222D02*
X14629706Y-15874174D01*
X14629706Y-15874174D02*
X14648753Y-15864650D01*
X14648753Y-15864650D02*
X14677325Y-15864650D01*
X14677325Y-15864650D02*
X14696372Y-15874174D01*
X14772563Y-16074174D02*
X14782087Y-16064650D01*
X14782087Y-16064650D02*
X14801134Y-16036079D01*
X14801134Y-16036079D02*
X14810658Y-16017031D01*
X14810658Y-16017031D02*
X14820182Y-15988460D01*
X14820182Y-15988460D02*
X14829706Y-15940841D01*
X14829706Y-15940841D02*
X14829706Y-15902746D01*
X14829706Y-15902746D02*
X14820182Y-15855127D01*
X14820182Y-15855127D02*
X14810658Y-15826555D01*
X14810658Y-15826555D02*
X14801134Y-15807508D01*
X14801134Y-15807508D02*
X14782087Y-15778936D01*
X14782087Y-15778936D02*
X14772563Y-15769412D01*
X15134468Y-16074174D02*
X15124944Y-16064650D01*
X15124944Y-16064650D02*
X15105896Y-16036079D01*
X15105896Y-16036079D02*
X15096372Y-16017031D01*
X15096372Y-16017031D02*
X15086849Y-15988460D01*
X15086849Y-15988460D02*
X15077325Y-15940841D01*
X15077325Y-15940841D02*
X15077325Y-15902746D01*
X15077325Y-15902746D02*
X15086849Y-15855127D01*
X15086849Y-15855127D02*
X15096372Y-15826555D01*
X15096372Y-15826555D02*
X15105896Y-15807508D01*
X15105896Y-15807508D02*
X15124944Y-15778936D01*
X15124944Y-15778936D02*
X15134468Y-15769412D01*
X15210658Y-15864650D02*
X15210658Y-15997984D01*
X15210658Y-15883698D02*
X15220182Y-15874174D01*
X15220182Y-15874174D02*
X15239230Y-15864650D01*
X15239230Y-15864650D02*
X15267801Y-15864650D01*
X15267801Y-15864650D02*
X15286849Y-15874174D01*
X15286849Y-15874174D02*
X15296372Y-15893222D01*
X15296372Y-15893222D02*
X15296372Y-15997984D01*
X15420182Y-15997984D02*
X15401134Y-15988460D01*
X15401134Y-15988460D02*
X15391611Y-15978936D01*
X15391611Y-15978936D02*
X15382087Y-15959888D01*
X15382087Y-15959888D02*
X15382087Y-15902746D01*
X15382087Y-15902746D02*
X15391611Y-15883698D01*
X15391611Y-15883698D02*
X15401134Y-15874174D01*
X15401134Y-15874174D02*
X15420182Y-15864650D01*
X15420182Y-15864650D02*
X15448753Y-15864650D01*
X15448753Y-15864650D02*
X15467801Y-15874174D01*
X15467801Y-15874174D02*
X15477325Y-15883698D01*
X15477325Y-15883698D02*
X15486849Y-15902746D01*
X15486849Y-15902746D02*
X15486849Y-15959888D01*
X15486849Y-15959888D02*
X15477325Y-15978936D01*
X15477325Y-15978936D02*
X15467801Y-15988460D01*
X15467801Y-15988460D02*
X15448753Y-15997984D01*
X15448753Y-15997984D02*
X15420182Y-15997984D01*
X15543992Y-15864650D02*
X15620182Y-15864650D01*
X15572563Y-15797984D02*
X15572563Y-15969412D01*
X15572563Y-15969412D02*
X15582087Y-15988460D01*
X15582087Y-15988460D02*
X15601134Y-15997984D01*
X15601134Y-15997984D02*
X15620182Y-15997984D01*
X15839230Y-15864650D02*
X15839230Y-16064650D01*
X15839230Y-15874174D02*
X15858277Y-15864650D01*
X15858277Y-15864650D02*
X15896373Y-15864650D01*
X15896373Y-15864650D02*
X15915420Y-15874174D01*
X15915420Y-15874174D02*
X15924944Y-15883698D01*
X15924944Y-15883698D02*
X15934468Y-15902746D01*
X15934468Y-15902746D02*
X15934468Y-15959888D01*
X15934468Y-15959888D02*
X15924944Y-15978936D01*
X15924944Y-15978936D02*
X15915420Y-15988460D01*
X15915420Y-15988460D02*
X15896373Y-15997984D01*
X15896373Y-15997984D02*
X15858277Y-15997984D01*
X15858277Y-15997984D02*
X15839230Y-15988460D01*
X16048753Y-15997984D02*
X16029706Y-15988460D01*
X16029706Y-15988460D02*
X16020182Y-15969412D01*
X16020182Y-15969412D02*
X16020182Y-15797984D01*
X16210658Y-15997984D02*
X16210658Y-15893222D01*
X16210658Y-15893222D02*
X16201134Y-15874174D01*
X16201134Y-15874174D02*
X16182087Y-15864650D01*
X16182087Y-15864650D02*
X16143992Y-15864650D01*
X16143992Y-15864650D02*
X16124944Y-15874174D01*
X16210658Y-15988460D02*
X16191611Y-15997984D01*
X16191611Y-15997984D02*
X16143992Y-15997984D01*
X16143992Y-15997984D02*
X16124944Y-15988460D01*
X16124944Y-15988460D02*
X16115420Y-15969412D01*
X16115420Y-15969412D02*
X16115420Y-15950365D01*
X16115420Y-15950365D02*
X16124944Y-15931317D01*
X16124944Y-15931317D02*
X16143992Y-15921793D01*
X16143992Y-15921793D02*
X16191611Y-15921793D01*
X16191611Y-15921793D02*
X16210658Y-15912269D01*
X16277325Y-15864650D02*
X16353515Y-15864650D01*
X16305896Y-15797984D02*
X16305896Y-15969412D01*
X16305896Y-15969412D02*
X16315420Y-15988460D01*
X16315420Y-15988460D02*
X16334468Y-15997984D01*
X16334468Y-15997984D02*
X16353515Y-15997984D01*
X16496373Y-15988460D02*
X16477325Y-15997984D01*
X16477325Y-15997984D02*
X16439230Y-15997984D01*
X16439230Y-15997984D02*
X16420182Y-15988460D01*
X16420182Y-15988460D02*
X16410658Y-15969412D01*
X16410658Y-15969412D02*
X16410658Y-15893222D01*
X16410658Y-15893222D02*
X16420182Y-15874174D01*
X16420182Y-15874174D02*
X16439230Y-15864650D01*
X16439230Y-15864650D02*
X16477325Y-15864650D01*
X16477325Y-15864650D02*
X16496373Y-15874174D01*
X16496373Y-15874174D02*
X16505896Y-15893222D01*
X16505896Y-15893222D02*
X16505896Y-15912269D01*
X16505896Y-15912269D02*
X16410658Y-15931317D01*
X16677325Y-15997984D02*
X16677325Y-15797984D01*
X16677325Y-15988460D02*
X16658277Y-15997984D01*
X16658277Y-15997984D02*
X16620182Y-15997984D01*
X16620182Y-15997984D02*
X16601134Y-15988460D01*
X16601134Y-15988460D02*
X16591611Y-15978936D01*
X16591611Y-15978936D02*
X16582087Y-15959888D01*
X16582087Y-15959888D02*
X16582087Y-15902746D01*
X16582087Y-15902746D02*
X16591611Y-15883698D01*
X16591611Y-15883698D02*
X16601134Y-15874174D01*
X16601134Y-15874174D02*
X16620182Y-15864650D01*
X16620182Y-15864650D02*
X16658277Y-15864650D01*
X16658277Y-15864650D02*
X16677325Y-15874174D01*
X16753515Y-16074174D02*
X16763039Y-16064650D01*
X16763039Y-16064650D02*
X16782087Y-16036079D01*
X16782087Y-16036079D02*
X16791611Y-16017031D01*
X16791611Y-16017031D02*
X16801135Y-15988460D01*
X16801135Y-15988460D02*
X16810658Y-15940841D01*
X16810658Y-15940841D02*
X16810658Y-15902746D01*
X16810658Y-15902746D02*
X16801135Y-15855127D01*
X16801135Y-15855127D02*
X16791611Y-15826555D01*
X16791611Y-15826555D02*
X16782087Y-15807508D01*
X16782087Y-15807508D02*
X16763039Y-15778936D01*
X16763039Y-15778936D02*
X16753515Y-15769412D01*
X9897500Y-16126500D02*
X9897500Y-16326500D01*
X9797500Y-16226500D02*
X9997500Y-16226500D01*
X10239229Y-16117984D02*
X10363039Y-16117984D01*
X10363039Y-16117984D02*
X10296372Y-16194174D01*
X10296372Y-16194174D02*
X10324944Y-16194174D01*
X10324944Y-16194174D02*
X10343991Y-16203698D01*
X10343991Y-16203698D02*
X10353515Y-16213222D01*
X10353515Y-16213222D02*
X10363039Y-16232269D01*
X10363039Y-16232269D02*
X10363039Y-16279888D01*
X10363039Y-16279888D02*
X10353515Y-16298936D01*
X10353515Y-16298936D02*
X10343991Y-16308460D01*
X10343991Y-16308460D02*
X10324944Y-16317984D01*
X10324944Y-16317984D02*
X10267801Y-16317984D01*
X10267801Y-16317984D02*
X10248753Y-16308460D01*
X10248753Y-16308460D02*
X10239229Y-16298936D01*
X10448753Y-16298936D02*
X10458277Y-16308460D01*
X10458277Y-16308460D02*
X10448753Y-16317984D01*
X10448753Y-16317984D02*
X10439229Y-16308460D01*
X10439229Y-16308460D02*
X10448753Y-16298936D01*
X10448753Y-16298936D02*
X10448753Y-16317984D01*
X10639229Y-16117984D02*
X10543991Y-16117984D01*
X10543991Y-16117984D02*
X10534467Y-16213222D01*
X10534467Y-16213222D02*
X10543991Y-16203698D01*
X10543991Y-16203698D02*
X10563039Y-16194174D01*
X10563039Y-16194174D02*
X10610658Y-16194174D01*
X10610658Y-16194174D02*
X10629705Y-16203698D01*
X10629705Y-16203698D02*
X10639229Y-16213222D01*
X10639229Y-16213222D02*
X10648753Y-16232269D01*
X10648753Y-16232269D02*
X10648753Y-16279888D01*
X10648753Y-16279888D02*
X10639229Y-16298936D01*
X10639229Y-16298936D02*
X10629705Y-16308460D01*
X10629705Y-16308460D02*
X10610658Y-16317984D01*
X10610658Y-16317984D02*
X10563039Y-16317984D01*
X10563039Y-16317984D02*
X10543991Y-16308460D01*
X10543991Y-16308460D02*
X10534467Y-16298936D01*
X10772563Y-16117984D02*
X10791610Y-16117984D01*
X10791610Y-16117984D02*
X10810658Y-16127508D01*
X10810658Y-16127508D02*
X10820182Y-16137031D01*
X10820182Y-16137031D02*
X10829705Y-16156079D01*
X10829705Y-16156079D02*
X10839229Y-16194174D01*
X10839229Y-16194174D02*
X10839229Y-16241793D01*
X10839229Y-16241793D02*
X10829705Y-16279888D01*
X10829705Y-16279888D02*
X10820182Y-16298936D01*
X10820182Y-16298936D02*
X10810658Y-16308460D01*
X10810658Y-16308460D02*
X10791610Y-16317984D01*
X10791610Y-16317984D02*
X10772563Y-16317984D01*
X10772563Y-16317984D02*
X10753515Y-16308460D01*
X10753515Y-16308460D02*
X10743991Y-16298936D01*
X10743991Y-16298936D02*
X10734467Y-16279888D01*
X10734467Y-16279888D02*
X10724944Y-16241793D01*
X10724944Y-16241793D02*
X10724944Y-16194174D01*
X10724944Y-16194174D02*
X10734467Y-16156079D01*
X10734467Y-16156079D02*
X10743991Y-16137031D01*
X10743991Y-16137031D02*
X10753515Y-16127508D01*
X10753515Y-16127508D02*
X10772563Y-16117984D01*
X10963039Y-16117984D02*
X10982086Y-16117984D01*
X10982086Y-16117984D02*
X11001134Y-16127508D01*
X11001134Y-16127508D02*
X11010658Y-16137031D01*
X11010658Y-16137031D02*
X11020182Y-16156079D01*
X11020182Y-16156079D02*
X11029705Y-16194174D01*
X11029705Y-16194174D02*
X11029705Y-16241793D01*
X11029705Y-16241793D02*
X11020182Y-16279888D01*
X11020182Y-16279888D02*
X11010658Y-16298936D01*
X11010658Y-16298936D02*
X11001134Y-16308460D01*
X11001134Y-16308460D02*
X10982086Y-16317984D01*
X10982086Y-16317984D02*
X10963039Y-16317984D01*
X10963039Y-16317984D02*
X10943991Y-16308460D01*
X10943991Y-16308460D02*
X10934467Y-16298936D01*
X10934467Y-16298936D02*
X10924944Y-16279888D01*
X10924944Y-16279888D02*
X10915420Y-16241793D01*
X10915420Y-16241793D02*
X10915420Y-16194174D01*
X10915420Y-16194174D02*
X10924944Y-16156079D01*
X10924944Y-16156079D02*
X10934467Y-16137031D01*
X10934467Y-16137031D02*
X10943991Y-16127508D01*
X10943991Y-16127508D02*
X10963039Y-16117984D01*
X11115420Y-16317984D02*
X11115420Y-16184650D01*
X11115420Y-16203698D02*
X11124944Y-16194174D01*
X11124944Y-16194174D02*
X11143991Y-16184650D01*
X11143991Y-16184650D02*
X11172563Y-16184650D01*
X11172563Y-16184650D02*
X11191610Y-16194174D01*
X11191610Y-16194174D02*
X11201134Y-16213222D01*
X11201134Y-16213222D02*
X11201134Y-16317984D01*
X11201134Y-16213222D02*
X11210658Y-16194174D01*
X11210658Y-16194174D02*
X11229705Y-16184650D01*
X11229705Y-16184650D02*
X11258277Y-16184650D01*
X11258277Y-16184650D02*
X11277324Y-16194174D01*
X11277324Y-16194174D02*
X11286848Y-16213222D01*
X11286848Y-16213222D02*
X11286848Y-16317984D01*
X11382086Y-16317984D02*
X11382086Y-16184650D01*
X11382086Y-16203698D02*
X11391610Y-16194174D01*
X11391610Y-16194174D02*
X11410658Y-16184650D01*
X11410658Y-16184650D02*
X11439229Y-16184650D01*
X11439229Y-16184650D02*
X11458277Y-16194174D01*
X11458277Y-16194174D02*
X11467801Y-16213222D01*
X11467801Y-16213222D02*
X11467801Y-16317984D01*
X11467801Y-16213222D02*
X11477324Y-16194174D01*
X11477324Y-16194174D02*
X11496372Y-16184650D01*
X11496372Y-16184650D02*
X11524943Y-16184650D01*
X11524943Y-16184650D02*
X11543991Y-16194174D01*
X11543991Y-16194174D02*
X11553515Y-16213222D01*
X11553515Y-16213222D02*
X11553515Y-16317984D01*
X11943991Y-16108460D02*
X11772563Y-16365603D01*
X12201134Y-16117984D02*
X12220182Y-16117984D01*
X12220182Y-16117984D02*
X12239229Y-16127508D01*
X12239229Y-16127508D02*
X12248753Y-16137031D01*
X12248753Y-16137031D02*
X12258277Y-16156079D01*
X12258277Y-16156079D02*
X12267801Y-16194174D01*
X12267801Y-16194174D02*
X12267801Y-16241793D01*
X12267801Y-16241793D02*
X12258277Y-16279888D01*
X12258277Y-16279888D02*
X12248753Y-16298936D01*
X12248753Y-16298936D02*
X12239229Y-16308460D01*
X12239229Y-16308460D02*
X12220182Y-16317984D01*
X12220182Y-16317984D02*
X12201134Y-16317984D01*
X12201134Y-16317984D02*
X12182086Y-16308460D01*
X12182086Y-16308460D02*
X12172563Y-16298936D01*
X12172563Y-16298936D02*
X12163039Y-16279888D01*
X12163039Y-16279888D02*
X12153515Y-16241793D01*
X12153515Y-16241793D02*
X12153515Y-16194174D01*
X12153515Y-16194174D02*
X12163039Y-16156079D01*
X12163039Y-16156079D02*
X12172563Y-16137031D01*
X12172563Y-16137031D02*
X12182086Y-16127508D01*
X12182086Y-16127508D02*
X12201134Y-16117984D01*
X12353515Y-16298936D02*
X12363039Y-16308460D01*
X12363039Y-16308460D02*
X12353515Y-16317984D01*
X12353515Y-16317984D02*
X12343991Y-16308460D01*
X12343991Y-16308460D02*
X12353515Y-16298936D01*
X12353515Y-16298936D02*
X12353515Y-16317984D01*
X12553515Y-16317984D02*
X12439229Y-16317984D01*
X12496372Y-16317984D02*
X12496372Y-16117984D01*
X12496372Y-16117984D02*
X12477325Y-16146555D01*
X12477325Y-16146555D02*
X12458277Y-16165603D01*
X12458277Y-16165603D02*
X12439229Y-16175127D01*
X12620182Y-16117984D02*
X12743991Y-16117984D01*
X12743991Y-16117984D02*
X12677325Y-16194174D01*
X12677325Y-16194174D02*
X12705896Y-16194174D01*
X12705896Y-16194174D02*
X12724944Y-16203698D01*
X12724944Y-16203698D02*
X12734467Y-16213222D01*
X12734467Y-16213222D02*
X12743991Y-16232269D01*
X12743991Y-16232269D02*
X12743991Y-16279888D01*
X12743991Y-16279888D02*
X12734467Y-16298936D01*
X12734467Y-16298936D02*
X12724944Y-16308460D01*
X12724944Y-16308460D02*
X12705896Y-16317984D01*
X12705896Y-16317984D02*
X12648753Y-16317984D01*
X12648753Y-16317984D02*
X12629706Y-16308460D01*
X12629706Y-16308460D02*
X12620182Y-16298936D01*
X12810658Y-16117984D02*
X12943991Y-16117984D01*
X12943991Y-16117984D02*
X12858277Y-16317984D01*
X13048753Y-16203698D02*
X13029706Y-16194174D01*
X13029706Y-16194174D02*
X13020182Y-16184650D01*
X13020182Y-16184650D02*
X13010658Y-16165603D01*
X13010658Y-16165603D02*
X13010658Y-16156079D01*
X13010658Y-16156079D02*
X13020182Y-16137031D01*
X13020182Y-16137031D02*
X13029706Y-16127508D01*
X13029706Y-16127508D02*
X13048753Y-16117984D01*
X13048753Y-16117984D02*
X13086848Y-16117984D01*
X13086848Y-16117984D02*
X13105896Y-16127508D01*
X13105896Y-16127508D02*
X13115420Y-16137031D01*
X13115420Y-16137031D02*
X13124944Y-16156079D01*
X13124944Y-16156079D02*
X13124944Y-16165603D01*
X13124944Y-16165603D02*
X13115420Y-16184650D01*
X13115420Y-16184650D02*
X13105896Y-16194174D01*
X13105896Y-16194174D02*
X13086848Y-16203698D01*
X13086848Y-16203698D02*
X13048753Y-16203698D01*
X13048753Y-16203698D02*
X13029706Y-16213222D01*
X13029706Y-16213222D02*
X13020182Y-16222746D01*
X13020182Y-16222746D02*
X13010658Y-16241793D01*
X13010658Y-16241793D02*
X13010658Y-16279888D01*
X13010658Y-16279888D02*
X13020182Y-16298936D01*
X13020182Y-16298936D02*
X13029706Y-16308460D01*
X13029706Y-16308460D02*
X13048753Y-16317984D01*
X13048753Y-16317984D02*
X13086848Y-16317984D01*
X13086848Y-16317984D02*
X13105896Y-16308460D01*
X13105896Y-16308460D02*
X13115420Y-16298936D01*
X13115420Y-16298936D02*
X13124944Y-16279888D01*
X13124944Y-16279888D02*
X13124944Y-16241793D01*
X13124944Y-16241793D02*
X13115420Y-16222746D01*
X13115420Y-16222746D02*
X13105896Y-16213222D01*
X13105896Y-16213222D02*
X13086848Y-16203698D01*
X13201134Y-16117984D02*
X13201134Y-16156079D01*
X13277325Y-16117984D02*
X13277325Y-16156079D01*
X13572563Y-16394174D02*
X13563039Y-16384650D01*
X13563039Y-16384650D02*
X13543991Y-16356079D01*
X13543991Y-16356079D02*
X13534468Y-16337031D01*
X13534468Y-16337031D02*
X13524944Y-16308460D01*
X13524944Y-16308460D02*
X13515420Y-16260841D01*
X13515420Y-16260841D02*
X13515420Y-16222746D01*
X13515420Y-16222746D02*
X13524944Y-16175127D01*
X13524944Y-16175127D02*
X13534468Y-16146555D01*
X13534468Y-16146555D02*
X13543991Y-16127508D01*
X13543991Y-16127508D02*
X13563039Y-16098936D01*
X13563039Y-16098936D02*
X13572563Y-16089412D01*
X13753515Y-16317984D02*
X13639229Y-16317984D01*
X13696372Y-16317984D02*
X13696372Y-16117984D01*
X13696372Y-16117984D02*
X13677325Y-16146555D01*
X13677325Y-16146555D02*
X13658277Y-16165603D01*
X13658277Y-16165603D02*
X13639229Y-16175127D01*
X13991610Y-16317984D02*
X13991610Y-16117984D01*
X14077325Y-16317984D02*
X14077325Y-16213222D01*
X14077325Y-16213222D02*
X14067801Y-16194174D01*
X14067801Y-16194174D02*
X14048753Y-16184650D01*
X14048753Y-16184650D02*
X14020182Y-16184650D01*
X14020182Y-16184650D02*
X14001134Y-16194174D01*
X14001134Y-16194174D02*
X13991610Y-16203698D01*
X14201134Y-16317984D02*
X14182087Y-16308460D01*
X14182087Y-16308460D02*
X14172563Y-16298936D01*
X14172563Y-16298936D02*
X14163039Y-16279888D01*
X14163039Y-16279888D02*
X14163039Y-16222746D01*
X14163039Y-16222746D02*
X14172563Y-16203698D01*
X14172563Y-16203698D02*
X14182087Y-16194174D01*
X14182087Y-16194174D02*
X14201134Y-16184650D01*
X14201134Y-16184650D02*
X14229706Y-16184650D01*
X14229706Y-16184650D02*
X14248753Y-16194174D01*
X14248753Y-16194174D02*
X14258277Y-16203698D01*
X14258277Y-16203698D02*
X14267801Y-16222746D01*
X14267801Y-16222746D02*
X14267801Y-16279888D01*
X14267801Y-16279888D02*
X14258277Y-16298936D01*
X14258277Y-16298936D02*
X14248753Y-16308460D01*
X14248753Y-16308460D02*
X14229706Y-16317984D01*
X14229706Y-16317984D02*
X14201134Y-16317984D01*
X14382087Y-16317984D02*
X14363039Y-16308460D01*
X14363039Y-16308460D02*
X14353515Y-16289412D01*
X14353515Y-16289412D02*
X14353515Y-16117984D01*
X14534468Y-16308460D02*
X14515420Y-16317984D01*
X14515420Y-16317984D02*
X14477325Y-16317984D01*
X14477325Y-16317984D02*
X14458277Y-16308460D01*
X14458277Y-16308460D02*
X14448753Y-16289412D01*
X14448753Y-16289412D02*
X14448753Y-16213222D01*
X14448753Y-16213222D02*
X14458277Y-16194174D01*
X14458277Y-16194174D02*
X14477325Y-16184650D01*
X14477325Y-16184650D02*
X14515420Y-16184650D01*
X14515420Y-16184650D02*
X14534468Y-16194174D01*
X14534468Y-16194174D02*
X14543991Y-16213222D01*
X14543991Y-16213222D02*
X14543991Y-16232269D01*
X14543991Y-16232269D02*
X14448753Y-16251317D01*
X14610658Y-16394174D02*
X14620182Y-16384650D01*
X14620182Y-16384650D02*
X14639230Y-16356079D01*
X14639230Y-16356079D02*
X14648753Y-16337031D01*
X14648753Y-16337031D02*
X14658277Y-16308460D01*
X14658277Y-16308460D02*
X14667801Y-16260841D01*
X14667801Y-16260841D02*
X14667801Y-16222746D01*
X14667801Y-16222746D02*
X14658277Y-16175127D01*
X14658277Y-16175127D02*
X14648753Y-16146555D01*
X14648753Y-16146555D02*
X14639230Y-16127508D01*
X14639230Y-16127508D02*
X14620182Y-16098936D01*
X14620182Y-16098936D02*
X14610658Y-16089412D01*
X14972563Y-16394174D02*
X14963039Y-16384650D01*
X14963039Y-16384650D02*
X14943991Y-16356079D01*
X14943991Y-16356079D02*
X14934468Y-16337031D01*
X14934468Y-16337031D02*
X14924944Y-16308460D01*
X14924944Y-16308460D02*
X14915420Y-16260841D01*
X14915420Y-16260841D02*
X14915420Y-16222746D01*
X14915420Y-16222746D02*
X14924944Y-16175127D01*
X14924944Y-16175127D02*
X14934468Y-16146555D01*
X14934468Y-16146555D02*
X14943991Y-16127508D01*
X14943991Y-16127508D02*
X14963039Y-16098936D01*
X14963039Y-16098936D02*
X14972563Y-16089412D01*
X15048753Y-16184650D02*
X15048753Y-16317984D01*
X15048753Y-16203698D02*
X15058277Y-16194174D01*
X15058277Y-16194174D02*
X15077325Y-16184650D01*
X15077325Y-16184650D02*
X15105896Y-16184650D01*
X15105896Y-16184650D02*
X15124944Y-16194174D01*
X15124944Y-16194174D02*
X15134468Y-16213222D01*
X15134468Y-16213222D02*
X15134468Y-16317984D01*
X15258277Y-16317984D02*
X15239230Y-16308460D01*
X15239230Y-16308460D02*
X15229706Y-16298936D01*
X15229706Y-16298936D02*
X15220182Y-16279888D01*
X15220182Y-16279888D02*
X15220182Y-16222746D01*
X15220182Y-16222746D02*
X15229706Y-16203698D01*
X15229706Y-16203698D02*
X15239230Y-16194174D01*
X15239230Y-16194174D02*
X15258277Y-16184650D01*
X15258277Y-16184650D02*
X15286849Y-16184650D01*
X15286849Y-16184650D02*
X15305896Y-16194174D01*
X15305896Y-16194174D02*
X15315420Y-16203698D01*
X15315420Y-16203698D02*
X15324944Y-16222746D01*
X15324944Y-16222746D02*
X15324944Y-16279888D01*
X15324944Y-16279888D02*
X15315420Y-16298936D01*
X15315420Y-16298936D02*
X15305896Y-16308460D01*
X15305896Y-16308460D02*
X15286849Y-16317984D01*
X15286849Y-16317984D02*
X15258277Y-16317984D01*
X15382087Y-16184650D02*
X15458277Y-16184650D01*
X15410658Y-16117984D02*
X15410658Y-16289412D01*
X15410658Y-16289412D02*
X15420182Y-16308460D01*
X15420182Y-16308460D02*
X15439230Y-16317984D01*
X15439230Y-16317984D02*
X15458277Y-16317984D01*
X15677325Y-16184650D02*
X15677325Y-16384650D01*
X15677325Y-16194174D02*
X15696372Y-16184650D01*
X15696372Y-16184650D02*
X15734468Y-16184650D01*
X15734468Y-16184650D02*
X15753515Y-16194174D01*
X15753515Y-16194174D02*
X15763039Y-16203698D01*
X15763039Y-16203698D02*
X15772563Y-16222746D01*
X15772563Y-16222746D02*
X15772563Y-16279888D01*
X15772563Y-16279888D02*
X15763039Y-16298936D01*
X15763039Y-16298936D02*
X15753515Y-16308460D01*
X15753515Y-16308460D02*
X15734468Y-16317984D01*
X15734468Y-16317984D02*
X15696372Y-16317984D01*
X15696372Y-16317984D02*
X15677325Y-16308460D01*
X15886849Y-16317984D02*
X15867801Y-16308460D01*
X15867801Y-16308460D02*
X15858277Y-16289412D01*
X15858277Y-16289412D02*
X15858277Y-16117984D01*
X16048753Y-16317984D02*
X16048753Y-16213222D01*
X16048753Y-16213222D02*
X16039230Y-16194174D01*
X16039230Y-16194174D02*
X16020182Y-16184650D01*
X16020182Y-16184650D02*
X15982087Y-16184650D01*
X15982087Y-16184650D02*
X15963039Y-16194174D01*
X16048753Y-16308460D02*
X16029706Y-16317984D01*
X16029706Y-16317984D02*
X15982087Y-16317984D01*
X15982087Y-16317984D02*
X15963039Y-16308460D01*
X15963039Y-16308460D02*
X15953515Y-16289412D01*
X15953515Y-16289412D02*
X15953515Y-16270365D01*
X15953515Y-16270365D02*
X15963039Y-16251317D01*
X15963039Y-16251317D02*
X15982087Y-16241793D01*
X15982087Y-16241793D02*
X16029706Y-16241793D01*
X16029706Y-16241793D02*
X16048753Y-16232269D01*
X16115420Y-16184650D02*
X16191611Y-16184650D01*
X16143992Y-16117984D02*
X16143992Y-16289412D01*
X16143992Y-16289412D02*
X16153515Y-16308460D01*
X16153515Y-16308460D02*
X16172563Y-16317984D01*
X16172563Y-16317984D02*
X16191611Y-16317984D01*
X16334468Y-16308460D02*
X16315420Y-16317984D01*
X16315420Y-16317984D02*
X16277325Y-16317984D01*
X16277325Y-16317984D02*
X16258277Y-16308460D01*
X16258277Y-16308460D02*
X16248753Y-16289412D01*
X16248753Y-16289412D02*
X16248753Y-16213222D01*
X16248753Y-16213222D02*
X16258277Y-16194174D01*
X16258277Y-16194174D02*
X16277325Y-16184650D01*
X16277325Y-16184650D02*
X16315420Y-16184650D01*
X16315420Y-16184650D02*
X16334468Y-16194174D01*
X16334468Y-16194174D02*
X16343992Y-16213222D01*
X16343992Y-16213222D02*
X16343992Y-16232269D01*
X16343992Y-16232269D02*
X16248753Y-16251317D01*
X16515420Y-16317984D02*
X16515420Y-16117984D01*
X16515420Y-16308460D02*
X16496373Y-16317984D01*
X16496373Y-16317984D02*
X16458277Y-16317984D01*
X16458277Y-16317984D02*
X16439230Y-16308460D01*
X16439230Y-16308460D02*
X16429706Y-16298936D01*
X16429706Y-16298936D02*
X16420182Y-16279888D01*
X16420182Y-16279888D02*
X16420182Y-16222746D01*
X16420182Y-16222746D02*
X16429706Y-16203698D01*
X16429706Y-16203698D02*
X16439230Y-16194174D01*
X16439230Y-16194174D02*
X16458277Y-16184650D01*
X16458277Y-16184650D02*
X16496373Y-16184650D01*
X16496373Y-16184650D02*
X16515420Y-16194174D01*
X16591611Y-16394174D02*
X16601134Y-16384650D01*
X16601134Y-16384650D02*
X16620182Y-16356079D01*
X16620182Y-16356079D02*
X16629706Y-16337031D01*
X16629706Y-16337031D02*
X16639230Y-16308460D01*
X16639230Y-16308460D02*
X16648753Y-16260841D01*
X16648753Y-16260841D02*
X16648753Y-16222746D01*
X16648753Y-16222746D02*
X16639230Y-16175127D01*
X16639230Y-16175127D02*
X16629706Y-16146555D01*
X16629706Y-16146555D02*
X16620182Y-16127508D01*
X16620182Y-16127508D02*
X16601134Y-16098936D01*
X16601134Y-16098936D02*
X16591611Y-16089412D01*
M02*
