M48
; DRILL file {KiCad 7.0.8} date Fri Jan  5 15:28:02 2024
; FORMAT={-:-/ absolute / metric / decimal}
; #@! TF.CreationDate,2024-01-05T15:28:02+00:00
; #@! TF.GenerationSoftware,Kicad,Pcbnew,7.0.8
; #@! TF.FileFunction,Plated,1,4,PTH
FMAT,2
METRIC
; #@! TA.AperFunction,Plated,PTH,ViaDrill
T1C0.400
; #@! TA.AperFunction,Plated,PTH,ComponentDrill
T2C0.700
; #@! TA.AperFunction,Plated,PTH,ComponentDrill
T3C0.750
; #@! TA.AperFunction,Plated,PTH,ComponentDrill
T4C0.800
; #@! TA.AperFunction,Plated,PTH,ComponentDrill
T5C0.900
; #@! TA.AperFunction,Plated,PTH,ComponentDrill
T6C1.000
; #@! TA.AperFunction,Plated,PTH,ComponentDrill
T7C1.100
; #@! TA.AperFunction,Plated,PTH,ComponentDrill
T8C1.200
%
G90
G05
T1
X109.22Y-125.984
X115.57Y-141.478
X117.856Y-113.538
X118.872Y-109.982
X118.872Y-126.238
X118.872Y-142.531
X120.142Y-137.414
X122.428Y-114.554
X123.952Y-95.504
X125.476Y-113.284
X125.73Y-107.95
X126.746Y-112.268
X127.762Y-87.884
X127.762Y-133.096
X128.016Y-108.966
X129.032Y-96.774
X129.54Y-112.268
X131.064Y-137.414
X131.572Y-93.218
X134.112Y-104.902
X134.112Y-141.986
X135.382Y-117.094
X135.382Y-133.096
X136.652Y-93.218
X136.652Y-106.172
X136.906Y-70.866
X139.192Y-93.218
X140.462Y-124.714
X141.478Y-127.254
X141.732Y-96.774
X142.24Y-133.604
X143.002Y-66.04
X143.256Y-132.334
X143.764Y-81.026
X144.272Y-95.504
X144.272Y-129.794
X145.288Y-131.064
X145.542Y-63.754
X146.304Y-128.524
X146.812Y-82.042
X146.812Y-93.218
X146.812Y-96.774
X147.066Y-125.984
X148.082Y-68.58
X148.082Y-94.234
X148.336Y-122.174
X149.352Y-75.946
X149.352Y-87.884
X149.352Y-115.824
X150.368Y-118.364
X150.622Y-64.77
X150.622Y-90.17
X150.622Y-91.948
X151.638Y-119.634
X151.892Y-101.854
X152.908Y-120.904
X153.162Y-60.96
X153.67Y-107.188
X154.432Y-71.882
X154.432Y-97.79
X155.702Y-61.976
X155.702Y-87.884
X157.734Y-81.026
X158.75Y-82.042
X159.512Y-135.382
X160.782Y-136.398
X162.052Y-141.224
X162.052Y-142.494
X162.814Y-57.912
X164.592Y-96.774
X164.592Y-135.382
X164.846Y-64.516
X165.608Y-106.172
X165.862Y-136.398
X166.37Y-66.04
X167.132Y-133.604
X168.402Y-141.224
X170.942Y-108.204
X170.942Y-124.714
X172.974Y-56.642
X173.228Y-87.376
X174.244Y-70.866
X175.768Y-83.058
X175.768Y-94.488
X177.038Y-84.836
X177.038Y-101.346
X178.562Y-69.85
X179.324Y-127.254
X179.832Y-146.812
X184.404Y-117.094
X191.77Y-126.492
X193.802Y-61.976
T3
X128.524Y-130.302
X129.794Y-130.302
X131.064Y-130.302
X174.498Y-59.69
X174.498Y-66.294
X175.768Y-59.69
X175.768Y-66.294
X177.038Y-59.69
X177.038Y-66.294
T4
X103.164Y-116.586
X103.418Y-123.952
X104.379Y-63.54
X104.379Y-66.04
X104.379Y-70.906
X104.379Y-73.406
X104.633Y-88.94
X104.633Y-91.44
X104.633Y-96.814
X104.633Y-99.314
X105.664Y-116.586
X105.918Y-123.952
X110.236Y-134.874
X112.308Y-105.918
X114.808Y-105.918
X118.349Y-88.94
X118.349Y-91.44
X118.349Y-96.56
X118.349Y-99.06
X118.603Y-63.54
X118.603Y-66.04
X118.603Y-70.652
X118.603Y-73.152
X119.126Y-80.772
X120.396Y-134.874
X120.436Y-54.864
X121.198Y-117.094
X121.198Y-124.206
X121.626Y-80.772
X121.96Y-104.14
X122.682Y-59.182
X122.682Y-74.422
X122.682Y-84.582
X122.682Y-99.822
X122.936Y-54.864
X123.698Y-117.094
X123.698Y-124.206
X124.46Y-104.14
X125.222Y-59.182
X125.222Y-74.422
X125.222Y-84.582
X125.222Y-99.822
X127.762Y-59.182
X127.762Y-74.422
X127.762Y-84.582
X127.762Y-99.822
X128.016Y-120.142
X128.016Y-124.206
X130.302Y-59.182
X130.302Y-74.422
X130.302Y-84.582
X130.302Y-99.822
X132.12Y-54.864
X132.842Y-59.182
X132.842Y-74.422
X132.842Y-84.582
X132.842Y-99.822
X134.62Y-54.864
X135.382Y-59.182
X135.382Y-74.422
X135.382Y-84.582
X135.382Y-99.822
X137.922Y-59.182
X137.922Y-74.422
X137.922Y-84.582
X137.922Y-99.822
X138.176Y-120.142
X138.176Y-124.206
X140.462Y-59.182
X140.462Y-74.422
X140.462Y-84.582
X140.462Y-99.822
X142.534Y-54.864
X143.002Y-59.182
X143.002Y-74.422
X143.002Y-84.582
X143.002Y-99.822
X143.296Y-104.14
X143.804Y-78.994
X145.034Y-54.864
X145.542Y-59.182
X145.542Y-74.422
X145.542Y-84.582
X145.542Y-99.822
X145.796Y-104.14
X146.304Y-78.994
X148.082Y-59.182
X148.082Y-74.422
X148.082Y-84.582
X148.082Y-99.822
X149.098Y-104.14
X149.626Y-78.994
X150.622Y-59.182
X150.622Y-74.422
X150.622Y-84.582
X150.622Y-99.822
X151.598Y-104.14
X152.126Y-78.994
X153.162Y-59.182
X153.162Y-74.422
X153.162Y-84.582
X153.162Y-99.822
X155.508Y-104.14
X155.702Y-59.182
X155.702Y-74.422
X155.702Y-84.582
X155.702Y-99.822
X158.008Y-104.14
X159.512Y-115.824
X159.512Y-118.364
X159.512Y-120.904
X159.512Y-123.444
X159.512Y-125.984
X159.512Y-128.524
X160.762Y-89.676
X160.762Y-94.488
X160.762Y-99.328
X160.782Y-63.514
X160.782Y-68.072
X160.782Y-72.658
X161.056Y-84.85
X161.29Y-77.484
X162.052Y-113.284
X162.052Y-115.824
X162.052Y-118.364
X162.052Y-120.904
X162.052Y-123.444
X162.052Y-125.984
X162.052Y-128.524
X162.052Y-131.064
X163.556Y-84.85
X163.79Y-77.484
X164.592Y-113.284
X164.592Y-115.824
X164.592Y-128.524
X164.592Y-131.064
X167.132Y-113.284
X167.132Y-115.824
X167.132Y-128.524
X167.132Y-131.064
X168.148Y-84.836
X168.402Y-77.484
X169.672Y-113.284
X169.672Y-115.824
X169.672Y-128.524
X169.672Y-131.064
X170.648Y-84.836
X170.902Y-77.484
X170.922Y-89.676
X170.922Y-94.488
X170.922Y-99.328
X170.942Y-63.514
X170.942Y-68.072
X170.942Y-72.658
X172.212Y-113.284
X172.212Y-115.824
X172.212Y-128.524
X172.212Y-131.064
X174.752Y-113.284
X174.752Y-115.824
X174.752Y-118.364
X174.752Y-120.904
X174.752Y-123.444
X174.752Y-125.984
X174.752Y-128.524
X174.752Y-131.064
X175.808Y-106.68
X177.292Y-115.824
X177.292Y-118.364
X177.292Y-120.904
X177.292Y-123.444
X177.292Y-125.984
X177.292Y-128.524
X178.308Y-106.68
X180.888Y-58.166
X180.888Y-65.786
X181.122Y-88.646
X181.142Y-76.454
X181.142Y-83.82
X181.162Y-71.882
X182.92Y-112.268
X183.388Y-58.166
X183.388Y-65.786
X183.622Y-88.646
X183.642Y-76.454
X183.642Y-83.82
X183.662Y-71.882
X185.42Y-112.268
T5
X102.87Y-136.398
X105.41Y-136.398
T6
X108.951Y-59.182
X108.951Y-62.992
X108.951Y-74.422
X108.966Y-66.802
X108.966Y-70.612
X109.205Y-88.454
X109.205Y-92.456
X109.205Y-96.266
X109.205Y-100.076
X109.23Y-84.587
X109.982Y-139.7
X109.982Y-144.78
X111.491Y-59.182
X111.491Y-62.992
X111.491Y-74.422
X111.506Y-66.802
X111.506Y-70.612
X111.745Y-88.454
X111.745Y-92.456
X111.745Y-96.266
X111.745Y-100.076
X111.77Y-84.587
X112.522Y-139.7
X112.522Y-144.78
X114.031Y-59.182
X114.031Y-62.992
X114.031Y-74.422
X114.046Y-66.802
X114.046Y-70.612
X114.285Y-88.454
X114.285Y-92.456
X114.285Y-96.266
X114.285Y-100.076
X114.31Y-84.587
X115.062Y-139.7
X115.062Y-144.78
X117.602Y-139.7
X117.602Y-144.78
X120.142Y-139.7
X120.142Y-144.78
X122.682Y-139.7
X122.682Y-144.78
X125.222Y-139.7
X125.222Y-144.78
X127.762Y-139.7
X127.762Y-144.78
X130.302Y-139.7
X130.302Y-144.78
X132.842Y-139.7
X132.842Y-144.78
X135.382Y-139.7
X135.382Y-144.78
X137.922Y-139.7
X137.922Y-144.78
X140.462Y-139.7
X140.462Y-144.78
X143.002Y-139.7
X143.002Y-144.78
X145.542Y-139.7
X145.542Y-144.78
X148.082Y-139.7
X148.082Y-144.78
X150.622Y-139.7
X150.622Y-144.78
X152.41Y-53.848
X153.162Y-139.7
X153.162Y-144.78
X154.95Y-53.848
X155.702Y-139.7
X155.702Y-144.78
X157.49Y-53.848
X158.242Y-139.7
X158.242Y-144.78
X160.03Y-53.848
X160.782Y-139.7
X160.782Y-144.78
X163.322Y-139.7
X163.322Y-144.78
X164.846Y-53.848
X165.862Y-139.7
X165.862Y-144.78
X167.386Y-53.848
X168.402Y-139.7
X168.402Y-144.78
X169.926Y-53.848
X170.942Y-139.7
X170.942Y-144.78
X172.466Y-53.848
X173.482Y-139.7
X173.482Y-144.78
X176.022Y-139.7
X176.022Y-144.78
X178.562Y-139.7
X178.562Y-144.78
X181.102Y-139.7
X181.102Y-144.78
X183.642Y-139.7
X183.642Y-144.78
X186.182Y-139.7
X186.182Y-144.78
X186.69Y-121.412
X186.69Y-123.952
X186.69Y-126.492
X186.69Y-129.032
X186.69Y-131.572
X186.69Y-134.112
X188.722Y-139.7
X188.722Y-144.78
T7
X111.252Y-128.524
X113.792Y-128.524
X116.332Y-128.524
T8
X191.342Y-97.282
X191.342Y-102.282
X191.342Y-107.282
X196.342Y-97.282
X196.342Y-102.282
X196.342Y-107.282
T2
X190.776Y-58.754G85X189.876Y-58.754
G05
X190.776Y-68.754G85X189.876Y-68.754
G05
X190.776Y-75.518G85X189.876Y-75.518
G05
X190.776Y-85.518G85X189.876Y-85.518
G05
X195.326Y-64.204G85X195.326Y-63.304
G05
X195.326Y-80.968G85X195.326Y-80.068
G05
T0
M30
