M48
; DRILL file {KiCad (6.0.11)} date Sat Feb  4 12:30:39 2023
; FORMAT={-:-/ absolute / metric / decimal}
; #@! TF.CreationDate,2023-02-04T12:30:39+00:00
; #@! TF.GenerationSoftware,Kicad,Pcbnew,(6.0.11)
; #@! TF.FileFunction,NonPlated,1,4,NPTH
FMAT,2
METRIC
; #@! TA.AperFunction,NonPlated,NPTH,ComponentDrill
T1C1.200
; #@! TA.AperFunction,NonPlated,NPTH,ComponentDrill
T2C1.500
; #@! TA.AperFunction,NonPlated,NPTH,ComponentDrill
T3C2.390
; #@! TA.AperFunction,NonPlated,NPTH,ComponentDrill
T4C2.400
; #@! TA.AperFunction,NonPlated,NPTH,ComponentDrill
T5C2.850
; #@! TA.AperFunction,NonPlated,NPTH,ComponentDrill
T6C3.500
; #@! TA.AperFunction,NonPlated,NPTH,ComponentDrill
T7C4.300
%
G90
G05
T1
X362.966Y-21.9
X362.966Y-24.4
X367.966Y-29.4
X372.966Y-21.9
X372.966Y-24.4
T2
X176.47Y-37.987
X200.67Y-37.987
T3
X44.081Y-27.476
X59.091Y-27.476
T4
X215.298Y-27.86
X230.298Y-27.86
T5
X72.644Y-22.86
X161.544Y-22.86
T6
X214.63Y-60.094
T7
X26.924Y-192.024
X46.482Y-69.342
X168.148Y-181.61
X237.998Y-32.766
X367.284Y-192.786
X397.256Y-26.67
T0
M30
