G04 #@! TF.GenerationSoftware,KiCad,Pcbnew,(6.0.11)*
G04 #@! TF.CreationDate,2023-02-06T09:16:53+00:00*
G04 #@! TF.ProjectId,yddraig09,79646472-6169-4673-9039-2e6b69636164,rev?*
G04 #@! TF.SameCoordinates,Original*
G04 #@! TF.FileFunction,Copper,L1,Top*
G04 #@! TF.FilePolarity,Positive*
%FSLAX46Y46*%
G04 Gerber Fmt 4.6, Leading zero omitted, Abs format (unit mm)*
G04 Created by KiCad (PCBNEW (6.0.11)) date 2023-02-06 09:16:53*
%MOMM*%
%LPD*%
G01*
G04 APERTURE LIST*
G04 Aperture macros list*
%AMRoundRect*
0 Rectangle with rounded corners*
0 $1 Rounding radius*
0 $2 $3 $4 $5 $6 $7 $8 $9 X,Y pos of 4 corners*
0 Add a 4 corners polygon primitive as box body*
4,1,4,$2,$3,$4,$5,$6,$7,$8,$9,$2,$3,0*
0 Add four circle primitives for the rounded corners*
1,1,$1+$1,$2,$3*
1,1,$1+$1,$4,$5*
1,1,$1+$1,$6,$7*
1,1,$1+$1,$8,$9*
0 Add four rect primitives between the rounded corners*
20,1,$1+$1,$2,$3,$4,$5,0*
20,1,$1+$1,$4,$5,$6,$7,0*
20,1,$1+$1,$6,$7,$8,$9,0*
20,1,$1+$1,$8,$9,$2,$3,0*%
G04 Aperture macros list end*
G04 #@! TA.AperFunction,ComponentPad*
%ADD10C,1.600000*%
G04 #@! TD*
G04 #@! TA.AperFunction,ComponentPad*
%ADD11R,1.600000X1.600000*%
G04 #@! TD*
G04 #@! TA.AperFunction,ComponentPad*
%ADD12R,1.800000X1.800000*%
G04 #@! TD*
G04 #@! TA.AperFunction,ComponentPad*
%ADD13C,1.800000*%
G04 #@! TD*
G04 #@! TA.AperFunction,ComponentPad*
%ADD14O,1.600000X1.600000*%
G04 #@! TD*
G04 #@! TA.AperFunction,ComponentPad*
%ADD15C,4.000000*%
G04 #@! TD*
G04 #@! TA.AperFunction,ComponentPad*
%ADD16R,1.700000X1.700000*%
G04 #@! TD*
G04 #@! TA.AperFunction,ComponentPad*
%ADD17O,1.700000X1.700000*%
G04 #@! TD*
G04 #@! TA.AperFunction,ComponentPad*
%ADD18R,2.100000X2.100000*%
G04 #@! TD*
G04 #@! TA.AperFunction,ComponentPad*
%ADD19C,2.100000*%
G04 #@! TD*
G04 #@! TA.AperFunction,ComponentPad*
%ADD20R,1.950000X1.950000*%
G04 #@! TD*
G04 #@! TA.AperFunction,ComponentPad*
%ADD21C,1.950000*%
G04 #@! TD*
G04 #@! TA.AperFunction,SMDPad,CuDef*
%ADD22R,0.800000X2.000000*%
G04 #@! TD*
G04 #@! TA.AperFunction,SMDPad,CuDef*
%ADD23R,1.800000X2.400000*%
G04 #@! TD*
G04 #@! TA.AperFunction,SMDPad,CuDef*
%ADD24R,1.700000X2.400000*%
G04 #@! TD*
G04 #@! TA.AperFunction,SMDPad,CuDef*
%ADD25R,0.700000X2.000000*%
G04 #@! TD*
G04 #@! TA.AperFunction,ComponentPad*
%ADD26C,2.600000*%
G04 #@! TD*
G04 #@! TA.AperFunction,ComponentPad*
%ADD27R,1.500000X1.050000*%
G04 #@! TD*
G04 #@! TA.AperFunction,ComponentPad*
%ADD28O,1.500000X1.050000*%
G04 #@! TD*
G04 #@! TA.AperFunction,ComponentPad*
%ADD29R,1.050000X1.500000*%
G04 #@! TD*
G04 #@! TA.AperFunction,ComponentPad*
%ADD30O,1.050000X1.500000*%
G04 #@! TD*
G04 #@! TA.AperFunction,ComponentPad*
%ADD31C,2.000000*%
G04 #@! TD*
G04 #@! TA.AperFunction,ComponentPad*
%ADD32R,2.800000X2.800000*%
G04 #@! TD*
G04 #@! TA.AperFunction,ComponentPad*
%ADD33C,2.800000*%
G04 #@! TD*
G04 #@! TA.AperFunction,ComponentPad*
%ADD34R,1.700000X1.200000*%
G04 #@! TD*
G04 #@! TA.AperFunction,ComponentPad*
%ADD35O,1.700000X1.200000*%
G04 #@! TD*
G04 #@! TA.AperFunction,SMDPad,CuDef*
%ADD36RoundRect,0.137500X0.137500X-0.862500X0.137500X0.862500X-0.137500X0.862500X-0.137500X-0.862500X0*%
G04 #@! TD*
G04 #@! TA.AperFunction,ComponentPad*
%ADD37R,1.905000X2.000000*%
G04 #@! TD*
G04 #@! TA.AperFunction,ComponentPad*
%ADD38O,1.905000X2.000000*%
G04 #@! TD*
G04 #@! TA.AperFunction,ComponentPad*
%ADD39R,1.422400X1.422400*%
G04 #@! TD*
G04 #@! TA.AperFunction,ComponentPad*
%ADD40C,1.422400*%
G04 #@! TD*
G04 #@! TA.AperFunction,ComponentPad*
%ADD41C,2.300000*%
G04 #@! TD*
G04 #@! TA.AperFunction,ComponentPad*
%ADD42R,1.300000X1.300000*%
G04 #@! TD*
G04 #@! TA.AperFunction,ComponentPad*
%ADD43C,1.300000*%
G04 #@! TD*
G04 #@! TA.AperFunction,ComponentPad*
%ADD44R,3.000000X3.000000*%
G04 #@! TD*
G04 #@! TA.AperFunction,ComponentPad*
%ADD45C,3.000000*%
G04 #@! TD*
G04 #@! TA.AperFunction,ComponentPad*
%ADD46RoundRect,0.249999X-0.525001X-0.525001X0.525001X-0.525001X0.525001X0.525001X-0.525001X0.525001X0*%
G04 #@! TD*
G04 #@! TA.AperFunction,ComponentPad*
%ADD47C,1.550000*%
G04 #@! TD*
G04 #@! TA.AperFunction,ComponentPad*
%ADD48O,2.416000X1.208000*%
G04 #@! TD*
G04 #@! TA.AperFunction,ComponentPad*
%ADD49O,1.208000X2.416000*%
G04 #@! TD*
G04 #@! TA.AperFunction,ComponentPad*
%ADD50R,3.765000X3.765000*%
G04 #@! TD*
G04 #@! TA.AperFunction,ComponentPad*
%ADD51C,3.600000*%
G04 #@! TD*
G04 #@! TA.AperFunction,ComponentPad*
%ADD52R,1.509000X1.509000*%
G04 #@! TD*
G04 #@! TA.AperFunction,ComponentPad*
%ADD53C,1.509000*%
G04 #@! TD*
G04 #@! TA.AperFunction,ComponentPad*
%ADD54C,3.555000*%
G04 #@! TD*
G04 #@! TA.AperFunction,ComponentPad*
%ADD55C,1.440000*%
G04 #@! TD*
G04 #@! TA.AperFunction,ViaPad*
%ADD56C,0.800000*%
G04 #@! TD*
G04 #@! TA.AperFunction,Conductor*
%ADD57C,0.250000*%
G04 #@! TD*
G04 #@! TA.AperFunction,Conductor*
%ADD58C,0.400000*%
G04 #@! TD*
G04 #@! TA.AperFunction,Conductor*
%ADD59C,0.300000*%
G04 #@! TD*
G04 #@! TA.AperFunction,Conductor*
%ADD60C,1.000000*%
G04 #@! TD*
G04 #@! TA.AperFunction,Conductor*
%ADD61C,0.210000*%
G04 #@! TD*
G04 APERTURE END LIST*
D10*
X70906000Y-70358000D03*
X73406000Y-70358000D03*
X64008000Y-70358000D03*
X66508000Y-70358000D03*
X102616000Y-48768000D03*
X102616000Y-46268000D03*
X151384000Y-148844000D03*
X148884000Y-148844000D03*
X130810000Y-39878000D03*
X133310000Y-39878000D03*
X260945000Y-166116000D03*
X258445000Y-166116000D03*
X291909500Y-170180000D03*
X291909500Y-167680000D03*
X307848000Y-167767000D03*
X307848000Y-170267000D03*
X270129000Y-106934000D03*
X272629000Y-106934000D03*
X328676000Y-128056000D03*
X328676000Y-130556000D03*
X278471000Y-166116000D03*
X275971000Y-166116000D03*
X286385000Y-107188000D03*
X288885000Y-107188000D03*
X253238000Y-107061000D03*
X255738000Y-107061000D03*
X297688000Y-109982000D03*
X297688000Y-107482000D03*
X284734000Y-166116000D03*
X282234000Y-166116000D03*
X393486000Y-113538000D03*
X395986000Y-113538000D03*
X387338000Y-133596000D03*
X387338000Y-136096000D03*
D11*
X385191000Y-141772000D03*
D10*
X385191000Y-144272000D03*
D11*
X385191000Y-150622000D03*
D10*
X385191000Y-153122000D03*
D11*
X376174000Y-114808000D03*
D10*
X376174000Y-112308000D03*
X387338000Y-127286000D03*
X387338000Y-129786000D03*
X344424000Y-87884000D03*
X346924000Y-87884000D03*
X362204000Y-143256000D03*
X359704000Y-143256000D03*
D11*
X376174000Y-121158000D03*
D10*
X376174000Y-118658000D03*
X346456000Y-78994000D03*
X346456000Y-76494000D03*
X362458000Y-76454000D03*
X362458000Y-78954000D03*
X336510000Y-68326000D03*
X334010000Y-68326000D03*
X336510000Y-73025000D03*
X334010000Y-73025000D03*
X336510000Y-77724000D03*
X334010000Y-77724000D03*
X336510000Y-82423000D03*
X334010000Y-82423000D03*
X365760000Y-50546000D03*
X365760000Y-53046000D03*
D11*
X337693000Y-43815000D03*
D10*
X337693000Y-41315000D03*
D11*
X322834000Y-43815000D03*
D10*
X322834000Y-41315000D03*
D11*
X330200000Y-43815000D03*
D10*
X330200000Y-41315000D03*
D11*
X315214000Y-43688000D03*
D10*
X315214000Y-41188000D03*
D11*
X305054000Y-68326000D03*
D10*
X307554000Y-68326000D03*
X365760000Y-44236000D03*
X365760000Y-46736000D03*
X360172000Y-38354000D03*
X362672000Y-38354000D03*
X314365000Y-68072000D03*
X316865000Y-68072000D03*
X232664000Y-176570000D03*
X232664000Y-179070000D03*
X115530000Y-189992000D03*
X113030000Y-189992000D03*
X87376000Y-156678000D03*
X87376000Y-154178000D03*
X101306000Y-189992000D03*
X98806000Y-189992000D03*
X278320500Y-75628500D03*
X280820500Y-75628500D03*
X280733500Y-92773500D03*
X278233500Y-92773500D03*
D11*
X280162000Y-38354000D03*
D10*
X277662000Y-38354000D03*
D11*
X277622000Y-57150000D03*
D10*
X280122000Y-57150000D03*
D11*
X286218000Y-57150000D03*
D10*
X283718000Y-57150000D03*
X248920000Y-74128000D03*
X248920000Y-71628000D03*
X48260000Y-152400000D03*
X45760000Y-152400000D03*
X36068000Y-108204000D03*
X38568000Y-108204000D03*
X50800000Y-127254000D03*
X48300000Y-127254000D03*
X33782000Y-136398000D03*
X33782000Y-133898000D03*
D11*
X81828000Y-185420000D03*
D10*
X84328000Y-185420000D03*
X78486000Y-186944000D03*
X75986000Y-186944000D03*
D11*
X81788000Y-177038000D03*
D10*
X84288000Y-177038000D03*
X66929000Y-30226000D03*
X66929000Y-32726000D03*
X72009000Y-30226000D03*
X72009000Y-32726000D03*
D11*
X67945000Y-45466000D03*
D10*
X70445000Y-45466000D03*
D11*
X67945000Y-52832000D03*
D10*
X70445000Y-52832000D03*
X66929000Y-36616000D03*
X66929000Y-39116000D03*
X72047833Y-36660000D03*
X72047833Y-39160000D03*
X203200000Y-61468000D03*
X205700000Y-61468000D03*
X210860000Y-38862000D03*
X213360000Y-38862000D03*
D11*
X203200000Y-55118000D03*
D10*
X205700000Y-55118000D03*
X233934000Y-72390000D03*
X233934000Y-74890000D03*
X240284000Y-64262000D03*
X237784000Y-64262000D03*
D11*
X253238000Y-56388000D03*
D10*
X255738000Y-56388000D03*
D12*
X58198800Y-58166000D03*
D13*
X60738800Y-58166000D03*
D12*
X50698800Y-58166000D03*
D13*
X53238800Y-58166000D03*
D12*
X43198800Y-58166000D03*
D13*
X45738800Y-58166000D03*
D12*
X281686000Y-180022500D03*
D13*
X284226000Y-180022500D03*
D10*
X380746000Y-64516000D03*
D14*
X390906000Y-64516000D03*
D10*
X380746000Y-53594000D03*
D14*
X390906000Y-53594000D03*
D10*
X380746000Y-42926000D03*
D14*
X390906000Y-42926000D03*
D10*
X380492000Y-99822000D03*
D14*
X390652000Y-99822000D03*
D10*
X380492000Y-88646000D03*
D14*
X390652000Y-88646000D03*
D10*
X380492000Y-81280000D03*
D14*
X390652000Y-81280000D03*
D10*
X380746000Y-60960000D03*
D14*
X390906000Y-60960000D03*
D10*
X380746000Y-57150000D03*
D14*
X390906000Y-57150000D03*
D10*
X380746000Y-50038000D03*
D14*
X390906000Y-50038000D03*
D10*
X380746000Y-46482000D03*
D14*
X390906000Y-46482000D03*
D10*
X380492000Y-96266000D03*
D14*
X390652000Y-96266000D03*
D10*
X380492000Y-92456000D03*
D14*
X390652000Y-92456000D03*
D10*
X380492000Y-84836000D03*
D14*
X390652000Y-84836000D03*
D10*
X380492000Y-77724000D03*
D14*
X390652000Y-77724000D03*
D15*
X397429000Y-63805200D03*
X397429000Y-38805200D03*
D11*
X397129000Y-56845200D03*
D10*
X397129000Y-54075200D03*
X397129000Y-51305200D03*
X397129000Y-48535200D03*
X397129000Y-45765200D03*
X399969000Y-55460200D03*
X399969000Y-52690200D03*
X399969000Y-49920200D03*
X399969000Y-47150200D03*
D15*
X397200400Y-98984200D03*
X397200400Y-73984200D03*
D11*
X396900400Y-92024200D03*
D10*
X396900400Y-89254200D03*
X396900400Y-86484200D03*
X396900400Y-83714200D03*
X396900400Y-80944200D03*
X399740400Y-90639200D03*
X399740400Y-87869200D03*
X399740400Y-85099200D03*
X399740400Y-82329200D03*
D15*
X310490000Y-28148000D03*
X285490000Y-28148000D03*
D11*
X303530000Y-28448000D03*
D10*
X300760000Y-28448000D03*
X297990000Y-28448000D03*
X295220000Y-28448000D03*
X292450000Y-28448000D03*
X302145000Y-25608000D03*
X299375000Y-25608000D03*
X296605000Y-25608000D03*
X293835000Y-25608000D03*
D15*
X247771000Y-28148000D03*
X272771000Y-28148000D03*
D11*
X265811000Y-28448000D03*
D10*
X263041000Y-28448000D03*
X260271000Y-28448000D03*
X257501000Y-28448000D03*
X254731000Y-28448000D03*
X264426000Y-25608000D03*
X261656000Y-25608000D03*
X258886000Y-25608000D03*
X256116000Y-25608000D03*
D16*
X60198000Y-177038000D03*
D17*
X60198000Y-174498000D03*
D18*
X44081200Y-32485800D03*
D19*
X51586200Y-32485800D03*
X59091200Y-32485800D03*
X46581200Y-34975800D03*
X56591200Y-34975800D03*
X54086200Y-22475800D03*
X49086200Y-22475800D03*
D20*
X215298000Y-32860000D03*
D21*
X217798000Y-35360000D03*
X222798000Y-32860000D03*
X227798000Y-35360000D03*
X230298000Y-32860000D03*
X222798000Y-37860000D03*
X225298000Y-22860000D03*
X220298000Y-22860000D03*
D22*
X181689600Y-45186600D03*
X184189600Y-45186600D03*
X187489600Y-45186600D03*
X189189600Y-45186600D03*
X191689600Y-45186600D03*
X194189600Y-45186600D03*
X196619600Y-45186600D03*
X198319600Y-45186600D03*
X179189600Y-45186600D03*
D23*
X175319600Y-23986600D03*
D24*
X201769600Y-22786600D03*
D22*
X185889600Y-45186600D03*
D25*
X201809600Y-45186600D03*
D26*
X54938000Y-44928967D03*
X59938000Y-44928967D03*
X44688000Y-44928967D03*
X49688000Y-44928967D03*
D27*
X299720000Y-78740000D03*
D28*
X299720000Y-80010000D03*
X299720000Y-81280000D03*
D29*
X289433000Y-180530500D03*
D30*
X290703000Y-180530500D03*
X291973000Y-180530500D03*
D29*
X289433000Y-190182500D03*
D30*
X290703000Y-190182500D03*
X291973000Y-190182500D03*
D10*
X328676000Y-114935000D03*
D14*
X328676000Y-125095000D03*
D10*
X369570000Y-145542000D03*
D14*
X379730000Y-145542000D03*
D10*
X369570000Y-154686000D03*
D14*
X379730000Y-154686000D03*
D10*
X369570000Y-164084000D03*
D14*
X379730000Y-164084000D03*
D10*
X369570000Y-140970000D03*
D14*
X379730000Y-140970000D03*
D10*
X369570000Y-150114000D03*
D14*
X379730000Y-150114000D03*
D10*
X369316000Y-159258000D03*
D14*
X379476000Y-159258000D03*
D10*
X330581000Y-77724000D03*
D14*
X320421000Y-77724000D03*
D10*
X349250000Y-83820000D03*
D14*
X359410000Y-83820000D03*
D10*
X330581000Y-73025000D03*
D14*
X320421000Y-73025000D03*
D10*
X330581000Y-68326000D03*
D14*
X320421000Y-68326000D03*
D10*
X330581000Y-82423000D03*
D14*
X320421000Y-82423000D03*
D10*
X372618000Y-83820000D03*
D14*
X362458000Y-83820000D03*
D10*
X346710000Y-38354000D03*
D14*
X356870000Y-38354000D03*
D10*
X335026000Y-48514000D03*
D14*
X335026000Y-58674000D03*
D10*
X325374000Y-48514000D03*
D14*
X325374000Y-58674000D03*
D10*
X330200000Y-48514000D03*
D14*
X330200000Y-58674000D03*
D10*
X320802000Y-48514000D03*
D14*
X320802000Y-58674000D03*
D10*
X316230000Y-48514000D03*
D14*
X316230000Y-58674000D03*
D10*
X305054000Y-82296000D03*
D14*
X315214000Y-82296000D03*
D10*
X305054000Y-77724000D03*
D14*
X315214000Y-77724000D03*
D10*
X339852000Y-48514000D03*
D14*
X339852000Y-58674000D03*
D10*
X254508000Y-64262000D03*
D14*
X244348000Y-64262000D03*
D10*
X260858000Y-42418000D03*
D14*
X271018000Y-42418000D03*
D10*
X260858000Y-51816000D03*
D14*
X271018000Y-51816000D03*
D10*
X260858000Y-56388000D03*
D14*
X271018000Y-56388000D03*
D10*
X38862000Y-143510000D03*
D14*
X38862000Y-133350000D03*
D10*
X35306000Y-164338000D03*
D14*
X45466000Y-164338000D03*
D10*
X28702000Y-93726000D03*
D14*
X38862000Y-93726000D03*
D10*
X63500000Y-163830000D03*
D14*
X73660000Y-163830000D03*
D10*
X26924000Y-53314600D03*
D14*
X37084000Y-53314600D03*
D10*
X26924000Y-62738000D03*
D14*
X37084000Y-62738000D03*
D10*
X26924000Y-58115200D03*
D14*
X37084000Y-58115200D03*
D10*
X256286000Y-189230000D03*
D14*
X256286000Y-179070000D03*
D10*
X261112000Y-189484000D03*
D14*
X261112000Y-179324000D03*
D10*
X251460000Y-189230000D03*
D14*
X251460000Y-179070000D03*
D10*
X265684000Y-189484000D03*
D14*
X265684000Y-179324000D03*
D11*
X367538000Y-114046000D03*
D14*
X367538000Y-116586000D03*
X367538000Y-119126000D03*
X367538000Y-121666000D03*
X367538000Y-124206000D03*
X367538000Y-126746000D03*
D11*
X341630000Y-116586000D03*
D14*
X341630000Y-119126000D03*
X341630000Y-121666000D03*
X341630000Y-124206000D03*
X341630000Y-126746000D03*
X341630000Y-129286000D03*
D11*
X180086000Y-64516000D03*
D14*
X180086000Y-67056000D03*
X180086000Y-69596000D03*
X180086000Y-72136000D03*
X180086000Y-74676000D03*
X180086000Y-77216000D03*
D11*
X181356000Y-56642000D03*
D14*
X178816000Y-56642000D03*
X176276000Y-56642000D03*
X173736000Y-56642000D03*
X171196000Y-56642000D03*
X168656000Y-56642000D03*
D11*
X198374000Y-56642000D03*
D14*
X195834000Y-56642000D03*
X193294000Y-56642000D03*
X190754000Y-56642000D03*
X188214000Y-56642000D03*
X185674000Y-56642000D03*
D31*
X36726000Y-83892000D03*
X30226000Y-83892000D03*
X36726000Y-88392000D03*
X30226000Y-88392000D03*
X63650000Y-188396000D03*
X57150000Y-188396000D03*
X57150000Y-183896000D03*
X63650000Y-183896000D03*
D32*
X33451800Y-34925000D03*
D33*
X33451800Y-38725000D03*
X33451800Y-42525000D03*
X28651800Y-34925000D03*
X28651800Y-38725000D03*
X28651800Y-42525000D03*
X33651800Y-22225000D03*
X28451800Y-22225000D03*
D11*
X129032000Y-43688000D03*
D14*
X126492000Y-43688000D03*
X123952000Y-43688000D03*
X121412000Y-43688000D03*
X118872000Y-43688000D03*
X116332000Y-43688000D03*
X113792000Y-43688000D03*
X111252000Y-43688000D03*
X108712000Y-43688000D03*
X106172000Y-43688000D03*
X106172000Y-51308000D03*
X108712000Y-51308000D03*
X111252000Y-51308000D03*
X113792000Y-51308000D03*
X116332000Y-51308000D03*
X118872000Y-51308000D03*
X121412000Y-51308000D03*
X123952000Y-51308000D03*
X126492000Y-51308000D03*
X129032000Y-51308000D03*
D11*
X291592000Y-131064000D03*
D14*
X291592000Y-128524000D03*
X291592000Y-125984000D03*
X291592000Y-123444000D03*
X291592000Y-120904000D03*
X291592000Y-118364000D03*
X291592000Y-115824000D03*
X291592000Y-113284000D03*
X291592000Y-110744000D03*
X283972000Y-110744000D03*
X283972000Y-113284000D03*
X283972000Y-115824000D03*
X283972000Y-118364000D03*
X283972000Y-120904000D03*
X283972000Y-123444000D03*
X283972000Y-125984000D03*
X283972000Y-128524000D03*
X283972000Y-131064000D03*
D11*
X275590000Y-131064000D03*
D14*
X275590000Y-128524000D03*
X275590000Y-125984000D03*
X275590000Y-123444000D03*
X275590000Y-120904000D03*
X275590000Y-118364000D03*
X275590000Y-115824000D03*
X275590000Y-113284000D03*
X275590000Y-110744000D03*
X267970000Y-110744000D03*
X267970000Y-113284000D03*
X267970000Y-115824000D03*
X267970000Y-118364000D03*
X267970000Y-120904000D03*
X267970000Y-123444000D03*
X267970000Y-125984000D03*
X267970000Y-128524000D03*
X267970000Y-131064000D03*
D11*
X258318000Y-131064000D03*
D14*
X258318000Y-128524000D03*
X258318000Y-125984000D03*
X258318000Y-123444000D03*
X258318000Y-120904000D03*
X258318000Y-118364000D03*
X258318000Y-115824000D03*
X258318000Y-113284000D03*
X258318000Y-110744000D03*
X250698000Y-110744000D03*
X250698000Y-113284000D03*
X250698000Y-115824000D03*
X250698000Y-118364000D03*
X250698000Y-120904000D03*
X250698000Y-123444000D03*
X250698000Y-125984000D03*
X250698000Y-128524000D03*
X250698000Y-131064000D03*
D11*
X291719000Y-162560000D03*
D14*
X291719000Y-160020000D03*
X291719000Y-157480000D03*
X291719000Y-154940000D03*
X291719000Y-152400000D03*
X291719000Y-149860000D03*
X291719000Y-147320000D03*
X291719000Y-144780000D03*
X291719000Y-142240000D03*
X284099000Y-142240000D03*
X284099000Y-144780000D03*
X284099000Y-147320000D03*
X284099000Y-149860000D03*
X284099000Y-152400000D03*
X284099000Y-154940000D03*
X284099000Y-157480000D03*
X284099000Y-160020000D03*
X284099000Y-162560000D03*
D11*
X275717000Y-162560000D03*
D14*
X275717000Y-160020000D03*
X275717000Y-157480000D03*
X275717000Y-154940000D03*
X275717000Y-152400000D03*
X275717000Y-149860000D03*
X275717000Y-147320000D03*
X275717000Y-144780000D03*
X275717000Y-142240000D03*
X268097000Y-142240000D03*
X268097000Y-144780000D03*
X268097000Y-147320000D03*
X268097000Y-149860000D03*
X268097000Y-152400000D03*
X268097000Y-154940000D03*
X268097000Y-157480000D03*
X268097000Y-160020000D03*
X268097000Y-162560000D03*
D11*
X258445000Y-162560000D03*
D14*
X258445000Y-160020000D03*
X258445000Y-157480000D03*
X258445000Y-154940000D03*
X258445000Y-152400000D03*
X258445000Y-149860000D03*
X258445000Y-147320000D03*
X258445000Y-144780000D03*
X258445000Y-142240000D03*
X250825000Y-142240000D03*
X250825000Y-144780000D03*
X250825000Y-147320000D03*
X250825000Y-149860000D03*
X250825000Y-152400000D03*
X250825000Y-154940000D03*
X250825000Y-157480000D03*
X250825000Y-160020000D03*
X250825000Y-162560000D03*
D34*
X321462400Y-161194000D03*
D35*
X321462400Y-159414000D03*
X321462400Y-157634000D03*
X321462400Y-155854000D03*
X321462400Y-154074000D03*
X321462400Y-152294000D03*
X321462400Y-150514000D03*
X321462400Y-148734000D03*
X321462400Y-146954000D03*
X321462400Y-145174000D03*
X321462400Y-143394000D03*
X321462400Y-141614000D03*
X321462400Y-139834000D03*
X321462400Y-138054000D03*
X321462400Y-136274000D03*
X321462400Y-134494000D03*
X321462400Y-132714000D03*
X321462400Y-130934000D03*
X321462400Y-129154000D03*
X321462400Y-127374000D03*
X321462400Y-125594000D03*
X321462400Y-123814000D03*
X321462400Y-122034000D03*
X321462400Y-120254000D03*
X321462400Y-118474000D03*
X321462400Y-116694000D03*
X321462400Y-114914000D03*
X321462400Y-113134000D03*
X321462400Y-111354000D03*
X321462400Y-109574000D03*
X321462400Y-107794000D03*
X321462400Y-106014000D03*
X302361600Y-106014000D03*
X302361600Y-107794000D03*
X302361600Y-109574000D03*
X302361600Y-111354000D03*
X302361600Y-113134000D03*
X302361600Y-114914000D03*
X302361600Y-116694000D03*
X302361600Y-118474000D03*
X302361600Y-120254000D03*
X302361600Y-122034000D03*
X302361600Y-123814000D03*
X302361600Y-125594000D03*
X302361600Y-127374000D03*
X302361600Y-129154000D03*
X302361600Y-130934000D03*
X302361600Y-132714000D03*
X302361600Y-134494000D03*
X302361600Y-136274000D03*
X302361600Y-138054000D03*
X302361600Y-139834000D03*
X302361600Y-141614000D03*
X302361600Y-143394000D03*
X302361600Y-145174000D03*
X302361600Y-146954000D03*
X302361600Y-148734000D03*
X302361600Y-150514000D03*
X302361600Y-152294000D03*
X302361600Y-154074000D03*
X302361600Y-155854000D03*
X302361600Y-157634000D03*
X302361600Y-159414000D03*
X302361600Y-161194000D03*
D11*
X375400000Y-127500000D03*
D14*
X375400000Y-130040000D03*
X375400000Y-132580000D03*
X375400000Y-135120000D03*
X383020000Y-135120000D03*
X383020000Y-132580000D03*
X383020000Y-130040000D03*
X383020000Y-127500000D03*
D11*
X347218000Y-71501000D03*
D14*
X349758000Y-71501000D03*
X352298000Y-71501000D03*
X354838000Y-71501000D03*
X357378000Y-71501000D03*
X359918000Y-71501000D03*
X362458000Y-71501000D03*
X362458000Y-63881000D03*
X359918000Y-63881000D03*
X357378000Y-63881000D03*
X354838000Y-63881000D03*
X352298000Y-63881000D03*
X349758000Y-63881000D03*
X347218000Y-63881000D03*
D36*
X347980000Y-53926000D03*
X349250000Y-53926000D03*
X350520000Y-53926000D03*
X351790000Y-53926000D03*
X353060000Y-53926000D03*
X354330000Y-53926000D03*
X355600000Y-53926000D03*
X356870000Y-53926000D03*
X358140000Y-53926000D03*
X359410000Y-53926000D03*
X360680000Y-53926000D03*
X361950000Y-53926000D03*
X361950000Y-44626000D03*
X360680000Y-44626000D03*
X359410000Y-44626000D03*
X358140000Y-44626000D03*
X356870000Y-44626000D03*
X355600000Y-44626000D03*
X354330000Y-44626000D03*
X353060000Y-44626000D03*
X351790000Y-44626000D03*
X350520000Y-44626000D03*
X349250000Y-44626000D03*
X347980000Y-44626000D03*
D11*
X138938000Y-170180000D03*
D14*
X138938000Y-172720000D03*
X138938000Y-175260000D03*
X138938000Y-177800000D03*
X138938000Y-180340000D03*
X138938000Y-182880000D03*
X138938000Y-185420000D03*
X146558000Y-185420000D03*
X146558000Y-182880000D03*
X146558000Y-180340000D03*
X146558000Y-177800000D03*
X146558000Y-175260000D03*
X146558000Y-172720000D03*
X146558000Y-170180000D03*
D11*
X91694000Y-116078000D03*
D14*
X91694000Y-118618000D03*
X91694000Y-121158000D03*
X91694000Y-123698000D03*
X91694000Y-126238000D03*
X91694000Y-128778000D03*
X91694000Y-131318000D03*
X91694000Y-133858000D03*
X91694000Y-136398000D03*
X91694000Y-138938000D03*
X91694000Y-141478000D03*
X91694000Y-144018000D03*
X91694000Y-146558000D03*
X91694000Y-149098000D03*
X91694000Y-151638000D03*
X91694000Y-154178000D03*
X106934000Y-154178000D03*
X106934000Y-151638000D03*
X106934000Y-149098000D03*
X106934000Y-146558000D03*
X106934000Y-144018000D03*
X106934000Y-141478000D03*
X106934000Y-138938000D03*
X106934000Y-136398000D03*
X106934000Y-133858000D03*
X106934000Y-131318000D03*
X106934000Y-128778000D03*
X106934000Y-126238000D03*
X106934000Y-123698000D03*
X106934000Y-121158000D03*
X106934000Y-118618000D03*
X106934000Y-116078000D03*
D11*
X119126000Y-121158000D03*
D14*
X119126000Y-123698000D03*
X119126000Y-126238000D03*
X119126000Y-128778000D03*
X119126000Y-131318000D03*
X119126000Y-133858000D03*
X119126000Y-136398000D03*
X119126000Y-138938000D03*
X119126000Y-141478000D03*
X119126000Y-144018000D03*
X119126000Y-146558000D03*
X119126000Y-149098000D03*
X119126000Y-151638000D03*
X119126000Y-154178000D03*
X134366000Y-154178000D03*
X134366000Y-151638000D03*
X134366000Y-149098000D03*
X134366000Y-146558000D03*
X134366000Y-144018000D03*
X134366000Y-141478000D03*
X134366000Y-138938000D03*
X134366000Y-136398000D03*
X134366000Y-133858000D03*
X134366000Y-131318000D03*
X134366000Y-128778000D03*
X134366000Y-126238000D03*
X134366000Y-123698000D03*
X134366000Y-121158000D03*
D11*
X305562000Y-44069000D03*
D14*
X303022000Y-44069000D03*
X300482000Y-44069000D03*
X297942000Y-44069000D03*
X295402000Y-44069000D03*
X292862000Y-44069000D03*
X290322000Y-44069000D03*
X287782000Y-44069000D03*
X285242000Y-44069000D03*
X282702000Y-44069000D03*
X280162000Y-44069000D03*
X277622000Y-44069000D03*
X277622000Y-51689000D03*
X280162000Y-51689000D03*
X282702000Y-51689000D03*
X285242000Y-51689000D03*
X287782000Y-51689000D03*
X290322000Y-51689000D03*
X292862000Y-51689000D03*
X295402000Y-51689000D03*
X297942000Y-51689000D03*
X300482000Y-51689000D03*
X303022000Y-51689000D03*
X305562000Y-51689000D03*
D11*
X43180000Y-133350000D03*
D14*
X43180000Y-135890000D03*
X43180000Y-138430000D03*
X43180000Y-140970000D03*
X43180000Y-143510000D03*
X43180000Y-146050000D03*
X43180000Y-148590000D03*
X50800000Y-148590000D03*
X50800000Y-146050000D03*
X50800000Y-143510000D03*
X50800000Y-140970000D03*
X50800000Y-138430000D03*
X50800000Y-135890000D03*
X50800000Y-133350000D03*
D11*
X43180000Y-108204000D03*
D14*
X43180000Y-110744000D03*
X43180000Y-113284000D03*
X43180000Y-115824000D03*
X43180000Y-118364000D03*
X43180000Y-120904000D03*
X43180000Y-123444000D03*
X50800000Y-123444000D03*
X50800000Y-120904000D03*
X50800000Y-118364000D03*
X50800000Y-115824000D03*
X50800000Y-113284000D03*
X50800000Y-110744000D03*
X50800000Y-108204000D03*
D11*
X69596000Y-174498000D03*
D14*
X69596000Y-177038000D03*
X69596000Y-179578000D03*
X69596000Y-182118000D03*
X77216000Y-182118000D03*
X77216000Y-179578000D03*
X77216000Y-177038000D03*
X77216000Y-174498000D03*
D11*
X80010000Y-156718000D03*
D14*
X80010000Y-154178000D03*
X80010000Y-151638000D03*
X80010000Y-149098000D03*
X80010000Y-146558000D03*
X80010000Y-144018000D03*
X80010000Y-141478000D03*
X80010000Y-138938000D03*
X80010000Y-136398000D03*
X80010000Y-133858000D03*
X80010000Y-131318000D03*
X80010000Y-128778000D03*
X80010000Y-126238000D03*
X80010000Y-123698000D03*
X80010000Y-121158000D03*
X80010000Y-118618000D03*
X80010000Y-116078000D03*
X80010000Y-113538000D03*
X80010000Y-110998000D03*
X80010000Y-108458000D03*
X64770000Y-108458000D03*
X64770000Y-110998000D03*
X64770000Y-113538000D03*
X64770000Y-116078000D03*
X64770000Y-118618000D03*
X64770000Y-121158000D03*
X64770000Y-123698000D03*
X64770000Y-126238000D03*
X64770000Y-128778000D03*
X64770000Y-131318000D03*
X64770000Y-133858000D03*
X64770000Y-136398000D03*
X64770000Y-138938000D03*
X64770000Y-141478000D03*
X64770000Y-144018000D03*
X64770000Y-146558000D03*
X64770000Y-149098000D03*
X64770000Y-151638000D03*
X64770000Y-154178000D03*
X64770000Y-156718000D03*
D37*
X217170000Y-43434000D03*
D38*
X214630000Y-43434000D03*
X212090000Y-43434000D03*
D11*
X229870000Y-45212000D03*
D14*
X229870000Y-47752000D03*
X229870000Y-50292000D03*
X229870000Y-52832000D03*
X229870000Y-55372000D03*
X229870000Y-57912000D03*
X229870000Y-60452000D03*
X237490000Y-60452000D03*
X237490000Y-57912000D03*
X237490000Y-55372000D03*
X237490000Y-52832000D03*
X237490000Y-50292000D03*
X237490000Y-47752000D03*
X237490000Y-45212000D03*
D11*
X184658000Y-64262000D03*
D14*
X184658000Y-66802000D03*
X184658000Y-69342000D03*
X184658000Y-71882000D03*
X184658000Y-74422000D03*
X184658000Y-76962000D03*
X184658000Y-79502000D03*
X192278000Y-79502000D03*
X192278000Y-76962000D03*
X192278000Y-74422000D03*
X192278000Y-71882000D03*
X192278000Y-69342000D03*
X192278000Y-66802000D03*
X192278000Y-64262000D03*
D39*
X226060000Y-82804000D03*
D40*
X228600000Y-80264000D03*
X226060000Y-80264000D03*
X228600000Y-77724000D03*
X226060000Y-77724000D03*
X228600000Y-75184000D03*
X226060000Y-72644000D03*
X226060000Y-75184000D03*
X223520000Y-72644000D03*
X223520000Y-75184000D03*
X220980000Y-72644000D03*
X220980000Y-75184000D03*
X218440000Y-72644000D03*
X218440000Y-75184000D03*
X215900000Y-72644000D03*
X215900000Y-75184000D03*
X213360000Y-72644000D03*
X210820000Y-75184000D03*
X213360000Y-75184000D03*
X210820000Y-77724000D03*
X213360000Y-77724000D03*
X210820000Y-80264000D03*
X213360000Y-80264000D03*
X210820000Y-82804000D03*
X213360000Y-82804000D03*
X210820000Y-85344000D03*
X213360000Y-85344000D03*
X210820000Y-87884000D03*
X213360000Y-90424000D03*
X213360000Y-87884000D03*
X215900000Y-90424000D03*
X215900000Y-87884000D03*
X218440000Y-90424000D03*
X218440000Y-87884000D03*
X220980000Y-90424000D03*
X220980000Y-87884000D03*
X223520000Y-90424000D03*
X223520000Y-87884000D03*
X226060000Y-90424000D03*
X228600000Y-87884000D03*
X226060000Y-87884000D03*
X228600000Y-85344000D03*
X226060000Y-85344000D03*
X228600000Y-82804000D03*
D41*
X297243500Y-168910000D03*
X302143500Y-168910000D03*
D10*
X35306000Y-169164000D03*
D14*
X45466000Y-169164000D03*
D10*
X35306000Y-159766000D03*
D14*
X45466000Y-159766000D03*
D10*
X63500000Y-168656000D03*
D14*
X73660000Y-168656000D03*
D10*
X77216000Y-168656000D03*
D14*
X87376000Y-168656000D03*
D10*
X143978000Y-189992000D03*
X141478000Y-189992000D03*
D11*
X385191000Y-159766000D03*
D10*
X385191000Y-162266000D03*
D42*
X348996000Y-179832000D03*
D43*
X347726000Y-181102000D03*
X346456000Y-179832000D03*
D42*
X346456000Y-172466000D03*
D43*
X347726000Y-171196000D03*
X348996000Y-172466000D03*
D10*
X353822000Y-171196000D03*
D14*
X353822000Y-181356000D03*
D10*
X358400000Y-171220000D03*
D14*
X358400000Y-181380000D03*
D11*
X354838000Y-167132000D03*
D14*
X362458000Y-167132000D03*
D11*
X157988000Y-43688000D03*
D14*
X155448000Y-43688000D03*
X152908000Y-43688000D03*
X150368000Y-43688000D03*
X147828000Y-43688000D03*
X145288000Y-43688000D03*
X142748000Y-43688000D03*
X140208000Y-43688000D03*
X137668000Y-43688000D03*
X135128000Y-43688000D03*
X135128000Y-51308000D03*
X137668000Y-51308000D03*
X140208000Y-51308000D03*
X142748000Y-51308000D03*
X145288000Y-51308000D03*
X147828000Y-51308000D03*
X150368000Y-51308000D03*
X152908000Y-51308000D03*
X155448000Y-51308000D03*
X157988000Y-51308000D03*
D44*
X370840000Y-182118000D03*
D45*
X391330000Y-182118000D03*
D10*
X328676000Y-154114500D03*
D14*
X328676000Y-143954500D03*
D16*
X211074000Y-150114000D03*
D17*
X208534000Y-150114000D03*
X205994000Y-150114000D03*
X203454000Y-150114000D03*
X200914000Y-150114000D03*
X198374000Y-150114000D03*
X195834000Y-150114000D03*
X193294000Y-150114000D03*
X190754000Y-150114000D03*
X188214000Y-150114000D03*
X185674000Y-150114000D03*
X183134000Y-150114000D03*
X180594000Y-150114000D03*
X178054000Y-150114000D03*
X175514000Y-150114000D03*
X172974000Y-150114000D03*
X170434000Y-150114000D03*
X167894000Y-150114000D03*
X165354000Y-150114000D03*
X162814000Y-150114000D03*
D10*
X201676000Y-189484000D03*
D14*
X211836000Y-189484000D03*
D11*
X180594000Y-157988000D03*
D14*
X183134000Y-157988000D03*
X185674000Y-157988000D03*
X188214000Y-157988000D03*
X190754000Y-157988000D03*
X193294000Y-157988000D03*
X195834000Y-157988000D03*
X198374000Y-157988000D03*
X200914000Y-157988000D03*
D11*
X180594000Y-184150000D03*
D14*
X183134000Y-184150000D03*
X185674000Y-184150000D03*
X188214000Y-184150000D03*
X190754000Y-184150000D03*
X193294000Y-184150000D03*
X195834000Y-184150000D03*
X198374000Y-184150000D03*
X200914000Y-184150000D03*
X203454000Y-184150000D03*
X205994000Y-184150000D03*
X208534000Y-184150000D03*
X211074000Y-184150000D03*
X213614000Y-184150000D03*
X216154000Y-184150000D03*
X218694000Y-184150000D03*
X221234000Y-184150000D03*
X223774000Y-184150000D03*
X226314000Y-184150000D03*
X228854000Y-184150000D03*
X228854000Y-168910000D03*
X226314000Y-168910000D03*
X223774000Y-168910000D03*
X221234000Y-168910000D03*
X218694000Y-168910000D03*
X216154000Y-168910000D03*
X213614000Y-168910000D03*
X211074000Y-168910000D03*
X208534000Y-168910000D03*
X205994000Y-168910000D03*
X203454000Y-168910000D03*
X200914000Y-168910000D03*
X198374000Y-168910000D03*
X195834000Y-168910000D03*
X193294000Y-168910000D03*
X190754000Y-168910000D03*
X188214000Y-168910000D03*
X185674000Y-168910000D03*
X183134000Y-168910000D03*
X180594000Y-168910000D03*
D41*
X227912000Y-190246000D03*
X223012000Y-190246000D03*
D10*
X233680000Y-189016000D03*
X233680000Y-191516000D03*
X217170000Y-191516000D03*
X217170000Y-189016000D03*
X232664000Y-169164000D03*
X232664000Y-171664000D03*
X362900000Y-171196000D03*
D14*
X362900000Y-181356000D03*
D11*
X91186000Y-63500000D03*
D14*
X91186000Y-66040000D03*
X91186000Y-68580000D03*
X91186000Y-71120000D03*
X91186000Y-73660000D03*
X91186000Y-76200000D03*
X91186000Y-78740000D03*
X98806000Y-78740000D03*
X98806000Y-76200000D03*
X98806000Y-73660000D03*
X98806000Y-71120000D03*
X98806000Y-68580000D03*
X98806000Y-66040000D03*
X98806000Y-63500000D03*
D11*
X146050000Y-92964000D03*
D14*
X146050000Y-95504000D03*
X146050000Y-98044000D03*
X146050000Y-100584000D03*
X146050000Y-103124000D03*
X146050000Y-105664000D03*
X146050000Y-108204000D03*
X146050000Y-110744000D03*
X146050000Y-113284000D03*
X146050000Y-115824000D03*
X153670000Y-115824000D03*
X153670000Y-113284000D03*
X153670000Y-110744000D03*
X153670000Y-108204000D03*
X153670000Y-105664000D03*
X153670000Y-103124000D03*
X153670000Y-100584000D03*
X153670000Y-98044000D03*
X153670000Y-95504000D03*
X153670000Y-92964000D03*
D11*
X331470000Y-170434000D03*
D14*
X331470000Y-172974000D03*
X331470000Y-175514000D03*
X331470000Y-178054000D03*
X331470000Y-180594000D03*
X331470000Y-183134000D03*
X331470000Y-185674000D03*
X331470000Y-188214000D03*
X331470000Y-190754000D03*
X339090000Y-190754000D03*
X339090000Y-188214000D03*
X339090000Y-185674000D03*
X339090000Y-183134000D03*
X339090000Y-180594000D03*
X339090000Y-178054000D03*
X339090000Y-175514000D03*
X339090000Y-172974000D03*
X339090000Y-170434000D03*
D10*
X336804000Y-194310000D03*
X334304000Y-194310000D03*
X343408000Y-188254000D03*
X343408000Y-190754000D03*
D11*
X357545000Y-160782000D03*
D10*
X360045000Y-160782000D03*
X167640000Y-119634000D03*
X165140000Y-119634000D03*
X140208000Y-66080000D03*
X140208000Y-68580000D03*
X87630000Y-103124000D03*
X87630000Y-100624000D03*
X174244000Y-119634000D03*
X171744000Y-119634000D03*
D41*
X37338000Y-118872000D03*
X37338000Y-113972000D03*
D10*
X31242000Y-111252000D03*
D14*
X31242000Y-121412000D03*
D10*
X38568000Y-124714000D03*
X36068000Y-124714000D03*
X80010000Y-160528000D03*
X77510000Y-160528000D03*
X70866000Y-186944000D03*
X68366000Y-186944000D03*
D41*
X279717500Y-81597500D03*
X279717500Y-86497500D03*
D10*
X86106000Y-67016000D03*
X86106000Y-64516000D03*
X157988000Y-189992000D03*
X155488000Y-189992000D03*
D11*
X152400000Y-170180000D03*
D14*
X152400000Y-172720000D03*
X152400000Y-175260000D03*
X152400000Y-177800000D03*
X152400000Y-180340000D03*
X152400000Y-182880000D03*
X152400000Y-185420000D03*
X160020000Y-185420000D03*
X160020000Y-182880000D03*
X160020000Y-180340000D03*
X160020000Y-177800000D03*
X160020000Y-175260000D03*
X160020000Y-172720000D03*
X160020000Y-170180000D03*
D11*
X124460000Y-170180000D03*
D14*
X124460000Y-172720000D03*
X124460000Y-175260000D03*
X124460000Y-177800000D03*
X124460000Y-180340000D03*
X124460000Y-182880000D03*
X124460000Y-185420000D03*
X132080000Y-185420000D03*
X132080000Y-182880000D03*
X132080000Y-180340000D03*
X132080000Y-177800000D03*
X132080000Y-175260000D03*
X132080000Y-172720000D03*
X132080000Y-170180000D03*
D10*
X129754000Y-189992000D03*
X127254000Y-189992000D03*
D12*
X44196000Y-187960000D03*
D13*
X44196000Y-185420000D03*
D12*
X35052000Y-187960000D03*
D13*
X35052000Y-185420000D03*
D10*
X45466000Y-173736000D03*
D14*
X35306000Y-173736000D03*
D10*
X45466000Y-178562000D03*
D14*
X35306000Y-178562000D03*
D11*
X67945000Y-60198000D03*
D10*
X70445000Y-60198000D03*
X189698000Y-83566000D03*
X187198000Y-83566000D03*
D16*
X197358000Y-64262000D03*
D17*
X197358000Y-66802000D03*
X197358000Y-69342000D03*
X197358000Y-71882000D03*
X197358000Y-74422000D03*
X197358000Y-76962000D03*
D11*
X229108000Y-136398000D03*
D14*
X226568000Y-136398000D03*
X224028000Y-136398000D03*
X221488000Y-136398000D03*
X218948000Y-136398000D03*
X216408000Y-136398000D03*
X213868000Y-136398000D03*
X211328000Y-136398000D03*
X208788000Y-136398000D03*
X206248000Y-136398000D03*
X203708000Y-136398000D03*
X201168000Y-136398000D03*
X198628000Y-136398000D03*
X196088000Y-136398000D03*
X196088000Y-144018000D03*
X198628000Y-144018000D03*
X201168000Y-144018000D03*
X203708000Y-144018000D03*
X206248000Y-144018000D03*
X208788000Y-144018000D03*
X211328000Y-144018000D03*
X213868000Y-144018000D03*
X216408000Y-144018000D03*
X218948000Y-144018000D03*
X221488000Y-144018000D03*
X224028000Y-144018000D03*
X226568000Y-144018000D03*
X229108000Y-144018000D03*
D11*
X213868000Y-121666000D03*
D14*
X211328000Y-121666000D03*
X208788000Y-121666000D03*
X206248000Y-121666000D03*
X203708000Y-121666000D03*
X201168000Y-121666000D03*
X198628000Y-121666000D03*
X196088000Y-121666000D03*
X193548000Y-121666000D03*
X191008000Y-121666000D03*
X191008000Y-129286000D03*
X193548000Y-129286000D03*
X196088000Y-129286000D03*
X198628000Y-129286000D03*
X201168000Y-129286000D03*
X203708000Y-129286000D03*
X206248000Y-129286000D03*
X208788000Y-129286000D03*
X211328000Y-129286000D03*
X213868000Y-129286000D03*
D10*
X226608000Y-132334000D03*
X229108000Y-132334000D03*
D16*
X276606000Y-173990000D03*
D17*
X279146000Y-173990000D03*
D10*
X270510000Y-189484000D03*
D14*
X270510000Y-179324000D03*
D10*
X275336000Y-189484000D03*
D14*
X275336000Y-179324000D03*
D16*
X267716000Y-173990000D03*
D17*
X270256000Y-173990000D03*
D46*
X77724000Y-25400000D03*
D47*
X80264000Y-25400000D03*
X82804000Y-25400000D03*
X85344000Y-25400000D03*
X87884000Y-25400000D03*
X90424000Y-25400000D03*
X92964000Y-25400000D03*
X95504000Y-25400000D03*
X98044000Y-25400000D03*
X100584000Y-25400000D03*
X103124000Y-25400000D03*
X105664000Y-25400000D03*
X108204000Y-25400000D03*
X110744000Y-25400000D03*
X113284000Y-25400000D03*
X115824000Y-25400000D03*
X118364000Y-25400000D03*
X120904000Y-25400000D03*
X123444000Y-25400000D03*
X125984000Y-25400000D03*
X128524000Y-25400000D03*
X131064000Y-25400000D03*
X133604000Y-25400000D03*
X136144000Y-25400000D03*
X138684000Y-25400000D03*
X141224000Y-25400000D03*
X143764000Y-25400000D03*
X146304000Y-25400000D03*
X148844000Y-25400000D03*
X151384000Y-25400000D03*
X153924000Y-25400000D03*
X156464000Y-25400000D03*
X77724000Y-30480000D03*
X80264000Y-30480000D03*
X82804000Y-30480000D03*
X85344000Y-30480000D03*
X87884000Y-30480000D03*
X90424000Y-30480000D03*
X92964000Y-30480000D03*
X95504000Y-30480000D03*
X98044000Y-30480000D03*
X100584000Y-30480000D03*
X103124000Y-30480000D03*
X105664000Y-30480000D03*
X108204000Y-30480000D03*
X110744000Y-30480000D03*
X113284000Y-30480000D03*
X115824000Y-30480000D03*
X118364000Y-30480000D03*
X120904000Y-30480000D03*
X123444000Y-30480000D03*
X125984000Y-30480000D03*
X128524000Y-30480000D03*
X131064000Y-30480000D03*
X133604000Y-30480000D03*
X136144000Y-30480000D03*
X138684000Y-30480000D03*
X141224000Y-30480000D03*
X143764000Y-30480000D03*
X146304000Y-30480000D03*
X148844000Y-30480000D03*
X151384000Y-30480000D03*
X153924000Y-30480000D03*
X156464000Y-30480000D03*
D16*
X33020000Y-73152000D03*
D17*
X30480000Y-73152000D03*
D10*
X26924000Y-67564000D03*
D14*
X37084000Y-67564000D03*
D12*
X245477000Y-47752000D03*
D13*
X248017000Y-47752000D03*
D10*
X260858000Y-46990000D03*
D14*
X271018000Y-46990000D03*
D10*
X305562000Y-55118000D03*
X303062000Y-55118000D03*
X325628000Y-158750000D03*
X325628000Y-161250000D03*
X127508000Y-158750000D03*
X125008000Y-158750000D03*
D11*
X346964000Y-91186000D03*
D14*
X346964000Y-93726000D03*
X346964000Y-96266000D03*
X346964000Y-98806000D03*
X346964000Y-101346000D03*
X346964000Y-103886000D03*
X346964000Y-106426000D03*
X346964000Y-108966000D03*
X346964000Y-111506000D03*
X346964000Y-114046000D03*
X346964000Y-116586000D03*
X346964000Y-119126000D03*
X346964000Y-121666000D03*
X346964000Y-124206000D03*
X346964000Y-126746000D03*
X346964000Y-129286000D03*
X346964000Y-131826000D03*
X346964000Y-134366000D03*
X346964000Y-136906000D03*
X346964000Y-139446000D03*
X362204000Y-139446000D03*
X362204000Y-136906000D03*
X362204000Y-134366000D03*
X362204000Y-131826000D03*
X362204000Y-129286000D03*
X362204000Y-126746000D03*
X362204000Y-124206000D03*
X362204000Y-121666000D03*
X362204000Y-119126000D03*
X362204000Y-116586000D03*
X362204000Y-114046000D03*
X362204000Y-111506000D03*
X362204000Y-108966000D03*
X362204000Y-106426000D03*
X362204000Y-103886000D03*
X362204000Y-101346000D03*
X362204000Y-98806000D03*
X362204000Y-96266000D03*
X362204000Y-93726000D03*
X362204000Y-91186000D03*
D11*
X164592000Y-126238000D03*
D14*
X164592000Y-128778000D03*
X164592000Y-131318000D03*
X164592000Y-133858000D03*
X164592000Y-136398000D03*
X164592000Y-138938000D03*
X164592000Y-141478000D03*
X164592000Y-144018000D03*
X172212000Y-144018000D03*
X172212000Y-141478000D03*
X172212000Y-138938000D03*
X172212000Y-136398000D03*
X172212000Y-133858000D03*
X172212000Y-131318000D03*
X172212000Y-128778000D03*
X172212000Y-126238000D03*
D11*
X146050000Y-126238000D03*
D14*
X146050000Y-128778000D03*
X146050000Y-131318000D03*
X146050000Y-133858000D03*
X146050000Y-136398000D03*
X146050000Y-138938000D03*
X146050000Y-141478000D03*
X146050000Y-144018000D03*
X153670000Y-144018000D03*
X153670000Y-141478000D03*
X153670000Y-138938000D03*
X153670000Y-136398000D03*
X153670000Y-133858000D03*
X153670000Y-131318000D03*
X153670000Y-128778000D03*
X153670000Y-126238000D03*
D42*
X252984000Y-47244000D03*
D43*
X254254000Y-45974000D03*
X255524000Y-47244000D03*
D42*
X255524000Y-38608000D03*
D43*
X254254000Y-39878000D03*
X252984000Y-38608000D03*
D12*
X245477000Y-38608000D03*
D13*
X248017000Y-38608000D03*
D41*
X356997000Y-77851000D03*
X352097000Y-77851000D03*
D10*
X219964000Y-129286000D03*
X217464000Y-129286000D03*
D11*
X96266000Y-162560000D03*
D14*
X96266000Y-165100000D03*
X96266000Y-167640000D03*
X96266000Y-170180000D03*
X96266000Y-172720000D03*
X96266000Y-175260000D03*
X96266000Y-177800000D03*
X96266000Y-180340000D03*
X96266000Y-182880000D03*
X96266000Y-185420000D03*
X103886000Y-185420000D03*
X103886000Y-182880000D03*
X103886000Y-180340000D03*
X103886000Y-177800000D03*
X103886000Y-175260000D03*
X103886000Y-172720000D03*
X103886000Y-170180000D03*
X103886000Y-167640000D03*
X103886000Y-165100000D03*
X103886000Y-162560000D03*
D11*
X283972000Y-38354000D03*
D10*
X286472000Y-38354000D03*
X161798000Y-40934000D03*
X161798000Y-43434000D03*
D48*
X367966000Y-24400000D03*
D49*
X362966000Y-29400000D03*
X372966000Y-29400000D03*
D10*
X366776000Y-66421000D03*
X366776000Y-68921000D03*
D11*
X381254000Y-105918000D03*
D14*
X381254000Y-108458000D03*
X381254000Y-110998000D03*
X381254000Y-113538000D03*
X388874000Y-113538000D03*
X388874000Y-110998000D03*
X388874000Y-108458000D03*
X388874000Y-105918000D03*
D10*
X377190000Y-108458000D03*
X377190000Y-105958000D03*
D11*
X224536000Y-45212000D03*
D14*
X224536000Y-47752000D03*
X224536000Y-50292000D03*
X224536000Y-52832000D03*
X224536000Y-55372000D03*
X224536000Y-57912000D03*
D11*
X110236000Y-170180000D03*
D14*
X110236000Y-172720000D03*
X110236000Y-175260000D03*
X110236000Y-177800000D03*
X110236000Y-180340000D03*
X110236000Y-182880000D03*
X110236000Y-185420000D03*
X117856000Y-185420000D03*
X117856000Y-182880000D03*
X117856000Y-180340000D03*
X117856000Y-177800000D03*
X117856000Y-175260000D03*
X117856000Y-172720000D03*
X117856000Y-170180000D03*
D11*
X72390000Y-97790000D03*
D14*
X72390000Y-95250000D03*
X72390000Y-92710000D03*
X72390000Y-90170000D03*
X72390000Y-87630000D03*
X72390000Y-85090000D03*
X72390000Y-82550000D03*
X72390000Y-80010000D03*
X72390000Y-77470000D03*
X72390000Y-74930000D03*
X64770000Y-74930000D03*
X64770000Y-77470000D03*
X64770000Y-80010000D03*
X64770000Y-82550000D03*
X64770000Y-85090000D03*
X64770000Y-87630000D03*
X64770000Y-90170000D03*
X64770000Y-92710000D03*
X64770000Y-95250000D03*
X64770000Y-97790000D03*
D11*
X164592000Y-92964000D03*
D14*
X164592000Y-95504000D03*
X164592000Y-98044000D03*
X164592000Y-100584000D03*
X164592000Y-103124000D03*
X164592000Y-105664000D03*
X164592000Y-108204000D03*
X164592000Y-110744000D03*
X164592000Y-113284000D03*
X164592000Y-115824000D03*
X172212000Y-115824000D03*
X172212000Y-113284000D03*
X172212000Y-110744000D03*
X172212000Y-108204000D03*
X172212000Y-105664000D03*
X172212000Y-103124000D03*
X172212000Y-100584000D03*
X172212000Y-98044000D03*
X172212000Y-95504000D03*
X172212000Y-92964000D03*
D11*
X146050000Y-66040000D03*
D14*
X146050000Y-68580000D03*
X146050000Y-71120000D03*
X146050000Y-73660000D03*
X146050000Y-76200000D03*
X146050000Y-78740000D03*
X146050000Y-81280000D03*
X146050000Y-83820000D03*
X153670000Y-83820000D03*
X153670000Y-81280000D03*
X153670000Y-78740000D03*
X153670000Y-76200000D03*
X153670000Y-73660000D03*
X153670000Y-71120000D03*
X153670000Y-68580000D03*
X153670000Y-66040000D03*
D39*
X264414000Y-75184000D03*
D40*
X261874000Y-72644000D03*
X261874000Y-75184000D03*
X259334000Y-72644000D03*
X259334000Y-75184000D03*
X256794000Y-72644000D03*
X254254000Y-75184000D03*
X256794000Y-75184000D03*
X254254000Y-77724000D03*
X256794000Y-77724000D03*
X254254000Y-80264000D03*
X256794000Y-80264000D03*
X254254000Y-82804000D03*
X256794000Y-82804000D03*
X254254000Y-85344000D03*
X256794000Y-85344000D03*
X254254000Y-87884000D03*
X256794000Y-90424000D03*
X256794000Y-87884000D03*
X259334000Y-90424000D03*
X259334000Y-87884000D03*
X261874000Y-90424000D03*
X261874000Y-87884000D03*
X264414000Y-90424000D03*
X264414000Y-87884000D03*
X266954000Y-90424000D03*
X266954000Y-87884000D03*
X269494000Y-90424000D03*
X272034000Y-87884000D03*
X269494000Y-87884000D03*
X272034000Y-85344000D03*
X269494000Y-85344000D03*
X272034000Y-82804000D03*
X269494000Y-82804000D03*
X272034000Y-80264000D03*
X269494000Y-80264000D03*
X272034000Y-77724000D03*
X269494000Y-77724000D03*
X272034000Y-75184000D03*
X269494000Y-72644000D03*
X269494000Y-75184000D03*
X266954000Y-72644000D03*
X266954000Y-75184000D03*
X264414000Y-72644000D03*
D10*
X221528000Y-67056000D03*
X224028000Y-67056000D03*
D12*
X281686000Y-189928500D03*
D13*
X284226000Y-189928500D03*
D11*
X111506000Y-92964000D03*
D14*
X111506000Y-95504000D03*
X111506000Y-98044000D03*
X111506000Y-100584000D03*
X111506000Y-103124000D03*
X111506000Y-105664000D03*
X111506000Y-108204000D03*
X119126000Y-108204000D03*
X119126000Y-105664000D03*
X119126000Y-103124000D03*
X119126000Y-100584000D03*
X119126000Y-98044000D03*
X119126000Y-95504000D03*
X119126000Y-92964000D03*
D10*
X108204000Y-108164000D03*
X108204000Y-105664000D03*
X157480000Y-66040000D03*
X157480000Y-68540000D03*
D11*
X86106000Y-73660000D03*
D14*
X86106000Y-76200000D03*
X86106000Y-78740000D03*
X86106000Y-81280000D03*
X86106000Y-83820000D03*
X86106000Y-86360000D03*
X86106000Y-88900000D03*
X86106000Y-91440000D03*
X86106000Y-93980000D03*
D50*
X346456000Y-24130000D03*
D51*
X346456000Y-28630000D03*
D11*
X91186000Y-83820000D03*
D14*
X91186000Y-86360000D03*
X91186000Y-88900000D03*
X91186000Y-91440000D03*
X91186000Y-93980000D03*
X91186000Y-96520000D03*
X91186000Y-99060000D03*
X98806000Y-99060000D03*
X98806000Y-96520000D03*
X98806000Y-93980000D03*
X98806000Y-91440000D03*
X98806000Y-88900000D03*
X98806000Y-86360000D03*
X98806000Y-83820000D03*
D11*
X111252000Y-68580000D03*
D14*
X111252000Y-71120000D03*
X111252000Y-73660000D03*
X111252000Y-76200000D03*
X111252000Y-78740000D03*
X111252000Y-81280000D03*
X111252000Y-83820000D03*
X118872000Y-83820000D03*
X118872000Y-81280000D03*
X118872000Y-78740000D03*
X118872000Y-76200000D03*
X118872000Y-73660000D03*
X118872000Y-71120000D03*
X118872000Y-68580000D03*
D11*
X129032000Y-66040000D03*
D14*
X129032000Y-68580000D03*
X129032000Y-71120000D03*
X129032000Y-73660000D03*
X129032000Y-76200000D03*
X129032000Y-78740000D03*
X129032000Y-81280000D03*
X129032000Y-83820000D03*
X136652000Y-83820000D03*
X136652000Y-81280000D03*
X136652000Y-78740000D03*
X136652000Y-76200000D03*
X136652000Y-73660000D03*
X136652000Y-71120000D03*
X136652000Y-68580000D03*
X136652000Y-66040000D03*
D11*
X167894000Y-32766000D03*
D10*
X170394000Y-32766000D03*
D11*
X164592000Y-68580000D03*
D14*
X164592000Y-71120000D03*
X164592000Y-73660000D03*
X164592000Y-76200000D03*
X164592000Y-78740000D03*
X164592000Y-81280000D03*
X164592000Y-83820000D03*
X164592000Y-86360000D03*
X172212000Y-86360000D03*
X172212000Y-83820000D03*
X172212000Y-81280000D03*
X172212000Y-78740000D03*
X172212000Y-76200000D03*
X172212000Y-73660000D03*
X172212000Y-71120000D03*
X172212000Y-68580000D03*
D52*
X328803000Y-28702000D03*
D53*
X326203000Y-28702000D03*
X330853000Y-28702000D03*
X328803000Y-31192000D03*
X324153000Y-28702000D03*
X330853000Y-31192000D03*
X326693000Y-31192000D03*
X324153000Y-31192000D03*
D54*
X320743000Y-25702000D03*
X327503000Y-24892000D03*
X334263000Y-25702000D03*
D10*
X145796000Y-119888000D03*
X143296000Y-119888000D03*
X389890000Y-38400000D03*
D14*
X379730000Y-38400000D03*
D10*
X389890000Y-33528000D03*
D14*
X379730000Y-33528000D03*
D55*
X399298000Y-136069000D03*
X396758000Y-130989000D03*
X394218000Y-136069000D03*
D11*
X394970000Y-107885113D03*
D10*
X394970000Y-105385113D03*
X400050000Y-119634000D03*
D14*
X389890000Y-119634000D03*
D56*
X347980000Y-51816000D03*
X194056000Y-43180000D03*
X355600000Y-56388000D03*
X347980000Y-42418000D03*
X202946000Y-26162000D03*
X354330000Y-42418000D03*
X361950000Y-56388000D03*
X324993000Y-68326000D03*
X324993000Y-122047000D03*
X326263000Y-123825000D03*
X326263000Y-73025000D03*
X323850000Y-120269000D03*
X323850000Y-77724000D03*
X372618000Y-50546000D03*
X337820000Y-34036000D03*
X324104000Y-34036000D03*
X343916000Y-36068000D03*
X315214000Y-36068000D03*
X181356000Y-36576000D03*
X189230000Y-36576014D03*
X181356000Y-27940000D03*
X189230000Y-43434000D03*
X340868000Y-34036000D03*
X340868000Y-22860000D03*
X339090000Y-28702000D03*
X176784000Y-153670000D03*
X176784000Y-184150000D03*
X162814000Y-153670000D03*
X165354000Y-161798000D03*
X184658000Y-161798000D03*
X167894000Y-160782000D03*
X186944000Y-160782000D03*
X170434000Y-175514000D03*
X188214000Y-175514000D03*
X190754000Y-174244000D03*
X173228000Y-174244000D03*
X175514000Y-173228000D03*
X193294000Y-173228000D03*
X178054000Y-172212000D03*
X195834000Y-172212000D03*
X198374006Y-171196000D03*
X181864000Y-171196006D03*
X207264000Y-179324000D03*
X216154000Y-179324000D03*
X37338000Y-110744000D03*
X46990000Y-133350000D03*
X72898000Y-42672000D03*
X92964000Y-42672000D03*
X66802000Y-91440000D03*
X45212000Y-91440000D03*
X46990000Y-146050000D03*
X263144000Y-85344000D03*
X90424000Y-43942000D03*
X200914000Y-173736000D03*
X32766000Y-181356000D03*
X28702000Y-104394000D03*
X78740000Y-43942000D03*
X48514000Y-104394000D03*
X78740000Y-93980000D03*
X263144000Y-173736000D03*
X48514006Y-93980001D03*
X66040000Y-170688000D03*
X86614000Y-49276000D03*
X65278006Y-49276000D03*
X54102000Y-129540000D03*
X54356000Y-156718000D03*
X46228000Y-129540000D03*
X52578000Y-63246000D03*
X65278000Y-63246000D03*
X366268000Y-147066000D03*
X240538002Y-170942000D03*
X336042000Y-178054000D03*
X240538000Y-165354000D03*
X311404000Y-146939000D03*
X68580000Y-114808000D03*
X73914000Y-41148000D03*
X311404000Y-175895000D03*
X87884000Y-41148000D03*
X238506000Y-91948000D03*
X366268000Y-131826000D03*
X241808000Y-57912000D03*
X68580000Y-162560016D03*
X335930000Y-146954000D03*
X68580000Y-149098000D03*
X169926000Y-133858000D03*
X169926003Y-90677997D03*
X201168000Y-91694000D03*
X201168000Y-68072000D03*
X131064000Y-28448000D03*
X333502000Y-86360000D03*
X284480000Y-86360000D03*
X333502000Y-102616000D03*
X172466000Y-30226000D03*
X259334000Y-68579994D03*
X284480000Y-68580000D03*
X333502000Y-188214000D03*
X168148000Y-123698000D03*
X285496000Y-67564000D03*
X337058000Y-87376000D03*
X260604000Y-67564000D03*
X168148000Y-131318000D03*
X212090000Y-65024000D03*
X337058000Y-190754000D03*
X130810000Y-67310000D03*
X105156000Y-66040000D03*
X181864000Y-85598000D03*
X181864000Y-123698000D03*
X285496000Y-87376000D03*
X337058000Y-105156000D03*
X105156000Y-123698000D03*
X178054000Y-73406000D03*
X126746000Y-36068000D03*
X177546000Y-47244000D03*
X199898000Y-79502000D03*
X199898000Y-71882000D03*
X165608000Y-65532000D03*
X165608000Y-29210000D03*
X199898000Y-65532000D03*
X73660000Y-177038000D03*
X73406000Y-184404000D03*
X210820000Y-69342000D03*
X161036000Y-49276000D03*
X161036000Y-66548000D03*
X117602000Y-49022000D03*
X219456000Y-38354000D03*
X117094000Y-33782000D03*
X383540000Y-108458000D03*
X114554000Y-34798000D03*
X219710000Y-41148000D03*
X159004000Y-56388000D03*
X107442000Y-56388000D03*
X159004000Y-78740000D03*
X356870000Y-145542000D03*
X356616000Y-134366000D03*
X354838000Y-136906000D03*
X354838000Y-154686000D03*
X83058000Y-108204000D03*
X83058000Y-34544000D03*
X250698000Y-85344000D03*
X250698000Y-105410000D03*
X89154000Y-34544000D03*
X83058000Y-77470000D03*
X189484000Y-105410000D03*
X191008000Y-140970000D03*
X209042000Y-105410000D03*
X206248000Y-140970000D03*
X258064000Y-103886000D03*
X314198000Y-103886000D03*
X314198000Y-107696000D03*
X203708000Y-139954000D03*
X192278000Y-103886000D03*
X91694000Y-33274000D03*
X213360000Y-103886000D03*
X84074000Y-107188000D03*
X84074000Y-33274000D03*
X193548000Y-139954000D03*
X84074000Y-80010000D03*
X353060000Y-164084000D03*
X353060000Y-139446000D03*
X94234000Y-38608000D03*
X201168000Y-138938000D03*
X197358000Y-138938000D03*
X74930000Y-38608000D03*
X70612000Y-106172000D03*
X194818000Y-102616000D03*
X248920000Y-84074000D03*
X305435000Y-102616000D03*
X210820000Y-102616000D03*
X74770886Y-82709114D03*
X248920000Y-102616000D03*
X305435000Y-109601000D03*
X100584000Y-32512000D03*
X93472000Y-96520000D03*
X109474000Y-32512000D03*
X93472000Y-92710000D03*
X306451000Y-101346000D03*
X69342000Y-85090000D03*
X69342000Y-105156000D03*
X306451000Y-111379000D03*
X215900000Y-101346000D03*
X96774000Y-37592000D03*
X77724000Y-37592000D03*
X77724000Y-85090000D03*
X197358000Y-101346000D03*
X259334000Y-101346000D03*
X378956000Y-130040000D03*
X378956000Y-114820000D03*
X214630000Y-100076000D03*
X247650000Y-100076000D03*
X312928000Y-189484000D03*
X307467000Y-113157000D03*
X76708000Y-87630000D03*
X99314000Y-35560000D03*
X247650000Y-82804000D03*
X76708000Y-103632000D03*
X76708000Y-35560000D03*
X307467000Y-98806000D03*
X199898000Y-100076000D03*
X260604000Y-98806000D03*
X75692000Y-36576000D03*
X217170000Y-98806000D03*
X75692000Y-90170000D03*
X308356000Y-96266000D03*
X75692000Y-101854020D03*
X101854000Y-36576000D03*
X202438000Y-98806000D03*
X314198000Y-186944000D03*
X308356000Y-114935000D03*
X334518000Y-178054000D03*
X166624000Y-90678000D03*
X312420006Y-88646000D03*
X166624000Y-95504000D03*
X353822000Y-110236000D03*
X286766000Y-95250000D03*
X286765996Y-88646000D03*
X146050000Y-122428000D03*
X155702000Y-122428000D03*
X334670000Y-111354000D03*
X286766000Y-72644000D03*
X353822000Y-98806000D03*
X243078000Y-95250000D03*
X155702000Y-90678000D03*
X243078000Y-85344000D03*
X312420000Y-111379000D03*
X246380000Y-81534000D03*
X220980000Y-97536000D03*
X309372000Y-93726000D03*
X74676000Y-97790000D03*
X309372000Y-116713000D03*
X315468000Y-184404000D03*
X204978000Y-97536000D03*
X95503994Y-97790000D03*
X74676000Y-92710000D03*
X246380000Y-97536000D03*
X100838000Y-95250000D03*
X219710000Y-96266000D03*
X207518000Y-96266000D03*
X261874000Y-96266000D03*
X310515000Y-92582996D03*
X316738012Y-181864000D03*
X310515000Y-118491000D03*
X215900000Y-66802000D03*
X239776000Y-60452000D03*
X239776000Y-56642000D03*
X226822000Y-55880000D03*
X228092000Y-52832000D03*
X234950000Y-52832000D03*
X227330000Y-57912000D03*
X227838000Y-47752000D03*
X195834000Y-61214000D03*
X191770000Y-61214000D03*
X195326000Y-42164000D03*
X190754000Y-40132000D03*
X196596000Y-43180000D03*
X196596000Y-40132000D03*
X174752000Y-75946000D03*
X173736000Y-42164000D03*
X176276000Y-43180000D03*
X176276000Y-70866000D03*
X193294000Y-47386010D03*
X178816000Y-47244000D03*
X318770000Y-152273000D03*
X318770000Y-84582000D03*
X273812000Y-46990000D03*
X292862000Y-46990000D03*
X275082000Y-90424000D03*
X275082000Y-49530000D03*
X295402000Y-49276000D03*
X70612000Y-165862000D03*
X70612000Y-130048000D03*
X70612000Y-151638000D03*
X103886000Y-136144000D03*
X114808000Y-59944000D03*
X103886000Y-59944000D03*
X114808000Y-73660000D03*
X36068000Y-153670000D03*
X33782000Y-88392000D03*
X63246000Y-62230000D03*
X69342000Y-34798000D03*
X40132000Y-62230000D03*
X230378000Y-73406000D03*
X256286000Y-182880000D03*
X237744000Y-182880000D03*
X231394000Y-71120000D03*
X239014000Y-179070000D03*
X318008000Y-170180000D03*
X94488000Y-88900000D03*
X198628000Y-109220000D03*
X198628000Y-90678000D03*
X228854000Y-109220000D03*
X236474000Y-167894000D03*
X94488000Y-82296000D03*
X315468000Y-118491000D03*
X214630000Y-70612000D03*
X349758000Y-167132000D03*
X276352000Y-81534000D03*
X276352000Y-85344000D03*
X67056000Y-104394000D03*
X180848000Y-88392000D03*
X85344000Y-39878000D03*
X95504000Y-39878000D03*
X159512000Y-131318000D03*
X159512000Y-161544000D03*
X53340000Y-138430000D03*
X359410000Y-96266000D03*
X85344000Y-58420000D03*
X180848000Y-114554000D03*
X180848000Y-130048000D03*
X359410000Y-89154000D03*
X50292000Y-104394000D03*
X97028000Y-145288000D03*
X53340000Y-143510000D03*
X55118000Y-65278000D03*
X67564010Y-141478000D03*
X97028000Y-157734000D03*
X294132000Y-108966000D03*
X294132000Y-89916000D03*
X160782000Y-156464000D03*
X103124000Y-156464000D03*
X160782000Y-128778000D03*
X103124000Y-141478000D03*
X72390000Y-136398000D03*
X99822000Y-51816000D03*
X105664000Y-33528000D03*
X102870000Y-92710000D03*
X102870000Y-51816000D03*
X108204000Y-33528000D03*
X116078000Y-59944000D03*
X132334000Y-59944000D03*
X132334000Y-67310000D03*
X115062000Y-84074000D03*
X115062000Y-95504000D03*
X142240000Y-80010000D03*
X156972000Y-71120000D03*
X140970000Y-114808000D03*
X156972000Y-80010000D03*
X113538000Y-95504000D03*
X113538000Y-114808000D03*
X139700000Y-91440000D03*
X116078000Y-100584000D03*
X116078000Y-91186000D03*
X139700000Y-74930000D03*
X117094000Y-103124000D03*
X138684000Y-94234000D03*
X138684000Y-77470000D03*
X117094000Y-94234000D03*
X47244000Y-112014000D03*
X106172000Y-61976000D03*
X141986000Y-71120000D03*
X141986000Y-61976000D03*
X53848000Y-67310000D03*
X131572000Y-98044000D03*
X153670000Y-90678000D03*
X131572000Y-90678000D03*
X115570000Y-105664000D03*
X115570000Y-140208000D03*
X116840000Y-140208000D03*
X147828000Y-47752000D03*
X248158000Y-54102000D03*
X264160000Y-169926000D03*
X263144000Y-59944000D03*
X318262000Y-185674000D03*
X318261994Y-174752000D03*
X239776000Y-76454000D03*
X239776000Y-90424000D03*
X248158010Y-59944000D03*
X138684000Y-160527994D03*
X114046000Y-184150000D03*
X168656000Y-94234000D03*
X114046000Y-160528000D03*
X138684012Y-95758000D03*
X168656000Y-71120000D03*
X247142000Y-168910000D03*
X244348000Y-108204000D03*
X206248000Y-108204000D03*
X206248000Y-81534000D03*
X96520000Y-72390000D03*
X176022000Y-95504000D03*
X96520000Y-68580000D03*
X176022000Y-73660000D03*
X174752000Y-77470000D03*
X270764000Y-92710000D03*
X174752000Y-92710000D03*
X177038000Y-135128000D03*
X177038000Y-78740000D03*
X178308000Y-81280000D03*
X178308000Y-128778000D03*
X179324000Y-83820000D03*
X342138000Y-91440000D03*
X179324000Y-94234000D03*
X342138000Y-107696000D03*
X317246000Y-107696000D03*
X245364000Y-151130000D03*
X316611000Y-137160000D03*
X245364000Y-137160000D03*
X243840000Y-152146000D03*
X317753999Y-138938000D03*
X243840000Y-138938000D03*
X317854000Y-109574000D03*
X294259000Y-129667000D03*
X294259000Y-125857000D03*
X295402000Y-144780000D03*
X295402000Y-113284000D03*
X295411000Y-141614000D03*
X281051000Y-125984000D03*
X296164000Y-154051000D03*
X296164000Y-158749999D03*
X281051000Y-157480000D03*
X300228000Y-143383000D03*
X300228000Y-115824000D03*
X298958000Y-118364000D03*
X299326000Y-145174000D03*
X273494500Y-122174000D03*
X288671000Y-153733500D03*
X273507201Y-135178801D03*
X288696398Y-135178800D03*
X256286000Y-120777000D03*
X256286000Y-152400000D03*
X294894000Y-157607000D03*
X294894016Y-152400000D03*
X278511000Y-136271000D03*
X278511000Y-151130000D03*
X278511000Y-119634000D03*
X304800000Y-154940000D03*
X260604000Y-123444000D03*
X304800000Y-148844000D03*
X260604000Y-154940000D03*
X282067000Y-115824000D03*
X282067000Y-147320000D03*
X282067000Y-138049000D03*
X288417000Y-125984000D03*
X288417000Y-122174000D03*
X270129000Y-144780000D03*
X270129000Y-113284000D03*
X270129000Y-139700000D03*
X289560000Y-119634000D03*
X289560000Y-128524000D03*
X294132000Y-143510000D03*
X252730000Y-110744000D03*
X252730000Y-142240000D03*
X294132000Y-150876000D03*
X297561000Y-152273000D03*
X278257000Y-158750000D03*
X278257000Y-162433000D03*
X297561000Y-161290000D03*
X265557000Y-125984000D03*
X265557000Y-157480000D03*
X254000000Y-125984000D03*
X298450000Y-155829000D03*
X254000000Y-164592000D03*
X298450000Y-164592000D03*
X254000000Y-157480000D03*
X286258000Y-160020000D03*
X287604200Y-133629400D03*
X272034000Y-133604000D03*
X272034000Y-155956000D03*
X306070000Y-129159000D03*
X306070000Y-156718000D03*
X307086000Y-127381000D03*
X307086000Y-163195000D03*
X221234000Y-178054000D03*
X212344000Y-178054000D03*
X219964000Y-160782000D03*
X231394000Y-160782000D03*
X218948000Y-154178000D03*
X211074000Y-154178000D03*
X221488000Y-155448000D03*
X213614000Y-155448000D03*
X224028000Y-156718000D03*
X216154000Y-156718000D03*
X218694000Y-157988000D03*
X226568000Y-157988000D03*
X221234000Y-159258000D03*
X225298000Y-159258000D03*
X220218000Y-148336000D03*
X227838000Y-148336000D03*
X228854000Y-147066000D03*
X217678000Y-147066000D03*
X187452000Y-127762000D03*
X186436000Y-144018000D03*
X215646000Y-132588000D03*
X95504000Y-121158000D03*
X95504000Y-160020000D03*
X137160000Y-164338000D03*
X124460000Y-166370000D03*
X135890000Y-176530000D03*
X135890000Y-172720000D03*
X120142000Y-171450000D03*
X120142000Y-175260000D03*
X100838000Y-171450000D03*
X100838000Y-182880000D03*
X99060000Y-172720000D03*
X121920000Y-180340000D03*
X99060000Y-179070000D03*
X121920000Y-172720000D03*
X126492000Y-177800000D03*
X126492000Y-181610000D03*
X110744000Y-117348000D03*
X120142000Y-177800000D03*
X98806000Y-158750000D03*
X127762000Y-162560000D03*
X120142000Y-184150000D03*
X98806000Y-118618000D03*
X127762000Y-184150000D03*
X112014000Y-175260000D03*
X112014000Y-121158000D03*
X113030000Y-119634000D03*
X113030000Y-185419996D03*
X290321994Y-84074000D03*
X266954000Y-84074000D03*
X254254000Y-66548000D03*
X297942000Y-66548000D03*
X256794000Y-62484000D03*
X292862000Y-62484000D03*
X296672000Y-61214000D03*
X261874000Y-61214000D03*
X268224000Y-60198000D03*
X287782000Y-60198000D03*
X300482000Y-63500008D03*
X258064000Y-63500000D03*
X235458000Y-55372000D03*
X236474000Y-78994000D03*
X235204000Y-80264000D03*
X233934000Y-50292000D03*
X237490000Y-77724000D03*
X232918000Y-45212000D03*
X232918000Y-69596000D03*
X237490000Y-69596000D03*
X186944000Y-64262000D03*
X186944000Y-78232000D03*
X88138000Y-45466000D03*
X80010000Y-45466000D03*
X51562000Y-100330000D03*
X75184000Y-159766000D03*
X75184000Y-149098000D03*
X56896000Y-64262000D03*
X73660000Y-100330000D03*
X88138000Y-57150000D03*
X81788000Y-168656000D03*
X385064000Y-113538000D03*
X385052000Y-131310000D03*
X261112000Y-183134000D03*
X284226000Y-183134000D03*
X325400000Y-35000000D03*
X372966000Y-34966000D03*
X364236000Y-116586000D03*
X369316000Y-64516000D03*
X359156000Y-119126000D03*
X359156000Y-100076000D03*
X376174000Y-60960000D03*
X371856000Y-126746000D03*
X374904000Y-57150000D03*
X370840000Y-124206000D03*
X369824000Y-121666000D03*
X371348000Y-48768000D03*
X370332000Y-46482000D03*
X365506000Y-119126000D03*
X357886000Y-129286000D03*
X358140000Y-97536000D03*
X383286000Y-102616000D03*
X357124000Y-126746000D03*
X357124000Y-102616000D03*
X356108000Y-87122000D03*
X356108000Y-124206000D03*
X354838000Y-86106000D03*
X354838000Y-121666000D03*
X150368000Y-46736000D03*
X242062000Y-69596000D03*
X242062000Y-87884000D03*
X264414000Y-69596000D03*
X242824000Y-51562000D03*
X242062000Y-191516000D03*
X245872010Y-51816000D03*
X288036000Y-85090000D03*
X288036000Y-71120000D03*
X265684000Y-78994000D03*
X240792002Y-78993998D03*
X341249000Y-179324000D03*
X315976000Y-85090000D03*
X338328000Y-113157000D03*
X240792000Y-86614000D03*
X152907993Y-45720007D03*
X315087000Y-113157000D03*
X245872000Y-78994000D03*
X88138000Y-63500000D03*
X244348000Y-66802000D03*
X244348000Y-90424000D03*
X106680000Y-75184000D03*
X211328000Y-118110000D03*
X109220000Y-116078000D03*
X94487994Y-57404000D03*
X94488000Y-76200000D03*
X94488000Y-81280000D03*
X208534000Y-58928000D03*
X208534000Y-78994000D03*
X243332000Y-195072000D03*
X162560000Y-88900000D03*
X203454000Y-110744000D03*
X162560000Y-82550000D03*
X203454000Y-89662000D03*
X331470000Y-133096000D03*
X328422006Y-195072000D03*
X243332000Y-110744000D03*
X300736000Y-32766000D03*
X290322000Y-32766000D03*
X66548000Y-137668000D03*
X66548000Y-116078000D03*
X101854000Y-144018000D03*
X100838000Y-115824000D03*
X61468000Y-118618000D03*
X100838000Y-146558000D03*
X61468000Y-77470000D03*
X100838000Y-170180000D03*
X109474000Y-149098000D03*
X107442000Y-177800000D03*
X60452000Y-121158000D03*
X88138010Y-117348000D03*
X89154000Y-147828000D03*
X60452000Y-80010000D03*
X82804006Y-124968000D03*
X59436000Y-123698000D03*
X82804000Y-150368000D03*
X104648000Y-151638000D03*
X59436000Y-82550000D03*
X263017000Y-35306000D03*
X301752000Y-36830000D03*
X304292000Y-37846000D03*
X260223000Y-36322000D03*
X91948000Y-180340000D03*
X91948000Y-157480000D03*
X64770000Y-178308000D03*
X58420000Y-85090000D03*
X58420000Y-126238000D03*
X57404000Y-151384000D03*
X57404000Y-128778000D03*
X57404000Y-87630000D03*
X84836000Y-172466000D03*
X84836000Y-151638000D03*
X56388000Y-131318000D03*
X89916000Y-170180000D03*
X56388000Y-149606000D03*
X89154000Y-149098000D03*
X56388000Y-90170000D03*
X93726000Y-167640000D03*
X55372000Y-92710000D03*
X55372000Y-133858000D03*
X55372000Y-147320000D03*
X93726000Y-146558000D03*
X256286000Y-185166000D03*
X290830000Y-185166000D03*
X290576000Y-193294000D03*
X251460000Y-193294000D03*
X294132000Y-34036000D03*
X261620000Y-34036000D03*
X282194000Y-32766000D03*
X258826000Y-32766000D03*
X67310000Y-171704000D03*
X67310000Y-146558000D03*
X57404000Y-155448000D03*
X76962000Y-155448000D03*
X76962000Y-144018000D03*
X57404000Y-179578000D03*
X132588000Y-127508000D03*
X162052000Y-73660000D03*
X135128000Y-55372000D03*
X162052000Y-55372000D03*
X137668000Y-54356000D03*
X163068000Y-54356000D03*
X136398000Y-130048000D03*
X164592000Y-53594000D03*
X137414000Y-132588000D03*
X140208000Y-53594000D03*
X147828000Y-135128000D03*
X148844000Y-137668000D03*
X149860000Y-140208000D03*
X150876000Y-142748000D03*
X151892000Y-145288000D03*
X59944000Y-66294000D03*
X77724000Y-119888000D03*
X77724000Y-108458000D03*
X146050000Y-60960000D03*
X111252000Y-60960000D03*
X54102000Y-108458000D03*
X143001988Y-68580000D03*
X58420000Y-68326000D03*
X115570000Y-175260000D03*
X115570000Y-170180000D03*
X143002000Y-63246000D03*
X108712000Y-63246000D03*
X140970000Y-170180000D03*
X115570000Y-182880000D03*
X52832000Y-110998000D03*
X140970000Y-177800000D03*
X115570000Y-179070000D03*
X83566000Y-118618000D03*
X80010000Y-53086000D03*
X83566000Y-109220000D03*
X81026000Y-100838000D03*
X76454000Y-127508000D03*
X81026000Y-55372000D03*
X77978000Y-100838000D03*
X76454000Y-110998000D03*
X116332000Y-55372000D03*
X118872000Y-54102000D03*
X75438000Y-132588000D03*
X82042000Y-113538000D03*
X75438000Y-113538000D03*
X82042000Y-54102000D03*
X125222000Y-130048000D03*
X89408000Y-116078000D03*
X89408000Y-130048000D03*
X127254000Y-128778000D03*
X82042000Y-122428000D03*
X82042000Y-118618000D03*
X335026000Y-51054000D03*
X325374000Y-52070000D03*
X330200000Y-53340000D03*
X320802000Y-54864000D03*
X48260000Y-138430000D03*
X48260000Y-148590000D03*
X45720000Y-148590000D03*
X45720000Y-135890000D03*
X370000000Y-136900000D03*
X370000000Y-132600000D03*
X386080000Y-117094000D03*
X386080000Y-94234000D03*
X380226000Y-135120000D03*
X380238000Y-117094000D03*
X160019992Y-58166000D03*
X160020000Y-94488008D03*
X107441992Y-58166000D03*
X107442000Y-67310000D03*
X132334000Y-78740000D03*
X132334000Y-69850000D03*
X91948000Y-58928000D03*
X143764000Y-58927992D03*
X143764000Y-96774000D03*
X131318000Y-77470000D03*
X131318000Y-73660000D03*
X128269996Y-87630000D03*
X96520000Y-73660000D03*
X96520000Y-87630000D03*
X128270000Y-100584000D03*
X101854000Y-114554000D03*
X101854000Y-71120000D03*
X102870000Y-93980000D03*
X102870000Y-110490008D03*
X121920000Y-111252000D03*
X121920000Y-107950000D03*
X94488010Y-93980000D03*
X94488000Y-110490000D03*
X92710000Y-113538002D03*
X143002000Y-104394000D03*
X143002000Y-114300000D03*
X126238000Y-103378000D03*
X126238000Y-86360000D03*
X120904000Y-81280000D03*
X120904000Y-90170000D03*
X120904000Y-68580000D03*
X88900000Y-80264000D03*
X88900000Y-96520000D03*
X121920000Y-71120000D03*
X121920000Y-78740000D03*
X122936000Y-73660000D03*
X108966000Y-100584000D03*
X108966000Y-74930000D03*
X122936000Y-76200000D03*
X124206000Y-80010000D03*
X107950000Y-78740000D03*
X124206000Y-66040000D03*
X107950000Y-91440000D03*
X113284000Y-71120000D03*
X113284000Y-81280000D03*
X132334000Y-80010000D03*
X156718000Y-100584000D03*
X156718000Y-87884000D03*
X132334000Y-87884000D03*
X157734000Y-98298000D03*
X157734000Y-86868012D03*
X131064000Y-86868000D03*
X142748000Y-175260000D03*
X142748000Y-122428000D03*
X158750000Y-85852000D03*
X136652000Y-85852000D03*
X158750008Y-95504000D03*
X161544000Y-103124000D03*
X161036000Y-69850000D03*
X371856000Y-159258000D03*
X371856000Y-140970000D03*
X371856000Y-150114000D03*
X400050000Y-109728000D03*
X373380000Y-110490000D03*
X265684000Y-186436000D03*
X284226000Y-186436000D03*
X245618000Y-42418000D03*
X154686000Y-175260000D03*
X154686000Y-179070000D03*
X144526000Y-182880000D03*
X144526000Y-176530000D03*
D57*
X347980000Y-53926000D02*
X347980000Y-51816000D01*
D58*
X201769600Y-22786600D02*
X201769600Y-24985600D01*
D57*
X194189600Y-43313600D02*
X194056000Y-43180000D01*
X347980000Y-44626000D02*
X347980000Y-42418000D01*
D58*
X201769600Y-24985600D02*
X202946000Y-26162000D01*
D57*
X194189600Y-45186600D02*
X194189600Y-43313600D01*
D58*
X355600000Y-53926000D02*
X355600000Y-56388000D01*
X354330000Y-44626000D02*
X354330000Y-42418000D01*
X361950000Y-53926000D02*
X361950000Y-56388000D01*
D57*
X388874000Y-108458000D02*
X392176000Y-108458000D01*
X392176000Y-108458000D02*
X392748887Y-107885113D01*
X392748887Y-107885113D02*
X394970000Y-107885113D01*
D59*
X321462400Y-122034000D02*
X324980000Y-122034000D01*
X324993000Y-68326000D02*
X330581000Y-68326000D01*
X330581000Y-68326000D02*
X334010000Y-68326000D01*
X324980000Y-122034000D02*
X324993000Y-122047000D01*
X330581000Y-73025000D02*
X334010000Y-73025000D01*
X326252000Y-123814000D02*
X326263000Y-123825000D01*
X326263000Y-73025000D02*
X330581000Y-73025000D01*
X321462400Y-123814000D02*
X326252000Y-123814000D01*
X323850000Y-77724000D02*
X330581000Y-77724000D01*
X323835000Y-120254000D02*
X323850000Y-120269000D01*
X330581000Y-77724000D02*
X334010000Y-77724000D01*
X321462400Y-120254000D02*
X323835000Y-120254000D01*
D57*
X354330000Y-51054000D02*
X354330000Y-53926000D01*
X372618000Y-50546000D02*
X365760000Y-50546000D01*
X354838000Y-50546000D02*
X354330000Y-51054000D01*
X365760000Y-50546000D02*
X354838000Y-50546000D01*
D58*
X324104000Y-34036000D02*
X337820000Y-34036000D01*
X315214000Y-36068000D02*
X343916000Y-36068000D01*
D57*
X38862000Y-136398000D02*
X39370000Y-136398000D01*
X33782000Y-136398000D02*
X38862000Y-136398000D01*
X38862000Y-143510000D02*
X43180000Y-143510000D01*
X39370000Y-136398000D02*
X42418000Y-133350000D01*
X42418000Y-133350000D02*
X43180000Y-133350000D01*
X38862000Y-143510000D02*
X38862000Y-136398000D01*
D60*
X66040000Y-30226000D02*
X66929000Y-30226000D01*
X45738800Y-52875200D02*
X48418000Y-50196000D01*
X45738800Y-58166000D02*
X45738800Y-52875200D01*
X79248000Y-28194000D02*
X80264000Y-29210000D01*
X66548000Y-45466000D02*
X67945000Y-45466000D01*
X51562000Y-49276000D02*
X49338000Y-49276000D01*
X51562000Y-49276000D02*
X62738000Y-49276000D01*
X64135000Y-47879000D02*
X66548000Y-45466000D01*
X62738000Y-49276000D02*
X64135000Y-47879000D01*
X66040000Y-30226000D02*
X72644000Y-30226000D01*
X50038000Y-49276000D02*
X51562000Y-49276000D01*
X48418000Y-50196000D02*
X49688000Y-48926000D01*
X65024000Y-30226000D02*
X66040000Y-30226000D01*
X64135000Y-31115000D02*
X65024000Y-30226000D01*
X72644000Y-30226000D02*
X72009000Y-30226000D01*
X73152000Y-30226000D02*
X75184000Y-28194000D01*
X49338000Y-49276000D02*
X48418000Y-50196000D01*
X72009000Y-30226000D02*
X73152000Y-30226000D01*
X80264000Y-29210000D02*
X80264000Y-30480000D01*
X49688000Y-44928967D02*
X49688000Y-48926000D01*
X75184000Y-28194000D02*
X79248000Y-28194000D01*
X49688000Y-48926000D02*
X50038000Y-49276000D01*
X64135000Y-47879000D02*
X64135000Y-31115000D01*
D58*
X181356014Y-36576014D02*
X181356000Y-36576000D01*
X80264000Y-25400000D02*
X80264000Y-23368000D01*
X80264000Y-23368000D02*
X81026000Y-22606000D01*
X159004000Y-25400000D02*
X161544000Y-27940000D01*
X157480000Y-22606000D02*
X159004000Y-24130000D01*
X81026000Y-22606000D02*
X157480000Y-22606000D01*
X161544000Y-27940000D02*
X181356000Y-27940000D01*
X189189600Y-45186600D02*
X189189600Y-43474400D01*
X189230000Y-36576014D02*
X181356014Y-36576014D01*
X189189600Y-43474400D02*
X189230000Y-43434000D01*
X208574014Y-36576014D02*
X189230000Y-36576014D01*
X159004000Y-24130000D02*
X159004000Y-25400000D01*
X210860000Y-38862000D02*
X208574014Y-36576014D01*
D59*
X379730000Y-38400000D02*
X381208000Y-38400000D01*
D58*
X366300000Y-24400000D02*
X367966000Y-24400000D01*
D59*
X381000000Y-26670000D02*
X371570000Y-26670000D01*
D58*
X340614000Y-22860000D02*
X340868000Y-22860000D01*
X328803000Y-28702000D02*
X328803000Y-28321000D01*
X362700000Y-26000000D02*
X364700000Y-26000000D01*
X340868000Y-34036000D02*
X354664000Y-34036000D01*
X328803000Y-28321000D02*
X330962000Y-26162000D01*
X331978000Y-22860000D02*
X340614000Y-22860000D01*
X330962000Y-26162000D02*
X330962000Y-23876000D01*
D59*
X381208000Y-38400000D02*
X382016000Y-37592000D01*
X382016000Y-27686000D02*
X381000000Y-26670000D01*
X369300000Y-24400000D02*
X367966000Y-24400000D01*
D58*
X330962000Y-23876000D02*
X331978000Y-22860000D01*
D59*
X371570000Y-26670000D02*
X369300000Y-24400000D01*
D58*
X364700000Y-26000000D02*
X366300000Y-24400000D01*
X354664000Y-34036000D02*
X362700000Y-26000000D01*
D59*
X382016000Y-37592000D02*
X382016000Y-27686000D01*
D58*
X339090000Y-28702000D02*
X330853000Y-28702000D01*
D57*
X176784000Y-184150000D02*
X180594000Y-184150000D01*
X162814000Y-153670000D02*
X176784000Y-153670000D01*
X165354000Y-161798000D02*
X184658000Y-161798000D01*
X167894000Y-160782000D02*
X186944000Y-160782000D01*
X170434000Y-175514000D02*
X188214000Y-175514000D01*
X173228000Y-174244000D02*
X190754000Y-174244000D01*
X175514000Y-173228000D02*
X193294000Y-173228000D01*
X178054000Y-172212000D02*
X195834000Y-172212000D01*
X198374000Y-171196006D02*
X198374006Y-171196000D01*
X181864000Y-171196006D02*
X198374000Y-171196006D01*
X207264000Y-179324000D02*
X216154000Y-179324000D01*
X31242000Y-111252000D02*
X34290000Y-111252000D01*
X34798000Y-110744000D02*
X38100000Y-110744000D01*
X42418000Y-108204000D02*
X39878000Y-110744000D01*
X34290000Y-111252000D02*
X34798000Y-110744000D01*
X43180000Y-108204000D02*
X42418000Y-108204000D01*
X39878000Y-110744000D02*
X38100000Y-110744000D01*
X38100000Y-110744000D02*
X37338000Y-110744000D01*
X66802000Y-91440000D02*
X45212000Y-91440000D01*
X57658000Y-146050000D02*
X59690000Y-144018000D01*
X50800000Y-146050000D02*
X57658000Y-146050000D01*
X46990000Y-133350000D02*
X50800000Y-133350000D01*
X50800000Y-146050000D02*
X46990000Y-146050000D01*
X59690000Y-144018000D02*
X64770000Y-144018000D01*
X72898000Y-42672000D02*
X92964000Y-42672000D01*
X69596000Y-179578000D02*
X72898000Y-179578000D01*
D61*
X200914000Y-173736000D02*
X263144000Y-173736000D01*
D57*
X48514006Y-93980001D02*
X78740000Y-93980000D01*
X74168000Y-180848000D02*
X85344000Y-180848000D01*
X200914000Y-186690000D02*
X200914000Y-184150000D01*
X91948000Y-187452000D02*
X200152000Y-187452000D01*
X69596000Y-179578000D02*
X63246000Y-179578000D01*
X200152000Y-187452000D02*
X200914000Y-186690000D01*
D61*
X263144000Y-85344000D02*
X269494000Y-85344000D01*
D57*
X72898000Y-179578000D02*
X74168000Y-180848000D01*
X28702000Y-104394000D02*
X48514000Y-104394000D01*
X61468000Y-181356000D02*
X32766000Y-181356000D01*
X85344000Y-180848000D02*
X91948000Y-187452000D01*
X63246000Y-179578000D02*
X61468000Y-181356000D01*
X78740000Y-43942000D02*
X90424000Y-43942000D01*
X52324000Y-170688000D02*
X66040000Y-170688000D01*
X65278000Y-63246000D02*
X52578000Y-63246000D01*
X65278006Y-49276000D02*
X86614000Y-49276000D01*
X46228000Y-129540000D02*
X54102000Y-129540000D01*
X45466000Y-169164000D02*
X50800000Y-169164000D01*
X50800000Y-169164000D02*
X52324000Y-170688000D01*
X54356000Y-156718000D02*
X64770000Y-156718000D01*
X335930000Y-146954000D02*
X366156000Y-146954000D01*
X68580016Y-162560000D02*
X68580000Y-162560016D01*
D61*
X237490000Y-57912000D02*
X241808000Y-57912000D01*
X105664000Y-163830000D02*
X107950000Y-163830000D01*
X50800000Y-113284000D02*
X52324000Y-114808000D01*
D57*
X281940000Y-170942000D02*
X286893000Y-175895000D01*
X339090000Y-178054000D02*
X336042000Y-178054000D01*
D61*
X52324000Y-114808000D02*
X68580000Y-114808000D01*
X223520000Y-91440000D02*
X224028000Y-91948000D01*
D57*
X240538002Y-170942000D02*
X281940000Y-170942000D01*
X100584000Y-162560000D02*
X101854000Y-163830000D01*
X64770000Y-149098000D02*
X68580000Y-149098000D01*
X321462400Y-146954000D02*
X311419000Y-146954000D01*
X311419000Y-146954000D02*
X311404000Y-146939000D01*
X321462400Y-146954000D02*
X335930000Y-146954000D01*
D61*
X109474000Y-165354000D02*
X240538000Y-165354000D01*
D57*
X101854000Y-163830000D02*
X105664000Y-163830000D01*
D61*
X224028000Y-91948000D02*
X238506000Y-91948000D01*
D57*
X96266000Y-162560000D02*
X100584000Y-162560000D01*
X96266000Y-162560000D02*
X68580016Y-162560000D01*
D61*
X73914000Y-41148000D02*
X87884000Y-41148000D01*
D57*
X366156000Y-146954000D02*
X366268000Y-147066000D01*
X366268000Y-131826000D02*
X362204000Y-131826000D01*
X286893000Y-175895000D02*
X311404000Y-175895000D01*
D61*
X223520000Y-90424000D02*
X223520000Y-91440000D01*
X107950000Y-163830000D02*
X109474000Y-165354000D01*
D57*
X284479994Y-68579994D02*
X284480000Y-68580000D01*
X172466000Y-30226000D02*
X160528000Y-30226000D01*
X174751997Y-90677997D02*
X175768000Y-91694000D01*
D61*
X167640000Y-92964000D02*
X169926003Y-90677997D01*
X172212000Y-133858000D02*
X169926000Y-133858000D01*
D57*
X160528000Y-30226000D02*
X158750000Y-28448000D01*
X127000000Y-136398000D02*
X134366000Y-136398000D01*
D61*
X255778000Y-68580000D02*
X213360000Y-68580000D01*
D57*
X173481997Y-90677997D02*
X174751997Y-90677997D01*
D61*
X212852000Y-68072000D02*
X201168000Y-68072000D01*
D57*
X331470000Y-188214000D02*
X333502000Y-188214000D01*
X333502000Y-86360000D02*
X284480000Y-86360000D01*
X125730000Y-135128000D02*
X127000000Y-136398000D01*
X255778000Y-68580000D02*
X259333994Y-68580000D01*
X134366000Y-136398000D02*
X146050000Y-136398000D01*
X352806000Y-101346000D02*
X362204000Y-101346000D01*
X259334000Y-68579994D02*
X284479994Y-68579994D01*
D61*
X164592000Y-92964000D02*
X167640000Y-92964000D01*
D57*
X106934000Y-136398000D02*
X112967205Y-136398000D01*
X351536000Y-102616000D02*
X352806000Y-101346000D01*
D61*
X213360000Y-68580000D02*
X212852000Y-68072000D01*
D57*
X158750000Y-28448000D02*
X131064000Y-28448000D01*
X161036000Y-141478000D02*
X164592000Y-141478000D01*
X333502000Y-102616000D02*
X351536000Y-102616000D01*
X150114000Y-136398000D02*
X151384000Y-137668000D01*
X259333994Y-68580000D02*
X259334000Y-68579994D01*
X146050000Y-136398000D02*
X150114000Y-136398000D01*
X151384000Y-137668000D02*
X157226000Y-137668000D01*
X157226000Y-137668000D02*
X161036000Y-141478000D01*
X114237205Y-135128000D02*
X125730000Y-135128000D01*
D61*
X173481997Y-90677997D02*
X169926003Y-90677997D01*
D57*
X112967205Y-136398000D02*
X114237205Y-135128000D01*
X175768000Y-91694000D02*
X201168000Y-91694000D01*
X42926000Y-113284000D02*
X43180000Y-113284000D01*
X37338000Y-118872000D02*
X42926000Y-113284000D01*
X33782000Y-118872000D02*
X37338000Y-118872000D01*
X31242000Y-121412000D02*
X33782000Y-118872000D01*
D61*
X259334000Y-67564000D02*
X230886000Y-67564000D01*
D57*
X114300000Y-122428000D02*
X125730000Y-122428000D01*
D61*
X172212000Y-131318000D02*
X168148000Y-131318000D01*
X192532000Y-85598000D02*
X195326000Y-82804000D01*
D57*
X337058000Y-105156000D02*
X351536000Y-105156000D01*
D61*
X166878000Y-123698000D02*
X168148000Y-123698000D01*
D57*
X113030000Y-123698000D02*
X114300000Y-122428000D01*
X121158000Y-66040000D02*
X122428000Y-67310000D01*
X106934000Y-123698000D02*
X113030000Y-123698000D01*
D61*
X134366000Y-123698000D02*
X166878000Y-123698000D01*
D57*
X260604000Y-67564000D02*
X285496000Y-67564000D01*
X339090000Y-190754000D02*
X337058000Y-190754000D01*
D61*
X181864000Y-85598000D02*
X192532000Y-85598000D01*
X228346000Y-65024000D02*
X212090000Y-65024000D01*
D57*
X122428000Y-67310000D02*
X130810000Y-67310000D01*
D61*
X230886000Y-67564000D02*
X228346000Y-65024000D01*
D57*
X127000000Y-123698000D02*
X134366000Y-123698000D01*
X105156000Y-66040000D02*
X121158000Y-66040000D01*
D61*
X195326000Y-82804000D02*
X210820000Y-82804000D01*
X166878000Y-123698000D02*
X181864000Y-123698000D01*
D57*
X259334000Y-67564000D02*
X260604000Y-67564000D01*
X352806000Y-103886000D02*
X362204000Y-103886000D01*
X106934000Y-123698000D02*
X105156000Y-123698000D01*
X125730000Y-122428000D02*
X127000000Y-123698000D01*
X351536000Y-105156000D02*
X352806000Y-103886000D01*
X98806000Y-66040000D02*
X105156000Y-66040000D01*
X337058000Y-87376000D02*
X285496000Y-87376000D01*
X184658000Y-74422000D02*
X182880000Y-74422000D01*
X181864000Y-73406000D02*
X178054000Y-73406000D01*
X212090000Y-73914000D02*
X211836000Y-73660000D01*
X188976000Y-75692000D02*
X194564000Y-75692000D01*
X206248000Y-74422000D02*
X197358000Y-74422000D01*
X182880000Y-74422000D02*
X181864000Y-73406000D01*
X195834000Y-74422000D02*
X197358000Y-74422000D01*
X222250000Y-73914000D02*
X223520000Y-75184000D01*
X213360000Y-73914000D02*
X212090000Y-73914000D01*
X213360000Y-73914000D02*
X222250000Y-73914000D01*
X126746000Y-36068000D02*
X164338000Y-36068000D01*
X194564000Y-75692000D02*
X195834000Y-74422000D01*
X164338000Y-36068000D02*
X175514000Y-47244000D01*
X184658000Y-74422000D02*
X187706000Y-74422000D01*
X207010000Y-73660000D02*
X206248000Y-74422000D01*
X213360000Y-73914000D02*
X213360000Y-75184000D01*
X175514000Y-47244000D02*
X177546000Y-47244000D01*
X207010000Y-73660000D02*
X211836000Y-73660000D01*
X187706000Y-74422000D02*
X188976000Y-75692000D01*
X189738000Y-65532000D02*
X199898000Y-65532000D01*
D61*
X123444000Y-26924000D02*
X123444000Y-25400000D01*
D57*
X182880000Y-68072000D02*
X187198000Y-68072000D01*
D61*
X175260000Y-65532000D02*
X165608000Y-65532000D01*
X159258000Y-27432000D02*
X123952000Y-27432000D01*
D57*
X197358000Y-71882000D02*
X199898000Y-71882000D01*
X181864000Y-67056000D02*
X182880000Y-68072000D01*
X204724000Y-77724000D02*
X210820000Y-77724000D01*
D61*
X176784000Y-67056000D02*
X175260000Y-65532000D01*
D57*
X180086000Y-67056000D02*
X181864000Y-67056000D01*
X192278000Y-79502000D02*
X199898000Y-79502000D01*
X202946000Y-79502000D02*
X204724000Y-77724000D01*
D61*
X165608000Y-29210000D02*
X161036000Y-29210000D01*
X180086000Y-67056000D02*
X176784000Y-67056000D01*
D57*
X199898000Y-79502000D02*
X202946000Y-79502000D01*
D61*
X161036000Y-29210000D02*
X159258000Y-27432000D01*
X123952000Y-27432000D02*
X123444000Y-26924000D01*
D57*
X187198000Y-68072000D02*
X189738000Y-65532000D01*
X69596000Y-177038000D02*
X73660000Y-177038000D01*
X57150000Y-183896000D02*
X63650000Y-183896000D01*
X69596000Y-177038000D02*
X60198000Y-177038000D01*
X80772000Y-185420000D02*
X79756000Y-184404000D01*
X79756000Y-184404000D02*
X73406000Y-184404000D01*
X81828000Y-185420000D02*
X80772000Y-185420000D01*
X183858001Y-68542001D02*
X177000001Y-68542001D01*
X177000001Y-68542001D02*
X175006000Y-66548000D01*
X184658000Y-69342000D02*
X187198000Y-69342000D01*
X184658000Y-69342000D02*
X183858001Y-68542001D01*
X175006000Y-66548000D02*
X161036000Y-66548000D01*
X117602000Y-49022000D02*
X160782000Y-49022000D01*
X197358000Y-69342000D02*
X210820000Y-69342000D01*
X187198000Y-69342000D02*
X188468000Y-68072000D01*
X194056000Y-68072000D02*
X195326000Y-69342000D01*
X195326000Y-69342000D02*
X197358000Y-69342000D01*
X160782000Y-49022000D02*
X161036000Y-49276000D01*
X188468000Y-68072000D02*
X194056000Y-68072000D01*
X165354000Y-33782000D02*
X117094000Y-33782000D01*
X214122000Y-35306000D02*
X166878000Y-35306000D01*
X166878000Y-35306000D02*
X165354000Y-33782000D01*
X219456000Y-38354000D02*
X217170000Y-38354000D01*
X217170000Y-38354000D02*
X214122000Y-35306000D01*
X381254000Y-108458000D02*
X377190000Y-108458000D01*
X383540000Y-108458000D02*
X381254000Y-108458000D01*
X170688000Y-41148000D02*
X164338000Y-34798000D01*
X219710000Y-41148000D02*
X170688000Y-41148000D01*
X164338000Y-34798000D02*
X114554000Y-34798000D01*
X379730000Y-140970000D02*
X382524000Y-140970000D01*
X383326000Y-141772000D02*
X385191000Y-141772000D01*
X382524000Y-140970000D02*
X383326000Y-141772000D01*
X107442000Y-56388000D02*
X159004000Y-56388000D01*
X153670000Y-78740000D02*
X159004000Y-78740000D01*
X346964000Y-134366000D02*
X356616000Y-134366000D01*
X375158000Y-143256000D02*
X372872000Y-145542000D01*
X385191000Y-144272000D02*
X383540000Y-144272000D01*
X382524000Y-143256000D02*
X375158000Y-143256000D01*
X383540000Y-144272000D02*
X382524000Y-143256000D01*
X372872000Y-145542000D02*
X369570000Y-145542000D01*
X356870000Y-145542000D02*
X369570000Y-145542000D01*
X383032000Y-150114000D02*
X379730000Y-150114000D01*
X383540000Y-150622000D02*
X383032000Y-150114000D01*
X385191000Y-150622000D02*
X383540000Y-150622000D01*
X383286000Y-152654000D02*
X374650000Y-152654000D01*
X372618000Y-154686000D02*
X369570000Y-154686000D01*
X385191000Y-153122000D02*
X383754000Y-153122000D01*
X354838000Y-136906000D02*
X346964000Y-136906000D01*
X374650000Y-152654000D02*
X372618000Y-154686000D01*
X369570000Y-154686000D02*
X354838000Y-154686000D01*
X383754000Y-153122000D02*
X383286000Y-152654000D01*
X382524000Y-159258000D02*
X383032000Y-159766000D01*
X383032000Y-159766000D02*
X385191000Y-159766000D01*
X379476000Y-159258000D02*
X382524000Y-159258000D01*
X250698000Y-105410000D02*
X209042000Y-105410000D01*
X83058000Y-108204000D02*
X86868000Y-108204000D01*
X89154000Y-34544000D02*
X83058000Y-34544000D01*
X86868000Y-108204000D02*
X91440000Y-112776000D01*
X146050000Y-113284000D02*
X148590000Y-113284000D01*
X189484000Y-105410000D02*
X188214000Y-105410000D01*
X188214000Y-105410000D02*
X177800000Y-115824000D01*
X308198000Y-106014000D02*
X306832000Y-104648000D01*
X321462400Y-106014000D02*
X308198000Y-106014000D01*
X209042000Y-105410000D02*
X189484000Y-105410000D01*
X168910000Y-115824000D02*
X172212000Y-115824000D01*
X191008000Y-140970000D02*
X206248000Y-140970000D01*
X91440000Y-112776000D02*
X144272000Y-112776000D01*
X72390000Y-77470000D02*
X83058000Y-77470000D01*
X254254000Y-85344000D02*
X250698000Y-85344000D01*
X148590000Y-113284000D02*
X149860000Y-114554000D01*
X330042000Y-106014000D02*
X332994000Y-108966000D01*
X144272000Y-112776000D02*
X144780000Y-113284000D01*
X144780000Y-113284000D02*
X146050000Y-113284000D01*
X149860000Y-114554000D02*
X167640000Y-114554000D01*
X177800000Y-115824000D02*
X172212000Y-115824000D01*
X298958000Y-105410000D02*
X250698000Y-105410000D01*
X167640000Y-114554000D02*
X168910000Y-115824000D01*
X299720000Y-104648000D02*
X298958000Y-105410000D01*
X321462400Y-106014000D02*
X330042000Y-106014000D01*
X332994000Y-108966000D02*
X346964000Y-108966000D01*
X306832000Y-104648000D02*
X299720000Y-104648000D01*
X346964000Y-106426000D02*
X332740000Y-106426000D01*
X84074000Y-107188000D02*
X87122000Y-107188000D01*
X258064000Y-103886000D02*
X314198000Y-103886000D01*
X330200000Y-103886000D02*
X314198000Y-103886000D01*
X140970000Y-112014000D02*
X142240000Y-110744000D01*
X193548000Y-139954000D02*
X203708000Y-139954000D01*
X302361600Y-107794000D02*
X314100000Y-107794000D01*
X148590000Y-110744000D02*
X149860000Y-112014000D01*
X168910000Y-113284000D02*
X172212000Y-113284000D01*
X87122000Y-107188000D02*
X91948000Y-112014000D01*
X142240000Y-110744000D02*
X146050000Y-110744000D01*
X258064000Y-103886000D02*
X213360000Y-103886000D01*
X177800000Y-113284000D02*
X172212000Y-113284000D01*
X84074000Y-33274000D02*
X91694000Y-33274000D01*
X91948000Y-112014000D02*
X140970000Y-112014000D01*
X149860000Y-112014000D02*
X167640000Y-112014000D01*
X192278000Y-103886000D02*
X187198000Y-103886000D01*
X146050000Y-110744000D02*
X148590000Y-110744000D01*
X332740000Y-106426000D02*
X330200000Y-103886000D01*
X314100000Y-107794000D02*
X314198000Y-107696000D01*
X72390000Y-80010000D02*
X84074000Y-80010000D01*
X187198000Y-103886000D02*
X177800000Y-113284000D01*
X213360000Y-103886000D02*
X192278000Y-103886000D01*
X167640000Y-112014000D02*
X168910000Y-113284000D01*
X385191000Y-162266000D02*
X375452000Y-162266000D01*
X353060000Y-139446000D02*
X346964000Y-139446000D01*
X369570000Y-164084000D02*
X353060000Y-164084000D01*
X373634000Y-164084000D02*
X369570000Y-164084000D01*
X375452000Y-162266000D02*
X373634000Y-164084000D01*
X168910000Y-110744000D02*
X172212000Y-110744000D01*
X74930000Y-38608000D02*
X94234000Y-38608000D01*
X148590000Y-108204000D02*
X149860000Y-109474000D01*
X346964000Y-103886000D02*
X331851000Y-103886000D01*
X70612000Y-106172000D02*
X87630000Y-106172000D01*
X305408000Y-109574000D02*
X305435000Y-109601000D01*
X197358000Y-138938000D02*
X201168000Y-138938000D01*
X185674000Y-102616000D02*
X177546000Y-110744000D01*
X248920000Y-102616000D02*
X210820000Y-102616000D01*
X331851000Y-103886000D02*
X330581000Y-102616000D01*
X74611772Y-82550000D02*
X74770886Y-82709114D01*
X307848000Y-102616000D02*
X305435000Y-102616000D01*
X255524000Y-84074000D02*
X248920000Y-84074000D01*
X72390000Y-82550000D02*
X74611772Y-82550000D01*
X146050000Y-108204000D02*
X148590000Y-108204000D01*
X177546000Y-110744000D02*
X172212000Y-110744000D01*
X90932000Y-109474000D02*
X87630000Y-106172000D01*
X141986000Y-108204000D02*
X140716000Y-109474000D01*
X194818000Y-102616000D02*
X185674000Y-102616000D01*
X149860000Y-109474000D02*
X167640000Y-109474000D01*
X210820000Y-102616000D02*
X194818000Y-102616000D01*
X146050000Y-108204000D02*
X141986000Y-108204000D01*
X330581000Y-102616000D02*
X307848000Y-102616000D01*
X140716000Y-109474000D02*
X90932000Y-109474000D01*
X167640000Y-109474000D02*
X168910000Y-110744000D01*
X307848000Y-102616000D02*
X248920000Y-102616000D01*
X256794000Y-82804000D02*
X255524000Y-84074000D01*
X302361600Y-109574000D02*
X305408000Y-109574000D01*
X98806000Y-96520000D02*
X93472000Y-96520000D01*
X87376000Y-92710000D02*
X93472000Y-92710000D01*
X86106000Y-91440000D02*
X87376000Y-92710000D01*
X100584000Y-32512000D02*
X109474000Y-32512000D01*
X148590000Y-105664000D02*
X149860000Y-106934000D01*
X140970000Y-106934000D02*
X89916000Y-106934000D01*
X184658000Y-101346000D02*
X177800000Y-108204000D01*
X149860000Y-106934000D02*
X167640000Y-106934000D01*
X215900000Y-101346000D02*
X197358000Y-101346000D01*
X168910000Y-108204000D02*
X172212000Y-108204000D01*
X69342000Y-85090000D02*
X72390000Y-85090000D01*
X96774000Y-37592000D02*
X77724000Y-37592000D01*
X72390000Y-85090000D02*
X77724000Y-85090000D01*
X89916000Y-106934000D02*
X88138000Y-105156000D01*
X142240000Y-105664000D02*
X140970000Y-106934000D01*
X306426000Y-111354000D02*
X306451000Y-111379000D01*
X346964000Y-101346000D02*
X309626000Y-101346000D01*
X69342000Y-105156000D02*
X88138000Y-105156000D01*
X302361600Y-111354000D02*
X306426000Y-111354000D01*
X146050000Y-105664000D02*
X142240000Y-105664000D01*
X197358000Y-101346000D02*
X184658000Y-101346000D01*
X167640000Y-106934000D02*
X168910000Y-108204000D01*
X309626000Y-101346000D02*
X306451000Y-101346000D01*
X146050000Y-105664000D02*
X148590000Y-105664000D01*
X309626000Y-101346000D02*
X259334000Y-101346000D01*
X177800000Y-108204000D02*
X172212000Y-108204000D01*
X259334000Y-101346000D02*
X215900000Y-101346000D01*
X383020000Y-130040000D02*
X378956000Y-130040000D01*
X376174000Y-114808000D02*
X378944000Y-114808000D01*
X378944000Y-114808000D02*
X378956000Y-114820000D01*
X72390000Y-87630000D02*
X76708000Y-87630000D01*
X99314000Y-35560000D02*
X76708000Y-35560000D01*
X302361600Y-113134000D02*
X307444000Y-113134000D01*
X307467000Y-98806000D02*
X313690000Y-98806000D01*
X307444000Y-113134000D02*
X307467000Y-113157000D01*
X199898000Y-100076000D02*
X214630000Y-100076000D01*
X146050000Y-103124000D02*
X142240000Y-103124000D01*
X312928000Y-189484000D02*
X334010000Y-189484000D01*
X313690000Y-98806000D02*
X346964000Y-98806000D01*
X172212000Y-105664000D02*
X177800000Y-105664000D01*
X78232000Y-103632000D02*
X76708000Y-103632000D01*
X142240000Y-103124000D02*
X140875001Y-104488999D01*
X183388000Y-100076000D02*
X199898000Y-100076000D01*
X339090000Y-188214000D02*
X335280000Y-188214000D01*
X148590000Y-103124000D02*
X149860000Y-104394000D01*
X168910000Y-105664000D02*
X172212000Y-105664000D01*
X177800000Y-105664000D02*
X183388000Y-100076000D01*
X146050000Y-103124000D02*
X148590000Y-103124000D01*
X79088999Y-104488999D02*
X78232000Y-103632000D01*
X247650000Y-100076000D02*
X214630000Y-100076000D01*
X167640000Y-104394000D02*
X168910000Y-105664000D01*
X140875001Y-104488999D02*
X79088999Y-104488999D01*
X335280000Y-188214000D02*
X334010000Y-189484000D01*
X303530000Y-100076000D02*
X247650000Y-100076000D01*
X254254000Y-82804000D02*
X247650000Y-82804000D01*
X304800000Y-98806000D02*
X303530000Y-100076000D01*
X313690000Y-98806000D02*
X304800000Y-98806000D01*
X149860000Y-104394000D02*
X167640000Y-104394000D01*
X306070000Y-96266000D02*
X303530000Y-98806000D01*
X75692020Y-101854000D02*
X75692000Y-101854020D01*
X182118000Y-98806000D02*
X177800000Y-103124000D01*
X312674000Y-96266000D02*
X306070000Y-96266000D01*
X142240000Y-100584000D02*
X140970000Y-101854000D01*
X75946000Y-101854000D02*
X75692020Y-101854000D01*
X308335000Y-114914000D02*
X308356000Y-114935000D01*
X308356000Y-96266000D02*
X312674000Y-96266000D01*
X72390000Y-90170000D02*
X75692000Y-90170000D01*
X140970000Y-101854000D02*
X75946000Y-101854000D01*
X312674000Y-96266000D02*
X346964000Y-96266000D01*
X167640000Y-101854000D02*
X168910000Y-103124000D01*
X334010000Y-186944000D02*
X314198000Y-186944000D01*
X302361600Y-114914000D02*
X308335000Y-114914000D01*
X202438000Y-98806000D02*
X217170000Y-98806000D01*
X168910000Y-103124000D02*
X172212000Y-103124000D01*
X335280000Y-185674000D02*
X334010000Y-186944000D01*
X101854000Y-36576000D02*
X75692000Y-36576000D01*
X202438000Y-98806000D02*
X182118000Y-98806000D01*
X148590000Y-100584000D02*
X149860000Y-101854000D01*
X177800000Y-103124000D02*
X172212000Y-103124000D01*
X339090000Y-185674000D02*
X335280000Y-185674000D01*
X149860000Y-101854000D02*
X167640000Y-101854000D01*
X260604000Y-98806000D02*
X217170000Y-98806000D01*
X146050000Y-100584000D02*
X142240000Y-100584000D01*
X303530000Y-98806000D02*
X260604000Y-98806000D01*
X146050000Y-100584000D02*
X148590000Y-100584000D01*
X179070000Y-95250000D02*
X177546000Y-96774000D01*
X166624000Y-90678000D02*
X155702000Y-90678000D01*
X334670000Y-111354000D02*
X341528000Y-111354000D01*
X331470000Y-178054000D02*
X334518000Y-178054000D01*
X341528000Y-111354000D02*
X342646000Y-110236000D01*
D61*
X243078000Y-95250000D02*
X286766000Y-95250000D01*
D57*
X321462400Y-111354000D02*
X334670000Y-111354000D01*
X169672000Y-96774000D02*
X168402000Y-95504000D01*
X342646000Y-110236000D02*
X353822000Y-110236000D01*
X312420006Y-88646000D02*
X286765996Y-88646000D01*
X353822000Y-98806000D02*
X362204000Y-98806000D01*
X321462400Y-111354000D02*
X312445000Y-111354000D01*
X177546000Y-96774000D02*
X169672000Y-96774000D01*
X269494000Y-72644000D02*
X286766000Y-72644000D01*
D61*
X228600000Y-85344000D02*
X243078000Y-85344000D01*
D57*
X155702000Y-122428000D02*
X146050000Y-122428000D01*
X243078000Y-95250000D02*
X179070000Y-95250000D01*
X312445000Y-111354000D02*
X312420000Y-111379000D01*
X168402000Y-95504000D02*
X166624000Y-95504000D01*
X148590000Y-98044000D02*
X149860000Y-99314000D01*
X309372000Y-93726000D02*
X311912000Y-93726000D01*
X204978000Y-97536000D02*
X180848000Y-97536000D01*
X142240000Y-98044000D02*
X140970000Y-99314000D01*
X302361600Y-116694000D02*
X309353000Y-116694000D01*
X339090000Y-183134000D02*
X335280000Y-183134000D01*
X311912000Y-93726000D02*
X307086000Y-93726000D01*
X149860000Y-99314000D02*
X167640000Y-99314000D01*
X220980000Y-97536000D02*
X204978000Y-97536000D01*
X168910000Y-100584000D02*
X172212000Y-100584000D01*
X335280000Y-183134000D02*
X334010000Y-184404000D01*
X95758000Y-97790000D02*
X74676000Y-97790000D01*
X180848000Y-97536000D02*
X177800000Y-100584000D01*
X146050000Y-98044000D02*
X148590000Y-98044000D01*
X334010000Y-184404000D02*
X315468000Y-184404000D01*
X101727000Y-97790000D02*
X95758000Y-97790000D01*
X74676000Y-92710000D02*
X72390000Y-92710000D01*
X256794000Y-80264000D02*
X255524000Y-81534000D01*
X95758000Y-97790000D02*
X95503994Y-97790000D01*
X255524000Y-81534000D02*
X246380000Y-81534000D01*
X309353000Y-116694000D02*
X309372000Y-116713000D01*
X311912000Y-93726000D02*
X346964000Y-93726000D01*
X177800000Y-100584000D02*
X172212000Y-100584000D01*
X303276000Y-97536000D02*
X246380000Y-97536000D01*
X103251000Y-99314000D02*
X101727000Y-97790000D01*
X167640000Y-99314000D02*
X168910000Y-100584000D01*
X140970000Y-99314000D02*
X103251000Y-99314000D01*
X246380000Y-97536000D02*
X220980000Y-97536000D01*
X307086000Y-93726000D02*
X303276000Y-97536000D01*
X146050000Y-98044000D02*
X142240000Y-98044000D01*
X141097000Y-96774000D02*
X103378000Y-96774000D01*
X146050000Y-95504000D02*
X142367000Y-95504000D01*
X310498000Y-118474000D02*
X310515000Y-118491000D01*
X302768000Y-96266000D02*
X261874000Y-96266000D01*
X306451004Y-92582996D02*
X302768000Y-96266000D01*
X207518000Y-96266000D02*
X179578000Y-96266000D01*
X219710000Y-96266000D02*
X207518000Y-96266000D01*
X148590000Y-95504000D02*
X149860000Y-96774000D01*
X101854000Y-95250000D02*
X99822000Y-95250000D01*
X99822000Y-95250000D02*
X100838000Y-95250000D01*
X362204000Y-91186000D02*
X355981000Y-91186000D01*
X177800000Y-98044000D02*
X172212000Y-98044000D01*
X355981000Y-91186000D02*
X354584004Y-92582996D01*
X261874000Y-96266000D02*
X219710000Y-96266000D01*
X335026000Y-180594000D02*
X333756000Y-181864000D01*
X168910000Y-98044000D02*
X172212000Y-98044000D01*
X103378000Y-96774000D02*
X101854000Y-95250000D01*
X149860000Y-96774000D02*
X167640000Y-96774000D01*
X167640000Y-96774000D02*
X168910000Y-98044000D01*
X302361600Y-118474000D02*
X310498000Y-118474000D01*
X312293004Y-92582996D02*
X306451004Y-92582996D01*
X339090000Y-180594000D02*
X335026000Y-180594000D01*
X146050000Y-95504000D02*
X148590000Y-95504000D01*
X179578000Y-96266000D02*
X177800000Y-98044000D01*
X354584004Y-92582996D02*
X312293004Y-92582996D01*
X72390000Y-95250000D02*
X99822000Y-95250000D01*
X142367000Y-95504000D02*
X141097000Y-96774000D01*
X312293004Y-92582996D02*
X310515000Y-92582996D01*
X333756000Y-181864000D02*
X316738012Y-181864000D01*
X197358000Y-66802000D02*
X215900000Y-66802000D01*
X227584000Y-56642000D02*
X239776000Y-56642000D01*
X226822000Y-55880000D02*
X227584000Y-56642000D01*
X224536000Y-55372000D02*
X226314000Y-55372000D01*
X239776000Y-60452000D02*
X237490000Y-60452000D01*
X226314000Y-55372000D02*
X226822000Y-55880000D01*
D61*
X229870000Y-52832000D02*
X234950000Y-52832000D01*
D57*
X224536000Y-52832000D02*
X228092000Y-52832000D01*
X229870000Y-52832000D02*
X228092000Y-52832000D01*
X227330000Y-57912000D02*
X224536000Y-57912000D01*
X229870000Y-57912000D02*
X227330000Y-57912000D01*
X227838000Y-47752000D02*
X224536000Y-47752000D01*
X229870000Y-47752000D02*
X227838000Y-47752000D01*
X201422000Y-42164000D02*
X201809600Y-42551600D01*
X201809600Y-45186600D02*
X201809600Y-42551600D01*
X195326000Y-42164000D02*
X201422000Y-42164000D01*
X191770000Y-61214000D02*
X195834000Y-61214000D01*
X196596000Y-43180000D02*
X196596000Y-45163000D01*
X196596000Y-45163000D02*
X196619600Y-45186600D01*
X190754000Y-40132000D02*
X196596000Y-40132000D01*
D61*
X182372000Y-76962000D02*
X184658000Y-76962000D01*
D57*
X173736000Y-42164000D02*
X191008000Y-42164000D01*
X191689600Y-45186600D02*
X191689600Y-42845600D01*
D61*
X174752000Y-75946000D02*
X181356000Y-75946000D01*
X181356000Y-75946000D02*
X182372000Y-76962000D01*
D57*
X191689600Y-42845600D02*
X191008000Y-42164000D01*
X187489600Y-43725600D02*
X186944000Y-43180000D01*
X187489600Y-45186600D02*
X187489600Y-43725600D01*
X176276000Y-43180000D02*
X186944000Y-43180000D01*
D61*
X184658000Y-71882000D02*
X182880000Y-71882000D01*
X182880000Y-71882000D02*
X181864000Y-70866000D01*
X181864000Y-70866000D02*
X176276000Y-70866000D01*
D57*
X185889600Y-46951600D02*
X186039990Y-47101990D01*
X185889600Y-45186600D02*
X185889600Y-46951600D01*
X193009980Y-47101990D02*
X193294000Y-47386010D01*
X186039990Y-47101990D02*
X193009980Y-47101990D01*
X184189600Y-46436600D02*
X183382200Y-47244000D01*
X184189600Y-45186600D02*
X184189600Y-46436600D01*
X183382200Y-47244000D02*
X178816000Y-47244000D01*
X315214000Y-82296000D02*
X316484000Y-82296000D01*
X324612000Y-84582000D02*
X326771000Y-82423000D01*
X318791000Y-152294000D02*
X318770000Y-152273000D01*
X318770000Y-84582000D02*
X324612000Y-84582000D01*
X321462400Y-152294000D02*
X318791000Y-152294000D01*
X326771000Y-82423000D02*
X330581000Y-82423000D01*
X316484000Y-82296000D02*
X318770000Y-84582000D01*
X229870000Y-190246000D02*
X227912000Y-190246000D01*
X231100000Y-189016000D02*
X229870000Y-190246000D01*
X233680000Y-189016000D02*
X231100000Y-189016000D01*
X273812000Y-46990000D02*
X292862000Y-46990000D01*
X271018000Y-46990000D02*
X273812000Y-46990000D01*
X272796000Y-51816000D02*
X275082000Y-49530000D01*
X269494000Y-90424000D02*
X275082000Y-90424000D01*
X275336000Y-49276000D02*
X295402000Y-49276000D01*
X271018000Y-51816000D02*
X272796000Y-51816000D01*
X275082000Y-49530000D02*
X275336000Y-49276000D01*
X57404000Y-165862000D02*
X70612000Y-165862000D01*
X103886000Y-136144000D02*
X98552000Y-136144000D01*
X98552000Y-136144000D02*
X97536000Y-135128000D01*
X45466000Y-164338000D02*
X55880000Y-164338000D01*
X118872000Y-73660000D02*
X114808000Y-73660000D01*
X83820000Y-130048000D02*
X70612000Y-130048000D01*
X103886000Y-59944000D02*
X114808000Y-59944000D01*
X55880000Y-164338000D02*
X57404000Y-165862000D01*
X97536000Y-135128000D02*
X88900000Y-135128000D01*
X70612000Y-151638000D02*
X80010000Y-151638000D01*
X88900000Y-135128000D02*
X83820000Y-130048000D01*
X75184000Y-34798000D02*
X69342000Y-34798000D01*
D61*
X52578000Y-152908000D02*
X77216000Y-152908000D01*
X51816000Y-153670000D02*
X36068000Y-153670000D01*
D57*
X40132000Y-62230000D02*
X63246000Y-62230000D01*
X75946000Y-34036000D02*
X75184000Y-34798000D01*
D61*
X80010000Y-154178000D02*
X78486000Y-154178000D01*
D57*
X82804000Y-30480000D02*
X82804000Y-32004000D01*
D61*
X78486000Y-154178000D02*
X77216000Y-152908000D01*
D57*
X82804000Y-32004000D02*
X80772000Y-34036000D01*
D61*
X52578000Y-152908000D02*
X51816000Y-153670000D01*
X33782000Y-88392000D02*
X36726000Y-88392000D01*
X30226000Y-88392000D02*
X33782000Y-88392000D01*
D57*
X80772000Y-34036000D02*
X75946000Y-34036000D01*
D61*
X226060000Y-75184000D02*
X227838000Y-73406000D01*
X237744000Y-182880000D02*
X256286000Y-182880000D01*
X227838000Y-73406000D02*
X230378000Y-73406000D01*
X239014000Y-179070000D02*
X251460000Y-179070000D01*
X224028000Y-71120000D02*
X231394000Y-71120000D01*
X223520000Y-71628000D02*
X224028000Y-71120000D01*
X223520000Y-72644000D02*
X223520000Y-71628000D01*
D57*
X220980000Y-190246000D02*
X219710000Y-191516000D01*
X223012000Y-190246000D02*
X220980000Y-190246000D01*
X219710000Y-191516000D02*
X217170000Y-191516000D01*
X236474000Y-167894000D02*
X283210000Y-167894000D01*
X287528000Y-172212000D02*
X310134000Y-172212000D01*
X87630000Y-82296000D02*
X94488000Y-82296000D01*
X312166000Y-170180000D02*
X318008000Y-170180000D01*
X321462400Y-118474000D02*
X315485000Y-118474000D01*
X98806000Y-88900000D02*
X94488000Y-88900000D01*
X175260000Y-89662000D02*
X176276000Y-90678000D01*
X86106000Y-83820000D02*
X87630000Y-82296000D01*
X198628000Y-109220000D02*
X228854000Y-109220000D01*
X176276000Y-90678000D02*
X198628000Y-90678000D01*
X283210000Y-167894000D02*
X287528000Y-172212000D01*
X160274000Y-89662000D02*
X175260000Y-89662000D01*
X315485000Y-118474000D02*
X315468000Y-118491000D01*
X98806000Y-88900000D02*
X159512000Y-88900000D01*
X310134000Y-172212000D02*
X312166000Y-170180000D01*
X159512000Y-88900000D02*
X160274000Y-89662000D01*
X182785064Y-70467001D02*
X187596999Y-70467001D01*
X180086000Y-69596000D02*
X181914063Y-69596000D01*
X188722000Y-69342000D02*
X192278000Y-69342000D01*
D61*
X195072000Y-70612000D02*
X214630000Y-70612000D01*
D57*
X187596999Y-70467001D02*
X188722000Y-69342000D01*
D61*
X192278000Y-69342000D02*
X193802000Y-69342000D01*
D57*
X181914063Y-69596000D02*
X182785064Y-70467001D01*
D61*
X193802000Y-69342000D02*
X195072000Y-70612000D01*
D57*
X205994000Y-73152000D02*
X206502000Y-72644000D01*
X192278000Y-74422000D02*
X193802000Y-74422000D01*
X180086000Y-72136000D02*
X181864000Y-72136000D01*
X188976000Y-74422000D02*
X192278000Y-74422000D01*
X187706000Y-73152000D02*
X188976000Y-74422000D01*
X193802000Y-74422000D02*
X195072000Y-73152000D01*
X181864000Y-72136000D02*
X182880000Y-73152000D01*
X206502000Y-72644000D02*
X213360000Y-72644000D01*
X182880000Y-73152000D02*
X187706000Y-73152000D01*
X195072000Y-73152000D02*
X205994000Y-73152000D01*
X349758000Y-167132000D02*
X345186000Y-167132000D01*
X341884000Y-170434000D02*
X339090000Y-170434000D01*
X332486000Y-175514000D02*
X331470000Y-175514000D01*
X354838000Y-167132000D02*
X349758000Y-167132000D01*
X337566000Y-170434000D02*
X332486000Y-175514000D01*
X339090000Y-170434000D02*
X337566000Y-170434000D01*
X345186000Y-167132000D02*
X341884000Y-170434000D01*
X276352000Y-81534000D02*
X279654000Y-81534000D01*
X279654000Y-81534000D02*
X279717500Y-81597500D01*
X272034000Y-85344000D02*
X276352000Y-85344000D01*
D61*
X165862000Y-131318000D02*
X167132000Y-130048000D01*
X159512000Y-131318000D02*
X164592000Y-131318000D01*
X167132000Y-130048000D02*
X180848000Y-130048000D01*
D57*
X95504000Y-39878000D02*
X85344000Y-39878000D01*
D61*
X84328000Y-142748000D02*
X68834010Y-142748000D01*
D57*
X57658000Y-143510000D02*
X59690000Y-141478000D01*
D61*
X196342000Y-86614000D02*
X212090000Y-86614000D01*
X86868000Y-145288000D02*
X84328000Y-142748000D01*
X111760000Y-161544000D02*
X159512000Y-161544000D01*
D57*
X245364000Y-106934000D02*
X247396000Y-108966000D01*
X53340000Y-143510000D02*
X57658000Y-143510000D01*
D61*
X107950000Y-157734000D02*
X111760000Y-161544000D01*
X64770000Y-141478000D02*
X67564010Y-141478000D01*
X97028000Y-145288000D02*
X86868000Y-145288000D01*
X68834010Y-142748000D02*
X67564010Y-141478000D01*
X196342000Y-86614000D02*
X194564000Y-88392000D01*
D57*
X180848000Y-114554000D02*
X188468000Y-106934000D01*
X50800000Y-143510000D02*
X53340000Y-143510000D01*
D61*
X213360000Y-85344000D02*
X212090000Y-86614000D01*
X164592000Y-131318000D02*
X165862000Y-131318000D01*
X97028000Y-157734000D02*
X107950000Y-157734000D01*
D57*
X82042000Y-58420000D02*
X75184000Y-65278000D01*
X50292000Y-104394000D02*
X67056000Y-104394000D01*
X85344000Y-58420000D02*
X82042000Y-58420000D01*
X247396000Y-108966000D02*
X294132000Y-108966000D01*
X359410000Y-96266000D02*
X362204000Y-96266000D01*
X50800000Y-138430000D02*
X53340000Y-138430000D01*
X75184000Y-65278000D02*
X55118000Y-65278000D01*
X355092000Y-89154000D02*
X359410000Y-89154000D01*
D61*
X194564000Y-88392000D02*
X180848000Y-88392000D01*
D57*
X59690000Y-141478000D02*
X64770000Y-141478000D01*
X294132000Y-89916000D02*
X354330000Y-89916000D01*
X188468000Y-106934000D02*
X245364000Y-106934000D01*
X354330000Y-89916000D02*
X355092000Y-89154000D01*
X280162000Y-42672000D02*
X283972000Y-38862000D01*
X283972000Y-38862000D02*
X283972000Y-38354000D01*
X280162000Y-44069000D02*
X280162000Y-42672000D01*
X356997000Y-77851000D02*
X358775000Y-77851000D01*
X360172000Y-76454000D02*
X362458000Y-76454000D01*
X349758000Y-71501000D02*
X352298000Y-71501000D01*
X358775000Y-77851000D02*
X360172000Y-76454000D01*
X344170000Y-58420000D02*
X348234000Y-58420000D01*
X340868000Y-68326000D02*
X341630000Y-67564000D01*
X341630000Y-60960000D02*
X344170000Y-58420000D01*
X341630000Y-67564000D02*
X341630000Y-60960000D01*
X349250000Y-57404000D02*
X349250000Y-53926000D01*
X348234000Y-58420000D02*
X349250000Y-57404000D01*
X336510000Y-68326000D02*
X340868000Y-68326000D01*
D61*
X99060000Y-141478000D02*
X103124000Y-141478000D01*
X75438000Y-136398000D02*
X76708000Y-135128000D01*
X89154000Y-140208000D02*
X97790000Y-140208000D01*
X97790000Y-140208000D02*
X99060000Y-141478000D01*
X72390000Y-136398000D02*
X64770000Y-136398000D01*
X160782000Y-128778000D02*
X164592000Y-128778000D01*
X103124000Y-156464000D02*
X160782000Y-156464000D01*
X72390000Y-136398000D02*
X75438000Y-136398000D01*
X84074000Y-135128000D02*
X89154000Y-140208000D01*
X76708000Y-135128000D02*
X84074000Y-135128000D01*
D57*
X99822000Y-51816000D02*
X102870000Y-51816000D01*
X86106000Y-88900000D02*
X87376000Y-88900000D01*
X89916000Y-91440000D02*
X91186000Y-91440000D01*
X96774000Y-92710000D02*
X102870000Y-92710000D01*
X105664000Y-33528000D02*
X108204000Y-33528000D01*
X87376000Y-88900000D02*
X89916000Y-91440000D01*
X91186000Y-91440000D02*
X95504000Y-91440000D01*
X95504000Y-91440000D02*
X96774000Y-92710000D01*
X344678000Y-59436000D02*
X350012000Y-59436000D01*
X342392000Y-72390000D02*
X342392000Y-61722000D01*
X336510000Y-73025000D02*
X341757000Y-73025000D01*
X341757000Y-73025000D02*
X342392000Y-72390000D01*
X342392000Y-61722000D02*
X344678000Y-59436000D01*
X350520000Y-58928000D02*
X350520000Y-53926000D01*
X350012000Y-59436000D02*
X350520000Y-58928000D01*
X116078000Y-59944000D02*
X132334000Y-59944000D01*
X132334000Y-67310000D02*
X148082000Y-67310000D01*
X149352000Y-68580000D02*
X148082000Y-67310000D01*
X153670000Y-68580000D02*
X149352000Y-68580000D01*
X116078000Y-84074000D02*
X115062000Y-84074000D01*
X117602000Y-82550000D02*
X116078000Y-84074000D01*
X146050000Y-81280000D02*
X144018000Y-81280000D01*
X144018000Y-81280000D02*
X142748000Y-82550000D01*
X115062000Y-95504000D02*
X119126000Y-95504000D01*
X142748000Y-82550000D02*
X117602000Y-82550000D01*
X113538000Y-114808000D02*
X140970000Y-114808000D01*
X142240000Y-80010000D02*
X156972000Y-80010000D01*
X156972000Y-71120000D02*
X153670000Y-71120000D01*
X111506000Y-95504000D02*
X113538000Y-95504000D01*
X153670000Y-73660000D02*
X150368000Y-73660000D01*
X116078000Y-91186000D02*
X116332000Y-91440000D01*
X116078000Y-100584000D02*
X111506000Y-100584000D01*
X150368000Y-73660000D02*
X149098000Y-74930000D01*
X149098000Y-74930000D02*
X139700000Y-74930000D01*
X116332000Y-91440000D02*
X139700000Y-91440000D01*
X150876000Y-76200000D02*
X149606000Y-77470000D01*
X149606000Y-77470000D02*
X138684000Y-77470000D01*
X153670000Y-76200000D02*
X150876000Y-76200000D01*
X117094000Y-94234000D02*
X138684000Y-94234000D01*
X117094000Y-103124000D02*
X111506000Y-103124000D01*
X100584000Y-60452000D02*
X82804000Y-60452000D01*
X141986000Y-61976000D02*
X106172000Y-61976000D01*
X64770000Y-113538000D02*
X63246000Y-112014000D01*
X63246000Y-112014000D02*
X47244000Y-112014000D01*
X146050000Y-71120000D02*
X141986000Y-71120000D01*
X102108000Y-61976000D02*
X100584000Y-60452000D01*
X82804000Y-60452000D02*
X75946000Y-67310000D01*
X106172000Y-61976000D02*
X102108000Y-61976000D01*
X75946000Y-67310000D02*
X53848000Y-67310000D01*
X159258000Y-81280000D02*
X161798000Y-78740000D01*
X153670000Y-81280000D02*
X159258000Y-81280000D01*
X161798000Y-78740000D02*
X164592000Y-78740000D01*
X131572000Y-90678000D02*
X153670000Y-90678000D01*
X119126000Y-98044000D02*
X131572000Y-98044000D01*
X106934000Y-141478000D02*
X113030000Y-141478000D01*
X115570000Y-140208000D02*
X114300000Y-140208000D01*
X114300000Y-140208000D02*
X113030000Y-141478000D01*
X111506000Y-105664000D02*
X115570000Y-105664000D01*
X116840000Y-140208000D02*
X125984000Y-140208000D01*
X125984000Y-140208000D02*
X127254000Y-141478000D01*
X127254000Y-141478000D02*
X134366000Y-141478000D01*
X174498000Y-53086000D02*
X219456000Y-53086000D01*
D61*
X264160000Y-76454000D02*
X239776000Y-76454000D01*
X239776000Y-90424000D02*
X226060000Y-90424000D01*
D57*
X169164000Y-47752000D02*
X174498000Y-53086000D01*
D61*
X264414000Y-76200000D02*
X264160000Y-76454000D01*
D57*
X220472000Y-54102000D02*
X248158000Y-54102000D01*
X147828000Y-47752000D02*
X169164000Y-47752000D01*
X219456000Y-53086000D02*
X220472000Y-54102000D01*
D61*
X287020000Y-174752000D02*
X318261994Y-174752000D01*
X264414000Y-75184000D02*
X264414000Y-76200000D01*
D57*
X263144000Y-59944000D02*
X248158010Y-59944000D01*
D61*
X264160000Y-169926000D02*
X282194000Y-169926000D01*
X318262000Y-185674000D02*
X331470000Y-185674000D01*
X282194000Y-169926000D02*
X287020000Y-174752000D01*
D57*
X161798000Y-93218000D02*
X157480000Y-93218000D01*
X142240000Y-94234000D02*
X140716000Y-95758000D01*
X168656000Y-94234000D02*
X162814000Y-94234000D01*
X103886000Y-185420000D02*
X106680000Y-185420000D01*
X156464000Y-94234000D02*
X142240000Y-94234000D01*
X140716000Y-95758000D02*
X138684012Y-95758000D01*
X138683994Y-160528000D02*
X138684000Y-160527994D01*
X157480000Y-93218000D02*
X156464000Y-94234000D01*
X162814000Y-94234000D02*
X161798000Y-93218000D01*
X106680000Y-185420000D02*
X107950000Y-184150000D01*
X107950000Y-184150000D02*
X114046000Y-184150000D01*
X168656000Y-71120000D02*
X172212000Y-71120000D01*
X114046000Y-160528000D02*
X138683994Y-160528000D01*
X247142000Y-168910000D02*
X282702000Y-168910000D01*
X286766000Y-172974000D02*
X331470000Y-172974000D01*
X206248000Y-108204000D02*
X244348000Y-108204000D01*
X164592000Y-83820000D02*
X165862000Y-82550000D01*
X181356000Y-82550000D02*
X182372000Y-81534000D01*
X182372000Y-81534000D02*
X206248000Y-81534000D01*
X165862000Y-82550000D02*
X181356000Y-82550000D01*
X282702000Y-168910000D02*
X286766000Y-172974000D01*
X167386000Y-72390000D02*
X96520000Y-72390000D01*
X168656000Y-73660000D02*
X167386000Y-72390000D01*
X176022000Y-95504000D02*
X172212000Y-95504000D01*
X172212000Y-73660000D02*
X176022000Y-73660000D01*
X96520000Y-68580000D02*
X98806000Y-68580000D01*
X172212000Y-73660000D02*
X168656000Y-73660000D01*
X270764000Y-92710000D02*
X174752000Y-92710000D01*
X172212000Y-76200000D02*
X173482000Y-77470000D01*
X173482000Y-77470000D02*
X174752000Y-77470000D01*
X150114000Y-133858000D02*
X146050000Y-133858000D01*
X172212000Y-78740000D02*
X177038000Y-78740000D01*
X177038000Y-135128000D02*
X151384000Y-135128000D01*
X151384000Y-135128000D02*
X150114000Y-133858000D01*
X178308000Y-128778000D02*
X172212000Y-128778000D01*
X172212000Y-81280000D02*
X178308000Y-81280000D01*
X302514000Y-91440000D02*
X342138000Y-91440000D01*
X351790000Y-107696000D02*
X353060000Y-106426000D01*
X172212000Y-83820000D02*
X179324000Y-83820000D01*
X299720000Y-94234000D02*
X302514000Y-91440000D01*
X353060000Y-106426000D02*
X362204000Y-106426000D01*
X179324000Y-94234000D02*
X299720000Y-94234000D01*
X342138000Y-107696000D02*
X351790000Y-107696000D01*
D61*
X193802000Y-86868000D02*
X196596000Y-84074000D01*
X172212000Y-86360000D02*
X180086000Y-86360000D01*
X212090000Y-84074000D02*
X213360000Y-82804000D01*
X196596000Y-84074000D02*
X212090000Y-84074000D01*
X180086000Y-86360000D02*
X180594000Y-86868000D01*
X180594000Y-86868000D02*
X193802000Y-86868000D01*
X316611000Y-137160000D02*
X245364000Y-137160000D01*
X172212000Y-138938000D02*
X173736000Y-138938000D01*
X317344000Y-107794000D02*
X317246000Y-107696000D01*
X321462400Y-107794000D02*
X317344000Y-107794000D01*
X181356000Y-146558000D02*
X213614000Y-146558000D01*
X213614000Y-146558000D02*
X218186000Y-151130000D01*
X218186000Y-151130000D02*
X245364000Y-151130000D01*
X173736000Y-138938000D02*
X181356000Y-146558000D01*
X180340000Y-147574000D02*
X212598000Y-147574000D01*
X212598000Y-147574000D02*
X217170000Y-152146000D01*
X243840000Y-138938000D02*
X317753999Y-138938000D01*
X172212000Y-141478000D02*
X174244000Y-141478000D01*
X174244000Y-141478000D02*
X180340000Y-147574000D01*
X217170000Y-152146000D02*
X243840000Y-152146000D01*
X321462400Y-109574000D02*
X317854000Y-109574000D01*
X299348000Y-125594000D02*
X302361600Y-125594000D01*
X279400000Y-129794000D02*
X280670000Y-128524000D01*
X280670000Y-128524000D02*
X283972000Y-128524000D01*
X254000000Y-128524000D02*
X255270000Y-129794000D01*
X283972000Y-128524000D02*
X286131000Y-128524000D01*
X250698000Y-128524000D02*
X254000000Y-128524000D01*
X267970000Y-128524000D02*
X271018000Y-128524000D01*
X271018000Y-128524000D02*
X272288000Y-129794000D01*
X272288000Y-129794000D02*
X279400000Y-129794000D01*
X294259000Y-125857000D02*
X299085000Y-125857000D01*
X287274000Y-129667000D02*
X294259000Y-129667000D01*
X262890000Y-129794000D02*
X264160000Y-128524000D01*
X264160000Y-128524000D02*
X267970000Y-128524000D01*
X299085000Y-125857000D02*
X299348000Y-125594000D01*
X255270000Y-129794000D02*
X262890000Y-129794000D01*
X286131000Y-128524000D02*
X287274000Y-129667000D01*
X288290000Y-144780000D02*
X291719000Y-144780000D01*
X287020000Y-143510000D02*
X288290000Y-144780000D01*
X280670000Y-112014000D02*
X287020000Y-112014000D01*
X264160000Y-112014000D02*
X271018000Y-112014000D01*
X262890000Y-113284000D02*
X264160000Y-112014000D01*
X264160000Y-143510000D02*
X271272000Y-143510000D01*
X287020000Y-112014000D02*
X288290000Y-113284000D01*
X272542000Y-144780000D02*
X275717000Y-144780000D01*
X275590000Y-113284000D02*
X279400000Y-113284000D01*
X258445000Y-144780000D02*
X262890000Y-144780000D01*
X280670000Y-143510000D02*
X287020000Y-143510000D01*
X279400000Y-113284000D02*
X280670000Y-112014000D01*
X272288000Y-113284000D02*
X275590000Y-113284000D01*
X262890000Y-144780000D02*
X264160000Y-143510000D01*
X279400000Y-144780000D02*
X280670000Y-143510000D01*
X302361600Y-141614000D02*
X295411000Y-141614000D01*
X258318000Y-113284000D02*
X262890000Y-113284000D01*
X271272000Y-143510000D02*
X272542000Y-144780000D01*
X295402000Y-113284000D02*
X291592000Y-113284000D01*
X275717000Y-144780000D02*
X279400000Y-144780000D01*
X271018000Y-112014000D02*
X272288000Y-113284000D01*
X288290000Y-113284000D02*
X291592000Y-113284000D01*
X291719000Y-144780000D02*
X295402000Y-144780000D01*
X281051000Y-157480000D02*
X284099000Y-157480000D01*
X283972000Y-125984000D02*
X281051000Y-125984000D01*
X288162999Y-158749999D02*
X296164000Y-158749999D01*
X286893000Y-157480000D02*
X288162999Y-158749999D01*
X296164000Y-154051000D02*
X302338600Y-154051000D01*
X284099000Y-157480000D02*
X286893000Y-157480000D01*
X302338600Y-154051000D02*
X302361600Y-154074000D01*
X288290000Y-115824000D02*
X291592000Y-115824000D01*
X280670000Y-146050000D02*
X287020000Y-146050000D01*
X279400000Y-115824000D02*
X280670000Y-114554000D01*
X287020000Y-114554000D02*
X288290000Y-115824000D01*
X300239000Y-143394000D02*
X300228000Y-143383000D01*
X280670000Y-114554000D02*
X287020000Y-114554000D01*
X275717000Y-147320000D02*
X279400000Y-147320000D01*
X300979000Y-143394000D02*
X302361600Y-143394000D01*
X272288000Y-115824000D02*
X275590000Y-115824000D01*
X299328000Y-143394000D02*
X300979000Y-143394000D01*
X287020000Y-146050000D02*
X288290000Y-147320000D01*
X288290000Y-147320000D02*
X291719000Y-147320000D01*
X291719000Y-147320000D02*
X295402000Y-147320000D01*
X271018000Y-114554000D02*
X272288000Y-115824000D01*
X264160000Y-146050000D02*
X271272000Y-146050000D01*
X272542000Y-147320000D02*
X275717000Y-147320000D01*
X262890000Y-147320000D02*
X264160000Y-146050000D01*
X300979000Y-143394000D02*
X300239000Y-143394000D01*
X262890000Y-115824000D02*
X264160000Y-114554000D01*
X275590000Y-115824000D02*
X279400000Y-115824000D01*
X264160000Y-114554000D02*
X271018000Y-114554000D01*
X258445000Y-147320000D02*
X262890000Y-147320000D01*
X279400000Y-147320000D02*
X280670000Y-146050000D01*
X271272000Y-146050000D02*
X272542000Y-147320000D01*
X300228000Y-115824000D02*
X291592000Y-115824000D01*
X258318000Y-115824000D02*
X262890000Y-115824000D01*
X295402000Y-147320000D02*
X299328000Y-143394000D01*
X267970000Y-123444000D02*
X271018000Y-123444000D01*
X271018000Y-123444000D02*
X272288000Y-124714000D01*
X250698000Y-123444000D02*
X254000000Y-123444000D01*
X280670000Y-123444000D02*
X283972000Y-123444000D01*
X255270000Y-124714000D02*
X262890000Y-124714000D01*
X283972000Y-123444000D02*
X287020000Y-123444000D01*
X298080000Y-123814000D02*
X302361600Y-123814000D01*
X264160000Y-123444000D02*
X267970000Y-123444000D01*
X262890000Y-124714000D02*
X264160000Y-123444000D01*
X288290000Y-124714000D02*
X297180000Y-124714000D01*
X254000000Y-123444000D02*
X255270000Y-124714000D01*
X279400000Y-124714000D02*
X280670000Y-123444000D01*
X297180000Y-124714000D02*
X298080000Y-123814000D01*
X272288000Y-124714000D02*
X279400000Y-124714000D01*
X287020000Y-123444000D02*
X288290000Y-124714000D01*
X262890000Y-118364000D02*
X264160000Y-117094000D01*
X272288000Y-118364000D02*
X275590000Y-118364000D01*
X263144000Y-149860000D02*
X264414000Y-148590000D01*
X287020000Y-117094000D02*
X288290000Y-118364000D01*
X264160000Y-117094000D02*
X271018000Y-117094000D01*
X299326000Y-145174000D02*
X302361600Y-145174000D01*
X275717000Y-149860000D02*
X279527000Y-149860000D01*
X271018000Y-148590000D02*
X272288000Y-149860000D01*
X280797000Y-148590000D02*
X287020000Y-148590000D01*
X287020000Y-148590000D02*
X288290000Y-149860000D01*
X275590000Y-118364000D02*
X279400000Y-118364000D01*
X288290000Y-118364000D02*
X291592000Y-118364000D01*
X264414000Y-148590000D02*
X271018000Y-148590000D01*
X258445000Y-149860000D02*
X263144000Y-149860000D01*
X272288000Y-149860000D02*
X275717000Y-149860000D01*
X288290000Y-149860000D02*
X291719000Y-149860000D01*
X294640000Y-149860000D02*
X299326000Y-145174000D01*
X279400000Y-118364000D02*
X280670000Y-117094000D01*
X298958000Y-118364000D02*
X291592000Y-118364000D01*
X271018000Y-117094000D02*
X272288000Y-118364000D01*
X279527000Y-149860000D02*
X280797000Y-148590000D01*
X291719000Y-149860000D02*
X294640000Y-149860000D01*
X258318000Y-118364000D02*
X262890000Y-118364000D01*
X280670000Y-117094000D02*
X287020000Y-117094000D01*
X272288000Y-153670000D02*
X279400000Y-153670000D01*
X289788600Y-135178800D02*
X296316400Y-135178800D01*
X279400000Y-153670000D02*
X280670000Y-152400000D01*
X254000000Y-152400000D02*
X255270000Y-153670000D01*
X296316400Y-135178800D02*
X297002200Y-134493000D01*
X273507201Y-135178801D02*
X289788600Y-135178800D01*
X255270000Y-122174000D02*
X254000000Y-120904000D01*
X280670000Y-120904000D02*
X283972000Y-120904000D01*
X255270000Y-153670000D02*
X262890000Y-153670000D01*
X271018000Y-152400000D02*
X272288000Y-153670000D01*
X268097000Y-152400000D02*
X271018000Y-152400000D01*
X284099000Y-152400000D02*
X287210500Y-152400000D01*
X267970000Y-120904000D02*
X264160000Y-120904000D01*
X264160000Y-152400000D02*
X268097000Y-152400000D01*
X267970000Y-120904000D02*
X271018000Y-120904000D01*
X280670000Y-152400000D02*
X284099000Y-152400000D01*
X288696398Y-135178800D02*
X289788600Y-135178800D01*
X297002200Y-134493000D02*
X302360600Y-134493000D01*
X254000000Y-120904000D02*
X250698000Y-120904000D01*
X288544000Y-153733500D02*
X288671000Y-153733500D01*
X264160000Y-120904000D02*
X262890000Y-122174000D01*
X273494500Y-122174000D02*
X279400000Y-122174000D01*
X262890000Y-153670000D02*
X264160000Y-152400000D01*
X279400000Y-122174000D02*
X280670000Y-120904000D01*
X262890000Y-122174000D02*
X255270000Y-122174000D01*
X302360600Y-134493000D02*
X302361600Y-134494000D01*
X287210500Y-152400000D02*
X288544000Y-153733500D01*
X271018000Y-120904000D02*
X272288000Y-122174000D01*
X250825000Y-152400000D02*
X254000000Y-152400000D01*
X272288000Y-122174000D02*
X273494500Y-122174000D01*
D57*
X280670000Y-119634000D02*
X287020000Y-119634000D01*
X279400000Y-120904000D02*
X280670000Y-119634000D01*
X258318000Y-120904000D02*
X259461000Y-120904000D01*
X271018000Y-151130000D02*
X272288000Y-152400000D01*
X291719000Y-152400000D02*
X294894016Y-152400000D01*
X280670000Y-151130000D02*
X287020000Y-151130000D01*
X259461000Y-120904000D02*
X256413000Y-120904000D01*
X287020000Y-151130000D02*
X288290000Y-152400000D01*
X264160000Y-119634000D02*
X271018000Y-119634000D01*
X271018000Y-119634000D02*
X272288000Y-120904000D01*
X275590000Y-120904000D02*
X279400000Y-120904000D01*
X256413000Y-120904000D02*
X256286000Y-120777000D01*
X256286000Y-152400000D02*
X258445000Y-152400000D01*
X258445000Y-152400000D02*
X262890000Y-152400000D01*
X259461000Y-120904000D02*
X262890000Y-120904000D01*
X262890000Y-120904000D02*
X264160000Y-119634000D01*
X262890000Y-152400000D02*
X264160000Y-151130000D01*
X272288000Y-152400000D02*
X275717000Y-152400000D01*
X294921000Y-157634000D02*
X294894000Y-157607000D01*
X288290000Y-152400000D02*
X291719000Y-152400000D01*
X272288000Y-120904000D02*
X275590000Y-120904000D01*
X279400000Y-152400000D02*
X280670000Y-151130000D01*
X275717000Y-152400000D02*
X279400000Y-152400000D01*
X302361600Y-157634000D02*
X294921000Y-157634000D01*
X287020000Y-119634000D02*
X288290000Y-120904000D01*
X288290000Y-120904000D02*
X291592000Y-120904000D01*
X264160000Y-151130000D02*
X271018000Y-151130000D01*
D61*
X255270000Y-119634000D02*
X262890000Y-119634000D01*
X250825000Y-149860000D02*
X254000000Y-149860000D01*
X278511000Y-119634000D02*
X279400000Y-119634000D01*
X271018000Y-118364000D02*
X272288000Y-119634000D01*
X279400000Y-151130000D02*
X280670000Y-149860000D01*
X262890000Y-151130000D02*
X264160000Y-149860000D01*
X282909598Y-136274000D02*
X282906598Y-136271000D01*
X280670000Y-118364000D02*
X283972000Y-118364000D01*
X272288000Y-119634000D02*
X278511000Y-119634000D01*
X278511000Y-151130000D02*
X279400000Y-151130000D01*
X262890000Y-119634000D02*
X264160000Y-118364000D01*
X268097000Y-149860000D02*
X271018000Y-149860000D01*
X271018000Y-149860000D02*
X272288000Y-151130000D01*
X255270000Y-151130000D02*
X262890000Y-151130000D01*
X250698000Y-118364000D02*
X254000000Y-118364000D01*
X264160000Y-118364000D02*
X267970000Y-118364000D01*
X254000000Y-149860000D02*
X255270000Y-151130000D01*
X302361600Y-136274000D02*
X282909598Y-136274000D01*
X267970000Y-118364000D02*
X271018000Y-118364000D01*
X264160000Y-149860000D02*
X268097000Y-149860000D01*
X280670000Y-149860000D02*
X284099000Y-149860000D01*
X272288000Y-151130000D02*
X278511000Y-151130000D01*
X254000000Y-118364000D02*
X255270000Y-119634000D01*
X279400000Y-119634000D02*
X280670000Y-118364000D01*
X282906598Y-136271000D02*
X278511000Y-136271000D01*
X280670000Y-153670000D02*
X287020000Y-153670000D01*
X259461000Y-154940000D02*
X260604000Y-154940000D01*
X262890000Y-154940000D02*
X264160000Y-153670000D01*
X291719000Y-154940000D02*
X304800000Y-154940000D01*
X287020000Y-153670000D02*
X288290000Y-154940000D01*
X288290000Y-154940000D02*
X291719000Y-154940000D01*
X260604000Y-123444000D02*
X262890000Y-123444000D01*
X302471600Y-148844000D02*
X302361600Y-148734000D01*
X262890000Y-123444000D02*
X264160000Y-122174000D01*
X304800000Y-148844000D02*
X302471600Y-148844000D01*
X279463500Y-123444000D02*
X280733500Y-122174000D01*
X272288000Y-154940000D02*
X275717000Y-154940000D01*
X287020000Y-122174000D02*
X288290000Y-123444000D01*
X272288000Y-123444000D02*
X275590000Y-123444000D01*
X275717000Y-154940000D02*
X279400000Y-154940000D01*
X271018000Y-122174000D02*
X272288000Y-123444000D01*
X279400000Y-154940000D02*
X280670000Y-153670000D01*
X264160000Y-153670000D02*
X271018000Y-153670000D01*
X259461000Y-154940000D02*
X262890000Y-154940000D01*
X288290000Y-123444000D02*
X291592000Y-123444000D01*
X264160000Y-122174000D02*
X271018000Y-122174000D01*
X258318000Y-123444000D02*
X260604000Y-123444000D01*
X280733500Y-122174000D02*
X287020000Y-122174000D01*
X271018000Y-153670000D02*
X272288000Y-154940000D01*
X258445000Y-154940000D02*
X259461000Y-154940000D01*
X275590000Y-123444000D02*
X279463500Y-123444000D01*
X280797000Y-115824000D02*
X282067000Y-115824000D01*
X279400000Y-148590000D02*
X280670000Y-147320000D01*
X267970000Y-115824000D02*
X271018000Y-115824000D01*
X279527000Y-117094000D02*
X280797000Y-115824000D01*
X282067000Y-115824000D02*
X283972000Y-115824000D01*
X255270000Y-148590000D02*
X262890000Y-148590000D01*
X255270000Y-117094000D02*
X262890000Y-117094000D01*
X280670000Y-147320000D02*
X282067000Y-147320000D01*
X250825000Y-147320000D02*
X254000000Y-147320000D01*
X271018000Y-115824000D02*
X272288000Y-117094000D01*
X272288000Y-117094000D02*
X279527000Y-117094000D01*
X264160000Y-147320000D02*
X268097000Y-147320000D01*
X250698000Y-115824000D02*
X254000000Y-115824000D01*
X264160000Y-115824000D02*
X267970000Y-115824000D01*
X271272000Y-147320000D02*
X272542000Y-148590000D01*
X262890000Y-148590000D02*
X264160000Y-147320000D01*
X302361600Y-138054000D02*
X282072000Y-138054000D01*
X254000000Y-115824000D02*
X255270000Y-117094000D01*
X282072000Y-138054000D02*
X282067000Y-138049000D01*
X282067000Y-147320000D02*
X284099000Y-147320000D01*
X262890000Y-117094000D02*
X264160000Y-115824000D01*
X268097000Y-147320000D02*
X271272000Y-147320000D01*
X272542000Y-148590000D02*
X279400000Y-148590000D01*
X254000000Y-147320000D02*
X255270000Y-148590000D01*
X294399000Y-122034000D02*
X294259000Y-122174000D01*
X294259000Y-122174000D02*
X288417000Y-122174000D01*
X262953500Y-125984000D02*
X264223500Y-124714000D01*
X279400000Y-125984000D02*
X280670000Y-124714000D01*
X288290000Y-125984000D02*
X288417000Y-125984000D01*
X302361600Y-122034000D02*
X294399000Y-122034000D01*
X275590000Y-125984000D02*
X279400000Y-125984000D01*
X272034000Y-125984000D02*
X275590000Y-125984000D01*
X258318000Y-125984000D02*
X262953500Y-125984000D01*
X280670000Y-124714000D02*
X287020000Y-124714000D01*
X264223500Y-124714000D02*
X270764000Y-124714000D01*
X288417000Y-125984000D02*
X291592000Y-125984000D01*
X270764000Y-124714000D02*
X272034000Y-125984000D01*
X287020000Y-124714000D02*
X288290000Y-125984000D01*
X250825000Y-144780000D02*
X254000000Y-144780000D01*
X270256000Y-139827000D02*
X302354600Y-139827000D01*
X270256000Y-139827000D02*
X270129000Y-139700000D01*
X254000000Y-113284000D02*
X255270000Y-114554000D01*
X268097000Y-144780000D02*
X270129000Y-144780000D01*
X272288000Y-114554000D02*
X279400000Y-114554000D01*
X264160000Y-113284000D02*
X267970000Y-113284000D01*
X267970000Y-113284000D02*
X270129000Y-113284000D01*
X270129000Y-144780000D02*
X271272000Y-144780000D01*
X280670000Y-144780000D02*
X284099000Y-144780000D01*
X254000000Y-144780000D02*
X255270000Y-146050000D01*
X280670000Y-113284000D02*
X283972000Y-113284000D01*
X302354600Y-139827000D02*
X302361600Y-139834000D01*
X250698000Y-113284000D02*
X254000000Y-113284000D01*
X270129000Y-113284000D02*
X271018000Y-113284000D01*
X271018000Y-113284000D02*
X272288000Y-114554000D01*
X255270000Y-146050000D02*
X262890000Y-146050000D01*
X279400000Y-114554000D02*
X280670000Y-113284000D01*
X262890000Y-146050000D02*
X264160000Y-144780000D01*
X271272000Y-144780000D02*
X272542000Y-146050000D01*
X272542000Y-146050000D02*
X279400000Y-146050000D01*
X264160000Y-144780000D02*
X268097000Y-144780000D01*
X255270000Y-114554000D02*
X262890000Y-114554000D01*
X279400000Y-146050000D02*
X280670000Y-144780000D01*
X262890000Y-114554000D02*
X264160000Y-113284000D01*
X288290000Y-128524000D02*
X289560000Y-128524000D01*
X280701750Y-127254000D02*
X287020000Y-127254000D01*
X262890000Y-128524000D02*
X264160000Y-127254000D01*
X279431750Y-128524000D02*
X280701750Y-127254000D01*
X264160000Y-127254000D02*
X271018000Y-127254000D01*
X275590000Y-128524000D02*
X279431750Y-128524000D01*
X287020000Y-127254000D02*
X288290000Y-128524000D01*
X294625000Y-120254000D02*
X294005000Y-119634000D01*
X302361600Y-120254000D02*
X294625000Y-120254000D01*
X271018000Y-127254000D02*
X272288000Y-128524000D01*
X258318000Y-128524000D02*
X262890000Y-128524000D01*
X272288000Y-128524000D02*
X275590000Y-128524000D01*
X294005000Y-119634000D02*
X289560000Y-119634000D01*
X289560000Y-128524000D02*
X291592000Y-128524000D01*
X299578000Y-146954000D02*
X302361600Y-146954000D01*
X271526000Y-110744000D02*
X272796000Y-112014000D01*
X287528000Y-142240000D02*
X288798000Y-143510000D01*
X252222000Y-110744000D02*
X254000000Y-110744000D01*
X294132000Y-150876000D02*
X295656000Y-150876000D01*
X262763000Y-143510000D02*
X264033000Y-142240000D01*
X268097000Y-142240000D02*
X271526000Y-142240000D01*
X288798000Y-143510000D02*
X294132000Y-143510000D01*
X284226000Y-142240000D02*
X287528000Y-142240000D01*
X295656000Y-150876000D02*
X299578000Y-146954000D01*
X254000000Y-110744000D02*
X255270000Y-112014000D01*
X280670000Y-142240000D02*
X284099000Y-142240000D01*
X284099000Y-142240000D02*
X284226000Y-142240000D01*
X262890000Y-112014000D02*
X264160000Y-110744000D01*
X252730000Y-142240000D02*
X254000000Y-142240000D01*
X264033000Y-142240000D02*
X268097000Y-142240000D01*
X252222000Y-110744000D02*
X252730000Y-110744000D01*
X267970000Y-110744000D02*
X271526000Y-110744000D01*
X255270000Y-143510000D02*
X262763000Y-143510000D01*
X254000000Y-142240000D02*
X255270000Y-143510000D01*
X250825000Y-142240000D02*
X252730000Y-142240000D01*
X272796000Y-143510000D02*
X279400000Y-143510000D01*
X272796000Y-112014000D02*
X279463500Y-112014000D01*
X250698000Y-110744000D02*
X252222000Y-110744000D01*
X279463500Y-112014000D02*
X280733500Y-110744000D01*
X271526000Y-142240000D02*
X272796000Y-143510000D01*
X255270000Y-112014000D02*
X262890000Y-112014000D01*
X279400000Y-143510000D02*
X280670000Y-142240000D01*
X280733500Y-110744000D02*
X283972000Y-110744000D01*
X264160000Y-110744000D02*
X267970000Y-110744000D01*
X279654000Y-162433000D02*
X280797000Y-161290000D01*
X271145000Y-157480000D02*
X272415000Y-158750000D01*
X297561000Y-152273000D02*
X302340600Y-152273000D01*
X268097000Y-157480000D02*
X271145000Y-157480000D01*
X272415000Y-158750000D02*
X278257000Y-158750000D01*
X267970000Y-125984000D02*
X265557000Y-125984000D01*
X265557000Y-157480000D02*
X268097000Y-157480000D01*
X302340600Y-152273000D02*
X302361600Y-152294000D01*
X278257000Y-162433000D02*
X279654000Y-162433000D01*
X280797000Y-161290000D02*
X297561000Y-161290000D01*
X298450000Y-164592000D02*
X254000000Y-164592000D01*
X302361600Y-155854000D02*
X298475000Y-155854000D01*
X298475000Y-155854000D02*
X298450000Y-155829000D01*
X254000000Y-157480000D02*
X250825000Y-157480000D01*
X250698000Y-125984000D02*
X254000000Y-125984000D01*
X264160000Y-160020000D02*
X268097000Y-160020000D01*
X254000000Y-160020000D02*
X255270000Y-161290000D01*
X250825000Y-160020000D02*
X254000000Y-160020000D01*
X279146000Y-161290000D02*
X280416000Y-160020000D01*
X272288000Y-161290000D02*
X279146000Y-161290000D01*
X268097000Y-160020000D02*
X271018000Y-160020000D01*
X280416000Y-160020000D02*
X284099000Y-160020000D01*
X284099000Y-160020000D02*
X286258000Y-160020000D01*
X255270000Y-161290000D02*
X262890000Y-161290000D01*
X296011600Y-133629400D02*
X287604200Y-133629400D01*
X271018000Y-160020000D02*
X272288000Y-161290000D01*
X302361600Y-132714000D02*
X296927000Y-132714000D01*
X262890000Y-161290000D02*
X264160000Y-160020000D01*
X296927000Y-132714000D02*
X296011600Y-133629400D01*
X271018000Y-154940000D02*
X272034000Y-155956000D01*
X302361600Y-130934000D02*
X297056000Y-130934000D01*
X272288000Y-156210000D02*
X279400000Y-156210000D01*
X250825000Y-154940000D02*
X254000000Y-154940000D01*
X264160000Y-154940000D02*
X268097000Y-154940000D01*
X272034000Y-155956000D02*
X272288000Y-156210000D01*
X262890000Y-156210000D02*
X264160000Y-154940000D01*
X280670000Y-154940000D02*
X284099000Y-154940000D01*
X295402000Y-132588000D02*
X286004000Y-132588000D01*
X286004000Y-132588000D02*
X284988000Y-133604000D01*
X254000000Y-154940000D02*
X255270000Y-156210000D01*
X279400000Y-156210000D02*
X280670000Y-154940000D01*
X268097000Y-154940000D02*
X271018000Y-154940000D01*
X255270000Y-156210000D02*
X262890000Y-156210000D01*
X297056000Y-130934000D02*
X295402000Y-132588000D01*
X284988000Y-133604000D02*
X272034000Y-133604000D01*
X293751000Y-156718000D02*
X306070000Y-156718000D01*
X275717000Y-157480000D02*
X279654000Y-157480000D01*
X306070000Y-129159000D02*
X302366600Y-129159000D01*
X263144000Y-157480000D02*
X264414000Y-156210000D01*
X280924000Y-156210000D02*
X287020000Y-156210000D01*
X288290000Y-157480000D02*
X291719000Y-157480000D01*
X292989000Y-157480000D02*
X293751000Y-156718000D01*
X272288000Y-157480000D02*
X275717000Y-157480000D01*
X287020000Y-156210000D02*
X288290000Y-157480000D01*
X258445000Y-157480000D02*
X263144000Y-157480000D01*
X271018000Y-156210000D02*
X272288000Y-157480000D01*
X302366600Y-129159000D02*
X302361600Y-129154000D01*
X291719000Y-157480000D02*
X292989000Y-157480000D01*
X264414000Y-156210000D02*
X271018000Y-156210000D01*
X279654000Y-157480000D02*
X280924000Y-156210000D01*
X271018000Y-158750000D02*
X272288000Y-160020000D01*
X275717000Y-160020000D02*
X279368250Y-160020000D01*
X280638250Y-158750000D02*
X287020000Y-158750000D01*
X291719000Y-160020000D02*
X297561000Y-160020000D01*
X272288000Y-160020000D02*
X275717000Y-160020000D01*
X287020000Y-158750000D02*
X288290000Y-160020000D01*
X258445000Y-160020000D02*
X262890000Y-160020000D01*
X264160000Y-158750000D02*
X271018000Y-158750000D01*
X300736000Y-163195000D02*
X307086000Y-163195000D01*
X302368600Y-127381000D02*
X302361600Y-127374000D01*
X307086000Y-127381000D02*
X302368600Y-127381000D01*
X279368250Y-160020000D02*
X280638250Y-158750000D01*
X262890000Y-160020000D02*
X264160000Y-158750000D01*
X297561000Y-160020000D02*
X300736000Y-163195000D01*
X288290000Y-160020000D02*
X291719000Y-160020000D01*
D57*
X212344000Y-178054000D02*
X221234000Y-178054000D01*
X219964000Y-160782000D02*
X231394000Y-160782000D01*
X211074000Y-154178000D02*
X218948000Y-154178000D01*
X213614000Y-155448000D02*
X221488000Y-155448000D01*
X216154000Y-156718000D02*
X224028000Y-156718000D01*
X218694000Y-157988000D02*
X226568000Y-157988000D01*
X221234000Y-159258000D02*
X225298000Y-159258000D01*
X227838000Y-148336000D02*
X220218000Y-148336000D01*
X228854000Y-147066000D02*
X217678000Y-147066000D01*
D61*
X186436000Y-144018000D02*
X196088000Y-144018000D01*
X159347001Y-127672999D02*
X187362999Y-127672999D01*
X158242000Y-128778000D02*
X159347001Y-127672999D01*
X153670000Y-128778000D02*
X158242000Y-128778000D01*
X187362999Y-127672999D02*
X187452000Y-127762000D01*
X157480000Y-132588000D02*
X215646000Y-132588000D01*
X153670000Y-131318000D02*
X156210000Y-131318000D01*
X156210000Y-131318000D02*
X157480000Y-132588000D01*
X95504000Y-160020000D02*
X106426000Y-160020000D01*
X91694000Y-121158000D02*
X95504000Y-121158000D01*
X110744000Y-164338000D02*
X137160000Y-164338000D01*
X106426000Y-160020000D02*
X110744000Y-164338000D01*
D57*
X100584000Y-166370000D02*
X124460000Y-166370000D01*
X128270000Y-170180000D02*
X129540000Y-171450000D01*
X148590000Y-171450000D02*
X149860000Y-170180000D01*
X96266000Y-165100000D02*
X99314000Y-165100000D01*
X99314000Y-165100000D02*
X100584000Y-166370000D01*
X149860000Y-170180000D02*
X152400000Y-170180000D01*
X124460000Y-170180000D02*
X128270000Y-170180000D01*
X129540000Y-171450000D02*
X148590000Y-171450000D01*
X135890000Y-172720000D02*
X138938000Y-172720000D01*
X106172000Y-175260000D02*
X107442000Y-176530000D01*
X103886000Y-175260000D02*
X106172000Y-175260000D01*
X107442000Y-176530000D02*
X135890000Y-176530000D01*
X112522000Y-172720000D02*
X113886999Y-171355001D01*
X120047001Y-171355001D02*
X120142000Y-171450000D01*
X107950000Y-172720000D02*
X106680000Y-171450000D01*
X124460000Y-175260000D02*
X120142000Y-175260000D01*
X106680000Y-171450000D02*
X100838000Y-171450000D01*
X112014000Y-172720000D02*
X107950000Y-172720000D01*
X112014000Y-172720000D02*
X112522000Y-172720000D01*
X110236000Y-172720000D02*
X112014000Y-172720000D01*
X113886999Y-171355001D02*
X120047001Y-171355001D01*
X100838000Y-182880000D02*
X96266000Y-182880000D01*
X119888000Y-172720000D02*
X117856000Y-172720000D01*
X99314000Y-175260000D02*
X100584000Y-173990000D01*
X113284000Y-173990000D02*
X114554000Y-172720000D01*
X114554000Y-172720000D02*
X117856000Y-172720000D01*
X96266000Y-175260000D02*
X99314000Y-175260000D01*
X128270000Y-173990000D02*
X121158000Y-173990000D01*
X100584000Y-173990000D02*
X113284000Y-173990000D01*
X132080000Y-172720000D02*
X129540000Y-172720000D01*
X129540000Y-172720000D02*
X128270000Y-173990000D01*
X121158000Y-173990000D02*
X119888000Y-172720000D01*
X117856000Y-180340000D02*
X121920000Y-180340000D01*
X112776000Y-179070000D02*
X99060000Y-179070000D01*
X99060000Y-172720000D02*
X96266000Y-172720000D01*
X117856000Y-180340000D02*
X114046000Y-180340000D01*
X114046000Y-180340000D02*
X112776000Y-179070000D01*
X121920000Y-172720000D02*
X124460000Y-172720000D01*
X110236000Y-180340000D02*
X112776000Y-180340000D01*
D61*
X126492000Y-177800000D02*
X124460000Y-177800000D01*
X119126000Y-181610000D02*
X126492000Y-181610000D01*
D57*
X114046000Y-181610000D02*
X119126000Y-181610000D01*
X103886000Y-182880000D02*
X105664000Y-182880000D01*
X108204000Y-180340000D02*
X110236000Y-180340000D01*
X105664000Y-182880000D02*
X108204000Y-180340000D01*
X112776000Y-180340000D02*
X114046000Y-181610000D01*
X110744000Y-117348000D02*
X99568000Y-117348000D01*
X98298000Y-116078000D02*
X91694000Y-116078000D01*
X99568000Y-117348000D02*
X98298000Y-116078000D01*
D61*
X120142000Y-184150000D02*
X127762000Y-184150000D01*
X117856000Y-177800000D02*
X120142000Y-177800000D01*
X98806000Y-118618000D02*
X91694000Y-118618000D01*
X106934000Y-158750000D02*
X98806000Y-158750000D01*
X127762000Y-162560000D02*
X110744000Y-162560000D01*
X110744000Y-162560000D02*
X106934000Y-158750000D01*
D57*
X110236000Y-175260000D02*
X112014000Y-175260000D01*
X106934000Y-121158000D02*
X112014000Y-121158000D01*
X110490000Y-119634000D02*
X113030000Y-119634000D01*
D61*
X113030004Y-185420000D02*
X113030000Y-185419996D01*
X106934000Y-118618000D02*
X109220000Y-118618000D01*
D57*
X109220000Y-118618000D02*
X109474000Y-118618000D01*
D61*
X117856000Y-185420000D02*
X113030004Y-185420000D01*
D57*
X109474000Y-118618000D02*
X110490000Y-119634000D01*
X266954000Y-84074000D02*
X290321994Y-84074000D01*
X254254000Y-66548000D02*
X297942000Y-66548000D01*
X256794000Y-62484000D02*
X292862000Y-62484000D01*
X261874000Y-61214000D02*
X296672000Y-61214000D01*
X287782000Y-60198000D02*
X268224000Y-60198000D01*
X258064000Y-63500000D02*
X300481992Y-63500000D01*
X300481992Y-63500000D02*
X300482000Y-63500008D01*
D61*
X226060000Y-80264000D02*
X227330000Y-78994000D01*
X227330000Y-78994000D02*
X236474000Y-78994000D01*
X235458000Y-55372000D02*
X229870000Y-55372000D01*
X228600000Y-80264000D02*
X235204000Y-80264000D01*
X229870000Y-50292000D02*
X233934000Y-50292000D01*
X229870000Y-45212000D02*
X232918000Y-45212000D01*
X237490000Y-69596000D02*
X232918000Y-69596000D01*
X228600000Y-77724000D02*
X237490000Y-77724000D01*
D57*
X220472000Y-76454000D02*
X220980000Y-75946000D01*
X186944000Y-78232000D02*
X193548000Y-78232000D01*
X220980000Y-75946000D02*
X220980000Y-75184000D01*
X196088000Y-75692000D02*
X202438000Y-75692000D01*
X203200000Y-76454000D02*
X220472000Y-76454000D01*
X202438000Y-75692000D02*
X203200000Y-76454000D01*
X193548000Y-78232000D02*
X196088000Y-75692000D01*
X186944000Y-64262000D02*
X184658000Y-64262000D01*
X75184000Y-149098000D02*
X80010000Y-149098000D01*
X45466000Y-159766000D02*
X75184000Y-159766000D01*
X74422000Y-64262000D02*
X81534000Y-57150000D01*
X81534000Y-57150000D02*
X88138000Y-57150000D01*
X88138000Y-45466000D02*
X80010000Y-45466000D01*
X73660000Y-100330000D02*
X51562000Y-100330000D01*
X56896000Y-64262000D02*
X74422000Y-64262000D01*
X81788000Y-168656000D02*
X87376000Y-168656000D01*
X77216000Y-177038000D02*
X81788000Y-177038000D01*
X385064000Y-113538000D02*
X388874000Y-113538000D01*
X377178000Y-130040000D02*
X378448000Y-131310000D01*
X393486000Y-113538000D02*
X388874000Y-113538000D01*
X375400000Y-130040000D02*
X377178000Y-130040000D01*
X378448000Y-131310000D02*
X385052000Y-131310000D01*
X343408000Y-61976000D02*
X345186000Y-60198000D01*
X351790000Y-59690000D02*
X351790000Y-53926000D01*
X351282000Y-60198000D02*
X351790000Y-59690000D01*
X342900000Y-77724000D02*
X343408000Y-77216000D01*
X345186000Y-60198000D02*
X351282000Y-60198000D01*
X336510000Y-77724000D02*
X342900000Y-77724000D01*
X343408000Y-77216000D02*
X343408000Y-61976000D01*
X344424000Y-62230000D02*
X345440000Y-61214000D01*
X358140000Y-61214000D02*
X359410000Y-59944000D01*
X359410000Y-59944000D02*
X359410000Y-53926000D01*
X323723000Y-82423000D02*
X320421000Y-82423000D01*
X333756000Y-80518000D02*
X342646000Y-80518000D01*
X335534000Y-80518000D02*
X333756000Y-80518000D01*
X344424000Y-78740000D02*
X344424000Y-62230000D01*
X333756000Y-80518000D02*
X325628000Y-80518000D01*
X336510000Y-81494000D02*
X335534000Y-80518000D01*
X336510000Y-82423000D02*
X336510000Y-81494000D01*
X342646000Y-80518000D02*
X344424000Y-78740000D01*
X345440000Y-61214000D02*
X358140000Y-61214000D01*
X325628000Y-80518000D02*
X323723000Y-82423000D01*
X291909500Y-170180000D02*
X293878000Y-170180000D01*
X293878000Y-170180000D02*
X295148000Y-168910000D01*
X295148000Y-168910000D02*
X297243500Y-168910000D01*
D58*
X316230000Y-48514000D02*
X320802000Y-48514000D01*
D57*
X301498000Y-78740000D02*
X302514000Y-77724000D01*
X299720000Y-78740000D02*
X301498000Y-78740000D01*
X302514000Y-77724000D02*
X305054000Y-77724000D01*
X300386000Y-106014000D02*
X302361600Y-106014000D01*
X298918000Y-107482000D02*
X300386000Y-106014000D01*
X297688000Y-107482000D02*
X298918000Y-107482000D01*
X350954000Y-78994000D02*
X352097000Y-77851000D01*
X346456000Y-78994000D02*
X350954000Y-78994000D01*
X281686000Y-176784000D02*
X279908000Y-176784000D01*
X270510000Y-176784000D02*
X270256000Y-176530000D01*
X270256000Y-176530000D02*
X270256000Y-173990000D01*
X288798000Y-176784000D02*
X289433000Y-177419000D01*
X279908000Y-176784000D02*
X288798000Y-176784000D01*
X289433000Y-177419000D02*
X289433000Y-180530500D01*
X281686000Y-180022500D02*
X281686000Y-176784000D01*
X279908000Y-176784000D02*
X270510000Y-176784000D01*
X261112000Y-183134000D02*
X284226000Y-183134000D01*
X282194000Y-192024000D02*
X289052000Y-192024000D01*
X281686000Y-191516000D02*
X282194000Y-192024000D01*
X289052000Y-192024000D02*
X289433000Y-191643000D01*
X289433000Y-191643000D02*
X289433000Y-190182500D01*
X281686000Y-189928500D02*
X281686000Y-191516000D01*
X325400000Y-35000000D02*
X370534000Y-35000000D01*
X374956000Y-35000000D02*
X376428000Y-33528000D01*
X372932000Y-35000000D02*
X372966000Y-34966000D01*
X370534000Y-35000000D02*
X374956000Y-35000000D01*
X370534000Y-35000000D02*
X372932000Y-35000000D01*
X376428000Y-33528000D02*
X379730000Y-33528000D01*
X50698800Y-60045200D02*
X50698800Y-58166000D01*
X30988000Y-60960000D02*
X46990000Y-60960000D01*
X26924000Y-62738000D02*
X29210000Y-62738000D01*
D61*
X46990000Y-60960000D02*
X49784000Y-60960000D01*
D57*
X29210000Y-62738000D02*
X30988000Y-60960000D01*
D61*
X49784000Y-60960000D02*
X50698800Y-60045200D01*
D57*
X30022800Y-58115200D02*
X26924000Y-58115200D01*
X43198800Y-58166000D02*
X41148000Y-58166000D01*
X41148000Y-58166000D02*
X39116000Y-56134000D01*
X39116000Y-56134000D02*
X32004000Y-56134000D01*
X32004000Y-56134000D02*
X30022800Y-58115200D01*
X395097000Y-58928000D02*
X393065000Y-60960000D01*
X393065000Y-63881000D02*
X392430000Y-64516000D01*
X399969000Y-55460200D02*
X399969000Y-57866000D01*
X398907000Y-58928000D02*
X395097000Y-58928000D01*
X393065000Y-60960000D02*
X393065000Y-63881000D01*
X392430000Y-64516000D02*
X390906000Y-64516000D01*
X399969000Y-57866000D02*
X398907000Y-58928000D01*
X363728000Y-116586000D02*
X362204000Y-116586000D01*
X363728000Y-116586000D02*
X364236000Y-116586000D01*
X367538000Y-116586000D02*
X363728000Y-116586000D01*
X369316000Y-64516000D02*
X380746000Y-64516000D01*
X393192000Y-53594000D02*
X390906000Y-53594000D01*
X399969000Y-52690200D02*
X394095800Y-52690200D01*
X394095800Y-52690200D02*
X393192000Y-53594000D01*
X399969000Y-49920200D02*
X401310800Y-49920200D01*
X400304000Y-42926000D02*
X390906000Y-42926000D01*
X401310800Y-49920200D02*
X401955000Y-49276000D01*
X401955000Y-49276000D02*
X401955000Y-44577000D01*
X401955000Y-44577000D02*
X400304000Y-42926000D01*
X395478000Y-94361000D02*
X399161000Y-94361000D01*
X399161000Y-94361000D02*
X399740400Y-93781600D01*
X393065000Y-96774000D02*
X395478000Y-94361000D01*
X399740400Y-93781600D02*
X399740400Y-90639200D01*
X392430000Y-99822000D02*
X393065000Y-99187000D01*
X390652000Y-99822000D02*
X392430000Y-99822000D01*
X393065000Y-99187000D02*
X393065000Y-96774000D01*
X359156000Y-100076000D02*
X364091001Y-100076000D01*
X359156000Y-119126000D02*
X346964000Y-119126000D01*
X364236000Y-99931001D02*
X364091001Y-100076000D01*
X380492000Y-99822000D02*
X380382999Y-99931001D01*
X341630000Y-119126000D02*
X346964000Y-119126000D01*
X380382999Y-99931001D02*
X364236000Y-99931001D01*
X399740400Y-87869200D02*
X393714800Y-87869200D01*
X392938000Y-88646000D02*
X390652000Y-88646000D01*
X393714800Y-87869200D02*
X392938000Y-88646000D01*
X399740400Y-85099200D02*
X394725200Y-85099200D01*
X394725200Y-85099200D02*
X390906000Y-81280000D01*
X390906000Y-81280000D02*
X390652000Y-81280000D01*
X395274800Y-56845200D02*
X391160000Y-60960000D01*
X391160000Y-60960000D02*
X390906000Y-60960000D01*
X397129000Y-56845200D02*
X395274800Y-56845200D01*
X376174000Y-60960000D02*
X380746000Y-60960000D01*
X367538000Y-126746000D02*
X362204000Y-126746000D01*
X367538000Y-126746000D02*
X371856000Y-126746000D01*
X395123800Y-54075200D02*
X392049000Y-57150000D01*
X392049000Y-57150000D02*
X390906000Y-57150000D01*
X397129000Y-54075200D02*
X395123800Y-54075200D01*
X362204000Y-124206000D02*
X367538000Y-124206000D01*
X380746000Y-57150000D02*
X374904000Y-57150000D01*
X367538000Y-124206000D02*
X370840000Y-124206000D01*
X397129000Y-51305200D02*
X394713200Y-51305200D01*
X393446000Y-50038000D02*
X390906000Y-50038000D01*
X394713200Y-51305200D02*
X393446000Y-50038000D01*
X375412000Y-48768000D02*
X376682000Y-50038000D01*
X367538000Y-121666000D02*
X365760000Y-121666000D01*
X365760000Y-121666000D02*
X362204000Y-121666000D01*
X365760000Y-121666000D02*
X369824000Y-121666000D01*
X376682000Y-50038000D02*
X380746000Y-50038000D01*
X371348000Y-48768000D02*
X375412000Y-48768000D01*
X394356200Y-48535200D02*
X392303000Y-46482000D01*
X392303000Y-46482000D02*
X390906000Y-46482000D01*
X397129000Y-48535200D02*
X394356200Y-48535200D01*
X364490000Y-119126000D02*
X365506000Y-119126000D01*
X370332000Y-46482000D02*
X380746000Y-46482000D01*
X362204000Y-119126000D02*
X364490000Y-119126000D01*
X364490000Y-119126000D02*
X367538000Y-119126000D01*
X391414000Y-96266000D02*
X390652000Y-96266000D01*
X396900400Y-92024200D02*
X395655800Y-92024200D01*
X395655800Y-92024200D02*
X391414000Y-96266000D01*
X380492000Y-96266000D02*
X366268000Y-96266000D01*
X364998000Y-97536000D02*
X358140000Y-97536000D01*
X341630000Y-129286000D02*
X346964000Y-129286000D01*
X357886000Y-129286000D02*
X346964000Y-129286000D01*
X366268000Y-96266000D02*
X364998000Y-97536000D01*
X396900400Y-89254200D02*
X394615800Y-89254200D01*
X394615800Y-89254200D02*
X391414000Y-92456000D01*
X391414000Y-92456000D02*
X390652000Y-92456000D01*
X346964000Y-126746000D02*
X357124000Y-126746000D01*
X346964000Y-126746000D02*
X341630000Y-126746000D01*
X357124000Y-102616000D02*
X383286000Y-102616000D01*
X396900400Y-86484200D02*
X394586200Y-86484200D01*
X392938000Y-84836000D02*
X390652000Y-84836000D01*
X394586200Y-86484200D02*
X392938000Y-84836000D01*
X377698000Y-84836000D02*
X380492000Y-84836000D01*
X346964000Y-124206000D02*
X356108000Y-124206000D01*
X356108000Y-87122000D02*
X375412000Y-87122000D01*
X375412000Y-87122000D02*
X377698000Y-84836000D01*
X341630000Y-124206000D02*
X346964000Y-124206000D01*
X392430000Y-77724000D02*
X390652000Y-77724000D01*
X393319000Y-82042000D02*
X393319000Y-78613000D01*
X394991200Y-83714200D02*
X393319000Y-82042000D01*
X393319000Y-78613000D02*
X392430000Y-77724000D01*
X396900400Y-83714200D02*
X394991200Y-83714200D01*
X377952000Y-78486000D02*
X378714000Y-77724000D01*
X346964000Y-121666000D02*
X341630000Y-121666000D01*
X374650000Y-86106000D02*
X377952000Y-82804000D01*
X346964000Y-121666000D02*
X354838000Y-121666000D01*
X378714000Y-77724000D02*
X380492000Y-77724000D01*
X354838000Y-86106000D02*
X374650000Y-86106000D01*
X377952000Y-82804000D02*
X377952000Y-78486000D01*
D61*
X278384000Y-190246000D02*
X278384000Y-188722000D01*
D57*
X175006000Y-51562000D02*
X242824000Y-51562000D01*
D61*
X242062000Y-191516000D02*
X277114000Y-191516000D01*
D57*
X170180000Y-46736000D02*
X175006000Y-51562000D01*
D61*
X228600000Y-87884000D02*
X242062000Y-87884000D01*
X278384000Y-188722000D02*
X279146000Y-187960000D01*
X242062000Y-69596000D02*
X255270000Y-69596000D01*
X277114000Y-191516000D02*
X278384000Y-190246000D01*
D57*
X150368000Y-46736000D02*
X170180000Y-46736000D01*
D61*
X301244000Y-187960000D02*
X306070000Y-183134000D01*
X306070000Y-183134000D02*
X331470000Y-183134000D01*
X279146000Y-187960000D02*
X301244000Y-187960000D01*
D57*
X255270000Y-69596000D02*
X264414000Y-69596000D01*
X315110000Y-113134000D02*
X315087000Y-113157000D01*
D61*
X226060000Y-87884000D02*
X227330000Y-86614000D01*
D57*
X331470000Y-180594000D02*
X333756000Y-180594000D01*
D61*
X227330000Y-86614000D02*
X240792000Y-86614000D01*
X245872000Y-78994000D02*
X240792004Y-78994000D01*
D57*
X170942007Y-45720007D02*
X174244000Y-49022000D01*
X338328000Y-113157000D02*
X321485400Y-113157000D01*
D61*
X265684000Y-78994000D02*
X245872000Y-78994000D01*
D57*
X267462000Y-71120000D02*
X266954000Y-71628000D01*
X266954000Y-71628000D02*
X266954000Y-72644000D01*
D61*
X240792004Y-78994000D02*
X240792002Y-78993998D01*
D57*
X174244000Y-49022000D02*
X243078010Y-49022000D01*
X333756000Y-180594000D02*
X335026000Y-179324000D01*
X243078010Y-49022000D02*
X245872010Y-51816000D01*
X321485400Y-113157000D02*
X321462400Y-113134000D01*
X335026000Y-179324000D02*
X341249000Y-179324000D01*
X315976000Y-85090000D02*
X288036000Y-85090000D01*
X152907993Y-45720007D02*
X170942007Y-45720007D01*
X321462400Y-113134000D02*
X315110000Y-113134000D01*
X288036000Y-71120000D02*
X267462000Y-71120000D01*
D61*
X200914000Y-63754000D02*
X228346000Y-63754000D01*
X231394000Y-66802000D02*
X244348000Y-66802000D01*
X122682000Y-64770000D02*
X123444000Y-64008000D01*
X93726000Y-63500000D02*
X94996000Y-64770000D01*
X91186000Y-63500000D02*
X93726000Y-63500000D01*
X123444000Y-64008000D02*
X169164000Y-64008000D01*
X170942000Y-62230000D02*
X199390000Y-62230000D01*
X199390000Y-62230000D02*
X200914000Y-63754000D01*
X94996000Y-64770000D02*
X122682000Y-64770000D01*
D57*
X88138000Y-63500000D02*
X91186000Y-63500000D01*
D61*
X169164000Y-64008000D02*
X170942000Y-62230000D01*
X244348000Y-90424000D02*
X256794000Y-90424000D01*
X228346000Y-63754000D02*
X231394000Y-66802000D01*
D57*
X104659172Y-75184000D02*
X106680000Y-75184000D01*
X210820000Y-118110000D02*
X211328000Y-118110000D01*
X109220000Y-116078000D02*
X110998000Y-116078000D01*
X102373172Y-77470000D02*
X104659172Y-75184000D01*
X87630000Y-78740000D02*
X88900000Y-77470000D01*
X113030000Y-118110000D02*
X210820000Y-118110000D01*
X110998000Y-116078000D02*
X113030000Y-118110000D01*
X86106000Y-78740000D02*
X87630000Y-78740000D01*
X88900000Y-77470000D02*
X102373172Y-77470000D01*
D60*
X54356000Y-29464000D02*
X51054000Y-29464000D01*
X25263000Y-38725000D02*
X28651800Y-38725000D01*
X35052000Y-27686000D02*
X25908000Y-27686000D01*
X37846000Y-24892000D02*
X35052000Y-27686000D01*
X24638000Y-38100000D02*
X25263000Y-38725000D01*
X57377800Y-32485800D02*
X54356000Y-29464000D01*
X51054000Y-29464000D02*
X46482000Y-24892000D01*
X24638000Y-28956000D02*
X24638000Y-38100000D01*
X46482000Y-24892000D02*
X37846000Y-24892000D01*
X25908000Y-27686000D02*
X24638000Y-28956000D01*
X59091200Y-32485800D02*
X57377800Y-32485800D01*
D57*
X208534000Y-78994000D02*
X212090000Y-78994000D01*
X86106000Y-81280000D02*
X94488000Y-81280000D01*
X94488000Y-76200000D02*
X98806000Y-76200000D01*
X164338000Y-58928000D02*
X162814000Y-57404000D01*
X162814000Y-57404000D02*
X94487994Y-57404000D01*
X208534000Y-58928000D02*
X164338000Y-58928000D01*
X212090000Y-78994000D02*
X213360000Y-80264000D01*
X176276000Y-88900000D02*
X177038000Y-89662000D01*
X162560000Y-88900000D02*
X176276000Y-88900000D01*
X144272000Y-82550000D02*
X162560000Y-82550000D01*
X141732000Y-85090000D02*
X144272000Y-82550000D01*
X243332000Y-195072000D02*
X328422006Y-195072000D01*
X355727000Y-133096000D02*
X331470000Y-133096000D01*
X91186000Y-83820000D02*
X92456000Y-85090000D01*
X203454000Y-110744000D02*
X243332000Y-110744000D01*
X90170000Y-83820000D02*
X91186000Y-83820000D01*
X362204000Y-129286000D02*
X359537000Y-129286000D01*
X177038000Y-89662000D02*
X203454000Y-89662000D01*
X359537000Y-129286000D02*
X355727000Y-133096000D01*
X86106000Y-86360000D02*
X87630000Y-86360000D01*
X87630000Y-86360000D02*
X90170000Y-83820000D01*
X92456000Y-85090000D02*
X141732000Y-85090000D01*
D60*
X37338000Y-38100000D02*
X55372000Y-38100000D01*
X55372000Y-38100000D02*
X56591200Y-36880800D01*
X56591200Y-36880800D02*
X56591200Y-34975800D01*
X33451800Y-38725000D02*
X36713000Y-38725000D01*
X36713000Y-38725000D02*
X37338000Y-38100000D01*
D57*
X290322000Y-32766000D02*
X300736000Y-32766000D01*
X106934000Y-144018000D02*
X113030000Y-144018000D01*
X113030000Y-144018000D02*
X114300000Y-142748000D01*
X127000000Y-144018000D02*
X134366000Y-144018000D01*
X114300000Y-142748000D02*
X125730000Y-142748000D01*
D61*
X64770000Y-116078000D02*
X66548000Y-116078000D01*
X101854000Y-144018000D02*
X99060000Y-144018000D01*
X83820000Y-137668000D02*
X66548000Y-137668000D01*
D57*
X125730000Y-142748000D02*
X127000000Y-144018000D01*
X101854000Y-144018000D02*
X106934000Y-144018000D01*
D61*
X97790000Y-142748000D02*
X88900000Y-142748000D01*
X99060000Y-144018000D02*
X97790000Y-142748000D01*
X88900000Y-142748000D02*
X83820000Y-137668000D01*
X70866000Y-118618000D02*
X74676000Y-114808000D01*
D57*
X106934000Y-146558000D02*
X113030000Y-146558000D01*
X127000000Y-146558000D02*
X134366000Y-146558000D01*
X103886000Y-170180000D02*
X100838000Y-170180000D01*
X100838000Y-146558000D02*
X106934000Y-146558000D01*
D61*
X64770000Y-118618000D02*
X70866000Y-118618000D01*
X99568000Y-115824000D02*
X100838000Y-115824000D01*
X74676000Y-114808000D02*
X98552000Y-114808000D01*
D57*
X114300000Y-145288000D02*
X125730000Y-145288000D01*
D61*
X98552000Y-114808000D02*
X99568000Y-115824000D01*
D57*
X113030000Y-146558000D02*
X114300000Y-145288000D01*
X64770000Y-77470000D02*
X61468000Y-77470000D01*
X64770000Y-118618000D02*
X61468000Y-118618000D01*
X125730000Y-145288000D02*
X127000000Y-146558000D01*
X64770000Y-121158000D02*
X60452000Y-121158000D01*
D61*
X106934000Y-149098000D02*
X99314000Y-149098000D01*
X98044000Y-147828000D02*
X89154000Y-147828000D01*
D57*
X125730000Y-147828000D02*
X127000000Y-149098000D01*
X109474000Y-149098000D02*
X113030000Y-149098000D01*
X114300000Y-147828000D02*
X125730000Y-147828000D01*
D61*
X64770000Y-121158000D02*
X70866000Y-121158000D01*
D57*
X64770000Y-80010000D02*
X60452000Y-80010000D01*
X103886000Y-177800000D02*
X107442000Y-177800000D01*
D61*
X74676000Y-117348000D02*
X88138010Y-117348000D01*
D57*
X127000000Y-149098000D02*
X134366000Y-149098000D01*
D61*
X99314000Y-149098000D02*
X98044000Y-147828000D01*
D57*
X113030000Y-149098000D02*
X114300000Y-147828000D01*
D61*
X70866000Y-121158000D02*
X74676000Y-117348000D01*
D57*
X106934000Y-149098000D02*
X109474000Y-149098000D01*
X64770000Y-82550000D02*
X59436000Y-82550000D01*
X125730000Y-150368000D02*
X127000000Y-151638000D01*
D61*
X99060000Y-151638000D02*
X97790000Y-150368000D01*
X64770000Y-123698000D02*
X66040000Y-124968000D01*
D57*
X127000000Y-151638000D02*
X134366000Y-151638000D01*
X106934000Y-151638000D02*
X113030000Y-151638000D01*
D61*
X104648000Y-151638000D02*
X99060000Y-151638000D01*
X97790000Y-150368000D02*
X82804000Y-150368000D01*
D57*
X113030000Y-151638000D02*
X114300000Y-150368000D01*
X64770000Y-123698000D02*
X59436000Y-123698000D01*
X114300000Y-150368000D02*
X125730000Y-150368000D01*
X104648000Y-151638000D02*
X106934000Y-151638000D01*
D61*
X66040000Y-124968000D02*
X82804006Y-124968000D01*
D57*
X290830000Y-35306000D02*
X263017000Y-35306000D01*
X292354000Y-36830000D02*
X290830000Y-35306000D01*
X301752000Y-36830000D02*
X292354000Y-36830000D01*
X292100000Y-37846000D02*
X304292000Y-37846000D01*
X260223000Y-36322000D02*
X290576000Y-36322000D01*
X290576000Y-36322000D02*
X292100000Y-37846000D01*
D61*
X89154000Y-180340000D02*
X91948000Y-180340000D01*
D57*
X64770000Y-85090000D02*
X58420000Y-85090000D01*
D61*
X88138000Y-179324000D02*
X89154000Y-180340000D01*
D57*
X125730000Y-152908000D02*
X127000000Y-154178000D01*
X96266000Y-180340000D02*
X91948000Y-180340000D01*
X114300000Y-152908000D02*
X125730000Y-152908000D01*
D61*
X80010000Y-179324000D02*
X88138000Y-179324000D01*
D57*
X91948000Y-157480000D02*
X95504000Y-157480000D01*
D61*
X64770000Y-178308000D02*
X78994000Y-178308000D01*
D57*
X95504000Y-157480000D02*
X98806000Y-154178000D01*
X113030000Y-154178000D02*
X114300000Y-152908000D01*
X127000000Y-154178000D02*
X134366000Y-154178000D01*
X106934000Y-154178000D02*
X113030000Y-154178000D01*
X64770000Y-126238000D02*
X58420000Y-126238000D01*
X98806000Y-154178000D02*
X106934000Y-154178000D01*
D61*
X78994000Y-178308000D02*
X80010000Y-179324000D01*
D57*
X64770000Y-87630000D02*
X57404000Y-87630000D01*
X82550000Y-151638000D02*
X81280000Y-150368000D01*
X91694000Y-151638000D02*
X84836000Y-151638000D01*
X92710000Y-177800000D02*
X87376000Y-172466000D01*
X113030000Y-152908000D02*
X114300000Y-151638000D01*
X81280000Y-150368000D02*
X59436000Y-150368000D01*
X59436000Y-150368000D02*
X58420000Y-151384000D01*
X96266000Y-177800000D02*
X92710000Y-177800000D01*
X114300000Y-151638000D02*
X119126000Y-151638000D01*
X91694000Y-151638000D02*
X97790000Y-151638000D01*
X64770000Y-128778000D02*
X57404000Y-128778000D01*
X84836000Y-151638000D02*
X82550000Y-151638000D01*
X87376000Y-172466000D02*
X84836000Y-172466000D01*
X99060000Y-152908000D02*
X113030000Y-152908000D01*
X58420000Y-151384000D02*
X57404000Y-151384000D01*
X97790000Y-151638000D02*
X99060000Y-152908000D01*
X59436000Y-147828000D02*
X57658000Y-149606000D01*
X113030000Y-150368000D02*
X114300000Y-149098000D01*
X96266000Y-170180000D02*
X89916000Y-170180000D01*
X91694000Y-149098000D02*
X89154000Y-149098000D01*
X84836000Y-149098000D02*
X83566000Y-147828000D01*
X64770000Y-131318000D02*
X56388000Y-131318000D01*
X57658000Y-149606000D02*
X56388000Y-149606000D01*
X97790000Y-149098000D02*
X99060000Y-150368000D01*
X83566000Y-147828000D02*
X59436000Y-147828000D01*
X91694000Y-149098000D02*
X97790000Y-149098000D01*
X56388000Y-90170000D02*
X64770000Y-90170000D01*
X89154000Y-149098000D02*
X84836000Y-149098000D01*
X114300000Y-149098000D02*
X119126000Y-149098000D01*
X99060000Y-150368000D02*
X113030000Y-150368000D01*
X55880000Y-92710000D02*
X55372000Y-92710000D01*
X91694000Y-146558000D02*
X92964000Y-146558000D01*
X113030000Y-147828000D02*
X114300000Y-146558000D01*
X59690000Y-145288000D02*
X57658000Y-147320000D01*
X64770000Y-92710000D02*
X55880000Y-92710000D01*
X99060000Y-147828000D02*
X113030000Y-147828000D01*
X64770000Y-133858000D02*
X55372000Y-133858000D01*
X92964000Y-146558000D02*
X93726000Y-146558000D01*
X92964000Y-146558000D02*
X84836000Y-146558000D01*
X93726000Y-167640000D02*
X96266000Y-167640000D01*
X84836000Y-146558000D02*
X83566000Y-145288000D01*
X57658000Y-147320000D02*
X55372000Y-147320000D01*
X93726000Y-146558000D02*
X97790000Y-146558000D01*
X97790000Y-146558000D02*
X99060000Y-147828000D01*
X83566000Y-145288000D02*
X59690000Y-145288000D01*
X114300000Y-146558000D02*
X119126000Y-146558000D01*
D60*
X33451800Y-42525000D02*
X39771000Y-42525000D01*
X39771000Y-42525000D02*
X41148000Y-41148000D01*
X53848000Y-41148000D02*
X54938000Y-42238000D01*
X41148000Y-41148000D02*
X53848000Y-41148000D01*
X54938000Y-42238000D02*
X54938000Y-44928967D01*
X30226000Y-46482000D02*
X41148000Y-46482000D01*
X42701033Y-44928967D02*
X44688000Y-44928967D01*
X28651800Y-42525000D02*
X28651800Y-44907800D01*
X41148000Y-46482000D02*
X42701033Y-44928967D01*
X28651800Y-44907800D02*
X30226000Y-46482000D01*
D57*
X290830000Y-185166000D02*
X256286000Y-185166000D01*
X290576000Y-193294000D02*
X251460000Y-193294000D01*
X358400000Y-182900000D02*
X358400000Y-181380000D01*
X347726000Y-182372000D02*
X348742000Y-183388000D01*
X357912000Y-183388000D02*
X358400000Y-182900000D01*
X347726000Y-181102000D02*
X347726000Y-182372000D01*
X348742000Y-183388000D02*
X357912000Y-183388000D01*
X347726000Y-171196000D02*
X353822000Y-171196000D01*
X303784000Y-82296000D02*
X305054000Y-82296000D01*
X301498000Y-80010000D02*
X303784000Y-82296000D01*
X299720000Y-80010000D02*
X301498000Y-80010000D01*
X261620000Y-34036000D02*
X294132000Y-34036000D01*
X258826000Y-32766000D02*
X282194000Y-32766000D01*
X347218000Y-177800000D02*
X353314000Y-177800000D01*
X353314000Y-177800000D02*
X353822000Y-178308000D01*
X346456000Y-179832000D02*
X346456000Y-178562000D01*
X346456000Y-178562000D02*
X347218000Y-177800000D01*
X353822000Y-178308000D02*
X353822000Y-181356000D01*
X67310000Y-146558000D02*
X80010000Y-146558000D01*
X53340000Y-171704000D02*
X67310000Y-171704000D01*
X45466000Y-173736000D02*
X51308000Y-173736000D01*
X51308000Y-173736000D02*
X53340000Y-171704000D01*
X50546000Y-179578000D02*
X57404000Y-179578000D01*
X49530000Y-178562000D02*
X50546000Y-179578000D01*
X57404000Y-155448000D02*
X76962000Y-155448000D01*
X45466000Y-178562000D02*
X49530000Y-178562000D01*
X76962000Y-144018000D02*
X80010000Y-144018000D01*
X307554000Y-63032000D02*
X309118000Y-61468000D01*
X309118000Y-61468000D02*
X338836000Y-61468000D01*
X339852000Y-60452000D02*
X339852000Y-58674000D01*
X338836000Y-61468000D02*
X339852000Y-60452000D01*
X307554000Y-68326000D02*
X307554000Y-63032000D01*
D61*
X162052000Y-55372000D02*
X135128000Y-55372000D01*
D57*
X97790000Y-126238000D02*
X99060000Y-127508000D01*
X83820000Y-121158000D02*
X80010000Y-121158000D01*
X125730000Y-126238000D02*
X127000000Y-127508000D01*
X99060000Y-127508000D02*
X113030000Y-127508000D01*
X91694000Y-126238000D02*
X97790000Y-126238000D01*
D61*
X164592000Y-73660000D02*
X162052000Y-73660000D01*
D57*
X88900000Y-126238000D02*
X83820000Y-121158000D01*
X119126000Y-126238000D02*
X125730000Y-126238000D01*
X114300000Y-126238000D02*
X119126000Y-126238000D01*
X91694000Y-126238000D02*
X88900000Y-126238000D01*
X127000000Y-127508000D02*
X132588000Y-127508000D01*
X113030000Y-127508000D02*
X114300000Y-126238000D01*
X99060000Y-130048000D02*
X97790000Y-128778000D01*
X88900000Y-128778000D02*
X83820000Y-123698000D01*
X119126000Y-128778000D02*
X114300000Y-128778000D01*
X127254000Y-130048000D02*
X136398000Y-130048000D01*
X119126000Y-128778000D02*
X125984000Y-128778000D01*
X125984000Y-128778000D02*
X127254000Y-130048000D01*
X114300000Y-128778000D02*
X113030000Y-130048000D01*
X91694000Y-128778000D02*
X88900000Y-128778000D01*
X97790000Y-128778000D02*
X91694000Y-128778000D01*
X83820000Y-123698000D02*
X80010000Y-123698000D01*
D61*
X137668000Y-54356000D02*
X163068000Y-54356000D01*
D57*
X113030000Y-130048000D02*
X99060000Y-130048000D01*
X83820000Y-126238000D02*
X80010000Y-126238000D01*
X97790000Y-131318000D02*
X99060000Y-132588000D01*
X127000000Y-132588000D02*
X137414000Y-132588000D01*
X91694000Y-131318000D02*
X97790000Y-131318000D01*
X119126000Y-131318000D02*
X125730000Y-131318000D01*
X99060000Y-132588000D02*
X113030000Y-132588000D01*
X125730000Y-131318000D02*
X127000000Y-132588000D01*
X141732000Y-53594000D02*
X140208000Y-53594000D01*
X114300000Y-131318000D02*
X119126000Y-131318000D01*
X113030000Y-132588000D02*
X114300000Y-131318000D01*
X91694000Y-131318000D02*
X88900000Y-131318000D01*
X88900000Y-131318000D02*
X83820000Y-126238000D01*
D61*
X164592000Y-53594000D02*
X141732000Y-53594000D01*
D57*
X91694000Y-133858000D02*
X97790000Y-133858000D01*
X147828000Y-135128000D02*
X127000000Y-135128000D01*
X88900000Y-133858000D02*
X83820000Y-128778000D01*
X97790000Y-133858000D02*
X99060000Y-135128000D01*
X113030000Y-135128000D02*
X114300000Y-133858000D01*
X99060000Y-135128000D02*
X113030000Y-135128000D01*
X114300000Y-133858000D02*
X119126000Y-133858000D01*
X91694000Y-133858000D02*
X88900000Y-133858000D01*
X125730000Y-133858000D02*
X119126000Y-133858000D01*
X83820000Y-128778000D02*
X80010000Y-128778000D01*
X127000000Y-135128000D02*
X125730000Y-133858000D01*
X83820000Y-131318000D02*
X80010000Y-131318000D01*
X125730000Y-136398000D02*
X119126000Y-136398000D01*
X97790000Y-136398000D02*
X99060000Y-137668000D01*
X88900000Y-136398000D02*
X83820000Y-131318000D01*
X91694000Y-136398000D02*
X97790000Y-136398000D01*
X99060000Y-137668000D02*
X113030000Y-137668000D01*
X114300000Y-136398000D02*
X119126000Y-136398000D01*
X127000000Y-137668000D02*
X125730000Y-136398000D01*
X148844000Y-137668000D02*
X127000000Y-137668000D01*
X113030000Y-137668000D02*
X114300000Y-136398000D01*
X91694000Y-136398000D02*
X88900000Y-136398000D01*
X119126000Y-138938000D02*
X114300000Y-138938000D01*
X97790000Y-138938000D02*
X91694000Y-138938000D01*
X125730000Y-138938000D02*
X119126000Y-138938000D01*
X88900000Y-138938000D02*
X83820000Y-133858000D01*
X91694000Y-138938000D02*
X88900000Y-138938000D01*
X114300000Y-138938000D02*
X113030000Y-140208000D01*
X149860000Y-140208000D02*
X127000000Y-140208000D01*
X113030000Y-140208000D02*
X99060000Y-140208000D01*
X99060000Y-140208000D02*
X97790000Y-138938000D01*
X83820000Y-133858000D02*
X80010000Y-133858000D01*
X127000000Y-140208000D02*
X125730000Y-138938000D01*
X91694000Y-141478000D02*
X88900000Y-141478000D01*
X91694000Y-141478000D02*
X97790000Y-141478000D01*
X83820000Y-136398000D02*
X80010000Y-136398000D01*
X150876000Y-142748000D02*
X127000000Y-142748000D01*
X99060000Y-142748000D02*
X113030000Y-142748000D01*
X127000000Y-142748000D02*
X125730000Y-141478000D01*
X113030000Y-142748000D02*
X114300000Y-141478000D01*
X125730000Y-141478000D02*
X119126000Y-141478000D01*
X88900000Y-141478000D02*
X83820000Y-136398000D01*
X114300000Y-141478000D02*
X119126000Y-141478000D01*
X97790000Y-141478000D02*
X99060000Y-142748000D01*
X125730000Y-144018000D02*
X127000000Y-145288000D01*
X114300000Y-144018000D02*
X113030000Y-145288000D01*
X83820000Y-138938000D02*
X80010000Y-138938000D01*
X91694000Y-144018000D02*
X88900000Y-144018000D01*
X99060000Y-145288000D02*
X97790000Y-144018000D01*
X97790000Y-144018000D02*
X91694000Y-144018000D01*
X119126000Y-144018000D02*
X114300000Y-144018000D01*
X127000000Y-145288000D02*
X151892000Y-145288000D01*
X113030000Y-145288000D02*
X99060000Y-145288000D01*
X88900000Y-144018000D02*
X83820000Y-138938000D01*
X119126000Y-144018000D02*
X125730000Y-144018000D01*
X75692000Y-66294000D02*
X59944000Y-66294000D01*
X77724000Y-108458000D02*
X64770000Y-108458000D01*
X100838000Y-59690000D02*
X82296000Y-59690000D01*
X89662000Y-124968000D02*
X84582000Y-119888000D01*
X106934000Y-126238000D02*
X113030000Y-126238000D01*
X125730000Y-124968000D02*
X127000000Y-126238000D01*
X113030000Y-126238000D02*
X114300000Y-124968000D01*
X97790000Y-124968000D02*
X89662000Y-124968000D01*
X54102000Y-108458000D02*
X64770000Y-108458000D01*
X102108000Y-60960000D02*
X100838000Y-59690000D01*
X84582000Y-119888000D02*
X77724000Y-119888000D01*
X99060000Y-126238000D02*
X97790000Y-124968000D01*
X106934000Y-126238000D02*
X99060000Y-126238000D01*
X111252000Y-60960000D02*
X102108000Y-60960000D01*
X114300000Y-124968000D02*
X125730000Y-124968000D01*
X82296000Y-59690000D02*
X75692000Y-66294000D01*
X111252000Y-60960000D02*
X146050000Y-60960000D01*
X127000000Y-126238000D02*
X134366000Y-126238000D01*
X113030000Y-177800000D02*
X114300000Y-179070000D01*
X114300000Y-179070000D02*
X115570000Y-179070000D01*
X135636000Y-179070000D02*
X136906000Y-177800000D01*
X108712000Y-63246000D02*
X143002000Y-63246000D01*
X138938000Y-177800000D02*
X140970000Y-177800000D01*
X115570000Y-182880000D02*
X117856000Y-182880000D01*
X83312000Y-61214000D02*
X76200000Y-68326000D01*
X115570000Y-179070000D02*
X135636000Y-179070000D01*
X64770000Y-110998000D02*
X52832000Y-110998000D01*
X146050000Y-68580000D02*
X143001988Y-68580000D01*
X110236000Y-177800000D02*
X113030000Y-177800000D01*
X76200000Y-68326000D02*
X58420000Y-68326000D01*
X117856000Y-175260000D02*
X115570000Y-175260000D01*
X115570000Y-170180000D02*
X110236000Y-170180000D01*
X136906000Y-177800000D02*
X138938000Y-177800000D01*
X100076000Y-61214000D02*
X83312000Y-61214000D01*
X108712000Y-63246000D02*
X102108000Y-63246000D01*
X102108000Y-63246000D02*
X100076000Y-61214000D01*
X140970000Y-170180000D02*
X138938000Y-170180000D01*
X91694000Y-123698000D02*
X97790000Y-123698000D01*
X113792000Y-51308000D02*
X113792000Y-52578000D01*
X114300000Y-123698000D02*
X119126000Y-123698000D01*
X113284000Y-53086000D02*
X80010000Y-53086000D01*
D61*
X81534000Y-109220000D02*
X83566000Y-109220000D01*
D57*
X99060000Y-124968000D02*
X113030000Y-124968000D01*
X113030000Y-124968000D02*
X114300000Y-123698000D01*
D61*
X80772000Y-108458000D02*
X81534000Y-109220000D01*
X80010000Y-108458000D02*
X80772000Y-108458000D01*
D57*
X90170000Y-123698000D02*
X85090000Y-118618000D01*
X91694000Y-123698000D02*
X90170000Y-123698000D01*
X85090000Y-118618000D02*
X83566000Y-118618000D01*
X97790000Y-123698000D02*
X99060000Y-124968000D01*
X113792000Y-52578000D02*
X113284000Y-53086000D01*
X106934000Y-133858000D02*
X112967205Y-133858000D01*
X114237205Y-132588000D02*
X125730000Y-132588000D01*
X88900000Y-132588000D02*
X83820000Y-127508000D01*
X127000000Y-133858000D02*
X134366000Y-133858000D01*
X83820000Y-127508000D02*
X76454000Y-127508000D01*
X77978000Y-100838000D02*
X81026000Y-100838000D01*
X97790000Y-132588000D02*
X88900000Y-132588000D01*
X99060000Y-133858000D02*
X97790000Y-132588000D01*
X81026000Y-55372000D02*
X116332000Y-55372000D01*
X112967205Y-133858000D02*
X114237205Y-132588000D01*
X76454000Y-110998000D02*
X80010000Y-110998000D01*
X125730000Y-132588000D02*
X127000000Y-133858000D01*
X106934000Y-133858000D02*
X99060000Y-133858000D01*
X106934000Y-138938000D02*
X99314000Y-138938000D01*
X113030000Y-138938000D02*
X114300000Y-137668000D01*
X106934000Y-138938000D02*
X113030000Y-138938000D01*
X82042000Y-54102000D02*
X118872000Y-54102000D01*
X114300000Y-137668000D02*
X125730000Y-137668000D01*
X83820000Y-132588000D02*
X75438000Y-132588000D01*
X125730000Y-137668000D02*
X127000000Y-138938000D01*
X80010000Y-113538000D02*
X82042000Y-113538000D01*
X98044000Y-137668000D02*
X88900000Y-137668000D01*
X75438000Y-113538000D02*
X80010000Y-113538000D01*
X88900000Y-137668000D02*
X83820000Y-132588000D01*
X99314000Y-138938000D02*
X98044000Y-137668000D01*
X127000000Y-138938000D02*
X134366000Y-138938000D01*
X99060000Y-131318000D02*
X97790000Y-130048000D01*
X114300000Y-130048000D02*
X125222000Y-130048000D01*
X125730000Y-130048000D02*
X127000000Y-131318000D01*
X106934000Y-131318000D02*
X113030000Y-131318000D01*
X127000000Y-131318000D02*
X134366000Y-131318000D01*
X125222000Y-130048000D02*
X125730000Y-130048000D01*
X106934000Y-131318000D02*
X99060000Y-131318000D01*
X89408000Y-116078000D02*
X80010000Y-116078000D01*
X97790000Y-130048000D02*
X89408000Y-130048000D01*
X113030000Y-131318000D02*
X114300000Y-130048000D01*
X114300000Y-127508000D02*
X125984000Y-127508000D01*
X127254000Y-128778000D02*
X134366000Y-128778000D01*
X106934000Y-128778000D02*
X99568000Y-128778000D01*
X98298000Y-127508000D02*
X88900000Y-127508000D01*
X99568000Y-128778000D02*
X98298000Y-127508000D01*
X125984000Y-127508000D02*
X127254000Y-128778000D01*
X82042000Y-118618000D02*
X80010000Y-118618000D01*
X113030000Y-128778000D02*
X114300000Y-127508000D01*
X106934000Y-128778000D02*
X113030000Y-128778000D01*
X83820000Y-122428000D02*
X82042000Y-122428000D01*
X88900000Y-127508000D02*
X83820000Y-122428000D01*
X325183500Y-154114500D02*
X328676000Y-154114500D01*
X323444000Y-155854000D02*
X325183500Y-154114500D01*
X321462400Y-155854000D02*
X323444000Y-155854000D01*
X321462400Y-114914000D02*
X328655000Y-114914000D01*
X328655000Y-114914000D02*
X328676000Y-114935000D01*
X356870000Y-44626000D02*
X356870000Y-38354000D01*
X345694000Y-46736000D02*
X341376000Y-51054000D01*
X341376000Y-51054000D02*
X335026000Y-51054000D01*
X349250000Y-45974000D02*
X348488000Y-46736000D01*
X348488000Y-46736000D02*
X345694000Y-46736000D01*
X349250000Y-44626000D02*
X349250000Y-45974000D01*
X350520000Y-44626000D02*
X350520000Y-46101000D01*
X341884000Y-52070000D02*
X325374000Y-52070000D01*
X350520000Y-46101000D02*
X348869000Y-47752000D01*
X348869000Y-47752000D02*
X346202000Y-47752000D01*
X346202000Y-47752000D02*
X341884000Y-52070000D01*
X349504000Y-48514000D02*
X346964000Y-48514000D01*
X346964000Y-48514000D02*
X342138000Y-53340000D01*
X351790000Y-46228000D02*
X349504000Y-48514000D01*
X342138000Y-53340000D02*
X330200000Y-53340000D01*
X351790000Y-44626000D02*
X351790000Y-46228000D01*
X320802000Y-54864000D02*
X341884000Y-54864000D01*
X353060000Y-46482000D02*
X350266000Y-49276000D01*
X353060000Y-44626000D02*
X353060000Y-46482000D01*
X350266000Y-49276000D02*
X347472000Y-49276000D01*
X347472000Y-49276000D02*
X341884000Y-54864000D01*
X50800000Y-148590000D02*
X48260000Y-148590000D01*
X48260000Y-138430000D02*
X43180000Y-138430000D01*
X45720000Y-135890000D02*
X50800000Y-135890000D01*
X43180000Y-148590000D02*
X45720000Y-148590000D01*
X369994000Y-136906000D02*
X370000000Y-136900000D01*
X370020000Y-132580000D02*
X375400000Y-132580000D01*
X370000000Y-132600000D02*
X370020000Y-132580000D01*
X362204000Y-136906000D02*
X369994000Y-136906000D01*
X368320000Y-135120000D02*
X367566000Y-134366000D01*
X375400000Y-135120000D02*
X368320000Y-135120000D01*
X367566000Y-134366000D02*
X362204000Y-134366000D01*
X386080000Y-94234000D02*
X365506000Y-94234000D01*
X365506000Y-94234000D02*
X364998000Y-93726000D01*
X364998000Y-93726000D02*
X362204000Y-93726000D01*
X380238000Y-117094000D02*
X386080000Y-117094000D01*
X383020000Y-135120000D02*
X380226000Y-135120000D01*
X157517999Y-94704001D02*
X159804007Y-94704001D01*
X91186000Y-66040000D02*
X92456000Y-67310000D01*
X156718000Y-95504000D02*
X157517999Y-94704001D01*
X107441992Y-58166000D02*
X160019992Y-58166000D01*
X159804007Y-94704001D02*
X160020000Y-94488008D01*
X153670000Y-95504000D02*
X156718000Y-95504000D01*
X92456000Y-67310000D02*
X107442000Y-67310000D01*
D61*
X93472000Y-68580000D02*
X94742000Y-69850000D01*
D57*
X111252000Y-68580000D02*
X112268000Y-68580000D01*
D61*
X103378000Y-69850000D02*
X104648000Y-68580000D01*
D57*
X112268000Y-68580000D02*
X113538000Y-69850000D01*
X132334000Y-78740000D02*
X136652000Y-78740000D01*
X113538000Y-69850000D02*
X132334000Y-69850000D01*
D61*
X94742000Y-69850000D02*
X103378000Y-69850000D01*
X104648000Y-68580000D02*
X111252000Y-68580000D01*
X91186000Y-68580000D02*
X93472000Y-68580000D01*
D57*
X153670000Y-98044000D02*
X149860000Y-98044000D01*
X143764000Y-58927992D02*
X91948008Y-58927992D01*
X149860000Y-98044000D02*
X148590000Y-96774000D01*
X91948008Y-58927992D02*
X91948000Y-58928000D01*
X148590000Y-96774000D02*
X143764000Y-96774000D01*
X133604000Y-76200000D02*
X136652000Y-76200000D01*
X93726000Y-74930000D02*
X102362000Y-74930000D01*
X111252000Y-73660000D02*
X113284000Y-73660000D01*
X92456000Y-76200000D02*
X93726000Y-74930000D01*
X132334000Y-74930000D02*
X133604000Y-76200000D01*
X91186000Y-76200000D02*
X92456000Y-76200000D01*
X102362000Y-74930000D02*
X103632000Y-73660000D01*
X114554000Y-74930000D02*
X132334000Y-74930000D01*
X113284000Y-73660000D02*
X114554000Y-74930000D01*
X103632000Y-73660000D02*
X111252000Y-73660000D01*
X114554000Y-77470000D02*
X131318000Y-77470000D01*
X131318000Y-73660000D02*
X136652000Y-73660000D01*
X113284000Y-76200000D02*
X114554000Y-77470000D01*
X98806000Y-78740000D02*
X102362000Y-78740000D01*
X104902000Y-76200000D02*
X111252000Y-76200000D01*
X102362000Y-78740000D02*
X104902000Y-76200000D01*
X111252000Y-76200000D02*
X113284000Y-76200000D01*
X140970000Y-100584000D02*
X128270000Y-100584000D01*
X153670000Y-100584000D02*
X149860000Y-100584000D01*
X148590000Y-99314000D02*
X142240000Y-99314000D01*
X96520000Y-87630000D02*
X128269996Y-87630000D01*
X149860000Y-100584000D02*
X148590000Y-99314000D01*
X142240000Y-99314000D02*
X140970000Y-100584000D01*
X98806000Y-73660000D02*
X96520000Y-73660000D01*
X113284000Y-117094000D02*
X110744000Y-114554000D01*
X152400000Y-117094000D02*
X113284000Y-117094000D01*
X153670000Y-115824000D02*
X152400000Y-117094000D01*
X98806000Y-71120000D02*
X101854000Y-71120000D01*
X110744000Y-114554000D02*
X101854000Y-114554000D01*
X98806000Y-93980000D02*
X102870000Y-93980000D01*
X140969992Y-110490008D02*
X102870000Y-110490008D01*
X150114000Y-110744000D02*
X148844000Y-109474000D01*
X141986000Y-109474000D02*
X140969992Y-110490008D01*
X148844000Y-109474000D02*
X141986000Y-109474000D01*
X153670000Y-110744000D02*
X150114000Y-110744000D01*
X148590000Y-106934000D02*
X141986000Y-106934000D01*
X95250000Y-110490000D02*
X94488000Y-110490000D01*
X121920000Y-111252000D02*
X96012000Y-111252000D01*
X153670000Y-108204000D02*
X149860000Y-108204000D01*
X91186000Y-93980000D02*
X94488010Y-93980000D01*
X96012000Y-111252000D02*
X95250000Y-110490000D01*
X140970000Y-107950000D02*
X121920000Y-107950000D01*
X141986000Y-106934000D02*
X140970000Y-107950000D01*
X149860000Y-108204000D02*
X148590000Y-106934000D01*
X153670000Y-105664000D02*
X149860000Y-105664000D01*
X142240002Y-113538002D02*
X92710000Y-113538002D01*
X149860000Y-105664000D02*
X148590000Y-104394000D01*
X148590000Y-104394000D02*
X143002000Y-104394000D01*
X143002000Y-114300000D02*
X142240002Y-113538002D01*
X140716000Y-103378000D02*
X126238000Y-103378000D01*
X126238000Y-86360000D02*
X98806000Y-86360000D01*
X149860000Y-103124000D02*
X148590000Y-101854000D01*
X153670000Y-103124000D02*
X149860000Y-103124000D01*
X148590000Y-101854000D02*
X142240000Y-101854000D01*
X142240000Y-101854000D02*
X140716000Y-103378000D01*
X93472000Y-90170000D02*
X120904000Y-90170000D01*
X120904000Y-68580000D02*
X129032000Y-68580000D01*
X118872000Y-81280000D02*
X120904000Y-81280000D01*
X91186000Y-88900000D02*
X92202000Y-88900000D01*
X92202000Y-88900000D02*
X93472000Y-90170000D01*
X102362000Y-80264000D02*
X88900000Y-80264000D01*
X121920000Y-71120000D02*
X129032000Y-71120000D01*
X118872000Y-78740000D02*
X121920000Y-78740000D01*
X118872000Y-78740000D02*
X114554000Y-78740000D01*
X88900000Y-96520000D02*
X91186000Y-96520000D01*
X113284000Y-77470000D02*
X105156000Y-77470000D01*
X105156000Y-77470000D02*
X102362000Y-80264000D01*
X114554000Y-78740000D02*
X113284000Y-77470000D01*
X108966000Y-100584000D02*
X102616000Y-100584000D01*
X102616000Y-100584000D02*
X101092000Y-99060000D01*
X118872000Y-76200000D02*
X122936000Y-76200000D01*
X113284000Y-74930000D02*
X108966000Y-74930000D01*
X101092000Y-99060000D02*
X98806000Y-99060000D01*
X114554000Y-76200000D02*
X113284000Y-74930000D01*
X122936000Y-73660000D02*
X129032000Y-73660000D01*
X118872000Y-76200000D02*
X114554000Y-76200000D01*
X98806000Y-91440000D02*
X107950000Y-91440000D01*
X124206000Y-66040000D02*
X129032000Y-66040000D01*
X111252000Y-78740000D02*
X107950000Y-78740000D01*
X113284000Y-78740000D02*
X114554000Y-80010000D01*
X111252000Y-78740000D02*
X113284000Y-78740000D01*
X114554000Y-80010000D02*
X124206000Y-80010000D01*
X111252000Y-71120000D02*
X113284000Y-71120000D01*
X113284000Y-81280000D02*
X111252000Y-81280000D01*
X129032000Y-78740000D02*
X130048000Y-78740000D01*
X130302000Y-78740000D02*
X131572000Y-80010000D01*
X164592000Y-100584000D02*
X156718000Y-100584000D01*
X129794000Y-78740000D02*
X130048000Y-78740000D01*
X131572000Y-80010000D02*
X132334000Y-80010000D01*
X132334000Y-87884000D02*
X156718000Y-87884000D01*
X130048000Y-78740000D02*
X130302000Y-78740000D01*
X157988000Y-98044000D02*
X157734000Y-98298000D01*
X131064000Y-86868000D02*
X157733988Y-86868000D01*
X157733988Y-86868000D02*
X157734000Y-86868012D01*
X164592000Y-98044000D02*
X157988000Y-98044000D01*
X138938000Y-175260000D02*
X142748000Y-175260000D01*
X119126000Y-121158000D02*
X125730000Y-121158000D01*
X125730000Y-121158000D02*
X127000000Y-122428000D01*
X127000000Y-122428000D02*
X142748000Y-122428000D01*
X136652000Y-85852000D02*
X158750000Y-85852000D01*
X158750008Y-95504000D02*
X164592000Y-95504000D01*
X164592000Y-103124000D02*
X161544000Y-103124000D01*
X141478000Y-69850000D02*
X161036000Y-69850000D01*
X136652000Y-71120000D02*
X140208000Y-71120000D01*
X140208000Y-71120000D02*
X141478000Y-69850000D01*
X279601000Y-86614000D02*
X279717500Y-86497500D01*
X269494000Y-87884000D02*
X270764000Y-86614000D01*
X270764000Y-86614000D02*
X279601000Y-86614000D01*
X302143500Y-168910000D02*
X303720500Y-168910000D01*
X304863500Y-167767000D02*
X307848000Y-167767000D01*
X303720500Y-168910000D02*
X304863500Y-167767000D01*
D59*
X373380000Y-110490000D02*
X378968000Y-110490000D01*
X379730000Y-109728000D02*
X400050000Y-109728000D01*
X371856000Y-159258000D02*
X369316000Y-159258000D01*
X369570000Y-150114000D02*
X371856000Y-150114000D01*
X369570000Y-140970000D02*
X371856000Y-140970000D01*
X378968000Y-110490000D02*
X379730000Y-109728000D01*
D57*
X265684000Y-186436000D02*
X284226000Y-186436000D01*
X248017000Y-38608000D02*
X252984000Y-38608000D01*
X260858000Y-42418000D02*
X245618000Y-42418000D01*
X248017000Y-47752000D02*
X249541000Y-49276000D01*
X255524000Y-48768000D02*
X255524000Y-47244000D01*
X255016000Y-49276000D02*
X255524000Y-48768000D01*
X249541000Y-49276000D02*
X255016000Y-49276000D01*
X253492000Y-50546000D02*
X247142000Y-50546000D01*
X245477000Y-48881000D02*
X245477000Y-47752000D01*
X247142000Y-50546000D02*
X245477000Y-48881000D01*
X260858000Y-56388000D02*
X259334000Y-56388000D01*
X259334000Y-56388000D02*
X253492000Y-50546000D01*
X140970000Y-180340000D02*
X142240000Y-179070000D01*
X138938000Y-180340000D02*
X140970000Y-180340000D01*
X142240000Y-179070000D02*
X154686000Y-179070000D01*
X154686000Y-175260000D02*
X152400000Y-175260000D01*
X141986000Y-181610000D02*
X143256000Y-180340000D01*
X143256000Y-180340000D02*
X146558000Y-180340000D01*
X127254000Y-182880000D02*
X128524000Y-181610000D01*
X128524000Y-181610000D02*
X141986000Y-181610000D01*
X124460000Y-182880000D02*
X127254000Y-182880000D01*
X136144000Y-175260000D02*
X137414000Y-176530000D01*
X137414000Y-176530000D02*
X144526000Y-176530000D01*
X132080000Y-175260000D02*
X136144000Y-175260000D01*
X144526000Y-182880000D02*
X146558000Y-182880000D01*
M02*
