G04 #@! TF.GenerationSoftware,KiCad,Pcbnew,(6.0.11)*
G04 #@! TF.CreationDate,2023-02-06T09:16:54+00:00*
G04 #@! TF.ProjectId,yddraig09,79646472-6169-4673-9039-2e6b69636164,rev?*
G04 #@! TF.SameCoordinates,Original*
G04 #@! TF.FileFunction,Soldermask,Bot*
G04 #@! TF.FilePolarity,Negative*
%FSLAX46Y46*%
G04 Gerber Fmt 4.6, Leading zero omitted, Abs format (unit mm)*
G04 Created by KiCad (PCBNEW (6.0.11)) date 2023-02-06 09:16:54*
%MOMM*%
%LPD*%
G01*
G04 APERTURE LIST*
G04 Aperture macros list*
%AMRoundRect*
0 Rectangle with rounded corners*
0 $1 Rounding radius*
0 $2 $3 $4 $5 $6 $7 $8 $9 X,Y pos of 4 corners*
0 Add a 4 corners polygon primitive as box body*
4,1,4,$2,$3,$4,$5,$6,$7,$8,$9,$2,$3,0*
0 Add four circle primitives for the rounded corners*
1,1,$1+$1,$2,$3*
1,1,$1+$1,$4,$5*
1,1,$1+$1,$6,$7*
1,1,$1+$1,$8,$9*
0 Add four rect primitives between the rounded corners*
20,1,$1+$1,$2,$3,$4,$5,0*
20,1,$1+$1,$4,$5,$6,$7,0*
20,1,$1+$1,$6,$7,$8,$9,0*
20,1,$1+$1,$8,$9,$2,$3,0*%
G04 Aperture macros list end*
%ADD10C,1.449000*%
%ADD11C,0.854000*%
%ADD12C,1.600000*%
%ADD13R,1.600000X1.600000*%
%ADD14R,1.800000X1.800000*%
%ADD15C,1.800000*%
%ADD16O,1.600000X1.600000*%
%ADD17C,4.000000*%
%ADD18R,1.700000X1.700000*%
%ADD19O,1.700000X1.700000*%
%ADD20C,2.390000*%
%ADD21R,2.100000X2.100000*%
%ADD22C,2.100000*%
%ADD23C,2.400000*%
%ADD24R,1.950000X1.950000*%
%ADD25C,1.950000*%
%ADD26C,1.500000*%
%ADD27C,2.600000*%
%ADD28R,1.500000X1.050000*%
%ADD29O,1.500000X1.050000*%
%ADD30R,1.050000X1.500000*%
%ADD31O,1.050000X1.500000*%
%ADD32C,2.000000*%
%ADD33R,2.800000X2.800000*%
%ADD34C,2.800000*%
%ADD35R,1.700000X1.200000*%
%ADD36O,1.700000X1.200000*%
%ADD37O,3.500000X3.500000*%
%ADD38R,1.905000X2.000000*%
%ADD39O,1.905000X2.000000*%
%ADD40R,1.422400X1.422400*%
%ADD41C,1.422400*%
%ADD42C,2.300000*%
%ADD43R,1.300000X1.300000*%
%ADD44C,1.300000*%
%ADD45R,3.000000X3.000000*%
%ADD46C,3.000000*%
%ADD47C,2.850000*%
%ADD48RoundRect,0.249999X-0.525001X-0.525001X0.525001X-0.525001X0.525001X0.525001X-0.525001X0.525001X0*%
%ADD49C,1.550000*%
%ADD50C,1.200000*%
%ADD51O,2.416000X1.208000*%
%ADD52O,1.208000X2.416000*%
%ADD53R,3.765000X3.765000*%
%ADD54C,3.600000*%
%ADD55R,1.509000X1.509000*%
%ADD56C,1.509000*%
%ADD57C,3.555000*%
%ADD58C,4.300000*%
G04 APERTURE END LIST*
D10*
X44805700Y-27475800D02*
G75*
G03*
X44805700Y-27475800I-724500J0D01*
G01*
X59815700Y-27475800D02*
G75*
G03*
X59815700Y-27475800I-724500J0D01*
G01*
D11*
X368393000Y-29400000D02*
G75*
G03*
X368393000Y-29400000I-427000J0D01*
G01*
X373393000Y-21900000D02*
G75*
G03*
X373393000Y-21900000I-427000J0D01*
G01*
X373393000Y-24400000D02*
G75*
G03*
X373393000Y-24400000I-427000J0D01*
G01*
X363393000Y-24400000D02*
G75*
G03*
X363393000Y-24400000I-427000J0D01*
G01*
X363393000Y-21900000D02*
G75*
G03*
X363393000Y-21900000I-427000J0D01*
G01*
D12*
X70906000Y-70358000D03*
X73406000Y-70358000D03*
X64008000Y-70358000D03*
X66508000Y-70358000D03*
X102616000Y-48768000D03*
X102616000Y-46268000D03*
X151384000Y-148844000D03*
X148884000Y-148844000D03*
X130810000Y-39878000D03*
X133310000Y-39878000D03*
X260945000Y-166116000D03*
X258445000Y-166116000D03*
X291909500Y-170180000D03*
X291909500Y-167680000D03*
X307848000Y-167767000D03*
X307848000Y-170267000D03*
X270129000Y-106934000D03*
X272629000Y-106934000D03*
X328676000Y-128056000D03*
X328676000Y-130556000D03*
X278471000Y-166116000D03*
X275971000Y-166116000D03*
X286385000Y-107188000D03*
X288885000Y-107188000D03*
X253238000Y-107061000D03*
X255738000Y-107061000D03*
X297688000Y-109982000D03*
X297688000Y-107482000D03*
X284734000Y-166116000D03*
X282234000Y-166116000D03*
X393486000Y-113538000D03*
X395986000Y-113538000D03*
X387338000Y-133596000D03*
X387338000Y-136096000D03*
D13*
X385191000Y-141772000D03*
D12*
X385191000Y-144272000D03*
D13*
X385191000Y-150622000D03*
D12*
X385191000Y-153122000D03*
D13*
X376174000Y-114808000D03*
D12*
X376174000Y-112308000D03*
X387338000Y-127286000D03*
X387338000Y-129786000D03*
X344424000Y-87884000D03*
X346924000Y-87884000D03*
X362204000Y-143256000D03*
X359704000Y-143256000D03*
D13*
X376174000Y-121158000D03*
D12*
X376174000Y-118658000D03*
X346456000Y-78994000D03*
X346456000Y-76494000D03*
X362458000Y-76454000D03*
X362458000Y-78954000D03*
X336510000Y-68326000D03*
X334010000Y-68326000D03*
X336510000Y-73025000D03*
X334010000Y-73025000D03*
X336510000Y-77724000D03*
X334010000Y-77724000D03*
X336510000Y-82423000D03*
X334010000Y-82423000D03*
X365760000Y-50546000D03*
X365760000Y-53046000D03*
D13*
X337693000Y-43815000D03*
D12*
X337693000Y-41315000D03*
D13*
X322834000Y-43815000D03*
D12*
X322834000Y-41315000D03*
D13*
X330200000Y-43815000D03*
D12*
X330200000Y-41315000D03*
D13*
X315214000Y-43688000D03*
D12*
X315214000Y-41188000D03*
D13*
X305054000Y-68326000D03*
D12*
X307554000Y-68326000D03*
X365760000Y-44236000D03*
X365760000Y-46736000D03*
X360172000Y-38354000D03*
X362672000Y-38354000D03*
X314365000Y-68072000D03*
X316865000Y-68072000D03*
X232664000Y-176570000D03*
X232664000Y-179070000D03*
X115530000Y-189992000D03*
X113030000Y-189992000D03*
X87376000Y-156678000D03*
X87376000Y-154178000D03*
X101306000Y-189992000D03*
X98806000Y-189992000D03*
X278320500Y-75628500D03*
X280820500Y-75628500D03*
X280733500Y-92773500D03*
X278233500Y-92773500D03*
D13*
X280162000Y-38354000D03*
D12*
X277662000Y-38354000D03*
D13*
X277622000Y-57150000D03*
D12*
X280122000Y-57150000D03*
D13*
X286218000Y-57150000D03*
D12*
X283718000Y-57150000D03*
X248920000Y-74128000D03*
X248920000Y-71628000D03*
X48260000Y-152400000D03*
X45760000Y-152400000D03*
X36068000Y-108204000D03*
X38568000Y-108204000D03*
X50800000Y-127254000D03*
X48300000Y-127254000D03*
X33782000Y-136398000D03*
X33782000Y-133898000D03*
D13*
X81828000Y-185420000D03*
D12*
X84328000Y-185420000D03*
X78486000Y-186944000D03*
X75986000Y-186944000D03*
D13*
X81788000Y-177038000D03*
D12*
X84288000Y-177038000D03*
X66929000Y-30226000D03*
X66929000Y-32726000D03*
X72009000Y-30226000D03*
X72009000Y-32726000D03*
D13*
X67945000Y-45466000D03*
D12*
X70445000Y-45466000D03*
D13*
X67945000Y-52832000D03*
D12*
X70445000Y-52832000D03*
X66929000Y-36616000D03*
X66929000Y-39116000D03*
X72047833Y-36660000D03*
X72047833Y-39160000D03*
X203200000Y-61468000D03*
X205700000Y-61468000D03*
X210860000Y-38862000D03*
X213360000Y-38862000D03*
D13*
X203200000Y-55118000D03*
D12*
X205700000Y-55118000D03*
X233934000Y-72390000D03*
X233934000Y-74890000D03*
X240284000Y-64262000D03*
X237784000Y-64262000D03*
D13*
X253238000Y-56388000D03*
D12*
X255738000Y-56388000D03*
D14*
X58198800Y-58166000D03*
D15*
X60738800Y-58166000D03*
D14*
X50698800Y-58166000D03*
D15*
X53238800Y-58166000D03*
D14*
X43198800Y-58166000D03*
D15*
X45738800Y-58166000D03*
D14*
X281686000Y-180022500D03*
D15*
X284226000Y-180022500D03*
D12*
X380746000Y-64516000D03*
D16*
X390906000Y-64516000D03*
D12*
X380746000Y-53594000D03*
D16*
X390906000Y-53594000D03*
D12*
X380746000Y-42926000D03*
D16*
X390906000Y-42926000D03*
D12*
X380492000Y-99822000D03*
D16*
X390652000Y-99822000D03*
D12*
X380492000Y-88646000D03*
D16*
X390652000Y-88646000D03*
D12*
X380492000Y-81280000D03*
D16*
X390652000Y-81280000D03*
D12*
X380746000Y-60960000D03*
D16*
X390906000Y-60960000D03*
D12*
X380746000Y-57150000D03*
D16*
X390906000Y-57150000D03*
D12*
X380746000Y-50038000D03*
D16*
X390906000Y-50038000D03*
D12*
X380746000Y-46482000D03*
D16*
X390906000Y-46482000D03*
D12*
X380492000Y-96266000D03*
D16*
X390652000Y-96266000D03*
D12*
X380492000Y-92456000D03*
D16*
X390652000Y-92456000D03*
D12*
X380492000Y-84836000D03*
D16*
X390652000Y-84836000D03*
D12*
X380492000Y-77724000D03*
D16*
X390652000Y-77724000D03*
D17*
X397429000Y-63805200D03*
X397429000Y-38805200D03*
D13*
X397129000Y-56845200D03*
D12*
X397129000Y-54075200D03*
X397129000Y-51305200D03*
X397129000Y-48535200D03*
X397129000Y-45765200D03*
X399969000Y-55460200D03*
X399969000Y-52690200D03*
X399969000Y-49920200D03*
X399969000Y-47150200D03*
D17*
X397200400Y-98984200D03*
X397200400Y-73984200D03*
D13*
X396900400Y-92024200D03*
D12*
X396900400Y-89254200D03*
X396900400Y-86484200D03*
X396900400Y-83714200D03*
X396900400Y-80944200D03*
X399740400Y-90639200D03*
X399740400Y-87869200D03*
X399740400Y-85099200D03*
X399740400Y-82329200D03*
D17*
X310490000Y-28148000D03*
X285490000Y-28148000D03*
D13*
X303530000Y-28448000D03*
D12*
X300760000Y-28448000D03*
X297990000Y-28448000D03*
X295220000Y-28448000D03*
X292450000Y-28448000D03*
X302145000Y-25608000D03*
X299375000Y-25608000D03*
X296605000Y-25608000D03*
X293835000Y-25608000D03*
D17*
X247771000Y-28148000D03*
X272771000Y-28148000D03*
D13*
X265811000Y-28448000D03*
D12*
X263041000Y-28448000D03*
X260271000Y-28448000D03*
X257501000Y-28448000D03*
X254731000Y-28448000D03*
X264426000Y-25608000D03*
X261656000Y-25608000D03*
X258886000Y-25608000D03*
X256116000Y-25608000D03*
D18*
X60198000Y-177038000D03*
D19*
X60198000Y-174498000D03*
D20*
X59091200Y-27475800D03*
X44081200Y-27475800D03*
D21*
X44081200Y-32485800D03*
D22*
X51586200Y-32485800D03*
X59091200Y-32485800D03*
X46581200Y-34975800D03*
X56591200Y-34975800D03*
X54086200Y-22475800D03*
X49086200Y-22475800D03*
D23*
X215298000Y-27860000D03*
X230298000Y-27860000D03*
D24*
X215298000Y-32860000D03*
D25*
X217798000Y-35360000D03*
X222798000Y-32860000D03*
X227798000Y-35360000D03*
X230298000Y-32860000D03*
X222798000Y-37860000D03*
X225298000Y-22860000D03*
X220298000Y-22860000D03*
D26*
X176469600Y-37986600D03*
X200669600Y-37986600D03*
D27*
X54938000Y-44928967D03*
X59938000Y-44928967D03*
X44688000Y-44928967D03*
X49688000Y-44928967D03*
D28*
X299720000Y-78740000D03*
D29*
X299720000Y-80010000D03*
X299720000Y-81280000D03*
D30*
X289433000Y-180530500D03*
D31*
X290703000Y-180530500D03*
X291973000Y-180530500D03*
D30*
X289433000Y-190182500D03*
D31*
X290703000Y-190182500D03*
X291973000Y-190182500D03*
D12*
X328676000Y-114935000D03*
D16*
X328676000Y-125095000D03*
D12*
X369570000Y-145542000D03*
D16*
X379730000Y-145542000D03*
D12*
X369570000Y-154686000D03*
D16*
X379730000Y-154686000D03*
D12*
X369570000Y-164084000D03*
D16*
X379730000Y-164084000D03*
D12*
X369570000Y-140970000D03*
D16*
X379730000Y-140970000D03*
D12*
X369570000Y-150114000D03*
D16*
X379730000Y-150114000D03*
D12*
X369316000Y-159258000D03*
D16*
X379476000Y-159258000D03*
D12*
X330581000Y-77724000D03*
D16*
X320421000Y-77724000D03*
D12*
X349250000Y-83820000D03*
D16*
X359410000Y-83820000D03*
D12*
X330581000Y-73025000D03*
D16*
X320421000Y-73025000D03*
D12*
X330581000Y-68326000D03*
D16*
X320421000Y-68326000D03*
D12*
X330581000Y-82423000D03*
D16*
X320421000Y-82423000D03*
D12*
X372618000Y-83820000D03*
D16*
X362458000Y-83820000D03*
D12*
X346710000Y-38354000D03*
D16*
X356870000Y-38354000D03*
D12*
X335026000Y-48514000D03*
D16*
X335026000Y-58674000D03*
D12*
X325374000Y-48514000D03*
D16*
X325374000Y-58674000D03*
D12*
X330200000Y-48514000D03*
D16*
X330200000Y-58674000D03*
D12*
X320802000Y-48514000D03*
D16*
X320802000Y-58674000D03*
D12*
X316230000Y-48514000D03*
D16*
X316230000Y-58674000D03*
D12*
X305054000Y-82296000D03*
D16*
X315214000Y-82296000D03*
D12*
X305054000Y-77724000D03*
D16*
X315214000Y-77724000D03*
D12*
X339852000Y-48514000D03*
D16*
X339852000Y-58674000D03*
D12*
X254508000Y-64262000D03*
D16*
X244348000Y-64262000D03*
D12*
X260858000Y-42418000D03*
D16*
X271018000Y-42418000D03*
D12*
X260858000Y-51816000D03*
D16*
X271018000Y-51816000D03*
D12*
X260858000Y-56388000D03*
D16*
X271018000Y-56388000D03*
D12*
X38862000Y-143510000D03*
D16*
X38862000Y-133350000D03*
D12*
X35306000Y-164338000D03*
D16*
X45466000Y-164338000D03*
D12*
X28702000Y-93726000D03*
D16*
X38862000Y-93726000D03*
D12*
X63500000Y-163830000D03*
D16*
X73660000Y-163830000D03*
D12*
X26924000Y-53314600D03*
D16*
X37084000Y-53314600D03*
D12*
X26924000Y-62738000D03*
D16*
X37084000Y-62738000D03*
D12*
X26924000Y-58115200D03*
D16*
X37084000Y-58115200D03*
D12*
X256286000Y-189230000D03*
D16*
X256286000Y-179070000D03*
D12*
X261112000Y-189484000D03*
D16*
X261112000Y-179324000D03*
D12*
X251460000Y-189230000D03*
D16*
X251460000Y-179070000D03*
D12*
X265684000Y-189484000D03*
D16*
X265684000Y-179324000D03*
D13*
X367538000Y-114046000D03*
D16*
X367538000Y-116586000D03*
X367538000Y-119126000D03*
X367538000Y-121666000D03*
X367538000Y-124206000D03*
X367538000Y-126746000D03*
D13*
X341630000Y-116586000D03*
D16*
X341630000Y-119126000D03*
X341630000Y-121666000D03*
X341630000Y-124206000D03*
X341630000Y-126746000D03*
X341630000Y-129286000D03*
D13*
X180086000Y-64516000D03*
D16*
X180086000Y-67056000D03*
X180086000Y-69596000D03*
X180086000Y-72136000D03*
X180086000Y-74676000D03*
X180086000Y-77216000D03*
D13*
X181356000Y-56642000D03*
D16*
X178816000Y-56642000D03*
X176276000Y-56642000D03*
X173736000Y-56642000D03*
X171196000Y-56642000D03*
X168656000Y-56642000D03*
D13*
X198374000Y-56642000D03*
D16*
X195834000Y-56642000D03*
X193294000Y-56642000D03*
X190754000Y-56642000D03*
X188214000Y-56642000D03*
X185674000Y-56642000D03*
D32*
X36726000Y-83892000D03*
X30226000Y-83892000D03*
X36726000Y-88392000D03*
X30226000Y-88392000D03*
X63650000Y-188396000D03*
X57150000Y-188396000D03*
X57150000Y-183896000D03*
X63650000Y-183896000D03*
D33*
X33451800Y-34925000D03*
D34*
X33451800Y-38725000D03*
X33451800Y-42525000D03*
X28651800Y-34925000D03*
X28651800Y-38725000D03*
X28651800Y-42525000D03*
X33651800Y-22225000D03*
X28451800Y-22225000D03*
D13*
X129032000Y-43688000D03*
D16*
X126492000Y-43688000D03*
X123952000Y-43688000D03*
X121412000Y-43688000D03*
X118872000Y-43688000D03*
X116332000Y-43688000D03*
X113792000Y-43688000D03*
X111252000Y-43688000D03*
X108712000Y-43688000D03*
X106172000Y-43688000D03*
X106172000Y-51308000D03*
X108712000Y-51308000D03*
X111252000Y-51308000D03*
X113792000Y-51308000D03*
X116332000Y-51308000D03*
X118872000Y-51308000D03*
X121412000Y-51308000D03*
X123952000Y-51308000D03*
X126492000Y-51308000D03*
X129032000Y-51308000D03*
D13*
X291592000Y-131064000D03*
D16*
X291592000Y-128524000D03*
X291592000Y-125984000D03*
X291592000Y-123444000D03*
X291592000Y-120904000D03*
X291592000Y-118364000D03*
X291592000Y-115824000D03*
X291592000Y-113284000D03*
X291592000Y-110744000D03*
X283972000Y-110744000D03*
X283972000Y-113284000D03*
X283972000Y-115824000D03*
X283972000Y-118364000D03*
X283972000Y-120904000D03*
X283972000Y-123444000D03*
X283972000Y-125984000D03*
X283972000Y-128524000D03*
X283972000Y-131064000D03*
D13*
X275590000Y-131064000D03*
D16*
X275590000Y-128524000D03*
X275590000Y-125984000D03*
X275590000Y-123444000D03*
X275590000Y-120904000D03*
X275590000Y-118364000D03*
X275590000Y-115824000D03*
X275590000Y-113284000D03*
X275590000Y-110744000D03*
X267970000Y-110744000D03*
X267970000Y-113284000D03*
X267970000Y-115824000D03*
X267970000Y-118364000D03*
X267970000Y-120904000D03*
X267970000Y-123444000D03*
X267970000Y-125984000D03*
X267970000Y-128524000D03*
X267970000Y-131064000D03*
D13*
X258318000Y-131064000D03*
D16*
X258318000Y-128524000D03*
X258318000Y-125984000D03*
X258318000Y-123444000D03*
X258318000Y-120904000D03*
X258318000Y-118364000D03*
X258318000Y-115824000D03*
X258318000Y-113284000D03*
X258318000Y-110744000D03*
X250698000Y-110744000D03*
X250698000Y-113284000D03*
X250698000Y-115824000D03*
X250698000Y-118364000D03*
X250698000Y-120904000D03*
X250698000Y-123444000D03*
X250698000Y-125984000D03*
X250698000Y-128524000D03*
X250698000Y-131064000D03*
D13*
X291719000Y-162560000D03*
D16*
X291719000Y-160020000D03*
X291719000Y-157480000D03*
X291719000Y-154940000D03*
X291719000Y-152400000D03*
X291719000Y-149860000D03*
X291719000Y-147320000D03*
X291719000Y-144780000D03*
X291719000Y-142240000D03*
X284099000Y-142240000D03*
X284099000Y-144780000D03*
X284099000Y-147320000D03*
X284099000Y-149860000D03*
X284099000Y-152400000D03*
X284099000Y-154940000D03*
X284099000Y-157480000D03*
X284099000Y-160020000D03*
X284099000Y-162560000D03*
D13*
X275717000Y-162560000D03*
D16*
X275717000Y-160020000D03*
X275717000Y-157480000D03*
X275717000Y-154940000D03*
X275717000Y-152400000D03*
X275717000Y-149860000D03*
X275717000Y-147320000D03*
X275717000Y-144780000D03*
X275717000Y-142240000D03*
X268097000Y-142240000D03*
X268097000Y-144780000D03*
X268097000Y-147320000D03*
X268097000Y-149860000D03*
X268097000Y-152400000D03*
X268097000Y-154940000D03*
X268097000Y-157480000D03*
X268097000Y-160020000D03*
X268097000Y-162560000D03*
D13*
X258445000Y-162560000D03*
D16*
X258445000Y-160020000D03*
X258445000Y-157480000D03*
X258445000Y-154940000D03*
X258445000Y-152400000D03*
X258445000Y-149860000D03*
X258445000Y-147320000D03*
X258445000Y-144780000D03*
X258445000Y-142240000D03*
X250825000Y-142240000D03*
X250825000Y-144780000D03*
X250825000Y-147320000D03*
X250825000Y-149860000D03*
X250825000Y-152400000D03*
X250825000Y-154940000D03*
X250825000Y-157480000D03*
X250825000Y-160020000D03*
X250825000Y-162560000D03*
D35*
X321462400Y-161194000D03*
D36*
X321462400Y-159414000D03*
X321462400Y-157634000D03*
X321462400Y-155854000D03*
X321462400Y-154074000D03*
X321462400Y-152294000D03*
X321462400Y-150514000D03*
X321462400Y-148734000D03*
X321462400Y-146954000D03*
X321462400Y-145174000D03*
X321462400Y-143394000D03*
X321462400Y-141614000D03*
X321462400Y-139834000D03*
X321462400Y-138054000D03*
X321462400Y-136274000D03*
X321462400Y-134494000D03*
X321462400Y-132714000D03*
X321462400Y-130934000D03*
X321462400Y-129154000D03*
X321462400Y-127374000D03*
X321462400Y-125594000D03*
X321462400Y-123814000D03*
X321462400Y-122034000D03*
X321462400Y-120254000D03*
X321462400Y-118474000D03*
X321462400Y-116694000D03*
X321462400Y-114914000D03*
X321462400Y-113134000D03*
X321462400Y-111354000D03*
X321462400Y-109574000D03*
X321462400Y-107794000D03*
X321462400Y-106014000D03*
X302361600Y-106014000D03*
X302361600Y-107794000D03*
X302361600Y-109574000D03*
X302361600Y-111354000D03*
X302361600Y-113134000D03*
X302361600Y-114914000D03*
X302361600Y-116694000D03*
X302361600Y-118474000D03*
X302361600Y-120254000D03*
X302361600Y-122034000D03*
X302361600Y-123814000D03*
X302361600Y-125594000D03*
X302361600Y-127374000D03*
X302361600Y-129154000D03*
X302361600Y-130934000D03*
X302361600Y-132714000D03*
X302361600Y-134494000D03*
X302361600Y-136274000D03*
X302361600Y-138054000D03*
X302361600Y-139834000D03*
X302361600Y-141614000D03*
X302361600Y-143394000D03*
X302361600Y-145174000D03*
X302361600Y-146954000D03*
X302361600Y-148734000D03*
X302361600Y-150514000D03*
X302361600Y-152294000D03*
X302361600Y-154074000D03*
X302361600Y-155854000D03*
X302361600Y-157634000D03*
X302361600Y-159414000D03*
X302361600Y-161194000D03*
D13*
X375400000Y-127500000D03*
D16*
X375400000Y-130040000D03*
X375400000Y-132580000D03*
X375400000Y-135120000D03*
X383020000Y-135120000D03*
X383020000Y-132580000D03*
X383020000Y-130040000D03*
X383020000Y-127500000D03*
D13*
X347218000Y-71501000D03*
D16*
X349758000Y-71501000D03*
X352298000Y-71501000D03*
X354838000Y-71501000D03*
X357378000Y-71501000D03*
X359918000Y-71501000D03*
X362458000Y-71501000D03*
X362458000Y-63881000D03*
X359918000Y-63881000D03*
X357378000Y-63881000D03*
X354838000Y-63881000D03*
X352298000Y-63881000D03*
X349758000Y-63881000D03*
X347218000Y-63881000D03*
D13*
X138938000Y-170180000D03*
D16*
X138938000Y-172720000D03*
X138938000Y-175260000D03*
X138938000Y-177800000D03*
X138938000Y-180340000D03*
X138938000Y-182880000D03*
X138938000Y-185420000D03*
X146558000Y-185420000D03*
X146558000Y-182880000D03*
X146558000Y-180340000D03*
X146558000Y-177800000D03*
X146558000Y-175260000D03*
X146558000Y-172720000D03*
X146558000Y-170180000D03*
D13*
X91694000Y-116078000D03*
D16*
X91694000Y-118618000D03*
X91694000Y-121158000D03*
X91694000Y-123698000D03*
X91694000Y-126238000D03*
X91694000Y-128778000D03*
X91694000Y-131318000D03*
X91694000Y-133858000D03*
X91694000Y-136398000D03*
X91694000Y-138938000D03*
X91694000Y-141478000D03*
X91694000Y-144018000D03*
X91694000Y-146558000D03*
X91694000Y-149098000D03*
X91694000Y-151638000D03*
X91694000Y-154178000D03*
X106934000Y-154178000D03*
X106934000Y-151638000D03*
X106934000Y-149098000D03*
X106934000Y-146558000D03*
X106934000Y-144018000D03*
X106934000Y-141478000D03*
X106934000Y-138938000D03*
X106934000Y-136398000D03*
X106934000Y-133858000D03*
X106934000Y-131318000D03*
X106934000Y-128778000D03*
X106934000Y-126238000D03*
X106934000Y-123698000D03*
X106934000Y-121158000D03*
X106934000Y-118618000D03*
X106934000Y-116078000D03*
D13*
X119126000Y-121158000D03*
D16*
X119126000Y-123698000D03*
X119126000Y-126238000D03*
X119126000Y-128778000D03*
X119126000Y-131318000D03*
X119126000Y-133858000D03*
X119126000Y-136398000D03*
X119126000Y-138938000D03*
X119126000Y-141478000D03*
X119126000Y-144018000D03*
X119126000Y-146558000D03*
X119126000Y-149098000D03*
X119126000Y-151638000D03*
X119126000Y-154178000D03*
X134366000Y-154178000D03*
X134366000Y-151638000D03*
X134366000Y-149098000D03*
X134366000Y-146558000D03*
X134366000Y-144018000D03*
X134366000Y-141478000D03*
X134366000Y-138938000D03*
X134366000Y-136398000D03*
X134366000Y-133858000D03*
X134366000Y-131318000D03*
X134366000Y-128778000D03*
X134366000Y-126238000D03*
X134366000Y-123698000D03*
X134366000Y-121158000D03*
D13*
X305562000Y-44069000D03*
D16*
X303022000Y-44069000D03*
X300482000Y-44069000D03*
X297942000Y-44069000D03*
X295402000Y-44069000D03*
X292862000Y-44069000D03*
X290322000Y-44069000D03*
X287782000Y-44069000D03*
X285242000Y-44069000D03*
X282702000Y-44069000D03*
X280162000Y-44069000D03*
X277622000Y-44069000D03*
X277622000Y-51689000D03*
X280162000Y-51689000D03*
X282702000Y-51689000D03*
X285242000Y-51689000D03*
X287782000Y-51689000D03*
X290322000Y-51689000D03*
X292862000Y-51689000D03*
X295402000Y-51689000D03*
X297942000Y-51689000D03*
X300482000Y-51689000D03*
X303022000Y-51689000D03*
X305562000Y-51689000D03*
D13*
X43180000Y-133350000D03*
D16*
X43180000Y-135890000D03*
X43180000Y-138430000D03*
X43180000Y-140970000D03*
X43180000Y-143510000D03*
X43180000Y-146050000D03*
X43180000Y-148590000D03*
X50800000Y-148590000D03*
X50800000Y-146050000D03*
X50800000Y-143510000D03*
X50800000Y-140970000D03*
X50800000Y-138430000D03*
X50800000Y-135890000D03*
X50800000Y-133350000D03*
D13*
X43180000Y-108204000D03*
D16*
X43180000Y-110744000D03*
X43180000Y-113284000D03*
X43180000Y-115824000D03*
X43180000Y-118364000D03*
X43180000Y-120904000D03*
X43180000Y-123444000D03*
X50800000Y-123444000D03*
X50800000Y-120904000D03*
X50800000Y-118364000D03*
X50800000Y-115824000D03*
X50800000Y-113284000D03*
X50800000Y-110744000D03*
X50800000Y-108204000D03*
D13*
X69596000Y-174498000D03*
D16*
X69596000Y-177038000D03*
X69596000Y-179578000D03*
X69596000Y-182118000D03*
X77216000Y-182118000D03*
X77216000Y-179578000D03*
X77216000Y-177038000D03*
X77216000Y-174498000D03*
D13*
X80010000Y-156718000D03*
D16*
X80010000Y-154178000D03*
X80010000Y-151638000D03*
X80010000Y-149098000D03*
X80010000Y-146558000D03*
X80010000Y-144018000D03*
X80010000Y-141478000D03*
X80010000Y-138938000D03*
X80010000Y-136398000D03*
X80010000Y-133858000D03*
X80010000Y-131318000D03*
X80010000Y-128778000D03*
X80010000Y-126238000D03*
X80010000Y-123698000D03*
X80010000Y-121158000D03*
X80010000Y-118618000D03*
X80010000Y-116078000D03*
X80010000Y-113538000D03*
X80010000Y-110998000D03*
X80010000Y-108458000D03*
X64770000Y-108458000D03*
X64770000Y-110998000D03*
X64770000Y-113538000D03*
X64770000Y-116078000D03*
X64770000Y-118618000D03*
X64770000Y-121158000D03*
X64770000Y-123698000D03*
X64770000Y-126238000D03*
X64770000Y-128778000D03*
X64770000Y-131318000D03*
X64770000Y-133858000D03*
X64770000Y-136398000D03*
X64770000Y-138938000D03*
X64770000Y-141478000D03*
X64770000Y-144018000D03*
X64770000Y-146558000D03*
X64770000Y-149098000D03*
X64770000Y-151638000D03*
X64770000Y-154178000D03*
X64770000Y-156718000D03*
D37*
X214630000Y-60094000D03*
D38*
X217170000Y-43434000D03*
D39*
X214630000Y-43434000D03*
X212090000Y-43434000D03*
D13*
X229870000Y-45212000D03*
D16*
X229870000Y-47752000D03*
X229870000Y-50292000D03*
X229870000Y-52832000D03*
X229870000Y-55372000D03*
X229870000Y-57912000D03*
X229870000Y-60452000D03*
X237490000Y-60452000D03*
X237490000Y-57912000D03*
X237490000Y-55372000D03*
X237490000Y-52832000D03*
X237490000Y-50292000D03*
X237490000Y-47752000D03*
X237490000Y-45212000D03*
D13*
X184658000Y-64262000D03*
D16*
X184658000Y-66802000D03*
X184658000Y-69342000D03*
X184658000Y-71882000D03*
X184658000Y-74422000D03*
X184658000Y-76962000D03*
X184658000Y-79502000D03*
X192278000Y-79502000D03*
X192278000Y-76962000D03*
X192278000Y-74422000D03*
X192278000Y-71882000D03*
X192278000Y-69342000D03*
X192278000Y-66802000D03*
X192278000Y-64262000D03*
D40*
X226060000Y-82804000D03*
D41*
X228600000Y-80264000D03*
X226060000Y-80264000D03*
X228600000Y-77724000D03*
X226060000Y-77724000D03*
X228600000Y-75184000D03*
X226060000Y-72644000D03*
X226060000Y-75184000D03*
X223520000Y-72644000D03*
X223520000Y-75184000D03*
X220980000Y-72644000D03*
X220980000Y-75184000D03*
X218440000Y-72644000D03*
X218440000Y-75184000D03*
X215900000Y-72644000D03*
X215900000Y-75184000D03*
X213360000Y-72644000D03*
X210820000Y-75184000D03*
X213360000Y-75184000D03*
X210820000Y-77724000D03*
X213360000Y-77724000D03*
X210820000Y-80264000D03*
X213360000Y-80264000D03*
X210820000Y-82804000D03*
X213360000Y-82804000D03*
X210820000Y-85344000D03*
X213360000Y-85344000D03*
X210820000Y-87884000D03*
X213360000Y-90424000D03*
X213360000Y-87884000D03*
X215900000Y-90424000D03*
X215900000Y-87884000D03*
X218440000Y-90424000D03*
X218440000Y-87884000D03*
X220980000Y-90424000D03*
X220980000Y-87884000D03*
X223520000Y-90424000D03*
X223520000Y-87884000D03*
X226060000Y-90424000D03*
X228600000Y-87884000D03*
X226060000Y-87884000D03*
X228600000Y-85344000D03*
X226060000Y-85344000D03*
X228600000Y-82804000D03*
D42*
X297243500Y-168910000D03*
X302143500Y-168910000D03*
D12*
X35306000Y-169164000D03*
D16*
X45466000Y-169164000D03*
D12*
X35306000Y-159766000D03*
D16*
X45466000Y-159766000D03*
D12*
X63500000Y-168656000D03*
D16*
X73660000Y-168656000D03*
D12*
X77216000Y-168656000D03*
D16*
X87376000Y-168656000D03*
D12*
X143978000Y-189992000D03*
X141478000Y-189992000D03*
D13*
X385191000Y-159766000D03*
D12*
X385191000Y-162266000D03*
D43*
X348996000Y-179832000D03*
D44*
X347726000Y-181102000D03*
X346456000Y-179832000D03*
D43*
X346456000Y-172466000D03*
D44*
X347726000Y-171196000D03*
X348996000Y-172466000D03*
D12*
X353822000Y-171196000D03*
D16*
X353822000Y-181356000D03*
D12*
X358400000Y-171220000D03*
D16*
X358400000Y-181380000D03*
D13*
X354838000Y-167132000D03*
D16*
X362458000Y-167132000D03*
D13*
X157988000Y-43688000D03*
D16*
X155448000Y-43688000D03*
X152908000Y-43688000D03*
X150368000Y-43688000D03*
X147828000Y-43688000D03*
X145288000Y-43688000D03*
X142748000Y-43688000D03*
X140208000Y-43688000D03*
X137668000Y-43688000D03*
X135128000Y-43688000D03*
X135128000Y-51308000D03*
X137668000Y-51308000D03*
X140208000Y-51308000D03*
X142748000Y-51308000D03*
X145288000Y-51308000D03*
X147828000Y-51308000D03*
X150368000Y-51308000D03*
X152908000Y-51308000D03*
X155448000Y-51308000D03*
X157988000Y-51308000D03*
D45*
X370840000Y-182118000D03*
D46*
X391330000Y-182118000D03*
D12*
X328676000Y-154114500D03*
D16*
X328676000Y-143954500D03*
D18*
X211074000Y-150114000D03*
D19*
X208534000Y-150114000D03*
X205994000Y-150114000D03*
X203454000Y-150114000D03*
X200914000Y-150114000D03*
X198374000Y-150114000D03*
X195834000Y-150114000D03*
X193294000Y-150114000D03*
X190754000Y-150114000D03*
X188214000Y-150114000D03*
X185674000Y-150114000D03*
X183134000Y-150114000D03*
X180594000Y-150114000D03*
X178054000Y-150114000D03*
X175514000Y-150114000D03*
X172974000Y-150114000D03*
X170434000Y-150114000D03*
X167894000Y-150114000D03*
X165354000Y-150114000D03*
X162814000Y-150114000D03*
D12*
X201676000Y-189484000D03*
D16*
X211836000Y-189484000D03*
D13*
X180594000Y-157988000D03*
D16*
X183134000Y-157988000D03*
X185674000Y-157988000D03*
X188214000Y-157988000D03*
X190754000Y-157988000D03*
X193294000Y-157988000D03*
X195834000Y-157988000D03*
X198374000Y-157988000D03*
X200914000Y-157988000D03*
D13*
X180594000Y-184150000D03*
D16*
X183134000Y-184150000D03*
X185674000Y-184150000D03*
X188214000Y-184150000D03*
X190754000Y-184150000D03*
X193294000Y-184150000D03*
X195834000Y-184150000D03*
X198374000Y-184150000D03*
X200914000Y-184150000D03*
X203454000Y-184150000D03*
X205994000Y-184150000D03*
X208534000Y-184150000D03*
X211074000Y-184150000D03*
X213614000Y-184150000D03*
X216154000Y-184150000D03*
X218694000Y-184150000D03*
X221234000Y-184150000D03*
X223774000Y-184150000D03*
X226314000Y-184150000D03*
X228854000Y-184150000D03*
X228854000Y-168910000D03*
X226314000Y-168910000D03*
X223774000Y-168910000D03*
X221234000Y-168910000D03*
X218694000Y-168910000D03*
X216154000Y-168910000D03*
X213614000Y-168910000D03*
X211074000Y-168910000D03*
X208534000Y-168910000D03*
X205994000Y-168910000D03*
X203454000Y-168910000D03*
X200914000Y-168910000D03*
X198374000Y-168910000D03*
X195834000Y-168910000D03*
X193294000Y-168910000D03*
X190754000Y-168910000D03*
X188214000Y-168910000D03*
X185674000Y-168910000D03*
X183134000Y-168910000D03*
X180594000Y-168910000D03*
D42*
X227912000Y-190246000D03*
X223012000Y-190246000D03*
D12*
X233680000Y-189016000D03*
X233680000Y-191516000D03*
X217170000Y-191516000D03*
X217170000Y-189016000D03*
X232664000Y-169164000D03*
X232664000Y-171664000D03*
X362900000Y-171196000D03*
D16*
X362900000Y-181356000D03*
D13*
X91186000Y-63500000D03*
D16*
X91186000Y-66040000D03*
X91186000Y-68580000D03*
X91186000Y-71120000D03*
X91186000Y-73660000D03*
X91186000Y-76200000D03*
X91186000Y-78740000D03*
X98806000Y-78740000D03*
X98806000Y-76200000D03*
X98806000Y-73660000D03*
X98806000Y-71120000D03*
X98806000Y-68580000D03*
X98806000Y-66040000D03*
X98806000Y-63500000D03*
D13*
X146050000Y-92964000D03*
D16*
X146050000Y-95504000D03*
X146050000Y-98044000D03*
X146050000Y-100584000D03*
X146050000Y-103124000D03*
X146050000Y-105664000D03*
X146050000Y-108204000D03*
X146050000Y-110744000D03*
X146050000Y-113284000D03*
X146050000Y-115824000D03*
X153670000Y-115824000D03*
X153670000Y-113284000D03*
X153670000Y-110744000D03*
X153670000Y-108204000D03*
X153670000Y-105664000D03*
X153670000Y-103124000D03*
X153670000Y-100584000D03*
X153670000Y-98044000D03*
X153670000Y-95504000D03*
X153670000Y-92964000D03*
D13*
X331470000Y-170434000D03*
D16*
X331470000Y-172974000D03*
X331470000Y-175514000D03*
X331470000Y-178054000D03*
X331470000Y-180594000D03*
X331470000Y-183134000D03*
X331470000Y-185674000D03*
X331470000Y-188214000D03*
X331470000Y-190754000D03*
X339090000Y-190754000D03*
X339090000Y-188214000D03*
X339090000Y-185674000D03*
X339090000Y-183134000D03*
X339090000Y-180594000D03*
X339090000Y-178054000D03*
X339090000Y-175514000D03*
X339090000Y-172974000D03*
X339090000Y-170434000D03*
D12*
X336804000Y-194310000D03*
X334304000Y-194310000D03*
X343408000Y-188254000D03*
X343408000Y-190754000D03*
D13*
X357545000Y-160782000D03*
D12*
X360045000Y-160782000D03*
X167640000Y-119634000D03*
X165140000Y-119634000D03*
X140208000Y-66080000D03*
X140208000Y-68580000D03*
X87630000Y-103124000D03*
X87630000Y-100624000D03*
X174244000Y-119634000D03*
X171744000Y-119634000D03*
D42*
X37338000Y-118872000D03*
X37338000Y-113972000D03*
D12*
X31242000Y-111252000D03*
D16*
X31242000Y-121412000D03*
D12*
X38568000Y-124714000D03*
X36068000Y-124714000D03*
X80010000Y-160528000D03*
X77510000Y-160528000D03*
X70866000Y-186944000D03*
X68366000Y-186944000D03*
D42*
X279717500Y-81597500D03*
X279717500Y-86497500D03*
D12*
X86106000Y-67016000D03*
X86106000Y-64516000D03*
X157988000Y-189992000D03*
X155488000Y-189992000D03*
D13*
X152400000Y-170180000D03*
D16*
X152400000Y-172720000D03*
X152400000Y-175260000D03*
X152400000Y-177800000D03*
X152400000Y-180340000D03*
X152400000Y-182880000D03*
X152400000Y-185420000D03*
X160020000Y-185420000D03*
X160020000Y-182880000D03*
X160020000Y-180340000D03*
X160020000Y-177800000D03*
X160020000Y-175260000D03*
X160020000Y-172720000D03*
X160020000Y-170180000D03*
D13*
X124460000Y-170180000D03*
D16*
X124460000Y-172720000D03*
X124460000Y-175260000D03*
X124460000Y-177800000D03*
X124460000Y-180340000D03*
X124460000Y-182880000D03*
X124460000Y-185420000D03*
X132080000Y-185420000D03*
X132080000Y-182880000D03*
X132080000Y-180340000D03*
X132080000Y-177800000D03*
X132080000Y-175260000D03*
X132080000Y-172720000D03*
X132080000Y-170180000D03*
D12*
X129754000Y-189992000D03*
X127254000Y-189992000D03*
D14*
X44196000Y-187960000D03*
D15*
X44196000Y-185420000D03*
D14*
X35052000Y-187960000D03*
D15*
X35052000Y-185420000D03*
D12*
X45466000Y-173736000D03*
D16*
X35306000Y-173736000D03*
D12*
X45466000Y-178562000D03*
D16*
X35306000Y-178562000D03*
D13*
X67945000Y-60198000D03*
D12*
X70445000Y-60198000D03*
X189698000Y-83566000D03*
X187198000Y-83566000D03*
D18*
X197358000Y-64262000D03*
D19*
X197358000Y-66802000D03*
X197358000Y-69342000D03*
X197358000Y-71882000D03*
X197358000Y-74422000D03*
X197358000Y-76962000D03*
D13*
X229108000Y-136398000D03*
D16*
X226568000Y-136398000D03*
X224028000Y-136398000D03*
X221488000Y-136398000D03*
X218948000Y-136398000D03*
X216408000Y-136398000D03*
X213868000Y-136398000D03*
X211328000Y-136398000D03*
X208788000Y-136398000D03*
X206248000Y-136398000D03*
X203708000Y-136398000D03*
X201168000Y-136398000D03*
X198628000Y-136398000D03*
X196088000Y-136398000D03*
X196088000Y-144018000D03*
X198628000Y-144018000D03*
X201168000Y-144018000D03*
X203708000Y-144018000D03*
X206248000Y-144018000D03*
X208788000Y-144018000D03*
X211328000Y-144018000D03*
X213868000Y-144018000D03*
X216408000Y-144018000D03*
X218948000Y-144018000D03*
X221488000Y-144018000D03*
X224028000Y-144018000D03*
X226568000Y-144018000D03*
X229108000Y-144018000D03*
D13*
X213868000Y-121666000D03*
D16*
X211328000Y-121666000D03*
X208788000Y-121666000D03*
X206248000Y-121666000D03*
X203708000Y-121666000D03*
X201168000Y-121666000D03*
X198628000Y-121666000D03*
X196088000Y-121666000D03*
X193548000Y-121666000D03*
X191008000Y-121666000D03*
X191008000Y-129286000D03*
X193548000Y-129286000D03*
X196088000Y-129286000D03*
X198628000Y-129286000D03*
X201168000Y-129286000D03*
X203708000Y-129286000D03*
X206248000Y-129286000D03*
X208788000Y-129286000D03*
X211328000Y-129286000D03*
X213868000Y-129286000D03*
D12*
X226608000Y-132334000D03*
X229108000Y-132334000D03*
D18*
X276606000Y-173990000D03*
D19*
X279146000Y-173990000D03*
D12*
X270510000Y-189484000D03*
D16*
X270510000Y-179324000D03*
D12*
X275336000Y-189484000D03*
D16*
X275336000Y-179324000D03*
D18*
X267716000Y-173990000D03*
D19*
X270256000Y-173990000D03*
D47*
X161544000Y-22860000D03*
X72644000Y-22860000D03*
D48*
X77724000Y-25400000D03*
D49*
X80264000Y-25400000D03*
X82804000Y-25400000D03*
X85344000Y-25400000D03*
X87884000Y-25400000D03*
X90424000Y-25400000D03*
X92964000Y-25400000D03*
X95504000Y-25400000D03*
X98044000Y-25400000D03*
X100584000Y-25400000D03*
X103124000Y-25400000D03*
X105664000Y-25400000D03*
X108204000Y-25400000D03*
X110744000Y-25400000D03*
X113284000Y-25400000D03*
X115824000Y-25400000D03*
X118364000Y-25400000D03*
X120904000Y-25400000D03*
X123444000Y-25400000D03*
X125984000Y-25400000D03*
X128524000Y-25400000D03*
X131064000Y-25400000D03*
X133604000Y-25400000D03*
X136144000Y-25400000D03*
X138684000Y-25400000D03*
X141224000Y-25400000D03*
X143764000Y-25400000D03*
X146304000Y-25400000D03*
X148844000Y-25400000D03*
X151384000Y-25400000D03*
X153924000Y-25400000D03*
X156464000Y-25400000D03*
X77724000Y-30480000D03*
X80264000Y-30480000D03*
X82804000Y-30480000D03*
X85344000Y-30480000D03*
X87884000Y-30480000D03*
X90424000Y-30480000D03*
X92964000Y-30480000D03*
X95504000Y-30480000D03*
X98044000Y-30480000D03*
X100584000Y-30480000D03*
X103124000Y-30480000D03*
X105664000Y-30480000D03*
X108204000Y-30480000D03*
X110744000Y-30480000D03*
X113284000Y-30480000D03*
X115824000Y-30480000D03*
X118364000Y-30480000D03*
X120904000Y-30480000D03*
X123444000Y-30480000D03*
X125984000Y-30480000D03*
X128524000Y-30480000D03*
X131064000Y-30480000D03*
X133604000Y-30480000D03*
X136144000Y-30480000D03*
X138684000Y-30480000D03*
X141224000Y-30480000D03*
X143764000Y-30480000D03*
X146304000Y-30480000D03*
X148844000Y-30480000D03*
X151384000Y-30480000D03*
X153924000Y-30480000D03*
X156464000Y-30480000D03*
D18*
X33020000Y-73152000D03*
D19*
X30480000Y-73152000D03*
D12*
X26924000Y-67564000D03*
D16*
X37084000Y-67564000D03*
D14*
X245477000Y-47752000D03*
D15*
X248017000Y-47752000D03*
D12*
X260858000Y-46990000D03*
D16*
X271018000Y-46990000D03*
D12*
X305562000Y-55118000D03*
X303062000Y-55118000D03*
X325628000Y-158750000D03*
X325628000Y-161250000D03*
X127508000Y-158750000D03*
X125008000Y-158750000D03*
D13*
X346964000Y-91186000D03*
D16*
X346964000Y-93726000D03*
X346964000Y-96266000D03*
X346964000Y-98806000D03*
X346964000Y-101346000D03*
X346964000Y-103886000D03*
X346964000Y-106426000D03*
X346964000Y-108966000D03*
X346964000Y-111506000D03*
X346964000Y-114046000D03*
X346964000Y-116586000D03*
X346964000Y-119126000D03*
X346964000Y-121666000D03*
X346964000Y-124206000D03*
X346964000Y-126746000D03*
X346964000Y-129286000D03*
X346964000Y-131826000D03*
X346964000Y-134366000D03*
X346964000Y-136906000D03*
X346964000Y-139446000D03*
X362204000Y-139446000D03*
X362204000Y-136906000D03*
X362204000Y-134366000D03*
X362204000Y-131826000D03*
X362204000Y-129286000D03*
X362204000Y-126746000D03*
X362204000Y-124206000D03*
X362204000Y-121666000D03*
X362204000Y-119126000D03*
X362204000Y-116586000D03*
X362204000Y-114046000D03*
X362204000Y-111506000D03*
X362204000Y-108966000D03*
X362204000Y-106426000D03*
X362204000Y-103886000D03*
X362204000Y-101346000D03*
X362204000Y-98806000D03*
X362204000Y-96266000D03*
X362204000Y-93726000D03*
X362204000Y-91186000D03*
D13*
X164592000Y-126238000D03*
D16*
X164592000Y-128778000D03*
X164592000Y-131318000D03*
X164592000Y-133858000D03*
X164592000Y-136398000D03*
X164592000Y-138938000D03*
X164592000Y-141478000D03*
X164592000Y-144018000D03*
X172212000Y-144018000D03*
X172212000Y-141478000D03*
X172212000Y-138938000D03*
X172212000Y-136398000D03*
X172212000Y-133858000D03*
X172212000Y-131318000D03*
X172212000Y-128778000D03*
X172212000Y-126238000D03*
D13*
X146050000Y-126238000D03*
D16*
X146050000Y-128778000D03*
X146050000Y-131318000D03*
X146050000Y-133858000D03*
X146050000Y-136398000D03*
X146050000Y-138938000D03*
X146050000Y-141478000D03*
X146050000Y-144018000D03*
X153670000Y-144018000D03*
X153670000Y-141478000D03*
X153670000Y-138938000D03*
X153670000Y-136398000D03*
X153670000Y-133858000D03*
X153670000Y-131318000D03*
X153670000Y-128778000D03*
X153670000Y-126238000D03*
D43*
X252984000Y-47244000D03*
D44*
X254254000Y-45974000D03*
X255524000Y-47244000D03*
D43*
X255524000Y-38608000D03*
D44*
X254254000Y-39878000D03*
X252984000Y-38608000D03*
D14*
X245477000Y-38608000D03*
D15*
X248017000Y-38608000D03*
D42*
X356997000Y-77851000D03*
X352097000Y-77851000D03*
D12*
X219964000Y-129286000D03*
X217464000Y-129286000D03*
D13*
X96266000Y-162560000D03*
D16*
X96266000Y-165100000D03*
X96266000Y-167640000D03*
X96266000Y-170180000D03*
X96266000Y-172720000D03*
X96266000Y-175260000D03*
X96266000Y-177800000D03*
X96266000Y-180340000D03*
X96266000Y-182880000D03*
X96266000Y-185420000D03*
X103886000Y-185420000D03*
X103886000Y-182880000D03*
X103886000Y-180340000D03*
X103886000Y-177800000D03*
X103886000Y-175260000D03*
X103886000Y-172720000D03*
X103886000Y-170180000D03*
X103886000Y-167640000D03*
X103886000Y-165100000D03*
X103886000Y-162560000D03*
D13*
X283972000Y-38354000D03*
D12*
X286472000Y-38354000D03*
X161798000Y-40934000D03*
X161798000Y-43434000D03*
D50*
X362966000Y-24400000D03*
X372966000Y-21900000D03*
X372966000Y-24400000D03*
X362966000Y-21900000D03*
X367966000Y-29400000D03*
D51*
X367966000Y-24400000D03*
D52*
X362966000Y-29400000D03*
X372966000Y-29400000D03*
D12*
X366776000Y-66421000D03*
X366776000Y-68921000D03*
D13*
X381254000Y-105918000D03*
D16*
X381254000Y-108458000D03*
X381254000Y-110998000D03*
X381254000Y-113538000D03*
X388874000Y-113538000D03*
X388874000Y-110998000D03*
X388874000Y-108458000D03*
X388874000Y-105918000D03*
D12*
X377190000Y-108458000D03*
X377190000Y-105958000D03*
D13*
X224536000Y-45212000D03*
D16*
X224536000Y-47752000D03*
X224536000Y-50292000D03*
X224536000Y-52832000D03*
X224536000Y-55372000D03*
X224536000Y-57912000D03*
D13*
X110236000Y-170180000D03*
D16*
X110236000Y-172720000D03*
X110236000Y-175260000D03*
X110236000Y-177800000D03*
X110236000Y-180340000D03*
X110236000Y-182880000D03*
X110236000Y-185420000D03*
X117856000Y-185420000D03*
X117856000Y-182880000D03*
X117856000Y-180340000D03*
X117856000Y-177800000D03*
X117856000Y-175260000D03*
X117856000Y-172720000D03*
X117856000Y-170180000D03*
D13*
X72390000Y-97790000D03*
D16*
X72390000Y-95250000D03*
X72390000Y-92710000D03*
X72390000Y-90170000D03*
X72390000Y-87630000D03*
X72390000Y-85090000D03*
X72390000Y-82550000D03*
X72390000Y-80010000D03*
X72390000Y-77470000D03*
X72390000Y-74930000D03*
X64770000Y-74930000D03*
X64770000Y-77470000D03*
X64770000Y-80010000D03*
X64770000Y-82550000D03*
X64770000Y-85090000D03*
X64770000Y-87630000D03*
X64770000Y-90170000D03*
X64770000Y-92710000D03*
X64770000Y-95250000D03*
X64770000Y-97790000D03*
D13*
X164592000Y-92964000D03*
D16*
X164592000Y-95504000D03*
X164592000Y-98044000D03*
X164592000Y-100584000D03*
X164592000Y-103124000D03*
X164592000Y-105664000D03*
X164592000Y-108204000D03*
X164592000Y-110744000D03*
X164592000Y-113284000D03*
X164592000Y-115824000D03*
X172212000Y-115824000D03*
X172212000Y-113284000D03*
X172212000Y-110744000D03*
X172212000Y-108204000D03*
X172212000Y-105664000D03*
X172212000Y-103124000D03*
X172212000Y-100584000D03*
X172212000Y-98044000D03*
X172212000Y-95504000D03*
X172212000Y-92964000D03*
D13*
X146050000Y-66040000D03*
D16*
X146050000Y-68580000D03*
X146050000Y-71120000D03*
X146050000Y-73660000D03*
X146050000Y-76200000D03*
X146050000Y-78740000D03*
X146050000Y-81280000D03*
X146050000Y-83820000D03*
X153670000Y-83820000D03*
X153670000Y-81280000D03*
X153670000Y-78740000D03*
X153670000Y-76200000D03*
X153670000Y-73660000D03*
X153670000Y-71120000D03*
X153670000Y-68580000D03*
X153670000Y-66040000D03*
D40*
X264414000Y-75184000D03*
D41*
X261874000Y-72644000D03*
X261874000Y-75184000D03*
X259334000Y-72644000D03*
X259334000Y-75184000D03*
X256794000Y-72644000D03*
X254254000Y-75184000D03*
X256794000Y-75184000D03*
X254254000Y-77724000D03*
X256794000Y-77724000D03*
X254254000Y-80264000D03*
X256794000Y-80264000D03*
X254254000Y-82804000D03*
X256794000Y-82804000D03*
X254254000Y-85344000D03*
X256794000Y-85344000D03*
X254254000Y-87884000D03*
X256794000Y-90424000D03*
X256794000Y-87884000D03*
X259334000Y-90424000D03*
X259334000Y-87884000D03*
X261874000Y-90424000D03*
X261874000Y-87884000D03*
X264414000Y-90424000D03*
X264414000Y-87884000D03*
X266954000Y-90424000D03*
X266954000Y-87884000D03*
X269494000Y-90424000D03*
X272034000Y-87884000D03*
X269494000Y-87884000D03*
X272034000Y-85344000D03*
X269494000Y-85344000D03*
X272034000Y-82804000D03*
X269494000Y-82804000D03*
X272034000Y-80264000D03*
X269494000Y-80264000D03*
X272034000Y-77724000D03*
X269494000Y-77724000D03*
X272034000Y-75184000D03*
X269494000Y-72644000D03*
X269494000Y-75184000D03*
X266954000Y-72644000D03*
X266954000Y-75184000D03*
X264414000Y-72644000D03*
D12*
X221528000Y-67056000D03*
X224028000Y-67056000D03*
D14*
X281686000Y-189928500D03*
D15*
X284226000Y-189928500D03*
D13*
X111506000Y-92964000D03*
D16*
X111506000Y-95504000D03*
X111506000Y-98044000D03*
X111506000Y-100584000D03*
X111506000Y-103124000D03*
X111506000Y-105664000D03*
X111506000Y-108204000D03*
X119126000Y-108204000D03*
X119126000Y-105664000D03*
X119126000Y-103124000D03*
X119126000Y-100584000D03*
X119126000Y-98044000D03*
X119126000Y-95504000D03*
X119126000Y-92964000D03*
D12*
X108204000Y-108164000D03*
X108204000Y-105664000D03*
X157480000Y-66040000D03*
X157480000Y-68540000D03*
D13*
X86106000Y-73660000D03*
D16*
X86106000Y-76200000D03*
X86106000Y-78740000D03*
X86106000Y-81280000D03*
X86106000Y-83820000D03*
X86106000Y-86360000D03*
X86106000Y-88900000D03*
X86106000Y-91440000D03*
X86106000Y-93980000D03*
D53*
X346456000Y-24130000D03*
D54*
X346456000Y-28630000D03*
D13*
X91186000Y-83820000D03*
D16*
X91186000Y-86360000D03*
X91186000Y-88900000D03*
X91186000Y-91440000D03*
X91186000Y-93980000D03*
X91186000Y-96520000D03*
X91186000Y-99060000D03*
X98806000Y-99060000D03*
X98806000Y-96520000D03*
X98806000Y-93980000D03*
X98806000Y-91440000D03*
X98806000Y-88900000D03*
X98806000Y-86360000D03*
X98806000Y-83820000D03*
D13*
X111252000Y-68580000D03*
D16*
X111252000Y-71120000D03*
X111252000Y-73660000D03*
X111252000Y-76200000D03*
X111252000Y-78740000D03*
X111252000Y-81280000D03*
X111252000Y-83820000D03*
X118872000Y-83820000D03*
X118872000Y-81280000D03*
X118872000Y-78740000D03*
X118872000Y-76200000D03*
X118872000Y-73660000D03*
X118872000Y-71120000D03*
X118872000Y-68580000D03*
D13*
X129032000Y-66040000D03*
D16*
X129032000Y-68580000D03*
X129032000Y-71120000D03*
X129032000Y-73660000D03*
X129032000Y-76200000D03*
X129032000Y-78740000D03*
X129032000Y-81280000D03*
X129032000Y-83820000D03*
X136652000Y-83820000D03*
X136652000Y-81280000D03*
X136652000Y-78740000D03*
X136652000Y-76200000D03*
X136652000Y-73660000D03*
X136652000Y-71120000D03*
X136652000Y-68580000D03*
X136652000Y-66040000D03*
D13*
X167894000Y-32766000D03*
D12*
X170394000Y-32766000D03*
D13*
X164592000Y-68580000D03*
D16*
X164592000Y-71120000D03*
X164592000Y-73660000D03*
X164592000Y-76200000D03*
X164592000Y-78740000D03*
X164592000Y-81280000D03*
X164592000Y-83820000D03*
X164592000Y-86360000D03*
X172212000Y-86360000D03*
X172212000Y-83820000D03*
X172212000Y-81280000D03*
X172212000Y-78740000D03*
X172212000Y-76200000D03*
X172212000Y-73660000D03*
X172212000Y-71120000D03*
X172212000Y-68580000D03*
D55*
X328803000Y-28702000D03*
D56*
X326203000Y-28702000D03*
X330853000Y-28702000D03*
X328803000Y-31192000D03*
X324153000Y-28702000D03*
X330853000Y-31192000D03*
X326693000Y-31192000D03*
X324153000Y-31192000D03*
D57*
X320743000Y-25702000D03*
X327503000Y-24892000D03*
X334263000Y-25702000D03*
D12*
X145796000Y-119888000D03*
X143296000Y-119888000D03*
D58*
X397256000Y-26670000D03*
D12*
X389890000Y-38400000D03*
D16*
X379730000Y-38400000D03*
D12*
X389890000Y-33528000D03*
D16*
X379730000Y-33528000D03*
D58*
X367284000Y-192786000D03*
X237998000Y-32766000D03*
X46482000Y-69342000D03*
X26924000Y-192024000D03*
X168148000Y-181610000D03*
D13*
X394970000Y-107885113D03*
D12*
X394970000Y-105385113D03*
X400050000Y-119634000D03*
D16*
X389890000Y-119634000D03*
M02*
