M48
; DRILL file {KiCad (6.0.11)} date Sat Feb  4 12:30:39 2023
; FORMAT={-:-/ absolute / metric / decimal}
; #@! TF.CreationDate,2023-02-04T12:30:39+00:00
; #@! TF.GenerationSoftware,Kicad,Pcbnew,(6.0.11)
; #@! TF.FileFunction,Plated,1,4,PTH
FMAT,2
METRIC
; #@! TA.AperFunction,Plated,PTH,ViaDrill
T1C0.400
; #@! TA.AperFunction,Plated,PTH,ComponentDrill
T2C0.700
; #@! TA.AperFunction,Plated,PTH,ComponentDrill
T3C0.750
; #@! TA.AperFunction,Plated,PTH,ComponentDrill
T4C0.800
; #@! TA.AperFunction,Plated,PTH,ComponentDrill
T5C0.900
; #@! TA.AperFunction,Plated,PTH,ComponentDrill
T6C0.970
; #@! TA.AperFunction,Plated,PTH,ComponentDrill
T7C1.000
; #@! TA.AperFunction,Plated,PTH,ComponentDrill
T8C1.100
; #@! TA.AperFunction,Plated,PTH,ComponentDrill
T9C1.300
; #@! TA.AperFunction,Plated,PTH,ComponentDrill
T10C1.400
; #@! TA.AperFunction,Plated,PTH,ComponentDrill
T11C1.500
; #@! TA.AperFunction,Plated,PTH,ComponentDrill
T12C1.524
; #@! TA.AperFunction,Plated,PTH,ComponentDrill
T13C1.700
; #@! TA.AperFunction,Plated,PTH,ComponentDrill
T14C2.370
; #@! TA.AperFunction,Plated,PTH,ComponentDrill
T15C2.420
; #@! TA.AperFunction,Plated,PTH,ComponentDrill
T16C2.510
; #@! TA.AperFunction,Plated,PTH,ComponentDrill
T17C3.200
%
G90
G05
T1
X28.702Y-104.394
X32.766Y-181.356
X33.782Y-88.392
X36.068Y-153.67
X37.338Y-110.744
X40.132Y-62.23
X45.212Y-91.44
X45.72Y-135.89
X45.72Y-148.59
X46.228Y-129.54
X46.99Y-133.35
X46.99Y-146.05
X47.244Y-112.014
X48.26Y-138.43
X48.26Y-148.59
X48.514Y-104.394
X48.514Y-93.98
X50.292Y-104.394
X51.562Y-100.33
X52.578Y-63.246
X52.832Y-110.998
X53.34Y-138.43
X53.34Y-143.51
X53.848Y-67.31
X54.102Y-108.458
X54.102Y-129.54
X54.356Y-156.718
X55.118Y-65.278
X55.372Y-92.71
X55.372Y-133.858
X55.372Y-147.32
X56.388Y-90.17
X56.388Y-131.318
X56.388Y-149.606
X56.896Y-64.262
X57.404Y-87.63
X57.404Y-128.778
X57.404Y-151.384
X57.404Y-155.448
X57.404Y-179.578
X58.42Y-68.326
X58.42Y-85.09
X58.42Y-126.238
X59.436Y-82.55
X59.436Y-123.698
X59.944Y-66.294
X60.452Y-80.01
X60.452Y-121.158
X61.468Y-77.47
X61.468Y-118.618
X63.246Y-62.23
X64.77Y-178.308
X65.278Y-63.246
X65.278Y-49.276
X66.04Y-170.688
X66.548Y-116.078
X66.548Y-137.668
X66.802Y-91.44
X67.056Y-104.394
X67.31Y-146.558
X67.31Y-171.704
X67.564Y-141.478
X68.58Y-114.808
X68.58Y-149.098
X68.58Y-162.56
X69.342Y-34.798
X69.342Y-85.09
X69.342Y-105.156
X70.612Y-106.172
X70.612Y-130.048
X70.612Y-151.638
X70.612Y-165.862
X72.39Y-136.398
X72.898Y-42.672
X73.406Y-184.404
X73.66Y-100.33
X73.66Y-177.038
X73.914Y-41.148
X74.676Y-92.71
X74.676Y-97.79
X74.771Y-82.709
X74.93Y-38.608
X75.184Y-149.098
X75.184Y-159.766
X75.438Y-113.538
X75.438Y-132.588
X75.692Y-36.576
X75.692Y-90.17
X75.692Y-101.854
X76.454Y-110.998
X76.454Y-127.508
X76.708Y-35.56
X76.708Y-87.63
X76.708Y-103.632
X76.962Y-144.018
X76.962Y-155.448
X77.724Y-37.592
X77.724Y-85.09
X77.724Y-108.458
X77.724Y-119.888
X77.978Y-100.838
X78.74Y-43.942
X78.74Y-93.98
X80.01Y-45.466
X80.01Y-53.086
X81.026Y-55.372
X81.026Y-100.838
X81.788Y-168.656
X82.042Y-54.102
X82.042Y-113.538
X82.042Y-118.618
X82.042Y-122.428
X82.804Y-150.368
X82.804Y-124.968
X83.058Y-34.544
X83.058Y-77.47
X83.058Y-108.204
X83.566Y-109.22
X83.566Y-118.618
X84.074Y-33.274
X84.074Y-80.01
X84.074Y-107.188
X84.836Y-151.638
X84.836Y-172.466
X85.344Y-39.878
X85.344Y-58.42
X86.614Y-49.276
X87.884Y-41.148
X88.138Y-45.466
X88.138Y-57.15
X88.138Y-63.5
X88.138Y-117.348
X88.9Y-80.264
X88.9Y-96.52
X89.154Y-34.544
X89.154Y-147.828
X89.154Y-149.098
X89.408Y-116.078
X89.408Y-130.048
X89.916Y-170.18
X90.424Y-43.942
X91.694Y-33.274
X91.948Y-58.928
X91.948Y-157.48
X91.948Y-180.34
X92.71Y-113.538
X92.964Y-42.672
X93.472Y-92.71
X93.472Y-96.52
X93.726Y-146.558
X93.726Y-167.64
X94.234Y-38.608
X94.488Y-57.404
X94.488Y-76.2
X94.488Y-81.28
X94.488Y-82.296
X94.488Y-88.9
X94.488Y-110.49
X94.488Y-93.98
X95.504Y-97.79
X95.504Y-39.878
X95.504Y-121.158
X95.504Y-160.02
X96.52Y-68.58
X96.52Y-72.39
X96.52Y-73.66
X96.52Y-87.63
X96.774Y-37.592
X97.028Y-145.288
X97.028Y-157.734
X98.806Y-118.618
X98.806Y-158.75
X99.06Y-172.72
X99.06Y-179.07
X99.314Y-35.56
X99.822Y-51.816
X100.584Y-32.512
X100.838Y-95.25
X100.838Y-115.824
X100.838Y-146.558
X100.838Y-170.18
X100.838Y-171.45
X100.838Y-182.88
X101.854Y-36.576
X101.854Y-71.12
X101.854Y-114.554
X101.854Y-144.018
X102.87Y-51.816
X102.87Y-92.71
X102.87Y-93.98
X102.87Y-110.49
X103.124Y-141.478
X103.124Y-156.464
X103.886Y-59.944
X103.886Y-136.144
X104.648Y-151.638
X105.156Y-66.04
X105.156Y-123.698
X105.664Y-33.528
X106.172Y-61.976
X106.68Y-75.184
X107.442Y-58.166
X107.442Y-56.388
X107.442Y-67.31
X107.442Y-177.8
X107.95Y-78.74
X107.95Y-91.44
X108.204Y-33.528
X108.712Y-63.246
X108.966Y-74.93
X108.966Y-100.584
X109.22Y-116.078
X109.474Y-32.512
X109.474Y-149.098
X110.744Y-117.348
X111.252Y-60.96
X112.014Y-121.158
X112.014Y-175.26
X113.03Y-119.634
X113.03Y-185.42
X113.284Y-71.12
X113.284Y-81.28
X113.538Y-95.504
X113.538Y-114.808
X114.046Y-160.528
X114.046Y-184.15
X114.554Y-34.798
X114.808Y-59.944
X114.808Y-73.66
X115.062Y-84.074
X115.062Y-95.504
X115.57Y-105.664
X115.57Y-140.208
X115.57Y-170.18
X115.57Y-175.26
X115.57Y-179.07
X115.57Y-182.88
X116.078Y-59.944
X116.078Y-91.186
X116.078Y-100.584
X116.332Y-55.372
X116.84Y-140.208
X117.094Y-33.782
X117.094Y-94.234
X117.094Y-103.124
X117.602Y-49.022
X118.872Y-54.102
X120.142Y-171.45
X120.142Y-175.26
X120.142Y-177.8
X120.142Y-184.15
X120.904Y-68.58
X120.904Y-81.28
X120.904Y-90.17
X121.92Y-71.12
X121.92Y-78.74
X121.92Y-107.95
X121.92Y-111.252
X121.92Y-172.72
X121.92Y-180.34
X122.936Y-73.66
X122.936Y-76.2
X124.206Y-66.04
X124.206Y-80.01
X124.46Y-166.37
X125.222Y-130.048
X126.238Y-86.36
X126.238Y-103.378
X126.492Y-177.8
X126.492Y-181.61
X126.746Y-36.068
X127.254Y-128.778
X127.762Y-162.56
X127.762Y-184.15
X128.27Y-87.63
X128.27Y-100.584
X130.81Y-67.31
X131.064Y-28.448
X131.064Y-86.868
X131.318Y-73.66
X131.318Y-77.47
X131.572Y-90.678
X131.572Y-98.044
X132.334Y-59.944
X132.334Y-67.31
X132.334Y-69.85
X132.334Y-78.74
X132.334Y-80.01
X132.334Y-87.884
X132.588Y-127.508
X135.128Y-55.372
X135.89Y-172.72
X135.89Y-176.53
X136.398Y-130.048
X136.652Y-85.852
X137.16Y-164.338
X137.414Y-132.588
X137.668Y-54.356
X138.684Y-77.47
X138.684Y-94.234
X138.684Y-160.528
X138.684Y-95.758
X139.7Y-74.93
X139.7Y-91.44
X140.208Y-53.594
X140.97Y-114.808
X140.97Y-170.18
X140.97Y-177.8
X141.986Y-61.976
X141.986Y-71.12
X142.24Y-80.01
X142.748Y-122.428
X142.748Y-175.26
X143.002Y-68.58
X143.002Y-63.246
X143.002Y-104.394
X143.002Y-114.3
X143.764Y-58.928
X143.764Y-96.774
X144.526Y-176.53
X144.526Y-182.88
X146.05Y-60.96
X146.05Y-122.428
X147.828Y-47.752
X147.828Y-135.128
X148.844Y-137.668
X149.86Y-140.208
X150.368Y-46.736
X150.876Y-142.748
X151.892Y-145.288
X152.908Y-45.72
X153.67Y-90.678
X154.686Y-175.26
X154.686Y-179.07
X155.702Y-90.678
X155.702Y-122.428
X156.718Y-87.884
X156.718Y-100.584
X156.972Y-71.12
X156.972Y-80.01
X157.734Y-86.868
X157.734Y-98.298
X158.75Y-85.852
X158.75Y-95.504
X159.004Y-56.388
X159.004Y-78.74
X159.512Y-131.318
X159.512Y-161.544
X160.02Y-58.166
X160.02Y-94.488
X160.782Y-128.778
X160.782Y-156.464
X161.036Y-49.276
X161.036Y-66.548
X161.036Y-69.85
X161.544Y-103.124
X162.052Y-55.372
X162.052Y-73.66
X162.56Y-82.55
X162.56Y-88.9
X162.814Y-153.67
X163.068Y-54.356
X164.592Y-53.594
X165.354Y-161.798
X165.608Y-29.21
X165.608Y-65.532
X166.624Y-90.678
X166.624Y-95.504
X167.894Y-160.782
X168.148Y-123.698
X168.148Y-131.318
X168.656Y-71.12
X168.656Y-94.234
X169.926Y-133.858
X169.926Y-90.678
X170.434Y-175.514
X172.466Y-30.226
X173.228Y-174.244
X173.736Y-42.164
X174.752Y-75.946
X174.752Y-77.47
X174.752Y-92.71
X175.514Y-173.228
X176.022Y-73.66
X176.022Y-95.504
X176.276Y-43.18
X176.276Y-70.866
X176.784Y-153.67
X176.784Y-184.15
X177.038Y-78.74
X177.038Y-135.128
X177.546Y-47.244
X178.054Y-73.406
X178.054Y-172.212
X178.308Y-81.28
X178.308Y-128.778
X178.816Y-47.244
X179.324Y-83.82
X179.324Y-94.234
X180.848Y-88.392
X180.848Y-114.554
X180.848Y-130.048
X181.356Y-27.94
X181.356Y-36.576
X181.864Y-85.598
X181.864Y-123.698
X181.864Y-171.196
X184.658Y-161.798
X186.436Y-144.018
X186.944Y-64.262
X186.944Y-78.232
X186.944Y-160.782
X187.452Y-127.762
X188.214Y-175.514
X189.23Y-36.576
X189.23Y-43.434
X189.484Y-105.41
X190.754Y-40.132
X190.754Y-174.244
X191.008Y-140.97
X191.77Y-61.214
X192.278Y-103.886
X193.294Y-47.386
X193.294Y-173.228
X193.548Y-139.954
X194.056Y-43.18
X194.818Y-102.616
X195.326Y-42.164
X195.834Y-61.214
X195.834Y-172.212
X196.596Y-40.132
X196.596Y-43.18
X197.358Y-101.346
X197.358Y-138.938
X198.374Y-171.196
X198.628Y-90.678
X198.628Y-109.22
X199.898Y-65.532
X199.898Y-71.882
X199.898Y-79.502
X199.898Y-100.076
X200.914Y-173.736
X201.168Y-68.072
X201.168Y-91.694
X201.168Y-138.938
X202.438Y-98.806
X202.946Y-26.162
X203.454Y-89.662
X203.454Y-110.744
X203.708Y-139.954
X204.978Y-97.536
X206.248Y-81.534
X206.248Y-108.204
X206.248Y-140.97
X207.264Y-179.324
X207.518Y-96.266
X208.534Y-58.928
X208.534Y-78.994
X209.042Y-105.41
X210.82Y-69.342
X210.82Y-102.616
X211.074Y-154.178
X211.328Y-118.11
X212.09Y-65.024
X212.344Y-178.054
X213.36Y-103.886
X213.614Y-155.448
X214.63Y-70.612
X214.63Y-100.076
X215.646Y-132.588
X215.9Y-66.802
X215.9Y-101.346
X216.154Y-156.718
X216.154Y-179.324
X217.17Y-98.806
X217.678Y-147.066
X218.694Y-157.988
X218.948Y-154.178
X219.456Y-38.354
X219.71Y-41.148
X219.71Y-96.266
X219.964Y-160.782
X220.218Y-148.336
X220.98Y-97.536
X221.234Y-159.258
X221.234Y-178.054
X221.488Y-155.448
X224.028Y-156.718
X225.298Y-159.258
X226.568Y-157.988
X226.822Y-55.88
X227.33Y-57.912
X227.838Y-47.752
X227.838Y-148.336
X228.092Y-52.832
X228.854Y-109.22
X228.854Y-147.066
X230.378Y-73.406
X231.394Y-71.12
X231.394Y-160.782
X232.918Y-45.212
X232.918Y-69.596
X233.934Y-50.292
X234.95Y-52.832
X235.204Y-80.264
X235.458Y-55.372
X236.474Y-78.994
X236.474Y-167.894
X237.49Y-69.596
X237.49Y-77.724
X237.744Y-182.88
X238.506Y-91.948
X239.014Y-179.07
X239.776Y-56.642
X239.776Y-60.452
X239.776Y-76.454
X239.776Y-90.424
X240.538Y-165.354
X240.538Y-170.942
X240.792Y-86.614
X240.792Y-78.994
X241.808Y-57.912
X242.062Y-69.596
X242.062Y-87.884
X242.062Y-191.516
X242.824Y-51.562
X243.078Y-85.344
X243.078Y-95.25
X243.332Y-110.744
X243.332Y-195.072
X243.84Y-138.938
X243.84Y-152.146
X244.348Y-66.802
X244.348Y-90.424
X244.348Y-108.204
X245.364Y-137.16
X245.364Y-151.13
X245.618Y-42.418
X245.872Y-78.994
X245.872Y-51.816
X246.38Y-81.534
X246.38Y-97.536
X247.142Y-168.91
X247.65Y-82.804
X247.65Y-100.076
X248.158Y-54.102
X248.158Y-59.944
X248.92Y-84.074
X248.92Y-102.616
X250.698Y-85.344
X250.698Y-105.41
X251.46Y-193.294
X252.73Y-110.744
X252.73Y-142.24
X254.0Y-125.984
X254.0Y-157.48
X254.0Y-164.592
X254.254Y-66.548
X256.286Y-120.777
X256.286Y-152.4
X256.286Y-182.88
X256.286Y-185.166
X256.794Y-62.484
X258.064Y-63.5
X258.064Y-103.886
X258.826Y-32.766
X259.334Y-68.58
X259.334Y-101.346
X260.223Y-36.322
X260.604Y-67.564
X260.604Y-98.806
X260.604Y-123.444
X260.604Y-154.94
X261.112Y-183.134
X261.62Y-34.036
X261.874Y-61.214
X261.874Y-96.266
X263.017Y-35.306
X263.144Y-59.944
X263.144Y-85.344
X263.144Y-173.736
X264.16Y-169.926
X264.414Y-69.596
X265.557Y-125.984
X265.557Y-157.48
X265.684Y-78.994
X265.684Y-186.436
X266.954Y-84.074
X268.224Y-60.198
X270.129Y-113.284
X270.129Y-139.7
X270.129Y-144.78
X270.764Y-92.71
X272.034Y-133.604
X272.034Y-155.956
X273.494Y-122.174
X273.507Y-135.179
X273.812Y-46.99
X275.082Y-49.53
X275.082Y-90.424
X276.352Y-81.534
X276.352Y-85.344
X278.257Y-158.75
X278.257Y-162.433
X278.511Y-119.634
X278.511Y-136.271
X278.511Y-151.13
X281.051Y-125.984
X281.051Y-157.48
X282.067Y-115.824
X282.067Y-138.049
X282.067Y-147.32
X282.194Y-32.766
X284.226Y-183.134
X284.226Y-186.436
X284.48Y-68.58
X284.48Y-86.36
X285.496Y-67.564
X285.496Y-87.376
X286.258Y-160.02
X286.766Y-88.646
X286.766Y-72.644
X286.766Y-95.25
X287.604Y-133.629
X287.782Y-60.198
X288.036Y-71.12
X288.036Y-85.09
X288.417Y-122.174
X288.417Y-125.984
X288.671Y-153.733
X288.696Y-135.179
X289.56Y-119.634
X289.56Y-128.524
X290.322Y-84.074
X290.322Y-32.766
X290.576Y-193.294
X290.83Y-185.166
X292.862Y-46.99
X292.862Y-62.484
X294.132Y-34.036
X294.132Y-89.916
X294.132Y-108.966
X294.132Y-143.51
X294.132Y-150.876
X294.259Y-125.857
X294.259Y-129.667
X294.894Y-157.607
X294.894Y-152.4
X295.402Y-49.276
X295.402Y-113.284
X295.402Y-144.78
X295.411Y-141.614
X296.164Y-154.051
X296.164Y-158.75
X296.672Y-61.214
X297.561Y-152.273
X297.561Y-161.29
X297.942Y-66.548
X298.45Y-155.829
X298.45Y-164.592
X298.958Y-118.364
X299.326Y-145.174
X300.228Y-115.824
X300.228Y-143.383
X300.482Y-63.5
X300.736Y-32.766
X301.752Y-36.83
X304.292Y-37.846
X304.8Y-148.844
X304.8Y-154.94
X305.435Y-102.616
X305.435Y-109.601
X306.07Y-129.159
X306.07Y-156.718
X306.451Y-101.346
X306.451Y-111.379
X307.086Y-127.381
X307.086Y-163.195
X307.467Y-98.806
X307.467Y-113.157
X308.356Y-96.266
X308.356Y-114.935
X309.372Y-93.726
X309.372Y-116.713
X310.515Y-92.583
X310.515Y-118.491
X311.404Y-146.939
X311.404Y-175.895
X312.42Y-111.379
X312.42Y-88.646
X312.928Y-189.484
X314.198Y-103.886
X314.198Y-107.696
X314.198Y-186.944
X315.087Y-113.157
X315.214Y-36.068
X315.468Y-118.491
X315.468Y-184.404
X315.976Y-85.09
X316.611Y-137.16
X316.738Y-181.864
X317.246Y-107.696
X317.754Y-138.938
X317.854Y-109.574
X318.008Y-170.18
X318.262Y-174.752
X318.262Y-185.674
X318.77Y-84.582
X318.77Y-152.273
X320.802Y-54.864
X323.85Y-77.724
X323.85Y-120.269
X324.104Y-34.036
X324.993Y-68.326
X324.993Y-122.047
X325.374Y-52.07
X325.4Y-35.0
X326.263Y-73.025
X326.263Y-123.825
X328.422Y-195.072
X330.2Y-53.34
X331.47Y-133.096
X333.502Y-86.36
X333.502Y-102.616
X333.502Y-188.214
X334.518Y-178.054
X334.67Y-111.354
X335.026Y-51.054
X335.93Y-146.954
X336.042Y-178.054
X337.058Y-87.376
X337.058Y-105.156
X337.058Y-190.754
X337.82Y-34.036
X338.328Y-113.157
X339.09Y-28.702
X340.868Y-22.86
X340.868Y-34.036
X341.249Y-179.324
X342.138Y-91.44
X342.138Y-107.696
X343.916Y-36.068
X347.98Y-42.418
X347.98Y-51.816
X349.758Y-167.132
X353.06Y-139.446
X353.06Y-164.084
X353.822Y-98.806
X353.822Y-110.236
X354.33Y-42.418
X354.838Y-86.106
X354.838Y-121.666
X354.838Y-136.906
X354.838Y-154.686
X355.6Y-56.388
X356.108Y-87.122
X356.108Y-124.206
X356.616Y-134.366
X356.87Y-145.542
X357.124Y-102.616
X357.124Y-126.746
X357.886Y-129.286
X358.14Y-97.536
X359.156Y-100.076
X359.156Y-119.126
X359.41Y-89.154
X359.41Y-96.266
X361.95Y-56.388
X364.236Y-116.586
X365.506Y-119.126
X366.268Y-131.826
X366.268Y-147.066
X369.316Y-64.516
X369.824Y-121.666
X370.0Y-132.6
X370.0Y-136.9
X370.332Y-46.482
X370.84Y-124.206
X371.348Y-48.768
X371.856Y-126.746
X371.856Y-140.97
X371.856Y-150.114
X371.856Y-159.258
X372.618Y-50.546
X372.966Y-34.966
X373.38Y-110.49
X374.904Y-57.15
X376.174Y-60.96
X378.956Y-114.82
X378.956Y-130.04
X380.226Y-135.12
X380.238Y-117.094
X383.286Y-102.616
X383.54Y-108.458
X385.052Y-131.31
X385.064Y-113.538
X386.08Y-94.234
X386.08Y-117.094
X400.05Y-109.728
T2
X302.362Y-106.014
X302.362Y-107.794
X302.362Y-109.574
X302.362Y-111.354
X302.362Y-113.134
X302.362Y-114.914
X302.362Y-116.694
X302.362Y-118.474
X302.362Y-120.254
X302.362Y-122.034
X302.362Y-123.814
X302.362Y-125.594
X302.362Y-127.374
X302.362Y-129.154
X302.362Y-130.934
X302.362Y-132.714
X302.362Y-134.494
X302.362Y-136.274
X302.362Y-138.054
X302.362Y-139.834
X302.362Y-141.614
X302.362Y-143.394
X302.362Y-145.174
X302.362Y-146.954
X302.362Y-148.734
X302.362Y-150.514
X302.362Y-152.294
X302.362Y-154.074
X302.362Y-155.854
X302.362Y-157.634
X302.362Y-159.414
X302.362Y-161.194
X321.462Y-106.014
X321.462Y-107.794
X321.462Y-109.574
X321.462Y-111.354
X321.462Y-113.134
X321.462Y-114.914
X321.462Y-116.694
X321.462Y-118.474
X321.462Y-120.254
X321.462Y-122.034
X321.462Y-123.814
X321.462Y-125.594
X321.462Y-127.374
X321.462Y-129.154
X321.462Y-130.934
X321.462Y-132.714
X321.462Y-134.494
X321.462Y-136.274
X321.462Y-138.054
X321.462Y-139.834
X321.462Y-141.614
X321.462Y-143.394
X321.462Y-145.174
X321.462Y-146.954
X321.462Y-148.734
X321.462Y-150.514
X321.462Y-152.294
X321.462Y-154.074
X321.462Y-155.854
X321.462Y-157.634
X321.462Y-159.414
X321.462Y-161.194
T3
X252.984Y-38.608
X252.984Y-47.244
X254.254Y-39.878
X254.254Y-45.974
X255.524Y-38.608
X255.524Y-47.244
X289.433Y-180.53
X289.433Y-190.183
X290.703Y-180.53
X290.703Y-190.183
X291.973Y-180.53
X291.973Y-190.183
X299.72Y-78.74
X299.72Y-80.01
X299.72Y-81.28
X346.456Y-172.466
X346.456Y-179.832
X347.726Y-171.196
X347.726Y-181.102
X348.996Y-172.466
X348.996Y-179.832
T4
X26.924Y-53.315
X26.924Y-58.115
X26.924Y-62.738
X26.924Y-67.564
X28.702Y-93.726
X31.242Y-111.252
X31.242Y-121.412
X33.782Y-133.898
X33.782Y-136.398
X35.306Y-159.766
X35.306Y-164.338
X35.306Y-169.164
X35.306Y-173.736
X35.306Y-178.562
X36.068Y-108.204
X36.068Y-124.714
X37.084Y-53.315
X37.084Y-58.115
X37.084Y-62.738
X37.084Y-67.564
X38.568Y-108.204
X38.568Y-124.714
X38.862Y-93.726
X38.862Y-133.35
X38.862Y-143.51
X43.18Y-108.204
X43.18Y-110.744
X43.18Y-113.284
X43.18Y-115.824
X43.18Y-118.364
X43.18Y-120.904
X43.18Y-123.444
X43.18Y-133.35
X43.18Y-135.89
X43.18Y-138.43
X43.18Y-140.97
X43.18Y-143.51
X43.18Y-146.05
X43.18Y-148.59
X45.466Y-159.766
X45.466Y-164.338
X45.466Y-169.164
X45.466Y-173.736
X45.466Y-178.562
X45.76Y-152.4
X48.26Y-152.4
X48.3Y-127.254
X50.8Y-108.204
X50.8Y-110.744
X50.8Y-113.284
X50.8Y-115.824
X50.8Y-118.364
X50.8Y-120.904
X50.8Y-123.444
X50.8Y-127.254
X50.8Y-133.35
X50.8Y-135.89
X50.8Y-138.43
X50.8Y-140.97
X50.8Y-143.51
X50.8Y-146.05
X50.8Y-148.59
X63.5Y-163.83
X63.5Y-168.656
X64.008Y-70.358
X64.77Y-74.93
X64.77Y-77.47
X64.77Y-80.01
X64.77Y-82.55
X64.77Y-85.09
X64.77Y-87.63
X64.77Y-90.17
X64.77Y-92.71
X64.77Y-95.25
X64.77Y-97.79
X64.77Y-108.458
X64.77Y-110.998
X64.77Y-113.538
X64.77Y-116.078
X64.77Y-118.618
X64.77Y-121.158
X64.77Y-123.698
X64.77Y-126.238
X64.77Y-128.778
X64.77Y-131.318
X64.77Y-133.858
X64.77Y-136.398
X64.77Y-138.938
X64.77Y-141.478
X64.77Y-144.018
X64.77Y-146.558
X64.77Y-149.098
X64.77Y-151.638
X64.77Y-154.178
X64.77Y-156.718
X66.508Y-70.358
X66.929Y-30.226
X66.929Y-32.726
X66.929Y-36.616
X66.929Y-39.116
X67.945Y-45.466
X67.945Y-52.832
X67.945Y-60.198
X68.366Y-186.944
X69.596Y-174.498
X69.596Y-177.038
X69.596Y-179.578
X69.596Y-182.118
X70.445Y-45.466
X70.445Y-52.832
X70.445Y-60.198
X70.866Y-186.944
X70.906Y-70.358
X72.009Y-30.226
X72.009Y-32.726
X72.048Y-36.66
X72.048Y-39.16
X72.39Y-74.93
X72.39Y-77.47
X72.39Y-80.01
X72.39Y-82.55
X72.39Y-85.09
X72.39Y-87.63
X72.39Y-90.17
X72.39Y-92.71
X72.39Y-95.25
X72.39Y-97.79
X73.406Y-70.358
X73.66Y-163.83
X73.66Y-168.656
X75.986Y-186.944
X77.216Y-168.656
X77.216Y-174.498
X77.216Y-177.038
X77.216Y-179.578
X77.216Y-182.118
X77.51Y-160.528
X78.486Y-186.944
X80.01Y-108.458
X80.01Y-110.998
X80.01Y-113.538
X80.01Y-116.078
X80.01Y-118.618
X80.01Y-121.158
X80.01Y-123.698
X80.01Y-126.238
X80.01Y-128.778
X80.01Y-131.318
X80.01Y-133.858
X80.01Y-136.398
X80.01Y-138.938
X80.01Y-141.478
X80.01Y-144.018
X80.01Y-146.558
X80.01Y-149.098
X80.01Y-151.638
X80.01Y-154.178
X80.01Y-156.718
X80.01Y-160.528
X81.788Y-177.038
X81.828Y-185.42
X84.288Y-177.038
X84.328Y-185.42
X86.106Y-64.516
X86.106Y-67.016
X86.106Y-73.66
X86.106Y-76.2
X86.106Y-78.74
X86.106Y-81.28
X86.106Y-83.82
X86.106Y-86.36
X86.106Y-88.9
X86.106Y-91.44
X86.106Y-93.98
X87.376Y-154.178
X87.376Y-156.678
X87.376Y-168.656
X87.63Y-100.624
X87.63Y-103.124
X91.186Y-63.5
X91.186Y-66.04
X91.186Y-68.58
X91.186Y-71.12
X91.186Y-73.66
X91.186Y-76.2
X91.186Y-78.74
X91.186Y-83.82
X91.186Y-86.36
X91.186Y-88.9
X91.186Y-91.44
X91.186Y-93.98
X91.186Y-96.52
X91.186Y-99.06
X91.694Y-116.078
X91.694Y-118.618
X91.694Y-121.158
X91.694Y-123.698
X91.694Y-126.238
X91.694Y-128.778
X91.694Y-131.318
X91.694Y-133.858
X91.694Y-136.398
X91.694Y-138.938
X91.694Y-141.478
X91.694Y-144.018
X91.694Y-146.558
X91.694Y-149.098
X91.694Y-151.638
X91.694Y-154.178
X96.266Y-162.56
X96.266Y-165.1
X96.266Y-167.64
X96.266Y-170.18
X96.266Y-172.72
X96.266Y-175.26
X96.266Y-177.8
X96.266Y-180.34
X96.266Y-182.88
X96.266Y-185.42
X98.806Y-63.5
X98.806Y-66.04
X98.806Y-68.58
X98.806Y-71.12
X98.806Y-73.66
X98.806Y-76.2
X98.806Y-78.74
X98.806Y-83.82
X98.806Y-86.36
X98.806Y-88.9
X98.806Y-91.44
X98.806Y-93.98
X98.806Y-96.52
X98.806Y-99.06
X98.806Y-189.992
X101.306Y-189.992
X102.616Y-46.268
X102.616Y-48.768
X103.886Y-162.56
X103.886Y-165.1
X103.886Y-167.64
X103.886Y-170.18
X103.886Y-172.72
X103.886Y-175.26
X103.886Y-177.8
X103.886Y-180.34
X103.886Y-182.88
X103.886Y-185.42
X106.172Y-43.688
X106.172Y-51.308
X106.934Y-116.078
X106.934Y-118.618
X106.934Y-121.158
X106.934Y-123.698
X106.934Y-126.238
X106.934Y-128.778
X106.934Y-131.318
X106.934Y-133.858
X106.934Y-136.398
X106.934Y-138.938
X106.934Y-141.478
X106.934Y-144.018
X106.934Y-146.558
X106.934Y-149.098
X106.934Y-151.638
X106.934Y-154.178
X108.204Y-105.664
X108.204Y-108.164
X108.712Y-43.688
X108.712Y-51.308
X110.236Y-170.18
X110.236Y-172.72
X110.236Y-175.26
X110.236Y-177.8
X110.236Y-180.34
X110.236Y-182.88
X110.236Y-185.42
X111.252Y-43.688
X111.252Y-51.308
X111.252Y-68.58
X111.252Y-71.12
X111.252Y-73.66
X111.252Y-76.2
X111.252Y-78.74
X111.252Y-81.28
X111.252Y-83.82
X111.506Y-92.964
X111.506Y-95.504
X111.506Y-98.044
X111.506Y-100.584
X111.506Y-103.124
X111.506Y-105.664
X111.506Y-108.204
X113.03Y-189.992
X113.792Y-43.688
X113.792Y-51.308
X115.53Y-189.992
X116.332Y-43.688
X116.332Y-51.308
X117.856Y-170.18
X117.856Y-172.72
X117.856Y-175.26
X117.856Y-177.8
X117.856Y-180.34
X117.856Y-182.88
X117.856Y-185.42
X118.872Y-43.688
X118.872Y-51.308
X118.872Y-68.58
X118.872Y-71.12
X118.872Y-73.66
X118.872Y-76.2
X118.872Y-78.74
X118.872Y-81.28
X118.872Y-83.82
X119.126Y-92.964
X119.126Y-95.504
X119.126Y-98.044
X119.126Y-100.584
X119.126Y-103.124
X119.126Y-105.664
X119.126Y-108.204
X119.126Y-121.158
X119.126Y-123.698
X119.126Y-126.238
X119.126Y-128.778
X119.126Y-131.318
X119.126Y-133.858
X119.126Y-136.398
X119.126Y-138.938
X119.126Y-141.478
X119.126Y-144.018
X119.126Y-146.558
X119.126Y-149.098
X119.126Y-151.638
X119.126Y-154.178
X121.412Y-43.688
X121.412Y-51.308
X123.952Y-43.688
X123.952Y-51.308
X124.46Y-170.18
X124.46Y-172.72
X124.46Y-175.26
X124.46Y-177.8
X124.46Y-180.34
X124.46Y-182.88
X124.46Y-185.42
X125.008Y-158.75
X126.492Y-43.688
X126.492Y-51.308
X127.254Y-189.992
X127.508Y-158.75
X129.032Y-43.688
X129.032Y-51.308
X129.032Y-66.04
X129.032Y-68.58
X129.032Y-71.12
X129.032Y-73.66
X129.032Y-76.2
X129.032Y-78.74
X129.032Y-81.28
X129.032Y-83.82
X129.754Y-189.992
X130.81Y-39.878
X132.08Y-170.18
X132.08Y-172.72
X132.08Y-175.26
X132.08Y-177.8
X132.08Y-180.34
X132.08Y-182.88
X132.08Y-185.42
X133.31Y-39.878
X134.366Y-121.158
X134.366Y-123.698
X134.366Y-126.238
X134.366Y-128.778
X134.366Y-131.318
X134.366Y-133.858
X134.366Y-136.398
X134.366Y-138.938
X134.366Y-141.478
X134.366Y-144.018
X134.366Y-146.558
X134.366Y-149.098
X134.366Y-151.638
X134.366Y-154.178
X135.128Y-43.688
X135.128Y-51.308
X136.652Y-66.04
X136.652Y-68.58
X136.652Y-71.12
X136.652Y-73.66
X136.652Y-76.2
X136.652Y-78.74
X136.652Y-81.28
X136.652Y-83.82
X137.668Y-43.688
X137.668Y-51.308
X138.938Y-170.18
X138.938Y-172.72
X138.938Y-175.26
X138.938Y-177.8
X138.938Y-180.34
X138.938Y-182.88
X138.938Y-185.42
X140.208Y-43.688
X140.208Y-51.308
X140.208Y-66.08
X140.208Y-68.58
X141.478Y-189.992
X142.748Y-43.688
X142.748Y-51.308
X143.296Y-119.888
X143.978Y-189.992
X145.288Y-43.688
X145.288Y-51.308
X145.796Y-119.888
X146.05Y-66.04
X146.05Y-68.58
X146.05Y-71.12
X146.05Y-73.66
X146.05Y-76.2
X146.05Y-78.74
X146.05Y-81.28
X146.05Y-83.82
X146.05Y-92.964
X146.05Y-95.504
X146.05Y-98.044
X146.05Y-100.584
X146.05Y-103.124
X146.05Y-105.664
X146.05Y-108.204
X146.05Y-110.744
X146.05Y-113.284
X146.05Y-115.824
X146.05Y-126.238
X146.05Y-128.778
X146.05Y-131.318
X146.05Y-133.858
X146.05Y-136.398
X146.05Y-138.938
X146.05Y-141.478
X146.05Y-144.018
X146.558Y-170.18
X146.558Y-172.72
X146.558Y-175.26
X146.558Y-177.8
X146.558Y-180.34
X146.558Y-182.88
X146.558Y-185.42
X147.828Y-43.688
X147.828Y-51.308
X148.884Y-148.844
X150.368Y-43.688
X150.368Y-51.308
X151.384Y-148.844
X152.4Y-170.18
X152.4Y-172.72
X152.4Y-175.26
X152.4Y-177.8
X152.4Y-180.34
X152.4Y-182.88
X152.4Y-185.42
X152.908Y-43.688
X152.908Y-51.308
X153.67Y-66.04
X153.67Y-68.58
X153.67Y-71.12
X153.67Y-73.66
X153.67Y-76.2
X153.67Y-78.74
X153.67Y-81.28
X153.67Y-83.82
X153.67Y-92.964
X153.67Y-95.504
X153.67Y-98.044
X153.67Y-100.584
X153.67Y-103.124
X153.67Y-105.664
X153.67Y-108.204
X153.67Y-110.744
X153.67Y-113.284
X153.67Y-115.824
X153.67Y-126.238
X153.67Y-128.778
X153.67Y-131.318
X153.67Y-133.858
X153.67Y-136.398
X153.67Y-138.938
X153.67Y-141.478
X153.67Y-144.018
X155.448Y-43.688
X155.448Y-51.308
X155.488Y-189.992
X157.48Y-66.04
X157.48Y-68.54
X157.988Y-43.688
X157.988Y-51.308
X157.988Y-189.992
X160.02Y-170.18
X160.02Y-172.72
X160.02Y-175.26
X160.02Y-177.8
X160.02Y-180.34
X160.02Y-182.88
X160.02Y-185.42
X161.798Y-40.934
X161.798Y-43.434
X164.592Y-68.58
X164.592Y-71.12
X164.592Y-73.66
X164.592Y-76.2
X164.592Y-78.74
X164.592Y-81.28
X164.592Y-83.82
X164.592Y-86.36
X164.592Y-92.964
X164.592Y-95.504
X164.592Y-98.044
X164.592Y-100.584
X164.592Y-103.124
X164.592Y-105.664
X164.592Y-108.204
X164.592Y-110.744
X164.592Y-113.284
X164.592Y-115.824
X164.592Y-126.238
X164.592Y-128.778
X164.592Y-131.318
X164.592Y-133.858
X164.592Y-136.398
X164.592Y-138.938
X164.592Y-141.478
X164.592Y-144.018
X165.14Y-119.634
X167.64Y-119.634
X167.894Y-32.766
X168.656Y-56.642
X170.394Y-32.766
X171.196Y-56.642
X171.744Y-119.634
X172.212Y-68.58
X172.212Y-71.12
X172.212Y-73.66
X172.212Y-76.2
X172.212Y-78.74
X172.212Y-81.28
X172.212Y-83.82
X172.212Y-86.36
X172.212Y-92.964
X172.212Y-95.504
X172.212Y-98.044
X172.212Y-100.584
X172.212Y-103.124
X172.212Y-105.664
X172.212Y-108.204
X172.212Y-110.744
X172.212Y-113.284
X172.212Y-115.824
X172.212Y-126.238
X172.212Y-128.778
X172.212Y-131.318
X172.212Y-133.858
X172.212Y-136.398
X172.212Y-138.938
X172.212Y-141.478
X172.212Y-144.018
X173.736Y-56.642
X174.244Y-119.634
X176.276Y-56.642
X178.816Y-56.642
X180.086Y-64.516
X180.086Y-67.056
X180.086Y-69.596
X180.086Y-72.136
X180.086Y-74.676
X180.086Y-77.216
X180.594Y-157.988
X180.594Y-168.91
X180.594Y-184.15
X181.356Y-56.642
X183.134Y-157.988
X183.134Y-168.91
X183.134Y-184.15
X184.658Y-64.262
X184.658Y-66.802
X184.658Y-69.342
X184.658Y-71.882
X184.658Y-74.422
X184.658Y-76.962
X184.658Y-79.502
X185.674Y-56.642
X185.674Y-157.988
X185.674Y-168.91
X185.674Y-184.15
X187.198Y-83.566
X188.214Y-56.642
X188.214Y-157.988
X188.214Y-168.91
X188.214Y-184.15
X189.698Y-83.566
X190.754Y-56.642
X190.754Y-157.988
X190.754Y-168.91
X190.754Y-184.15
X191.008Y-121.666
X191.008Y-129.286
X192.278Y-64.262
X192.278Y-66.802
X192.278Y-69.342
X192.278Y-71.882
X192.278Y-74.422
X192.278Y-76.962
X192.278Y-79.502
X193.294Y-56.642
X193.294Y-157.988
X193.294Y-168.91
X193.294Y-184.15
X193.548Y-121.666
X193.548Y-129.286
X195.834Y-56.642
X195.834Y-157.988
X195.834Y-168.91
X195.834Y-184.15
X196.088Y-121.666
X196.088Y-129.286
X196.088Y-136.398
X196.088Y-144.018
X198.374Y-56.642
X198.374Y-157.988
X198.374Y-168.91
X198.374Y-184.15
X198.628Y-121.666
X198.628Y-129.286
X198.628Y-136.398
X198.628Y-144.018
X200.914Y-157.988
X200.914Y-168.91
X200.914Y-184.15
X201.168Y-121.666
X201.168Y-129.286
X201.168Y-136.398
X201.168Y-144.018
X201.676Y-189.484
X203.2Y-55.118
X203.2Y-61.468
X203.454Y-168.91
X203.454Y-184.15
X203.708Y-121.666
X203.708Y-129.286
X203.708Y-136.398
X203.708Y-144.018
X205.7Y-55.118
X205.7Y-61.468
X205.994Y-168.91
X205.994Y-184.15
X206.248Y-121.666
X206.248Y-129.286
X206.248Y-136.398
X206.248Y-144.018
X208.534Y-168.91
X208.534Y-184.15
X208.788Y-121.666
X208.788Y-129.286
X208.788Y-136.398
X208.788Y-144.018
X210.82Y-75.184
X210.82Y-77.724
X210.82Y-80.264
X210.82Y-82.804
X210.82Y-85.344
X210.82Y-87.884
X210.86Y-38.862
X211.074Y-168.91
X211.074Y-184.15
X211.328Y-121.666
X211.328Y-129.286
X211.328Y-136.398
X211.328Y-144.018
X211.836Y-189.484
X213.36Y-38.862
X213.36Y-72.644
X213.36Y-75.184
X213.36Y-77.724
X213.36Y-80.264
X213.36Y-82.804
X213.36Y-85.344
X213.36Y-87.884
X213.36Y-90.424
X213.614Y-168.91
X213.614Y-184.15
X213.868Y-121.666
X213.868Y-129.286
X213.868Y-136.398
X213.868Y-144.018
X215.9Y-72.644
X215.9Y-75.184
X215.9Y-87.884
X215.9Y-90.424
X216.154Y-168.91
X216.154Y-184.15
X216.408Y-136.398
X216.408Y-144.018
X217.17Y-189.016
X217.17Y-191.516
X217.464Y-129.286
X218.44Y-72.644
X218.44Y-75.184
X218.44Y-87.884
X218.44Y-90.424
X218.694Y-168.91
X218.694Y-184.15
X218.948Y-136.398
X218.948Y-144.018
X219.964Y-129.286
X220.98Y-72.644
X220.98Y-75.184
X220.98Y-87.884
X220.98Y-90.424
X221.234Y-168.91
X221.234Y-184.15
X221.488Y-136.398
X221.488Y-144.018
X221.528Y-67.056
X223.52Y-72.644
X223.52Y-75.184
X223.52Y-87.884
X223.52Y-90.424
X223.774Y-168.91
X223.774Y-184.15
X224.028Y-67.056
X224.028Y-136.398
X224.028Y-144.018
X224.536Y-45.212
X224.536Y-47.752
X224.536Y-50.292
X224.536Y-52.832
X224.536Y-55.372
X224.536Y-57.912
X226.06Y-72.644
X226.06Y-75.184
X226.06Y-77.724
X226.06Y-80.264
X226.06Y-82.804
X226.06Y-85.344
X226.06Y-87.884
X226.06Y-90.424
X226.314Y-168.91
X226.314Y-184.15
X226.568Y-136.398
X226.568Y-144.018
X226.608Y-132.334
X228.6Y-75.184
X228.6Y-77.724
X228.6Y-80.264
X228.6Y-82.804
X228.6Y-85.344
X228.6Y-87.884
X228.854Y-168.91
X228.854Y-184.15
X229.108Y-132.334
X229.108Y-136.398
X229.108Y-144.018
X229.87Y-45.212
X229.87Y-47.752
X229.87Y-50.292
X229.87Y-52.832
X229.87Y-55.372
X229.87Y-57.912
X229.87Y-60.452
X232.664Y-169.164
X232.664Y-171.664
X232.664Y-176.57
X232.664Y-179.07
X233.68Y-189.016
X233.68Y-191.516
X233.934Y-72.39
X233.934Y-74.89
X237.49Y-45.212
X237.49Y-47.752
X237.49Y-50.292
X237.49Y-52.832
X237.49Y-55.372
X237.49Y-57.912
X237.49Y-60.452
X237.784Y-64.262
X240.284Y-64.262
X244.348Y-64.262
X248.92Y-71.628
X248.92Y-74.128
X250.698Y-110.744
X250.698Y-113.284
X250.698Y-115.824
X250.698Y-118.364
X250.698Y-120.904
X250.698Y-123.444
X250.698Y-125.984
X250.698Y-128.524
X250.698Y-131.064
X250.825Y-142.24
X250.825Y-144.78
X250.825Y-147.32
X250.825Y-149.86
X250.825Y-152.4
X250.825Y-154.94
X250.825Y-157.48
X250.825Y-160.02
X250.825Y-162.56
X251.46Y-179.07
X251.46Y-189.23
X253.238Y-56.388
X253.238Y-107.061
X254.254Y-75.184
X254.254Y-77.724
X254.254Y-80.264
X254.254Y-82.804
X254.254Y-85.344
X254.254Y-87.884
X254.508Y-64.262
X255.738Y-56.388
X255.738Y-107.061
X256.286Y-179.07
X256.286Y-189.23
X256.794Y-72.644
X256.794Y-75.184
X256.794Y-77.724
X256.794Y-80.264
X256.794Y-82.804
X256.794Y-85.344
X256.794Y-87.884
X256.794Y-90.424
X258.318Y-110.744
X258.318Y-113.284
X258.318Y-115.824
X258.318Y-118.364
X258.318Y-120.904
X258.318Y-123.444
X258.318Y-125.984
X258.318Y-128.524
X258.318Y-131.064
X258.445Y-142.24
X258.445Y-144.78
X258.445Y-147.32
X258.445Y-149.86
X258.445Y-152.4
X258.445Y-154.94
X258.445Y-157.48
X258.445Y-160.02
X258.445Y-162.56
X258.445Y-166.116
X259.334Y-72.644
X259.334Y-75.184
X259.334Y-87.884
X259.334Y-90.424
X260.858Y-42.418
X260.858Y-46.99
X260.858Y-51.816
X260.858Y-56.388
X260.945Y-166.116
X261.112Y-179.324
X261.112Y-189.484
X261.874Y-72.644
X261.874Y-75.184
X261.874Y-87.884
X261.874Y-90.424
X264.414Y-72.644
X264.414Y-75.184
X264.414Y-87.884
X264.414Y-90.424
X265.684Y-179.324
X265.684Y-189.484
X266.954Y-72.644
X266.954Y-75.184
X266.954Y-87.884
X266.954Y-90.424
X267.97Y-110.744
X267.97Y-113.284
X267.97Y-115.824
X267.97Y-118.364
X267.97Y-120.904
X267.97Y-123.444
X267.97Y-125.984
X267.97Y-128.524
X267.97Y-131.064
X268.097Y-142.24
X268.097Y-144.78
X268.097Y-147.32
X268.097Y-149.86
X268.097Y-152.4
X268.097Y-154.94
X268.097Y-157.48
X268.097Y-160.02
X268.097Y-162.56
X269.494Y-72.644
X269.494Y-75.184
X269.494Y-77.724
X269.494Y-80.264
X269.494Y-82.804
X269.494Y-85.344
X269.494Y-87.884
X269.494Y-90.424
X270.129Y-106.934
X270.51Y-179.324
X270.51Y-189.484
X271.018Y-42.418
X271.018Y-46.99
X271.018Y-51.816
X271.018Y-56.388
X272.034Y-75.184
X272.034Y-77.724
X272.034Y-80.264
X272.034Y-82.804
X272.034Y-85.344
X272.034Y-87.884
X272.629Y-106.934
X275.336Y-179.324
X275.336Y-189.484
X275.59Y-110.744
X275.59Y-113.284
X275.59Y-115.824
X275.59Y-118.364
X275.59Y-120.904
X275.59Y-123.444
X275.59Y-125.984
X275.59Y-128.524
X275.59Y-131.064
X275.717Y-142.24
X275.717Y-144.78
X275.717Y-147.32
X275.717Y-149.86
X275.717Y-152.4
X275.717Y-154.94
X275.717Y-157.48
X275.717Y-160.02
X275.717Y-162.56
X275.971Y-166.116
X277.622Y-44.069
X277.622Y-51.689
X277.622Y-57.15
X277.662Y-38.354
X278.233Y-92.773
X278.32Y-75.629
X278.471Y-166.116
X280.122Y-57.15
X280.162Y-38.354
X280.162Y-44.069
X280.162Y-51.689
X280.733Y-92.773
X280.82Y-75.629
X282.234Y-166.116
X282.702Y-44.069
X282.702Y-51.689
X283.718Y-57.15
X283.972Y-38.354
X283.972Y-110.744
X283.972Y-113.284
X283.972Y-115.824
X283.972Y-118.364
X283.972Y-120.904
X283.972Y-123.444
X283.972Y-125.984
X283.972Y-128.524
X283.972Y-131.064
X284.099Y-142.24
X284.099Y-144.78
X284.099Y-147.32
X284.099Y-149.86
X284.099Y-152.4
X284.099Y-154.94
X284.099Y-157.48
X284.099Y-160.02
X284.099Y-162.56
X284.734Y-166.116
X285.242Y-44.069
X285.242Y-51.689
X286.218Y-57.15
X286.385Y-107.188
X286.472Y-38.354
X287.782Y-44.069
X287.782Y-51.689
X288.885Y-107.188
X290.322Y-44.069
X290.322Y-51.689
X291.592Y-110.744
X291.592Y-113.284
X291.592Y-115.824
X291.592Y-118.364
X291.592Y-120.904
X291.592Y-123.444
X291.592Y-125.984
X291.592Y-128.524
X291.592Y-131.064
X291.719Y-142.24
X291.719Y-144.78
X291.719Y-147.32
X291.719Y-149.86
X291.719Y-152.4
X291.719Y-154.94
X291.719Y-157.48
X291.719Y-160.02
X291.719Y-162.56
X291.909Y-167.68
X291.909Y-170.18
X292.862Y-44.069
X292.862Y-51.689
X295.402Y-44.069
X295.402Y-51.689
X297.688Y-107.482
X297.688Y-109.982
X297.942Y-44.069
X297.942Y-51.689
X300.482Y-44.069
X300.482Y-51.689
X303.022Y-44.069
X303.022Y-51.689
X303.062Y-55.118
X305.054Y-68.326
X305.054Y-77.724
X305.054Y-82.296
X305.562Y-44.069
X305.562Y-51.689
X305.562Y-55.118
X307.554Y-68.326
X307.848Y-167.767
X307.848Y-170.267
X314.365Y-68.072
X315.214Y-41.188
X315.214Y-43.688
X315.214Y-77.724
X315.214Y-82.296
X316.23Y-48.514
X316.23Y-58.674
X316.865Y-68.072
X320.421Y-68.326
X320.421Y-73.025
X320.421Y-77.724
X320.421Y-82.423
X320.802Y-48.514
X320.802Y-58.674
X322.834Y-41.315
X322.834Y-43.815
X325.374Y-48.514
X325.374Y-58.674
X325.628Y-158.75
X325.628Y-161.25
X328.676Y-114.935
X328.676Y-125.095
X328.676Y-128.056
X328.676Y-130.556
X328.676Y-143.954
X328.676Y-154.114
X330.2Y-41.315
X330.2Y-43.815
X330.2Y-48.514
X330.2Y-58.674
X330.581Y-68.326
X330.581Y-73.025
X330.581Y-77.724
X330.581Y-82.423
X331.47Y-170.434
X331.47Y-172.974
X331.47Y-175.514
X331.47Y-178.054
X331.47Y-180.594
X331.47Y-183.134
X331.47Y-185.674
X331.47Y-188.214
X331.47Y-190.754
X334.01Y-68.326
X334.01Y-73.025
X334.01Y-77.724
X334.01Y-82.423
X334.304Y-194.31
X335.026Y-48.514
X335.026Y-58.674
X336.51Y-68.326
X336.51Y-73.025
X336.51Y-77.724
X336.51Y-82.423
X336.804Y-194.31
X337.693Y-41.315
X337.693Y-43.815
X339.09Y-170.434
X339.09Y-172.974
X339.09Y-175.514
X339.09Y-178.054
X339.09Y-180.594
X339.09Y-183.134
X339.09Y-185.674
X339.09Y-188.214
X339.09Y-190.754
X339.852Y-48.514
X339.852Y-58.674
X341.63Y-116.586
X341.63Y-119.126
X341.63Y-121.666
X341.63Y-124.206
X341.63Y-126.746
X341.63Y-129.286
X343.408Y-188.254
X343.408Y-190.754
X344.424Y-87.884
X346.456Y-76.494
X346.456Y-78.994
X346.71Y-38.354
X346.924Y-87.884
X346.964Y-91.186
X346.964Y-93.726
X346.964Y-96.266
X346.964Y-98.806
X346.964Y-101.346
X346.964Y-103.886
X346.964Y-106.426
X346.964Y-108.966
X346.964Y-111.506
X346.964Y-114.046
X346.964Y-116.586
X346.964Y-119.126
X346.964Y-121.666
X346.964Y-124.206
X346.964Y-126.746
X346.964Y-129.286
X346.964Y-131.826
X346.964Y-134.366
X346.964Y-136.906
X346.964Y-139.446
X347.218Y-63.881
X347.218Y-71.501
X349.25Y-83.82
X349.758Y-63.881
X349.758Y-71.501
X352.298Y-63.881
X352.298Y-71.501
X353.822Y-171.196
X353.822Y-181.356
X354.838Y-63.881
X354.838Y-71.501
X354.838Y-167.132
X356.87Y-38.354
X357.378Y-63.881
X357.378Y-71.501
X357.545Y-160.782
X358.4Y-171.22
X358.4Y-181.38
X359.41Y-83.82
X359.704Y-143.256
X359.918Y-63.881
X359.918Y-71.501
X360.045Y-160.782
X360.172Y-38.354
X362.204Y-91.186
X362.204Y-93.726
X362.204Y-96.266
X362.204Y-98.806
X362.204Y-101.346
X362.204Y-103.886
X362.204Y-106.426
X362.204Y-108.966
X362.204Y-111.506
X362.204Y-114.046
X362.204Y-116.586
X362.204Y-119.126
X362.204Y-121.666
X362.204Y-124.206
X362.204Y-126.746
X362.204Y-129.286
X362.204Y-131.826
X362.204Y-134.366
X362.204Y-136.906
X362.204Y-139.446
X362.204Y-143.256
X362.458Y-63.881
X362.458Y-71.501
X362.458Y-76.454
X362.458Y-78.954
X362.458Y-83.82
X362.458Y-167.132
X362.672Y-38.354
X362.9Y-171.196
X362.9Y-181.356
X365.76Y-44.236
X365.76Y-46.736
X365.76Y-50.546
X365.76Y-53.046
X366.776Y-66.421
X366.776Y-68.921
X367.538Y-114.046
X367.538Y-116.586
X367.538Y-119.126
X367.538Y-121.666
X367.538Y-124.206
X367.538Y-126.746
X369.316Y-159.258
X369.57Y-140.97
X369.57Y-145.542
X369.57Y-150.114
X369.57Y-154.686
X369.57Y-164.084
X372.618Y-83.82
X375.4Y-127.5
X375.4Y-130.04
X375.4Y-132.58
X375.4Y-135.12
X376.174Y-112.308
X376.174Y-114.808
X376.174Y-118.658
X376.174Y-121.158
X377.19Y-105.958
X377.19Y-108.458
X379.476Y-159.258
X379.73Y-33.528
X379.73Y-38.4
X379.73Y-140.97
X379.73Y-145.542
X379.73Y-150.114
X379.73Y-154.686
X379.73Y-164.084
X380.492Y-77.724
X380.492Y-81.28
X380.492Y-84.836
X380.492Y-88.646
X380.492Y-92.456
X380.492Y-96.266
X380.492Y-99.822
X380.746Y-42.926
X380.746Y-46.482
X380.746Y-50.038
X380.746Y-53.594
X380.746Y-57.15
X380.746Y-60.96
X380.746Y-64.516
X381.254Y-105.918
X381.254Y-108.458
X381.254Y-110.998
X381.254Y-113.538
X383.02Y-127.5
X383.02Y-130.04
X383.02Y-132.58
X383.02Y-135.12
X385.191Y-141.772
X385.191Y-144.272
X385.191Y-150.622
X385.191Y-153.122
X385.191Y-159.766
X385.191Y-162.266
X387.338Y-127.286
X387.338Y-129.786
X387.338Y-133.596
X387.338Y-136.096
X388.874Y-105.918
X388.874Y-108.458
X388.874Y-110.998
X388.874Y-113.538
X389.89Y-33.528
X389.89Y-38.4
X389.89Y-119.634
X390.652Y-77.724
X390.652Y-81.28
X390.652Y-84.836
X390.652Y-88.646
X390.652Y-92.456
X390.652Y-96.266
X390.652Y-99.822
X390.906Y-42.926
X390.906Y-46.482
X390.906Y-50.038
X390.906Y-53.594
X390.906Y-57.15
X390.906Y-60.96
X390.906Y-64.516
X393.486Y-113.538
X394.218Y-136.069
X394.97Y-105.385
X394.97Y-107.885
X395.986Y-113.538
X396.758Y-130.989
X399.298Y-136.069
X400.05Y-119.634
T5
X35.052Y-185.42
X35.052Y-187.96
X43.199Y-58.166
X44.196Y-185.42
X44.196Y-187.96
X45.739Y-58.166
X50.699Y-58.166
X53.239Y-58.166
X58.199Y-58.166
X60.739Y-58.166
X245.477Y-38.608
X245.477Y-47.752
X248.017Y-38.608
X248.017Y-47.752
X281.686Y-180.022
X281.686Y-189.928
X284.226Y-180.022
X284.226Y-189.928
T6
X324.153Y-28.702
X324.153Y-31.192
X326.203Y-28.702
X326.693Y-31.192
X328.803Y-28.702
X328.803Y-31.192
X330.853Y-28.702
X330.853Y-31.192
T7
X30.48Y-73.152
X33.02Y-73.152
X60.198Y-174.498
X60.198Y-177.038
X77.724Y-25.4
X77.724Y-30.48
X80.264Y-25.4
X80.264Y-30.48
X82.804Y-25.4
X82.804Y-30.48
X85.344Y-25.4
X85.344Y-30.48
X87.884Y-25.4
X87.884Y-30.48
X90.424Y-25.4
X90.424Y-30.48
X92.964Y-25.4
X92.964Y-30.48
X95.504Y-25.4
X95.504Y-30.48
X98.044Y-25.4
X98.044Y-30.48
X100.584Y-25.4
X100.584Y-30.48
X103.124Y-25.4
X103.124Y-30.48
X105.664Y-25.4
X105.664Y-30.48
X108.204Y-25.4
X108.204Y-30.48
X110.744Y-25.4
X110.744Y-30.48
X113.284Y-25.4
X113.284Y-30.48
X115.824Y-25.4
X115.824Y-30.48
X118.364Y-25.4
X118.364Y-30.48
X120.904Y-25.4
X120.904Y-30.48
X123.444Y-25.4
X123.444Y-30.48
X125.984Y-25.4
X125.984Y-30.48
X128.524Y-25.4
X128.524Y-30.48
X131.064Y-25.4
X131.064Y-30.48
X133.604Y-25.4
X133.604Y-30.48
X136.144Y-25.4
X136.144Y-30.48
X138.684Y-25.4
X138.684Y-30.48
X141.224Y-25.4
X141.224Y-30.48
X143.764Y-25.4
X143.764Y-30.48
X146.304Y-25.4
X146.304Y-30.48
X148.844Y-25.4
X148.844Y-30.48
X151.384Y-25.4
X151.384Y-30.48
X153.924Y-25.4
X153.924Y-30.48
X156.464Y-25.4
X156.464Y-30.48
X162.814Y-150.114
X165.354Y-150.114
X167.894Y-150.114
X170.434Y-150.114
X172.974Y-150.114
X175.514Y-150.114
X178.054Y-150.114
X180.594Y-150.114
X183.134Y-150.114
X185.674Y-150.114
X188.214Y-150.114
X190.754Y-150.114
X193.294Y-150.114
X195.834Y-150.114
X197.358Y-64.262
X197.358Y-66.802
X197.358Y-69.342
X197.358Y-71.882
X197.358Y-74.422
X197.358Y-76.962
X198.374Y-150.114
X200.914Y-150.114
X203.454Y-150.114
X205.994Y-150.114
X208.534Y-150.114
X211.074Y-150.114
X254.731Y-28.448
X256.116Y-25.608
X257.501Y-28.448
X258.886Y-25.608
X260.271Y-28.448
X261.656Y-25.608
X263.041Y-28.448
X264.426Y-25.608
X265.811Y-28.448
X267.716Y-173.99
X270.256Y-173.99
X276.606Y-173.99
X279.146Y-173.99
X292.45Y-28.448
X293.835Y-25.608
X295.22Y-28.448
X296.605Y-25.608
X297.99Y-28.448
X299.375Y-25.608
X300.76Y-28.448
X302.145Y-25.608
X303.53Y-28.448
X396.9Y-80.944
X396.9Y-83.714
X396.9Y-86.484
X396.9Y-89.254
X396.9Y-92.024
X397.129Y-45.765
X397.129Y-48.535
X397.129Y-51.305
X397.129Y-54.075
X397.129Y-56.845
X399.74Y-82.329
X399.74Y-85.099
X399.74Y-87.869
X399.74Y-90.639
X399.969Y-47.15
X399.969Y-49.92
X399.969Y-52.69
X399.969Y-55.46
T8
X30.226Y-83.892
X30.226Y-88.392
X36.726Y-83.892
X36.726Y-88.392
X57.15Y-183.896
X57.15Y-188.396
X63.65Y-183.896
X63.65Y-188.396
X212.09Y-43.434
X214.63Y-43.434
X217.17Y-43.434
T9
X44.688Y-44.929
X49.688Y-44.929
X54.938Y-44.929
X59.938Y-44.929
X215.298Y-32.86
X217.798Y-35.36
X220.298Y-22.86
X222.798Y-32.86
X222.798Y-37.86
X225.298Y-22.86
X227.798Y-35.36
X230.298Y-32.86
T10
X44.081Y-32.486
X46.581Y-34.976
X49.086Y-22.476
X51.586Y-32.486
X54.086Y-22.476
X56.591Y-34.976
X59.091Y-32.486
T11
X37.338Y-113.972
X37.338Y-118.872
X223.012Y-190.246
X227.912Y-190.246
X279.717Y-81.597
X279.717Y-86.498
X297.243Y-168.91
X302.143Y-168.91
X352.097Y-77.851
X356.997Y-77.851
X370.84Y-182.118
X391.33Y-182.118
T12
X28.652Y-42.525
X33.652Y-22.225
T13
X28.452Y-22.225
X28.652Y-34.925
X28.652Y-38.725
X33.452Y-34.925
X33.452Y-38.725
X33.452Y-42.525
T14
X320.743Y-25.702
X327.503Y-24.892
X334.263Y-25.702
T15
X346.456Y-28.63
T16
X346.456Y-24.13
T17
X247.771Y-28.148
X272.771Y-28.148
X285.49Y-28.148
X310.49Y-28.148
X397.2Y-73.984
X397.2Y-98.984
X397.429Y-38.805
X397.429Y-63.805
T2
X362.966Y-28.95G85X362.966Y-29.85
G05
X368.416Y-24.4G85X367.516Y-24.4
G05
X372.966Y-28.95G85X372.966Y-29.85
G05
T0
M30
