M48
; DRILL file {KiCad (6.0.4)} date Mon Jul  4 14:01:53 2022
; FORMAT={-:-/ absolute / inch / decimal}
; #@! TF.CreationDate,2022-07-04T14:01:53+01:00
; #@! TF.GenerationSoftware,Kicad,Pcbnew,(6.0.4)
; #@! TF.FileFunction,Plated,1,4,PTH
FMAT,2
INCH
; #@! TA.AperFunction,Plated,PTH,ViaDrill
T1C0.0157
; #@! TA.AperFunction,Plated,PTH,ComponentDrill
T2C0.0276
; #@! TA.AperFunction,Plated,PTH,ComponentDrill
T3C0.0295
; #@! TA.AperFunction,Plated,PTH,ComponentDrill
T4C0.0315
; #@! TA.AperFunction,Plated,PTH,ComponentDrill
T5C0.0354
; #@! TA.AperFunction,Plated,PTH,ComponentDrill
T6C0.0382
; #@! TA.AperFunction,Plated,PTH,ComponentDrill
T7C0.0394
; #@! TA.AperFunction,Plated,PTH,ComponentDrill
T8C0.0433
; #@! TA.AperFunction,Plated,PTH,ComponentDrill
T9C0.0512
; #@! TA.AperFunction,Plated,PTH,ComponentDrill
T10C0.0551
; #@! TA.AperFunction,Plated,PTH,ComponentDrill
T11C0.0591
; #@! TA.AperFunction,Plated,PTH,ComponentDrill
T12C0.0600
; #@! TA.AperFunction,Plated,PTH,ComponentDrill
T13C0.0669
; #@! TA.AperFunction,Plated,PTH,ComponentDrill
T14C0.0933
; #@! TA.AperFunction,Plated,PTH,ComponentDrill
T15C0.0953
; #@! TA.AperFunction,Plated,PTH,ComponentDrill
T16C0.0988
; #@! TA.AperFunction,Plated,PTH,ComponentDrill
T17C0.1260
%
G90
G05
T1
X1.13Y-4.11
X1.29Y-7.14
X1.33Y-3.48
X1.42Y-6.05
X1.47Y-4.36
X1.58Y-2.45
X1.75Y-2.49
X1.78Y-3.6
X1.8Y-5.35
X1.8Y-5.85
X1.82Y-5.1
X1.85Y-5.25
X1.85Y-5.75
X1.86Y-2.65
X1.86Y-4.41
X1.9Y-5.45
X1.9Y-5.85
X1.91Y-4.11
X1.91Y-3.7
X1.98Y-2.57
X1.98Y-4.11
X2.03Y-2.53
X2.03Y-3.95
X2.08Y-2.69
X2.08Y-4.37
X2.1Y-5.45
X2.1Y-5.65
X2.13Y-4.27
X2.13Y-5.1
X2.14Y-6.17
X2.18Y-3.65
X2.18Y-5.27
X2.18Y-5.8
X2.21Y-2.61
X2.22Y-3.55
X2.22Y-5.17
X2.22Y-5.89
X2.26Y-3.45
X2.26Y-5.07
X2.26Y-5.96
X2.26Y-6.12
X2.26Y-7.07
X2.3Y-3.35
X2.3Y-4.97
X2.34Y-3.25
X2.34Y-4.87
X2.38Y-3.15
X2.38Y-4.77
X2.42Y-3.05
X2.42Y-4.67
X2.49Y-2.45
X2.55Y-7.02
X2.57Y-2.49
X2.57Y-1.94
X2.6Y-6.72
X2.62Y-4.57
X2.62Y-5.42
X2.63Y-3.6
X2.64Y-4.11
X2.65Y-5.77
X2.65Y-6.76
X2.66Y-5.57
X2.7Y-4.52
X2.7Y-5.87
X2.7Y-6.4
X2.73Y-1.37
X2.73Y-3.35
X2.73Y-4.14
X2.78Y-4.18
X2.78Y-5.12
X2.78Y-5.97
X2.78Y-6.53
X2.85Y-5.37
X2.87Y-1.68
X2.89Y-7.26
X2.9Y-3.95
X2.9Y-6.97
X2.91Y-1.62
X2.94Y-3.65
X2.94Y-3.85
X2.9437Y-3.2563
X2.95Y-1.52
X2.96Y-5.87
X2.96Y-6.29
X2.97Y-4.47
X2.97Y-5.22
X2.98Y-1.44
X2.98Y-3.55
X2.98Y-4.01
X3.01Y-4.37
X3.01Y-5.02
X3.02Y-1.4
X3.02Y-3.45
X3.02Y-4.08
X3.03Y-5.67
X3.03Y-6.12
X3.06Y-1.48
X3.06Y-3.35
X3.06Y-4.27
X3.06Y-4.72
X3.07Y-3.97
X3.1Y-1.73
X3.1Y-3.7
X3.15Y-1.79
X3.15Y-2.09
X3.19Y-2.18
X3.19Y-3.97
X3.22Y-6.64
X3.23Y-2.13
X3.23Y-4.47
X3.23Y-4.67
X3.23Y-4.82
X3.26Y-5.92
X3.26Y-4.92
X3.27Y-1.36
X3.27Y-3.05
X3.27Y-4.26
X3.29Y-4.3
X3.29Y-4.67
X3.31Y-1.31
X3.31Y-3.15
X3.31Y-4.22
X3.34Y-5.97
X3.34Y-6.79
X3.36Y-1.57
X3.36Y-2.3
X3.41Y-1.94
X3.46Y-1.62
X3.47Y-1.79
X3.47Y-2.25
X3.47Y-2.5
X3.47Y-4.62
X3.5Y-3.16
X3.5Y-3.8
X3.51Y-1.36
X3.51Y-5.82
X3.51Y-5.87
X3.52Y-4.57
X3.52Y-5.12
X3.54Y-6.7
X3.56Y-1.73
X3.61Y-1.31
X3.62Y-2.32
X3.62Y-6.2
X3.62Y-7.1
X3.65Y-4.47
X3.66Y-1.68
X3.68Y-3.65
X3.68Y-3.8
X3.69Y-5.77
X3.69Y-6.6
X3.71Y-1.52
X3.72Y-2.26
X3.72Y-3.0
X3.72Y-3.2
X3.72Y-3.24
X3.72Y-3.5
X3.72Y-4.35
X3.72Y-3.7
X3.76Y-3.85
X3.76Y-1.57
X3.76Y-4.77
X3.76Y-6.3
X3.8Y-2.7
X3.8Y-2.85
X3.8Y-2.9
X3.8Y-3.45
X3.81Y-1.48
X3.82Y-5.72
X3.82Y-6.21
X3.89Y-4.67
X3.89Y-6.25
X3.9Y-6.8
X3.9Y-7.05
X3.91Y-1.4
X3.93Y-2.04
X3.96Y-1.28
X3.97Y-3.75
X3.97Y-4.56
X3.97Y-5.77
X3.97Y-6.7
X3.97Y-6.75
X3.97Y-7.2
X4.01Y-1.44
X4.01Y-2.8
X4.01Y-4.51
X4.01Y-5.67
X4.05Y-2.04
X4.05Y-3.65
X4.05Y-3.7
X4.05Y-4.35
X4.06Y-5.57
X4.06Y-6.16
X4.09Y-2.36
X4.09Y-5.36
X4.12Y-5.97
X4.14Y-2.6
X4.14Y-4.87
X4.16Y-1.32
X4.18Y-2.44
X4.2Y-2.96
X4.23Y-2.29
X4.23Y-2.22
X4.23Y-2.65
X4.23Y-7.0
X4.25Y-3.1
X4.25Y-3.6
X4.26Y-1.32
X4.28Y-2.49
X4.29Y-2.95
X4.29Y-3.96
X4.3Y-4.57
X4.31Y-1.28
X4.31Y-5.87
X4.36Y-4.62
X4.38Y-2.4
X4.41Y-4.77
X4.41Y-6.9
X4.45Y-4.71
X4.45Y-7.3
X4.46Y-2.8
X4.46Y-3.2
X4.47Y-3.76
X4.47Y-4.52
X4.49Y-6.32
X4.49Y-7.25
X4.51Y-1.37
X4.52Y-2.36
X4.52Y-2.9
X4.53Y-3.31
X4.53Y-3.76
X4.55Y-4.16
X4.55Y-5.52
X4.55Y-6.7
X4.55Y-6.9
X4.55Y-7.05
X4.55Y-7.2
X4.57Y-2.36
X4.57Y-3.59
X4.57Y-3.96
X4.58Y-2.18
X4.6Y-5.52
X4.61Y-1.33
X4.61Y-3.71
X4.61Y-4.06
X4.63Y-1.93
X4.68Y-2.13
X4.73Y-6.75
X4.73Y-6.9
X4.73Y-7.0
X4.73Y-7.25
X4.76Y-2.7
X4.76Y-3.2
X4.76Y-3.55
X4.8Y-2.8
X4.8Y-3.1
X4.8Y-4.25
X4.8Y-4.38
X4.8Y-6.8
X4.8Y-7.1
X4.84Y-2.9
X4.84Y-3.0
X4.89Y-2.6
X4.89Y-3.15
X4.9Y-6.55
X4.93Y-5.12
X4.97Y-3.4
X4.97Y-4.07
X4.98Y-7.0
X4.98Y-7.15
X4.99Y-1.42
X5.01Y-5.07
X5.03Y-6.4
X5.03Y-7.25
X5.05Y-3.45
X5.05Y-3.96
X5.15Y-2.65
X5.16Y-1.12
X5.16Y-3.42
X5.17Y-2.9
X5.17Y-3.05
X5.18Y-3.57
X5.18Y-3.86
X5.21Y-2.36
X5.21Y-2.65
X5.21Y-2.75
X5.21Y-3.1
X5.21Y-3.15
X5.21Y-3.46
X5.22Y-5.02
X5.32Y-2.18
X5.35Y-6.8
X5.35Y-6.95
X5.37Y-5.12
X5.38Y-3.38
X5.4Y-6.47
X5.41Y-5.22
X5.42Y-2.14
X5.46Y-3.05
X5.46Y-3.71
X5.46Y-6.32
X5.46Y-3.77
X5.5Y-2.95
X5.5Y-3.6
X5.52Y-2.11
X5.55Y-4.52
X5.55Y-6.7
X5.55Y-7.0
X5.59Y-2.44
X5.59Y-2.8
X5.6Y-3.15
X5.62Y-4.82
X5.62Y-6.9
X5.63Y-2.7
X5.63Y-2.49
X5.63Y-4.11
X5.63Y-4.5
X5.66Y-2.32
X5.66Y-3.81
X5.69Y-6.95
X5.69Y-7.2
X5.75Y-2.4
X5.75Y-4.82
X5.82Y-1.88
X5.82Y-5.32
X5.86Y-5.42
X5.9Y-5.52
X5.92Y-1.84
X5.94Y-5.62
X5.98Y-5.72
X6.02Y-1.8
X6.05Y-3.57
X6.09Y-6.9
X6.09Y-7.05
X6.13Y-3.57
X6.13Y-4.82
X6.17Y-3.46
X6.17Y-3.96
X6.18Y-2.8
X6.18Y-3.15
X6.21Y-3.42
X6.21Y-3.87
X6.25Y-3.38
X6.25Y-3.76
X6.26Y-2.22
X6.26Y-3.1
X6.28Y-5.17
X6.28Y-6.36
X6.3Y-2.29
X6.3Y-3.72
X6.33Y-5.07
X6.33Y-6.16
X6.34Y-1.94
X6.34Y-2.62
X6.34Y-2.75
X6.36Y-4.06
X6.38Y-2.18
X6.38Y-2.9
X6.4Y-3.25
X6.4Y-3.5
X6.41Y-6.05
X6.42Y-2.14
X6.48Y-2.11
X6.51Y-6.37
X6.52Y-1.15
X6.52Y-2.58
X6.56Y-3.57
X6.56Y-3.76
X6.61Y-6.33
X6.62Y-4.87
X6.62Y-5.17
X6.64Y-2.8
X6.64Y-3.71
X6.69Y-5.27
X6.69Y-3.57
X6.71Y-6.91
X6.79Y-1.19
X6.82Y-6.86
X6.84Y-1.66
X6.88Y-2.99
X6.88Y-3.05
X6.88Y-3.65
X6.91Y-6.82
X6.93Y-2.9
X6.93Y-3.76
X6.94Y-1.7
X6.94Y-2.79
X6.96Y-6.05
X6.96Y-7.25
X6.97Y-3.1
X6.97Y-5.32
X6.99Y-1.86
X7.01Y-2.89
X7.01Y-6.78
X7.02Y-3.2
X7.02Y-5.07
X7.04Y-1.86
X7.06Y-3.3
X7.06Y-3.71
X7.12Y-3.48
X7.12Y-4.51
X7.12Y-5.12
X7.14Y-1.1
X7.14Y-1.44
X7.16Y-3.37
X7.16Y-4.87
X7.16Y-6.74
X7.27Y-6.37
X7.34Y-5.67
X7.36Y-2.53
X7.36Y-3.08
X7.36Y-6.33
X7.38Y-5.03
X7.41Y-6.91
X7.45Y-1.44
X7.45Y-1.71
X7.46Y-4.15
X7.51Y-1.58
X7.51Y-6.86
X7.52Y-5.55
X7.55Y-2.41
X7.57Y-4.09
X7.61Y-1.8656
X7.61Y-6.82
X7.62Y-5.51
X7.64Y-1.7
X7.67Y-4.04
X7.69Y-1.66
X7.71Y-2.41
X7.71Y-6.78
X7.74Y-1.58
X7.74Y-1.7
X7.77Y-3.99
X7.77Y-5.47
X7.81Y-6.74
X7.82Y-3.57
X7.82Y-4.3
X7.87Y-2.58
X7.87Y-2.83
X7.87Y-3.13
X7.87Y-3.94
X7.91Y-6.84
X7.92Y-2.68
X7.92Y-3.61
X7.92Y-5.47
X7.97Y-3.89
X7.99Y-1.03
X8.01Y-3.53
X8.01Y-4.36
X8.02Y-5.51
X8.07Y-3.84
X8.12Y-3.21
X8.12Y-4.26
X8.12Y-5.55
X8.16Y-7.06
X8.17Y-3.79
X8.21Y-2.32
X8.21Y-3.11
X8.23Y-4.15
X8.3Y-2.73
X8.3Y-4.04
X8.31Y-6.07
X8.32Y-4.65
X8.35Y-2.56
X8.36Y-7.01
X8.4Y-4.09
X8.41Y-6.12
X8.45Y-2.78
X8.45Y-3.94
X8.49Y-5.22
X8.5Y-2.63
X8.5Y-3.99
X8.51Y-6.17
X8.51Y-7.06
X8.55Y-3.89
X8.57Y-5.79
X8.61Y-6.22
X8.62Y-6.07
X8.65Y-1.62
X8.65Y-3.79
X8.66Y-6.33
X8.67Y-5.84
X8.7Y-1.51
X8.7Y-3.84
X8.71Y-6.27
X8.71Y-7.01
X8.72Y-6.12
X8.82Y-6.17
X8.87Y-6.27
X8.92Y-6.22
X8.93Y-2.2
X8.95Y-2.28
X8.97Y-1.88
X8.97Y-5.84
X8.98Y-2.08
X9.01Y-4.3
X9.01Y-5.79
X9.07Y-2.89
X9.11Y-2.8
X9.11Y-6.33
X9.17Y-1.78
X9.17Y-2.74
X9.21Y-1.98
X9.25Y-2.08
X9.26Y-3.16
X9.27Y-2.18
X9.31Y-3.11
X9.31Y-6.61
X9.35Y-2.74
X9.35Y-3.06
X9.36Y-7.2
X9.39Y-3.62
X9.41Y-7.05
X9.44Y-2.23
X9.44Y-2.38
X9.44Y-3.01
X9.44Y-3.56
X9.46Y-4.3
X9.47Y-6.51
X9.47Y-6.73
X9.48Y-3.41
X9.48Y-3.11
X9.52Y-2.28
X9.53Y-2.74
X9.53Y-3.46
X9.53Y-7.54
X9.56Y-2.03
X9.57Y-3.36
X9.57Y-3.75
X9.58Y-4.36
X9.58Y-7.68
X9.6Y-5.47
X9.6Y-5.99
X9.62Y-2.63
X9.62Y-3.56
X9.62Y-4.26
X9.66Y-5.4
X9.66Y-5.95
X9.67Y-1.67
X9.68Y-3.11
X9.68Y-2.04
X9.7Y-3.21
X9.7Y-3.84
X9.73Y-6.65
X9.75Y-3.26
X9.75Y-3.94
X9.77Y-2.13
X9.77Y-2.36
X9.8Y-3.31
X9.8Y-4.04
X9.87Y-3.36
X9.87Y-4.15
X9.9Y-7.61
X9.95Y-4.36
X9.95Y-5.6
X10.0Y-4.96
X10.0Y-6.2
X10.0Y-6.48
X10.01Y-2.62
X10.09Y-4.755
X10.09Y-6.0
X10.09Y-7.2
X10.09Y-7.29
X10.11Y-2.46
X10.16Y-2.5
X10.16Y-4.09
X10.19Y-1.29
X10.21Y-2.7
X10.21Y-3.99
X10.245Y-1.43
X10.26Y-2.66
X10.26Y-3.89
X10.26Y-4.86
X10.26Y-6.1
X10.28Y-7.21
X10.3Y-1.34
X10.31Y-2.41
X10.31Y-3.79
X10.355Y-1.39
X10.36Y-2.36
X10.36Y-3.36
X10.36Y-6.84
X10.4Y-6.69
X10.41Y-2.74
X10.455Y-4.96
X10.455Y-6.2
X10.46Y-3.11
X10.46Y-7.34
X10.51Y-3.31
X10.56Y-2.37
X10.635Y-4.46
X10.635Y-5.5
X10.635Y-5.7
X10.66Y-3.65
X10.71Y-5.26
X10.71Y-6.14
X10.7675Y-4.81
X10.768Y-5.322
X10.78Y-1.85
X10.83Y-1.95
X10.83Y-3.56
X10.88Y-3.21
X10.88Y-3.36
X10.955Y-6.25
X10.955Y-6.395
X10.965Y-4.71
X10.965Y-5.365
X10.965Y-5.95
X11.065Y-4.96
X11.065Y-6.2
X11.105Y-4.56
X11.105Y-5.435
X11.105Y-5.8
X11.11Y-1.29
X11.19Y-7.21
X11.19Y-7.34
X11.2Y-2.7
X11.2Y-3.4
X11.24Y-2.66
X11.24Y-3.44
X11.27Y-6.3
X11.29Y-3.49
X11.29Y-2.86
X11.29Y-3.75
X11.323Y-5.261
X11.33Y-2.37
X11.34Y-2.8
X11.34Y-3.35
X11.355Y-4.81
X11.355Y-4.96
X11.365Y-6.0525
X11.366Y-5.322
X11.4Y-4.71
X11.4Y-5.06
X11.43Y-3.31
X11.43Y-1.29
X11.44Y-7.61
X11.45Y-7.29
X11.53Y-1.85
X11.53Y-2.46
X11.58Y-1.34
X11.58Y-3.54
X11.58Y-4.29
X11.58Y-5.65
X11.58Y-5.94
X11.585Y-4.955
X11.585Y-5.105
X11.61Y-6.205
X11.61Y-6.0
X11.63Y-1.94
X11.63Y-4.46
X11.63Y-5.7
X11.6304Y-5.5754
X11.66Y-6.065
X11.66Y-6.25
X11.68Y-2.41
X11.715Y-5.995
X11.715Y-6.35
X11.73Y-2.62
X11.75Y-6.135
X11.75Y-6.48
X11.77Y-4.66
X11.7845Y-5.7155
X11.82Y-4.56
X11.82Y-5.645
X11.83Y-2.5
X11.84Y-1.29
X11.88Y-1.45
X11.98Y-1.49
X12.0Y-5.86
X12.0Y-6.1
X12.025Y-4.04
X12.025Y-4.315
X12.05Y-5.085
X12.05Y-6.17
X12.065Y-3.99
X12.065Y-4.385
X12.09Y-5.015
X12.09Y-6.425
X12.105Y-3.89
X12.105Y-4.455
X12.14Y-3.79
X12.14Y-4.525
X12.18Y-3.69
X12.18Y-4.595
X12.225Y-3.645
X12.225Y-4.665
X12.26Y-5.785
X12.26Y-6.925
X12.3Y-4.385
X12.3Y-3.49
X12.32Y-7.46
X12.37Y-4.09
X12.37Y-4.24
X12.37Y-7.36
X12.405Y-4.455
X12.41Y-1.42
X12.42Y-4.665
X12.42Y-7.26
X12.44Y-3.35
X12.465Y-5.4
X12.47Y-7.16
X12.49Y-4.24
X12.51Y-5.47
X12.5139Y-4.3139
X12.52Y-6.7
X12.53Y-6.88
X12.53Y-7.31
X12.55Y-3.33
X12.55Y-5.995
X12.63Y-2.16
X12.75Y-3.06
X12.75Y-4.735
X12.76Y-1.34
X12.795Y-2.69
X12.795Y-4.805
X12.81Y-2.05
X12.845Y-2.875
X12.845Y-4.875
X12.93Y-7.68
X13.0Y-2.1
X13.05Y-5.24
X13.13Y-3.4
X13.13Y-4.04
X13.13Y-7.41
X13.17Y-7.01
X13.176Y-4.384
X13.19Y-2.01
X13.2256Y-5.7856
X13.23Y-7.01
X13.27Y-3.44
X13.27Y-4.14
X13.27Y-7.51
X13.3Y-1.34
X13.32Y-4.455
X13.35Y-1.13
X13.42Y-0.9
X13.42Y-1.34
X13.435Y-7.06
X13.47Y-3.6
X13.47Y-4.24
X13.54Y-1.42
X13.7Y-1.67
X13.7Y-2.04
X13.77Y-6.58
X13.9Y-5.49
X13.9Y-6.46
X13.93Y-3.89
X13.93Y-4.34
X13.95Y-1.67
X13.97Y-3.39
X13.97Y-4.79
X13.97Y-5.39
X13.97Y-6.09
X14.0Y-2.22
X14.02Y-3.43
X14.02Y-4.89
X14.04Y-5.29
X14.05Y-5.73
X14.06Y-4.04
X14.06Y-4.99
X14.09Y-5.09
X14.1Y-3.84
X14.14Y-3.94
X14.14Y-4.69
X14.15Y-3.51
X14.15Y-3.79
X14.25Y-2.22
X14.34Y-4.59
X14.39Y-4.69
X14.42Y-5.19
X14.42Y-5.79
X14.54Y-2.54
X14.56Y-4.79
X14.58Y-1.83
X14.6Y-4.89
X14.62Y-1.92
X14.64Y-4.99
X14.64Y-5.55
X14.64Y-5.91
X14.64Y-6.27
X14.67Y-1.99
X14.7Y-4.35
X14.76Y-2.25
X14.81Y-2.4
X15.09Y-4.04
X15.1Y-4.27
X15.1Y-4.99
X15.15Y-4.37
X15.15Y-5.09
X15.2Y-3.71
X15.2Y-5.29
X15.39Y-4.49
X15.39Y-5.14
T2
X11.904Y-4.1738
X11.904Y-4.2439
X11.904Y-4.3139
X11.904Y-4.384
X11.904Y-4.4541
X11.904Y-4.5242
X11.904Y-4.5943
X11.904Y-4.6643
X11.904Y-4.7344
X11.904Y-4.8045
X11.904Y-4.8746
X11.904Y-4.9446
X11.904Y-5.0147
X11.904Y-5.0848
X11.904Y-5.1549
X11.904Y-5.225
X11.904Y-5.295
X11.904Y-5.3651
X11.904Y-5.4352
X11.904Y-5.5053
X11.904Y-5.5754
X11.904Y-5.6454
X11.904Y-5.7155
X11.904Y-5.7856
X11.904Y-5.8557
X11.904Y-5.9257
X11.904Y-5.9958
X11.904Y-6.0659
X11.904Y-6.136
X11.904Y-6.2061
X11.904Y-6.2761
X11.904Y-6.3462
X12.656Y-4.1738
X12.656Y-4.2439
X12.656Y-4.3139
X12.656Y-4.384
X12.656Y-4.4541
X12.656Y-4.5242
X12.656Y-4.5943
X12.656Y-4.6643
X12.656Y-4.7344
X12.656Y-4.8045
X12.656Y-4.8746
X12.656Y-4.9446
X12.656Y-5.0147
X12.656Y-5.0848
X12.656Y-5.1549
X12.656Y-5.225
X12.656Y-5.295
X12.656Y-5.3651
X12.656Y-5.4352
X12.656Y-5.5053
X12.656Y-5.5754
X12.656Y-5.6454
X12.656Y-5.7155
X12.656Y-5.7856
X12.656Y-5.8557
X12.656Y-5.9257
X12.656Y-5.9958
X12.656Y-6.0659
X12.656Y-6.136
X12.656Y-6.2061
X12.656Y-6.2761
X12.656Y-6.3462
T3
X9.96Y-1.52
X9.96Y-1.86
X10.01Y-1.57
X10.01Y-1.81
X10.06Y-1.52
X10.06Y-1.86
X11.395Y-7.1075
X11.395Y-7.4875
X11.445Y-7.1075
X11.445Y-7.4875
X11.495Y-7.1075
X11.495Y-7.4875
X11.8Y-3.1
X11.8Y-3.15
X11.8Y-3.2
X13.64Y-6.79
X13.64Y-7.08
X13.69Y-6.74
X13.69Y-7.13
X13.74Y-6.79
X13.74Y-7.08
T4
X1.06Y-2.099
X1.06Y-2.288
X1.06Y-2.47
X1.06Y-2.66
X1.13Y-3.69
X1.23Y-4.38
X1.23Y-4.78
X1.33Y-5.2716
X1.33Y-5.37
X1.39Y-6.29
X1.39Y-6.47
X1.39Y-6.66
X1.39Y-6.84
X1.39Y-7.03
X1.42Y-4.26
X1.42Y-4.91
X1.46Y-2.099
X1.46Y-2.288
X1.46Y-2.47
X1.46Y-2.66
X1.5184Y-4.26
X1.5184Y-4.91
X1.53Y-3.69
X1.53Y-5.25
X1.53Y-5.65
X1.7Y-4.26
X1.7Y-4.36
X1.7Y-4.46
X1.7Y-4.56
X1.7Y-4.66
X1.7Y-4.76
X1.7Y-4.86
X1.7Y-5.25
X1.7Y-5.35
X1.7Y-5.45
X1.7Y-5.55
X1.7Y-5.65
X1.7Y-5.75
X1.7Y-5.85
X1.79Y-6.29
X1.79Y-6.47
X1.79Y-6.66
X1.79Y-6.84
X1.79Y-7.03
X1.8016Y-6.0
X1.9Y-6.0
X1.9016Y-5.01
X2.0Y-4.26
X2.0Y-4.36
X2.0Y-4.46
X2.0Y-4.56
X2.0Y-4.66
X2.0Y-4.76
X2.0Y-4.86
X2.0Y-5.01
X2.0Y-5.25
X2.0Y-5.35
X2.0Y-5.45
X2.0Y-5.55
X2.0Y-5.65
X2.0Y-5.75
X2.0Y-5.85
X2.5Y-6.45
X2.5Y-6.64
X2.52Y-2.77
X2.55Y-2.95
X2.55Y-3.05
X2.55Y-3.15
X2.55Y-3.25
X2.55Y-3.35
X2.55Y-3.45
X2.55Y-3.55
X2.55Y-3.65
X2.55Y-3.75
X2.55Y-3.85
X2.55Y-4.27
X2.55Y-4.37
X2.55Y-4.47
X2.55Y-4.57
X2.55Y-4.67
X2.55Y-4.77
X2.55Y-4.87
X2.55Y-4.97
X2.55Y-5.07
X2.55Y-5.17
X2.55Y-5.27
X2.55Y-5.37
X2.55Y-5.47
X2.55Y-5.57
X2.55Y-5.67
X2.55Y-5.77
X2.55Y-5.87
X2.55Y-5.97
X2.55Y-6.07
X2.55Y-6.17
X2.6184Y-2.77
X2.635Y-1.19
X2.635Y-1.2884
X2.635Y-1.4416
X2.635Y-1.54
X2.675Y-1.79
X2.675Y-2.08
X2.675Y-2.37
X2.6916Y-7.36
X2.74Y-6.87
X2.74Y-6.97
X2.74Y-7.07
X2.74Y-7.17
X2.7734Y-1.79
X2.7734Y-2.08
X2.7734Y-2.37
X2.79Y-7.36
X2.7916Y-2.77
X2.835Y-1.19
X2.835Y-1.2884
X2.8365Y-1.4433
X2.8365Y-1.5417
X2.85Y-2.95
X2.85Y-3.05
X2.85Y-3.15
X2.85Y-3.25
X2.85Y-3.35
X2.85Y-3.45
X2.85Y-3.55
X2.85Y-3.65
X2.85Y-3.75
X2.85Y-3.85
X2.89Y-2.77
X2.9Y-6.45
X2.9Y-6.64
X2.9916Y-7.36
X3.04Y-6.64
X3.04Y-6.87
X3.04Y-6.97
X3.04Y-7.07
X3.04Y-7.17
X3.0516Y-6.32
X3.09Y-7.36
X3.15Y-4.27
X3.15Y-4.37
X3.15Y-4.47
X3.15Y-4.57
X3.15Y-4.67
X3.15Y-4.77
X3.15Y-4.87
X3.15Y-4.97
X3.15Y-5.07
X3.15Y-5.17
X3.15Y-5.27
X3.15Y-5.37
X3.15Y-5.47
X3.15Y-5.57
X3.15Y-5.67
X3.15Y-5.77
X3.15Y-5.87
X3.15Y-5.97
X3.15Y-6.07
X3.15Y-6.17
X3.15Y-6.32
X3.22Y-6.97
X3.2216Y-7.3
X3.3184Y-6.97
X3.32Y-7.3
X3.39Y-2.54
X3.39Y-2.6384
X3.39Y-2.9
X3.39Y-3.0
X3.39Y-3.1
X3.39Y-3.2
X3.39Y-3.3
X3.39Y-3.4
X3.39Y-3.5
X3.39Y-3.6
X3.39Y-3.7
X3.44Y-6.07
X3.44Y-6.1684
X3.44Y-6.64
X3.45Y-3.9616
X3.45Y-4.06
X3.59Y-2.5
X3.59Y-2.6
X3.59Y-2.7
X3.59Y-2.8
X3.59Y-2.9
X3.59Y-3.0
X3.59Y-3.1
X3.59Y-3.3
X3.59Y-3.4
X3.59Y-3.5
X3.59Y-3.6
X3.59Y-3.7
X3.59Y-3.8
X3.59Y-3.9
X3.61Y-4.57
X3.61Y-4.67
X3.61Y-4.77
X3.61Y-4.87
X3.61Y-4.97
X3.61Y-5.07
X3.61Y-5.17
X3.61Y-5.27
X3.61Y-5.37
X3.61Y-5.47
X3.61Y-5.57
X3.61Y-5.67
X3.61Y-5.77
X3.61Y-5.87
X3.61Y-5.97
X3.61Y-6.07
X3.79Y-6.4
X3.79Y-6.5
X3.79Y-6.6
X3.79Y-6.7
X3.79Y-6.8
X3.79Y-6.9
X3.79Y-7.0
X3.79Y-7.1
X3.79Y-7.2
X3.79Y-7.3
X3.89Y-2.5
X3.89Y-2.6
X3.89Y-2.7
X3.89Y-2.8
X3.89Y-2.9
X3.89Y-3.0
X3.89Y-3.1
X3.89Y-3.3
X3.89Y-3.4
X3.89Y-3.5
X3.89Y-3.6
X3.89Y-3.7
X3.89Y-3.8
X3.89Y-3.9
X3.89Y-7.48
X3.9884Y-7.48
X4.04Y-1.8216
X4.04Y-1.92
X4.09Y-6.4
X4.09Y-6.5
X4.09Y-6.6
X4.09Y-6.7
X4.09Y-6.8
X4.09Y-6.9
X4.09Y-7.0
X4.09Y-7.1
X4.09Y-7.2
X4.09Y-7.3
X4.18Y-1.72
X4.18Y-2.02
X4.21Y-4.57
X4.21Y-4.67
X4.21Y-4.77
X4.21Y-4.87
X4.21Y-4.97
X4.21Y-5.07
X4.21Y-5.17
X4.21Y-5.27
X4.21Y-5.37
X4.21Y-5.47
X4.21Y-5.57
X4.21Y-5.67
X4.21Y-5.77
X4.21Y-5.87
X4.21Y-5.97
X4.21Y-6.07
X4.26Y-4.16
X4.26Y-4.2584
X4.28Y-1.72
X4.28Y-2.02
X4.34Y-6.7
X4.34Y-6.8
X4.34Y-6.9
X4.34Y-7.0
X4.34Y-7.1
X4.34Y-7.2
X4.34Y-7.3
X4.38Y-1.72
X4.38Y-2.02
X4.38Y-2.7
X4.38Y-2.8
X4.38Y-2.9
X4.38Y-3.0
X4.38Y-3.1
X4.38Y-3.2
X4.38Y-3.3
X4.39Y-3.66
X4.39Y-3.76
X4.39Y-3.86
X4.39Y-3.96
X4.39Y-4.06
X4.39Y-4.16
X4.39Y-4.26
X4.45Y-7.48
X4.48Y-1.72
X4.48Y-2.02
X4.5484Y-7.48
X4.58Y-1.72
X4.58Y-2.02
X4.64Y-6.7
X4.64Y-6.8
X4.64Y-6.9
X4.64Y-7.0
X4.64Y-7.1
X4.64Y-7.2
X4.64Y-7.3
X4.68Y-1.72
X4.68Y-2.02
X4.68Y-2.7
X4.68Y-2.8
X4.68Y-2.9
X4.68Y-3.0
X4.68Y-3.1
X4.68Y-3.2
X4.68Y-3.3
X4.69Y-3.66
X4.69Y-3.76
X4.69Y-3.86
X4.69Y-3.96
X4.69Y-4.06
X4.69Y-4.16
X4.69Y-4.26
X4.69Y-4.77
X4.69Y-4.87
X4.69Y-4.97
X4.69Y-5.07
X4.69Y-5.17
X4.69Y-5.27
X4.69Y-5.37
X4.69Y-5.47
X4.69Y-5.57
X4.69Y-5.67
X4.69Y-5.77
X4.69Y-5.87
X4.69Y-5.97
X4.69Y-6.07
X4.78Y-1.72
X4.78Y-2.02
X4.88Y-1.72
X4.88Y-2.02
X4.9Y-6.7
X4.9Y-6.8
X4.9Y-6.9
X4.9Y-7.0
X4.9Y-7.1
X4.9Y-7.2
X4.9Y-7.3
X4.9216Y-6.25
X4.98Y-1.72
X4.98Y-2.02
X5.01Y-7.48
X5.02Y-6.25
X5.08Y-1.72
X5.08Y-2.02
X5.08Y-2.6
X5.08Y-2.7
X5.08Y-2.8
X5.08Y-2.9
X5.08Y-3.0
X5.08Y-3.1
X5.08Y-3.2
X5.08Y-3.3
X5.1084Y-7.48
X5.15Y-1.57
X5.2Y-6.7
X5.2Y-6.8
X5.2Y-6.9
X5.2Y-7.0
X5.2Y-7.1
X5.2Y-7.2
X5.2Y-7.3
X5.2484Y-1.57
X5.29Y-4.77
X5.29Y-4.87
X5.29Y-4.97
X5.29Y-5.07
X5.29Y-5.17
X5.29Y-5.27
X5.29Y-5.37
X5.29Y-5.47
X5.29Y-5.57
X5.29Y-5.67
X5.29Y-5.77
X5.29Y-5.87
X5.29Y-5.97
X5.29Y-6.07
X5.32Y-1.72
X5.32Y-2.02
X5.38Y-2.6
X5.38Y-2.7
X5.38Y-2.8
X5.38Y-2.9
X5.38Y-3.0
X5.38Y-3.1
X5.38Y-3.2
X5.38Y-3.3
X5.42Y-1.72
X5.42Y-2.02
X5.47Y-6.7
X5.47Y-6.8
X5.47Y-6.9
X5.47Y-7.0
X5.47Y-7.1
X5.47Y-7.2
X5.47Y-7.3
X5.52Y-1.72
X5.52Y-2.02
X5.52Y-2.6016
X5.52Y-2.7
X5.57Y-7.48
X5.62Y-1.72
X5.62Y-2.02
X5.6416Y-4.72
X5.6684Y-7.48
X5.72Y-1.72
X5.72Y-2.02
X5.74Y-4.72
X5.75Y-2.6
X5.75Y-2.7
X5.75Y-2.8
X5.75Y-2.9
X5.75Y-3.0
X5.75Y-3.1
X5.75Y-3.2
X5.75Y-3.3
X5.75Y-3.66
X5.75Y-3.76
X5.75Y-3.86
X5.75Y-3.96
X5.75Y-4.06
X5.75Y-4.16
X5.75Y-4.26
X5.75Y-4.36
X5.75Y-4.46
X5.75Y-4.56
X5.75Y-4.97
X5.75Y-5.07
X5.75Y-5.17
X5.75Y-5.27
X5.75Y-5.37
X5.75Y-5.47
X5.75Y-5.57
X5.75Y-5.67
X5.77Y-6.7
X5.77Y-6.8
X5.77Y-6.9
X5.77Y-7.0
X5.77Y-7.1
X5.77Y-7.2
X5.77Y-7.3
X5.82Y-1.72
X5.82Y-2.02
X5.8616Y-5.86
X5.92Y-1.72
X5.92Y-2.02
X5.96Y-5.86
X6.0Y-6.7
X6.0Y-6.8
X6.0Y-6.9
X6.0Y-7.0
X6.0Y-7.1
X6.0Y-7.2
X6.0Y-7.3
X6.02Y-1.72
X6.02Y-2.02
X6.05Y-2.6
X6.05Y-2.7
X6.05Y-2.8
X6.05Y-2.9
X6.05Y-3.0
X6.05Y-3.1
X6.05Y-3.2
X6.05Y-3.3
X6.05Y-3.66
X6.05Y-3.76
X6.05Y-3.86
X6.05Y-3.96
X6.05Y-4.06
X6.05Y-4.16
X6.05Y-4.26
X6.05Y-4.36
X6.05Y-4.46
X6.05Y-4.56
X6.05Y-4.97
X6.05Y-5.07
X6.05Y-5.17
X6.05Y-5.27
X6.05Y-5.37
X6.05Y-5.47
X6.05Y-5.57
X6.05Y-5.67
X6.12Y-1.72
X6.12Y-2.02
X6.1216Y-7.48
X6.2Y-2.6
X6.2Y-2.6984
X6.22Y-1.72
X6.22Y-2.02
X6.22Y-7.48
X6.3Y-6.7
X6.3Y-6.8
X6.3Y-6.9
X6.3Y-7.0
X6.3Y-7.1
X6.3Y-7.2
X6.3Y-7.3
X6.37Y-1.6116
X6.37Y-1.71
X6.48Y-2.7
X6.48Y-2.8
X6.48Y-2.9
X6.48Y-3.0
X6.48Y-3.1
X6.48Y-3.2
X6.48Y-3.3
X6.48Y-3.4
X6.48Y-3.66
X6.48Y-3.76
X6.48Y-3.86
X6.48Y-3.96
X6.48Y-4.06
X6.48Y-4.16
X6.48Y-4.26
X6.48Y-4.36
X6.48Y-4.46
X6.48Y-4.56
X6.48Y-4.97
X6.48Y-5.07
X6.48Y-5.17
X6.48Y-5.27
X6.48Y-5.37
X6.48Y-5.47
X6.48Y-5.57
X6.48Y-5.67
X6.5016Y-4.71
X6.6Y-4.71
X6.61Y-1.29
X6.64Y-2.23
X6.7084Y-1.29
X6.74Y-2.23
X6.7616Y-4.71
X6.78Y-2.7
X6.78Y-2.8
X6.78Y-2.9
X6.78Y-3.0
X6.78Y-3.1
X6.78Y-3.2
X6.78Y-3.3
X6.78Y-3.4
X6.78Y-3.66
X6.78Y-3.76
X6.78Y-3.86
X6.78Y-3.96
X6.78Y-4.06
X6.78Y-4.16
X6.78Y-4.26
X6.78Y-4.36
X6.78Y-4.46
X6.78Y-4.56
X6.78Y-4.97
X6.78Y-5.07
X6.78Y-5.17
X6.78Y-5.27
X6.78Y-5.37
X6.78Y-5.47
X6.78Y-5.57
X6.78Y-5.67
X6.84Y-2.23
X6.86Y-4.71
X6.94Y-2.23
X7.04Y-2.23
X7.09Y-2.54
X7.09Y-2.64
X7.09Y-2.74
X7.09Y-2.84
X7.09Y-2.94
X7.09Y-3.04
X7.11Y-6.22
X7.11Y-6.65
X7.11Y-7.25
X7.14Y-2.23
X7.21Y-6.22
X7.21Y-6.65
X7.21Y-7.25
X7.27Y-2.53
X7.27Y-2.63
X7.27Y-2.73
X7.27Y-2.83
X7.27Y-2.93
X7.27Y-3.03
X7.27Y-3.13
X7.31Y-2.23
X7.31Y-6.22
X7.31Y-6.65
X7.31Y-7.25
X7.37Y-3.29
X7.41Y-2.23
X7.41Y-6.22
X7.41Y-6.65
X7.41Y-7.25
X7.4684Y-3.29
X7.51Y-2.23
X7.51Y-6.22
X7.51Y-6.65
X7.51Y-7.25
X7.52Y-4.79
X7.52Y-5.09
X7.57Y-2.53
X7.57Y-2.63
X7.57Y-2.73
X7.57Y-2.83
X7.57Y-2.93
X7.57Y-3.03
X7.57Y-3.13
X7.61Y-2.23
X7.61Y-6.22
X7.61Y-6.65
X7.61Y-7.25
X7.62Y-4.79
X7.62Y-5.09
X7.71Y-2.23
X7.71Y-6.22
X7.71Y-6.65
X7.71Y-7.25
X7.72Y-4.79
X7.72Y-5.09
X7.72Y-5.37
X7.72Y-5.67
X7.81Y-2.23
X7.81Y-6.22
X7.81Y-6.65
X7.81Y-7.25
X7.82Y-4.79
X7.82Y-5.09
X7.82Y-5.37
X7.82Y-5.67
X7.91Y-6.22
X7.91Y-6.65
X7.91Y-7.25
X7.92Y-4.79
X7.92Y-5.09
X7.92Y-5.37
X7.92Y-5.67
X7.94Y-7.46
X8.0Y-2.17
X8.0Y-2.42
X8.01Y-6.65
X8.01Y-7.25
X8.02Y-4.79
X8.02Y-5.09
X8.02Y-5.37
X8.02Y-5.67
X8.0984Y-2.17
X8.0984Y-2.42
X8.11Y-6.65
X8.11Y-7.25
X8.12Y-4.79
X8.12Y-5.09
X8.12Y-5.37
X8.12Y-5.67
X8.21Y-6.65
X8.21Y-7.25
X8.22Y-4.79
X8.22Y-5.09
X8.22Y-5.37
X8.22Y-5.67
X8.3Y-2.96
X8.3Y-3.06
X8.3Y-3.16
X8.3Y-3.26
X8.3Y-3.36
X8.3Y-3.46
X8.3016Y-1.53
X8.31Y-6.65
X8.31Y-7.25
X8.32Y-4.79
X8.32Y-5.09
X8.32Y-5.37
X8.32Y-5.67
X8.34Y-7.46
X8.4Y-1.53
X8.4Y-2.86
X8.4Y-2.96
X8.4Y-3.06
X8.4Y-3.16
X8.4Y-3.26
X8.4Y-3.36
X8.4Y-3.46
X8.4Y-3.56
X8.41Y-6.65
X8.41Y-7.25
X8.42Y-4.79
X8.42Y-5.09
X8.42Y-5.37
X8.42Y-5.67
X8.5Y-2.86
X8.5Y-2.96
X8.5Y-3.46
X8.5Y-3.56
X8.51Y-6.65
X8.51Y-7.25
X8.52Y-5.37
X8.52Y-5.67
X8.55Y-7.4416
X8.55Y-7.54
X8.5616Y-5.09
X8.6Y-2.86
X8.6Y-2.96
X8.6Y-3.46
X8.6Y-3.56
X8.61Y-6.65
X8.61Y-7.25
X8.62Y-5.37
X8.62Y-5.67
X8.66Y-5.09
X8.7Y-2.86
X8.7Y-2.96
X8.7Y-3.46
X8.7Y-3.56
X8.71Y-6.65
X8.71Y-7.25
X8.72Y-5.37
X8.72Y-5.67
X8.7216Y-2.64
X8.8Y-2.86
X8.8Y-2.96
X8.8Y-3.46
X8.8Y-3.56
X8.81Y-6.65
X8.81Y-7.25
X8.82Y-2.64
X8.82Y-5.37
X8.82Y-5.67
X8.84Y-1.78
X8.84Y-1.88
X8.84Y-1.98
X8.84Y-2.08
X8.84Y-2.18
X8.84Y-2.28
X8.9Y-2.86
X8.9Y-2.96
X8.9Y-3.06
X8.9Y-3.16
X8.9Y-3.26
X8.9Y-3.36
X8.9Y-3.46
X8.9Y-3.56
X8.91Y-6.65
X8.91Y-7.25
X8.92Y-5.37
X8.92Y-5.67
X8.9216Y-5.21
X9.0Y-2.96
X9.0Y-3.06
X9.0Y-3.16
X9.0Y-3.26
X9.0Y-3.36
X9.0Y-3.46
X9.01Y-6.65
X9.01Y-7.25
X9.02Y-5.21
X9.02Y-5.37
X9.02Y-5.67
X9.05Y-1.78
X9.05Y-1.88
X9.05Y-1.98
X9.05Y-2.08
X9.05Y-2.18
X9.05Y-2.28
X9.05Y-2.38
X9.16Y-6.66
X9.16Y-6.7584
X9.16Y-6.9516
X9.16Y-7.05
X9.2Y-7.4416
X9.2Y-7.54
X9.21Y-2.85
X9.21Y-2.9484
X9.35Y-1.78
X9.35Y-1.88
X9.35Y-1.98
X9.35Y-2.08
X9.35Y-2.18
X9.35Y-2.28
X9.35Y-2.38
X9.3616Y-2.53
X9.46Y-2.53
X9.62Y-2.53
X9.8Y-2.82
X9.8Y-2.9184
X9.87Y-4.36
X9.87Y-4.46
X9.87Y-4.56
X9.87Y-4.66
X9.87Y-4.76
X9.87Y-4.86
X9.87Y-4.96
X9.87Y-5.06
X9.87Y-5.16
X9.875Y-5.6
X9.875Y-5.7
X9.875Y-5.8
X9.875Y-5.9
X9.875Y-6.0
X9.875Y-6.1
X9.875Y-6.2
X9.875Y-6.3
X9.875Y-6.4
X9.9Y-7.05
X9.9Y-7.45
X9.97Y-2.22
X9.97Y-4.215
X10.01Y-2.96
X10.01Y-3.06
X10.01Y-3.16
X10.01Y-3.26
X10.01Y-3.36
X10.01Y-3.46
X10.02Y-2.53
X10.0684Y-2.22
X10.0684Y-4.215
X10.09Y-7.05
X10.09Y-7.45
X10.11Y-2.86
X10.11Y-2.96
X10.11Y-3.06
X10.11Y-3.16
X10.11Y-3.26
X10.11Y-3.36
X10.11Y-3.46
X10.11Y-3.56
X10.17Y-4.36
X10.17Y-4.46
X10.17Y-4.56
X10.17Y-4.66
X10.17Y-4.76
X10.17Y-4.86
X10.17Y-4.96
X10.17Y-5.06
X10.17Y-5.16
X10.175Y-5.6
X10.175Y-5.7
X10.175Y-5.8
X10.175Y-5.9
X10.175Y-6.0
X10.175Y-6.1
X10.175Y-6.2
X10.175Y-6.3
X10.175Y-6.4
X10.175Y-6.54
X10.21Y-2.86
X10.21Y-2.96
X10.21Y-3.46
X10.21Y-3.56
X10.27Y-1.67
X10.27Y-1.85
X10.27Y-2.04
X10.27Y-2.22
X10.2734Y-6.54
X10.28Y-7.06
X10.28Y-7.46
X10.31Y-2.86
X10.31Y-2.96
X10.31Y-3.46
X10.31Y-3.56
X10.41Y-2.86
X10.41Y-2.96
X10.41Y-3.46
X10.41Y-3.56
X10.46Y-7.06
X10.46Y-7.46
X10.51Y-2.86
X10.51Y-2.96
X10.51Y-3.46
X10.51Y-3.56
X10.55Y-4.36
X10.55Y-4.46
X10.55Y-4.56
X10.55Y-4.66
X10.55Y-4.76
X10.55Y-4.86
X10.55Y-4.96
X10.55Y-5.06
X10.55Y-5.16
X10.555Y-5.6
X10.555Y-5.7
X10.555Y-5.8
X10.555Y-5.9
X10.555Y-6.0
X10.555Y-6.1
X10.555Y-6.2
X10.555Y-6.3
X10.555Y-6.4
X10.61Y-2.86
X10.61Y-2.96
X10.61Y-3.06
X10.61Y-3.16
X10.61Y-3.26
X10.61Y-3.36
X10.61Y-3.46
X10.61Y-3.56
X10.635Y-4.21
X10.65Y-7.06
X10.65Y-7.46
X10.67Y-1.67
X10.67Y-1.85
X10.67Y-2.04
X10.67Y-2.22
X10.71Y-2.96
X10.71Y-3.06
X10.71Y-3.16
X10.71Y-3.26
X10.71Y-3.36
X10.71Y-3.46
X10.7334Y-4.21
X10.84Y-7.06
X10.84Y-7.46
X10.85Y-4.36
X10.85Y-4.46
X10.85Y-4.56
X10.85Y-4.66
X10.85Y-4.76
X10.85Y-4.86
X10.85Y-4.96
X10.85Y-5.06
X10.85Y-5.16
X10.855Y-5.6
X10.855Y-5.7
X10.855Y-5.8
X10.855Y-5.9
X10.855Y-6.0
X10.855Y-6.1
X10.855Y-6.2
X10.855Y-6.3
X10.855Y-6.4
X10.865Y-6.54
X10.93Y-1.735
X10.93Y-2.035
X10.93Y-2.25
X10.9316Y-1.51
X10.9541Y-3.6525
X10.9575Y-2.9775
X10.9634Y-6.54
X11.0284Y-2.25
X11.03Y-1.51
X11.03Y-1.735
X11.03Y-2.035
X11.0525Y-3.6525
X11.0559Y-2.9775
X11.1116Y-6.54
X11.13Y-1.735
X11.13Y-2.035
X11.17Y-2.25
X11.18Y-1.51
X11.18Y-4.36
X11.18Y-4.46
X11.18Y-4.56
X11.18Y-4.66
X11.18Y-4.76
X11.18Y-4.86
X11.18Y-4.96
X11.18Y-5.06
X11.18Y-5.16
X11.185Y-5.6
X11.185Y-5.7
X11.185Y-5.8
X11.185Y-5.9
X11.185Y-6.0
X11.185Y-6.1
X11.185Y-6.2
X11.185Y-6.3
X11.185Y-6.4
X11.21Y-6.54
X11.23Y-1.735
X11.23Y-2.035
X11.2684Y-2.25
X11.275Y-4.22
X11.2784Y-1.51
X11.33Y-1.735
X11.33Y-2.035
X11.3734Y-4.22
X11.43Y-1.735
X11.43Y-2.035
X11.48Y-4.36
X11.48Y-4.46
X11.48Y-4.56
X11.48Y-4.66
X11.48Y-4.76
X11.48Y-4.86
X11.48Y-4.96
X11.48Y-5.06
X11.48Y-5.16
X11.485Y-5.6
X11.485Y-5.7
X11.485Y-5.8
X11.485Y-5.9
X11.485Y-6.0
X11.485Y-6.1
X11.485Y-6.2
X11.485Y-6.3
X11.485Y-6.4
X11.4925Y-6.6016
X11.4925Y-6.7
X11.53Y-1.735
X11.53Y-2.035
X11.63Y-1.735
X11.63Y-2.035
X11.72Y-4.2316
X11.72Y-4.33
X11.73Y-1.735
X11.73Y-2.035
X11.83Y-1.735
X11.83Y-2.035
X11.93Y-1.735
X11.93Y-2.035
X11.9316Y-2.17
X12.01Y-2.69
X12.01Y-3.06
X12.01Y-3.24
X12.03Y-1.735
X12.03Y-2.035
X12.03Y-2.17
X12.1084Y-2.69
X12.12Y-6.605
X12.12Y-6.7034
X12.3766Y-2.68
X12.41Y-1.6216
X12.41Y-1.72
X12.41Y-3.06
X12.41Y-3.24
X12.45Y-1.91
X12.45Y-2.31
X12.475Y-2.68
X12.615Y-2.69
X12.615Y-2.875
X12.615Y-3.06
X12.615Y-3.245
X12.63Y-1.91
X12.63Y-2.31
X12.71Y-1.6266
X12.71Y-1.725
X12.81Y-1.91
X12.81Y-2.31
X12.82Y-6.25
X12.82Y-6.3484
X12.94Y-4.525
X12.94Y-4.925
X12.94Y-5.0416
X12.94Y-5.14
X12.94Y-5.6675
X12.94Y-6.0675
X13.0Y-1.6266
X13.0Y-1.725
X13.0Y-1.91
X13.0Y-2.31
X13.015Y-2.69
X13.015Y-2.875
X13.015Y-3.06
X13.015Y-3.245
X13.05Y-6.71
X13.05Y-6.81
X13.05Y-6.91
X13.05Y-7.01
X13.05Y-7.11
X13.05Y-7.21
X13.05Y-7.31
X13.05Y-7.41
X13.05Y-7.51
X13.15Y-2.69
X13.15Y-2.875
X13.15Y-3.06
X13.15Y-3.245
X13.1616Y-7.65
X13.19Y-1.91
X13.19Y-2.31
X13.2484Y-2.69
X13.2484Y-2.875
X13.2484Y-3.06
X13.2484Y-3.245
X13.26Y-7.65
X13.295Y-1.6266
X13.295Y-1.725
X13.35Y-6.71
X13.35Y-6.81
X13.35Y-6.91
X13.35Y-7.01
X13.35Y-7.11
X13.35Y-7.21
X13.35Y-7.31
X13.35Y-7.41
X13.35Y-7.51
X13.38Y-1.91
X13.38Y-2.31
X13.45Y-4.59
X13.45Y-4.69
X13.45Y-4.79
X13.45Y-4.89
X13.45Y-4.99
X13.45Y-5.09
X13.52Y-7.4116
X13.52Y-7.51
X13.56Y-3.46
X13.64Y-3.0116
X13.64Y-3.11
X13.65Y-1.51
X13.6584Y-3.46
X13.66Y-3.59
X13.66Y-3.69
X13.66Y-3.79
X13.66Y-3.89
X13.66Y-3.99
X13.66Y-4.09
X13.66Y-4.19
X13.66Y-4.29
X13.66Y-4.39
X13.66Y-4.49
X13.66Y-4.59
X13.66Y-4.69
X13.66Y-4.79
X13.66Y-4.89
X13.66Y-4.99
X13.66Y-5.09
X13.66Y-5.19
X13.66Y-5.29
X13.66Y-5.39
X13.66Y-5.49
X13.67Y-2.515
X13.67Y-2.815
X13.75Y-3.3
X13.77Y-2.515
X13.77Y-2.815
X13.87Y-2.515
X13.87Y-2.815
X13.93Y-6.74
X13.93Y-7.14
X13.97Y-2.515
X13.97Y-2.815
X13.97Y-6.58
X14.05Y-1.51
X14.07Y-2.515
X14.07Y-2.815
X14.0766Y-6.33
X14.1Y-6.74
X14.1Y-7.14
X14.15Y-3.3
X14.1616Y-5.64
X14.17Y-2.515
X14.17Y-2.815
X14.175Y-6.33
X14.18Y-1.51
X14.26Y-3.59
X14.26Y-3.69
X14.26Y-3.79
X14.26Y-3.89
X14.26Y-3.99
X14.26Y-4.09
X14.26Y-4.19
X14.26Y-4.29
X14.26Y-4.39
X14.26Y-4.49
X14.26Y-4.59
X14.26Y-4.69
X14.26Y-4.79
X14.26Y-4.89
X14.26Y-4.99
X14.26Y-5.09
X14.26Y-5.19
X14.26Y-5.29
X14.26Y-5.39
X14.26Y-5.49
X14.26Y-5.64
X14.26Y-6.74
X14.26Y-7.14
X14.27Y-2.515
X14.27Y-2.815
X14.27Y-3.01
X14.27Y-3.1084
X14.27Y-3.3
X14.27Y-6.58
X14.2784Y-1.51
X14.4Y-1.7416
X14.4Y-1.84
X14.4Y-1.99
X14.4Y-2.0884
X14.44Y-2.615
X14.44Y-2.7134
X14.47Y-4.49
X14.47Y-4.59
X14.47Y-4.69
X14.47Y-4.79
X14.47Y-4.89
X14.47Y-4.99
X14.54Y-6.27
X14.55Y-5.55
X14.55Y-5.73
X14.55Y-5.91
X14.55Y-6.09
X14.55Y-6.46
X14.67Y-3.3
X14.81Y-4.4216
X14.81Y-4.52
X14.81Y-4.6716
X14.81Y-4.77
X14.85Y-4.1716
X14.85Y-4.27
X14.94Y-6.27
X14.95Y-5.55
X14.95Y-5.73
X14.95Y-5.91
X14.95Y-6.09
X14.95Y-6.46
X14.98Y-3.06
X14.98Y-3.2
X14.98Y-3.34
X14.98Y-3.49
X14.98Y-3.64
X14.98Y-3.79
X14.98Y-3.93
X14.99Y-1.69
X14.99Y-1.83
X14.99Y-1.97
X14.99Y-2.11
X14.99Y-2.25
X14.99Y-2.4
X14.99Y-2.54
X15.01Y-1.355
X15.01Y-4.17
X15.01Y-4.27
X15.01Y-4.37
X15.01Y-4.47
X15.01Y-4.99
X15.01Y-5.09
X15.01Y-5.19
X15.01Y-5.29
X15.11Y-1.155
X15.165Y-5.5816
X15.165Y-5.68
X15.165Y-5.93
X15.165Y-6.0284
X15.165Y-6.29
X15.165Y-6.3884
X15.21Y-1.355
X15.31Y-4.17
X15.31Y-4.27
X15.31Y-4.37
X15.31Y-4.47
X15.31Y-4.99
X15.31Y-5.09
X15.31Y-5.19
X15.31Y-5.29
X15.38Y-3.06
X15.38Y-3.2
X15.38Y-3.34
X15.38Y-3.49
X15.38Y-3.64
X15.38Y-3.79
X15.38Y-3.93
X15.39Y-1.69
X15.39Y-1.83
X15.39Y-1.97
X15.39Y-2.11
X15.39Y-2.25
X15.39Y-2.4
X15.39Y-2.54
X15.47Y-4.27
X15.47Y-4.3684
X15.47Y-4.51
X15.47Y-4.6084
X15.48Y-4.9816
X15.48Y-5.08
X15.48Y-5.23
X15.48Y-5.3284
X15.67Y-4.12
X15.67Y-4.52
T5
X1.38Y-7.3
X1.38Y-7.4
X1.7007Y-2.29
X1.74Y-7.3
X1.74Y-7.4
X1.8007Y-2.29
X1.996Y-2.29
X2.096Y-2.29
X2.2913Y-2.29
X2.3913Y-2.29
X9.6644Y-1.52
X9.6644Y-1.88
X9.7644Y-1.52
X9.7644Y-1.88
X11.09Y-7.0875
X11.09Y-7.4775
X11.19Y-7.0875
X11.19Y-7.4775
T6
X12.7619Y-1.13
X12.7619Y-1.228
X12.8426Y-1.13
X12.8619Y-1.228
X12.945Y-1.13
X12.945Y-1.228
X13.0257Y-1.13
X13.0257Y-1.228
T7
X1.2Y-2.88
X1.3Y-2.88
X2.37Y-6.87
X2.37Y-6.97
X3.06Y-1.0
X3.06Y-1.2
X3.16Y-1.0
X3.16Y-1.2
X3.26Y-1.0
X3.26Y-1.2
X3.36Y-1.0
X3.36Y-1.2
X3.46Y-1.0
X3.46Y-1.2
X3.56Y-1.0
X3.56Y-1.2
X3.66Y-1.0
X3.66Y-1.2
X3.76Y-1.0
X3.76Y-1.2
X3.86Y-1.0
X3.86Y-1.2
X3.96Y-1.0
X3.96Y-1.2
X4.06Y-1.0
X4.06Y-1.2
X4.16Y-1.0
X4.16Y-1.2
X4.26Y-1.0
X4.26Y-1.2
X4.36Y-1.0
X4.36Y-1.2
X4.46Y-1.0
X4.46Y-1.2
X4.56Y-1.0
X4.56Y-1.2
X4.66Y-1.0
X4.66Y-1.2
X4.76Y-1.0
X4.76Y-1.2
X4.86Y-1.0
X4.86Y-1.2
X4.96Y-1.0
X4.96Y-1.2
X5.06Y-1.0
X5.06Y-1.2
X5.16Y-1.0
X5.16Y-1.2
X5.26Y-1.0
X5.26Y-1.2
X5.36Y-1.0
X5.36Y-1.2
X5.46Y-1.0
X5.46Y-1.2
X5.56Y-1.0
X5.56Y-1.2
X5.66Y-1.0
X5.66Y-1.2
X5.76Y-1.0
X5.76Y-1.2
X5.86Y-1.0
X5.86Y-1.2
X5.96Y-1.0
X5.96Y-1.2
X6.06Y-1.0
X6.06Y-1.2
X6.16Y-1.0
X6.16Y-1.2
X6.41Y-5.91
X6.51Y-5.91
X6.61Y-5.91
X6.71Y-5.91
X6.81Y-5.91
X6.91Y-5.91
X7.01Y-5.91
X7.11Y-5.91
X7.21Y-5.91
X7.31Y-5.91
X7.41Y-5.91
X7.51Y-5.91
X7.61Y-5.91
X7.71Y-5.91
X7.77Y-2.53
X7.77Y-2.63
X7.77Y-2.73
X7.77Y-2.83
X7.77Y-2.93
X7.77Y-3.03
X7.81Y-5.91
X7.91Y-5.91
X8.01Y-5.91
X8.11Y-5.91
X8.21Y-5.91
X8.31Y-5.91
X10.0288Y-1.12
X10.0833Y-1.0082
X10.1378Y-1.12
X10.1924Y-1.0082
X10.2469Y-1.12
X10.3014Y-1.0082
X10.3559Y-1.12
X10.4105Y-1.0082
X10.465Y-1.12
X10.54Y-6.85
X10.64Y-6.85
X10.89Y-6.85
X10.99Y-6.85
X11.5138Y-1.12
X11.5683Y-1.0082
X11.6228Y-1.12
X11.6774Y-1.0082
X11.7319Y-1.12
X11.7864Y-1.0082
X11.8409Y-1.12
X11.8955Y-1.0082
X11.95Y-1.12
X15.626Y-3.1868
X15.626Y-3.2958
X15.626Y-3.4049
X15.626Y-3.5139
X15.626Y-3.623
X15.635Y-1.8018
X15.635Y-1.9108
X15.635Y-2.0199
X15.635Y-2.1289
X15.635Y-2.238
X15.7378Y-3.2413
X15.7378Y-3.3504
X15.7378Y-3.4594
X15.7378Y-3.5685
X15.7468Y-1.8563
X15.7468Y-1.9654
X15.7468Y-2.0744
X15.7468Y-2.1835
T8
X1.19Y-3.3028
X1.19Y-3.48
X1.4459Y-3.3028
X1.4459Y-3.48
X2.25Y-7.24
X2.25Y-7.4172
X2.5059Y-7.24
X2.5059Y-7.4172
X8.35Y-1.71
X8.45Y-1.71
X8.55Y-1.71
T9
X1.7594Y-1.7689
X1.9562Y-1.7689
X2.1629Y-1.7689
X2.3598Y-1.7689
X8.5597Y-1.2929
X8.6581Y-1.3913
X8.7566Y-0.8991
X8.855Y-1.2929
X8.855Y-1.4897
X8.9534Y-0.8991
X9.0519Y-1.3913
X9.1503Y-1.2929
T10
X1.7355Y-1.279
X1.8339Y-1.377
X1.9325Y-0.8849
X2.031Y-1.279
X2.1294Y-0.8849
X2.228Y-1.377
X2.3264Y-1.279
T11
X1.47Y-4.4871
X1.47Y-4.68
X8.78Y-7.49
X8.9729Y-7.49
X11.0125Y-3.2125
X11.0125Y-3.4054
X11.7025Y-6.65
X11.8954Y-6.65
X13.8621Y-3.065
X14.055Y-3.065
X14.6Y-7.17
X15.4067Y-7.17
T12
X1.128Y-1.6742
X1.3249Y-0.875
T13
X1.1201Y-0.875
X1.128Y-1.375
X1.128Y-1.5246
X1.317Y-1.375
X1.317Y-1.5246
X1.317Y-1.6742
T14
X12.6277Y-1.0119
X12.8938Y-0.98
X13.16Y-1.0119
T15
X13.64Y-1.1272
T16
X13.64Y-0.95
T17
X9.7548Y-1.1082
X10.739Y-1.1082
X11.2398Y-1.1082
X12.224Y-1.1082
X15.6378Y-2.9128
X15.6378Y-3.897
X15.6468Y-1.5278
X15.6468Y-2.512
T2
G00X14.29Y-1.1398
M15
G01X14.29Y-1.1752
M16
G05
G00X14.5046Y-0.9606
M15
G01X14.4691Y-0.9606
M16
G05
G00X14.6837Y-1.1398
M15
G01X14.6837Y-1.1752
M16
G05
T0
M30
