%TF.GenerationSoftware,KiCad,Pcbnew,8.0.2*%
%TF.CreationDate,2024-05-24T13:25:09+01:00*%
%TF.ProjectId,AudioYM2151V2,41756469-6f59-44d3-9231-353156322e6b,rev?*%
%TF.SameCoordinates,Original*%
%TF.FileFunction,Drillmap*%
%TF.FilePolarity,Positive*%
%FSLAX45Y45*%
G04 Gerber Fmt 4.5, Leading zero omitted, Abs format (unit mm)*
G04 Created by KiCad (PCBNEW 8.0.2) date 2024-05-24 13:25:09*
%MOMM*%
%LPD*%
G01*
G04 APERTURE LIST*
%ADD10C,0.050000*%
%ADD11C,0.200000*%
%ADD12C,0.120000*%
%ADD13C,0.285000*%
G04 APERTURE END LIST*
D10*
X26800000Y-9500000D02*
X27000000Y-9500000D01*
X26800000Y-2800000D02*
X9400000Y-2800000D01*
X17300000Y-15000000D02*
G75*
G02*
X17100000Y-14800000I0J200000D01*
G01*
X27000000Y-14800000D02*
G75*
G02*
X26800000Y-15000000I-200000J0D01*
G01*
X26800000Y-2800000D02*
G75*
G02*
X27000000Y-3000000I0J-200000D01*
G01*
X27000000Y-8999000D02*
X27000000Y-3000000D01*
X27000000Y-8999000D02*
X26800000Y-8999000D01*
X26800000Y-8999000D02*
X26800000Y-9500000D01*
X16900000Y-13800000D02*
G75*
G02*
X17100000Y-14000000I0J-200000D01*
G01*
X26800000Y-15000000D02*
X17300000Y-15000000D01*
X16900000Y-13800000D02*
X10000000Y-13800000D01*
X27000000Y-9500000D02*
X27000000Y-14800000D01*
X9200000Y-3000000D02*
G75*
G02*
X9400000Y-2800000I200000J0D01*
G01*
X9400000Y-13800000D02*
X10000000Y-13800000D01*
X9200000Y-3000000D02*
X9200000Y-13600000D01*
X17100000Y-14800000D02*
X17100000Y-14000000D01*
X9400000Y-13800000D02*
G75*
G02*
X9200000Y-13600000I0J200000D01*
G01*
D11*
D12*
X25987000Y-9181600D02*
X26107000Y-9301600D01*
X26107000Y-9181600D02*
X25987000Y-9301600D01*
X26487000Y-8681600D02*
X26607000Y-8801600D01*
X26607000Y-8681600D02*
X26487000Y-8801600D01*
X26487000Y-9681600D02*
X26607000Y-9801600D01*
X26607000Y-9681600D02*
X26487000Y-9801600D01*
X26737000Y-8681600D02*
X26857000Y-8801600D01*
X26857000Y-8681600D02*
X26737000Y-8801600D01*
X26737000Y-9681600D02*
X26857000Y-9801600D01*
X26857000Y-9681600D02*
X26737000Y-9801600D01*
D13*
X17795500Y-14722000D02*
G75*
G02*
X17510500Y-14722000I-142500J0D01*
G01*
X17510500Y-14722000D02*
G75*
G02*
X17795500Y-14722000I142500J0D01*
G01*
X26685500Y-14722000D02*
G75*
G02*
X26400500Y-14722000I-142500J0D01*
G01*
X26400500Y-14722000D02*
G75*
G02*
X26685500Y-14722000I142500J0D01*
G01*
D11*
X9458277Y-15313984D02*
X9458277Y-15113984D01*
X9458277Y-15113984D02*
X9505896Y-15113984D01*
X9505896Y-15113984D02*
X9534467Y-15123508D01*
X9534467Y-15123508D02*
X9553515Y-15142555D01*
X9553515Y-15142555D02*
X9563039Y-15161603D01*
X9563039Y-15161603D02*
X9572563Y-15199698D01*
X9572563Y-15199698D02*
X9572563Y-15228269D01*
X9572563Y-15228269D02*
X9563039Y-15266365D01*
X9563039Y-15266365D02*
X9553515Y-15285412D01*
X9553515Y-15285412D02*
X9534467Y-15304460D01*
X9534467Y-15304460D02*
X9505896Y-15313984D01*
X9505896Y-15313984D02*
X9458277Y-15313984D01*
X9658277Y-15313984D02*
X9658277Y-15180650D01*
X9658277Y-15218746D02*
X9667801Y-15199698D01*
X9667801Y-15199698D02*
X9677324Y-15190174D01*
X9677324Y-15190174D02*
X9696372Y-15180650D01*
X9696372Y-15180650D02*
X9715420Y-15180650D01*
X9782086Y-15313984D02*
X9782086Y-15180650D01*
X9782086Y-15113984D02*
X9772563Y-15123508D01*
X9772563Y-15123508D02*
X9782086Y-15133031D01*
X9782086Y-15133031D02*
X9791610Y-15123508D01*
X9791610Y-15123508D02*
X9782086Y-15113984D01*
X9782086Y-15113984D02*
X9782086Y-15133031D01*
X9905896Y-15313984D02*
X9886848Y-15304460D01*
X9886848Y-15304460D02*
X9877324Y-15285412D01*
X9877324Y-15285412D02*
X9877324Y-15113984D01*
X10010658Y-15313984D02*
X9991610Y-15304460D01*
X9991610Y-15304460D02*
X9982086Y-15285412D01*
X9982086Y-15285412D02*
X9982086Y-15113984D01*
X10239229Y-15313984D02*
X10239229Y-15113984D01*
X10239229Y-15113984D02*
X10305896Y-15256841D01*
X10305896Y-15256841D02*
X10372563Y-15113984D01*
X10372563Y-15113984D02*
X10372563Y-15313984D01*
X10553515Y-15313984D02*
X10553515Y-15209222D01*
X10553515Y-15209222D02*
X10543991Y-15190174D01*
X10543991Y-15190174D02*
X10524944Y-15180650D01*
X10524944Y-15180650D02*
X10486848Y-15180650D01*
X10486848Y-15180650D02*
X10467801Y-15190174D01*
X10553515Y-15304460D02*
X10534467Y-15313984D01*
X10534467Y-15313984D02*
X10486848Y-15313984D01*
X10486848Y-15313984D02*
X10467801Y-15304460D01*
X10467801Y-15304460D02*
X10458277Y-15285412D01*
X10458277Y-15285412D02*
X10458277Y-15266365D01*
X10458277Y-15266365D02*
X10467801Y-15247317D01*
X10467801Y-15247317D02*
X10486848Y-15237793D01*
X10486848Y-15237793D02*
X10534467Y-15237793D01*
X10534467Y-15237793D02*
X10553515Y-15228269D01*
X10648753Y-15180650D02*
X10648753Y-15380650D01*
X10648753Y-15190174D02*
X10667801Y-15180650D01*
X10667801Y-15180650D02*
X10705896Y-15180650D01*
X10705896Y-15180650D02*
X10724944Y-15190174D01*
X10724944Y-15190174D02*
X10734467Y-15199698D01*
X10734467Y-15199698D02*
X10743991Y-15218746D01*
X10743991Y-15218746D02*
X10743991Y-15275888D01*
X10743991Y-15275888D02*
X10734467Y-15294936D01*
X10734467Y-15294936D02*
X10724944Y-15304460D01*
X10724944Y-15304460D02*
X10705896Y-15313984D01*
X10705896Y-15313984D02*
X10667801Y-15313984D01*
X10667801Y-15313984D02*
X10648753Y-15304460D01*
X10829705Y-15294936D02*
X10839229Y-15304460D01*
X10839229Y-15304460D02*
X10829705Y-15313984D01*
X10829705Y-15313984D02*
X10820182Y-15304460D01*
X10820182Y-15304460D02*
X10829705Y-15294936D01*
X10829705Y-15294936D02*
X10829705Y-15313984D01*
X10829705Y-15190174D02*
X10839229Y-15199698D01*
X10839229Y-15199698D02*
X10829705Y-15209222D01*
X10829705Y-15209222D02*
X10820182Y-15199698D01*
X10820182Y-15199698D02*
X10829705Y-15190174D01*
X10829705Y-15190174D02*
X10829705Y-15209222D01*
D12*
X9077500Y-15582500D02*
X9197500Y-15702500D01*
X9197500Y-15582500D02*
X9077500Y-15702500D01*
D11*
X9563039Y-15733984D02*
X9448753Y-15733984D01*
X9505896Y-15733984D02*
X9505896Y-15533984D01*
X9505896Y-15533984D02*
X9486848Y-15562555D01*
X9486848Y-15562555D02*
X9467801Y-15581603D01*
X9467801Y-15581603D02*
X9448753Y-15591127D01*
X9648753Y-15714936D02*
X9658277Y-15724460D01*
X9658277Y-15724460D02*
X9648753Y-15733984D01*
X9648753Y-15733984D02*
X9639229Y-15724460D01*
X9639229Y-15724460D02*
X9648753Y-15714936D01*
X9648753Y-15714936D02*
X9648753Y-15733984D01*
X9734467Y-15553031D02*
X9743991Y-15543508D01*
X9743991Y-15543508D02*
X9763039Y-15533984D01*
X9763039Y-15533984D02*
X9810658Y-15533984D01*
X9810658Y-15533984D02*
X9829705Y-15543508D01*
X9829705Y-15543508D02*
X9839229Y-15553031D01*
X9839229Y-15553031D02*
X9848753Y-15572079D01*
X9848753Y-15572079D02*
X9848753Y-15591127D01*
X9848753Y-15591127D02*
X9839229Y-15619698D01*
X9839229Y-15619698D02*
X9724944Y-15733984D01*
X9724944Y-15733984D02*
X9848753Y-15733984D01*
X9972563Y-15533984D02*
X9991610Y-15533984D01*
X9991610Y-15533984D02*
X10010658Y-15543508D01*
X10010658Y-15543508D02*
X10020182Y-15553031D01*
X10020182Y-15553031D02*
X10029705Y-15572079D01*
X10029705Y-15572079D02*
X10039229Y-15610174D01*
X10039229Y-15610174D02*
X10039229Y-15657793D01*
X10039229Y-15657793D02*
X10029705Y-15695888D01*
X10029705Y-15695888D02*
X10020182Y-15714936D01*
X10020182Y-15714936D02*
X10010658Y-15724460D01*
X10010658Y-15724460D02*
X9991610Y-15733984D01*
X9991610Y-15733984D02*
X9972563Y-15733984D01*
X9972563Y-15733984D02*
X9953515Y-15724460D01*
X9953515Y-15724460D02*
X9943991Y-15714936D01*
X9943991Y-15714936D02*
X9934467Y-15695888D01*
X9934467Y-15695888D02*
X9924944Y-15657793D01*
X9924944Y-15657793D02*
X9924944Y-15610174D01*
X9924944Y-15610174D02*
X9934467Y-15572079D01*
X9934467Y-15572079D02*
X9943991Y-15553031D01*
X9943991Y-15553031D02*
X9953515Y-15543508D01*
X9953515Y-15543508D02*
X9972563Y-15533984D01*
X10163039Y-15533984D02*
X10182086Y-15533984D01*
X10182086Y-15533984D02*
X10201134Y-15543508D01*
X10201134Y-15543508D02*
X10210658Y-15553031D01*
X10210658Y-15553031D02*
X10220182Y-15572079D01*
X10220182Y-15572079D02*
X10229705Y-15610174D01*
X10229705Y-15610174D02*
X10229705Y-15657793D01*
X10229705Y-15657793D02*
X10220182Y-15695888D01*
X10220182Y-15695888D02*
X10210658Y-15714936D01*
X10210658Y-15714936D02*
X10201134Y-15724460D01*
X10201134Y-15724460D02*
X10182086Y-15733984D01*
X10182086Y-15733984D02*
X10163039Y-15733984D01*
X10163039Y-15733984D02*
X10143991Y-15724460D01*
X10143991Y-15724460D02*
X10134467Y-15714936D01*
X10134467Y-15714936D02*
X10124944Y-15695888D01*
X10124944Y-15695888D02*
X10115420Y-15657793D01*
X10115420Y-15657793D02*
X10115420Y-15610174D01*
X10115420Y-15610174D02*
X10124944Y-15572079D01*
X10124944Y-15572079D02*
X10134467Y-15553031D01*
X10134467Y-15553031D02*
X10143991Y-15543508D01*
X10143991Y-15543508D02*
X10163039Y-15533984D01*
X10315420Y-15733984D02*
X10315420Y-15600650D01*
X10315420Y-15619698D02*
X10324944Y-15610174D01*
X10324944Y-15610174D02*
X10343991Y-15600650D01*
X10343991Y-15600650D02*
X10372563Y-15600650D01*
X10372563Y-15600650D02*
X10391610Y-15610174D01*
X10391610Y-15610174D02*
X10401134Y-15629222D01*
X10401134Y-15629222D02*
X10401134Y-15733984D01*
X10401134Y-15629222D02*
X10410658Y-15610174D01*
X10410658Y-15610174D02*
X10429705Y-15600650D01*
X10429705Y-15600650D02*
X10458277Y-15600650D01*
X10458277Y-15600650D02*
X10477325Y-15610174D01*
X10477325Y-15610174D02*
X10486848Y-15629222D01*
X10486848Y-15629222D02*
X10486848Y-15733984D01*
X10582086Y-15733984D02*
X10582086Y-15600650D01*
X10582086Y-15619698D02*
X10591610Y-15610174D01*
X10591610Y-15610174D02*
X10610658Y-15600650D01*
X10610658Y-15600650D02*
X10639229Y-15600650D01*
X10639229Y-15600650D02*
X10658277Y-15610174D01*
X10658277Y-15610174D02*
X10667801Y-15629222D01*
X10667801Y-15629222D02*
X10667801Y-15733984D01*
X10667801Y-15629222D02*
X10677325Y-15610174D01*
X10677325Y-15610174D02*
X10696372Y-15600650D01*
X10696372Y-15600650D02*
X10724944Y-15600650D01*
X10724944Y-15600650D02*
X10743991Y-15610174D01*
X10743991Y-15610174D02*
X10753515Y-15629222D01*
X10753515Y-15629222D02*
X10753515Y-15733984D01*
X11143991Y-15524460D02*
X10972563Y-15781603D01*
X11401134Y-15533984D02*
X11420182Y-15533984D01*
X11420182Y-15533984D02*
X11439229Y-15543508D01*
X11439229Y-15543508D02*
X11448753Y-15553031D01*
X11448753Y-15553031D02*
X11458277Y-15572079D01*
X11458277Y-15572079D02*
X11467801Y-15610174D01*
X11467801Y-15610174D02*
X11467801Y-15657793D01*
X11467801Y-15657793D02*
X11458277Y-15695888D01*
X11458277Y-15695888D02*
X11448753Y-15714936D01*
X11448753Y-15714936D02*
X11439229Y-15724460D01*
X11439229Y-15724460D02*
X11420182Y-15733984D01*
X11420182Y-15733984D02*
X11401134Y-15733984D01*
X11401134Y-15733984D02*
X11382086Y-15724460D01*
X11382086Y-15724460D02*
X11372563Y-15714936D01*
X11372563Y-15714936D02*
X11363039Y-15695888D01*
X11363039Y-15695888D02*
X11353515Y-15657793D01*
X11353515Y-15657793D02*
X11353515Y-15610174D01*
X11353515Y-15610174D02*
X11363039Y-15572079D01*
X11363039Y-15572079D02*
X11372563Y-15553031D01*
X11372563Y-15553031D02*
X11382086Y-15543508D01*
X11382086Y-15543508D02*
X11401134Y-15533984D01*
X11553515Y-15714936D02*
X11563039Y-15724460D01*
X11563039Y-15724460D02*
X11553515Y-15733984D01*
X11553515Y-15733984D02*
X11543991Y-15724460D01*
X11543991Y-15724460D02*
X11553515Y-15714936D01*
X11553515Y-15714936D02*
X11553515Y-15733984D01*
X11686848Y-15533984D02*
X11705896Y-15533984D01*
X11705896Y-15533984D02*
X11724944Y-15543508D01*
X11724944Y-15543508D02*
X11734467Y-15553031D01*
X11734467Y-15553031D02*
X11743991Y-15572079D01*
X11743991Y-15572079D02*
X11753515Y-15610174D01*
X11753515Y-15610174D02*
X11753515Y-15657793D01*
X11753515Y-15657793D02*
X11743991Y-15695888D01*
X11743991Y-15695888D02*
X11734467Y-15714936D01*
X11734467Y-15714936D02*
X11724944Y-15724460D01*
X11724944Y-15724460D02*
X11705896Y-15733984D01*
X11705896Y-15733984D02*
X11686848Y-15733984D01*
X11686848Y-15733984D02*
X11667801Y-15724460D01*
X11667801Y-15724460D02*
X11658277Y-15714936D01*
X11658277Y-15714936D02*
X11648753Y-15695888D01*
X11648753Y-15695888D02*
X11639229Y-15657793D01*
X11639229Y-15657793D02*
X11639229Y-15610174D01*
X11639229Y-15610174D02*
X11648753Y-15572079D01*
X11648753Y-15572079D02*
X11658277Y-15553031D01*
X11658277Y-15553031D02*
X11667801Y-15543508D01*
X11667801Y-15543508D02*
X11686848Y-15533984D01*
X11924944Y-15600650D02*
X11924944Y-15733984D01*
X11877325Y-15524460D02*
X11829706Y-15667317D01*
X11829706Y-15667317D02*
X11953515Y-15667317D01*
X12010658Y-15533984D02*
X12143991Y-15533984D01*
X12143991Y-15533984D02*
X12058277Y-15733984D01*
X12210658Y-15553031D02*
X12220182Y-15543508D01*
X12220182Y-15543508D02*
X12239229Y-15533984D01*
X12239229Y-15533984D02*
X12286848Y-15533984D01*
X12286848Y-15533984D02*
X12305896Y-15543508D01*
X12305896Y-15543508D02*
X12315420Y-15553031D01*
X12315420Y-15553031D02*
X12324944Y-15572079D01*
X12324944Y-15572079D02*
X12324944Y-15591127D01*
X12324944Y-15591127D02*
X12315420Y-15619698D01*
X12315420Y-15619698D02*
X12201134Y-15733984D01*
X12201134Y-15733984D02*
X12324944Y-15733984D01*
X12401134Y-15533984D02*
X12401134Y-15572079D01*
X12477325Y-15533984D02*
X12477325Y-15572079D01*
X12772563Y-15810174D02*
X12763039Y-15800650D01*
X12763039Y-15800650D02*
X12743991Y-15772079D01*
X12743991Y-15772079D02*
X12734468Y-15753031D01*
X12734468Y-15753031D02*
X12724944Y-15724460D01*
X12724944Y-15724460D02*
X12715420Y-15676841D01*
X12715420Y-15676841D02*
X12715420Y-15638746D01*
X12715420Y-15638746D02*
X12724944Y-15591127D01*
X12724944Y-15591127D02*
X12734468Y-15562555D01*
X12734468Y-15562555D02*
X12743991Y-15543508D01*
X12743991Y-15543508D02*
X12763039Y-15514936D01*
X12763039Y-15514936D02*
X12772563Y-15505412D01*
X12943991Y-15533984D02*
X12848753Y-15533984D01*
X12848753Y-15533984D02*
X12839229Y-15629222D01*
X12839229Y-15629222D02*
X12848753Y-15619698D01*
X12848753Y-15619698D02*
X12867801Y-15610174D01*
X12867801Y-15610174D02*
X12915420Y-15610174D01*
X12915420Y-15610174D02*
X12934468Y-15619698D01*
X12934468Y-15619698D02*
X12943991Y-15629222D01*
X12943991Y-15629222D02*
X12953515Y-15648269D01*
X12953515Y-15648269D02*
X12953515Y-15695888D01*
X12953515Y-15695888D02*
X12943991Y-15714936D01*
X12943991Y-15714936D02*
X12934468Y-15724460D01*
X12934468Y-15724460D02*
X12915420Y-15733984D01*
X12915420Y-15733984D02*
X12867801Y-15733984D01*
X12867801Y-15733984D02*
X12848753Y-15724460D01*
X12848753Y-15724460D02*
X12839229Y-15714936D01*
X13191610Y-15733984D02*
X13191610Y-15533984D01*
X13277325Y-15733984D02*
X13277325Y-15629222D01*
X13277325Y-15629222D02*
X13267801Y-15610174D01*
X13267801Y-15610174D02*
X13248753Y-15600650D01*
X13248753Y-15600650D02*
X13220182Y-15600650D01*
X13220182Y-15600650D02*
X13201134Y-15610174D01*
X13201134Y-15610174D02*
X13191610Y-15619698D01*
X13401134Y-15733984D02*
X13382087Y-15724460D01*
X13382087Y-15724460D02*
X13372563Y-15714936D01*
X13372563Y-15714936D02*
X13363039Y-15695888D01*
X13363039Y-15695888D02*
X13363039Y-15638746D01*
X13363039Y-15638746D02*
X13372563Y-15619698D01*
X13372563Y-15619698D02*
X13382087Y-15610174D01*
X13382087Y-15610174D02*
X13401134Y-15600650D01*
X13401134Y-15600650D02*
X13429706Y-15600650D01*
X13429706Y-15600650D02*
X13448753Y-15610174D01*
X13448753Y-15610174D02*
X13458277Y-15619698D01*
X13458277Y-15619698D02*
X13467801Y-15638746D01*
X13467801Y-15638746D02*
X13467801Y-15695888D01*
X13467801Y-15695888D02*
X13458277Y-15714936D01*
X13458277Y-15714936D02*
X13448753Y-15724460D01*
X13448753Y-15724460D02*
X13429706Y-15733984D01*
X13429706Y-15733984D02*
X13401134Y-15733984D01*
X13582087Y-15733984D02*
X13563039Y-15724460D01*
X13563039Y-15724460D02*
X13553515Y-15705412D01*
X13553515Y-15705412D02*
X13553515Y-15533984D01*
X13734468Y-15724460D02*
X13715420Y-15733984D01*
X13715420Y-15733984D02*
X13677325Y-15733984D01*
X13677325Y-15733984D02*
X13658277Y-15724460D01*
X13658277Y-15724460D02*
X13648753Y-15705412D01*
X13648753Y-15705412D02*
X13648753Y-15629222D01*
X13648753Y-15629222D02*
X13658277Y-15610174D01*
X13658277Y-15610174D02*
X13677325Y-15600650D01*
X13677325Y-15600650D02*
X13715420Y-15600650D01*
X13715420Y-15600650D02*
X13734468Y-15610174D01*
X13734468Y-15610174D02*
X13743991Y-15629222D01*
X13743991Y-15629222D02*
X13743991Y-15648269D01*
X13743991Y-15648269D02*
X13648753Y-15667317D01*
X13820182Y-15724460D02*
X13839230Y-15733984D01*
X13839230Y-15733984D02*
X13877325Y-15733984D01*
X13877325Y-15733984D02*
X13896372Y-15724460D01*
X13896372Y-15724460D02*
X13905896Y-15705412D01*
X13905896Y-15705412D02*
X13905896Y-15695888D01*
X13905896Y-15695888D02*
X13896372Y-15676841D01*
X13896372Y-15676841D02*
X13877325Y-15667317D01*
X13877325Y-15667317D02*
X13848753Y-15667317D01*
X13848753Y-15667317D02*
X13829706Y-15657793D01*
X13829706Y-15657793D02*
X13820182Y-15638746D01*
X13820182Y-15638746D02*
X13820182Y-15629222D01*
X13820182Y-15629222D02*
X13829706Y-15610174D01*
X13829706Y-15610174D02*
X13848753Y-15600650D01*
X13848753Y-15600650D02*
X13877325Y-15600650D01*
X13877325Y-15600650D02*
X13896372Y-15610174D01*
X13972563Y-15810174D02*
X13982087Y-15800650D01*
X13982087Y-15800650D02*
X14001134Y-15772079D01*
X14001134Y-15772079D02*
X14010658Y-15753031D01*
X14010658Y-15753031D02*
X14020182Y-15724460D01*
X14020182Y-15724460D02*
X14029706Y-15676841D01*
X14029706Y-15676841D02*
X14029706Y-15638746D01*
X14029706Y-15638746D02*
X14020182Y-15591127D01*
X14020182Y-15591127D02*
X14010658Y-15562555D01*
X14010658Y-15562555D02*
X14001134Y-15543508D01*
X14001134Y-15543508D02*
X13982087Y-15514936D01*
X13982087Y-15514936D02*
X13972563Y-15505412D01*
X14334468Y-15810174D02*
X14324944Y-15800650D01*
X14324944Y-15800650D02*
X14305896Y-15772079D01*
X14305896Y-15772079D02*
X14296372Y-15753031D01*
X14296372Y-15753031D02*
X14286849Y-15724460D01*
X14286849Y-15724460D02*
X14277325Y-15676841D01*
X14277325Y-15676841D02*
X14277325Y-15638746D01*
X14277325Y-15638746D02*
X14286849Y-15591127D01*
X14286849Y-15591127D02*
X14296372Y-15562555D01*
X14296372Y-15562555D02*
X14305896Y-15543508D01*
X14305896Y-15543508D02*
X14324944Y-15514936D01*
X14324944Y-15514936D02*
X14334468Y-15505412D01*
X14410658Y-15600650D02*
X14410658Y-15733984D01*
X14410658Y-15619698D02*
X14420182Y-15610174D01*
X14420182Y-15610174D02*
X14439230Y-15600650D01*
X14439230Y-15600650D02*
X14467801Y-15600650D01*
X14467801Y-15600650D02*
X14486849Y-15610174D01*
X14486849Y-15610174D02*
X14496372Y-15629222D01*
X14496372Y-15629222D02*
X14496372Y-15733984D01*
X14620182Y-15733984D02*
X14601134Y-15724460D01*
X14601134Y-15724460D02*
X14591611Y-15714936D01*
X14591611Y-15714936D02*
X14582087Y-15695888D01*
X14582087Y-15695888D02*
X14582087Y-15638746D01*
X14582087Y-15638746D02*
X14591611Y-15619698D01*
X14591611Y-15619698D02*
X14601134Y-15610174D01*
X14601134Y-15610174D02*
X14620182Y-15600650D01*
X14620182Y-15600650D02*
X14648753Y-15600650D01*
X14648753Y-15600650D02*
X14667801Y-15610174D01*
X14667801Y-15610174D02*
X14677325Y-15619698D01*
X14677325Y-15619698D02*
X14686849Y-15638746D01*
X14686849Y-15638746D02*
X14686849Y-15695888D01*
X14686849Y-15695888D02*
X14677325Y-15714936D01*
X14677325Y-15714936D02*
X14667801Y-15724460D01*
X14667801Y-15724460D02*
X14648753Y-15733984D01*
X14648753Y-15733984D02*
X14620182Y-15733984D01*
X14743992Y-15600650D02*
X14820182Y-15600650D01*
X14772563Y-15533984D02*
X14772563Y-15705412D01*
X14772563Y-15705412D02*
X14782087Y-15724460D01*
X14782087Y-15724460D02*
X14801134Y-15733984D01*
X14801134Y-15733984D02*
X14820182Y-15733984D01*
X15039230Y-15600650D02*
X15039230Y-15800650D01*
X15039230Y-15610174D02*
X15058277Y-15600650D01*
X15058277Y-15600650D02*
X15096373Y-15600650D01*
X15096373Y-15600650D02*
X15115420Y-15610174D01*
X15115420Y-15610174D02*
X15124944Y-15619698D01*
X15124944Y-15619698D02*
X15134468Y-15638746D01*
X15134468Y-15638746D02*
X15134468Y-15695888D01*
X15134468Y-15695888D02*
X15124944Y-15714936D01*
X15124944Y-15714936D02*
X15115420Y-15724460D01*
X15115420Y-15724460D02*
X15096373Y-15733984D01*
X15096373Y-15733984D02*
X15058277Y-15733984D01*
X15058277Y-15733984D02*
X15039230Y-15724460D01*
X15248753Y-15733984D02*
X15229706Y-15724460D01*
X15229706Y-15724460D02*
X15220182Y-15705412D01*
X15220182Y-15705412D02*
X15220182Y-15533984D01*
X15410658Y-15733984D02*
X15410658Y-15629222D01*
X15410658Y-15629222D02*
X15401134Y-15610174D01*
X15401134Y-15610174D02*
X15382087Y-15600650D01*
X15382087Y-15600650D02*
X15343992Y-15600650D01*
X15343992Y-15600650D02*
X15324944Y-15610174D01*
X15410658Y-15724460D02*
X15391611Y-15733984D01*
X15391611Y-15733984D02*
X15343992Y-15733984D01*
X15343992Y-15733984D02*
X15324944Y-15724460D01*
X15324944Y-15724460D02*
X15315420Y-15705412D01*
X15315420Y-15705412D02*
X15315420Y-15686365D01*
X15315420Y-15686365D02*
X15324944Y-15667317D01*
X15324944Y-15667317D02*
X15343992Y-15657793D01*
X15343992Y-15657793D02*
X15391611Y-15657793D01*
X15391611Y-15657793D02*
X15410658Y-15648269D01*
X15477325Y-15600650D02*
X15553515Y-15600650D01*
X15505896Y-15533984D02*
X15505896Y-15705412D01*
X15505896Y-15705412D02*
X15515420Y-15724460D01*
X15515420Y-15724460D02*
X15534468Y-15733984D01*
X15534468Y-15733984D02*
X15553515Y-15733984D01*
X15696373Y-15724460D02*
X15677325Y-15733984D01*
X15677325Y-15733984D02*
X15639230Y-15733984D01*
X15639230Y-15733984D02*
X15620182Y-15724460D01*
X15620182Y-15724460D02*
X15610658Y-15705412D01*
X15610658Y-15705412D02*
X15610658Y-15629222D01*
X15610658Y-15629222D02*
X15620182Y-15610174D01*
X15620182Y-15610174D02*
X15639230Y-15600650D01*
X15639230Y-15600650D02*
X15677325Y-15600650D01*
X15677325Y-15600650D02*
X15696373Y-15610174D01*
X15696373Y-15610174D02*
X15705896Y-15629222D01*
X15705896Y-15629222D02*
X15705896Y-15648269D01*
X15705896Y-15648269D02*
X15610658Y-15667317D01*
X15877325Y-15733984D02*
X15877325Y-15533984D01*
X15877325Y-15724460D02*
X15858277Y-15733984D01*
X15858277Y-15733984D02*
X15820182Y-15733984D01*
X15820182Y-15733984D02*
X15801134Y-15724460D01*
X15801134Y-15724460D02*
X15791611Y-15714936D01*
X15791611Y-15714936D02*
X15782087Y-15695888D01*
X15782087Y-15695888D02*
X15782087Y-15638746D01*
X15782087Y-15638746D02*
X15791611Y-15619698D01*
X15791611Y-15619698D02*
X15801134Y-15610174D01*
X15801134Y-15610174D02*
X15820182Y-15600650D01*
X15820182Y-15600650D02*
X15858277Y-15600650D01*
X15858277Y-15600650D02*
X15877325Y-15610174D01*
X15953515Y-15810174D02*
X15963039Y-15800650D01*
X15963039Y-15800650D02*
X15982087Y-15772079D01*
X15982087Y-15772079D02*
X15991611Y-15753031D01*
X15991611Y-15753031D02*
X16001134Y-15724460D01*
X16001134Y-15724460D02*
X16010658Y-15676841D01*
X16010658Y-15676841D02*
X16010658Y-15638746D01*
X16010658Y-15638746D02*
X16001134Y-15591127D01*
X16001134Y-15591127D02*
X15991611Y-15562555D01*
X15991611Y-15562555D02*
X15982087Y-15543508D01*
X15982087Y-15543508D02*
X15963039Y-15514936D01*
X15963039Y-15514936D02*
X15953515Y-15505412D01*
X9197500Y-15906500D02*
G75*
G02*
X8997500Y-15906500I-100000J0D01*
G01*
X8997500Y-15906500D02*
G75*
G02*
X9197500Y-15906500I100000J0D01*
G01*
X9448753Y-15817031D02*
X9458277Y-15807508D01*
X9458277Y-15807508D02*
X9477324Y-15797984D01*
X9477324Y-15797984D02*
X9524944Y-15797984D01*
X9524944Y-15797984D02*
X9543991Y-15807508D01*
X9543991Y-15807508D02*
X9553515Y-15817031D01*
X9553515Y-15817031D02*
X9563039Y-15836079D01*
X9563039Y-15836079D02*
X9563039Y-15855127D01*
X9563039Y-15855127D02*
X9553515Y-15883698D01*
X9553515Y-15883698D02*
X9439229Y-15997984D01*
X9439229Y-15997984D02*
X9563039Y-15997984D01*
X9648753Y-15978936D02*
X9658277Y-15988460D01*
X9658277Y-15988460D02*
X9648753Y-15997984D01*
X9648753Y-15997984D02*
X9639229Y-15988460D01*
X9639229Y-15988460D02*
X9648753Y-15978936D01*
X9648753Y-15978936D02*
X9648753Y-15997984D01*
X9772563Y-15883698D02*
X9753515Y-15874174D01*
X9753515Y-15874174D02*
X9743991Y-15864650D01*
X9743991Y-15864650D02*
X9734467Y-15845603D01*
X9734467Y-15845603D02*
X9734467Y-15836079D01*
X9734467Y-15836079D02*
X9743991Y-15817031D01*
X9743991Y-15817031D02*
X9753515Y-15807508D01*
X9753515Y-15807508D02*
X9772563Y-15797984D01*
X9772563Y-15797984D02*
X9810658Y-15797984D01*
X9810658Y-15797984D02*
X9829705Y-15807508D01*
X9829705Y-15807508D02*
X9839229Y-15817031D01*
X9839229Y-15817031D02*
X9848753Y-15836079D01*
X9848753Y-15836079D02*
X9848753Y-15845603D01*
X9848753Y-15845603D02*
X9839229Y-15864650D01*
X9839229Y-15864650D02*
X9829705Y-15874174D01*
X9829705Y-15874174D02*
X9810658Y-15883698D01*
X9810658Y-15883698D02*
X9772563Y-15883698D01*
X9772563Y-15883698D02*
X9753515Y-15893222D01*
X9753515Y-15893222D02*
X9743991Y-15902746D01*
X9743991Y-15902746D02*
X9734467Y-15921793D01*
X9734467Y-15921793D02*
X9734467Y-15959888D01*
X9734467Y-15959888D02*
X9743991Y-15978936D01*
X9743991Y-15978936D02*
X9753515Y-15988460D01*
X9753515Y-15988460D02*
X9772563Y-15997984D01*
X9772563Y-15997984D02*
X9810658Y-15997984D01*
X9810658Y-15997984D02*
X9829705Y-15988460D01*
X9829705Y-15988460D02*
X9839229Y-15978936D01*
X9839229Y-15978936D02*
X9848753Y-15959888D01*
X9848753Y-15959888D02*
X9848753Y-15921793D01*
X9848753Y-15921793D02*
X9839229Y-15902746D01*
X9839229Y-15902746D02*
X9829705Y-15893222D01*
X9829705Y-15893222D02*
X9810658Y-15883698D01*
X10029705Y-15797984D02*
X9934467Y-15797984D01*
X9934467Y-15797984D02*
X9924944Y-15893222D01*
X9924944Y-15893222D02*
X9934467Y-15883698D01*
X9934467Y-15883698D02*
X9953515Y-15874174D01*
X9953515Y-15874174D02*
X10001134Y-15874174D01*
X10001134Y-15874174D02*
X10020182Y-15883698D01*
X10020182Y-15883698D02*
X10029705Y-15893222D01*
X10029705Y-15893222D02*
X10039229Y-15912269D01*
X10039229Y-15912269D02*
X10039229Y-15959888D01*
X10039229Y-15959888D02*
X10029705Y-15978936D01*
X10029705Y-15978936D02*
X10020182Y-15988460D01*
X10020182Y-15988460D02*
X10001134Y-15997984D01*
X10001134Y-15997984D02*
X9953515Y-15997984D01*
X9953515Y-15997984D02*
X9934467Y-15988460D01*
X9934467Y-15988460D02*
X9924944Y-15978936D01*
X10163039Y-15797984D02*
X10182086Y-15797984D01*
X10182086Y-15797984D02*
X10201134Y-15807508D01*
X10201134Y-15807508D02*
X10210658Y-15817031D01*
X10210658Y-15817031D02*
X10220182Y-15836079D01*
X10220182Y-15836079D02*
X10229705Y-15874174D01*
X10229705Y-15874174D02*
X10229705Y-15921793D01*
X10229705Y-15921793D02*
X10220182Y-15959888D01*
X10220182Y-15959888D02*
X10210658Y-15978936D01*
X10210658Y-15978936D02*
X10201134Y-15988460D01*
X10201134Y-15988460D02*
X10182086Y-15997984D01*
X10182086Y-15997984D02*
X10163039Y-15997984D01*
X10163039Y-15997984D02*
X10143991Y-15988460D01*
X10143991Y-15988460D02*
X10134467Y-15978936D01*
X10134467Y-15978936D02*
X10124944Y-15959888D01*
X10124944Y-15959888D02*
X10115420Y-15921793D01*
X10115420Y-15921793D02*
X10115420Y-15874174D01*
X10115420Y-15874174D02*
X10124944Y-15836079D01*
X10124944Y-15836079D02*
X10134467Y-15817031D01*
X10134467Y-15817031D02*
X10143991Y-15807508D01*
X10143991Y-15807508D02*
X10163039Y-15797984D01*
X10315420Y-15997984D02*
X10315420Y-15864650D01*
X10315420Y-15883698D02*
X10324944Y-15874174D01*
X10324944Y-15874174D02*
X10343991Y-15864650D01*
X10343991Y-15864650D02*
X10372563Y-15864650D01*
X10372563Y-15864650D02*
X10391610Y-15874174D01*
X10391610Y-15874174D02*
X10401134Y-15893222D01*
X10401134Y-15893222D02*
X10401134Y-15997984D01*
X10401134Y-15893222D02*
X10410658Y-15874174D01*
X10410658Y-15874174D02*
X10429705Y-15864650D01*
X10429705Y-15864650D02*
X10458277Y-15864650D01*
X10458277Y-15864650D02*
X10477325Y-15874174D01*
X10477325Y-15874174D02*
X10486848Y-15893222D01*
X10486848Y-15893222D02*
X10486848Y-15997984D01*
X10582086Y-15997984D02*
X10582086Y-15864650D01*
X10582086Y-15883698D02*
X10591610Y-15874174D01*
X10591610Y-15874174D02*
X10610658Y-15864650D01*
X10610658Y-15864650D02*
X10639229Y-15864650D01*
X10639229Y-15864650D02*
X10658277Y-15874174D01*
X10658277Y-15874174D02*
X10667801Y-15893222D01*
X10667801Y-15893222D02*
X10667801Y-15997984D01*
X10667801Y-15893222D02*
X10677325Y-15874174D01*
X10677325Y-15874174D02*
X10696372Y-15864650D01*
X10696372Y-15864650D02*
X10724944Y-15864650D01*
X10724944Y-15864650D02*
X10743991Y-15874174D01*
X10743991Y-15874174D02*
X10753515Y-15893222D01*
X10753515Y-15893222D02*
X10753515Y-15997984D01*
X11143991Y-15788460D02*
X10972563Y-16045603D01*
X11401134Y-15797984D02*
X11420182Y-15797984D01*
X11420182Y-15797984D02*
X11439229Y-15807508D01*
X11439229Y-15807508D02*
X11448753Y-15817031D01*
X11448753Y-15817031D02*
X11458277Y-15836079D01*
X11458277Y-15836079D02*
X11467801Y-15874174D01*
X11467801Y-15874174D02*
X11467801Y-15921793D01*
X11467801Y-15921793D02*
X11458277Y-15959888D01*
X11458277Y-15959888D02*
X11448753Y-15978936D01*
X11448753Y-15978936D02*
X11439229Y-15988460D01*
X11439229Y-15988460D02*
X11420182Y-15997984D01*
X11420182Y-15997984D02*
X11401134Y-15997984D01*
X11401134Y-15997984D02*
X11382086Y-15988460D01*
X11382086Y-15988460D02*
X11372563Y-15978936D01*
X11372563Y-15978936D02*
X11363039Y-15959888D01*
X11363039Y-15959888D02*
X11353515Y-15921793D01*
X11353515Y-15921793D02*
X11353515Y-15874174D01*
X11353515Y-15874174D02*
X11363039Y-15836079D01*
X11363039Y-15836079D02*
X11372563Y-15817031D01*
X11372563Y-15817031D02*
X11382086Y-15807508D01*
X11382086Y-15807508D02*
X11401134Y-15797984D01*
X11553515Y-15978936D02*
X11563039Y-15988460D01*
X11563039Y-15988460D02*
X11553515Y-15997984D01*
X11553515Y-15997984D02*
X11543991Y-15988460D01*
X11543991Y-15988460D02*
X11553515Y-15978936D01*
X11553515Y-15978936D02*
X11553515Y-15997984D01*
X11753515Y-15997984D02*
X11639229Y-15997984D01*
X11696372Y-15997984D02*
X11696372Y-15797984D01*
X11696372Y-15797984D02*
X11677325Y-15826555D01*
X11677325Y-15826555D02*
X11658277Y-15845603D01*
X11658277Y-15845603D02*
X11639229Y-15855127D01*
X11943991Y-15997984D02*
X11829706Y-15997984D01*
X11886848Y-15997984D02*
X11886848Y-15797984D01*
X11886848Y-15797984D02*
X11867801Y-15826555D01*
X11867801Y-15826555D02*
X11848753Y-15845603D01*
X11848753Y-15845603D02*
X11829706Y-15855127D01*
X12020182Y-15817031D02*
X12029706Y-15807508D01*
X12029706Y-15807508D02*
X12048753Y-15797984D01*
X12048753Y-15797984D02*
X12096372Y-15797984D01*
X12096372Y-15797984D02*
X12115420Y-15807508D01*
X12115420Y-15807508D02*
X12124944Y-15817031D01*
X12124944Y-15817031D02*
X12134467Y-15836079D01*
X12134467Y-15836079D02*
X12134467Y-15855127D01*
X12134467Y-15855127D02*
X12124944Y-15883698D01*
X12124944Y-15883698D02*
X12010658Y-15997984D01*
X12010658Y-15997984D02*
X12134467Y-15997984D01*
X12210658Y-15817031D02*
X12220182Y-15807508D01*
X12220182Y-15807508D02*
X12239229Y-15797984D01*
X12239229Y-15797984D02*
X12286848Y-15797984D01*
X12286848Y-15797984D02*
X12305896Y-15807508D01*
X12305896Y-15807508D02*
X12315420Y-15817031D01*
X12315420Y-15817031D02*
X12324944Y-15836079D01*
X12324944Y-15836079D02*
X12324944Y-15855127D01*
X12324944Y-15855127D02*
X12315420Y-15883698D01*
X12315420Y-15883698D02*
X12201134Y-15997984D01*
X12201134Y-15997984D02*
X12324944Y-15997984D01*
X12401134Y-15797984D02*
X12401134Y-15836079D01*
X12477325Y-15797984D02*
X12477325Y-15836079D01*
X12772563Y-16074174D02*
X12763039Y-16064650D01*
X12763039Y-16064650D02*
X12743991Y-16036079D01*
X12743991Y-16036079D02*
X12734468Y-16017031D01*
X12734468Y-16017031D02*
X12724944Y-15988460D01*
X12724944Y-15988460D02*
X12715420Y-15940841D01*
X12715420Y-15940841D02*
X12715420Y-15902746D01*
X12715420Y-15902746D02*
X12724944Y-15855127D01*
X12724944Y-15855127D02*
X12734468Y-15826555D01*
X12734468Y-15826555D02*
X12743991Y-15807508D01*
X12743991Y-15807508D02*
X12763039Y-15778936D01*
X12763039Y-15778936D02*
X12772563Y-15769412D01*
X12839229Y-15817031D02*
X12848753Y-15807508D01*
X12848753Y-15807508D02*
X12867801Y-15797984D01*
X12867801Y-15797984D02*
X12915420Y-15797984D01*
X12915420Y-15797984D02*
X12934468Y-15807508D01*
X12934468Y-15807508D02*
X12943991Y-15817031D01*
X12943991Y-15817031D02*
X12953515Y-15836079D01*
X12953515Y-15836079D02*
X12953515Y-15855127D01*
X12953515Y-15855127D02*
X12943991Y-15883698D01*
X12943991Y-15883698D02*
X12829706Y-15997984D01*
X12829706Y-15997984D02*
X12953515Y-15997984D01*
X13191610Y-15997984D02*
X13191610Y-15797984D01*
X13277325Y-15997984D02*
X13277325Y-15893222D01*
X13277325Y-15893222D02*
X13267801Y-15874174D01*
X13267801Y-15874174D02*
X13248753Y-15864650D01*
X13248753Y-15864650D02*
X13220182Y-15864650D01*
X13220182Y-15864650D02*
X13201134Y-15874174D01*
X13201134Y-15874174D02*
X13191610Y-15883698D01*
X13401134Y-15997984D02*
X13382087Y-15988460D01*
X13382087Y-15988460D02*
X13372563Y-15978936D01*
X13372563Y-15978936D02*
X13363039Y-15959888D01*
X13363039Y-15959888D02*
X13363039Y-15902746D01*
X13363039Y-15902746D02*
X13372563Y-15883698D01*
X13372563Y-15883698D02*
X13382087Y-15874174D01*
X13382087Y-15874174D02*
X13401134Y-15864650D01*
X13401134Y-15864650D02*
X13429706Y-15864650D01*
X13429706Y-15864650D02*
X13448753Y-15874174D01*
X13448753Y-15874174D02*
X13458277Y-15883698D01*
X13458277Y-15883698D02*
X13467801Y-15902746D01*
X13467801Y-15902746D02*
X13467801Y-15959888D01*
X13467801Y-15959888D02*
X13458277Y-15978936D01*
X13458277Y-15978936D02*
X13448753Y-15988460D01*
X13448753Y-15988460D02*
X13429706Y-15997984D01*
X13429706Y-15997984D02*
X13401134Y-15997984D01*
X13582087Y-15997984D02*
X13563039Y-15988460D01*
X13563039Y-15988460D02*
X13553515Y-15969412D01*
X13553515Y-15969412D02*
X13553515Y-15797984D01*
X13734468Y-15988460D02*
X13715420Y-15997984D01*
X13715420Y-15997984D02*
X13677325Y-15997984D01*
X13677325Y-15997984D02*
X13658277Y-15988460D01*
X13658277Y-15988460D02*
X13648753Y-15969412D01*
X13648753Y-15969412D02*
X13648753Y-15893222D01*
X13648753Y-15893222D02*
X13658277Y-15874174D01*
X13658277Y-15874174D02*
X13677325Y-15864650D01*
X13677325Y-15864650D02*
X13715420Y-15864650D01*
X13715420Y-15864650D02*
X13734468Y-15874174D01*
X13734468Y-15874174D02*
X13743991Y-15893222D01*
X13743991Y-15893222D02*
X13743991Y-15912269D01*
X13743991Y-15912269D02*
X13648753Y-15931317D01*
X13820182Y-15988460D02*
X13839230Y-15997984D01*
X13839230Y-15997984D02*
X13877325Y-15997984D01*
X13877325Y-15997984D02*
X13896372Y-15988460D01*
X13896372Y-15988460D02*
X13905896Y-15969412D01*
X13905896Y-15969412D02*
X13905896Y-15959888D01*
X13905896Y-15959888D02*
X13896372Y-15940841D01*
X13896372Y-15940841D02*
X13877325Y-15931317D01*
X13877325Y-15931317D02*
X13848753Y-15931317D01*
X13848753Y-15931317D02*
X13829706Y-15921793D01*
X13829706Y-15921793D02*
X13820182Y-15902746D01*
X13820182Y-15902746D02*
X13820182Y-15893222D01*
X13820182Y-15893222D02*
X13829706Y-15874174D01*
X13829706Y-15874174D02*
X13848753Y-15864650D01*
X13848753Y-15864650D02*
X13877325Y-15864650D01*
X13877325Y-15864650D02*
X13896372Y-15874174D01*
X13972563Y-16074174D02*
X13982087Y-16064650D01*
X13982087Y-16064650D02*
X14001134Y-16036079D01*
X14001134Y-16036079D02*
X14010658Y-16017031D01*
X14010658Y-16017031D02*
X14020182Y-15988460D01*
X14020182Y-15988460D02*
X14029706Y-15940841D01*
X14029706Y-15940841D02*
X14029706Y-15902746D01*
X14029706Y-15902746D02*
X14020182Y-15855127D01*
X14020182Y-15855127D02*
X14010658Y-15826555D01*
X14010658Y-15826555D02*
X14001134Y-15807508D01*
X14001134Y-15807508D02*
X13982087Y-15778936D01*
X13982087Y-15778936D02*
X13972563Y-15769412D01*
X14334468Y-16074174D02*
X14324944Y-16064650D01*
X14324944Y-16064650D02*
X14305896Y-16036079D01*
X14305896Y-16036079D02*
X14296372Y-16017031D01*
X14296372Y-16017031D02*
X14286849Y-15988460D01*
X14286849Y-15988460D02*
X14277325Y-15940841D01*
X14277325Y-15940841D02*
X14277325Y-15902746D01*
X14277325Y-15902746D02*
X14286849Y-15855127D01*
X14286849Y-15855127D02*
X14296372Y-15826555D01*
X14296372Y-15826555D02*
X14305896Y-15807508D01*
X14305896Y-15807508D02*
X14324944Y-15778936D01*
X14324944Y-15778936D02*
X14334468Y-15769412D01*
X14410658Y-15864650D02*
X14410658Y-15997984D01*
X14410658Y-15883698D02*
X14420182Y-15874174D01*
X14420182Y-15874174D02*
X14439230Y-15864650D01*
X14439230Y-15864650D02*
X14467801Y-15864650D01*
X14467801Y-15864650D02*
X14486849Y-15874174D01*
X14486849Y-15874174D02*
X14496372Y-15893222D01*
X14496372Y-15893222D02*
X14496372Y-15997984D01*
X14620182Y-15997984D02*
X14601134Y-15988460D01*
X14601134Y-15988460D02*
X14591611Y-15978936D01*
X14591611Y-15978936D02*
X14582087Y-15959888D01*
X14582087Y-15959888D02*
X14582087Y-15902746D01*
X14582087Y-15902746D02*
X14591611Y-15883698D01*
X14591611Y-15883698D02*
X14601134Y-15874174D01*
X14601134Y-15874174D02*
X14620182Y-15864650D01*
X14620182Y-15864650D02*
X14648753Y-15864650D01*
X14648753Y-15864650D02*
X14667801Y-15874174D01*
X14667801Y-15874174D02*
X14677325Y-15883698D01*
X14677325Y-15883698D02*
X14686849Y-15902746D01*
X14686849Y-15902746D02*
X14686849Y-15959888D01*
X14686849Y-15959888D02*
X14677325Y-15978936D01*
X14677325Y-15978936D02*
X14667801Y-15988460D01*
X14667801Y-15988460D02*
X14648753Y-15997984D01*
X14648753Y-15997984D02*
X14620182Y-15997984D01*
X14743992Y-15864650D02*
X14820182Y-15864650D01*
X14772563Y-15797984D02*
X14772563Y-15969412D01*
X14772563Y-15969412D02*
X14782087Y-15988460D01*
X14782087Y-15988460D02*
X14801134Y-15997984D01*
X14801134Y-15997984D02*
X14820182Y-15997984D01*
X15039230Y-15864650D02*
X15039230Y-16064650D01*
X15039230Y-15874174D02*
X15058277Y-15864650D01*
X15058277Y-15864650D02*
X15096373Y-15864650D01*
X15096373Y-15864650D02*
X15115420Y-15874174D01*
X15115420Y-15874174D02*
X15124944Y-15883698D01*
X15124944Y-15883698D02*
X15134468Y-15902746D01*
X15134468Y-15902746D02*
X15134468Y-15959888D01*
X15134468Y-15959888D02*
X15124944Y-15978936D01*
X15124944Y-15978936D02*
X15115420Y-15988460D01*
X15115420Y-15988460D02*
X15096373Y-15997984D01*
X15096373Y-15997984D02*
X15058277Y-15997984D01*
X15058277Y-15997984D02*
X15039230Y-15988460D01*
X15248753Y-15997984D02*
X15229706Y-15988460D01*
X15229706Y-15988460D02*
X15220182Y-15969412D01*
X15220182Y-15969412D02*
X15220182Y-15797984D01*
X15410658Y-15997984D02*
X15410658Y-15893222D01*
X15410658Y-15893222D02*
X15401134Y-15874174D01*
X15401134Y-15874174D02*
X15382087Y-15864650D01*
X15382087Y-15864650D02*
X15343992Y-15864650D01*
X15343992Y-15864650D02*
X15324944Y-15874174D01*
X15410658Y-15988460D02*
X15391611Y-15997984D01*
X15391611Y-15997984D02*
X15343992Y-15997984D01*
X15343992Y-15997984D02*
X15324944Y-15988460D01*
X15324944Y-15988460D02*
X15315420Y-15969412D01*
X15315420Y-15969412D02*
X15315420Y-15950365D01*
X15315420Y-15950365D02*
X15324944Y-15931317D01*
X15324944Y-15931317D02*
X15343992Y-15921793D01*
X15343992Y-15921793D02*
X15391611Y-15921793D01*
X15391611Y-15921793D02*
X15410658Y-15912269D01*
X15477325Y-15864650D02*
X15553515Y-15864650D01*
X15505896Y-15797984D02*
X15505896Y-15969412D01*
X15505896Y-15969412D02*
X15515420Y-15988460D01*
X15515420Y-15988460D02*
X15534468Y-15997984D01*
X15534468Y-15997984D02*
X15553515Y-15997984D01*
X15696373Y-15988460D02*
X15677325Y-15997984D01*
X15677325Y-15997984D02*
X15639230Y-15997984D01*
X15639230Y-15997984D02*
X15620182Y-15988460D01*
X15620182Y-15988460D02*
X15610658Y-15969412D01*
X15610658Y-15969412D02*
X15610658Y-15893222D01*
X15610658Y-15893222D02*
X15620182Y-15874174D01*
X15620182Y-15874174D02*
X15639230Y-15864650D01*
X15639230Y-15864650D02*
X15677325Y-15864650D01*
X15677325Y-15864650D02*
X15696373Y-15874174D01*
X15696373Y-15874174D02*
X15705896Y-15893222D01*
X15705896Y-15893222D02*
X15705896Y-15912269D01*
X15705896Y-15912269D02*
X15610658Y-15931317D01*
X15877325Y-15997984D02*
X15877325Y-15797984D01*
X15877325Y-15988460D02*
X15858277Y-15997984D01*
X15858277Y-15997984D02*
X15820182Y-15997984D01*
X15820182Y-15997984D02*
X15801134Y-15988460D01*
X15801134Y-15988460D02*
X15791611Y-15978936D01*
X15791611Y-15978936D02*
X15782087Y-15959888D01*
X15782087Y-15959888D02*
X15782087Y-15902746D01*
X15782087Y-15902746D02*
X15791611Y-15883698D01*
X15791611Y-15883698D02*
X15801134Y-15874174D01*
X15801134Y-15874174D02*
X15820182Y-15864650D01*
X15820182Y-15864650D02*
X15858277Y-15864650D01*
X15858277Y-15864650D02*
X15877325Y-15874174D01*
X15953515Y-16074174D02*
X15963039Y-16064650D01*
X15963039Y-16064650D02*
X15982087Y-16036079D01*
X15982087Y-16036079D02*
X15991611Y-16017031D01*
X15991611Y-16017031D02*
X16001134Y-15988460D01*
X16001134Y-15988460D02*
X16010658Y-15940841D01*
X16010658Y-15940841D02*
X16010658Y-15902746D01*
X16010658Y-15902746D02*
X16001134Y-15855127D01*
X16001134Y-15855127D02*
X15991611Y-15826555D01*
X15991611Y-15826555D02*
X15982087Y-15807508D01*
X15982087Y-15807508D02*
X15963039Y-15778936D01*
X15963039Y-15778936D02*
X15953515Y-15769412D01*
M02*
