M48
; DRILL file {KiCad 8.0.2} date 2024-05-24T13:25:08+0100
; FORMAT={-:-/ absolute / metric / decimal}
; #@! TF.CreationDate,2024-05-24T13:25:08+01:00
; #@! TF.GenerationSoftware,Kicad,Pcbnew,8.0.2
; #@! TF.FileFunction,Plated,1,4,PTH
FMAT,2
METRIC
; #@! TA.AperFunction,Plated,PTH,ViaDrill
T1C0.250
; #@! TA.AperFunction,Plated,PTH,ComponentDrill
T2C0.600
; #@! TA.AperFunction,Plated,PTH,ComponentDrill
T3C0.750
; #@! TA.AperFunction,Plated,PTH,ComponentDrill
T4C0.800
; #@! TA.AperFunction,Plated,PTH,ComponentDrill
T5C0.900
; #@! TA.AperFunction,Plated,PTH,ComponentDrill
T6C1.000
; #@! TA.AperFunction,Plated,PTH,ComponentDrill
T7C1.200
; #@! TA.AperFunction,Plated,PTH,ComponentDrill
T8C1.300
; #@! TA.AperFunction,Plated,PTH,ComponentDrill
T9C1.500
%
G90
G05
T1
X96.114Y-95.352
X96.114Y-130.835
X96.774Y-92.837
X96.774Y-130.175
X97.333Y-127.406
X97.384Y-109.271
X97.942Y-108.585
X101.702Y-132.537
X102.21Y-57.404
X102.87Y-83.312
X103.581Y-107.442
X104.013Y-54.864
X104.191Y-131.674
X104.242Y-115.468
X105.867Y-42.621
X106.832Y-130.175
X108.077Y-102.235
X108.712Y-100.838
X109.322Y-130.835
X109.474Y-97.028
X110.261Y-61.011
X110.261Y-73.914
X111.252Y-96.012
X112.319Y-115.367
X112.319Y-124.003
X114.173Y-93.675
X114.173Y-100.838
X114.402Y-107.442
X118.516Y-129.057
X119.228Y-118.364
X119.228Y-121.666
X119.507Y-102.235
X119.634Y-112.268
X119.761Y-100.584
X120.117Y-130.607
X120.726Y-124.638
X121.412Y-117.577
X121.412Y-127.813
X122.047Y-90.065
X122.682Y-90.715
X123.317Y-91.365
X124.714Y-122.733
X124.739Y-49.784
X124.739Y-113.817
X125.425Y-47.244
X125.425Y-125.273
X125.959Y-127.813
X125.984Y-44.704
X126.543Y-32.004
X126.543Y-116.357
X127.254Y-123.952
X127.279Y-30.353
X127.889Y-33.528
X127.889Y-118.897
X128.549Y-35.941
X128.549Y-121.412
X129.311Y-120.193
X129.337Y-58.801
X129.921Y-61.214
X129.921Y-111.303
X129.921Y-113.284
X131.089Y-66.319
X131.115Y-100.33
X131.115Y-131.674
X132.486Y-88.849
X133.198Y-112.573
X133.198Y-131.978
X134.62Y-78.994
X134.62Y-97.942
X134.874Y-115.037
X134.874Y-127.813
X135.89Y-123.19
X135.941Y-95.047
X135.941Y-117.094
X136.652Y-118.11
X139.7Y-70.129
X139.725Y-42.316
X140.487Y-34.747
X140.487Y-68.809
X144.729Y-123.342
X145.39Y-107.34
X145.39Y-110.033
X146.507Y-102.413
X146.507Y-108.204
X147.523Y-102.464
X147.523Y-104.953
X147.65Y-67.564
X147.65Y-73.914
X148.387Y-84.023
X148.387Y-113.792
X149.555Y-88.544
X149.555Y-93.675
X150.165Y-111.557
X150.165Y-115.164
X151.181Y-125.984
X151.206Y-92.253
X151.435Y-78.283
X151.435Y-82.804
X151.892Y-97.333
X151.892Y-118.872
X152.654Y-98.857
X152.654Y-114.503
X155.143Y-105.562
X155.143Y-111.303
X155.727Y-62.865
X155.753Y-75.184
X155.854Y-103.683
X155.854Y-113.792
X156.464Y-102.413
X156.464Y-116.281
X159.741Y-110.998
X159.766Y-103.022
X159.868Y-87.884
X159.944Y-125.273
X159.944Y-131.445
X160.325Y-106.02
X160.401Y-110.033
X160.401Y-113.055
X160.63Y-124.104
X160.63Y-130.861
X160.884Y-94.793
X160.884Y-120.726
X161.696Y-104.292
X161.747Y-81.534
X162.458Y-116.84
X162.763Y-82.499
X162.763Y-88.544
X163.271Y-90.729
X163.271Y-96.114
X163.271Y-102.362
X163.881Y-86.411
X164.236Y-97.333
X164.465Y-49.911
X167.894Y-105.359
X168.427Y-96.622
X169.037Y-50.8
X169.418Y-86.233
X169.469Y-99.365
X170.231Y-79.756
X170.409Y-38.837
X170.459Y-42.443
X170.485Y-122.53
X170.942Y-80.823
X171.094Y-101.498
X171.247Y-78.435
X171.653Y-132.182
X171.679Y-129.159
X171.983Y-119.405
X172.009Y-116.23
X172.314Y-113.081
X172.985Y-130.886
X174.168Y-103.657
X174.295Y-123.952
X175.514Y-129.794
X175.525Y-114.351
X175.92Y-76.352
X176.174Y-97.587
X176.174Y-123.393
X176.632Y-85.75
X176.936Y-118.11
X177.419Y-70.485
X177.444Y-79.07
X177.444Y-86.462
X177.444Y-131.572
X177.495Y-117.196
X177.597Y-105.359
X178.065Y-121.895
X178.079Y-114.325
X178.079Y-130.404
X178.308Y-104.496
X178.816Y-38.862
X178.827Y-131.42
X178.841Y-34.798
X178.968Y-115.113
X179.375Y-123.952
X179.984Y-102.362
X181.254Y-79.07
X181.254Y-93.472
X181.305Y-104.496
X181.356Y-132.055
X181.61Y-67.386
X182.524Y-84.963
X182.524Y-103.022
X183.439Y-105.664
X183.464Y-42.443
X183.693Y-85.75
X184.15Y-138.176
X184.455Y-86.563
X184.912Y-66.675
X185.064Y-78.435
X185.064Y-101.498
X185.064Y-106.426
X185.064Y-107.239
X185.268Y-90.068
X185.572Y-93.472
X185.928Y-103.937
X186.207Y-66.827
X186.334Y-82.448
X186.969Y-132.055
X187.173Y-53.416
X187.249Y-114.859
X187.884Y-120.701
X187.884Y-128.499
X187.884Y-130.327
X188.087Y-136.246
X188.138Y-113.081
X188.316Y-103.734
X188.468Y-131.42
X188.722Y-73.152
X189.128Y-118.161
X189.23Y-124.13
X189.255Y-130.886
X190.043Y-102.667
X190.043Y-138.176
X190.5Y-65.634
X190.551Y-143.231
X191.516Y-38.837
X191.516Y-42.469
X191.745Y-136.119
X191.973Y-77.165
X191.973Y-107.239
X192.634Y-90.018
X194.31Y-142.011
X194.335Y-135.89
X194.869Y-136.804
X194.894Y-125.374
X195.453Y-117.754
X195.453Y-134.772
X195.478Y-113.97
X195.478Y-116.459
X196.088Y-119.761
X196.088Y-129.235
X196.647Y-126.721
X197.968Y-73.431
X197.968Y-76.657
X197.968Y-92.126
X198.12Y-127.813
X198.12Y-131.724
X198.145Y-59.69
X198.145Y-63.449
X199.39Y-142.697
X199.669Y-87.452
X200.406Y-40.716
X201.016Y-80.391
X201.016Y-102.641
X201.803Y-135.865
X201.93Y-118.999
X202.286Y-127.914
X202.286Y-137.363
X202.921Y-117.754
X202.921Y-137.871
X203.314Y-45.758
X203.505Y-126.594
X203.517Y-122.491
X203.708Y-68.123
X203.733Y-58.166
X204.419Y-84.785
X205.359Y-42.494
X206.248Y-61.468
X206.426Y-38.887
X207.239Y-122.911
X207.239Y-134.315
X207.264Y-122.072
X207.747Y-127.94
X207.772Y-132.969
X208.178Y-112.674
X208.28Y-130.454
X208.813Y-77.699
X208.813Y-84.684
X208.966Y-40.716
X209.601Y-89.713
X209.601Y-99.568
X209.715Y-130.975
X210.566Y-122.834
X211.176Y-127.914
X211.176Y-133.858
X211.506Y-41.707
X211.582Y-112.674
X211.582Y-116.459
X211.988Y-99.822
X212.598Y-79.35
X213.893Y-77.546
X214.96Y-120.294
X215.138Y-122.276
X215.138Y-123.571
X215.824Y-98.806
X215.849Y-116.459
X215.925Y-126.67
X215.925Y-141.707
X216.408Y-73.457
X216.433Y-69.088
X216.51Y-111.506
X217.068Y-79.35
X218.364Y-83.998
X218.669Y-35.052
X219.659Y-77.546
X220.142Y-122.834
X221.031Y-141.732
X221.31Y-120.802
X221.31Y-125.781
X221.945Y-131.166
X221.996Y-133.96
X222.199Y-68.123
X222.199Y-75.514
X222.225Y-99.085
X223.444Y-99.822
X223.469Y-89.764
X223.545Y-124.689
X223.545Y-142.215
X224.307Y-132.994
X225.984Y-73.431
X225.995Y-83.82
X226.06Y-137.871
X227.279Y-88.951
X227.33Y-135.331
X227.457Y-132.588
X228.016Y-116.51
X228.016Y-120.294
X228.016Y-133.274
X228.244Y-42.418
X228.549Y-99.085
X228.676Y-137.16
X229.87Y-135.89
X230.886Y-121.92
X230.886Y-134.239
X231.089Y-94.691
X231.191Y-136.5
X232.41Y-134.772
X232.41Y-143.231
X232.816Y-83.82
X233.655Y-142.723
X235.052Y-137.846
X236.169Y-57.404
X236.296Y-137.16
X236.906Y-134.137
X237.261Y-40.437
X237.312Y-63.627
X237.592Y-135.331
X238.303Y-133.553
X238.811Y-143.231
X240.132Y-135.89
X240.995Y-42.443
X241.351Y-136.5
X242.214Y-95.86
X242.57Y-137.363
X242.595Y-142.773
X242.672Y-134.798
X242.849Y-63.652
X243.84Y-141.199
X244.145Y-54.762
X244.145Y-60.96
X245.085Y-120.625
X245.085Y-124.46
X245.11Y-141.224
X245.11Y-141.986
X245.364Y-57.404
X245.364Y-102.921
X245.389Y-54.051
X246.355Y-143.256
X246.431Y-128.905
X248.641Y-42.393
X248.895Y-120.879
X248.945Y-141.224
X249.809Y-108.763
X250.19Y-137.947
X251.511Y-137.363
X251.511Y-142.748
X253.365Y-66.37
X253.975Y-111.354
X253.975Y-121.92
X253.975Y-141.986
X254.432Y-62.027
X254.457Y-32.08
X255.397Y-115.722
X255.397Y-119.228
X255.702Y-55.829
X255.702Y-61.011
X257.8Y-57.404
X264.185Y-57.607
T3
X263.398Y-124.968
X264.668Y-123.698
X265.938Y-124.968
T4
X94.183Y-76.342
X94.183Y-78.842
X97.536Y-32.004
X97.536Y-34.544
X97.536Y-37.084
X97.536Y-39.624
X97.536Y-42.164
X97.536Y-44.704
X97.536Y-47.244
X97.536Y-49.784
X97.536Y-52.324
X97.536Y-54.864
X97.536Y-57.404
X97.536Y-59.944
X97.536Y-62.484
X97.536Y-65.024
X97.536Y-67.564
X97.536Y-70.104
X97.536Y-72.644
X97.536Y-75.184
X97.536Y-77.724
X97.536Y-80.264
X99.16Y-113.46
X99.16Y-116.0
X99.16Y-118.54
X99.16Y-121.08
X99.16Y-123.62
X99.16Y-126.16
X99.986Y-102.91
X99.986Y-105.41
X101.7Y-110.92
X101.7Y-113.46
X101.7Y-116.0
X101.7Y-118.54
X101.7Y-121.08
X101.7Y-123.62
X101.7Y-126.16
X101.7Y-128.7
X104.24Y-110.92
X104.24Y-113.46
X104.24Y-126.16
X104.24Y-128.7
X104.648Y-88.138
X104.648Y-98.298
X105.5Y-104.013
X106.78Y-110.92
X106.78Y-113.46
X106.78Y-126.16
X106.78Y-128.7
X108.204Y-88.163
X108.204Y-98.323
X109.32Y-110.92
X109.32Y-113.46
X109.32Y-126.16
X109.32Y-128.7
X110.4Y-104.013
X111.76Y-88.138
X111.76Y-98.298
X111.86Y-110.92
X111.86Y-113.46
X111.86Y-126.16
X111.86Y-128.7
X112.776Y-32.004
X112.776Y-34.544
X112.776Y-37.084
X112.776Y-39.624
X112.776Y-42.164
X112.776Y-44.704
X112.776Y-47.244
X112.776Y-49.784
X112.776Y-52.324
X112.776Y-54.864
X112.776Y-57.404
X112.776Y-59.944
X112.776Y-62.484
X112.776Y-65.024
X112.776Y-67.564
X112.776Y-70.104
X112.776Y-72.644
X112.776Y-75.184
X112.776Y-77.724
X112.776Y-80.264
X114.4Y-110.92
X114.4Y-113.46
X114.4Y-116.0
X114.4Y-118.54
X114.4Y-121.08
X114.4Y-123.62
X114.4Y-126.16
X114.4Y-128.7
X116.078Y-105.283
X116.2Y-134.2
X116.94Y-113.46
X116.94Y-116.0
X116.94Y-118.54
X116.94Y-121.08
X116.94Y-123.62
X116.94Y-126.16
X118.578Y-105.283
X118.7Y-134.2
X121.666Y-32.004
X121.666Y-34.544
X121.666Y-37.084
X121.666Y-39.624
X121.666Y-42.164
X121.666Y-44.704
X121.666Y-47.244
X121.666Y-49.784
X121.666Y-52.324
X121.666Y-54.864
X121.666Y-57.404
X121.666Y-59.944
X121.666Y-62.484
X121.666Y-65.024
X121.666Y-67.564
X121.666Y-70.104
X121.666Y-72.644
X121.666Y-75.184
X121.666Y-77.724
X121.666Y-80.264
X123.19Y-97.333
X123.19Y-99.873
X123.19Y-102.413
X123.19Y-104.953
X123.19Y-107.493
X123.19Y-110.033
X123.19Y-112.573
X123.19Y-115.113
X123.19Y-117.653
X123.19Y-120.193
X123.19Y-122.733
X123.19Y-125.273
X123.19Y-127.813
X123.19Y-130.353
X125.262Y-134.163
X127.762Y-134.163
X133.136Y-134.163
X135.636Y-134.163
X136.906Y-32.004
X136.906Y-34.544
X136.906Y-37.084
X136.906Y-39.624
X136.906Y-42.164
X136.906Y-44.704
X136.906Y-47.244
X136.906Y-49.784
X136.906Y-52.324
X136.906Y-54.864
X136.906Y-57.404
X136.906Y-59.944
X136.906Y-62.484
X136.906Y-65.024
X136.906Y-67.564
X136.906Y-70.104
X136.906Y-72.644
X136.906Y-75.184
X136.906Y-77.724
X136.906Y-80.264
X138.43Y-97.333
X138.43Y-99.873
X138.43Y-102.413
X138.43Y-104.953
X138.43Y-107.493
X138.43Y-110.033
X138.43Y-112.573
X138.43Y-115.113
X138.43Y-117.653
X138.43Y-120.193
X138.43Y-122.733
X138.43Y-125.273
X138.43Y-127.813
X138.43Y-130.353
X140.208Y-85.384
X140.208Y-87.884
X141.427Y-75.427
X141.427Y-77.927
X142.799Y-92.253
X142.799Y-94.793
X142.799Y-97.333
X142.799Y-99.873
X142.799Y-102.413
X142.799Y-104.953
X142.799Y-107.493
X142.799Y-110.033
X142.799Y-112.573
X142.799Y-115.113
X142.799Y-117.653
X142.799Y-120.193
X142.799Y-122.733
X142.799Y-125.273
X142.799Y-127.813
X142.799Y-130.353
X145.105Y-134.163
X145.796Y-48.133
X145.796Y-50.673
X145.796Y-53.213
X145.796Y-55.753
X145.796Y-58.293
X145.796Y-60.833
X145.796Y-63.373
X145.796Y-67.564
X145.796Y-70.104
X145.796Y-72.644
X145.796Y-75.184
X145.796Y-77.724
X145.796Y-80.264
X145.796Y-82.804
X145.796Y-85.344
X147.605Y-134.163
X151.201Y-134.163
X153.416Y-48.133
X153.416Y-50.673
X153.416Y-53.213
X153.416Y-55.753
X153.416Y-58.293
X153.416Y-60.833
X153.416Y-63.373
X153.416Y-67.564
X153.416Y-70.104
X153.416Y-72.644
X153.416Y-75.184
X153.416Y-77.724
X153.416Y-80.264
X153.416Y-82.804
X153.416Y-85.344
X153.701Y-134.163
X156.032Y-42.316
X156.046Y-34.773
X157.734Y-60.833
X157.734Y-63.333
X158.039Y-92.253
X158.039Y-94.793
X158.039Y-97.333
X158.039Y-99.873
X158.039Y-102.413
X158.039Y-104.953
X158.039Y-107.493
X158.039Y-110.033
X158.039Y-112.573
X158.039Y-115.113
X158.039Y-117.653
X158.039Y-120.193
X158.039Y-122.733
X158.039Y-125.273
X158.039Y-127.813
X158.039Y-130.353
X158.13Y-72.629
X158.13Y-75.169
X158.13Y-77.709
X158.13Y-80.249
X158.13Y-82.789
X158.13Y-85.329
X158.532Y-42.316
X158.546Y-34.773
X159.817Y-134.163
X162.317Y-134.163
X162.56Y-34.798
X162.56Y-38.862
X162.56Y-42.418
X162.687Y-50.687
X162.687Y-53.848
X162.981Y-57.023
X163.322Y-62.865
X163.322Y-70.485
X163.489Y-46.101
X165.365Y-110.541
X165.365Y-113.081
X165.365Y-115.621
X165.365Y-118.161
X165.365Y-120.701
X165.365Y-123.241
X165.365Y-125.781
X165.481Y-57.023
X165.989Y-46.101
X166.127Y-134.163
X167.905Y-108.001
X167.905Y-110.541
X167.905Y-113.081
X167.905Y-115.621
X167.905Y-118.161
X167.905Y-120.701
X167.905Y-123.241
X167.905Y-125.781
X167.905Y-128.321
X168.667Y-134.163
X169.077Y-57.023
X169.85Y-46.101
X170.445Y-108.001
X170.445Y-110.541
X170.445Y-125.781
X170.445Y-128.321
X170.942Y-62.865
X170.942Y-70.485
X171.207Y-134.163
X171.577Y-57.023
X171.704Y-75.692
X172.35Y-46.101
X172.364Y-83.693
X172.364Y-86.233
X172.364Y-88.773
X172.364Y-91.313
X172.364Y-93.853
X172.364Y-96.393
X172.72Y-34.798
X172.72Y-38.862
X172.72Y-42.418
X172.847Y-50.687
X172.847Y-53.848
X172.985Y-108.001
X172.985Y-110.541
X172.985Y-125.781
X172.985Y-128.321
X173.747Y-134.163
X174.204Y-75.692
X174.904Y-81.153
X174.904Y-83.693
X174.904Y-86.233
X174.904Y-88.773
X174.904Y-91.313
X174.904Y-93.853
X174.904Y-96.393
X174.904Y-98.933
X175.046Y-31.242
X175.525Y-108.001
X175.525Y-110.541
X175.525Y-125.781
X175.525Y-128.321
X175.768Y-34.812
X175.768Y-38.862
X175.768Y-42.432
X176.287Y-134.163
X176.316Y-49.276
X176.316Y-56.896
X177.444Y-81.153
X177.444Y-83.693
X177.444Y-96.393
X177.444Y-98.933
X177.546Y-31.242
X178.065Y-108.001
X178.065Y-110.541
X178.065Y-125.781
X178.065Y-128.321
X178.816Y-49.276
X178.816Y-56.896
X178.827Y-134.163
X179.984Y-81.153
X179.984Y-83.693
X179.984Y-96.393
X179.984Y-98.933
X180.34Y-63.5
X180.34Y-71.12
X180.605Y-108.001
X180.605Y-110.541
X180.605Y-125.781
X180.605Y-128.321
X181.367Y-134.163
X182.412Y-49.276
X182.412Y-56.896
X182.524Y-81.153
X182.524Y-83.693
X182.524Y-96.393
X182.524Y-98.933
X182.88Y-63.5
X182.88Y-71.12
X183.145Y-108.001
X183.145Y-110.541
X183.145Y-113.081
X183.145Y-115.621
X183.145Y-118.161
X183.145Y-120.701
X183.145Y-123.241
X183.145Y-125.781
X183.145Y-128.321
X183.907Y-134.163
X184.912Y-49.276
X184.912Y-56.896
X185.064Y-81.153
X185.064Y-83.693
X185.064Y-96.393
X185.064Y-98.933
X185.42Y-63.5
X185.42Y-71.12
X185.685Y-110.541
X185.685Y-113.081
X185.685Y-115.621
X185.685Y-118.161
X185.685Y-120.701
X185.685Y-123.241
X185.685Y-125.781
X185.928Y-34.812
X185.928Y-38.862
X185.928Y-42.432
X186.222Y-74.93
X186.447Y-134.163
X187.604Y-81.153
X187.604Y-83.693
X187.604Y-86.233
X187.604Y-88.773
X187.604Y-91.313
X187.604Y-93.853
X187.604Y-96.393
X187.604Y-98.933
X187.96Y-63.5
X187.96Y-71.12
X188.508Y-56.896
X188.722Y-34.812
X188.722Y-38.862
X188.722Y-42.418
X188.722Y-74.93
X189.194Y-48.082
X190.144Y-83.693
X190.144Y-86.233
X190.144Y-88.773
X190.144Y-91.313
X190.144Y-93.853
X190.144Y-96.393
X190.5Y-63.5
X190.5Y-71.12
X191.008Y-56.896
X191.694Y-48.082
X192.572Y-74.93
X192.634Y-110.134
X192.634Y-112.674
X192.634Y-115.214
X192.634Y-117.754
X192.634Y-120.294
X192.634Y-122.834
X192.634Y-125.374
X192.634Y-127.914
X192.634Y-130.454
X192.634Y-132.994
X193.04Y-63.5
X193.04Y-71.12
X194.564Y-56.896
X195.072Y-74.93
X195.214Y-106.578
X195.58Y-63.5
X195.58Y-71.12
X195.58Y-90.972
X195.58Y-93.472
X195.58Y-97.576
X195.58Y-100.076
X195.605Y-48.082
X195.809Y-80.264
X195.809Y-82.764
X197.064Y-56.896
X197.714Y-106.578
X198.105Y-48.082
X198.882Y-34.812
X198.882Y-38.862
X198.882Y-42.418
X199.684Y-75.438
X200.254Y-110.134
X200.254Y-112.674
X200.254Y-115.214
X200.254Y-117.754
X200.254Y-120.294
X200.254Y-122.834
X200.254Y-125.374
X200.254Y-127.914
X200.254Y-130.454
X200.254Y-132.994
X201.168Y-63.5
X201.168Y-71.12
X202.072Y-48.133
X202.184Y-59.69
X202.184Y-75.438
X203.135Y-86.475
X203.135Y-101.715
X203.708Y-63.5
X203.708Y-71.12
X203.86Y-36.601
X203.86Y-44.221
X204.572Y-48.133
X205.588Y-110.134
X205.588Y-112.674
X205.588Y-115.214
X205.588Y-117.754
X205.588Y-120.294
X205.588Y-122.834
X205.588Y-125.374
X205.588Y-127.914
X205.588Y-130.454
X205.588Y-132.994
X205.675Y-86.475
X205.675Y-101.715
X206.248Y-63.5
X206.248Y-71.12
X206.273Y-75.489
X206.4Y-36.601
X206.4Y-44.221
X208.215Y-86.475
X208.215Y-101.715
X208.422Y-106.324
X208.788Y-63.5
X208.788Y-71.12
X208.813Y-75.489
X208.828Y-50.419
X208.94Y-36.601
X208.94Y-44.221
X210.755Y-86.475
X210.755Y-101.715
X210.922Y-106.324
X211.328Y-50.419
X211.328Y-63.5
X211.328Y-71.12
X211.353Y-75.489
X211.48Y-36.601
X211.48Y-44.221
X212.344Y-59.69
X213.208Y-110.134
X213.208Y-112.674
X213.208Y-115.214
X213.208Y-117.754
X213.208Y-120.294
X213.208Y-122.834
X213.208Y-125.374
X213.208Y-127.914
X213.208Y-130.454
X213.208Y-132.994
X213.295Y-86.475
X213.295Y-101.715
X213.868Y-63.5
X213.868Y-71.12
X213.893Y-75.489
X215.178Y-50.292
X215.432Y-59.69
X215.835Y-86.475
X215.835Y-101.715
X216.408Y-63.5
X216.408Y-71.12
X216.433Y-75.489
X216.662Y-35.052
X216.662Y-45.212
X217.678Y-50.292
X217.932Y-59.69
X218.288Y-110.134
X218.288Y-112.674
X218.288Y-115.214
X218.288Y-117.754
X218.288Y-120.294
X218.288Y-122.834
X218.288Y-125.374
X218.288Y-127.914
X218.288Y-130.454
X218.288Y-132.994
X218.375Y-86.475
X218.375Y-101.715
X218.948Y-63.5
X218.948Y-71.12
X218.973Y-75.489
X220.915Y-86.475
X220.915Y-101.715
X220.98Y-35.052
X220.98Y-45.212
X221.223Y-106.375
X221.528Y-50.292
X223.455Y-86.475
X223.455Y-101.715
X223.723Y-106.375
X224.028Y-50.292
X224.282Y-63.032
X224.282Y-65.532
X224.282Y-68.874
X224.282Y-71.374
X224.576Y-33.528
X225.908Y-110.134
X225.908Y-112.674
X225.908Y-115.214
X225.908Y-117.754
X225.908Y-120.294
X225.908Y-122.834
X225.908Y-125.374
X225.908Y-127.914
X225.908Y-130.454
X225.908Y-132.994
X225.995Y-86.475
X225.995Y-101.715
X227.076Y-33.528
X227.838Y-50.292
X228.092Y-57.404
X228.092Y-60.96
X228.346Y-38.608
X228.346Y-46.228
X228.535Y-86.475
X228.535Y-101.715
X229.91Y-80.4
X230.632Y-106.451
X230.692Y-33.538
X230.886Y-38.608
X230.886Y-46.228
X231.075Y-86.475
X231.075Y-101.715
X231.18Y-66.294
X232.41Y-80.4
X232.435Y-116.84
X232.435Y-119.38
X232.435Y-121.92
X232.435Y-124.46
X232.435Y-127.0
X232.435Y-129.54
X233.192Y-33.538
X233.426Y-38.608
X233.426Y-46.228
X233.68Y-66.294
X234.975Y-114.3
X234.975Y-116.84
X234.975Y-119.38
X234.975Y-121.92
X234.975Y-124.46
X234.975Y-127.0
X234.975Y-129.54
X234.975Y-132.08
X235.0Y-98.8
X235.0Y-101.3
X235.1Y-87.1
X235.1Y-89.6
X235.966Y-38.608
X235.966Y-46.228
X236.768Y-80.264
X237.042Y-33.538
X237.301Y-66.548
X237.515Y-114.3
X237.515Y-116.84
X237.515Y-129.54
X237.515Y-132.08
X237.998Y-50.292
X238.252Y-57.404
X238.252Y-60.96
X238.506Y-38.608
X238.506Y-46.228
X239.268Y-80.264
X239.542Y-33.538
X239.801Y-66.548
X240.055Y-114.3
X240.055Y-116.84
X240.055Y-129.54
X240.055Y-132.08
X240.792Y-57.404
X240.792Y-60.96
X240.792Y-106.451
X241.046Y-38.608
X241.046Y-46.228
X242.2Y-50.1
X242.2Y-52.6
X242.595Y-114.3
X242.595Y-116.84
X242.595Y-129.54
X242.595Y-132.08
X243.397Y-33.528
X243.586Y-38.608
X243.586Y-46.228
X244.134Y-106.426
X245.135Y-114.3
X245.135Y-116.84
X245.135Y-129.54
X245.135Y-132.08
X245.897Y-33.528
X246.126Y-38.608
X246.126Y-46.228
X246.634Y-106.426
X247.1Y-50.2
X247.1Y-52.7
X247.675Y-114.3
X247.675Y-116.84
X247.675Y-119.38
X247.675Y-121.92
X247.675Y-124.46
X247.675Y-127.0
X247.675Y-129.54
X247.675Y-132.08
X248.666Y-38.608
X248.666Y-46.228
X250.001Y-33.528
X250.19Y-106.426
X250.215Y-116.84
X250.215Y-119.38
X250.215Y-121.92
X250.215Y-124.46
X250.215Y-127.0
X250.215Y-129.54
X250.444Y-64.008
X250.444Y-74.168
X250.444Y-77.256
X250.444Y-79.756
X250.952Y-57.404
X250.952Y-60.96
X251.206Y-38.608
X251.206Y-46.228
X251.7Y-50.1
X251.7Y-52.6
X252.501Y-33.528
X252.69Y-106.426
X255.016Y-64.008
X255.016Y-74.168
X255.016Y-77.256
X255.016Y-79.756
X256.58Y-34.544
X257.048Y-38.608
X257.048Y-46.228
X257.302Y-128.818
X257.302Y-131.318
X257.8Y-50.9
X257.8Y-53.4
X257.81Y-103.378
X258.866Y-82.296
X259.08Y-34.544
X259.588Y-38.608
X259.588Y-46.228
X260.31Y-103.378
X261.366Y-82.296
X261.6Y-51.9
X262.128Y-38.608
X262.128Y-46.228
X262.422Y-34.544
X262.89Y-108.458
X262.89Y-118.618
X264.1Y-51.9
X264.668Y-38.608
X264.668Y-46.228
X264.922Y-34.544
X267.208Y-108.458
X267.208Y-118.618
T5
X116.205Y-85.217
X116.205Y-91.821
X116.205Y-98.425
X118.745Y-85.217
X118.745Y-91.821
X118.745Y-98.425
X263.652Y-131.318
X266.192Y-131.318
T6
X100.0Y-85.192
X100.0Y-87.732
X100.0Y-90.272
X100.0Y-92.812
X100.0Y-95.352
X100.0Y-97.892
X166.624Y-87.884
X166.624Y-90.424
X166.624Y-92.964
X166.624Y-95.504
X166.624Y-98.044
X166.624Y-100.584
X181.61Y-139.6
X181.61Y-144.68
X184.15Y-139.6
X184.15Y-144.68
X186.69Y-139.6
X186.69Y-144.68
X189.23Y-139.6
X189.23Y-144.68
X191.77Y-139.6
X191.77Y-144.68
X194.31Y-139.6
X194.31Y-144.68
X196.85Y-139.6
X196.85Y-144.68
X199.39Y-139.6
X199.39Y-144.68
X201.93Y-139.6
X201.93Y-144.68
X204.47Y-139.6
X204.47Y-144.68
X207.01Y-139.6
X207.01Y-144.68
X209.55Y-139.6
X209.55Y-144.68
X212.09Y-139.6
X212.09Y-144.68
X214.63Y-139.6
X214.63Y-144.68
X217.17Y-139.6
X217.17Y-144.68
X219.71Y-139.6
X219.71Y-144.68
X222.25Y-139.6
X222.25Y-144.68
X224.79Y-139.6
X224.79Y-144.68
X227.33Y-139.6
X227.33Y-144.68
X229.87Y-139.6
X229.87Y-144.68
X232.41Y-139.6
X232.41Y-144.68
X234.95Y-139.6
X234.95Y-144.68
X237.49Y-139.6
X237.49Y-144.68
X240.03Y-139.6
X240.03Y-144.68
X242.57Y-139.6
X242.57Y-144.68
X245.11Y-139.6
X245.11Y-144.68
X247.65Y-139.6
X247.65Y-144.68
X250.19Y-139.6
X250.19Y-144.68
X252.73Y-139.6
X252.73Y-144.68
X255.27Y-139.6
X255.27Y-144.68
X257.454Y-111.608
X257.454Y-114.148
X257.454Y-116.688
X257.454Y-119.228
X257.454Y-121.768
X257.454Y-124.308
X257.81Y-139.6
X257.81Y-144.68
X260.35Y-139.6
X260.35Y-144.68
T7
X261.658Y-60.802
X261.658Y-65.802
X261.658Y-70.802
X266.658Y-60.802
X266.658Y-65.802
X266.658Y-70.802
T8
X233.088Y-70.414
X233.088Y-75.414
X243.502Y-70.454
X243.502Y-75.454
X249.0Y-87.173
X249.0Y-96.774
X254.0Y-87.173
X254.0Y-96.774
T9
X158.242Y-50.038
X158.242Y-54.938
T2
X260.02Y-87.416G85X260.92Y-87.416
G05
X260.02Y-89.916G85X260.92Y-89.916
G05
X260.02Y-94.916G85X260.92Y-94.916
G05
X260.02Y-97.416G85X260.92Y-97.416
G05
X265.47Y-92.866G85X265.47Y-91.966
G05
M30
