G04 #@! TF.GenerationSoftware,KiCad,Pcbnew,8.0.2*
G04 #@! TF.CreationDate,2024-05-24T13:25:02+01:00*
G04 #@! TF.ProjectId,AudioYM2151V2,41756469-6f59-44d3-9231-353156322e6b,rev?*
G04 #@! TF.SameCoordinates,Original*
G04 #@! TF.FileFunction,Soldermask,Top*
G04 #@! TF.FilePolarity,Negative*
%FSLAX46Y46*%
G04 Gerber Fmt 4.6, Leading zero omitted, Abs format (unit mm)*
G04 Created by KiCad (PCBNEW 8.0.2) date 2024-05-24 13:25:02*
%MOMM*%
%LPD*%
G01*
G04 APERTURE LIST*
G04 Aperture macros list*
%AMRoundRect*
0 Rectangle with rounded corners*
0 $1 Rounding radius*
0 $2 $3 $4 $5 $6 $7 $8 $9 X,Y pos of 4 corners*
0 Add a 4 corners polygon primitive as box body*
4,1,4,$2,$3,$4,$5,$6,$7,$8,$9,$2,$3,0*
0 Add four circle primitives for the rounded corners*
1,1,$1+$1,$2,$3*
1,1,$1+$1,$4,$5*
1,1,$1+$1,$6,$7*
1,1,$1+$1,$8,$9*
0 Add four rect primitives between the rounded corners*
20,1,$1+$1,$2,$3,$4,$5,0*
20,1,$1+$1,$4,$5,$6,$7,0*
20,1,$1+$1,$6,$7,$8,$9,0*
20,1,$1+$1,$8,$9,$2,$3,0*%
G04 Aperture macros list end*
%ADD10R,1.600000X1.600000*%
%ADD11O,1.600000X1.600000*%
%ADD12C,1.600000*%
%ADD13C,1.500000*%
%ADD14C,2.600000*%
%ADD15R,1.422400X1.422400*%
%ADD16C,1.422400*%
%ADD17R,3.000000X3.000000*%
%ADD18C,3.000000*%
%ADD19RoundRect,0.100000X-0.712500X-0.100000X0.712500X-0.100000X0.712500X0.100000X-0.712500X0.100000X0*%
%ADD20C,1.200000*%
%ADD21O,1.504000X2.804000*%
%ADD22O,2.804000X1.504000*%
%ADD23C,2.300000*%
%ADD24R,1.700000X1.700000*%
%ADD25O,1.700000X1.700000*%
%ADD26R,1.800000X1.800000*%
%ADD27C,1.800000*%
%ADD28R,1.300000X1.300000*%
%ADD29C,1.300000*%
%ADD30C,2.850000*%
%ADD31RoundRect,0.249999X0.525001X0.525001X-0.525001X0.525001X-0.525001X-0.525001X0.525001X-0.525001X0*%
%ADD32C,1.550000*%
G04 APERTURE END LIST*
D10*
X123190000Y-97332800D03*
D11*
X123190000Y-99872800D03*
X123190000Y-102412800D03*
X123190000Y-104952800D03*
X123190000Y-107492800D03*
X123190000Y-110032800D03*
X123190000Y-112572800D03*
X123190000Y-115112800D03*
X123190000Y-117652800D03*
X123190000Y-120192800D03*
X123190000Y-122732800D03*
X123190000Y-125272800D03*
X123190000Y-127812800D03*
X123190000Y-130352800D03*
X138430000Y-130352800D03*
X138430000Y-127812800D03*
X138430000Y-125272800D03*
X138430000Y-122732800D03*
X138430000Y-120192800D03*
X138430000Y-117652800D03*
X138430000Y-115112800D03*
X138430000Y-112572800D03*
X138430000Y-110032800D03*
X138430000Y-107492800D03*
X138430000Y-104952800D03*
X138430000Y-102412800D03*
X138430000Y-99872800D03*
X138430000Y-97332800D03*
D10*
X176316000Y-56896000D03*
D12*
X178816000Y-56896000D03*
D13*
X105500000Y-104013000D03*
X110400000Y-104013000D03*
D14*
X243502000Y-70454000D03*
X243502000Y-75454000D03*
D12*
X262890000Y-118618000D03*
D11*
X262890000Y-108458000D03*
D10*
X250000888Y-33528000D03*
D12*
X252500888Y-33528000D03*
D10*
X230691888Y-33538000D03*
D12*
X233191888Y-33538000D03*
X111760000Y-88138000D03*
D11*
X111760000Y-98298000D03*
D10*
X156046288Y-34772600D03*
D12*
X158546288Y-34772600D03*
D10*
X243396888Y-33528000D03*
D12*
X245896888Y-33528000D03*
X223723200Y-106375200D03*
X221223200Y-106375200D03*
X202184000Y-59690000D03*
D11*
X212344000Y-59690000D03*
D10*
X182412000Y-56896000D03*
D12*
X184912000Y-56896000D03*
D10*
X205587600Y-110134400D03*
D11*
X205587600Y-112674400D03*
X205587600Y-115214400D03*
X205587600Y-117754400D03*
X205587600Y-120294400D03*
X205587600Y-122834400D03*
X205587600Y-125374400D03*
X205587600Y-127914400D03*
X205587600Y-130454400D03*
X205587600Y-132994400D03*
X213207600Y-132994400D03*
X213207600Y-130454400D03*
X213207600Y-127914400D03*
X213207600Y-125374400D03*
X213207600Y-122834400D03*
X213207600Y-120294400D03*
X213207600Y-117754400D03*
X213207600Y-115214400D03*
X213207600Y-112674400D03*
X213207600Y-110134400D03*
D12*
X175046000Y-31242000D03*
X177546000Y-31242000D03*
D10*
X257810000Y-103378000D03*
D12*
X260310000Y-103378000D03*
X224282000Y-68874000D03*
X224282000Y-71374000D03*
X175768000Y-38862000D03*
D11*
X185928000Y-38862000D03*
D10*
X203860400Y-44221400D03*
D11*
X206400400Y-44221400D03*
X208940400Y-44221400D03*
X211480400Y-44221400D03*
X211480400Y-36601400D03*
X208940400Y-36601400D03*
X206400400Y-36601400D03*
X203860400Y-36601400D03*
D12*
X228092000Y-60960000D03*
D11*
X238252000Y-60960000D03*
D10*
X231075000Y-86475000D03*
D11*
X228535000Y-86475000D03*
X225995000Y-86475000D03*
X223455000Y-86475000D03*
X220915000Y-86475000D03*
X218375000Y-86475000D03*
X215835000Y-86475000D03*
X213295000Y-86475000D03*
X210755000Y-86475000D03*
X208215000Y-86475000D03*
X205675000Y-86475000D03*
X203135000Y-86475000D03*
X203135000Y-101715000D03*
X205675000Y-101715000D03*
X208215000Y-101715000D03*
X210755000Y-101715000D03*
X213295000Y-101715000D03*
X215835000Y-101715000D03*
X218375000Y-101715000D03*
X220915000Y-101715000D03*
X223455000Y-101715000D03*
X225995000Y-101715000D03*
X228535000Y-101715000D03*
X231075000Y-101715000D03*
D10*
X261600000Y-51900000D03*
D12*
X264100000Y-51900000D03*
X257302000Y-128818000D03*
X257302000Y-131318000D03*
D10*
X201168000Y-71120000D03*
D11*
X203708000Y-71120000D03*
X206248000Y-71120000D03*
X208788000Y-71120000D03*
X211328000Y-71120000D03*
X213868000Y-71120000D03*
X216408000Y-71120000D03*
X218948000Y-71120000D03*
X218948000Y-63500000D03*
X216408000Y-63500000D03*
X213868000Y-63500000D03*
X211328000Y-63500000D03*
X208788000Y-63500000D03*
X206248000Y-63500000D03*
X203708000Y-63500000D03*
X201168000Y-63500000D03*
D15*
X182524400Y-83693000D03*
D16*
X179984400Y-81153000D03*
X179984400Y-83693000D03*
X177444400Y-81153000D03*
X177444400Y-83693000D03*
X174904400Y-81153000D03*
X172364400Y-83693000D03*
X174904400Y-83693000D03*
X172364400Y-86233000D03*
X174904400Y-86233000D03*
X172364400Y-88773000D03*
X174904400Y-88773000D03*
X172364400Y-91313000D03*
X174904400Y-91313000D03*
X172364400Y-93853000D03*
X174904400Y-93853000D03*
X172364400Y-96393000D03*
X174904400Y-98933000D03*
X174904400Y-96393000D03*
X177444400Y-98933000D03*
X177444400Y-96393000D03*
X179984400Y-98933000D03*
X179984400Y-96393000D03*
X182524400Y-98933000D03*
X182524400Y-96393000D03*
X185064400Y-98933000D03*
X185064400Y-96393000D03*
X187604400Y-98933000D03*
X190144400Y-96393000D03*
X187604400Y-96393000D03*
X190144400Y-93853000D03*
X187604400Y-93853000D03*
X190144400Y-91313000D03*
X187604400Y-91313000D03*
X190144400Y-88773000D03*
X187604400Y-88773000D03*
X190144400Y-86233000D03*
X187604400Y-86233000D03*
X190144400Y-83693000D03*
X187604400Y-81153000D03*
X187604400Y-83693000D03*
X185064400Y-81153000D03*
X185064400Y-83693000D03*
X182524400Y-81153000D03*
D12*
X256580000Y-34544000D03*
X259080000Y-34544000D03*
X240792000Y-57404000D03*
D11*
X250952000Y-57404000D03*
D12*
X162560000Y-34798000D03*
D11*
X172720000Y-34798000D03*
D12*
X229910000Y-80400000D03*
X232410000Y-80400000D03*
D15*
X101700000Y-118540000D03*
D16*
X99160000Y-121080000D03*
X101700000Y-121080000D03*
X99160000Y-123620000D03*
X101700000Y-123620000D03*
X99160000Y-126160000D03*
X101700000Y-128700000D03*
X101700000Y-126160000D03*
X104240000Y-128700000D03*
X104240000Y-126160000D03*
X106780000Y-128700000D03*
X106780000Y-126160000D03*
X109320000Y-128700000D03*
X109320000Y-126160000D03*
X111860000Y-128700000D03*
X111860000Y-126160000D03*
X114400000Y-128700000D03*
X116940000Y-126160000D03*
X114400000Y-126160000D03*
X116940000Y-123620000D03*
X114400000Y-123620000D03*
X116940000Y-121080000D03*
X114400000Y-121080000D03*
X116940000Y-118540000D03*
X114400000Y-118540000D03*
X116940000Y-116000000D03*
X114400000Y-116000000D03*
X116940000Y-113460000D03*
X114400000Y-110920000D03*
X114400000Y-113460000D03*
X111860000Y-110920000D03*
X111860000Y-113460000D03*
X109320000Y-110920000D03*
X109320000Y-113460000D03*
X106780000Y-110920000D03*
X106780000Y-113460000D03*
X104240000Y-110920000D03*
X104240000Y-113460000D03*
X101700000Y-110920000D03*
X99160000Y-113460000D03*
X101700000Y-113460000D03*
X99160000Y-116000000D03*
X101700000Y-116000000D03*
X99160000Y-118540000D03*
D10*
X264668000Y-38608000D03*
D11*
X262128000Y-38608000D03*
X259588000Y-38608000D03*
X257048000Y-38608000D03*
X257048000Y-46228000D03*
X259588000Y-46228000D03*
X262128000Y-46228000D03*
X264668000Y-46228000D03*
D12*
X162687000Y-50687000D03*
D11*
X172847000Y-50687000D03*
D12*
X224576000Y-33528000D03*
X227076000Y-33528000D03*
D10*
X188508000Y-56896000D03*
D12*
X191008000Y-56896000D03*
D10*
X237041888Y-33538000D03*
D12*
X239541888Y-33538000D03*
D17*
X266658000Y-70802000D03*
D18*
X266658000Y-65802000D03*
X266658000Y-60802000D03*
X261658000Y-70802000D03*
X261658000Y-65802000D03*
X261658000Y-60802000D03*
D10*
X221528000Y-50292000D03*
D12*
X224028000Y-50292000D03*
X247100000Y-52700000D03*
X247100000Y-50200000D03*
X175768000Y-42432000D03*
D11*
X185928000Y-42432000D03*
D12*
X188722000Y-38862000D03*
D11*
X198882000Y-38862000D03*
D19*
X132455400Y-89415200D03*
X132455400Y-90065200D03*
X132455400Y-90715200D03*
X132455400Y-91365200D03*
X136680400Y-91365200D03*
X136680400Y-90715200D03*
X136680400Y-90065200D03*
X136680400Y-89415200D03*
D12*
X195808600Y-82764000D03*
X195808600Y-80264000D03*
D10*
X176316000Y-49276000D03*
D12*
X178816000Y-49276000D03*
X242200000Y-52600000D03*
X242200000Y-50100000D03*
D10*
X194564000Y-56896000D03*
D12*
X197064000Y-56896000D03*
D10*
X97536000Y-32004000D03*
D11*
X97536000Y-34544000D03*
X97536000Y-37084000D03*
X97536000Y-39624000D03*
X97536000Y-42164000D03*
X97536000Y-44704000D03*
X97536000Y-47244000D03*
X97536000Y-49784000D03*
X97536000Y-52324000D03*
X97536000Y-54864000D03*
X97536000Y-57404000D03*
X97536000Y-59944000D03*
X97536000Y-62484000D03*
X97536000Y-65024000D03*
X97536000Y-67564000D03*
X97536000Y-70104000D03*
X97536000Y-72644000D03*
X97536000Y-75184000D03*
X97536000Y-77724000D03*
X97536000Y-80264000D03*
X112776000Y-80264000D03*
X112776000Y-77724000D03*
X112776000Y-75184000D03*
X112776000Y-72644000D03*
X112776000Y-70104000D03*
X112776000Y-67564000D03*
X112776000Y-65024000D03*
X112776000Y-62484000D03*
X112776000Y-59944000D03*
X112776000Y-57404000D03*
X112776000Y-54864000D03*
X112776000Y-52324000D03*
X112776000Y-49784000D03*
X112776000Y-47244000D03*
X112776000Y-44704000D03*
X112776000Y-42164000D03*
X112776000Y-39624000D03*
X112776000Y-37084000D03*
X112776000Y-34544000D03*
X112776000Y-32004000D03*
D14*
X249000000Y-96774000D03*
X254000000Y-96774000D03*
D12*
X163489000Y-46101000D03*
X165989000Y-46101000D03*
D10*
X180340000Y-71120000D03*
D11*
X182880000Y-71120000D03*
X185420000Y-71120000D03*
X187960000Y-71120000D03*
X190500000Y-71120000D03*
X193040000Y-71120000D03*
X195580000Y-71120000D03*
X195580000Y-63500000D03*
X193040000Y-63500000D03*
X190500000Y-63500000D03*
X187960000Y-63500000D03*
X185420000Y-63500000D03*
X182880000Y-63500000D03*
X180340000Y-63500000D03*
D12*
X250190000Y-106426000D03*
X252690000Y-106426000D03*
X189193800Y-48082200D03*
X191693800Y-48082200D03*
D10*
X145796000Y-48133000D03*
D11*
X145796000Y-50673000D03*
X145796000Y-53213000D03*
X145796000Y-55753000D03*
X145796000Y-58293000D03*
X145796000Y-60833000D03*
X145796000Y-63373000D03*
X153416000Y-63373000D03*
X153416000Y-60833000D03*
X153416000Y-58293000D03*
X153416000Y-55753000D03*
X153416000Y-53213000D03*
X153416000Y-50673000D03*
X153416000Y-48133000D03*
D10*
X145796000Y-67564000D03*
D11*
X145796000Y-70104000D03*
X145796000Y-72644000D03*
X145796000Y-75184000D03*
X145796000Y-77724000D03*
X145796000Y-80264000D03*
X145796000Y-82804000D03*
X145796000Y-85344000D03*
X153416000Y-85344000D03*
X153416000Y-82804000D03*
X153416000Y-80264000D03*
X153416000Y-77724000D03*
X153416000Y-75184000D03*
X153416000Y-72644000D03*
X153416000Y-70104000D03*
X153416000Y-67564000D03*
D12*
X267208000Y-118618000D03*
D11*
X267208000Y-108458000D03*
D12*
X244134000Y-106426000D03*
X246634000Y-106426000D03*
D10*
X215178000Y-50292000D03*
D12*
X217678000Y-50292000D03*
X99986000Y-105410000D03*
X99986000Y-102910000D03*
D10*
X192633600Y-110134400D03*
D11*
X192633600Y-112674400D03*
X192633600Y-115214400D03*
X192633600Y-117754400D03*
X192633600Y-120294400D03*
X192633600Y-122834400D03*
X192633600Y-125374400D03*
X192633600Y-127914400D03*
X192633600Y-130454400D03*
X192633600Y-132994400D03*
X200253600Y-132994400D03*
X200253600Y-130454400D03*
X200253600Y-127914400D03*
X200253600Y-125374400D03*
X200253600Y-122834400D03*
X200253600Y-120294400D03*
X200253600Y-117754400D03*
X200253600Y-115214400D03*
X200253600Y-112674400D03*
X200253600Y-110134400D03*
D12*
X255016000Y-74168000D03*
D11*
X255016000Y-64008000D03*
D12*
X125262000Y-134162800D03*
X127762000Y-134162800D03*
D20*
X265470000Y-97416000D03*
X267970000Y-97416000D03*
X260470000Y-92416000D03*
X265470000Y-87416000D03*
X267970000Y-87416000D03*
D21*
X265470000Y-92416000D03*
D22*
X260470000Y-87416000D03*
X260470000Y-97416000D03*
X260470000Y-89916000D03*
X260470000Y-94916000D03*
D12*
X116078000Y-105283000D03*
X118578000Y-105283000D03*
X151200800Y-134162800D03*
X153700800Y-134162800D03*
D23*
X158242000Y-54938000D03*
X158242000Y-50038000D03*
D15*
X175524800Y-108000800D03*
D16*
X175524800Y-110540800D03*
X172984800Y-108000800D03*
X172984800Y-110540800D03*
X170444800Y-108000800D03*
X170444800Y-110540800D03*
X167904800Y-108000800D03*
X165364800Y-110540800D03*
X167904800Y-110540800D03*
X165364800Y-113080800D03*
X167904800Y-113080800D03*
X165364800Y-115620800D03*
X167904800Y-115620800D03*
X165364800Y-118160800D03*
X167904800Y-118160800D03*
X165364800Y-120700800D03*
X167904800Y-120700800D03*
X165364800Y-123240800D03*
X167904800Y-123240800D03*
X165364800Y-125780800D03*
X167904800Y-128320800D03*
X167904800Y-125780800D03*
X170444800Y-128320800D03*
X170444800Y-125780800D03*
X172984800Y-128320800D03*
X172984800Y-125780800D03*
X175524800Y-128320800D03*
X175524800Y-125780800D03*
X178064800Y-128320800D03*
X178064800Y-125780800D03*
X180604800Y-128320800D03*
X180604800Y-125780800D03*
X183144800Y-128320800D03*
X185684800Y-125780800D03*
X183144800Y-125780800D03*
X185684800Y-123240800D03*
X183144800Y-123240800D03*
X185684800Y-120700800D03*
X183144800Y-120700800D03*
X185684800Y-118160800D03*
X183144800Y-118160800D03*
X185684800Y-115620800D03*
X183144800Y-115620800D03*
X185684800Y-113080800D03*
X183144800Y-113080800D03*
X185684800Y-110540800D03*
X183144800Y-108000800D03*
X183144800Y-110540800D03*
X180604800Y-108000800D03*
X180604800Y-110540800D03*
X178064800Y-108000800D03*
X178064800Y-110540800D03*
D12*
X262422000Y-34544000D03*
X264922000Y-34544000D03*
D10*
X236768000Y-80264000D03*
D12*
X239268000Y-80264000D03*
X217932000Y-59690000D03*
X215432000Y-59690000D03*
X108204000Y-88163400D03*
D11*
X108204000Y-98323400D03*
D12*
X104648000Y-88138000D03*
D11*
X104648000Y-98298000D03*
D12*
X169077000Y-57023000D03*
X171577000Y-57023000D03*
D10*
X258866000Y-82296000D03*
D12*
X261366000Y-82296000D03*
D24*
X257454400Y-111607600D03*
D25*
X257454400Y-114147600D03*
X257454400Y-116687600D03*
X257454400Y-119227600D03*
X257454400Y-121767600D03*
X257454400Y-124307600D03*
D26*
X116205000Y-91821000D03*
D27*
X118745000Y-91821000D03*
D10*
X156032200Y-42316400D03*
D12*
X158532200Y-42316400D03*
X250444000Y-79756000D03*
X250444000Y-77256000D03*
X169849800Y-46101000D03*
X172349800Y-46101000D03*
X157734000Y-63333000D03*
X157734000Y-60833000D03*
X188722000Y-42418000D03*
D11*
X198882000Y-42418000D03*
D26*
X116205000Y-98425000D03*
D27*
X118745000Y-98425000D03*
D12*
X250444000Y-74168000D03*
D11*
X250444000Y-64008000D03*
D12*
X216662000Y-35052000D03*
D11*
X216662000Y-45212000D03*
D12*
X195580000Y-97576000D03*
X195580000Y-100076000D03*
D24*
X166624000Y-87884000D03*
D25*
X166624000Y-90424000D03*
X166624000Y-92964000D03*
X166624000Y-95504000D03*
X166624000Y-98044000D03*
X166624000Y-100584000D03*
D12*
X220980000Y-45212000D03*
D11*
X220980000Y-35052000D03*
D12*
X162560000Y-38862000D03*
D11*
X172720000Y-38862000D03*
D10*
X218287600Y-110134400D03*
D11*
X218287600Y-112674400D03*
X218287600Y-115214400D03*
X218287600Y-117754400D03*
X218287600Y-120294400D03*
X218287600Y-122834400D03*
X218287600Y-125374400D03*
X218287600Y-127914400D03*
X218287600Y-130454400D03*
X218287600Y-132994400D03*
X225907600Y-132994400D03*
X225907600Y-130454400D03*
X225907600Y-127914400D03*
X225907600Y-125374400D03*
X225907600Y-122834400D03*
X225907600Y-120294400D03*
X225907600Y-117754400D03*
X225907600Y-115214400D03*
X225907600Y-112674400D03*
X225907600Y-110134400D03*
D12*
X230632000Y-106451400D03*
D11*
X240792000Y-106451400D03*
D15*
X240055400Y-129540000D03*
D16*
X242595400Y-132080000D03*
X242595400Y-129540000D03*
X245135400Y-132080000D03*
X245135400Y-129540000D03*
X247675400Y-132080000D03*
X250215400Y-129540000D03*
X247675400Y-129540000D03*
X250215400Y-127000000D03*
X247675400Y-127000000D03*
X250215400Y-124460000D03*
X247675400Y-124460000D03*
X250215400Y-121920000D03*
X247675400Y-121920000D03*
X250215400Y-119380000D03*
X247675400Y-119380000D03*
X250215400Y-116840000D03*
X247675400Y-114300000D03*
X247675400Y-116840000D03*
X245135400Y-114300000D03*
X245135400Y-116840000D03*
X242595400Y-114300000D03*
X242595400Y-116840000D03*
X240055400Y-114300000D03*
X240055400Y-116840000D03*
X237515400Y-114300000D03*
X237515400Y-116840000D03*
X234975400Y-114300000D03*
X232435400Y-116840000D03*
X234975400Y-116840000D03*
X232435400Y-119380000D03*
X234975400Y-119380000D03*
X232435400Y-121920000D03*
X234975400Y-121920000D03*
X232435400Y-124460000D03*
X234975400Y-124460000D03*
X232435400Y-127000000D03*
X234975400Y-127000000D03*
X232435400Y-129540000D03*
X234975400Y-132080000D03*
X234975400Y-129540000D03*
X237515400Y-132080000D03*
X237515400Y-129540000D03*
X240055400Y-132080000D03*
D12*
X118700000Y-134200000D03*
X116200000Y-134200000D03*
D10*
X237300888Y-66548000D03*
D12*
X239800888Y-66548000D03*
X133136000Y-134162800D03*
X135636000Y-134162800D03*
X140208000Y-87884000D03*
X140208000Y-85384000D03*
X231180000Y-66294000D03*
X233680000Y-66294000D03*
X228092000Y-57404000D03*
D11*
X238252000Y-57404000D03*
D12*
X188722000Y-74930000D03*
X186222000Y-74930000D03*
X224282000Y-63032000D03*
X224282000Y-65532000D03*
D10*
X142798800Y-92252800D03*
D11*
X142798800Y-94792800D03*
X142798800Y-97332800D03*
X142798800Y-99872800D03*
X142798800Y-102412800D03*
X142798800Y-104952800D03*
X142798800Y-107492800D03*
X142798800Y-110032800D03*
X142798800Y-112572800D03*
X142798800Y-115112800D03*
X142798800Y-117652800D03*
X142798800Y-120192800D03*
X142798800Y-122732800D03*
X142798800Y-125272800D03*
X142798800Y-127812800D03*
X142798800Y-130352800D03*
X158038800Y-130352800D03*
X158038800Y-127812800D03*
X158038800Y-125272800D03*
X158038800Y-122732800D03*
X158038800Y-120192800D03*
X158038800Y-117652800D03*
X158038800Y-115112800D03*
X158038800Y-112572800D03*
X158038800Y-110032800D03*
X158038800Y-107492800D03*
X158038800Y-104952800D03*
X158038800Y-102412800D03*
X158038800Y-99872800D03*
X158038800Y-97332800D03*
X158038800Y-94792800D03*
X158038800Y-92252800D03*
D10*
X158130400Y-85328600D03*
D11*
X158130400Y-82788600D03*
X158130400Y-80248600D03*
X158130400Y-77708600D03*
X158130400Y-75168600D03*
X158130400Y-72628600D03*
D12*
X199684000Y-75438000D03*
X202184000Y-75438000D03*
X94183200Y-78841600D03*
X94183200Y-76341600D03*
X251700000Y-52600000D03*
X251700000Y-50100000D03*
X235000000Y-98800000D03*
X235000000Y-101300000D03*
X235100000Y-87100000D03*
X235100000Y-89600000D03*
X257800000Y-50900000D03*
X257800000Y-53400000D03*
X227838000Y-50292000D03*
D11*
X237998000Y-50292000D03*
D12*
X175768000Y-34812000D03*
D11*
X185928000Y-34812000D03*
D12*
X162687000Y-53848000D03*
D11*
X172847000Y-53848000D03*
D10*
X251206000Y-38608000D03*
D11*
X248666000Y-38608000D03*
X246126000Y-38608000D03*
X243586000Y-38608000D03*
X241046000Y-38608000D03*
X238506000Y-38608000D03*
X235966000Y-38608000D03*
X233426000Y-38608000D03*
X230886000Y-38608000D03*
X228346000Y-38608000D03*
X228346000Y-46228000D03*
X230886000Y-46228000D03*
X233426000Y-46228000D03*
X235966000Y-46228000D03*
X238506000Y-46228000D03*
X241046000Y-46228000D03*
X243586000Y-46228000D03*
X246126000Y-46228000D03*
X248666000Y-46228000D03*
X251206000Y-46228000D03*
D10*
X163322000Y-62865000D03*
D12*
X163322000Y-70485000D03*
X170942000Y-70485000D03*
X170942000Y-62865000D03*
D26*
X263652000Y-131318000D03*
D27*
X266192000Y-131318000D03*
D12*
X195580000Y-90972000D03*
X195580000Y-93472000D03*
X188722000Y-34812000D03*
D11*
X198882000Y-34812000D03*
D28*
X263398000Y-124968000D03*
D29*
X264668000Y-123698000D03*
X265938000Y-124968000D03*
D12*
X145104800Y-134162800D03*
X147604800Y-134162800D03*
D14*
X249000000Y-87172800D03*
X254000000Y-87172800D03*
D12*
X240792000Y-60960000D03*
D11*
X250952000Y-60960000D03*
D12*
X162560000Y-42418000D03*
D11*
X172720000Y-42418000D03*
D12*
X255016000Y-79756000D03*
X255016000Y-77256000D03*
D10*
X206273400Y-75488800D03*
D11*
X208813400Y-75488800D03*
X211353400Y-75488800D03*
X213893400Y-75488800D03*
X216433400Y-75488800D03*
X218973400Y-75488800D03*
D24*
X99999800Y-85191600D03*
D25*
X99999800Y-87731600D03*
X99999800Y-90271600D03*
X99999800Y-92811600D03*
X99999800Y-95351600D03*
X99999800Y-97891600D03*
D12*
X162981000Y-57023000D03*
X165481000Y-57023000D03*
X141427200Y-75427200D03*
X141427200Y-77927200D03*
D10*
X182412000Y-49276000D03*
D12*
X184912000Y-49276000D03*
X202071600Y-48133000D03*
X204571600Y-48133000D03*
D10*
X166126800Y-134162800D03*
D11*
X168666800Y-134162800D03*
X171206800Y-134162800D03*
X173746800Y-134162800D03*
X176286800Y-134162800D03*
X178826800Y-134162800D03*
X181366800Y-134162800D03*
X183906800Y-134162800D03*
X186446800Y-134162800D03*
D10*
X121666000Y-32004000D03*
D11*
X121666000Y-34544000D03*
X121666000Y-37084000D03*
X121666000Y-39624000D03*
X121666000Y-42164000D03*
X121666000Y-44704000D03*
X121666000Y-47244000D03*
X121666000Y-49784000D03*
X121666000Y-52324000D03*
X121666000Y-54864000D03*
X121666000Y-57404000D03*
X121666000Y-59944000D03*
X121666000Y-62484000D03*
X121666000Y-65024000D03*
X121666000Y-67564000D03*
X121666000Y-70104000D03*
X121666000Y-72644000D03*
X121666000Y-75184000D03*
X121666000Y-77724000D03*
X121666000Y-80264000D03*
X136906000Y-80264000D03*
X136906000Y-77724000D03*
X136906000Y-75184000D03*
X136906000Y-72644000D03*
X136906000Y-70104000D03*
X136906000Y-67564000D03*
X136906000Y-65024000D03*
X136906000Y-62484000D03*
X136906000Y-59944000D03*
X136906000Y-57404000D03*
X136906000Y-54864000D03*
X136906000Y-52324000D03*
X136906000Y-49784000D03*
X136906000Y-47244000D03*
X136906000Y-44704000D03*
X136906000Y-42164000D03*
X136906000Y-39624000D03*
X136906000Y-37084000D03*
X136906000Y-34544000D03*
X136906000Y-32004000D03*
D12*
X171704000Y-75692000D03*
X174204000Y-75692000D03*
D14*
X233088000Y-70414000D03*
X233088000Y-75414000D03*
D26*
X116205000Y-85217000D03*
D27*
X118745000Y-85217000D03*
D12*
X195605400Y-48082200D03*
X198105400Y-48082200D03*
D30*
X265430000Y-147220000D03*
X176530000Y-147220000D03*
D31*
X260350000Y-144680000D03*
D32*
X257810000Y-144680000D03*
X255270000Y-144680000D03*
X252730000Y-144680000D03*
X250190000Y-144680000D03*
X247650000Y-144680000D03*
X245110000Y-144680000D03*
X242570000Y-144680000D03*
X240030000Y-144680000D03*
X237490000Y-144680000D03*
X234950000Y-144680000D03*
X232410000Y-144680000D03*
X229870000Y-144680000D03*
X227330000Y-144680000D03*
X224790000Y-144680000D03*
X222250000Y-144680000D03*
X219710000Y-144680000D03*
X217170000Y-144680000D03*
X214630000Y-144680000D03*
X212090000Y-144680000D03*
X209550000Y-144680000D03*
X207010000Y-144680000D03*
X204470000Y-144680000D03*
X201930000Y-144680000D03*
X199390000Y-144680000D03*
X196850000Y-144680000D03*
X194310000Y-144680000D03*
X191770000Y-144680000D03*
X189230000Y-144680000D03*
X186690000Y-144680000D03*
X184150000Y-144680000D03*
X181610000Y-144680000D03*
X260350000Y-139600000D03*
X257810000Y-139600000D03*
X255270000Y-139600000D03*
X252730000Y-139600000D03*
X250190000Y-139600000D03*
X247650000Y-139600000D03*
X245110000Y-139600000D03*
X242570000Y-139600000D03*
X240030000Y-139600000D03*
X237490000Y-139600000D03*
X234950000Y-139600000D03*
X232410000Y-139600000D03*
X229870000Y-139600000D03*
X227330000Y-139600000D03*
X224790000Y-139600000D03*
X222250000Y-139600000D03*
X219710000Y-139600000D03*
X217170000Y-139600000D03*
X214630000Y-139600000D03*
X212090000Y-139600000D03*
X209550000Y-139600000D03*
X207010000Y-139600000D03*
X204470000Y-139600000D03*
X201930000Y-139600000D03*
X199390000Y-139600000D03*
X196850000Y-139600000D03*
X194310000Y-139600000D03*
X191770000Y-139600000D03*
X189230000Y-139600000D03*
X186690000Y-139600000D03*
X184150000Y-139600000D03*
X181610000Y-139600000D03*
D12*
X210921600Y-106324400D03*
X208421600Y-106324400D03*
X197713600Y-106578400D03*
X195213600Y-106578400D03*
D10*
X208828000Y-50419000D03*
D12*
X211328000Y-50419000D03*
X195072000Y-74930000D03*
X192572000Y-74930000D03*
X159816800Y-134162800D03*
X162316800Y-134162800D03*
M02*
