%FSLAX45Y45*%
G04 Gerber Fmt 4.5, Leading zero omitted, Abs format (unit mm)*
G04 Created by KiCad (PCBNEW (5.1.10)-1) date 2021-07-30 10:23:50*
%MOMM*%
%LPD*%
G01*
G04 APERTURE LIST*
%TA.AperFunction,Profile*%
%ADD10C,0.050000*%
%TD*%
%ADD11C,0.200000*%
%ADD12C,0.300000*%
G04 APERTURE END LIST*
D10*
X19800000Y-9500000D02*
X20000000Y-9500000D01*
X19800000Y-9000000D02*
X19800000Y-9500000D01*
X20000000Y-9000000D02*
X19800000Y-9000000D01*
X19750000Y-5000000D02*
G75*
G02*
X20000000Y-5250000I0J-250000D01*
G01*
X10000000Y-5250000D02*
G75*
G02*
X10250000Y-5000000I250000J0D01*
G01*
X10250000Y-15000000D02*
G75*
G02*
X10000000Y-14750000I0J250000D01*
G01*
X20000000Y-14750000D02*
G75*
G02*
X19750000Y-15000000I-250000J0D01*
G01*
X10250000Y-15000000D02*
X19750000Y-15000000D01*
X10250000Y-5000000D02*
X19750000Y-5000000D01*
X20000000Y-9500000D02*
X20000000Y-14750000D01*
X20000000Y-5250000D02*
X20000000Y-9000000D01*
X10000000Y-14750000D02*
X10000000Y-5250000D01*
D11*
X11156000Y-5644200D02*
X11196000Y-5684200D01*
X11196000Y-5644200D02*
X11156000Y-5684200D01*
X11232200Y-13010200D02*
X11272200Y-13050200D01*
X11272200Y-13010200D02*
X11232200Y-13050200D01*
X11867200Y-13010200D02*
X11907200Y-13050200D01*
X11907200Y-13010200D02*
X11867200Y-13050200D01*
X12045000Y-8463600D02*
X12085000Y-8503600D01*
X12085000Y-8463600D02*
X12045000Y-8503600D01*
X12375199Y-13035600D02*
X12415199Y-13075600D01*
X12415199Y-13035600D02*
X12375199Y-13075600D01*
X12375200Y-8184200D02*
X12415200Y-8224200D01*
X12415200Y-8184200D02*
X12375200Y-8224200D01*
X12502200Y-11994200D02*
X12542200Y-12034200D01*
X12542200Y-11994200D02*
X12502200Y-12034200D01*
X12629200Y-8082600D02*
X12669200Y-8122600D01*
X12669200Y-8082600D02*
X12629200Y-8122600D01*
X12730800Y-12426000D02*
X12770800Y-12466000D01*
X12770800Y-12426000D02*
X12730800Y-12466000D01*
X12857801Y-7854000D02*
X12897801Y-7894000D01*
X12897801Y-7854000D02*
X12857801Y-7894000D01*
X12934000Y-8616000D02*
X12974000Y-8656000D01*
X12974000Y-8616000D02*
X12934000Y-8656000D01*
X12934000Y-9886000D02*
X12974000Y-9926000D01*
X12974000Y-9886000D02*
X12934000Y-9926000D01*
X12934000Y-12705400D02*
X12974000Y-12745400D01*
X12974000Y-12705400D02*
X12934000Y-12745400D01*
X13010200Y-7650800D02*
X13050200Y-7690800D01*
X13050200Y-7650800D02*
X13010200Y-7690800D01*
X13061000Y-8336600D02*
X13101000Y-8376600D01*
X13101000Y-8336600D02*
X13061000Y-8376600D01*
X13061000Y-12883200D02*
X13101000Y-12923200D01*
X13101000Y-12883200D02*
X13061000Y-12923200D01*
X13315000Y-8184200D02*
X13355000Y-8224200D01*
X13355000Y-8184200D02*
X13315000Y-8224200D01*
X13315000Y-10648000D02*
X13355000Y-10688000D01*
X13355000Y-10648000D02*
X13315000Y-10688000D01*
X13315000Y-12426000D02*
X13355000Y-12466000D01*
X13355000Y-12426000D02*
X13315000Y-12466000D01*
X13569000Y-8082600D02*
X13609000Y-8122600D01*
X13609000Y-8082600D02*
X13569000Y-8122600D01*
X13823000Y-7955600D02*
X13863000Y-7995600D01*
X13863000Y-7955600D02*
X13823000Y-7995600D01*
X13823000Y-9098600D02*
X13863000Y-9138600D01*
X13863000Y-9098600D02*
X13823000Y-9138600D01*
X13873800Y-12883200D02*
X13913800Y-12923200D01*
X13913800Y-12883200D02*
X13873800Y-12923200D01*
X14204000Y-10648000D02*
X14244000Y-10688000D01*
X14244000Y-10648000D02*
X14204000Y-10688000D01*
X14331000Y-13518200D02*
X14371000Y-13558200D01*
X14371000Y-13518200D02*
X14331000Y-13558200D01*
X14407200Y-14204000D02*
X14447200Y-14244000D01*
X14447200Y-14204000D02*
X14407200Y-14244000D01*
X15093000Y-13061000D02*
X15133000Y-13101000D01*
X15133000Y-13061000D02*
X15093000Y-13101000D01*
X15931200Y-11791000D02*
X15971200Y-11831000D01*
X15971200Y-11791000D02*
X15931200Y-11831000D01*
X16083600Y-13061000D02*
X16123600Y-13101000D01*
X16123600Y-13061000D02*
X16083600Y-13101000D01*
X16185200Y-11359200D02*
X16225200Y-11399200D01*
X16225200Y-11359200D02*
X16185200Y-11399200D01*
X16464600Y-11791000D02*
X16504600Y-11831000D01*
X16504600Y-11791000D02*
X16464600Y-11831000D01*
X16464600Y-12654600D02*
X16504600Y-12694600D01*
X16504600Y-12654600D02*
X16464600Y-12694600D01*
X16490000Y-11613200D02*
X16530000Y-11653200D01*
X16530000Y-11613200D02*
X16490000Y-11653200D01*
X16515400Y-12502200D02*
X16555400Y-12542200D01*
X16555400Y-12502200D02*
X16515400Y-12542200D01*
X16693200Y-12578400D02*
X16733200Y-12618400D01*
X16733200Y-12578400D02*
X16693200Y-12618400D01*
X16794800Y-12146600D02*
X16834800Y-12186600D01*
X16834800Y-12146600D02*
X16794800Y-12186600D01*
X16921800Y-11664000D02*
X16961800Y-11704000D01*
X16961800Y-11664000D02*
X16921800Y-11704000D01*
X16947200Y-12578400D02*
X16987200Y-12618400D01*
X16987200Y-12578400D02*
X16947200Y-12618400D01*
X17099600Y-11740200D02*
X17139600Y-11780200D01*
X17139600Y-11740200D02*
X17099600Y-11780200D01*
X17150400Y-12146600D02*
X17190400Y-12186600D01*
X17190400Y-12146600D02*
X17150400Y-12186600D01*
X17150400Y-12578400D02*
X17190400Y-12618400D01*
X17190400Y-12578400D02*
X17150400Y-12618400D01*
X17379000Y-12222800D02*
X17419000Y-12262800D01*
X17419000Y-12222800D02*
X17379000Y-12262800D01*
X17404400Y-11841800D02*
X17444400Y-11881800D01*
X17444400Y-11841800D02*
X17404400Y-11881800D01*
X17455200Y-12375200D02*
X17495200Y-12415200D01*
X17495200Y-12375200D02*
X17455200Y-12415200D01*
X17658400Y-11029000D02*
X17698400Y-11069000D01*
X17698400Y-11029000D02*
X17658400Y-11069000D01*
X17734600Y-12883200D02*
X17774600Y-12923200D01*
X17774600Y-12883200D02*
X17734600Y-12923200D01*
X18014000Y-11587800D02*
X18054000Y-11627800D01*
X18054000Y-11587800D02*
X18014000Y-11627800D01*
X19097000Y-8757300D02*
G75*
G03*
X19097000Y-8757300I-35000J0D01*
G01*
X19107000Y-8732300D02*
X19017000Y-8732300D01*
X19107000Y-8782300D02*
X19017000Y-8782300D01*
X19017000Y-8732300D02*
G75*
G03*
X19017000Y-8782300I0J-25000D01*
G01*
X19107000Y-8782300D02*
G75*
G03*
X19107000Y-8732300I0J25000D01*
G01*
X19097000Y-9757300D02*
G75*
G03*
X19097000Y-9757300I-35000J0D01*
G01*
X19107000Y-9732300D02*
X19017000Y-9732300D01*
X19107000Y-9782300D02*
X19017000Y-9782300D01*
X19017000Y-9732300D02*
G75*
G03*
X19017000Y-9782300I0J-25000D01*
G01*
X19107000Y-9782300D02*
G75*
G03*
X19107000Y-9732300I0J25000D01*
G01*
X19597000Y-9257300D02*
G75*
G03*
X19597000Y-9257300I-35000J0D01*
G01*
X19587000Y-9302300D02*
X19587000Y-9212300D01*
X19537000Y-9302300D02*
X19537000Y-9212300D01*
X19587000Y-9212300D02*
G75*
G03*
X19537000Y-9212300I-25000J0D01*
G01*
X19537000Y-9302300D02*
G75*
G03*
X19587000Y-9302300I25000J0D01*
G01*
X18783300Y-13253050D02*
X18783300Y-13328050D01*
X18745800Y-13290550D02*
X18820800Y-13290550D01*
X18910300Y-13126050D02*
X18910300Y-13201050D01*
X18872800Y-13163550D02*
X18947800Y-13163550D01*
X19037300Y-13253050D02*
X19037300Y-13328050D01*
X18999800Y-13290550D02*
X19074800Y-13290550D01*
X10594685Y-6661684D02*
X10594685Y-6605115D01*
X10538116Y-6605115D01*
X10538116Y-6661684D01*
X10594685Y-6661684D01*
X10594685Y-6911684D02*
X10594685Y-6855115D01*
X10538116Y-6855115D01*
X10538116Y-6911684D01*
X10594685Y-6911684D01*
X10747085Y-6048084D02*
X10747085Y-5991515D01*
X10690516Y-5991515D01*
X10690516Y-6048084D01*
X10747085Y-6048084D01*
X10797885Y-9303285D02*
X10797885Y-9246716D01*
X10741316Y-9246716D01*
X10741316Y-9303285D01*
X10797885Y-9303285D01*
X10797885Y-9553285D02*
X10797885Y-9496716D01*
X10741316Y-9496716D01*
X10741316Y-9553285D01*
X10797885Y-9553285D01*
X10848685Y-11026485D02*
X10848685Y-10969916D01*
X10792116Y-10969916D01*
X10792116Y-11026485D01*
X10848685Y-11026485D01*
X10848685Y-11276484D02*
X10848685Y-11219915D01*
X10792116Y-11219915D01*
X10792116Y-11276484D01*
X10848685Y-11276484D01*
X10997085Y-6048084D02*
X10997085Y-5991515D01*
X10940516Y-5991515D01*
X10940516Y-6048084D01*
X10997085Y-6048084D01*
X11005085Y-12220284D02*
X11005085Y-12163715D01*
X10948516Y-12163715D01*
X10948516Y-12220284D01*
X11005085Y-12220284D01*
X11026485Y-12550484D02*
X11026485Y-12493915D01*
X10969916Y-12493915D01*
X10969916Y-12550484D01*
X11026485Y-12550484D01*
X11026485Y-13312484D02*
X11026485Y-13255915D01*
X10969916Y-13255915D01*
X10969916Y-13312484D01*
X11026485Y-13312484D01*
X11077285Y-7876884D02*
X11077285Y-7820315D01*
X11020716Y-7820315D01*
X11020716Y-7876884D01*
X11077285Y-7876884D01*
X11153485Y-6403684D02*
X11153485Y-6347115D01*
X11096916Y-6347115D01*
X11096916Y-6403684D01*
X11153485Y-6403684D01*
X11153485Y-7165684D02*
X11153485Y-7109115D01*
X11096916Y-7109115D01*
X11096916Y-7165684D01*
X11153485Y-7165684D01*
X11255084Y-12220284D02*
X11255084Y-12163715D01*
X11198515Y-12163715D01*
X11198515Y-12220284D01*
X11255084Y-12220284D01*
X11280484Y-12550484D02*
X11280484Y-12493915D01*
X11223915Y-12493915D01*
X11223915Y-12550484D01*
X11280484Y-12550484D01*
X11280484Y-13312484D02*
X11280484Y-13255915D01*
X11223915Y-13255915D01*
X11223915Y-13312484D01*
X11280484Y-13312484D01*
X11407484Y-6403684D02*
X11407484Y-6347115D01*
X11350915Y-6347115D01*
X11350915Y-6403684D01*
X11407484Y-6403684D01*
X11407484Y-7165684D02*
X11407484Y-7109115D01*
X11350915Y-7109115D01*
X11350915Y-7165684D01*
X11407484Y-7165684D01*
X11411484Y-6048084D02*
X11411484Y-5991515D01*
X11354915Y-5991515D01*
X11354915Y-6048084D01*
X11411484Y-6048084D01*
X11432884Y-9299285D02*
X11432884Y-9242716D01*
X11376315Y-9242716D01*
X11376315Y-9299285D01*
X11432884Y-9299285D01*
X11432884Y-9549285D02*
X11432884Y-9492716D01*
X11376315Y-9492716D01*
X11376315Y-9549285D01*
X11432884Y-9549285D01*
X11436884Y-8384884D02*
X11436884Y-8328315D01*
X11380315Y-8328315D01*
X11380315Y-8384884D01*
X11436884Y-8384884D01*
X11509084Y-11026485D02*
X11509084Y-10969916D01*
X11452515Y-10969916D01*
X11452515Y-11026485D01*
X11509084Y-11026485D01*
X11509084Y-11276484D02*
X11509084Y-11219915D01*
X11452515Y-11219915D01*
X11452515Y-11276484D01*
X11509084Y-11276484D01*
X11534484Y-12550484D02*
X11534484Y-12493915D01*
X11477915Y-12493915D01*
X11477915Y-12550484D01*
X11534484Y-12550484D01*
X11534484Y-13312484D02*
X11534484Y-13255915D01*
X11477915Y-13255915D01*
X11477915Y-13312484D01*
X11534484Y-13312484D01*
X11661484Y-6048084D02*
X11661484Y-5991515D01*
X11604915Y-5991515D01*
X11604915Y-6048084D01*
X11661484Y-6048084D01*
X11661484Y-6403684D02*
X11661484Y-6347115D01*
X11604915Y-6347115D01*
X11604915Y-6403684D01*
X11661484Y-6403684D01*
X11661484Y-7165684D02*
X11661484Y-7109115D01*
X11604915Y-7109115D01*
X11604915Y-7165684D01*
X11661484Y-7165684D01*
X11686884Y-8384884D02*
X11686884Y-8328315D01*
X11630315Y-8328315D01*
X11630315Y-8384884D01*
X11686884Y-8384884D01*
X11788484Y-12550484D02*
X11788484Y-12493915D01*
X11731915Y-12493915D01*
X11731915Y-12550484D01*
X11788484Y-12550484D01*
X11788484Y-13312484D02*
X11788484Y-13255915D01*
X11731915Y-13255915D01*
X11731915Y-13312484D01*
X11788484Y-13312484D01*
X11915484Y-6403684D02*
X11915484Y-6347115D01*
X11858915Y-6347115D01*
X11858915Y-6403684D01*
X11915484Y-6403684D01*
X11915484Y-7165684D02*
X11915484Y-7109115D01*
X11858915Y-7109115D01*
X11858915Y-7165684D01*
X11915484Y-7165684D01*
X12042484Y-6048084D02*
X12042484Y-5991515D01*
X11985915Y-5991515D01*
X11985915Y-6048084D01*
X12042484Y-6048084D01*
X12042484Y-12550484D02*
X12042484Y-12493915D01*
X11985915Y-12493915D01*
X11985915Y-12550484D01*
X12042484Y-12550484D01*
X12042484Y-13312484D02*
X12042484Y-13255915D01*
X11985915Y-13255915D01*
X11985915Y-13312484D01*
X12042484Y-13312484D01*
X12093284Y-7876884D02*
X12093284Y-7820315D01*
X12036715Y-7820315D01*
X12036715Y-7876884D01*
X12093284Y-7876884D01*
X12169484Y-6403684D02*
X12169484Y-6347115D01*
X12112915Y-6347115D01*
X12112915Y-6403684D01*
X12169484Y-6403684D01*
X12169484Y-7165684D02*
X12169484Y-7109115D01*
X12112915Y-7109115D01*
X12112915Y-7165684D01*
X12169484Y-7165684D01*
X12292484Y-6048084D02*
X12292484Y-5991515D01*
X12235915Y-5991515D01*
X12235915Y-6048084D01*
X12292484Y-6048084D01*
X12296484Y-12550484D02*
X12296484Y-12493915D01*
X12239915Y-12493915D01*
X12239915Y-12550484D01*
X12296484Y-12550484D01*
X12296484Y-13312484D02*
X12296484Y-13255915D01*
X12239915Y-13255915D01*
X12239915Y-13312484D01*
X12296484Y-13312484D01*
X12372684Y-8765885D02*
X12372684Y-8709316D01*
X12316115Y-8709316D01*
X12316115Y-8765885D01*
X12372684Y-8765885D01*
X12372684Y-9019885D02*
X12372684Y-8963316D01*
X12316115Y-8963316D01*
X12316115Y-9019885D01*
X12372684Y-9019885D01*
X12372684Y-9273885D02*
X12372684Y-9217316D01*
X12316115Y-9217316D01*
X12316115Y-9273885D01*
X12372684Y-9273885D01*
X12372684Y-9527885D02*
X12372684Y-9471316D01*
X12316115Y-9471316D01*
X12316115Y-9527885D01*
X12372684Y-9527885D01*
X12372684Y-9781885D02*
X12372684Y-9725316D01*
X12316115Y-9725316D01*
X12316115Y-9781885D01*
X12372684Y-9781885D01*
X12372684Y-10035885D02*
X12372684Y-9979316D01*
X12316115Y-9979316D01*
X12316115Y-10035885D01*
X12372684Y-10035885D01*
X12423484Y-6403684D02*
X12423484Y-6347115D01*
X12366915Y-6347115D01*
X12366915Y-6403684D01*
X12423484Y-6403684D01*
X12423484Y-7165684D02*
X12423484Y-7109115D01*
X12366915Y-7109115D01*
X12366915Y-7165684D01*
X12423484Y-7165684D01*
X12423484Y-10497085D02*
X12423484Y-10440516D01*
X12366915Y-10440516D01*
X12366915Y-10497085D01*
X12423484Y-10497085D01*
X12423484Y-10747085D02*
X12423484Y-10690516D01*
X12366915Y-10690516D01*
X12366915Y-10747085D01*
X12423484Y-10747085D01*
X12423484Y-11458284D02*
X12423484Y-11401715D01*
X12366915Y-11401715D01*
X12366915Y-11458284D01*
X12423484Y-11458284D01*
X12423484Y-11708284D02*
X12423484Y-11651715D01*
X12366915Y-11651715D01*
X12366915Y-11708284D01*
X12423484Y-11708284D01*
X12427484Y-7546684D02*
X12427484Y-7490115D01*
X12370915Y-7490115D01*
X12370915Y-7546684D01*
X12427484Y-7546684D01*
X12550484Y-12550484D02*
X12550484Y-12493915D01*
X12493915Y-12493915D01*
X12493915Y-12550484D01*
X12550484Y-12550484D01*
X12550484Y-13312484D02*
X12550484Y-13255915D01*
X12493915Y-13255915D01*
X12493915Y-13312484D01*
X12550484Y-13312484D01*
X12677484Y-6048084D02*
X12677484Y-5991515D01*
X12620915Y-5991515D01*
X12620915Y-6048084D01*
X12677484Y-6048084D01*
X12677484Y-6403684D02*
X12677484Y-6347115D01*
X12620915Y-6347115D01*
X12620915Y-6403684D01*
X12677484Y-6403684D01*
X12677484Y-7165684D02*
X12677484Y-7109115D01*
X12620915Y-7109115D01*
X12620915Y-7165684D01*
X12677484Y-7165684D01*
X12677484Y-7546684D02*
X12677484Y-7490115D01*
X12620915Y-7490115D01*
X12620915Y-7546684D01*
X12677484Y-7546684D01*
X12855284Y-8905585D02*
X12855284Y-8849016D01*
X12798715Y-8849016D01*
X12798715Y-8905585D01*
X12855284Y-8905585D01*
X12855284Y-9667585D02*
X12855284Y-9611016D01*
X12798715Y-9611016D01*
X12798715Y-9667585D01*
X12855284Y-9667585D01*
X12855284Y-10302585D02*
X12855284Y-10246016D01*
X12798715Y-10246016D01*
X12798715Y-10302585D01*
X12855284Y-10302585D01*
X12855284Y-11826584D02*
X12855284Y-11770015D01*
X12798715Y-11770015D01*
X12798715Y-11826584D01*
X12855284Y-11826584D01*
X12927484Y-6048084D02*
X12927484Y-5991515D01*
X12870915Y-5991515D01*
X12870915Y-6048084D01*
X12927484Y-6048084D01*
X12960884Y-13312484D02*
X12960884Y-13255915D01*
X12904315Y-13255915D01*
X12904315Y-13312484D01*
X12960884Y-13312484D01*
X13109284Y-8905585D02*
X13109284Y-8849016D01*
X13052715Y-8849016D01*
X13052715Y-8905585D01*
X13109284Y-8905585D01*
X13109284Y-9667585D02*
X13109284Y-9611016D01*
X13052715Y-9611016D01*
X13052715Y-9667585D01*
X13109284Y-9667585D01*
X13109284Y-10302585D02*
X13109284Y-10246016D01*
X13052715Y-10246016D01*
X13052715Y-10302585D01*
X13109284Y-10302585D01*
X13109284Y-11826584D02*
X13109284Y-11770015D01*
X13052715Y-11770015D01*
X13052715Y-11826584D01*
X13109284Y-11826584D01*
X13210884Y-13312484D02*
X13210884Y-13255915D01*
X13154315Y-13255915D01*
X13154315Y-13312484D01*
X13210884Y-13312484D01*
X13363284Y-6309284D02*
X13363284Y-6252715D01*
X13306715Y-6252715D01*
X13306715Y-6309284D01*
X13363284Y-6309284D01*
X13363284Y-6559284D02*
X13363284Y-6502715D01*
X13306715Y-6502715D01*
X13306715Y-6559284D01*
X13363284Y-6559284D01*
X13363284Y-6937084D02*
X13363284Y-6880515D01*
X13306715Y-6880515D01*
X13306715Y-6937084D01*
X13363284Y-6937084D01*
X13363284Y-7187084D02*
X13363284Y-7130515D01*
X13306715Y-7130515D01*
X13306715Y-7187084D01*
X13363284Y-7187084D01*
X13363284Y-8905585D02*
X13363284Y-8849016D01*
X13306715Y-8849016D01*
X13306715Y-8905585D01*
X13363284Y-8905585D01*
X13363284Y-9667585D02*
X13363284Y-9611016D01*
X13306715Y-9611016D01*
X13306715Y-9667585D01*
X13363284Y-9667585D01*
X13363284Y-10302585D02*
X13363284Y-10246016D01*
X13306715Y-10246016D01*
X13306715Y-10302585D01*
X13363284Y-10302585D01*
X13363284Y-11826584D02*
X13363284Y-11770015D01*
X13306715Y-11770015D01*
X13306715Y-11826584D01*
X13363284Y-11826584D01*
X13570484Y-13312484D02*
X13570484Y-13255915D01*
X13513915Y-13255915D01*
X13513915Y-13312484D01*
X13570484Y-13312484D01*
X13617284Y-8905585D02*
X13617284Y-8849016D01*
X13560715Y-8849016D01*
X13560715Y-8905585D01*
X13617284Y-8905585D01*
X13617284Y-9667585D02*
X13617284Y-9611016D01*
X13560715Y-9611016D01*
X13560715Y-9667585D01*
X13617284Y-9667585D01*
X13617284Y-10302585D02*
X13617284Y-10246016D01*
X13560715Y-10246016D01*
X13560715Y-10302585D01*
X13617284Y-10302585D01*
X13617284Y-11826584D02*
X13617284Y-11770015D01*
X13560715Y-11770015D01*
X13560715Y-11826584D01*
X13617284Y-11826584D01*
X13820484Y-13312484D02*
X13820484Y-13255915D01*
X13763915Y-13255915D01*
X13763915Y-13312484D01*
X13820484Y-13312484D01*
X13871284Y-6403684D02*
X13871284Y-6347115D01*
X13814715Y-6347115D01*
X13814715Y-6403684D01*
X13871284Y-6403684D01*
X13871284Y-7165684D02*
X13871284Y-7109115D01*
X13814715Y-7109115D01*
X13814715Y-7165684D01*
X13871284Y-7165684D01*
X13871284Y-8905585D02*
X13871284Y-8849016D01*
X13814715Y-8849016D01*
X13814715Y-8905585D01*
X13871284Y-8905585D01*
X13871284Y-9667585D02*
X13871284Y-9611016D01*
X13814715Y-9611016D01*
X13814715Y-9667585D01*
X13871284Y-9667585D01*
X13871284Y-10302585D02*
X13871284Y-10246016D01*
X13814715Y-10246016D01*
X13814715Y-10302585D01*
X13871284Y-10302585D01*
X13871284Y-11826584D02*
X13871284Y-11770015D01*
X13814715Y-11770015D01*
X13814715Y-11826584D01*
X13871284Y-11826584D01*
X13926084Y-5819484D02*
X13926084Y-5762915D01*
X13869515Y-5762915D01*
X13869515Y-5819484D01*
X13926084Y-5819484D01*
X14125284Y-6403684D02*
X14125284Y-6347115D01*
X14068715Y-6347115D01*
X14068715Y-6403684D01*
X14125284Y-6403684D01*
X14125284Y-7165684D02*
X14125284Y-7109115D01*
X14068715Y-7109115D01*
X14068715Y-7165684D01*
X14125284Y-7165684D01*
X14125284Y-8905585D02*
X14125284Y-8849016D01*
X14068715Y-8849016D01*
X14068715Y-8905585D01*
X14125284Y-8905585D01*
X14125284Y-9667585D02*
X14125284Y-9611016D01*
X14068715Y-9611016D01*
X14068715Y-9667585D01*
X14125284Y-9667585D01*
X14125284Y-10302585D02*
X14125284Y-10246016D01*
X14068715Y-10246016D01*
X14068715Y-10302585D01*
X14125284Y-10302585D01*
X14125284Y-11826584D02*
X14125284Y-11770015D01*
X14068715Y-11770015D01*
X14068715Y-11826584D01*
X14125284Y-11826584D01*
X14129284Y-7546684D02*
X14129284Y-7490115D01*
X14072715Y-7490115D01*
X14072715Y-7546684D01*
X14129284Y-7546684D01*
X14176084Y-5819484D02*
X14176084Y-5762915D01*
X14119515Y-5762915D01*
X14119515Y-5819484D01*
X14176084Y-5819484D01*
X14379284Y-6403684D02*
X14379284Y-6347115D01*
X14322715Y-6347115D01*
X14322715Y-6403684D01*
X14379284Y-6403684D01*
X14379284Y-7165684D02*
X14379284Y-7109115D01*
X14322715Y-7109115D01*
X14322715Y-7165684D01*
X14379284Y-7165684D01*
X14379284Y-7546684D02*
X14379284Y-7490115D01*
X14322715Y-7490115D01*
X14322715Y-7546684D01*
X14379284Y-7546684D01*
X14379284Y-8905585D02*
X14379284Y-8849016D01*
X14322715Y-8849016D01*
X14322715Y-8905585D01*
X14379284Y-8905585D01*
X14379284Y-9667585D02*
X14379284Y-9611016D01*
X14322715Y-9611016D01*
X14322715Y-9667585D01*
X14379284Y-9667585D01*
X14379284Y-10302585D02*
X14379284Y-10246016D01*
X14322715Y-10246016D01*
X14322715Y-10302585D01*
X14379284Y-10302585D01*
X14379284Y-11826584D02*
X14379284Y-11770015D01*
X14322715Y-11770015D01*
X14322715Y-11826584D01*
X14379284Y-11826584D01*
X14561084Y-5819484D02*
X14561084Y-5762915D01*
X14504515Y-5762915D01*
X14504515Y-5819484D01*
X14561084Y-5819484D01*
X14633284Y-6403684D02*
X14633284Y-6347115D01*
X14576715Y-6347115D01*
X14576715Y-6403684D01*
X14633284Y-6403684D01*
X14633284Y-7165684D02*
X14633284Y-7109115D01*
X14576715Y-7109115D01*
X14576715Y-7165684D01*
X14633284Y-7165684D01*
X14633284Y-8905585D02*
X14633284Y-8849016D01*
X14576715Y-8849016D01*
X14576715Y-8905585D01*
X14633284Y-8905585D01*
X14633284Y-9667585D02*
X14633284Y-9611016D01*
X14576715Y-9611016D01*
X14576715Y-9667585D01*
X14633284Y-9667585D01*
X14633284Y-10302585D02*
X14633284Y-10246016D01*
X14576715Y-10246016D01*
X14576715Y-10302585D01*
X14633284Y-10302585D01*
X14633284Y-11826584D02*
X14633284Y-11770015D01*
X14576715Y-11770015D01*
X14576715Y-11826584D01*
X14633284Y-11826584D01*
X14811084Y-5819484D02*
X14811084Y-5762915D01*
X14754515Y-5762915D01*
X14754515Y-5819484D01*
X14811084Y-5819484D01*
X14887284Y-6403684D02*
X14887284Y-6347115D01*
X14830715Y-6347115D01*
X14830715Y-6403684D01*
X14887284Y-6403684D01*
X14887284Y-7165684D02*
X14887284Y-7109115D01*
X14830715Y-7109115D01*
X14830715Y-7165684D01*
X14887284Y-7165684D01*
X14887284Y-10302585D02*
X14887284Y-10246016D01*
X14830715Y-10246016D01*
X14830715Y-10302585D01*
X14887284Y-10302585D01*
X14887284Y-11826584D02*
X14887284Y-11770015D01*
X14830715Y-11770015D01*
X14830715Y-11826584D01*
X14887284Y-11826584D01*
X15039684Y-7572084D02*
X15039684Y-7515515D01*
X14983115Y-7515515D01*
X14983115Y-7572084D01*
X15039684Y-7572084D01*
X15090484Y-9163585D02*
X15090484Y-9107016D01*
X15033915Y-9107016D01*
X15033915Y-9163585D01*
X15090484Y-9163585D01*
X15090484Y-9413585D02*
X15090484Y-9357016D01*
X15033915Y-9357016D01*
X15033915Y-9413585D01*
X15090484Y-9413585D01*
X15141284Y-6403684D02*
X15141284Y-6347115D01*
X15084715Y-6347115D01*
X15084715Y-6403684D01*
X15141284Y-6403684D01*
X15141284Y-7165684D02*
X15141284Y-7109115D01*
X15084715Y-7109115D01*
X15084715Y-7165684D01*
X15141284Y-7165684D01*
X15141284Y-10302585D02*
X15141284Y-10246016D01*
X15084715Y-10246016D01*
X15084715Y-10302585D01*
X15141284Y-10302585D01*
X15141284Y-11826584D02*
X15141284Y-11770015D01*
X15084715Y-11770015D01*
X15084715Y-11826584D01*
X15141284Y-11826584D01*
X15196084Y-5819484D02*
X15196084Y-5762915D01*
X15139515Y-5762915D01*
X15139515Y-5819484D01*
X15196084Y-5819484D01*
X15289684Y-7572084D02*
X15289684Y-7515515D01*
X15233115Y-7515515D01*
X15233115Y-7572084D01*
X15289684Y-7572084D01*
X15395284Y-6403684D02*
X15395284Y-6347115D01*
X15338715Y-6347115D01*
X15338715Y-6403684D01*
X15395284Y-6403684D01*
X15395284Y-7165684D02*
X15395284Y-7109115D01*
X15338715Y-7109115D01*
X15338715Y-7165684D01*
X15395284Y-7165684D01*
X15395284Y-10302585D02*
X15395284Y-10246016D01*
X15338715Y-10246016D01*
X15338715Y-10302585D01*
X15395284Y-10302585D01*
X15395284Y-11826584D02*
X15395284Y-11770015D01*
X15338715Y-11770015D01*
X15338715Y-11826584D01*
X15395284Y-11826584D01*
X15446084Y-5819484D02*
X15446084Y-5762915D01*
X15389515Y-5762915D01*
X15389515Y-5819484D01*
X15446084Y-5819484D01*
X15649284Y-6403684D02*
X15649284Y-6347115D01*
X15592715Y-6347115D01*
X15592715Y-6403684D01*
X15649284Y-6403684D01*
X15649284Y-7165684D02*
X15649284Y-7109115D01*
X15592715Y-7109115D01*
X15592715Y-7165684D01*
X15649284Y-7165684D01*
X15649284Y-10302585D02*
X15649284Y-10246016D01*
X15592715Y-10246016D01*
X15592715Y-10302585D01*
X15649284Y-10302585D01*
X15649284Y-11826584D02*
X15649284Y-11770015D01*
X15592715Y-11770015D01*
X15592715Y-11826584D01*
X15649284Y-11826584D01*
X15653284Y-7572084D02*
X15653284Y-7515515D01*
X15596715Y-7515515D01*
X15596715Y-7572084D01*
X15653284Y-7572084D01*
X15831084Y-5819484D02*
X15831084Y-5762915D01*
X15774515Y-5762915D01*
X15774515Y-5819484D01*
X15831084Y-5819484D01*
X15903284Y-6403684D02*
X15903284Y-6347115D01*
X15846715Y-6347115D01*
X15846715Y-6403684D01*
X15903284Y-6403684D01*
X15903284Y-7165684D02*
X15903284Y-7109115D01*
X15846715Y-7109115D01*
X15846715Y-7165684D01*
X15903284Y-7165684D01*
X15903284Y-7572084D02*
X15903284Y-7515515D01*
X15846715Y-7515515D01*
X15846715Y-7572084D01*
X15903284Y-7572084D01*
X16081084Y-5819484D02*
X16081084Y-5762915D01*
X16024515Y-5762915D01*
X16024515Y-5819484D01*
X16081084Y-5819484D01*
X16157284Y-6403684D02*
X16157284Y-6347115D01*
X16100715Y-6347115D01*
X16100715Y-6403684D01*
X16157284Y-6403684D01*
X16157284Y-7165684D02*
X16157284Y-7109115D01*
X16100715Y-7109115D01*
X16100715Y-7165684D01*
X16157284Y-7165684D01*
X16741484Y-8080084D02*
X16741484Y-8023515D01*
X16684915Y-8023515D01*
X16684915Y-8080084D01*
X16741484Y-8080084D01*
X16745484Y-8588085D02*
X16745484Y-8531516D01*
X16688915Y-8531516D01*
X16688915Y-8588085D01*
X16745484Y-8588085D01*
X16991485Y-8080084D02*
X16991485Y-8023515D01*
X16934916Y-8023515D01*
X16934916Y-8080084D01*
X16991485Y-8080084D01*
X16995485Y-8588085D02*
X16995485Y-8531516D01*
X16938916Y-8531516D01*
X16938916Y-8588085D01*
X16995485Y-8588085D01*
X17325685Y-8080084D02*
X17325685Y-8023515D01*
X17269116Y-8023515D01*
X17269116Y-8080084D01*
X17325685Y-8080084D01*
X17325685Y-8588085D02*
X17325685Y-8531516D01*
X17269116Y-8531516D01*
X17269116Y-8588085D01*
X17325685Y-8588085D01*
X17888485Y-11331284D02*
X17888485Y-11274715D01*
X17831916Y-11274715D01*
X17831916Y-11331284D01*
X17888485Y-11331284D01*
X18138485Y-11331284D02*
X18138485Y-11274715D01*
X18081916Y-11274715D01*
X18081916Y-11331284D01*
X18138485Y-11331284D01*
X18341685Y-8080084D02*
X18341685Y-8023515D01*
X18285116Y-8023515D01*
X18285116Y-8080084D01*
X18341685Y-8080084D01*
X18341685Y-8588085D02*
X18341685Y-8531516D01*
X18285116Y-8531516D01*
X18285116Y-8588085D01*
X18341685Y-8588085D01*
X19040185Y-11636084D02*
X19040185Y-11579515D01*
X18983616Y-11579515D01*
X18983616Y-11636084D01*
X19040185Y-11636084D01*
X19040185Y-12652084D02*
X19040185Y-12595515D01*
X18983616Y-12595515D01*
X18983616Y-12652084D01*
X19040185Y-12652084D01*
X19535485Y-11636084D02*
X19535485Y-11579515D01*
X19478916Y-11579515D01*
X19478916Y-11636084D01*
X19535485Y-11636084D01*
X19535485Y-12652084D02*
X19535485Y-12595515D01*
X19478916Y-12595515D01*
X19478916Y-12652084D01*
X19535485Y-12652084D01*
X19469100Y-13335550D02*
X19514100Y-13290550D01*
X19469100Y-13245550D01*
X19424100Y-13290550D01*
X19469100Y-13335550D01*
X19723100Y-13335550D02*
X19768100Y-13290550D01*
X19723100Y-13245550D01*
X19678100Y-13290550D01*
X19723100Y-13335550D01*
X10948400Y-13912800D02*
X11048400Y-14012800D01*
X11048400Y-13912800D02*
X10948400Y-14012800D01*
X11048400Y-13962800D02*
G75*
G03*
X11048400Y-13962800I-50000J0D01*
G01*
X10948400Y-14420800D02*
X11048400Y-14520800D01*
X11048400Y-14420800D02*
X10948400Y-14520800D01*
X11048400Y-14470800D02*
G75*
G03*
X11048400Y-14470800I-50000J0D01*
G01*
X11202400Y-13912800D02*
X11302400Y-14012800D01*
X11302400Y-13912800D02*
X11202400Y-14012800D01*
X11302400Y-13962800D02*
G75*
G03*
X11302400Y-13962800I-50000J0D01*
G01*
X11202400Y-14420800D02*
X11302400Y-14520800D01*
X11302400Y-14420800D02*
X11202400Y-14520800D01*
X11302400Y-14470800D02*
G75*
G03*
X11302400Y-14470800I-50000J0D01*
G01*
X11456400Y-13912800D02*
X11556400Y-14012800D01*
X11556400Y-13912800D02*
X11456400Y-14012800D01*
X11556400Y-13962800D02*
G75*
G03*
X11556400Y-13962800I-50000J0D01*
G01*
X11456400Y-14420800D02*
X11556400Y-14520800D01*
X11556400Y-14420800D02*
X11456400Y-14520800D01*
X11556400Y-14470800D02*
G75*
G03*
X11556400Y-14470800I-50000J0D01*
G01*
X11710400Y-13912800D02*
X11810400Y-14012800D01*
X11810400Y-13912800D02*
X11710400Y-14012800D01*
X11810400Y-13962800D02*
G75*
G03*
X11810400Y-13962800I-50000J0D01*
G01*
X11710400Y-14420800D02*
X11810400Y-14520800D01*
X11810400Y-14420800D02*
X11710400Y-14520800D01*
X11810400Y-14470800D02*
G75*
G03*
X11810400Y-14470800I-50000J0D01*
G01*
X11964400Y-13912800D02*
X12064400Y-14012800D01*
X12064400Y-13912800D02*
X11964400Y-14012800D01*
X12064400Y-13962800D02*
G75*
G03*
X12064400Y-13962800I-50000J0D01*
G01*
X11964400Y-14420800D02*
X12064400Y-14520800D01*
X12064400Y-14420800D02*
X11964400Y-14520800D01*
X12064400Y-14470800D02*
G75*
G03*
X12064400Y-14470800I-50000J0D01*
G01*
X12218400Y-13912800D02*
X12318400Y-14012800D01*
X12318400Y-13912800D02*
X12218400Y-14012800D01*
X12318400Y-13962800D02*
G75*
G03*
X12318400Y-13962800I-50000J0D01*
G01*
X12218400Y-14420800D02*
X12318400Y-14520800D01*
X12318400Y-14420800D02*
X12218400Y-14520800D01*
X12318400Y-14470800D02*
G75*
G03*
X12318400Y-14470800I-50000J0D01*
G01*
X12472400Y-13912800D02*
X12572400Y-14012800D01*
X12572400Y-13912800D02*
X12472400Y-14012800D01*
X12572400Y-13962800D02*
G75*
G03*
X12572400Y-13962800I-50000J0D01*
G01*
X12472400Y-14420800D02*
X12572400Y-14520800D01*
X12572400Y-14420800D02*
X12472400Y-14520800D01*
X12572400Y-14470800D02*
G75*
G03*
X12572400Y-14470800I-50000J0D01*
G01*
X12726400Y-13912800D02*
X12826400Y-14012800D01*
X12826400Y-13912800D02*
X12726400Y-14012800D01*
X12826400Y-13962800D02*
G75*
G03*
X12826400Y-13962800I-50000J0D01*
G01*
X12726400Y-14420800D02*
X12826400Y-14520800D01*
X12826400Y-14420800D02*
X12726400Y-14520800D01*
X12826400Y-14470800D02*
G75*
G03*
X12826400Y-14470800I-50000J0D01*
G01*
X12980400Y-13912800D02*
X13080400Y-14012800D01*
X13080400Y-13912800D02*
X12980400Y-14012800D01*
X13080400Y-13962800D02*
G75*
G03*
X13080400Y-13962800I-50000J0D01*
G01*
X12980400Y-14420800D02*
X13080400Y-14520800D01*
X13080400Y-14420800D02*
X12980400Y-14520800D01*
X13080400Y-14470800D02*
G75*
G03*
X13080400Y-14470800I-50000J0D01*
G01*
X13234400Y-13912800D02*
X13334400Y-14012800D01*
X13334400Y-13912800D02*
X13234400Y-14012800D01*
X13334400Y-13962800D02*
G75*
G03*
X13334400Y-13962800I-50000J0D01*
G01*
X13234400Y-14420800D02*
X13334400Y-14520800D01*
X13334400Y-14420800D02*
X13234400Y-14520800D01*
X13334400Y-14470800D02*
G75*
G03*
X13334400Y-14470800I-50000J0D01*
G01*
X13488400Y-13912800D02*
X13588400Y-14012800D01*
X13588400Y-13912800D02*
X13488400Y-14012800D01*
X13588400Y-13962800D02*
G75*
G03*
X13588400Y-13962800I-50000J0D01*
G01*
X13488400Y-14420800D02*
X13588400Y-14520800D01*
X13588400Y-14420800D02*
X13488400Y-14520800D01*
X13588400Y-14470800D02*
G75*
G03*
X13588400Y-14470800I-50000J0D01*
G01*
X13742400Y-13912800D02*
X13842400Y-14012800D01*
X13842400Y-13912800D02*
X13742400Y-14012800D01*
X13842400Y-13962800D02*
G75*
G03*
X13842400Y-13962800I-50000J0D01*
G01*
X13742400Y-14420800D02*
X13842400Y-14520800D01*
X13842400Y-14420800D02*
X13742400Y-14520800D01*
X13842400Y-14470800D02*
G75*
G03*
X13842400Y-14470800I-50000J0D01*
G01*
X13996400Y-13912800D02*
X14096400Y-14012800D01*
X14096400Y-13912800D02*
X13996400Y-14012800D01*
X14096400Y-13962800D02*
G75*
G03*
X14096400Y-13962800I-50000J0D01*
G01*
X13996400Y-14420800D02*
X14096400Y-14520800D01*
X14096400Y-14420800D02*
X13996400Y-14520800D01*
X14096400Y-14470800D02*
G75*
G03*
X14096400Y-14470800I-50000J0D01*
G01*
X14250400Y-13912800D02*
X14350400Y-14012800D01*
X14350400Y-13912800D02*
X14250400Y-14012800D01*
X14350400Y-13962800D02*
G75*
G03*
X14350400Y-13962800I-50000J0D01*
G01*
X14250400Y-14420800D02*
X14350400Y-14520800D01*
X14350400Y-14420800D02*
X14250400Y-14520800D01*
X14350400Y-14470800D02*
G75*
G03*
X14350400Y-14470800I-50000J0D01*
G01*
X14504400Y-13912800D02*
X14604400Y-14012800D01*
X14604400Y-13912800D02*
X14504400Y-14012800D01*
X14604400Y-13962800D02*
G75*
G03*
X14604400Y-13962800I-50000J0D01*
G01*
X14504400Y-14420800D02*
X14604400Y-14520800D01*
X14604400Y-14420800D02*
X14504400Y-14520800D01*
X14604400Y-14470800D02*
G75*
G03*
X14604400Y-14470800I-50000J0D01*
G01*
X14758400Y-13912800D02*
X14858400Y-14012800D01*
X14858400Y-13912800D02*
X14758400Y-14012800D01*
X14858400Y-13962800D02*
G75*
G03*
X14858400Y-13962800I-50000J0D01*
G01*
X14758400Y-14420800D02*
X14858400Y-14520800D01*
X14858400Y-14420800D02*
X14758400Y-14520800D01*
X14858400Y-14470800D02*
G75*
G03*
X14858400Y-14470800I-50000J0D01*
G01*
X15012400Y-13912800D02*
X15112400Y-14012800D01*
X15112400Y-13912800D02*
X15012400Y-14012800D01*
X15112400Y-13962800D02*
G75*
G03*
X15112400Y-13962800I-50000J0D01*
G01*
X15012400Y-14420800D02*
X15112400Y-14520800D01*
X15112400Y-14420800D02*
X15012400Y-14520800D01*
X15112400Y-14470800D02*
G75*
G03*
X15112400Y-14470800I-50000J0D01*
G01*
X15266400Y-13912800D02*
X15366400Y-14012800D01*
X15366400Y-13912800D02*
X15266400Y-14012800D01*
X15366400Y-13962800D02*
G75*
G03*
X15366400Y-13962800I-50000J0D01*
G01*
X15266400Y-14420800D02*
X15366400Y-14520800D01*
X15366400Y-14420800D02*
X15266400Y-14520800D01*
X15366400Y-14470800D02*
G75*
G03*
X15366400Y-14470800I-50000J0D01*
G01*
X15520400Y-13912800D02*
X15620400Y-14012800D01*
X15620400Y-13912800D02*
X15520400Y-14012800D01*
X15620400Y-13962800D02*
G75*
G03*
X15620400Y-13962800I-50000J0D01*
G01*
X15520400Y-14420800D02*
X15620400Y-14520800D01*
X15620400Y-14420800D02*
X15520400Y-14520800D01*
X15620400Y-14470800D02*
G75*
G03*
X15620400Y-14470800I-50000J0D01*
G01*
X15774400Y-13912800D02*
X15874400Y-14012800D01*
X15874400Y-13912800D02*
X15774400Y-14012800D01*
X15874400Y-13962800D02*
G75*
G03*
X15874400Y-13962800I-50000J0D01*
G01*
X15774400Y-14420800D02*
X15874400Y-14520800D01*
X15874400Y-14420800D02*
X15774400Y-14520800D01*
X15874400Y-14470800D02*
G75*
G03*
X15874400Y-14470800I-50000J0D01*
G01*
X16028400Y-13912800D02*
X16128400Y-14012800D01*
X16128400Y-13912800D02*
X16028400Y-14012800D01*
X16128400Y-13962800D02*
G75*
G03*
X16128400Y-13962800I-50000J0D01*
G01*
X16028400Y-14420800D02*
X16128400Y-14520800D01*
X16128400Y-14420800D02*
X16028400Y-14520800D01*
X16128400Y-14470800D02*
G75*
G03*
X16128400Y-14470800I-50000J0D01*
G01*
X16282400Y-13912800D02*
X16382400Y-14012800D01*
X16382400Y-13912800D02*
X16282400Y-14012800D01*
X16382400Y-13962800D02*
G75*
G03*
X16382400Y-13962800I-50000J0D01*
G01*
X16282400Y-14420800D02*
X16382400Y-14520800D01*
X16382400Y-14420800D02*
X16282400Y-14520800D01*
X16382400Y-14470800D02*
G75*
G03*
X16382400Y-14470800I-50000J0D01*
G01*
X16434600Y-10719600D02*
X16534600Y-10819600D01*
X16534600Y-10719600D02*
X16434600Y-10819600D01*
X16534600Y-10769600D02*
G75*
G03*
X16534600Y-10769600I-50000J0D01*
G01*
X16536400Y-13912800D02*
X16636400Y-14012800D01*
X16636400Y-13912800D02*
X16536400Y-14012800D01*
X16636400Y-13962800D02*
G75*
G03*
X16636400Y-13962800I-50000J0D01*
G01*
X16536400Y-14420800D02*
X16636400Y-14520800D01*
X16636400Y-14420800D02*
X16536400Y-14520800D01*
X16636400Y-14470800D02*
G75*
G03*
X16636400Y-14470800I-50000J0D01*
G01*
X16688600Y-10719600D02*
X16788600Y-10819600D01*
X16788600Y-10719600D02*
X16688600Y-10819600D01*
X16788600Y-10769600D02*
G75*
G03*
X16788600Y-10769600I-50000J0D01*
G01*
X16790400Y-13912800D02*
X16890400Y-14012800D01*
X16890400Y-13912800D02*
X16790400Y-14012800D01*
X16890400Y-13962800D02*
G75*
G03*
X16890400Y-13962800I-50000J0D01*
G01*
X16790400Y-14420800D02*
X16890400Y-14520800D01*
X16890400Y-14420800D02*
X16790400Y-14520800D01*
X16890400Y-14470800D02*
G75*
G03*
X16890400Y-14470800I-50000J0D01*
G01*
X16942600Y-10719600D02*
X17042600Y-10819600D01*
X17042600Y-10719600D02*
X16942600Y-10819600D01*
X17042600Y-10769600D02*
G75*
G03*
X17042600Y-10769600I-50000J0D01*
G01*
X17044400Y-13912800D02*
X17144400Y-14012800D01*
X17144400Y-13912800D02*
X17044400Y-14012800D01*
X17144400Y-13962800D02*
G75*
G03*
X17144400Y-13962800I-50000J0D01*
G01*
X17044400Y-14420800D02*
X17144400Y-14520800D01*
X17144400Y-14420800D02*
X17044400Y-14520800D01*
X17144400Y-14470800D02*
G75*
G03*
X17144400Y-14470800I-50000J0D01*
G01*
X17196600Y-10719600D02*
X17296600Y-10819600D01*
X17296600Y-10719600D02*
X17196600Y-10819600D01*
X17296600Y-10769600D02*
G75*
G03*
X17296600Y-10769600I-50000J0D01*
G01*
X17298400Y-13912800D02*
X17398400Y-14012800D01*
X17398400Y-13912800D02*
X17298400Y-14012800D01*
X17398400Y-13962800D02*
G75*
G03*
X17398400Y-13962800I-50000J0D01*
G01*
X17298400Y-14420800D02*
X17398400Y-14520800D01*
X17398400Y-14420800D02*
X17298400Y-14520800D01*
X17398400Y-14470800D02*
G75*
G03*
X17398400Y-14470800I-50000J0D01*
G01*
X17450600Y-10719600D02*
X17550600Y-10819600D01*
X17550600Y-10719600D02*
X17450600Y-10819600D01*
X17550600Y-10769600D02*
G75*
G03*
X17550600Y-10769600I-50000J0D01*
G01*
X17552400Y-13912800D02*
X17652400Y-14012800D01*
X17652400Y-13912800D02*
X17552400Y-14012800D01*
X17652400Y-13962800D02*
G75*
G03*
X17652400Y-13962800I-50000J0D01*
G01*
X17552400Y-14420800D02*
X17652400Y-14520800D01*
X17652400Y-14420800D02*
X17552400Y-14520800D01*
X17652400Y-14470800D02*
G75*
G03*
X17652400Y-14470800I-50000J0D01*
G01*
X17704600Y-6985800D02*
X17804600Y-7085800D01*
X17804600Y-6985800D02*
X17704600Y-7085800D01*
X17804600Y-7035800D02*
G75*
G03*
X17804600Y-7035800I-50000J0D01*
G01*
X17704600Y-10719600D02*
X17804600Y-10819600D01*
X17804600Y-10719600D02*
X17704600Y-10819600D01*
X17804600Y-10769600D02*
G75*
G03*
X17804600Y-10769600I-50000J0D01*
G01*
X17730000Y-5741200D02*
X17830000Y-5841200D01*
X17830000Y-5741200D02*
X17730000Y-5841200D01*
X17830000Y-5791200D02*
G75*
G03*
X17830000Y-5791200I-50000J0D01*
G01*
X17806400Y-13912800D02*
X17906400Y-14012800D01*
X17906400Y-13912800D02*
X17806400Y-14012800D01*
X17906400Y-13962800D02*
G75*
G03*
X17906400Y-13962800I-50000J0D01*
G01*
X17806400Y-14420800D02*
X17906400Y-14520800D01*
X17906400Y-14420800D02*
X17806400Y-14520800D01*
X17906400Y-14470800D02*
G75*
G03*
X17906400Y-14470800I-50000J0D01*
G01*
X18060400Y-13912800D02*
X18160400Y-14012800D01*
X18160400Y-13912800D02*
X18060400Y-14012800D01*
X18160400Y-13962800D02*
G75*
G03*
X18160400Y-13962800I-50000J0D01*
G01*
X18060400Y-14420800D02*
X18160400Y-14520800D01*
X18160400Y-14420800D02*
X18060400Y-14520800D01*
X18160400Y-14470800D02*
G75*
G03*
X18160400Y-14470800I-50000J0D01*
G01*
X18204600Y-6985800D02*
X18304600Y-7085800D01*
X18304600Y-6985800D02*
X18204600Y-7085800D01*
X18304600Y-7035800D02*
G75*
G03*
X18304600Y-7035800I-50000J0D01*
G01*
X18230000Y-5741200D02*
X18330000Y-5841200D01*
X18330000Y-5741200D02*
X18230000Y-5841200D01*
X18330000Y-5791200D02*
G75*
G03*
X18330000Y-5791200I-50000J0D01*
G01*
X18314400Y-13912800D02*
X18414400Y-14012800D01*
X18414400Y-13912800D02*
X18314400Y-14012800D01*
X18414400Y-13962800D02*
G75*
G03*
X18414400Y-13962800I-50000J0D01*
G01*
X18314400Y-14420800D02*
X18414400Y-14520800D01*
X18414400Y-14420800D02*
X18314400Y-14520800D01*
X18414400Y-14470800D02*
G75*
G03*
X18414400Y-14470800I-50000J0D01*
G01*
X18568400Y-13912800D02*
X18668400Y-14012800D01*
X18668400Y-13912800D02*
X18568400Y-14012800D01*
X18668400Y-13962800D02*
G75*
G03*
X18668400Y-13962800I-50000J0D01*
G01*
X18568400Y-14420800D02*
X18668400Y-14520800D01*
X18668400Y-14420800D02*
X18568400Y-14520800D01*
X18668400Y-14470800D02*
G75*
G03*
X18668400Y-14470800I-50000J0D01*
G01*
X18822400Y-13912800D02*
X18922400Y-14012800D01*
X18922400Y-13912800D02*
X18822400Y-14012800D01*
X18922400Y-13962800D02*
G75*
G03*
X18922400Y-13962800I-50000J0D01*
G01*
X18822400Y-14420800D02*
X18922400Y-14520800D01*
X18922400Y-14420800D02*
X18822400Y-14520800D01*
X18922400Y-14470800D02*
G75*
G03*
X18922400Y-14470800I-50000J0D01*
G01*
X10577600Y-9948950D02*
X10707600Y-10078950D01*
X10707600Y-9948950D02*
X10577600Y-10078950D01*
X10642600Y-9948950D02*
X10642600Y-10078950D01*
X10577600Y-10013950D02*
X10707600Y-10013950D01*
X10577600Y-10448950D02*
X10707600Y-10578950D01*
X10707600Y-10448950D02*
X10577600Y-10578950D01*
X10642600Y-10448950D02*
X10642600Y-10578950D01*
X10577600Y-10513950D02*
X10707600Y-10513950D01*
X11542800Y-9961650D02*
X11672800Y-10091650D01*
X11672800Y-9961650D02*
X11542800Y-10091650D01*
X11607800Y-9961650D02*
X11607800Y-10091650D01*
X11542800Y-10026650D02*
X11672800Y-10026650D01*
X11542800Y-10461650D02*
X11672800Y-10591650D01*
X11672800Y-10461650D02*
X11542800Y-10591650D01*
X11607800Y-10461650D02*
X11607800Y-10591650D01*
X11542800Y-10526650D02*
X11672800Y-10526650D01*
X16580000Y-5726200D02*
X16710000Y-5856200D01*
X16710000Y-5726200D02*
X16580000Y-5856200D01*
X16645000Y-5726200D02*
X16645000Y-5856200D01*
X16580000Y-5791200D02*
X16710000Y-5791200D01*
X16580000Y-6970800D02*
X16710000Y-7100800D01*
X16710000Y-6970800D02*
X16580000Y-7100800D01*
X16645000Y-6970800D02*
X16645000Y-7100800D01*
X16580000Y-7035800D02*
X16710000Y-7035800D01*
X17080000Y-5726200D02*
X17210000Y-5856200D01*
X17210000Y-5726200D02*
X17080000Y-5856200D01*
X17145000Y-5726200D02*
X17145000Y-5856200D01*
X17080000Y-5791200D02*
X17210000Y-5791200D01*
X17080000Y-6970800D02*
X17210000Y-7100800D01*
X17210000Y-6970800D02*
X17080000Y-7100800D01*
X17145000Y-6970800D02*
X17145000Y-7100800D01*
X17080000Y-7035800D02*
X17210000Y-7035800D01*
X19043800Y-6064400D02*
X19173800Y-6194400D01*
X19173800Y-6064400D02*
X19043800Y-6194400D01*
X19108800Y-6064400D02*
X19108800Y-6194400D01*
X19043800Y-6129400D02*
X19173800Y-6129400D01*
X19043800Y-6564400D02*
X19173800Y-6694400D01*
X19173800Y-6564400D02*
X19043800Y-6694400D01*
X19108800Y-6564400D02*
X19108800Y-6694400D01*
X19043800Y-6629400D02*
X19173800Y-6629400D01*
X19043800Y-7064400D02*
X19173800Y-7194400D01*
X19173800Y-7064400D02*
X19043800Y-7194400D01*
X19108800Y-7064400D02*
X19108800Y-7194400D01*
X19043800Y-7129400D02*
X19173800Y-7129400D01*
X19543800Y-6064400D02*
X19673800Y-6194400D01*
X19673800Y-6064400D02*
X19543800Y-6194400D01*
X19608800Y-6064400D02*
X19608800Y-6194400D01*
X19543800Y-6129400D02*
X19673800Y-6129400D01*
X19543800Y-6564400D02*
X19673800Y-6694400D01*
X19673800Y-6564400D02*
X19543800Y-6694400D01*
X19608800Y-6564400D02*
X19608800Y-6694400D01*
X19543800Y-6629400D02*
X19673800Y-6629400D01*
X19543800Y-7064400D02*
X19673800Y-7194400D01*
X19673800Y-7064400D02*
X19543800Y-7194400D01*
X19608800Y-7064400D02*
X19608800Y-7194400D01*
X19543800Y-7129400D02*
X19673800Y-7129400D01*
D12*
X10283928Y-15468214D02*
X10283928Y-15168214D01*
X10355357Y-15168214D01*
X10398214Y-15182500D01*
X10426786Y-15211071D01*
X10441071Y-15239643D01*
X10455357Y-15296786D01*
X10455357Y-15339643D01*
X10441071Y-15396786D01*
X10426786Y-15425357D01*
X10398214Y-15453929D01*
X10355357Y-15468214D01*
X10283928Y-15468214D01*
X10583928Y-15468214D02*
X10583928Y-15268214D01*
X10583928Y-15325357D02*
X10598214Y-15296786D01*
X10612500Y-15282500D01*
X10641071Y-15268214D01*
X10669643Y-15268214D01*
X10769643Y-15468214D02*
X10769643Y-15268214D01*
X10769643Y-15168214D02*
X10755357Y-15182500D01*
X10769643Y-15196786D01*
X10783928Y-15182500D01*
X10769643Y-15168214D01*
X10769643Y-15196786D01*
X10955357Y-15468214D02*
X10926786Y-15453929D01*
X10912500Y-15425357D01*
X10912500Y-15168214D01*
X11112500Y-15468214D02*
X11083928Y-15453929D01*
X11069643Y-15425357D01*
X11069643Y-15168214D01*
X11455357Y-15468214D02*
X11455357Y-15168214D01*
X11555357Y-15382500D01*
X11655357Y-15168214D01*
X11655357Y-15468214D01*
X11926786Y-15468214D02*
X11926786Y-15311071D01*
X11912500Y-15282500D01*
X11883928Y-15268214D01*
X11826786Y-15268214D01*
X11798214Y-15282500D01*
X11926786Y-15453929D02*
X11898214Y-15468214D01*
X11826786Y-15468214D01*
X11798214Y-15453929D01*
X11783928Y-15425357D01*
X11783928Y-15396786D01*
X11798214Y-15368214D01*
X11826786Y-15353929D01*
X11898214Y-15353929D01*
X11926786Y-15339643D01*
X12069643Y-15268214D02*
X12069643Y-15568214D01*
X12069643Y-15282500D02*
X12098214Y-15268214D01*
X12155357Y-15268214D01*
X12183928Y-15282500D01*
X12198214Y-15296786D01*
X12212500Y-15325357D01*
X12212500Y-15411071D01*
X12198214Y-15439643D01*
X12183928Y-15453929D01*
X12155357Y-15468214D01*
X12098214Y-15468214D01*
X12069643Y-15453929D01*
X12341071Y-15439643D02*
X12355357Y-15453929D01*
X12341071Y-15468214D01*
X12326786Y-15453929D01*
X12341071Y-15439643D01*
X12341071Y-15468214D01*
X12341071Y-15282500D02*
X12355357Y-15296786D01*
X12341071Y-15311071D01*
X12326786Y-15296786D01*
X12341071Y-15282500D01*
X12341071Y-15311071D01*
X9957500Y-15942500D02*
X9997500Y-15982500D01*
X9997500Y-15942500D02*
X9957500Y-15982500D01*
X10341071Y-15798214D02*
X10369643Y-15798214D01*
X10398214Y-15812500D01*
X10412500Y-15826786D01*
X10426786Y-15855357D01*
X10441071Y-15912500D01*
X10441071Y-15983929D01*
X10426786Y-16041071D01*
X10412500Y-16069643D01*
X10398214Y-16083929D01*
X10369643Y-16098214D01*
X10341071Y-16098214D01*
X10312500Y-16083929D01*
X10298214Y-16069643D01*
X10283928Y-16041071D01*
X10269643Y-15983929D01*
X10269643Y-15912500D01*
X10283928Y-15855357D01*
X10298214Y-15826786D01*
X10312500Y-15812500D01*
X10341071Y-15798214D01*
X10569643Y-16069643D02*
X10583928Y-16083929D01*
X10569643Y-16098214D01*
X10555357Y-16083929D01*
X10569643Y-16069643D01*
X10569643Y-16098214D01*
X10841071Y-15898214D02*
X10841071Y-16098214D01*
X10769643Y-15783929D02*
X10698214Y-15998214D01*
X10883928Y-15998214D01*
X11055357Y-15798214D02*
X11083928Y-15798214D01*
X11112500Y-15812500D01*
X11126786Y-15826786D01*
X11141071Y-15855357D01*
X11155357Y-15912500D01*
X11155357Y-15983929D01*
X11141071Y-16041071D01*
X11126786Y-16069643D01*
X11112500Y-16083929D01*
X11083928Y-16098214D01*
X11055357Y-16098214D01*
X11026786Y-16083929D01*
X11012500Y-16069643D01*
X10998214Y-16041071D01*
X10983928Y-15983929D01*
X10983928Y-15912500D01*
X10998214Y-15855357D01*
X11012500Y-15826786D01*
X11026786Y-15812500D01*
X11055357Y-15798214D01*
X11341071Y-15798214D02*
X11369643Y-15798214D01*
X11398214Y-15812500D01*
X11412500Y-15826786D01*
X11426786Y-15855357D01*
X11441071Y-15912500D01*
X11441071Y-15983929D01*
X11426786Y-16041071D01*
X11412500Y-16069643D01*
X11398214Y-16083929D01*
X11369643Y-16098214D01*
X11341071Y-16098214D01*
X11312500Y-16083929D01*
X11298214Y-16069643D01*
X11283928Y-16041071D01*
X11269643Y-15983929D01*
X11269643Y-15912500D01*
X11283928Y-15855357D01*
X11298214Y-15826786D01*
X11312500Y-15812500D01*
X11341071Y-15798214D01*
X11569643Y-16098214D02*
X11569643Y-15898214D01*
X11569643Y-15926786D02*
X11583928Y-15912500D01*
X11612500Y-15898214D01*
X11655357Y-15898214D01*
X11683928Y-15912500D01*
X11698214Y-15941071D01*
X11698214Y-16098214D01*
X11698214Y-15941071D02*
X11712500Y-15912500D01*
X11741071Y-15898214D01*
X11783928Y-15898214D01*
X11812500Y-15912500D01*
X11826786Y-15941071D01*
X11826786Y-16098214D01*
X11969643Y-16098214D02*
X11969643Y-15898214D01*
X11969643Y-15926786D02*
X11983928Y-15912500D01*
X12012500Y-15898214D01*
X12055357Y-15898214D01*
X12083928Y-15912500D01*
X12098214Y-15941071D01*
X12098214Y-16098214D01*
X12098214Y-15941071D02*
X12112500Y-15912500D01*
X12141071Y-15898214D01*
X12183928Y-15898214D01*
X12212500Y-15912500D01*
X12226786Y-15941071D01*
X12226786Y-16098214D01*
X12812500Y-15783929D02*
X12555357Y-16169643D01*
X13198214Y-15798214D02*
X13226786Y-15798214D01*
X13255357Y-15812500D01*
X13269643Y-15826786D01*
X13283928Y-15855357D01*
X13298214Y-15912500D01*
X13298214Y-15983929D01*
X13283928Y-16041071D01*
X13269643Y-16069643D01*
X13255357Y-16083929D01*
X13226786Y-16098214D01*
X13198214Y-16098214D01*
X13169643Y-16083929D01*
X13155357Y-16069643D01*
X13141071Y-16041071D01*
X13126786Y-15983929D01*
X13126786Y-15912500D01*
X13141071Y-15855357D01*
X13155357Y-15826786D01*
X13169643Y-15812500D01*
X13198214Y-15798214D01*
X13426786Y-16069643D02*
X13441071Y-16083929D01*
X13426786Y-16098214D01*
X13412500Y-16083929D01*
X13426786Y-16069643D01*
X13426786Y-16098214D01*
X13626786Y-15798214D02*
X13655357Y-15798214D01*
X13683928Y-15812500D01*
X13698214Y-15826786D01*
X13712500Y-15855357D01*
X13726786Y-15912500D01*
X13726786Y-15983929D01*
X13712500Y-16041071D01*
X13698214Y-16069643D01*
X13683928Y-16083929D01*
X13655357Y-16098214D01*
X13626786Y-16098214D01*
X13598214Y-16083929D01*
X13583928Y-16069643D01*
X13569643Y-16041071D01*
X13555357Y-15983929D01*
X13555357Y-15912500D01*
X13569643Y-15855357D01*
X13583928Y-15826786D01*
X13598214Y-15812500D01*
X13626786Y-15798214D01*
X14012500Y-16098214D02*
X13841071Y-16098214D01*
X13926786Y-16098214D02*
X13926786Y-15798214D01*
X13898214Y-15841071D01*
X13869643Y-15869643D01*
X13841071Y-15883929D01*
X14283928Y-15798214D02*
X14141071Y-15798214D01*
X14126786Y-15941071D01*
X14141071Y-15926786D01*
X14169643Y-15912500D01*
X14241071Y-15912500D01*
X14269643Y-15926786D01*
X14283928Y-15941071D01*
X14298214Y-15969643D01*
X14298214Y-16041071D01*
X14283928Y-16069643D01*
X14269643Y-16083929D01*
X14241071Y-16098214D01*
X14169643Y-16098214D01*
X14141071Y-16083929D01*
X14126786Y-16069643D01*
X14398214Y-15798214D02*
X14598214Y-15798214D01*
X14469643Y-16098214D01*
X14698214Y-15798214D02*
X14698214Y-15855357D01*
X14812500Y-15798214D02*
X14812500Y-15855357D01*
X15255357Y-16212500D02*
X15241071Y-16198214D01*
X15212500Y-16155357D01*
X15198214Y-16126786D01*
X15183928Y-16083929D01*
X15169643Y-16012500D01*
X15169643Y-15955357D01*
X15183928Y-15883929D01*
X15198214Y-15841071D01*
X15212500Y-15812500D01*
X15241071Y-15769643D01*
X15255357Y-15755357D01*
X15498214Y-15898214D02*
X15498214Y-16098214D01*
X15426786Y-15783929D02*
X15355357Y-15998214D01*
X15541071Y-15998214D01*
X15626786Y-15798214D02*
X15826786Y-15798214D01*
X15698214Y-16098214D01*
X16169643Y-16098214D02*
X16169643Y-15798214D01*
X16298214Y-16098214D02*
X16298214Y-15941071D01*
X16283928Y-15912500D01*
X16255357Y-15898214D01*
X16212500Y-15898214D01*
X16183928Y-15912500D01*
X16169643Y-15926786D01*
X16483928Y-16098214D02*
X16455357Y-16083929D01*
X16441071Y-16069643D01*
X16426786Y-16041071D01*
X16426786Y-15955357D01*
X16441071Y-15926786D01*
X16455357Y-15912500D01*
X16483928Y-15898214D01*
X16526786Y-15898214D01*
X16555357Y-15912500D01*
X16569643Y-15926786D01*
X16583928Y-15955357D01*
X16583928Y-16041071D01*
X16569643Y-16069643D01*
X16555357Y-16083929D01*
X16526786Y-16098214D01*
X16483928Y-16098214D01*
X16755357Y-16098214D02*
X16726786Y-16083929D01*
X16712500Y-16055357D01*
X16712500Y-15798214D01*
X16983928Y-16083929D02*
X16955357Y-16098214D01*
X16898214Y-16098214D01*
X16869643Y-16083929D01*
X16855357Y-16055357D01*
X16855357Y-15941071D01*
X16869643Y-15912500D01*
X16898214Y-15898214D01*
X16955357Y-15898214D01*
X16983928Y-15912500D01*
X16998214Y-15941071D01*
X16998214Y-15969643D01*
X16855357Y-15998214D01*
X17112500Y-16083929D02*
X17141071Y-16098214D01*
X17198214Y-16098214D01*
X17226786Y-16083929D01*
X17241071Y-16055357D01*
X17241071Y-16041071D01*
X17226786Y-16012500D01*
X17198214Y-15998214D01*
X17155357Y-15998214D01*
X17126786Y-15983929D01*
X17112500Y-15955357D01*
X17112500Y-15941071D01*
X17126786Y-15912500D01*
X17155357Y-15898214D01*
X17198214Y-15898214D01*
X17226786Y-15912500D01*
X17341071Y-16212500D02*
X17355357Y-16198214D01*
X17383928Y-16155357D01*
X17398214Y-16126786D01*
X17412500Y-16083929D01*
X17426786Y-16012500D01*
X17426786Y-15955357D01*
X17412500Y-15883929D01*
X17398214Y-15841071D01*
X17383928Y-15812500D01*
X17355357Y-15769643D01*
X17341071Y-15755357D01*
X9997500Y-16358500D02*
G75*
G03*
X9997500Y-16358500I-35000J0D01*
G01*
X10341071Y-16194214D02*
X10369643Y-16194214D01*
X10398214Y-16208500D01*
X10412500Y-16222786D01*
X10426786Y-16251357D01*
X10441071Y-16308500D01*
X10441071Y-16379929D01*
X10426786Y-16437071D01*
X10412500Y-16465643D01*
X10398214Y-16479929D01*
X10369643Y-16494214D01*
X10341071Y-16494214D01*
X10312500Y-16479929D01*
X10298214Y-16465643D01*
X10283928Y-16437071D01*
X10269643Y-16379929D01*
X10269643Y-16308500D01*
X10283928Y-16251357D01*
X10298214Y-16222786D01*
X10312500Y-16208500D01*
X10341071Y-16194214D01*
X10569643Y-16465643D02*
X10583928Y-16479929D01*
X10569643Y-16494214D01*
X10555357Y-16479929D01*
X10569643Y-16465643D01*
X10569643Y-16494214D01*
X10683928Y-16194214D02*
X10883928Y-16194214D01*
X10755357Y-16494214D01*
X11055357Y-16194214D02*
X11083928Y-16194214D01*
X11112500Y-16208500D01*
X11126786Y-16222786D01*
X11141071Y-16251357D01*
X11155357Y-16308500D01*
X11155357Y-16379929D01*
X11141071Y-16437071D01*
X11126786Y-16465643D01*
X11112500Y-16479929D01*
X11083928Y-16494214D01*
X11055357Y-16494214D01*
X11026786Y-16479929D01*
X11012500Y-16465643D01*
X10998214Y-16437071D01*
X10983928Y-16379929D01*
X10983928Y-16308500D01*
X10998214Y-16251357D01*
X11012500Y-16222786D01*
X11026786Y-16208500D01*
X11055357Y-16194214D01*
X11341071Y-16194214D02*
X11369643Y-16194214D01*
X11398214Y-16208500D01*
X11412500Y-16222786D01*
X11426786Y-16251357D01*
X11441071Y-16308500D01*
X11441071Y-16379929D01*
X11426786Y-16437071D01*
X11412500Y-16465643D01*
X11398214Y-16479929D01*
X11369643Y-16494214D01*
X11341071Y-16494214D01*
X11312500Y-16479929D01*
X11298214Y-16465643D01*
X11283928Y-16437071D01*
X11269643Y-16379929D01*
X11269643Y-16308500D01*
X11283928Y-16251357D01*
X11298214Y-16222786D01*
X11312500Y-16208500D01*
X11341071Y-16194214D01*
X11569643Y-16494214D02*
X11569643Y-16294214D01*
X11569643Y-16322786D02*
X11583928Y-16308500D01*
X11612500Y-16294214D01*
X11655357Y-16294214D01*
X11683928Y-16308500D01*
X11698214Y-16337071D01*
X11698214Y-16494214D01*
X11698214Y-16337071D02*
X11712500Y-16308500D01*
X11741071Y-16294214D01*
X11783928Y-16294214D01*
X11812500Y-16308500D01*
X11826786Y-16337071D01*
X11826786Y-16494214D01*
X11969643Y-16494214D02*
X11969643Y-16294214D01*
X11969643Y-16322786D02*
X11983928Y-16308500D01*
X12012500Y-16294214D01*
X12055357Y-16294214D01*
X12083928Y-16308500D01*
X12098214Y-16337071D01*
X12098214Y-16494214D01*
X12098214Y-16337071D02*
X12112500Y-16308500D01*
X12141071Y-16294214D01*
X12183928Y-16294214D01*
X12212500Y-16308500D01*
X12226786Y-16337071D01*
X12226786Y-16494214D01*
X12812500Y-16179929D02*
X12555357Y-16565643D01*
X13198214Y-16194214D02*
X13226786Y-16194214D01*
X13255357Y-16208500D01*
X13269643Y-16222786D01*
X13283928Y-16251357D01*
X13298214Y-16308500D01*
X13298214Y-16379929D01*
X13283928Y-16437071D01*
X13269643Y-16465643D01*
X13255357Y-16479929D01*
X13226786Y-16494214D01*
X13198214Y-16494214D01*
X13169643Y-16479929D01*
X13155357Y-16465643D01*
X13141071Y-16437071D01*
X13126786Y-16379929D01*
X13126786Y-16308500D01*
X13141071Y-16251357D01*
X13155357Y-16222786D01*
X13169643Y-16208500D01*
X13198214Y-16194214D01*
X13426786Y-16465643D02*
X13441071Y-16479929D01*
X13426786Y-16494214D01*
X13412500Y-16479929D01*
X13426786Y-16465643D01*
X13426786Y-16494214D01*
X13626786Y-16194214D02*
X13655357Y-16194214D01*
X13683928Y-16208500D01*
X13698214Y-16222786D01*
X13712500Y-16251357D01*
X13726786Y-16308500D01*
X13726786Y-16379929D01*
X13712500Y-16437071D01*
X13698214Y-16465643D01*
X13683928Y-16479929D01*
X13655357Y-16494214D01*
X13626786Y-16494214D01*
X13598214Y-16479929D01*
X13583928Y-16465643D01*
X13569643Y-16437071D01*
X13555357Y-16379929D01*
X13555357Y-16308500D01*
X13569643Y-16251357D01*
X13583928Y-16222786D01*
X13598214Y-16208500D01*
X13626786Y-16194214D01*
X13841071Y-16222786D02*
X13855357Y-16208500D01*
X13883928Y-16194214D01*
X13955357Y-16194214D01*
X13983928Y-16208500D01*
X13998214Y-16222786D01*
X14012500Y-16251357D01*
X14012500Y-16279929D01*
X13998214Y-16322786D01*
X13826786Y-16494214D01*
X14012500Y-16494214D01*
X14112500Y-16194214D02*
X14312500Y-16194214D01*
X14183928Y-16494214D01*
X14555357Y-16194214D02*
X14498214Y-16194214D01*
X14469643Y-16208500D01*
X14455357Y-16222786D01*
X14426786Y-16265643D01*
X14412500Y-16322786D01*
X14412500Y-16437071D01*
X14426786Y-16465643D01*
X14441071Y-16479929D01*
X14469643Y-16494214D01*
X14526786Y-16494214D01*
X14555357Y-16479929D01*
X14569643Y-16465643D01*
X14583928Y-16437071D01*
X14583928Y-16365643D01*
X14569643Y-16337071D01*
X14555357Y-16322786D01*
X14526786Y-16308500D01*
X14469643Y-16308500D01*
X14441071Y-16322786D01*
X14426786Y-16337071D01*
X14412500Y-16365643D01*
X14698214Y-16194214D02*
X14698214Y-16251357D01*
X14812500Y-16194214D02*
X14812500Y-16251357D01*
X15255357Y-16608500D02*
X15241071Y-16594214D01*
X15212500Y-16551357D01*
X15198214Y-16522786D01*
X15183928Y-16479929D01*
X15169643Y-16408500D01*
X15169643Y-16351357D01*
X15183928Y-16279929D01*
X15198214Y-16237071D01*
X15212500Y-16208500D01*
X15241071Y-16165643D01*
X15255357Y-16151357D01*
X15426786Y-16194214D02*
X15455357Y-16194214D01*
X15483928Y-16208500D01*
X15498214Y-16222786D01*
X15512500Y-16251357D01*
X15526786Y-16308500D01*
X15526786Y-16379929D01*
X15512500Y-16437071D01*
X15498214Y-16465643D01*
X15483928Y-16479929D01*
X15455357Y-16494214D01*
X15426786Y-16494214D01*
X15398214Y-16479929D01*
X15383928Y-16465643D01*
X15369643Y-16437071D01*
X15355357Y-16379929D01*
X15355357Y-16308500D01*
X15369643Y-16251357D01*
X15383928Y-16222786D01*
X15398214Y-16208500D01*
X15426786Y-16194214D01*
X15883928Y-16494214D02*
X15883928Y-16194214D01*
X16012500Y-16494214D02*
X16012500Y-16337071D01*
X15998214Y-16308500D01*
X15969643Y-16294214D01*
X15926786Y-16294214D01*
X15898214Y-16308500D01*
X15883928Y-16322786D01*
X16198214Y-16494214D02*
X16169643Y-16479929D01*
X16155357Y-16465643D01*
X16141071Y-16437071D01*
X16141071Y-16351357D01*
X16155357Y-16322786D01*
X16169643Y-16308500D01*
X16198214Y-16294214D01*
X16241071Y-16294214D01*
X16269643Y-16308500D01*
X16283928Y-16322786D01*
X16298214Y-16351357D01*
X16298214Y-16437071D01*
X16283928Y-16465643D01*
X16269643Y-16479929D01*
X16241071Y-16494214D01*
X16198214Y-16494214D01*
X16469643Y-16494214D02*
X16441071Y-16479929D01*
X16426786Y-16451357D01*
X16426786Y-16194214D01*
X16698214Y-16479929D02*
X16669643Y-16494214D01*
X16612500Y-16494214D01*
X16583928Y-16479929D01*
X16569643Y-16451357D01*
X16569643Y-16337071D01*
X16583928Y-16308500D01*
X16612500Y-16294214D01*
X16669643Y-16294214D01*
X16698214Y-16308500D01*
X16712500Y-16337071D01*
X16712500Y-16365643D01*
X16569643Y-16394214D01*
X16826786Y-16479929D02*
X16855357Y-16494214D01*
X16912500Y-16494214D01*
X16941071Y-16479929D01*
X16955357Y-16451357D01*
X16955357Y-16437071D01*
X16941071Y-16408500D01*
X16912500Y-16394214D01*
X16869643Y-16394214D01*
X16841071Y-16379929D01*
X16826786Y-16351357D01*
X16826786Y-16337071D01*
X16841071Y-16308500D01*
X16869643Y-16294214D01*
X16912500Y-16294214D01*
X16941071Y-16308500D01*
X17312500Y-16379929D02*
X17541071Y-16379929D01*
X17426786Y-16494214D02*
X17426786Y-16265643D01*
X17883928Y-16194214D02*
X18069643Y-16194214D01*
X17969643Y-16308500D01*
X18012500Y-16308500D01*
X18041071Y-16322786D01*
X18055357Y-16337071D01*
X18069643Y-16365643D01*
X18069643Y-16437071D01*
X18055357Y-16465643D01*
X18041071Y-16479929D01*
X18012500Y-16494214D01*
X17926786Y-16494214D01*
X17898214Y-16479929D01*
X17883928Y-16465643D01*
X18412500Y-16479929D02*
X18441071Y-16494214D01*
X18498214Y-16494214D01*
X18526786Y-16479929D01*
X18541071Y-16451357D01*
X18541071Y-16437071D01*
X18526786Y-16408500D01*
X18498214Y-16394214D01*
X18455357Y-16394214D01*
X18426786Y-16379929D01*
X18412500Y-16351357D01*
X18412500Y-16337071D01*
X18426786Y-16308500D01*
X18455357Y-16294214D01*
X18498214Y-16294214D01*
X18526786Y-16308500D01*
X18712500Y-16494214D02*
X18683928Y-16479929D01*
X18669643Y-16451357D01*
X18669643Y-16194214D01*
X18869643Y-16494214D02*
X18841071Y-16479929D01*
X18826786Y-16465643D01*
X18812500Y-16437071D01*
X18812500Y-16351357D01*
X18826786Y-16322786D01*
X18841071Y-16308500D01*
X18869643Y-16294214D01*
X18912500Y-16294214D01*
X18941071Y-16308500D01*
X18955357Y-16322786D01*
X18969643Y-16351357D01*
X18969643Y-16437071D01*
X18955357Y-16465643D01*
X18941071Y-16479929D01*
X18912500Y-16494214D01*
X18869643Y-16494214D01*
X19055357Y-16294214D02*
X19169643Y-16294214D01*
X19098214Y-16194214D02*
X19098214Y-16451357D01*
X19112500Y-16479929D01*
X19141071Y-16494214D01*
X19169643Y-16494214D01*
X19255357Y-16479929D02*
X19283928Y-16494214D01*
X19341071Y-16494214D01*
X19369643Y-16479929D01*
X19383928Y-16451357D01*
X19383928Y-16437071D01*
X19369643Y-16408500D01*
X19341071Y-16394214D01*
X19298214Y-16394214D01*
X19269643Y-16379929D01*
X19255357Y-16351357D01*
X19255357Y-16337071D01*
X19269643Y-16308500D01*
X19298214Y-16294214D01*
X19341071Y-16294214D01*
X19369643Y-16308500D01*
X19483928Y-16608500D02*
X19498214Y-16594214D01*
X19526786Y-16551357D01*
X19541071Y-16522786D01*
X19555357Y-16479929D01*
X19569643Y-16408500D01*
X19569643Y-16351357D01*
X19555357Y-16279929D01*
X19541071Y-16237071D01*
X19526786Y-16208500D01*
X19498214Y-16165643D01*
X19483928Y-16151357D01*
X9960000Y-16717000D02*
X9960000Y-16792000D01*
X9922500Y-16754500D02*
X9997500Y-16754500D01*
X10341071Y-16590214D02*
X10369643Y-16590214D01*
X10398214Y-16604500D01*
X10412500Y-16618786D01*
X10426786Y-16647357D01*
X10441071Y-16704500D01*
X10441071Y-16775929D01*
X10426786Y-16833072D01*
X10412500Y-16861643D01*
X10398214Y-16875929D01*
X10369643Y-16890214D01*
X10341071Y-16890214D01*
X10312500Y-16875929D01*
X10298214Y-16861643D01*
X10283928Y-16833072D01*
X10269643Y-16775929D01*
X10269643Y-16704500D01*
X10283928Y-16647357D01*
X10298214Y-16618786D01*
X10312500Y-16604500D01*
X10341071Y-16590214D01*
X10569643Y-16861643D02*
X10583928Y-16875929D01*
X10569643Y-16890214D01*
X10555357Y-16875929D01*
X10569643Y-16861643D01*
X10569643Y-16890214D01*
X10683928Y-16590214D02*
X10883928Y-16590214D01*
X10755357Y-16890214D01*
X11141071Y-16590214D02*
X10998214Y-16590214D01*
X10983928Y-16733071D01*
X10998214Y-16718786D01*
X11026786Y-16704500D01*
X11098214Y-16704500D01*
X11126786Y-16718786D01*
X11141071Y-16733071D01*
X11155357Y-16761643D01*
X11155357Y-16833072D01*
X11141071Y-16861643D01*
X11126786Y-16875929D01*
X11098214Y-16890214D01*
X11026786Y-16890214D01*
X10998214Y-16875929D01*
X10983928Y-16861643D01*
X11341071Y-16590214D02*
X11369643Y-16590214D01*
X11398214Y-16604500D01*
X11412500Y-16618786D01*
X11426786Y-16647357D01*
X11441071Y-16704500D01*
X11441071Y-16775929D01*
X11426786Y-16833072D01*
X11412500Y-16861643D01*
X11398214Y-16875929D01*
X11369643Y-16890214D01*
X11341071Y-16890214D01*
X11312500Y-16875929D01*
X11298214Y-16861643D01*
X11283928Y-16833072D01*
X11269643Y-16775929D01*
X11269643Y-16704500D01*
X11283928Y-16647357D01*
X11298214Y-16618786D01*
X11312500Y-16604500D01*
X11341071Y-16590214D01*
X11569643Y-16890214D02*
X11569643Y-16690214D01*
X11569643Y-16718786D02*
X11583928Y-16704500D01*
X11612500Y-16690214D01*
X11655357Y-16690214D01*
X11683928Y-16704500D01*
X11698214Y-16733071D01*
X11698214Y-16890214D01*
X11698214Y-16733071D02*
X11712500Y-16704500D01*
X11741071Y-16690214D01*
X11783928Y-16690214D01*
X11812500Y-16704500D01*
X11826786Y-16733071D01*
X11826786Y-16890214D01*
X11969643Y-16890214D02*
X11969643Y-16690214D01*
X11969643Y-16718786D02*
X11983928Y-16704500D01*
X12012500Y-16690214D01*
X12055357Y-16690214D01*
X12083928Y-16704500D01*
X12098214Y-16733071D01*
X12098214Y-16890214D01*
X12098214Y-16733071D02*
X12112500Y-16704500D01*
X12141071Y-16690214D01*
X12183928Y-16690214D01*
X12212500Y-16704500D01*
X12226786Y-16733071D01*
X12226786Y-16890214D01*
X12812500Y-16575929D02*
X12555357Y-16961643D01*
X13198214Y-16590214D02*
X13226786Y-16590214D01*
X13255357Y-16604500D01*
X13269643Y-16618786D01*
X13283928Y-16647357D01*
X13298214Y-16704500D01*
X13298214Y-16775929D01*
X13283928Y-16833072D01*
X13269643Y-16861643D01*
X13255357Y-16875929D01*
X13226786Y-16890214D01*
X13198214Y-16890214D01*
X13169643Y-16875929D01*
X13155357Y-16861643D01*
X13141071Y-16833072D01*
X13126786Y-16775929D01*
X13126786Y-16704500D01*
X13141071Y-16647357D01*
X13155357Y-16618786D01*
X13169643Y-16604500D01*
X13198214Y-16590214D01*
X13426786Y-16861643D02*
X13441071Y-16875929D01*
X13426786Y-16890214D01*
X13412500Y-16875929D01*
X13426786Y-16861643D01*
X13426786Y-16890214D01*
X13626786Y-16590214D02*
X13655357Y-16590214D01*
X13683928Y-16604500D01*
X13698214Y-16618786D01*
X13712500Y-16647357D01*
X13726786Y-16704500D01*
X13726786Y-16775929D01*
X13712500Y-16833072D01*
X13698214Y-16861643D01*
X13683928Y-16875929D01*
X13655357Y-16890214D01*
X13626786Y-16890214D01*
X13598214Y-16875929D01*
X13583928Y-16861643D01*
X13569643Y-16833072D01*
X13555357Y-16775929D01*
X13555357Y-16704500D01*
X13569643Y-16647357D01*
X13583928Y-16618786D01*
X13598214Y-16604500D01*
X13626786Y-16590214D01*
X13841071Y-16618786D02*
X13855357Y-16604500D01*
X13883928Y-16590214D01*
X13955357Y-16590214D01*
X13983928Y-16604500D01*
X13998214Y-16618786D01*
X14012500Y-16647357D01*
X14012500Y-16675929D01*
X13998214Y-16718786D01*
X13826786Y-16890214D01*
X14012500Y-16890214D01*
X14155357Y-16890214D02*
X14212500Y-16890214D01*
X14241071Y-16875929D01*
X14255357Y-16861643D01*
X14283928Y-16818786D01*
X14298214Y-16761643D01*
X14298214Y-16647357D01*
X14283928Y-16618786D01*
X14269643Y-16604500D01*
X14241071Y-16590214D01*
X14183928Y-16590214D01*
X14155357Y-16604500D01*
X14141071Y-16618786D01*
X14126786Y-16647357D01*
X14126786Y-16718786D01*
X14141071Y-16747357D01*
X14155357Y-16761643D01*
X14183928Y-16775929D01*
X14241071Y-16775929D01*
X14269643Y-16761643D01*
X14283928Y-16747357D01*
X14298214Y-16718786D01*
X14569643Y-16590214D02*
X14426786Y-16590214D01*
X14412500Y-16733071D01*
X14426786Y-16718786D01*
X14455357Y-16704500D01*
X14526786Y-16704500D01*
X14555357Y-16718786D01*
X14569643Y-16733071D01*
X14583928Y-16761643D01*
X14583928Y-16833072D01*
X14569643Y-16861643D01*
X14555357Y-16875929D01*
X14526786Y-16890214D01*
X14455357Y-16890214D01*
X14426786Y-16875929D01*
X14412500Y-16861643D01*
X14698214Y-16590214D02*
X14698214Y-16647357D01*
X14812500Y-16590214D02*
X14812500Y-16647357D01*
X15255357Y-17004500D02*
X15241071Y-16990214D01*
X15212500Y-16947357D01*
X15198214Y-16918786D01*
X15183928Y-16875929D01*
X15169643Y-16804500D01*
X15169643Y-16747357D01*
X15183928Y-16675929D01*
X15198214Y-16633071D01*
X15212500Y-16604500D01*
X15241071Y-16561643D01*
X15255357Y-16547357D01*
X15341071Y-16590214D02*
X15526786Y-16590214D01*
X15426786Y-16704500D01*
X15469643Y-16704500D01*
X15498214Y-16718786D01*
X15512500Y-16733071D01*
X15526786Y-16761643D01*
X15526786Y-16833072D01*
X15512500Y-16861643D01*
X15498214Y-16875929D01*
X15469643Y-16890214D01*
X15383928Y-16890214D01*
X15355357Y-16875929D01*
X15341071Y-16861643D01*
X15883928Y-16890214D02*
X15883928Y-16590214D01*
X16012500Y-16890214D02*
X16012500Y-16733071D01*
X15998214Y-16704500D01*
X15969643Y-16690214D01*
X15926786Y-16690214D01*
X15898214Y-16704500D01*
X15883928Y-16718786D01*
X16198214Y-16890214D02*
X16169643Y-16875929D01*
X16155357Y-16861643D01*
X16141071Y-16833072D01*
X16141071Y-16747357D01*
X16155357Y-16718786D01*
X16169643Y-16704500D01*
X16198214Y-16690214D01*
X16241071Y-16690214D01*
X16269643Y-16704500D01*
X16283928Y-16718786D01*
X16298214Y-16747357D01*
X16298214Y-16833072D01*
X16283928Y-16861643D01*
X16269643Y-16875929D01*
X16241071Y-16890214D01*
X16198214Y-16890214D01*
X16469643Y-16890214D02*
X16441071Y-16875929D01*
X16426786Y-16847357D01*
X16426786Y-16590214D01*
X16698214Y-16875929D02*
X16669643Y-16890214D01*
X16612500Y-16890214D01*
X16583928Y-16875929D01*
X16569643Y-16847357D01*
X16569643Y-16733071D01*
X16583928Y-16704500D01*
X16612500Y-16690214D01*
X16669643Y-16690214D01*
X16698214Y-16704500D01*
X16712500Y-16733071D01*
X16712500Y-16761643D01*
X16569643Y-16790214D01*
X16826786Y-16875929D02*
X16855357Y-16890214D01*
X16912500Y-16890214D01*
X16941071Y-16875929D01*
X16955357Y-16847357D01*
X16955357Y-16833072D01*
X16941071Y-16804500D01*
X16912500Y-16790214D01*
X16869643Y-16790214D01*
X16841071Y-16775929D01*
X16826786Y-16747357D01*
X16826786Y-16733071D01*
X16841071Y-16704500D01*
X16869643Y-16690214D01*
X16912500Y-16690214D01*
X16941071Y-16704500D01*
X17055357Y-17004500D02*
X17069643Y-16990214D01*
X17098214Y-16947357D01*
X17112500Y-16918786D01*
X17126786Y-16875929D01*
X17141071Y-16804500D01*
X17141071Y-16747357D01*
X17126786Y-16675929D01*
X17112500Y-16633071D01*
X17098214Y-16604500D01*
X17069643Y-16561643D01*
X17055357Y-16547357D01*
X9985784Y-17178785D02*
X9985784Y-17122216D01*
X9929215Y-17122216D01*
X9929215Y-17178785D01*
X9985784Y-17178785D01*
X10341071Y-16986214D02*
X10369643Y-16986214D01*
X10398214Y-17000500D01*
X10412500Y-17014786D01*
X10426786Y-17043357D01*
X10441071Y-17100500D01*
X10441071Y-17171929D01*
X10426786Y-17229072D01*
X10412500Y-17257643D01*
X10398214Y-17271929D01*
X10369643Y-17286214D01*
X10341071Y-17286214D01*
X10312500Y-17271929D01*
X10298214Y-17257643D01*
X10283928Y-17229072D01*
X10269643Y-17171929D01*
X10269643Y-17100500D01*
X10283928Y-17043357D01*
X10298214Y-17014786D01*
X10312500Y-17000500D01*
X10341071Y-16986214D01*
X10569643Y-17257643D02*
X10583928Y-17271929D01*
X10569643Y-17286214D01*
X10555357Y-17271929D01*
X10569643Y-17257643D01*
X10569643Y-17286214D01*
X10755357Y-17114786D02*
X10726786Y-17100500D01*
X10712500Y-17086214D01*
X10698214Y-17057643D01*
X10698214Y-17043357D01*
X10712500Y-17014786D01*
X10726786Y-17000500D01*
X10755357Y-16986214D01*
X10812500Y-16986214D01*
X10841071Y-17000500D01*
X10855357Y-17014786D01*
X10869643Y-17043357D01*
X10869643Y-17057643D01*
X10855357Y-17086214D01*
X10841071Y-17100500D01*
X10812500Y-17114786D01*
X10755357Y-17114786D01*
X10726786Y-17129072D01*
X10712500Y-17143357D01*
X10698214Y-17171929D01*
X10698214Y-17229072D01*
X10712500Y-17257643D01*
X10726786Y-17271929D01*
X10755357Y-17286214D01*
X10812500Y-17286214D01*
X10841071Y-17271929D01*
X10855357Y-17257643D01*
X10869643Y-17229072D01*
X10869643Y-17171929D01*
X10855357Y-17143357D01*
X10841071Y-17129072D01*
X10812500Y-17114786D01*
X11055357Y-16986214D02*
X11083928Y-16986214D01*
X11112500Y-17000500D01*
X11126786Y-17014786D01*
X11141071Y-17043357D01*
X11155357Y-17100500D01*
X11155357Y-17171929D01*
X11141071Y-17229072D01*
X11126786Y-17257643D01*
X11112500Y-17271929D01*
X11083928Y-17286214D01*
X11055357Y-17286214D01*
X11026786Y-17271929D01*
X11012500Y-17257643D01*
X10998214Y-17229072D01*
X10983928Y-17171929D01*
X10983928Y-17100500D01*
X10998214Y-17043357D01*
X11012500Y-17014786D01*
X11026786Y-17000500D01*
X11055357Y-16986214D01*
X11341071Y-16986214D02*
X11369643Y-16986214D01*
X11398214Y-17000500D01*
X11412500Y-17014786D01*
X11426786Y-17043357D01*
X11441071Y-17100500D01*
X11441071Y-17171929D01*
X11426786Y-17229072D01*
X11412500Y-17257643D01*
X11398214Y-17271929D01*
X11369643Y-17286214D01*
X11341071Y-17286214D01*
X11312500Y-17271929D01*
X11298214Y-17257643D01*
X11283928Y-17229072D01*
X11269643Y-17171929D01*
X11269643Y-17100500D01*
X11283928Y-17043357D01*
X11298214Y-17014786D01*
X11312500Y-17000500D01*
X11341071Y-16986214D01*
X11569643Y-17286214D02*
X11569643Y-17086214D01*
X11569643Y-17114786D02*
X11583928Y-17100500D01*
X11612500Y-17086214D01*
X11655357Y-17086214D01*
X11683928Y-17100500D01*
X11698214Y-17129072D01*
X11698214Y-17286214D01*
X11698214Y-17129072D02*
X11712500Y-17100500D01*
X11741071Y-17086214D01*
X11783928Y-17086214D01*
X11812500Y-17100500D01*
X11826786Y-17129072D01*
X11826786Y-17286214D01*
X11969643Y-17286214D02*
X11969643Y-17086214D01*
X11969643Y-17114786D02*
X11983928Y-17100500D01*
X12012500Y-17086214D01*
X12055357Y-17086214D01*
X12083928Y-17100500D01*
X12098214Y-17129072D01*
X12098214Y-17286214D01*
X12098214Y-17129072D02*
X12112500Y-17100500D01*
X12141071Y-17086214D01*
X12183928Y-17086214D01*
X12212500Y-17100500D01*
X12226786Y-17129072D01*
X12226786Y-17286214D01*
X12812500Y-16971929D02*
X12555357Y-17357643D01*
X13198214Y-16986214D02*
X13226786Y-16986214D01*
X13255357Y-17000500D01*
X13269643Y-17014786D01*
X13283928Y-17043357D01*
X13298214Y-17100500D01*
X13298214Y-17171929D01*
X13283928Y-17229072D01*
X13269643Y-17257643D01*
X13255357Y-17271929D01*
X13226786Y-17286214D01*
X13198214Y-17286214D01*
X13169643Y-17271929D01*
X13155357Y-17257643D01*
X13141071Y-17229072D01*
X13126786Y-17171929D01*
X13126786Y-17100500D01*
X13141071Y-17043357D01*
X13155357Y-17014786D01*
X13169643Y-17000500D01*
X13198214Y-16986214D01*
X13426786Y-17257643D02*
X13441071Y-17271929D01*
X13426786Y-17286214D01*
X13412500Y-17271929D01*
X13426786Y-17257643D01*
X13426786Y-17286214D01*
X13626786Y-16986214D02*
X13655357Y-16986214D01*
X13683928Y-17000500D01*
X13698214Y-17014786D01*
X13712500Y-17043357D01*
X13726786Y-17100500D01*
X13726786Y-17171929D01*
X13712500Y-17229072D01*
X13698214Y-17257643D01*
X13683928Y-17271929D01*
X13655357Y-17286214D01*
X13626786Y-17286214D01*
X13598214Y-17271929D01*
X13583928Y-17257643D01*
X13569643Y-17229072D01*
X13555357Y-17171929D01*
X13555357Y-17100500D01*
X13569643Y-17043357D01*
X13583928Y-17014786D01*
X13598214Y-17000500D01*
X13626786Y-16986214D01*
X13826786Y-16986214D02*
X14012500Y-16986214D01*
X13912500Y-17100500D01*
X13955357Y-17100500D01*
X13983928Y-17114786D01*
X13998214Y-17129072D01*
X14012500Y-17157643D01*
X14012500Y-17229072D01*
X13998214Y-17257643D01*
X13983928Y-17271929D01*
X13955357Y-17286214D01*
X13869643Y-17286214D01*
X13841071Y-17271929D01*
X13826786Y-17257643D01*
X14298214Y-17286214D02*
X14126786Y-17286214D01*
X14212500Y-17286214D02*
X14212500Y-16986214D01*
X14183928Y-17029072D01*
X14155357Y-17057643D01*
X14126786Y-17071929D01*
X14569643Y-16986214D02*
X14426786Y-16986214D01*
X14412500Y-17129072D01*
X14426786Y-17114786D01*
X14455357Y-17100500D01*
X14526786Y-17100500D01*
X14555357Y-17114786D01*
X14569643Y-17129072D01*
X14583928Y-17157643D01*
X14583928Y-17229072D01*
X14569643Y-17257643D01*
X14555357Y-17271929D01*
X14526786Y-17286214D01*
X14455357Y-17286214D01*
X14426786Y-17271929D01*
X14412500Y-17257643D01*
X14698214Y-16986214D02*
X14698214Y-17043357D01*
X14812500Y-16986214D02*
X14812500Y-17043357D01*
X15255357Y-17400500D02*
X15241071Y-17386214D01*
X15212500Y-17343357D01*
X15198214Y-17314786D01*
X15183928Y-17271929D01*
X15169643Y-17200500D01*
X15169643Y-17143357D01*
X15183928Y-17071929D01*
X15198214Y-17029072D01*
X15212500Y-17000500D01*
X15241071Y-16957643D01*
X15255357Y-16943357D01*
X15526786Y-17286214D02*
X15355357Y-17286214D01*
X15441071Y-17286214D02*
X15441071Y-16986214D01*
X15412500Y-17029072D01*
X15383928Y-17057643D01*
X15355357Y-17071929D01*
X15783928Y-16986214D02*
X15726786Y-16986214D01*
X15698214Y-17000500D01*
X15683928Y-17014786D01*
X15655357Y-17057643D01*
X15641071Y-17114786D01*
X15641071Y-17229072D01*
X15655357Y-17257643D01*
X15669643Y-17271929D01*
X15698214Y-17286214D01*
X15755357Y-17286214D01*
X15783928Y-17271929D01*
X15798214Y-17257643D01*
X15812500Y-17229072D01*
X15812500Y-17157643D01*
X15798214Y-17129072D01*
X15783928Y-17114786D01*
X15755357Y-17100500D01*
X15698214Y-17100500D01*
X15669643Y-17114786D01*
X15655357Y-17129072D01*
X15641071Y-17157643D01*
X15926786Y-17014786D02*
X15941071Y-17000500D01*
X15969643Y-16986214D01*
X16041071Y-16986214D01*
X16069643Y-17000500D01*
X16083928Y-17014786D01*
X16098214Y-17043357D01*
X16098214Y-17071929D01*
X16083928Y-17114786D01*
X15912500Y-17286214D01*
X16098214Y-17286214D01*
X16455357Y-17286214D02*
X16455357Y-16986214D01*
X16583928Y-17286214D02*
X16583928Y-17129072D01*
X16569643Y-17100500D01*
X16541071Y-17086214D01*
X16498214Y-17086214D01*
X16469643Y-17100500D01*
X16455357Y-17114786D01*
X16769643Y-17286214D02*
X16741071Y-17271929D01*
X16726786Y-17257643D01*
X16712500Y-17229072D01*
X16712500Y-17143357D01*
X16726786Y-17114786D01*
X16741071Y-17100500D01*
X16769643Y-17086214D01*
X16812500Y-17086214D01*
X16841071Y-17100500D01*
X16855357Y-17114786D01*
X16869643Y-17143357D01*
X16869643Y-17229072D01*
X16855357Y-17257643D01*
X16841071Y-17271929D01*
X16812500Y-17286214D01*
X16769643Y-17286214D01*
X17041071Y-17286214D02*
X17012500Y-17271929D01*
X16998214Y-17243357D01*
X16998214Y-16986214D01*
X17269643Y-17271929D02*
X17241071Y-17286214D01*
X17183928Y-17286214D01*
X17155357Y-17271929D01*
X17141071Y-17243357D01*
X17141071Y-17129072D01*
X17155357Y-17100500D01*
X17183928Y-17086214D01*
X17241071Y-17086214D01*
X17269643Y-17100500D01*
X17283928Y-17129072D01*
X17283928Y-17157643D01*
X17141071Y-17186214D01*
X17398214Y-17271929D02*
X17426786Y-17286214D01*
X17483928Y-17286214D01*
X17512500Y-17271929D01*
X17526786Y-17243357D01*
X17526786Y-17229072D01*
X17512500Y-17200500D01*
X17483928Y-17186214D01*
X17441071Y-17186214D01*
X17412500Y-17171929D01*
X17398214Y-17143357D01*
X17398214Y-17129072D01*
X17412500Y-17100500D01*
X17441071Y-17086214D01*
X17483928Y-17086214D01*
X17512500Y-17100500D01*
X17626786Y-17400500D02*
X17641071Y-17386214D01*
X17669643Y-17343357D01*
X17683928Y-17314786D01*
X17698214Y-17271929D01*
X17712500Y-17200500D01*
X17712500Y-17143357D01*
X17698214Y-17071929D01*
X17683928Y-17029072D01*
X17669643Y-17000500D01*
X17641071Y-16957643D01*
X17626786Y-16943357D01*
X9952500Y-17591500D02*
X9997500Y-17546500D01*
X9952500Y-17501500D01*
X9907500Y-17546500D01*
X9952500Y-17591500D01*
X10341071Y-17382214D02*
X10369643Y-17382214D01*
X10398214Y-17396500D01*
X10412500Y-17410786D01*
X10426786Y-17439357D01*
X10441071Y-17496500D01*
X10441071Y-17567929D01*
X10426786Y-17625072D01*
X10412500Y-17653643D01*
X10398214Y-17667929D01*
X10369643Y-17682214D01*
X10341071Y-17682214D01*
X10312500Y-17667929D01*
X10298214Y-17653643D01*
X10283928Y-17625072D01*
X10269643Y-17567929D01*
X10269643Y-17496500D01*
X10283928Y-17439357D01*
X10298214Y-17410786D01*
X10312500Y-17396500D01*
X10341071Y-17382214D01*
X10569643Y-17653643D02*
X10583928Y-17667929D01*
X10569643Y-17682214D01*
X10555357Y-17667929D01*
X10569643Y-17653643D01*
X10569643Y-17682214D01*
X10726786Y-17682214D02*
X10783928Y-17682214D01*
X10812500Y-17667929D01*
X10826786Y-17653643D01*
X10855357Y-17610786D01*
X10869643Y-17553643D01*
X10869643Y-17439357D01*
X10855357Y-17410786D01*
X10841071Y-17396500D01*
X10812500Y-17382214D01*
X10755357Y-17382214D01*
X10726786Y-17396500D01*
X10712500Y-17410786D01*
X10698214Y-17439357D01*
X10698214Y-17510786D01*
X10712500Y-17539357D01*
X10726786Y-17553643D01*
X10755357Y-17567929D01*
X10812500Y-17567929D01*
X10841071Y-17553643D01*
X10855357Y-17539357D01*
X10869643Y-17510786D01*
X11055357Y-17382214D02*
X11083928Y-17382214D01*
X11112500Y-17396500D01*
X11126786Y-17410786D01*
X11141071Y-17439357D01*
X11155357Y-17496500D01*
X11155357Y-17567929D01*
X11141071Y-17625072D01*
X11126786Y-17653643D01*
X11112500Y-17667929D01*
X11083928Y-17682214D01*
X11055357Y-17682214D01*
X11026786Y-17667929D01*
X11012500Y-17653643D01*
X10998214Y-17625072D01*
X10983928Y-17567929D01*
X10983928Y-17496500D01*
X10998214Y-17439357D01*
X11012500Y-17410786D01*
X11026786Y-17396500D01*
X11055357Y-17382214D01*
X11341071Y-17382214D02*
X11369643Y-17382214D01*
X11398214Y-17396500D01*
X11412500Y-17410786D01*
X11426786Y-17439357D01*
X11441071Y-17496500D01*
X11441071Y-17567929D01*
X11426786Y-17625072D01*
X11412500Y-17653643D01*
X11398214Y-17667929D01*
X11369643Y-17682214D01*
X11341071Y-17682214D01*
X11312500Y-17667929D01*
X11298214Y-17653643D01*
X11283928Y-17625072D01*
X11269643Y-17567929D01*
X11269643Y-17496500D01*
X11283928Y-17439357D01*
X11298214Y-17410786D01*
X11312500Y-17396500D01*
X11341071Y-17382214D01*
X11569643Y-17682214D02*
X11569643Y-17482214D01*
X11569643Y-17510786D02*
X11583928Y-17496500D01*
X11612500Y-17482214D01*
X11655357Y-17482214D01*
X11683928Y-17496500D01*
X11698214Y-17525072D01*
X11698214Y-17682214D01*
X11698214Y-17525072D02*
X11712500Y-17496500D01*
X11741071Y-17482214D01*
X11783928Y-17482214D01*
X11812500Y-17496500D01*
X11826786Y-17525072D01*
X11826786Y-17682214D01*
X11969643Y-17682214D02*
X11969643Y-17482214D01*
X11969643Y-17510786D02*
X11983928Y-17496500D01*
X12012500Y-17482214D01*
X12055357Y-17482214D01*
X12083928Y-17496500D01*
X12098214Y-17525072D01*
X12098214Y-17682214D01*
X12098214Y-17525072D02*
X12112500Y-17496500D01*
X12141071Y-17482214D01*
X12183928Y-17482214D01*
X12212500Y-17496500D01*
X12226786Y-17525072D01*
X12226786Y-17682214D01*
X12812500Y-17367929D02*
X12555357Y-17753643D01*
X13198214Y-17382214D02*
X13226786Y-17382214D01*
X13255357Y-17396500D01*
X13269643Y-17410786D01*
X13283928Y-17439357D01*
X13298214Y-17496500D01*
X13298214Y-17567929D01*
X13283928Y-17625072D01*
X13269643Y-17653643D01*
X13255357Y-17667929D01*
X13226786Y-17682214D01*
X13198214Y-17682214D01*
X13169643Y-17667929D01*
X13155357Y-17653643D01*
X13141071Y-17625072D01*
X13126786Y-17567929D01*
X13126786Y-17496500D01*
X13141071Y-17439357D01*
X13155357Y-17410786D01*
X13169643Y-17396500D01*
X13198214Y-17382214D01*
X13426786Y-17653643D02*
X13441071Y-17667929D01*
X13426786Y-17682214D01*
X13412500Y-17667929D01*
X13426786Y-17653643D01*
X13426786Y-17682214D01*
X13626786Y-17382214D02*
X13655357Y-17382214D01*
X13683928Y-17396500D01*
X13698214Y-17410786D01*
X13712500Y-17439357D01*
X13726786Y-17496500D01*
X13726786Y-17567929D01*
X13712500Y-17625072D01*
X13698214Y-17653643D01*
X13683928Y-17667929D01*
X13655357Y-17682214D01*
X13626786Y-17682214D01*
X13598214Y-17667929D01*
X13583928Y-17653643D01*
X13569643Y-17625072D01*
X13555357Y-17567929D01*
X13555357Y-17496500D01*
X13569643Y-17439357D01*
X13583928Y-17410786D01*
X13598214Y-17396500D01*
X13626786Y-17382214D01*
X13826786Y-17382214D02*
X14012500Y-17382214D01*
X13912500Y-17496500D01*
X13955357Y-17496500D01*
X13983928Y-17510786D01*
X13998214Y-17525072D01*
X14012500Y-17553643D01*
X14012500Y-17625072D01*
X13998214Y-17653643D01*
X13983928Y-17667929D01*
X13955357Y-17682214D01*
X13869643Y-17682214D01*
X13841071Y-17667929D01*
X13826786Y-17653643D01*
X14283928Y-17382214D02*
X14141071Y-17382214D01*
X14126786Y-17525072D01*
X14141071Y-17510786D01*
X14169643Y-17496500D01*
X14241071Y-17496500D01*
X14269643Y-17510786D01*
X14283928Y-17525072D01*
X14298214Y-17553643D01*
X14298214Y-17625072D01*
X14283928Y-17653643D01*
X14269643Y-17667929D01*
X14241071Y-17682214D01*
X14169643Y-17682214D01*
X14141071Y-17667929D01*
X14126786Y-17653643D01*
X14555357Y-17482214D02*
X14555357Y-17682214D01*
X14483928Y-17367929D02*
X14412500Y-17582214D01*
X14598214Y-17582214D01*
X14698214Y-17382214D02*
X14698214Y-17439357D01*
X14812500Y-17382214D02*
X14812500Y-17439357D01*
X15255357Y-17796500D02*
X15241071Y-17782214D01*
X15212500Y-17739357D01*
X15198214Y-17710786D01*
X15183928Y-17667929D01*
X15169643Y-17596500D01*
X15169643Y-17539357D01*
X15183928Y-17467929D01*
X15198214Y-17425072D01*
X15212500Y-17396500D01*
X15241071Y-17353643D01*
X15255357Y-17339357D01*
X15355357Y-17410786D02*
X15369643Y-17396500D01*
X15398214Y-17382214D01*
X15469643Y-17382214D01*
X15498214Y-17396500D01*
X15512500Y-17410786D01*
X15526786Y-17439357D01*
X15526786Y-17467929D01*
X15512500Y-17510786D01*
X15341071Y-17682214D01*
X15526786Y-17682214D01*
X15883928Y-17682214D02*
X15883928Y-17382214D01*
X16012500Y-17682214D02*
X16012500Y-17525072D01*
X15998214Y-17496500D01*
X15969643Y-17482214D01*
X15926786Y-17482214D01*
X15898214Y-17496500D01*
X15883928Y-17510786D01*
X16198214Y-17682214D02*
X16169643Y-17667929D01*
X16155357Y-17653643D01*
X16141071Y-17625072D01*
X16141071Y-17539357D01*
X16155357Y-17510786D01*
X16169643Y-17496500D01*
X16198214Y-17482214D01*
X16241071Y-17482214D01*
X16269643Y-17496500D01*
X16283928Y-17510786D01*
X16298214Y-17539357D01*
X16298214Y-17625072D01*
X16283928Y-17653643D01*
X16269643Y-17667929D01*
X16241071Y-17682214D01*
X16198214Y-17682214D01*
X16469643Y-17682214D02*
X16441071Y-17667929D01*
X16426786Y-17639357D01*
X16426786Y-17382214D01*
X16698214Y-17667929D02*
X16669643Y-17682214D01*
X16612500Y-17682214D01*
X16583928Y-17667929D01*
X16569643Y-17639357D01*
X16569643Y-17525072D01*
X16583928Y-17496500D01*
X16612500Y-17482214D01*
X16669643Y-17482214D01*
X16698214Y-17496500D01*
X16712500Y-17525072D01*
X16712500Y-17553643D01*
X16569643Y-17582214D01*
X16826786Y-17667929D02*
X16855357Y-17682214D01*
X16912500Y-17682214D01*
X16941071Y-17667929D01*
X16955357Y-17639357D01*
X16955357Y-17625072D01*
X16941071Y-17596500D01*
X16912500Y-17582214D01*
X16869643Y-17582214D01*
X16841071Y-17567929D01*
X16826786Y-17539357D01*
X16826786Y-17525072D01*
X16841071Y-17496500D01*
X16869643Y-17482214D01*
X16912500Y-17482214D01*
X16941071Y-17496500D01*
X17055357Y-17796500D02*
X17069643Y-17782214D01*
X17098214Y-17739357D01*
X17112500Y-17710786D01*
X17126786Y-17667929D01*
X17141071Y-17596500D01*
X17141071Y-17539357D01*
X17126786Y-17467929D01*
X17112500Y-17425072D01*
X17098214Y-17396500D01*
X17069643Y-17353643D01*
X17055357Y-17339357D01*
X9897500Y-17892500D02*
X9997500Y-17992500D01*
X9997500Y-17892500D02*
X9897500Y-17992500D01*
X9997500Y-17942500D02*
G75*
G03*
X9997500Y-17942500I-50000J0D01*
G01*
X10441071Y-18078214D02*
X10269643Y-18078214D01*
X10355357Y-18078214D02*
X10355357Y-17778214D01*
X10326786Y-17821072D01*
X10298214Y-17849643D01*
X10269643Y-17863929D01*
X10569643Y-18049643D02*
X10583928Y-18063929D01*
X10569643Y-18078214D01*
X10555357Y-18063929D01*
X10569643Y-18049643D01*
X10569643Y-18078214D01*
X10769643Y-17778214D02*
X10798214Y-17778214D01*
X10826786Y-17792500D01*
X10841071Y-17806786D01*
X10855357Y-17835357D01*
X10869643Y-17892500D01*
X10869643Y-17963929D01*
X10855357Y-18021072D01*
X10841071Y-18049643D01*
X10826786Y-18063929D01*
X10798214Y-18078214D01*
X10769643Y-18078214D01*
X10741071Y-18063929D01*
X10726786Y-18049643D01*
X10712500Y-18021072D01*
X10698214Y-17963929D01*
X10698214Y-17892500D01*
X10712500Y-17835357D01*
X10726786Y-17806786D01*
X10741071Y-17792500D01*
X10769643Y-17778214D01*
X11055357Y-17778214D02*
X11083928Y-17778214D01*
X11112500Y-17792500D01*
X11126786Y-17806786D01*
X11141071Y-17835357D01*
X11155357Y-17892500D01*
X11155357Y-17963929D01*
X11141071Y-18021072D01*
X11126786Y-18049643D01*
X11112500Y-18063929D01*
X11083928Y-18078214D01*
X11055357Y-18078214D01*
X11026786Y-18063929D01*
X11012500Y-18049643D01*
X10998214Y-18021072D01*
X10983928Y-17963929D01*
X10983928Y-17892500D01*
X10998214Y-17835357D01*
X11012500Y-17806786D01*
X11026786Y-17792500D01*
X11055357Y-17778214D01*
X11341071Y-17778214D02*
X11369643Y-17778214D01*
X11398214Y-17792500D01*
X11412500Y-17806786D01*
X11426786Y-17835357D01*
X11441071Y-17892500D01*
X11441071Y-17963929D01*
X11426786Y-18021072D01*
X11412500Y-18049643D01*
X11398214Y-18063929D01*
X11369643Y-18078214D01*
X11341071Y-18078214D01*
X11312500Y-18063929D01*
X11298214Y-18049643D01*
X11283928Y-18021072D01*
X11269643Y-17963929D01*
X11269643Y-17892500D01*
X11283928Y-17835357D01*
X11298214Y-17806786D01*
X11312500Y-17792500D01*
X11341071Y-17778214D01*
X11569643Y-18078214D02*
X11569643Y-17878214D01*
X11569643Y-17906786D02*
X11583928Y-17892500D01*
X11612500Y-17878214D01*
X11655357Y-17878214D01*
X11683928Y-17892500D01*
X11698214Y-17921072D01*
X11698214Y-18078214D01*
X11698214Y-17921072D02*
X11712500Y-17892500D01*
X11741071Y-17878214D01*
X11783928Y-17878214D01*
X11812500Y-17892500D01*
X11826786Y-17921072D01*
X11826786Y-18078214D01*
X11969643Y-18078214D02*
X11969643Y-17878214D01*
X11969643Y-17906786D02*
X11983928Y-17892500D01*
X12012500Y-17878214D01*
X12055357Y-17878214D01*
X12083928Y-17892500D01*
X12098214Y-17921072D01*
X12098214Y-18078214D01*
X12098214Y-17921072D02*
X12112500Y-17892500D01*
X12141071Y-17878214D01*
X12183928Y-17878214D01*
X12212500Y-17892500D01*
X12226786Y-17921072D01*
X12226786Y-18078214D01*
X12812500Y-17763929D02*
X12555357Y-18149643D01*
X13198214Y-17778214D02*
X13226786Y-17778214D01*
X13255357Y-17792500D01*
X13269643Y-17806786D01*
X13283928Y-17835357D01*
X13298214Y-17892500D01*
X13298214Y-17963929D01*
X13283928Y-18021072D01*
X13269643Y-18049643D01*
X13255357Y-18063929D01*
X13226786Y-18078214D01*
X13198214Y-18078214D01*
X13169643Y-18063929D01*
X13155357Y-18049643D01*
X13141071Y-18021072D01*
X13126786Y-17963929D01*
X13126786Y-17892500D01*
X13141071Y-17835357D01*
X13155357Y-17806786D01*
X13169643Y-17792500D01*
X13198214Y-17778214D01*
X13426786Y-18049643D02*
X13441071Y-18063929D01*
X13426786Y-18078214D01*
X13412500Y-18063929D01*
X13426786Y-18049643D01*
X13426786Y-18078214D01*
X13626786Y-17778214D02*
X13655357Y-17778214D01*
X13683928Y-17792500D01*
X13698214Y-17806786D01*
X13712500Y-17835357D01*
X13726786Y-17892500D01*
X13726786Y-17963929D01*
X13712500Y-18021072D01*
X13698214Y-18049643D01*
X13683928Y-18063929D01*
X13655357Y-18078214D01*
X13626786Y-18078214D01*
X13598214Y-18063929D01*
X13583928Y-18049643D01*
X13569643Y-18021072D01*
X13555357Y-17963929D01*
X13555357Y-17892500D01*
X13569643Y-17835357D01*
X13583928Y-17806786D01*
X13598214Y-17792500D01*
X13626786Y-17778214D01*
X13826786Y-17778214D02*
X14012500Y-17778214D01*
X13912500Y-17892500D01*
X13955357Y-17892500D01*
X13983928Y-17906786D01*
X13998214Y-17921072D01*
X14012500Y-17949643D01*
X14012500Y-18021072D01*
X13998214Y-18049643D01*
X13983928Y-18063929D01*
X13955357Y-18078214D01*
X13869643Y-18078214D01*
X13841071Y-18063929D01*
X13826786Y-18049643D01*
X14155357Y-18078214D02*
X14212500Y-18078214D01*
X14241071Y-18063929D01*
X14255357Y-18049643D01*
X14283928Y-18006786D01*
X14298214Y-17949643D01*
X14298214Y-17835357D01*
X14283928Y-17806786D01*
X14269643Y-17792500D01*
X14241071Y-17778214D01*
X14183928Y-17778214D01*
X14155357Y-17792500D01*
X14141071Y-17806786D01*
X14126786Y-17835357D01*
X14126786Y-17906786D01*
X14141071Y-17935357D01*
X14155357Y-17949643D01*
X14183928Y-17963929D01*
X14241071Y-17963929D01*
X14269643Y-17949643D01*
X14283928Y-17935357D01*
X14298214Y-17906786D01*
X14555357Y-17878214D02*
X14555357Y-18078214D01*
X14483928Y-17763929D02*
X14412500Y-17978214D01*
X14598214Y-17978214D01*
X14698214Y-17778214D02*
X14698214Y-17835357D01*
X14812500Y-17778214D02*
X14812500Y-17835357D01*
X15255357Y-18192500D02*
X15241071Y-18178214D01*
X15212500Y-18135357D01*
X15198214Y-18106786D01*
X15183928Y-18063929D01*
X15169643Y-17992500D01*
X15169643Y-17935357D01*
X15183928Y-17863929D01*
X15198214Y-17821072D01*
X15212500Y-17792500D01*
X15241071Y-17749643D01*
X15255357Y-17735357D01*
X15341071Y-17778214D02*
X15541071Y-17778214D01*
X15412500Y-18078214D01*
X15783928Y-17878214D02*
X15783928Y-18078214D01*
X15712500Y-17763929D02*
X15641071Y-17978214D01*
X15826786Y-17978214D01*
X16169643Y-18078214D02*
X16169643Y-17778214D01*
X16298214Y-18078214D02*
X16298214Y-17921072D01*
X16283928Y-17892500D01*
X16255357Y-17878214D01*
X16212500Y-17878214D01*
X16183928Y-17892500D01*
X16169643Y-17906786D01*
X16483928Y-18078214D02*
X16455357Y-18063929D01*
X16441071Y-18049643D01*
X16426786Y-18021072D01*
X16426786Y-17935357D01*
X16441071Y-17906786D01*
X16455357Y-17892500D01*
X16483928Y-17878214D01*
X16526786Y-17878214D01*
X16555357Y-17892500D01*
X16569643Y-17906786D01*
X16583928Y-17935357D01*
X16583928Y-18021072D01*
X16569643Y-18049643D01*
X16555357Y-18063929D01*
X16526786Y-18078214D01*
X16483928Y-18078214D01*
X16755357Y-18078214D02*
X16726786Y-18063929D01*
X16712500Y-18035357D01*
X16712500Y-17778214D01*
X16983928Y-18063929D02*
X16955357Y-18078214D01*
X16898214Y-18078214D01*
X16869643Y-18063929D01*
X16855357Y-18035357D01*
X16855357Y-17921072D01*
X16869643Y-17892500D01*
X16898214Y-17878214D01*
X16955357Y-17878214D01*
X16983928Y-17892500D01*
X16998214Y-17921072D01*
X16998214Y-17949643D01*
X16855357Y-17978214D01*
X17112500Y-18063929D02*
X17141071Y-18078214D01*
X17198214Y-18078214D01*
X17226786Y-18063929D01*
X17241071Y-18035357D01*
X17241071Y-18021072D01*
X17226786Y-17992500D01*
X17198214Y-17978214D01*
X17155357Y-17978214D01*
X17126786Y-17963929D01*
X17112500Y-17935357D01*
X17112500Y-17921072D01*
X17126786Y-17892500D01*
X17155357Y-17878214D01*
X17198214Y-17878214D01*
X17226786Y-17892500D01*
X17341071Y-18192500D02*
X17355357Y-18178214D01*
X17383928Y-18135357D01*
X17398214Y-18106786D01*
X17412500Y-18063929D01*
X17426786Y-17992500D01*
X17426786Y-17935357D01*
X17412500Y-17863929D01*
X17398214Y-17821072D01*
X17383928Y-17792500D01*
X17355357Y-17749643D01*
X17341071Y-17735357D01*
X9867500Y-18273500D02*
X9997500Y-18403500D01*
X9997500Y-18273500D02*
X9867500Y-18403500D01*
X9932500Y-18273500D02*
X9932500Y-18403500D01*
X9867500Y-18338500D02*
X9997500Y-18338500D01*
X10441071Y-18474214D02*
X10269643Y-18474214D01*
X10355357Y-18474214D02*
X10355357Y-18174214D01*
X10326786Y-18217072D01*
X10298214Y-18245643D01*
X10269643Y-18259929D01*
X10569643Y-18445643D02*
X10583928Y-18459929D01*
X10569643Y-18474214D01*
X10555357Y-18459929D01*
X10569643Y-18445643D01*
X10569643Y-18474214D01*
X10683928Y-18174214D02*
X10869643Y-18174214D01*
X10769643Y-18288500D01*
X10812500Y-18288500D01*
X10841071Y-18302786D01*
X10855357Y-18317072D01*
X10869643Y-18345643D01*
X10869643Y-18417072D01*
X10855357Y-18445643D01*
X10841071Y-18459929D01*
X10812500Y-18474214D01*
X10726786Y-18474214D01*
X10698214Y-18459929D01*
X10683928Y-18445643D01*
X11055357Y-18174214D02*
X11083928Y-18174214D01*
X11112500Y-18188500D01*
X11126786Y-18202786D01*
X11141071Y-18231357D01*
X11155357Y-18288500D01*
X11155357Y-18359929D01*
X11141071Y-18417072D01*
X11126786Y-18445643D01*
X11112500Y-18459929D01*
X11083928Y-18474214D01*
X11055357Y-18474214D01*
X11026786Y-18459929D01*
X11012500Y-18445643D01*
X10998214Y-18417072D01*
X10983928Y-18359929D01*
X10983928Y-18288500D01*
X10998214Y-18231357D01*
X11012500Y-18202786D01*
X11026786Y-18188500D01*
X11055357Y-18174214D01*
X11341071Y-18174214D02*
X11369643Y-18174214D01*
X11398214Y-18188500D01*
X11412500Y-18202786D01*
X11426786Y-18231357D01*
X11441071Y-18288500D01*
X11441071Y-18359929D01*
X11426786Y-18417072D01*
X11412500Y-18445643D01*
X11398214Y-18459929D01*
X11369643Y-18474214D01*
X11341071Y-18474214D01*
X11312500Y-18459929D01*
X11298214Y-18445643D01*
X11283928Y-18417072D01*
X11269643Y-18359929D01*
X11269643Y-18288500D01*
X11283928Y-18231357D01*
X11298214Y-18202786D01*
X11312500Y-18188500D01*
X11341071Y-18174214D01*
X11569643Y-18474214D02*
X11569643Y-18274214D01*
X11569643Y-18302786D02*
X11583928Y-18288500D01*
X11612500Y-18274214D01*
X11655357Y-18274214D01*
X11683928Y-18288500D01*
X11698214Y-18317072D01*
X11698214Y-18474214D01*
X11698214Y-18317072D02*
X11712500Y-18288500D01*
X11741071Y-18274214D01*
X11783928Y-18274214D01*
X11812500Y-18288500D01*
X11826786Y-18317072D01*
X11826786Y-18474214D01*
X11969643Y-18474214D02*
X11969643Y-18274214D01*
X11969643Y-18302786D02*
X11983928Y-18288500D01*
X12012500Y-18274214D01*
X12055357Y-18274214D01*
X12083928Y-18288500D01*
X12098214Y-18317072D01*
X12098214Y-18474214D01*
X12098214Y-18317072D02*
X12112500Y-18288500D01*
X12141071Y-18274214D01*
X12183928Y-18274214D01*
X12212500Y-18288500D01*
X12226786Y-18317072D01*
X12226786Y-18474214D01*
X12812500Y-18159929D02*
X12555357Y-18545643D01*
X13198214Y-18174214D02*
X13226786Y-18174214D01*
X13255357Y-18188500D01*
X13269643Y-18202786D01*
X13283928Y-18231357D01*
X13298214Y-18288500D01*
X13298214Y-18359929D01*
X13283928Y-18417072D01*
X13269643Y-18445643D01*
X13255357Y-18459929D01*
X13226786Y-18474214D01*
X13198214Y-18474214D01*
X13169643Y-18459929D01*
X13155357Y-18445643D01*
X13141071Y-18417072D01*
X13126786Y-18359929D01*
X13126786Y-18288500D01*
X13141071Y-18231357D01*
X13155357Y-18202786D01*
X13169643Y-18188500D01*
X13198214Y-18174214D01*
X13426786Y-18445643D02*
X13441071Y-18459929D01*
X13426786Y-18474214D01*
X13412500Y-18459929D01*
X13426786Y-18445643D01*
X13426786Y-18474214D01*
X13626786Y-18174214D02*
X13655357Y-18174214D01*
X13683928Y-18188500D01*
X13698214Y-18202786D01*
X13712500Y-18231357D01*
X13726786Y-18288500D01*
X13726786Y-18359929D01*
X13712500Y-18417072D01*
X13698214Y-18445643D01*
X13683928Y-18459929D01*
X13655357Y-18474214D01*
X13626786Y-18474214D01*
X13598214Y-18459929D01*
X13583928Y-18445643D01*
X13569643Y-18417072D01*
X13555357Y-18359929D01*
X13555357Y-18288500D01*
X13569643Y-18231357D01*
X13583928Y-18202786D01*
X13598214Y-18188500D01*
X13626786Y-18174214D01*
X13998214Y-18174214D02*
X13855357Y-18174214D01*
X13841071Y-18317072D01*
X13855357Y-18302786D01*
X13883928Y-18288500D01*
X13955357Y-18288500D01*
X13983928Y-18302786D01*
X13998214Y-18317072D01*
X14012500Y-18345643D01*
X14012500Y-18417072D01*
X13998214Y-18445643D01*
X13983928Y-18459929D01*
X13955357Y-18474214D01*
X13883928Y-18474214D01*
X13855357Y-18459929D01*
X13841071Y-18445643D01*
X14298214Y-18474214D02*
X14126786Y-18474214D01*
X14212500Y-18474214D02*
X14212500Y-18174214D01*
X14183928Y-18217072D01*
X14155357Y-18245643D01*
X14126786Y-18259929D01*
X14412500Y-18202786D02*
X14426786Y-18188500D01*
X14455357Y-18174214D01*
X14526786Y-18174214D01*
X14555357Y-18188500D01*
X14569643Y-18202786D01*
X14583928Y-18231357D01*
X14583928Y-18259929D01*
X14569643Y-18302786D01*
X14398214Y-18474214D01*
X14583928Y-18474214D01*
X14698214Y-18174214D02*
X14698214Y-18231357D01*
X14812500Y-18174214D02*
X14812500Y-18231357D01*
X15255357Y-18588500D02*
X15241071Y-18574214D01*
X15212500Y-18531357D01*
X15198214Y-18502786D01*
X15183928Y-18459929D01*
X15169643Y-18388500D01*
X15169643Y-18331357D01*
X15183928Y-18259929D01*
X15198214Y-18217072D01*
X15212500Y-18188500D01*
X15241071Y-18145643D01*
X15255357Y-18131357D01*
X15526786Y-18474214D02*
X15355357Y-18474214D01*
X15441071Y-18474214D02*
X15441071Y-18174214D01*
X15412500Y-18217072D01*
X15383928Y-18245643D01*
X15355357Y-18259929D01*
X15783928Y-18274214D02*
X15783928Y-18474214D01*
X15712500Y-18159929D02*
X15641071Y-18374214D01*
X15826786Y-18374214D01*
X16169643Y-18474214D02*
X16169643Y-18174214D01*
X16298214Y-18474214D02*
X16298214Y-18317072D01*
X16283928Y-18288500D01*
X16255357Y-18274214D01*
X16212500Y-18274214D01*
X16183928Y-18288500D01*
X16169643Y-18302786D01*
X16483928Y-18474214D02*
X16455357Y-18459929D01*
X16441071Y-18445643D01*
X16426786Y-18417072D01*
X16426786Y-18331357D01*
X16441071Y-18302786D01*
X16455357Y-18288500D01*
X16483928Y-18274214D01*
X16526786Y-18274214D01*
X16555357Y-18288500D01*
X16569643Y-18302786D01*
X16583928Y-18331357D01*
X16583928Y-18417072D01*
X16569643Y-18445643D01*
X16555357Y-18459929D01*
X16526786Y-18474214D01*
X16483928Y-18474214D01*
X16755357Y-18474214D02*
X16726786Y-18459929D01*
X16712500Y-18431357D01*
X16712500Y-18174214D01*
X16983928Y-18459929D02*
X16955357Y-18474214D01*
X16898214Y-18474214D01*
X16869643Y-18459929D01*
X16855357Y-18431357D01*
X16855357Y-18317072D01*
X16869643Y-18288500D01*
X16898214Y-18274214D01*
X16955357Y-18274214D01*
X16983928Y-18288500D01*
X16998214Y-18317072D01*
X16998214Y-18345643D01*
X16855357Y-18374214D01*
X17112500Y-18459929D02*
X17141071Y-18474214D01*
X17198214Y-18474214D01*
X17226786Y-18459929D01*
X17241071Y-18431357D01*
X17241071Y-18417072D01*
X17226786Y-18388500D01*
X17198214Y-18374214D01*
X17155357Y-18374214D01*
X17126786Y-18359929D01*
X17112500Y-18331357D01*
X17112500Y-18317072D01*
X17126786Y-18288500D01*
X17155357Y-18274214D01*
X17198214Y-18274214D01*
X17226786Y-18288500D01*
X17341071Y-18588500D02*
X17355357Y-18574214D01*
X17383928Y-18531357D01*
X17398214Y-18502786D01*
X17412500Y-18459929D01*
X17426786Y-18388500D01*
X17426786Y-18331357D01*
X17412500Y-18259929D01*
X17398214Y-18217072D01*
X17383928Y-18188500D01*
X17355357Y-18145643D01*
X17341071Y-18131357D01*
M02*
