M48
; DRILL file {KiCad 7.0.9} date Mon Feb  5 15:13:05 2024
; FORMAT={-:-/ absolute / inch / decimal}
; #@! TF.CreationDate,2024-02-05T15:13:05+00:00
; #@! TF.GenerationSoftware,Kicad,Pcbnew,7.0.9
; #@! TF.FileFunction,Plated,1,4,PTH
FMAT,2
INCH
; #@! TA.AperFunction,Plated,PTH,ViaDrill
T1C0.0157
; #@! TA.AperFunction,Plated,PTH,ComponentDrill
T2C0.0276
; #@! TA.AperFunction,Plated,PTH,ComponentDrill
T3C0.0295
; #@! TA.AperFunction,Plated,PTH,ComponentDrill
T4C0.0315
; #@! TA.AperFunction,Plated,PTH,ComponentDrill
T5C0.0354
; #@! TA.AperFunction,Plated,PTH,ComponentDrill
T6C0.0394
; #@! TA.AperFunction,Plated,PTH,ComponentDrill
T7C0.0512
%
G90
G05
T1
X4.43Y-5.13
X4.68Y-5.13
X4.75Y-3.34
X4.88Y-5.14
X4.88Y-3.23
X4.93Y-4.73
X4.98Y-3.19
X5.02Y-4.9
X5.07Y-3.1
X5.1Y-3.4
X5.1Y-3.9
X5.1Y-5.01
X5.13Y-3.02
X5.15Y-3.29
X5.15Y-5.08
X5.25Y-3.23
X5.25Y-4.2
X5.25Y-4.9
X5.35Y-3.19
X5.45Y-3.14
X5.45Y-3.59
X5.47Y-5.08
X5.6Y-4.2
X5.65Y-5.33
X5.68Y-5.6
X5.95Y-5.15
X6.28Y-4.65
X6.34Y-5.15
X6.38Y-4.48
X6.49Y-4.65
X6.49Y-4.99
X6.5Y-4.58
X6.51Y-4.93
X6.5531Y-2.6369
X6.58Y-4.96
X6.62Y-4.79
X6.67Y-4.6
X6.68Y-4.96
X6.74Y-4.63
X6.76Y-4.79
X6.76Y-4.96
X6.85Y-4.82
X6.86Y-4.67
X6.88Y-4.88
X6.96Y-4.35
X6.99Y-5.08
X7.1Y-4.57
T3
X7.395Y-5.2325
X7.445Y-5.1825
X7.495Y-5.2325
T4
X4.16Y-2.6116
X4.16Y-2.71
X4.22Y-2.37
X4.24Y-3.6516
X4.24Y-3.75
X4.26Y-4.33
X4.26Y-4.4284
X4.3184Y-2.37
X4.3216Y-4.8
X4.33Y-4.93
X4.33Y-5.23
X4.35Y-3.09
X4.38Y-2.51
X4.38Y-2.81
X4.42Y-4.8
X4.43Y-4.93
X4.43Y-5.23
X4.48Y-2.51
X4.48Y-2.81
X4.4816Y-2.37
X4.49Y-3.65
X4.49Y-3.7484
X4.4916Y-3.29
X4.52Y-4.33
X4.52Y-4.4284
X4.53Y-4.93
X4.53Y-5.23
X4.58Y-2.37
X4.58Y-2.51
X4.58Y-2.81
X4.59Y-3.29
X4.63Y-4.93
X4.63Y-5.23
X4.68Y-2.51
X4.68Y-2.81
X4.73Y-2.37
X4.73Y-4.93
X4.73Y-5.23
X4.75Y-3.09
X4.78Y-2.51
X4.78Y-2.81
X4.8284Y-2.37
X4.83Y-4.93
X4.83Y-5.23
X4.86Y-3.44
X4.86Y-3.54
X4.86Y-3.64
X4.86Y-3.74
X4.86Y-3.84
X4.86Y-3.94
X4.88Y-2.51
X4.88Y-2.81
X4.88Y-4.1216
X4.88Y-4.22
X4.88Y-4.5
X4.88Y-4.5984
X4.8816Y-2.96
X4.93Y-4.93
X4.93Y-5.23
X4.98Y-2.37
X4.98Y-2.51
X4.98Y-2.81
X4.98Y-2.96
X5.05Y-3.495
X5.05Y-3.795
X5.05Y-4.045
X5.05Y-4.645
X5.0784Y-2.37
X5.0916Y-5.23
X5.15Y-3.495
X5.15Y-3.795
X5.15Y-4.045
X5.15Y-4.645
X5.19Y-5.23
X5.25Y-2.4728
X5.25Y-2.5713
X5.25Y-2.72
X5.25Y-2.8184
X5.25Y-3.495
X5.25Y-3.795
X5.25Y-4.045
X5.25Y-4.645
X5.3316Y-5.23
X5.35Y-3.495
X5.35Y-3.795
X5.35Y-4.045
X5.35Y-4.645
X5.43Y-5.23
X5.45Y-2.51
X5.45Y-2.81
X5.45Y-3.495
X5.45Y-3.795
X5.45Y-4.045
X5.45Y-4.645
X5.4716Y-2.28
X5.55Y-2.51
X5.55Y-2.81
X5.55Y-3.495
X5.55Y-3.795
X5.55Y-4.045
X5.55Y-4.645
X5.5516Y-2.96
X5.57Y-2.28
X5.65Y-2.51
X5.65Y-2.81
X5.65Y-2.96
X5.65Y-3.495
X5.65Y-3.795
X5.65Y-4.045
X5.65Y-4.645
X5.7216Y-2.28
X5.75Y-2.51
X5.75Y-2.81
X5.75Y-3.495
X5.75Y-3.795
X5.75Y-4.045
X5.75Y-4.645
X5.82Y-2.28
X5.85Y-2.51
X5.85Y-2.81
X5.85Y-4.045
X5.85Y-4.645
X5.91Y-2.97
X5.93Y-3.5966
X5.93Y-3.695
X5.95Y-2.51
X5.95Y-2.81
X5.95Y-4.045
X5.95Y-4.645
X5.9716Y-2.28
X6.0084Y-2.97
X6.05Y-2.51
X6.05Y-2.81
X6.05Y-4.045
X6.05Y-4.645
X6.07Y-2.28
X6.15Y-2.51
X6.15Y-2.81
X6.15Y-4.045
X6.15Y-4.645
X6.1516Y-2.97
X6.2216Y-2.28
X6.25Y-2.51
X6.25Y-2.81
X6.25Y-2.97
X6.32Y-2.28
X6.35Y-2.51
X6.35Y-2.81
X6.58Y-3.17
X6.5816Y-3.37
X6.6784Y-3.17
X6.68Y-3.37
X6.81Y-3.17
X6.81Y-3.37
X7.0316Y-4.45
X7.13Y-4.45
X7.21Y-3.17
X7.21Y-3.37
X7.485Y-4.57
X7.485Y-4.97
X7.68Y-4.57
X7.68Y-4.97
T5
X7.665Y-5.2325
X7.765Y-5.2325
T6
X4.3301Y-5.4972
X4.3301Y-5.6972
X4.4301Y-5.4972
X4.4301Y-5.6972
X4.5301Y-5.4972
X4.5301Y-5.6972
X4.6301Y-5.4972
X4.6301Y-5.6972
X4.7301Y-5.4972
X4.7301Y-5.6972
X4.8301Y-5.4972
X4.8301Y-5.6972
X4.9301Y-5.4972
X4.9301Y-5.6972
X5.0301Y-5.4972
X5.0301Y-5.6972
X5.1301Y-5.4972
X5.1301Y-5.6972
X5.2301Y-5.4972
X5.2301Y-5.6972
X5.3301Y-5.4972
X5.3301Y-5.6972
X5.4301Y-5.4972
X5.4301Y-5.6972
X5.5301Y-5.4972
X5.5301Y-5.6972
X5.6301Y-5.4972
X5.6301Y-5.6972
X5.7301Y-5.4972
X5.7301Y-5.6972
X5.8301Y-5.4972
X5.8301Y-5.6972
X5.9301Y-5.4972
X5.9301Y-5.6972
X6.0301Y-5.4972
X6.0301Y-5.6972
X6.1301Y-5.4972
X6.1301Y-5.6972
X6.2301Y-5.4972
X6.2301Y-5.6972
X6.3301Y-5.4972
X6.3301Y-5.6972
X6.4301Y-5.4972
X6.4301Y-5.6972
X6.49Y-4.24
X6.5301Y-5.4972
X6.5301Y-5.6972
X6.59Y-4.24
X6.6301Y-5.4972
X6.6301Y-5.6972
X6.69Y-4.24
X6.7301Y-5.4972
X6.7301Y-5.6972
X6.79Y-4.24
X6.8301Y-5.4972
X6.8301Y-5.6972
X6.89Y-4.24
X6.9301Y-5.4972
X6.9301Y-5.6972
X6.99Y-2.77
X6.99Y-4.24
X7.0Y-2.28
X7.0301Y-5.4972
X7.0301Y-5.6972
X7.1301Y-5.4972
X7.1301Y-5.6972
X7.1869Y-2.77
X7.1969Y-2.28
X7.2301Y-5.4972
X7.2301Y-5.6972
X7.3301Y-5.4972
X7.3301Y-5.6972
X7.4301Y-5.4972
X7.4301Y-5.6972
T7
X4.19Y-3.9425
X4.19Y-4.1394
X4.57Y-3.9475
X4.57Y-4.1444
X6.5531Y-2.28
X6.5531Y-2.77
X6.75Y-2.28
X6.75Y-2.77
X7.5231Y-2.4131
X7.5231Y-2.61
X7.5231Y-2.8069
X7.72Y-2.4131
X7.72Y-2.61
X7.72Y-2.8069
T2
G00X7.5224Y-3.4478
M15
G01X7.487Y-3.4478
M16
G05
G00X7.5224Y-3.8415
M15
G01X7.487Y-3.8415
M16
G05
G00X7.7016Y-3.6623
M15
G01X7.7016Y-3.6269
M16
G05
T0
M30
