G04 #@! TF.GenerationSoftware,KiCad,Pcbnew,(5.1.10)-1*
G04 #@! TF.CreationDate,2021-07-30T10:23:39+01:00*
G04 #@! TF.ProjectId,AudioYM2151,41756469-6f59-44d3-9231-35312e6b6963,rev?*
G04 #@! TF.SameCoordinates,Original*
G04 #@! TF.FileFunction,Copper,L1,Top*
G04 #@! TF.FilePolarity,Positive*
%FSLAX46Y46*%
G04 Gerber Fmt 4.6, Leading zero omitted, Abs format (unit mm)*
G04 Created by KiCad (PCBNEW (5.1.10)-1) date 2021-07-30 10:23:39*
%MOMM*%
%LPD*%
G01*
G04 APERTURE LIST*
G04 #@! TA.AperFunction,ComponentPad*
%ADD10C,2.000000*%
G04 #@! TD*
G04 #@! TA.AperFunction,ComponentPad*
%ADD11R,2.000000X2.000000*%
G04 #@! TD*
G04 #@! TA.AperFunction,ComponentPad*
%ADD12C,2.600000*%
G04 #@! TD*
G04 #@! TA.AperFunction,ComponentPad*
%ADD13C,1.600000*%
G04 #@! TD*
G04 #@! TA.AperFunction,ComponentPad*
%ADD14R,1.600000X1.600000*%
G04 #@! TD*
G04 #@! TA.AperFunction,ComponentPad*
%ADD15O,1.600000X1.600000*%
G04 #@! TD*
G04 #@! TA.AperFunction,ComponentPad*
%ADD16C,2.340000*%
G04 #@! TD*
G04 #@! TA.AperFunction,ComponentPad*
%ADD17R,1.300000X1.300000*%
G04 #@! TD*
G04 #@! TA.AperFunction,ComponentPad*
%ADD18C,1.300000*%
G04 #@! TD*
G04 #@! TA.AperFunction,ComponentPad*
%ADD19O,2.416000X1.208000*%
G04 #@! TD*
G04 #@! TA.AperFunction,ComponentPad*
%ADD20O,1.208000X2.416000*%
G04 #@! TD*
G04 #@! TA.AperFunction,ComponentPad*
%ADD21C,1.550000*%
G04 #@! TD*
G04 #@! TA.AperFunction,ComponentPad*
%ADD22O,1.700000X1.700000*%
G04 #@! TD*
G04 #@! TA.AperFunction,ComponentPad*
%ADD23R,1.700000X1.700000*%
G04 #@! TD*
G04 #@! TA.AperFunction,ComponentPad*
%ADD24C,1.800000*%
G04 #@! TD*
G04 #@! TA.AperFunction,ComponentPad*
%ADD25R,1.800000X1.800000*%
G04 #@! TD*
G04 #@! TA.AperFunction,ViaPad*
%ADD26C,0.800000*%
G04 #@! TD*
G04 #@! TA.AperFunction,Conductor*
%ADD27C,0.250000*%
G04 #@! TD*
G04 #@! TA.AperFunction,Conductor*
%ADD28C,1.000000*%
G04 #@! TD*
G04 #@! TA.AperFunction,Conductor*
%ADD29C,0.500000*%
G04 #@! TD*
G04 #@! TA.AperFunction,Conductor*
%ADD30C,0.400000*%
G04 #@! TD*
G04 #@! TA.AperFunction,Conductor*
%ADD31C,0.750000*%
G04 #@! TD*
G04 APERTURE END LIST*
G04 #@! TA.AperFunction,SMDPad,CuDef*
G36*
G01*
X163649000Y-114729500D02*
X163649000Y-113404500D01*
G75*
G02*
X163724000Y-113329500I75000J0D01*
G01*
X163874000Y-113329500D01*
G75*
G02*
X163949000Y-113404500I0J-75000D01*
G01*
X163949000Y-114729500D01*
G75*
G02*
X163874000Y-114804500I-75000J0D01*
G01*
X163724000Y-114804500D01*
G75*
G02*
X163649000Y-114729500I0J75000D01*
G01*
G37*
G04 #@! TD.AperFunction*
G04 #@! TA.AperFunction,SMDPad,CuDef*
G36*
G01*
X164149000Y-114729500D02*
X164149000Y-113404500D01*
G75*
G02*
X164224000Y-113329500I75000J0D01*
G01*
X164374000Y-113329500D01*
G75*
G02*
X164449000Y-113404500I0J-75000D01*
G01*
X164449000Y-114729500D01*
G75*
G02*
X164374000Y-114804500I-75000J0D01*
G01*
X164224000Y-114804500D01*
G75*
G02*
X164149000Y-114729500I0J75000D01*
G01*
G37*
G04 #@! TD.AperFunction*
G04 #@! TA.AperFunction,SMDPad,CuDef*
G36*
G01*
X164649000Y-114729500D02*
X164649000Y-113404500D01*
G75*
G02*
X164724000Y-113329500I75000J0D01*
G01*
X164874000Y-113329500D01*
G75*
G02*
X164949000Y-113404500I0J-75000D01*
G01*
X164949000Y-114729500D01*
G75*
G02*
X164874000Y-114804500I-75000J0D01*
G01*
X164724000Y-114804500D01*
G75*
G02*
X164649000Y-114729500I0J75000D01*
G01*
G37*
G04 #@! TD.AperFunction*
G04 #@! TA.AperFunction,SMDPad,CuDef*
G36*
G01*
X165149000Y-114729500D02*
X165149000Y-113404500D01*
G75*
G02*
X165224000Y-113329500I75000J0D01*
G01*
X165374000Y-113329500D01*
G75*
G02*
X165449000Y-113404500I0J-75000D01*
G01*
X165449000Y-114729500D01*
G75*
G02*
X165374000Y-114804500I-75000J0D01*
G01*
X165224000Y-114804500D01*
G75*
G02*
X165149000Y-114729500I0J75000D01*
G01*
G37*
G04 #@! TD.AperFunction*
G04 #@! TA.AperFunction,SMDPad,CuDef*
G36*
G01*
X165649000Y-114729500D02*
X165649000Y-113404500D01*
G75*
G02*
X165724000Y-113329500I75000J0D01*
G01*
X165874000Y-113329500D01*
G75*
G02*
X165949000Y-113404500I0J-75000D01*
G01*
X165949000Y-114729500D01*
G75*
G02*
X165874000Y-114804500I-75000J0D01*
G01*
X165724000Y-114804500D01*
G75*
G02*
X165649000Y-114729500I0J75000D01*
G01*
G37*
G04 #@! TD.AperFunction*
G04 #@! TA.AperFunction,SMDPad,CuDef*
G36*
G01*
X166149000Y-114729500D02*
X166149000Y-113404500D01*
G75*
G02*
X166224000Y-113329500I75000J0D01*
G01*
X166374000Y-113329500D01*
G75*
G02*
X166449000Y-113404500I0J-75000D01*
G01*
X166449000Y-114729500D01*
G75*
G02*
X166374000Y-114804500I-75000J0D01*
G01*
X166224000Y-114804500D01*
G75*
G02*
X166149000Y-114729500I0J75000D01*
G01*
G37*
G04 #@! TD.AperFunction*
G04 #@! TA.AperFunction,SMDPad,CuDef*
G36*
G01*
X166649000Y-114729500D02*
X166649000Y-113404500D01*
G75*
G02*
X166724000Y-113329500I75000J0D01*
G01*
X166874000Y-113329500D01*
G75*
G02*
X166949000Y-113404500I0J-75000D01*
G01*
X166949000Y-114729500D01*
G75*
G02*
X166874000Y-114804500I-75000J0D01*
G01*
X166724000Y-114804500D01*
G75*
G02*
X166649000Y-114729500I0J75000D01*
G01*
G37*
G04 #@! TD.AperFunction*
G04 #@! TA.AperFunction,SMDPad,CuDef*
G36*
G01*
X167149000Y-114729500D02*
X167149000Y-113404500D01*
G75*
G02*
X167224000Y-113329500I75000J0D01*
G01*
X167374000Y-113329500D01*
G75*
G02*
X167449000Y-113404500I0J-75000D01*
G01*
X167449000Y-114729500D01*
G75*
G02*
X167374000Y-114804500I-75000J0D01*
G01*
X167224000Y-114804500D01*
G75*
G02*
X167149000Y-114729500I0J75000D01*
G01*
G37*
G04 #@! TD.AperFunction*
G04 #@! TA.AperFunction,SMDPad,CuDef*
G36*
G01*
X167649000Y-114729500D02*
X167649000Y-113404500D01*
G75*
G02*
X167724000Y-113329500I75000J0D01*
G01*
X167874000Y-113329500D01*
G75*
G02*
X167949000Y-113404500I0J-75000D01*
G01*
X167949000Y-114729500D01*
G75*
G02*
X167874000Y-114804500I-75000J0D01*
G01*
X167724000Y-114804500D01*
G75*
G02*
X167649000Y-114729500I0J75000D01*
G01*
G37*
G04 #@! TD.AperFunction*
G04 #@! TA.AperFunction,SMDPad,CuDef*
G36*
G01*
X168149000Y-114729500D02*
X168149000Y-113404500D01*
G75*
G02*
X168224000Y-113329500I75000J0D01*
G01*
X168374000Y-113329500D01*
G75*
G02*
X168449000Y-113404500I0J-75000D01*
G01*
X168449000Y-114729500D01*
G75*
G02*
X168374000Y-114804500I-75000J0D01*
G01*
X168224000Y-114804500D01*
G75*
G02*
X168149000Y-114729500I0J75000D01*
G01*
G37*
G04 #@! TD.AperFunction*
G04 #@! TA.AperFunction,SMDPad,CuDef*
G36*
G01*
X168649000Y-114729500D02*
X168649000Y-113404500D01*
G75*
G02*
X168724000Y-113329500I75000J0D01*
G01*
X168874000Y-113329500D01*
G75*
G02*
X168949000Y-113404500I0J-75000D01*
G01*
X168949000Y-114729500D01*
G75*
G02*
X168874000Y-114804500I-75000J0D01*
G01*
X168724000Y-114804500D01*
G75*
G02*
X168649000Y-114729500I0J75000D01*
G01*
G37*
G04 #@! TD.AperFunction*
G04 #@! TA.AperFunction,SMDPad,CuDef*
G36*
G01*
X169149000Y-114729500D02*
X169149000Y-113404500D01*
G75*
G02*
X169224000Y-113329500I75000J0D01*
G01*
X169374000Y-113329500D01*
G75*
G02*
X169449000Y-113404500I0J-75000D01*
G01*
X169449000Y-114729500D01*
G75*
G02*
X169374000Y-114804500I-75000J0D01*
G01*
X169224000Y-114804500D01*
G75*
G02*
X169149000Y-114729500I0J75000D01*
G01*
G37*
G04 #@! TD.AperFunction*
G04 #@! TA.AperFunction,SMDPad,CuDef*
G36*
G01*
X169649000Y-114729500D02*
X169649000Y-113404500D01*
G75*
G02*
X169724000Y-113329500I75000J0D01*
G01*
X169874000Y-113329500D01*
G75*
G02*
X169949000Y-113404500I0J-75000D01*
G01*
X169949000Y-114729500D01*
G75*
G02*
X169874000Y-114804500I-75000J0D01*
G01*
X169724000Y-114804500D01*
G75*
G02*
X169649000Y-114729500I0J75000D01*
G01*
G37*
G04 #@! TD.AperFunction*
G04 #@! TA.AperFunction,SMDPad,CuDef*
G36*
G01*
X170149000Y-114729500D02*
X170149000Y-113404500D01*
G75*
G02*
X170224000Y-113329500I75000J0D01*
G01*
X170374000Y-113329500D01*
G75*
G02*
X170449000Y-113404500I0J-75000D01*
G01*
X170449000Y-114729500D01*
G75*
G02*
X170374000Y-114804500I-75000J0D01*
G01*
X170224000Y-114804500D01*
G75*
G02*
X170149000Y-114729500I0J75000D01*
G01*
G37*
G04 #@! TD.AperFunction*
G04 #@! TA.AperFunction,SMDPad,CuDef*
G36*
G01*
X170649000Y-114729500D02*
X170649000Y-113404500D01*
G75*
G02*
X170724000Y-113329500I75000J0D01*
G01*
X170874000Y-113329500D01*
G75*
G02*
X170949000Y-113404500I0J-75000D01*
G01*
X170949000Y-114729500D01*
G75*
G02*
X170874000Y-114804500I-75000J0D01*
G01*
X170724000Y-114804500D01*
G75*
G02*
X170649000Y-114729500I0J75000D01*
G01*
G37*
G04 #@! TD.AperFunction*
G04 #@! TA.AperFunction,SMDPad,CuDef*
G36*
G01*
X171149000Y-114729500D02*
X171149000Y-113404500D01*
G75*
G02*
X171224000Y-113329500I75000J0D01*
G01*
X171374000Y-113329500D01*
G75*
G02*
X171449000Y-113404500I0J-75000D01*
G01*
X171449000Y-114729500D01*
G75*
G02*
X171374000Y-114804500I-75000J0D01*
G01*
X171224000Y-114804500D01*
G75*
G02*
X171149000Y-114729500I0J75000D01*
G01*
G37*
G04 #@! TD.AperFunction*
G04 #@! TA.AperFunction,SMDPad,CuDef*
G36*
G01*
X171649000Y-114729500D02*
X171649000Y-113404500D01*
G75*
G02*
X171724000Y-113329500I75000J0D01*
G01*
X171874000Y-113329500D01*
G75*
G02*
X171949000Y-113404500I0J-75000D01*
G01*
X171949000Y-114729500D01*
G75*
G02*
X171874000Y-114804500I-75000J0D01*
G01*
X171724000Y-114804500D01*
G75*
G02*
X171649000Y-114729500I0J75000D01*
G01*
G37*
G04 #@! TD.AperFunction*
G04 #@! TA.AperFunction,SMDPad,CuDef*
G36*
G01*
X172149000Y-114729500D02*
X172149000Y-113404500D01*
G75*
G02*
X172224000Y-113329500I75000J0D01*
G01*
X172374000Y-113329500D01*
G75*
G02*
X172449000Y-113404500I0J-75000D01*
G01*
X172449000Y-114729500D01*
G75*
G02*
X172374000Y-114804500I-75000J0D01*
G01*
X172224000Y-114804500D01*
G75*
G02*
X172149000Y-114729500I0J75000D01*
G01*
G37*
G04 #@! TD.AperFunction*
G04 #@! TA.AperFunction,SMDPad,CuDef*
G36*
G01*
X172649000Y-114729500D02*
X172649000Y-113404500D01*
G75*
G02*
X172724000Y-113329500I75000J0D01*
G01*
X172874000Y-113329500D01*
G75*
G02*
X172949000Y-113404500I0J-75000D01*
G01*
X172949000Y-114729500D01*
G75*
G02*
X172874000Y-114804500I-75000J0D01*
G01*
X172724000Y-114804500D01*
G75*
G02*
X172649000Y-114729500I0J75000D01*
G01*
G37*
G04 #@! TD.AperFunction*
G04 #@! TA.AperFunction,SMDPad,CuDef*
G36*
G01*
X173149000Y-114729500D02*
X173149000Y-113404500D01*
G75*
G02*
X173224000Y-113329500I75000J0D01*
G01*
X173374000Y-113329500D01*
G75*
G02*
X173449000Y-113404500I0J-75000D01*
G01*
X173449000Y-114729500D01*
G75*
G02*
X173374000Y-114804500I-75000J0D01*
G01*
X173224000Y-114804500D01*
G75*
G02*
X173149000Y-114729500I0J75000D01*
G01*
G37*
G04 #@! TD.AperFunction*
G04 #@! TA.AperFunction,SMDPad,CuDef*
G36*
G01*
X173649000Y-114729500D02*
X173649000Y-113404500D01*
G75*
G02*
X173724000Y-113329500I75000J0D01*
G01*
X173874000Y-113329500D01*
G75*
G02*
X173949000Y-113404500I0J-75000D01*
G01*
X173949000Y-114729500D01*
G75*
G02*
X173874000Y-114804500I-75000J0D01*
G01*
X173724000Y-114804500D01*
G75*
G02*
X173649000Y-114729500I0J75000D01*
G01*
G37*
G04 #@! TD.AperFunction*
G04 #@! TA.AperFunction,SMDPad,CuDef*
G36*
G01*
X174149000Y-114729500D02*
X174149000Y-113404500D01*
G75*
G02*
X174224000Y-113329500I75000J0D01*
G01*
X174374000Y-113329500D01*
G75*
G02*
X174449000Y-113404500I0J-75000D01*
G01*
X174449000Y-114729500D01*
G75*
G02*
X174374000Y-114804500I-75000J0D01*
G01*
X174224000Y-114804500D01*
G75*
G02*
X174149000Y-114729500I0J75000D01*
G01*
G37*
G04 #@! TD.AperFunction*
G04 #@! TA.AperFunction,SMDPad,CuDef*
G36*
G01*
X174649000Y-114729500D02*
X174649000Y-113404500D01*
G75*
G02*
X174724000Y-113329500I75000J0D01*
G01*
X174874000Y-113329500D01*
G75*
G02*
X174949000Y-113404500I0J-75000D01*
G01*
X174949000Y-114729500D01*
G75*
G02*
X174874000Y-114804500I-75000J0D01*
G01*
X174724000Y-114804500D01*
G75*
G02*
X174649000Y-114729500I0J75000D01*
G01*
G37*
G04 #@! TD.AperFunction*
G04 #@! TA.AperFunction,SMDPad,CuDef*
G36*
G01*
X175149000Y-114729500D02*
X175149000Y-113404500D01*
G75*
G02*
X175224000Y-113329500I75000J0D01*
G01*
X175374000Y-113329500D01*
G75*
G02*
X175449000Y-113404500I0J-75000D01*
G01*
X175449000Y-114729500D01*
G75*
G02*
X175374000Y-114804500I-75000J0D01*
G01*
X175224000Y-114804500D01*
G75*
G02*
X175149000Y-114729500I0J75000D01*
G01*
G37*
G04 #@! TD.AperFunction*
G04 #@! TA.AperFunction,SMDPad,CuDef*
G36*
G01*
X175649000Y-114729500D02*
X175649000Y-113404500D01*
G75*
G02*
X175724000Y-113329500I75000J0D01*
G01*
X175874000Y-113329500D01*
G75*
G02*
X175949000Y-113404500I0J-75000D01*
G01*
X175949000Y-114729500D01*
G75*
G02*
X175874000Y-114804500I-75000J0D01*
G01*
X175724000Y-114804500D01*
G75*
G02*
X175649000Y-114729500I0J75000D01*
G01*
G37*
G04 #@! TD.AperFunction*
G04 #@! TA.AperFunction,SMDPad,CuDef*
G36*
G01*
X176724000Y-115804500D02*
X176724000Y-115654500D01*
G75*
G02*
X176799000Y-115579500I75000J0D01*
G01*
X178124000Y-115579500D01*
G75*
G02*
X178199000Y-115654500I0J-75000D01*
G01*
X178199000Y-115804500D01*
G75*
G02*
X178124000Y-115879500I-75000J0D01*
G01*
X176799000Y-115879500D01*
G75*
G02*
X176724000Y-115804500I0J75000D01*
G01*
G37*
G04 #@! TD.AperFunction*
G04 #@! TA.AperFunction,SMDPad,CuDef*
G36*
G01*
X176724000Y-116304500D02*
X176724000Y-116154500D01*
G75*
G02*
X176799000Y-116079500I75000J0D01*
G01*
X178124000Y-116079500D01*
G75*
G02*
X178199000Y-116154500I0J-75000D01*
G01*
X178199000Y-116304500D01*
G75*
G02*
X178124000Y-116379500I-75000J0D01*
G01*
X176799000Y-116379500D01*
G75*
G02*
X176724000Y-116304500I0J75000D01*
G01*
G37*
G04 #@! TD.AperFunction*
G04 #@! TA.AperFunction,SMDPad,CuDef*
G36*
G01*
X176724000Y-116804500D02*
X176724000Y-116654500D01*
G75*
G02*
X176799000Y-116579500I75000J0D01*
G01*
X178124000Y-116579500D01*
G75*
G02*
X178199000Y-116654500I0J-75000D01*
G01*
X178199000Y-116804500D01*
G75*
G02*
X178124000Y-116879500I-75000J0D01*
G01*
X176799000Y-116879500D01*
G75*
G02*
X176724000Y-116804500I0J75000D01*
G01*
G37*
G04 #@! TD.AperFunction*
G04 #@! TA.AperFunction,SMDPad,CuDef*
G36*
G01*
X176724000Y-117304500D02*
X176724000Y-117154500D01*
G75*
G02*
X176799000Y-117079500I75000J0D01*
G01*
X178124000Y-117079500D01*
G75*
G02*
X178199000Y-117154500I0J-75000D01*
G01*
X178199000Y-117304500D01*
G75*
G02*
X178124000Y-117379500I-75000J0D01*
G01*
X176799000Y-117379500D01*
G75*
G02*
X176724000Y-117304500I0J75000D01*
G01*
G37*
G04 #@! TD.AperFunction*
G04 #@! TA.AperFunction,SMDPad,CuDef*
G36*
G01*
X176724000Y-117804500D02*
X176724000Y-117654500D01*
G75*
G02*
X176799000Y-117579500I75000J0D01*
G01*
X178124000Y-117579500D01*
G75*
G02*
X178199000Y-117654500I0J-75000D01*
G01*
X178199000Y-117804500D01*
G75*
G02*
X178124000Y-117879500I-75000J0D01*
G01*
X176799000Y-117879500D01*
G75*
G02*
X176724000Y-117804500I0J75000D01*
G01*
G37*
G04 #@! TD.AperFunction*
G04 #@! TA.AperFunction,SMDPad,CuDef*
G36*
G01*
X176724000Y-118304500D02*
X176724000Y-118154500D01*
G75*
G02*
X176799000Y-118079500I75000J0D01*
G01*
X178124000Y-118079500D01*
G75*
G02*
X178199000Y-118154500I0J-75000D01*
G01*
X178199000Y-118304500D01*
G75*
G02*
X178124000Y-118379500I-75000J0D01*
G01*
X176799000Y-118379500D01*
G75*
G02*
X176724000Y-118304500I0J75000D01*
G01*
G37*
G04 #@! TD.AperFunction*
G04 #@! TA.AperFunction,SMDPad,CuDef*
G36*
G01*
X176724000Y-118804500D02*
X176724000Y-118654500D01*
G75*
G02*
X176799000Y-118579500I75000J0D01*
G01*
X178124000Y-118579500D01*
G75*
G02*
X178199000Y-118654500I0J-75000D01*
G01*
X178199000Y-118804500D01*
G75*
G02*
X178124000Y-118879500I-75000J0D01*
G01*
X176799000Y-118879500D01*
G75*
G02*
X176724000Y-118804500I0J75000D01*
G01*
G37*
G04 #@! TD.AperFunction*
G04 #@! TA.AperFunction,SMDPad,CuDef*
G36*
G01*
X176724000Y-119304500D02*
X176724000Y-119154500D01*
G75*
G02*
X176799000Y-119079500I75000J0D01*
G01*
X178124000Y-119079500D01*
G75*
G02*
X178199000Y-119154500I0J-75000D01*
G01*
X178199000Y-119304500D01*
G75*
G02*
X178124000Y-119379500I-75000J0D01*
G01*
X176799000Y-119379500D01*
G75*
G02*
X176724000Y-119304500I0J75000D01*
G01*
G37*
G04 #@! TD.AperFunction*
G04 #@! TA.AperFunction,SMDPad,CuDef*
G36*
G01*
X176724000Y-119804500D02*
X176724000Y-119654500D01*
G75*
G02*
X176799000Y-119579500I75000J0D01*
G01*
X178124000Y-119579500D01*
G75*
G02*
X178199000Y-119654500I0J-75000D01*
G01*
X178199000Y-119804500D01*
G75*
G02*
X178124000Y-119879500I-75000J0D01*
G01*
X176799000Y-119879500D01*
G75*
G02*
X176724000Y-119804500I0J75000D01*
G01*
G37*
G04 #@! TD.AperFunction*
G04 #@! TA.AperFunction,SMDPad,CuDef*
G36*
G01*
X176724000Y-120304500D02*
X176724000Y-120154500D01*
G75*
G02*
X176799000Y-120079500I75000J0D01*
G01*
X178124000Y-120079500D01*
G75*
G02*
X178199000Y-120154500I0J-75000D01*
G01*
X178199000Y-120304500D01*
G75*
G02*
X178124000Y-120379500I-75000J0D01*
G01*
X176799000Y-120379500D01*
G75*
G02*
X176724000Y-120304500I0J75000D01*
G01*
G37*
G04 #@! TD.AperFunction*
G04 #@! TA.AperFunction,SMDPad,CuDef*
G36*
G01*
X176724000Y-120804500D02*
X176724000Y-120654500D01*
G75*
G02*
X176799000Y-120579500I75000J0D01*
G01*
X178124000Y-120579500D01*
G75*
G02*
X178199000Y-120654500I0J-75000D01*
G01*
X178199000Y-120804500D01*
G75*
G02*
X178124000Y-120879500I-75000J0D01*
G01*
X176799000Y-120879500D01*
G75*
G02*
X176724000Y-120804500I0J75000D01*
G01*
G37*
G04 #@! TD.AperFunction*
G04 #@! TA.AperFunction,SMDPad,CuDef*
G36*
G01*
X176724000Y-121304500D02*
X176724000Y-121154500D01*
G75*
G02*
X176799000Y-121079500I75000J0D01*
G01*
X178124000Y-121079500D01*
G75*
G02*
X178199000Y-121154500I0J-75000D01*
G01*
X178199000Y-121304500D01*
G75*
G02*
X178124000Y-121379500I-75000J0D01*
G01*
X176799000Y-121379500D01*
G75*
G02*
X176724000Y-121304500I0J75000D01*
G01*
G37*
G04 #@! TD.AperFunction*
G04 #@! TA.AperFunction,SMDPad,CuDef*
G36*
G01*
X176724000Y-121804500D02*
X176724000Y-121654500D01*
G75*
G02*
X176799000Y-121579500I75000J0D01*
G01*
X178124000Y-121579500D01*
G75*
G02*
X178199000Y-121654500I0J-75000D01*
G01*
X178199000Y-121804500D01*
G75*
G02*
X178124000Y-121879500I-75000J0D01*
G01*
X176799000Y-121879500D01*
G75*
G02*
X176724000Y-121804500I0J75000D01*
G01*
G37*
G04 #@! TD.AperFunction*
G04 #@! TA.AperFunction,SMDPad,CuDef*
G36*
G01*
X176724000Y-122304500D02*
X176724000Y-122154500D01*
G75*
G02*
X176799000Y-122079500I75000J0D01*
G01*
X178124000Y-122079500D01*
G75*
G02*
X178199000Y-122154500I0J-75000D01*
G01*
X178199000Y-122304500D01*
G75*
G02*
X178124000Y-122379500I-75000J0D01*
G01*
X176799000Y-122379500D01*
G75*
G02*
X176724000Y-122304500I0J75000D01*
G01*
G37*
G04 #@! TD.AperFunction*
G04 #@! TA.AperFunction,SMDPad,CuDef*
G36*
G01*
X176724000Y-122804500D02*
X176724000Y-122654500D01*
G75*
G02*
X176799000Y-122579500I75000J0D01*
G01*
X178124000Y-122579500D01*
G75*
G02*
X178199000Y-122654500I0J-75000D01*
G01*
X178199000Y-122804500D01*
G75*
G02*
X178124000Y-122879500I-75000J0D01*
G01*
X176799000Y-122879500D01*
G75*
G02*
X176724000Y-122804500I0J75000D01*
G01*
G37*
G04 #@! TD.AperFunction*
G04 #@! TA.AperFunction,SMDPad,CuDef*
G36*
G01*
X176724000Y-123304500D02*
X176724000Y-123154500D01*
G75*
G02*
X176799000Y-123079500I75000J0D01*
G01*
X178124000Y-123079500D01*
G75*
G02*
X178199000Y-123154500I0J-75000D01*
G01*
X178199000Y-123304500D01*
G75*
G02*
X178124000Y-123379500I-75000J0D01*
G01*
X176799000Y-123379500D01*
G75*
G02*
X176724000Y-123304500I0J75000D01*
G01*
G37*
G04 #@! TD.AperFunction*
G04 #@! TA.AperFunction,SMDPad,CuDef*
G36*
G01*
X176724000Y-123804500D02*
X176724000Y-123654500D01*
G75*
G02*
X176799000Y-123579500I75000J0D01*
G01*
X178124000Y-123579500D01*
G75*
G02*
X178199000Y-123654500I0J-75000D01*
G01*
X178199000Y-123804500D01*
G75*
G02*
X178124000Y-123879500I-75000J0D01*
G01*
X176799000Y-123879500D01*
G75*
G02*
X176724000Y-123804500I0J75000D01*
G01*
G37*
G04 #@! TD.AperFunction*
G04 #@! TA.AperFunction,SMDPad,CuDef*
G36*
G01*
X176724000Y-124304500D02*
X176724000Y-124154500D01*
G75*
G02*
X176799000Y-124079500I75000J0D01*
G01*
X178124000Y-124079500D01*
G75*
G02*
X178199000Y-124154500I0J-75000D01*
G01*
X178199000Y-124304500D01*
G75*
G02*
X178124000Y-124379500I-75000J0D01*
G01*
X176799000Y-124379500D01*
G75*
G02*
X176724000Y-124304500I0J75000D01*
G01*
G37*
G04 #@! TD.AperFunction*
G04 #@! TA.AperFunction,SMDPad,CuDef*
G36*
G01*
X176724000Y-124804500D02*
X176724000Y-124654500D01*
G75*
G02*
X176799000Y-124579500I75000J0D01*
G01*
X178124000Y-124579500D01*
G75*
G02*
X178199000Y-124654500I0J-75000D01*
G01*
X178199000Y-124804500D01*
G75*
G02*
X178124000Y-124879500I-75000J0D01*
G01*
X176799000Y-124879500D01*
G75*
G02*
X176724000Y-124804500I0J75000D01*
G01*
G37*
G04 #@! TD.AperFunction*
G04 #@! TA.AperFunction,SMDPad,CuDef*
G36*
G01*
X176724000Y-125304500D02*
X176724000Y-125154500D01*
G75*
G02*
X176799000Y-125079500I75000J0D01*
G01*
X178124000Y-125079500D01*
G75*
G02*
X178199000Y-125154500I0J-75000D01*
G01*
X178199000Y-125304500D01*
G75*
G02*
X178124000Y-125379500I-75000J0D01*
G01*
X176799000Y-125379500D01*
G75*
G02*
X176724000Y-125304500I0J75000D01*
G01*
G37*
G04 #@! TD.AperFunction*
G04 #@! TA.AperFunction,SMDPad,CuDef*
G36*
G01*
X176724000Y-125804500D02*
X176724000Y-125654500D01*
G75*
G02*
X176799000Y-125579500I75000J0D01*
G01*
X178124000Y-125579500D01*
G75*
G02*
X178199000Y-125654500I0J-75000D01*
G01*
X178199000Y-125804500D01*
G75*
G02*
X178124000Y-125879500I-75000J0D01*
G01*
X176799000Y-125879500D01*
G75*
G02*
X176724000Y-125804500I0J75000D01*
G01*
G37*
G04 #@! TD.AperFunction*
G04 #@! TA.AperFunction,SMDPad,CuDef*
G36*
G01*
X176724000Y-126304500D02*
X176724000Y-126154500D01*
G75*
G02*
X176799000Y-126079500I75000J0D01*
G01*
X178124000Y-126079500D01*
G75*
G02*
X178199000Y-126154500I0J-75000D01*
G01*
X178199000Y-126304500D01*
G75*
G02*
X178124000Y-126379500I-75000J0D01*
G01*
X176799000Y-126379500D01*
G75*
G02*
X176724000Y-126304500I0J75000D01*
G01*
G37*
G04 #@! TD.AperFunction*
G04 #@! TA.AperFunction,SMDPad,CuDef*
G36*
G01*
X176724000Y-126804500D02*
X176724000Y-126654500D01*
G75*
G02*
X176799000Y-126579500I75000J0D01*
G01*
X178124000Y-126579500D01*
G75*
G02*
X178199000Y-126654500I0J-75000D01*
G01*
X178199000Y-126804500D01*
G75*
G02*
X178124000Y-126879500I-75000J0D01*
G01*
X176799000Y-126879500D01*
G75*
G02*
X176724000Y-126804500I0J75000D01*
G01*
G37*
G04 #@! TD.AperFunction*
G04 #@! TA.AperFunction,SMDPad,CuDef*
G36*
G01*
X176724000Y-127304500D02*
X176724000Y-127154500D01*
G75*
G02*
X176799000Y-127079500I75000J0D01*
G01*
X178124000Y-127079500D01*
G75*
G02*
X178199000Y-127154500I0J-75000D01*
G01*
X178199000Y-127304500D01*
G75*
G02*
X178124000Y-127379500I-75000J0D01*
G01*
X176799000Y-127379500D01*
G75*
G02*
X176724000Y-127304500I0J75000D01*
G01*
G37*
G04 #@! TD.AperFunction*
G04 #@! TA.AperFunction,SMDPad,CuDef*
G36*
G01*
X176724000Y-127804500D02*
X176724000Y-127654500D01*
G75*
G02*
X176799000Y-127579500I75000J0D01*
G01*
X178124000Y-127579500D01*
G75*
G02*
X178199000Y-127654500I0J-75000D01*
G01*
X178199000Y-127804500D01*
G75*
G02*
X178124000Y-127879500I-75000J0D01*
G01*
X176799000Y-127879500D01*
G75*
G02*
X176724000Y-127804500I0J75000D01*
G01*
G37*
G04 #@! TD.AperFunction*
G04 #@! TA.AperFunction,SMDPad,CuDef*
G36*
G01*
X175649000Y-130054500D02*
X175649000Y-128729500D01*
G75*
G02*
X175724000Y-128654500I75000J0D01*
G01*
X175874000Y-128654500D01*
G75*
G02*
X175949000Y-128729500I0J-75000D01*
G01*
X175949000Y-130054500D01*
G75*
G02*
X175874000Y-130129500I-75000J0D01*
G01*
X175724000Y-130129500D01*
G75*
G02*
X175649000Y-130054500I0J75000D01*
G01*
G37*
G04 #@! TD.AperFunction*
G04 #@! TA.AperFunction,SMDPad,CuDef*
G36*
G01*
X175149000Y-130054500D02*
X175149000Y-128729500D01*
G75*
G02*
X175224000Y-128654500I75000J0D01*
G01*
X175374000Y-128654500D01*
G75*
G02*
X175449000Y-128729500I0J-75000D01*
G01*
X175449000Y-130054500D01*
G75*
G02*
X175374000Y-130129500I-75000J0D01*
G01*
X175224000Y-130129500D01*
G75*
G02*
X175149000Y-130054500I0J75000D01*
G01*
G37*
G04 #@! TD.AperFunction*
G04 #@! TA.AperFunction,SMDPad,CuDef*
G36*
G01*
X174649000Y-130054500D02*
X174649000Y-128729500D01*
G75*
G02*
X174724000Y-128654500I75000J0D01*
G01*
X174874000Y-128654500D01*
G75*
G02*
X174949000Y-128729500I0J-75000D01*
G01*
X174949000Y-130054500D01*
G75*
G02*
X174874000Y-130129500I-75000J0D01*
G01*
X174724000Y-130129500D01*
G75*
G02*
X174649000Y-130054500I0J75000D01*
G01*
G37*
G04 #@! TD.AperFunction*
G04 #@! TA.AperFunction,SMDPad,CuDef*
G36*
G01*
X174149000Y-130054500D02*
X174149000Y-128729500D01*
G75*
G02*
X174224000Y-128654500I75000J0D01*
G01*
X174374000Y-128654500D01*
G75*
G02*
X174449000Y-128729500I0J-75000D01*
G01*
X174449000Y-130054500D01*
G75*
G02*
X174374000Y-130129500I-75000J0D01*
G01*
X174224000Y-130129500D01*
G75*
G02*
X174149000Y-130054500I0J75000D01*
G01*
G37*
G04 #@! TD.AperFunction*
G04 #@! TA.AperFunction,SMDPad,CuDef*
G36*
G01*
X173649000Y-130054500D02*
X173649000Y-128729500D01*
G75*
G02*
X173724000Y-128654500I75000J0D01*
G01*
X173874000Y-128654500D01*
G75*
G02*
X173949000Y-128729500I0J-75000D01*
G01*
X173949000Y-130054500D01*
G75*
G02*
X173874000Y-130129500I-75000J0D01*
G01*
X173724000Y-130129500D01*
G75*
G02*
X173649000Y-130054500I0J75000D01*
G01*
G37*
G04 #@! TD.AperFunction*
G04 #@! TA.AperFunction,SMDPad,CuDef*
G36*
G01*
X173149000Y-130054500D02*
X173149000Y-128729500D01*
G75*
G02*
X173224000Y-128654500I75000J0D01*
G01*
X173374000Y-128654500D01*
G75*
G02*
X173449000Y-128729500I0J-75000D01*
G01*
X173449000Y-130054500D01*
G75*
G02*
X173374000Y-130129500I-75000J0D01*
G01*
X173224000Y-130129500D01*
G75*
G02*
X173149000Y-130054500I0J75000D01*
G01*
G37*
G04 #@! TD.AperFunction*
G04 #@! TA.AperFunction,SMDPad,CuDef*
G36*
G01*
X172649000Y-130054500D02*
X172649000Y-128729500D01*
G75*
G02*
X172724000Y-128654500I75000J0D01*
G01*
X172874000Y-128654500D01*
G75*
G02*
X172949000Y-128729500I0J-75000D01*
G01*
X172949000Y-130054500D01*
G75*
G02*
X172874000Y-130129500I-75000J0D01*
G01*
X172724000Y-130129500D01*
G75*
G02*
X172649000Y-130054500I0J75000D01*
G01*
G37*
G04 #@! TD.AperFunction*
G04 #@! TA.AperFunction,SMDPad,CuDef*
G36*
G01*
X172149000Y-130054500D02*
X172149000Y-128729500D01*
G75*
G02*
X172224000Y-128654500I75000J0D01*
G01*
X172374000Y-128654500D01*
G75*
G02*
X172449000Y-128729500I0J-75000D01*
G01*
X172449000Y-130054500D01*
G75*
G02*
X172374000Y-130129500I-75000J0D01*
G01*
X172224000Y-130129500D01*
G75*
G02*
X172149000Y-130054500I0J75000D01*
G01*
G37*
G04 #@! TD.AperFunction*
G04 #@! TA.AperFunction,SMDPad,CuDef*
G36*
G01*
X171649000Y-130054500D02*
X171649000Y-128729500D01*
G75*
G02*
X171724000Y-128654500I75000J0D01*
G01*
X171874000Y-128654500D01*
G75*
G02*
X171949000Y-128729500I0J-75000D01*
G01*
X171949000Y-130054500D01*
G75*
G02*
X171874000Y-130129500I-75000J0D01*
G01*
X171724000Y-130129500D01*
G75*
G02*
X171649000Y-130054500I0J75000D01*
G01*
G37*
G04 #@! TD.AperFunction*
G04 #@! TA.AperFunction,SMDPad,CuDef*
G36*
G01*
X171149000Y-130054500D02*
X171149000Y-128729500D01*
G75*
G02*
X171224000Y-128654500I75000J0D01*
G01*
X171374000Y-128654500D01*
G75*
G02*
X171449000Y-128729500I0J-75000D01*
G01*
X171449000Y-130054500D01*
G75*
G02*
X171374000Y-130129500I-75000J0D01*
G01*
X171224000Y-130129500D01*
G75*
G02*
X171149000Y-130054500I0J75000D01*
G01*
G37*
G04 #@! TD.AperFunction*
G04 #@! TA.AperFunction,SMDPad,CuDef*
G36*
G01*
X170649000Y-130054500D02*
X170649000Y-128729500D01*
G75*
G02*
X170724000Y-128654500I75000J0D01*
G01*
X170874000Y-128654500D01*
G75*
G02*
X170949000Y-128729500I0J-75000D01*
G01*
X170949000Y-130054500D01*
G75*
G02*
X170874000Y-130129500I-75000J0D01*
G01*
X170724000Y-130129500D01*
G75*
G02*
X170649000Y-130054500I0J75000D01*
G01*
G37*
G04 #@! TD.AperFunction*
G04 #@! TA.AperFunction,SMDPad,CuDef*
G36*
G01*
X170149000Y-130054500D02*
X170149000Y-128729500D01*
G75*
G02*
X170224000Y-128654500I75000J0D01*
G01*
X170374000Y-128654500D01*
G75*
G02*
X170449000Y-128729500I0J-75000D01*
G01*
X170449000Y-130054500D01*
G75*
G02*
X170374000Y-130129500I-75000J0D01*
G01*
X170224000Y-130129500D01*
G75*
G02*
X170149000Y-130054500I0J75000D01*
G01*
G37*
G04 #@! TD.AperFunction*
G04 #@! TA.AperFunction,SMDPad,CuDef*
G36*
G01*
X169649000Y-130054500D02*
X169649000Y-128729500D01*
G75*
G02*
X169724000Y-128654500I75000J0D01*
G01*
X169874000Y-128654500D01*
G75*
G02*
X169949000Y-128729500I0J-75000D01*
G01*
X169949000Y-130054500D01*
G75*
G02*
X169874000Y-130129500I-75000J0D01*
G01*
X169724000Y-130129500D01*
G75*
G02*
X169649000Y-130054500I0J75000D01*
G01*
G37*
G04 #@! TD.AperFunction*
G04 #@! TA.AperFunction,SMDPad,CuDef*
G36*
G01*
X169149000Y-130054500D02*
X169149000Y-128729500D01*
G75*
G02*
X169224000Y-128654500I75000J0D01*
G01*
X169374000Y-128654500D01*
G75*
G02*
X169449000Y-128729500I0J-75000D01*
G01*
X169449000Y-130054500D01*
G75*
G02*
X169374000Y-130129500I-75000J0D01*
G01*
X169224000Y-130129500D01*
G75*
G02*
X169149000Y-130054500I0J75000D01*
G01*
G37*
G04 #@! TD.AperFunction*
G04 #@! TA.AperFunction,SMDPad,CuDef*
G36*
G01*
X168649000Y-130054500D02*
X168649000Y-128729500D01*
G75*
G02*
X168724000Y-128654500I75000J0D01*
G01*
X168874000Y-128654500D01*
G75*
G02*
X168949000Y-128729500I0J-75000D01*
G01*
X168949000Y-130054500D01*
G75*
G02*
X168874000Y-130129500I-75000J0D01*
G01*
X168724000Y-130129500D01*
G75*
G02*
X168649000Y-130054500I0J75000D01*
G01*
G37*
G04 #@! TD.AperFunction*
G04 #@! TA.AperFunction,SMDPad,CuDef*
G36*
G01*
X168149000Y-130054500D02*
X168149000Y-128729500D01*
G75*
G02*
X168224000Y-128654500I75000J0D01*
G01*
X168374000Y-128654500D01*
G75*
G02*
X168449000Y-128729500I0J-75000D01*
G01*
X168449000Y-130054500D01*
G75*
G02*
X168374000Y-130129500I-75000J0D01*
G01*
X168224000Y-130129500D01*
G75*
G02*
X168149000Y-130054500I0J75000D01*
G01*
G37*
G04 #@! TD.AperFunction*
G04 #@! TA.AperFunction,SMDPad,CuDef*
G36*
G01*
X167649000Y-130054500D02*
X167649000Y-128729500D01*
G75*
G02*
X167724000Y-128654500I75000J0D01*
G01*
X167874000Y-128654500D01*
G75*
G02*
X167949000Y-128729500I0J-75000D01*
G01*
X167949000Y-130054500D01*
G75*
G02*
X167874000Y-130129500I-75000J0D01*
G01*
X167724000Y-130129500D01*
G75*
G02*
X167649000Y-130054500I0J75000D01*
G01*
G37*
G04 #@! TD.AperFunction*
G04 #@! TA.AperFunction,SMDPad,CuDef*
G36*
G01*
X167149000Y-130054500D02*
X167149000Y-128729500D01*
G75*
G02*
X167224000Y-128654500I75000J0D01*
G01*
X167374000Y-128654500D01*
G75*
G02*
X167449000Y-128729500I0J-75000D01*
G01*
X167449000Y-130054500D01*
G75*
G02*
X167374000Y-130129500I-75000J0D01*
G01*
X167224000Y-130129500D01*
G75*
G02*
X167149000Y-130054500I0J75000D01*
G01*
G37*
G04 #@! TD.AperFunction*
G04 #@! TA.AperFunction,SMDPad,CuDef*
G36*
G01*
X166649000Y-130054500D02*
X166649000Y-128729500D01*
G75*
G02*
X166724000Y-128654500I75000J0D01*
G01*
X166874000Y-128654500D01*
G75*
G02*
X166949000Y-128729500I0J-75000D01*
G01*
X166949000Y-130054500D01*
G75*
G02*
X166874000Y-130129500I-75000J0D01*
G01*
X166724000Y-130129500D01*
G75*
G02*
X166649000Y-130054500I0J75000D01*
G01*
G37*
G04 #@! TD.AperFunction*
G04 #@! TA.AperFunction,SMDPad,CuDef*
G36*
G01*
X166149000Y-130054500D02*
X166149000Y-128729500D01*
G75*
G02*
X166224000Y-128654500I75000J0D01*
G01*
X166374000Y-128654500D01*
G75*
G02*
X166449000Y-128729500I0J-75000D01*
G01*
X166449000Y-130054500D01*
G75*
G02*
X166374000Y-130129500I-75000J0D01*
G01*
X166224000Y-130129500D01*
G75*
G02*
X166149000Y-130054500I0J75000D01*
G01*
G37*
G04 #@! TD.AperFunction*
G04 #@! TA.AperFunction,SMDPad,CuDef*
G36*
G01*
X165649000Y-130054500D02*
X165649000Y-128729500D01*
G75*
G02*
X165724000Y-128654500I75000J0D01*
G01*
X165874000Y-128654500D01*
G75*
G02*
X165949000Y-128729500I0J-75000D01*
G01*
X165949000Y-130054500D01*
G75*
G02*
X165874000Y-130129500I-75000J0D01*
G01*
X165724000Y-130129500D01*
G75*
G02*
X165649000Y-130054500I0J75000D01*
G01*
G37*
G04 #@! TD.AperFunction*
G04 #@! TA.AperFunction,SMDPad,CuDef*
G36*
G01*
X165149000Y-130054500D02*
X165149000Y-128729500D01*
G75*
G02*
X165224000Y-128654500I75000J0D01*
G01*
X165374000Y-128654500D01*
G75*
G02*
X165449000Y-128729500I0J-75000D01*
G01*
X165449000Y-130054500D01*
G75*
G02*
X165374000Y-130129500I-75000J0D01*
G01*
X165224000Y-130129500D01*
G75*
G02*
X165149000Y-130054500I0J75000D01*
G01*
G37*
G04 #@! TD.AperFunction*
G04 #@! TA.AperFunction,SMDPad,CuDef*
G36*
G01*
X164649000Y-130054500D02*
X164649000Y-128729500D01*
G75*
G02*
X164724000Y-128654500I75000J0D01*
G01*
X164874000Y-128654500D01*
G75*
G02*
X164949000Y-128729500I0J-75000D01*
G01*
X164949000Y-130054500D01*
G75*
G02*
X164874000Y-130129500I-75000J0D01*
G01*
X164724000Y-130129500D01*
G75*
G02*
X164649000Y-130054500I0J75000D01*
G01*
G37*
G04 #@! TD.AperFunction*
G04 #@! TA.AperFunction,SMDPad,CuDef*
G36*
G01*
X164149000Y-130054500D02*
X164149000Y-128729500D01*
G75*
G02*
X164224000Y-128654500I75000J0D01*
G01*
X164374000Y-128654500D01*
G75*
G02*
X164449000Y-128729500I0J-75000D01*
G01*
X164449000Y-130054500D01*
G75*
G02*
X164374000Y-130129500I-75000J0D01*
G01*
X164224000Y-130129500D01*
G75*
G02*
X164149000Y-130054500I0J75000D01*
G01*
G37*
G04 #@! TD.AperFunction*
G04 #@! TA.AperFunction,SMDPad,CuDef*
G36*
G01*
X163649000Y-130054500D02*
X163649000Y-128729500D01*
G75*
G02*
X163724000Y-128654500I75000J0D01*
G01*
X163874000Y-128654500D01*
G75*
G02*
X163949000Y-128729500I0J-75000D01*
G01*
X163949000Y-130054500D01*
G75*
G02*
X163874000Y-130129500I-75000J0D01*
G01*
X163724000Y-130129500D01*
G75*
G02*
X163649000Y-130054500I0J75000D01*
G01*
G37*
G04 #@! TD.AperFunction*
G04 #@! TA.AperFunction,SMDPad,CuDef*
G36*
G01*
X161399000Y-127804500D02*
X161399000Y-127654500D01*
G75*
G02*
X161474000Y-127579500I75000J0D01*
G01*
X162799000Y-127579500D01*
G75*
G02*
X162874000Y-127654500I0J-75000D01*
G01*
X162874000Y-127804500D01*
G75*
G02*
X162799000Y-127879500I-75000J0D01*
G01*
X161474000Y-127879500D01*
G75*
G02*
X161399000Y-127804500I0J75000D01*
G01*
G37*
G04 #@! TD.AperFunction*
G04 #@! TA.AperFunction,SMDPad,CuDef*
G36*
G01*
X161399000Y-127304500D02*
X161399000Y-127154500D01*
G75*
G02*
X161474000Y-127079500I75000J0D01*
G01*
X162799000Y-127079500D01*
G75*
G02*
X162874000Y-127154500I0J-75000D01*
G01*
X162874000Y-127304500D01*
G75*
G02*
X162799000Y-127379500I-75000J0D01*
G01*
X161474000Y-127379500D01*
G75*
G02*
X161399000Y-127304500I0J75000D01*
G01*
G37*
G04 #@! TD.AperFunction*
G04 #@! TA.AperFunction,SMDPad,CuDef*
G36*
G01*
X161399000Y-126804500D02*
X161399000Y-126654500D01*
G75*
G02*
X161474000Y-126579500I75000J0D01*
G01*
X162799000Y-126579500D01*
G75*
G02*
X162874000Y-126654500I0J-75000D01*
G01*
X162874000Y-126804500D01*
G75*
G02*
X162799000Y-126879500I-75000J0D01*
G01*
X161474000Y-126879500D01*
G75*
G02*
X161399000Y-126804500I0J75000D01*
G01*
G37*
G04 #@! TD.AperFunction*
G04 #@! TA.AperFunction,SMDPad,CuDef*
G36*
G01*
X161399000Y-126304500D02*
X161399000Y-126154500D01*
G75*
G02*
X161474000Y-126079500I75000J0D01*
G01*
X162799000Y-126079500D01*
G75*
G02*
X162874000Y-126154500I0J-75000D01*
G01*
X162874000Y-126304500D01*
G75*
G02*
X162799000Y-126379500I-75000J0D01*
G01*
X161474000Y-126379500D01*
G75*
G02*
X161399000Y-126304500I0J75000D01*
G01*
G37*
G04 #@! TD.AperFunction*
G04 #@! TA.AperFunction,SMDPad,CuDef*
G36*
G01*
X161399000Y-125804500D02*
X161399000Y-125654500D01*
G75*
G02*
X161474000Y-125579500I75000J0D01*
G01*
X162799000Y-125579500D01*
G75*
G02*
X162874000Y-125654500I0J-75000D01*
G01*
X162874000Y-125804500D01*
G75*
G02*
X162799000Y-125879500I-75000J0D01*
G01*
X161474000Y-125879500D01*
G75*
G02*
X161399000Y-125804500I0J75000D01*
G01*
G37*
G04 #@! TD.AperFunction*
G04 #@! TA.AperFunction,SMDPad,CuDef*
G36*
G01*
X161399000Y-125304500D02*
X161399000Y-125154500D01*
G75*
G02*
X161474000Y-125079500I75000J0D01*
G01*
X162799000Y-125079500D01*
G75*
G02*
X162874000Y-125154500I0J-75000D01*
G01*
X162874000Y-125304500D01*
G75*
G02*
X162799000Y-125379500I-75000J0D01*
G01*
X161474000Y-125379500D01*
G75*
G02*
X161399000Y-125304500I0J75000D01*
G01*
G37*
G04 #@! TD.AperFunction*
G04 #@! TA.AperFunction,SMDPad,CuDef*
G36*
G01*
X161399000Y-124804500D02*
X161399000Y-124654500D01*
G75*
G02*
X161474000Y-124579500I75000J0D01*
G01*
X162799000Y-124579500D01*
G75*
G02*
X162874000Y-124654500I0J-75000D01*
G01*
X162874000Y-124804500D01*
G75*
G02*
X162799000Y-124879500I-75000J0D01*
G01*
X161474000Y-124879500D01*
G75*
G02*
X161399000Y-124804500I0J75000D01*
G01*
G37*
G04 #@! TD.AperFunction*
G04 #@! TA.AperFunction,SMDPad,CuDef*
G36*
G01*
X161399000Y-124304500D02*
X161399000Y-124154500D01*
G75*
G02*
X161474000Y-124079500I75000J0D01*
G01*
X162799000Y-124079500D01*
G75*
G02*
X162874000Y-124154500I0J-75000D01*
G01*
X162874000Y-124304500D01*
G75*
G02*
X162799000Y-124379500I-75000J0D01*
G01*
X161474000Y-124379500D01*
G75*
G02*
X161399000Y-124304500I0J75000D01*
G01*
G37*
G04 #@! TD.AperFunction*
G04 #@! TA.AperFunction,SMDPad,CuDef*
G36*
G01*
X161399000Y-123804500D02*
X161399000Y-123654500D01*
G75*
G02*
X161474000Y-123579500I75000J0D01*
G01*
X162799000Y-123579500D01*
G75*
G02*
X162874000Y-123654500I0J-75000D01*
G01*
X162874000Y-123804500D01*
G75*
G02*
X162799000Y-123879500I-75000J0D01*
G01*
X161474000Y-123879500D01*
G75*
G02*
X161399000Y-123804500I0J75000D01*
G01*
G37*
G04 #@! TD.AperFunction*
G04 #@! TA.AperFunction,SMDPad,CuDef*
G36*
G01*
X161399000Y-123304500D02*
X161399000Y-123154500D01*
G75*
G02*
X161474000Y-123079500I75000J0D01*
G01*
X162799000Y-123079500D01*
G75*
G02*
X162874000Y-123154500I0J-75000D01*
G01*
X162874000Y-123304500D01*
G75*
G02*
X162799000Y-123379500I-75000J0D01*
G01*
X161474000Y-123379500D01*
G75*
G02*
X161399000Y-123304500I0J75000D01*
G01*
G37*
G04 #@! TD.AperFunction*
G04 #@! TA.AperFunction,SMDPad,CuDef*
G36*
G01*
X161399000Y-122804500D02*
X161399000Y-122654500D01*
G75*
G02*
X161474000Y-122579500I75000J0D01*
G01*
X162799000Y-122579500D01*
G75*
G02*
X162874000Y-122654500I0J-75000D01*
G01*
X162874000Y-122804500D01*
G75*
G02*
X162799000Y-122879500I-75000J0D01*
G01*
X161474000Y-122879500D01*
G75*
G02*
X161399000Y-122804500I0J75000D01*
G01*
G37*
G04 #@! TD.AperFunction*
G04 #@! TA.AperFunction,SMDPad,CuDef*
G36*
G01*
X161399000Y-122304500D02*
X161399000Y-122154500D01*
G75*
G02*
X161474000Y-122079500I75000J0D01*
G01*
X162799000Y-122079500D01*
G75*
G02*
X162874000Y-122154500I0J-75000D01*
G01*
X162874000Y-122304500D01*
G75*
G02*
X162799000Y-122379500I-75000J0D01*
G01*
X161474000Y-122379500D01*
G75*
G02*
X161399000Y-122304500I0J75000D01*
G01*
G37*
G04 #@! TD.AperFunction*
G04 #@! TA.AperFunction,SMDPad,CuDef*
G36*
G01*
X161399000Y-121804500D02*
X161399000Y-121654500D01*
G75*
G02*
X161474000Y-121579500I75000J0D01*
G01*
X162799000Y-121579500D01*
G75*
G02*
X162874000Y-121654500I0J-75000D01*
G01*
X162874000Y-121804500D01*
G75*
G02*
X162799000Y-121879500I-75000J0D01*
G01*
X161474000Y-121879500D01*
G75*
G02*
X161399000Y-121804500I0J75000D01*
G01*
G37*
G04 #@! TD.AperFunction*
G04 #@! TA.AperFunction,SMDPad,CuDef*
G36*
G01*
X161399000Y-121304500D02*
X161399000Y-121154500D01*
G75*
G02*
X161474000Y-121079500I75000J0D01*
G01*
X162799000Y-121079500D01*
G75*
G02*
X162874000Y-121154500I0J-75000D01*
G01*
X162874000Y-121304500D01*
G75*
G02*
X162799000Y-121379500I-75000J0D01*
G01*
X161474000Y-121379500D01*
G75*
G02*
X161399000Y-121304500I0J75000D01*
G01*
G37*
G04 #@! TD.AperFunction*
G04 #@! TA.AperFunction,SMDPad,CuDef*
G36*
G01*
X161399000Y-120804500D02*
X161399000Y-120654500D01*
G75*
G02*
X161474000Y-120579500I75000J0D01*
G01*
X162799000Y-120579500D01*
G75*
G02*
X162874000Y-120654500I0J-75000D01*
G01*
X162874000Y-120804500D01*
G75*
G02*
X162799000Y-120879500I-75000J0D01*
G01*
X161474000Y-120879500D01*
G75*
G02*
X161399000Y-120804500I0J75000D01*
G01*
G37*
G04 #@! TD.AperFunction*
G04 #@! TA.AperFunction,SMDPad,CuDef*
G36*
G01*
X161399000Y-120304500D02*
X161399000Y-120154500D01*
G75*
G02*
X161474000Y-120079500I75000J0D01*
G01*
X162799000Y-120079500D01*
G75*
G02*
X162874000Y-120154500I0J-75000D01*
G01*
X162874000Y-120304500D01*
G75*
G02*
X162799000Y-120379500I-75000J0D01*
G01*
X161474000Y-120379500D01*
G75*
G02*
X161399000Y-120304500I0J75000D01*
G01*
G37*
G04 #@! TD.AperFunction*
G04 #@! TA.AperFunction,SMDPad,CuDef*
G36*
G01*
X161399000Y-119804500D02*
X161399000Y-119654500D01*
G75*
G02*
X161474000Y-119579500I75000J0D01*
G01*
X162799000Y-119579500D01*
G75*
G02*
X162874000Y-119654500I0J-75000D01*
G01*
X162874000Y-119804500D01*
G75*
G02*
X162799000Y-119879500I-75000J0D01*
G01*
X161474000Y-119879500D01*
G75*
G02*
X161399000Y-119804500I0J75000D01*
G01*
G37*
G04 #@! TD.AperFunction*
G04 #@! TA.AperFunction,SMDPad,CuDef*
G36*
G01*
X161399000Y-119304500D02*
X161399000Y-119154500D01*
G75*
G02*
X161474000Y-119079500I75000J0D01*
G01*
X162799000Y-119079500D01*
G75*
G02*
X162874000Y-119154500I0J-75000D01*
G01*
X162874000Y-119304500D01*
G75*
G02*
X162799000Y-119379500I-75000J0D01*
G01*
X161474000Y-119379500D01*
G75*
G02*
X161399000Y-119304500I0J75000D01*
G01*
G37*
G04 #@! TD.AperFunction*
G04 #@! TA.AperFunction,SMDPad,CuDef*
G36*
G01*
X161399000Y-118804500D02*
X161399000Y-118654500D01*
G75*
G02*
X161474000Y-118579500I75000J0D01*
G01*
X162799000Y-118579500D01*
G75*
G02*
X162874000Y-118654500I0J-75000D01*
G01*
X162874000Y-118804500D01*
G75*
G02*
X162799000Y-118879500I-75000J0D01*
G01*
X161474000Y-118879500D01*
G75*
G02*
X161399000Y-118804500I0J75000D01*
G01*
G37*
G04 #@! TD.AperFunction*
G04 #@! TA.AperFunction,SMDPad,CuDef*
G36*
G01*
X161399000Y-118304500D02*
X161399000Y-118154500D01*
G75*
G02*
X161474000Y-118079500I75000J0D01*
G01*
X162799000Y-118079500D01*
G75*
G02*
X162874000Y-118154500I0J-75000D01*
G01*
X162874000Y-118304500D01*
G75*
G02*
X162799000Y-118379500I-75000J0D01*
G01*
X161474000Y-118379500D01*
G75*
G02*
X161399000Y-118304500I0J75000D01*
G01*
G37*
G04 #@! TD.AperFunction*
G04 #@! TA.AperFunction,SMDPad,CuDef*
G36*
G01*
X161399000Y-117804500D02*
X161399000Y-117654500D01*
G75*
G02*
X161474000Y-117579500I75000J0D01*
G01*
X162799000Y-117579500D01*
G75*
G02*
X162874000Y-117654500I0J-75000D01*
G01*
X162874000Y-117804500D01*
G75*
G02*
X162799000Y-117879500I-75000J0D01*
G01*
X161474000Y-117879500D01*
G75*
G02*
X161399000Y-117804500I0J75000D01*
G01*
G37*
G04 #@! TD.AperFunction*
G04 #@! TA.AperFunction,SMDPad,CuDef*
G36*
G01*
X161399000Y-117304500D02*
X161399000Y-117154500D01*
G75*
G02*
X161474000Y-117079500I75000J0D01*
G01*
X162799000Y-117079500D01*
G75*
G02*
X162874000Y-117154500I0J-75000D01*
G01*
X162874000Y-117304500D01*
G75*
G02*
X162799000Y-117379500I-75000J0D01*
G01*
X161474000Y-117379500D01*
G75*
G02*
X161399000Y-117304500I0J75000D01*
G01*
G37*
G04 #@! TD.AperFunction*
G04 #@! TA.AperFunction,SMDPad,CuDef*
G36*
G01*
X161399000Y-116804500D02*
X161399000Y-116654500D01*
G75*
G02*
X161474000Y-116579500I75000J0D01*
G01*
X162799000Y-116579500D01*
G75*
G02*
X162874000Y-116654500I0J-75000D01*
G01*
X162874000Y-116804500D01*
G75*
G02*
X162799000Y-116879500I-75000J0D01*
G01*
X161474000Y-116879500D01*
G75*
G02*
X161399000Y-116804500I0J75000D01*
G01*
G37*
G04 #@! TD.AperFunction*
G04 #@! TA.AperFunction,SMDPad,CuDef*
G36*
G01*
X161399000Y-116304500D02*
X161399000Y-116154500D01*
G75*
G02*
X161474000Y-116079500I75000J0D01*
G01*
X162799000Y-116079500D01*
G75*
G02*
X162874000Y-116154500I0J-75000D01*
G01*
X162874000Y-116304500D01*
G75*
G02*
X162799000Y-116379500I-75000J0D01*
G01*
X161474000Y-116379500D01*
G75*
G02*
X161399000Y-116304500I0J75000D01*
G01*
G37*
G04 #@! TD.AperFunction*
G04 #@! TA.AperFunction,SMDPad,CuDef*
G36*
G01*
X161399000Y-115804500D02*
X161399000Y-115654500D01*
G75*
G02*
X161474000Y-115579500I75000J0D01*
G01*
X162799000Y-115579500D01*
G75*
G02*
X162874000Y-115654500I0J-75000D01*
G01*
X162874000Y-115804500D01*
G75*
G02*
X162799000Y-115879500I-75000J0D01*
G01*
X161474000Y-115879500D01*
G75*
G02*
X161399000Y-115804500I0J75000D01*
G01*
G37*
G04 #@! TD.AperFunction*
D10*
X182546000Y-70358000D03*
D11*
X177546000Y-70358000D03*
D10*
X182800000Y-57912000D03*
D11*
X177800000Y-57912000D03*
D12*
X171450000Y-57912000D03*
X166450000Y-57912000D03*
X171450000Y-70358000D03*
X166450000Y-70358000D03*
X116078000Y-105266500D03*
X116078000Y-100266500D03*
X106426000Y-105139500D03*
X106426000Y-100139500D03*
D13*
X107696000Y-92750000D03*
D14*
X107696000Y-95250000D03*
D13*
X108204000Y-112482000D03*
D14*
X108204000Y-109982000D03*
D15*
X161290000Y-71374000D03*
X138430000Y-63754000D03*
X158750000Y-71374000D03*
X140970000Y-63754000D03*
X156210000Y-71374000D03*
X143510000Y-63754000D03*
X153670000Y-71374000D03*
X146050000Y-63754000D03*
X151130000Y-71374000D03*
X148590000Y-63754000D03*
X148590000Y-71374000D03*
X151130000Y-63754000D03*
X146050000Y-71374000D03*
X153670000Y-63754000D03*
X143510000Y-71374000D03*
X156210000Y-63754000D03*
X140970000Y-71374000D03*
X158750000Y-63754000D03*
X138430000Y-71374000D03*
D14*
X161290000Y-63754000D03*
D15*
X126492000Y-71374000D03*
X111252000Y-63754000D03*
X123952000Y-71374000D03*
X113792000Y-63754000D03*
X121412000Y-71374000D03*
X116332000Y-63754000D03*
X118872000Y-71374000D03*
X118872000Y-63754000D03*
X116332000Y-71374000D03*
X121412000Y-63754000D03*
X113792000Y-71374000D03*
X123952000Y-63754000D03*
X111252000Y-71374000D03*
D14*
X126492000Y-63754000D03*
D15*
X128270000Y-88773000D03*
X146050000Y-96393000D03*
X130810000Y-88773000D03*
X143510000Y-96393000D03*
X133350000Y-88773000D03*
X140970000Y-96393000D03*
X135890000Y-88773000D03*
X138430000Y-96393000D03*
X138430000Y-88773000D03*
X135890000Y-96393000D03*
X140970000Y-88773000D03*
X133350000Y-96393000D03*
X143510000Y-88773000D03*
X130810000Y-96393000D03*
X146050000Y-88773000D03*
D14*
X128270000Y-96393000D03*
D15*
X128270000Y-102743000D03*
X156210000Y-117983000D03*
X130810000Y-102743000D03*
X153670000Y-117983000D03*
X133350000Y-102743000D03*
X151130000Y-117983000D03*
X135890000Y-102743000D03*
X148590000Y-117983000D03*
X138430000Y-102743000D03*
X146050000Y-117983000D03*
X140970000Y-102743000D03*
X143510000Y-117983000D03*
X143510000Y-102743000D03*
X140970000Y-117983000D03*
X146050000Y-102743000D03*
X138430000Y-117983000D03*
X148590000Y-102743000D03*
X135890000Y-117983000D03*
X151130000Y-102743000D03*
X133350000Y-117983000D03*
X153670000Y-102743000D03*
X130810000Y-117983000D03*
X156210000Y-102743000D03*
D14*
X128270000Y-117983000D03*
G04 #@! TA.AperFunction,SMDPad,CuDef*
G36*
G01*
X133747500Y-128424000D02*
X133747500Y-128624000D01*
G75*
G02*
X133647500Y-128724000I-100000J0D01*
G01*
X132222500Y-128724000D01*
G75*
G02*
X132122500Y-128624000I0J100000D01*
G01*
X132122500Y-128424000D01*
G75*
G02*
X132222500Y-128324000I100000J0D01*
G01*
X133647500Y-128324000D01*
G75*
G02*
X133747500Y-128424000I0J-100000D01*
G01*
G37*
G04 #@! TD.AperFunction*
G04 #@! TA.AperFunction,SMDPad,CuDef*
G36*
G01*
X133747500Y-127774000D02*
X133747500Y-127974000D01*
G75*
G02*
X133647500Y-128074000I-100000J0D01*
G01*
X132222500Y-128074000D01*
G75*
G02*
X132122500Y-127974000I0J100000D01*
G01*
X132122500Y-127774000D01*
G75*
G02*
X132222500Y-127674000I100000J0D01*
G01*
X133647500Y-127674000D01*
G75*
G02*
X133747500Y-127774000I0J-100000D01*
G01*
G37*
G04 #@! TD.AperFunction*
G04 #@! TA.AperFunction,SMDPad,CuDef*
G36*
G01*
X133747500Y-127124000D02*
X133747500Y-127324000D01*
G75*
G02*
X133647500Y-127424000I-100000J0D01*
G01*
X132222500Y-127424000D01*
G75*
G02*
X132122500Y-127324000I0J100000D01*
G01*
X132122500Y-127124000D01*
G75*
G02*
X132222500Y-127024000I100000J0D01*
G01*
X133647500Y-127024000D01*
G75*
G02*
X133747500Y-127124000I0J-100000D01*
G01*
G37*
G04 #@! TD.AperFunction*
G04 #@! TA.AperFunction,SMDPad,CuDef*
G36*
G01*
X133747500Y-126474000D02*
X133747500Y-126674000D01*
G75*
G02*
X133647500Y-126774000I-100000J0D01*
G01*
X132222500Y-126774000D01*
G75*
G02*
X132122500Y-126674000I0J100000D01*
G01*
X132122500Y-126474000D01*
G75*
G02*
X132222500Y-126374000I100000J0D01*
G01*
X133647500Y-126374000D01*
G75*
G02*
X133747500Y-126474000I0J-100000D01*
G01*
G37*
G04 #@! TD.AperFunction*
G04 #@! TA.AperFunction,SMDPad,CuDef*
G36*
G01*
X137972500Y-126474000D02*
X137972500Y-126674000D01*
G75*
G02*
X137872500Y-126774000I-100000J0D01*
G01*
X136447500Y-126774000D01*
G75*
G02*
X136347500Y-126674000I0J100000D01*
G01*
X136347500Y-126474000D01*
G75*
G02*
X136447500Y-126374000I100000J0D01*
G01*
X137872500Y-126374000D01*
G75*
G02*
X137972500Y-126474000I0J-100000D01*
G01*
G37*
G04 #@! TD.AperFunction*
G04 #@! TA.AperFunction,SMDPad,CuDef*
G36*
G01*
X137972500Y-127124000D02*
X137972500Y-127324000D01*
G75*
G02*
X137872500Y-127424000I-100000J0D01*
G01*
X136447500Y-127424000D01*
G75*
G02*
X136347500Y-127324000I0J100000D01*
G01*
X136347500Y-127124000D01*
G75*
G02*
X136447500Y-127024000I100000J0D01*
G01*
X137872500Y-127024000D01*
G75*
G02*
X137972500Y-127124000I0J-100000D01*
G01*
G37*
G04 #@! TD.AperFunction*
G04 #@! TA.AperFunction,SMDPad,CuDef*
G36*
G01*
X137972500Y-127774000D02*
X137972500Y-127974000D01*
G75*
G02*
X137872500Y-128074000I-100000J0D01*
G01*
X136447500Y-128074000D01*
G75*
G02*
X136347500Y-127974000I0J100000D01*
G01*
X136347500Y-127774000D01*
G75*
G02*
X136447500Y-127674000I100000J0D01*
G01*
X137872500Y-127674000D01*
G75*
G02*
X137972500Y-127774000I0J-100000D01*
G01*
G37*
G04 #@! TD.AperFunction*
G04 #@! TA.AperFunction,SMDPad,CuDef*
G36*
G01*
X137972500Y-128424000D02*
X137972500Y-128624000D01*
G75*
G02*
X137872500Y-128724000I-100000J0D01*
G01*
X136447500Y-128724000D01*
G75*
G02*
X136347500Y-128624000I0J100000D01*
G01*
X136347500Y-128424000D01*
G75*
G02*
X136447500Y-128324000I100000J0D01*
G01*
X137872500Y-128324000D01*
G75*
G02*
X137972500Y-128424000I0J-100000D01*
G01*
G37*
G04 #@! TD.AperFunction*
D15*
X125222000Y-132842000D03*
X109982000Y-125222000D03*
X122682000Y-132842000D03*
X112522000Y-125222000D03*
X120142000Y-132842000D03*
X115062000Y-125222000D03*
X117602000Y-132842000D03*
X117602000Y-125222000D03*
X115062000Y-132842000D03*
X120142000Y-125222000D03*
X112522000Y-132842000D03*
X122682000Y-125222000D03*
X109982000Y-132842000D03*
D14*
X125222000Y-125222000D03*
D16*
X191088000Y-71294000D03*
X191088000Y-66294000D03*
X191088000Y-61294000D03*
X196088000Y-71294000D03*
X196088000Y-66294000D03*
X196088000Y-61294000D03*
D15*
X123444000Y-87376000D03*
X123444000Y-89916000D03*
X123444000Y-92456000D03*
X123444000Y-94996000D03*
X123444000Y-97536000D03*
D14*
X123444000Y-100076000D03*
D15*
X183134000Y-80518000D03*
D13*
X172974000Y-80518000D03*
D15*
X183134000Y-85598000D03*
D13*
X172974000Y-85598000D03*
D15*
X120650000Y-78486000D03*
D13*
X110490000Y-78486000D03*
D15*
X195072000Y-116078000D03*
D13*
X195072000Y-126238000D03*
D15*
X190119000Y-116078000D03*
D13*
X190119000Y-126238000D03*
D17*
X187833000Y-132905500D03*
D18*
X190373000Y-132905500D03*
X189103000Y-131635500D03*
D19*
X190620000Y-97573000D03*
X190620000Y-87573000D03*
D20*
X195620000Y-92573000D03*
D21*
X109984000Y-139628000D03*
X112524000Y-139628000D03*
X115064000Y-139628000D03*
X117604000Y-139628000D03*
X120144000Y-139628000D03*
X122684000Y-139628000D03*
X125224000Y-139628000D03*
X127764000Y-139628000D03*
X130304000Y-139628000D03*
X132844000Y-139628000D03*
X135384000Y-139628000D03*
X137924000Y-139628000D03*
X140464000Y-139628000D03*
X143004000Y-139628000D03*
X145544000Y-139628000D03*
X148084000Y-139628000D03*
X150624000Y-139628000D03*
X153164000Y-139628000D03*
X155704000Y-139628000D03*
X158244000Y-139628000D03*
X160784000Y-139628000D03*
X163324000Y-139628000D03*
X165864000Y-139628000D03*
X168404000Y-139628000D03*
X170944000Y-139628000D03*
X173484000Y-139628000D03*
X176024000Y-139628000D03*
X178564000Y-139628000D03*
X181104000Y-139628000D03*
X183644000Y-139628000D03*
X186184000Y-139628000D03*
X188724000Y-139628000D03*
X109984000Y-144708000D03*
X112524000Y-144708000D03*
X115064000Y-144708000D03*
X117604000Y-144708000D03*
X120144000Y-144708000D03*
X122684000Y-144708000D03*
X125224000Y-144708000D03*
X127764000Y-144708000D03*
X130304000Y-144708000D03*
X132844000Y-144708000D03*
X135384000Y-144708000D03*
X137924000Y-144708000D03*
X140464000Y-144708000D03*
X143004000Y-144708000D03*
X145544000Y-144708000D03*
X148084000Y-144708000D03*
X150624000Y-144708000D03*
X153164000Y-144708000D03*
X155704000Y-144708000D03*
X158244000Y-144708000D03*
X160784000Y-144708000D03*
X163324000Y-144708000D03*
X165864000Y-144708000D03*
X168404000Y-144708000D03*
X170944000Y-144708000D03*
X173484000Y-144708000D03*
X176024000Y-144708000D03*
X178564000Y-144708000D03*
X181104000Y-144708000D03*
X183644000Y-144708000D03*
X186184000Y-144708000D03*
G04 #@! TA.AperFunction,ComponentPad*
G36*
G01*
X189499000Y-144182998D02*
X189499000Y-145233002D01*
G75*
G02*
X189249002Y-145483000I-249998J0D01*
G01*
X188198998Y-145483000D01*
G75*
G02*
X187949000Y-145233002I0J249998D01*
G01*
X187949000Y-144182998D01*
G75*
G02*
X188198998Y-143933000I249998J0D01*
G01*
X189249002Y-143933000D01*
G75*
G02*
X189499000Y-144182998I0J-249998D01*
G01*
G37*
G04 #@! TD.AperFunction*
D22*
X177546000Y-107696000D03*
X175006000Y-107696000D03*
X172466000Y-107696000D03*
X169926000Y-107696000D03*
X167386000Y-107696000D03*
D23*
X164846000Y-107696000D03*
D24*
X194691000Y-132905500D03*
D25*
X197231000Y-132905500D03*
D13*
X169632000Y-80518000D03*
X167132000Y-80518000D03*
X169672000Y-85598000D03*
X167172000Y-85598000D03*
X156250000Y-75438000D03*
X158750000Y-75438000D03*
X143510000Y-75184000D03*
X141010000Y-75184000D03*
X138978000Y-57912000D03*
D14*
X141478000Y-57912000D03*
D13*
X145328000Y-57912000D03*
D14*
X147828000Y-57912000D03*
D13*
X150114000Y-75438000D03*
X152614000Y-75438000D03*
X158028000Y-57912000D03*
D14*
X160528000Y-57912000D03*
D13*
X151678000Y-57912000D03*
D14*
X154178000Y-57912000D03*
D13*
X133350000Y-62810000D03*
X133350000Y-65310000D03*
X133350000Y-71588000D03*
X133350000Y-69088000D03*
X105664000Y-66334000D03*
D14*
X105664000Y-68834000D03*
D13*
X116332000Y-60198000D03*
X113832000Y-60198000D03*
X122642000Y-60198000D03*
X120142000Y-60198000D03*
X123992000Y-75184000D03*
X126492000Y-75184000D03*
X123952000Y-104688000D03*
X123952000Y-107188000D03*
X114086000Y-83566000D03*
D14*
X116586000Y-83566000D03*
D13*
X150622000Y-93853000D03*
X150622000Y-91353000D03*
X123952000Y-114300000D03*
X123952000Y-116800000D03*
X109688000Y-60198000D03*
X107188000Y-60198000D03*
X128992000Y-60198000D03*
X126492000Y-60198000D03*
X131826000Y-132842000D03*
X129326000Y-132842000D03*
X114046000Y-92710000D03*
X114046000Y-95210000D03*
X114808000Y-112482000D03*
X114808000Y-109982000D03*
X181102000Y-113030000D03*
X178602000Y-113030000D03*
X135422000Y-132842000D03*
X137922000Y-132842000D03*
X112268000Y-121920000D03*
X109768000Y-121920000D03*
D26*
X138938000Y-129032000D03*
X173990000Y-122428000D03*
X174244000Y-118618000D03*
X167132000Y-125984000D03*
X165354000Y-125222000D03*
X171196000Y-117602000D03*
X162052000Y-113792000D03*
X171704000Y-125984000D03*
X180340000Y-116078000D03*
X130810000Y-129032000D03*
X130810000Y-83566000D03*
X133350000Y-82042000D03*
X123952000Y-82042000D03*
X135890000Y-81026000D03*
X126492000Y-81026000D03*
X130302000Y-76708000D03*
X128778006Y-78740000D03*
X111760000Y-56642000D03*
X171704000Y-121666000D03*
X168148000Y-121666000D03*
X176784000Y-110490000D03*
X174752004Y-123952000D03*
X164846000Y-118110000D03*
X165100000Y-116332000D03*
X177546000Y-129032000D03*
X169672000Y-125984000D03*
X164846000Y-126746000D03*
X169418000Y-116840000D03*
X118872000Y-130302000D03*
X112522000Y-130302000D03*
X123951986Y-130556000D03*
X142240000Y-106680000D03*
X133350000Y-106680000D03*
X133350000Y-124460000D03*
X127508000Y-124460000D03*
X143510000Y-135382000D03*
X159512000Y-118110000D03*
X144272000Y-142240000D03*
X161036000Y-130810000D03*
X151130000Y-130810000D03*
X120650000Y-84836000D03*
X129540000Y-86360000D03*
X138430000Y-91186000D03*
X125222000Y-120142000D03*
X129540000Y-99060000D03*
X129540000Y-127254000D03*
X138430000Y-79756000D03*
D27*
X138430000Y-128524000D02*
X138938000Y-129032000D01*
X137160000Y-128524000D02*
X138430000Y-128524000D01*
X174188500Y-122229500D02*
X173990000Y-122428000D01*
X177461500Y-122229500D02*
X174188500Y-122229500D01*
X174355500Y-118729500D02*
X174244000Y-118618000D01*
X177461500Y-118729500D02*
X174355500Y-118729500D01*
X166323990Y-129332010D02*
X166323990Y-126792010D01*
X166299000Y-129357000D02*
X166323990Y-129332010D01*
X166299000Y-129392000D02*
X166299000Y-129357000D01*
X166323990Y-126792010D02*
X167132000Y-125984000D01*
X164846500Y-125729500D02*
X165354000Y-125222000D01*
X162136500Y-125729500D02*
X164846500Y-125729500D01*
X171799000Y-116999000D02*
X171196000Y-117602000D01*
X171799000Y-114067000D02*
X171799000Y-116999000D01*
X162327000Y-114067000D02*
X162052000Y-113792000D01*
X163799000Y-114067000D02*
X162327000Y-114067000D01*
X172799000Y-127079000D02*
X171704000Y-125984000D01*
X172799000Y-129392000D02*
X172799000Y-127079000D01*
X179991500Y-115729500D02*
X180340000Y-116078000D01*
X177461500Y-115729500D02*
X179991500Y-115729500D01*
X131318000Y-128524000D02*
X130810000Y-129032000D01*
X132935000Y-128524000D02*
X131318000Y-128524000D01*
X132935000Y-127874000D02*
X132935000Y-128524000D01*
D28*
X112524000Y-141984000D02*
X106424000Y-141984000D01*
X112524000Y-144708000D02*
X112524000Y-141984000D01*
X112524000Y-141984000D02*
X112524000Y-139628000D01*
X106424000Y-141984000D02*
X105156000Y-140716000D01*
X105156000Y-110744000D02*
X105918000Y-109982000D01*
X105156000Y-106409500D02*
X106426000Y-105139500D01*
X105156000Y-140716000D02*
X105156000Y-112014000D01*
X105156000Y-112014000D02*
X105156000Y-110744000D01*
X106172000Y-109982000D02*
X105156000Y-108966000D01*
X106426000Y-109982000D02*
X106172000Y-109982000D01*
X105156000Y-108966000D02*
X105156000Y-106409500D01*
X105156000Y-112014000D02*
X105156000Y-108966000D01*
X105918000Y-109982000D02*
X106426000Y-109982000D01*
X106426000Y-109982000D02*
X108204000Y-109982000D01*
X108204000Y-109982000D02*
X114808000Y-109982000D01*
X133350000Y-65310000D02*
X133350000Y-67310000D01*
X133350000Y-67310000D02*
X133350000Y-69088000D01*
X158750000Y-67056000D02*
X158750000Y-63754000D01*
X158496000Y-67310000D02*
X158750000Y-67056000D01*
X157480000Y-67310000D02*
X160528000Y-67310000D01*
X157480000Y-67310000D02*
X158496000Y-67310000D01*
X161290000Y-66548000D02*
X161290000Y-63754000D01*
X160528000Y-67310000D02*
X161290000Y-66548000D01*
X138430000Y-67056000D02*
X138176000Y-67310000D01*
X138430000Y-63754000D02*
X138430000Y-67056000D01*
X151130000Y-67564000D02*
X150876000Y-67310000D01*
X151130000Y-71374000D02*
X151130000Y-67564000D01*
X138176000Y-67310000D02*
X150876000Y-67310000D01*
X153670000Y-67564000D02*
X153416000Y-67310000D01*
X153670000Y-71374000D02*
X153670000Y-67564000D01*
X153416000Y-67310000D02*
X157480000Y-67310000D01*
X150876000Y-67310000D02*
X153416000Y-67310000D01*
X134112000Y-67310000D02*
X109982000Y-67310000D01*
X133350000Y-67310000D02*
X134112000Y-67310000D01*
X134112000Y-67310000D02*
X138176000Y-67310000D01*
X109982000Y-67310000D02*
X108966000Y-68326000D01*
X108966000Y-68326000D02*
X108966000Y-74930000D01*
X108966000Y-74930000D02*
X105410000Y-78486000D01*
X105410000Y-96520000D02*
X106426000Y-97536000D01*
X106426000Y-97536000D02*
X106426000Y-98044000D01*
X106426000Y-98044000D02*
X106426000Y-97790000D01*
X106426000Y-98044000D02*
X106426000Y-100139500D01*
X114006000Y-95250000D02*
X114046000Y-95210000D01*
X107696000Y-95250000D02*
X114006000Y-95250000D01*
D29*
X152614000Y-75438000D02*
X152614000Y-73954000D01*
X153670000Y-72898000D02*
X153670000Y-71374000D01*
X152614000Y-73954000D02*
X153670000Y-72898000D01*
D28*
X106807000Y-96139000D02*
X107696000Y-95250000D01*
X106807000Y-97409000D02*
X106807000Y-96139000D01*
X106426000Y-97790000D02*
X106807000Y-97409000D01*
X107696000Y-95250000D02*
X105410000Y-95250000D01*
X105410000Y-95250000D02*
X105410000Y-96520000D01*
X106807000Y-97409000D02*
X106807000Y-96647000D01*
X106807000Y-96647000D02*
X106172000Y-96012000D01*
X106807000Y-96647000D02*
X107061000Y-96647000D01*
X107696000Y-96012000D02*
X107696000Y-95250000D01*
X107061000Y-96647000D02*
X107696000Y-96012000D01*
X107696000Y-96774000D02*
X107696000Y-95250000D01*
X106426000Y-98044000D02*
X107696000Y-96774000D01*
X105918000Y-95250000D02*
X105410000Y-94742000D01*
X107696000Y-95250000D02*
X105918000Y-95250000D01*
X105410000Y-94742000D02*
X105410000Y-95250000D01*
X105410000Y-78486000D02*
X105410000Y-94742000D01*
X106426000Y-98806000D02*
X105410000Y-97790000D01*
X106426000Y-100139500D02*
X106426000Y-98806000D01*
X105410000Y-97790000D02*
X105410000Y-96520000D01*
X106426000Y-100139500D02*
X106426000Y-99568000D01*
D27*
X130810000Y-83566000D02*
X116586000Y-83566000D01*
D30*
X123952000Y-75144000D02*
X123992000Y-75184000D01*
X123952000Y-71374000D02*
X123952000Y-75144000D01*
D27*
X133350000Y-82042000D02*
X123952000Y-82042000D01*
D30*
X126492000Y-71374000D02*
X126492000Y-75184000D01*
D27*
X135890000Y-81026000D02*
X126492000Y-81026000D01*
D30*
X121412000Y-63754000D02*
X121412000Y-62230000D01*
X122642000Y-61000000D02*
X122642000Y-60198000D01*
X121412000Y-62230000D02*
X122642000Y-61000000D01*
D27*
X146050000Y-88773000D02*
X146050000Y-78994000D01*
X146050000Y-78994000D02*
X144780000Y-77724000D01*
X132842000Y-76708000D02*
X133858000Y-77724000D01*
X130302000Y-76708000D02*
X132842000Y-76708000D01*
X144780000Y-77724000D02*
X133858000Y-77724000D01*
D30*
X116332000Y-63754000D02*
X116332000Y-60198000D01*
D27*
X142240000Y-78740000D02*
X128778006Y-78740000D01*
X143510000Y-88773000D02*
X143510000Y-80010000D01*
X143510000Y-80010000D02*
X142240000Y-78740000D01*
X151130000Y-63754000D02*
X151130000Y-60706000D01*
X151678000Y-60158000D02*
X151678000Y-57912000D01*
X151130000Y-60706000D02*
X151678000Y-60158000D01*
D30*
X111252000Y-63754000D02*
X113792000Y-63754000D01*
D27*
X111252000Y-63754000D02*
X111252000Y-62484000D01*
X111252000Y-62484000D02*
X111760000Y-61976000D01*
X111760000Y-61976000D02*
X111760000Y-56642000D01*
X153670000Y-63754000D02*
X153670000Y-62230000D01*
X157988000Y-57912000D02*
X158028000Y-57912000D01*
X153670000Y-62230000D02*
X157988000Y-57912000D01*
X123952000Y-63754000D02*
X124206000Y-63754000D01*
X124206000Y-63754000D02*
X126492000Y-63754000D01*
X123952000Y-63754000D02*
X123952000Y-63246000D01*
X123952000Y-63246000D02*
X124460000Y-62738000D01*
X124460000Y-62738000D02*
X124460000Y-56388000D01*
X124460000Y-56388000D02*
X126492000Y-54356000D01*
X126492000Y-54356000D02*
X159004000Y-54356000D01*
X160528000Y-55880000D02*
X160528000Y-57912000D01*
X159004000Y-54356000D02*
X160528000Y-55880000D01*
X148590000Y-63754000D02*
X148590000Y-60706000D01*
X147828000Y-59944000D02*
X147828000Y-57912000D01*
X148590000Y-60706000D02*
X147828000Y-59944000D01*
X140970000Y-63754000D02*
X140970000Y-61214000D01*
X141478000Y-60706000D02*
X141478000Y-57912000D01*
X140970000Y-61214000D02*
X141478000Y-60706000D01*
X143510000Y-71374000D02*
X143510000Y-75184000D01*
D31*
X140970000Y-75144000D02*
X141010000Y-75184000D01*
X140970000Y-71374000D02*
X140970000Y-75144000D01*
D27*
X156210000Y-75398000D02*
X156250000Y-75438000D01*
X156210000Y-71374000D02*
X156210000Y-75398000D01*
D31*
X158750000Y-75438000D02*
X158750000Y-71374000D01*
X165180000Y-69088000D02*
X166450000Y-70358000D01*
X159258000Y-69088000D02*
X165180000Y-69088000D01*
X158750000Y-69596000D02*
X159258000Y-69088000D01*
X158750000Y-71374000D02*
X158750000Y-69596000D01*
X182800000Y-57912000D02*
X192532000Y-57912000D01*
X192532000Y-57912000D02*
X193548000Y-58928000D01*
X193548000Y-68754000D02*
X196088000Y-71294000D01*
X193548000Y-58928000D02*
X193548000Y-68754000D01*
X182546000Y-70358000D02*
X186944000Y-70358000D01*
X187880000Y-71294000D02*
X191088000Y-71294000D01*
X186944000Y-70358000D02*
X187880000Y-71294000D01*
D27*
X190373000Y-132905500D02*
X194691000Y-132905500D01*
X197231000Y-132905500D02*
X197231000Y-130937000D01*
X195072000Y-128778000D02*
X195072000Y-126238000D01*
X197231000Y-130937000D02*
X195072000Y-128778000D01*
X174323990Y-129316010D02*
X174323990Y-125809990D01*
X174299000Y-129341000D02*
X174323990Y-129316010D01*
X174299000Y-129392000D02*
X174299000Y-129341000D01*
X171704000Y-123190000D02*
X171704000Y-121666000D01*
X174323990Y-125809990D02*
X171704000Y-123190000D01*
X172323990Y-113934010D02*
X172323990Y-110378010D01*
X172299000Y-113959000D02*
X172323990Y-113934010D01*
X172299000Y-114067000D02*
X172299000Y-113959000D01*
X172466000Y-110236000D02*
X172466000Y-107696000D01*
X172323990Y-110378010D02*
X172466000Y-110236000D01*
X173299000Y-129392000D02*
X173299000Y-126055000D01*
X168910000Y-121666000D02*
X168148000Y-121666000D01*
X173299000Y-126055000D02*
X168910000Y-121666000D01*
X180340000Y-109474000D02*
X179324000Y-110490000D01*
X179324000Y-110490000D02*
X176784000Y-110490000D01*
X180340000Y-105664000D02*
X180340000Y-109474000D01*
X179832000Y-105156000D02*
X180340000Y-105664000D01*
X168402000Y-105156000D02*
X179832000Y-105156000D01*
X167386000Y-106172000D02*
X168402000Y-105156000D01*
X167386000Y-107696000D02*
X167386000Y-106172000D01*
X174799000Y-123998996D02*
X174752004Y-123952000D01*
X174799000Y-129392000D02*
X174799000Y-123998996D01*
X164465500Y-117729500D02*
X164846000Y-118110000D01*
X162136500Y-117729500D02*
X164465500Y-117729500D01*
X164799000Y-116031000D02*
X165100000Y-116332000D01*
X164799000Y-114067000D02*
X164799000Y-116031000D01*
X177461500Y-128947500D02*
X177546000Y-129032000D01*
X177461500Y-127729500D02*
X177461500Y-128947500D01*
X169799000Y-126111000D02*
X169672000Y-125984000D01*
X169799000Y-129392000D02*
X169799000Y-126111000D01*
X163799000Y-127793000D02*
X164846000Y-126746000D01*
X163799000Y-129392000D02*
X163799000Y-127793000D01*
X169799000Y-116459000D02*
X169418000Y-116840000D01*
X169799000Y-114067000D02*
X169799000Y-116459000D01*
X175768000Y-127508000D02*
X175989500Y-127729500D01*
X175989500Y-127729500D02*
X177461500Y-127729500D01*
X175768000Y-127508000D02*
X175768000Y-124968000D01*
X176006500Y-124729500D02*
X177461500Y-124729500D01*
X175768000Y-124968000D02*
X176006500Y-124729500D01*
X118872000Y-130302000D02*
X112522000Y-130302000D01*
X140462000Y-130556000D02*
X123951986Y-130556000D01*
X146288500Y-124729500D02*
X140462000Y-130556000D01*
X162136500Y-124729500D02*
X146288500Y-124729500D01*
X142240000Y-106680000D02*
X133350000Y-106680000D01*
X127508000Y-124460000D02*
X133350000Y-124460000D01*
X140716000Y-124460000D02*
X133350000Y-124460000D01*
X143471490Y-121704510D02*
X140716000Y-124460000D01*
X162090510Y-121704510D02*
X143471490Y-121704510D01*
X162115500Y-121729500D02*
X162090510Y-121704510D01*
X162136500Y-121729500D02*
X162115500Y-121729500D01*
X162051510Y-127254490D02*
X150113510Y-127254490D01*
X162076500Y-127229500D02*
X162051510Y-127254490D01*
X162136500Y-127229500D02*
X162076500Y-127229500D01*
X150113510Y-127254490D02*
X143510000Y-133858000D01*
X143510000Y-133858000D02*
X143510000Y-135382000D01*
X162136500Y-126229500D02*
X148090500Y-126229500D01*
X148090500Y-126229500D02*
X141478000Y-132842000D01*
X141478000Y-132842000D02*
X141478000Y-134874000D01*
X141478000Y-134874000D02*
X140208000Y-136144000D01*
X140208000Y-136144000D02*
X133604000Y-136144000D01*
X132844000Y-136904000D02*
X132844000Y-139628000D01*
X133604000Y-136144000D02*
X132844000Y-136904000D01*
X164799000Y-129392000D02*
X164799000Y-132127000D01*
X164799000Y-132127000D02*
X163322000Y-133604000D01*
X163322000Y-133604000D02*
X157226000Y-133604000D01*
X155704000Y-135126000D02*
X155704000Y-139628000D01*
X157226000Y-133604000D02*
X155704000Y-135126000D01*
X165799000Y-129392000D02*
X165799000Y-133159000D01*
X165799000Y-133159000D02*
X163830000Y-135128000D01*
X163830000Y-135128000D02*
X159512000Y-135128000D01*
X158244000Y-136396000D02*
X158244000Y-139628000D01*
X159512000Y-135128000D02*
X158244000Y-136396000D01*
X160784000Y-137920000D02*
X160784000Y-139628000D01*
X164592000Y-136398000D02*
X162306000Y-136398000D01*
X162306000Y-136398000D02*
X160784000Y-137920000D01*
X167299000Y-133691000D02*
X164592000Y-136398000D01*
X167299000Y-129392000D02*
X167299000Y-133691000D01*
X165864000Y-138428000D02*
X165864000Y-139628000D01*
X168774010Y-135517990D02*
X165864000Y-138428000D01*
X168799000Y-129429000D02*
X168774010Y-129453990D01*
X168774010Y-129453990D02*
X168774010Y-135517990D01*
X168799000Y-129392000D02*
X168799000Y-129429000D01*
X170274010Y-136303990D02*
X168404000Y-138174000D01*
X168404000Y-138174000D02*
X168404000Y-139628000D01*
X170274010Y-129429990D02*
X170274010Y-136303990D01*
X170299000Y-129405000D02*
X170274010Y-129429990D01*
X170299000Y-129392000D02*
X170299000Y-129405000D01*
X170944000Y-137920000D02*
X170944000Y-139628000D01*
X171299000Y-137565000D02*
X170944000Y-137920000D01*
X171299000Y-129392000D02*
X171299000Y-137565000D01*
X175299000Y-129392000D02*
X175299000Y-135343000D01*
X173484000Y-137158000D02*
X173484000Y-139628000D01*
X175299000Y-135343000D02*
X173484000Y-137158000D01*
X156337000Y-118110000D02*
X156210000Y-117983000D01*
X159512000Y-118110000D02*
X156337000Y-118110000D01*
X176024000Y-137412000D02*
X176024000Y-139628000D01*
X176530000Y-136906000D02*
X176024000Y-137412000D01*
X176530000Y-132334000D02*
X176530000Y-136906000D01*
X179070000Y-129794000D02*
X176530000Y-132334000D01*
X179070000Y-127762000D02*
X179070000Y-129794000D01*
X178537500Y-127229500D02*
X179070000Y-127762000D01*
X177461500Y-127229500D02*
X178537500Y-127229500D01*
X177461500Y-126229500D02*
X179315500Y-126229500D01*
X179315500Y-126229500D02*
X180086000Y-127000000D01*
X180086000Y-127000000D02*
X180086000Y-131826000D01*
X178564000Y-133348000D02*
X178564000Y-139628000D01*
X180086000Y-131826000D02*
X178564000Y-133348000D01*
X177461500Y-125229500D02*
X180347500Y-125229500D01*
X180347500Y-125229500D02*
X181610000Y-126492000D01*
X181610000Y-126492000D02*
X181610000Y-135382000D01*
X181104000Y-135888000D02*
X181104000Y-139628000D01*
X181610000Y-135382000D02*
X181104000Y-135888000D01*
X183644000Y-136400000D02*
X183644000Y-139628000D01*
X183134000Y-135890000D02*
X183644000Y-136400000D01*
X183134000Y-125984000D02*
X183134000Y-135890000D01*
X180879500Y-123729500D02*
X183134000Y-125984000D01*
X177461500Y-123729500D02*
X180879500Y-123729500D01*
X162136500Y-125229500D02*
X147312500Y-125229500D01*
X147312500Y-125229500D02*
X140208000Y-132334000D01*
X140208000Y-132334000D02*
X140208000Y-134366000D01*
X140208000Y-134366000D02*
X139446000Y-135128000D01*
X139446000Y-135128000D02*
X125222000Y-135128000D01*
X125222000Y-135128000D02*
X123952000Y-136398000D01*
X123952000Y-136398000D02*
X123952000Y-141732000D01*
X122684000Y-143000000D02*
X122684000Y-144708000D01*
X123952000Y-141732000D02*
X122684000Y-143000000D01*
X162136500Y-127729500D02*
X151670500Y-127729500D01*
X151670500Y-127729500D02*
X145034000Y-134366000D01*
X145034000Y-134366000D02*
X145034000Y-136652000D01*
X144272000Y-137414000D02*
X144272000Y-142240000D01*
X145034000Y-136652000D02*
X144272000Y-137414000D01*
X127764000Y-142492000D02*
X127764000Y-144708000D01*
X134112000Y-140970000D02*
X133350000Y-141732000D01*
X134366000Y-136906000D02*
X134112000Y-137160000D01*
X128524000Y-141732000D02*
X127764000Y-142492000D01*
X142240000Y-135890000D02*
X141224000Y-136906000D01*
X133350000Y-141732000D02*
X128524000Y-141732000D01*
X142240000Y-133604000D02*
X142240000Y-135890000D01*
X134112000Y-137160000D02*
X134112000Y-140970000D01*
X149114500Y-126729500D02*
X142240000Y-133604000D01*
X141224000Y-136906000D02*
X134366000Y-136906000D01*
X162136500Y-126729500D02*
X149114500Y-126729500D01*
X164274010Y-129525990D02*
X164274010Y-131381990D01*
X164299000Y-129501000D02*
X164274010Y-129525990D01*
X164299000Y-129392000D02*
X164299000Y-129501000D01*
X164274010Y-131381990D02*
X162814000Y-132842000D01*
X162814000Y-132842000D02*
X155702000Y-132842000D01*
X155702000Y-132842000D02*
X154432000Y-134112000D01*
X154432000Y-134112000D02*
X154432000Y-140970000D01*
X153164000Y-142238000D02*
X153164000Y-144708000D01*
X154432000Y-140970000D02*
X153164000Y-142238000D01*
X165274010Y-129509990D02*
X165274010Y-132667990D01*
X165299000Y-129485000D02*
X165274010Y-129509990D01*
X165299000Y-129392000D02*
X165299000Y-129485000D01*
X165274010Y-132667990D02*
X163576000Y-134366000D01*
X163576000Y-134366000D02*
X158750000Y-134366000D01*
X158750000Y-134366000D02*
X156972000Y-136144000D01*
X156972000Y-136144000D02*
X156972000Y-141224000D01*
X155704000Y-142492000D02*
X155704000Y-144708000D01*
X156972000Y-141224000D02*
X155704000Y-142492000D01*
X158244000Y-142750000D02*
X158244000Y-144708000D01*
X159512000Y-141478000D02*
X158242000Y-142748000D01*
X159512000Y-137160000D02*
X159512000Y-141478000D01*
X160782000Y-135890000D02*
X159512000Y-137160000D01*
X166774010Y-133199990D02*
X164084000Y-135890000D01*
X164084000Y-135890000D02*
X160782000Y-135890000D01*
X166774010Y-129643990D02*
X166774010Y-133199990D01*
X158242000Y-142748000D02*
X158244000Y-142750000D01*
X166799000Y-129619000D02*
X166774010Y-129643990D01*
X166799000Y-129392000D02*
X166799000Y-129619000D01*
X162052000Y-137922000D02*
X162052000Y-141478000D01*
X162814000Y-137160000D02*
X162052000Y-137922000D01*
X160784000Y-142746000D02*
X160784000Y-144708000D01*
X164846000Y-137160000D02*
X162814000Y-137160000D01*
X167774010Y-134231990D02*
X164846000Y-137160000D01*
X162052000Y-141478000D02*
X160784000Y-142746000D01*
X167799000Y-129445000D02*
X167774010Y-129469990D01*
X167774010Y-129469990D02*
X167774010Y-134231990D01*
X167799000Y-129392000D02*
X167799000Y-129445000D01*
X165864000Y-142750000D02*
X165864000Y-144708000D01*
X164592000Y-138430000D02*
X164592000Y-141478000D01*
X168274010Y-134747990D02*
X164592000Y-138430000D01*
X168274010Y-129413990D02*
X168274010Y-134747990D01*
X164592000Y-141478000D02*
X165864000Y-142750000D01*
X168296000Y-129392000D02*
X168274010Y-129413990D01*
X168299000Y-129392000D02*
X168296000Y-129392000D01*
X168404000Y-142496000D02*
X168404000Y-144708000D01*
X167132000Y-141224000D02*
X168404000Y-142496000D01*
X169274010Y-136033990D02*
X167132000Y-138176000D01*
X167132000Y-138176000D02*
X167132000Y-141224000D01*
X169274010Y-129429990D02*
X169274010Y-136033990D01*
X169299000Y-129405000D02*
X169274010Y-129429990D01*
X169299000Y-129392000D02*
X169299000Y-129405000D01*
X169672000Y-137922000D02*
X169672000Y-141224000D01*
X170799000Y-136795000D02*
X169672000Y-137922000D01*
X170944000Y-142496000D02*
X170944000Y-144708000D01*
X169672000Y-141224000D02*
X170944000Y-142496000D01*
X170799000Y-129392000D02*
X170799000Y-136795000D01*
X173823990Y-129501990D02*
X173823990Y-135294010D01*
X173799000Y-129477000D02*
X173823990Y-129501990D01*
X173799000Y-129392000D02*
X173799000Y-129477000D01*
X173823990Y-135294010D02*
X172212000Y-136906000D01*
X172212000Y-136906000D02*
X172212000Y-141478000D01*
X173484000Y-142750000D02*
X173484000Y-144708000D01*
X172212000Y-141478000D02*
X173484000Y-142750000D01*
X161036000Y-130810000D02*
X151130000Y-130810000D01*
X176024000Y-142554000D02*
X176024000Y-144708000D01*
X174752000Y-141282000D02*
X176024000Y-142554000D01*
X174752000Y-137414000D02*
X174752000Y-141282000D01*
X175799000Y-136367000D02*
X174752000Y-137414000D01*
X175799000Y-129392000D02*
X175799000Y-136367000D01*
X177461500Y-126729500D02*
X178799500Y-126729500D01*
X178799500Y-126729500D02*
X179578000Y-127508000D01*
X179578000Y-127508000D02*
X179578000Y-130556000D01*
X179578000Y-130556000D02*
X177292000Y-132842000D01*
X177292000Y-132842000D02*
X177292000Y-141478000D01*
X178564000Y-142750000D02*
X178564000Y-144708000D01*
X177292000Y-141478000D02*
X178564000Y-142750000D01*
X181104000Y-143004000D02*
X181104000Y-144708000D01*
X179832000Y-141732000D02*
X181104000Y-143004000D01*
X179832000Y-135128000D02*
X179832000Y-141732000D01*
X180848000Y-134112000D02*
X179832000Y-135128000D01*
X180848000Y-126746000D02*
X180848000Y-134112000D01*
X179831500Y-125729500D02*
X180848000Y-126746000D01*
X177461500Y-125729500D02*
X179831500Y-125729500D01*
X180363500Y-124229500D02*
X177461500Y-124229500D01*
X182372000Y-126238000D02*
X180363500Y-124229500D01*
X182372000Y-141224000D02*
X182372000Y-126238000D01*
X183644000Y-142496000D02*
X182372000Y-141224000D01*
X183644000Y-144708000D02*
X183644000Y-142496000D01*
X190119000Y-116078000D02*
X190119000Y-119253000D01*
X190119000Y-119253000D02*
X192024000Y-121158000D01*
X192024000Y-121158000D02*
X192024000Y-128016000D01*
X189103000Y-130937000D02*
X189103000Y-131635500D01*
X192024000Y-128016000D02*
X189103000Y-130937000D01*
X177658490Y-120204510D02*
X188276510Y-120204510D01*
X177633500Y-120229500D02*
X177658490Y-120204510D01*
X177461500Y-120229500D02*
X177633500Y-120229500D01*
X190119000Y-122047000D02*
X190119000Y-126238000D01*
X188276510Y-120204510D02*
X190119000Y-122047000D01*
X121412000Y-84836000D02*
X120650000Y-84836000D01*
X140462000Y-84836000D02*
X121412000Y-84836000D01*
X140970000Y-85344000D02*
X140462000Y-84836000D01*
X140970000Y-88773000D02*
X140970000Y-85344000D01*
D30*
X113792000Y-71374000D02*
X111252000Y-71374000D01*
X111252000Y-71374000D02*
X111252000Y-75692000D01*
X110490000Y-76454000D02*
X110490000Y-78486000D01*
X111252000Y-75692000D02*
X110490000Y-76454000D01*
D27*
X129540000Y-86360000D02*
X126492000Y-86360000D01*
X125476000Y-87376000D02*
X123444000Y-87376000D01*
X126492000Y-86360000D02*
X125476000Y-87376000D01*
X123444000Y-89916000D02*
X124968000Y-89916000D01*
X126238000Y-91186000D02*
X138430000Y-91186000D01*
X124968000Y-89916000D02*
X126238000Y-91186000D01*
X138430000Y-102743000D02*
X138430000Y-101346000D01*
X140970000Y-98806000D02*
X140970000Y-96393000D01*
X138430000Y-101346000D02*
X140970000Y-98806000D01*
X138684000Y-92456000D02*
X139700000Y-92456000D01*
X123444000Y-92456000D02*
X138684000Y-92456000D01*
X138684000Y-92456000D02*
X139192000Y-92456000D01*
X140970000Y-93726000D02*
X140970000Y-96393000D01*
X139700000Y-92456000D02*
X140970000Y-93726000D01*
X135890000Y-94996000D02*
X135890000Y-96393000D01*
X135128000Y-94234000D02*
X135890000Y-94996000D01*
X126492000Y-94234000D02*
X135128000Y-94234000D01*
X125730000Y-94996000D02*
X126492000Y-94234000D01*
X123444000Y-94996000D02*
X125730000Y-94996000D01*
X168799000Y-114067000D02*
X168799000Y-111903000D01*
X168799000Y-111903000D02*
X168148000Y-111252000D01*
X168148000Y-111252000D02*
X138938000Y-111252000D01*
X138430000Y-111760000D02*
X138430000Y-117983000D01*
X138938000Y-111252000D02*
X138430000Y-111760000D01*
X168299000Y-114067000D02*
X168299000Y-112419000D01*
X167697991Y-111817991D02*
X141928009Y-111817991D01*
X168299000Y-112419000D02*
X167697991Y-111817991D01*
X140970000Y-112776000D02*
X140970000Y-117983000D01*
X141928009Y-111817991D02*
X140970000Y-112776000D01*
X167799000Y-114067000D02*
X167799000Y-112935000D01*
X167799000Y-112935000D02*
X167132000Y-112268000D01*
X167132000Y-112268000D02*
X144272000Y-112268000D01*
X143510000Y-113030000D02*
X143510000Y-117983000D01*
X144272000Y-112268000D02*
X143510000Y-113030000D01*
X141620000Y-127874000D02*
X137160000Y-127874000D01*
X145239510Y-124254490D02*
X141620000Y-127874000D01*
X161774500Y-124229500D02*
X161749510Y-124254490D01*
X161749510Y-124254490D02*
X145239510Y-124254490D01*
X162136500Y-124229500D02*
X161774500Y-124229500D01*
X141000000Y-127224000D02*
X137160000Y-127224000D01*
X144494500Y-123729500D02*
X141000000Y-127224000D01*
X162136500Y-123729500D02*
X144494500Y-123729500D01*
X161200510Y-123279490D02*
X143674510Y-123279490D01*
X161250500Y-123229500D02*
X161200510Y-123279490D01*
X162136500Y-123229500D02*
X161250500Y-123229500D01*
X140380000Y-126574000D02*
X137160000Y-126574000D01*
X143674510Y-123279490D02*
X140380000Y-126574000D01*
X161193500Y-121254500D02*
X142651500Y-121254500D01*
X161218500Y-121229500D02*
X161193500Y-121254500D01*
X162136500Y-121229500D02*
X161218500Y-121229500D01*
X142651500Y-121254500D02*
X140970000Y-122936000D01*
X140970000Y-122936000D02*
X118110000Y-122936000D01*
X117602000Y-123444000D02*
X117602000Y-125222000D01*
X118110000Y-122936000D02*
X117602000Y-123444000D01*
X130810000Y-117983000D02*
X130810000Y-119380000D01*
X130810000Y-119380000D02*
X130048000Y-120142000D01*
X130048000Y-120142000D02*
X125222000Y-120142000D01*
X124968000Y-97536000D02*
X123444000Y-97536000D01*
X129540000Y-99060000D02*
X126492000Y-99060000D01*
X126492000Y-99060000D02*
X124968000Y-97536000D01*
X129540000Y-127254000D02*
X130302000Y-127254000D01*
X130332000Y-127224000D02*
X130302000Y-127254000D01*
X132935000Y-127224000D02*
X130332000Y-127224000D01*
X125476000Y-79756000D02*
X125222000Y-79756000D01*
X125476000Y-79756000D02*
X138430000Y-79756000D01*
X125476000Y-79756000D02*
X124206000Y-79756000D01*
X124206000Y-79756000D02*
X123444000Y-80518000D01*
X123444000Y-80518000D02*
X117856000Y-80518000D01*
X116332000Y-78994000D02*
X116332000Y-78232000D01*
X117856000Y-80518000D02*
X116332000Y-78994000D01*
X116332000Y-71374000D02*
X116332000Y-78232000D01*
D31*
X171450000Y-57912000D02*
X177800000Y-57912000D01*
D29*
X169672000Y-85598000D02*
X172974000Y-85598000D01*
D31*
X171450000Y-70358000D02*
X177546000Y-70358000D01*
D29*
X169632000Y-80518000D02*
X172974000Y-80518000D01*
M02*
