M48
; DRILL file {KiCad (5.1.10)-1} date 07/30/21 10:23:48
; FORMAT={-:-/ absolute / metric / decimal}
; #@! TF.CreationDate,2021-07-30T10:23:48+01:00
; #@! TF.GenerationSoftware,Kicad,Pcbnew,(5.1.10)-1
; #@! TF.FileFunction,Plated,1,4,PTH
FMAT,2
METRIC
T1C0.400
T2C0.700
T3C0.750
T4C0.800
T5C0.900
T6C1.000
T7C1.300
%
G90
G05
T1
X111.76Y-56.642
X112.522Y-130.302
X118.872Y-130.302
X120.65Y-84.836
X123.952Y-130.556
X123.952Y-82.042
X125.222Y-120.142
X126.492Y-81.026
X127.508Y-124.46
X128.778Y-78.74
X129.54Y-86.36
X129.54Y-99.06
X129.54Y-127.254
X130.302Y-76.708
X130.81Y-83.566
X130.81Y-129.032
X133.35Y-82.042
X133.35Y-106.68
X133.35Y-124.46
X135.89Y-81.026
X138.43Y-79.756
X138.43Y-91.186
X138.938Y-129.032
X142.24Y-106.68
X143.51Y-135.382
X144.272Y-142.24
X151.13Y-130.81
X159.512Y-118.11
X161.036Y-130.81
X162.052Y-113.792
X164.846Y-118.11
X164.846Y-126.746
X165.1Y-116.332
X165.354Y-125.222
X167.132Y-125.984
X168.148Y-121.666
X169.418Y-116.84
X169.672Y-125.984
X171.196Y-117.602
X171.704Y-121.666
X171.704Y-125.984
X173.99Y-122.428
X174.244Y-118.618
X174.752Y-123.952
X176.784Y-110.49
X177.546Y-129.032
X180.34Y-116.078
T3
X187.833Y-132.905
X189.103Y-131.636
X190.373Y-132.905
T4
X105.664Y-66.334
X105.664Y-68.834
X107.188Y-60.198
X107.696Y-92.75
X107.696Y-95.25
X108.204Y-109.982
X108.204Y-112.482
X109.688Y-60.198
X109.768Y-121.92
X109.982Y-125.222
X109.982Y-132.842
X110.49Y-78.486
X111.252Y-63.754
X111.252Y-71.374
X112.268Y-121.92
X112.522Y-125.222
X112.522Y-132.842
X113.792Y-63.754
X113.792Y-71.374
X113.832Y-60.198
X114.046Y-92.71
X114.046Y-95.21
X114.086Y-83.566
X114.808Y-109.982
X114.808Y-112.482
X115.062Y-125.222
X115.062Y-132.842
X116.332Y-60.198
X116.332Y-63.754
X116.332Y-71.374
X116.586Y-83.566
X117.602Y-125.222
X117.602Y-132.842
X118.872Y-63.754
X118.872Y-71.374
X120.142Y-60.198
X120.142Y-125.222
X120.142Y-132.842
X120.65Y-78.486
X121.412Y-63.754
X121.412Y-71.374
X122.642Y-60.198
X122.682Y-125.222
X122.682Y-132.842
X123.444Y-87.376
X123.444Y-89.916
X123.444Y-92.456
X123.444Y-94.996
X123.444Y-97.536
X123.444Y-100.076
X123.952Y-63.754
X123.952Y-71.374
X123.952Y-104.688
X123.952Y-107.188
X123.952Y-114.3
X123.952Y-116.8
X123.992Y-75.184
X125.222Y-125.222
X125.222Y-132.842
X126.492Y-60.198
X126.492Y-63.754
X126.492Y-71.374
X126.492Y-75.184
X128.27Y-88.773
X128.27Y-96.393
X128.27Y-102.743
X128.27Y-117.983
X128.992Y-60.198
X129.326Y-132.842
X130.81Y-88.773
X130.81Y-96.393
X130.81Y-102.743
X130.81Y-117.983
X131.826Y-132.842
X133.35Y-62.81
X133.35Y-65.31
X133.35Y-69.088
X133.35Y-71.588
X133.35Y-88.773
X133.35Y-96.393
X133.35Y-102.743
X133.35Y-117.983
X135.422Y-132.842
X135.89Y-88.773
X135.89Y-96.393
X135.89Y-102.743
X135.89Y-117.983
X137.922Y-132.842
X138.43Y-63.754
X138.43Y-71.374
X138.43Y-88.773
X138.43Y-96.393
X138.43Y-102.743
X138.43Y-117.983
X138.978Y-57.912
X140.97Y-63.754
X140.97Y-71.374
X140.97Y-88.773
X140.97Y-96.393
X140.97Y-102.743
X140.97Y-117.983
X141.01Y-75.184
X141.478Y-57.912
X143.51Y-63.754
X143.51Y-71.374
X143.51Y-75.184
X143.51Y-88.773
X143.51Y-96.393
X143.51Y-102.743
X143.51Y-117.983
X145.328Y-57.912
X146.05Y-63.754
X146.05Y-71.374
X146.05Y-88.773
X146.05Y-96.393
X146.05Y-102.743
X146.05Y-117.983
X147.828Y-57.912
X148.59Y-63.754
X148.59Y-71.374
X148.59Y-102.743
X148.59Y-117.983
X150.114Y-75.438
X150.622Y-91.353
X150.622Y-93.853
X151.13Y-63.754
X151.13Y-71.374
X151.13Y-102.743
X151.13Y-117.983
X151.678Y-57.912
X152.614Y-75.438
X153.67Y-63.754
X153.67Y-71.374
X153.67Y-102.743
X153.67Y-117.983
X154.178Y-57.912
X156.21Y-63.754
X156.21Y-71.374
X156.21Y-102.743
X156.21Y-117.983
X156.25Y-75.438
X158.028Y-57.912
X158.75Y-63.754
X158.75Y-71.374
X158.75Y-75.438
X160.528Y-57.912
X161.29Y-63.754
X161.29Y-71.374
X167.132Y-80.518
X167.172Y-85.598
X169.632Y-80.518
X169.672Y-85.598
X172.974Y-80.518
X172.974Y-85.598
X178.602Y-113.03
X181.102Y-113.03
X183.134Y-80.518
X183.134Y-85.598
X190.119Y-116.078
X190.119Y-126.238
X195.072Y-116.078
X195.072Y-126.238
T5
X194.691Y-132.905
X197.231Y-132.905
T6
X109.984Y-139.628
X109.984Y-144.708
X112.524Y-139.628
X112.524Y-144.708
X115.064Y-139.628
X115.064Y-144.708
X117.604Y-139.628
X117.604Y-144.708
X120.144Y-139.628
X120.144Y-144.708
X122.684Y-139.628
X122.684Y-144.708
X125.224Y-139.628
X125.224Y-144.708
X127.764Y-139.628
X127.764Y-144.708
X130.304Y-139.628
X130.304Y-144.708
X132.844Y-139.628
X132.844Y-144.708
X135.384Y-139.628
X135.384Y-144.708
X137.924Y-139.628
X137.924Y-144.708
X140.464Y-139.628
X140.464Y-144.708
X143.004Y-139.628
X143.004Y-144.708
X145.544Y-139.628
X145.544Y-144.708
X148.084Y-139.628
X148.084Y-144.708
X150.624Y-139.628
X150.624Y-144.708
X153.164Y-139.628
X153.164Y-144.708
X155.704Y-139.628
X155.704Y-144.708
X158.244Y-139.628
X158.244Y-144.708
X160.784Y-139.628
X160.784Y-144.708
X163.324Y-139.628
X163.324Y-144.708
X164.846Y-107.696
X165.864Y-139.628
X165.864Y-144.708
X167.386Y-107.696
X168.404Y-139.628
X168.404Y-144.708
X169.926Y-107.696
X170.944Y-139.628
X170.944Y-144.708
X172.466Y-107.696
X173.484Y-139.628
X173.484Y-144.708
X175.006Y-107.696
X176.024Y-139.628
X176.024Y-144.708
X177.546Y-70.358
X177.546Y-107.696
X177.8Y-57.912
X178.564Y-139.628
X178.564Y-144.708
X181.104Y-139.628
X181.104Y-144.708
X182.546Y-70.358
X182.8Y-57.912
X183.644Y-139.628
X183.644Y-144.708
X186.184Y-139.628
X186.184Y-144.708
X188.724Y-139.628
X188.724Y-144.708
T7
X106.426Y-100.139
X106.426Y-105.139
X116.078Y-100.266
X116.078Y-105.266
X166.45Y-57.912
X166.45Y-70.358
X171.45Y-57.912
X171.45Y-70.358
X191.088Y-61.294
X191.088Y-66.294
X191.088Y-71.294
X196.088Y-61.294
X196.088Y-66.294
X196.088Y-71.294
T2
X191.07Y-87.573G85X190.17Y-87.573
G05
X191.07Y-97.573G85X190.17Y-97.573
G05
X195.62Y-93.023G85X195.62Y-92.123
G05
T0
M30
