%TF.GenerationSoftware,KiCad,Pcbnew,7.0.9*%
%TF.CreationDate,2024-02-05T15:13:05+00:00*%
%TF.ProjectId,AudioYM2151,41756469-6f59-44d3-9231-35312e6b6963,rev?*%
%TF.SameCoordinates,Original*%
%TF.FileFunction,Drillmap*%
%TF.FilePolarity,Positive*%
%FSLAX45Y45*%
G04 Gerber Fmt 4.5, Leading zero omitted, Abs format (unit mm)*
G04 Created by KiCad (PCBNEW 7.0.9) date 2024-02-05 15:13:05*
%MOMM*%
%LPD*%
G01*
G04 APERTURE LIST*
%ADD10C,0.050000*%
%ADD11C,0.200000*%
%ADD12C,0.100000*%
%ADD13C,0.130000*%
G04 APERTURE END LIST*
D10*
X19800000Y-9500000D02*
X20000000Y-9500000D01*
X20000000Y-5250000D02*
X20000000Y-9000000D01*
X10000000Y-14750000D02*
X10000000Y-5250000D01*
X20000000Y-9000000D02*
X19800000Y-9000000D01*
X10250000Y-5000000D02*
G75*
G03*
X10000000Y-5250000I0J-250000D01*
G01*
X20000000Y-5250000D02*
G75*
G03*
X19750000Y-5000000I-250000J0D01*
G01*
X10250000Y-5000000D02*
X19750000Y-5000000D01*
X10250000Y-15000000D02*
X19750000Y-15000000D01*
X19750000Y-15000000D02*
G75*
G03*
X20000000Y-14750000I0J250000D01*
G01*
X10000000Y-14750000D02*
G75*
G03*
X10250000Y-15000000I250000J0D01*
G01*
X20000000Y-9500000D02*
X20000000Y-14750000D01*
X19800000Y-9000000D02*
X19800000Y-9500000D01*
D11*
D12*
X11232200Y-13010200D02*
X11272200Y-13050200D01*
X11272200Y-13010200D02*
X11232200Y-13050200D01*
X11867200Y-13010200D02*
X11907200Y-13050200D01*
X11907200Y-13010200D02*
X11867200Y-13050200D01*
X12045000Y-8463600D02*
X12085000Y-8503600D01*
X12085000Y-8463600D02*
X12045000Y-8503600D01*
X12375199Y-13035600D02*
X12415199Y-13075600D01*
X12415199Y-13035600D02*
X12375199Y-13075600D01*
X12375200Y-8184200D02*
X12415200Y-8224200D01*
X12415200Y-8184200D02*
X12375200Y-8224200D01*
X12502200Y-11994200D02*
X12542200Y-12034200D01*
X12542200Y-11994200D02*
X12502200Y-12034200D01*
X12629200Y-8082600D02*
X12669200Y-8122600D01*
X12669200Y-8082600D02*
X12629200Y-8122600D01*
X12730800Y-12426000D02*
X12770800Y-12466000D01*
X12770800Y-12426000D02*
X12730800Y-12466000D01*
X12857801Y-7854000D02*
X12897801Y-7894000D01*
X12897801Y-7854000D02*
X12857801Y-7894000D01*
X12934000Y-8616000D02*
X12974000Y-8656000D01*
X12974000Y-8616000D02*
X12934000Y-8656000D01*
X12934000Y-9886000D02*
X12974000Y-9926000D01*
X12974000Y-9886000D02*
X12934000Y-9926000D01*
X12934000Y-12705400D02*
X12974000Y-12745400D01*
X12974000Y-12705400D02*
X12934000Y-12745400D01*
X13010200Y-7650800D02*
X13050200Y-7690800D01*
X13050200Y-7650800D02*
X13010200Y-7690800D01*
X13061000Y-8336600D02*
X13101000Y-8376600D01*
X13101000Y-8336600D02*
X13061000Y-8376600D01*
X13061000Y-12883200D02*
X13101000Y-12923200D01*
X13101000Y-12883200D02*
X13061000Y-12923200D01*
X13315000Y-8184200D02*
X13355000Y-8224200D01*
X13355000Y-8184200D02*
X13315000Y-8224200D01*
X13315000Y-10648000D02*
X13355000Y-10688000D01*
X13355000Y-10648000D02*
X13315000Y-10688000D01*
X13315000Y-12426000D02*
X13355000Y-12466000D01*
X13355000Y-12426000D02*
X13315000Y-12466000D01*
X13569000Y-8082600D02*
X13609000Y-8122600D01*
X13609000Y-8082600D02*
X13569000Y-8122600D01*
X13823000Y-7955600D02*
X13863000Y-7995600D01*
X13863000Y-7955600D02*
X13823000Y-7995600D01*
X13823000Y-9098600D02*
X13863000Y-9138600D01*
X13863000Y-9098600D02*
X13823000Y-9138600D01*
X13873800Y-12883200D02*
X13913800Y-12923200D01*
X13913800Y-12883200D02*
X13873800Y-12923200D01*
X14204000Y-10648000D02*
X14244000Y-10688000D01*
X14244000Y-10648000D02*
X14204000Y-10688000D01*
X14331000Y-13518200D02*
X14371000Y-13558200D01*
X14371000Y-13518200D02*
X14331000Y-13558200D01*
X14407200Y-14204000D02*
X14447200Y-14244000D01*
X14447200Y-14204000D02*
X14407200Y-14244000D01*
X15093000Y-13061000D02*
X15133000Y-13101000D01*
X15133000Y-13061000D02*
X15093000Y-13101000D01*
X15931200Y-11791000D02*
X15971200Y-11831000D01*
X15971200Y-11791000D02*
X15931200Y-11831000D01*
X16083600Y-13061000D02*
X16123600Y-13101000D01*
X16123600Y-13061000D02*
X16083600Y-13101000D01*
X16185200Y-11359200D02*
X16225200Y-11399200D01*
X16225200Y-11359200D02*
X16185200Y-11399200D01*
X16464600Y-11791000D02*
X16504600Y-11831000D01*
X16504600Y-11791000D02*
X16464600Y-11831000D01*
X16464600Y-12654600D02*
X16504600Y-12694600D01*
X16504600Y-12654600D02*
X16464600Y-12694600D01*
X16490000Y-11613200D02*
X16530000Y-11653200D01*
X16530000Y-11613200D02*
X16490000Y-11653200D01*
X16515400Y-12502200D02*
X16555400Y-12542200D01*
X16555400Y-12502200D02*
X16515400Y-12542200D01*
X16625000Y-6677600D02*
X16665000Y-6717600D01*
X16665000Y-6677600D02*
X16625000Y-6717600D01*
X16693200Y-12578400D02*
X16733200Y-12618400D01*
X16733200Y-12578400D02*
X16693200Y-12618400D01*
X16794800Y-12146600D02*
X16834800Y-12186600D01*
X16834800Y-12146600D02*
X16794800Y-12186600D01*
X16921800Y-11664000D02*
X16961800Y-11704000D01*
X16961800Y-11664000D02*
X16921800Y-11704000D01*
X16947200Y-12578400D02*
X16987200Y-12618400D01*
X16987200Y-12578400D02*
X16947200Y-12618400D01*
X17099600Y-11740200D02*
X17139600Y-11780200D01*
X17139600Y-11740200D02*
X17099600Y-11780200D01*
X17150400Y-12146600D02*
X17190400Y-12186600D01*
X17190400Y-12146600D02*
X17150400Y-12186600D01*
X17150400Y-12578400D02*
X17190400Y-12618400D01*
X17190400Y-12578400D02*
X17150400Y-12618400D01*
X17379000Y-12222800D02*
X17419000Y-12262800D01*
X17419000Y-12222800D02*
X17379000Y-12262800D01*
X17404400Y-11841800D02*
X17444400Y-11881800D01*
X17444400Y-11841800D02*
X17404400Y-11881800D01*
X17455200Y-12375200D02*
X17495200Y-12415200D01*
X17495200Y-12375200D02*
X17455200Y-12415200D01*
X17658400Y-11029000D02*
X17698400Y-11069000D01*
X17698400Y-11029000D02*
X17658400Y-11069000D01*
X17734600Y-12883200D02*
X17774600Y-12923200D01*
X17774600Y-12883200D02*
X17734600Y-12923200D01*
X18014000Y-11587800D02*
X18054000Y-11627800D01*
X18054000Y-11587800D02*
X18014000Y-11627800D01*
X19097000Y-8757300D02*
G75*
G03*
X19097000Y-8757300I-35000J0D01*
G01*
X19107000Y-8722300D02*
X19017000Y-8722300D01*
X19017000Y-8722300D02*
G75*
G03*
X19017000Y-8792300I0J-35000D01*
G01*
X19017000Y-8792300D02*
X19107000Y-8792300D01*
X19107000Y-8792300D02*
G75*
G03*
X19107000Y-8722300I0J35000D01*
G01*
X19097000Y-9757300D02*
G75*
G03*
X19097000Y-9757300I-35000J0D01*
G01*
X19107000Y-9722300D02*
X19017000Y-9722300D01*
X19017000Y-9722300D02*
G75*
G03*
X19017000Y-9792300I0J-35000D01*
G01*
X19017000Y-9792300D02*
X19107000Y-9792300D01*
X19107000Y-9792300D02*
G75*
G03*
X19107000Y-9722300I0J35000D01*
G01*
X19597000Y-9257300D02*
G75*
G03*
X19597000Y-9257300I-35000J0D01*
G01*
X19597000Y-9302300D02*
X19597000Y-9212300D01*
X19597000Y-9212300D02*
G75*
G03*
X19527000Y-9212300I-35000J0D01*
G01*
X19527000Y-9212300D02*
X19527000Y-9302300D01*
X19527000Y-9302300D02*
G75*
G03*
X19597000Y-9302300I35000J0D01*
G01*
X18783300Y-13253050D02*
X18783300Y-13328050D01*
X18745800Y-13290550D02*
X18820800Y-13290550D01*
X18910300Y-13126050D02*
X18910300Y-13201050D01*
X18872800Y-13163550D02*
X18947800Y-13163550D01*
X19037300Y-13253050D02*
X19037300Y-13328050D01*
X18999800Y-13290550D02*
X19074800Y-13290550D01*
X10594685Y-6661684D02*
X10594685Y-6605115D01*
X10538116Y-6605115D01*
X10538116Y-6661684D01*
X10594685Y-6661684D01*
X10594685Y-6911684D02*
X10594685Y-6855115D01*
X10538116Y-6855115D01*
X10538116Y-6911684D01*
X10594685Y-6911684D01*
X10747085Y-6048084D02*
X10747085Y-5991515D01*
X10690516Y-5991515D01*
X10690516Y-6048084D01*
X10747085Y-6048084D01*
X10797885Y-9303285D02*
X10797885Y-9246716D01*
X10741316Y-9246716D01*
X10741316Y-9303285D01*
X10797885Y-9303285D01*
X10797885Y-9553285D02*
X10797885Y-9496716D01*
X10741316Y-9496716D01*
X10741316Y-9553285D01*
X10797885Y-9553285D01*
X10848685Y-11026485D02*
X10848685Y-10969916D01*
X10792116Y-10969916D01*
X10792116Y-11026485D01*
X10848685Y-11026485D01*
X10848685Y-11276484D02*
X10848685Y-11219915D01*
X10792116Y-11219915D01*
X10792116Y-11276484D01*
X10848685Y-11276484D01*
X10997085Y-6048084D02*
X10997085Y-5991515D01*
X10940516Y-5991515D01*
X10940516Y-6048084D01*
X10997085Y-6048084D01*
X11005085Y-12220284D02*
X11005085Y-12163715D01*
X10948516Y-12163715D01*
X10948516Y-12220284D01*
X11005085Y-12220284D01*
X11026485Y-12550484D02*
X11026485Y-12493915D01*
X10969916Y-12493915D01*
X10969916Y-12550484D01*
X11026485Y-12550484D01*
X11026485Y-13312484D02*
X11026485Y-13255915D01*
X10969916Y-13255915D01*
X10969916Y-13312484D01*
X11026485Y-13312484D01*
X11077285Y-7876884D02*
X11077285Y-7820315D01*
X11020716Y-7820315D01*
X11020716Y-7876884D01*
X11077285Y-7876884D01*
X11153485Y-6403684D02*
X11153485Y-6347115D01*
X11096916Y-6347115D01*
X11096916Y-6403684D01*
X11153485Y-6403684D01*
X11153485Y-7165684D02*
X11153485Y-7109115D01*
X11096916Y-7109115D01*
X11096916Y-7165684D01*
X11153485Y-7165684D01*
X11255084Y-12220284D02*
X11255084Y-12163715D01*
X11198515Y-12163715D01*
X11198515Y-12220284D01*
X11255084Y-12220284D01*
X11280484Y-12550484D02*
X11280484Y-12493915D01*
X11223915Y-12493915D01*
X11223915Y-12550484D01*
X11280484Y-12550484D01*
X11280484Y-13312484D02*
X11280484Y-13255915D01*
X11223915Y-13255915D01*
X11223915Y-13312484D01*
X11280484Y-13312484D01*
X11407484Y-6403684D02*
X11407484Y-6347115D01*
X11350915Y-6347115D01*
X11350915Y-6403684D01*
X11407484Y-6403684D01*
X11407484Y-7165684D02*
X11407484Y-7109115D01*
X11350915Y-7109115D01*
X11350915Y-7165684D01*
X11407484Y-7165684D01*
X11411484Y-6048084D02*
X11411484Y-5991515D01*
X11354915Y-5991515D01*
X11354915Y-6048084D01*
X11411484Y-6048084D01*
X11432884Y-9299285D02*
X11432884Y-9242716D01*
X11376315Y-9242716D01*
X11376315Y-9299285D01*
X11432884Y-9299285D01*
X11432884Y-9549285D02*
X11432884Y-9492716D01*
X11376315Y-9492716D01*
X11376315Y-9549285D01*
X11432884Y-9549285D01*
X11436884Y-8384884D02*
X11436884Y-8328315D01*
X11380315Y-8328315D01*
X11380315Y-8384884D01*
X11436884Y-8384884D01*
X11509084Y-11026485D02*
X11509084Y-10969916D01*
X11452515Y-10969916D01*
X11452515Y-11026485D01*
X11509084Y-11026485D01*
X11509084Y-11276484D02*
X11509084Y-11219915D01*
X11452515Y-11219915D01*
X11452515Y-11276484D01*
X11509084Y-11276484D01*
X11534484Y-12550484D02*
X11534484Y-12493915D01*
X11477915Y-12493915D01*
X11477915Y-12550484D01*
X11534484Y-12550484D01*
X11534484Y-13312484D02*
X11534484Y-13255915D01*
X11477915Y-13255915D01*
X11477915Y-13312484D01*
X11534484Y-13312484D01*
X11661484Y-6048084D02*
X11661484Y-5991515D01*
X11604915Y-5991515D01*
X11604915Y-6048084D01*
X11661484Y-6048084D01*
X11661484Y-6403684D02*
X11661484Y-6347115D01*
X11604915Y-6347115D01*
X11604915Y-6403684D01*
X11661484Y-6403684D01*
X11661484Y-7165684D02*
X11661484Y-7109115D01*
X11604915Y-7109115D01*
X11604915Y-7165684D01*
X11661484Y-7165684D01*
X11686884Y-8384884D02*
X11686884Y-8328315D01*
X11630315Y-8328315D01*
X11630315Y-8384884D01*
X11686884Y-8384884D01*
X11788484Y-12550484D02*
X11788484Y-12493915D01*
X11731915Y-12493915D01*
X11731915Y-12550484D01*
X11788484Y-12550484D01*
X11788484Y-13312484D02*
X11788484Y-13255915D01*
X11731915Y-13255915D01*
X11731915Y-13312484D01*
X11788484Y-13312484D01*
X11915484Y-6403684D02*
X11915484Y-6347115D01*
X11858915Y-6347115D01*
X11858915Y-6403684D01*
X11915484Y-6403684D01*
X11915484Y-7165684D02*
X11915484Y-7109115D01*
X11858915Y-7109115D01*
X11858915Y-7165684D01*
X11915484Y-7165684D01*
X12042484Y-6048084D02*
X12042484Y-5991515D01*
X11985915Y-5991515D01*
X11985915Y-6048084D01*
X12042484Y-6048084D01*
X12042484Y-12550484D02*
X12042484Y-12493915D01*
X11985915Y-12493915D01*
X11985915Y-12550484D01*
X12042484Y-12550484D01*
X12042484Y-13312484D02*
X12042484Y-13255915D01*
X11985915Y-13255915D01*
X11985915Y-13312484D01*
X12042484Y-13312484D01*
X12093284Y-7876884D02*
X12093284Y-7820315D01*
X12036715Y-7820315D01*
X12036715Y-7876884D01*
X12093284Y-7876884D01*
X12169484Y-6403684D02*
X12169484Y-6347115D01*
X12112915Y-6347115D01*
X12112915Y-6403684D01*
X12169484Y-6403684D01*
X12169484Y-7165684D02*
X12169484Y-7109115D01*
X12112915Y-7109115D01*
X12112915Y-7165684D01*
X12169484Y-7165684D01*
X12292484Y-6048084D02*
X12292484Y-5991515D01*
X12235915Y-5991515D01*
X12235915Y-6048084D01*
X12292484Y-6048084D01*
X12296484Y-12550484D02*
X12296484Y-12493915D01*
X12239915Y-12493915D01*
X12239915Y-12550484D01*
X12296484Y-12550484D01*
X12296484Y-13312484D02*
X12296484Y-13255915D01*
X12239915Y-13255915D01*
X12239915Y-13312484D01*
X12296484Y-13312484D01*
X12372684Y-8765885D02*
X12372684Y-8709316D01*
X12316115Y-8709316D01*
X12316115Y-8765885D01*
X12372684Y-8765885D01*
X12372684Y-9019885D02*
X12372684Y-8963316D01*
X12316115Y-8963316D01*
X12316115Y-9019885D01*
X12372684Y-9019885D01*
X12372684Y-9273885D02*
X12372684Y-9217316D01*
X12316115Y-9217316D01*
X12316115Y-9273885D01*
X12372684Y-9273885D01*
X12372684Y-9527885D02*
X12372684Y-9471316D01*
X12316115Y-9471316D01*
X12316115Y-9527885D01*
X12372684Y-9527885D01*
X12372684Y-9781885D02*
X12372684Y-9725316D01*
X12316115Y-9725316D01*
X12316115Y-9781885D01*
X12372684Y-9781885D01*
X12372684Y-10035885D02*
X12372684Y-9979316D01*
X12316115Y-9979316D01*
X12316115Y-10035885D01*
X12372684Y-10035885D01*
X12423484Y-6403684D02*
X12423484Y-6347115D01*
X12366915Y-6347115D01*
X12366915Y-6403684D01*
X12423484Y-6403684D01*
X12423484Y-7165684D02*
X12423484Y-7109115D01*
X12366915Y-7109115D01*
X12366915Y-7165684D01*
X12423484Y-7165684D01*
X12423484Y-10497085D02*
X12423484Y-10440516D01*
X12366915Y-10440516D01*
X12366915Y-10497085D01*
X12423484Y-10497085D01*
X12423484Y-10747085D02*
X12423484Y-10690516D01*
X12366915Y-10690516D01*
X12366915Y-10747085D01*
X12423484Y-10747085D01*
X12423484Y-11458284D02*
X12423484Y-11401715D01*
X12366915Y-11401715D01*
X12366915Y-11458284D01*
X12423484Y-11458284D01*
X12423484Y-11708284D02*
X12423484Y-11651715D01*
X12366915Y-11651715D01*
X12366915Y-11708284D01*
X12423484Y-11708284D01*
X12427484Y-7546684D02*
X12427484Y-7490115D01*
X12370915Y-7490115D01*
X12370915Y-7546684D01*
X12427484Y-7546684D01*
X12550484Y-12550484D02*
X12550484Y-12493915D01*
X12493915Y-12493915D01*
X12493915Y-12550484D01*
X12550484Y-12550484D01*
X12550484Y-13312484D02*
X12550484Y-13255915D01*
X12493915Y-13255915D01*
X12493915Y-13312484D01*
X12550484Y-13312484D01*
X12677484Y-6048084D02*
X12677484Y-5991515D01*
X12620915Y-5991515D01*
X12620915Y-6048084D01*
X12677484Y-6048084D01*
X12677484Y-6403684D02*
X12677484Y-6347115D01*
X12620915Y-6347115D01*
X12620915Y-6403684D01*
X12677484Y-6403684D01*
X12677484Y-7165684D02*
X12677484Y-7109115D01*
X12620915Y-7109115D01*
X12620915Y-7165684D01*
X12677484Y-7165684D01*
X12677484Y-7546684D02*
X12677484Y-7490115D01*
X12620915Y-7490115D01*
X12620915Y-7546684D01*
X12677484Y-7546684D01*
X12855284Y-8905585D02*
X12855284Y-8849016D01*
X12798715Y-8849016D01*
X12798715Y-8905585D01*
X12855284Y-8905585D01*
X12855284Y-9667585D02*
X12855284Y-9611016D01*
X12798715Y-9611016D01*
X12798715Y-9667585D01*
X12855284Y-9667585D01*
X12855284Y-10302585D02*
X12855284Y-10246016D01*
X12798715Y-10246016D01*
X12798715Y-10302585D01*
X12855284Y-10302585D01*
X12855284Y-11826584D02*
X12855284Y-11770015D01*
X12798715Y-11770015D01*
X12798715Y-11826584D01*
X12855284Y-11826584D01*
X12927484Y-6048084D02*
X12927484Y-5991515D01*
X12870915Y-5991515D01*
X12870915Y-6048084D01*
X12927484Y-6048084D01*
X12960884Y-13312484D02*
X12960884Y-13255915D01*
X12904315Y-13255915D01*
X12904315Y-13312484D01*
X12960884Y-13312484D01*
X13109284Y-8905585D02*
X13109284Y-8849016D01*
X13052715Y-8849016D01*
X13052715Y-8905585D01*
X13109284Y-8905585D01*
X13109284Y-9667585D02*
X13109284Y-9611016D01*
X13052715Y-9611016D01*
X13052715Y-9667585D01*
X13109284Y-9667585D01*
X13109284Y-10302585D02*
X13109284Y-10246016D01*
X13052715Y-10246016D01*
X13052715Y-10302585D01*
X13109284Y-10302585D01*
X13109284Y-11826584D02*
X13109284Y-11770015D01*
X13052715Y-11770015D01*
X13052715Y-11826584D01*
X13109284Y-11826584D01*
X13210884Y-13312484D02*
X13210884Y-13255915D01*
X13154315Y-13255915D01*
X13154315Y-13312484D01*
X13210884Y-13312484D01*
X13363284Y-6309284D02*
X13363284Y-6252715D01*
X13306715Y-6252715D01*
X13306715Y-6309284D01*
X13363284Y-6309284D01*
X13363284Y-6559284D02*
X13363284Y-6502715D01*
X13306715Y-6502715D01*
X13306715Y-6559284D01*
X13363284Y-6559284D01*
X13363284Y-6937084D02*
X13363284Y-6880515D01*
X13306715Y-6880515D01*
X13306715Y-6937084D01*
X13363284Y-6937084D01*
X13363284Y-7187084D02*
X13363284Y-7130515D01*
X13306715Y-7130515D01*
X13306715Y-7187084D01*
X13363284Y-7187084D01*
X13363284Y-8905585D02*
X13363284Y-8849016D01*
X13306715Y-8849016D01*
X13306715Y-8905585D01*
X13363284Y-8905585D01*
X13363284Y-9667585D02*
X13363284Y-9611016D01*
X13306715Y-9611016D01*
X13306715Y-9667585D01*
X13363284Y-9667585D01*
X13363284Y-10302585D02*
X13363284Y-10246016D01*
X13306715Y-10246016D01*
X13306715Y-10302585D01*
X13363284Y-10302585D01*
X13363284Y-11826584D02*
X13363284Y-11770015D01*
X13306715Y-11770015D01*
X13306715Y-11826584D01*
X13363284Y-11826584D01*
X13570484Y-13312484D02*
X13570484Y-13255915D01*
X13513915Y-13255915D01*
X13513915Y-13312484D01*
X13570484Y-13312484D01*
X13617284Y-8905585D02*
X13617284Y-8849016D01*
X13560715Y-8849016D01*
X13560715Y-8905585D01*
X13617284Y-8905585D01*
X13617284Y-9667585D02*
X13617284Y-9611016D01*
X13560715Y-9611016D01*
X13560715Y-9667585D01*
X13617284Y-9667585D01*
X13617284Y-10302585D02*
X13617284Y-10246016D01*
X13560715Y-10246016D01*
X13560715Y-10302585D01*
X13617284Y-10302585D01*
X13617284Y-11826584D02*
X13617284Y-11770015D01*
X13560715Y-11770015D01*
X13560715Y-11826584D01*
X13617284Y-11826584D01*
X13820484Y-13312484D02*
X13820484Y-13255915D01*
X13763915Y-13255915D01*
X13763915Y-13312484D01*
X13820484Y-13312484D01*
X13871284Y-6403684D02*
X13871284Y-6347115D01*
X13814715Y-6347115D01*
X13814715Y-6403684D01*
X13871284Y-6403684D01*
X13871284Y-7165684D02*
X13871284Y-7109115D01*
X13814715Y-7109115D01*
X13814715Y-7165684D01*
X13871284Y-7165684D01*
X13871284Y-8905585D02*
X13871284Y-8849016D01*
X13814715Y-8849016D01*
X13814715Y-8905585D01*
X13871284Y-8905585D01*
X13871284Y-9667585D02*
X13871284Y-9611016D01*
X13814715Y-9611016D01*
X13814715Y-9667585D01*
X13871284Y-9667585D01*
X13871284Y-10302585D02*
X13871284Y-10246016D01*
X13814715Y-10246016D01*
X13814715Y-10302585D01*
X13871284Y-10302585D01*
X13871284Y-11826584D02*
X13871284Y-11770015D01*
X13814715Y-11770015D01*
X13814715Y-11826584D01*
X13871284Y-11826584D01*
X13926084Y-5819484D02*
X13926084Y-5762915D01*
X13869515Y-5762915D01*
X13869515Y-5819484D01*
X13926084Y-5819484D01*
X14125284Y-6403684D02*
X14125284Y-6347115D01*
X14068715Y-6347115D01*
X14068715Y-6403684D01*
X14125284Y-6403684D01*
X14125284Y-7165684D02*
X14125284Y-7109115D01*
X14068715Y-7109115D01*
X14068715Y-7165684D01*
X14125284Y-7165684D01*
X14125284Y-8905585D02*
X14125284Y-8849016D01*
X14068715Y-8849016D01*
X14068715Y-8905585D01*
X14125284Y-8905585D01*
X14125284Y-9667585D02*
X14125284Y-9611016D01*
X14068715Y-9611016D01*
X14068715Y-9667585D01*
X14125284Y-9667585D01*
X14125284Y-10302585D02*
X14125284Y-10246016D01*
X14068715Y-10246016D01*
X14068715Y-10302585D01*
X14125284Y-10302585D01*
X14125284Y-11826584D02*
X14125284Y-11770015D01*
X14068715Y-11770015D01*
X14068715Y-11826584D01*
X14125284Y-11826584D01*
X14129284Y-7546684D02*
X14129284Y-7490115D01*
X14072715Y-7490115D01*
X14072715Y-7546684D01*
X14129284Y-7546684D01*
X14176084Y-5819484D02*
X14176084Y-5762915D01*
X14119515Y-5762915D01*
X14119515Y-5819484D01*
X14176084Y-5819484D01*
X14379284Y-6403684D02*
X14379284Y-6347115D01*
X14322715Y-6347115D01*
X14322715Y-6403684D01*
X14379284Y-6403684D01*
X14379284Y-7165684D02*
X14379284Y-7109115D01*
X14322715Y-7109115D01*
X14322715Y-7165684D01*
X14379284Y-7165684D01*
X14379284Y-7546684D02*
X14379284Y-7490115D01*
X14322715Y-7490115D01*
X14322715Y-7546684D01*
X14379284Y-7546684D01*
X14379284Y-8905585D02*
X14379284Y-8849016D01*
X14322715Y-8849016D01*
X14322715Y-8905585D01*
X14379284Y-8905585D01*
X14379284Y-9667585D02*
X14379284Y-9611016D01*
X14322715Y-9611016D01*
X14322715Y-9667585D01*
X14379284Y-9667585D01*
X14379284Y-10302585D02*
X14379284Y-10246016D01*
X14322715Y-10246016D01*
X14322715Y-10302585D01*
X14379284Y-10302585D01*
X14379284Y-11826584D02*
X14379284Y-11770015D01*
X14322715Y-11770015D01*
X14322715Y-11826584D01*
X14379284Y-11826584D01*
X14561084Y-5819484D02*
X14561084Y-5762915D01*
X14504515Y-5762915D01*
X14504515Y-5819484D01*
X14561084Y-5819484D01*
X14633284Y-6403684D02*
X14633284Y-6347115D01*
X14576715Y-6347115D01*
X14576715Y-6403684D01*
X14633284Y-6403684D01*
X14633284Y-7165684D02*
X14633284Y-7109115D01*
X14576715Y-7109115D01*
X14576715Y-7165684D01*
X14633284Y-7165684D01*
X14633284Y-8905585D02*
X14633284Y-8849016D01*
X14576715Y-8849016D01*
X14576715Y-8905585D01*
X14633284Y-8905585D01*
X14633284Y-9667585D02*
X14633284Y-9611016D01*
X14576715Y-9611016D01*
X14576715Y-9667585D01*
X14633284Y-9667585D01*
X14633284Y-10302585D02*
X14633284Y-10246016D01*
X14576715Y-10246016D01*
X14576715Y-10302585D01*
X14633284Y-10302585D01*
X14633284Y-11826584D02*
X14633284Y-11770015D01*
X14576715Y-11770015D01*
X14576715Y-11826584D01*
X14633284Y-11826584D01*
X14811084Y-5819484D02*
X14811084Y-5762915D01*
X14754515Y-5762915D01*
X14754515Y-5819484D01*
X14811084Y-5819484D01*
X14887284Y-6403684D02*
X14887284Y-6347115D01*
X14830715Y-6347115D01*
X14830715Y-6403684D01*
X14887284Y-6403684D01*
X14887284Y-7165684D02*
X14887284Y-7109115D01*
X14830715Y-7109115D01*
X14830715Y-7165684D01*
X14887284Y-7165684D01*
X14887284Y-10302585D02*
X14887284Y-10246016D01*
X14830715Y-10246016D01*
X14830715Y-10302585D01*
X14887284Y-10302585D01*
X14887284Y-11826584D02*
X14887284Y-11770015D01*
X14830715Y-11770015D01*
X14830715Y-11826584D01*
X14887284Y-11826584D01*
X15039684Y-7572084D02*
X15039684Y-7515515D01*
X14983115Y-7515515D01*
X14983115Y-7572084D01*
X15039684Y-7572084D01*
X15090484Y-9163585D02*
X15090484Y-9107016D01*
X15033915Y-9107016D01*
X15033915Y-9163585D01*
X15090484Y-9163585D01*
X15090484Y-9413585D02*
X15090484Y-9357016D01*
X15033915Y-9357016D01*
X15033915Y-9413585D01*
X15090484Y-9413585D01*
X15141284Y-6403684D02*
X15141284Y-6347115D01*
X15084715Y-6347115D01*
X15084715Y-6403684D01*
X15141284Y-6403684D01*
X15141284Y-7165684D02*
X15141284Y-7109115D01*
X15084715Y-7109115D01*
X15084715Y-7165684D01*
X15141284Y-7165684D01*
X15141284Y-10302585D02*
X15141284Y-10246016D01*
X15084715Y-10246016D01*
X15084715Y-10302585D01*
X15141284Y-10302585D01*
X15141284Y-11826584D02*
X15141284Y-11770015D01*
X15084715Y-11770015D01*
X15084715Y-11826584D01*
X15141284Y-11826584D01*
X15196084Y-5819484D02*
X15196084Y-5762915D01*
X15139515Y-5762915D01*
X15139515Y-5819484D01*
X15196084Y-5819484D01*
X15289684Y-7572084D02*
X15289684Y-7515515D01*
X15233115Y-7515515D01*
X15233115Y-7572084D01*
X15289684Y-7572084D01*
X15395284Y-6403684D02*
X15395284Y-6347115D01*
X15338715Y-6347115D01*
X15338715Y-6403684D01*
X15395284Y-6403684D01*
X15395284Y-7165684D02*
X15395284Y-7109115D01*
X15338715Y-7109115D01*
X15338715Y-7165684D01*
X15395284Y-7165684D01*
X15395284Y-10302585D02*
X15395284Y-10246016D01*
X15338715Y-10246016D01*
X15338715Y-10302585D01*
X15395284Y-10302585D01*
X15395284Y-11826584D02*
X15395284Y-11770015D01*
X15338715Y-11770015D01*
X15338715Y-11826584D01*
X15395284Y-11826584D01*
X15446084Y-5819484D02*
X15446084Y-5762915D01*
X15389515Y-5762915D01*
X15389515Y-5819484D01*
X15446084Y-5819484D01*
X15649284Y-6403684D02*
X15649284Y-6347115D01*
X15592715Y-6347115D01*
X15592715Y-6403684D01*
X15649284Y-6403684D01*
X15649284Y-7165684D02*
X15649284Y-7109115D01*
X15592715Y-7109115D01*
X15592715Y-7165684D01*
X15649284Y-7165684D01*
X15649284Y-10302585D02*
X15649284Y-10246016D01*
X15592715Y-10246016D01*
X15592715Y-10302585D01*
X15649284Y-10302585D01*
X15649284Y-11826584D02*
X15649284Y-11770015D01*
X15592715Y-11770015D01*
X15592715Y-11826584D01*
X15649284Y-11826584D01*
X15653284Y-7572084D02*
X15653284Y-7515515D01*
X15596715Y-7515515D01*
X15596715Y-7572084D01*
X15653284Y-7572084D01*
X15831084Y-5819484D02*
X15831084Y-5762915D01*
X15774515Y-5762915D01*
X15774515Y-5819484D01*
X15831084Y-5819484D01*
X15903284Y-6403684D02*
X15903284Y-6347115D01*
X15846715Y-6347115D01*
X15846715Y-6403684D01*
X15903284Y-6403684D01*
X15903284Y-7165684D02*
X15903284Y-7109115D01*
X15846715Y-7109115D01*
X15846715Y-7165684D01*
X15903284Y-7165684D01*
X15903284Y-7572084D02*
X15903284Y-7515515D01*
X15846715Y-7515515D01*
X15846715Y-7572084D01*
X15903284Y-7572084D01*
X16081084Y-5819484D02*
X16081084Y-5762915D01*
X16024515Y-5762915D01*
X16024515Y-5819484D01*
X16081084Y-5819484D01*
X16157284Y-6403684D02*
X16157284Y-6347115D01*
X16100715Y-6347115D01*
X16100715Y-6403684D01*
X16157284Y-6403684D01*
X16157284Y-7165684D02*
X16157284Y-7109115D01*
X16100715Y-7109115D01*
X16100715Y-7165684D01*
X16157284Y-7165684D01*
X16741484Y-8080084D02*
X16741484Y-8023515D01*
X16684915Y-8023515D01*
X16684915Y-8080084D01*
X16741484Y-8080084D01*
X16745484Y-8588085D02*
X16745484Y-8531516D01*
X16688915Y-8531516D01*
X16688915Y-8588085D01*
X16745484Y-8588085D01*
X16991485Y-8080084D02*
X16991485Y-8023515D01*
X16934916Y-8023515D01*
X16934916Y-8080084D01*
X16991485Y-8080084D01*
X16995485Y-8588085D02*
X16995485Y-8531516D01*
X16938916Y-8531516D01*
X16938916Y-8588085D01*
X16995485Y-8588085D01*
X17325685Y-8080084D02*
X17325685Y-8023515D01*
X17269116Y-8023515D01*
X17269116Y-8080084D01*
X17325685Y-8080084D01*
X17325685Y-8588085D02*
X17325685Y-8531516D01*
X17269116Y-8531516D01*
X17269116Y-8588085D01*
X17325685Y-8588085D01*
X17888485Y-11331284D02*
X17888485Y-11274715D01*
X17831916Y-11274715D01*
X17831916Y-11331284D01*
X17888485Y-11331284D01*
X18138485Y-11331284D02*
X18138485Y-11274715D01*
X18081916Y-11274715D01*
X18081916Y-11331284D01*
X18138485Y-11331284D01*
X18341685Y-8080084D02*
X18341685Y-8023515D01*
X18285116Y-8023515D01*
X18285116Y-8080084D01*
X18341685Y-8080084D01*
X18341685Y-8588085D02*
X18341685Y-8531516D01*
X18285116Y-8531516D01*
X18285116Y-8588085D01*
X18341685Y-8588085D01*
X19040185Y-11636084D02*
X19040185Y-11579515D01*
X18983616Y-11579515D01*
X18983616Y-11636084D01*
X19040185Y-11636084D01*
X19040185Y-12652084D02*
X19040185Y-12595515D01*
X18983616Y-12595515D01*
X18983616Y-12652084D01*
X19040185Y-12652084D01*
X19535485Y-11636084D02*
X19535485Y-11579515D01*
X19478916Y-11579515D01*
X19478916Y-11636084D01*
X19535485Y-11636084D01*
X19535485Y-12652084D02*
X19535485Y-12595515D01*
X19478916Y-12595515D01*
X19478916Y-12652084D01*
X19535485Y-12652084D01*
X19469100Y-13335550D02*
X19514100Y-13290550D01*
X19469100Y-13245550D01*
X19424100Y-13290550D01*
X19469100Y-13335550D01*
X19723100Y-13335550D02*
X19768100Y-13290550D01*
X19723100Y-13245550D01*
X19678100Y-13290550D01*
X19723100Y-13335550D01*
X10948400Y-13912800D02*
X11048400Y-14012800D01*
X11048400Y-13912800D02*
X10948400Y-14012800D01*
X11048400Y-13962800D02*
G75*
G03*
X11048400Y-13962800I-50000J0D01*
G01*
X10948400Y-14420800D02*
X11048400Y-14520800D01*
X11048400Y-14420800D02*
X10948400Y-14520800D01*
X11048400Y-14470800D02*
G75*
G03*
X11048400Y-14470800I-50000J0D01*
G01*
X11202400Y-13912800D02*
X11302400Y-14012800D01*
X11302400Y-13912800D02*
X11202400Y-14012800D01*
X11302400Y-13962800D02*
G75*
G03*
X11302400Y-13962800I-50000J0D01*
G01*
X11202400Y-14420800D02*
X11302400Y-14520800D01*
X11302400Y-14420800D02*
X11202400Y-14520800D01*
X11302400Y-14470800D02*
G75*
G03*
X11302400Y-14470800I-50000J0D01*
G01*
X11456400Y-13912800D02*
X11556400Y-14012800D01*
X11556400Y-13912800D02*
X11456400Y-14012800D01*
X11556400Y-13962800D02*
G75*
G03*
X11556400Y-13962800I-50000J0D01*
G01*
X11456400Y-14420800D02*
X11556400Y-14520800D01*
X11556400Y-14420800D02*
X11456400Y-14520800D01*
X11556400Y-14470800D02*
G75*
G03*
X11556400Y-14470800I-50000J0D01*
G01*
X11710400Y-13912800D02*
X11810400Y-14012800D01*
X11810400Y-13912800D02*
X11710400Y-14012800D01*
X11810400Y-13962800D02*
G75*
G03*
X11810400Y-13962800I-50000J0D01*
G01*
X11710400Y-14420800D02*
X11810400Y-14520800D01*
X11810400Y-14420800D02*
X11710400Y-14520800D01*
X11810400Y-14470800D02*
G75*
G03*
X11810400Y-14470800I-50000J0D01*
G01*
X11964400Y-13912800D02*
X12064400Y-14012800D01*
X12064400Y-13912800D02*
X11964400Y-14012800D01*
X12064400Y-13962800D02*
G75*
G03*
X12064400Y-13962800I-50000J0D01*
G01*
X11964400Y-14420800D02*
X12064400Y-14520800D01*
X12064400Y-14420800D02*
X11964400Y-14520800D01*
X12064400Y-14470800D02*
G75*
G03*
X12064400Y-14470800I-50000J0D01*
G01*
X12218400Y-13912800D02*
X12318400Y-14012800D01*
X12318400Y-13912800D02*
X12218400Y-14012800D01*
X12318400Y-13962800D02*
G75*
G03*
X12318400Y-13962800I-50000J0D01*
G01*
X12218400Y-14420800D02*
X12318400Y-14520800D01*
X12318400Y-14420800D02*
X12218400Y-14520800D01*
X12318400Y-14470800D02*
G75*
G03*
X12318400Y-14470800I-50000J0D01*
G01*
X12472400Y-13912800D02*
X12572400Y-14012800D01*
X12572400Y-13912800D02*
X12472400Y-14012800D01*
X12572400Y-13962800D02*
G75*
G03*
X12572400Y-13962800I-50000J0D01*
G01*
X12472400Y-14420800D02*
X12572400Y-14520800D01*
X12572400Y-14420800D02*
X12472400Y-14520800D01*
X12572400Y-14470800D02*
G75*
G03*
X12572400Y-14470800I-50000J0D01*
G01*
X12726400Y-13912800D02*
X12826400Y-14012800D01*
X12826400Y-13912800D02*
X12726400Y-14012800D01*
X12826400Y-13962800D02*
G75*
G03*
X12826400Y-13962800I-50000J0D01*
G01*
X12726400Y-14420800D02*
X12826400Y-14520800D01*
X12826400Y-14420800D02*
X12726400Y-14520800D01*
X12826400Y-14470800D02*
G75*
G03*
X12826400Y-14470800I-50000J0D01*
G01*
X12980400Y-13912800D02*
X13080400Y-14012800D01*
X13080400Y-13912800D02*
X12980400Y-14012800D01*
X13080400Y-13962800D02*
G75*
G03*
X13080400Y-13962800I-50000J0D01*
G01*
X12980400Y-14420800D02*
X13080400Y-14520800D01*
X13080400Y-14420800D02*
X12980400Y-14520800D01*
X13080400Y-14470800D02*
G75*
G03*
X13080400Y-14470800I-50000J0D01*
G01*
X13234400Y-13912800D02*
X13334400Y-14012800D01*
X13334400Y-13912800D02*
X13234400Y-14012800D01*
X13334400Y-13962800D02*
G75*
G03*
X13334400Y-13962800I-50000J0D01*
G01*
X13234400Y-14420800D02*
X13334400Y-14520800D01*
X13334400Y-14420800D02*
X13234400Y-14520800D01*
X13334400Y-14470800D02*
G75*
G03*
X13334400Y-14470800I-50000J0D01*
G01*
X13488400Y-13912800D02*
X13588400Y-14012800D01*
X13588400Y-13912800D02*
X13488400Y-14012800D01*
X13588400Y-13962800D02*
G75*
G03*
X13588400Y-13962800I-50000J0D01*
G01*
X13488400Y-14420800D02*
X13588400Y-14520800D01*
X13588400Y-14420800D02*
X13488400Y-14520800D01*
X13588400Y-14470800D02*
G75*
G03*
X13588400Y-14470800I-50000J0D01*
G01*
X13742400Y-13912800D02*
X13842400Y-14012800D01*
X13842400Y-13912800D02*
X13742400Y-14012800D01*
X13842400Y-13962800D02*
G75*
G03*
X13842400Y-13962800I-50000J0D01*
G01*
X13742400Y-14420800D02*
X13842400Y-14520800D01*
X13842400Y-14420800D02*
X13742400Y-14520800D01*
X13842400Y-14470800D02*
G75*
G03*
X13842400Y-14470800I-50000J0D01*
G01*
X13996400Y-13912800D02*
X14096400Y-14012800D01*
X14096400Y-13912800D02*
X13996400Y-14012800D01*
X14096400Y-13962800D02*
G75*
G03*
X14096400Y-13962800I-50000J0D01*
G01*
X13996400Y-14420800D02*
X14096400Y-14520800D01*
X14096400Y-14420800D02*
X13996400Y-14520800D01*
X14096400Y-14470800D02*
G75*
G03*
X14096400Y-14470800I-50000J0D01*
G01*
X14250400Y-13912800D02*
X14350400Y-14012800D01*
X14350400Y-13912800D02*
X14250400Y-14012800D01*
X14350400Y-13962800D02*
G75*
G03*
X14350400Y-13962800I-50000J0D01*
G01*
X14250400Y-14420800D02*
X14350400Y-14520800D01*
X14350400Y-14420800D02*
X14250400Y-14520800D01*
X14350400Y-14470800D02*
G75*
G03*
X14350400Y-14470800I-50000J0D01*
G01*
X14504400Y-13912800D02*
X14604400Y-14012800D01*
X14604400Y-13912800D02*
X14504400Y-14012800D01*
X14604400Y-13962800D02*
G75*
G03*
X14604400Y-13962800I-50000J0D01*
G01*
X14504400Y-14420800D02*
X14604400Y-14520800D01*
X14604400Y-14420800D02*
X14504400Y-14520800D01*
X14604400Y-14470800D02*
G75*
G03*
X14604400Y-14470800I-50000J0D01*
G01*
X14758400Y-13912800D02*
X14858400Y-14012800D01*
X14858400Y-13912800D02*
X14758400Y-14012800D01*
X14858400Y-13962800D02*
G75*
G03*
X14858400Y-13962800I-50000J0D01*
G01*
X14758400Y-14420800D02*
X14858400Y-14520800D01*
X14858400Y-14420800D02*
X14758400Y-14520800D01*
X14858400Y-14470800D02*
G75*
G03*
X14858400Y-14470800I-50000J0D01*
G01*
X15012400Y-13912800D02*
X15112400Y-14012800D01*
X15112400Y-13912800D02*
X15012400Y-14012800D01*
X15112400Y-13962800D02*
G75*
G03*
X15112400Y-13962800I-50000J0D01*
G01*
X15012400Y-14420800D02*
X15112400Y-14520800D01*
X15112400Y-14420800D02*
X15012400Y-14520800D01*
X15112400Y-14470800D02*
G75*
G03*
X15112400Y-14470800I-50000J0D01*
G01*
X15266400Y-13912800D02*
X15366400Y-14012800D01*
X15366400Y-13912800D02*
X15266400Y-14012800D01*
X15366400Y-13962800D02*
G75*
G03*
X15366400Y-13962800I-50000J0D01*
G01*
X15266400Y-14420800D02*
X15366400Y-14520800D01*
X15366400Y-14420800D02*
X15266400Y-14520800D01*
X15366400Y-14470800D02*
G75*
G03*
X15366400Y-14470800I-50000J0D01*
G01*
X15520400Y-13912800D02*
X15620400Y-14012800D01*
X15620400Y-13912800D02*
X15520400Y-14012800D01*
X15620400Y-13962800D02*
G75*
G03*
X15620400Y-13962800I-50000J0D01*
G01*
X15520400Y-14420800D02*
X15620400Y-14520800D01*
X15620400Y-14420800D02*
X15520400Y-14520800D01*
X15620400Y-14470800D02*
G75*
G03*
X15620400Y-14470800I-50000J0D01*
G01*
X15774400Y-13912800D02*
X15874400Y-14012800D01*
X15874400Y-13912800D02*
X15774400Y-14012800D01*
X15874400Y-13962800D02*
G75*
G03*
X15874400Y-13962800I-50000J0D01*
G01*
X15774400Y-14420800D02*
X15874400Y-14520800D01*
X15874400Y-14420800D02*
X15774400Y-14520800D01*
X15874400Y-14470800D02*
G75*
G03*
X15874400Y-14470800I-50000J0D01*
G01*
X16028400Y-13912800D02*
X16128400Y-14012800D01*
X16128400Y-13912800D02*
X16028400Y-14012800D01*
X16128400Y-13962800D02*
G75*
G03*
X16128400Y-13962800I-50000J0D01*
G01*
X16028400Y-14420800D02*
X16128400Y-14520800D01*
X16128400Y-14420800D02*
X16028400Y-14520800D01*
X16128400Y-14470800D02*
G75*
G03*
X16128400Y-14470800I-50000J0D01*
G01*
X16282400Y-13912800D02*
X16382400Y-14012800D01*
X16382400Y-13912800D02*
X16282400Y-14012800D01*
X16382400Y-13962800D02*
G75*
G03*
X16382400Y-13962800I-50000J0D01*
G01*
X16282400Y-14420800D02*
X16382400Y-14520800D01*
X16382400Y-14420800D02*
X16282400Y-14520800D01*
X16382400Y-14470800D02*
G75*
G03*
X16382400Y-14470800I-50000J0D01*
G01*
X16434600Y-10719600D02*
X16534600Y-10819600D01*
X16534600Y-10719600D02*
X16434600Y-10819600D01*
X16534600Y-10769600D02*
G75*
G03*
X16534600Y-10769600I-50000J0D01*
G01*
X16536400Y-13912800D02*
X16636400Y-14012800D01*
X16636400Y-13912800D02*
X16536400Y-14012800D01*
X16636400Y-13962800D02*
G75*
G03*
X16636400Y-13962800I-50000J0D01*
G01*
X16536400Y-14420800D02*
X16636400Y-14520800D01*
X16636400Y-14420800D02*
X16536400Y-14520800D01*
X16636400Y-14470800D02*
G75*
G03*
X16636400Y-14470800I-50000J0D01*
G01*
X16688600Y-10719600D02*
X16788600Y-10819600D01*
X16788600Y-10719600D02*
X16688600Y-10819600D01*
X16788600Y-10769600D02*
G75*
G03*
X16788600Y-10769600I-50000J0D01*
G01*
X16790400Y-13912800D02*
X16890400Y-14012800D01*
X16890400Y-13912800D02*
X16790400Y-14012800D01*
X16890400Y-13962800D02*
G75*
G03*
X16890400Y-13962800I-50000J0D01*
G01*
X16790400Y-14420800D02*
X16890400Y-14520800D01*
X16890400Y-14420800D02*
X16790400Y-14520800D01*
X16890400Y-14470800D02*
G75*
G03*
X16890400Y-14470800I-50000J0D01*
G01*
X16942600Y-10719600D02*
X17042600Y-10819600D01*
X17042600Y-10719600D02*
X16942600Y-10819600D01*
X17042600Y-10769600D02*
G75*
G03*
X17042600Y-10769600I-50000J0D01*
G01*
X17044400Y-13912800D02*
X17144400Y-14012800D01*
X17144400Y-13912800D02*
X17044400Y-14012800D01*
X17144400Y-13962800D02*
G75*
G03*
X17144400Y-13962800I-50000J0D01*
G01*
X17044400Y-14420800D02*
X17144400Y-14520800D01*
X17144400Y-14420800D02*
X17044400Y-14520800D01*
X17144400Y-14470800D02*
G75*
G03*
X17144400Y-14470800I-50000J0D01*
G01*
X17196600Y-10719600D02*
X17296600Y-10819600D01*
X17296600Y-10719600D02*
X17196600Y-10819600D01*
X17296600Y-10769600D02*
G75*
G03*
X17296600Y-10769600I-50000J0D01*
G01*
X17298400Y-13912800D02*
X17398400Y-14012800D01*
X17398400Y-13912800D02*
X17298400Y-14012800D01*
X17398400Y-13962800D02*
G75*
G03*
X17398400Y-13962800I-50000J0D01*
G01*
X17298400Y-14420800D02*
X17398400Y-14520800D01*
X17398400Y-14420800D02*
X17298400Y-14520800D01*
X17398400Y-14470800D02*
G75*
G03*
X17398400Y-14470800I-50000J0D01*
G01*
X17450600Y-10719600D02*
X17550600Y-10819600D01*
X17550600Y-10719600D02*
X17450600Y-10819600D01*
X17550600Y-10769600D02*
G75*
G03*
X17550600Y-10769600I-50000J0D01*
G01*
X17552400Y-13912800D02*
X17652400Y-14012800D01*
X17652400Y-13912800D02*
X17552400Y-14012800D01*
X17652400Y-13962800D02*
G75*
G03*
X17652400Y-13962800I-50000J0D01*
G01*
X17552400Y-14420800D02*
X17652400Y-14520800D01*
X17652400Y-14420800D02*
X17552400Y-14520800D01*
X17652400Y-14470800D02*
G75*
G03*
X17652400Y-14470800I-50000J0D01*
G01*
X17704600Y-6985800D02*
X17804600Y-7085800D01*
X17804600Y-6985800D02*
X17704600Y-7085800D01*
X17804600Y-7035800D02*
G75*
G03*
X17804600Y-7035800I-50000J0D01*
G01*
X17704600Y-10719600D02*
X17804600Y-10819600D01*
X17804600Y-10719600D02*
X17704600Y-10819600D01*
X17804600Y-10769600D02*
G75*
G03*
X17804600Y-10769600I-50000J0D01*
G01*
X17730000Y-5741200D02*
X17830000Y-5841200D01*
X17830000Y-5741200D02*
X17730000Y-5841200D01*
X17830000Y-5791200D02*
G75*
G03*
X17830000Y-5791200I-50000J0D01*
G01*
X17806400Y-13912800D02*
X17906400Y-14012800D01*
X17906400Y-13912800D02*
X17806400Y-14012800D01*
X17906400Y-13962800D02*
G75*
G03*
X17906400Y-13962800I-50000J0D01*
G01*
X17806400Y-14420800D02*
X17906400Y-14520800D01*
X17906400Y-14420800D02*
X17806400Y-14520800D01*
X17906400Y-14470800D02*
G75*
G03*
X17906400Y-14470800I-50000J0D01*
G01*
X18060400Y-13912800D02*
X18160400Y-14012800D01*
X18160400Y-13912800D02*
X18060400Y-14012800D01*
X18160400Y-13962800D02*
G75*
G03*
X18160400Y-13962800I-50000J0D01*
G01*
X18060400Y-14420800D02*
X18160400Y-14520800D01*
X18160400Y-14420800D02*
X18060400Y-14520800D01*
X18160400Y-14470800D02*
G75*
G03*
X18160400Y-14470800I-50000J0D01*
G01*
X18204600Y-6985800D02*
X18304600Y-7085800D01*
X18304600Y-6985800D02*
X18204600Y-7085800D01*
X18304600Y-7035800D02*
G75*
G03*
X18304600Y-7035800I-50000J0D01*
G01*
X18230000Y-5741200D02*
X18330000Y-5841200D01*
X18330000Y-5741200D02*
X18230000Y-5841200D01*
X18330000Y-5791200D02*
G75*
G03*
X18330000Y-5791200I-50000J0D01*
G01*
X18314400Y-13912800D02*
X18414400Y-14012800D01*
X18414400Y-13912800D02*
X18314400Y-14012800D01*
X18414400Y-13962800D02*
G75*
G03*
X18414400Y-13962800I-50000J0D01*
G01*
X18314400Y-14420800D02*
X18414400Y-14520800D01*
X18414400Y-14420800D02*
X18314400Y-14520800D01*
X18414400Y-14470800D02*
G75*
G03*
X18414400Y-14470800I-50000J0D01*
G01*
X18568400Y-13912800D02*
X18668400Y-14012800D01*
X18668400Y-13912800D02*
X18568400Y-14012800D01*
X18668400Y-13962800D02*
G75*
G03*
X18668400Y-13962800I-50000J0D01*
G01*
X18568400Y-14420800D02*
X18668400Y-14520800D01*
X18668400Y-14420800D02*
X18568400Y-14520800D01*
X18668400Y-14470800D02*
G75*
G03*
X18668400Y-14470800I-50000J0D01*
G01*
X18822400Y-13912800D02*
X18922400Y-14012800D01*
X18922400Y-13912800D02*
X18822400Y-14012800D01*
X18922400Y-13962800D02*
G75*
G03*
X18922400Y-13962800I-50000J0D01*
G01*
X18822400Y-14420800D02*
X18922400Y-14520800D01*
X18922400Y-14420800D02*
X18822400Y-14520800D01*
X18922400Y-14470800D02*
G75*
G03*
X18922400Y-14470800I-50000J0D01*
G01*
D13*
X10577600Y-9948950D02*
X10707600Y-10078950D01*
X10707600Y-9948950D02*
X10577600Y-10078950D01*
X10642600Y-9948950D02*
X10642600Y-10078950D01*
X10577600Y-10013950D02*
X10707600Y-10013950D01*
X10577600Y-10448950D02*
X10707600Y-10578950D01*
X10707600Y-10448950D02*
X10577600Y-10578950D01*
X10642600Y-10448950D02*
X10642600Y-10578950D01*
X10577600Y-10513950D02*
X10707600Y-10513950D01*
X11542800Y-9961650D02*
X11672800Y-10091650D01*
X11672800Y-9961650D02*
X11542800Y-10091650D01*
X11607800Y-9961650D02*
X11607800Y-10091650D01*
X11542800Y-10026650D02*
X11672800Y-10026650D01*
X11542800Y-10461650D02*
X11672800Y-10591650D01*
X11672800Y-10461650D02*
X11542800Y-10591650D01*
X11607800Y-10461650D02*
X11607800Y-10591650D01*
X11542800Y-10526650D02*
X11672800Y-10526650D01*
X16580000Y-5726200D02*
X16710000Y-5856200D01*
X16710000Y-5726200D02*
X16580000Y-5856200D01*
X16645000Y-5726200D02*
X16645000Y-5856200D01*
X16580000Y-5791200D02*
X16710000Y-5791200D01*
X16580000Y-6970800D02*
X16710000Y-7100800D01*
X16710000Y-6970800D02*
X16580000Y-7100800D01*
X16645000Y-6970800D02*
X16645000Y-7100800D01*
X16580000Y-7035800D02*
X16710000Y-7035800D01*
X17080000Y-5726200D02*
X17210000Y-5856200D01*
X17210000Y-5726200D02*
X17080000Y-5856200D01*
X17145000Y-5726200D02*
X17145000Y-5856200D01*
X17080000Y-5791200D02*
X17210000Y-5791200D01*
X17080000Y-6970800D02*
X17210000Y-7100800D01*
X17210000Y-6970800D02*
X17080000Y-7100800D01*
X17145000Y-6970800D02*
X17145000Y-7100800D01*
X17080000Y-7035800D02*
X17210000Y-7035800D01*
X19043800Y-6064400D02*
X19173800Y-6194400D01*
X19173800Y-6064400D02*
X19043800Y-6194400D01*
X19108800Y-6064400D02*
X19108800Y-6194400D01*
X19043800Y-6129400D02*
X19173800Y-6129400D01*
X19043800Y-6564400D02*
X19173800Y-6694400D01*
X19173800Y-6564400D02*
X19043800Y-6694400D01*
X19108800Y-6564400D02*
X19108800Y-6694400D01*
X19043800Y-6629400D02*
X19173800Y-6629400D01*
X19043800Y-7064400D02*
X19173800Y-7194400D01*
X19173800Y-7064400D02*
X19043800Y-7194400D01*
X19108800Y-7064400D02*
X19108800Y-7194400D01*
X19043800Y-7129400D02*
X19173800Y-7129400D01*
X19543800Y-6064400D02*
X19673800Y-6194400D01*
X19673800Y-6064400D02*
X19543800Y-6194400D01*
X19608800Y-6064400D02*
X19608800Y-6194400D01*
X19543800Y-6129400D02*
X19673800Y-6129400D01*
X19543800Y-6564400D02*
X19673800Y-6694400D01*
X19673800Y-6564400D02*
X19543800Y-6694400D01*
X19608800Y-6564400D02*
X19608800Y-6694400D01*
X19543800Y-6629400D02*
X19673800Y-6629400D01*
X19543800Y-7064400D02*
X19673800Y-7194400D01*
X19673800Y-7064400D02*
X19543800Y-7194400D01*
X19608800Y-7064400D02*
X19608800Y-7194400D01*
X19543800Y-7129400D02*
X19673800Y-7129400D01*
D11*
X10258277Y-15313984D02*
X10258277Y-15113984D01*
X10258277Y-15113984D02*
X10305896Y-15113984D01*
X10305896Y-15113984D02*
X10334467Y-15123508D01*
X10334467Y-15123508D02*
X10353515Y-15142555D01*
X10353515Y-15142555D02*
X10363039Y-15161603D01*
X10363039Y-15161603D02*
X10372563Y-15199698D01*
X10372563Y-15199698D02*
X10372563Y-15228269D01*
X10372563Y-15228269D02*
X10363039Y-15266365D01*
X10363039Y-15266365D02*
X10353515Y-15285412D01*
X10353515Y-15285412D02*
X10334467Y-15304460D01*
X10334467Y-15304460D02*
X10305896Y-15313984D01*
X10305896Y-15313984D02*
X10258277Y-15313984D01*
X10458277Y-15313984D02*
X10458277Y-15180650D01*
X10458277Y-15218746D02*
X10467801Y-15199698D01*
X10467801Y-15199698D02*
X10477324Y-15190174D01*
X10477324Y-15190174D02*
X10496372Y-15180650D01*
X10496372Y-15180650D02*
X10515420Y-15180650D01*
X10582086Y-15313984D02*
X10582086Y-15180650D01*
X10582086Y-15113984D02*
X10572563Y-15123508D01*
X10572563Y-15123508D02*
X10582086Y-15133031D01*
X10582086Y-15133031D02*
X10591610Y-15123508D01*
X10591610Y-15123508D02*
X10582086Y-15113984D01*
X10582086Y-15113984D02*
X10582086Y-15133031D01*
X10705896Y-15313984D02*
X10686848Y-15304460D01*
X10686848Y-15304460D02*
X10677324Y-15285412D01*
X10677324Y-15285412D02*
X10677324Y-15113984D01*
X10810658Y-15313984D02*
X10791610Y-15304460D01*
X10791610Y-15304460D02*
X10782086Y-15285412D01*
X10782086Y-15285412D02*
X10782086Y-15113984D01*
X11039229Y-15313984D02*
X11039229Y-15113984D01*
X11039229Y-15113984D02*
X11105896Y-15256841D01*
X11105896Y-15256841D02*
X11172563Y-15113984D01*
X11172563Y-15113984D02*
X11172563Y-15313984D01*
X11353515Y-15313984D02*
X11353515Y-15209222D01*
X11353515Y-15209222D02*
X11343991Y-15190174D01*
X11343991Y-15190174D02*
X11324943Y-15180650D01*
X11324943Y-15180650D02*
X11286848Y-15180650D01*
X11286848Y-15180650D02*
X11267801Y-15190174D01*
X11353515Y-15304460D02*
X11334467Y-15313984D01*
X11334467Y-15313984D02*
X11286848Y-15313984D01*
X11286848Y-15313984D02*
X11267801Y-15304460D01*
X11267801Y-15304460D02*
X11258277Y-15285412D01*
X11258277Y-15285412D02*
X11258277Y-15266365D01*
X11258277Y-15266365D02*
X11267801Y-15247317D01*
X11267801Y-15247317D02*
X11286848Y-15237793D01*
X11286848Y-15237793D02*
X11334467Y-15237793D01*
X11334467Y-15237793D02*
X11353515Y-15228269D01*
X11448753Y-15180650D02*
X11448753Y-15380650D01*
X11448753Y-15190174D02*
X11467801Y-15180650D01*
X11467801Y-15180650D02*
X11505896Y-15180650D01*
X11505896Y-15180650D02*
X11524943Y-15190174D01*
X11524943Y-15190174D02*
X11534467Y-15199698D01*
X11534467Y-15199698D02*
X11543991Y-15218746D01*
X11543991Y-15218746D02*
X11543991Y-15275888D01*
X11543991Y-15275888D02*
X11534467Y-15294936D01*
X11534467Y-15294936D02*
X11524943Y-15304460D01*
X11524943Y-15304460D02*
X11505896Y-15313984D01*
X11505896Y-15313984D02*
X11467801Y-15313984D01*
X11467801Y-15313984D02*
X11448753Y-15304460D01*
X11629705Y-15294936D02*
X11639229Y-15304460D01*
X11639229Y-15304460D02*
X11629705Y-15313984D01*
X11629705Y-15313984D02*
X11620182Y-15304460D01*
X11620182Y-15304460D02*
X11629705Y-15294936D01*
X11629705Y-15294936D02*
X11629705Y-15313984D01*
X11629705Y-15190174D02*
X11639229Y-15199698D01*
X11639229Y-15199698D02*
X11629705Y-15209222D01*
X11629705Y-15209222D02*
X11620182Y-15199698D01*
X11620182Y-15199698D02*
X11629705Y-15190174D01*
X11629705Y-15190174D02*
X11629705Y-15209222D01*
D12*
X9957500Y-15622500D02*
X9997500Y-15662500D01*
X9997500Y-15622500D02*
X9957500Y-15662500D01*
D11*
X10296372Y-15533984D02*
X10315420Y-15533984D01*
X10315420Y-15533984D02*
X10334467Y-15543508D01*
X10334467Y-15543508D02*
X10343991Y-15553031D01*
X10343991Y-15553031D02*
X10353515Y-15572079D01*
X10353515Y-15572079D02*
X10363039Y-15610174D01*
X10363039Y-15610174D02*
X10363039Y-15657793D01*
X10363039Y-15657793D02*
X10353515Y-15695888D01*
X10353515Y-15695888D02*
X10343991Y-15714936D01*
X10343991Y-15714936D02*
X10334467Y-15724460D01*
X10334467Y-15724460D02*
X10315420Y-15733984D01*
X10315420Y-15733984D02*
X10296372Y-15733984D01*
X10296372Y-15733984D02*
X10277324Y-15724460D01*
X10277324Y-15724460D02*
X10267801Y-15714936D01*
X10267801Y-15714936D02*
X10258277Y-15695888D01*
X10258277Y-15695888D02*
X10248753Y-15657793D01*
X10248753Y-15657793D02*
X10248753Y-15610174D01*
X10248753Y-15610174D02*
X10258277Y-15572079D01*
X10258277Y-15572079D02*
X10267801Y-15553031D01*
X10267801Y-15553031D02*
X10277324Y-15543508D01*
X10277324Y-15543508D02*
X10296372Y-15533984D01*
X10448753Y-15714936D02*
X10458277Y-15724460D01*
X10458277Y-15724460D02*
X10448753Y-15733984D01*
X10448753Y-15733984D02*
X10439229Y-15724460D01*
X10439229Y-15724460D02*
X10448753Y-15714936D01*
X10448753Y-15714936D02*
X10448753Y-15733984D01*
X10629705Y-15600650D02*
X10629705Y-15733984D01*
X10582086Y-15524460D02*
X10534467Y-15667317D01*
X10534467Y-15667317D02*
X10658277Y-15667317D01*
X10772563Y-15533984D02*
X10791610Y-15533984D01*
X10791610Y-15533984D02*
X10810658Y-15543508D01*
X10810658Y-15543508D02*
X10820182Y-15553031D01*
X10820182Y-15553031D02*
X10829705Y-15572079D01*
X10829705Y-15572079D02*
X10839229Y-15610174D01*
X10839229Y-15610174D02*
X10839229Y-15657793D01*
X10839229Y-15657793D02*
X10829705Y-15695888D01*
X10829705Y-15695888D02*
X10820182Y-15714936D01*
X10820182Y-15714936D02*
X10810658Y-15724460D01*
X10810658Y-15724460D02*
X10791610Y-15733984D01*
X10791610Y-15733984D02*
X10772563Y-15733984D01*
X10772563Y-15733984D02*
X10753515Y-15724460D01*
X10753515Y-15724460D02*
X10743991Y-15714936D01*
X10743991Y-15714936D02*
X10734467Y-15695888D01*
X10734467Y-15695888D02*
X10724944Y-15657793D01*
X10724944Y-15657793D02*
X10724944Y-15610174D01*
X10724944Y-15610174D02*
X10734467Y-15572079D01*
X10734467Y-15572079D02*
X10743991Y-15553031D01*
X10743991Y-15553031D02*
X10753515Y-15543508D01*
X10753515Y-15543508D02*
X10772563Y-15533984D01*
X10963039Y-15533984D02*
X10982086Y-15533984D01*
X10982086Y-15533984D02*
X11001134Y-15543508D01*
X11001134Y-15543508D02*
X11010658Y-15553031D01*
X11010658Y-15553031D02*
X11020182Y-15572079D01*
X11020182Y-15572079D02*
X11029705Y-15610174D01*
X11029705Y-15610174D02*
X11029705Y-15657793D01*
X11029705Y-15657793D02*
X11020182Y-15695888D01*
X11020182Y-15695888D02*
X11010658Y-15714936D01*
X11010658Y-15714936D02*
X11001134Y-15724460D01*
X11001134Y-15724460D02*
X10982086Y-15733984D01*
X10982086Y-15733984D02*
X10963039Y-15733984D01*
X10963039Y-15733984D02*
X10943991Y-15724460D01*
X10943991Y-15724460D02*
X10934467Y-15714936D01*
X10934467Y-15714936D02*
X10924944Y-15695888D01*
X10924944Y-15695888D02*
X10915420Y-15657793D01*
X10915420Y-15657793D02*
X10915420Y-15610174D01*
X10915420Y-15610174D02*
X10924944Y-15572079D01*
X10924944Y-15572079D02*
X10934467Y-15553031D01*
X10934467Y-15553031D02*
X10943991Y-15543508D01*
X10943991Y-15543508D02*
X10963039Y-15533984D01*
X11115420Y-15733984D02*
X11115420Y-15600650D01*
X11115420Y-15619698D02*
X11124944Y-15610174D01*
X11124944Y-15610174D02*
X11143991Y-15600650D01*
X11143991Y-15600650D02*
X11172563Y-15600650D01*
X11172563Y-15600650D02*
X11191610Y-15610174D01*
X11191610Y-15610174D02*
X11201134Y-15629222D01*
X11201134Y-15629222D02*
X11201134Y-15733984D01*
X11201134Y-15629222D02*
X11210658Y-15610174D01*
X11210658Y-15610174D02*
X11229705Y-15600650D01*
X11229705Y-15600650D02*
X11258277Y-15600650D01*
X11258277Y-15600650D02*
X11277324Y-15610174D01*
X11277324Y-15610174D02*
X11286848Y-15629222D01*
X11286848Y-15629222D02*
X11286848Y-15733984D01*
X11382086Y-15733984D02*
X11382086Y-15600650D01*
X11382086Y-15619698D02*
X11391610Y-15610174D01*
X11391610Y-15610174D02*
X11410658Y-15600650D01*
X11410658Y-15600650D02*
X11439229Y-15600650D01*
X11439229Y-15600650D02*
X11458277Y-15610174D01*
X11458277Y-15610174D02*
X11467801Y-15629222D01*
X11467801Y-15629222D02*
X11467801Y-15733984D01*
X11467801Y-15629222D02*
X11477324Y-15610174D01*
X11477324Y-15610174D02*
X11496372Y-15600650D01*
X11496372Y-15600650D02*
X11524943Y-15600650D01*
X11524943Y-15600650D02*
X11543991Y-15610174D01*
X11543991Y-15610174D02*
X11553515Y-15629222D01*
X11553515Y-15629222D02*
X11553515Y-15733984D01*
X11943991Y-15524460D02*
X11772563Y-15781603D01*
X12201134Y-15533984D02*
X12220182Y-15533984D01*
X12220182Y-15533984D02*
X12239229Y-15543508D01*
X12239229Y-15543508D02*
X12248753Y-15553031D01*
X12248753Y-15553031D02*
X12258277Y-15572079D01*
X12258277Y-15572079D02*
X12267801Y-15610174D01*
X12267801Y-15610174D02*
X12267801Y-15657793D01*
X12267801Y-15657793D02*
X12258277Y-15695888D01*
X12258277Y-15695888D02*
X12248753Y-15714936D01*
X12248753Y-15714936D02*
X12239229Y-15724460D01*
X12239229Y-15724460D02*
X12220182Y-15733984D01*
X12220182Y-15733984D02*
X12201134Y-15733984D01*
X12201134Y-15733984D02*
X12182086Y-15724460D01*
X12182086Y-15724460D02*
X12172563Y-15714936D01*
X12172563Y-15714936D02*
X12163039Y-15695888D01*
X12163039Y-15695888D02*
X12153515Y-15657793D01*
X12153515Y-15657793D02*
X12153515Y-15610174D01*
X12153515Y-15610174D02*
X12163039Y-15572079D01*
X12163039Y-15572079D02*
X12172563Y-15553031D01*
X12172563Y-15553031D02*
X12182086Y-15543508D01*
X12182086Y-15543508D02*
X12201134Y-15533984D01*
X12353515Y-15714936D02*
X12363039Y-15724460D01*
X12363039Y-15724460D02*
X12353515Y-15733984D01*
X12353515Y-15733984D02*
X12343991Y-15724460D01*
X12343991Y-15724460D02*
X12353515Y-15714936D01*
X12353515Y-15714936D02*
X12353515Y-15733984D01*
X12486848Y-15533984D02*
X12505896Y-15533984D01*
X12505896Y-15533984D02*
X12524944Y-15543508D01*
X12524944Y-15543508D02*
X12534467Y-15553031D01*
X12534467Y-15553031D02*
X12543991Y-15572079D01*
X12543991Y-15572079D02*
X12553515Y-15610174D01*
X12553515Y-15610174D02*
X12553515Y-15657793D01*
X12553515Y-15657793D02*
X12543991Y-15695888D01*
X12543991Y-15695888D02*
X12534467Y-15714936D01*
X12534467Y-15714936D02*
X12524944Y-15724460D01*
X12524944Y-15724460D02*
X12505896Y-15733984D01*
X12505896Y-15733984D02*
X12486848Y-15733984D01*
X12486848Y-15733984D02*
X12467801Y-15724460D01*
X12467801Y-15724460D02*
X12458277Y-15714936D01*
X12458277Y-15714936D02*
X12448753Y-15695888D01*
X12448753Y-15695888D02*
X12439229Y-15657793D01*
X12439229Y-15657793D02*
X12439229Y-15610174D01*
X12439229Y-15610174D02*
X12448753Y-15572079D01*
X12448753Y-15572079D02*
X12458277Y-15553031D01*
X12458277Y-15553031D02*
X12467801Y-15543508D01*
X12467801Y-15543508D02*
X12486848Y-15533984D01*
X12743991Y-15733984D02*
X12629706Y-15733984D01*
X12686848Y-15733984D02*
X12686848Y-15533984D01*
X12686848Y-15533984D02*
X12667801Y-15562555D01*
X12667801Y-15562555D02*
X12648753Y-15581603D01*
X12648753Y-15581603D02*
X12629706Y-15591127D01*
X12924944Y-15533984D02*
X12829706Y-15533984D01*
X12829706Y-15533984D02*
X12820182Y-15629222D01*
X12820182Y-15629222D02*
X12829706Y-15619698D01*
X12829706Y-15619698D02*
X12848753Y-15610174D01*
X12848753Y-15610174D02*
X12896372Y-15610174D01*
X12896372Y-15610174D02*
X12915420Y-15619698D01*
X12915420Y-15619698D02*
X12924944Y-15629222D01*
X12924944Y-15629222D02*
X12934467Y-15648269D01*
X12934467Y-15648269D02*
X12934467Y-15695888D01*
X12934467Y-15695888D02*
X12924944Y-15714936D01*
X12924944Y-15714936D02*
X12915420Y-15724460D01*
X12915420Y-15724460D02*
X12896372Y-15733984D01*
X12896372Y-15733984D02*
X12848753Y-15733984D01*
X12848753Y-15733984D02*
X12829706Y-15724460D01*
X12829706Y-15724460D02*
X12820182Y-15714936D01*
X13001134Y-15533984D02*
X13134467Y-15533984D01*
X13134467Y-15533984D02*
X13048753Y-15733984D01*
X13201134Y-15533984D02*
X13201134Y-15572079D01*
X13277325Y-15533984D02*
X13277325Y-15572079D01*
X13572563Y-15810174D02*
X13563039Y-15800650D01*
X13563039Y-15800650D02*
X13543991Y-15772079D01*
X13543991Y-15772079D02*
X13534468Y-15753031D01*
X13534468Y-15753031D02*
X13524944Y-15724460D01*
X13524944Y-15724460D02*
X13515420Y-15676841D01*
X13515420Y-15676841D02*
X13515420Y-15638746D01*
X13515420Y-15638746D02*
X13524944Y-15591127D01*
X13524944Y-15591127D02*
X13534468Y-15562555D01*
X13534468Y-15562555D02*
X13543991Y-15543508D01*
X13543991Y-15543508D02*
X13563039Y-15514936D01*
X13563039Y-15514936D02*
X13572563Y-15505412D01*
X13734468Y-15600650D02*
X13734468Y-15733984D01*
X13686848Y-15524460D02*
X13639229Y-15667317D01*
X13639229Y-15667317D02*
X13763039Y-15667317D01*
X13820182Y-15533984D02*
X13953515Y-15533984D01*
X13953515Y-15533984D02*
X13867801Y-15733984D01*
X14182087Y-15733984D02*
X14182087Y-15533984D01*
X14267801Y-15733984D02*
X14267801Y-15629222D01*
X14267801Y-15629222D02*
X14258277Y-15610174D01*
X14258277Y-15610174D02*
X14239230Y-15600650D01*
X14239230Y-15600650D02*
X14210658Y-15600650D01*
X14210658Y-15600650D02*
X14191610Y-15610174D01*
X14191610Y-15610174D02*
X14182087Y-15619698D01*
X14391610Y-15733984D02*
X14372563Y-15724460D01*
X14372563Y-15724460D02*
X14363039Y-15714936D01*
X14363039Y-15714936D02*
X14353515Y-15695888D01*
X14353515Y-15695888D02*
X14353515Y-15638746D01*
X14353515Y-15638746D02*
X14363039Y-15619698D01*
X14363039Y-15619698D02*
X14372563Y-15610174D01*
X14372563Y-15610174D02*
X14391610Y-15600650D01*
X14391610Y-15600650D02*
X14420182Y-15600650D01*
X14420182Y-15600650D02*
X14439230Y-15610174D01*
X14439230Y-15610174D02*
X14448753Y-15619698D01*
X14448753Y-15619698D02*
X14458277Y-15638746D01*
X14458277Y-15638746D02*
X14458277Y-15695888D01*
X14458277Y-15695888D02*
X14448753Y-15714936D01*
X14448753Y-15714936D02*
X14439230Y-15724460D01*
X14439230Y-15724460D02*
X14420182Y-15733984D01*
X14420182Y-15733984D02*
X14391610Y-15733984D01*
X14572563Y-15733984D02*
X14553515Y-15724460D01*
X14553515Y-15724460D02*
X14543991Y-15705412D01*
X14543991Y-15705412D02*
X14543991Y-15533984D01*
X14724944Y-15724460D02*
X14705896Y-15733984D01*
X14705896Y-15733984D02*
X14667801Y-15733984D01*
X14667801Y-15733984D02*
X14648753Y-15724460D01*
X14648753Y-15724460D02*
X14639230Y-15705412D01*
X14639230Y-15705412D02*
X14639230Y-15629222D01*
X14639230Y-15629222D02*
X14648753Y-15610174D01*
X14648753Y-15610174D02*
X14667801Y-15600650D01*
X14667801Y-15600650D02*
X14705896Y-15600650D01*
X14705896Y-15600650D02*
X14724944Y-15610174D01*
X14724944Y-15610174D02*
X14734468Y-15629222D01*
X14734468Y-15629222D02*
X14734468Y-15648269D01*
X14734468Y-15648269D02*
X14639230Y-15667317D01*
X14810658Y-15724460D02*
X14829706Y-15733984D01*
X14829706Y-15733984D02*
X14867801Y-15733984D01*
X14867801Y-15733984D02*
X14886849Y-15724460D01*
X14886849Y-15724460D02*
X14896372Y-15705412D01*
X14896372Y-15705412D02*
X14896372Y-15695888D01*
X14896372Y-15695888D02*
X14886849Y-15676841D01*
X14886849Y-15676841D02*
X14867801Y-15667317D01*
X14867801Y-15667317D02*
X14839230Y-15667317D01*
X14839230Y-15667317D02*
X14820182Y-15657793D01*
X14820182Y-15657793D02*
X14810658Y-15638746D01*
X14810658Y-15638746D02*
X14810658Y-15629222D01*
X14810658Y-15629222D02*
X14820182Y-15610174D01*
X14820182Y-15610174D02*
X14839230Y-15600650D01*
X14839230Y-15600650D02*
X14867801Y-15600650D01*
X14867801Y-15600650D02*
X14886849Y-15610174D01*
X14963039Y-15810174D02*
X14972563Y-15800650D01*
X14972563Y-15800650D02*
X14991611Y-15772079D01*
X14991611Y-15772079D02*
X15001134Y-15753031D01*
X15001134Y-15753031D02*
X15010658Y-15724460D01*
X15010658Y-15724460D02*
X15020182Y-15676841D01*
X15020182Y-15676841D02*
X15020182Y-15638746D01*
X15020182Y-15638746D02*
X15010658Y-15591127D01*
X15010658Y-15591127D02*
X15001134Y-15562555D01*
X15001134Y-15562555D02*
X14991611Y-15543508D01*
X14991611Y-15543508D02*
X14972563Y-15514936D01*
X14972563Y-15514936D02*
X14963039Y-15505412D01*
D12*
X9997500Y-15906500D02*
G75*
G03*
X9997500Y-15906500I-35000J0D01*
G01*
D11*
X10296372Y-15797984D02*
X10315420Y-15797984D01*
X10315420Y-15797984D02*
X10334467Y-15807508D01*
X10334467Y-15807508D02*
X10343991Y-15817031D01*
X10343991Y-15817031D02*
X10353515Y-15836079D01*
X10353515Y-15836079D02*
X10363039Y-15874174D01*
X10363039Y-15874174D02*
X10363039Y-15921793D01*
X10363039Y-15921793D02*
X10353515Y-15959888D01*
X10353515Y-15959888D02*
X10343991Y-15978936D01*
X10343991Y-15978936D02*
X10334467Y-15988460D01*
X10334467Y-15988460D02*
X10315420Y-15997984D01*
X10315420Y-15997984D02*
X10296372Y-15997984D01*
X10296372Y-15997984D02*
X10277324Y-15988460D01*
X10277324Y-15988460D02*
X10267801Y-15978936D01*
X10267801Y-15978936D02*
X10258277Y-15959888D01*
X10258277Y-15959888D02*
X10248753Y-15921793D01*
X10248753Y-15921793D02*
X10248753Y-15874174D01*
X10248753Y-15874174D02*
X10258277Y-15836079D01*
X10258277Y-15836079D02*
X10267801Y-15817031D01*
X10267801Y-15817031D02*
X10277324Y-15807508D01*
X10277324Y-15807508D02*
X10296372Y-15797984D01*
X10448753Y-15978936D02*
X10458277Y-15988460D01*
X10458277Y-15988460D02*
X10448753Y-15997984D01*
X10448753Y-15997984D02*
X10439229Y-15988460D01*
X10439229Y-15988460D02*
X10448753Y-15978936D01*
X10448753Y-15978936D02*
X10448753Y-15997984D01*
X10524944Y-15797984D02*
X10658277Y-15797984D01*
X10658277Y-15797984D02*
X10572563Y-15997984D01*
X10772563Y-15797984D02*
X10791610Y-15797984D01*
X10791610Y-15797984D02*
X10810658Y-15807508D01*
X10810658Y-15807508D02*
X10820182Y-15817031D01*
X10820182Y-15817031D02*
X10829705Y-15836079D01*
X10829705Y-15836079D02*
X10839229Y-15874174D01*
X10839229Y-15874174D02*
X10839229Y-15921793D01*
X10839229Y-15921793D02*
X10829705Y-15959888D01*
X10829705Y-15959888D02*
X10820182Y-15978936D01*
X10820182Y-15978936D02*
X10810658Y-15988460D01*
X10810658Y-15988460D02*
X10791610Y-15997984D01*
X10791610Y-15997984D02*
X10772563Y-15997984D01*
X10772563Y-15997984D02*
X10753515Y-15988460D01*
X10753515Y-15988460D02*
X10743991Y-15978936D01*
X10743991Y-15978936D02*
X10734467Y-15959888D01*
X10734467Y-15959888D02*
X10724944Y-15921793D01*
X10724944Y-15921793D02*
X10724944Y-15874174D01*
X10724944Y-15874174D02*
X10734467Y-15836079D01*
X10734467Y-15836079D02*
X10743991Y-15817031D01*
X10743991Y-15817031D02*
X10753515Y-15807508D01*
X10753515Y-15807508D02*
X10772563Y-15797984D01*
X10963039Y-15797984D02*
X10982086Y-15797984D01*
X10982086Y-15797984D02*
X11001134Y-15807508D01*
X11001134Y-15807508D02*
X11010658Y-15817031D01*
X11010658Y-15817031D02*
X11020182Y-15836079D01*
X11020182Y-15836079D02*
X11029705Y-15874174D01*
X11029705Y-15874174D02*
X11029705Y-15921793D01*
X11029705Y-15921793D02*
X11020182Y-15959888D01*
X11020182Y-15959888D02*
X11010658Y-15978936D01*
X11010658Y-15978936D02*
X11001134Y-15988460D01*
X11001134Y-15988460D02*
X10982086Y-15997984D01*
X10982086Y-15997984D02*
X10963039Y-15997984D01*
X10963039Y-15997984D02*
X10943991Y-15988460D01*
X10943991Y-15988460D02*
X10934467Y-15978936D01*
X10934467Y-15978936D02*
X10924944Y-15959888D01*
X10924944Y-15959888D02*
X10915420Y-15921793D01*
X10915420Y-15921793D02*
X10915420Y-15874174D01*
X10915420Y-15874174D02*
X10924944Y-15836079D01*
X10924944Y-15836079D02*
X10934467Y-15817031D01*
X10934467Y-15817031D02*
X10943991Y-15807508D01*
X10943991Y-15807508D02*
X10963039Y-15797984D01*
X11115420Y-15997984D02*
X11115420Y-15864650D01*
X11115420Y-15883698D02*
X11124944Y-15874174D01*
X11124944Y-15874174D02*
X11143991Y-15864650D01*
X11143991Y-15864650D02*
X11172563Y-15864650D01*
X11172563Y-15864650D02*
X11191610Y-15874174D01*
X11191610Y-15874174D02*
X11201134Y-15893222D01*
X11201134Y-15893222D02*
X11201134Y-15997984D01*
X11201134Y-15893222D02*
X11210658Y-15874174D01*
X11210658Y-15874174D02*
X11229705Y-15864650D01*
X11229705Y-15864650D02*
X11258277Y-15864650D01*
X11258277Y-15864650D02*
X11277324Y-15874174D01*
X11277324Y-15874174D02*
X11286848Y-15893222D01*
X11286848Y-15893222D02*
X11286848Y-15997984D01*
X11382086Y-15997984D02*
X11382086Y-15864650D01*
X11382086Y-15883698D02*
X11391610Y-15874174D01*
X11391610Y-15874174D02*
X11410658Y-15864650D01*
X11410658Y-15864650D02*
X11439229Y-15864650D01*
X11439229Y-15864650D02*
X11458277Y-15874174D01*
X11458277Y-15874174D02*
X11467801Y-15893222D01*
X11467801Y-15893222D02*
X11467801Y-15997984D01*
X11467801Y-15893222D02*
X11477324Y-15874174D01*
X11477324Y-15874174D02*
X11496372Y-15864650D01*
X11496372Y-15864650D02*
X11524943Y-15864650D01*
X11524943Y-15864650D02*
X11543991Y-15874174D01*
X11543991Y-15874174D02*
X11553515Y-15893222D01*
X11553515Y-15893222D02*
X11553515Y-15997984D01*
X11943991Y-15788460D02*
X11772563Y-16045603D01*
X12201134Y-15797984D02*
X12220182Y-15797984D01*
X12220182Y-15797984D02*
X12239229Y-15807508D01*
X12239229Y-15807508D02*
X12248753Y-15817031D01*
X12248753Y-15817031D02*
X12258277Y-15836079D01*
X12258277Y-15836079D02*
X12267801Y-15874174D01*
X12267801Y-15874174D02*
X12267801Y-15921793D01*
X12267801Y-15921793D02*
X12258277Y-15959888D01*
X12258277Y-15959888D02*
X12248753Y-15978936D01*
X12248753Y-15978936D02*
X12239229Y-15988460D01*
X12239229Y-15988460D02*
X12220182Y-15997984D01*
X12220182Y-15997984D02*
X12201134Y-15997984D01*
X12201134Y-15997984D02*
X12182086Y-15988460D01*
X12182086Y-15988460D02*
X12172563Y-15978936D01*
X12172563Y-15978936D02*
X12163039Y-15959888D01*
X12163039Y-15959888D02*
X12153515Y-15921793D01*
X12153515Y-15921793D02*
X12153515Y-15874174D01*
X12153515Y-15874174D02*
X12163039Y-15836079D01*
X12163039Y-15836079D02*
X12172563Y-15817031D01*
X12172563Y-15817031D02*
X12182086Y-15807508D01*
X12182086Y-15807508D02*
X12201134Y-15797984D01*
X12353515Y-15978936D02*
X12363039Y-15988460D01*
X12363039Y-15988460D02*
X12353515Y-15997984D01*
X12353515Y-15997984D02*
X12343991Y-15988460D01*
X12343991Y-15988460D02*
X12353515Y-15978936D01*
X12353515Y-15978936D02*
X12353515Y-15997984D01*
X12486848Y-15797984D02*
X12505896Y-15797984D01*
X12505896Y-15797984D02*
X12524944Y-15807508D01*
X12524944Y-15807508D02*
X12534467Y-15817031D01*
X12534467Y-15817031D02*
X12543991Y-15836079D01*
X12543991Y-15836079D02*
X12553515Y-15874174D01*
X12553515Y-15874174D02*
X12553515Y-15921793D01*
X12553515Y-15921793D02*
X12543991Y-15959888D01*
X12543991Y-15959888D02*
X12534467Y-15978936D01*
X12534467Y-15978936D02*
X12524944Y-15988460D01*
X12524944Y-15988460D02*
X12505896Y-15997984D01*
X12505896Y-15997984D02*
X12486848Y-15997984D01*
X12486848Y-15997984D02*
X12467801Y-15988460D01*
X12467801Y-15988460D02*
X12458277Y-15978936D01*
X12458277Y-15978936D02*
X12448753Y-15959888D01*
X12448753Y-15959888D02*
X12439229Y-15921793D01*
X12439229Y-15921793D02*
X12439229Y-15874174D01*
X12439229Y-15874174D02*
X12448753Y-15836079D01*
X12448753Y-15836079D02*
X12458277Y-15817031D01*
X12458277Y-15817031D02*
X12467801Y-15807508D01*
X12467801Y-15807508D02*
X12486848Y-15797984D01*
X12629706Y-15817031D02*
X12639229Y-15807508D01*
X12639229Y-15807508D02*
X12658277Y-15797984D01*
X12658277Y-15797984D02*
X12705896Y-15797984D01*
X12705896Y-15797984D02*
X12724944Y-15807508D01*
X12724944Y-15807508D02*
X12734467Y-15817031D01*
X12734467Y-15817031D02*
X12743991Y-15836079D01*
X12743991Y-15836079D02*
X12743991Y-15855127D01*
X12743991Y-15855127D02*
X12734467Y-15883698D01*
X12734467Y-15883698D02*
X12620182Y-15997984D01*
X12620182Y-15997984D02*
X12743991Y-15997984D01*
X12810658Y-15797984D02*
X12943991Y-15797984D01*
X12943991Y-15797984D02*
X12858277Y-15997984D01*
X13105896Y-15797984D02*
X13067801Y-15797984D01*
X13067801Y-15797984D02*
X13048753Y-15807508D01*
X13048753Y-15807508D02*
X13039229Y-15817031D01*
X13039229Y-15817031D02*
X13020182Y-15845603D01*
X13020182Y-15845603D02*
X13010658Y-15883698D01*
X13010658Y-15883698D02*
X13010658Y-15959888D01*
X13010658Y-15959888D02*
X13020182Y-15978936D01*
X13020182Y-15978936D02*
X13029706Y-15988460D01*
X13029706Y-15988460D02*
X13048753Y-15997984D01*
X13048753Y-15997984D02*
X13086848Y-15997984D01*
X13086848Y-15997984D02*
X13105896Y-15988460D01*
X13105896Y-15988460D02*
X13115420Y-15978936D01*
X13115420Y-15978936D02*
X13124944Y-15959888D01*
X13124944Y-15959888D02*
X13124944Y-15912269D01*
X13124944Y-15912269D02*
X13115420Y-15893222D01*
X13115420Y-15893222D02*
X13105896Y-15883698D01*
X13105896Y-15883698D02*
X13086848Y-15874174D01*
X13086848Y-15874174D02*
X13048753Y-15874174D01*
X13048753Y-15874174D02*
X13029706Y-15883698D01*
X13029706Y-15883698D02*
X13020182Y-15893222D01*
X13020182Y-15893222D02*
X13010658Y-15912269D01*
X13201134Y-15797984D02*
X13201134Y-15836079D01*
X13277325Y-15797984D02*
X13277325Y-15836079D01*
X13572563Y-16074174D02*
X13563039Y-16064650D01*
X13563039Y-16064650D02*
X13543991Y-16036079D01*
X13543991Y-16036079D02*
X13534468Y-16017031D01*
X13534468Y-16017031D02*
X13524944Y-15988460D01*
X13524944Y-15988460D02*
X13515420Y-15940841D01*
X13515420Y-15940841D02*
X13515420Y-15902746D01*
X13515420Y-15902746D02*
X13524944Y-15855127D01*
X13524944Y-15855127D02*
X13534468Y-15826555D01*
X13534468Y-15826555D02*
X13543991Y-15807508D01*
X13543991Y-15807508D02*
X13563039Y-15778936D01*
X13563039Y-15778936D02*
X13572563Y-15769412D01*
X13686848Y-15797984D02*
X13705896Y-15797984D01*
X13705896Y-15797984D02*
X13724944Y-15807508D01*
X13724944Y-15807508D02*
X13734468Y-15817031D01*
X13734468Y-15817031D02*
X13743991Y-15836079D01*
X13743991Y-15836079D02*
X13753515Y-15874174D01*
X13753515Y-15874174D02*
X13753515Y-15921793D01*
X13753515Y-15921793D02*
X13743991Y-15959888D01*
X13743991Y-15959888D02*
X13734468Y-15978936D01*
X13734468Y-15978936D02*
X13724944Y-15988460D01*
X13724944Y-15988460D02*
X13705896Y-15997984D01*
X13705896Y-15997984D02*
X13686848Y-15997984D01*
X13686848Y-15997984D02*
X13667801Y-15988460D01*
X13667801Y-15988460D02*
X13658277Y-15978936D01*
X13658277Y-15978936D02*
X13648753Y-15959888D01*
X13648753Y-15959888D02*
X13639229Y-15921793D01*
X13639229Y-15921793D02*
X13639229Y-15874174D01*
X13639229Y-15874174D02*
X13648753Y-15836079D01*
X13648753Y-15836079D02*
X13658277Y-15817031D01*
X13658277Y-15817031D02*
X13667801Y-15807508D01*
X13667801Y-15807508D02*
X13686848Y-15797984D01*
X13991610Y-15997984D02*
X13991610Y-15797984D01*
X14077325Y-15997984D02*
X14077325Y-15893222D01*
X14077325Y-15893222D02*
X14067801Y-15874174D01*
X14067801Y-15874174D02*
X14048753Y-15864650D01*
X14048753Y-15864650D02*
X14020182Y-15864650D01*
X14020182Y-15864650D02*
X14001134Y-15874174D01*
X14001134Y-15874174D02*
X13991610Y-15883698D01*
X14201134Y-15997984D02*
X14182087Y-15988460D01*
X14182087Y-15988460D02*
X14172563Y-15978936D01*
X14172563Y-15978936D02*
X14163039Y-15959888D01*
X14163039Y-15959888D02*
X14163039Y-15902746D01*
X14163039Y-15902746D02*
X14172563Y-15883698D01*
X14172563Y-15883698D02*
X14182087Y-15874174D01*
X14182087Y-15874174D02*
X14201134Y-15864650D01*
X14201134Y-15864650D02*
X14229706Y-15864650D01*
X14229706Y-15864650D02*
X14248753Y-15874174D01*
X14248753Y-15874174D02*
X14258277Y-15883698D01*
X14258277Y-15883698D02*
X14267801Y-15902746D01*
X14267801Y-15902746D02*
X14267801Y-15959888D01*
X14267801Y-15959888D02*
X14258277Y-15978936D01*
X14258277Y-15978936D02*
X14248753Y-15988460D01*
X14248753Y-15988460D02*
X14229706Y-15997984D01*
X14229706Y-15997984D02*
X14201134Y-15997984D01*
X14382087Y-15997984D02*
X14363039Y-15988460D01*
X14363039Y-15988460D02*
X14353515Y-15969412D01*
X14353515Y-15969412D02*
X14353515Y-15797984D01*
X14534468Y-15988460D02*
X14515420Y-15997984D01*
X14515420Y-15997984D02*
X14477325Y-15997984D01*
X14477325Y-15997984D02*
X14458277Y-15988460D01*
X14458277Y-15988460D02*
X14448753Y-15969412D01*
X14448753Y-15969412D02*
X14448753Y-15893222D01*
X14448753Y-15893222D02*
X14458277Y-15874174D01*
X14458277Y-15874174D02*
X14477325Y-15864650D01*
X14477325Y-15864650D02*
X14515420Y-15864650D01*
X14515420Y-15864650D02*
X14534468Y-15874174D01*
X14534468Y-15874174D02*
X14543991Y-15893222D01*
X14543991Y-15893222D02*
X14543991Y-15912269D01*
X14543991Y-15912269D02*
X14448753Y-15931317D01*
X14620182Y-15988460D02*
X14639230Y-15997984D01*
X14639230Y-15997984D02*
X14677325Y-15997984D01*
X14677325Y-15997984D02*
X14696372Y-15988460D01*
X14696372Y-15988460D02*
X14705896Y-15969412D01*
X14705896Y-15969412D02*
X14705896Y-15959888D01*
X14705896Y-15959888D02*
X14696372Y-15940841D01*
X14696372Y-15940841D02*
X14677325Y-15931317D01*
X14677325Y-15931317D02*
X14648753Y-15931317D01*
X14648753Y-15931317D02*
X14629706Y-15921793D01*
X14629706Y-15921793D02*
X14620182Y-15902746D01*
X14620182Y-15902746D02*
X14620182Y-15893222D01*
X14620182Y-15893222D02*
X14629706Y-15874174D01*
X14629706Y-15874174D02*
X14648753Y-15864650D01*
X14648753Y-15864650D02*
X14677325Y-15864650D01*
X14677325Y-15864650D02*
X14696372Y-15874174D01*
X14943992Y-15921793D02*
X15096373Y-15921793D01*
X15020182Y-15997984D02*
X15020182Y-15845603D01*
X15324944Y-15797984D02*
X15448753Y-15797984D01*
X15448753Y-15797984D02*
X15382087Y-15874174D01*
X15382087Y-15874174D02*
X15410658Y-15874174D01*
X15410658Y-15874174D02*
X15429706Y-15883698D01*
X15429706Y-15883698D02*
X15439230Y-15893222D01*
X15439230Y-15893222D02*
X15448753Y-15912269D01*
X15448753Y-15912269D02*
X15448753Y-15959888D01*
X15448753Y-15959888D02*
X15439230Y-15978936D01*
X15439230Y-15978936D02*
X15429706Y-15988460D01*
X15429706Y-15988460D02*
X15410658Y-15997984D01*
X15410658Y-15997984D02*
X15353515Y-15997984D01*
X15353515Y-15997984D02*
X15334468Y-15988460D01*
X15334468Y-15988460D02*
X15324944Y-15978936D01*
X15677325Y-15988460D02*
X15696373Y-15997984D01*
X15696373Y-15997984D02*
X15734468Y-15997984D01*
X15734468Y-15997984D02*
X15753515Y-15988460D01*
X15753515Y-15988460D02*
X15763039Y-15969412D01*
X15763039Y-15969412D02*
X15763039Y-15959888D01*
X15763039Y-15959888D02*
X15753515Y-15940841D01*
X15753515Y-15940841D02*
X15734468Y-15931317D01*
X15734468Y-15931317D02*
X15705896Y-15931317D01*
X15705896Y-15931317D02*
X15686849Y-15921793D01*
X15686849Y-15921793D02*
X15677325Y-15902746D01*
X15677325Y-15902746D02*
X15677325Y-15893222D01*
X15677325Y-15893222D02*
X15686849Y-15874174D01*
X15686849Y-15874174D02*
X15705896Y-15864650D01*
X15705896Y-15864650D02*
X15734468Y-15864650D01*
X15734468Y-15864650D02*
X15753515Y-15874174D01*
X15877325Y-15997984D02*
X15858277Y-15988460D01*
X15858277Y-15988460D02*
X15848754Y-15969412D01*
X15848754Y-15969412D02*
X15848754Y-15797984D01*
X15982087Y-15997984D02*
X15963039Y-15988460D01*
X15963039Y-15988460D02*
X15953515Y-15978936D01*
X15953515Y-15978936D02*
X15943992Y-15959888D01*
X15943992Y-15959888D02*
X15943992Y-15902746D01*
X15943992Y-15902746D02*
X15953515Y-15883698D01*
X15953515Y-15883698D02*
X15963039Y-15874174D01*
X15963039Y-15874174D02*
X15982087Y-15864650D01*
X15982087Y-15864650D02*
X16010658Y-15864650D01*
X16010658Y-15864650D02*
X16029706Y-15874174D01*
X16029706Y-15874174D02*
X16039230Y-15883698D01*
X16039230Y-15883698D02*
X16048754Y-15902746D01*
X16048754Y-15902746D02*
X16048754Y-15959888D01*
X16048754Y-15959888D02*
X16039230Y-15978936D01*
X16039230Y-15978936D02*
X16029706Y-15988460D01*
X16029706Y-15988460D02*
X16010658Y-15997984D01*
X16010658Y-15997984D02*
X15982087Y-15997984D01*
X16105896Y-15864650D02*
X16182087Y-15864650D01*
X16134468Y-15797984D02*
X16134468Y-15969412D01*
X16134468Y-15969412D02*
X16143992Y-15988460D01*
X16143992Y-15988460D02*
X16163039Y-15997984D01*
X16163039Y-15997984D02*
X16182087Y-15997984D01*
X16239230Y-15988460D02*
X16258277Y-15997984D01*
X16258277Y-15997984D02*
X16296373Y-15997984D01*
X16296373Y-15997984D02*
X16315420Y-15988460D01*
X16315420Y-15988460D02*
X16324944Y-15969412D01*
X16324944Y-15969412D02*
X16324944Y-15959888D01*
X16324944Y-15959888D02*
X16315420Y-15940841D01*
X16315420Y-15940841D02*
X16296373Y-15931317D01*
X16296373Y-15931317D02*
X16267801Y-15931317D01*
X16267801Y-15931317D02*
X16248754Y-15921793D01*
X16248754Y-15921793D02*
X16239230Y-15902746D01*
X16239230Y-15902746D02*
X16239230Y-15893222D01*
X16239230Y-15893222D02*
X16248754Y-15874174D01*
X16248754Y-15874174D02*
X16267801Y-15864650D01*
X16267801Y-15864650D02*
X16296373Y-15864650D01*
X16296373Y-15864650D02*
X16315420Y-15874174D01*
X16391611Y-16074174D02*
X16401135Y-16064650D01*
X16401135Y-16064650D02*
X16420182Y-16036079D01*
X16420182Y-16036079D02*
X16429706Y-16017031D01*
X16429706Y-16017031D02*
X16439230Y-15988460D01*
X16439230Y-15988460D02*
X16448754Y-15940841D01*
X16448754Y-15940841D02*
X16448754Y-15902746D01*
X16448754Y-15902746D02*
X16439230Y-15855127D01*
X16439230Y-15855127D02*
X16429706Y-15826555D01*
X16429706Y-15826555D02*
X16420182Y-15807508D01*
X16420182Y-15807508D02*
X16401135Y-15778936D01*
X16401135Y-15778936D02*
X16391611Y-15769412D01*
D12*
X9960000Y-16133000D02*
X9960000Y-16208000D01*
X9922500Y-16170500D02*
X9997500Y-16170500D01*
D11*
X10296372Y-16061984D02*
X10315420Y-16061984D01*
X10315420Y-16061984D02*
X10334467Y-16071508D01*
X10334467Y-16071508D02*
X10343991Y-16081031D01*
X10343991Y-16081031D02*
X10353515Y-16100079D01*
X10353515Y-16100079D02*
X10363039Y-16138174D01*
X10363039Y-16138174D02*
X10363039Y-16185793D01*
X10363039Y-16185793D02*
X10353515Y-16223888D01*
X10353515Y-16223888D02*
X10343991Y-16242936D01*
X10343991Y-16242936D02*
X10334467Y-16252460D01*
X10334467Y-16252460D02*
X10315420Y-16261984D01*
X10315420Y-16261984D02*
X10296372Y-16261984D01*
X10296372Y-16261984D02*
X10277324Y-16252460D01*
X10277324Y-16252460D02*
X10267801Y-16242936D01*
X10267801Y-16242936D02*
X10258277Y-16223888D01*
X10258277Y-16223888D02*
X10248753Y-16185793D01*
X10248753Y-16185793D02*
X10248753Y-16138174D01*
X10248753Y-16138174D02*
X10258277Y-16100079D01*
X10258277Y-16100079D02*
X10267801Y-16081031D01*
X10267801Y-16081031D02*
X10277324Y-16071508D01*
X10277324Y-16071508D02*
X10296372Y-16061984D01*
X10448753Y-16242936D02*
X10458277Y-16252460D01*
X10458277Y-16252460D02*
X10448753Y-16261984D01*
X10448753Y-16261984D02*
X10439229Y-16252460D01*
X10439229Y-16252460D02*
X10448753Y-16242936D01*
X10448753Y-16242936D02*
X10448753Y-16261984D01*
X10524944Y-16061984D02*
X10658277Y-16061984D01*
X10658277Y-16061984D02*
X10572563Y-16261984D01*
X10829705Y-16061984D02*
X10734467Y-16061984D01*
X10734467Y-16061984D02*
X10724944Y-16157222D01*
X10724944Y-16157222D02*
X10734467Y-16147698D01*
X10734467Y-16147698D02*
X10753515Y-16138174D01*
X10753515Y-16138174D02*
X10801134Y-16138174D01*
X10801134Y-16138174D02*
X10820182Y-16147698D01*
X10820182Y-16147698D02*
X10829705Y-16157222D01*
X10829705Y-16157222D02*
X10839229Y-16176269D01*
X10839229Y-16176269D02*
X10839229Y-16223888D01*
X10839229Y-16223888D02*
X10829705Y-16242936D01*
X10829705Y-16242936D02*
X10820182Y-16252460D01*
X10820182Y-16252460D02*
X10801134Y-16261984D01*
X10801134Y-16261984D02*
X10753515Y-16261984D01*
X10753515Y-16261984D02*
X10734467Y-16252460D01*
X10734467Y-16252460D02*
X10724944Y-16242936D01*
X10963039Y-16061984D02*
X10982086Y-16061984D01*
X10982086Y-16061984D02*
X11001134Y-16071508D01*
X11001134Y-16071508D02*
X11010658Y-16081031D01*
X11010658Y-16081031D02*
X11020182Y-16100079D01*
X11020182Y-16100079D02*
X11029705Y-16138174D01*
X11029705Y-16138174D02*
X11029705Y-16185793D01*
X11029705Y-16185793D02*
X11020182Y-16223888D01*
X11020182Y-16223888D02*
X11010658Y-16242936D01*
X11010658Y-16242936D02*
X11001134Y-16252460D01*
X11001134Y-16252460D02*
X10982086Y-16261984D01*
X10982086Y-16261984D02*
X10963039Y-16261984D01*
X10963039Y-16261984D02*
X10943991Y-16252460D01*
X10943991Y-16252460D02*
X10934467Y-16242936D01*
X10934467Y-16242936D02*
X10924944Y-16223888D01*
X10924944Y-16223888D02*
X10915420Y-16185793D01*
X10915420Y-16185793D02*
X10915420Y-16138174D01*
X10915420Y-16138174D02*
X10924944Y-16100079D01*
X10924944Y-16100079D02*
X10934467Y-16081031D01*
X10934467Y-16081031D02*
X10943991Y-16071508D01*
X10943991Y-16071508D02*
X10963039Y-16061984D01*
X11115420Y-16261984D02*
X11115420Y-16128650D01*
X11115420Y-16147698D02*
X11124944Y-16138174D01*
X11124944Y-16138174D02*
X11143991Y-16128650D01*
X11143991Y-16128650D02*
X11172563Y-16128650D01*
X11172563Y-16128650D02*
X11191610Y-16138174D01*
X11191610Y-16138174D02*
X11201134Y-16157222D01*
X11201134Y-16157222D02*
X11201134Y-16261984D01*
X11201134Y-16157222D02*
X11210658Y-16138174D01*
X11210658Y-16138174D02*
X11229705Y-16128650D01*
X11229705Y-16128650D02*
X11258277Y-16128650D01*
X11258277Y-16128650D02*
X11277324Y-16138174D01*
X11277324Y-16138174D02*
X11286848Y-16157222D01*
X11286848Y-16157222D02*
X11286848Y-16261984D01*
X11382086Y-16261984D02*
X11382086Y-16128650D01*
X11382086Y-16147698D02*
X11391610Y-16138174D01*
X11391610Y-16138174D02*
X11410658Y-16128650D01*
X11410658Y-16128650D02*
X11439229Y-16128650D01*
X11439229Y-16128650D02*
X11458277Y-16138174D01*
X11458277Y-16138174D02*
X11467801Y-16157222D01*
X11467801Y-16157222D02*
X11467801Y-16261984D01*
X11467801Y-16157222D02*
X11477324Y-16138174D01*
X11477324Y-16138174D02*
X11496372Y-16128650D01*
X11496372Y-16128650D02*
X11524943Y-16128650D01*
X11524943Y-16128650D02*
X11543991Y-16138174D01*
X11543991Y-16138174D02*
X11553515Y-16157222D01*
X11553515Y-16157222D02*
X11553515Y-16261984D01*
X11943991Y-16052460D02*
X11772563Y-16309603D01*
X12201134Y-16061984D02*
X12220182Y-16061984D01*
X12220182Y-16061984D02*
X12239229Y-16071508D01*
X12239229Y-16071508D02*
X12248753Y-16081031D01*
X12248753Y-16081031D02*
X12258277Y-16100079D01*
X12258277Y-16100079D02*
X12267801Y-16138174D01*
X12267801Y-16138174D02*
X12267801Y-16185793D01*
X12267801Y-16185793D02*
X12258277Y-16223888D01*
X12258277Y-16223888D02*
X12248753Y-16242936D01*
X12248753Y-16242936D02*
X12239229Y-16252460D01*
X12239229Y-16252460D02*
X12220182Y-16261984D01*
X12220182Y-16261984D02*
X12201134Y-16261984D01*
X12201134Y-16261984D02*
X12182086Y-16252460D01*
X12182086Y-16252460D02*
X12172563Y-16242936D01*
X12172563Y-16242936D02*
X12163039Y-16223888D01*
X12163039Y-16223888D02*
X12153515Y-16185793D01*
X12153515Y-16185793D02*
X12153515Y-16138174D01*
X12153515Y-16138174D02*
X12163039Y-16100079D01*
X12163039Y-16100079D02*
X12172563Y-16081031D01*
X12172563Y-16081031D02*
X12182086Y-16071508D01*
X12182086Y-16071508D02*
X12201134Y-16061984D01*
X12353515Y-16242936D02*
X12363039Y-16252460D01*
X12363039Y-16252460D02*
X12353515Y-16261984D01*
X12353515Y-16261984D02*
X12343991Y-16252460D01*
X12343991Y-16252460D02*
X12353515Y-16242936D01*
X12353515Y-16242936D02*
X12353515Y-16261984D01*
X12486848Y-16061984D02*
X12505896Y-16061984D01*
X12505896Y-16061984D02*
X12524944Y-16071508D01*
X12524944Y-16071508D02*
X12534467Y-16081031D01*
X12534467Y-16081031D02*
X12543991Y-16100079D01*
X12543991Y-16100079D02*
X12553515Y-16138174D01*
X12553515Y-16138174D02*
X12553515Y-16185793D01*
X12553515Y-16185793D02*
X12543991Y-16223888D01*
X12543991Y-16223888D02*
X12534467Y-16242936D01*
X12534467Y-16242936D02*
X12524944Y-16252460D01*
X12524944Y-16252460D02*
X12505896Y-16261984D01*
X12505896Y-16261984D02*
X12486848Y-16261984D01*
X12486848Y-16261984D02*
X12467801Y-16252460D01*
X12467801Y-16252460D02*
X12458277Y-16242936D01*
X12458277Y-16242936D02*
X12448753Y-16223888D01*
X12448753Y-16223888D02*
X12439229Y-16185793D01*
X12439229Y-16185793D02*
X12439229Y-16138174D01*
X12439229Y-16138174D02*
X12448753Y-16100079D01*
X12448753Y-16100079D02*
X12458277Y-16081031D01*
X12458277Y-16081031D02*
X12467801Y-16071508D01*
X12467801Y-16071508D02*
X12486848Y-16061984D01*
X12629706Y-16081031D02*
X12639229Y-16071508D01*
X12639229Y-16071508D02*
X12658277Y-16061984D01*
X12658277Y-16061984D02*
X12705896Y-16061984D01*
X12705896Y-16061984D02*
X12724944Y-16071508D01*
X12724944Y-16071508D02*
X12734467Y-16081031D01*
X12734467Y-16081031D02*
X12743991Y-16100079D01*
X12743991Y-16100079D02*
X12743991Y-16119127D01*
X12743991Y-16119127D02*
X12734467Y-16147698D01*
X12734467Y-16147698D02*
X12620182Y-16261984D01*
X12620182Y-16261984D02*
X12743991Y-16261984D01*
X12839229Y-16261984D02*
X12877325Y-16261984D01*
X12877325Y-16261984D02*
X12896372Y-16252460D01*
X12896372Y-16252460D02*
X12905896Y-16242936D01*
X12905896Y-16242936D02*
X12924944Y-16214365D01*
X12924944Y-16214365D02*
X12934467Y-16176269D01*
X12934467Y-16176269D02*
X12934467Y-16100079D01*
X12934467Y-16100079D02*
X12924944Y-16081031D01*
X12924944Y-16081031D02*
X12915420Y-16071508D01*
X12915420Y-16071508D02*
X12896372Y-16061984D01*
X12896372Y-16061984D02*
X12858277Y-16061984D01*
X12858277Y-16061984D02*
X12839229Y-16071508D01*
X12839229Y-16071508D02*
X12829706Y-16081031D01*
X12829706Y-16081031D02*
X12820182Y-16100079D01*
X12820182Y-16100079D02*
X12820182Y-16147698D01*
X12820182Y-16147698D02*
X12829706Y-16166746D01*
X12829706Y-16166746D02*
X12839229Y-16176269D01*
X12839229Y-16176269D02*
X12858277Y-16185793D01*
X12858277Y-16185793D02*
X12896372Y-16185793D01*
X12896372Y-16185793D02*
X12915420Y-16176269D01*
X12915420Y-16176269D02*
X12924944Y-16166746D01*
X12924944Y-16166746D02*
X12934467Y-16147698D01*
X13115420Y-16061984D02*
X13020182Y-16061984D01*
X13020182Y-16061984D02*
X13010658Y-16157222D01*
X13010658Y-16157222D02*
X13020182Y-16147698D01*
X13020182Y-16147698D02*
X13039229Y-16138174D01*
X13039229Y-16138174D02*
X13086848Y-16138174D01*
X13086848Y-16138174D02*
X13105896Y-16147698D01*
X13105896Y-16147698D02*
X13115420Y-16157222D01*
X13115420Y-16157222D02*
X13124944Y-16176269D01*
X13124944Y-16176269D02*
X13124944Y-16223888D01*
X13124944Y-16223888D02*
X13115420Y-16242936D01*
X13115420Y-16242936D02*
X13105896Y-16252460D01*
X13105896Y-16252460D02*
X13086848Y-16261984D01*
X13086848Y-16261984D02*
X13039229Y-16261984D01*
X13039229Y-16261984D02*
X13020182Y-16252460D01*
X13020182Y-16252460D02*
X13010658Y-16242936D01*
X13201134Y-16061984D02*
X13201134Y-16100079D01*
X13277325Y-16061984D02*
X13277325Y-16100079D01*
X13572563Y-16338174D02*
X13563039Y-16328650D01*
X13563039Y-16328650D02*
X13543991Y-16300079D01*
X13543991Y-16300079D02*
X13534468Y-16281031D01*
X13534468Y-16281031D02*
X13524944Y-16252460D01*
X13524944Y-16252460D02*
X13515420Y-16204841D01*
X13515420Y-16204841D02*
X13515420Y-16166746D01*
X13515420Y-16166746D02*
X13524944Y-16119127D01*
X13524944Y-16119127D02*
X13534468Y-16090555D01*
X13534468Y-16090555D02*
X13543991Y-16071508D01*
X13543991Y-16071508D02*
X13563039Y-16042936D01*
X13563039Y-16042936D02*
X13572563Y-16033412D01*
X13629706Y-16061984D02*
X13753515Y-16061984D01*
X13753515Y-16061984D02*
X13686848Y-16138174D01*
X13686848Y-16138174D02*
X13715420Y-16138174D01*
X13715420Y-16138174D02*
X13734468Y-16147698D01*
X13734468Y-16147698D02*
X13743991Y-16157222D01*
X13743991Y-16157222D02*
X13753515Y-16176269D01*
X13753515Y-16176269D02*
X13753515Y-16223888D01*
X13753515Y-16223888D02*
X13743991Y-16242936D01*
X13743991Y-16242936D02*
X13734468Y-16252460D01*
X13734468Y-16252460D02*
X13715420Y-16261984D01*
X13715420Y-16261984D02*
X13658277Y-16261984D01*
X13658277Y-16261984D02*
X13639229Y-16252460D01*
X13639229Y-16252460D02*
X13629706Y-16242936D01*
X13991610Y-16261984D02*
X13991610Y-16061984D01*
X14077325Y-16261984D02*
X14077325Y-16157222D01*
X14077325Y-16157222D02*
X14067801Y-16138174D01*
X14067801Y-16138174D02*
X14048753Y-16128650D01*
X14048753Y-16128650D02*
X14020182Y-16128650D01*
X14020182Y-16128650D02*
X14001134Y-16138174D01*
X14001134Y-16138174D02*
X13991610Y-16147698D01*
X14201134Y-16261984D02*
X14182087Y-16252460D01*
X14182087Y-16252460D02*
X14172563Y-16242936D01*
X14172563Y-16242936D02*
X14163039Y-16223888D01*
X14163039Y-16223888D02*
X14163039Y-16166746D01*
X14163039Y-16166746D02*
X14172563Y-16147698D01*
X14172563Y-16147698D02*
X14182087Y-16138174D01*
X14182087Y-16138174D02*
X14201134Y-16128650D01*
X14201134Y-16128650D02*
X14229706Y-16128650D01*
X14229706Y-16128650D02*
X14248753Y-16138174D01*
X14248753Y-16138174D02*
X14258277Y-16147698D01*
X14258277Y-16147698D02*
X14267801Y-16166746D01*
X14267801Y-16166746D02*
X14267801Y-16223888D01*
X14267801Y-16223888D02*
X14258277Y-16242936D01*
X14258277Y-16242936D02*
X14248753Y-16252460D01*
X14248753Y-16252460D02*
X14229706Y-16261984D01*
X14229706Y-16261984D02*
X14201134Y-16261984D01*
X14382087Y-16261984D02*
X14363039Y-16252460D01*
X14363039Y-16252460D02*
X14353515Y-16233412D01*
X14353515Y-16233412D02*
X14353515Y-16061984D01*
X14534468Y-16252460D02*
X14515420Y-16261984D01*
X14515420Y-16261984D02*
X14477325Y-16261984D01*
X14477325Y-16261984D02*
X14458277Y-16252460D01*
X14458277Y-16252460D02*
X14448753Y-16233412D01*
X14448753Y-16233412D02*
X14448753Y-16157222D01*
X14448753Y-16157222D02*
X14458277Y-16138174D01*
X14458277Y-16138174D02*
X14477325Y-16128650D01*
X14477325Y-16128650D02*
X14515420Y-16128650D01*
X14515420Y-16128650D02*
X14534468Y-16138174D01*
X14534468Y-16138174D02*
X14543991Y-16157222D01*
X14543991Y-16157222D02*
X14543991Y-16176269D01*
X14543991Y-16176269D02*
X14448753Y-16195317D01*
X14620182Y-16252460D02*
X14639230Y-16261984D01*
X14639230Y-16261984D02*
X14677325Y-16261984D01*
X14677325Y-16261984D02*
X14696372Y-16252460D01*
X14696372Y-16252460D02*
X14705896Y-16233412D01*
X14705896Y-16233412D02*
X14705896Y-16223888D01*
X14705896Y-16223888D02*
X14696372Y-16204841D01*
X14696372Y-16204841D02*
X14677325Y-16195317D01*
X14677325Y-16195317D02*
X14648753Y-16195317D01*
X14648753Y-16195317D02*
X14629706Y-16185793D01*
X14629706Y-16185793D02*
X14620182Y-16166746D01*
X14620182Y-16166746D02*
X14620182Y-16157222D01*
X14620182Y-16157222D02*
X14629706Y-16138174D01*
X14629706Y-16138174D02*
X14648753Y-16128650D01*
X14648753Y-16128650D02*
X14677325Y-16128650D01*
X14677325Y-16128650D02*
X14696372Y-16138174D01*
X14772563Y-16338174D02*
X14782087Y-16328650D01*
X14782087Y-16328650D02*
X14801134Y-16300079D01*
X14801134Y-16300079D02*
X14810658Y-16281031D01*
X14810658Y-16281031D02*
X14820182Y-16252460D01*
X14820182Y-16252460D02*
X14829706Y-16204841D01*
X14829706Y-16204841D02*
X14829706Y-16166746D01*
X14829706Y-16166746D02*
X14820182Y-16119127D01*
X14820182Y-16119127D02*
X14810658Y-16090555D01*
X14810658Y-16090555D02*
X14801134Y-16071508D01*
X14801134Y-16071508D02*
X14782087Y-16042936D01*
X14782087Y-16042936D02*
X14772563Y-16033412D01*
D12*
X9985785Y-16462784D02*
X9985785Y-16406215D01*
X9929216Y-16406215D01*
X9929216Y-16462784D01*
X9985785Y-16462784D01*
D11*
X10296372Y-16325984D02*
X10315420Y-16325984D01*
X10315420Y-16325984D02*
X10334467Y-16335508D01*
X10334467Y-16335508D02*
X10343991Y-16345031D01*
X10343991Y-16345031D02*
X10353515Y-16364079D01*
X10353515Y-16364079D02*
X10363039Y-16402174D01*
X10363039Y-16402174D02*
X10363039Y-16449793D01*
X10363039Y-16449793D02*
X10353515Y-16487888D01*
X10353515Y-16487888D02*
X10343991Y-16506936D01*
X10343991Y-16506936D02*
X10334467Y-16516460D01*
X10334467Y-16516460D02*
X10315420Y-16525984D01*
X10315420Y-16525984D02*
X10296372Y-16525984D01*
X10296372Y-16525984D02*
X10277324Y-16516460D01*
X10277324Y-16516460D02*
X10267801Y-16506936D01*
X10267801Y-16506936D02*
X10258277Y-16487888D01*
X10258277Y-16487888D02*
X10248753Y-16449793D01*
X10248753Y-16449793D02*
X10248753Y-16402174D01*
X10248753Y-16402174D02*
X10258277Y-16364079D01*
X10258277Y-16364079D02*
X10267801Y-16345031D01*
X10267801Y-16345031D02*
X10277324Y-16335508D01*
X10277324Y-16335508D02*
X10296372Y-16325984D01*
X10448753Y-16506936D02*
X10458277Y-16516460D01*
X10458277Y-16516460D02*
X10448753Y-16525984D01*
X10448753Y-16525984D02*
X10439229Y-16516460D01*
X10439229Y-16516460D02*
X10448753Y-16506936D01*
X10448753Y-16506936D02*
X10448753Y-16525984D01*
X10572563Y-16411698D02*
X10553515Y-16402174D01*
X10553515Y-16402174D02*
X10543991Y-16392650D01*
X10543991Y-16392650D02*
X10534467Y-16373603D01*
X10534467Y-16373603D02*
X10534467Y-16364079D01*
X10534467Y-16364079D02*
X10543991Y-16345031D01*
X10543991Y-16345031D02*
X10553515Y-16335508D01*
X10553515Y-16335508D02*
X10572563Y-16325984D01*
X10572563Y-16325984D02*
X10610658Y-16325984D01*
X10610658Y-16325984D02*
X10629705Y-16335508D01*
X10629705Y-16335508D02*
X10639229Y-16345031D01*
X10639229Y-16345031D02*
X10648753Y-16364079D01*
X10648753Y-16364079D02*
X10648753Y-16373603D01*
X10648753Y-16373603D02*
X10639229Y-16392650D01*
X10639229Y-16392650D02*
X10629705Y-16402174D01*
X10629705Y-16402174D02*
X10610658Y-16411698D01*
X10610658Y-16411698D02*
X10572563Y-16411698D01*
X10572563Y-16411698D02*
X10553515Y-16421222D01*
X10553515Y-16421222D02*
X10543991Y-16430746D01*
X10543991Y-16430746D02*
X10534467Y-16449793D01*
X10534467Y-16449793D02*
X10534467Y-16487888D01*
X10534467Y-16487888D02*
X10543991Y-16506936D01*
X10543991Y-16506936D02*
X10553515Y-16516460D01*
X10553515Y-16516460D02*
X10572563Y-16525984D01*
X10572563Y-16525984D02*
X10610658Y-16525984D01*
X10610658Y-16525984D02*
X10629705Y-16516460D01*
X10629705Y-16516460D02*
X10639229Y-16506936D01*
X10639229Y-16506936D02*
X10648753Y-16487888D01*
X10648753Y-16487888D02*
X10648753Y-16449793D01*
X10648753Y-16449793D02*
X10639229Y-16430746D01*
X10639229Y-16430746D02*
X10629705Y-16421222D01*
X10629705Y-16421222D02*
X10610658Y-16411698D01*
X10772563Y-16325984D02*
X10791610Y-16325984D01*
X10791610Y-16325984D02*
X10810658Y-16335508D01*
X10810658Y-16335508D02*
X10820182Y-16345031D01*
X10820182Y-16345031D02*
X10829705Y-16364079D01*
X10829705Y-16364079D02*
X10839229Y-16402174D01*
X10839229Y-16402174D02*
X10839229Y-16449793D01*
X10839229Y-16449793D02*
X10829705Y-16487888D01*
X10829705Y-16487888D02*
X10820182Y-16506936D01*
X10820182Y-16506936D02*
X10810658Y-16516460D01*
X10810658Y-16516460D02*
X10791610Y-16525984D01*
X10791610Y-16525984D02*
X10772563Y-16525984D01*
X10772563Y-16525984D02*
X10753515Y-16516460D01*
X10753515Y-16516460D02*
X10743991Y-16506936D01*
X10743991Y-16506936D02*
X10734467Y-16487888D01*
X10734467Y-16487888D02*
X10724944Y-16449793D01*
X10724944Y-16449793D02*
X10724944Y-16402174D01*
X10724944Y-16402174D02*
X10734467Y-16364079D01*
X10734467Y-16364079D02*
X10743991Y-16345031D01*
X10743991Y-16345031D02*
X10753515Y-16335508D01*
X10753515Y-16335508D02*
X10772563Y-16325984D01*
X10963039Y-16325984D02*
X10982086Y-16325984D01*
X10982086Y-16325984D02*
X11001134Y-16335508D01*
X11001134Y-16335508D02*
X11010658Y-16345031D01*
X11010658Y-16345031D02*
X11020182Y-16364079D01*
X11020182Y-16364079D02*
X11029705Y-16402174D01*
X11029705Y-16402174D02*
X11029705Y-16449793D01*
X11029705Y-16449793D02*
X11020182Y-16487888D01*
X11020182Y-16487888D02*
X11010658Y-16506936D01*
X11010658Y-16506936D02*
X11001134Y-16516460D01*
X11001134Y-16516460D02*
X10982086Y-16525984D01*
X10982086Y-16525984D02*
X10963039Y-16525984D01*
X10963039Y-16525984D02*
X10943991Y-16516460D01*
X10943991Y-16516460D02*
X10934467Y-16506936D01*
X10934467Y-16506936D02*
X10924944Y-16487888D01*
X10924944Y-16487888D02*
X10915420Y-16449793D01*
X10915420Y-16449793D02*
X10915420Y-16402174D01*
X10915420Y-16402174D02*
X10924944Y-16364079D01*
X10924944Y-16364079D02*
X10934467Y-16345031D01*
X10934467Y-16345031D02*
X10943991Y-16335508D01*
X10943991Y-16335508D02*
X10963039Y-16325984D01*
X11115420Y-16525984D02*
X11115420Y-16392650D01*
X11115420Y-16411698D02*
X11124944Y-16402174D01*
X11124944Y-16402174D02*
X11143991Y-16392650D01*
X11143991Y-16392650D02*
X11172563Y-16392650D01*
X11172563Y-16392650D02*
X11191610Y-16402174D01*
X11191610Y-16402174D02*
X11201134Y-16421222D01*
X11201134Y-16421222D02*
X11201134Y-16525984D01*
X11201134Y-16421222D02*
X11210658Y-16402174D01*
X11210658Y-16402174D02*
X11229705Y-16392650D01*
X11229705Y-16392650D02*
X11258277Y-16392650D01*
X11258277Y-16392650D02*
X11277324Y-16402174D01*
X11277324Y-16402174D02*
X11286848Y-16421222D01*
X11286848Y-16421222D02*
X11286848Y-16525984D01*
X11382086Y-16525984D02*
X11382086Y-16392650D01*
X11382086Y-16411698D02*
X11391610Y-16402174D01*
X11391610Y-16402174D02*
X11410658Y-16392650D01*
X11410658Y-16392650D02*
X11439229Y-16392650D01*
X11439229Y-16392650D02*
X11458277Y-16402174D01*
X11458277Y-16402174D02*
X11467801Y-16421222D01*
X11467801Y-16421222D02*
X11467801Y-16525984D01*
X11467801Y-16421222D02*
X11477324Y-16402174D01*
X11477324Y-16402174D02*
X11496372Y-16392650D01*
X11496372Y-16392650D02*
X11524943Y-16392650D01*
X11524943Y-16392650D02*
X11543991Y-16402174D01*
X11543991Y-16402174D02*
X11553515Y-16421222D01*
X11553515Y-16421222D02*
X11553515Y-16525984D01*
X11943991Y-16316460D02*
X11772563Y-16573603D01*
X12201134Y-16325984D02*
X12220182Y-16325984D01*
X12220182Y-16325984D02*
X12239229Y-16335508D01*
X12239229Y-16335508D02*
X12248753Y-16345031D01*
X12248753Y-16345031D02*
X12258277Y-16364079D01*
X12258277Y-16364079D02*
X12267801Y-16402174D01*
X12267801Y-16402174D02*
X12267801Y-16449793D01*
X12267801Y-16449793D02*
X12258277Y-16487888D01*
X12258277Y-16487888D02*
X12248753Y-16506936D01*
X12248753Y-16506936D02*
X12239229Y-16516460D01*
X12239229Y-16516460D02*
X12220182Y-16525984D01*
X12220182Y-16525984D02*
X12201134Y-16525984D01*
X12201134Y-16525984D02*
X12182086Y-16516460D01*
X12182086Y-16516460D02*
X12172563Y-16506936D01*
X12172563Y-16506936D02*
X12163039Y-16487888D01*
X12163039Y-16487888D02*
X12153515Y-16449793D01*
X12153515Y-16449793D02*
X12153515Y-16402174D01*
X12153515Y-16402174D02*
X12163039Y-16364079D01*
X12163039Y-16364079D02*
X12172563Y-16345031D01*
X12172563Y-16345031D02*
X12182086Y-16335508D01*
X12182086Y-16335508D02*
X12201134Y-16325984D01*
X12353515Y-16506936D02*
X12363039Y-16516460D01*
X12363039Y-16516460D02*
X12353515Y-16525984D01*
X12353515Y-16525984D02*
X12343991Y-16516460D01*
X12343991Y-16516460D02*
X12353515Y-16506936D01*
X12353515Y-16506936D02*
X12353515Y-16525984D01*
X12486848Y-16325984D02*
X12505896Y-16325984D01*
X12505896Y-16325984D02*
X12524944Y-16335508D01*
X12524944Y-16335508D02*
X12534467Y-16345031D01*
X12534467Y-16345031D02*
X12543991Y-16364079D01*
X12543991Y-16364079D02*
X12553515Y-16402174D01*
X12553515Y-16402174D02*
X12553515Y-16449793D01*
X12553515Y-16449793D02*
X12543991Y-16487888D01*
X12543991Y-16487888D02*
X12534467Y-16506936D01*
X12534467Y-16506936D02*
X12524944Y-16516460D01*
X12524944Y-16516460D02*
X12505896Y-16525984D01*
X12505896Y-16525984D02*
X12486848Y-16525984D01*
X12486848Y-16525984D02*
X12467801Y-16516460D01*
X12467801Y-16516460D02*
X12458277Y-16506936D01*
X12458277Y-16506936D02*
X12448753Y-16487888D01*
X12448753Y-16487888D02*
X12439229Y-16449793D01*
X12439229Y-16449793D02*
X12439229Y-16402174D01*
X12439229Y-16402174D02*
X12448753Y-16364079D01*
X12448753Y-16364079D02*
X12458277Y-16345031D01*
X12458277Y-16345031D02*
X12467801Y-16335508D01*
X12467801Y-16335508D02*
X12486848Y-16325984D01*
X12620182Y-16325984D02*
X12743991Y-16325984D01*
X12743991Y-16325984D02*
X12677325Y-16402174D01*
X12677325Y-16402174D02*
X12705896Y-16402174D01*
X12705896Y-16402174D02*
X12724944Y-16411698D01*
X12724944Y-16411698D02*
X12734467Y-16421222D01*
X12734467Y-16421222D02*
X12743991Y-16440269D01*
X12743991Y-16440269D02*
X12743991Y-16487888D01*
X12743991Y-16487888D02*
X12734467Y-16506936D01*
X12734467Y-16506936D02*
X12724944Y-16516460D01*
X12724944Y-16516460D02*
X12705896Y-16525984D01*
X12705896Y-16525984D02*
X12648753Y-16525984D01*
X12648753Y-16525984D02*
X12629706Y-16516460D01*
X12629706Y-16516460D02*
X12620182Y-16506936D01*
X12934467Y-16525984D02*
X12820182Y-16525984D01*
X12877325Y-16525984D02*
X12877325Y-16325984D01*
X12877325Y-16325984D02*
X12858277Y-16354555D01*
X12858277Y-16354555D02*
X12839229Y-16373603D01*
X12839229Y-16373603D02*
X12820182Y-16383127D01*
X13115420Y-16325984D02*
X13020182Y-16325984D01*
X13020182Y-16325984D02*
X13010658Y-16421222D01*
X13010658Y-16421222D02*
X13020182Y-16411698D01*
X13020182Y-16411698D02*
X13039229Y-16402174D01*
X13039229Y-16402174D02*
X13086848Y-16402174D01*
X13086848Y-16402174D02*
X13105896Y-16411698D01*
X13105896Y-16411698D02*
X13115420Y-16421222D01*
X13115420Y-16421222D02*
X13124944Y-16440269D01*
X13124944Y-16440269D02*
X13124944Y-16487888D01*
X13124944Y-16487888D02*
X13115420Y-16506936D01*
X13115420Y-16506936D02*
X13105896Y-16516460D01*
X13105896Y-16516460D02*
X13086848Y-16525984D01*
X13086848Y-16525984D02*
X13039229Y-16525984D01*
X13039229Y-16525984D02*
X13020182Y-16516460D01*
X13020182Y-16516460D02*
X13010658Y-16506936D01*
X13201134Y-16325984D02*
X13201134Y-16364079D01*
X13277325Y-16325984D02*
X13277325Y-16364079D01*
X13572563Y-16602174D02*
X13563039Y-16592650D01*
X13563039Y-16592650D02*
X13543991Y-16564079D01*
X13543991Y-16564079D02*
X13534468Y-16545031D01*
X13534468Y-16545031D02*
X13524944Y-16516460D01*
X13524944Y-16516460D02*
X13515420Y-16468841D01*
X13515420Y-16468841D02*
X13515420Y-16430746D01*
X13515420Y-16430746D02*
X13524944Y-16383127D01*
X13524944Y-16383127D02*
X13534468Y-16354555D01*
X13534468Y-16354555D02*
X13543991Y-16335508D01*
X13543991Y-16335508D02*
X13563039Y-16306936D01*
X13563039Y-16306936D02*
X13572563Y-16297412D01*
X13753515Y-16525984D02*
X13639229Y-16525984D01*
X13696372Y-16525984D02*
X13696372Y-16325984D01*
X13696372Y-16325984D02*
X13677325Y-16354555D01*
X13677325Y-16354555D02*
X13658277Y-16373603D01*
X13658277Y-16373603D02*
X13639229Y-16383127D01*
X13924944Y-16325984D02*
X13886848Y-16325984D01*
X13886848Y-16325984D02*
X13867801Y-16335508D01*
X13867801Y-16335508D02*
X13858277Y-16345031D01*
X13858277Y-16345031D02*
X13839229Y-16373603D01*
X13839229Y-16373603D02*
X13829706Y-16411698D01*
X13829706Y-16411698D02*
X13829706Y-16487888D01*
X13829706Y-16487888D02*
X13839229Y-16506936D01*
X13839229Y-16506936D02*
X13848753Y-16516460D01*
X13848753Y-16516460D02*
X13867801Y-16525984D01*
X13867801Y-16525984D02*
X13905896Y-16525984D01*
X13905896Y-16525984D02*
X13924944Y-16516460D01*
X13924944Y-16516460D02*
X13934468Y-16506936D01*
X13934468Y-16506936D02*
X13943991Y-16487888D01*
X13943991Y-16487888D02*
X13943991Y-16440269D01*
X13943991Y-16440269D02*
X13934468Y-16421222D01*
X13934468Y-16421222D02*
X13924944Y-16411698D01*
X13924944Y-16411698D02*
X13905896Y-16402174D01*
X13905896Y-16402174D02*
X13867801Y-16402174D01*
X13867801Y-16402174D02*
X13848753Y-16411698D01*
X13848753Y-16411698D02*
X13839229Y-16421222D01*
X13839229Y-16421222D02*
X13829706Y-16440269D01*
X14020182Y-16345031D02*
X14029706Y-16335508D01*
X14029706Y-16335508D02*
X14048753Y-16325984D01*
X14048753Y-16325984D02*
X14096372Y-16325984D01*
X14096372Y-16325984D02*
X14115420Y-16335508D01*
X14115420Y-16335508D02*
X14124944Y-16345031D01*
X14124944Y-16345031D02*
X14134468Y-16364079D01*
X14134468Y-16364079D02*
X14134468Y-16383127D01*
X14134468Y-16383127D02*
X14124944Y-16411698D01*
X14124944Y-16411698D02*
X14010658Y-16525984D01*
X14010658Y-16525984D02*
X14134468Y-16525984D01*
X14372563Y-16525984D02*
X14372563Y-16325984D01*
X14458277Y-16525984D02*
X14458277Y-16421222D01*
X14458277Y-16421222D02*
X14448753Y-16402174D01*
X14448753Y-16402174D02*
X14429706Y-16392650D01*
X14429706Y-16392650D02*
X14401134Y-16392650D01*
X14401134Y-16392650D02*
X14382087Y-16402174D01*
X14382087Y-16402174D02*
X14372563Y-16411698D01*
X14582087Y-16525984D02*
X14563039Y-16516460D01*
X14563039Y-16516460D02*
X14553515Y-16506936D01*
X14553515Y-16506936D02*
X14543991Y-16487888D01*
X14543991Y-16487888D02*
X14543991Y-16430746D01*
X14543991Y-16430746D02*
X14553515Y-16411698D01*
X14553515Y-16411698D02*
X14563039Y-16402174D01*
X14563039Y-16402174D02*
X14582087Y-16392650D01*
X14582087Y-16392650D02*
X14610658Y-16392650D01*
X14610658Y-16392650D02*
X14629706Y-16402174D01*
X14629706Y-16402174D02*
X14639230Y-16411698D01*
X14639230Y-16411698D02*
X14648753Y-16430746D01*
X14648753Y-16430746D02*
X14648753Y-16487888D01*
X14648753Y-16487888D02*
X14639230Y-16506936D01*
X14639230Y-16506936D02*
X14629706Y-16516460D01*
X14629706Y-16516460D02*
X14610658Y-16525984D01*
X14610658Y-16525984D02*
X14582087Y-16525984D01*
X14763039Y-16525984D02*
X14743991Y-16516460D01*
X14743991Y-16516460D02*
X14734468Y-16497412D01*
X14734468Y-16497412D02*
X14734468Y-16325984D01*
X14915420Y-16516460D02*
X14896372Y-16525984D01*
X14896372Y-16525984D02*
X14858277Y-16525984D01*
X14858277Y-16525984D02*
X14839230Y-16516460D01*
X14839230Y-16516460D02*
X14829706Y-16497412D01*
X14829706Y-16497412D02*
X14829706Y-16421222D01*
X14829706Y-16421222D02*
X14839230Y-16402174D01*
X14839230Y-16402174D02*
X14858277Y-16392650D01*
X14858277Y-16392650D02*
X14896372Y-16392650D01*
X14896372Y-16392650D02*
X14915420Y-16402174D01*
X14915420Y-16402174D02*
X14924944Y-16421222D01*
X14924944Y-16421222D02*
X14924944Y-16440269D01*
X14924944Y-16440269D02*
X14829706Y-16459317D01*
X15001134Y-16516460D02*
X15020182Y-16525984D01*
X15020182Y-16525984D02*
X15058277Y-16525984D01*
X15058277Y-16525984D02*
X15077325Y-16516460D01*
X15077325Y-16516460D02*
X15086849Y-16497412D01*
X15086849Y-16497412D02*
X15086849Y-16487888D01*
X15086849Y-16487888D02*
X15077325Y-16468841D01*
X15077325Y-16468841D02*
X15058277Y-16459317D01*
X15058277Y-16459317D02*
X15029706Y-16459317D01*
X15029706Y-16459317D02*
X15010658Y-16449793D01*
X15010658Y-16449793D02*
X15001134Y-16430746D01*
X15001134Y-16430746D02*
X15001134Y-16421222D01*
X15001134Y-16421222D02*
X15010658Y-16402174D01*
X15010658Y-16402174D02*
X15029706Y-16392650D01*
X15029706Y-16392650D02*
X15058277Y-16392650D01*
X15058277Y-16392650D02*
X15077325Y-16402174D01*
X15153515Y-16602174D02*
X15163039Y-16592650D01*
X15163039Y-16592650D02*
X15182087Y-16564079D01*
X15182087Y-16564079D02*
X15191611Y-16545031D01*
X15191611Y-16545031D02*
X15201134Y-16516460D01*
X15201134Y-16516460D02*
X15210658Y-16468841D01*
X15210658Y-16468841D02*
X15210658Y-16430746D01*
X15210658Y-16430746D02*
X15201134Y-16383127D01*
X15201134Y-16383127D02*
X15191611Y-16354555D01*
X15191611Y-16354555D02*
X15182087Y-16335508D01*
X15182087Y-16335508D02*
X15163039Y-16306936D01*
X15163039Y-16306936D02*
X15153515Y-16297412D01*
D12*
X9952500Y-16743500D02*
X9997500Y-16698500D01*
X9952500Y-16653500D01*
X9907500Y-16698500D01*
X9952500Y-16743500D01*
D11*
X10296372Y-16589984D02*
X10315420Y-16589984D01*
X10315420Y-16589984D02*
X10334467Y-16599508D01*
X10334467Y-16599508D02*
X10343991Y-16609031D01*
X10343991Y-16609031D02*
X10353515Y-16628079D01*
X10353515Y-16628079D02*
X10363039Y-16666174D01*
X10363039Y-16666174D02*
X10363039Y-16713793D01*
X10363039Y-16713793D02*
X10353515Y-16751888D01*
X10353515Y-16751888D02*
X10343991Y-16770936D01*
X10343991Y-16770936D02*
X10334467Y-16780460D01*
X10334467Y-16780460D02*
X10315420Y-16789984D01*
X10315420Y-16789984D02*
X10296372Y-16789984D01*
X10296372Y-16789984D02*
X10277324Y-16780460D01*
X10277324Y-16780460D02*
X10267801Y-16770936D01*
X10267801Y-16770936D02*
X10258277Y-16751888D01*
X10258277Y-16751888D02*
X10248753Y-16713793D01*
X10248753Y-16713793D02*
X10248753Y-16666174D01*
X10248753Y-16666174D02*
X10258277Y-16628079D01*
X10258277Y-16628079D02*
X10267801Y-16609031D01*
X10267801Y-16609031D02*
X10277324Y-16599508D01*
X10277324Y-16599508D02*
X10296372Y-16589984D01*
X10448753Y-16770936D02*
X10458277Y-16780460D01*
X10458277Y-16780460D02*
X10448753Y-16789984D01*
X10448753Y-16789984D02*
X10439229Y-16780460D01*
X10439229Y-16780460D02*
X10448753Y-16770936D01*
X10448753Y-16770936D02*
X10448753Y-16789984D01*
X10553515Y-16789984D02*
X10591610Y-16789984D01*
X10591610Y-16789984D02*
X10610658Y-16780460D01*
X10610658Y-16780460D02*
X10620182Y-16770936D01*
X10620182Y-16770936D02*
X10639229Y-16742365D01*
X10639229Y-16742365D02*
X10648753Y-16704269D01*
X10648753Y-16704269D02*
X10648753Y-16628079D01*
X10648753Y-16628079D02*
X10639229Y-16609031D01*
X10639229Y-16609031D02*
X10629705Y-16599508D01*
X10629705Y-16599508D02*
X10610658Y-16589984D01*
X10610658Y-16589984D02*
X10572563Y-16589984D01*
X10572563Y-16589984D02*
X10553515Y-16599508D01*
X10553515Y-16599508D02*
X10543991Y-16609031D01*
X10543991Y-16609031D02*
X10534467Y-16628079D01*
X10534467Y-16628079D02*
X10534467Y-16675698D01*
X10534467Y-16675698D02*
X10543991Y-16694746D01*
X10543991Y-16694746D02*
X10553515Y-16704269D01*
X10553515Y-16704269D02*
X10572563Y-16713793D01*
X10572563Y-16713793D02*
X10610658Y-16713793D01*
X10610658Y-16713793D02*
X10629705Y-16704269D01*
X10629705Y-16704269D02*
X10639229Y-16694746D01*
X10639229Y-16694746D02*
X10648753Y-16675698D01*
X10772563Y-16589984D02*
X10791610Y-16589984D01*
X10791610Y-16589984D02*
X10810658Y-16599508D01*
X10810658Y-16599508D02*
X10820182Y-16609031D01*
X10820182Y-16609031D02*
X10829705Y-16628079D01*
X10829705Y-16628079D02*
X10839229Y-16666174D01*
X10839229Y-16666174D02*
X10839229Y-16713793D01*
X10839229Y-16713793D02*
X10829705Y-16751888D01*
X10829705Y-16751888D02*
X10820182Y-16770936D01*
X10820182Y-16770936D02*
X10810658Y-16780460D01*
X10810658Y-16780460D02*
X10791610Y-16789984D01*
X10791610Y-16789984D02*
X10772563Y-16789984D01*
X10772563Y-16789984D02*
X10753515Y-16780460D01*
X10753515Y-16780460D02*
X10743991Y-16770936D01*
X10743991Y-16770936D02*
X10734467Y-16751888D01*
X10734467Y-16751888D02*
X10724944Y-16713793D01*
X10724944Y-16713793D02*
X10724944Y-16666174D01*
X10724944Y-16666174D02*
X10734467Y-16628079D01*
X10734467Y-16628079D02*
X10743991Y-16609031D01*
X10743991Y-16609031D02*
X10753515Y-16599508D01*
X10753515Y-16599508D02*
X10772563Y-16589984D01*
X10963039Y-16589984D02*
X10982086Y-16589984D01*
X10982086Y-16589984D02*
X11001134Y-16599508D01*
X11001134Y-16599508D02*
X11010658Y-16609031D01*
X11010658Y-16609031D02*
X11020182Y-16628079D01*
X11020182Y-16628079D02*
X11029705Y-16666174D01*
X11029705Y-16666174D02*
X11029705Y-16713793D01*
X11029705Y-16713793D02*
X11020182Y-16751888D01*
X11020182Y-16751888D02*
X11010658Y-16770936D01*
X11010658Y-16770936D02*
X11001134Y-16780460D01*
X11001134Y-16780460D02*
X10982086Y-16789984D01*
X10982086Y-16789984D02*
X10963039Y-16789984D01*
X10963039Y-16789984D02*
X10943991Y-16780460D01*
X10943991Y-16780460D02*
X10934467Y-16770936D01*
X10934467Y-16770936D02*
X10924944Y-16751888D01*
X10924944Y-16751888D02*
X10915420Y-16713793D01*
X10915420Y-16713793D02*
X10915420Y-16666174D01*
X10915420Y-16666174D02*
X10924944Y-16628079D01*
X10924944Y-16628079D02*
X10934467Y-16609031D01*
X10934467Y-16609031D02*
X10943991Y-16599508D01*
X10943991Y-16599508D02*
X10963039Y-16589984D01*
X11115420Y-16789984D02*
X11115420Y-16656650D01*
X11115420Y-16675698D02*
X11124944Y-16666174D01*
X11124944Y-16666174D02*
X11143991Y-16656650D01*
X11143991Y-16656650D02*
X11172563Y-16656650D01*
X11172563Y-16656650D02*
X11191610Y-16666174D01*
X11191610Y-16666174D02*
X11201134Y-16685222D01*
X11201134Y-16685222D02*
X11201134Y-16789984D01*
X11201134Y-16685222D02*
X11210658Y-16666174D01*
X11210658Y-16666174D02*
X11229705Y-16656650D01*
X11229705Y-16656650D02*
X11258277Y-16656650D01*
X11258277Y-16656650D02*
X11277324Y-16666174D01*
X11277324Y-16666174D02*
X11286848Y-16685222D01*
X11286848Y-16685222D02*
X11286848Y-16789984D01*
X11382086Y-16789984D02*
X11382086Y-16656650D01*
X11382086Y-16675698D02*
X11391610Y-16666174D01*
X11391610Y-16666174D02*
X11410658Y-16656650D01*
X11410658Y-16656650D02*
X11439229Y-16656650D01*
X11439229Y-16656650D02*
X11458277Y-16666174D01*
X11458277Y-16666174D02*
X11467801Y-16685222D01*
X11467801Y-16685222D02*
X11467801Y-16789984D01*
X11467801Y-16685222D02*
X11477324Y-16666174D01*
X11477324Y-16666174D02*
X11496372Y-16656650D01*
X11496372Y-16656650D02*
X11524943Y-16656650D01*
X11524943Y-16656650D02*
X11543991Y-16666174D01*
X11543991Y-16666174D02*
X11553515Y-16685222D01*
X11553515Y-16685222D02*
X11553515Y-16789984D01*
X11943991Y-16580460D02*
X11772563Y-16837603D01*
X12201134Y-16589984D02*
X12220182Y-16589984D01*
X12220182Y-16589984D02*
X12239229Y-16599508D01*
X12239229Y-16599508D02*
X12248753Y-16609031D01*
X12248753Y-16609031D02*
X12258277Y-16628079D01*
X12258277Y-16628079D02*
X12267801Y-16666174D01*
X12267801Y-16666174D02*
X12267801Y-16713793D01*
X12267801Y-16713793D02*
X12258277Y-16751888D01*
X12258277Y-16751888D02*
X12248753Y-16770936D01*
X12248753Y-16770936D02*
X12239229Y-16780460D01*
X12239229Y-16780460D02*
X12220182Y-16789984D01*
X12220182Y-16789984D02*
X12201134Y-16789984D01*
X12201134Y-16789984D02*
X12182086Y-16780460D01*
X12182086Y-16780460D02*
X12172563Y-16770936D01*
X12172563Y-16770936D02*
X12163039Y-16751888D01*
X12163039Y-16751888D02*
X12153515Y-16713793D01*
X12153515Y-16713793D02*
X12153515Y-16666174D01*
X12153515Y-16666174D02*
X12163039Y-16628079D01*
X12163039Y-16628079D02*
X12172563Y-16609031D01*
X12172563Y-16609031D02*
X12182086Y-16599508D01*
X12182086Y-16599508D02*
X12201134Y-16589984D01*
X12353515Y-16770936D02*
X12363039Y-16780460D01*
X12363039Y-16780460D02*
X12353515Y-16789984D01*
X12353515Y-16789984D02*
X12343991Y-16780460D01*
X12343991Y-16780460D02*
X12353515Y-16770936D01*
X12353515Y-16770936D02*
X12353515Y-16789984D01*
X12486848Y-16589984D02*
X12505896Y-16589984D01*
X12505896Y-16589984D02*
X12524944Y-16599508D01*
X12524944Y-16599508D02*
X12534467Y-16609031D01*
X12534467Y-16609031D02*
X12543991Y-16628079D01*
X12543991Y-16628079D02*
X12553515Y-16666174D01*
X12553515Y-16666174D02*
X12553515Y-16713793D01*
X12553515Y-16713793D02*
X12543991Y-16751888D01*
X12543991Y-16751888D02*
X12534467Y-16770936D01*
X12534467Y-16770936D02*
X12524944Y-16780460D01*
X12524944Y-16780460D02*
X12505896Y-16789984D01*
X12505896Y-16789984D02*
X12486848Y-16789984D01*
X12486848Y-16789984D02*
X12467801Y-16780460D01*
X12467801Y-16780460D02*
X12458277Y-16770936D01*
X12458277Y-16770936D02*
X12448753Y-16751888D01*
X12448753Y-16751888D02*
X12439229Y-16713793D01*
X12439229Y-16713793D02*
X12439229Y-16666174D01*
X12439229Y-16666174D02*
X12448753Y-16628079D01*
X12448753Y-16628079D02*
X12458277Y-16609031D01*
X12458277Y-16609031D02*
X12467801Y-16599508D01*
X12467801Y-16599508D02*
X12486848Y-16589984D01*
X12620182Y-16589984D02*
X12743991Y-16589984D01*
X12743991Y-16589984D02*
X12677325Y-16666174D01*
X12677325Y-16666174D02*
X12705896Y-16666174D01*
X12705896Y-16666174D02*
X12724944Y-16675698D01*
X12724944Y-16675698D02*
X12734467Y-16685222D01*
X12734467Y-16685222D02*
X12743991Y-16704269D01*
X12743991Y-16704269D02*
X12743991Y-16751888D01*
X12743991Y-16751888D02*
X12734467Y-16770936D01*
X12734467Y-16770936D02*
X12724944Y-16780460D01*
X12724944Y-16780460D02*
X12705896Y-16789984D01*
X12705896Y-16789984D02*
X12648753Y-16789984D01*
X12648753Y-16789984D02*
X12629706Y-16780460D01*
X12629706Y-16780460D02*
X12620182Y-16770936D01*
X12924944Y-16589984D02*
X12829706Y-16589984D01*
X12829706Y-16589984D02*
X12820182Y-16685222D01*
X12820182Y-16685222D02*
X12829706Y-16675698D01*
X12829706Y-16675698D02*
X12848753Y-16666174D01*
X12848753Y-16666174D02*
X12896372Y-16666174D01*
X12896372Y-16666174D02*
X12915420Y-16675698D01*
X12915420Y-16675698D02*
X12924944Y-16685222D01*
X12924944Y-16685222D02*
X12934467Y-16704269D01*
X12934467Y-16704269D02*
X12934467Y-16751888D01*
X12934467Y-16751888D02*
X12924944Y-16770936D01*
X12924944Y-16770936D02*
X12915420Y-16780460D01*
X12915420Y-16780460D02*
X12896372Y-16789984D01*
X12896372Y-16789984D02*
X12848753Y-16789984D01*
X12848753Y-16789984D02*
X12829706Y-16780460D01*
X12829706Y-16780460D02*
X12820182Y-16770936D01*
X13105896Y-16656650D02*
X13105896Y-16789984D01*
X13058277Y-16580460D02*
X13010658Y-16723317D01*
X13010658Y-16723317D02*
X13134467Y-16723317D01*
X13201134Y-16589984D02*
X13201134Y-16628079D01*
X13277325Y-16589984D02*
X13277325Y-16628079D01*
X13572563Y-16866174D02*
X13563039Y-16856650D01*
X13563039Y-16856650D02*
X13543991Y-16828079D01*
X13543991Y-16828079D02*
X13534468Y-16809031D01*
X13534468Y-16809031D02*
X13524944Y-16780460D01*
X13524944Y-16780460D02*
X13515420Y-16732841D01*
X13515420Y-16732841D02*
X13515420Y-16694746D01*
X13515420Y-16694746D02*
X13524944Y-16647127D01*
X13524944Y-16647127D02*
X13534468Y-16618555D01*
X13534468Y-16618555D02*
X13543991Y-16599508D01*
X13543991Y-16599508D02*
X13563039Y-16570936D01*
X13563039Y-16570936D02*
X13572563Y-16561412D01*
X13639229Y-16609031D02*
X13648753Y-16599508D01*
X13648753Y-16599508D02*
X13667801Y-16589984D01*
X13667801Y-16589984D02*
X13715420Y-16589984D01*
X13715420Y-16589984D02*
X13734468Y-16599508D01*
X13734468Y-16599508D02*
X13743991Y-16609031D01*
X13743991Y-16609031D02*
X13753515Y-16628079D01*
X13753515Y-16628079D02*
X13753515Y-16647127D01*
X13753515Y-16647127D02*
X13743991Y-16675698D01*
X13743991Y-16675698D02*
X13629706Y-16789984D01*
X13629706Y-16789984D02*
X13753515Y-16789984D01*
X13991610Y-16789984D02*
X13991610Y-16589984D01*
X14077325Y-16789984D02*
X14077325Y-16685222D01*
X14077325Y-16685222D02*
X14067801Y-16666174D01*
X14067801Y-16666174D02*
X14048753Y-16656650D01*
X14048753Y-16656650D02*
X14020182Y-16656650D01*
X14020182Y-16656650D02*
X14001134Y-16666174D01*
X14001134Y-16666174D02*
X13991610Y-16675698D01*
X14201134Y-16789984D02*
X14182087Y-16780460D01*
X14182087Y-16780460D02*
X14172563Y-16770936D01*
X14172563Y-16770936D02*
X14163039Y-16751888D01*
X14163039Y-16751888D02*
X14163039Y-16694746D01*
X14163039Y-16694746D02*
X14172563Y-16675698D01*
X14172563Y-16675698D02*
X14182087Y-16666174D01*
X14182087Y-16666174D02*
X14201134Y-16656650D01*
X14201134Y-16656650D02*
X14229706Y-16656650D01*
X14229706Y-16656650D02*
X14248753Y-16666174D01*
X14248753Y-16666174D02*
X14258277Y-16675698D01*
X14258277Y-16675698D02*
X14267801Y-16694746D01*
X14267801Y-16694746D02*
X14267801Y-16751888D01*
X14267801Y-16751888D02*
X14258277Y-16770936D01*
X14258277Y-16770936D02*
X14248753Y-16780460D01*
X14248753Y-16780460D02*
X14229706Y-16789984D01*
X14229706Y-16789984D02*
X14201134Y-16789984D01*
X14382087Y-16789984D02*
X14363039Y-16780460D01*
X14363039Y-16780460D02*
X14353515Y-16761412D01*
X14353515Y-16761412D02*
X14353515Y-16589984D01*
X14534468Y-16780460D02*
X14515420Y-16789984D01*
X14515420Y-16789984D02*
X14477325Y-16789984D01*
X14477325Y-16789984D02*
X14458277Y-16780460D01*
X14458277Y-16780460D02*
X14448753Y-16761412D01*
X14448753Y-16761412D02*
X14448753Y-16685222D01*
X14448753Y-16685222D02*
X14458277Y-16666174D01*
X14458277Y-16666174D02*
X14477325Y-16656650D01*
X14477325Y-16656650D02*
X14515420Y-16656650D01*
X14515420Y-16656650D02*
X14534468Y-16666174D01*
X14534468Y-16666174D02*
X14543991Y-16685222D01*
X14543991Y-16685222D02*
X14543991Y-16704269D01*
X14543991Y-16704269D02*
X14448753Y-16723317D01*
X14620182Y-16780460D02*
X14639230Y-16789984D01*
X14639230Y-16789984D02*
X14677325Y-16789984D01*
X14677325Y-16789984D02*
X14696372Y-16780460D01*
X14696372Y-16780460D02*
X14705896Y-16761412D01*
X14705896Y-16761412D02*
X14705896Y-16751888D01*
X14705896Y-16751888D02*
X14696372Y-16732841D01*
X14696372Y-16732841D02*
X14677325Y-16723317D01*
X14677325Y-16723317D02*
X14648753Y-16723317D01*
X14648753Y-16723317D02*
X14629706Y-16713793D01*
X14629706Y-16713793D02*
X14620182Y-16694746D01*
X14620182Y-16694746D02*
X14620182Y-16685222D01*
X14620182Y-16685222D02*
X14629706Y-16666174D01*
X14629706Y-16666174D02*
X14648753Y-16656650D01*
X14648753Y-16656650D02*
X14677325Y-16656650D01*
X14677325Y-16656650D02*
X14696372Y-16666174D01*
X14772563Y-16866174D02*
X14782087Y-16856650D01*
X14782087Y-16856650D02*
X14801134Y-16828079D01*
X14801134Y-16828079D02*
X14810658Y-16809031D01*
X14810658Y-16809031D02*
X14820182Y-16780460D01*
X14820182Y-16780460D02*
X14829706Y-16732841D01*
X14829706Y-16732841D02*
X14829706Y-16694746D01*
X14829706Y-16694746D02*
X14820182Y-16647127D01*
X14820182Y-16647127D02*
X14810658Y-16618555D01*
X14810658Y-16618555D02*
X14801134Y-16599508D01*
X14801134Y-16599508D02*
X14782087Y-16570936D01*
X14782087Y-16570936D02*
X14772563Y-16561412D01*
D12*
X9897500Y-16912500D02*
X9997500Y-17012500D01*
X9997500Y-16912500D02*
X9897500Y-17012500D01*
X9997500Y-16962500D02*
G75*
G03*
X9997500Y-16962500I-50000J0D01*
G01*
D11*
X10363039Y-17053984D02*
X10248753Y-17053984D01*
X10305896Y-17053984D02*
X10305896Y-16853984D01*
X10305896Y-16853984D02*
X10286848Y-16882555D01*
X10286848Y-16882555D02*
X10267801Y-16901603D01*
X10267801Y-16901603D02*
X10248753Y-16911127D01*
X10448753Y-17034936D02*
X10458277Y-17044460D01*
X10458277Y-17044460D02*
X10448753Y-17053984D01*
X10448753Y-17053984D02*
X10439229Y-17044460D01*
X10439229Y-17044460D02*
X10448753Y-17034936D01*
X10448753Y-17034936D02*
X10448753Y-17053984D01*
X10582086Y-16853984D02*
X10601134Y-16853984D01*
X10601134Y-16853984D02*
X10620182Y-16863508D01*
X10620182Y-16863508D02*
X10629705Y-16873031D01*
X10629705Y-16873031D02*
X10639229Y-16892079D01*
X10639229Y-16892079D02*
X10648753Y-16930174D01*
X10648753Y-16930174D02*
X10648753Y-16977793D01*
X10648753Y-16977793D02*
X10639229Y-17015889D01*
X10639229Y-17015889D02*
X10629705Y-17034936D01*
X10629705Y-17034936D02*
X10620182Y-17044460D01*
X10620182Y-17044460D02*
X10601134Y-17053984D01*
X10601134Y-17053984D02*
X10582086Y-17053984D01*
X10582086Y-17053984D02*
X10563039Y-17044460D01*
X10563039Y-17044460D02*
X10553515Y-17034936D01*
X10553515Y-17034936D02*
X10543991Y-17015889D01*
X10543991Y-17015889D02*
X10534467Y-16977793D01*
X10534467Y-16977793D02*
X10534467Y-16930174D01*
X10534467Y-16930174D02*
X10543991Y-16892079D01*
X10543991Y-16892079D02*
X10553515Y-16873031D01*
X10553515Y-16873031D02*
X10563039Y-16863508D01*
X10563039Y-16863508D02*
X10582086Y-16853984D01*
X10772563Y-16853984D02*
X10791610Y-16853984D01*
X10791610Y-16853984D02*
X10810658Y-16863508D01*
X10810658Y-16863508D02*
X10820182Y-16873031D01*
X10820182Y-16873031D02*
X10829705Y-16892079D01*
X10829705Y-16892079D02*
X10839229Y-16930174D01*
X10839229Y-16930174D02*
X10839229Y-16977793D01*
X10839229Y-16977793D02*
X10829705Y-17015889D01*
X10829705Y-17015889D02*
X10820182Y-17034936D01*
X10820182Y-17034936D02*
X10810658Y-17044460D01*
X10810658Y-17044460D02*
X10791610Y-17053984D01*
X10791610Y-17053984D02*
X10772563Y-17053984D01*
X10772563Y-17053984D02*
X10753515Y-17044460D01*
X10753515Y-17044460D02*
X10743991Y-17034936D01*
X10743991Y-17034936D02*
X10734467Y-17015889D01*
X10734467Y-17015889D02*
X10724944Y-16977793D01*
X10724944Y-16977793D02*
X10724944Y-16930174D01*
X10724944Y-16930174D02*
X10734467Y-16892079D01*
X10734467Y-16892079D02*
X10743991Y-16873031D01*
X10743991Y-16873031D02*
X10753515Y-16863508D01*
X10753515Y-16863508D02*
X10772563Y-16853984D01*
X10963039Y-16853984D02*
X10982086Y-16853984D01*
X10982086Y-16853984D02*
X11001134Y-16863508D01*
X11001134Y-16863508D02*
X11010658Y-16873031D01*
X11010658Y-16873031D02*
X11020182Y-16892079D01*
X11020182Y-16892079D02*
X11029705Y-16930174D01*
X11029705Y-16930174D02*
X11029705Y-16977793D01*
X11029705Y-16977793D02*
X11020182Y-17015889D01*
X11020182Y-17015889D02*
X11010658Y-17034936D01*
X11010658Y-17034936D02*
X11001134Y-17044460D01*
X11001134Y-17044460D02*
X10982086Y-17053984D01*
X10982086Y-17053984D02*
X10963039Y-17053984D01*
X10963039Y-17053984D02*
X10943991Y-17044460D01*
X10943991Y-17044460D02*
X10934467Y-17034936D01*
X10934467Y-17034936D02*
X10924944Y-17015889D01*
X10924944Y-17015889D02*
X10915420Y-16977793D01*
X10915420Y-16977793D02*
X10915420Y-16930174D01*
X10915420Y-16930174D02*
X10924944Y-16892079D01*
X10924944Y-16892079D02*
X10934467Y-16873031D01*
X10934467Y-16873031D02*
X10943991Y-16863508D01*
X10943991Y-16863508D02*
X10963039Y-16853984D01*
X11115420Y-17053984D02*
X11115420Y-16920650D01*
X11115420Y-16939698D02*
X11124944Y-16930174D01*
X11124944Y-16930174D02*
X11143991Y-16920650D01*
X11143991Y-16920650D02*
X11172563Y-16920650D01*
X11172563Y-16920650D02*
X11191610Y-16930174D01*
X11191610Y-16930174D02*
X11201134Y-16949222D01*
X11201134Y-16949222D02*
X11201134Y-17053984D01*
X11201134Y-16949222D02*
X11210658Y-16930174D01*
X11210658Y-16930174D02*
X11229705Y-16920650D01*
X11229705Y-16920650D02*
X11258277Y-16920650D01*
X11258277Y-16920650D02*
X11277324Y-16930174D01*
X11277324Y-16930174D02*
X11286848Y-16949222D01*
X11286848Y-16949222D02*
X11286848Y-17053984D01*
X11382086Y-17053984D02*
X11382086Y-16920650D01*
X11382086Y-16939698D02*
X11391610Y-16930174D01*
X11391610Y-16930174D02*
X11410658Y-16920650D01*
X11410658Y-16920650D02*
X11439229Y-16920650D01*
X11439229Y-16920650D02*
X11458277Y-16930174D01*
X11458277Y-16930174D02*
X11467801Y-16949222D01*
X11467801Y-16949222D02*
X11467801Y-17053984D01*
X11467801Y-16949222D02*
X11477324Y-16930174D01*
X11477324Y-16930174D02*
X11496372Y-16920650D01*
X11496372Y-16920650D02*
X11524943Y-16920650D01*
X11524943Y-16920650D02*
X11543991Y-16930174D01*
X11543991Y-16930174D02*
X11553515Y-16949222D01*
X11553515Y-16949222D02*
X11553515Y-17053984D01*
X11943991Y-16844460D02*
X11772563Y-17101603D01*
X12201134Y-16853984D02*
X12220182Y-16853984D01*
X12220182Y-16853984D02*
X12239229Y-16863508D01*
X12239229Y-16863508D02*
X12248753Y-16873031D01*
X12248753Y-16873031D02*
X12258277Y-16892079D01*
X12258277Y-16892079D02*
X12267801Y-16930174D01*
X12267801Y-16930174D02*
X12267801Y-16977793D01*
X12267801Y-16977793D02*
X12258277Y-17015889D01*
X12258277Y-17015889D02*
X12248753Y-17034936D01*
X12248753Y-17034936D02*
X12239229Y-17044460D01*
X12239229Y-17044460D02*
X12220182Y-17053984D01*
X12220182Y-17053984D02*
X12201134Y-17053984D01*
X12201134Y-17053984D02*
X12182086Y-17044460D01*
X12182086Y-17044460D02*
X12172563Y-17034936D01*
X12172563Y-17034936D02*
X12163039Y-17015889D01*
X12163039Y-17015889D02*
X12153515Y-16977793D01*
X12153515Y-16977793D02*
X12153515Y-16930174D01*
X12153515Y-16930174D02*
X12163039Y-16892079D01*
X12163039Y-16892079D02*
X12172563Y-16873031D01*
X12172563Y-16873031D02*
X12182086Y-16863508D01*
X12182086Y-16863508D02*
X12201134Y-16853984D01*
X12353515Y-17034936D02*
X12363039Y-17044460D01*
X12363039Y-17044460D02*
X12353515Y-17053984D01*
X12353515Y-17053984D02*
X12343991Y-17044460D01*
X12343991Y-17044460D02*
X12353515Y-17034936D01*
X12353515Y-17034936D02*
X12353515Y-17053984D01*
X12486848Y-16853984D02*
X12505896Y-16853984D01*
X12505896Y-16853984D02*
X12524944Y-16863508D01*
X12524944Y-16863508D02*
X12534467Y-16873031D01*
X12534467Y-16873031D02*
X12543991Y-16892079D01*
X12543991Y-16892079D02*
X12553515Y-16930174D01*
X12553515Y-16930174D02*
X12553515Y-16977793D01*
X12553515Y-16977793D02*
X12543991Y-17015889D01*
X12543991Y-17015889D02*
X12534467Y-17034936D01*
X12534467Y-17034936D02*
X12524944Y-17044460D01*
X12524944Y-17044460D02*
X12505896Y-17053984D01*
X12505896Y-17053984D02*
X12486848Y-17053984D01*
X12486848Y-17053984D02*
X12467801Y-17044460D01*
X12467801Y-17044460D02*
X12458277Y-17034936D01*
X12458277Y-17034936D02*
X12448753Y-17015889D01*
X12448753Y-17015889D02*
X12439229Y-16977793D01*
X12439229Y-16977793D02*
X12439229Y-16930174D01*
X12439229Y-16930174D02*
X12448753Y-16892079D01*
X12448753Y-16892079D02*
X12458277Y-16873031D01*
X12458277Y-16873031D02*
X12467801Y-16863508D01*
X12467801Y-16863508D02*
X12486848Y-16853984D01*
X12620182Y-16853984D02*
X12743991Y-16853984D01*
X12743991Y-16853984D02*
X12677325Y-16930174D01*
X12677325Y-16930174D02*
X12705896Y-16930174D01*
X12705896Y-16930174D02*
X12724944Y-16939698D01*
X12724944Y-16939698D02*
X12734467Y-16949222D01*
X12734467Y-16949222D02*
X12743991Y-16968270D01*
X12743991Y-16968270D02*
X12743991Y-17015889D01*
X12743991Y-17015889D02*
X12734467Y-17034936D01*
X12734467Y-17034936D02*
X12724944Y-17044460D01*
X12724944Y-17044460D02*
X12705896Y-17053984D01*
X12705896Y-17053984D02*
X12648753Y-17053984D01*
X12648753Y-17053984D02*
X12629706Y-17044460D01*
X12629706Y-17044460D02*
X12620182Y-17034936D01*
X12839229Y-17053984D02*
X12877325Y-17053984D01*
X12877325Y-17053984D02*
X12896372Y-17044460D01*
X12896372Y-17044460D02*
X12905896Y-17034936D01*
X12905896Y-17034936D02*
X12924944Y-17006365D01*
X12924944Y-17006365D02*
X12934467Y-16968270D01*
X12934467Y-16968270D02*
X12934467Y-16892079D01*
X12934467Y-16892079D02*
X12924944Y-16873031D01*
X12924944Y-16873031D02*
X12915420Y-16863508D01*
X12915420Y-16863508D02*
X12896372Y-16853984D01*
X12896372Y-16853984D02*
X12858277Y-16853984D01*
X12858277Y-16853984D02*
X12839229Y-16863508D01*
X12839229Y-16863508D02*
X12829706Y-16873031D01*
X12829706Y-16873031D02*
X12820182Y-16892079D01*
X12820182Y-16892079D02*
X12820182Y-16939698D01*
X12820182Y-16939698D02*
X12829706Y-16958746D01*
X12829706Y-16958746D02*
X12839229Y-16968270D01*
X12839229Y-16968270D02*
X12858277Y-16977793D01*
X12858277Y-16977793D02*
X12896372Y-16977793D01*
X12896372Y-16977793D02*
X12915420Y-16968270D01*
X12915420Y-16968270D02*
X12924944Y-16958746D01*
X12924944Y-16958746D02*
X12934467Y-16939698D01*
X13105896Y-16920650D02*
X13105896Y-17053984D01*
X13058277Y-16844460D02*
X13010658Y-16987317D01*
X13010658Y-16987317D02*
X13134467Y-16987317D01*
X13201134Y-16853984D02*
X13201134Y-16892079D01*
X13277325Y-16853984D02*
X13277325Y-16892079D01*
X13572563Y-17130174D02*
X13563039Y-17120650D01*
X13563039Y-17120650D02*
X13543991Y-17092079D01*
X13543991Y-17092079D02*
X13534468Y-17073031D01*
X13534468Y-17073031D02*
X13524944Y-17044460D01*
X13524944Y-17044460D02*
X13515420Y-16996841D01*
X13515420Y-16996841D02*
X13515420Y-16958746D01*
X13515420Y-16958746D02*
X13524944Y-16911127D01*
X13524944Y-16911127D02*
X13534468Y-16882555D01*
X13534468Y-16882555D02*
X13543991Y-16863508D01*
X13543991Y-16863508D02*
X13563039Y-16834936D01*
X13563039Y-16834936D02*
X13572563Y-16825412D01*
X13629706Y-16853984D02*
X13763039Y-16853984D01*
X13763039Y-16853984D02*
X13677325Y-17053984D01*
X13924944Y-16920650D02*
X13924944Y-17053984D01*
X13877325Y-16844460D02*
X13829706Y-16987317D01*
X13829706Y-16987317D02*
X13953515Y-16987317D01*
X14182087Y-17053984D02*
X14182087Y-16853984D01*
X14267801Y-17053984D02*
X14267801Y-16949222D01*
X14267801Y-16949222D02*
X14258277Y-16930174D01*
X14258277Y-16930174D02*
X14239230Y-16920650D01*
X14239230Y-16920650D02*
X14210658Y-16920650D01*
X14210658Y-16920650D02*
X14191610Y-16930174D01*
X14191610Y-16930174D02*
X14182087Y-16939698D01*
X14391610Y-17053984D02*
X14372563Y-17044460D01*
X14372563Y-17044460D02*
X14363039Y-17034936D01*
X14363039Y-17034936D02*
X14353515Y-17015889D01*
X14353515Y-17015889D02*
X14353515Y-16958746D01*
X14353515Y-16958746D02*
X14363039Y-16939698D01*
X14363039Y-16939698D02*
X14372563Y-16930174D01*
X14372563Y-16930174D02*
X14391610Y-16920650D01*
X14391610Y-16920650D02*
X14420182Y-16920650D01*
X14420182Y-16920650D02*
X14439230Y-16930174D01*
X14439230Y-16930174D02*
X14448753Y-16939698D01*
X14448753Y-16939698D02*
X14458277Y-16958746D01*
X14458277Y-16958746D02*
X14458277Y-17015889D01*
X14458277Y-17015889D02*
X14448753Y-17034936D01*
X14448753Y-17034936D02*
X14439230Y-17044460D01*
X14439230Y-17044460D02*
X14420182Y-17053984D01*
X14420182Y-17053984D02*
X14391610Y-17053984D01*
X14572563Y-17053984D02*
X14553515Y-17044460D01*
X14553515Y-17044460D02*
X14543991Y-17025412D01*
X14543991Y-17025412D02*
X14543991Y-16853984D01*
X14724944Y-17044460D02*
X14705896Y-17053984D01*
X14705896Y-17053984D02*
X14667801Y-17053984D01*
X14667801Y-17053984D02*
X14648753Y-17044460D01*
X14648753Y-17044460D02*
X14639230Y-17025412D01*
X14639230Y-17025412D02*
X14639230Y-16949222D01*
X14639230Y-16949222D02*
X14648753Y-16930174D01*
X14648753Y-16930174D02*
X14667801Y-16920650D01*
X14667801Y-16920650D02*
X14705896Y-16920650D01*
X14705896Y-16920650D02*
X14724944Y-16930174D01*
X14724944Y-16930174D02*
X14734468Y-16949222D01*
X14734468Y-16949222D02*
X14734468Y-16968270D01*
X14734468Y-16968270D02*
X14639230Y-16987317D01*
X14810658Y-17044460D02*
X14829706Y-17053984D01*
X14829706Y-17053984D02*
X14867801Y-17053984D01*
X14867801Y-17053984D02*
X14886849Y-17044460D01*
X14886849Y-17044460D02*
X14896372Y-17025412D01*
X14896372Y-17025412D02*
X14896372Y-17015889D01*
X14896372Y-17015889D02*
X14886849Y-16996841D01*
X14886849Y-16996841D02*
X14867801Y-16987317D01*
X14867801Y-16987317D02*
X14839230Y-16987317D01*
X14839230Y-16987317D02*
X14820182Y-16977793D01*
X14820182Y-16977793D02*
X14810658Y-16958746D01*
X14810658Y-16958746D02*
X14810658Y-16949222D01*
X14810658Y-16949222D02*
X14820182Y-16930174D01*
X14820182Y-16930174D02*
X14839230Y-16920650D01*
X14839230Y-16920650D02*
X14867801Y-16920650D01*
X14867801Y-16920650D02*
X14886849Y-16930174D01*
X14963039Y-17130174D02*
X14972563Y-17120650D01*
X14972563Y-17120650D02*
X14991611Y-17092079D01*
X14991611Y-17092079D02*
X15001134Y-17073031D01*
X15001134Y-17073031D02*
X15010658Y-17044460D01*
X15010658Y-17044460D02*
X15020182Y-16996841D01*
X15020182Y-16996841D02*
X15020182Y-16958746D01*
X15020182Y-16958746D02*
X15010658Y-16911127D01*
X15010658Y-16911127D02*
X15001134Y-16882555D01*
X15001134Y-16882555D02*
X14991611Y-16863508D01*
X14991611Y-16863508D02*
X14972563Y-16834936D01*
X14972563Y-16834936D02*
X14963039Y-16825412D01*
D13*
X9867500Y-17161500D02*
X9997500Y-17291500D01*
X9997500Y-17161500D02*
X9867500Y-17291500D01*
X9932500Y-17161500D02*
X9932500Y-17291500D01*
X9867500Y-17226500D02*
X9997500Y-17226500D01*
D11*
X10363039Y-17317984D02*
X10248753Y-17317984D01*
X10305896Y-17317984D02*
X10305896Y-17117984D01*
X10305896Y-17117984D02*
X10286848Y-17146555D01*
X10286848Y-17146555D02*
X10267801Y-17165603D01*
X10267801Y-17165603D02*
X10248753Y-17175127D01*
X10448753Y-17298936D02*
X10458277Y-17308460D01*
X10458277Y-17308460D02*
X10448753Y-17317984D01*
X10448753Y-17317984D02*
X10439229Y-17308460D01*
X10439229Y-17308460D02*
X10448753Y-17298936D01*
X10448753Y-17298936D02*
X10448753Y-17317984D01*
X10524944Y-17117984D02*
X10648753Y-17117984D01*
X10648753Y-17117984D02*
X10582086Y-17194174D01*
X10582086Y-17194174D02*
X10610658Y-17194174D01*
X10610658Y-17194174D02*
X10629705Y-17203698D01*
X10629705Y-17203698D02*
X10639229Y-17213222D01*
X10639229Y-17213222D02*
X10648753Y-17232270D01*
X10648753Y-17232270D02*
X10648753Y-17279889D01*
X10648753Y-17279889D02*
X10639229Y-17298936D01*
X10639229Y-17298936D02*
X10629705Y-17308460D01*
X10629705Y-17308460D02*
X10610658Y-17317984D01*
X10610658Y-17317984D02*
X10553515Y-17317984D01*
X10553515Y-17317984D02*
X10534467Y-17308460D01*
X10534467Y-17308460D02*
X10524944Y-17298936D01*
X10772563Y-17117984D02*
X10791610Y-17117984D01*
X10791610Y-17117984D02*
X10810658Y-17127508D01*
X10810658Y-17127508D02*
X10820182Y-17137031D01*
X10820182Y-17137031D02*
X10829705Y-17156079D01*
X10829705Y-17156079D02*
X10839229Y-17194174D01*
X10839229Y-17194174D02*
X10839229Y-17241793D01*
X10839229Y-17241793D02*
X10829705Y-17279889D01*
X10829705Y-17279889D02*
X10820182Y-17298936D01*
X10820182Y-17298936D02*
X10810658Y-17308460D01*
X10810658Y-17308460D02*
X10791610Y-17317984D01*
X10791610Y-17317984D02*
X10772563Y-17317984D01*
X10772563Y-17317984D02*
X10753515Y-17308460D01*
X10753515Y-17308460D02*
X10743991Y-17298936D01*
X10743991Y-17298936D02*
X10734467Y-17279889D01*
X10734467Y-17279889D02*
X10724944Y-17241793D01*
X10724944Y-17241793D02*
X10724944Y-17194174D01*
X10724944Y-17194174D02*
X10734467Y-17156079D01*
X10734467Y-17156079D02*
X10743991Y-17137031D01*
X10743991Y-17137031D02*
X10753515Y-17127508D01*
X10753515Y-17127508D02*
X10772563Y-17117984D01*
X10963039Y-17117984D02*
X10982086Y-17117984D01*
X10982086Y-17117984D02*
X11001134Y-17127508D01*
X11001134Y-17127508D02*
X11010658Y-17137031D01*
X11010658Y-17137031D02*
X11020182Y-17156079D01*
X11020182Y-17156079D02*
X11029705Y-17194174D01*
X11029705Y-17194174D02*
X11029705Y-17241793D01*
X11029705Y-17241793D02*
X11020182Y-17279889D01*
X11020182Y-17279889D02*
X11010658Y-17298936D01*
X11010658Y-17298936D02*
X11001134Y-17308460D01*
X11001134Y-17308460D02*
X10982086Y-17317984D01*
X10982086Y-17317984D02*
X10963039Y-17317984D01*
X10963039Y-17317984D02*
X10943991Y-17308460D01*
X10943991Y-17308460D02*
X10934467Y-17298936D01*
X10934467Y-17298936D02*
X10924944Y-17279889D01*
X10924944Y-17279889D02*
X10915420Y-17241793D01*
X10915420Y-17241793D02*
X10915420Y-17194174D01*
X10915420Y-17194174D02*
X10924944Y-17156079D01*
X10924944Y-17156079D02*
X10934467Y-17137031D01*
X10934467Y-17137031D02*
X10943991Y-17127508D01*
X10943991Y-17127508D02*
X10963039Y-17117984D01*
X11115420Y-17317984D02*
X11115420Y-17184650D01*
X11115420Y-17203698D02*
X11124944Y-17194174D01*
X11124944Y-17194174D02*
X11143991Y-17184650D01*
X11143991Y-17184650D02*
X11172563Y-17184650D01*
X11172563Y-17184650D02*
X11191610Y-17194174D01*
X11191610Y-17194174D02*
X11201134Y-17213222D01*
X11201134Y-17213222D02*
X11201134Y-17317984D01*
X11201134Y-17213222D02*
X11210658Y-17194174D01*
X11210658Y-17194174D02*
X11229705Y-17184650D01*
X11229705Y-17184650D02*
X11258277Y-17184650D01*
X11258277Y-17184650D02*
X11277324Y-17194174D01*
X11277324Y-17194174D02*
X11286848Y-17213222D01*
X11286848Y-17213222D02*
X11286848Y-17317984D01*
X11382086Y-17317984D02*
X11382086Y-17184650D01*
X11382086Y-17203698D02*
X11391610Y-17194174D01*
X11391610Y-17194174D02*
X11410658Y-17184650D01*
X11410658Y-17184650D02*
X11439229Y-17184650D01*
X11439229Y-17184650D02*
X11458277Y-17194174D01*
X11458277Y-17194174D02*
X11467801Y-17213222D01*
X11467801Y-17213222D02*
X11467801Y-17317984D01*
X11467801Y-17213222D02*
X11477324Y-17194174D01*
X11477324Y-17194174D02*
X11496372Y-17184650D01*
X11496372Y-17184650D02*
X11524943Y-17184650D01*
X11524943Y-17184650D02*
X11543991Y-17194174D01*
X11543991Y-17194174D02*
X11553515Y-17213222D01*
X11553515Y-17213222D02*
X11553515Y-17317984D01*
X11943991Y-17108460D02*
X11772563Y-17365603D01*
X12201134Y-17117984D02*
X12220182Y-17117984D01*
X12220182Y-17117984D02*
X12239229Y-17127508D01*
X12239229Y-17127508D02*
X12248753Y-17137031D01*
X12248753Y-17137031D02*
X12258277Y-17156079D01*
X12258277Y-17156079D02*
X12267801Y-17194174D01*
X12267801Y-17194174D02*
X12267801Y-17241793D01*
X12267801Y-17241793D02*
X12258277Y-17279889D01*
X12258277Y-17279889D02*
X12248753Y-17298936D01*
X12248753Y-17298936D02*
X12239229Y-17308460D01*
X12239229Y-17308460D02*
X12220182Y-17317984D01*
X12220182Y-17317984D02*
X12201134Y-17317984D01*
X12201134Y-17317984D02*
X12182086Y-17308460D01*
X12182086Y-17308460D02*
X12172563Y-17298936D01*
X12172563Y-17298936D02*
X12163039Y-17279889D01*
X12163039Y-17279889D02*
X12153515Y-17241793D01*
X12153515Y-17241793D02*
X12153515Y-17194174D01*
X12153515Y-17194174D02*
X12163039Y-17156079D01*
X12163039Y-17156079D02*
X12172563Y-17137031D01*
X12172563Y-17137031D02*
X12182086Y-17127508D01*
X12182086Y-17127508D02*
X12201134Y-17117984D01*
X12353515Y-17298936D02*
X12363039Y-17308460D01*
X12363039Y-17308460D02*
X12353515Y-17317984D01*
X12353515Y-17317984D02*
X12343991Y-17308460D01*
X12343991Y-17308460D02*
X12353515Y-17298936D01*
X12353515Y-17298936D02*
X12353515Y-17317984D01*
X12486848Y-17117984D02*
X12505896Y-17117984D01*
X12505896Y-17117984D02*
X12524944Y-17127508D01*
X12524944Y-17127508D02*
X12534467Y-17137031D01*
X12534467Y-17137031D02*
X12543991Y-17156079D01*
X12543991Y-17156079D02*
X12553515Y-17194174D01*
X12553515Y-17194174D02*
X12553515Y-17241793D01*
X12553515Y-17241793D02*
X12543991Y-17279889D01*
X12543991Y-17279889D02*
X12534467Y-17298936D01*
X12534467Y-17298936D02*
X12524944Y-17308460D01*
X12524944Y-17308460D02*
X12505896Y-17317984D01*
X12505896Y-17317984D02*
X12486848Y-17317984D01*
X12486848Y-17317984D02*
X12467801Y-17308460D01*
X12467801Y-17308460D02*
X12458277Y-17298936D01*
X12458277Y-17298936D02*
X12448753Y-17279889D01*
X12448753Y-17279889D02*
X12439229Y-17241793D01*
X12439229Y-17241793D02*
X12439229Y-17194174D01*
X12439229Y-17194174D02*
X12448753Y-17156079D01*
X12448753Y-17156079D02*
X12458277Y-17137031D01*
X12458277Y-17137031D02*
X12467801Y-17127508D01*
X12467801Y-17127508D02*
X12486848Y-17117984D01*
X12734467Y-17117984D02*
X12639229Y-17117984D01*
X12639229Y-17117984D02*
X12629706Y-17213222D01*
X12629706Y-17213222D02*
X12639229Y-17203698D01*
X12639229Y-17203698D02*
X12658277Y-17194174D01*
X12658277Y-17194174D02*
X12705896Y-17194174D01*
X12705896Y-17194174D02*
X12724944Y-17203698D01*
X12724944Y-17203698D02*
X12734467Y-17213222D01*
X12734467Y-17213222D02*
X12743991Y-17232270D01*
X12743991Y-17232270D02*
X12743991Y-17279889D01*
X12743991Y-17279889D02*
X12734467Y-17298936D01*
X12734467Y-17298936D02*
X12724944Y-17308460D01*
X12724944Y-17308460D02*
X12705896Y-17317984D01*
X12705896Y-17317984D02*
X12658277Y-17317984D01*
X12658277Y-17317984D02*
X12639229Y-17308460D01*
X12639229Y-17308460D02*
X12629706Y-17298936D01*
X12934467Y-17317984D02*
X12820182Y-17317984D01*
X12877325Y-17317984D02*
X12877325Y-17117984D01*
X12877325Y-17117984D02*
X12858277Y-17146555D01*
X12858277Y-17146555D02*
X12839229Y-17165603D01*
X12839229Y-17165603D02*
X12820182Y-17175127D01*
X13010658Y-17137031D02*
X13020182Y-17127508D01*
X13020182Y-17127508D02*
X13039229Y-17117984D01*
X13039229Y-17117984D02*
X13086848Y-17117984D01*
X13086848Y-17117984D02*
X13105896Y-17127508D01*
X13105896Y-17127508D02*
X13115420Y-17137031D01*
X13115420Y-17137031D02*
X13124944Y-17156079D01*
X13124944Y-17156079D02*
X13124944Y-17175127D01*
X13124944Y-17175127D02*
X13115420Y-17203698D01*
X13115420Y-17203698D02*
X13001134Y-17317984D01*
X13001134Y-17317984D02*
X13124944Y-17317984D01*
X13201134Y-17117984D02*
X13201134Y-17156079D01*
X13277325Y-17117984D02*
X13277325Y-17156079D01*
X13572563Y-17394174D02*
X13563039Y-17384650D01*
X13563039Y-17384650D02*
X13543991Y-17356079D01*
X13543991Y-17356079D02*
X13534468Y-17337031D01*
X13534468Y-17337031D02*
X13524944Y-17308460D01*
X13524944Y-17308460D02*
X13515420Y-17260841D01*
X13515420Y-17260841D02*
X13515420Y-17222746D01*
X13515420Y-17222746D02*
X13524944Y-17175127D01*
X13524944Y-17175127D02*
X13534468Y-17146555D01*
X13534468Y-17146555D02*
X13543991Y-17127508D01*
X13543991Y-17127508D02*
X13563039Y-17098936D01*
X13563039Y-17098936D02*
X13572563Y-17089412D01*
X13753515Y-17317984D02*
X13639229Y-17317984D01*
X13696372Y-17317984D02*
X13696372Y-17117984D01*
X13696372Y-17117984D02*
X13677325Y-17146555D01*
X13677325Y-17146555D02*
X13658277Y-17165603D01*
X13658277Y-17165603D02*
X13639229Y-17175127D01*
X13924944Y-17184650D02*
X13924944Y-17317984D01*
X13877325Y-17108460D02*
X13829706Y-17251317D01*
X13829706Y-17251317D02*
X13953515Y-17251317D01*
X14182087Y-17317984D02*
X14182087Y-17117984D01*
X14267801Y-17317984D02*
X14267801Y-17213222D01*
X14267801Y-17213222D02*
X14258277Y-17194174D01*
X14258277Y-17194174D02*
X14239230Y-17184650D01*
X14239230Y-17184650D02*
X14210658Y-17184650D01*
X14210658Y-17184650D02*
X14191610Y-17194174D01*
X14191610Y-17194174D02*
X14182087Y-17203698D01*
X14391610Y-17317984D02*
X14372563Y-17308460D01*
X14372563Y-17308460D02*
X14363039Y-17298936D01*
X14363039Y-17298936D02*
X14353515Y-17279889D01*
X14353515Y-17279889D02*
X14353515Y-17222746D01*
X14353515Y-17222746D02*
X14363039Y-17203698D01*
X14363039Y-17203698D02*
X14372563Y-17194174D01*
X14372563Y-17194174D02*
X14391610Y-17184650D01*
X14391610Y-17184650D02*
X14420182Y-17184650D01*
X14420182Y-17184650D02*
X14439230Y-17194174D01*
X14439230Y-17194174D02*
X14448753Y-17203698D01*
X14448753Y-17203698D02*
X14458277Y-17222746D01*
X14458277Y-17222746D02*
X14458277Y-17279889D01*
X14458277Y-17279889D02*
X14448753Y-17298936D01*
X14448753Y-17298936D02*
X14439230Y-17308460D01*
X14439230Y-17308460D02*
X14420182Y-17317984D01*
X14420182Y-17317984D02*
X14391610Y-17317984D01*
X14572563Y-17317984D02*
X14553515Y-17308460D01*
X14553515Y-17308460D02*
X14543991Y-17289412D01*
X14543991Y-17289412D02*
X14543991Y-17117984D01*
X14724944Y-17308460D02*
X14705896Y-17317984D01*
X14705896Y-17317984D02*
X14667801Y-17317984D01*
X14667801Y-17317984D02*
X14648753Y-17308460D01*
X14648753Y-17308460D02*
X14639230Y-17289412D01*
X14639230Y-17289412D02*
X14639230Y-17213222D01*
X14639230Y-17213222D02*
X14648753Y-17194174D01*
X14648753Y-17194174D02*
X14667801Y-17184650D01*
X14667801Y-17184650D02*
X14705896Y-17184650D01*
X14705896Y-17184650D02*
X14724944Y-17194174D01*
X14724944Y-17194174D02*
X14734468Y-17213222D01*
X14734468Y-17213222D02*
X14734468Y-17232270D01*
X14734468Y-17232270D02*
X14639230Y-17251317D01*
X14810658Y-17308460D02*
X14829706Y-17317984D01*
X14829706Y-17317984D02*
X14867801Y-17317984D01*
X14867801Y-17317984D02*
X14886849Y-17308460D01*
X14886849Y-17308460D02*
X14896372Y-17289412D01*
X14896372Y-17289412D02*
X14896372Y-17279889D01*
X14896372Y-17279889D02*
X14886849Y-17260841D01*
X14886849Y-17260841D02*
X14867801Y-17251317D01*
X14867801Y-17251317D02*
X14839230Y-17251317D01*
X14839230Y-17251317D02*
X14820182Y-17241793D01*
X14820182Y-17241793D02*
X14810658Y-17222746D01*
X14810658Y-17222746D02*
X14810658Y-17213222D01*
X14810658Y-17213222D02*
X14820182Y-17194174D01*
X14820182Y-17194174D02*
X14839230Y-17184650D01*
X14839230Y-17184650D02*
X14867801Y-17184650D01*
X14867801Y-17184650D02*
X14886849Y-17194174D01*
X14963039Y-17394174D02*
X14972563Y-17384650D01*
X14972563Y-17384650D02*
X14991611Y-17356079D01*
X14991611Y-17356079D02*
X15001134Y-17337031D01*
X15001134Y-17337031D02*
X15010658Y-17308460D01*
X15010658Y-17308460D02*
X15020182Y-17260841D01*
X15020182Y-17260841D02*
X15020182Y-17222746D01*
X15020182Y-17222746D02*
X15010658Y-17175127D01*
X15010658Y-17175127D02*
X15001134Y-17146555D01*
X15001134Y-17146555D02*
X14991611Y-17127508D01*
X14991611Y-17127508D02*
X14972563Y-17098936D01*
X14972563Y-17098936D02*
X14963039Y-17089412D01*
M02*
