G04 #@! TF.GenerationSoftware,KiCad,Pcbnew,(5.1.10)-1*
G04 #@! TF.CreationDate,2021-07-30T10:23:40+01:00*
G04 #@! TF.ProjectId,AudioYM2151,41756469-6f59-44d3-9231-35312e6b6963,rev?*
G04 #@! TF.SameCoordinates,Original*
G04 #@! TF.FileFunction,Soldermask,Top*
G04 #@! TF.FilePolarity,Negative*
%FSLAX46Y46*%
G04 Gerber Fmt 4.6, Leading zero omitted, Abs format (unit mm)*
G04 Created by KiCad (PCBNEW (5.1.10)-1) date 2021-07-30 10:23:40*
%MOMM*%
%LPD*%
G01*
G04 APERTURE LIST*
%ADD10C,0.854000*%
%ADD11C,2.000000*%
%ADD12R,2.000000X2.000000*%
%ADD13C,2.600000*%
%ADD14C,1.600000*%
%ADD15R,1.600000X1.600000*%
%ADD16O,1.600000X1.600000*%
%ADD17C,2.340000*%
%ADD18R,1.300000X1.300000*%
%ADD19C,1.300000*%
%ADD20C,1.200000*%
%ADD21O,2.416000X1.208000*%
%ADD22O,1.208000X2.416000*%
%ADD23C,1.550000*%
%ADD24C,2.850000*%
%ADD25O,1.700000X1.700000*%
%ADD26R,1.700000X1.700000*%
%ADD27C,1.800000*%
%ADD28R,1.800000X1.800000*%
G04 APERTURE END LIST*
D10*
X198547000Y-87573000D02*
G75*
G03*
X198547000Y-87573000I-427000J0D01*
G01*
X196047000Y-87573000D02*
G75*
G03*
X196047000Y-87573000I-427000J0D01*
G01*
X198547000Y-97573000D02*
G75*
G03*
X198547000Y-97573000I-427000J0D01*
G01*
X196047000Y-97573000D02*
G75*
G03*
X196047000Y-97573000I-427000J0D01*
G01*
X191047000Y-92573000D02*
G75*
G03*
X191047000Y-92573000I-427000J0D01*
G01*
G36*
G01*
X163649000Y-114729500D02*
X163649000Y-113404500D01*
G75*
G02*
X163724000Y-113329500I75000J0D01*
G01*
X163874000Y-113329500D01*
G75*
G02*
X163949000Y-113404500I0J-75000D01*
G01*
X163949000Y-114729500D01*
G75*
G02*
X163874000Y-114804500I-75000J0D01*
G01*
X163724000Y-114804500D01*
G75*
G02*
X163649000Y-114729500I0J75000D01*
G01*
G37*
G36*
G01*
X164149000Y-114729500D02*
X164149000Y-113404500D01*
G75*
G02*
X164224000Y-113329500I75000J0D01*
G01*
X164374000Y-113329500D01*
G75*
G02*
X164449000Y-113404500I0J-75000D01*
G01*
X164449000Y-114729500D01*
G75*
G02*
X164374000Y-114804500I-75000J0D01*
G01*
X164224000Y-114804500D01*
G75*
G02*
X164149000Y-114729500I0J75000D01*
G01*
G37*
G36*
G01*
X164649000Y-114729500D02*
X164649000Y-113404500D01*
G75*
G02*
X164724000Y-113329500I75000J0D01*
G01*
X164874000Y-113329500D01*
G75*
G02*
X164949000Y-113404500I0J-75000D01*
G01*
X164949000Y-114729500D01*
G75*
G02*
X164874000Y-114804500I-75000J0D01*
G01*
X164724000Y-114804500D01*
G75*
G02*
X164649000Y-114729500I0J75000D01*
G01*
G37*
G36*
G01*
X165149000Y-114729500D02*
X165149000Y-113404500D01*
G75*
G02*
X165224000Y-113329500I75000J0D01*
G01*
X165374000Y-113329500D01*
G75*
G02*
X165449000Y-113404500I0J-75000D01*
G01*
X165449000Y-114729500D01*
G75*
G02*
X165374000Y-114804500I-75000J0D01*
G01*
X165224000Y-114804500D01*
G75*
G02*
X165149000Y-114729500I0J75000D01*
G01*
G37*
G36*
G01*
X165649000Y-114729500D02*
X165649000Y-113404500D01*
G75*
G02*
X165724000Y-113329500I75000J0D01*
G01*
X165874000Y-113329500D01*
G75*
G02*
X165949000Y-113404500I0J-75000D01*
G01*
X165949000Y-114729500D01*
G75*
G02*
X165874000Y-114804500I-75000J0D01*
G01*
X165724000Y-114804500D01*
G75*
G02*
X165649000Y-114729500I0J75000D01*
G01*
G37*
G36*
G01*
X166149000Y-114729500D02*
X166149000Y-113404500D01*
G75*
G02*
X166224000Y-113329500I75000J0D01*
G01*
X166374000Y-113329500D01*
G75*
G02*
X166449000Y-113404500I0J-75000D01*
G01*
X166449000Y-114729500D01*
G75*
G02*
X166374000Y-114804500I-75000J0D01*
G01*
X166224000Y-114804500D01*
G75*
G02*
X166149000Y-114729500I0J75000D01*
G01*
G37*
G36*
G01*
X166649000Y-114729500D02*
X166649000Y-113404500D01*
G75*
G02*
X166724000Y-113329500I75000J0D01*
G01*
X166874000Y-113329500D01*
G75*
G02*
X166949000Y-113404500I0J-75000D01*
G01*
X166949000Y-114729500D01*
G75*
G02*
X166874000Y-114804500I-75000J0D01*
G01*
X166724000Y-114804500D01*
G75*
G02*
X166649000Y-114729500I0J75000D01*
G01*
G37*
G36*
G01*
X167149000Y-114729500D02*
X167149000Y-113404500D01*
G75*
G02*
X167224000Y-113329500I75000J0D01*
G01*
X167374000Y-113329500D01*
G75*
G02*
X167449000Y-113404500I0J-75000D01*
G01*
X167449000Y-114729500D01*
G75*
G02*
X167374000Y-114804500I-75000J0D01*
G01*
X167224000Y-114804500D01*
G75*
G02*
X167149000Y-114729500I0J75000D01*
G01*
G37*
G36*
G01*
X167649000Y-114729500D02*
X167649000Y-113404500D01*
G75*
G02*
X167724000Y-113329500I75000J0D01*
G01*
X167874000Y-113329500D01*
G75*
G02*
X167949000Y-113404500I0J-75000D01*
G01*
X167949000Y-114729500D01*
G75*
G02*
X167874000Y-114804500I-75000J0D01*
G01*
X167724000Y-114804500D01*
G75*
G02*
X167649000Y-114729500I0J75000D01*
G01*
G37*
G36*
G01*
X168149000Y-114729500D02*
X168149000Y-113404500D01*
G75*
G02*
X168224000Y-113329500I75000J0D01*
G01*
X168374000Y-113329500D01*
G75*
G02*
X168449000Y-113404500I0J-75000D01*
G01*
X168449000Y-114729500D01*
G75*
G02*
X168374000Y-114804500I-75000J0D01*
G01*
X168224000Y-114804500D01*
G75*
G02*
X168149000Y-114729500I0J75000D01*
G01*
G37*
G36*
G01*
X168649000Y-114729500D02*
X168649000Y-113404500D01*
G75*
G02*
X168724000Y-113329500I75000J0D01*
G01*
X168874000Y-113329500D01*
G75*
G02*
X168949000Y-113404500I0J-75000D01*
G01*
X168949000Y-114729500D01*
G75*
G02*
X168874000Y-114804500I-75000J0D01*
G01*
X168724000Y-114804500D01*
G75*
G02*
X168649000Y-114729500I0J75000D01*
G01*
G37*
G36*
G01*
X169149000Y-114729500D02*
X169149000Y-113404500D01*
G75*
G02*
X169224000Y-113329500I75000J0D01*
G01*
X169374000Y-113329500D01*
G75*
G02*
X169449000Y-113404500I0J-75000D01*
G01*
X169449000Y-114729500D01*
G75*
G02*
X169374000Y-114804500I-75000J0D01*
G01*
X169224000Y-114804500D01*
G75*
G02*
X169149000Y-114729500I0J75000D01*
G01*
G37*
G36*
G01*
X169649000Y-114729500D02*
X169649000Y-113404500D01*
G75*
G02*
X169724000Y-113329500I75000J0D01*
G01*
X169874000Y-113329500D01*
G75*
G02*
X169949000Y-113404500I0J-75000D01*
G01*
X169949000Y-114729500D01*
G75*
G02*
X169874000Y-114804500I-75000J0D01*
G01*
X169724000Y-114804500D01*
G75*
G02*
X169649000Y-114729500I0J75000D01*
G01*
G37*
G36*
G01*
X170149000Y-114729500D02*
X170149000Y-113404500D01*
G75*
G02*
X170224000Y-113329500I75000J0D01*
G01*
X170374000Y-113329500D01*
G75*
G02*
X170449000Y-113404500I0J-75000D01*
G01*
X170449000Y-114729500D01*
G75*
G02*
X170374000Y-114804500I-75000J0D01*
G01*
X170224000Y-114804500D01*
G75*
G02*
X170149000Y-114729500I0J75000D01*
G01*
G37*
G36*
G01*
X170649000Y-114729500D02*
X170649000Y-113404500D01*
G75*
G02*
X170724000Y-113329500I75000J0D01*
G01*
X170874000Y-113329500D01*
G75*
G02*
X170949000Y-113404500I0J-75000D01*
G01*
X170949000Y-114729500D01*
G75*
G02*
X170874000Y-114804500I-75000J0D01*
G01*
X170724000Y-114804500D01*
G75*
G02*
X170649000Y-114729500I0J75000D01*
G01*
G37*
G36*
G01*
X171149000Y-114729500D02*
X171149000Y-113404500D01*
G75*
G02*
X171224000Y-113329500I75000J0D01*
G01*
X171374000Y-113329500D01*
G75*
G02*
X171449000Y-113404500I0J-75000D01*
G01*
X171449000Y-114729500D01*
G75*
G02*
X171374000Y-114804500I-75000J0D01*
G01*
X171224000Y-114804500D01*
G75*
G02*
X171149000Y-114729500I0J75000D01*
G01*
G37*
G36*
G01*
X171649000Y-114729500D02*
X171649000Y-113404500D01*
G75*
G02*
X171724000Y-113329500I75000J0D01*
G01*
X171874000Y-113329500D01*
G75*
G02*
X171949000Y-113404500I0J-75000D01*
G01*
X171949000Y-114729500D01*
G75*
G02*
X171874000Y-114804500I-75000J0D01*
G01*
X171724000Y-114804500D01*
G75*
G02*
X171649000Y-114729500I0J75000D01*
G01*
G37*
G36*
G01*
X172149000Y-114729500D02*
X172149000Y-113404500D01*
G75*
G02*
X172224000Y-113329500I75000J0D01*
G01*
X172374000Y-113329500D01*
G75*
G02*
X172449000Y-113404500I0J-75000D01*
G01*
X172449000Y-114729500D01*
G75*
G02*
X172374000Y-114804500I-75000J0D01*
G01*
X172224000Y-114804500D01*
G75*
G02*
X172149000Y-114729500I0J75000D01*
G01*
G37*
G36*
G01*
X172649000Y-114729500D02*
X172649000Y-113404500D01*
G75*
G02*
X172724000Y-113329500I75000J0D01*
G01*
X172874000Y-113329500D01*
G75*
G02*
X172949000Y-113404500I0J-75000D01*
G01*
X172949000Y-114729500D01*
G75*
G02*
X172874000Y-114804500I-75000J0D01*
G01*
X172724000Y-114804500D01*
G75*
G02*
X172649000Y-114729500I0J75000D01*
G01*
G37*
G36*
G01*
X173149000Y-114729500D02*
X173149000Y-113404500D01*
G75*
G02*
X173224000Y-113329500I75000J0D01*
G01*
X173374000Y-113329500D01*
G75*
G02*
X173449000Y-113404500I0J-75000D01*
G01*
X173449000Y-114729500D01*
G75*
G02*
X173374000Y-114804500I-75000J0D01*
G01*
X173224000Y-114804500D01*
G75*
G02*
X173149000Y-114729500I0J75000D01*
G01*
G37*
G36*
G01*
X173649000Y-114729500D02*
X173649000Y-113404500D01*
G75*
G02*
X173724000Y-113329500I75000J0D01*
G01*
X173874000Y-113329500D01*
G75*
G02*
X173949000Y-113404500I0J-75000D01*
G01*
X173949000Y-114729500D01*
G75*
G02*
X173874000Y-114804500I-75000J0D01*
G01*
X173724000Y-114804500D01*
G75*
G02*
X173649000Y-114729500I0J75000D01*
G01*
G37*
G36*
G01*
X174149000Y-114729500D02*
X174149000Y-113404500D01*
G75*
G02*
X174224000Y-113329500I75000J0D01*
G01*
X174374000Y-113329500D01*
G75*
G02*
X174449000Y-113404500I0J-75000D01*
G01*
X174449000Y-114729500D01*
G75*
G02*
X174374000Y-114804500I-75000J0D01*
G01*
X174224000Y-114804500D01*
G75*
G02*
X174149000Y-114729500I0J75000D01*
G01*
G37*
G36*
G01*
X174649000Y-114729500D02*
X174649000Y-113404500D01*
G75*
G02*
X174724000Y-113329500I75000J0D01*
G01*
X174874000Y-113329500D01*
G75*
G02*
X174949000Y-113404500I0J-75000D01*
G01*
X174949000Y-114729500D01*
G75*
G02*
X174874000Y-114804500I-75000J0D01*
G01*
X174724000Y-114804500D01*
G75*
G02*
X174649000Y-114729500I0J75000D01*
G01*
G37*
G36*
G01*
X175149000Y-114729500D02*
X175149000Y-113404500D01*
G75*
G02*
X175224000Y-113329500I75000J0D01*
G01*
X175374000Y-113329500D01*
G75*
G02*
X175449000Y-113404500I0J-75000D01*
G01*
X175449000Y-114729500D01*
G75*
G02*
X175374000Y-114804500I-75000J0D01*
G01*
X175224000Y-114804500D01*
G75*
G02*
X175149000Y-114729500I0J75000D01*
G01*
G37*
G36*
G01*
X175649000Y-114729500D02*
X175649000Y-113404500D01*
G75*
G02*
X175724000Y-113329500I75000J0D01*
G01*
X175874000Y-113329500D01*
G75*
G02*
X175949000Y-113404500I0J-75000D01*
G01*
X175949000Y-114729500D01*
G75*
G02*
X175874000Y-114804500I-75000J0D01*
G01*
X175724000Y-114804500D01*
G75*
G02*
X175649000Y-114729500I0J75000D01*
G01*
G37*
G36*
G01*
X176724000Y-115804500D02*
X176724000Y-115654500D01*
G75*
G02*
X176799000Y-115579500I75000J0D01*
G01*
X178124000Y-115579500D01*
G75*
G02*
X178199000Y-115654500I0J-75000D01*
G01*
X178199000Y-115804500D01*
G75*
G02*
X178124000Y-115879500I-75000J0D01*
G01*
X176799000Y-115879500D01*
G75*
G02*
X176724000Y-115804500I0J75000D01*
G01*
G37*
G36*
G01*
X176724000Y-116304500D02*
X176724000Y-116154500D01*
G75*
G02*
X176799000Y-116079500I75000J0D01*
G01*
X178124000Y-116079500D01*
G75*
G02*
X178199000Y-116154500I0J-75000D01*
G01*
X178199000Y-116304500D01*
G75*
G02*
X178124000Y-116379500I-75000J0D01*
G01*
X176799000Y-116379500D01*
G75*
G02*
X176724000Y-116304500I0J75000D01*
G01*
G37*
G36*
G01*
X176724000Y-116804500D02*
X176724000Y-116654500D01*
G75*
G02*
X176799000Y-116579500I75000J0D01*
G01*
X178124000Y-116579500D01*
G75*
G02*
X178199000Y-116654500I0J-75000D01*
G01*
X178199000Y-116804500D01*
G75*
G02*
X178124000Y-116879500I-75000J0D01*
G01*
X176799000Y-116879500D01*
G75*
G02*
X176724000Y-116804500I0J75000D01*
G01*
G37*
G36*
G01*
X176724000Y-117304500D02*
X176724000Y-117154500D01*
G75*
G02*
X176799000Y-117079500I75000J0D01*
G01*
X178124000Y-117079500D01*
G75*
G02*
X178199000Y-117154500I0J-75000D01*
G01*
X178199000Y-117304500D01*
G75*
G02*
X178124000Y-117379500I-75000J0D01*
G01*
X176799000Y-117379500D01*
G75*
G02*
X176724000Y-117304500I0J75000D01*
G01*
G37*
G36*
G01*
X176724000Y-117804500D02*
X176724000Y-117654500D01*
G75*
G02*
X176799000Y-117579500I75000J0D01*
G01*
X178124000Y-117579500D01*
G75*
G02*
X178199000Y-117654500I0J-75000D01*
G01*
X178199000Y-117804500D01*
G75*
G02*
X178124000Y-117879500I-75000J0D01*
G01*
X176799000Y-117879500D01*
G75*
G02*
X176724000Y-117804500I0J75000D01*
G01*
G37*
G36*
G01*
X176724000Y-118304500D02*
X176724000Y-118154500D01*
G75*
G02*
X176799000Y-118079500I75000J0D01*
G01*
X178124000Y-118079500D01*
G75*
G02*
X178199000Y-118154500I0J-75000D01*
G01*
X178199000Y-118304500D01*
G75*
G02*
X178124000Y-118379500I-75000J0D01*
G01*
X176799000Y-118379500D01*
G75*
G02*
X176724000Y-118304500I0J75000D01*
G01*
G37*
G36*
G01*
X176724000Y-118804500D02*
X176724000Y-118654500D01*
G75*
G02*
X176799000Y-118579500I75000J0D01*
G01*
X178124000Y-118579500D01*
G75*
G02*
X178199000Y-118654500I0J-75000D01*
G01*
X178199000Y-118804500D01*
G75*
G02*
X178124000Y-118879500I-75000J0D01*
G01*
X176799000Y-118879500D01*
G75*
G02*
X176724000Y-118804500I0J75000D01*
G01*
G37*
G36*
G01*
X176724000Y-119304500D02*
X176724000Y-119154500D01*
G75*
G02*
X176799000Y-119079500I75000J0D01*
G01*
X178124000Y-119079500D01*
G75*
G02*
X178199000Y-119154500I0J-75000D01*
G01*
X178199000Y-119304500D01*
G75*
G02*
X178124000Y-119379500I-75000J0D01*
G01*
X176799000Y-119379500D01*
G75*
G02*
X176724000Y-119304500I0J75000D01*
G01*
G37*
G36*
G01*
X176724000Y-119804500D02*
X176724000Y-119654500D01*
G75*
G02*
X176799000Y-119579500I75000J0D01*
G01*
X178124000Y-119579500D01*
G75*
G02*
X178199000Y-119654500I0J-75000D01*
G01*
X178199000Y-119804500D01*
G75*
G02*
X178124000Y-119879500I-75000J0D01*
G01*
X176799000Y-119879500D01*
G75*
G02*
X176724000Y-119804500I0J75000D01*
G01*
G37*
G36*
G01*
X176724000Y-120304500D02*
X176724000Y-120154500D01*
G75*
G02*
X176799000Y-120079500I75000J0D01*
G01*
X178124000Y-120079500D01*
G75*
G02*
X178199000Y-120154500I0J-75000D01*
G01*
X178199000Y-120304500D01*
G75*
G02*
X178124000Y-120379500I-75000J0D01*
G01*
X176799000Y-120379500D01*
G75*
G02*
X176724000Y-120304500I0J75000D01*
G01*
G37*
G36*
G01*
X176724000Y-120804500D02*
X176724000Y-120654500D01*
G75*
G02*
X176799000Y-120579500I75000J0D01*
G01*
X178124000Y-120579500D01*
G75*
G02*
X178199000Y-120654500I0J-75000D01*
G01*
X178199000Y-120804500D01*
G75*
G02*
X178124000Y-120879500I-75000J0D01*
G01*
X176799000Y-120879500D01*
G75*
G02*
X176724000Y-120804500I0J75000D01*
G01*
G37*
G36*
G01*
X176724000Y-121304500D02*
X176724000Y-121154500D01*
G75*
G02*
X176799000Y-121079500I75000J0D01*
G01*
X178124000Y-121079500D01*
G75*
G02*
X178199000Y-121154500I0J-75000D01*
G01*
X178199000Y-121304500D01*
G75*
G02*
X178124000Y-121379500I-75000J0D01*
G01*
X176799000Y-121379500D01*
G75*
G02*
X176724000Y-121304500I0J75000D01*
G01*
G37*
G36*
G01*
X176724000Y-121804500D02*
X176724000Y-121654500D01*
G75*
G02*
X176799000Y-121579500I75000J0D01*
G01*
X178124000Y-121579500D01*
G75*
G02*
X178199000Y-121654500I0J-75000D01*
G01*
X178199000Y-121804500D01*
G75*
G02*
X178124000Y-121879500I-75000J0D01*
G01*
X176799000Y-121879500D01*
G75*
G02*
X176724000Y-121804500I0J75000D01*
G01*
G37*
G36*
G01*
X176724000Y-122304500D02*
X176724000Y-122154500D01*
G75*
G02*
X176799000Y-122079500I75000J0D01*
G01*
X178124000Y-122079500D01*
G75*
G02*
X178199000Y-122154500I0J-75000D01*
G01*
X178199000Y-122304500D01*
G75*
G02*
X178124000Y-122379500I-75000J0D01*
G01*
X176799000Y-122379500D01*
G75*
G02*
X176724000Y-122304500I0J75000D01*
G01*
G37*
G36*
G01*
X176724000Y-122804500D02*
X176724000Y-122654500D01*
G75*
G02*
X176799000Y-122579500I75000J0D01*
G01*
X178124000Y-122579500D01*
G75*
G02*
X178199000Y-122654500I0J-75000D01*
G01*
X178199000Y-122804500D01*
G75*
G02*
X178124000Y-122879500I-75000J0D01*
G01*
X176799000Y-122879500D01*
G75*
G02*
X176724000Y-122804500I0J75000D01*
G01*
G37*
G36*
G01*
X176724000Y-123304500D02*
X176724000Y-123154500D01*
G75*
G02*
X176799000Y-123079500I75000J0D01*
G01*
X178124000Y-123079500D01*
G75*
G02*
X178199000Y-123154500I0J-75000D01*
G01*
X178199000Y-123304500D01*
G75*
G02*
X178124000Y-123379500I-75000J0D01*
G01*
X176799000Y-123379500D01*
G75*
G02*
X176724000Y-123304500I0J75000D01*
G01*
G37*
G36*
G01*
X176724000Y-123804500D02*
X176724000Y-123654500D01*
G75*
G02*
X176799000Y-123579500I75000J0D01*
G01*
X178124000Y-123579500D01*
G75*
G02*
X178199000Y-123654500I0J-75000D01*
G01*
X178199000Y-123804500D01*
G75*
G02*
X178124000Y-123879500I-75000J0D01*
G01*
X176799000Y-123879500D01*
G75*
G02*
X176724000Y-123804500I0J75000D01*
G01*
G37*
G36*
G01*
X176724000Y-124304500D02*
X176724000Y-124154500D01*
G75*
G02*
X176799000Y-124079500I75000J0D01*
G01*
X178124000Y-124079500D01*
G75*
G02*
X178199000Y-124154500I0J-75000D01*
G01*
X178199000Y-124304500D01*
G75*
G02*
X178124000Y-124379500I-75000J0D01*
G01*
X176799000Y-124379500D01*
G75*
G02*
X176724000Y-124304500I0J75000D01*
G01*
G37*
G36*
G01*
X176724000Y-124804500D02*
X176724000Y-124654500D01*
G75*
G02*
X176799000Y-124579500I75000J0D01*
G01*
X178124000Y-124579500D01*
G75*
G02*
X178199000Y-124654500I0J-75000D01*
G01*
X178199000Y-124804500D01*
G75*
G02*
X178124000Y-124879500I-75000J0D01*
G01*
X176799000Y-124879500D01*
G75*
G02*
X176724000Y-124804500I0J75000D01*
G01*
G37*
G36*
G01*
X176724000Y-125304500D02*
X176724000Y-125154500D01*
G75*
G02*
X176799000Y-125079500I75000J0D01*
G01*
X178124000Y-125079500D01*
G75*
G02*
X178199000Y-125154500I0J-75000D01*
G01*
X178199000Y-125304500D01*
G75*
G02*
X178124000Y-125379500I-75000J0D01*
G01*
X176799000Y-125379500D01*
G75*
G02*
X176724000Y-125304500I0J75000D01*
G01*
G37*
G36*
G01*
X176724000Y-125804500D02*
X176724000Y-125654500D01*
G75*
G02*
X176799000Y-125579500I75000J0D01*
G01*
X178124000Y-125579500D01*
G75*
G02*
X178199000Y-125654500I0J-75000D01*
G01*
X178199000Y-125804500D01*
G75*
G02*
X178124000Y-125879500I-75000J0D01*
G01*
X176799000Y-125879500D01*
G75*
G02*
X176724000Y-125804500I0J75000D01*
G01*
G37*
G36*
G01*
X176724000Y-126304500D02*
X176724000Y-126154500D01*
G75*
G02*
X176799000Y-126079500I75000J0D01*
G01*
X178124000Y-126079500D01*
G75*
G02*
X178199000Y-126154500I0J-75000D01*
G01*
X178199000Y-126304500D01*
G75*
G02*
X178124000Y-126379500I-75000J0D01*
G01*
X176799000Y-126379500D01*
G75*
G02*
X176724000Y-126304500I0J75000D01*
G01*
G37*
G36*
G01*
X176724000Y-126804500D02*
X176724000Y-126654500D01*
G75*
G02*
X176799000Y-126579500I75000J0D01*
G01*
X178124000Y-126579500D01*
G75*
G02*
X178199000Y-126654500I0J-75000D01*
G01*
X178199000Y-126804500D01*
G75*
G02*
X178124000Y-126879500I-75000J0D01*
G01*
X176799000Y-126879500D01*
G75*
G02*
X176724000Y-126804500I0J75000D01*
G01*
G37*
G36*
G01*
X176724000Y-127304500D02*
X176724000Y-127154500D01*
G75*
G02*
X176799000Y-127079500I75000J0D01*
G01*
X178124000Y-127079500D01*
G75*
G02*
X178199000Y-127154500I0J-75000D01*
G01*
X178199000Y-127304500D01*
G75*
G02*
X178124000Y-127379500I-75000J0D01*
G01*
X176799000Y-127379500D01*
G75*
G02*
X176724000Y-127304500I0J75000D01*
G01*
G37*
G36*
G01*
X176724000Y-127804500D02*
X176724000Y-127654500D01*
G75*
G02*
X176799000Y-127579500I75000J0D01*
G01*
X178124000Y-127579500D01*
G75*
G02*
X178199000Y-127654500I0J-75000D01*
G01*
X178199000Y-127804500D01*
G75*
G02*
X178124000Y-127879500I-75000J0D01*
G01*
X176799000Y-127879500D01*
G75*
G02*
X176724000Y-127804500I0J75000D01*
G01*
G37*
G36*
G01*
X175649000Y-130054500D02*
X175649000Y-128729500D01*
G75*
G02*
X175724000Y-128654500I75000J0D01*
G01*
X175874000Y-128654500D01*
G75*
G02*
X175949000Y-128729500I0J-75000D01*
G01*
X175949000Y-130054500D01*
G75*
G02*
X175874000Y-130129500I-75000J0D01*
G01*
X175724000Y-130129500D01*
G75*
G02*
X175649000Y-130054500I0J75000D01*
G01*
G37*
G36*
G01*
X175149000Y-130054500D02*
X175149000Y-128729500D01*
G75*
G02*
X175224000Y-128654500I75000J0D01*
G01*
X175374000Y-128654500D01*
G75*
G02*
X175449000Y-128729500I0J-75000D01*
G01*
X175449000Y-130054500D01*
G75*
G02*
X175374000Y-130129500I-75000J0D01*
G01*
X175224000Y-130129500D01*
G75*
G02*
X175149000Y-130054500I0J75000D01*
G01*
G37*
G36*
G01*
X174649000Y-130054500D02*
X174649000Y-128729500D01*
G75*
G02*
X174724000Y-128654500I75000J0D01*
G01*
X174874000Y-128654500D01*
G75*
G02*
X174949000Y-128729500I0J-75000D01*
G01*
X174949000Y-130054500D01*
G75*
G02*
X174874000Y-130129500I-75000J0D01*
G01*
X174724000Y-130129500D01*
G75*
G02*
X174649000Y-130054500I0J75000D01*
G01*
G37*
G36*
G01*
X174149000Y-130054500D02*
X174149000Y-128729500D01*
G75*
G02*
X174224000Y-128654500I75000J0D01*
G01*
X174374000Y-128654500D01*
G75*
G02*
X174449000Y-128729500I0J-75000D01*
G01*
X174449000Y-130054500D01*
G75*
G02*
X174374000Y-130129500I-75000J0D01*
G01*
X174224000Y-130129500D01*
G75*
G02*
X174149000Y-130054500I0J75000D01*
G01*
G37*
G36*
G01*
X173649000Y-130054500D02*
X173649000Y-128729500D01*
G75*
G02*
X173724000Y-128654500I75000J0D01*
G01*
X173874000Y-128654500D01*
G75*
G02*
X173949000Y-128729500I0J-75000D01*
G01*
X173949000Y-130054500D01*
G75*
G02*
X173874000Y-130129500I-75000J0D01*
G01*
X173724000Y-130129500D01*
G75*
G02*
X173649000Y-130054500I0J75000D01*
G01*
G37*
G36*
G01*
X173149000Y-130054500D02*
X173149000Y-128729500D01*
G75*
G02*
X173224000Y-128654500I75000J0D01*
G01*
X173374000Y-128654500D01*
G75*
G02*
X173449000Y-128729500I0J-75000D01*
G01*
X173449000Y-130054500D01*
G75*
G02*
X173374000Y-130129500I-75000J0D01*
G01*
X173224000Y-130129500D01*
G75*
G02*
X173149000Y-130054500I0J75000D01*
G01*
G37*
G36*
G01*
X172649000Y-130054500D02*
X172649000Y-128729500D01*
G75*
G02*
X172724000Y-128654500I75000J0D01*
G01*
X172874000Y-128654500D01*
G75*
G02*
X172949000Y-128729500I0J-75000D01*
G01*
X172949000Y-130054500D01*
G75*
G02*
X172874000Y-130129500I-75000J0D01*
G01*
X172724000Y-130129500D01*
G75*
G02*
X172649000Y-130054500I0J75000D01*
G01*
G37*
G36*
G01*
X172149000Y-130054500D02*
X172149000Y-128729500D01*
G75*
G02*
X172224000Y-128654500I75000J0D01*
G01*
X172374000Y-128654500D01*
G75*
G02*
X172449000Y-128729500I0J-75000D01*
G01*
X172449000Y-130054500D01*
G75*
G02*
X172374000Y-130129500I-75000J0D01*
G01*
X172224000Y-130129500D01*
G75*
G02*
X172149000Y-130054500I0J75000D01*
G01*
G37*
G36*
G01*
X171649000Y-130054500D02*
X171649000Y-128729500D01*
G75*
G02*
X171724000Y-128654500I75000J0D01*
G01*
X171874000Y-128654500D01*
G75*
G02*
X171949000Y-128729500I0J-75000D01*
G01*
X171949000Y-130054500D01*
G75*
G02*
X171874000Y-130129500I-75000J0D01*
G01*
X171724000Y-130129500D01*
G75*
G02*
X171649000Y-130054500I0J75000D01*
G01*
G37*
G36*
G01*
X171149000Y-130054500D02*
X171149000Y-128729500D01*
G75*
G02*
X171224000Y-128654500I75000J0D01*
G01*
X171374000Y-128654500D01*
G75*
G02*
X171449000Y-128729500I0J-75000D01*
G01*
X171449000Y-130054500D01*
G75*
G02*
X171374000Y-130129500I-75000J0D01*
G01*
X171224000Y-130129500D01*
G75*
G02*
X171149000Y-130054500I0J75000D01*
G01*
G37*
G36*
G01*
X170649000Y-130054500D02*
X170649000Y-128729500D01*
G75*
G02*
X170724000Y-128654500I75000J0D01*
G01*
X170874000Y-128654500D01*
G75*
G02*
X170949000Y-128729500I0J-75000D01*
G01*
X170949000Y-130054500D01*
G75*
G02*
X170874000Y-130129500I-75000J0D01*
G01*
X170724000Y-130129500D01*
G75*
G02*
X170649000Y-130054500I0J75000D01*
G01*
G37*
G36*
G01*
X170149000Y-130054500D02*
X170149000Y-128729500D01*
G75*
G02*
X170224000Y-128654500I75000J0D01*
G01*
X170374000Y-128654500D01*
G75*
G02*
X170449000Y-128729500I0J-75000D01*
G01*
X170449000Y-130054500D01*
G75*
G02*
X170374000Y-130129500I-75000J0D01*
G01*
X170224000Y-130129500D01*
G75*
G02*
X170149000Y-130054500I0J75000D01*
G01*
G37*
G36*
G01*
X169649000Y-130054500D02*
X169649000Y-128729500D01*
G75*
G02*
X169724000Y-128654500I75000J0D01*
G01*
X169874000Y-128654500D01*
G75*
G02*
X169949000Y-128729500I0J-75000D01*
G01*
X169949000Y-130054500D01*
G75*
G02*
X169874000Y-130129500I-75000J0D01*
G01*
X169724000Y-130129500D01*
G75*
G02*
X169649000Y-130054500I0J75000D01*
G01*
G37*
G36*
G01*
X169149000Y-130054500D02*
X169149000Y-128729500D01*
G75*
G02*
X169224000Y-128654500I75000J0D01*
G01*
X169374000Y-128654500D01*
G75*
G02*
X169449000Y-128729500I0J-75000D01*
G01*
X169449000Y-130054500D01*
G75*
G02*
X169374000Y-130129500I-75000J0D01*
G01*
X169224000Y-130129500D01*
G75*
G02*
X169149000Y-130054500I0J75000D01*
G01*
G37*
G36*
G01*
X168649000Y-130054500D02*
X168649000Y-128729500D01*
G75*
G02*
X168724000Y-128654500I75000J0D01*
G01*
X168874000Y-128654500D01*
G75*
G02*
X168949000Y-128729500I0J-75000D01*
G01*
X168949000Y-130054500D01*
G75*
G02*
X168874000Y-130129500I-75000J0D01*
G01*
X168724000Y-130129500D01*
G75*
G02*
X168649000Y-130054500I0J75000D01*
G01*
G37*
G36*
G01*
X168149000Y-130054500D02*
X168149000Y-128729500D01*
G75*
G02*
X168224000Y-128654500I75000J0D01*
G01*
X168374000Y-128654500D01*
G75*
G02*
X168449000Y-128729500I0J-75000D01*
G01*
X168449000Y-130054500D01*
G75*
G02*
X168374000Y-130129500I-75000J0D01*
G01*
X168224000Y-130129500D01*
G75*
G02*
X168149000Y-130054500I0J75000D01*
G01*
G37*
G36*
G01*
X167649000Y-130054500D02*
X167649000Y-128729500D01*
G75*
G02*
X167724000Y-128654500I75000J0D01*
G01*
X167874000Y-128654500D01*
G75*
G02*
X167949000Y-128729500I0J-75000D01*
G01*
X167949000Y-130054500D01*
G75*
G02*
X167874000Y-130129500I-75000J0D01*
G01*
X167724000Y-130129500D01*
G75*
G02*
X167649000Y-130054500I0J75000D01*
G01*
G37*
G36*
G01*
X167149000Y-130054500D02*
X167149000Y-128729500D01*
G75*
G02*
X167224000Y-128654500I75000J0D01*
G01*
X167374000Y-128654500D01*
G75*
G02*
X167449000Y-128729500I0J-75000D01*
G01*
X167449000Y-130054500D01*
G75*
G02*
X167374000Y-130129500I-75000J0D01*
G01*
X167224000Y-130129500D01*
G75*
G02*
X167149000Y-130054500I0J75000D01*
G01*
G37*
G36*
G01*
X166649000Y-130054500D02*
X166649000Y-128729500D01*
G75*
G02*
X166724000Y-128654500I75000J0D01*
G01*
X166874000Y-128654500D01*
G75*
G02*
X166949000Y-128729500I0J-75000D01*
G01*
X166949000Y-130054500D01*
G75*
G02*
X166874000Y-130129500I-75000J0D01*
G01*
X166724000Y-130129500D01*
G75*
G02*
X166649000Y-130054500I0J75000D01*
G01*
G37*
G36*
G01*
X166149000Y-130054500D02*
X166149000Y-128729500D01*
G75*
G02*
X166224000Y-128654500I75000J0D01*
G01*
X166374000Y-128654500D01*
G75*
G02*
X166449000Y-128729500I0J-75000D01*
G01*
X166449000Y-130054500D01*
G75*
G02*
X166374000Y-130129500I-75000J0D01*
G01*
X166224000Y-130129500D01*
G75*
G02*
X166149000Y-130054500I0J75000D01*
G01*
G37*
G36*
G01*
X165649000Y-130054500D02*
X165649000Y-128729500D01*
G75*
G02*
X165724000Y-128654500I75000J0D01*
G01*
X165874000Y-128654500D01*
G75*
G02*
X165949000Y-128729500I0J-75000D01*
G01*
X165949000Y-130054500D01*
G75*
G02*
X165874000Y-130129500I-75000J0D01*
G01*
X165724000Y-130129500D01*
G75*
G02*
X165649000Y-130054500I0J75000D01*
G01*
G37*
G36*
G01*
X165149000Y-130054500D02*
X165149000Y-128729500D01*
G75*
G02*
X165224000Y-128654500I75000J0D01*
G01*
X165374000Y-128654500D01*
G75*
G02*
X165449000Y-128729500I0J-75000D01*
G01*
X165449000Y-130054500D01*
G75*
G02*
X165374000Y-130129500I-75000J0D01*
G01*
X165224000Y-130129500D01*
G75*
G02*
X165149000Y-130054500I0J75000D01*
G01*
G37*
G36*
G01*
X164649000Y-130054500D02*
X164649000Y-128729500D01*
G75*
G02*
X164724000Y-128654500I75000J0D01*
G01*
X164874000Y-128654500D01*
G75*
G02*
X164949000Y-128729500I0J-75000D01*
G01*
X164949000Y-130054500D01*
G75*
G02*
X164874000Y-130129500I-75000J0D01*
G01*
X164724000Y-130129500D01*
G75*
G02*
X164649000Y-130054500I0J75000D01*
G01*
G37*
G36*
G01*
X164149000Y-130054500D02*
X164149000Y-128729500D01*
G75*
G02*
X164224000Y-128654500I75000J0D01*
G01*
X164374000Y-128654500D01*
G75*
G02*
X164449000Y-128729500I0J-75000D01*
G01*
X164449000Y-130054500D01*
G75*
G02*
X164374000Y-130129500I-75000J0D01*
G01*
X164224000Y-130129500D01*
G75*
G02*
X164149000Y-130054500I0J75000D01*
G01*
G37*
G36*
G01*
X163649000Y-130054500D02*
X163649000Y-128729500D01*
G75*
G02*
X163724000Y-128654500I75000J0D01*
G01*
X163874000Y-128654500D01*
G75*
G02*
X163949000Y-128729500I0J-75000D01*
G01*
X163949000Y-130054500D01*
G75*
G02*
X163874000Y-130129500I-75000J0D01*
G01*
X163724000Y-130129500D01*
G75*
G02*
X163649000Y-130054500I0J75000D01*
G01*
G37*
G36*
G01*
X161399000Y-127804500D02*
X161399000Y-127654500D01*
G75*
G02*
X161474000Y-127579500I75000J0D01*
G01*
X162799000Y-127579500D01*
G75*
G02*
X162874000Y-127654500I0J-75000D01*
G01*
X162874000Y-127804500D01*
G75*
G02*
X162799000Y-127879500I-75000J0D01*
G01*
X161474000Y-127879500D01*
G75*
G02*
X161399000Y-127804500I0J75000D01*
G01*
G37*
G36*
G01*
X161399000Y-127304500D02*
X161399000Y-127154500D01*
G75*
G02*
X161474000Y-127079500I75000J0D01*
G01*
X162799000Y-127079500D01*
G75*
G02*
X162874000Y-127154500I0J-75000D01*
G01*
X162874000Y-127304500D01*
G75*
G02*
X162799000Y-127379500I-75000J0D01*
G01*
X161474000Y-127379500D01*
G75*
G02*
X161399000Y-127304500I0J75000D01*
G01*
G37*
G36*
G01*
X161399000Y-126804500D02*
X161399000Y-126654500D01*
G75*
G02*
X161474000Y-126579500I75000J0D01*
G01*
X162799000Y-126579500D01*
G75*
G02*
X162874000Y-126654500I0J-75000D01*
G01*
X162874000Y-126804500D01*
G75*
G02*
X162799000Y-126879500I-75000J0D01*
G01*
X161474000Y-126879500D01*
G75*
G02*
X161399000Y-126804500I0J75000D01*
G01*
G37*
G36*
G01*
X161399000Y-126304500D02*
X161399000Y-126154500D01*
G75*
G02*
X161474000Y-126079500I75000J0D01*
G01*
X162799000Y-126079500D01*
G75*
G02*
X162874000Y-126154500I0J-75000D01*
G01*
X162874000Y-126304500D01*
G75*
G02*
X162799000Y-126379500I-75000J0D01*
G01*
X161474000Y-126379500D01*
G75*
G02*
X161399000Y-126304500I0J75000D01*
G01*
G37*
G36*
G01*
X161399000Y-125804500D02*
X161399000Y-125654500D01*
G75*
G02*
X161474000Y-125579500I75000J0D01*
G01*
X162799000Y-125579500D01*
G75*
G02*
X162874000Y-125654500I0J-75000D01*
G01*
X162874000Y-125804500D01*
G75*
G02*
X162799000Y-125879500I-75000J0D01*
G01*
X161474000Y-125879500D01*
G75*
G02*
X161399000Y-125804500I0J75000D01*
G01*
G37*
G36*
G01*
X161399000Y-125304500D02*
X161399000Y-125154500D01*
G75*
G02*
X161474000Y-125079500I75000J0D01*
G01*
X162799000Y-125079500D01*
G75*
G02*
X162874000Y-125154500I0J-75000D01*
G01*
X162874000Y-125304500D01*
G75*
G02*
X162799000Y-125379500I-75000J0D01*
G01*
X161474000Y-125379500D01*
G75*
G02*
X161399000Y-125304500I0J75000D01*
G01*
G37*
G36*
G01*
X161399000Y-124804500D02*
X161399000Y-124654500D01*
G75*
G02*
X161474000Y-124579500I75000J0D01*
G01*
X162799000Y-124579500D01*
G75*
G02*
X162874000Y-124654500I0J-75000D01*
G01*
X162874000Y-124804500D01*
G75*
G02*
X162799000Y-124879500I-75000J0D01*
G01*
X161474000Y-124879500D01*
G75*
G02*
X161399000Y-124804500I0J75000D01*
G01*
G37*
G36*
G01*
X161399000Y-124304500D02*
X161399000Y-124154500D01*
G75*
G02*
X161474000Y-124079500I75000J0D01*
G01*
X162799000Y-124079500D01*
G75*
G02*
X162874000Y-124154500I0J-75000D01*
G01*
X162874000Y-124304500D01*
G75*
G02*
X162799000Y-124379500I-75000J0D01*
G01*
X161474000Y-124379500D01*
G75*
G02*
X161399000Y-124304500I0J75000D01*
G01*
G37*
G36*
G01*
X161399000Y-123804500D02*
X161399000Y-123654500D01*
G75*
G02*
X161474000Y-123579500I75000J0D01*
G01*
X162799000Y-123579500D01*
G75*
G02*
X162874000Y-123654500I0J-75000D01*
G01*
X162874000Y-123804500D01*
G75*
G02*
X162799000Y-123879500I-75000J0D01*
G01*
X161474000Y-123879500D01*
G75*
G02*
X161399000Y-123804500I0J75000D01*
G01*
G37*
G36*
G01*
X161399000Y-123304500D02*
X161399000Y-123154500D01*
G75*
G02*
X161474000Y-123079500I75000J0D01*
G01*
X162799000Y-123079500D01*
G75*
G02*
X162874000Y-123154500I0J-75000D01*
G01*
X162874000Y-123304500D01*
G75*
G02*
X162799000Y-123379500I-75000J0D01*
G01*
X161474000Y-123379500D01*
G75*
G02*
X161399000Y-123304500I0J75000D01*
G01*
G37*
G36*
G01*
X161399000Y-122804500D02*
X161399000Y-122654500D01*
G75*
G02*
X161474000Y-122579500I75000J0D01*
G01*
X162799000Y-122579500D01*
G75*
G02*
X162874000Y-122654500I0J-75000D01*
G01*
X162874000Y-122804500D01*
G75*
G02*
X162799000Y-122879500I-75000J0D01*
G01*
X161474000Y-122879500D01*
G75*
G02*
X161399000Y-122804500I0J75000D01*
G01*
G37*
G36*
G01*
X161399000Y-122304500D02*
X161399000Y-122154500D01*
G75*
G02*
X161474000Y-122079500I75000J0D01*
G01*
X162799000Y-122079500D01*
G75*
G02*
X162874000Y-122154500I0J-75000D01*
G01*
X162874000Y-122304500D01*
G75*
G02*
X162799000Y-122379500I-75000J0D01*
G01*
X161474000Y-122379500D01*
G75*
G02*
X161399000Y-122304500I0J75000D01*
G01*
G37*
G36*
G01*
X161399000Y-121804500D02*
X161399000Y-121654500D01*
G75*
G02*
X161474000Y-121579500I75000J0D01*
G01*
X162799000Y-121579500D01*
G75*
G02*
X162874000Y-121654500I0J-75000D01*
G01*
X162874000Y-121804500D01*
G75*
G02*
X162799000Y-121879500I-75000J0D01*
G01*
X161474000Y-121879500D01*
G75*
G02*
X161399000Y-121804500I0J75000D01*
G01*
G37*
G36*
G01*
X161399000Y-121304500D02*
X161399000Y-121154500D01*
G75*
G02*
X161474000Y-121079500I75000J0D01*
G01*
X162799000Y-121079500D01*
G75*
G02*
X162874000Y-121154500I0J-75000D01*
G01*
X162874000Y-121304500D01*
G75*
G02*
X162799000Y-121379500I-75000J0D01*
G01*
X161474000Y-121379500D01*
G75*
G02*
X161399000Y-121304500I0J75000D01*
G01*
G37*
G36*
G01*
X161399000Y-120804500D02*
X161399000Y-120654500D01*
G75*
G02*
X161474000Y-120579500I75000J0D01*
G01*
X162799000Y-120579500D01*
G75*
G02*
X162874000Y-120654500I0J-75000D01*
G01*
X162874000Y-120804500D01*
G75*
G02*
X162799000Y-120879500I-75000J0D01*
G01*
X161474000Y-120879500D01*
G75*
G02*
X161399000Y-120804500I0J75000D01*
G01*
G37*
G36*
G01*
X161399000Y-120304500D02*
X161399000Y-120154500D01*
G75*
G02*
X161474000Y-120079500I75000J0D01*
G01*
X162799000Y-120079500D01*
G75*
G02*
X162874000Y-120154500I0J-75000D01*
G01*
X162874000Y-120304500D01*
G75*
G02*
X162799000Y-120379500I-75000J0D01*
G01*
X161474000Y-120379500D01*
G75*
G02*
X161399000Y-120304500I0J75000D01*
G01*
G37*
G36*
G01*
X161399000Y-119804500D02*
X161399000Y-119654500D01*
G75*
G02*
X161474000Y-119579500I75000J0D01*
G01*
X162799000Y-119579500D01*
G75*
G02*
X162874000Y-119654500I0J-75000D01*
G01*
X162874000Y-119804500D01*
G75*
G02*
X162799000Y-119879500I-75000J0D01*
G01*
X161474000Y-119879500D01*
G75*
G02*
X161399000Y-119804500I0J75000D01*
G01*
G37*
G36*
G01*
X161399000Y-119304500D02*
X161399000Y-119154500D01*
G75*
G02*
X161474000Y-119079500I75000J0D01*
G01*
X162799000Y-119079500D01*
G75*
G02*
X162874000Y-119154500I0J-75000D01*
G01*
X162874000Y-119304500D01*
G75*
G02*
X162799000Y-119379500I-75000J0D01*
G01*
X161474000Y-119379500D01*
G75*
G02*
X161399000Y-119304500I0J75000D01*
G01*
G37*
G36*
G01*
X161399000Y-118804500D02*
X161399000Y-118654500D01*
G75*
G02*
X161474000Y-118579500I75000J0D01*
G01*
X162799000Y-118579500D01*
G75*
G02*
X162874000Y-118654500I0J-75000D01*
G01*
X162874000Y-118804500D01*
G75*
G02*
X162799000Y-118879500I-75000J0D01*
G01*
X161474000Y-118879500D01*
G75*
G02*
X161399000Y-118804500I0J75000D01*
G01*
G37*
G36*
G01*
X161399000Y-118304500D02*
X161399000Y-118154500D01*
G75*
G02*
X161474000Y-118079500I75000J0D01*
G01*
X162799000Y-118079500D01*
G75*
G02*
X162874000Y-118154500I0J-75000D01*
G01*
X162874000Y-118304500D01*
G75*
G02*
X162799000Y-118379500I-75000J0D01*
G01*
X161474000Y-118379500D01*
G75*
G02*
X161399000Y-118304500I0J75000D01*
G01*
G37*
G36*
G01*
X161399000Y-117804500D02*
X161399000Y-117654500D01*
G75*
G02*
X161474000Y-117579500I75000J0D01*
G01*
X162799000Y-117579500D01*
G75*
G02*
X162874000Y-117654500I0J-75000D01*
G01*
X162874000Y-117804500D01*
G75*
G02*
X162799000Y-117879500I-75000J0D01*
G01*
X161474000Y-117879500D01*
G75*
G02*
X161399000Y-117804500I0J75000D01*
G01*
G37*
G36*
G01*
X161399000Y-117304500D02*
X161399000Y-117154500D01*
G75*
G02*
X161474000Y-117079500I75000J0D01*
G01*
X162799000Y-117079500D01*
G75*
G02*
X162874000Y-117154500I0J-75000D01*
G01*
X162874000Y-117304500D01*
G75*
G02*
X162799000Y-117379500I-75000J0D01*
G01*
X161474000Y-117379500D01*
G75*
G02*
X161399000Y-117304500I0J75000D01*
G01*
G37*
G36*
G01*
X161399000Y-116804500D02*
X161399000Y-116654500D01*
G75*
G02*
X161474000Y-116579500I75000J0D01*
G01*
X162799000Y-116579500D01*
G75*
G02*
X162874000Y-116654500I0J-75000D01*
G01*
X162874000Y-116804500D01*
G75*
G02*
X162799000Y-116879500I-75000J0D01*
G01*
X161474000Y-116879500D01*
G75*
G02*
X161399000Y-116804500I0J75000D01*
G01*
G37*
G36*
G01*
X161399000Y-116304500D02*
X161399000Y-116154500D01*
G75*
G02*
X161474000Y-116079500I75000J0D01*
G01*
X162799000Y-116079500D01*
G75*
G02*
X162874000Y-116154500I0J-75000D01*
G01*
X162874000Y-116304500D01*
G75*
G02*
X162799000Y-116379500I-75000J0D01*
G01*
X161474000Y-116379500D01*
G75*
G02*
X161399000Y-116304500I0J75000D01*
G01*
G37*
G36*
G01*
X161399000Y-115804500D02*
X161399000Y-115654500D01*
G75*
G02*
X161474000Y-115579500I75000J0D01*
G01*
X162799000Y-115579500D01*
G75*
G02*
X162874000Y-115654500I0J-75000D01*
G01*
X162874000Y-115804500D01*
G75*
G02*
X162799000Y-115879500I-75000J0D01*
G01*
X161474000Y-115879500D01*
G75*
G02*
X161399000Y-115804500I0J75000D01*
G01*
G37*
D11*
X182546000Y-70358000D03*
D12*
X177546000Y-70358000D03*
D11*
X182800000Y-57912000D03*
D12*
X177800000Y-57912000D03*
D13*
X171450000Y-57912000D03*
X166450000Y-57912000D03*
X171450000Y-70358000D03*
X166450000Y-70358000D03*
X116078000Y-105266500D03*
X116078000Y-100266500D03*
X106426000Y-105139500D03*
X106426000Y-100139500D03*
D14*
X107696000Y-92750000D03*
D15*
X107696000Y-95250000D03*
D14*
X108204000Y-112482000D03*
D15*
X108204000Y-109982000D03*
D16*
X161290000Y-71374000D03*
X138430000Y-63754000D03*
X158750000Y-71374000D03*
X140970000Y-63754000D03*
X156210000Y-71374000D03*
X143510000Y-63754000D03*
X153670000Y-71374000D03*
X146050000Y-63754000D03*
X151130000Y-71374000D03*
X148590000Y-63754000D03*
X148590000Y-71374000D03*
X151130000Y-63754000D03*
X146050000Y-71374000D03*
X153670000Y-63754000D03*
X143510000Y-71374000D03*
X156210000Y-63754000D03*
X140970000Y-71374000D03*
X158750000Y-63754000D03*
X138430000Y-71374000D03*
D15*
X161290000Y-63754000D03*
D16*
X126492000Y-71374000D03*
X111252000Y-63754000D03*
X123952000Y-71374000D03*
X113792000Y-63754000D03*
X121412000Y-71374000D03*
X116332000Y-63754000D03*
X118872000Y-71374000D03*
X118872000Y-63754000D03*
X116332000Y-71374000D03*
X121412000Y-63754000D03*
X113792000Y-71374000D03*
X123952000Y-63754000D03*
X111252000Y-71374000D03*
D15*
X126492000Y-63754000D03*
D16*
X128270000Y-88773000D03*
X146050000Y-96393000D03*
X130810000Y-88773000D03*
X143510000Y-96393000D03*
X133350000Y-88773000D03*
X140970000Y-96393000D03*
X135890000Y-88773000D03*
X138430000Y-96393000D03*
X138430000Y-88773000D03*
X135890000Y-96393000D03*
X140970000Y-88773000D03*
X133350000Y-96393000D03*
X143510000Y-88773000D03*
X130810000Y-96393000D03*
X146050000Y-88773000D03*
D15*
X128270000Y-96393000D03*
D16*
X128270000Y-102743000D03*
X156210000Y-117983000D03*
X130810000Y-102743000D03*
X153670000Y-117983000D03*
X133350000Y-102743000D03*
X151130000Y-117983000D03*
X135890000Y-102743000D03*
X148590000Y-117983000D03*
X138430000Y-102743000D03*
X146050000Y-117983000D03*
X140970000Y-102743000D03*
X143510000Y-117983000D03*
X143510000Y-102743000D03*
X140970000Y-117983000D03*
X146050000Y-102743000D03*
X138430000Y-117983000D03*
X148590000Y-102743000D03*
X135890000Y-117983000D03*
X151130000Y-102743000D03*
X133350000Y-117983000D03*
X153670000Y-102743000D03*
X130810000Y-117983000D03*
X156210000Y-102743000D03*
D15*
X128270000Y-117983000D03*
G36*
G01*
X133747500Y-128424000D02*
X133747500Y-128624000D01*
G75*
G02*
X133647500Y-128724000I-100000J0D01*
G01*
X132222500Y-128724000D01*
G75*
G02*
X132122500Y-128624000I0J100000D01*
G01*
X132122500Y-128424000D01*
G75*
G02*
X132222500Y-128324000I100000J0D01*
G01*
X133647500Y-128324000D01*
G75*
G02*
X133747500Y-128424000I0J-100000D01*
G01*
G37*
G36*
G01*
X133747500Y-127774000D02*
X133747500Y-127974000D01*
G75*
G02*
X133647500Y-128074000I-100000J0D01*
G01*
X132222500Y-128074000D01*
G75*
G02*
X132122500Y-127974000I0J100000D01*
G01*
X132122500Y-127774000D01*
G75*
G02*
X132222500Y-127674000I100000J0D01*
G01*
X133647500Y-127674000D01*
G75*
G02*
X133747500Y-127774000I0J-100000D01*
G01*
G37*
G36*
G01*
X133747500Y-127124000D02*
X133747500Y-127324000D01*
G75*
G02*
X133647500Y-127424000I-100000J0D01*
G01*
X132222500Y-127424000D01*
G75*
G02*
X132122500Y-127324000I0J100000D01*
G01*
X132122500Y-127124000D01*
G75*
G02*
X132222500Y-127024000I100000J0D01*
G01*
X133647500Y-127024000D01*
G75*
G02*
X133747500Y-127124000I0J-100000D01*
G01*
G37*
G36*
G01*
X133747500Y-126474000D02*
X133747500Y-126674000D01*
G75*
G02*
X133647500Y-126774000I-100000J0D01*
G01*
X132222500Y-126774000D01*
G75*
G02*
X132122500Y-126674000I0J100000D01*
G01*
X132122500Y-126474000D01*
G75*
G02*
X132222500Y-126374000I100000J0D01*
G01*
X133647500Y-126374000D01*
G75*
G02*
X133747500Y-126474000I0J-100000D01*
G01*
G37*
G36*
G01*
X137972500Y-126474000D02*
X137972500Y-126674000D01*
G75*
G02*
X137872500Y-126774000I-100000J0D01*
G01*
X136447500Y-126774000D01*
G75*
G02*
X136347500Y-126674000I0J100000D01*
G01*
X136347500Y-126474000D01*
G75*
G02*
X136447500Y-126374000I100000J0D01*
G01*
X137872500Y-126374000D01*
G75*
G02*
X137972500Y-126474000I0J-100000D01*
G01*
G37*
G36*
G01*
X137972500Y-127124000D02*
X137972500Y-127324000D01*
G75*
G02*
X137872500Y-127424000I-100000J0D01*
G01*
X136447500Y-127424000D01*
G75*
G02*
X136347500Y-127324000I0J100000D01*
G01*
X136347500Y-127124000D01*
G75*
G02*
X136447500Y-127024000I100000J0D01*
G01*
X137872500Y-127024000D01*
G75*
G02*
X137972500Y-127124000I0J-100000D01*
G01*
G37*
G36*
G01*
X137972500Y-127774000D02*
X137972500Y-127974000D01*
G75*
G02*
X137872500Y-128074000I-100000J0D01*
G01*
X136447500Y-128074000D01*
G75*
G02*
X136347500Y-127974000I0J100000D01*
G01*
X136347500Y-127774000D01*
G75*
G02*
X136447500Y-127674000I100000J0D01*
G01*
X137872500Y-127674000D01*
G75*
G02*
X137972500Y-127774000I0J-100000D01*
G01*
G37*
G36*
G01*
X137972500Y-128424000D02*
X137972500Y-128624000D01*
G75*
G02*
X137872500Y-128724000I-100000J0D01*
G01*
X136447500Y-128724000D01*
G75*
G02*
X136347500Y-128624000I0J100000D01*
G01*
X136347500Y-128424000D01*
G75*
G02*
X136447500Y-128324000I100000J0D01*
G01*
X137872500Y-128324000D01*
G75*
G02*
X137972500Y-128424000I0J-100000D01*
G01*
G37*
D16*
X125222000Y-132842000D03*
X109982000Y-125222000D03*
X122682000Y-132842000D03*
X112522000Y-125222000D03*
X120142000Y-132842000D03*
X115062000Y-125222000D03*
X117602000Y-132842000D03*
X117602000Y-125222000D03*
X115062000Y-132842000D03*
X120142000Y-125222000D03*
X112522000Y-132842000D03*
X122682000Y-125222000D03*
X109982000Y-132842000D03*
D15*
X125222000Y-125222000D03*
D17*
X191088000Y-71294000D03*
X191088000Y-66294000D03*
X191088000Y-61294000D03*
X196088000Y-71294000D03*
X196088000Y-66294000D03*
X196088000Y-61294000D03*
D16*
X123444000Y-87376000D03*
X123444000Y-89916000D03*
X123444000Y-92456000D03*
X123444000Y-94996000D03*
X123444000Y-97536000D03*
D15*
X123444000Y-100076000D03*
D16*
X183134000Y-80518000D03*
D14*
X172974000Y-80518000D03*
D16*
X183134000Y-85598000D03*
D14*
X172974000Y-85598000D03*
D16*
X120650000Y-78486000D03*
D14*
X110490000Y-78486000D03*
D16*
X195072000Y-116078000D03*
D14*
X195072000Y-126238000D03*
D16*
X190119000Y-116078000D03*
D14*
X190119000Y-126238000D03*
D18*
X187833000Y-132905500D03*
D19*
X190373000Y-132905500D03*
X189103000Y-131635500D03*
D20*
X198120000Y-97573000D03*
X198120000Y-87573000D03*
X195620000Y-87573000D03*
X195620000Y-97573000D03*
X190620000Y-92573000D03*
D21*
X190620000Y-97573000D03*
X190620000Y-87573000D03*
D22*
X195620000Y-92573000D03*
D23*
X109984000Y-139628000D03*
X112524000Y-139628000D03*
X115064000Y-139628000D03*
X117604000Y-139628000D03*
X120144000Y-139628000D03*
X122684000Y-139628000D03*
X125224000Y-139628000D03*
X127764000Y-139628000D03*
X130304000Y-139628000D03*
X132844000Y-139628000D03*
X135384000Y-139628000D03*
X137924000Y-139628000D03*
X140464000Y-139628000D03*
X143004000Y-139628000D03*
X145544000Y-139628000D03*
X148084000Y-139628000D03*
X150624000Y-139628000D03*
X153164000Y-139628000D03*
X155704000Y-139628000D03*
X158244000Y-139628000D03*
X160784000Y-139628000D03*
X163324000Y-139628000D03*
X165864000Y-139628000D03*
X168404000Y-139628000D03*
X170944000Y-139628000D03*
X173484000Y-139628000D03*
X176024000Y-139628000D03*
X178564000Y-139628000D03*
X181104000Y-139628000D03*
X183644000Y-139628000D03*
X186184000Y-139628000D03*
X188724000Y-139628000D03*
X109984000Y-144708000D03*
X112524000Y-144708000D03*
X115064000Y-144708000D03*
X117604000Y-144708000D03*
X120144000Y-144708000D03*
X122684000Y-144708000D03*
X125224000Y-144708000D03*
X127764000Y-144708000D03*
X130304000Y-144708000D03*
X132844000Y-144708000D03*
X135384000Y-144708000D03*
X137924000Y-144708000D03*
X140464000Y-144708000D03*
X143004000Y-144708000D03*
X145544000Y-144708000D03*
X148084000Y-144708000D03*
X150624000Y-144708000D03*
X153164000Y-144708000D03*
X155704000Y-144708000D03*
X158244000Y-144708000D03*
X160784000Y-144708000D03*
X163324000Y-144708000D03*
X165864000Y-144708000D03*
X168404000Y-144708000D03*
X170944000Y-144708000D03*
X173484000Y-144708000D03*
X176024000Y-144708000D03*
X178564000Y-144708000D03*
X181104000Y-144708000D03*
X183644000Y-144708000D03*
X186184000Y-144708000D03*
G36*
G01*
X189499000Y-144182998D02*
X189499000Y-145233002D01*
G75*
G02*
X189249002Y-145483000I-249998J0D01*
G01*
X188198998Y-145483000D01*
G75*
G02*
X187949000Y-145233002I0J249998D01*
G01*
X187949000Y-144182998D01*
G75*
G02*
X188198998Y-143933000I249998J0D01*
G01*
X189249002Y-143933000D01*
G75*
G02*
X189499000Y-144182998I0J-249998D01*
G01*
G37*
D24*
X104904000Y-147248000D03*
X193804000Y-147248000D03*
D25*
X177546000Y-107696000D03*
X175006000Y-107696000D03*
X172466000Y-107696000D03*
X169926000Y-107696000D03*
X167386000Y-107696000D03*
D26*
X164846000Y-107696000D03*
D27*
X194691000Y-132905500D03*
D28*
X197231000Y-132905500D03*
D14*
X169632000Y-80518000D03*
X167132000Y-80518000D03*
X169672000Y-85598000D03*
X167172000Y-85598000D03*
X156250000Y-75438000D03*
X158750000Y-75438000D03*
X143510000Y-75184000D03*
X141010000Y-75184000D03*
X138978000Y-57912000D03*
D15*
X141478000Y-57912000D03*
D14*
X145328000Y-57912000D03*
D15*
X147828000Y-57912000D03*
D14*
X150114000Y-75438000D03*
X152614000Y-75438000D03*
X158028000Y-57912000D03*
D15*
X160528000Y-57912000D03*
D14*
X151678000Y-57912000D03*
D15*
X154178000Y-57912000D03*
D14*
X133350000Y-62810000D03*
X133350000Y-65310000D03*
X133350000Y-71588000D03*
X133350000Y-69088000D03*
X105664000Y-66334000D03*
D15*
X105664000Y-68834000D03*
D14*
X116332000Y-60198000D03*
X113832000Y-60198000D03*
X122642000Y-60198000D03*
X120142000Y-60198000D03*
X123992000Y-75184000D03*
X126492000Y-75184000D03*
X123952000Y-104688000D03*
X123952000Y-107188000D03*
X114086000Y-83566000D03*
D15*
X116586000Y-83566000D03*
D14*
X150622000Y-93853000D03*
X150622000Y-91353000D03*
X123952000Y-114300000D03*
X123952000Y-116800000D03*
X109688000Y-60198000D03*
X107188000Y-60198000D03*
X128992000Y-60198000D03*
X126492000Y-60198000D03*
X131826000Y-132842000D03*
X129326000Y-132842000D03*
X114046000Y-92710000D03*
X114046000Y-95210000D03*
X114808000Y-112482000D03*
X114808000Y-109982000D03*
X181102000Y-113030000D03*
X178602000Y-113030000D03*
X135422000Y-132842000D03*
X137922000Y-132842000D03*
X112268000Y-121920000D03*
X109768000Y-121920000D03*
M02*
