G04 #@! TF.GenerationSoftware,KiCad,Pcbnew,(5.1.10)-1*
G04 #@! TF.CreationDate,2021-08-18T14:18:43+01:00*
G04 #@! TF.ProjectId,GfxTMS9918,47667854-4d53-4393-9931-382e6b696361,rev?*
G04 #@! TF.SameCoordinates,Original*
G04 #@! TF.FileFunction,Soldermask,Top*
G04 #@! TF.FilePolarity,Negative*
%FSLAX46Y46*%
G04 Gerber Fmt 4.6, Leading zero omitted, Abs format (unit mm)*
G04 Created by KiCad (PCBNEW (5.1.10)-1) date 2021-08-18 14:18:43*
%MOMM*%
%LPD*%
G01*
G04 APERTURE LIST*
%ADD10C,2.300000*%
%ADD11O,1.600000X1.600000*%
%ADD12R,1.600000X1.600000*%
%ADD13C,1.422400*%
%ADD14R,1.422400X1.422400*%
%ADD15C,1.600000*%
%ADD16R,1.050000X1.500000*%
%ADD17O,1.050000X1.500000*%
%ADD18C,3.600000*%
%ADD19R,3.765000X3.765000*%
%ADD20O,1.700000X1.700000*%
%ADD21R,1.700000X1.700000*%
%ADD22C,1.550000*%
%ADD23C,2.850000*%
%ADD24C,1.800000*%
%ADD25R,1.800000X1.800000*%
G04 APERTURE END LIST*
D10*
X105156000Y-56896000D03*
X105156000Y-61796000D03*
D11*
X176784000Y-100330000D03*
X143764000Y-85090000D03*
X174244000Y-100330000D03*
X146304000Y-85090000D03*
X171704000Y-100330000D03*
X148844000Y-85090000D03*
X169164000Y-100330000D03*
X151384000Y-85090000D03*
X166624000Y-100330000D03*
X153924000Y-85090000D03*
X164084000Y-100330000D03*
X156464000Y-85090000D03*
X161544000Y-100330000D03*
X159004000Y-85090000D03*
X159004000Y-100330000D03*
X161544000Y-85090000D03*
X156464000Y-100330000D03*
X164084000Y-85090000D03*
X153924000Y-100330000D03*
X166624000Y-85090000D03*
X151384000Y-100330000D03*
X169164000Y-85090000D03*
X148844000Y-100330000D03*
X171704000Y-85090000D03*
X146304000Y-100330000D03*
X174244000Y-85090000D03*
X143764000Y-100330000D03*
D12*
X176784000Y-85090000D03*
D11*
X137160000Y-76962000D03*
X144780000Y-54102000D03*
X137160000Y-74422000D03*
X144780000Y-56642000D03*
X137160000Y-71882000D03*
X144780000Y-59182000D03*
X137160000Y-69342000D03*
X144780000Y-61722000D03*
X137160000Y-66802000D03*
X144780000Y-64262000D03*
X137160000Y-64262000D03*
X144780000Y-66802000D03*
X137160000Y-61722000D03*
X144780000Y-69342000D03*
X137160000Y-59182000D03*
X144780000Y-71882000D03*
X137160000Y-56642000D03*
X144780000Y-74422000D03*
X137160000Y-54102000D03*
D12*
X144780000Y-76962000D03*
D11*
X169926000Y-76962000D03*
X177546000Y-54102000D03*
X169926000Y-74422000D03*
X177546000Y-56642000D03*
X169926000Y-71882000D03*
X177546000Y-59182000D03*
X169926000Y-69342000D03*
X177546000Y-61722000D03*
X169926000Y-66802000D03*
X177546000Y-64262000D03*
X169926000Y-64262000D03*
X177546000Y-66802000D03*
X169926000Y-61722000D03*
X177546000Y-69342000D03*
X169926000Y-59182000D03*
X177546000Y-71882000D03*
X169926000Y-56642000D03*
X177546000Y-74422000D03*
X169926000Y-54102000D03*
D12*
X177546000Y-76962000D03*
D11*
X152654000Y-76962000D03*
X160274000Y-54102000D03*
X152654000Y-74422000D03*
X160274000Y-56642000D03*
X152654000Y-71882000D03*
X160274000Y-59182000D03*
X152654000Y-69342000D03*
X160274000Y-61722000D03*
X152654000Y-66802000D03*
X160274000Y-64262000D03*
X152654000Y-64262000D03*
X160274000Y-66802000D03*
X152654000Y-61722000D03*
X160274000Y-69342000D03*
X152654000Y-59182000D03*
X160274000Y-71882000D03*
X152654000Y-56642000D03*
X160274000Y-74422000D03*
X152654000Y-54102000D03*
D12*
X160274000Y-76962000D03*
D11*
X126746000Y-51562000D03*
X111506000Y-99822000D03*
X126746000Y-54102000D03*
X111506000Y-97282000D03*
X126746000Y-56642000D03*
X111506000Y-94742000D03*
X126746000Y-59182000D03*
X111506000Y-92202000D03*
X126746000Y-61722000D03*
X111506000Y-89662000D03*
X126746000Y-64262000D03*
X111506000Y-87122000D03*
X126746000Y-66802000D03*
X111506000Y-84582000D03*
X126746000Y-69342000D03*
X111506000Y-82042000D03*
X126746000Y-71882000D03*
X111506000Y-79502000D03*
X126746000Y-74422000D03*
X111506000Y-76962000D03*
X126746000Y-76962000D03*
X111506000Y-74422000D03*
X126746000Y-79502000D03*
X111506000Y-71882000D03*
X126746000Y-82042000D03*
X111506000Y-69342000D03*
X126746000Y-84582000D03*
X111506000Y-66802000D03*
X126746000Y-87122000D03*
X111506000Y-64262000D03*
X126746000Y-89662000D03*
X111506000Y-61722000D03*
X126746000Y-92202000D03*
X111506000Y-59182000D03*
X126746000Y-94742000D03*
X111506000Y-56642000D03*
X126746000Y-97282000D03*
X111506000Y-54102000D03*
X126746000Y-99822000D03*
D12*
X111506000Y-51562000D03*
D11*
X192024000Y-54102000D03*
X184404000Y-69342000D03*
X192024000Y-56642000D03*
X184404000Y-66802000D03*
X192024000Y-59182000D03*
X184404000Y-64262000D03*
X192024000Y-61722000D03*
X184404000Y-61722000D03*
X192024000Y-64262000D03*
X184404000Y-59182000D03*
X192024000Y-66802000D03*
X184404000Y-56642000D03*
X192024000Y-69342000D03*
D12*
X184404000Y-54102000D03*
D13*
X137668000Y-124206000D03*
X137668000Y-121666000D03*
X137668000Y-119126000D03*
X137668000Y-116586000D03*
X137668000Y-114046000D03*
X140208000Y-126746000D03*
X140208000Y-121666000D03*
X140208000Y-119126000D03*
X140208000Y-116586000D03*
X140208000Y-114046000D03*
X140208000Y-111506000D03*
X140208000Y-108966000D03*
X142748000Y-108966000D03*
X145288000Y-108966000D03*
X147828000Y-108966000D03*
X150368000Y-108966000D03*
X152908000Y-108966000D03*
X137668000Y-111506000D03*
X142748000Y-111506000D03*
X145288000Y-111506000D03*
X147828000Y-111506000D03*
X150368000Y-111506000D03*
X152908000Y-111506000D03*
X155448000Y-111506000D03*
X155448000Y-114046000D03*
X155448000Y-116586000D03*
X155448000Y-119126000D03*
X155448000Y-121666000D03*
X155448000Y-124206000D03*
X152908000Y-114046000D03*
X152908000Y-116586000D03*
X152908000Y-119126000D03*
X152908000Y-121666000D03*
X152908000Y-124206000D03*
X142748000Y-126746000D03*
X145288000Y-126746000D03*
X152908000Y-126746000D03*
X150368000Y-126746000D03*
X147828000Y-126746000D03*
X140208000Y-124206000D03*
X142748000Y-124206000D03*
X150368000Y-124206000D03*
X147828000Y-124206000D03*
D14*
X145288000Y-124206000D03*
D11*
X125730000Y-126746000D03*
X110490000Y-119126000D03*
X123190000Y-126746000D03*
X113030000Y-119126000D03*
X120650000Y-126746000D03*
X115570000Y-119126000D03*
X118110000Y-126746000D03*
X118110000Y-119126000D03*
X115570000Y-126746000D03*
X120650000Y-119126000D03*
X113030000Y-126746000D03*
X123190000Y-119126000D03*
X110490000Y-126746000D03*
D12*
X125730000Y-119126000D03*
D11*
X177419000Y-106172000D03*
D15*
X177419000Y-116332000D03*
D11*
X196193000Y-89535000D03*
D15*
X186033000Y-89535000D03*
D11*
X196193000Y-94869000D03*
D15*
X186033000Y-94869000D03*
D11*
X185928000Y-124968000D03*
D15*
X196088000Y-124968000D03*
D16*
X182372000Y-106172000D03*
D17*
X184912000Y-106172000D03*
X183642000Y-106172000D03*
D18*
X191588000Y-106934000D03*
D19*
X196088000Y-106934000D03*
D20*
X173228000Y-110236000D03*
X173228000Y-112776000D03*
X173228000Y-115316000D03*
X173228000Y-117856000D03*
X173228000Y-120396000D03*
D21*
X173228000Y-122936000D03*
D22*
X110484000Y-134592000D03*
X113024000Y-134592000D03*
X115564000Y-134592000D03*
X118104000Y-134592000D03*
X120644000Y-134592000D03*
X123184000Y-134592000D03*
X125724000Y-134592000D03*
X128264000Y-134592000D03*
X130804000Y-134592000D03*
X133344000Y-134592000D03*
X135884000Y-134592000D03*
X138424000Y-134592000D03*
X140964000Y-134592000D03*
X143504000Y-134592000D03*
X146044000Y-134592000D03*
X148584000Y-134592000D03*
X151124000Y-134592000D03*
X153664000Y-134592000D03*
X156204000Y-134592000D03*
X158744000Y-134592000D03*
X161284000Y-134592000D03*
X163824000Y-134592000D03*
X166364000Y-134592000D03*
X168904000Y-134592000D03*
X171444000Y-134592000D03*
X173984000Y-134592000D03*
X176524000Y-134592000D03*
X179064000Y-134592000D03*
X181604000Y-134592000D03*
X184144000Y-134592000D03*
X186684000Y-134592000D03*
X189224000Y-134592000D03*
X110484000Y-139672000D03*
X113024000Y-139672000D03*
X115564000Y-139672000D03*
X118104000Y-139672000D03*
X120644000Y-139672000D03*
X123184000Y-139672000D03*
X125724000Y-139672000D03*
X128264000Y-139672000D03*
X130804000Y-139672000D03*
X133344000Y-139672000D03*
X135884000Y-139672000D03*
X138424000Y-139672000D03*
X140964000Y-139672000D03*
X143504000Y-139672000D03*
X146044000Y-139672000D03*
X148584000Y-139672000D03*
X151124000Y-139672000D03*
X153664000Y-139672000D03*
X156204000Y-139672000D03*
X158744000Y-139672000D03*
X161284000Y-139672000D03*
X163824000Y-139672000D03*
X166364000Y-139672000D03*
X168904000Y-139672000D03*
X171444000Y-139672000D03*
X173984000Y-139672000D03*
X176524000Y-139672000D03*
X179064000Y-139672000D03*
X181604000Y-139672000D03*
X184144000Y-139672000D03*
X186684000Y-139672000D03*
G36*
G01*
X189999000Y-139146999D02*
X189999000Y-140197001D01*
G75*
G02*
X189749001Y-140447000I-249999J0D01*
G01*
X188698999Y-140447000D01*
G75*
G02*
X188449000Y-140197001I0J249999D01*
G01*
X188449000Y-139146999D01*
G75*
G02*
X188698999Y-138897000I249999J0D01*
G01*
X189749001Y-138897000D01*
G75*
G02*
X189999000Y-139146999I0J-249999D01*
G01*
G37*
D23*
X105404000Y-142212000D03*
X194304000Y-142212000D03*
D11*
X196215000Y-84201000D03*
D15*
X186055000Y-84201000D03*
D24*
X193548000Y-132080000D03*
D25*
X196088000Y-132080000D03*
D15*
X180594000Y-98044000D03*
X180594000Y-95544000D03*
X130810000Y-54610000D03*
X130810000Y-52110000D03*
X175006000Y-49530000D03*
X172506000Y-49530000D03*
X196048000Y-117602000D03*
D12*
X193548000Y-117602000D03*
D15*
X182666000Y-113538000D03*
X185166000Y-113538000D03*
X142240000Y-49530000D03*
X139740000Y-49530000D03*
X187198000Y-74803000D03*
X189698000Y-74803000D03*
X157607000Y-49530000D03*
X155107000Y-49530000D03*
X106426000Y-50038000D03*
X103926000Y-50038000D03*
X103926000Y-68834000D03*
X106426000Y-68834000D03*
X129834000Y-106934000D03*
X132334000Y-106934000D03*
X177586000Y-129540000D03*
X180086000Y-129540000D03*
X105918000Y-121920000D03*
X105918000Y-124420000D03*
M02*
