M48
; DRILL file {KiCad (5.1.10)-1} date 08/18/21 14:18:59
; FORMAT={-:-/ absolute / inch / decimal}
; #@! TF.CreationDate,2021-08-18T14:18:59+01:00
; #@! TF.GenerationSoftware,Kicad,Pcbnew,(5.1.10)-1
; #@! TF.FileFunction,Plated,1,4,PTH
FMAT,2
INCH
T1C0.0157
T2C0.0295
T3C0.0315
T4C0.0354
T5C0.0394
T6C0.0591
T7C0.0953
T8C0.0988
%
G90
G05
T1
X4.0916Y-2.0816
X4.23Y-3.73
X4.23Y-4.12
X4.27Y-2.18
X4.29Y-4.44
X4.45Y-4.89
X4.48Y-3.23
X4.48Y-4.5
X4.54Y-3.33
X4.54Y-4.39
X4.58Y-2.13
X4.6Y-3.43
X4.6Y-4.29
X4.6Y-4.82
X4.6Y-5.4
X4.65Y-3.63
X4.65Y-4.03
X4.7Y-3.58
X4.7Y-3.68
X4.7Y-3.93
X4.7Y-4.89
X4.8Y-2.93
X4.8Y-3.28
X4.85Y-2.83
X4.85Y-3.18
X4.9Y-4.78
X4.95Y-4.44
X5.03Y-4.54
X5.08Y-2.73
X5.08Y-3.03
X5.08Y-4.89
X5.11Y-3.63
X5.11Y-4.07
X5.12Y-2.63
X5.12Y-3.13
X5.15Y-4.5
X5.15Y-5.17
X5.16Y-2.53
X5.16Y-3.23
X5.2Y-2.43
X5.2Y-3.33
X5.2Y-3.48
X5.24Y-2.33
X5.24Y-3.43
X5.25Y-5.06
X5.3Y-2.23
X5.3Y-3.53
X5.5Y-5.42
X5.53Y-2.13
X5.53Y-3.6
X5.6Y-5.37
X5.67Y-4.12
X5.67Y-4.69
X5.7Y-5.58
X5.71Y-3.13
X5.75Y-5.22
X5.77Y-4.07
X5.77Y-4.76
X5.8Y-2.68
X5.8Y-5.17
X5.81Y-3.23
X5.85Y-5.12
X5.86Y-2.8
X5.86Y-3.28
X5.86Y-3.48
X5.93Y-2.93
X5.93Y-3.18
X5.96Y-3.45
X6.06Y-3.53
X6.11Y-2.73
X6.15Y-5.37
X6.16Y-3.64
X6.2Y-2.59
X6.2Y-4.11
X6.2Y-4.59
X6.21Y-3.68
X6.24Y-2.38
X6.26Y-4.79
X6.3Y-5.17
X6.31Y-3.73
X6.35Y-5.12
X6.36Y-3.6
X6.4Y-2.48
X6.41Y-3.88
X6.46Y-2.28
X6.5Y-5.09
X6.51Y-2.8
X6.51Y-3.79
X6.54Y-4.49
X6.54Y-4.64
X6.55Y-5.18
X6.56Y-2.18
X6.58Y-4.39
X6.58Y-4.74
X6.6Y-5.03
X6.61Y-2.53
X6.61Y-3.83
X6.65Y-4.99
X6.66Y-3.47
X6.66Y-4.86
X6.71Y-4.79
X6.75Y-5.03
X6.76Y-3.52
X6.85Y-4.94
X6.86Y-2.4
X6.91Y-2.48
X6.91Y-3.13
X7.07Y-2.28
X7.07Y-3.47
X7.11Y-3.52
X7.15Y-3.6
X7.16Y-2.33
X7.16Y-3.18
X7.26Y-1.94
X7.36Y-2.06
X7.36Y-2.24
X7.43Y-2.18
X7.43Y-2.73
X7.53Y-4.39
X7.6Y-3.32
T2
X7.18Y-4.18
X7.23Y-4.18
X7.28Y-4.18
T3
X4.0916Y-1.97
X4.0916Y-2.71
X4.17Y-4.8
X4.17Y-4.8984
X4.19Y-1.97
X4.19Y-2.71
X4.35Y-4.69
X4.35Y-4.99
X4.39Y-2.03
X4.39Y-2.13
X4.39Y-2.23
X4.39Y-2.33
X4.39Y-2.43
X4.39Y-2.53
X4.39Y-2.63
X4.39Y-2.73
X4.39Y-2.83
X4.39Y-2.93
X4.39Y-3.03
X4.39Y-3.13
X4.39Y-3.23
X4.39Y-3.33
X4.39Y-3.43
X4.39Y-3.53
X4.39Y-3.63
X4.39Y-3.73
X4.39Y-3.83
X4.39Y-3.93
X4.45Y-4.69
X4.45Y-4.99
X4.55Y-4.69
X4.55Y-4.99
X4.65Y-4.69
X4.65Y-4.99
X4.75Y-4.69
X4.75Y-4.99
X4.85Y-4.69
X4.85Y-4.99
X4.95Y-4.69
X4.95Y-4.99
X4.99Y-2.03
X4.99Y-2.13
X4.99Y-2.23
X4.99Y-2.33
X4.99Y-2.43
X4.99Y-2.53
X4.99Y-2.63
X4.99Y-2.73
X4.99Y-2.83
X4.99Y-2.93
X4.99Y-3.03
X4.99Y-3.13
X4.99Y-3.23
X4.99Y-3.33
X4.99Y-3.43
X4.99Y-3.53
X4.99Y-3.63
X4.99Y-3.73
X4.99Y-3.83
X4.99Y-3.93
X5.1116Y-4.21
X5.15Y-2.0516
X5.15Y-2.15
X5.21Y-4.21
X5.4Y-2.13
X5.4Y-2.23
X5.4Y-2.33
X5.4Y-2.43
X5.4Y-2.53
X5.4Y-2.63
X5.4Y-2.73
X5.4Y-2.83
X5.4Y-2.93
X5.4Y-3.03
X5.42Y-4.39
X5.42Y-4.49
X5.42Y-4.59
X5.42Y-4.69
X5.42Y-4.79
X5.42Y-4.89
X5.5016Y-1.95
X5.52Y-4.29
X5.52Y-4.39
X5.52Y-4.49
X5.52Y-4.59
X5.52Y-4.69
X5.52Y-4.79
X5.52Y-4.89
X5.52Y-4.99
X5.6Y-1.95
X5.62Y-4.29
X5.62Y-4.39
X5.62Y-4.89
X5.62Y-4.99
X5.66Y-3.35
X5.66Y-3.95
X5.7Y-2.13
X5.7Y-2.23
X5.7Y-2.33
X5.7Y-2.43
X5.7Y-2.53
X5.7Y-2.63
X5.7Y-2.73
X5.7Y-2.83
X5.7Y-2.93
X5.7Y-3.03
X5.72Y-4.29
X5.72Y-4.39
X5.72Y-4.89
X5.72Y-4.99
X5.76Y-3.35
X5.76Y-3.95
X5.82Y-4.29
X5.82Y-4.39
X5.82Y-4.89
X5.82Y-4.99
X5.86Y-3.35
X5.86Y-3.95
X5.92Y-4.29
X5.92Y-4.39
X5.92Y-4.89
X5.92Y-4.99
X5.96Y-3.35
X5.96Y-3.95
X6.01Y-2.13
X6.01Y-2.23
X6.01Y-2.33
X6.01Y-2.43
X6.01Y-2.53
X6.01Y-2.63
X6.01Y-2.73
X6.01Y-2.83
X6.01Y-2.93
X6.01Y-3.03
X6.02Y-4.29
X6.02Y-4.39
X6.02Y-4.49
X6.02Y-4.59
X6.02Y-4.69
X6.02Y-4.79
X6.02Y-4.89
X6.02Y-4.99
X6.06Y-3.35
X6.06Y-3.95
X6.1066Y-1.95
X6.12Y-4.39
X6.12Y-4.49
X6.12Y-4.59
X6.12Y-4.69
X6.12Y-4.79
X6.12Y-4.89
X6.16Y-3.35
X6.16Y-3.95
X6.205Y-1.95
X6.26Y-3.35
X6.26Y-3.95
X6.31Y-2.13
X6.31Y-2.23
X6.31Y-2.33
X6.31Y-2.43
X6.31Y-2.53
X6.31Y-2.63
X6.31Y-2.73
X6.31Y-2.83
X6.31Y-2.93
X6.31Y-3.03
X6.36Y-3.35
X6.36Y-3.95
X6.46Y-3.35
X6.46Y-3.95
X6.56Y-3.35
X6.56Y-3.95
X6.66Y-3.35
X6.66Y-3.95
X6.69Y-2.13
X6.69Y-2.23
X6.69Y-2.33
X6.69Y-2.43
X6.69Y-2.53
X6.69Y-2.63
X6.69Y-2.73
X6.69Y-2.83
X6.69Y-2.93
X6.69Y-3.03
X6.76Y-3.35
X6.76Y-3.95
X6.7916Y-1.95
X6.86Y-3.35
X6.86Y-3.95
X6.89Y-1.95
X6.96Y-3.35
X6.96Y-3.95
X6.985Y-4.18
X6.985Y-4.58
X6.99Y-2.13
X6.99Y-2.23
X6.99Y-2.33
X6.99Y-2.43
X6.99Y-2.53
X6.99Y-2.63
X6.99Y-2.73
X6.99Y-2.83
X6.99Y-2.93
X6.99Y-3.03
X6.9916Y-5.1
X7.09Y-5.1
X7.11Y-3.7616
X7.11Y-3.86
X7.1916Y-4.47
X7.26Y-2.13
X7.26Y-2.23
X7.26Y-2.33
X7.26Y-2.43
X7.26Y-2.53
X7.26Y-2.63
X7.26Y-2.73
X7.29Y-4.47
X7.32Y-4.92
X7.3241Y-3.525
X7.3241Y-3.735
X7.325Y-3.315
X7.37Y-2.945
X7.4684Y-2.945
X7.56Y-2.13
X7.56Y-2.23
X7.56Y-2.33
X7.56Y-2.43
X7.56Y-2.53
X7.56Y-2.63
X7.56Y-2.73
X7.62Y-4.63
X7.7184Y-4.63
X7.72Y-4.92
X7.7241Y-3.525
X7.7241Y-3.735
X7.725Y-3.315
T4
X7.62Y-5.2
X7.72Y-5.2
T5
X4.3498Y-5.2989
X4.3498Y-5.4989
X4.4498Y-5.2989
X4.4498Y-5.4989
X4.5498Y-5.2989
X4.5498Y-5.4989
X4.6498Y-5.2989
X4.6498Y-5.4989
X4.7498Y-5.2989
X4.7498Y-5.4989
X4.8498Y-5.2989
X4.8498Y-5.4989
X4.9498Y-5.2989
X4.9498Y-5.4989
X5.0498Y-5.2989
X5.0498Y-5.4989
X5.1498Y-5.2989
X5.1498Y-5.4989
X5.2498Y-5.2989
X5.2498Y-5.4989
X5.3498Y-5.2989
X5.3498Y-5.4989
X5.4498Y-5.2989
X5.4498Y-5.4989
X5.5498Y-5.2989
X5.5498Y-5.4989
X5.6498Y-5.2989
X5.6498Y-5.4989
X5.7498Y-5.2989
X5.7498Y-5.4989
X5.8498Y-5.2989
X5.8498Y-5.4989
X5.9498Y-5.2989
X5.9498Y-5.4989
X6.0498Y-5.2989
X6.0498Y-5.4989
X6.1498Y-5.2989
X6.1498Y-5.4989
X6.2498Y-5.2989
X6.2498Y-5.4989
X6.3498Y-5.2989
X6.3498Y-5.4989
X6.4498Y-5.2989
X6.4498Y-5.4989
X6.5498Y-5.2989
X6.5498Y-5.4989
X6.6498Y-5.2989
X6.6498Y-5.4989
X6.7498Y-5.2989
X6.7498Y-5.4989
X6.82Y-4.34
X6.82Y-4.44
X6.82Y-4.54
X6.82Y-4.64
X6.82Y-4.74
X6.82Y-4.84
X6.8498Y-5.2989
X6.8498Y-5.4989
X6.9498Y-5.2989
X6.9498Y-5.4989
X7.0498Y-5.2989
X7.0498Y-5.4989
X7.1498Y-5.2989
X7.1498Y-5.4989
X7.2498Y-5.2989
X7.2498Y-5.4989
X7.3498Y-5.2989
X7.3498Y-5.4989
X7.4498Y-5.2989
X7.4498Y-5.4989
T6
X4.14Y-2.24
X4.14Y-2.4329
T7
X7.5428Y-4.21
T8
X7.72Y-4.21
T0
M30
