G04 #@! TF.GenerationSoftware,KiCad,Pcbnew,(5.1.10)-1*
G04 #@! TF.CreationDate,2021-08-18T14:18:43+01:00*
G04 #@! TF.ProjectId,GfxTMS9918,47667854-4d53-4393-9931-382e6b696361,rev?*
G04 #@! TF.SameCoordinates,Original*
G04 #@! TF.FileFunction,Copper,L4,Bot*
G04 #@! TF.FilePolarity,Positive*
%FSLAX46Y46*%
G04 Gerber Fmt 4.6, Leading zero omitted, Abs format (unit mm)*
G04 Created by KiCad (PCBNEW (5.1.10)-1) date 2021-08-18 14:18:43*
%MOMM*%
%LPD*%
G01*
G04 APERTURE LIST*
G04 #@! TA.AperFunction,ComponentPad*
%ADD10C,2.300000*%
G04 #@! TD*
G04 #@! TA.AperFunction,ComponentPad*
%ADD11O,1.600000X1.600000*%
G04 #@! TD*
G04 #@! TA.AperFunction,ComponentPad*
%ADD12R,1.600000X1.600000*%
G04 #@! TD*
G04 #@! TA.AperFunction,ComponentPad*
%ADD13C,1.422400*%
G04 #@! TD*
G04 #@! TA.AperFunction,ComponentPad*
%ADD14R,1.422400X1.422400*%
G04 #@! TD*
G04 #@! TA.AperFunction,ComponentPad*
%ADD15C,1.600000*%
G04 #@! TD*
G04 #@! TA.AperFunction,ComponentPad*
%ADD16R,1.050000X1.500000*%
G04 #@! TD*
G04 #@! TA.AperFunction,ComponentPad*
%ADD17O,1.050000X1.500000*%
G04 #@! TD*
G04 #@! TA.AperFunction,ComponentPad*
%ADD18C,3.600000*%
G04 #@! TD*
G04 #@! TA.AperFunction,ComponentPad*
%ADD19R,3.765000X3.765000*%
G04 #@! TD*
G04 #@! TA.AperFunction,ComponentPad*
%ADD20O,1.700000X1.700000*%
G04 #@! TD*
G04 #@! TA.AperFunction,ComponentPad*
%ADD21R,1.700000X1.700000*%
G04 #@! TD*
G04 #@! TA.AperFunction,ComponentPad*
%ADD22C,1.550000*%
G04 #@! TD*
G04 #@! TA.AperFunction,ComponentPad*
%ADD23C,1.800000*%
G04 #@! TD*
G04 #@! TA.AperFunction,ComponentPad*
%ADD24R,1.800000X1.800000*%
G04 #@! TD*
G04 #@! TA.AperFunction,ViaPad*
%ADD25C,0.800000*%
G04 #@! TD*
G04 #@! TA.AperFunction,Conductor*
%ADD26C,0.250000*%
G04 #@! TD*
G04 #@! TA.AperFunction,Conductor*
%ADD27C,0.400000*%
G04 #@! TD*
G04 #@! TA.AperFunction,Conductor*
%ADD28C,0.500000*%
G04 #@! TD*
G04 APERTURE END LIST*
D10*
X105156000Y-56896000D03*
X105156000Y-61796000D03*
D11*
X176784000Y-100330000D03*
X143764000Y-85090000D03*
X174244000Y-100330000D03*
X146304000Y-85090000D03*
X171704000Y-100330000D03*
X148844000Y-85090000D03*
X169164000Y-100330000D03*
X151384000Y-85090000D03*
X166624000Y-100330000D03*
X153924000Y-85090000D03*
X164084000Y-100330000D03*
X156464000Y-85090000D03*
X161544000Y-100330000D03*
X159004000Y-85090000D03*
X159004000Y-100330000D03*
X161544000Y-85090000D03*
X156464000Y-100330000D03*
X164084000Y-85090000D03*
X153924000Y-100330000D03*
X166624000Y-85090000D03*
X151384000Y-100330000D03*
X169164000Y-85090000D03*
X148844000Y-100330000D03*
X171704000Y-85090000D03*
X146304000Y-100330000D03*
X174244000Y-85090000D03*
X143764000Y-100330000D03*
D12*
X176784000Y-85090000D03*
D11*
X137160000Y-76962000D03*
X144780000Y-54102000D03*
X137160000Y-74422000D03*
X144780000Y-56642000D03*
X137160000Y-71882000D03*
X144780000Y-59182000D03*
X137160000Y-69342000D03*
X144780000Y-61722000D03*
X137160000Y-66802000D03*
X144780000Y-64262000D03*
X137160000Y-64262000D03*
X144780000Y-66802000D03*
X137160000Y-61722000D03*
X144780000Y-69342000D03*
X137160000Y-59182000D03*
X144780000Y-71882000D03*
X137160000Y-56642000D03*
X144780000Y-74422000D03*
X137160000Y-54102000D03*
D12*
X144780000Y-76962000D03*
D11*
X169926000Y-76962000D03*
X177546000Y-54102000D03*
X169926000Y-74422000D03*
X177546000Y-56642000D03*
X169926000Y-71882000D03*
X177546000Y-59182000D03*
X169926000Y-69342000D03*
X177546000Y-61722000D03*
X169926000Y-66802000D03*
X177546000Y-64262000D03*
X169926000Y-64262000D03*
X177546000Y-66802000D03*
X169926000Y-61722000D03*
X177546000Y-69342000D03*
X169926000Y-59182000D03*
X177546000Y-71882000D03*
X169926000Y-56642000D03*
X177546000Y-74422000D03*
X169926000Y-54102000D03*
D12*
X177546000Y-76962000D03*
D11*
X152654000Y-76962000D03*
X160274000Y-54102000D03*
X152654000Y-74422000D03*
X160274000Y-56642000D03*
X152654000Y-71882000D03*
X160274000Y-59182000D03*
X152654000Y-69342000D03*
X160274000Y-61722000D03*
X152654000Y-66802000D03*
X160274000Y-64262000D03*
X152654000Y-64262000D03*
X160274000Y-66802000D03*
X152654000Y-61722000D03*
X160274000Y-69342000D03*
X152654000Y-59182000D03*
X160274000Y-71882000D03*
X152654000Y-56642000D03*
X160274000Y-74422000D03*
X152654000Y-54102000D03*
D12*
X160274000Y-76962000D03*
D11*
X126746000Y-51562000D03*
X111506000Y-99822000D03*
X126746000Y-54102000D03*
X111506000Y-97282000D03*
X126746000Y-56642000D03*
X111506000Y-94742000D03*
X126746000Y-59182000D03*
X111506000Y-92202000D03*
X126746000Y-61722000D03*
X111506000Y-89662000D03*
X126746000Y-64262000D03*
X111506000Y-87122000D03*
X126746000Y-66802000D03*
X111506000Y-84582000D03*
X126746000Y-69342000D03*
X111506000Y-82042000D03*
X126746000Y-71882000D03*
X111506000Y-79502000D03*
X126746000Y-74422000D03*
X111506000Y-76962000D03*
X126746000Y-76962000D03*
X111506000Y-74422000D03*
X126746000Y-79502000D03*
X111506000Y-71882000D03*
X126746000Y-82042000D03*
X111506000Y-69342000D03*
X126746000Y-84582000D03*
X111506000Y-66802000D03*
X126746000Y-87122000D03*
X111506000Y-64262000D03*
X126746000Y-89662000D03*
X111506000Y-61722000D03*
X126746000Y-92202000D03*
X111506000Y-59182000D03*
X126746000Y-94742000D03*
X111506000Y-56642000D03*
X126746000Y-97282000D03*
X111506000Y-54102000D03*
X126746000Y-99822000D03*
D12*
X111506000Y-51562000D03*
D11*
X192024000Y-54102000D03*
X184404000Y-69342000D03*
X192024000Y-56642000D03*
X184404000Y-66802000D03*
X192024000Y-59182000D03*
X184404000Y-64262000D03*
X192024000Y-61722000D03*
X184404000Y-61722000D03*
X192024000Y-64262000D03*
X184404000Y-59182000D03*
X192024000Y-66802000D03*
X184404000Y-56642000D03*
X192024000Y-69342000D03*
D12*
X184404000Y-54102000D03*
D13*
X137668000Y-124206000D03*
X137668000Y-121666000D03*
X137668000Y-119126000D03*
X137668000Y-116586000D03*
X137668000Y-114046000D03*
X140208000Y-126746000D03*
X140208000Y-121666000D03*
X140208000Y-119126000D03*
X140208000Y-116586000D03*
X140208000Y-114046000D03*
X140208000Y-111506000D03*
X140208000Y-108966000D03*
X142748000Y-108966000D03*
X145288000Y-108966000D03*
X147828000Y-108966000D03*
X150368000Y-108966000D03*
X152908000Y-108966000D03*
X137668000Y-111506000D03*
X142748000Y-111506000D03*
X145288000Y-111506000D03*
X147828000Y-111506000D03*
X150368000Y-111506000D03*
X152908000Y-111506000D03*
X155448000Y-111506000D03*
X155448000Y-114046000D03*
X155448000Y-116586000D03*
X155448000Y-119126000D03*
X155448000Y-121666000D03*
X155448000Y-124206000D03*
X152908000Y-114046000D03*
X152908000Y-116586000D03*
X152908000Y-119126000D03*
X152908000Y-121666000D03*
X152908000Y-124206000D03*
X142748000Y-126746000D03*
X145288000Y-126746000D03*
X152908000Y-126746000D03*
X150368000Y-126746000D03*
X147828000Y-126746000D03*
X140208000Y-124206000D03*
X142748000Y-124206000D03*
X150368000Y-124206000D03*
X147828000Y-124206000D03*
D14*
X145288000Y-124206000D03*
D11*
X125730000Y-126746000D03*
X110490000Y-119126000D03*
X123190000Y-126746000D03*
X113030000Y-119126000D03*
X120650000Y-126746000D03*
X115570000Y-119126000D03*
X118110000Y-126746000D03*
X118110000Y-119126000D03*
X115570000Y-126746000D03*
X120650000Y-119126000D03*
X113030000Y-126746000D03*
X123190000Y-119126000D03*
X110490000Y-126746000D03*
D12*
X125730000Y-119126000D03*
D11*
X177419000Y-106172000D03*
D15*
X177419000Y-116332000D03*
D11*
X196193000Y-89535000D03*
D15*
X186033000Y-89535000D03*
D11*
X196193000Y-94869000D03*
D15*
X186033000Y-94869000D03*
D11*
X185928000Y-124968000D03*
D15*
X196088000Y-124968000D03*
D16*
X182372000Y-106172000D03*
D17*
X184912000Y-106172000D03*
X183642000Y-106172000D03*
D18*
X191588000Y-106934000D03*
D19*
X196088000Y-106934000D03*
D20*
X173228000Y-110236000D03*
X173228000Y-112776000D03*
X173228000Y-115316000D03*
X173228000Y-117856000D03*
X173228000Y-120396000D03*
D21*
X173228000Y-122936000D03*
D22*
X110484000Y-134592000D03*
X113024000Y-134592000D03*
X115564000Y-134592000D03*
X118104000Y-134592000D03*
X120644000Y-134592000D03*
X123184000Y-134592000D03*
X125724000Y-134592000D03*
X128264000Y-134592000D03*
X130804000Y-134592000D03*
X133344000Y-134592000D03*
X135884000Y-134592000D03*
X138424000Y-134592000D03*
X140964000Y-134592000D03*
X143504000Y-134592000D03*
X146044000Y-134592000D03*
X148584000Y-134592000D03*
X151124000Y-134592000D03*
X153664000Y-134592000D03*
X156204000Y-134592000D03*
X158744000Y-134592000D03*
X161284000Y-134592000D03*
X163824000Y-134592000D03*
X166364000Y-134592000D03*
X168904000Y-134592000D03*
X171444000Y-134592000D03*
X173984000Y-134592000D03*
X176524000Y-134592000D03*
X179064000Y-134592000D03*
X181604000Y-134592000D03*
X184144000Y-134592000D03*
X186684000Y-134592000D03*
X189224000Y-134592000D03*
X110484000Y-139672000D03*
X113024000Y-139672000D03*
X115564000Y-139672000D03*
X118104000Y-139672000D03*
X120644000Y-139672000D03*
X123184000Y-139672000D03*
X125724000Y-139672000D03*
X128264000Y-139672000D03*
X130804000Y-139672000D03*
X133344000Y-139672000D03*
X135884000Y-139672000D03*
X138424000Y-139672000D03*
X140964000Y-139672000D03*
X143504000Y-139672000D03*
X146044000Y-139672000D03*
X148584000Y-139672000D03*
X151124000Y-139672000D03*
X153664000Y-139672000D03*
X156204000Y-139672000D03*
X158744000Y-139672000D03*
X161284000Y-139672000D03*
X163824000Y-139672000D03*
X166364000Y-139672000D03*
X168904000Y-139672000D03*
X171444000Y-139672000D03*
X173984000Y-139672000D03*
X176524000Y-139672000D03*
X179064000Y-139672000D03*
X181604000Y-139672000D03*
X184144000Y-139672000D03*
X186684000Y-139672000D03*
G04 #@! TA.AperFunction,ComponentPad*
G36*
G01*
X189999000Y-139146999D02*
X189999000Y-140197001D01*
G75*
G02*
X189749001Y-140447000I-249999J0D01*
G01*
X188698999Y-140447000D01*
G75*
G02*
X188449000Y-140197001I0J249999D01*
G01*
X188449000Y-139146999D01*
G75*
G02*
X188698999Y-138897000I249999J0D01*
G01*
X189749001Y-138897000D01*
G75*
G02*
X189999000Y-139146999I0J-249999D01*
G01*
G37*
G04 #@! TD.AperFunction*
D11*
X196215000Y-84201000D03*
D15*
X186055000Y-84201000D03*
D23*
X193548000Y-132080000D03*
D24*
X196088000Y-132080000D03*
D15*
X180594000Y-98044000D03*
X180594000Y-95544000D03*
X130810000Y-54610000D03*
X130810000Y-52110000D03*
X175006000Y-49530000D03*
X172506000Y-49530000D03*
X196048000Y-117602000D03*
D12*
X193548000Y-117602000D03*
D15*
X182666000Y-113538000D03*
X185166000Y-113538000D03*
X142240000Y-49530000D03*
X139740000Y-49530000D03*
X187198000Y-74803000D03*
X189698000Y-74803000D03*
X157607000Y-49530000D03*
X155107000Y-49530000D03*
X106426000Y-50038000D03*
X103926000Y-50038000D03*
X103926000Y-68834000D03*
X106426000Y-68834000D03*
X129834000Y-106934000D03*
X132334000Y-106934000D03*
X177586000Y-129540000D03*
X180086000Y-129540000D03*
X105918000Y-121920000D03*
X105918000Y-124420000D03*
D25*
X108458000Y-55372000D03*
X103926000Y-52872000D03*
X193040000Y-84328010D03*
X191262000Y-111506000D03*
X119380000Y-124206000D03*
X113030000Y-124206000D03*
X124460000Y-121412000D03*
X127762000Y-115316000D03*
X133350000Y-128524000D03*
X142240000Y-136398000D03*
X156210000Y-136398000D03*
X146050000Y-132588000D03*
X148590000Y-130048000D03*
X161290000Y-130048000D03*
X166370000Y-131572000D03*
X146558000Y-103378000D03*
X129794000Y-103378000D03*
X129794000Y-92202000D03*
X146558000Y-120904000D03*
X168910000Y-126746000D03*
X165354000Y-96266000D03*
X171450000Y-127762000D03*
X159004000Y-121666000D03*
X157734000Y-93472000D03*
X119380000Y-93472000D03*
X119380000Y-99822000D03*
X173990000Y-125476000D03*
X144018000Y-104648000D03*
X107442000Y-104648000D03*
X107442000Y-94742000D03*
X144018000Y-119126000D03*
X116840000Y-122428000D03*
X116840000Y-137160000D03*
X129032000Y-124206000D03*
X139700000Y-137668000D03*
X144780000Y-141732000D03*
X147320000Y-131318000D03*
X160020000Y-131318000D03*
X130810000Y-131318000D03*
X130810000Y-114300000D03*
X113792000Y-82042000D03*
X113792000Y-114300000D03*
X165100000Y-129286000D03*
X160274000Y-94742000D03*
X167640000Y-127762000D03*
X162814000Y-98552000D03*
X169164000Y-123444000D03*
X167894000Y-97282000D03*
X170434000Y-121666000D03*
X157480000Y-116586000D03*
X118110000Y-102362000D03*
X118110000Y-92202000D03*
X157480000Y-104394000D03*
X166116000Y-114046000D03*
X166116000Y-117856000D03*
X167132000Y-111506000D03*
X167132000Y-120396000D03*
X108966000Y-112776000D03*
X125730000Y-112776000D03*
X116840000Y-108966000D03*
X116840000Y-87122000D03*
X115316000Y-111506000D03*
X115316000Y-84582000D03*
X175514000Y-79502000D03*
X175514000Y-62992000D03*
X161544000Y-91440000D03*
X140462000Y-91440000D03*
X140462000Y-54102000D03*
X181610000Y-91440000D03*
X156464000Y-92456000D03*
X119380000Y-90932000D03*
X116332000Y-54102000D03*
X181864000Y-80772000D03*
X181864000Y-59182000D03*
X186944000Y-52324000D03*
X186944000Y-56896000D03*
X188722000Y-55372000D03*
X188722012Y-69342000D03*
X184404000Y-49276000D03*
X150622000Y-74422000D03*
X123190000Y-71882000D03*
X123190000Y-80772000D03*
X150622000Y-80772010D03*
X148844000Y-71120000D03*
X121920000Y-74422000D03*
X121920000Y-83312000D03*
X148844000Y-83312000D03*
X147320000Y-68072000D03*
X129032000Y-76962000D03*
X129032000Y-69342000D03*
X130048000Y-79502000D03*
X130048000Y-66802000D03*
X145034000Y-79502000D03*
X131064000Y-82042000D03*
X131064000Y-64262000D03*
X147574000Y-82042000D03*
X132080000Y-84582000D03*
X132080000Y-61722000D03*
X132080000Y-88392000D03*
X148844000Y-88392000D03*
X133096000Y-87122000D03*
X133096000Y-59182000D03*
X151384000Y-87630000D03*
X153924000Y-89662000D03*
X134620000Y-56642000D03*
X134620000Y-89662000D03*
X155194000Y-69342000D03*
X157480000Y-65786000D03*
X162560000Y-62992000D03*
X158496000Y-60452000D03*
X164084000Y-57912000D03*
X166624000Y-55372000D03*
X165354000Y-71120000D03*
X167894000Y-64262000D03*
X174244000Y-60960000D03*
X179578000Y-57912000D03*
X179578000Y-88138000D03*
X169164000Y-88138000D03*
X180594000Y-89408000D03*
X171704000Y-89408000D03*
D26*
X108458000Y-55372000D02*
X108458000Y-60706000D01*
X107368000Y-61796000D02*
X105156000Y-61796000D01*
X108458000Y-60706000D02*
X107368000Y-61796000D01*
X106426000Y-68834000D02*
X106426000Y-66802000D01*
X105156000Y-65532000D02*
X105156000Y-61796000D01*
X106426000Y-66802000D02*
X105156000Y-65532000D01*
X105156000Y-56896000D02*
X105156000Y-54610000D01*
X105156000Y-54610000D02*
X103926000Y-53380000D01*
X103926000Y-52872000D02*
X103926000Y-50038000D01*
X103926000Y-53380000D02*
X103926000Y-52872000D01*
X184912000Y-106172000D02*
X184912000Y-101600000D01*
X184912000Y-101600000D02*
X187452000Y-99060000D01*
X187452000Y-99060000D02*
X192278000Y-99060000D01*
X193040000Y-98298000D02*
X193040000Y-97790000D01*
X192278000Y-99060000D02*
X193040000Y-98298000D01*
X193040000Y-97790000D02*
X193040000Y-84328010D01*
X193040000Y-98044000D02*
X193040000Y-97790000D01*
X184912000Y-106172000D02*
X184912000Y-108966000D01*
X182666000Y-111212000D02*
X182666000Y-113538000D01*
X184912000Y-108966000D02*
X182666000Y-111212000D01*
X196048000Y-106974000D02*
X196088000Y-106934000D01*
D27*
X196048000Y-117602000D02*
X196048000Y-106974000D01*
D26*
X191262000Y-111506000D02*
X191262000Y-127254000D01*
X191262000Y-127254000D02*
X193294000Y-129286000D01*
X193294000Y-129286000D02*
X195580000Y-129286000D01*
X196088000Y-129794000D02*
X196088000Y-132080000D01*
X195580000Y-129286000D02*
X196088000Y-129794000D01*
X120644000Y-134592000D02*
X120644000Y-132074000D01*
X119380000Y-130810000D02*
X119380000Y-124206000D01*
X120644000Y-132074000D02*
X119380000Y-130810000D01*
X113030000Y-124206000D02*
X113030000Y-119126000D01*
X123184000Y-134592000D02*
X123184000Y-131324000D01*
X124460000Y-130048000D02*
X124460000Y-121412000D01*
X123184000Y-131324000D02*
X124460000Y-130048000D01*
X125724000Y-131832000D02*
X125724000Y-134592000D01*
X127762000Y-129794000D02*
X125724000Y-131832000D01*
X127762000Y-115316000D02*
X127762000Y-117348000D01*
X127762000Y-117348000D02*
X127762000Y-129794000D01*
X124968000Y-66802000D02*
X126746000Y-66802000D01*
X124460000Y-67310000D02*
X124968000Y-66802000D01*
X124460000Y-101854000D02*
X124460000Y-67310000D01*
X127762000Y-105156000D02*
X124460000Y-101854000D01*
X127762000Y-117348000D02*
X127762000Y-105156000D01*
X133350000Y-134586000D02*
X133344000Y-134592000D01*
X133350000Y-128524000D02*
X133350000Y-134586000D01*
X142748000Y-126746000D02*
X142748000Y-130810000D01*
X142240000Y-131318000D02*
X142240000Y-136398000D01*
X142748000Y-130810000D02*
X142240000Y-131318000D01*
X156210000Y-134598000D02*
X156204000Y-134592000D01*
X156210000Y-136398000D02*
X156210000Y-134598000D01*
X145288000Y-126746000D02*
X145288000Y-129794000D01*
X146050000Y-130556000D02*
X146050000Y-132588000D01*
X145288000Y-129794000D02*
X146050000Y-130556000D01*
X147828000Y-126746000D02*
X147828000Y-128016000D01*
X148590000Y-128778000D02*
X148590000Y-130048000D01*
X147828000Y-128016000D02*
X148590000Y-128778000D01*
X161290000Y-134586000D02*
X161284000Y-134592000D01*
X161290000Y-130048000D02*
X161290000Y-134586000D01*
X166370000Y-134586000D02*
X166364000Y-134592000D01*
X129794000Y-103378000D02*
X129794000Y-92202000D01*
X166370000Y-131572000D02*
X166370000Y-132334000D01*
X166370000Y-132334000D02*
X166370000Y-134586000D01*
X146558000Y-120904000D02*
X146558000Y-119380000D01*
X146558000Y-103378000D02*
X146558000Y-119380000D01*
X168910000Y-134586000D02*
X168904000Y-134592000D01*
X168910000Y-128778000D02*
X168910000Y-127000000D01*
X168910000Y-126746000D02*
X168910000Y-128778000D01*
X168910000Y-128778000D02*
X168910000Y-134586000D01*
X168910000Y-127000000D02*
X164338000Y-122428000D01*
X164338000Y-122428000D02*
X164338000Y-104648000D01*
X165354000Y-103632000D02*
X165354000Y-96266000D01*
X164338000Y-104648000D02*
X165354000Y-103632000D01*
X171450000Y-134586000D02*
X171444000Y-134592000D01*
X171450000Y-127762000D02*
X171450000Y-134586000D01*
X119380000Y-93472000D02*
X119380000Y-99822000D01*
X157734000Y-102616000D02*
X157734000Y-93472000D01*
X159004000Y-103886000D02*
X157734000Y-102616000D01*
X159004000Y-121666000D02*
X159004000Y-103886000D01*
X173990000Y-134586000D02*
X173984000Y-134592000D01*
X173990000Y-125476000D02*
X173990000Y-134586000D01*
X107442000Y-104648000D02*
X107442000Y-94742000D01*
X144018000Y-104648000D02*
X144018000Y-119126000D01*
X120644000Y-137420000D02*
X120644000Y-139672000D01*
X121920000Y-136144000D02*
X120644000Y-137420000D01*
X121920000Y-123444000D02*
X121920000Y-136144000D01*
X120650000Y-122174000D02*
X121920000Y-123444000D01*
X120650000Y-119126000D02*
X120650000Y-122174000D01*
X116840000Y-122428000D02*
X116840000Y-137160000D01*
X125724000Y-137166000D02*
X125724000Y-139672000D01*
X127000000Y-135890000D02*
X125724000Y-137166000D01*
X129032000Y-130556000D02*
X127000000Y-132588000D01*
X127000000Y-132588000D02*
X127000000Y-135890000D01*
X129032000Y-124206000D02*
X129032000Y-130556000D01*
X140208000Y-126746000D02*
X140208000Y-130810000D01*
X139700000Y-131318000D02*
X139700000Y-137668000D01*
X140208000Y-130810000D02*
X139700000Y-131318000D01*
X142748000Y-124206000D02*
X144018000Y-125476000D01*
X144018000Y-125476000D02*
X144018000Y-131826000D01*
X144780000Y-132588000D02*
X144780000Y-141732000D01*
X144018000Y-131826000D02*
X144780000Y-132588000D01*
X147828000Y-124206000D02*
X149098000Y-125476000D01*
X149098000Y-125476000D02*
X149098000Y-128016000D01*
X149098000Y-128016000D02*
X149860000Y-128778000D01*
X149860000Y-128778000D02*
X149860000Y-136144000D01*
X149860000Y-136144000D02*
X151130000Y-137414000D01*
X151130000Y-137414000D02*
X157988000Y-137414000D01*
X158744000Y-138170000D02*
X158744000Y-139672000D01*
X157988000Y-137414000D02*
X158744000Y-138170000D01*
X145288000Y-124206000D02*
X145542000Y-124206000D01*
X145542000Y-124206000D02*
X146558000Y-125222000D01*
X146558000Y-125222000D02*
X146558000Y-129286000D01*
X147320000Y-130048000D02*
X147320000Y-131318000D01*
X146558000Y-129286000D02*
X147320000Y-130048000D01*
X161284000Y-137662000D02*
X160020000Y-136398000D01*
X160020000Y-136398000D02*
X160020000Y-131318000D01*
X161284000Y-139672000D02*
X161284000Y-137662000D01*
X130810000Y-131318000D02*
X130810000Y-114300000D01*
X113792000Y-82042000D02*
X113792000Y-114300000D01*
X166364000Y-137408000D02*
X166364000Y-139672000D01*
X165100000Y-136144000D02*
X166364000Y-137408000D01*
X165100000Y-130302000D02*
X165100000Y-128778000D01*
X165100000Y-129286000D02*
X165100000Y-130302000D01*
X165100000Y-130302000D02*
X165100000Y-136144000D01*
X165100000Y-128778000D02*
X160274000Y-123952000D01*
X160274000Y-123952000D02*
X160274000Y-94742000D01*
X168904000Y-137662000D02*
X167640000Y-136398000D01*
X168904000Y-139672000D02*
X168904000Y-137662000D01*
X167640000Y-136398000D02*
X167640000Y-129032000D01*
X167640000Y-129032000D02*
X167640000Y-127762000D01*
X162814000Y-122936000D02*
X162814000Y-98552000D01*
X167640000Y-127762000D02*
X162814000Y-122936000D01*
X171444000Y-137322001D02*
X171444000Y-139672000D01*
X170180000Y-136058001D02*
X171444000Y-137322001D01*
X170180000Y-129032000D02*
X170180000Y-126238000D01*
X170180000Y-129032000D02*
X170180000Y-136058001D01*
X170180000Y-126238000D02*
X169164000Y-125222000D01*
X169164000Y-124206000D02*
X169164000Y-104140000D01*
X169164000Y-125222000D02*
X169164000Y-124206000D01*
X169164000Y-124206000D02*
X169164000Y-123444000D01*
X167894000Y-102870000D02*
X167894000Y-97282000D01*
X169164000Y-104140000D02*
X167894000Y-102870000D01*
X172720000Y-136144000D02*
X172720000Y-127254000D01*
X173984000Y-137408000D02*
X172720000Y-136144000D01*
X173984000Y-139672000D02*
X173984000Y-137408000D01*
X172720000Y-127254000D02*
X171450000Y-125984000D01*
X170434000Y-124968000D02*
X170434000Y-121666000D01*
X171450000Y-125984000D02*
X170434000Y-124968000D01*
X118110000Y-102362000D02*
X118110000Y-92202000D01*
X157480000Y-116586000D02*
X157480000Y-104394000D01*
X166116000Y-114046000D02*
X166116000Y-117856000D01*
X167132000Y-111506000D02*
X167132000Y-120396000D01*
X182372000Y-106172000D02*
X182372000Y-100076000D01*
X182372000Y-100076000D02*
X183896000Y-98552000D01*
X183896000Y-98552000D02*
X183896000Y-90170000D01*
X184531000Y-89535000D02*
X186033000Y-89535000D01*
X183896000Y-90170000D02*
X184531000Y-89535000D01*
D28*
X183642000Y-106172000D02*
X183642000Y-100584000D01*
X186033000Y-98193000D02*
X186033000Y-94869000D01*
X183642000Y-100584000D02*
X186033000Y-98193000D01*
X188087000Y-94869000D02*
X186033000Y-94869000D01*
X189230000Y-93726000D02*
X188087000Y-94869000D01*
X195580000Y-77978000D02*
X189230000Y-84328000D01*
X195580000Y-50546000D02*
X195580000Y-77978000D01*
X189230000Y-84328000D02*
X189230000Y-93726000D01*
X192278000Y-47244000D02*
X195580000Y-50546000D01*
X121920000Y-47244000D02*
X192278000Y-47244000D01*
X120904000Y-48260000D02*
X121920000Y-47244000D01*
X120904000Y-60960000D02*
X120904000Y-48260000D01*
X121666000Y-61722000D02*
X120904000Y-60960000D01*
X126746000Y-61722000D02*
X121666000Y-61722000D01*
D26*
X111506000Y-89662000D02*
X109982000Y-89662000D01*
X109982000Y-89662000D02*
X108966000Y-90678000D01*
X108966000Y-90678000D02*
X108966000Y-112776000D01*
X125730000Y-112776000D02*
X125730000Y-119126000D01*
X116840000Y-108966000D02*
X116840000Y-87122000D01*
X115316000Y-111506000D02*
X115316000Y-84582000D01*
X184404000Y-61976000D02*
X184404000Y-64516000D01*
X174244000Y-93472000D02*
X174244000Y-100330000D01*
X175514000Y-92202000D02*
X174244000Y-93472000D01*
X175514000Y-81026000D02*
X175514000Y-62992000D01*
X175514000Y-79502000D02*
X175514000Y-81026000D01*
X175514000Y-81026000D02*
X175514000Y-92202000D01*
X161544000Y-100330000D02*
X161544000Y-91440000D01*
X140462000Y-91440000D02*
X140462000Y-54102000D01*
X181610000Y-90678000D02*
X181610000Y-91440000D01*
X182626000Y-87122000D02*
X181610000Y-88138000D01*
X187198000Y-87122000D02*
X182626000Y-87122000D01*
X188214000Y-86106000D02*
X187198000Y-87122000D01*
X188214000Y-83566000D02*
X188214000Y-86106000D01*
X194310000Y-77470000D02*
X188214000Y-83566000D01*
X194310000Y-66802000D02*
X194310000Y-77470000D01*
X181610000Y-88138000D02*
X181610000Y-90678000D01*
X192024000Y-64516000D02*
X194310000Y-66802000D01*
X156464000Y-100330000D02*
X156464000Y-92456000D01*
X119380000Y-90932000D02*
X119380000Y-62738000D01*
X116332000Y-59690000D02*
X116332000Y-54102000D01*
X119380000Y-62738000D02*
X116332000Y-59690000D01*
X181864000Y-80772000D02*
X181864000Y-59182000D01*
X186944000Y-52324000D02*
X186944000Y-56896000D01*
X188722000Y-69341988D02*
X188722012Y-69342000D01*
X188722000Y-55372000D02*
X188722000Y-69341988D01*
X184404000Y-49276000D02*
X184404000Y-54356000D01*
X123190000Y-71882000D02*
X123190000Y-80772000D01*
X150622000Y-74422000D02*
X150622000Y-80772010D01*
X150622000Y-81788005D02*
X150622000Y-80772010D01*
X151384000Y-82550005D02*
X150622000Y-81788005D01*
X151384000Y-85090000D02*
X151384000Y-82550005D01*
X121920000Y-74422000D02*
X121920000Y-83312000D01*
X148844000Y-83312000D02*
X148844000Y-71120000D01*
X148844000Y-85090000D02*
X148844000Y-83312000D01*
X129032000Y-76962000D02*
X129032000Y-69342000D01*
X147320000Y-79502000D02*
X147320000Y-68072000D01*
X146304000Y-80518000D02*
X147320000Y-79502000D01*
X146304000Y-85090000D02*
X146304000Y-80518000D01*
X130048000Y-79502000D02*
X130048000Y-66802000D01*
X143764000Y-93726000D02*
X145034000Y-92456000D01*
X143764000Y-100330000D02*
X143764000Y-93726000D01*
X145034000Y-79502000D02*
X145034000Y-81026000D01*
X145034000Y-92456000D02*
X145034000Y-81026000D01*
X131064000Y-82042000D02*
X131064000Y-64262000D01*
X147574000Y-82804000D02*
X147574000Y-82042000D01*
X147574000Y-92710000D02*
X147574000Y-82804000D01*
X146304000Y-93980000D02*
X147574000Y-92710000D01*
X146304000Y-100330000D02*
X146304000Y-93980000D01*
X132080000Y-84582000D02*
X132080000Y-83820000D01*
X132080000Y-83820000D02*
X132080000Y-88392000D01*
X132080000Y-83820000D02*
X132080000Y-61722000D01*
X148844000Y-88392000D02*
X148844000Y-100330000D01*
X133096000Y-87122000D02*
X133096000Y-59182000D01*
X151384000Y-87630000D02*
X151384000Y-100330000D01*
X153924000Y-89662000D02*
X153924000Y-100330000D01*
X134620000Y-56642000D02*
X134620000Y-89662000D01*
X153924000Y-85090000D02*
X153924000Y-82804000D01*
X153924000Y-82804000D02*
X154432000Y-82296000D01*
X154432000Y-82296000D02*
X154432000Y-72644000D01*
X153670000Y-71882000D02*
X152654000Y-71882000D01*
X154432000Y-72644000D02*
X153670000Y-71882000D01*
X156464000Y-85090000D02*
X156464000Y-72136000D01*
X155194000Y-70866000D02*
X155194000Y-69342000D01*
X156464000Y-72136000D02*
X155194000Y-70866000D01*
X159004000Y-85090000D02*
X159004000Y-83312000D01*
X159004000Y-83312000D02*
X157480000Y-81788000D01*
X157480000Y-81788000D02*
X157480000Y-65786000D01*
X161544000Y-85090000D02*
X161544000Y-82550000D01*
X162560000Y-81534000D02*
X162560000Y-62992000D01*
X161544000Y-82550000D02*
X162560000Y-81534000D01*
X159004000Y-100330000D02*
X159004000Y-90678000D01*
X159004000Y-90678000D02*
X160274000Y-89408000D01*
X160274000Y-89408000D02*
X160274000Y-82296000D01*
X160274000Y-82296000D02*
X158496000Y-80518000D01*
X158496000Y-80518000D02*
X158496000Y-60452000D01*
X164084000Y-85090000D02*
X164084000Y-57912000D01*
X166624000Y-85090000D02*
X166624000Y-55372000D01*
X164084000Y-100330000D02*
X164084000Y-92456000D01*
X164084000Y-92456000D02*
X165354000Y-91186000D01*
X165354000Y-91186000D02*
X165354000Y-71120000D01*
X169164000Y-85090000D02*
X169164000Y-83566000D01*
X169164000Y-83566000D02*
X171958000Y-80772000D01*
X171958000Y-80772000D02*
X171958000Y-69596000D01*
X171704000Y-69342000D02*
X169926000Y-69342000D01*
X171958000Y-69596000D02*
X171704000Y-69342000D01*
X171704000Y-83058000D02*
X171704000Y-85090000D01*
X173228000Y-81534000D02*
X171704000Y-83058000D01*
X173228000Y-67310000D02*
X173228000Y-81534000D01*
X172720000Y-66802000D02*
X173228000Y-67310000D01*
X169926000Y-66802000D02*
X172720000Y-66802000D01*
X166624000Y-100330000D02*
X166624000Y-93472000D01*
X166624000Y-93472000D02*
X167894000Y-92202000D01*
X167894000Y-92202000D02*
X167894000Y-64262000D01*
X174244000Y-85090000D02*
X174244000Y-60960000D01*
X179578000Y-57912000D02*
X179578000Y-88138000D01*
X169164000Y-88138000D02*
X169164000Y-100330000D01*
X169926000Y-56642000D02*
X173482000Y-56642000D01*
X173482000Y-56642000D02*
X174752000Y-55372000D01*
X174752000Y-55372000D02*
X180340000Y-55372000D01*
X180594000Y-55626000D02*
X180594000Y-89408000D01*
X180340000Y-55372000D02*
X180594000Y-55626000D01*
X171704000Y-89408000D02*
X171704000Y-100330000D01*
M02*
