M48
; DRILL file {KiCad (5.1.10)-1} date 07/30/21 10:40:07
; FORMAT={-:-/ absolute / metric / decimal}
; #@! TF.CreationDate,2021-07-30T10:40:07+01:00
; #@! TF.GenerationSoftware,Kicad,Pcbnew,(5.1.10)-1
; #@! TF.FileFunction,Plated,1,2,PTH
FMAT,2
METRIC
T1C0.400
T2C0.800
T3C0.900
T4C1.000
T5C3.200
%
G90
G05
T1
X124.206Y-105.918
X125.476Y-101.092
X129.794Y-83.312
X129.794Y-91.186
X130.81Y-128.016
X131.064Y-84.836
X131.064Y-92.202
X132.08Y-68.072
X132.08Y-91.186
X133.096Y-104.648
X134.112Y-126.746
X134.62Y-142.494
X135.89Y-100.33
X136.906Y-93.218
X137.16Y-141.478
X137.414Y-102.616
X139.446Y-128.778
X139.446Y-137.16
X141.986Y-114.3
X141.986Y-135.89
X144.272Y-84.836
X144.272Y-117.094
X147.32Y-106.934
X148.844Y-61.722
X148.844Y-86.614
X150.368Y-69.342
X150.368Y-120.65
X150.428Y-105.604
X151.384Y-129.032
X151.638Y-66.802
X151.638Y-101.854
X152.654Y-64.262
X152.654Y-98.806
X152.654Y-127.762
X153.67Y-82.042
X153.67Y-115.57
X153.67Y-121.92
X156.21Y-87.376
X156.21Y-134.366
X157.48Y-137.16
X157.988Y-71.882
X157.988Y-105.41
X157.988Y-126.746
X158.75Y-133.096
X159.258Y-74.422
X159.258Y-107.95
X159.258Y-125.476
X160.02Y-131.826
X160.274Y-76.962
X160.274Y-110.49
X160.274Y-123.19
X161.29Y-124.46
X161.29Y-79.502
X161.29Y-113.03
X161.29Y-130.556
X166.37Y-127.762
X167.64Y-129.032
X168.91Y-120.65
X170.18Y-126.746
X171.45Y-125.476
X172.466Y-87.122
X172.72Y-123.19
X173.99Y-124.46
X175.26Y-121.92
X181.864Y-89.662
X181.864Y-126.492
T2
X109.474Y-117.856
X109.474Y-120.396
X109.474Y-122.936
X109.474Y-125.476
X109.474Y-128.016
X109.474Y-130.556
X109.474Y-133.096
X111.8Y-114.3
X114.3Y-114.3
X117.094Y-117.856
X117.094Y-120.396
X117.094Y-122.936
X117.094Y-125.476
X117.094Y-128.016
X117.094Y-130.556
X117.094Y-133.096
X144.82Y-120.396
X147.32Y-120.396
X148.082Y-93.512
X148.082Y-96.012
X156.21Y-61.722
X156.21Y-64.262
X156.21Y-66.802
X156.21Y-69.342
X156.21Y-71.882
X156.21Y-74.422
X156.21Y-76.962
X156.21Y-79.502
X156.21Y-82.042
X156.21Y-84.582
X156.21Y-95.25
X156.21Y-97.79
X156.21Y-100.33
X156.21Y-102.87
X156.21Y-105.41
X156.21Y-107.95
X156.21Y-110.49
X156.21Y-113.03
X156.21Y-115.57
X156.21Y-118.11
X158.79Y-57.658
X161.29Y-57.658
X163.83Y-61.722
X163.83Y-64.262
X163.83Y-66.802
X163.83Y-69.342
X163.83Y-71.882
X163.83Y-74.422
X163.83Y-76.962
X163.83Y-79.502
X163.83Y-82.042
X163.83Y-84.582
X163.83Y-95.25
X163.83Y-97.79
X163.83Y-100.33
X163.83Y-102.87
X163.83Y-105.41
X163.83Y-107.95
X163.83Y-110.49
X163.83Y-113.03
X163.83Y-115.57
X163.83Y-118.11
X164.378Y-91.694
X166.878Y-91.694
X168.656Y-64.262
X168.656Y-66.802
X168.656Y-69.342
X168.656Y-71.882
X168.656Y-74.422
X168.656Y-76.962
X168.656Y-79.502
X168.656Y-82.042
X168.656Y-84.582
X168.656Y-97.79
X168.656Y-100.33
X168.656Y-102.87
X168.656Y-105.41
X168.656Y-107.95
X168.656Y-110.49
X168.656Y-113.03
X168.656Y-115.57
X168.656Y-118.11
X175.006Y-60.96
X175.006Y-64.77
X175.006Y-68.58
X175.006Y-72.39
X175.006Y-76.2
X175.006Y-80.01
X175.006Y-83.82
X175.006Y-96.012
X175.006Y-99.822
X175.006Y-103.632
X175.006Y-107.442
X175.006Y-111.252
X175.006Y-115.062
X175.006Y-118.872
X180.34Y-134.874
X185.166Y-60.96
X185.166Y-64.77
X185.166Y-68.58
X185.166Y-72.39
X185.166Y-76.2
X185.166Y-80.01
X185.166Y-83.82
X185.166Y-96.012
X185.166Y-99.822
X185.166Y-103.632
X185.166Y-107.442
X185.166Y-111.252
X185.166Y-115.062
X185.166Y-118.872
X186.73Y-130.81
X189.23Y-130.81
X190.5Y-134.874
T3
X194.564Y-136.652
X197.104Y-136.652
T4
X110.508Y-139.72
X110.508Y-144.8
X113.048Y-139.72
X113.048Y-144.8
X115.588Y-139.72
X115.588Y-144.8
X118.128Y-139.72
X118.128Y-144.8
X119.38Y-93.218
X119.38Y-95.758
X119.38Y-98.298
X119.38Y-100.838
X119.38Y-103.378
X119.38Y-105.918
X120.668Y-139.72
X120.668Y-144.8
X123.208Y-139.72
X123.208Y-144.8
X125.748Y-139.72
X125.748Y-144.8
X128.288Y-139.72
X128.288Y-144.8
X130.828Y-139.72
X130.828Y-144.8
X133.368Y-139.72
X133.368Y-144.8
X135.908Y-139.72
X135.908Y-144.8
X138.448Y-139.72
X138.448Y-144.8
X140.988Y-139.72
X140.988Y-144.8
X143.528Y-139.72
X143.528Y-144.8
X146.068Y-139.72
X146.068Y-144.8
X148.608Y-139.72
X148.608Y-144.8
X151.148Y-139.72
X151.148Y-144.8
X153.688Y-139.72
X153.688Y-144.8
X156.228Y-139.72
X156.228Y-144.8
X158.768Y-139.72
X158.768Y-144.8
X161.308Y-139.72
X161.308Y-144.8
X163.848Y-139.72
X163.848Y-144.8
X166.388Y-139.72
X166.388Y-144.8
X168.928Y-139.72
X168.928Y-144.8
X171.468Y-139.72
X171.468Y-144.8
X174.008Y-139.72
X174.008Y-144.8
X176.548Y-139.72
X176.548Y-144.8
X179.088Y-139.72
X179.088Y-144.8
X181.628Y-139.72
X181.628Y-144.8
X184.168Y-139.72
X184.168Y-144.8
X186.708Y-139.72
X186.708Y-144.8
X189.248Y-139.72
X189.248Y-144.8
X191.77Y-65.374
X191.77Y-68.144
X191.77Y-70.914
X191.77Y-73.684
X191.77Y-76.454
X191.77Y-100.68
X191.77Y-103.45
X191.77Y-106.22
X191.77Y-108.99
X191.77Y-111.76
X194.61Y-66.759
X194.61Y-69.529
X194.61Y-72.299
X194.61Y-75.069
X194.61Y-102.065
X194.61Y-104.835
X194.61Y-107.605
X194.61Y-110.375
T5
X192.07Y-58.414
X192.07Y-83.414
X192.07Y-93.72
X192.07Y-118.72
T0
M30
