%FSLAX45Y45*%
G04 Gerber Fmt 4.5, Leading zero omitted, Abs format (unit mm)*
G04 Created by KiCad (PCBNEW (5.1.10)-1) date 2021-07-30 10:40:08*
%MOMM*%
%LPD*%
G01*
G04 APERTURE LIST*
%TA.AperFunction,Profile*%
%ADD10C,0.050000*%
%TD*%
%ADD11C,0.200000*%
%ADD12C,0.300000*%
G04 APERTURE END LIST*
D10*
X20000000Y-14750000D02*
X20000000Y-5250000D01*
X10250000Y-15000000D02*
X19750000Y-15000000D01*
X10000000Y-5250000D02*
X10000000Y-14750000D01*
X19750000Y-5000000D02*
X10250000Y-5000000D01*
X10250000Y-15000000D02*
G75*
G02*
X10000000Y-14750000I0J250000D01*
G01*
X10000000Y-5250000D02*
G75*
G02*
X10250000Y-5000000I250000J0D01*
G01*
X19750000Y-5000000D02*
G75*
G02*
X20000000Y-5250000I0J-250000D01*
G01*
X20000000Y-14750000D02*
G75*
G02*
X19750000Y-15000000I-250000J0D01*
G01*
D11*
X12400600Y-10571800D02*
X12440600Y-10611800D01*
X12440600Y-10571800D02*
X12400600Y-10611800D01*
X12527600Y-10089200D02*
X12567600Y-10129200D01*
X12567600Y-10089200D02*
X12527600Y-10129200D01*
X12959400Y-8311200D02*
X12999400Y-8351200D01*
X12999400Y-8311200D02*
X12959400Y-8351200D01*
X12959400Y-9098600D02*
X12999400Y-9138600D01*
X12999400Y-9098600D02*
X12959400Y-9138600D01*
X13061000Y-12781600D02*
X13101000Y-12821600D01*
X13101000Y-12781600D02*
X13061000Y-12821600D01*
X13086400Y-8463601D02*
X13126400Y-8503601D01*
X13126400Y-8463601D02*
X13086400Y-8503601D01*
X13086400Y-9200200D02*
X13126400Y-9240200D01*
X13126400Y-9200200D02*
X13086400Y-9240200D01*
X13188000Y-6787200D02*
X13228000Y-6827200D01*
X13228000Y-6787200D02*
X13188000Y-6827200D01*
X13188000Y-9098600D02*
X13228000Y-9138600D01*
X13228000Y-9098600D02*
X13188000Y-9138600D01*
X13289600Y-10444800D02*
X13329600Y-10484800D01*
X13329600Y-10444800D02*
X13289600Y-10484800D01*
X13391200Y-12654600D02*
X13431200Y-12694600D01*
X13431200Y-12654600D02*
X13391200Y-12694600D01*
X13442000Y-14229400D02*
X13482000Y-14269400D01*
X13482000Y-14229400D02*
X13442000Y-14269400D01*
X13569000Y-10013001D02*
X13609000Y-10053001D01*
X13609000Y-10013001D02*
X13569000Y-10053001D01*
X13670600Y-9301800D02*
X13710600Y-9341800D01*
X13710600Y-9301800D02*
X13670600Y-9341800D01*
X13696000Y-14127800D02*
X13736000Y-14167800D01*
X13736000Y-14127800D02*
X13696000Y-14167800D01*
X13721400Y-10241600D02*
X13761400Y-10281600D01*
X13761400Y-10241600D02*
X13721400Y-10281600D01*
X13924600Y-12857800D02*
X13964600Y-12897800D01*
X13964600Y-12857800D02*
X13924600Y-12897800D01*
X13924600Y-13696000D02*
X13964600Y-13736000D01*
X13964600Y-13696000D02*
X13924600Y-13736000D01*
X14178600Y-11410000D02*
X14218600Y-11450000D01*
X14218600Y-11410000D02*
X14178600Y-11450000D01*
X14178600Y-13569000D02*
X14218600Y-13609000D01*
X14218600Y-13569000D02*
X14178600Y-13609000D01*
X14407200Y-8463600D02*
X14447200Y-8503600D01*
X14447200Y-8463600D02*
X14407200Y-8503600D01*
X14407200Y-11689400D02*
X14447200Y-11729400D01*
X14447200Y-11689400D02*
X14407200Y-11729400D01*
X14712000Y-10673400D02*
X14752000Y-10713400D01*
X14752000Y-10673400D02*
X14712000Y-10713400D01*
X14864400Y-6152200D02*
X14904400Y-6192200D01*
X14904400Y-6152200D02*
X14864400Y-6192200D01*
X14864400Y-8641400D02*
X14904400Y-8681400D01*
X14904400Y-8641400D02*
X14864400Y-8681400D01*
X15016800Y-6914200D02*
X15056800Y-6954200D01*
X15056800Y-6914200D02*
X15016800Y-6954200D01*
X15016800Y-12045000D02*
X15056800Y-12085000D01*
X15056800Y-12045000D02*
X15016800Y-12085000D01*
X15022800Y-10540400D02*
X15062800Y-10580400D01*
X15062800Y-10540400D02*
X15022800Y-10580400D01*
X15118400Y-12883200D02*
X15158400Y-12923200D01*
X15158400Y-12883200D02*
X15118400Y-12923200D01*
X15143800Y-6660200D02*
X15183800Y-6700200D01*
X15183800Y-6660200D02*
X15143800Y-6700200D01*
X15143800Y-10165400D02*
X15183800Y-10205400D01*
X15183800Y-10165400D02*
X15143800Y-10205400D01*
X15245400Y-6406200D02*
X15285400Y-6446200D01*
X15285400Y-6406200D02*
X15245400Y-6446200D01*
X15245400Y-9860600D02*
X15285400Y-9900600D01*
X15285400Y-9860600D02*
X15245400Y-9900600D01*
X15245400Y-12756200D02*
X15285400Y-12796200D01*
X15285400Y-12756200D02*
X15245400Y-12796200D01*
X15347000Y-8184200D02*
X15387000Y-8224200D01*
X15387000Y-8184200D02*
X15347000Y-8224200D01*
X15347000Y-11537000D02*
X15387000Y-11577000D01*
X15387000Y-11537000D02*
X15347000Y-11577000D01*
X15347000Y-12172000D02*
X15387000Y-12212000D01*
X15387000Y-12172000D02*
X15347000Y-12212000D01*
X15601000Y-8717600D02*
X15641000Y-8757600D01*
X15641000Y-8717600D02*
X15601000Y-8757600D01*
X15601000Y-13416600D02*
X15641000Y-13456600D01*
X15641000Y-13416600D02*
X15601000Y-13456600D01*
X15728000Y-13696000D02*
X15768000Y-13736000D01*
X15768000Y-13696000D02*
X15728000Y-13736000D01*
X15778800Y-7168200D02*
X15818800Y-7208200D01*
X15818800Y-7168200D02*
X15778800Y-7208200D01*
X15778800Y-10521000D02*
X15818800Y-10561000D01*
X15818800Y-10521000D02*
X15778800Y-10561000D01*
X15778800Y-12654600D02*
X15818800Y-12694600D01*
X15818800Y-12654600D02*
X15778800Y-12694600D01*
X15855000Y-13289600D02*
X15895000Y-13329600D01*
X15895000Y-13289600D02*
X15855000Y-13329600D01*
X15905800Y-7422200D02*
X15945800Y-7462200D01*
X15945800Y-7422200D02*
X15905800Y-7462200D01*
X15905800Y-10775000D02*
X15945800Y-10815000D01*
X15945800Y-10775000D02*
X15905800Y-10815000D01*
X15905800Y-12527600D02*
X15945800Y-12567600D01*
X15945800Y-12527600D02*
X15905800Y-12567600D01*
X15982000Y-13162600D02*
X16022000Y-13202600D01*
X16022000Y-13162600D02*
X15982000Y-13202600D01*
X16007400Y-7676200D02*
X16047400Y-7716200D01*
X16047400Y-7676200D02*
X16007400Y-7716200D01*
X16007400Y-11029000D02*
X16047400Y-11069000D01*
X16047400Y-11029000D02*
X16007400Y-11069000D01*
X16007400Y-12299000D02*
X16047400Y-12339000D01*
X16047400Y-12299000D02*
X16007400Y-12339000D01*
X16109000Y-12426000D02*
X16149000Y-12466000D01*
X16149000Y-12426000D02*
X16109000Y-12466000D01*
X16109000Y-7930200D02*
X16149000Y-7970200D01*
X16149000Y-7930200D02*
X16109000Y-7970200D01*
X16109000Y-11283000D02*
X16149000Y-11323000D01*
X16149000Y-11283000D02*
X16109000Y-11323000D01*
X16109000Y-13035600D02*
X16149000Y-13075600D01*
X16149000Y-13035600D02*
X16109000Y-13075600D01*
X16617000Y-12756200D02*
X16657000Y-12796200D01*
X16657000Y-12756200D02*
X16617000Y-12796200D01*
X16744000Y-12883200D02*
X16784000Y-12923200D01*
X16784000Y-12883200D02*
X16744000Y-12923200D01*
X16871000Y-12045000D02*
X16911000Y-12085000D01*
X16911000Y-12045000D02*
X16871000Y-12085000D01*
X16998000Y-12654600D02*
X17038000Y-12694600D01*
X17038000Y-12654600D02*
X16998000Y-12694600D01*
X17125000Y-12527600D02*
X17165000Y-12567600D01*
X17165000Y-12527600D02*
X17125000Y-12567600D01*
X17226600Y-8692200D02*
X17266600Y-8732200D01*
X17266600Y-8692200D02*
X17226600Y-8732200D01*
X17251999Y-12299000D02*
X17291999Y-12339000D01*
X17291999Y-12299000D02*
X17251999Y-12339000D01*
X17379000Y-12426000D02*
X17419000Y-12466000D01*
X17419000Y-12426000D02*
X17379000Y-12466000D01*
X17506000Y-12172000D02*
X17546000Y-12212000D01*
X17546000Y-12172000D02*
X17506000Y-12212000D01*
X18166400Y-8946200D02*
X18206400Y-8986200D01*
X18206400Y-8946200D02*
X18166400Y-8986200D01*
X18166400Y-12629200D02*
X18206400Y-12669200D01*
X18206400Y-12629200D02*
X18166400Y-12669200D01*
X10987400Y-11785600D02*
G75*
G03*
X10987400Y-11785600I-40000J0D01*
G01*
X10987400Y-12039600D02*
G75*
G03*
X10987400Y-12039600I-40000J0D01*
G01*
X10987400Y-12293600D02*
G75*
G03*
X10987400Y-12293600I-40000J0D01*
G01*
X10987400Y-12547600D02*
G75*
G03*
X10987400Y-12547600I-40000J0D01*
G01*
X10987400Y-12801600D02*
G75*
G03*
X10987400Y-12801600I-40000J0D01*
G01*
X10987400Y-13055600D02*
G75*
G03*
X10987400Y-13055600I-40000J0D01*
G01*
X10987400Y-13309600D02*
G75*
G03*
X10987400Y-13309600I-40000J0D01*
G01*
X11220000Y-11430000D02*
G75*
G03*
X11220000Y-11430000I-40000J0D01*
G01*
X11470000Y-11430000D02*
G75*
G03*
X11470000Y-11430000I-40000J0D01*
G01*
X11749400Y-11785600D02*
G75*
G03*
X11749400Y-11785600I-40000J0D01*
G01*
X11749400Y-12039600D02*
G75*
G03*
X11749400Y-12039600I-40000J0D01*
G01*
X11749400Y-12293600D02*
G75*
G03*
X11749400Y-12293600I-40000J0D01*
G01*
X11749400Y-12547600D02*
G75*
G03*
X11749400Y-12547600I-40000J0D01*
G01*
X11749400Y-12801600D02*
G75*
G03*
X11749400Y-12801600I-40000J0D01*
G01*
X11749400Y-13055600D02*
G75*
G03*
X11749400Y-13055600I-40000J0D01*
G01*
X11749400Y-13309600D02*
G75*
G03*
X11749400Y-13309600I-40000J0D01*
G01*
X14522000Y-12039600D02*
G75*
G03*
X14522000Y-12039600I-40000J0D01*
G01*
X14772000Y-12039600D02*
G75*
G03*
X14772000Y-12039600I-40000J0D01*
G01*
X14848200Y-9351200D02*
G75*
G03*
X14848200Y-9351200I-40000J0D01*
G01*
X14848200Y-9601200D02*
G75*
G03*
X14848200Y-9601200I-40000J0D01*
G01*
X15661000Y-6172200D02*
G75*
G03*
X15661000Y-6172200I-40000J0D01*
G01*
X15661000Y-6426200D02*
G75*
G03*
X15661000Y-6426200I-40000J0D01*
G01*
X15661000Y-6680200D02*
G75*
G03*
X15661000Y-6680200I-40000J0D01*
G01*
X15661000Y-6934200D02*
G75*
G03*
X15661000Y-6934200I-40000J0D01*
G01*
X15661000Y-7188200D02*
G75*
G03*
X15661000Y-7188200I-40000J0D01*
G01*
X15661000Y-7442200D02*
G75*
G03*
X15661000Y-7442200I-40000J0D01*
G01*
X15661000Y-7696200D02*
G75*
G03*
X15661000Y-7696200I-40000J0D01*
G01*
X15661000Y-7950200D02*
G75*
G03*
X15661000Y-7950200I-40000J0D01*
G01*
X15661000Y-8204200D02*
G75*
G03*
X15661000Y-8204200I-40000J0D01*
G01*
X15661000Y-8458200D02*
G75*
G03*
X15661000Y-8458200I-40000J0D01*
G01*
X15661000Y-9525000D02*
G75*
G03*
X15661000Y-9525000I-40000J0D01*
G01*
X15661000Y-9779000D02*
G75*
G03*
X15661000Y-9779000I-40000J0D01*
G01*
X15661000Y-10033000D02*
G75*
G03*
X15661000Y-10033000I-40000J0D01*
G01*
X15661000Y-10287000D02*
G75*
G03*
X15661000Y-10287000I-40000J0D01*
G01*
X15661000Y-10541000D02*
G75*
G03*
X15661000Y-10541000I-40000J0D01*
G01*
X15661000Y-10795000D02*
G75*
G03*
X15661000Y-10795000I-40000J0D01*
G01*
X15661000Y-11049000D02*
G75*
G03*
X15661000Y-11049000I-40000J0D01*
G01*
X15661000Y-11303000D02*
G75*
G03*
X15661000Y-11303000I-40000J0D01*
G01*
X15661000Y-11557000D02*
G75*
G03*
X15661000Y-11557000I-40000J0D01*
G01*
X15661000Y-11811000D02*
G75*
G03*
X15661000Y-11811000I-40000J0D01*
G01*
X15919000Y-5765800D02*
G75*
G03*
X15919000Y-5765800I-40000J0D01*
G01*
X16169000Y-5765800D02*
G75*
G03*
X16169000Y-5765800I-40000J0D01*
G01*
X16423000Y-6172200D02*
G75*
G03*
X16423000Y-6172200I-40000J0D01*
G01*
X16423000Y-6426200D02*
G75*
G03*
X16423000Y-6426200I-40000J0D01*
G01*
X16423000Y-6680200D02*
G75*
G03*
X16423000Y-6680200I-40000J0D01*
G01*
X16423000Y-6934200D02*
G75*
G03*
X16423000Y-6934200I-40000J0D01*
G01*
X16423000Y-7188200D02*
G75*
G03*
X16423000Y-7188200I-40000J0D01*
G01*
X16423000Y-7442200D02*
G75*
G03*
X16423000Y-7442200I-40000J0D01*
G01*
X16423000Y-7696200D02*
G75*
G03*
X16423000Y-7696200I-40000J0D01*
G01*
X16423000Y-7950200D02*
G75*
G03*
X16423000Y-7950200I-40000J0D01*
G01*
X16423000Y-8204200D02*
G75*
G03*
X16423000Y-8204200I-40000J0D01*
G01*
X16423000Y-8458200D02*
G75*
G03*
X16423000Y-8458200I-40000J0D01*
G01*
X16423000Y-9525000D02*
G75*
G03*
X16423000Y-9525000I-40000J0D01*
G01*
X16423000Y-9779000D02*
G75*
G03*
X16423000Y-9779000I-40000J0D01*
G01*
X16423000Y-10033000D02*
G75*
G03*
X16423000Y-10033000I-40000J0D01*
G01*
X16423000Y-10287000D02*
G75*
G03*
X16423000Y-10287000I-40000J0D01*
G01*
X16423000Y-10541000D02*
G75*
G03*
X16423000Y-10541000I-40000J0D01*
G01*
X16423000Y-10795000D02*
G75*
G03*
X16423000Y-10795000I-40000J0D01*
G01*
X16423000Y-11049000D02*
G75*
G03*
X16423000Y-11049000I-40000J0D01*
G01*
X16423000Y-11303000D02*
G75*
G03*
X16423000Y-11303000I-40000J0D01*
G01*
X16423000Y-11557000D02*
G75*
G03*
X16423000Y-11557000I-40000J0D01*
G01*
X16423000Y-11811000D02*
G75*
G03*
X16423000Y-11811000I-40000J0D01*
G01*
X16477800Y-9169400D02*
G75*
G03*
X16477800Y-9169400I-40000J0D01*
G01*
X16727800Y-9169400D02*
G75*
G03*
X16727800Y-9169400I-40000J0D01*
G01*
X16905600Y-6426200D02*
G75*
G03*
X16905600Y-6426200I-40000J0D01*
G01*
X16905600Y-6680200D02*
G75*
G03*
X16905600Y-6680200I-40000J0D01*
G01*
X16905600Y-6934200D02*
G75*
G03*
X16905600Y-6934200I-40000J0D01*
G01*
X16905600Y-7188200D02*
G75*
G03*
X16905600Y-7188200I-40000J0D01*
G01*
X16905600Y-7442200D02*
G75*
G03*
X16905600Y-7442200I-40000J0D01*
G01*
X16905600Y-7696200D02*
G75*
G03*
X16905600Y-7696200I-40000J0D01*
G01*
X16905600Y-7950200D02*
G75*
G03*
X16905600Y-7950200I-40000J0D01*
G01*
X16905600Y-8204200D02*
G75*
G03*
X16905600Y-8204200I-40000J0D01*
G01*
X16905600Y-8458200D02*
G75*
G03*
X16905600Y-8458200I-40000J0D01*
G01*
X16905600Y-9779000D02*
G75*
G03*
X16905600Y-9779000I-40000J0D01*
G01*
X16905600Y-10033000D02*
G75*
G03*
X16905600Y-10033000I-40000J0D01*
G01*
X16905600Y-10287000D02*
G75*
G03*
X16905600Y-10287000I-40000J0D01*
G01*
X16905600Y-10541000D02*
G75*
G03*
X16905600Y-10541000I-40000J0D01*
G01*
X16905600Y-10795000D02*
G75*
G03*
X16905600Y-10795000I-40000J0D01*
G01*
X16905600Y-11049000D02*
G75*
G03*
X16905600Y-11049000I-40000J0D01*
G01*
X16905600Y-11303000D02*
G75*
G03*
X16905600Y-11303000I-40000J0D01*
G01*
X16905600Y-11557000D02*
G75*
G03*
X16905600Y-11557000I-40000J0D01*
G01*
X16905600Y-11811000D02*
G75*
G03*
X16905600Y-11811000I-40000J0D01*
G01*
X17540600Y-6096000D02*
G75*
G03*
X17540600Y-6096000I-40000J0D01*
G01*
X17540600Y-6477000D02*
G75*
G03*
X17540600Y-6477000I-40000J0D01*
G01*
X17540600Y-6858000D02*
G75*
G03*
X17540600Y-6858000I-40000J0D01*
G01*
X17540600Y-7239000D02*
G75*
G03*
X17540600Y-7239000I-40000J0D01*
G01*
X17540600Y-7620000D02*
G75*
G03*
X17540600Y-7620000I-40000J0D01*
G01*
X17540600Y-8001000D02*
G75*
G03*
X17540600Y-8001000I-40000J0D01*
G01*
X17540600Y-8382000D02*
G75*
G03*
X17540600Y-8382000I-40000J0D01*
G01*
X17540600Y-9601200D02*
G75*
G03*
X17540600Y-9601200I-40000J0D01*
G01*
X17540600Y-9982200D02*
G75*
G03*
X17540600Y-9982200I-40000J0D01*
G01*
X17540600Y-10363200D02*
G75*
G03*
X17540600Y-10363200I-40000J0D01*
G01*
X17540600Y-10744200D02*
G75*
G03*
X17540600Y-10744200I-40000J0D01*
G01*
X17540600Y-11125200D02*
G75*
G03*
X17540600Y-11125200I-40000J0D01*
G01*
X17540600Y-11506200D02*
G75*
G03*
X17540600Y-11506200I-40000J0D01*
G01*
X17540600Y-11887200D02*
G75*
G03*
X17540600Y-11887200I-40000J0D01*
G01*
X18074000Y-13487400D02*
G75*
G03*
X18074000Y-13487400I-40000J0D01*
G01*
X18556600Y-6096000D02*
G75*
G03*
X18556600Y-6096000I-40000J0D01*
G01*
X18556600Y-6477000D02*
G75*
G03*
X18556600Y-6477000I-40000J0D01*
G01*
X18556600Y-6858000D02*
G75*
G03*
X18556600Y-6858000I-40000J0D01*
G01*
X18556600Y-7239000D02*
G75*
G03*
X18556600Y-7239000I-40000J0D01*
G01*
X18556600Y-7620000D02*
G75*
G03*
X18556600Y-7620000I-40000J0D01*
G01*
X18556600Y-8001000D02*
G75*
G03*
X18556600Y-8001000I-40000J0D01*
G01*
X18556600Y-8382000D02*
G75*
G03*
X18556600Y-8382000I-40000J0D01*
G01*
X18556600Y-9601200D02*
G75*
G03*
X18556600Y-9601200I-40000J0D01*
G01*
X18556600Y-9982200D02*
G75*
G03*
X18556600Y-9982200I-40000J0D01*
G01*
X18556600Y-10363200D02*
G75*
G03*
X18556600Y-10363200I-40000J0D01*
G01*
X18556600Y-10744200D02*
G75*
G03*
X18556600Y-10744200I-40000J0D01*
G01*
X18556600Y-11125200D02*
G75*
G03*
X18556600Y-11125200I-40000J0D01*
G01*
X18556600Y-11506200D02*
G75*
G03*
X18556600Y-11506200I-40000J0D01*
G01*
X18556600Y-11887200D02*
G75*
G03*
X18556600Y-11887200I-40000J0D01*
G01*
X18713000Y-13081000D02*
G75*
G03*
X18713000Y-13081000I-40000J0D01*
G01*
X18963000Y-13081000D02*
G75*
G03*
X18963000Y-13081000I-40000J0D01*
G01*
X19090000Y-13487400D02*
G75*
G03*
X19090000Y-13487400I-40000J0D01*
G01*
X19456400Y-13620200D02*
X19456400Y-13710200D01*
X19411400Y-13665200D02*
X19501400Y-13665200D01*
X19710400Y-13620200D02*
X19710400Y-13710200D01*
X19665400Y-13665200D02*
X19755400Y-13665200D01*
X11086156Y-14007356D02*
X11086156Y-13936644D01*
X11015444Y-13936644D01*
X11015444Y-14007356D01*
X11086156Y-14007356D01*
X11086156Y-14515356D02*
X11086156Y-14444644D01*
X11015444Y-14444644D01*
X11015444Y-14515356D01*
X11086156Y-14515356D01*
X11340156Y-14007356D02*
X11340156Y-13936644D01*
X11269444Y-13936644D01*
X11269444Y-14007356D01*
X11340156Y-14007356D01*
X11340156Y-14515356D02*
X11340156Y-14444644D01*
X11269444Y-14444644D01*
X11269444Y-14515356D01*
X11340156Y-14515356D01*
X11594156Y-14007356D02*
X11594156Y-13936644D01*
X11523444Y-13936644D01*
X11523444Y-14007356D01*
X11594156Y-14007356D01*
X11594156Y-14515356D02*
X11594156Y-14444644D01*
X11523444Y-14444644D01*
X11523444Y-14515356D01*
X11594156Y-14515356D01*
X11848156Y-14007356D02*
X11848156Y-13936644D01*
X11777444Y-13936644D01*
X11777444Y-14007356D01*
X11848156Y-14007356D01*
X11848156Y-14515356D02*
X11848156Y-14444644D01*
X11777444Y-14444644D01*
X11777444Y-14515356D01*
X11848156Y-14515356D01*
X11973356Y-9357156D02*
X11973356Y-9286444D01*
X11902644Y-9286444D01*
X11902644Y-9357156D01*
X11973356Y-9357156D01*
X11973356Y-9611156D02*
X11973356Y-9540444D01*
X11902644Y-9540444D01*
X11902644Y-9611156D01*
X11973356Y-9611156D01*
X11973356Y-9865156D02*
X11973356Y-9794444D01*
X11902644Y-9794444D01*
X11902644Y-9865156D01*
X11973356Y-9865156D01*
X11973356Y-10119156D02*
X11973356Y-10048444D01*
X11902644Y-10048444D01*
X11902644Y-10119156D01*
X11973356Y-10119156D01*
X11973356Y-10373156D02*
X11973356Y-10302444D01*
X11902644Y-10302444D01*
X11902644Y-10373156D01*
X11973356Y-10373156D01*
X11973356Y-10627156D02*
X11973356Y-10556444D01*
X11902644Y-10556444D01*
X11902644Y-10627156D01*
X11973356Y-10627156D01*
X12102156Y-14007356D02*
X12102156Y-13936644D01*
X12031444Y-13936644D01*
X12031444Y-14007356D01*
X12102156Y-14007356D01*
X12102156Y-14515356D02*
X12102156Y-14444644D01*
X12031444Y-14444644D01*
X12031444Y-14515356D01*
X12102156Y-14515356D01*
X12356156Y-14007356D02*
X12356156Y-13936644D01*
X12285444Y-13936644D01*
X12285444Y-14007356D01*
X12356156Y-14007356D01*
X12356156Y-14515356D02*
X12356156Y-14444644D01*
X12285444Y-14444644D01*
X12285444Y-14515356D01*
X12356156Y-14515356D01*
X12610156Y-14007356D02*
X12610156Y-13936644D01*
X12539444Y-13936644D01*
X12539444Y-14007356D01*
X12610156Y-14007356D01*
X12610156Y-14515356D02*
X12610156Y-14444644D01*
X12539444Y-14444644D01*
X12539444Y-14515356D01*
X12610156Y-14515356D01*
X12864156Y-14007356D02*
X12864156Y-13936644D01*
X12793444Y-13936644D01*
X12793444Y-14007356D01*
X12864156Y-14007356D01*
X12864156Y-14515356D02*
X12864156Y-14444644D01*
X12793444Y-14444644D01*
X12793444Y-14515356D01*
X12864156Y-14515356D01*
X13118156Y-14007356D02*
X13118156Y-13936644D01*
X13047444Y-13936644D01*
X13047444Y-14007356D01*
X13118156Y-14007356D01*
X13118156Y-14515356D02*
X13118156Y-14444644D01*
X13047444Y-14444644D01*
X13047444Y-14515356D01*
X13118156Y-14515356D01*
X13372156Y-14007356D02*
X13372156Y-13936644D01*
X13301444Y-13936644D01*
X13301444Y-14007356D01*
X13372156Y-14007356D01*
X13372156Y-14515356D02*
X13372156Y-14444644D01*
X13301444Y-14444644D01*
X13301444Y-14515356D01*
X13372156Y-14515356D01*
X13626156Y-14007356D02*
X13626156Y-13936644D01*
X13555444Y-13936644D01*
X13555444Y-14007356D01*
X13626156Y-14007356D01*
X13626156Y-14515356D02*
X13626156Y-14444644D01*
X13555444Y-14444644D01*
X13555444Y-14515356D01*
X13626156Y-14515356D01*
X13880156Y-14007356D02*
X13880156Y-13936644D01*
X13809444Y-13936644D01*
X13809444Y-14007356D01*
X13880156Y-14007356D01*
X13880156Y-14515356D02*
X13880156Y-14444644D01*
X13809444Y-14444644D01*
X13809444Y-14515356D01*
X13880156Y-14515356D01*
X14134156Y-14007356D02*
X14134156Y-13936644D01*
X14063444Y-13936644D01*
X14063444Y-14007356D01*
X14134156Y-14007356D01*
X14134156Y-14515356D02*
X14134156Y-14444644D01*
X14063444Y-14444644D01*
X14063444Y-14515356D01*
X14134156Y-14515356D01*
X14388156Y-14007356D02*
X14388156Y-13936644D01*
X14317444Y-13936644D01*
X14317444Y-14007356D01*
X14388156Y-14007356D01*
X14388156Y-14515356D02*
X14388156Y-14444644D01*
X14317444Y-14444644D01*
X14317444Y-14515356D01*
X14388156Y-14515356D01*
X14642156Y-14007356D02*
X14642156Y-13936644D01*
X14571444Y-13936644D01*
X14571444Y-14007356D01*
X14642156Y-14007356D01*
X14642156Y-14515356D02*
X14642156Y-14444644D01*
X14571444Y-14444644D01*
X14571444Y-14515356D01*
X14642156Y-14515356D01*
X14896156Y-14007356D02*
X14896156Y-13936644D01*
X14825444Y-13936644D01*
X14825444Y-14007356D01*
X14896156Y-14007356D01*
X14896156Y-14515356D02*
X14896156Y-14444644D01*
X14825444Y-14444644D01*
X14825444Y-14515356D01*
X14896156Y-14515356D01*
X15150156Y-14007356D02*
X15150156Y-13936644D01*
X15079444Y-13936644D01*
X15079444Y-14007356D01*
X15150156Y-14007356D01*
X15150156Y-14515356D02*
X15150156Y-14444644D01*
X15079444Y-14444644D01*
X15079444Y-14515356D01*
X15150156Y-14515356D01*
X15404156Y-14007356D02*
X15404156Y-13936644D01*
X15333444Y-13936644D01*
X15333444Y-14007356D01*
X15404156Y-14007356D01*
X15404156Y-14515356D02*
X15404156Y-14444644D01*
X15333444Y-14444644D01*
X15333444Y-14515356D01*
X15404156Y-14515356D01*
X15658156Y-14007356D02*
X15658156Y-13936644D01*
X15587444Y-13936644D01*
X15587444Y-14007356D01*
X15658156Y-14007356D01*
X15658156Y-14515356D02*
X15658156Y-14444644D01*
X15587444Y-14444644D01*
X15587444Y-14515356D01*
X15658156Y-14515356D01*
X15912156Y-14007356D02*
X15912156Y-13936644D01*
X15841444Y-13936644D01*
X15841444Y-14007356D01*
X15912156Y-14007356D01*
X15912156Y-14515356D02*
X15912156Y-14444644D01*
X15841444Y-14444644D01*
X15841444Y-14515356D01*
X15912156Y-14515356D01*
X16166156Y-14007356D02*
X16166156Y-13936644D01*
X16095444Y-13936644D01*
X16095444Y-14007356D01*
X16166156Y-14007356D01*
X16166156Y-14515356D02*
X16166156Y-14444644D01*
X16095444Y-14444644D01*
X16095444Y-14515356D01*
X16166156Y-14515356D01*
X16420156Y-14007356D02*
X16420156Y-13936644D01*
X16349444Y-13936644D01*
X16349444Y-14007356D01*
X16420156Y-14007356D01*
X16420156Y-14515356D02*
X16420156Y-14444644D01*
X16349444Y-14444644D01*
X16349444Y-14515356D01*
X16420156Y-14515356D01*
X16674156Y-14007356D02*
X16674156Y-13936644D01*
X16603444Y-13936644D01*
X16603444Y-14007356D01*
X16674156Y-14007356D01*
X16674156Y-14515356D02*
X16674156Y-14444644D01*
X16603444Y-14444644D01*
X16603444Y-14515356D01*
X16674156Y-14515356D01*
X16928156Y-14007356D02*
X16928156Y-13936644D01*
X16857444Y-13936644D01*
X16857444Y-14007356D01*
X16928156Y-14007356D01*
X16928156Y-14515356D02*
X16928156Y-14444644D01*
X16857444Y-14444644D01*
X16857444Y-14515356D01*
X16928156Y-14515356D01*
X17182156Y-14007356D02*
X17182156Y-13936644D01*
X17111444Y-13936644D01*
X17111444Y-14007356D01*
X17182156Y-14007356D01*
X17182156Y-14515356D02*
X17182156Y-14444644D01*
X17111444Y-14444644D01*
X17111444Y-14515356D01*
X17182156Y-14515356D01*
X17436156Y-14007356D02*
X17436156Y-13936644D01*
X17365444Y-13936644D01*
X17365444Y-14007356D01*
X17436156Y-14007356D01*
X17436156Y-14515356D02*
X17436156Y-14444644D01*
X17365444Y-14444644D01*
X17365444Y-14515356D01*
X17436156Y-14515356D01*
X17690156Y-14007356D02*
X17690156Y-13936644D01*
X17619444Y-13936644D01*
X17619444Y-14007356D01*
X17690156Y-14007356D01*
X17690156Y-14515356D02*
X17690156Y-14444644D01*
X17619444Y-14444644D01*
X17619444Y-14515356D01*
X17690156Y-14515356D01*
X17944156Y-14007356D02*
X17944156Y-13936644D01*
X17873444Y-13936644D01*
X17873444Y-14007356D01*
X17944156Y-14007356D01*
X17944156Y-14515356D02*
X17944156Y-14444644D01*
X17873444Y-14444644D01*
X17873444Y-14515356D01*
X17944156Y-14515356D01*
X18198156Y-14007356D02*
X18198156Y-13936644D01*
X18127444Y-13936644D01*
X18127444Y-14007356D01*
X18198156Y-14007356D01*
X18198156Y-14515356D02*
X18198156Y-14444644D01*
X18127444Y-14444644D01*
X18127444Y-14515356D01*
X18198156Y-14515356D01*
X18452156Y-14007356D02*
X18452156Y-13936644D01*
X18381444Y-13936644D01*
X18381444Y-14007356D01*
X18452156Y-14007356D01*
X18452156Y-14515356D02*
X18452156Y-14444644D01*
X18381444Y-14444644D01*
X18381444Y-14515356D01*
X18452156Y-14515356D01*
X18706156Y-14007356D02*
X18706156Y-13936644D01*
X18635444Y-13936644D01*
X18635444Y-14007356D01*
X18706156Y-14007356D01*
X18706156Y-14515356D02*
X18706156Y-14444644D01*
X18635444Y-14444644D01*
X18635444Y-14515356D01*
X18706156Y-14515356D01*
X18960156Y-14007356D02*
X18960156Y-13936644D01*
X18889444Y-13936644D01*
X18889444Y-14007356D01*
X18960156Y-14007356D01*
X18960156Y-14515356D02*
X18960156Y-14444644D01*
X18889444Y-14444644D01*
X18889444Y-14515356D01*
X18960156Y-14515356D01*
X19212356Y-6572756D02*
X19212356Y-6502044D01*
X19141644Y-6502044D01*
X19141644Y-6572756D01*
X19212356Y-6572756D01*
X19212356Y-6849756D02*
X19212356Y-6779044D01*
X19141644Y-6779044D01*
X19141644Y-6849756D01*
X19212356Y-6849756D01*
X19212356Y-7126756D02*
X19212356Y-7056044D01*
X19141644Y-7056044D01*
X19141644Y-7126756D01*
X19212356Y-7126756D01*
X19212356Y-7403756D02*
X19212356Y-7333044D01*
X19141644Y-7333044D01*
X19141644Y-7403756D01*
X19212356Y-7403756D01*
X19212356Y-7680756D02*
X19212356Y-7610044D01*
X19141644Y-7610044D01*
X19141644Y-7680756D01*
X19212356Y-7680756D01*
X19212356Y-10103356D02*
X19212356Y-10032644D01*
X19141644Y-10032644D01*
X19141644Y-10103356D01*
X19212356Y-10103356D01*
X19212356Y-10380356D02*
X19212356Y-10309644D01*
X19141644Y-10309644D01*
X19141644Y-10380356D01*
X19212356Y-10380356D01*
X19212356Y-10657356D02*
X19212356Y-10586644D01*
X19141644Y-10586644D01*
X19141644Y-10657356D01*
X19212356Y-10657356D01*
X19212356Y-10934356D02*
X19212356Y-10863644D01*
X19141644Y-10863644D01*
X19141644Y-10934356D01*
X19212356Y-10934356D01*
X19212356Y-11211356D02*
X19212356Y-11140644D01*
X19141644Y-11140644D01*
X19141644Y-11211356D01*
X19212356Y-11211356D01*
X19496356Y-6711256D02*
X19496356Y-6640544D01*
X19425644Y-6640544D01*
X19425644Y-6711256D01*
X19496356Y-6711256D01*
X19496356Y-6988256D02*
X19496356Y-6917544D01*
X19425644Y-6917544D01*
X19425644Y-6988256D01*
X19496356Y-6988256D01*
X19496356Y-7265256D02*
X19496356Y-7194544D01*
X19425644Y-7194544D01*
X19425644Y-7265256D01*
X19496356Y-7265256D01*
X19496356Y-7542256D02*
X19496356Y-7471544D01*
X19425644Y-7471544D01*
X19425644Y-7542256D01*
X19496356Y-7542256D01*
X19496356Y-10241856D02*
X19496356Y-10171144D01*
X19425644Y-10171144D01*
X19425644Y-10241856D01*
X19496356Y-10241856D01*
X19496356Y-10518856D02*
X19496356Y-10448144D01*
X19425644Y-10448144D01*
X19425644Y-10518856D01*
X19496356Y-10518856D01*
X19496356Y-10795856D02*
X19496356Y-10725144D01*
X19425644Y-10725144D01*
X19425644Y-10795856D01*
X19496356Y-10795856D01*
X19496356Y-11072856D02*
X19496356Y-11002144D01*
X19425644Y-11002144D01*
X19425644Y-11072856D01*
X19496356Y-11072856D01*
X19207000Y-6001400D02*
X19367000Y-5841400D01*
X19207000Y-5681400D01*
X19047000Y-5841400D01*
X19207000Y-6001400D01*
X19207000Y-8501400D02*
X19367000Y-8341400D01*
X19207000Y-8181400D01*
X19047000Y-8341400D01*
X19207000Y-8501400D01*
X19207000Y-9532000D02*
X19367000Y-9372000D01*
X19207000Y-9212000D01*
X19047000Y-9372000D01*
X19207000Y-9532000D01*
X19207000Y-12032000D02*
X19367000Y-11872000D01*
X19207000Y-11712000D01*
X19047000Y-11872000D01*
X19207000Y-12032000D01*
D12*
X10283928Y-15468214D02*
X10283928Y-15168214D01*
X10355357Y-15168214D01*
X10398214Y-15182500D01*
X10426786Y-15211071D01*
X10441071Y-15239643D01*
X10455357Y-15296786D01*
X10455357Y-15339643D01*
X10441071Y-15396786D01*
X10426786Y-15425357D01*
X10398214Y-15453929D01*
X10355357Y-15468214D01*
X10283928Y-15468214D01*
X10583928Y-15468214D02*
X10583928Y-15268214D01*
X10583928Y-15325357D02*
X10598214Y-15296786D01*
X10612500Y-15282500D01*
X10641071Y-15268214D01*
X10669643Y-15268214D01*
X10769643Y-15468214D02*
X10769643Y-15268214D01*
X10769643Y-15168214D02*
X10755357Y-15182500D01*
X10769643Y-15196786D01*
X10783928Y-15182500D01*
X10769643Y-15168214D01*
X10769643Y-15196786D01*
X10955357Y-15468214D02*
X10926786Y-15453929D01*
X10912500Y-15425357D01*
X10912500Y-15168214D01*
X11112500Y-15468214D02*
X11083928Y-15453929D01*
X11069643Y-15425357D01*
X11069643Y-15168214D01*
X11455357Y-15468214D02*
X11455357Y-15168214D01*
X11555357Y-15382500D01*
X11655357Y-15168214D01*
X11655357Y-15468214D01*
X11926786Y-15468214D02*
X11926786Y-15311071D01*
X11912500Y-15282500D01*
X11883928Y-15268214D01*
X11826786Y-15268214D01*
X11798214Y-15282500D01*
X11926786Y-15453929D02*
X11898214Y-15468214D01*
X11826786Y-15468214D01*
X11798214Y-15453929D01*
X11783928Y-15425357D01*
X11783928Y-15396786D01*
X11798214Y-15368214D01*
X11826786Y-15353929D01*
X11898214Y-15353929D01*
X11926786Y-15339643D01*
X12069643Y-15268214D02*
X12069643Y-15568214D01*
X12069643Y-15282500D02*
X12098214Y-15268214D01*
X12155357Y-15268214D01*
X12183928Y-15282500D01*
X12198214Y-15296786D01*
X12212500Y-15325357D01*
X12212500Y-15411071D01*
X12198214Y-15439643D01*
X12183928Y-15453929D01*
X12155357Y-15468214D01*
X12098214Y-15468214D01*
X12069643Y-15453929D01*
X12341071Y-15439643D02*
X12355357Y-15453929D01*
X12341071Y-15468214D01*
X12326786Y-15453929D01*
X12341071Y-15439643D01*
X12341071Y-15468214D01*
X12341071Y-15282500D02*
X12355357Y-15296786D01*
X12341071Y-15311071D01*
X12326786Y-15296786D01*
X12341071Y-15282500D01*
X12341071Y-15311071D01*
X9957500Y-15942500D02*
X9997500Y-15982500D01*
X9997500Y-15942500D02*
X9957500Y-15982500D01*
X10341071Y-15798214D02*
X10369643Y-15798214D01*
X10398214Y-15812500D01*
X10412500Y-15826786D01*
X10426786Y-15855357D01*
X10441071Y-15912500D01*
X10441071Y-15983929D01*
X10426786Y-16041071D01*
X10412500Y-16069643D01*
X10398214Y-16083929D01*
X10369643Y-16098214D01*
X10341071Y-16098214D01*
X10312500Y-16083929D01*
X10298214Y-16069643D01*
X10283928Y-16041071D01*
X10269643Y-15983929D01*
X10269643Y-15912500D01*
X10283928Y-15855357D01*
X10298214Y-15826786D01*
X10312500Y-15812500D01*
X10341071Y-15798214D01*
X10569643Y-16069643D02*
X10583928Y-16083929D01*
X10569643Y-16098214D01*
X10555357Y-16083929D01*
X10569643Y-16069643D01*
X10569643Y-16098214D01*
X10841071Y-15898214D02*
X10841071Y-16098214D01*
X10769643Y-15783929D02*
X10698214Y-15998214D01*
X10883928Y-15998214D01*
X11055357Y-15798214D02*
X11083928Y-15798214D01*
X11112500Y-15812500D01*
X11126786Y-15826786D01*
X11141071Y-15855357D01*
X11155357Y-15912500D01*
X11155357Y-15983929D01*
X11141071Y-16041071D01*
X11126786Y-16069643D01*
X11112500Y-16083929D01*
X11083928Y-16098214D01*
X11055357Y-16098214D01*
X11026786Y-16083929D01*
X11012500Y-16069643D01*
X10998214Y-16041071D01*
X10983928Y-15983929D01*
X10983928Y-15912500D01*
X10998214Y-15855357D01*
X11012500Y-15826786D01*
X11026786Y-15812500D01*
X11055357Y-15798214D01*
X11341071Y-15798214D02*
X11369643Y-15798214D01*
X11398214Y-15812500D01*
X11412500Y-15826786D01*
X11426786Y-15855357D01*
X11441071Y-15912500D01*
X11441071Y-15983929D01*
X11426786Y-16041071D01*
X11412500Y-16069643D01*
X11398214Y-16083929D01*
X11369643Y-16098214D01*
X11341071Y-16098214D01*
X11312500Y-16083929D01*
X11298214Y-16069643D01*
X11283928Y-16041071D01*
X11269643Y-15983929D01*
X11269643Y-15912500D01*
X11283928Y-15855357D01*
X11298214Y-15826786D01*
X11312500Y-15812500D01*
X11341071Y-15798214D01*
X11569643Y-16098214D02*
X11569643Y-15898214D01*
X11569643Y-15926786D02*
X11583928Y-15912500D01*
X11612500Y-15898214D01*
X11655357Y-15898214D01*
X11683928Y-15912500D01*
X11698214Y-15941071D01*
X11698214Y-16098214D01*
X11698214Y-15941071D02*
X11712500Y-15912500D01*
X11741071Y-15898214D01*
X11783928Y-15898214D01*
X11812500Y-15912500D01*
X11826786Y-15941071D01*
X11826786Y-16098214D01*
X11969643Y-16098214D02*
X11969643Y-15898214D01*
X11969643Y-15926786D02*
X11983928Y-15912500D01*
X12012500Y-15898214D01*
X12055357Y-15898214D01*
X12083928Y-15912500D01*
X12098214Y-15941071D01*
X12098214Y-16098214D01*
X12098214Y-15941071D02*
X12112500Y-15912500D01*
X12141071Y-15898214D01*
X12183928Y-15898214D01*
X12212500Y-15912500D01*
X12226786Y-15941071D01*
X12226786Y-16098214D01*
X12812500Y-15783929D02*
X12555357Y-16169643D01*
X13198214Y-15798214D02*
X13226786Y-15798214D01*
X13255357Y-15812500D01*
X13269643Y-15826786D01*
X13283928Y-15855357D01*
X13298214Y-15912500D01*
X13298214Y-15983929D01*
X13283928Y-16041071D01*
X13269643Y-16069643D01*
X13255357Y-16083929D01*
X13226786Y-16098214D01*
X13198214Y-16098214D01*
X13169643Y-16083929D01*
X13155357Y-16069643D01*
X13141071Y-16041071D01*
X13126786Y-15983929D01*
X13126786Y-15912500D01*
X13141071Y-15855357D01*
X13155357Y-15826786D01*
X13169643Y-15812500D01*
X13198214Y-15798214D01*
X13426786Y-16069643D02*
X13441071Y-16083929D01*
X13426786Y-16098214D01*
X13412500Y-16083929D01*
X13426786Y-16069643D01*
X13426786Y-16098214D01*
X13626786Y-15798214D02*
X13655357Y-15798214D01*
X13683928Y-15812500D01*
X13698214Y-15826786D01*
X13712500Y-15855357D01*
X13726786Y-15912500D01*
X13726786Y-15983929D01*
X13712500Y-16041071D01*
X13698214Y-16069643D01*
X13683928Y-16083929D01*
X13655357Y-16098214D01*
X13626786Y-16098214D01*
X13598214Y-16083929D01*
X13583928Y-16069643D01*
X13569643Y-16041071D01*
X13555357Y-15983929D01*
X13555357Y-15912500D01*
X13569643Y-15855357D01*
X13583928Y-15826786D01*
X13598214Y-15812500D01*
X13626786Y-15798214D01*
X14012500Y-16098214D02*
X13841071Y-16098214D01*
X13926786Y-16098214D02*
X13926786Y-15798214D01*
X13898214Y-15841071D01*
X13869643Y-15869643D01*
X13841071Y-15883929D01*
X14283928Y-15798214D02*
X14141071Y-15798214D01*
X14126786Y-15941071D01*
X14141071Y-15926786D01*
X14169643Y-15912500D01*
X14241071Y-15912500D01*
X14269643Y-15926786D01*
X14283928Y-15941071D01*
X14298214Y-15969643D01*
X14298214Y-16041071D01*
X14283928Y-16069643D01*
X14269643Y-16083929D01*
X14241071Y-16098214D01*
X14169643Y-16098214D01*
X14141071Y-16083929D01*
X14126786Y-16069643D01*
X14398214Y-15798214D02*
X14598214Y-15798214D01*
X14469643Y-16098214D01*
X14698214Y-15798214D02*
X14698214Y-15855357D01*
X14812500Y-15798214D02*
X14812500Y-15855357D01*
X15255357Y-16212500D02*
X15241071Y-16198214D01*
X15212500Y-16155357D01*
X15198214Y-16126786D01*
X15183928Y-16083929D01*
X15169643Y-16012500D01*
X15169643Y-15955357D01*
X15183928Y-15883929D01*
X15198214Y-15841071D01*
X15212500Y-15812500D01*
X15241071Y-15769643D01*
X15255357Y-15755357D01*
X15498214Y-15798214D02*
X15441071Y-15798214D01*
X15412500Y-15812500D01*
X15398214Y-15826786D01*
X15369643Y-15869643D01*
X15355357Y-15926786D01*
X15355357Y-16041071D01*
X15369643Y-16069643D01*
X15383928Y-16083929D01*
X15412500Y-16098214D01*
X15469643Y-16098214D01*
X15498214Y-16083929D01*
X15512500Y-16069643D01*
X15526786Y-16041071D01*
X15526786Y-15969643D01*
X15512500Y-15941071D01*
X15498214Y-15926786D01*
X15469643Y-15912500D01*
X15412500Y-15912500D01*
X15383928Y-15926786D01*
X15369643Y-15941071D01*
X15355357Y-15969643D01*
X15783928Y-15798214D02*
X15726786Y-15798214D01*
X15698214Y-15812500D01*
X15683928Y-15826786D01*
X15655357Y-15869643D01*
X15641071Y-15926786D01*
X15641071Y-16041071D01*
X15655357Y-16069643D01*
X15669643Y-16083929D01*
X15698214Y-16098214D01*
X15755357Y-16098214D01*
X15783928Y-16083929D01*
X15798214Y-16069643D01*
X15812500Y-16041071D01*
X15812500Y-15969643D01*
X15798214Y-15941071D01*
X15783928Y-15926786D01*
X15755357Y-15912500D01*
X15698214Y-15912500D01*
X15669643Y-15926786D01*
X15655357Y-15941071D01*
X15641071Y-15969643D01*
X16169643Y-16098214D02*
X16169643Y-15798214D01*
X16298214Y-16098214D02*
X16298214Y-15941071D01*
X16283928Y-15912500D01*
X16255357Y-15898214D01*
X16212500Y-15898214D01*
X16183928Y-15912500D01*
X16169643Y-15926786D01*
X16483928Y-16098214D02*
X16455357Y-16083929D01*
X16441071Y-16069643D01*
X16426786Y-16041071D01*
X16426786Y-15955357D01*
X16441071Y-15926786D01*
X16455357Y-15912500D01*
X16483928Y-15898214D01*
X16526786Y-15898214D01*
X16555357Y-15912500D01*
X16569643Y-15926786D01*
X16583928Y-15955357D01*
X16583928Y-16041071D01*
X16569643Y-16069643D01*
X16555357Y-16083929D01*
X16526786Y-16098214D01*
X16483928Y-16098214D01*
X16755357Y-16098214D02*
X16726786Y-16083929D01*
X16712500Y-16055357D01*
X16712500Y-15798214D01*
X16983928Y-16083929D02*
X16955357Y-16098214D01*
X16898214Y-16098214D01*
X16869643Y-16083929D01*
X16855357Y-16055357D01*
X16855357Y-15941071D01*
X16869643Y-15912500D01*
X16898214Y-15898214D01*
X16955357Y-15898214D01*
X16983928Y-15912500D01*
X16998214Y-15941071D01*
X16998214Y-15969643D01*
X16855357Y-15998214D01*
X17112500Y-16083929D02*
X17141071Y-16098214D01*
X17198214Y-16098214D01*
X17226786Y-16083929D01*
X17241071Y-16055357D01*
X17241071Y-16041071D01*
X17226786Y-16012500D01*
X17198214Y-15998214D01*
X17155357Y-15998214D01*
X17126786Y-15983929D01*
X17112500Y-15955357D01*
X17112500Y-15941071D01*
X17126786Y-15912500D01*
X17155357Y-15898214D01*
X17198214Y-15898214D01*
X17226786Y-15912500D01*
X17341071Y-16212500D02*
X17355357Y-16198214D01*
X17383928Y-16155357D01*
X17398214Y-16126786D01*
X17412500Y-16083929D01*
X17426786Y-16012500D01*
X17426786Y-15955357D01*
X17412500Y-15883929D01*
X17398214Y-15841071D01*
X17383928Y-15812500D01*
X17355357Y-15769643D01*
X17341071Y-15755357D01*
X9997500Y-16358500D02*
G75*
G03*
X9997500Y-16358500I-40000J0D01*
G01*
X10341071Y-16194214D02*
X10369643Y-16194214D01*
X10398214Y-16208500D01*
X10412500Y-16222786D01*
X10426786Y-16251357D01*
X10441071Y-16308500D01*
X10441071Y-16379929D01*
X10426786Y-16437071D01*
X10412500Y-16465643D01*
X10398214Y-16479929D01*
X10369643Y-16494214D01*
X10341071Y-16494214D01*
X10312500Y-16479929D01*
X10298214Y-16465643D01*
X10283928Y-16437071D01*
X10269643Y-16379929D01*
X10269643Y-16308500D01*
X10283928Y-16251357D01*
X10298214Y-16222786D01*
X10312500Y-16208500D01*
X10341071Y-16194214D01*
X10569643Y-16465643D02*
X10583928Y-16479929D01*
X10569643Y-16494214D01*
X10555357Y-16479929D01*
X10569643Y-16465643D01*
X10569643Y-16494214D01*
X10755357Y-16322786D02*
X10726786Y-16308500D01*
X10712500Y-16294214D01*
X10698214Y-16265643D01*
X10698214Y-16251357D01*
X10712500Y-16222786D01*
X10726786Y-16208500D01*
X10755357Y-16194214D01*
X10812500Y-16194214D01*
X10841071Y-16208500D01*
X10855357Y-16222786D01*
X10869643Y-16251357D01*
X10869643Y-16265643D01*
X10855357Y-16294214D01*
X10841071Y-16308500D01*
X10812500Y-16322786D01*
X10755357Y-16322786D01*
X10726786Y-16337071D01*
X10712500Y-16351357D01*
X10698214Y-16379929D01*
X10698214Y-16437071D01*
X10712500Y-16465643D01*
X10726786Y-16479929D01*
X10755357Y-16494214D01*
X10812500Y-16494214D01*
X10841071Y-16479929D01*
X10855357Y-16465643D01*
X10869643Y-16437071D01*
X10869643Y-16379929D01*
X10855357Y-16351357D01*
X10841071Y-16337071D01*
X10812500Y-16322786D01*
X11055357Y-16194214D02*
X11083928Y-16194214D01*
X11112500Y-16208500D01*
X11126786Y-16222786D01*
X11141071Y-16251357D01*
X11155357Y-16308500D01*
X11155357Y-16379929D01*
X11141071Y-16437071D01*
X11126786Y-16465643D01*
X11112500Y-16479929D01*
X11083928Y-16494214D01*
X11055357Y-16494214D01*
X11026786Y-16479929D01*
X11012500Y-16465643D01*
X10998214Y-16437071D01*
X10983928Y-16379929D01*
X10983928Y-16308500D01*
X10998214Y-16251357D01*
X11012500Y-16222786D01*
X11026786Y-16208500D01*
X11055357Y-16194214D01*
X11341071Y-16194214D02*
X11369643Y-16194214D01*
X11398214Y-16208500D01*
X11412500Y-16222786D01*
X11426786Y-16251357D01*
X11441071Y-16308500D01*
X11441071Y-16379929D01*
X11426786Y-16437071D01*
X11412500Y-16465643D01*
X11398214Y-16479929D01*
X11369643Y-16494214D01*
X11341071Y-16494214D01*
X11312500Y-16479929D01*
X11298214Y-16465643D01*
X11283928Y-16437071D01*
X11269643Y-16379929D01*
X11269643Y-16308500D01*
X11283928Y-16251357D01*
X11298214Y-16222786D01*
X11312500Y-16208500D01*
X11341071Y-16194214D01*
X11569643Y-16494214D02*
X11569643Y-16294214D01*
X11569643Y-16322786D02*
X11583928Y-16308500D01*
X11612500Y-16294214D01*
X11655357Y-16294214D01*
X11683928Y-16308500D01*
X11698214Y-16337071D01*
X11698214Y-16494214D01*
X11698214Y-16337071D02*
X11712500Y-16308500D01*
X11741071Y-16294214D01*
X11783928Y-16294214D01*
X11812500Y-16308500D01*
X11826786Y-16337071D01*
X11826786Y-16494214D01*
X11969643Y-16494214D02*
X11969643Y-16294214D01*
X11969643Y-16322786D02*
X11983928Y-16308500D01*
X12012500Y-16294214D01*
X12055357Y-16294214D01*
X12083928Y-16308500D01*
X12098214Y-16337071D01*
X12098214Y-16494214D01*
X12098214Y-16337071D02*
X12112500Y-16308500D01*
X12141071Y-16294214D01*
X12183928Y-16294214D01*
X12212500Y-16308500D01*
X12226786Y-16337071D01*
X12226786Y-16494214D01*
X12812500Y-16179929D02*
X12555357Y-16565643D01*
X13198214Y-16194214D02*
X13226786Y-16194214D01*
X13255357Y-16208500D01*
X13269643Y-16222786D01*
X13283928Y-16251357D01*
X13298214Y-16308500D01*
X13298214Y-16379929D01*
X13283928Y-16437071D01*
X13269643Y-16465643D01*
X13255357Y-16479929D01*
X13226786Y-16494214D01*
X13198214Y-16494214D01*
X13169643Y-16479929D01*
X13155357Y-16465643D01*
X13141071Y-16437071D01*
X13126786Y-16379929D01*
X13126786Y-16308500D01*
X13141071Y-16251357D01*
X13155357Y-16222786D01*
X13169643Y-16208500D01*
X13198214Y-16194214D01*
X13426786Y-16465643D02*
X13441071Y-16479929D01*
X13426786Y-16494214D01*
X13412500Y-16479929D01*
X13426786Y-16465643D01*
X13426786Y-16494214D01*
X13626786Y-16194214D02*
X13655357Y-16194214D01*
X13683928Y-16208500D01*
X13698214Y-16222786D01*
X13712500Y-16251357D01*
X13726786Y-16308500D01*
X13726786Y-16379929D01*
X13712500Y-16437071D01*
X13698214Y-16465643D01*
X13683928Y-16479929D01*
X13655357Y-16494214D01*
X13626786Y-16494214D01*
X13598214Y-16479929D01*
X13583928Y-16465643D01*
X13569643Y-16437071D01*
X13555357Y-16379929D01*
X13555357Y-16308500D01*
X13569643Y-16251357D01*
X13583928Y-16222786D01*
X13598214Y-16208500D01*
X13626786Y-16194214D01*
X13826786Y-16194214D02*
X14012500Y-16194214D01*
X13912500Y-16308500D01*
X13955357Y-16308500D01*
X13983928Y-16322786D01*
X13998214Y-16337071D01*
X14012500Y-16365643D01*
X14012500Y-16437071D01*
X13998214Y-16465643D01*
X13983928Y-16479929D01*
X13955357Y-16494214D01*
X13869643Y-16494214D01*
X13841071Y-16479929D01*
X13826786Y-16465643D01*
X14298214Y-16494214D02*
X14126786Y-16494214D01*
X14212500Y-16494214D02*
X14212500Y-16194214D01*
X14183928Y-16237071D01*
X14155357Y-16265643D01*
X14126786Y-16279929D01*
X14569643Y-16194214D02*
X14426786Y-16194214D01*
X14412500Y-16337071D01*
X14426786Y-16322786D01*
X14455357Y-16308500D01*
X14526786Y-16308500D01*
X14555357Y-16322786D01*
X14569643Y-16337071D01*
X14583928Y-16365643D01*
X14583928Y-16437071D01*
X14569643Y-16465643D01*
X14555357Y-16479929D01*
X14526786Y-16494214D01*
X14455357Y-16494214D01*
X14426786Y-16479929D01*
X14412500Y-16465643D01*
X14698214Y-16194214D02*
X14698214Y-16251357D01*
X14812500Y-16194214D02*
X14812500Y-16251357D01*
X15255357Y-16608500D02*
X15241071Y-16594214D01*
X15212500Y-16551357D01*
X15198214Y-16522786D01*
X15183928Y-16479929D01*
X15169643Y-16408500D01*
X15169643Y-16351357D01*
X15183928Y-16279929D01*
X15198214Y-16237071D01*
X15212500Y-16208500D01*
X15241071Y-16165643D01*
X15255357Y-16151357D01*
X15526786Y-16494214D02*
X15355357Y-16494214D01*
X15441071Y-16494214D02*
X15441071Y-16194214D01*
X15412500Y-16237071D01*
X15383928Y-16265643D01*
X15355357Y-16279929D01*
X15812500Y-16494214D02*
X15641071Y-16494214D01*
X15726786Y-16494214D02*
X15726786Y-16194214D01*
X15698214Y-16237071D01*
X15669643Y-16265643D01*
X15641071Y-16279929D01*
X16069643Y-16294214D02*
X16069643Y-16494214D01*
X15998214Y-16179929D02*
X15926786Y-16394214D01*
X16112500Y-16394214D01*
X16455357Y-16494214D02*
X16455357Y-16194214D01*
X16583928Y-16494214D02*
X16583928Y-16337071D01*
X16569643Y-16308500D01*
X16541071Y-16294214D01*
X16498214Y-16294214D01*
X16469643Y-16308500D01*
X16455357Y-16322786D01*
X16769643Y-16494214D02*
X16741071Y-16479929D01*
X16726786Y-16465643D01*
X16712500Y-16437071D01*
X16712500Y-16351357D01*
X16726786Y-16322786D01*
X16741071Y-16308500D01*
X16769643Y-16294214D01*
X16812500Y-16294214D01*
X16841071Y-16308500D01*
X16855357Y-16322786D01*
X16869643Y-16351357D01*
X16869643Y-16437071D01*
X16855357Y-16465643D01*
X16841071Y-16479929D01*
X16812500Y-16494214D01*
X16769643Y-16494214D01*
X17041071Y-16494214D02*
X17012500Y-16479929D01*
X16998214Y-16451357D01*
X16998214Y-16194214D01*
X17269643Y-16479929D02*
X17241071Y-16494214D01*
X17183928Y-16494214D01*
X17155357Y-16479929D01*
X17141071Y-16451357D01*
X17141071Y-16337071D01*
X17155357Y-16308500D01*
X17183928Y-16294214D01*
X17241071Y-16294214D01*
X17269643Y-16308500D01*
X17283928Y-16337071D01*
X17283928Y-16365643D01*
X17141071Y-16394214D01*
X17398214Y-16479929D02*
X17426786Y-16494214D01*
X17483928Y-16494214D01*
X17512500Y-16479929D01*
X17526786Y-16451357D01*
X17526786Y-16437071D01*
X17512500Y-16408500D01*
X17483928Y-16394214D01*
X17441071Y-16394214D01*
X17412500Y-16379929D01*
X17398214Y-16351357D01*
X17398214Y-16337071D01*
X17412500Y-16308500D01*
X17441071Y-16294214D01*
X17483928Y-16294214D01*
X17512500Y-16308500D01*
X17626786Y-16608500D02*
X17641071Y-16594214D01*
X17669643Y-16551357D01*
X17683928Y-16522786D01*
X17698214Y-16479929D01*
X17712500Y-16408500D01*
X17712500Y-16351357D01*
X17698214Y-16279929D01*
X17683928Y-16237071D01*
X17669643Y-16208500D01*
X17641071Y-16165643D01*
X17626786Y-16151357D01*
X9952500Y-16709500D02*
X9952500Y-16799500D01*
X9907500Y-16754500D02*
X9997500Y-16754500D01*
X10341071Y-16590214D02*
X10369643Y-16590214D01*
X10398214Y-16604500D01*
X10412500Y-16618786D01*
X10426786Y-16647357D01*
X10441071Y-16704500D01*
X10441071Y-16775929D01*
X10426786Y-16833072D01*
X10412500Y-16861643D01*
X10398214Y-16875929D01*
X10369643Y-16890214D01*
X10341071Y-16890214D01*
X10312500Y-16875929D01*
X10298214Y-16861643D01*
X10283928Y-16833072D01*
X10269643Y-16775929D01*
X10269643Y-16704500D01*
X10283928Y-16647357D01*
X10298214Y-16618786D01*
X10312500Y-16604500D01*
X10341071Y-16590214D01*
X10569643Y-16861643D02*
X10583928Y-16875929D01*
X10569643Y-16890214D01*
X10555357Y-16875929D01*
X10569643Y-16861643D01*
X10569643Y-16890214D01*
X10726786Y-16890214D02*
X10783928Y-16890214D01*
X10812500Y-16875929D01*
X10826786Y-16861643D01*
X10855357Y-16818786D01*
X10869643Y-16761643D01*
X10869643Y-16647357D01*
X10855357Y-16618786D01*
X10841071Y-16604500D01*
X10812500Y-16590214D01*
X10755357Y-16590214D01*
X10726786Y-16604500D01*
X10712500Y-16618786D01*
X10698214Y-16647357D01*
X10698214Y-16718786D01*
X10712500Y-16747357D01*
X10726786Y-16761643D01*
X10755357Y-16775929D01*
X10812500Y-16775929D01*
X10841071Y-16761643D01*
X10855357Y-16747357D01*
X10869643Y-16718786D01*
X11055357Y-16590214D02*
X11083928Y-16590214D01*
X11112500Y-16604500D01*
X11126786Y-16618786D01*
X11141071Y-16647357D01*
X11155357Y-16704500D01*
X11155357Y-16775929D01*
X11141071Y-16833072D01*
X11126786Y-16861643D01*
X11112500Y-16875929D01*
X11083928Y-16890214D01*
X11055357Y-16890214D01*
X11026786Y-16875929D01*
X11012500Y-16861643D01*
X10998214Y-16833072D01*
X10983928Y-16775929D01*
X10983928Y-16704500D01*
X10998214Y-16647357D01*
X11012500Y-16618786D01*
X11026786Y-16604500D01*
X11055357Y-16590214D01*
X11341071Y-16590214D02*
X11369643Y-16590214D01*
X11398214Y-16604500D01*
X11412500Y-16618786D01*
X11426786Y-16647357D01*
X11441071Y-16704500D01*
X11441071Y-16775929D01*
X11426786Y-16833072D01*
X11412500Y-16861643D01*
X11398214Y-16875929D01*
X11369643Y-16890214D01*
X11341071Y-16890214D01*
X11312500Y-16875929D01*
X11298214Y-16861643D01*
X11283928Y-16833072D01*
X11269643Y-16775929D01*
X11269643Y-16704500D01*
X11283928Y-16647357D01*
X11298214Y-16618786D01*
X11312500Y-16604500D01*
X11341071Y-16590214D01*
X11569643Y-16890214D02*
X11569643Y-16690214D01*
X11569643Y-16718786D02*
X11583928Y-16704500D01*
X11612500Y-16690214D01*
X11655357Y-16690214D01*
X11683928Y-16704500D01*
X11698214Y-16733071D01*
X11698214Y-16890214D01*
X11698214Y-16733071D02*
X11712500Y-16704500D01*
X11741071Y-16690214D01*
X11783928Y-16690214D01*
X11812500Y-16704500D01*
X11826786Y-16733071D01*
X11826786Y-16890214D01*
X11969643Y-16890214D02*
X11969643Y-16690214D01*
X11969643Y-16718786D02*
X11983928Y-16704500D01*
X12012500Y-16690214D01*
X12055357Y-16690214D01*
X12083928Y-16704500D01*
X12098214Y-16733071D01*
X12098214Y-16890214D01*
X12098214Y-16733071D02*
X12112500Y-16704500D01*
X12141071Y-16690214D01*
X12183928Y-16690214D01*
X12212500Y-16704500D01*
X12226786Y-16733071D01*
X12226786Y-16890214D01*
X12812500Y-16575929D02*
X12555357Y-16961643D01*
X13198214Y-16590214D02*
X13226786Y-16590214D01*
X13255357Y-16604500D01*
X13269643Y-16618786D01*
X13283928Y-16647357D01*
X13298214Y-16704500D01*
X13298214Y-16775929D01*
X13283928Y-16833072D01*
X13269643Y-16861643D01*
X13255357Y-16875929D01*
X13226786Y-16890214D01*
X13198214Y-16890214D01*
X13169643Y-16875929D01*
X13155357Y-16861643D01*
X13141071Y-16833072D01*
X13126786Y-16775929D01*
X13126786Y-16704500D01*
X13141071Y-16647357D01*
X13155357Y-16618786D01*
X13169643Y-16604500D01*
X13198214Y-16590214D01*
X13426786Y-16861643D02*
X13441071Y-16875929D01*
X13426786Y-16890214D01*
X13412500Y-16875929D01*
X13426786Y-16861643D01*
X13426786Y-16890214D01*
X13626786Y-16590214D02*
X13655357Y-16590214D01*
X13683928Y-16604500D01*
X13698214Y-16618786D01*
X13712500Y-16647357D01*
X13726786Y-16704500D01*
X13726786Y-16775929D01*
X13712500Y-16833072D01*
X13698214Y-16861643D01*
X13683928Y-16875929D01*
X13655357Y-16890214D01*
X13626786Y-16890214D01*
X13598214Y-16875929D01*
X13583928Y-16861643D01*
X13569643Y-16833072D01*
X13555357Y-16775929D01*
X13555357Y-16704500D01*
X13569643Y-16647357D01*
X13583928Y-16618786D01*
X13598214Y-16604500D01*
X13626786Y-16590214D01*
X13826786Y-16590214D02*
X14012500Y-16590214D01*
X13912500Y-16704500D01*
X13955357Y-16704500D01*
X13983928Y-16718786D01*
X13998214Y-16733071D01*
X14012500Y-16761643D01*
X14012500Y-16833072D01*
X13998214Y-16861643D01*
X13983928Y-16875929D01*
X13955357Y-16890214D01*
X13869643Y-16890214D01*
X13841071Y-16875929D01*
X13826786Y-16861643D01*
X14283928Y-16590214D02*
X14141071Y-16590214D01*
X14126786Y-16733071D01*
X14141071Y-16718786D01*
X14169643Y-16704500D01*
X14241071Y-16704500D01*
X14269643Y-16718786D01*
X14283928Y-16733071D01*
X14298214Y-16761643D01*
X14298214Y-16833072D01*
X14283928Y-16861643D01*
X14269643Y-16875929D01*
X14241071Y-16890214D01*
X14169643Y-16890214D01*
X14141071Y-16875929D01*
X14126786Y-16861643D01*
X14555357Y-16690214D02*
X14555357Y-16890214D01*
X14483928Y-16575929D02*
X14412500Y-16790214D01*
X14598214Y-16790214D01*
X14698214Y-16590214D02*
X14698214Y-16647357D01*
X14812500Y-16590214D02*
X14812500Y-16647357D01*
X15255357Y-17004500D02*
X15241071Y-16990214D01*
X15212500Y-16947357D01*
X15198214Y-16918786D01*
X15183928Y-16875929D01*
X15169643Y-16804500D01*
X15169643Y-16747357D01*
X15183928Y-16675929D01*
X15198214Y-16633071D01*
X15212500Y-16604500D01*
X15241071Y-16561643D01*
X15255357Y-16547357D01*
X15355357Y-16618786D02*
X15369643Y-16604500D01*
X15398214Y-16590214D01*
X15469643Y-16590214D01*
X15498214Y-16604500D01*
X15512500Y-16618786D01*
X15526786Y-16647357D01*
X15526786Y-16675929D01*
X15512500Y-16718786D01*
X15341071Y-16890214D01*
X15526786Y-16890214D01*
X15883928Y-16890214D02*
X15883928Y-16590214D01*
X16012500Y-16890214D02*
X16012500Y-16733071D01*
X15998214Y-16704500D01*
X15969643Y-16690214D01*
X15926786Y-16690214D01*
X15898214Y-16704500D01*
X15883928Y-16718786D01*
X16198214Y-16890214D02*
X16169643Y-16875929D01*
X16155357Y-16861643D01*
X16141071Y-16833072D01*
X16141071Y-16747357D01*
X16155357Y-16718786D01*
X16169643Y-16704500D01*
X16198214Y-16690214D01*
X16241071Y-16690214D01*
X16269643Y-16704500D01*
X16283928Y-16718786D01*
X16298214Y-16747357D01*
X16298214Y-16833072D01*
X16283928Y-16861643D01*
X16269643Y-16875929D01*
X16241071Y-16890214D01*
X16198214Y-16890214D01*
X16469643Y-16890214D02*
X16441071Y-16875929D01*
X16426786Y-16847357D01*
X16426786Y-16590214D01*
X16698214Y-16875929D02*
X16669643Y-16890214D01*
X16612500Y-16890214D01*
X16583928Y-16875929D01*
X16569643Y-16847357D01*
X16569643Y-16733071D01*
X16583928Y-16704500D01*
X16612500Y-16690214D01*
X16669643Y-16690214D01*
X16698214Y-16704500D01*
X16712500Y-16733071D01*
X16712500Y-16761643D01*
X16569643Y-16790214D01*
X16826786Y-16875929D02*
X16855357Y-16890214D01*
X16912500Y-16890214D01*
X16941071Y-16875929D01*
X16955357Y-16847357D01*
X16955357Y-16833072D01*
X16941071Y-16804500D01*
X16912500Y-16790214D01*
X16869643Y-16790214D01*
X16841071Y-16775929D01*
X16826786Y-16747357D01*
X16826786Y-16733071D01*
X16841071Y-16704500D01*
X16869643Y-16690214D01*
X16912500Y-16690214D01*
X16941071Y-16704500D01*
X17055357Y-17004500D02*
X17069643Y-16990214D01*
X17098214Y-16947357D01*
X17112500Y-16918786D01*
X17126786Y-16875929D01*
X17141071Y-16804500D01*
X17141071Y-16747357D01*
X17126786Y-16675929D01*
X17112500Y-16633071D01*
X17098214Y-16604500D01*
X17069643Y-16561643D01*
X17055357Y-16547357D01*
X9982856Y-17185856D02*
X9982856Y-17115144D01*
X9912144Y-17115144D01*
X9912144Y-17185856D01*
X9982856Y-17185856D01*
X10441071Y-17286214D02*
X10269643Y-17286214D01*
X10355357Y-17286214D02*
X10355357Y-16986214D01*
X10326786Y-17029072D01*
X10298214Y-17057643D01*
X10269643Y-17071929D01*
X10569643Y-17257643D02*
X10583928Y-17271929D01*
X10569643Y-17286214D01*
X10555357Y-17271929D01*
X10569643Y-17257643D01*
X10569643Y-17286214D01*
X10769643Y-16986214D02*
X10798214Y-16986214D01*
X10826786Y-17000500D01*
X10841071Y-17014786D01*
X10855357Y-17043357D01*
X10869643Y-17100500D01*
X10869643Y-17171929D01*
X10855357Y-17229072D01*
X10841071Y-17257643D01*
X10826786Y-17271929D01*
X10798214Y-17286214D01*
X10769643Y-17286214D01*
X10741071Y-17271929D01*
X10726786Y-17257643D01*
X10712500Y-17229072D01*
X10698214Y-17171929D01*
X10698214Y-17100500D01*
X10712500Y-17043357D01*
X10726786Y-17014786D01*
X10741071Y-17000500D01*
X10769643Y-16986214D01*
X11055357Y-16986214D02*
X11083928Y-16986214D01*
X11112500Y-17000500D01*
X11126786Y-17014786D01*
X11141071Y-17043357D01*
X11155357Y-17100500D01*
X11155357Y-17171929D01*
X11141071Y-17229072D01*
X11126786Y-17257643D01*
X11112500Y-17271929D01*
X11083928Y-17286214D01*
X11055357Y-17286214D01*
X11026786Y-17271929D01*
X11012500Y-17257643D01*
X10998214Y-17229072D01*
X10983928Y-17171929D01*
X10983928Y-17100500D01*
X10998214Y-17043357D01*
X11012500Y-17014786D01*
X11026786Y-17000500D01*
X11055357Y-16986214D01*
X11341071Y-16986214D02*
X11369643Y-16986214D01*
X11398214Y-17000500D01*
X11412500Y-17014786D01*
X11426786Y-17043357D01*
X11441071Y-17100500D01*
X11441071Y-17171929D01*
X11426786Y-17229072D01*
X11412500Y-17257643D01*
X11398214Y-17271929D01*
X11369643Y-17286214D01*
X11341071Y-17286214D01*
X11312500Y-17271929D01*
X11298214Y-17257643D01*
X11283928Y-17229072D01*
X11269643Y-17171929D01*
X11269643Y-17100500D01*
X11283928Y-17043357D01*
X11298214Y-17014786D01*
X11312500Y-17000500D01*
X11341071Y-16986214D01*
X11569643Y-17286214D02*
X11569643Y-17086214D01*
X11569643Y-17114786D02*
X11583928Y-17100500D01*
X11612500Y-17086214D01*
X11655357Y-17086214D01*
X11683928Y-17100500D01*
X11698214Y-17129072D01*
X11698214Y-17286214D01*
X11698214Y-17129072D02*
X11712500Y-17100500D01*
X11741071Y-17086214D01*
X11783928Y-17086214D01*
X11812500Y-17100500D01*
X11826786Y-17129072D01*
X11826786Y-17286214D01*
X11969643Y-17286214D02*
X11969643Y-17086214D01*
X11969643Y-17114786D02*
X11983928Y-17100500D01*
X12012500Y-17086214D01*
X12055357Y-17086214D01*
X12083928Y-17100500D01*
X12098214Y-17129072D01*
X12098214Y-17286214D01*
X12098214Y-17129072D02*
X12112500Y-17100500D01*
X12141071Y-17086214D01*
X12183928Y-17086214D01*
X12212500Y-17100500D01*
X12226786Y-17129072D01*
X12226786Y-17286214D01*
X12812500Y-16971929D02*
X12555357Y-17357643D01*
X13198214Y-16986214D02*
X13226786Y-16986214D01*
X13255357Y-17000500D01*
X13269643Y-17014786D01*
X13283928Y-17043357D01*
X13298214Y-17100500D01*
X13298214Y-17171929D01*
X13283928Y-17229072D01*
X13269643Y-17257643D01*
X13255357Y-17271929D01*
X13226786Y-17286214D01*
X13198214Y-17286214D01*
X13169643Y-17271929D01*
X13155357Y-17257643D01*
X13141071Y-17229072D01*
X13126786Y-17171929D01*
X13126786Y-17100500D01*
X13141071Y-17043357D01*
X13155357Y-17014786D01*
X13169643Y-17000500D01*
X13198214Y-16986214D01*
X13426786Y-17257643D02*
X13441071Y-17271929D01*
X13426786Y-17286214D01*
X13412500Y-17271929D01*
X13426786Y-17257643D01*
X13426786Y-17286214D01*
X13626786Y-16986214D02*
X13655357Y-16986214D01*
X13683928Y-17000500D01*
X13698214Y-17014786D01*
X13712500Y-17043357D01*
X13726786Y-17100500D01*
X13726786Y-17171929D01*
X13712500Y-17229072D01*
X13698214Y-17257643D01*
X13683928Y-17271929D01*
X13655357Y-17286214D01*
X13626786Y-17286214D01*
X13598214Y-17271929D01*
X13583928Y-17257643D01*
X13569643Y-17229072D01*
X13555357Y-17171929D01*
X13555357Y-17100500D01*
X13569643Y-17043357D01*
X13583928Y-17014786D01*
X13598214Y-17000500D01*
X13626786Y-16986214D01*
X13826786Y-16986214D02*
X14012500Y-16986214D01*
X13912500Y-17100500D01*
X13955357Y-17100500D01*
X13983928Y-17114786D01*
X13998214Y-17129072D01*
X14012500Y-17157643D01*
X14012500Y-17229072D01*
X13998214Y-17257643D01*
X13983928Y-17271929D01*
X13955357Y-17286214D01*
X13869643Y-17286214D01*
X13841071Y-17271929D01*
X13826786Y-17257643D01*
X14155357Y-17286214D02*
X14212500Y-17286214D01*
X14241071Y-17271929D01*
X14255357Y-17257643D01*
X14283928Y-17214786D01*
X14298214Y-17157643D01*
X14298214Y-17043357D01*
X14283928Y-17014786D01*
X14269643Y-17000500D01*
X14241071Y-16986214D01*
X14183928Y-16986214D01*
X14155357Y-17000500D01*
X14141071Y-17014786D01*
X14126786Y-17043357D01*
X14126786Y-17114786D01*
X14141071Y-17143357D01*
X14155357Y-17157643D01*
X14183928Y-17171929D01*
X14241071Y-17171929D01*
X14269643Y-17157643D01*
X14283928Y-17143357D01*
X14298214Y-17114786D01*
X14555357Y-17086214D02*
X14555357Y-17286214D01*
X14483928Y-16971929D02*
X14412500Y-17186214D01*
X14598214Y-17186214D01*
X14698214Y-16986214D02*
X14698214Y-17043357D01*
X14812500Y-16986214D02*
X14812500Y-17043357D01*
X15255357Y-17400500D02*
X15241071Y-17386214D01*
X15212500Y-17343357D01*
X15198214Y-17314786D01*
X15183928Y-17271929D01*
X15169643Y-17200500D01*
X15169643Y-17143357D01*
X15183928Y-17071929D01*
X15198214Y-17029072D01*
X15212500Y-17000500D01*
X15241071Y-16957643D01*
X15255357Y-16943357D01*
X15412500Y-17114786D02*
X15383928Y-17100500D01*
X15369643Y-17086214D01*
X15355357Y-17057643D01*
X15355357Y-17043357D01*
X15369643Y-17014786D01*
X15383928Y-17000500D01*
X15412500Y-16986214D01*
X15469643Y-16986214D01*
X15498214Y-17000500D01*
X15512500Y-17014786D01*
X15526786Y-17043357D01*
X15526786Y-17057643D01*
X15512500Y-17086214D01*
X15498214Y-17100500D01*
X15469643Y-17114786D01*
X15412500Y-17114786D01*
X15383928Y-17129072D01*
X15369643Y-17143357D01*
X15355357Y-17171929D01*
X15355357Y-17229072D01*
X15369643Y-17257643D01*
X15383928Y-17271929D01*
X15412500Y-17286214D01*
X15469643Y-17286214D01*
X15498214Y-17271929D01*
X15512500Y-17257643D01*
X15526786Y-17229072D01*
X15526786Y-17171929D01*
X15512500Y-17143357D01*
X15498214Y-17129072D01*
X15469643Y-17114786D01*
X15698214Y-17114786D02*
X15669643Y-17100500D01*
X15655357Y-17086214D01*
X15641071Y-17057643D01*
X15641071Y-17043357D01*
X15655357Y-17014786D01*
X15669643Y-17000500D01*
X15698214Y-16986214D01*
X15755357Y-16986214D01*
X15783928Y-17000500D01*
X15798214Y-17014786D01*
X15812500Y-17043357D01*
X15812500Y-17057643D01*
X15798214Y-17086214D01*
X15783928Y-17100500D01*
X15755357Y-17114786D01*
X15698214Y-17114786D01*
X15669643Y-17129072D01*
X15655357Y-17143357D01*
X15641071Y-17171929D01*
X15641071Y-17229072D01*
X15655357Y-17257643D01*
X15669643Y-17271929D01*
X15698214Y-17286214D01*
X15755357Y-17286214D01*
X15783928Y-17271929D01*
X15798214Y-17257643D01*
X15812500Y-17229072D01*
X15812500Y-17171929D01*
X15798214Y-17143357D01*
X15783928Y-17129072D01*
X15755357Y-17114786D01*
X16169643Y-17286214D02*
X16169643Y-16986214D01*
X16298214Y-17286214D02*
X16298214Y-17129072D01*
X16283928Y-17100500D01*
X16255357Y-17086214D01*
X16212500Y-17086214D01*
X16183928Y-17100500D01*
X16169643Y-17114786D01*
X16483928Y-17286214D02*
X16455357Y-17271929D01*
X16441071Y-17257643D01*
X16426786Y-17229072D01*
X16426786Y-17143357D01*
X16441071Y-17114786D01*
X16455357Y-17100500D01*
X16483928Y-17086214D01*
X16526786Y-17086214D01*
X16555357Y-17100500D01*
X16569643Y-17114786D01*
X16583928Y-17143357D01*
X16583928Y-17229072D01*
X16569643Y-17257643D01*
X16555357Y-17271929D01*
X16526786Y-17286214D01*
X16483928Y-17286214D01*
X16755357Y-17286214D02*
X16726786Y-17271929D01*
X16712500Y-17243357D01*
X16712500Y-16986214D01*
X16983928Y-17271929D02*
X16955357Y-17286214D01*
X16898214Y-17286214D01*
X16869643Y-17271929D01*
X16855357Y-17243357D01*
X16855357Y-17129072D01*
X16869643Y-17100500D01*
X16898214Y-17086214D01*
X16955357Y-17086214D01*
X16983928Y-17100500D01*
X16998214Y-17129072D01*
X16998214Y-17157643D01*
X16855357Y-17186214D01*
X17112500Y-17271929D02*
X17141071Y-17286214D01*
X17198214Y-17286214D01*
X17226786Y-17271929D01*
X17241071Y-17243357D01*
X17241071Y-17229072D01*
X17226786Y-17200500D01*
X17198214Y-17186214D01*
X17155357Y-17186214D01*
X17126786Y-17171929D01*
X17112500Y-17143357D01*
X17112500Y-17129072D01*
X17126786Y-17100500D01*
X17155357Y-17086214D01*
X17198214Y-17086214D01*
X17226786Y-17100500D01*
X17341071Y-17400500D02*
X17355357Y-17386214D01*
X17383928Y-17343357D01*
X17398214Y-17314786D01*
X17412500Y-17271929D01*
X17426786Y-17200500D01*
X17426786Y-17143357D01*
X17412500Y-17071929D01*
X17398214Y-17029072D01*
X17383928Y-17000500D01*
X17355357Y-16957643D01*
X17341071Y-16943357D01*
X9837500Y-17706500D02*
X9997500Y-17546500D01*
X9837500Y-17386500D01*
X9677500Y-17546500D01*
X9837500Y-17706500D01*
X10255357Y-17382214D02*
X10441071Y-17382214D01*
X10341071Y-17496500D01*
X10383928Y-17496500D01*
X10412500Y-17510786D01*
X10426786Y-17525072D01*
X10441071Y-17553643D01*
X10441071Y-17625072D01*
X10426786Y-17653643D01*
X10412500Y-17667929D01*
X10383928Y-17682214D01*
X10298214Y-17682214D01*
X10269643Y-17667929D01*
X10255357Y-17653643D01*
X10569643Y-17653643D02*
X10583928Y-17667929D01*
X10569643Y-17682214D01*
X10555357Y-17667929D01*
X10569643Y-17653643D01*
X10569643Y-17682214D01*
X10698214Y-17410786D02*
X10712500Y-17396500D01*
X10741071Y-17382214D01*
X10812500Y-17382214D01*
X10841071Y-17396500D01*
X10855357Y-17410786D01*
X10869643Y-17439357D01*
X10869643Y-17467929D01*
X10855357Y-17510786D01*
X10683928Y-17682214D01*
X10869643Y-17682214D01*
X11055357Y-17382214D02*
X11083928Y-17382214D01*
X11112500Y-17396500D01*
X11126786Y-17410786D01*
X11141071Y-17439357D01*
X11155357Y-17496500D01*
X11155357Y-17567929D01*
X11141071Y-17625072D01*
X11126786Y-17653643D01*
X11112500Y-17667929D01*
X11083928Y-17682214D01*
X11055357Y-17682214D01*
X11026786Y-17667929D01*
X11012500Y-17653643D01*
X10998214Y-17625072D01*
X10983928Y-17567929D01*
X10983928Y-17496500D01*
X10998214Y-17439357D01*
X11012500Y-17410786D01*
X11026786Y-17396500D01*
X11055357Y-17382214D01*
X11341071Y-17382214D02*
X11369643Y-17382214D01*
X11398214Y-17396500D01*
X11412500Y-17410786D01*
X11426786Y-17439357D01*
X11441071Y-17496500D01*
X11441071Y-17567929D01*
X11426786Y-17625072D01*
X11412500Y-17653643D01*
X11398214Y-17667929D01*
X11369643Y-17682214D01*
X11341071Y-17682214D01*
X11312500Y-17667929D01*
X11298214Y-17653643D01*
X11283928Y-17625072D01*
X11269643Y-17567929D01*
X11269643Y-17496500D01*
X11283928Y-17439357D01*
X11298214Y-17410786D01*
X11312500Y-17396500D01*
X11341071Y-17382214D01*
X11569643Y-17682214D02*
X11569643Y-17482214D01*
X11569643Y-17510786D02*
X11583928Y-17496500D01*
X11612500Y-17482214D01*
X11655357Y-17482214D01*
X11683928Y-17496500D01*
X11698214Y-17525072D01*
X11698214Y-17682214D01*
X11698214Y-17525072D02*
X11712500Y-17496500D01*
X11741071Y-17482214D01*
X11783928Y-17482214D01*
X11812500Y-17496500D01*
X11826786Y-17525072D01*
X11826786Y-17682214D01*
X11969643Y-17682214D02*
X11969643Y-17482214D01*
X11969643Y-17510786D02*
X11983928Y-17496500D01*
X12012500Y-17482214D01*
X12055357Y-17482214D01*
X12083928Y-17496500D01*
X12098214Y-17525072D01*
X12098214Y-17682214D01*
X12098214Y-17525072D02*
X12112500Y-17496500D01*
X12141071Y-17482214D01*
X12183928Y-17482214D01*
X12212500Y-17496500D01*
X12226786Y-17525072D01*
X12226786Y-17682214D01*
X12812500Y-17367929D02*
X12555357Y-17753643D01*
X13198214Y-17382214D02*
X13226786Y-17382214D01*
X13255357Y-17396500D01*
X13269643Y-17410786D01*
X13283928Y-17439357D01*
X13298214Y-17496500D01*
X13298214Y-17567929D01*
X13283928Y-17625072D01*
X13269643Y-17653643D01*
X13255357Y-17667929D01*
X13226786Y-17682214D01*
X13198214Y-17682214D01*
X13169643Y-17667929D01*
X13155357Y-17653643D01*
X13141071Y-17625072D01*
X13126786Y-17567929D01*
X13126786Y-17496500D01*
X13141071Y-17439357D01*
X13155357Y-17410786D01*
X13169643Y-17396500D01*
X13198214Y-17382214D01*
X13426786Y-17653643D02*
X13441071Y-17667929D01*
X13426786Y-17682214D01*
X13412500Y-17667929D01*
X13426786Y-17653643D01*
X13426786Y-17682214D01*
X13726786Y-17682214D02*
X13555357Y-17682214D01*
X13641071Y-17682214D02*
X13641071Y-17382214D01*
X13612500Y-17425072D01*
X13583928Y-17453643D01*
X13555357Y-17467929D01*
X13841071Y-17410786D02*
X13855357Y-17396500D01*
X13883928Y-17382214D01*
X13955357Y-17382214D01*
X13983928Y-17396500D01*
X13998214Y-17410786D01*
X14012500Y-17439357D01*
X14012500Y-17467929D01*
X13998214Y-17510786D01*
X13826786Y-17682214D01*
X14012500Y-17682214D01*
X14269643Y-17382214D02*
X14212500Y-17382214D01*
X14183928Y-17396500D01*
X14169643Y-17410786D01*
X14141071Y-17453643D01*
X14126786Y-17510786D01*
X14126786Y-17625072D01*
X14141071Y-17653643D01*
X14155357Y-17667929D01*
X14183928Y-17682214D01*
X14241071Y-17682214D01*
X14269643Y-17667929D01*
X14283928Y-17653643D01*
X14298214Y-17625072D01*
X14298214Y-17553643D01*
X14283928Y-17525072D01*
X14269643Y-17510786D01*
X14241071Y-17496500D01*
X14183928Y-17496500D01*
X14155357Y-17510786D01*
X14141071Y-17525072D01*
X14126786Y-17553643D01*
X14483928Y-17382214D02*
X14512500Y-17382214D01*
X14541071Y-17396500D01*
X14555357Y-17410786D01*
X14569643Y-17439357D01*
X14583928Y-17496500D01*
X14583928Y-17567929D01*
X14569643Y-17625072D01*
X14555357Y-17653643D01*
X14541071Y-17667929D01*
X14512500Y-17682214D01*
X14483928Y-17682214D01*
X14455357Y-17667929D01*
X14441071Y-17653643D01*
X14426786Y-17625072D01*
X14412500Y-17567929D01*
X14412500Y-17496500D01*
X14426786Y-17439357D01*
X14441071Y-17410786D01*
X14455357Y-17396500D01*
X14483928Y-17382214D01*
X14698214Y-17382214D02*
X14698214Y-17439357D01*
X14812500Y-17382214D02*
X14812500Y-17439357D01*
X15255357Y-17796500D02*
X15241071Y-17782214D01*
X15212500Y-17739357D01*
X15198214Y-17710786D01*
X15183928Y-17667929D01*
X15169643Y-17596500D01*
X15169643Y-17539357D01*
X15183928Y-17467929D01*
X15198214Y-17425072D01*
X15212500Y-17396500D01*
X15241071Y-17353643D01*
X15255357Y-17339357D01*
X15498214Y-17482214D02*
X15498214Y-17682214D01*
X15426786Y-17367929D02*
X15355357Y-17582214D01*
X15541071Y-17582214D01*
X15883928Y-17682214D02*
X15883928Y-17382214D01*
X16012500Y-17682214D02*
X16012500Y-17525072D01*
X15998214Y-17496500D01*
X15969643Y-17482214D01*
X15926786Y-17482214D01*
X15898214Y-17496500D01*
X15883928Y-17510786D01*
X16198214Y-17682214D02*
X16169643Y-17667929D01*
X16155357Y-17653643D01*
X16141071Y-17625072D01*
X16141071Y-17539357D01*
X16155357Y-17510786D01*
X16169643Y-17496500D01*
X16198214Y-17482214D01*
X16241071Y-17482214D01*
X16269643Y-17496500D01*
X16283928Y-17510786D01*
X16298214Y-17539357D01*
X16298214Y-17625072D01*
X16283928Y-17653643D01*
X16269643Y-17667929D01*
X16241071Y-17682214D01*
X16198214Y-17682214D01*
X16469643Y-17682214D02*
X16441071Y-17667929D01*
X16426786Y-17639357D01*
X16426786Y-17382214D01*
X16698214Y-17667929D02*
X16669643Y-17682214D01*
X16612500Y-17682214D01*
X16583928Y-17667929D01*
X16569643Y-17639357D01*
X16569643Y-17525072D01*
X16583928Y-17496500D01*
X16612500Y-17482214D01*
X16669643Y-17482214D01*
X16698214Y-17496500D01*
X16712500Y-17525072D01*
X16712500Y-17553643D01*
X16569643Y-17582214D01*
X16826786Y-17667929D02*
X16855357Y-17682214D01*
X16912500Y-17682214D01*
X16941071Y-17667929D01*
X16955357Y-17639357D01*
X16955357Y-17625072D01*
X16941071Y-17596500D01*
X16912500Y-17582214D01*
X16869643Y-17582214D01*
X16841071Y-17567929D01*
X16826786Y-17539357D01*
X16826786Y-17525072D01*
X16841071Y-17496500D01*
X16869643Y-17482214D01*
X16912500Y-17482214D01*
X16941071Y-17496500D01*
X17055357Y-17796500D02*
X17069643Y-17782214D01*
X17098214Y-17739357D01*
X17112500Y-17710786D01*
X17126786Y-17667929D01*
X17141071Y-17596500D01*
X17141071Y-17539357D01*
X17126786Y-17467929D01*
X17112500Y-17425072D01*
X17098214Y-17396500D01*
X17069643Y-17353643D01*
X17055357Y-17339357D01*
M02*
