G04 #@! TF.GenerationSoftware,KiCad,Pcbnew,(5.1.10)-1*
G04 #@! TF.CreationDate,2021-07-30T10:40:04+01:00*
G04 #@! TF.ProjectId,JoypadController,4a6f7970-6164-4436-9f6e-74726f6c6c65,rev?*
G04 #@! TF.SameCoordinates,Original*
G04 #@! TF.FileFunction,Paste,Top*
G04 #@! TF.FilePolarity,Positive*
%FSLAX46Y46*%
G04 Gerber Fmt 4.6, Leading zero omitted, Abs format (unit mm)*
G04 Created by KiCad (PCBNEW (5.1.10)-1) date 2021-07-30 10:40:04*
%MOMM*%
%LPD*%
G01*
G04 APERTURE LIST*
%ADD10R,1.925000X0.700000*%
%ADD11R,0.700000X1.925000*%
G04 APERTURE END LIST*
D10*
X128867500Y-110684000D03*
X128867500Y-109414000D03*
X128867500Y-108144000D03*
X128867500Y-106874000D03*
X128867500Y-105604000D03*
X128867500Y-104334000D03*
X128867500Y-103064000D03*
X128867500Y-101794000D03*
X128867500Y-100524000D03*
X128867500Y-99254000D03*
X128867500Y-97984000D03*
D11*
X130380000Y-96471500D03*
X131650000Y-96471500D03*
X132920000Y-96471500D03*
X134190000Y-96471500D03*
X135460000Y-96471500D03*
X136730000Y-96471500D03*
X138000000Y-96471500D03*
X139270000Y-96471500D03*
X140540000Y-96471500D03*
X141810000Y-96471500D03*
X143080000Y-96471500D03*
D10*
X144592500Y-97984000D03*
X144592500Y-99254000D03*
X144592500Y-100524000D03*
X144592500Y-101794000D03*
X144592500Y-103064000D03*
X144592500Y-104334000D03*
X144592500Y-105604000D03*
X144592500Y-106874000D03*
X144592500Y-108144000D03*
X144592500Y-109414000D03*
X144592500Y-110684000D03*
D11*
X130380000Y-112196500D03*
X131650000Y-112196500D03*
X132920000Y-112196500D03*
X134190000Y-112196500D03*
X135460000Y-112196500D03*
X143080000Y-112196500D03*
X141810000Y-112196500D03*
X140540000Y-112196500D03*
X139270000Y-112196500D03*
X138000000Y-112196500D03*
X136730000Y-112196500D03*
M02*
