G04 #@! TF.GenerationSoftware,KiCad,Pcbnew,8.0.5*
G04 #@! TF.CreationDate,2024-10-19T15:21:04+01:00*
G04 #@! TF.ProjectId,GfxVGA,47667856-4741-42e6-9b69-6361645f7063,rev?*
G04 #@! TF.SameCoordinates,Original*
G04 #@! TF.FileFunction,Copper,L4,Bot*
G04 #@! TF.FilePolarity,Positive*
%FSLAX46Y46*%
G04 Gerber Fmt 4.6, Leading zero omitted, Abs format (unit mm)*
G04 Created by KiCad (PCBNEW 8.0.5) date 2024-10-19 15:21:04*
%MOMM*%
%LPD*%
G01*
G04 APERTURE LIST*
G04 Aperture macros list*
%AMRoundRect*
0 Rectangle with rounded corners*
0 $1 Rounding radius*
0 $2 $3 $4 $5 $6 $7 $8 $9 X,Y pos of 4 corners*
0 Add a 4 corners polygon primitive as box body*
4,1,4,$2,$3,$4,$5,$6,$7,$8,$9,$2,$3,0*
0 Add four circle primitives for the rounded corners*
1,1,$1+$1,$2,$3*
1,1,$1+$1,$4,$5*
1,1,$1+$1,$6,$7*
1,1,$1+$1,$8,$9*
0 Add four rect primitives between the rounded corners*
20,1,$1+$1,$2,$3,$4,$5,0*
20,1,$1+$1,$4,$5,$6,$7,0*
20,1,$1+$1,$6,$7,$8,$9,0*
20,1,$1+$1,$8,$9,$2,$3,0*%
G04 Aperture macros list end*
G04 #@! TA.AperFunction,ComponentPad*
%ADD10RoundRect,0.249999X0.525001X0.525001X-0.525001X0.525001X-0.525001X-0.525001X0.525001X-0.525001X0*%
G04 #@! TD*
G04 #@! TA.AperFunction,ComponentPad*
%ADD11C,1.550000*%
G04 #@! TD*
G04 #@! TA.AperFunction,ComponentPad*
%ADD12C,4.000000*%
G04 #@! TD*
G04 #@! TA.AperFunction,ComponentPad*
%ADD13R,1.600000X1.600000*%
G04 #@! TD*
G04 #@! TA.AperFunction,ComponentPad*
%ADD14C,1.600000*%
G04 #@! TD*
G04 #@! TA.AperFunction,ComponentPad*
%ADD15R,1.700000X1.700000*%
G04 #@! TD*
G04 #@! TA.AperFunction,ComponentPad*
%ADD16O,1.700000X1.700000*%
G04 #@! TD*
G04 #@! TA.AperFunction,SMDPad,CuDef*
%ADD17RoundRect,0.250000X-0.250000X-0.475000X0.250000X-0.475000X0.250000X0.475000X-0.250000X0.475000X0*%
G04 #@! TD*
G04 #@! TA.AperFunction,SMDPad,CuDef*
%ADD18RoundRect,0.250000X-0.475000X0.250000X-0.475000X-0.250000X0.475000X-0.250000X0.475000X0.250000X0*%
G04 #@! TD*
G04 #@! TA.AperFunction,SMDPad,CuDef*
%ADD19RoundRect,0.250000X0.262500X0.450000X-0.262500X0.450000X-0.262500X-0.450000X0.262500X-0.450000X0*%
G04 #@! TD*
G04 #@! TA.AperFunction,SMDPad,CuDef*
%ADD20RoundRect,0.250000X0.475000X-0.250000X0.475000X0.250000X-0.475000X0.250000X-0.475000X-0.250000X0*%
G04 #@! TD*
G04 #@! TA.AperFunction,SMDPad,CuDef*
%ADD21RoundRect,0.250000X0.250000X0.475000X-0.250000X0.475000X-0.250000X-0.475000X0.250000X-0.475000X0*%
G04 #@! TD*
G04 #@! TA.AperFunction,SMDPad,CuDef*
%ADD22RoundRect,0.250000X-0.450000X0.262500X-0.450000X-0.262500X0.450000X-0.262500X0.450000X0.262500X0*%
G04 #@! TD*
G04 #@! TA.AperFunction,SMDPad,CuDef*
%ADD23RoundRect,0.250000X-0.262500X-0.450000X0.262500X-0.450000X0.262500X0.450000X-0.262500X0.450000X0*%
G04 #@! TD*
G04 #@! TA.AperFunction,ViaPad*
%ADD24C,0.700000*%
G04 #@! TD*
G04 #@! TA.AperFunction,ViaPad*
%ADD25C,0.800000*%
G04 #@! TD*
G04 #@! TA.AperFunction,Conductor*
%ADD26C,0.210000*%
G04 #@! TD*
G04 #@! TA.AperFunction,Conductor*
%ADD27C,0.254000*%
G04 #@! TD*
G04 #@! TA.AperFunction,Conductor*
%ADD28C,0.250000*%
G04 #@! TD*
G04 APERTURE END LIST*
D10*
X188995000Y-144678400D03*
D11*
X186455000Y-144678400D03*
X183915000Y-144678400D03*
X181375000Y-144678400D03*
X178835000Y-144678400D03*
X176295000Y-144678400D03*
X173755000Y-144678400D03*
X171215000Y-144678400D03*
X168675000Y-144678400D03*
X166135000Y-144678400D03*
X163595000Y-144678400D03*
X161055000Y-144678400D03*
X158515000Y-144678400D03*
X155975000Y-144678400D03*
X153435000Y-144678400D03*
X150895000Y-144678400D03*
X148355000Y-144678400D03*
X145815000Y-144678400D03*
X143275000Y-144678400D03*
X140735000Y-144678400D03*
X138195000Y-144678400D03*
X135655000Y-144678400D03*
X133115000Y-144678400D03*
X130575000Y-144678400D03*
X128035000Y-144678400D03*
X125495000Y-144678400D03*
X122955000Y-144678400D03*
X120415000Y-144678400D03*
X117875000Y-144678400D03*
X115335000Y-144678400D03*
X112795000Y-144678400D03*
X110255000Y-144678400D03*
X188995000Y-139598400D03*
X186455000Y-139598400D03*
X183915000Y-139598400D03*
X181375000Y-139598400D03*
X178835000Y-139598400D03*
X176295000Y-139598400D03*
X173755000Y-139598400D03*
X171215000Y-139598400D03*
X168675000Y-139598400D03*
X166135000Y-139598400D03*
X163595000Y-139598400D03*
X161055000Y-139598400D03*
X158515000Y-139598400D03*
X155975000Y-139598400D03*
X153435000Y-139598400D03*
X150895000Y-139598400D03*
X148355000Y-139598400D03*
X145815000Y-139598400D03*
X143275000Y-139598400D03*
X140735000Y-139598400D03*
X138195000Y-139598400D03*
X135655000Y-139598400D03*
X133115000Y-139598400D03*
X130575000Y-139598400D03*
X128035000Y-139598400D03*
X125495000Y-139598400D03*
X122955000Y-139598400D03*
X120415000Y-139598400D03*
X117875000Y-139598400D03*
X115335000Y-139598400D03*
X112795000Y-139598400D03*
X110255000Y-139598400D03*
D12*
X194970400Y-110445600D03*
X194970400Y-85445600D03*
D13*
X192920400Y-93630600D03*
D14*
X192920400Y-95920600D03*
X192920400Y-98210600D03*
X192920400Y-100500600D03*
X192920400Y-102790600D03*
X194900400Y-92485600D03*
X194900400Y-94775600D03*
X194900400Y-97065600D03*
X194900400Y-99355600D03*
X194900400Y-101645600D03*
X196880400Y-93630600D03*
X196880400Y-95920600D03*
X196880400Y-98210600D03*
X196880400Y-100500600D03*
X196880400Y-102790600D03*
D15*
X164998400Y-69240400D03*
D16*
X167538400Y-69240400D03*
X170078400Y-69240400D03*
X172618400Y-69240400D03*
X175158400Y-69240400D03*
X177698400Y-69240400D03*
D17*
X183164400Y-128727200D03*
X185064400Y-128727200D03*
D18*
X160833000Y-87650400D03*
X160833000Y-89550400D03*
D17*
X170611800Y-129057400D03*
X172511800Y-129057400D03*
D19*
X142100000Y-109075000D03*
X140275000Y-109075000D03*
D20*
X160883800Y-94325600D03*
X160883800Y-92425600D03*
D19*
X147574200Y-100553600D03*
X145749200Y-100553600D03*
X137875000Y-109025000D03*
X136050000Y-109025000D03*
D17*
X157023000Y-84704000D03*
X158923000Y-84704000D03*
D21*
X152247800Y-100655200D03*
X150347800Y-100655200D03*
X148895000Y-84754800D03*
X146995000Y-84754800D03*
D17*
X128650000Y-128200000D03*
X130550000Y-128200000D03*
D21*
X138000000Y-113500000D03*
X136100000Y-113500000D03*
D17*
X120243600Y-128828800D03*
X122143600Y-128828800D03*
D22*
X164389000Y-103402200D03*
X164389000Y-105227200D03*
D23*
X158902600Y-100604400D03*
X160727600Y-100604400D03*
D17*
X154025000Y-128125000D03*
X155925000Y-128125000D03*
D23*
X179124600Y-128778000D03*
X180949600Y-128778000D03*
D19*
X133475000Y-108975000D03*
X131650000Y-108975000D03*
D21*
X152908200Y-84704000D03*
X151008200Y-84704000D03*
D18*
X144983400Y-88412400D03*
X144983400Y-90312400D03*
X144932600Y-93390800D03*
X144932600Y-95290800D03*
D17*
X146831800Y-116382000D03*
X148731800Y-116382000D03*
X120294400Y-132740400D03*
X122194400Y-132740400D03*
D21*
X152298600Y-96438800D03*
X150398600Y-96438800D03*
D17*
X170637200Y-132384800D03*
X172537200Y-132384800D03*
X141375000Y-128200000D03*
X143275000Y-128200000D03*
X146933400Y-112572000D03*
X148833400Y-112572000D03*
D23*
X154787800Y-100655200D03*
X156612800Y-100655200D03*
D21*
X187850000Y-132825000D03*
X185950000Y-132825000D03*
D24*
X117650000Y-95600000D03*
X114350000Y-125850000D03*
X175150000Y-131725000D03*
X160833000Y-89550400D03*
X133150000Y-117400000D03*
X135725000Y-72300000D03*
X164400000Y-105900000D03*
X163700000Y-134300000D03*
X151300000Y-112700000D03*
X173100000Y-129950000D03*
X196443600Y-79654400D03*
X125150000Y-97250000D03*
X130550000Y-128200000D03*
X146995000Y-84754800D03*
X135450000Y-127300000D03*
X135450000Y-134450000D03*
X144932600Y-95290800D03*
X104350000Y-109150000D03*
X158259000Y-111743200D03*
X151150000Y-132900000D03*
X104300000Y-99500000D03*
X138550000Y-135000000D03*
X114800000Y-109950000D03*
X109150000Y-95550000D03*
X135884100Y-120637800D03*
X150347800Y-100655200D03*
X145000000Y-91000000D03*
X175600000Y-125950000D03*
X151100000Y-115350000D03*
X185525000Y-132000000D03*
X156616400Y-99745800D03*
X138700000Y-80200000D03*
X118900000Y-101300000D03*
X185550000Y-129450000D03*
X162100000Y-99250000D03*
X110400000Y-116550000D03*
X144350000Y-85100000D03*
X158923000Y-84704000D03*
X117650000Y-88950000D03*
X118750000Y-125950000D03*
X151008200Y-84704000D03*
X149600000Y-96400000D03*
X193750000Y-127550000D03*
X153550000Y-101850000D03*
X112050000Y-134550000D03*
X122400000Y-108500000D03*
X143275000Y-128200000D03*
X117550000Y-65125000D03*
X125275000Y-126100000D03*
X145000000Y-109400000D03*
X160883800Y-92425600D03*
X136075000Y-115625000D03*
X115900000Y-73275000D03*
X109500000Y-135700000D03*
X197256400Y-116332000D03*
X114850000Y-113350000D03*
X101900000Y-126500000D03*
X124450000Y-134550000D03*
X155925000Y-128125000D03*
X111450000Y-123550000D03*
X162350000Y-84300000D03*
X114554000Y-134554000D03*
X122950000Y-129000000D03*
X109475000Y-126550000D03*
X159500000Y-102200000D03*
X157023000Y-84704000D03*
X144200000Y-101350000D03*
X166200000Y-93250000D03*
X162400000Y-95500000D03*
X142075000Y-110025000D03*
X158259000Y-115045200D03*
X170000000Y-130000000D03*
X144800000Y-112550000D03*
X158902600Y-100604400D03*
X133184100Y-120737800D03*
X193598800Y-116306600D03*
X147523200Y-101320600D03*
X145000000Y-87700000D03*
X153050000Y-96400000D03*
X183200000Y-129700000D03*
X167450000Y-127450000D03*
X160833000Y-87650400D03*
X106400000Y-89000000D03*
X140200000Y-93250000D03*
X121225000Y-65100000D03*
X119100000Y-95550000D03*
X102550000Y-95500000D03*
X148895000Y-84754800D03*
X153900000Y-115650000D03*
X107700000Y-99500000D03*
X142250000Y-80200000D03*
X144150000Y-99450000D03*
X152450000Y-105700000D03*
X117975000Y-128725000D03*
X179000000Y-125800000D03*
X192786000Y-79629000D03*
X138150000Y-118700000D03*
X110950000Y-95650000D03*
X179150000Y-129800000D03*
X154925000Y-84425000D03*
X115875000Y-72300000D03*
X134125000Y-109025000D03*
X195700000Y-124400000D03*
X144400000Y-86400000D03*
X135775000Y-73375000D03*
X138675000Y-109025000D03*
X151975000Y-79775000D03*
X129000000Y-92550000D03*
X107025000Y-116600000D03*
X104450000Y-113750000D03*
X119500000Y-128975000D03*
X162300000Y-100800000D03*
X138025000Y-114525000D03*
X194950000Y-120100000D03*
X154025000Y-128125000D03*
X108200000Y-131100000D03*
X117925000Y-134575000D03*
X141375000Y-128200000D03*
X188475000Y-132500000D03*
X178150000Y-133150000D03*
X170025000Y-131575000D03*
X144650000Y-115500000D03*
X166325000Y-134575000D03*
X128650000Y-128200000D03*
X113200000Y-111450000D03*
X110650000Y-111450000D03*
X144932600Y-93390800D03*
X160883800Y-94325600D03*
X144150000Y-97700000D03*
X118300000Y-110000000D03*
X152908200Y-84704000D03*
X106950000Y-111450000D03*
X118150000Y-113450000D03*
X125400000Y-102100000D03*
X104400000Y-111425000D03*
X152273000Y-101422200D03*
X122400000Y-115100000D03*
D25*
X137950000Y-103050000D03*
X112550000Y-91050000D03*
X156050000Y-109750000D03*
X181800000Y-109800000D03*
D24*
X160500000Y-137150000D03*
X140690600Y-136950000D03*
X143250000Y-134750000D03*
X161100000Y-134950000D03*
X134400000Y-141250000D03*
X159300000Y-135500000D03*
X145250000Y-135500000D03*
X161300000Y-136400000D03*
X147150000Y-136400000D03*
X174575000Y-134875000D03*
X172825000Y-135750000D03*
X169825000Y-136525000D03*
X176250000Y-134675000D03*
X185100000Y-134675000D03*
X183762500Y-136462500D03*
X178525000Y-136375000D03*
X180618600Y-137175000D03*
X138150000Y-147500000D03*
X131750000Y-147500000D03*
X164800000Y-146900000D03*
X140700000Y-147050000D03*
X165350000Y-131500000D03*
X157000000Y-131500000D03*
X167450000Y-147800000D03*
X143300000Y-147800000D03*
X145800000Y-142200000D03*
X152100000Y-142150000D03*
X144450000Y-143200000D03*
X129200000Y-146250000D03*
X162250000Y-146150000D03*
X149600000Y-143150000D03*
X159750000Y-137900000D03*
X142050000Y-137850000D03*
X174925000Y-142275000D03*
X172400000Y-143125000D03*
X173700000Y-141475000D03*
X168950000Y-137400000D03*
X184537500Y-135537500D03*
X177500000Y-135550000D03*
X182750000Y-138050000D03*
X181325000Y-142200000D03*
X187650000Y-142150000D03*
X180050000Y-143150000D03*
D25*
X167500000Y-81800000D03*
X172600000Y-84600000D03*
X170100000Y-80800000D03*
X175150000Y-83650000D03*
X194767200Y-105333800D03*
X129250000Y-114325000D03*
X192350000Y-129200000D03*
X139200000Y-104175000D03*
X136075000Y-109875000D03*
X140225000Y-109875000D03*
X166500000Y-108700000D03*
X160727600Y-100604400D03*
X180550000Y-108700000D03*
X165700000Y-114050000D03*
X142550000Y-115650000D03*
X158050000Y-107500000D03*
X131450000Y-113150000D03*
X154889200Y-101473000D03*
X156800000Y-106150000D03*
X143600000Y-108600000D03*
X145745200Y-101396800D03*
X170050000Y-120500000D03*
X191800000Y-120500000D03*
X164389000Y-103402200D03*
X180950000Y-129750000D03*
D24*
X186582600Y-94422800D03*
X157700000Y-96850000D03*
X186582600Y-96607200D03*
X155700000Y-97800000D03*
X182850000Y-104500000D03*
X180650000Y-104500000D03*
X150700000Y-106750000D03*
X116000000Y-124650000D03*
X112050000Y-125200000D03*
X119650000Y-103950000D03*
X110900000Y-106700000D03*
X152450000Y-107650000D03*
X134750000Y-102450000D03*
X134700000Y-96700000D03*
D25*
X168700000Y-130800000D03*
X165200000Y-117400000D03*
D24*
X167750000Y-114950000D03*
X125050000Y-121900000D03*
D25*
X141650000Y-130850000D03*
X154430000Y-130850000D03*
X128800000Y-135050000D03*
D24*
X135650000Y-98600000D03*
X135850000Y-102900000D03*
X133650000Y-102350000D03*
X133600000Y-95350000D03*
X168900000Y-113350000D03*
X142650000Y-114100000D03*
X132550000Y-99350000D03*
X132550000Y-102350000D03*
X169050000Y-116450000D03*
X125325000Y-123525000D03*
D25*
X149450000Y-121200000D03*
X146900000Y-121250000D03*
X126600000Y-131900000D03*
X126600000Y-129700000D03*
X159500000Y-118550000D03*
X153950000Y-118600000D03*
X161450000Y-121150000D03*
X152750000Y-121150000D03*
X163300000Y-119850000D03*
X153400000Y-119850000D03*
X152200000Y-124100000D03*
X157595000Y-124050000D03*
X193650000Y-124450000D03*
X197434200Y-127558800D03*
D26*
X172511800Y-129361800D02*
X173100000Y-129950000D01*
X122143600Y-128828800D02*
X122778800Y-128828800D01*
X185525000Y-132000000D02*
X185525000Y-132400000D01*
X148731800Y-116382000D02*
X150168000Y-116382000D01*
X164389000Y-105227200D02*
X164389000Y-105889000D01*
D27*
X156612800Y-99749400D02*
X156616400Y-99745800D01*
D26*
X151172000Y-112572000D02*
X148833400Y-112572000D01*
X150398600Y-96438800D02*
X149638800Y-96438800D01*
X149638800Y-96438800D02*
X149600000Y-96400000D01*
X136100000Y-115600000D02*
X136075000Y-115625000D01*
X173800000Y-131725000D02*
X173140200Y-132384800D01*
X144983400Y-90983400D02*
X145000000Y-91000000D01*
X185550000Y-129450000D02*
X185550000Y-129212800D01*
X144983400Y-90312400D02*
X144983400Y-90983400D01*
X122778800Y-128828800D02*
X122950000Y-129000000D01*
X164389000Y-105889000D02*
X164400000Y-105900000D01*
X151100000Y-115450000D02*
X151100000Y-115350000D01*
X123990400Y-132740400D02*
X124450000Y-133200000D01*
X136100000Y-113500000D02*
X136100000Y-115600000D01*
X124450000Y-133200000D02*
X124450000Y-134550000D01*
D27*
X156612800Y-100655200D02*
X156612800Y-99749400D01*
D26*
X185550000Y-129212800D02*
X185064400Y-128727200D01*
X151300000Y-112700000D02*
X151172000Y-112572000D01*
X173140200Y-132384800D02*
X172537200Y-132384800D01*
X185525000Y-132400000D02*
X185950000Y-132825000D01*
X122194400Y-132740400D02*
X123990400Y-132740400D01*
X150168000Y-116382000D02*
X151100000Y-115450000D01*
X175150000Y-131725000D02*
X173800000Y-131725000D01*
X153011200Y-96438800D02*
X153050000Y-96400000D01*
X134075000Y-108975000D02*
X134125000Y-109025000D01*
X144800000Y-112550000D02*
X144822000Y-112572000D01*
X119646200Y-128828800D02*
X119500000Y-128975000D01*
X179124600Y-128778000D02*
X179124600Y-129774600D01*
X142100000Y-109075000D02*
X142100000Y-110000000D01*
X120243600Y-128828800D02*
X119646200Y-128828800D01*
X144983400Y-87716600D02*
X145000000Y-87700000D01*
X142100000Y-110000000D02*
X142075000Y-110025000D01*
X152298600Y-96438800D02*
X153011200Y-96438800D01*
X144983400Y-88412400D02*
X144983400Y-87716600D01*
X144822000Y-112572000D02*
X146933400Y-112572000D01*
D27*
X147574200Y-101269600D02*
X147523200Y-101320600D01*
D26*
X183164400Y-128727200D02*
X183164400Y-129664400D01*
X138000000Y-114500000D02*
X138025000Y-114525000D01*
X137875000Y-109025000D02*
X138675000Y-109025000D01*
X179124600Y-129774600D02*
X179150000Y-129800000D01*
D27*
X147574200Y-100553600D02*
X147574200Y-101269600D01*
D26*
X183164400Y-129664400D02*
X183200000Y-129700000D01*
X138000000Y-113500000D02*
X138000000Y-114500000D01*
X170611800Y-129388200D02*
X170000000Y-130000000D01*
X133475000Y-108975000D02*
X134075000Y-108975000D01*
X144650000Y-115600000D02*
X144650000Y-115500000D01*
X117925000Y-133225000D02*
X117925000Y-134575000D01*
X145450000Y-116400000D02*
X144650000Y-115600000D01*
X120294400Y-132740400D02*
X118409600Y-132740400D01*
X188475000Y-132500000D02*
X188150000Y-132825000D01*
X146831800Y-116382000D02*
X145468000Y-116382000D01*
X118409600Y-132740400D02*
X117925000Y-133225000D01*
X145468000Y-116382000D02*
X145450000Y-116400000D01*
X170637200Y-132187200D02*
X170025000Y-131575000D01*
D27*
X152247800Y-101397000D02*
X152273000Y-101422200D01*
X152247800Y-100655200D02*
X152247800Y-101397000D01*
D28*
X137950000Y-103050000D02*
X137950000Y-94350000D01*
X134650000Y-91050000D02*
X112550000Y-91050000D01*
X137950000Y-94350000D02*
X134650000Y-91050000D01*
X181800000Y-109800000D02*
X181750000Y-109750000D01*
X181750000Y-109750000D02*
X156050000Y-109750000D01*
D26*
X140690600Y-136950000D02*
X140890600Y-137150000D01*
X140890600Y-137150000D02*
X160500000Y-137150000D01*
X161100000Y-134950000D02*
X160250000Y-134950000D01*
X160050000Y-134750000D02*
X143250000Y-134750000D01*
X160250000Y-134950000D02*
X160050000Y-134750000D01*
X150350600Y-141250000D02*
X150850600Y-140750000D01*
X134400000Y-141250000D02*
X150350600Y-141250000D01*
X150850600Y-140750000D02*
X150850600Y-139598400D01*
X145250000Y-135500000D02*
X159300000Y-135500000D01*
X161300000Y-136400000D02*
X147150000Y-136400000D01*
X167900000Y-134875000D02*
X166090600Y-136684400D01*
X166090600Y-136684400D02*
X166090600Y-139598400D01*
X174575000Y-134875000D02*
X167900000Y-134875000D01*
X168225000Y-136475000D02*
X168225000Y-138225000D01*
X168630600Y-138630600D02*
X168630600Y-139598400D01*
X172825000Y-135750000D02*
X168950000Y-135750000D01*
X168950000Y-135750000D02*
X168225000Y-136475000D01*
X168225000Y-138225000D02*
X168630600Y-138630600D01*
X173710600Y-138110600D02*
X173710600Y-139598400D01*
X169825000Y-136525000D02*
X172125000Y-136525000D01*
X172125000Y-136525000D02*
X173710600Y-138110600D01*
X176250000Y-134675000D02*
X185100000Y-134675000D01*
X178600000Y-136450000D02*
X178525000Y-136375000D01*
X183762500Y-136462500D02*
X183750000Y-136450000D01*
X183750000Y-136450000D02*
X178600000Y-136450000D01*
X183300000Y-137175000D02*
X183870600Y-137745600D01*
X183870600Y-137745600D02*
X183870600Y-139598400D01*
X180618600Y-137175000D02*
X183300000Y-137175000D01*
X131750000Y-147500000D02*
X138150000Y-147500000D01*
X164800000Y-146900000D02*
X164650000Y-147050000D01*
X164650000Y-147050000D02*
X140700000Y-147050000D01*
X143300000Y-147800000D02*
X167450000Y-147800000D01*
X165350000Y-131500000D02*
X157000000Y-131500000D01*
X145850000Y-142150000D02*
X145800000Y-142200000D01*
X152100000Y-142150000D02*
X145850000Y-142150000D01*
X144450000Y-143200000D02*
X147900000Y-143200000D01*
X147900000Y-143200000D02*
X148310600Y-143610600D01*
X148310600Y-143610600D02*
X148310600Y-144678400D01*
X150250000Y-146250000D02*
X150850600Y-145649400D01*
X129200000Y-146250000D02*
X150250000Y-146250000D01*
X150850600Y-145649400D02*
X150850600Y-144678400D01*
X153600000Y-146150000D02*
X153390600Y-145940600D01*
X153390600Y-145940600D02*
X153390600Y-144678400D01*
X162250000Y-146150000D02*
X153600000Y-146150000D01*
X158470600Y-143720600D02*
X158470600Y-144678400D01*
X157900000Y-143150000D02*
X158470600Y-143720600D01*
X149600000Y-143150000D02*
X157900000Y-143150000D01*
X159700000Y-137850000D02*
X159750000Y-137900000D01*
X142050000Y-137850000D02*
X159700000Y-137850000D01*
X174925000Y-142275000D02*
X167050000Y-142275000D01*
X167050000Y-142275000D02*
X166090600Y-143234400D01*
X166090600Y-143234400D02*
X166090600Y-144678400D01*
X168630600Y-143575000D02*
X168630600Y-144678400D01*
X169080600Y-143125000D02*
X168630600Y-143575000D01*
X172400000Y-143125000D02*
X169080600Y-143125000D01*
X172475000Y-137975000D02*
X172475000Y-140825000D01*
X173125000Y-141475000D02*
X173700000Y-141475000D01*
X172475000Y-140825000D02*
X173125000Y-141475000D01*
X171900000Y-137400000D02*
X172475000Y-137975000D01*
X168950000Y-137400000D02*
X171900000Y-137400000D01*
X184525000Y-135550000D02*
X184537500Y-135537500D01*
X177500000Y-135550000D02*
X184525000Y-135550000D01*
X178790600Y-142665600D02*
X178790600Y-144678400D01*
X177500000Y-138625000D02*
X177500000Y-141375000D01*
X182725000Y-138075000D02*
X178050000Y-138075000D01*
X177500000Y-141375000D02*
X178790600Y-142665600D01*
X178050000Y-138075000D02*
X177500000Y-138625000D01*
X182750000Y-138050000D02*
X182725000Y-138075000D01*
X181325000Y-142200000D02*
X187600000Y-142200000D01*
X187600000Y-142200000D02*
X187650000Y-142150000D01*
X183500000Y-143150000D02*
X183870600Y-143520600D01*
X183870600Y-143520600D02*
X183870600Y-144678400D01*
X180050000Y-143150000D02*
X183500000Y-143150000D01*
D28*
X167538400Y-81761600D02*
X167538400Y-69240400D01*
X167500000Y-81800000D02*
X167538400Y-81761600D01*
X172600000Y-84100000D02*
X172618400Y-84081600D01*
X172600000Y-84600000D02*
X172600000Y-84100000D01*
X172618400Y-84081600D02*
X172618400Y-69240400D01*
X170078400Y-80778400D02*
X170078400Y-69240400D01*
X170100000Y-80800000D02*
X170078400Y-80778400D01*
X175150000Y-83650000D02*
X175158400Y-83641600D01*
X175158400Y-83641600D02*
X175158400Y-69240400D01*
D27*
X194767200Y-105333800D02*
X197840600Y-105333800D01*
X198831200Y-104343200D02*
X198831200Y-98679000D01*
X197840600Y-105333800D02*
X198831200Y-104343200D01*
X198831200Y-98679000D02*
X198362800Y-98210600D01*
X198362800Y-98210600D02*
X196880400Y-98210600D01*
D28*
X129250000Y-114325000D02*
X129250000Y-112300000D01*
X131650000Y-109900000D02*
X131650000Y-108975000D01*
X129250000Y-112300000D02*
X131650000Y-109900000D01*
X146900000Y-65950000D02*
X187400000Y-65950000D01*
X192900000Y-119000000D02*
X192900000Y-122100000D01*
X192900000Y-122100000D02*
X192350000Y-122650000D01*
X191100000Y-69650000D02*
X191100000Y-117200000D01*
X138400000Y-93650000D02*
X138400000Y-84000000D01*
X136550000Y-82150000D02*
X136550000Y-76300000D01*
X187400000Y-65950000D02*
X191100000Y-69650000D01*
X138400000Y-84000000D02*
X136550000Y-82150000D01*
X191100000Y-117200000D02*
X192900000Y-119000000D01*
X139200000Y-94450000D02*
X138400000Y-93650000D01*
X136075000Y-109875000D02*
X136075000Y-109050000D01*
X136550000Y-76300000D02*
X146900000Y-65950000D01*
X192350000Y-122650000D02*
X192350000Y-129200000D01*
X139200000Y-104175000D02*
X139200000Y-94450000D01*
X140225000Y-109875000D02*
X140225000Y-109125000D01*
X166500000Y-108700000D02*
X180550000Y-108700000D01*
X151850000Y-114550000D02*
X143650000Y-114550000D01*
X165700000Y-114050000D02*
X152350000Y-114050000D01*
X152350000Y-114050000D02*
X151850000Y-114550000D01*
X143650000Y-114550000D02*
X142550000Y-115650000D01*
X136300000Y-111600000D02*
X144950000Y-111600000D01*
X153100000Y-110650000D02*
X156250000Y-107500000D01*
X131450000Y-113150000D02*
X134750000Y-113150000D01*
X144950000Y-111600000D02*
X145900000Y-110650000D01*
X145900000Y-110650000D02*
X153100000Y-110650000D01*
X134750000Y-113150000D02*
X136300000Y-111600000D01*
X158050000Y-107500000D02*
X156250000Y-107500000D01*
D27*
X154787800Y-101371600D02*
X154889200Y-101473000D01*
D28*
X156800000Y-106150000D02*
X156150000Y-106150000D01*
X143700000Y-108500000D02*
X143600000Y-108600000D01*
D27*
X154787800Y-100655200D02*
X154787800Y-101371600D01*
D28*
X148950000Y-109200000D02*
X148250000Y-108500000D01*
X156150000Y-106150000D02*
X153100000Y-109200000D01*
X153100000Y-109200000D02*
X148950000Y-109200000D01*
X148250000Y-108500000D02*
X143700000Y-108500000D01*
D27*
X145745200Y-101396800D02*
X145745200Y-100557600D01*
D28*
X170050000Y-120500000D02*
X191800000Y-120500000D01*
X180950000Y-129750000D02*
X180950000Y-128778400D01*
D26*
X182550000Y-96850000D02*
X184977200Y-94422800D01*
X184977200Y-94422800D02*
X186582600Y-94422800D01*
X157700000Y-96850000D02*
X182550000Y-96850000D01*
X183100000Y-97800000D02*
X184292800Y-96607200D01*
X155700000Y-97800000D02*
X183100000Y-97800000D01*
X184292800Y-96607200D02*
X186582600Y-96607200D01*
X180650000Y-104500000D02*
X182850000Y-104500000D01*
X125700000Y-106750000D02*
X150700000Y-106750000D01*
X124250000Y-105300000D02*
X125700000Y-106750000D01*
X116000000Y-124650000D02*
X112600000Y-124650000D01*
X112600000Y-124650000D02*
X112050000Y-125200000D01*
X119650000Y-103950000D02*
X121000000Y-105300000D01*
X121000000Y-105300000D02*
X124250000Y-105300000D01*
X110900000Y-106700000D02*
X124450000Y-106700000D01*
X124450000Y-106700000D02*
X125400000Y-107650000D01*
X125400000Y-107650000D02*
X152450000Y-107650000D01*
X134750000Y-102450000D02*
X134750000Y-96750000D01*
X134750000Y-96750000D02*
X134700000Y-96700000D01*
D28*
X167300000Y-130800000D02*
X168700000Y-130800000D01*
X165200000Y-117400000D02*
X165200000Y-128700000D01*
X165200000Y-128700000D02*
X167300000Y-130800000D01*
D26*
X143450000Y-119000000D02*
X149100000Y-119000000D01*
X149100000Y-119000000D02*
X151250000Y-116850000D01*
X125300000Y-121650000D02*
X125050000Y-121900000D01*
X162200000Y-114950000D02*
X167750000Y-114950000D01*
X125300000Y-121650000D02*
X140600000Y-121650000D01*
X160300000Y-116850000D02*
X162200000Y-114950000D01*
X151250000Y-116850000D02*
X160300000Y-116850000D01*
X143450000Y-119000000D02*
X142200000Y-120250000D01*
X142200000Y-120250000D02*
X142000000Y-120250000D01*
X142000000Y-120250000D02*
X140600000Y-121650000D01*
D28*
X128800000Y-135050000D02*
X129150000Y-134700000D01*
X129800000Y-130850000D02*
X142650000Y-130850000D01*
X129150000Y-134700000D02*
X129150000Y-131500000D01*
X129150000Y-131500000D02*
X129800000Y-130850000D01*
X142650000Y-130850000D02*
X154430000Y-130850000D01*
X141650000Y-130850000D02*
X142650000Y-130850000D01*
D26*
X135850000Y-102900000D02*
X135850000Y-98800000D01*
X135850000Y-98800000D02*
X135650000Y-98600000D01*
X133650000Y-95400000D02*
X133600000Y-95350000D01*
X133650000Y-102350000D02*
X133650000Y-95400000D01*
X142650000Y-114100000D02*
X151500000Y-114100000D01*
X152300000Y-113300000D02*
X168850000Y-113300000D01*
X168900000Y-113350000D02*
X168850000Y-113300000D01*
X151500000Y-114100000D02*
X152300000Y-113300000D01*
X132550000Y-99350000D02*
X132550000Y-102350000D01*
X129250000Y-122350000D02*
X141600000Y-122350000D01*
X151850000Y-117450000D02*
X161150000Y-117450000D01*
X129250000Y-122350000D02*
X128075000Y-123525000D01*
X169000000Y-116400000D02*
X169050000Y-116450000D01*
X144150000Y-119800000D02*
X149500000Y-119800000D01*
X161150000Y-117450000D02*
X162200000Y-116400000D01*
X162200000Y-116400000D02*
X169000000Y-116400000D01*
X128075000Y-123525000D02*
X125325000Y-123525000D01*
X149500000Y-119800000D02*
X151850000Y-117450000D01*
X141600000Y-122350000D02*
X144150000Y-119800000D01*
D28*
X149400000Y-121250000D02*
X149450000Y-121200000D01*
X146900000Y-121250000D02*
X149400000Y-121250000D01*
X126600000Y-131900000D02*
X126600000Y-129700000D01*
X153950000Y-118600000D02*
X159450000Y-118600000D01*
X159450000Y-118600000D02*
X159500000Y-118550000D01*
X161450000Y-121150000D02*
X152750000Y-121150000D01*
X153400000Y-119850000D02*
X163300000Y-119850000D01*
X152250000Y-124050000D02*
X157595000Y-124050000D01*
X152200000Y-124100000D02*
X152250000Y-124050000D01*
X193650000Y-125550000D02*
X195658800Y-127558800D01*
X195658800Y-127558800D02*
X197434200Y-127558800D01*
X193650000Y-124450000D02*
X193650000Y-125550000D01*
G04 #@! TA.AperFunction,Conductor*
G36*
X166847021Y-75020002D02*
G01*
X166893514Y-75073658D01*
X166904900Y-75126000D01*
X166904900Y-81054826D01*
X166884898Y-81122947D01*
X166872537Y-81139136D01*
X166760961Y-81263054D01*
X166760958Y-81263058D01*
X166665476Y-81428438D01*
X166665473Y-81428445D01*
X166606457Y-81610072D01*
X166586496Y-81800000D01*
X166606457Y-81989927D01*
X166636526Y-82082470D01*
X166665473Y-82171556D01*
X166665476Y-82171561D01*
X166760958Y-82336941D01*
X166760965Y-82336951D01*
X166888744Y-82478864D01*
X166888747Y-82478866D01*
X167043248Y-82591118D01*
X167217712Y-82668794D01*
X167404513Y-82708500D01*
X167595487Y-82708500D01*
X167782288Y-82668794D01*
X167956752Y-82591118D01*
X168111253Y-82478866D01*
X168239040Y-82336944D01*
X168334527Y-82171556D01*
X168393542Y-81989928D01*
X168413504Y-81800000D01*
X168393542Y-81610072D01*
X168334527Y-81428444D01*
X168239040Y-81263056D01*
X168204262Y-81224431D01*
X168173546Y-81160424D01*
X168171900Y-81140122D01*
X168171900Y-75126000D01*
X168191902Y-75057879D01*
X168245558Y-75011386D01*
X168297900Y-75000000D01*
X169318900Y-75000000D01*
X169387021Y-75020002D01*
X169433514Y-75073658D01*
X169444900Y-75126000D01*
X169444900Y-80121464D01*
X169424898Y-80189585D01*
X169412536Y-80205774D01*
X169360965Y-80263048D01*
X169360958Y-80263058D01*
X169265476Y-80428438D01*
X169265473Y-80428444D01*
X169250999Y-80472986D01*
X169206457Y-80610072D01*
X169186496Y-80800000D01*
X169206457Y-80989927D01*
X169236526Y-81082470D01*
X169265473Y-81171556D01*
X169265476Y-81171561D01*
X169360958Y-81336941D01*
X169360965Y-81336951D01*
X169488744Y-81478864D01*
X169488747Y-81478866D01*
X169643248Y-81591118D01*
X169817712Y-81668794D01*
X170004513Y-81708500D01*
X170195487Y-81708500D01*
X170382288Y-81668794D01*
X170556752Y-81591118D01*
X170711253Y-81478866D01*
X170839040Y-81336944D01*
X170934527Y-81171556D01*
X170993542Y-80989928D01*
X171013504Y-80800000D01*
X170993542Y-80610072D01*
X170934527Y-80428444D01*
X170839040Y-80263056D01*
X170744262Y-80157794D01*
X170713546Y-80093787D01*
X170711900Y-80073485D01*
X170711900Y-75126000D01*
X170731902Y-75057879D01*
X170785558Y-75011386D01*
X170837900Y-75000000D01*
X171858900Y-75000000D01*
X171927021Y-75020002D01*
X171973514Y-75073658D01*
X171984900Y-75126000D01*
X171984900Y-83877039D01*
X171964898Y-83945160D01*
X171952537Y-83961349D01*
X171860957Y-84063059D01*
X171779332Y-84204439D01*
X171765473Y-84228444D01*
X171763430Y-84234731D01*
X171706457Y-84410072D01*
X171686496Y-84600000D01*
X171706457Y-84789927D01*
X171730833Y-84864945D01*
X171765473Y-84971556D01*
X171765476Y-84971561D01*
X171860958Y-85136941D01*
X171860965Y-85136951D01*
X171988744Y-85278864D01*
X171995125Y-85283500D01*
X172143248Y-85391118D01*
X172317712Y-85468794D01*
X172504513Y-85508500D01*
X172695487Y-85508500D01*
X172882288Y-85468794D01*
X173056752Y-85391118D01*
X173211253Y-85278866D01*
X173339040Y-85136944D01*
X173434527Y-84971556D01*
X173493542Y-84789928D01*
X173513504Y-84600000D01*
X173493542Y-84410072D01*
X173434527Y-84228444D01*
X173339040Y-84063056D01*
X173339038Y-84063054D01*
X173339034Y-84063048D01*
X173284264Y-84002220D01*
X173253546Y-83938213D01*
X173251900Y-83917910D01*
X173251900Y-75126000D01*
X173271902Y-75057879D01*
X173325558Y-75011386D01*
X173377900Y-75000000D01*
X174398900Y-75000000D01*
X174467021Y-75020002D01*
X174513514Y-75073658D01*
X174524900Y-75126000D01*
X174524900Y-82938145D01*
X174504898Y-83006266D01*
X174492537Y-83022455D01*
X174410957Y-83113059D01*
X174315476Y-83278438D01*
X174315473Y-83278445D01*
X174256457Y-83460072D01*
X174236496Y-83650000D01*
X174256457Y-83839927D01*
X174281695Y-83917599D01*
X174315473Y-84021556D01*
X174315476Y-84021561D01*
X174410958Y-84186941D01*
X174410965Y-84186951D01*
X174538744Y-84328864D01*
X174571169Y-84352422D01*
X174693248Y-84441118D01*
X174867712Y-84518794D01*
X175054513Y-84558500D01*
X175245487Y-84558500D01*
X175432288Y-84518794D01*
X175606752Y-84441118D01*
X175761253Y-84328866D01*
X175787244Y-84300000D01*
X175889034Y-84186951D01*
X175889035Y-84186949D01*
X175889040Y-84186944D01*
X175984527Y-84021556D01*
X176043542Y-83839928D01*
X176063504Y-83650000D01*
X176043542Y-83460072D01*
X175984527Y-83278444D01*
X175889040Y-83113056D01*
X175824263Y-83041113D01*
X175793546Y-82977105D01*
X175791900Y-82956803D01*
X175791900Y-75126000D01*
X175811902Y-75057879D01*
X175865558Y-75011386D01*
X175917900Y-75000000D01*
X190340500Y-75000000D01*
X190408621Y-75020002D01*
X190455114Y-75073658D01*
X190466500Y-75126000D01*
X190466500Y-117262396D01*
X190475671Y-117308500D01*
X190490845Y-117384785D01*
X190538600Y-117500075D01*
X190607929Y-117603833D01*
X190607931Y-117603835D01*
X192229595Y-119225499D01*
X192263621Y-119287811D01*
X192266500Y-119314594D01*
X192266500Y-119519199D01*
X192246498Y-119587320D01*
X192192842Y-119633813D01*
X192122568Y-119643917D01*
X192089253Y-119634306D01*
X192082292Y-119631206D01*
X191895487Y-119591500D01*
X191704513Y-119591500D01*
X191517711Y-119631206D01*
X191343247Y-119708882D01*
X191188747Y-119821133D01*
X191185437Y-119824810D01*
X191124991Y-119862050D01*
X191091800Y-119866500D01*
X170758200Y-119866500D01*
X170690079Y-119846498D01*
X170664563Y-119824810D01*
X170661252Y-119821133D01*
X170506752Y-119708882D01*
X170332288Y-119631206D01*
X170145487Y-119591500D01*
X169954513Y-119591500D01*
X169767711Y-119631206D01*
X169593247Y-119708882D01*
X169438747Y-119821133D01*
X169401906Y-119862050D01*
X169315232Y-119958310D01*
X169254788Y-119995550D01*
X169221597Y-120000000D01*
X165959500Y-120000000D01*
X165891379Y-119979998D01*
X165844886Y-119926342D01*
X165833500Y-119874000D01*
X165833500Y-118102524D01*
X165853502Y-118034403D01*
X165865858Y-118018220D01*
X165939040Y-117936944D01*
X166034527Y-117771556D01*
X166093542Y-117589928D01*
X166113504Y-117400000D01*
X166093542Y-117210072D01*
X166083262Y-117178436D01*
X166081235Y-117107469D01*
X166117897Y-117046671D01*
X166181609Y-117015346D01*
X166203096Y-117013500D01*
X168346053Y-117013500D01*
X168414174Y-117033502D01*
X168439689Y-117055189D01*
X168472387Y-117091504D01*
X168618385Y-117197578D01*
X168783248Y-117270980D01*
X168922247Y-117300524D01*
X168959767Y-117308500D01*
X168959768Y-117308500D01*
X169140233Y-117308500D01*
X169171175Y-117301922D01*
X169316752Y-117270980D01*
X169481615Y-117197578D01*
X169627613Y-117091504D01*
X169638352Y-117079577D01*
X169748361Y-116957400D01*
X169748362Y-116957398D01*
X169748367Y-116957393D01*
X169838599Y-116801107D01*
X169894365Y-116629475D01*
X169913229Y-116450000D01*
X169894365Y-116270525D01*
X169876811Y-116216498D01*
X169838601Y-116098897D01*
X169838598Y-116098891D01*
X169757541Y-115958497D01*
X169748367Y-115942607D01*
X169748365Y-115942605D01*
X169748361Y-115942599D01*
X169627615Y-115808497D01*
X169481615Y-115702422D01*
X169316752Y-115629020D01*
X169140233Y-115591500D01*
X169140232Y-115591500D01*
X168959768Y-115591500D01*
X168959767Y-115591500D01*
X168783250Y-115629019D01*
X168618383Y-115702422D01*
X168618383Y-115702423D01*
X168535783Y-115762436D01*
X168468915Y-115786294D01*
X168461722Y-115786500D01*
X168435039Y-115786500D01*
X168366918Y-115766498D01*
X168320425Y-115712842D01*
X168310321Y-115642568D01*
X168339815Y-115577988D01*
X168341403Y-115576190D01*
X168448361Y-115457400D01*
X168448362Y-115457398D01*
X168448367Y-115457393D01*
X168538599Y-115301107D01*
X168539319Y-115298893D01*
X168582040Y-115167408D01*
X168594365Y-115129475D01*
X168613229Y-114950000D01*
X168594365Y-114770525D01*
X168584936Y-114741504D01*
X168538601Y-114598897D01*
X168538598Y-114598891D01*
X168461692Y-114465687D01*
X168448367Y-114442607D01*
X168448365Y-114442605D01*
X168448361Y-114442599D01*
X168327615Y-114308497D01*
X168181615Y-114202422D01*
X168074221Y-114154607D01*
X168020125Y-114108626D01*
X167999476Y-114040699D01*
X168018829Y-113972391D01*
X168072039Y-113925390D01*
X168125470Y-113913500D01*
X168196053Y-113913500D01*
X168264174Y-113933502D01*
X168289689Y-113955189D01*
X168322387Y-113991504D01*
X168468385Y-114097578D01*
X168633248Y-114170980D01*
X168757217Y-114197330D01*
X168809767Y-114208500D01*
X168809768Y-114208500D01*
X168990233Y-114208500D01*
X169042783Y-114197330D01*
X169166752Y-114170980D01*
X169331615Y-114097578D01*
X169477613Y-113991504D01*
X169485434Y-113982818D01*
X169598361Y-113857400D01*
X169598362Y-113857398D01*
X169598367Y-113857393D01*
X169688599Y-113701107D01*
X169694249Y-113683720D01*
X169744363Y-113529480D01*
X169744365Y-113529475D01*
X169763229Y-113350000D01*
X169744365Y-113170525D01*
X169707606Y-113057390D01*
X169688601Y-112998897D01*
X169688598Y-112998891D01*
X169598368Y-112842609D01*
X169598361Y-112842599D01*
X169477615Y-112708497D01*
X169331615Y-112602422D01*
X169166752Y-112529020D01*
X168990233Y-112491500D01*
X168990232Y-112491500D01*
X168809768Y-112491500D01*
X168809767Y-112491500D01*
X168633250Y-112529019D01*
X168468383Y-112602422D01*
X168468383Y-112602423D01*
X168385783Y-112662436D01*
X168318915Y-112686294D01*
X168311722Y-112686500D01*
X158809015Y-112686500D01*
X158740894Y-112666498D01*
X158694401Y-112612842D01*
X158684297Y-112542568D01*
X158713791Y-112477988D01*
X158734954Y-112458564D01*
X158779815Y-112425970D01*
X158836613Y-112384704D01*
X158868854Y-112348897D01*
X158957361Y-112250600D01*
X158957362Y-112250598D01*
X158957367Y-112250593D01*
X159047599Y-112094307D01*
X159103365Y-111922675D01*
X159122229Y-111743200D01*
X159103365Y-111563725D01*
X159082000Y-111497970D01*
X159047601Y-111392097D01*
X159047598Y-111392091D01*
X158957368Y-111235809D01*
X158957361Y-111235799D01*
X158836615Y-111101697D01*
X158690615Y-110995622D01*
X158525752Y-110922220D01*
X158349233Y-110884700D01*
X158349232Y-110884700D01*
X158168768Y-110884700D01*
X158168767Y-110884700D01*
X157992250Y-110922219D01*
X157827383Y-110995622D01*
X157827383Y-110995623D01*
X157681384Y-111101697D01*
X157560638Y-111235799D01*
X157560631Y-111235809D01*
X157470401Y-111392091D01*
X157470398Y-111392097D01*
X157414636Y-111563719D01*
X157414635Y-111563723D01*
X157414635Y-111563725D01*
X157395771Y-111743200D01*
X157411849Y-111896171D01*
X157414636Y-111922680D01*
X157470398Y-112094302D01*
X157470401Y-112094308D01*
X157560631Y-112250590D01*
X157560638Y-112250600D01*
X157681384Y-112384702D01*
X157783046Y-112458564D01*
X157826400Y-112514786D01*
X157832475Y-112585523D01*
X157799343Y-112648314D01*
X157737523Y-112683226D01*
X157708985Y-112686500D01*
X152275260Y-112686500D01*
X152207139Y-112666498D01*
X152160646Y-112612842D01*
X152149951Y-112573675D01*
X152144365Y-112520525D01*
X152130544Y-112477988D01*
X152088601Y-112348897D01*
X152088598Y-112348891D01*
X152024347Y-112237606D01*
X151998367Y-112192607D01*
X151998365Y-112192605D01*
X151998361Y-112192599D01*
X151877615Y-112058497D01*
X151731615Y-111952422D01*
X151566752Y-111879020D01*
X151390233Y-111841500D01*
X151390232Y-111841500D01*
X151209768Y-111841500D01*
X151209767Y-111841500D01*
X151033250Y-111879019D01*
X151033248Y-111879020D01*
X150934525Y-111922975D01*
X150879201Y-111947607D01*
X150827952Y-111958500D01*
X149927550Y-111958500D01*
X149859429Y-111938498D01*
X149812936Y-111884842D01*
X149807945Y-111872132D01*
X149797795Y-111841500D01*
X149775515Y-111774262D01*
X149682430Y-111623348D01*
X149682429Y-111623347D01*
X149682424Y-111623341D01*
X149557678Y-111498595D01*
X149523652Y-111436283D01*
X149528717Y-111365468D01*
X149571264Y-111308632D01*
X149637784Y-111283821D01*
X149646773Y-111283500D01*
X153162393Y-111283500D01*
X153162394Y-111283500D01*
X153284785Y-111259155D01*
X153400075Y-111211400D01*
X153503833Y-111142071D01*
X154926824Y-109719078D01*
X154989133Y-109685056D01*
X155059948Y-109690120D01*
X155116784Y-109732667D01*
X155141226Y-109795006D01*
X155156457Y-109939927D01*
X155179540Y-110010968D01*
X155215473Y-110121556D01*
X155229604Y-110146031D01*
X155310958Y-110286941D01*
X155310965Y-110286951D01*
X155438744Y-110428864D01*
X155491250Y-110467012D01*
X155593248Y-110541118D01*
X155767712Y-110618794D01*
X155954513Y-110658500D01*
X156145487Y-110658500D01*
X156332288Y-110618794D01*
X156506752Y-110541118D01*
X156661253Y-110428866D01*
X156664563Y-110425190D01*
X156725009Y-110387950D01*
X156758200Y-110383500D01*
X181046780Y-110383500D01*
X181114901Y-110403502D01*
X181140416Y-110425190D01*
X181188744Y-110478864D01*
X181188747Y-110478866D01*
X181343248Y-110591118D01*
X181517712Y-110668794D01*
X181704513Y-110708500D01*
X181895487Y-110708500D01*
X182082288Y-110668794D01*
X182256752Y-110591118D01*
X182411253Y-110478866D01*
X182415999Y-110473595D01*
X182539034Y-110336951D01*
X182539035Y-110336949D01*
X182539040Y-110336944D01*
X182634527Y-110171556D01*
X182693542Y-109989928D01*
X182713504Y-109800000D01*
X182693542Y-109610072D01*
X182634527Y-109428444D01*
X182539040Y-109263056D01*
X182539038Y-109263054D01*
X182539034Y-109263048D01*
X182411255Y-109121135D01*
X182256752Y-109008882D01*
X182082288Y-108931206D01*
X181895487Y-108891500D01*
X181704513Y-108891500D01*
X181704511Y-108891500D01*
X181607042Y-108912217D01*
X181536251Y-108906814D01*
X181479619Y-108863997D01*
X181455126Y-108797359D01*
X181455535Y-108775814D01*
X181463504Y-108700000D01*
X181443542Y-108510072D01*
X181384527Y-108328444D01*
X181289040Y-108163056D01*
X181289038Y-108163054D01*
X181289034Y-108163048D01*
X181161255Y-108021135D01*
X181006752Y-107908882D01*
X180832288Y-107831206D01*
X180645487Y-107791500D01*
X180454513Y-107791500D01*
X180267711Y-107831206D01*
X180093247Y-107908882D01*
X179938747Y-108021133D01*
X179935437Y-108024810D01*
X179874991Y-108062050D01*
X179841800Y-108066500D01*
X167208200Y-108066500D01*
X167140079Y-108046498D01*
X167114563Y-108024810D01*
X167111252Y-108021133D01*
X166956752Y-107908882D01*
X166782288Y-107831206D01*
X166595487Y-107791500D01*
X166404513Y-107791500D01*
X166217711Y-107831206D01*
X166043247Y-107908882D01*
X165888744Y-108021135D01*
X165760965Y-108163048D01*
X165760958Y-108163058D01*
X165665476Y-108328438D01*
X165665473Y-108328445D01*
X165606457Y-108510072D01*
X165586496Y-108700000D01*
X165606457Y-108889929D01*
X165626484Y-108951564D01*
X165628511Y-109022532D01*
X165591849Y-109083330D01*
X165528136Y-109114655D01*
X165506651Y-109116500D01*
X156758200Y-109116500D01*
X156690079Y-109096498D01*
X156664563Y-109074810D01*
X156661252Y-109071133D01*
X156506752Y-108958882D01*
X156332288Y-108881206D01*
X156145487Y-108841500D01*
X156108595Y-108841500D01*
X156040474Y-108821498D01*
X155993981Y-108767842D01*
X155983877Y-108697568D01*
X156013371Y-108632988D01*
X156019500Y-108626404D01*
X156137405Y-108508500D01*
X156475501Y-108170404D01*
X156537813Y-108136379D01*
X156564596Y-108133500D01*
X157341800Y-108133500D01*
X157409921Y-108153502D01*
X157435437Y-108175190D01*
X157438747Y-108178866D01*
X157593248Y-108291118D01*
X157767712Y-108368794D01*
X157954513Y-108408500D01*
X158145487Y-108408500D01*
X158332288Y-108368794D01*
X158506752Y-108291118D01*
X158661253Y-108178866D01*
X158675487Y-108163058D01*
X158789034Y-108036951D01*
X158789035Y-108036949D01*
X158789040Y-108036944D01*
X158884527Y-107871556D01*
X158943542Y-107689928D01*
X158963504Y-107500000D01*
X158943542Y-107310072D01*
X158884527Y-107128444D01*
X158789040Y-106963056D01*
X158789038Y-106963054D01*
X158789034Y-106963048D01*
X158661255Y-106821135D01*
X158506752Y-106708882D01*
X158332288Y-106631206D01*
X158145487Y-106591500D01*
X157954513Y-106591500D01*
X157954511Y-106591500D01*
X157799844Y-106624375D01*
X157729054Y-106618973D01*
X157672421Y-106576156D01*
X157647928Y-106509518D01*
X157653814Y-106462196D01*
X157693542Y-106339928D01*
X157713504Y-106150000D01*
X157693542Y-105960072D01*
X157634527Y-105778444D01*
X157539040Y-105613056D01*
X157539038Y-105613054D01*
X157539034Y-105613048D01*
X157411255Y-105471135D01*
X157256752Y-105358882D01*
X157082288Y-105281206D01*
X156895487Y-105241500D01*
X156704513Y-105241500D01*
X156517711Y-105281206D01*
X156343247Y-105358882D01*
X156188747Y-105471133D01*
X156185437Y-105474810D01*
X156124991Y-105512050D01*
X156091800Y-105516500D01*
X156087603Y-105516500D01*
X156014568Y-105531028D01*
X155965215Y-105540845D01*
X155965213Y-105540845D01*
X155965212Y-105540846D01*
X155849923Y-105588601D01*
X155746171Y-105657926D01*
X155746164Y-105657931D01*
X153513046Y-107891049D01*
X153450734Y-107925075D01*
X153379918Y-107920010D01*
X153323083Y-107877463D01*
X153298272Y-107810943D01*
X153298640Y-107788794D01*
X153313229Y-107650000D01*
X153294365Y-107470525D01*
X153286909Y-107447577D01*
X153238601Y-107298897D01*
X153238598Y-107298891D01*
X153148368Y-107142609D01*
X153148361Y-107142599D01*
X153027615Y-107008497D01*
X152881615Y-106902422D01*
X152716752Y-106829020D01*
X152716027Y-106828866D01*
X152571973Y-106798246D01*
X152509501Y-106764519D01*
X152475179Y-106702369D01*
X152479907Y-106631530D01*
X152522182Y-106574493D01*
X152571973Y-106551753D01*
X152716752Y-106520980D01*
X152881615Y-106447578D01*
X153027613Y-106341504D01*
X153109007Y-106251107D01*
X153148361Y-106207400D01*
X153148362Y-106207398D01*
X153148367Y-106207393D01*
X153238599Y-106051107D01*
X153252390Y-106008664D01*
X153270663Y-105952422D01*
X153294365Y-105879475D01*
X153313229Y-105700000D01*
X153294365Y-105520525D01*
X153290612Y-105508975D01*
X153238601Y-105348897D01*
X153238598Y-105348891D01*
X153148368Y-105192609D01*
X153148361Y-105192599D01*
X153027615Y-105058497D01*
X152881615Y-104952422D01*
X152716752Y-104879020D01*
X152540233Y-104841500D01*
X152540232Y-104841500D01*
X152359768Y-104841500D01*
X152359767Y-104841500D01*
X152183250Y-104879019D01*
X152018383Y-104952422D01*
X152018383Y-104952423D01*
X151872384Y-105058497D01*
X151751638Y-105192599D01*
X151751631Y-105192609D01*
X151661401Y-105348891D01*
X151661398Y-105348897D01*
X151605636Y-105520519D01*
X151605635Y-105520523D01*
X151605635Y-105520525D01*
X151586771Y-105700000D01*
X151605587Y-105879020D01*
X151605636Y-105879480D01*
X151661398Y-106051102D01*
X151661401Y-106051108D01*
X151751631Y-106207390D01*
X151751638Y-106207400D01*
X151872384Y-106341502D01*
X151930267Y-106383556D01*
X152018385Y-106447578D01*
X152183248Y-106520980D01*
X152312314Y-106548413D01*
X152328025Y-106551753D01*
X152390498Y-106585481D01*
X152424820Y-106647631D01*
X152420092Y-106718470D01*
X152377816Y-106775508D01*
X152328025Y-106798247D01*
X152183250Y-106829019D01*
X152018383Y-106902422D01*
X152018383Y-106902423D01*
X151867045Y-107012377D01*
X151865286Y-107009956D01*
X151812775Y-107034925D01*
X151792918Y-107036500D01*
X151673053Y-107036500D01*
X151604932Y-107016498D01*
X151558439Y-106962842D01*
X151547743Y-106897331D01*
X151563229Y-106750000D01*
X151544365Y-106570525D01*
X151504418Y-106447578D01*
X151488601Y-106398897D01*
X151488598Y-106398891D01*
X151398368Y-106242609D01*
X151398361Y-106242599D01*
X151277615Y-106108497D01*
X151131615Y-106002422D01*
X150966752Y-105929020D01*
X150790233Y-105891500D01*
X150790232Y-105891500D01*
X150609768Y-105891500D01*
X150609767Y-105891500D01*
X150433250Y-105929019D01*
X150268383Y-106002422D01*
X150268383Y-106002423D01*
X150117045Y-106112377D01*
X150115286Y-106109956D01*
X150062775Y-106134925D01*
X150042918Y-106136500D01*
X126006310Y-106136500D01*
X125938189Y-106116498D01*
X125917215Y-106099595D01*
X124641091Y-104823470D01*
X124641085Y-104823465D01*
X124641084Y-104823464D01*
X124540601Y-104756324D01*
X124470195Y-104727161D01*
X124428954Y-104710078D01*
X124428951Y-104710077D01*
X124310424Y-104686500D01*
X124310422Y-104686500D01*
X121306310Y-104686500D01*
X121238189Y-104666498D01*
X121217215Y-104649595D01*
X120544264Y-103976644D01*
X120510238Y-103914332D01*
X120508049Y-103900719D01*
X120494365Y-103770524D01*
X120438601Y-103598897D01*
X120438598Y-103598891D01*
X120348368Y-103442609D01*
X120348361Y-103442599D01*
X120227615Y-103308497D01*
X120081615Y-103202422D01*
X119916752Y-103129020D01*
X119740233Y-103091500D01*
X119740232Y-103091500D01*
X119559768Y-103091500D01*
X119559767Y-103091500D01*
X119383250Y-103129019D01*
X119218383Y-103202422D01*
X119218383Y-103202423D01*
X119072384Y-103308497D01*
X118951638Y-103442599D01*
X118951631Y-103442609D01*
X118861401Y-103598891D01*
X118861398Y-103598897D01*
X118805636Y-103770519D01*
X118805635Y-103770523D01*
X118805635Y-103770525D01*
X118786771Y-103950000D01*
X118804310Y-104116872D01*
X118805636Y-104129480D01*
X118861398Y-104301102D01*
X118861401Y-104301108D01*
X118951631Y-104457390D01*
X118951638Y-104457400D01*
X119072384Y-104591502D01*
X119072387Y-104591504D01*
X119218385Y-104697578D01*
X119383248Y-104770980D01*
X119504949Y-104796848D01*
X119559767Y-104808500D01*
X119559768Y-104808500D01*
X119588690Y-104808500D01*
X119656811Y-104828502D01*
X119677780Y-104845400D01*
X120608916Y-105776536D01*
X120686800Y-105828576D01*
X120709399Y-105843676D01*
X120709404Y-105843678D01*
X120710402Y-105844092D01*
X120710844Y-105844448D01*
X120714860Y-105846595D01*
X120714452Y-105847356D01*
X120765683Y-105888640D01*
X120788103Y-105956004D01*
X120770544Y-106024795D01*
X120718582Y-106073173D01*
X120662183Y-106086500D01*
X111557082Y-106086500D01*
X111488961Y-106066498D01*
X111483164Y-106062088D01*
X111482955Y-106062377D01*
X111331615Y-105952422D01*
X111166752Y-105879020D01*
X110990233Y-105841500D01*
X110990232Y-105841500D01*
X110809768Y-105841500D01*
X110809767Y-105841500D01*
X110633250Y-105879019D01*
X110468383Y-105952422D01*
X110468383Y-105952423D01*
X110322384Y-106058497D01*
X110201638Y-106192599D01*
X110201631Y-106192609D01*
X110111401Y-106348891D01*
X110111398Y-106348897D01*
X110055636Y-106520519D01*
X110055635Y-106520523D01*
X110055635Y-106520525D01*
X110036771Y-106700000D01*
X110054271Y-106866500D01*
X110055636Y-106879480D01*
X110111398Y-107051102D01*
X110111401Y-107051108D01*
X110201631Y-107207390D01*
X110201638Y-107207400D01*
X110322384Y-107341502D01*
X110322387Y-107341504D01*
X110468385Y-107447578D01*
X110633248Y-107520980D01*
X110772247Y-107550524D01*
X110809767Y-107558500D01*
X110809768Y-107558500D01*
X110990233Y-107558500D01*
X111021175Y-107551922D01*
X111166752Y-107520980D01*
X111331615Y-107447578D01*
X111477613Y-107341504D01*
X111477612Y-107341504D01*
X111482955Y-107337623D01*
X111484713Y-107340043D01*
X111537225Y-107315075D01*
X111557082Y-107313500D01*
X124143690Y-107313500D01*
X124211811Y-107333502D01*
X124232780Y-107350400D01*
X125008916Y-108126536D01*
X125075990Y-108171353D01*
X125109399Y-108193676D01*
X125221049Y-108239923D01*
X125339576Y-108263500D01*
X130511024Y-108263500D01*
X130579145Y-108283502D01*
X130625638Y-108337158D01*
X130636371Y-108402308D01*
X130629000Y-108474447D01*
X130629000Y-109475544D01*
X130639612Y-109579425D01*
X130676938Y-109692068D01*
X130695385Y-109747738D01*
X130722380Y-109791504D01*
X130723568Y-109793429D01*
X130742305Y-109861909D01*
X130721046Y-109929647D01*
X130705423Y-109948671D01*
X128846167Y-111807929D01*
X128757927Y-111896169D01*
X128757926Y-111896171D01*
X128688601Y-111999923D01*
X128640846Y-112115212D01*
X128616500Y-112237603D01*
X128616500Y-113622474D01*
X128596498Y-113690595D01*
X128584137Y-113706784D01*
X128510957Y-113788059D01*
X128422589Y-113941118D01*
X128415473Y-113953444D01*
X128400999Y-113997986D01*
X128356457Y-114135072D01*
X128336496Y-114325000D01*
X128356457Y-114514927D01*
X128375662Y-114574031D01*
X128415473Y-114696556D01*
X128415476Y-114696561D01*
X128510958Y-114861941D01*
X128510965Y-114861951D01*
X128638744Y-115003864D01*
X128691330Y-115042070D01*
X128793248Y-115116118D01*
X128967712Y-115193794D01*
X129154513Y-115233500D01*
X129345487Y-115233500D01*
X129532288Y-115193794D01*
X129706752Y-115116118D01*
X129861253Y-115003866D01*
X129862258Y-115002750D01*
X129989034Y-114861951D01*
X129989035Y-114861949D01*
X129989040Y-114861944D01*
X130084527Y-114696556D01*
X130143542Y-114514928D01*
X130163504Y-114325000D01*
X130143542Y-114135072D01*
X130084527Y-113953444D01*
X129989040Y-113788056D01*
X129915863Y-113706784D01*
X129885146Y-113642776D01*
X129883500Y-113622474D01*
X129883500Y-112614594D01*
X129903502Y-112546473D01*
X129920405Y-112525499D01*
X132142069Y-110303837D01*
X132142070Y-110303834D01*
X132142072Y-110303833D01*
X132211401Y-110200075D01*
X132233787Y-110146027D01*
X132278333Y-110090749D01*
X132284011Y-110087030D01*
X132386152Y-110024030D01*
X132420255Y-109989927D01*
X132473405Y-109936778D01*
X132535717Y-109902752D01*
X132606532Y-109907817D01*
X132651595Y-109936778D01*
X132738841Y-110024024D01*
X132738847Y-110024029D01*
X132738848Y-110024030D01*
X132889762Y-110117115D01*
X133058074Y-110172887D01*
X133161955Y-110183500D01*
X133788044Y-110183499D01*
X133891926Y-110172887D01*
X134060238Y-110117115D01*
X134211152Y-110024030D01*
X134336530Y-109898652D01*
X134339974Y-109893069D01*
X134392756Y-109845587D01*
X134395910Y-109844128D01*
X134556615Y-109772578D01*
X134702613Y-109666504D01*
X134818568Y-109537722D01*
X134879010Y-109500485D01*
X134949993Y-109501836D01*
X135008978Y-109541350D01*
X135037237Y-109606480D01*
X135037548Y-109609226D01*
X135039611Y-109629420D01*
X135039612Y-109629422D01*
X135039612Y-109629424D01*
X135039613Y-109629426D01*
X135093957Y-109793429D01*
X135095386Y-109797740D01*
X135150217Y-109886636D01*
X135168286Y-109939610D01*
X135169378Y-109950000D01*
X135181458Y-110064928D01*
X135181458Y-110064930D01*
X135181459Y-110064932D01*
X135198414Y-110117114D01*
X135240473Y-110246556D01*
X135263789Y-110286941D01*
X135335958Y-110411941D01*
X135335965Y-110411951D01*
X135463744Y-110553864D01*
X135463747Y-110553866D01*
X135618248Y-110666118D01*
X135792712Y-110743794D01*
X135979513Y-110783500D01*
X135982345Y-110783500D01*
X135983925Y-110783964D01*
X135986075Y-110784190D01*
X135986033Y-110784583D01*
X136050466Y-110803502D01*
X136096959Y-110857158D01*
X136107063Y-110927432D01*
X136077569Y-110992012D01*
X136030564Y-111025908D01*
X135999930Y-111038597D01*
X135999925Y-111038599D01*
X135896171Y-111107926D01*
X135896164Y-111107931D01*
X134524501Y-112479595D01*
X134462189Y-112513621D01*
X134435406Y-112516500D01*
X132158200Y-112516500D01*
X132090079Y-112496498D01*
X132064563Y-112474810D01*
X132061252Y-112471133D01*
X131906752Y-112358882D01*
X131732288Y-112281206D01*
X131545487Y-112241500D01*
X131354513Y-112241500D01*
X131167711Y-112281206D01*
X130993247Y-112358882D01*
X130838744Y-112471135D01*
X130710965Y-112613048D01*
X130710958Y-112613058D01*
X130615476Y-112778438D01*
X130615473Y-112778445D01*
X130556457Y-112960072D01*
X130536496Y-113150000D01*
X130556457Y-113339927D01*
X130579437Y-113410650D01*
X130615473Y-113521556D01*
X130615476Y-113521561D01*
X130710958Y-113686941D01*
X130710965Y-113686951D01*
X130838744Y-113828864D01*
X130882783Y-113860860D01*
X130993248Y-113941118D01*
X131167712Y-114018794D01*
X131354513Y-114058500D01*
X131545487Y-114058500D01*
X131732288Y-114018794D01*
X131906752Y-113941118D01*
X132061253Y-113828866D01*
X132064563Y-113825190D01*
X132125009Y-113787950D01*
X132158200Y-113783500D01*
X134812393Y-113783500D01*
X134812394Y-113783500D01*
X134934785Y-113759155D01*
X134934787Y-113759153D01*
X134940855Y-113757947D01*
X134941483Y-113761104D01*
X134998355Y-113759865D01*
X135058903Y-113796938D01*
X135089797Y-113860860D01*
X135091500Y-113881505D01*
X135091500Y-114025544D01*
X135102112Y-114129425D01*
X135157885Y-114297738D01*
X135250970Y-114448652D01*
X135250975Y-114448658D01*
X135376341Y-114574024D01*
X135376345Y-114574027D01*
X135376348Y-114574030D01*
X135376350Y-114574031D01*
X135426646Y-114605054D01*
X135474125Y-114657839D01*
X135486500Y-114712295D01*
X135486500Y-114947220D01*
X135466498Y-115015341D01*
X135454136Y-115031530D01*
X135376638Y-115117599D01*
X135376631Y-115117609D01*
X135286401Y-115273891D01*
X135286398Y-115273897D01*
X135230636Y-115445519D01*
X135230635Y-115445523D01*
X135230635Y-115445525D01*
X135211771Y-115625000D01*
X135230419Y-115802423D01*
X135230636Y-115804480D01*
X135286398Y-115976102D01*
X135286401Y-115976108D01*
X135376631Y-116132390D01*
X135376638Y-116132400D01*
X135497384Y-116266502D01*
X135497387Y-116266504D01*
X135643385Y-116372578D01*
X135808248Y-116445980D01*
X135947247Y-116475524D01*
X135984767Y-116483500D01*
X135984768Y-116483500D01*
X136165233Y-116483500D01*
X136196175Y-116476922D01*
X136341752Y-116445980D01*
X136506615Y-116372578D01*
X136652613Y-116266504D01*
X136652615Y-116266502D01*
X136773361Y-116132400D01*
X136773362Y-116132398D01*
X136773367Y-116132393D01*
X136863599Y-115976107D01*
X136870298Y-115955491D01*
X136904213Y-115851108D01*
X136919365Y-115804475D01*
X136938229Y-115625000D01*
X136919365Y-115445525D01*
X136899212Y-115383500D01*
X136863601Y-115273897D01*
X136863599Y-115273894D01*
X136863599Y-115273893D01*
X136780219Y-115129475D01*
X136773368Y-115117608D01*
X136773366Y-115117606D01*
X136745863Y-115087059D01*
X136715146Y-115023051D01*
X136713500Y-115002750D01*
X136713500Y-114712295D01*
X136733502Y-114644174D01*
X136773354Y-114605054D01*
X136783346Y-114598891D01*
X136823652Y-114574030D01*
X136947485Y-114450196D01*
X137009795Y-114416173D01*
X137080611Y-114421237D01*
X137137447Y-114463784D01*
X137161888Y-114526121D01*
X137179803Y-114696561D01*
X137180636Y-114704480D01*
X137236398Y-114876102D01*
X137236401Y-114876108D01*
X137326631Y-115032390D01*
X137326638Y-115032400D01*
X137447384Y-115166502D01*
X137447387Y-115166504D01*
X137593385Y-115272578D01*
X137758248Y-115345980D01*
X137897247Y-115375524D01*
X137934767Y-115383500D01*
X137934768Y-115383500D01*
X138115233Y-115383500D01*
X138147012Y-115376745D01*
X138291752Y-115345980D01*
X138456615Y-115272578D01*
X138602613Y-115166504D01*
X138723367Y-115032393D01*
X138813599Y-114876107D01*
X138816973Y-114865725D01*
X138852247Y-114757158D01*
X138869365Y-114704475D01*
X138888229Y-114525000D01*
X138880157Y-114448207D01*
X138892929Y-114378370D01*
X138898216Y-114368907D01*
X138942115Y-114297738D01*
X138997887Y-114129426D01*
X139008500Y-114025545D01*
X139008499Y-112974456D01*
X138997887Y-112870574D01*
X138942115Y-112702262D01*
X138849030Y-112551348D01*
X138849029Y-112551347D01*
X138849024Y-112551341D01*
X138746278Y-112448595D01*
X138712252Y-112386283D01*
X138717317Y-112315468D01*
X138759864Y-112258632D01*
X138826384Y-112233821D01*
X138835373Y-112233500D01*
X143830100Y-112233500D01*
X143898221Y-112253502D01*
X143944714Y-112307158D01*
X143955409Y-112372668D01*
X143936771Y-112550000D01*
X143953430Y-112708497D01*
X143955636Y-112729480D01*
X144011398Y-112901102D01*
X144011401Y-112901108D01*
X144101631Y-113057390D01*
X144101638Y-113057400D01*
X144222384Y-113191502D01*
X144314687Y-113258564D01*
X144358041Y-113314786D01*
X144364116Y-113385522D01*
X144330985Y-113448314D01*
X144269165Y-113483225D01*
X144240626Y-113486500D01*
X143307082Y-113486500D01*
X143238961Y-113466498D01*
X143233164Y-113462088D01*
X143232955Y-113462377D01*
X143081615Y-113352422D01*
X142916752Y-113279020D01*
X142740233Y-113241500D01*
X142740232Y-113241500D01*
X142559768Y-113241500D01*
X142559767Y-113241500D01*
X142383250Y-113279019D01*
X142218383Y-113352422D01*
X142218383Y-113352423D01*
X142072384Y-113458497D01*
X141951638Y-113592599D01*
X141951631Y-113592609D01*
X141861401Y-113748891D01*
X141861398Y-113748897D01*
X141805636Y-113920519D01*
X141805635Y-113920523D01*
X141805635Y-113920525D01*
X141786771Y-114100000D01*
X141805053Y-114273942D01*
X141805636Y-114279480D01*
X141861398Y-114451102D01*
X141861401Y-114451108D01*
X141951631Y-114607390D01*
X141951634Y-114607394D01*
X142050892Y-114717632D01*
X142081609Y-114781640D01*
X142072844Y-114852093D01*
X142031316Y-114903878D01*
X141938744Y-114971135D01*
X141810965Y-115113048D01*
X141810958Y-115113058D01*
X141715476Y-115278438D01*
X141715473Y-115278444D01*
X141708111Y-115301102D01*
X141656457Y-115460072D01*
X141636496Y-115650000D01*
X141656457Y-115839927D01*
X141686526Y-115932470D01*
X141715473Y-116021556D01*
X141715476Y-116021561D01*
X141810958Y-116186941D01*
X141810965Y-116186951D01*
X141938744Y-116328864D01*
X141961836Y-116345641D01*
X142093248Y-116441118D01*
X142267712Y-116518794D01*
X142454513Y-116558500D01*
X142645487Y-116558500D01*
X142832288Y-116518794D01*
X143006752Y-116441118D01*
X143161253Y-116328866D01*
X143168354Y-116320980D01*
X143289034Y-116186951D01*
X143289035Y-116186949D01*
X143289040Y-116186944D01*
X143384527Y-116021556D01*
X143443542Y-115839928D01*
X143460907Y-115674703D01*
X143487920Y-115609048D01*
X143497113Y-115598789D01*
X143581828Y-115514074D01*
X143644138Y-115480050D01*
X143714953Y-115485115D01*
X143771789Y-115527662D01*
X143796230Y-115589998D01*
X143799909Y-115625000D01*
X143805636Y-115679480D01*
X143861398Y-115851102D01*
X143861401Y-115851108D01*
X143951631Y-116007390D01*
X143951638Y-116007400D01*
X144072384Y-116141502D01*
X144072387Y-116141504D01*
X144218385Y-116247578D01*
X144383248Y-116320980D01*
X144499275Y-116345641D01*
X144561748Y-116379369D01*
X144562173Y-116379793D01*
X144973463Y-116791083D01*
X144973464Y-116791084D01*
X145058916Y-116876536D01*
X145159399Y-116943676D01*
X145271049Y-116989923D01*
X145389576Y-117013499D01*
X145389577Y-117013499D01*
X145510424Y-117013499D01*
X145510425Y-117013499D01*
X145588742Y-116997920D01*
X145613323Y-116995500D01*
X145737650Y-116995500D01*
X145805771Y-117015502D01*
X145852264Y-117069158D01*
X145857253Y-117081863D01*
X145889685Y-117179738D01*
X145975825Y-117319392D01*
X145982770Y-117330652D01*
X145982775Y-117330658D01*
X146108141Y-117456024D01*
X146108147Y-117456029D01*
X146108148Y-117456030D01*
X146259062Y-117549115D01*
X146427374Y-117604887D01*
X146531255Y-117615500D01*
X147132344Y-117615499D01*
X147236226Y-117604887D01*
X147404538Y-117549115D01*
X147555452Y-117456030D01*
X147680830Y-117330652D01*
X147680831Y-117330649D01*
X147682962Y-117327956D01*
X147684898Y-117326584D01*
X147686020Y-117325463D01*
X147686211Y-117325654D01*
X147740901Y-117286925D01*
X147811826Y-117283733D01*
X147873218Y-117319392D01*
X147880638Y-117327956D01*
X147882771Y-117330654D01*
X148008141Y-117456024D01*
X148008147Y-117456029D01*
X148008148Y-117456030D01*
X148159062Y-117549115D01*
X148327374Y-117604887D01*
X148431255Y-117615500D01*
X149032344Y-117615499D01*
X149136226Y-117604887D01*
X149304538Y-117549115D01*
X149375389Y-117505412D01*
X149443865Y-117486676D01*
X149511604Y-117507934D01*
X149557096Y-117562441D01*
X149565898Y-117632890D01*
X149535216Y-117696914D01*
X149530630Y-117701749D01*
X149353361Y-117879019D01*
X148882783Y-118349596D01*
X148820473Y-118383620D01*
X148793690Y-118386500D01*
X143389572Y-118386500D01*
X143271130Y-118410060D01*
X143271090Y-118410068D01*
X143271047Y-118410077D01*
X143159399Y-118456324D01*
X143058914Y-118523465D01*
X143058908Y-118523470D01*
X141974473Y-119607906D01*
X141912161Y-119641932D01*
X141909962Y-119642389D01*
X141821130Y-119660060D01*
X141821090Y-119660068D01*
X141821047Y-119660077D01*
X141709399Y-119706324D01*
X141608914Y-119773465D01*
X141608913Y-119773466D01*
X141561247Y-119821133D01*
X141419283Y-119963096D01*
X141356974Y-119997120D01*
X141330190Y-120000000D01*
X136507751Y-120000000D01*
X136439630Y-119979998D01*
X136433690Y-119975936D01*
X136315715Y-119890222D01*
X136150852Y-119816820D01*
X135974333Y-119779300D01*
X135974332Y-119779300D01*
X135793868Y-119779300D01*
X135793867Y-119779300D01*
X135617350Y-119816819D01*
X135452483Y-119890222D01*
X135452483Y-119890223D01*
X135334510Y-119975936D01*
X135267642Y-119999794D01*
X135260449Y-120000000D01*
X133664460Y-120000000D01*
X133613211Y-119989107D01*
X133450852Y-119916820D01*
X133274333Y-119879300D01*
X133274332Y-119879300D01*
X133093868Y-119879300D01*
X133093867Y-119879300D01*
X132917350Y-119916819D01*
X132754990Y-119989107D01*
X132703741Y-120000000D01*
X100151500Y-120000000D01*
X100083379Y-119979998D01*
X100036886Y-119926342D01*
X100025500Y-119874000D01*
X100025500Y-118700000D01*
X137286771Y-118700000D01*
X137304950Y-118872959D01*
X137305636Y-118879480D01*
X137361398Y-119051102D01*
X137361401Y-119051108D01*
X137451631Y-119207390D01*
X137451638Y-119207400D01*
X137572384Y-119341502D01*
X137630267Y-119383556D01*
X137718385Y-119447578D01*
X137883248Y-119520980D01*
X138022247Y-119550524D01*
X138059767Y-119558500D01*
X138059768Y-119558500D01*
X138240233Y-119558500D01*
X138271175Y-119551922D01*
X138416752Y-119520980D01*
X138581615Y-119447578D01*
X138727613Y-119341504D01*
X138753235Y-119313048D01*
X138848361Y-119207400D01*
X138848362Y-119207398D01*
X138848367Y-119207393D01*
X138938599Y-119051107D01*
X138946270Y-119027500D01*
X138975478Y-118937603D01*
X138994365Y-118879475D01*
X139013229Y-118700000D01*
X138994365Y-118520525D01*
X138958477Y-118410072D01*
X138938601Y-118348897D01*
X138938598Y-118348891D01*
X138886410Y-118258500D01*
X138848367Y-118192607D01*
X138848365Y-118192605D01*
X138848361Y-118192599D01*
X138727615Y-118058497D01*
X138581615Y-117952422D01*
X138416752Y-117879020D01*
X138240233Y-117841500D01*
X138240232Y-117841500D01*
X138059768Y-117841500D01*
X138059767Y-117841500D01*
X137883250Y-117879019D01*
X137718383Y-117952422D01*
X137718383Y-117952423D01*
X137572384Y-118058497D01*
X137451638Y-118192599D01*
X137451631Y-118192609D01*
X137361401Y-118348891D01*
X137361398Y-118348897D01*
X137305636Y-118520519D01*
X137305635Y-118520523D01*
X137305635Y-118520525D01*
X137286771Y-118700000D01*
X100025500Y-118700000D01*
X100025500Y-116600000D01*
X106161771Y-116600000D01*
X106175380Y-116729480D01*
X106180636Y-116779480D01*
X106236398Y-116951102D01*
X106236401Y-116951108D01*
X106326631Y-117107390D01*
X106326638Y-117107400D01*
X106447384Y-117241502D01*
X106476142Y-117262396D01*
X106593385Y-117347578D01*
X106758248Y-117420980D01*
X106897247Y-117450524D01*
X106934767Y-117458500D01*
X106934768Y-117458500D01*
X107115233Y-117458500D01*
X107146175Y-117451922D01*
X107291752Y-117420980D01*
X107456615Y-117347578D01*
X107602613Y-117241504D01*
X107621508Y-117220519D01*
X107723361Y-117107400D01*
X107723362Y-117107398D01*
X107723367Y-117107393D01*
X107813599Y-116951107D01*
X107814576Y-116948102D01*
X107858147Y-116814000D01*
X107869365Y-116779475D01*
X107888229Y-116600000D01*
X107882974Y-116550000D01*
X109536771Y-116550000D01*
X109550761Y-116683107D01*
X109555636Y-116729480D01*
X109611398Y-116901102D01*
X109611401Y-116901108D01*
X109701631Y-117057390D01*
X109701638Y-117057400D01*
X109822384Y-117191502D01*
X109862323Y-117220519D01*
X109968385Y-117297578D01*
X110133248Y-117370980D01*
X110269778Y-117400000D01*
X110309767Y-117408500D01*
X110309768Y-117408500D01*
X110490233Y-117408500D01*
X110530222Y-117400000D01*
X132286771Y-117400000D01*
X132292659Y-117456024D01*
X132305636Y-117579480D01*
X132361398Y-117751102D01*
X132361401Y-117751108D01*
X132451631Y-117907390D01*
X132451638Y-117907400D01*
X132572384Y-118041502D01*
X132572387Y-118041504D01*
X132718385Y-118147578D01*
X132883248Y-118220980D01*
X133022247Y-118250524D01*
X133059767Y-118258500D01*
X133059768Y-118258500D01*
X133240233Y-118258500D01*
X133271175Y-118251922D01*
X133416752Y-118220980D01*
X133581615Y-118147578D01*
X133727613Y-118041504D01*
X133729037Y-118039923D01*
X133848361Y-117907400D01*
X133848362Y-117907398D01*
X133848367Y-117907393D01*
X133938599Y-117751107D01*
X133994365Y-117579475D01*
X134013229Y-117400000D01*
X133994365Y-117220525D01*
X133972418Y-117152979D01*
X133938601Y-117048897D01*
X133938598Y-117048891D01*
X133853274Y-116901107D01*
X133848367Y-116892607D01*
X133848365Y-116892605D01*
X133848361Y-116892599D01*
X133727615Y-116758497D01*
X133581615Y-116652422D01*
X133416752Y-116579020D01*
X133240233Y-116541500D01*
X133240232Y-116541500D01*
X133059768Y-116541500D01*
X133059767Y-116541500D01*
X132883250Y-116579019D01*
X132718383Y-116652422D01*
X132718383Y-116652423D01*
X132572384Y-116758497D01*
X132451638Y-116892599D01*
X132451631Y-116892609D01*
X132361401Y-117048891D01*
X132361398Y-117048897D01*
X132305636Y-117220519D01*
X132305635Y-117220523D01*
X132305635Y-117220525D01*
X132286771Y-117400000D01*
X110530222Y-117400000D01*
X110666752Y-117370980D01*
X110831615Y-117297578D01*
X110977613Y-117191504D01*
X111026143Y-117137606D01*
X111098361Y-117057400D01*
X111098362Y-117057398D01*
X111098367Y-117057393D01*
X111188599Y-116901107D01*
X111191364Y-116892599D01*
X111224347Y-116791084D01*
X111244365Y-116729475D01*
X111263229Y-116550000D01*
X111244365Y-116370525D01*
X111223595Y-116306600D01*
X111188601Y-116198897D01*
X111188598Y-116198891D01*
X111098368Y-116042609D01*
X111098361Y-116042599D01*
X110977615Y-115908497D01*
X110831615Y-115802422D01*
X110666752Y-115729020D01*
X110490233Y-115691500D01*
X110490232Y-115691500D01*
X110309768Y-115691500D01*
X110309767Y-115691500D01*
X110133250Y-115729019D01*
X109968383Y-115802422D01*
X109968383Y-115802423D01*
X109822384Y-115908497D01*
X109701638Y-116042599D01*
X109701631Y-116042609D01*
X109611401Y-116198891D01*
X109611398Y-116198897D01*
X109555636Y-116370519D01*
X109555635Y-116370523D01*
X109555635Y-116370525D01*
X109536771Y-116550000D01*
X107882974Y-116550000D01*
X107869365Y-116420525D01*
X107853117Y-116370519D01*
X107813601Y-116248897D01*
X107813598Y-116248891D01*
X107751597Y-116141502D01*
X107723367Y-116092607D01*
X107723365Y-116092605D01*
X107723361Y-116092599D01*
X107602615Y-115958497D01*
X107456615Y-115852422D01*
X107291752Y-115779020D01*
X107115233Y-115741500D01*
X107115232Y-115741500D01*
X106934768Y-115741500D01*
X106934767Y-115741500D01*
X106758250Y-115779019D01*
X106593383Y-115852422D01*
X106593383Y-115852423D01*
X106447384Y-115958497D01*
X106326638Y-116092599D01*
X106326631Y-116092609D01*
X106236401Y-116248891D01*
X106236398Y-116248897D01*
X106180636Y-116420519D01*
X106180635Y-116420523D01*
X106180635Y-116420525D01*
X106161771Y-116600000D01*
X100025500Y-116600000D01*
X100025500Y-113750000D01*
X103586771Y-113750000D01*
X103604694Y-113920525D01*
X103605636Y-113929480D01*
X103661398Y-114101102D01*
X103661401Y-114101108D01*
X103751631Y-114257390D01*
X103751638Y-114257400D01*
X103872384Y-114391502D01*
X103872387Y-114391504D01*
X104018385Y-114497578D01*
X104183248Y-114570980D01*
X104314561Y-114598891D01*
X104359767Y-114608500D01*
X104359768Y-114608500D01*
X104540233Y-114608500D01*
X104585439Y-114598891D01*
X104716752Y-114570980D01*
X104881615Y-114497578D01*
X105027613Y-114391504D01*
X105078557Y-114334925D01*
X105148361Y-114257400D01*
X105148362Y-114257398D01*
X105148367Y-114257393D01*
X105238599Y-114101107D01*
X105241721Y-114091500D01*
X105286010Y-113955190D01*
X105294365Y-113929475D01*
X105313229Y-113750000D01*
X105294365Y-113570525D01*
X105267064Y-113486500D01*
X105238601Y-113398897D01*
X105238598Y-113398891D01*
X105210371Y-113350000D01*
X113986771Y-113350000D01*
X114004803Y-113521561D01*
X114005636Y-113529480D01*
X114061398Y-113701102D01*
X114061401Y-113701108D01*
X114151631Y-113857390D01*
X114151638Y-113857400D01*
X114272384Y-113991502D01*
X114272387Y-113991504D01*
X114418385Y-114097578D01*
X114583248Y-114170980D01*
X114707217Y-114197330D01*
X114759767Y-114208500D01*
X114759768Y-114208500D01*
X114940233Y-114208500D01*
X114992783Y-114197330D01*
X115116752Y-114170980D01*
X115281615Y-114097578D01*
X115427613Y-113991504D01*
X115435434Y-113982818D01*
X115548361Y-113857400D01*
X115548362Y-113857398D01*
X115548367Y-113857393D01*
X115638599Y-113701107D01*
X115644249Y-113683720D01*
X115694363Y-113529480D01*
X115694365Y-113529475D01*
X115713229Y-113350000D01*
X115694365Y-113170525D01*
X115657606Y-113057390D01*
X115638601Y-112998897D01*
X115638598Y-112998891D01*
X115548368Y-112842609D01*
X115548361Y-112842599D01*
X115427615Y-112708497D01*
X115281615Y-112602422D01*
X115116752Y-112529020D01*
X114940233Y-112491500D01*
X114940232Y-112491500D01*
X114759768Y-112491500D01*
X114759767Y-112491500D01*
X114583250Y-112529019D01*
X114418383Y-112602422D01*
X114418383Y-112602423D01*
X114272384Y-112708497D01*
X114151638Y-112842599D01*
X114151631Y-112842609D01*
X114061401Y-112998891D01*
X114061398Y-112998897D01*
X114005636Y-113170519D01*
X114005635Y-113170523D01*
X114005635Y-113170525D01*
X113986771Y-113350000D01*
X105210371Y-113350000D01*
X105169390Y-113279020D01*
X105148367Y-113242607D01*
X105148365Y-113242605D01*
X105148361Y-113242599D01*
X105027615Y-113108497D01*
X104881615Y-113002422D01*
X104716752Y-112929020D01*
X104540233Y-112891500D01*
X104540232Y-112891500D01*
X104359768Y-112891500D01*
X104359767Y-112891500D01*
X104183250Y-112929019D01*
X104018383Y-113002422D01*
X104018383Y-113002423D01*
X103872384Y-113108497D01*
X103751638Y-113242599D01*
X103751631Y-113242609D01*
X103661401Y-113398891D01*
X103661398Y-113398897D01*
X103605636Y-113570519D01*
X103605635Y-113570523D01*
X103605635Y-113570525D01*
X103586771Y-113750000D01*
X100025500Y-113750000D01*
X100025500Y-109150000D01*
X103486771Y-109150000D01*
X103504742Y-109320980D01*
X103505636Y-109329480D01*
X103561398Y-109501102D01*
X103561401Y-109501108D01*
X103651631Y-109657390D01*
X103651638Y-109657400D01*
X103772384Y-109791502D01*
X103821930Y-109827499D01*
X103918385Y-109897578D01*
X104083248Y-109970980D01*
X104213413Y-109998647D01*
X104259767Y-110008500D01*
X104259768Y-110008500D01*
X104440233Y-110008500D01*
X104475517Y-110001000D01*
X104616752Y-109970980D01*
X104663874Y-109950000D01*
X113936771Y-109950000D01*
X113954803Y-110121561D01*
X113955636Y-110129480D01*
X114011398Y-110301102D01*
X114011401Y-110301108D01*
X114101631Y-110457390D01*
X114101638Y-110457400D01*
X114222384Y-110591502D01*
X114222387Y-110591504D01*
X114368385Y-110697578D01*
X114533248Y-110770980D01*
X114672247Y-110800524D01*
X114709767Y-110808500D01*
X114709768Y-110808500D01*
X114890233Y-110808500D01*
X114921175Y-110801922D01*
X115066752Y-110770980D01*
X115231615Y-110697578D01*
X115377613Y-110591504D01*
X115377961Y-110591118D01*
X115498361Y-110457400D01*
X115498362Y-110457398D01*
X115498367Y-110457393D01*
X115588599Y-110301107D01*
X115606324Y-110246556D01*
X115630260Y-110172886D01*
X115644365Y-110129475D01*
X115663229Y-109950000D01*
X115644365Y-109770525D01*
X115614766Y-109679427D01*
X115588601Y-109598897D01*
X115588598Y-109598891D01*
X115543242Y-109520332D01*
X115498367Y-109442607D01*
X115498365Y-109442605D01*
X115498361Y-109442599D01*
X115377615Y-109308497D01*
X115231615Y-109202422D01*
X115066752Y-109129020D01*
X114890233Y-109091500D01*
X114890232Y-109091500D01*
X114709768Y-109091500D01*
X114709767Y-109091500D01*
X114533250Y-109129019D01*
X114368383Y-109202422D01*
X114368383Y-109202423D01*
X114222384Y-109308497D01*
X114101638Y-109442599D01*
X114101631Y-109442609D01*
X114011401Y-109598891D01*
X114011398Y-109598897D01*
X113955636Y-109770519D01*
X113955635Y-109770523D01*
X113955635Y-109770525D01*
X113936771Y-109950000D01*
X104663874Y-109950000D01*
X104781615Y-109897578D01*
X104927613Y-109791504D01*
X104963987Y-109751107D01*
X105048361Y-109657400D01*
X105048362Y-109657398D01*
X105048367Y-109657393D01*
X105138599Y-109501107D01*
X105149099Y-109468793D01*
X105174336Y-109391118D01*
X105194365Y-109329475D01*
X105213229Y-109150000D01*
X105194365Y-108970525D01*
X105168178Y-108889928D01*
X105138601Y-108798897D01*
X105138598Y-108798891D01*
X105048368Y-108642609D01*
X105048361Y-108642599D01*
X104927615Y-108508497D01*
X104915920Y-108500000D01*
X121536771Y-108500000D01*
X121555048Y-108673893D01*
X121555636Y-108679480D01*
X121611398Y-108851102D01*
X121611401Y-108851108D01*
X121701631Y-109007390D01*
X121701638Y-109007400D01*
X121822384Y-109141502D01*
X121822387Y-109141504D01*
X121968385Y-109247578D01*
X122133248Y-109320980D01*
X122272247Y-109350524D01*
X122309767Y-109358500D01*
X122309768Y-109358500D01*
X122490233Y-109358500D01*
X122521175Y-109351922D01*
X122666752Y-109320980D01*
X122831615Y-109247578D01*
X122977613Y-109141504D01*
X122988855Y-109129019D01*
X123098361Y-109007400D01*
X123098362Y-109007398D01*
X123098367Y-109007393D01*
X123188599Y-108851107D01*
X123191721Y-108841500D01*
X123237696Y-108700000D01*
X123244365Y-108679475D01*
X123263229Y-108500000D01*
X123244365Y-108320525D01*
X123234810Y-108291117D01*
X123188601Y-108148897D01*
X123188598Y-108148891D01*
X123114837Y-108021134D01*
X123098367Y-107992607D01*
X123098365Y-107992605D01*
X123098361Y-107992599D01*
X122977615Y-107858497D01*
X122831615Y-107752422D01*
X122666752Y-107679020D01*
X122490233Y-107641500D01*
X122490232Y-107641500D01*
X122309768Y-107641500D01*
X122309767Y-107641500D01*
X122133250Y-107679019D01*
X121968383Y-107752422D01*
X121968383Y-107752423D01*
X121822384Y-107858497D01*
X121701638Y-107992599D01*
X121701631Y-107992609D01*
X121611401Y-108148891D01*
X121611398Y-108148897D01*
X121555636Y-108320519D01*
X121555635Y-108320523D01*
X121555635Y-108320525D01*
X121536771Y-108500000D01*
X104915920Y-108500000D01*
X104781615Y-108402422D01*
X104616752Y-108329020D01*
X104440233Y-108291500D01*
X104440232Y-108291500D01*
X104259768Y-108291500D01*
X104259767Y-108291500D01*
X104083250Y-108329019D01*
X103918383Y-108402422D01*
X103918383Y-108402423D01*
X103772384Y-108508497D01*
X103651638Y-108642599D01*
X103651631Y-108642609D01*
X103561401Y-108798891D01*
X103561398Y-108798897D01*
X103505636Y-108970519D01*
X103505635Y-108970523D01*
X103505635Y-108970525D01*
X103486771Y-109150000D01*
X100025500Y-109150000D01*
X100025500Y-101300000D01*
X118036771Y-101300000D01*
X118055401Y-101477252D01*
X118055636Y-101479480D01*
X118111398Y-101651102D01*
X118111401Y-101651108D01*
X118201631Y-101807390D01*
X118201638Y-101807400D01*
X118322384Y-101941502D01*
X118350738Y-101962102D01*
X118468385Y-102047578D01*
X118633248Y-102120980D01*
X118772247Y-102150524D01*
X118809767Y-102158500D01*
X118809768Y-102158500D01*
X118990233Y-102158500D01*
X119021452Y-102151864D01*
X119166752Y-102120980D01*
X119331615Y-102047578D01*
X119477613Y-101941504D01*
X119508800Y-101906867D01*
X119598361Y-101807400D01*
X119598362Y-101807398D01*
X119598367Y-101807393D01*
X119688599Y-101651107D01*
X119690389Y-101645600D01*
X119722237Y-101547578D01*
X119744365Y-101479475D01*
X119763229Y-101300000D01*
X119744365Y-101120525D01*
X119721924Y-101051458D01*
X119688601Y-100948897D01*
X119688598Y-100948891D01*
X119598368Y-100792609D01*
X119598361Y-100792599D01*
X119477615Y-100658497D01*
X119331615Y-100552422D01*
X119166752Y-100479020D01*
X118990233Y-100441500D01*
X118990232Y-100441500D01*
X118809768Y-100441500D01*
X118809767Y-100441500D01*
X118633250Y-100479019D01*
X118468383Y-100552422D01*
X118468383Y-100552423D01*
X118322384Y-100658497D01*
X118201638Y-100792599D01*
X118201631Y-100792609D01*
X118111401Y-100948891D01*
X118111398Y-100948897D01*
X118055636Y-101120519D01*
X118055635Y-101120523D01*
X118055635Y-101120525D01*
X118036771Y-101300000D01*
X100025500Y-101300000D01*
X100025500Y-100126000D01*
X100045502Y-100057879D01*
X100099158Y-100011386D01*
X100151500Y-100000000D01*
X103538877Y-100000000D01*
X103606998Y-100020002D01*
X103632513Y-100041690D01*
X103722384Y-100141502D01*
X103722387Y-100141504D01*
X103868385Y-100247578D01*
X104033248Y-100320980D01*
X104172247Y-100350524D01*
X104209767Y-100358500D01*
X104209768Y-100358500D01*
X104390233Y-100358500D01*
X104421175Y-100351922D01*
X104566752Y-100320980D01*
X104731615Y-100247578D01*
X104877613Y-100141504D01*
X104897036Y-100119933D01*
X104967487Y-100041690D01*
X105027933Y-100004450D01*
X105061123Y-100000000D01*
X106938877Y-100000000D01*
X107006998Y-100020002D01*
X107032513Y-100041690D01*
X107122384Y-100141502D01*
X107122387Y-100141504D01*
X107268385Y-100247578D01*
X107433248Y-100320980D01*
X107572247Y-100350524D01*
X107609767Y-100358500D01*
X107609768Y-100358500D01*
X107790233Y-100358500D01*
X107821175Y-100351922D01*
X107966752Y-100320980D01*
X108131615Y-100247578D01*
X108277613Y-100141504D01*
X108297036Y-100119933D01*
X108367487Y-100041690D01*
X108427933Y-100004450D01*
X108461123Y-100000000D01*
X131810500Y-100000000D01*
X131878621Y-100020002D01*
X131925114Y-100073658D01*
X131936500Y-100126000D01*
X131936500Y-101699985D01*
X131916498Y-101768106D01*
X131904137Y-101784295D01*
X131851630Y-101842610D01*
X131761402Y-101998891D01*
X131761398Y-101998897D01*
X131705636Y-102170519D01*
X131705635Y-102170523D01*
X131705635Y-102170525D01*
X131686771Y-102350000D01*
X131703909Y-102513056D01*
X131705636Y-102529480D01*
X131761398Y-102701102D01*
X131761401Y-102701108D01*
X131851631Y-102857390D01*
X131851638Y-102857400D01*
X131972384Y-102991502D01*
X131972387Y-102991504D01*
X132118385Y-103097578D01*
X132283248Y-103170980D01*
X132422247Y-103200524D01*
X132459767Y-103208500D01*
X132459768Y-103208500D01*
X132640233Y-103208500D01*
X132671175Y-103201922D01*
X132816752Y-103170980D01*
X132981615Y-103097578D01*
X133025941Y-103065372D01*
X133092806Y-103041516D01*
X133161958Y-103057596D01*
X133174045Y-103065363D01*
X133218385Y-103097578D01*
X133383248Y-103170980D01*
X133522247Y-103200524D01*
X133559767Y-103208500D01*
X133559768Y-103208500D01*
X133740233Y-103208500D01*
X133771175Y-103201922D01*
X133916752Y-103170980D01*
X134076624Y-103099799D01*
X134146990Y-103090366D01*
X134201933Y-103112971D01*
X134224023Y-103129020D01*
X134318385Y-103197578D01*
X134483248Y-103270980D01*
X134622247Y-103300524D01*
X134659767Y-103308500D01*
X134659768Y-103308500D01*
X134840232Y-103308500D01*
X134977198Y-103279387D01*
X135047987Y-103284789D01*
X135104619Y-103327606D01*
X135112509Y-103339628D01*
X135151633Y-103407393D01*
X135151635Y-103407396D01*
X135151638Y-103407400D01*
X135272384Y-103541502D01*
X135330267Y-103583556D01*
X135418385Y-103647578D01*
X135583248Y-103720980D01*
X135722247Y-103750524D01*
X135759767Y-103758500D01*
X135759768Y-103758500D01*
X135940233Y-103758500D01*
X135971175Y-103751922D01*
X136116752Y-103720980D01*
X136281615Y-103647578D01*
X136427613Y-103541504D01*
X136492743Y-103469170D01*
X136548361Y-103407400D01*
X136548362Y-103407398D01*
X136548367Y-103407393D01*
X136638599Y-103251107D01*
X136642232Y-103239928D01*
X136678267Y-103129019D01*
X136694365Y-103079475D01*
X136713229Y-102900000D01*
X136694365Y-102720525D01*
X136654418Y-102597578D01*
X136638601Y-102548897D01*
X136638599Y-102548894D01*
X136638599Y-102548893D01*
X136548367Y-102392607D01*
X136495862Y-102334294D01*
X136465146Y-102270287D01*
X136463500Y-102249985D01*
X136463500Y-98894424D01*
X136469667Y-98855487D01*
X136484935Y-98808497D01*
X136494365Y-98779475D01*
X136513229Y-98600000D01*
X136494365Y-98420525D01*
X136480541Y-98377978D01*
X136438601Y-98248897D01*
X136438598Y-98248891D01*
X136348368Y-98092609D01*
X136348361Y-98092599D01*
X136227615Y-97958497D01*
X136081615Y-97852422D01*
X135916752Y-97779020D01*
X135740233Y-97741500D01*
X135740232Y-97741500D01*
X135559768Y-97741500D01*
X135559766Y-97741500D01*
X135515696Y-97750867D01*
X135444905Y-97745464D01*
X135388273Y-97702647D01*
X135363780Y-97636009D01*
X135363500Y-97627620D01*
X135363500Y-97294483D01*
X135383502Y-97226362D01*
X135395867Y-97210169D01*
X135398367Y-97207393D01*
X135488599Y-97051107D01*
X135491720Y-97041504D01*
X135528990Y-96926795D01*
X135544365Y-96879475D01*
X135563229Y-96700000D01*
X135544365Y-96520525D01*
X135537336Y-96498891D01*
X135488601Y-96348897D01*
X135488598Y-96348891D01*
X135421638Y-96232914D01*
X135398367Y-96192607D01*
X135398365Y-96192605D01*
X135398361Y-96192599D01*
X135277615Y-96058497D01*
X135207272Y-96007390D01*
X135131615Y-95952422D01*
X135131611Y-95952420D01*
X135074750Y-95927103D01*
X135020655Y-95881122D01*
X135000006Y-95813195D01*
X135000000Y-95811997D01*
X135000000Y-92600094D01*
X135020002Y-92531973D01*
X135073658Y-92485480D01*
X135143932Y-92475376D01*
X135208512Y-92504870D01*
X135215095Y-92510999D01*
X137279595Y-94575499D01*
X137313621Y-94637811D01*
X137316500Y-94664594D01*
X137316500Y-102347474D01*
X137296498Y-102415595D01*
X137284137Y-102431784D01*
X137210957Y-102513059D01*
X137115476Y-102678438D01*
X137115473Y-102678445D01*
X137056457Y-102860072D01*
X137036496Y-103050000D01*
X137056457Y-103239927D01*
X137084947Y-103327606D01*
X137115473Y-103421556D01*
X137115476Y-103421561D01*
X137210958Y-103586941D01*
X137210965Y-103586951D01*
X137338744Y-103728864D01*
X137396077Y-103770519D01*
X137493248Y-103841118D01*
X137667712Y-103918794D01*
X137854513Y-103958500D01*
X138045491Y-103958500D01*
X138120918Y-103942466D01*
X138145642Y-103937211D01*
X138216433Y-103942612D01*
X138273066Y-103985428D01*
X138297560Y-104052065D01*
X138297150Y-104073626D01*
X138286496Y-104174999D01*
X138306457Y-104364927D01*
X138319735Y-104405791D01*
X138365473Y-104546556D01*
X138365476Y-104546561D01*
X138460958Y-104711941D01*
X138460965Y-104711951D01*
X138588744Y-104853864D01*
X138588747Y-104853866D01*
X138743248Y-104966118D01*
X138917712Y-105043794D01*
X139104513Y-105083500D01*
X139295487Y-105083500D01*
X139482288Y-105043794D01*
X139656752Y-104966118D01*
X139811253Y-104853866D01*
X139811255Y-104853864D01*
X139939034Y-104711951D01*
X139939035Y-104711949D01*
X139939040Y-104711944D01*
X140034527Y-104546556D01*
X140093542Y-104364928D01*
X140113504Y-104175000D01*
X140093542Y-103985072D01*
X140034527Y-103803444D01*
X139944537Y-103647577D01*
X139939042Y-103638059D01*
X139939041Y-103638058D01*
X139939040Y-103638056D01*
X139865863Y-103556784D01*
X139835146Y-103492776D01*
X139833500Y-103472474D01*
X139833500Y-103089146D01*
X163180500Y-103089146D01*
X163180500Y-103715244D01*
X163191112Y-103819125D01*
X163246885Y-103987438D01*
X163339970Y-104138352D01*
X163339975Y-104138358D01*
X163427222Y-104225605D01*
X163461248Y-104287917D01*
X163456183Y-104358732D01*
X163427222Y-104403795D01*
X163339975Y-104491041D01*
X163339970Y-104491047D01*
X163246885Y-104641962D01*
X163191113Y-104810272D01*
X163191112Y-104810279D01*
X163180500Y-104914146D01*
X163180500Y-105540244D01*
X163191112Y-105644125D01*
X163246885Y-105812438D01*
X163339970Y-105963352D01*
X163339975Y-105963358D01*
X163465341Y-106088724D01*
X163465345Y-106088727D01*
X163465348Y-106088730D01*
X163499761Y-106109956D01*
X163542638Y-106136403D01*
X163590116Y-106189189D01*
X163596324Y-106204707D01*
X163611399Y-106251104D01*
X163611401Y-106251108D01*
X163701631Y-106407390D01*
X163701638Y-106407400D01*
X163822384Y-106541502D01*
X163845780Y-106558500D01*
X163968385Y-106647578D01*
X164133248Y-106720980D01*
X164269773Y-106749999D01*
X164309767Y-106758500D01*
X164309768Y-106758500D01*
X164490233Y-106758500D01*
X164530222Y-106750000D01*
X164666752Y-106720980D01*
X164831615Y-106647578D01*
X164977613Y-106541504D01*
X164996508Y-106520519D01*
X165098361Y-106407400D01*
X165098362Y-106407398D01*
X165098367Y-106407393D01*
X165188599Y-106251107D01*
X165209189Y-106187734D01*
X165249259Y-106129132D01*
X165262855Y-106119444D01*
X165312652Y-106088730D01*
X165438030Y-105963352D01*
X165531115Y-105812438D01*
X165586887Y-105644126D01*
X165597500Y-105540245D01*
X165597499Y-104914156D01*
X165586887Y-104810274D01*
X165531115Y-104641962D01*
X165443552Y-104500000D01*
X179786771Y-104500000D01*
X179805511Y-104678298D01*
X179805636Y-104679480D01*
X179861398Y-104851102D01*
X179861401Y-104851108D01*
X179951631Y-105007390D01*
X179951638Y-105007400D01*
X180072384Y-105141502D01*
X180072387Y-105141504D01*
X180218385Y-105247578D01*
X180383248Y-105320980D01*
X180514561Y-105348891D01*
X180559767Y-105358500D01*
X180559768Y-105358500D01*
X180740233Y-105358500D01*
X180785439Y-105348891D01*
X180916752Y-105320980D01*
X181081615Y-105247578D01*
X181227613Y-105141504D01*
X181227612Y-105141504D01*
X181232955Y-105137623D01*
X181234713Y-105140043D01*
X181287225Y-105115075D01*
X181307082Y-105113500D01*
X182192918Y-105113500D01*
X182261039Y-105133502D01*
X182266835Y-105137911D01*
X182267045Y-105137623D01*
X182272387Y-105141504D01*
X182418385Y-105247578D01*
X182583248Y-105320980D01*
X182714561Y-105348891D01*
X182759767Y-105358500D01*
X182759768Y-105358500D01*
X182940233Y-105358500D01*
X182985439Y-105348891D01*
X183116752Y-105320980D01*
X183281615Y-105247578D01*
X183427613Y-105141504D01*
X183427615Y-105141502D01*
X183548361Y-105007400D01*
X183548362Y-105007398D01*
X183548367Y-105007393D01*
X183638599Y-104851107D01*
X183641721Y-104841500D01*
X183666482Y-104765291D01*
X183694365Y-104679475D01*
X183713229Y-104500000D01*
X183694365Y-104320525D01*
X183678166Y-104270668D01*
X183638601Y-104148897D01*
X183638598Y-104148891D01*
X183548368Y-103992609D01*
X183548361Y-103992599D01*
X183427615Y-103858497D01*
X183281615Y-103752422D01*
X183116752Y-103679020D01*
X182940233Y-103641500D01*
X182940232Y-103641500D01*
X182759768Y-103641500D01*
X182759767Y-103641500D01*
X182583250Y-103679019D01*
X182418383Y-103752422D01*
X182418383Y-103752423D01*
X182267045Y-103862377D01*
X182265286Y-103859956D01*
X182212775Y-103884925D01*
X182192918Y-103886500D01*
X181307082Y-103886500D01*
X181238961Y-103866498D01*
X181233164Y-103862088D01*
X181232955Y-103862377D01*
X181081615Y-103752422D01*
X180916752Y-103679020D01*
X180740233Y-103641500D01*
X180740232Y-103641500D01*
X180559768Y-103641500D01*
X180559767Y-103641500D01*
X180383250Y-103679019D01*
X180218383Y-103752422D01*
X180218383Y-103752423D01*
X180072384Y-103858497D01*
X179951638Y-103992599D01*
X179951631Y-103992609D01*
X179861401Y-104148891D01*
X179861398Y-104148897D01*
X179805636Y-104320519D01*
X179805635Y-104320523D01*
X179805635Y-104320525D01*
X179786771Y-104500000D01*
X165443552Y-104500000D01*
X165438030Y-104491048D01*
X165438029Y-104491047D01*
X165438024Y-104491041D01*
X165350778Y-104403795D01*
X165316752Y-104341483D01*
X165321817Y-104270668D01*
X165350778Y-104225605D01*
X165438024Y-104138358D01*
X165438030Y-104138352D01*
X165531115Y-103987438D01*
X165586887Y-103819126D01*
X165597500Y-103715245D01*
X165597499Y-103089156D01*
X165586887Y-102985274D01*
X165531115Y-102816962D01*
X165438030Y-102666048D01*
X165438029Y-102666047D01*
X165438024Y-102666041D01*
X165312658Y-102540675D01*
X165312652Y-102540670D01*
X165294502Y-102529475D01*
X165161738Y-102447585D01*
X165065197Y-102415595D01*
X164993427Y-102391813D01*
X164993420Y-102391812D01*
X164889553Y-102381200D01*
X163888455Y-102381200D01*
X163784574Y-102391812D01*
X163616261Y-102447585D01*
X163465347Y-102540670D01*
X163465341Y-102540675D01*
X163339975Y-102666041D01*
X163339970Y-102666047D01*
X163246885Y-102816962D01*
X163191113Y-102985272D01*
X163191112Y-102985279D01*
X163180500Y-103089146D01*
X139833500Y-103089146D01*
X139833500Y-99450000D01*
X143286771Y-99450000D01*
X143304721Y-99620783D01*
X143305636Y-99629480D01*
X143361398Y-99801102D01*
X143361401Y-99801108D01*
X143451631Y-99957390D01*
X143451638Y-99957400D01*
X143572384Y-100091502D01*
X143611516Y-100119933D01*
X143718385Y-100197578D01*
X143883248Y-100270980D01*
X143935407Y-100282066D01*
X143997880Y-100315793D01*
X144032202Y-100377942D01*
X144027476Y-100448781D01*
X143985201Y-100505820D01*
X143939449Y-100526716D01*
X143939534Y-100526977D01*
X143937267Y-100527713D01*
X143935421Y-100528557D01*
X143933254Y-100529017D01*
X143768383Y-100602422D01*
X143768383Y-100602423D01*
X143622384Y-100708497D01*
X143501638Y-100842599D01*
X143501631Y-100842609D01*
X143411401Y-100998891D01*
X143411398Y-100998897D01*
X143355636Y-101170519D01*
X143355635Y-101170523D01*
X143355635Y-101170525D01*
X143336771Y-101350000D01*
X143355486Y-101528058D01*
X143355636Y-101529480D01*
X143411398Y-101701102D01*
X143411401Y-101701108D01*
X143501631Y-101857390D01*
X143501638Y-101857400D01*
X143622384Y-101991502D01*
X143647763Y-102009941D01*
X143768385Y-102097578D01*
X143933248Y-102170980D01*
X144055288Y-102196920D01*
X144109767Y-102208500D01*
X144109768Y-102208500D01*
X144290233Y-102208500D01*
X144344712Y-102196920D01*
X144466752Y-102170980D01*
X144631615Y-102097578D01*
X144777613Y-101991504D01*
X144800482Y-101966106D01*
X144824253Y-101939705D01*
X144884699Y-101902464D01*
X144955682Y-101903815D01*
X145011525Y-101939703D01*
X145133947Y-102075666D01*
X145288448Y-102187918D01*
X145462912Y-102265594D01*
X145649713Y-102305300D01*
X145840687Y-102305300D01*
X146027488Y-102265594D01*
X146201952Y-102187918D01*
X146356453Y-102075666D01*
X146370206Y-102060392D01*
X146484234Y-101933751D01*
X146484235Y-101933749D01*
X146484240Y-101933744D01*
X146575945Y-101774905D01*
X146627327Y-101725913D01*
X146697041Y-101712477D01*
X146762952Y-101738863D01*
X146794183Y-101774906D01*
X146824831Y-101827990D01*
X146824838Y-101828000D01*
X146945584Y-101962102D01*
X146996015Y-101998742D01*
X147091585Y-102068178D01*
X147256448Y-102141580D01*
X147392597Y-102170519D01*
X147432967Y-102179100D01*
X147432968Y-102179100D01*
X147613433Y-102179100D01*
X147651639Y-102170979D01*
X147789952Y-102141580D01*
X147954815Y-102068178D01*
X148100813Y-101962104D01*
X148115046Y-101946297D01*
X148221561Y-101828000D01*
X148221562Y-101827998D01*
X148221567Y-101827993D01*
X148311799Y-101671707D01*
X148336394Y-101596008D01*
X148367132Y-101545849D01*
X148384930Y-101528051D01*
X148435730Y-101477252D01*
X148528815Y-101326338D01*
X148584587Y-101158026D01*
X148595200Y-101054145D01*
X148595199Y-100129646D01*
X149339300Y-100129646D01*
X149339300Y-101180744D01*
X149349912Y-101284625D01*
X149405685Y-101452938D01*
X149498770Y-101603852D01*
X149498775Y-101603858D01*
X149624141Y-101729224D01*
X149624147Y-101729229D01*
X149624148Y-101729230D01*
X149775062Y-101822315D01*
X149943374Y-101878087D01*
X150047255Y-101888700D01*
X150648344Y-101888699D01*
X150752226Y-101878087D01*
X150920538Y-101822315D01*
X151071452Y-101729230D01*
X151196830Y-101603852D01*
X151196837Y-101603839D01*
X151199278Y-101600754D01*
X151201509Y-101599173D01*
X151202020Y-101598663D01*
X151202107Y-101598750D01*
X151257216Y-101559721D01*
X151328140Y-101556524D01*
X151389534Y-101592180D01*
X151396961Y-101600751D01*
X151399169Y-101603544D01*
X151524454Y-101728829D01*
X151524460Y-101728834D01*
X151675274Y-101821857D01*
X151843478Y-101877593D01*
X151843481Y-101877594D01*
X151947283Y-101888199D01*
X151947283Y-101888200D01*
X151993800Y-101888200D01*
X151993800Y-100909200D01*
X152501800Y-100909200D01*
X152501800Y-101888200D01*
X152548315Y-101888200D01*
X152564287Y-101886568D01*
X152634088Y-101899542D01*
X152685794Y-101948193D01*
X152702404Y-101998742D01*
X152705634Y-102029473D01*
X152705636Y-102029479D01*
X152761398Y-102201102D01*
X152761401Y-102201108D01*
X152851631Y-102357390D01*
X152851638Y-102357400D01*
X152972384Y-102491502D01*
X152972387Y-102491504D01*
X153118385Y-102597578D01*
X153283248Y-102670980D01*
X153422247Y-102700524D01*
X153459767Y-102708500D01*
X153459768Y-102708500D01*
X153640233Y-102708500D01*
X153675037Y-102701102D01*
X153816752Y-102670980D01*
X153981615Y-102597578D01*
X154127613Y-102491504D01*
X154195962Y-102415595D01*
X154248361Y-102357400D01*
X154248362Y-102357398D01*
X154248367Y-102357393D01*
X154272124Y-102316243D01*
X154323506Y-102267251D01*
X154393220Y-102253814D01*
X154432488Y-102264136D01*
X154606912Y-102341794D01*
X154793713Y-102381500D01*
X154984687Y-102381500D01*
X155171488Y-102341794D01*
X155345952Y-102264118D01*
X155500453Y-102151866D01*
X155509715Y-102141580D01*
X155628234Y-102009951D01*
X155628235Y-102009949D01*
X155628240Y-102009944D01*
X155723727Y-101844556D01*
X155737702Y-101801544D01*
X155777776Y-101742939D01*
X155843172Y-101715302D01*
X155913129Y-101727409D01*
X155923667Y-101733231D01*
X156027562Y-101797315D01*
X156195874Y-101853087D01*
X156299755Y-101863700D01*
X156925844Y-101863699D01*
X157029726Y-101853087D01*
X157198038Y-101797315D01*
X157348952Y-101704230D01*
X157474330Y-101578852D01*
X157567415Y-101427938D01*
X157623187Y-101259626D01*
X157633800Y-101155745D01*
X157633799Y-101152486D01*
X157653791Y-101084367D01*
X157707439Y-101037865D01*
X157777711Y-101027751D01*
X157842297Y-101057234D01*
X157880690Y-101116954D01*
X157885147Y-101139665D01*
X157892212Y-101208825D01*
X157947985Y-101377138D01*
X158041070Y-101528052D01*
X158041075Y-101528058D01*
X158166441Y-101653424D01*
X158166447Y-101653429D01*
X158166448Y-101653430D01*
X158317362Y-101746515D01*
X158485674Y-101802287D01*
X158525278Y-101806333D01*
X158563553Y-101810244D01*
X158629288Y-101837066D01*
X158670086Y-101895169D01*
X158672995Y-101966106D01*
X158670580Y-101974525D01*
X158655636Y-102020520D01*
X158655635Y-102020522D01*
X158655635Y-102020525D01*
X158636771Y-102200000D01*
X158652271Y-102347474D01*
X158655636Y-102379480D01*
X158711398Y-102551102D01*
X158711401Y-102551108D01*
X158801631Y-102707390D01*
X158801638Y-102707400D01*
X158922384Y-102841502D01*
X158966304Y-102873412D01*
X159068385Y-102947578D01*
X159233248Y-103020980D01*
X159369778Y-103050000D01*
X159409767Y-103058500D01*
X159409768Y-103058500D01*
X159590233Y-103058500D01*
X159630222Y-103050000D01*
X159766752Y-103020980D01*
X159931615Y-102947578D01*
X160077613Y-102841504D01*
X160123447Y-102790600D01*
X160198361Y-102707400D01*
X160198362Y-102707398D01*
X160198367Y-102707393D01*
X160288599Y-102551107D01*
X160289319Y-102548893D01*
X160340356Y-102391813D01*
X160344365Y-102379475D01*
X160363229Y-102200000D01*
X160344365Y-102020525D01*
X160344363Y-102020518D01*
X160344363Y-102020517D01*
X160330495Y-101977834D01*
X160328468Y-101906867D01*
X160365131Y-101846069D01*
X160428843Y-101814744D01*
X160450317Y-101812899D01*
X161040644Y-101812899D01*
X161144526Y-101802287D01*
X161312838Y-101746515D01*
X161463752Y-101653430D01*
X161589130Y-101528052D01*
X161595880Y-101517107D01*
X161648663Y-101469629D01*
X161718738Y-101458223D01*
X161777183Y-101481316D01*
X161868385Y-101547578D01*
X162033248Y-101620980D01*
X162172247Y-101650524D01*
X162209767Y-101658500D01*
X162209768Y-101658500D01*
X162390233Y-101658500D01*
X162425037Y-101651102D01*
X162566752Y-101620980D01*
X162731615Y-101547578D01*
X162877613Y-101441504D01*
X162933628Y-101379293D01*
X162998361Y-101307400D01*
X162998362Y-101307398D01*
X162998367Y-101307393D01*
X163088599Y-101151107D01*
X163144365Y-100979475D01*
X163163229Y-100800000D01*
X163144365Y-100620525D01*
X163107829Y-100508077D01*
X163088601Y-100448897D01*
X163088598Y-100448891D01*
X162998368Y-100292609D01*
X162998361Y-100292599D01*
X162877615Y-100158497D01*
X162739126Y-100057879D01*
X162731615Y-100052422D01*
X162731614Y-100052421D01*
X162726273Y-100048541D01*
X162727736Y-100046526D01*
X162686502Y-100003270D01*
X162673074Y-99933555D01*
X162699469Y-99867647D01*
X162704866Y-99861236D01*
X162798367Y-99757393D01*
X162888599Y-99601107D01*
X162895076Y-99581175D01*
X162921450Y-99500000D01*
X162944365Y-99429475D01*
X162963229Y-99250000D01*
X162944365Y-99070525D01*
X162915732Y-98982400D01*
X162888601Y-98898897D01*
X162888598Y-98898891D01*
X162798368Y-98742609D01*
X162798361Y-98742599D01*
X162691403Y-98623810D01*
X162660685Y-98559803D01*
X162669450Y-98489349D01*
X162714913Y-98434818D01*
X162782640Y-98413523D01*
X162785039Y-98413500D01*
X183160419Y-98413500D01*
X183160424Y-98413500D01*
X183278951Y-98389923D01*
X183390601Y-98343676D01*
X183491084Y-98276536D01*
X184510015Y-97257605D01*
X184572327Y-97223580D01*
X184599110Y-97220700D01*
X185925518Y-97220700D01*
X185993639Y-97240702D01*
X185999435Y-97245111D01*
X185999645Y-97244823D01*
X186052361Y-97283123D01*
X186150985Y-97354778D01*
X186315848Y-97428180D01*
X186454847Y-97457724D01*
X186492367Y-97465700D01*
X186492368Y-97465700D01*
X186672833Y-97465700D01*
X186703775Y-97459122D01*
X186849352Y-97428180D01*
X187014215Y-97354778D01*
X187160213Y-97248704D01*
X187163448Y-97245111D01*
X187280961Y-97114600D01*
X187280962Y-97114598D01*
X187280967Y-97114593D01*
X187371199Y-96958307D01*
X187426965Y-96786675D01*
X187445829Y-96607200D01*
X187426965Y-96427725D01*
X187423212Y-96416175D01*
X187371201Y-96256097D01*
X187371198Y-96256091D01*
X187280968Y-96099809D01*
X187280961Y-96099799D01*
X187160215Y-95965697D01*
X187014215Y-95859622D01*
X186849352Y-95786220D01*
X186672833Y-95748700D01*
X186672832Y-95748700D01*
X186492368Y-95748700D01*
X186492367Y-95748700D01*
X186315850Y-95786219D01*
X186150983Y-95859622D01*
X186150983Y-95859623D01*
X185999645Y-95969577D01*
X185997886Y-95967156D01*
X185945375Y-95992125D01*
X185925518Y-95993700D01*
X184578110Y-95993700D01*
X184509989Y-95973698D01*
X184463496Y-95920042D01*
X184453392Y-95849768D01*
X184482886Y-95785188D01*
X184489015Y-95778605D01*
X185194415Y-95073205D01*
X185256727Y-95039179D01*
X185283510Y-95036300D01*
X185925518Y-95036300D01*
X185993639Y-95056302D01*
X185999435Y-95060711D01*
X185999645Y-95060423D01*
X186004987Y-95064304D01*
X186150985Y-95170378D01*
X186315848Y-95243780D01*
X186454847Y-95273324D01*
X186492367Y-95281300D01*
X186492368Y-95281300D01*
X186672833Y-95281300D01*
X186703775Y-95274722D01*
X186849352Y-95243780D01*
X187014215Y-95170378D01*
X187160213Y-95064304D01*
X187163448Y-95060711D01*
X187280961Y-94930200D01*
X187280962Y-94930198D01*
X187280967Y-94930193D01*
X187371199Y-94773907D01*
X187373079Y-94768123D01*
X187404185Y-94672386D01*
X187426965Y-94602275D01*
X187445829Y-94422800D01*
X187426965Y-94243325D01*
X187423212Y-94231775D01*
X187371201Y-94071697D01*
X187371198Y-94071691D01*
X187326083Y-93993550D01*
X187280967Y-93915407D01*
X187280965Y-93915405D01*
X187280961Y-93915399D01*
X187160215Y-93781297D01*
X187014215Y-93675222D01*
X186849352Y-93601820D01*
X186672833Y-93564300D01*
X186672832Y-93564300D01*
X186492368Y-93564300D01*
X186492367Y-93564300D01*
X186315850Y-93601819D01*
X186150983Y-93675222D01*
X186150983Y-93675223D01*
X185999645Y-93785177D01*
X185997886Y-93782756D01*
X185945375Y-93807725D01*
X185925518Y-93809300D01*
X184916776Y-93809300D01*
X184857512Y-93821088D01*
X184798248Y-93832877D01*
X184798245Y-93832878D01*
X184686599Y-93879124D01*
X184586114Y-93946265D01*
X184586108Y-93946270D01*
X182332785Y-96199595D01*
X182270473Y-96233620D01*
X182243690Y-96236500D01*
X163175079Y-96236500D01*
X163106958Y-96216498D01*
X163060465Y-96162842D01*
X163050361Y-96092568D01*
X163079855Y-96027988D01*
X163081442Y-96026190D01*
X163098367Y-96007393D01*
X163188599Y-95851107D01*
X163191721Y-95841500D01*
X163239247Y-95695226D01*
X163244365Y-95679475D01*
X163263229Y-95500000D01*
X163244365Y-95320525D01*
X163228496Y-95271685D01*
X163188601Y-95148897D01*
X163188598Y-95148891D01*
X163123593Y-95036300D01*
X163098367Y-94992607D01*
X163098365Y-94992605D01*
X163098361Y-94992599D01*
X162977615Y-94858497D01*
X162831615Y-94752422D01*
X162666752Y-94679020D01*
X162490233Y-94641500D01*
X162490232Y-94641500D01*
X162309768Y-94641500D01*
X162309764Y-94641500D01*
X162268589Y-94650251D01*
X162197798Y-94644848D01*
X162153300Y-94616099D01*
X162116801Y-94579600D01*
X161137800Y-94579600D01*
X161137800Y-95333600D01*
X161412516Y-95333600D01*
X161412516Y-95334777D01*
X161476942Y-95350164D01*
X161526119Y-95401371D01*
X161539803Y-95471037D01*
X161539642Y-95472674D01*
X161536771Y-95499996D01*
X161536771Y-95500000D01*
X161545076Y-95579019D01*
X161555636Y-95679480D01*
X161611398Y-95851102D01*
X161611401Y-95851108D01*
X161701631Y-96007390D01*
X161701634Y-96007394D01*
X161718558Y-96026190D01*
X161749275Y-96090198D01*
X161740510Y-96160651D01*
X161695047Y-96215182D01*
X161627319Y-96236477D01*
X161624921Y-96236500D01*
X158357082Y-96236500D01*
X158288961Y-96216498D01*
X158283164Y-96212088D01*
X158282955Y-96212377D01*
X158131615Y-96102422D01*
X157966752Y-96029020D01*
X157790233Y-95991500D01*
X157790232Y-95991500D01*
X157609768Y-95991500D01*
X157609767Y-95991500D01*
X157433250Y-96029019D01*
X157268383Y-96102422D01*
X157268383Y-96102423D01*
X157122384Y-96208497D01*
X157001638Y-96342599D01*
X157001631Y-96342609D01*
X156911401Y-96498891D01*
X156911398Y-96498897D01*
X156855636Y-96670519D01*
X156855635Y-96670523D01*
X156855635Y-96670525D01*
X156844783Y-96773774D01*
X156836771Y-96850000D01*
X156855636Y-97029484D01*
X156856663Y-97034315D01*
X156851254Y-97105105D01*
X156808432Y-97161734D01*
X156741792Y-97186221D01*
X156733414Y-97186500D01*
X156357082Y-97186500D01*
X156288961Y-97166498D01*
X156283164Y-97162088D01*
X156282955Y-97162377D01*
X156131615Y-97052422D01*
X155966752Y-96979020D01*
X155790233Y-96941500D01*
X155790232Y-96941500D01*
X155609768Y-96941500D01*
X155609767Y-96941500D01*
X155433250Y-96979019D01*
X155268383Y-97052422D01*
X155268383Y-97052423D01*
X155122384Y-97158497D01*
X155001638Y-97292599D01*
X155001631Y-97292609D01*
X154911401Y-97448891D01*
X154911398Y-97448897D01*
X154855636Y-97620519D01*
X154855635Y-97620523D01*
X154855635Y-97620525D01*
X154845497Y-97716977D01*
X154836771Y-97800000D01*
X154855636Y-97979480D01*
X154911398Y-98151102D01*
X154911401Y-98151108D01*
X155001631Y-98307390D01*
X155001638Y-98307400D01*
X155122384Y-98441502D01*
X155122387Y-98441504D01*
X155268385Y-98547578D01*
X155433248Y-98620980D01*
X155572247Y-98650524D01*
X155609767Y-98658500D01*
X155609768Y-98658500D01*
X155790233Y-98658500D01*
X155821175Y-98651922D01*
X155966752Y-98620980D01*
X156131615Y-98547578D01*
X156277613Y-98441504D01*
X156277612Y-98441504D01*
X156282955Y-98437623D01*
X156284713Y-98440043D01*
X156337225Y-98415075D01*
X156357082Y-98413500D01*
X161414961Y-98413500D01*
X161483082Y-98433502D01*
X161529575Y-98487158D01*
X161539679Y-98557432D01*
X161510185Y-98622012D01*
X161508597Y-98623810D01*
X161401638Y-98742599D01*
X161401631Y-98742609D01*
X161311401Y-98898891D01*
X161311398Y-98898897D01*
X161255636Y-99070519D01*
X161255635Y-99070523D01*
X161255635Y-99070525D01*
X161244298Y-99178388D01*
X161236771Y-99250000D01*
X161238185Y-99263453D01*
X161225413Y-99333291D01*
X161176911Y-99385138D01*
X161108078Y-99402532D01*
X161100069Y-99401971D01*
X161080125Y-99399933D01*
X161040645Y-99395900D01*
X161040644Y-99395900D01*
X160414555Y-99395900D01*
X160310674Y-99406512D01*
X160142361Y-99462285D01*
X159991447Y-99555370D01*
X159991441Y-99555375D01*
X159904195Y-99642622D01*
X159841883Y-99676648D01*
X159771068Y-99671583D01*
X159726005Y-99642622D01*
X159638758Y-99555375D01*
X159638752Y-99555370D01*
X159602180Y-99532812D01*
X159487838Y-99462285D01*
X159388822Y-99429475D01*
X159319527Y-99406513D01*
X159319520Y-99406512D01*
X159215653Y-99395900D01*
X158589555Y-99395900D01*
X158485674Y-99406512D01*
X158317361Y-99462285D01*
X158166447Y-99555370D01*
X158166441Y-99555375D01*
X158041075Y-99680741D01*
X158041070Y-99680747D01*
X157947985Y-99831662D01*
X157892213Y-99999972D01*
X157892212Y-99999979D01*
X157881600Y-100103846D01*
X157881600Y-100107128D01*
X157861598Y-100175249D01*
X157807942Y-100221742D01*
X157737668Y-100231846D01*
X157673088Y-100202352D01*
X157634704Y-100142626D01*
X157630252Y-100119933D01*
X157623187Y-100050774D01*
X157606362Y-100000000D01*
X157567415Y-99882462D01*
X157552125Y-99857674D01*
X157493980Y-99763406D01*
X157475910Y-99710431D01*
X157460765Y-99566325D01*
X157460765Y-99566323D01*
X157405001Y-99394697D01*
X157404998Y-99394691D01*
X157333307Y-99270519D01*
X157314767Y-99238407D01*
X157314765Y-99238405D01*
X157314761Y-99238399D01*
X157194015Y-99104297D01*
X157048015Y-98998222D01*
X156883152Y-98924820D01*
X156706633Y-98887300D01*
X156706632Y-98887300D01*
X156526168Y-98887300D01*
X156526167Y-98887300D01*
X156349650Y-98924819D01*
X156184783Y-98998222D01*
X156184783Y-98998223D01*
X156038784Y-99104297D01*
X155918038Y-99238399D01*
X155918031Y-99238409D01*
X155827801Y-99394691D01*
X155827798Y-99394697D01*
X155772036Y-99566320D01*
X155770664Y-99572777D01*
X155768872Y-99572396D01*
X155745248Y-99629812D01*
X155687025Y-99670440D01*
X155616079Y-99673140D01*
X155557859Y-99640076D01*
X155523958Y-99606175D01*
X155523952Y-99606170D01*
X155515744Y-99601107D01*
X155373038Y-99513085D01*
X155288882Y-99485199D01*
X155204727Y-99457313D01*
X155204720Y-99457312D01*
X155100853Y-99446700D01*
X154474755Y-99446700D01*
X154370874Y-99457312D01*
X154202561Y-99513085D01*
X154051647Y-99606170D01*
X154051641Y-99606175D01*
X153926275Y-99731541D01*
X153926270Y-99731547D01*
X153833185Y-99882462D01*
X153777413Y-100050772D01*
X153777412Y-100050779D01*
X153766800Y-100154646D01*
X153766800Y-100865500D01*
X153746798Y-100933621D01*
X153693142Y-100980114D01*
X153640800Y-100991500D01*
X153459767Y-100991500D01*
X153407997Y-101002504D01*
X153337206Y-100997102D01*
X153280573Y-100954285D01*
X153268767Y-100922166D01*
X153255801Y-100909200D01*
X152501800Y-100909200D01*
X151993800Y-100909200D01*
X151993800Y-100401200D01*
X152501800Y-100401200D01*
X153255800Y-100401200D01*
X153255800Y-100129683D01*
X153245194Y-100025881D01*
X153245193Y-100025878D01*
X153189457Y-99857674D01*
X153096434Y-99706860D01*
X153096429Y-99706854D01*
X152971145Y-99581570D01*
X152971139Y-99581565D01*
X152820325Y-99488542D01*
X152652121Y-99432806D01*
X152652118Y-99432805D01*
X152548316Y-99422200D01*
X152501800Y-99422200D01*
X152501800Y-100401200D01*
X151993800Y-100401200D01*
X151993800Y-99422200D01*
X151947283Y-99422200D01*
X151843481Y-99432805D01*
X151843478Y-99432806D01*
X151675274Y-99488542D01*
X151524460Y-99581565D01*
X151524454Y-99581570D01*
X151399170Y-99706854D01*
X151396957Y-99709654D01*
X151394949Y-99711075D01*
X151393975Y-99712050D01*
X151393808Y-99711883D01*
X151339016Y-99750682D01*
X151268091Y-99753872D01*
X151206700Y-99718211D01*
X151199283Y-99709650D01*
X151196828Y-99706545D01*
X151071458Y-99581175D01*
X151071452Y-99581170D01*
X151057227Y-99572396D01*
X150920538Y-99488085D01*
X150832199Y-99458813D01*
X150752227Y-99432313D01*
X150752220Y-99432312D01*
X150648353Y-99421700D01*
X150047255Y-99421700D01*
X149943374Y-99432312D01*
X149775061Y-99488085D01*
X149624147Y-99581170D01*
X149624141Y-99581175D01*
X149498775Y-99706541D01*
X149498770Y-99706547D01*
X149405685Y-99857462D01*
X149349913Y-100025772D01*
X149349912Y-100025779D01*
X149339300Y-100129646D01*
X148595199Y-100129646D01*
X148595199Y-100053056D01*
X148595025Y-100051357D01*
X148584587Y-99949174D01*
X148557572Y-99867647D01*
X148528815Y-99780862D01*
X148435730Y-99629948D01*
X148435729Y-99629947D01*
X148435724Y-99629941D01*
X148310358Y-99504575D01*
X148310352Y-99504570D01*
X148293867Y-99494402D01*
X148159438Y-99411485D01*
X148058219Y-99377945D01*
X147991127Y-99355713D01*
X147991120Y-99355712D01*
X147887253Y-99345100D01*
X147261155Y-99345100D01*
X147157274Y-99355712D01*
X146988961Y-99411485D01*
X146838047Y-99504570D01*
X146838041Y-99504575D01*
X146750795Y-99591822D01*
X146688483Y-99625848D01*
X146617668Y-99620783D01*
X146572605Y-99591822D01*
X146485358Y-99504575D01*
X146485352Y-99504570D01*
X146468867Y-99494402D01*
X146334438Y-99411485D01*
X146233219Y-99377945D01*
X146166127Y-99355713D01*
X146166120Y-99355712D01*
X146062253Y-99345100D01*
X145436155Y-99345100D01*
X145332273Y-99355713D01*
X145162969Y-99411814D01*
X145092015Y-99414254D01*
X145031005Y-99377945D01*
X144999309Y-99314416D01*
X144998031Y-99305412D01*
X144994365Y-99270525D01*
X144976907Y-99216795D01*
X144938601Y-99098897D01*
X144938598Y-99098891D01*
X144877235Y-98992607D01*
X144848367Y-98942607D01*
X144848365Y-98942605D01*
X144848361Y-98942599D01*
X144727615Y-98808497D01*
X144581615Y-98702422D01*
X144416752Y-98629020D01*
X144240233Y-98591500D01*
X144240232Y-98591500D01*
X144059768Y-98591500D01*
X144059767Y-98591500D01*
X143883250Y-98629019D01*
X143718383Y-98702422D01*
X143718383Y-98702423D01*
X143572384Y-98808497D01*
X143451638Y-98942599D01*
X143451631Y-98942609D01*
X143361401Y-99098891D01*
X143361398Y-99098897D01*
X143305636Y-99270519D01*
X143305635Y-99270523D01*
X143305635Y-99270525D01*
X143286771Y-99450000D01*
X139833500Y-99450000D01*
X139833500Y-96400000D01*
X148736771Y-96400000D01*
X148749438Y-96520519D01*
X148755636Y-96579480D01*
X148811398Y-96751102D01*
X148811401Y-96751108D01*
X148901631Y-96907390D01*
X148901638Y-96907400D01*
X149022384Y-97041502D01*
X149045261Y-97058123D01*
X149168385Y-97147578D01*
X149296018Y-97204404D01*
X149333248Y-97220980D01*
X149411295Y-97237569D01*
X149473769Y-97271297D01*
X149492339Y-97294668D01*
X149549568Y-97387449D01*
X149549575Y-97387458D01*
X149674941Y-97512824D01*
X149674947Y-97512829D01*
X149674948Y-97512830D01*
X149825862Y-97605915D01*
X149994174Y-97661687D01*
X150098055Y-97672300D01*
X150699144Y-97672299D01*
X150803026Y-97661687D01*
X150971338Y-97605915D01*
X151122252Y-97512830D01*
X151247630Y-97387452D01*
X151247631Y-97387449D01*
X151249762Y-97384756D01*
X151251698Y-97383384D01*
X151252820Y-97382263D01*
X151253011Y-97382454D01*
X151307701Y-97343725D01*
X151378626Y-97340533D01*
X151440018Y-97376192D01*
X151447438Y-97384756D01*
X151449571Y-97387454D01*
X151574941Y-97512824D01*
X151574947Y-97512829D01*
X151574948Y-97512830D01*
X151725862Y-97605915D01*
X151894174Y-97661687D01*
X151998055Y-97672300D01*
X152599144Y-97672299D01*
X152703026Y-97661687D01*
X152871338Y-97605915D01*
X153022252Y-97512830D01*
X153147630Y-97387452D01*
X153211981Y-97283121D01*
X153264766Y-97235645D01*
X153293026Y-97226023D01*
X153316752Y-97220980D01*
X153481615Y-97147578D01*
X153627613Y-97041504D01*
X153648917Y-97017844D01*
X153748361Y-96907400D01*
X153748362Y-96907398D01*
X153748367Y-96907393D01*
X153838599Y-96751107D01*
X153855205Y-96700000D01*
X153866482Y-96665291D01*
X153894365Y-96579475D01*
X153913229Y-96400000D01*
X153894365Y-96220525D01*
X153874911Y-96160651D01*
X153838601Y-96048897D01*
X153838598Y-96048891D01*
X153748368Y-95892609D01*
X153748361Y-95892599D01*
X153627615Y-95758497D01*
X153481615Y-95652422D01*
X153316751Y-95579019D01*
X153237939Y-95562268D01*
X153175465Y-95528540D01*
X153156893Y-95505166D01*
X153147630Y-95490148D01*
X153147626Y-95490143D01*
X153022258Y-95364775D01*
X153022252Y-95364770D01*
X152973626Y-95334777D01*
X152871338Y-95271685D01*
X152787122Y-95243779D01*
X152703027Y-95215913D01*
X152703020Y-95215912D01*
X152599153Y-95205300D01*
X151998055Y-95205300D01*
X151894174Y-95215912D01*
X151725861Y-95271685D01*
X151574947Y-95364770D01*
X151574941Y-95364775D01*
X151449572Y-95490144D01*
X151447434Y-95492849D01*
X151445495Y-95494221D01*
X151444380Y-95495337D01*
X151444189Y-95495146D01*
X151389492Y-95533876D01*
X151318567Y-95537064D01*
X151257177Y-95501402D01*
X151249766Y-95492849D01*
X151247627Y-95490144D01*
X151122258Y-95364775D01*
X151122252Y-95364770D01*
X151073626Y-95334777D01*
X150971338Y-95271685D01*
X150887122Y-95243779D01*
X150803027Y-95215913D01*
X150803020Y-95215912D01*
X150699153Y-95205300D01*
X150098055Y-95205300D01*
X149994174Y-95215912D01*
X149825861Y-95271685D01*
X149674947Y-95364770D01*
X149674941Y-95364775D01*
X149549575Y-95490141D01*
X149549571Y-95490146D01*
X149547427Y-95493623D01*
X149545335Y-95495504D01*
X149545020Y-95495903D01*
X149544951Y-95495849D01*
X149494640Y-95541100D01*
X149466384Y-95550721D01*
X149333250Y-95579019D01*
X149168383Y-95652422D01*
X149168383Y-95652423D01*
X149022384Y-95758497D01*
X148901638Y-95892599D01*
X148901631Y-95892609D01*
X148811401Y-96048891D01*
X148811398Y-96048897D01*
X148755636Y-96220519D01*
X148755635Y-96220523D01*
X148755635Y-96220525D01*
X148736771Y-96400000D01*
X139833500Y-96400000D01*
X139833500Y-94990246D01*
X143699100Y-94990246D01*
X143699100Y-95591344D01*
X143709712Y-95695225D01*
X143765485Y-95863538D01*
X143858570Y-96014452D01*
X143858575Y-96014458D01*
X143983941Y-96139824D01*
X143983947Y-96139829D01*
X143983948Y-96139830D01*
X144134862Y-96232915D01*
X144303174Y-96288687D01*
X144407055Y-96299300D01*
X145458144Y-96299299D01*
X145562026Y-96288687D01*
X145730338Y-96232915D01*
X145881252Y-96139830D01*
X146006630Y-96014452D01*
X146099715Y-95863538D01*
X146155487Y-95695226D01*
X146166100Y-95591345D01*
X146166099Y-94990256D01*
X146155487Y-94886374D01*
X146099715Y-94718062D01*
X146043002Y-94626116D01*
X159650800Y-94626116D01*
X159661405Y-94729918D01*
X159661406Y-94729921D01*
X159717142Y-94898125D01*
X159810165Y-95048939D01*
X159810170Y-95048945D01*
X159935454Y-95174229D01*
X159935460Y-95174234D01*
X160086274Y-95267257D01*
X160254478Y-95322993D01*
X160254481Y-95322994D01*
X160358283Y-95333599D01*
X160358283Y-95333600D01*
X160629800Y-95333600D01*
X160629800Y-94579600D01*
X159650800Y-94579600D01*
X159650800Y-94626116D01*
X146043002Y-94626116D01*
X146006630Y-94567148D01*
X146006629Y-94567147D01*
X146006624Y-94567141D01*
X145881257Y-94441774D01*
X145878147Y-94439315D01*
X145876567Y-94437084D01*
X145876063Y-94436580D01*
X145876149Y-94436493D01*
X145837118Y-94381375D01*
X145833926Y-94310450D01*
X145869586Y-94249059D01*
X145878158Y-94241632D01*
X145880950Y-94239424D01*
X146006229Y-94114145D01*
X146006234Y-94114139D01*
X146099257Y-93963325D01*
X146154993Y-93795121D01*
X146154994Y-93795118D01*
X146165599Y-93691316D01*
X146165600Y-93691316D01*
X146165600Y-93644800D01*
X143699600Y-93644800D01*
X143699600Y-93691316D01*
X143710205Y-93795118D01*
X143710206Y-93795121D01*
X143765942Y-93963325D01*
X143858965Y-94114139D01*
X143858970Y-94114145D01*
X143984257Y-94239432D01*
X143987046Y-94241637D01*
X143988463Y-94243638D01*
X143989450Y-94244625D01*
X143989281Y-94244793D01*
X144028079Y-94299575D01*
X144031274Y-94370500D01*
X143995617Y-94431893D01*
X143987057Y-94439311D01*
X143983945Y-94441771D01*
X143858575Y-94567141D01*
X143858570Y-94567147D01*
X143765485Y-94718062D01*
X143709713Y-94886372D01*
X143709712Y-94886379D01*
X143699100Y-94990246D01*
X139833500Y-94990246D01*
X139833500Y-94387607D01*
X139833499Y-94387603D01*
X139809155Y-94265215D01*
X139809152Y-94265207D01*
X139800601Y-94244562D01*
X139793011Y-94173973D01*
X139824789Y-94110485D01*
X139885847Y-94074257D01*
X139943203Y-94073096D01*
X140109768Y-94108500D01*
X140290233Y-94108500D01*
X140321175Y-94101922D01*
X140466752Y-94070980D01*
X140631615Y-93997578D01*
X140777613Y-93891504D01*
X140807162Y-93858687D01*
X140898361Y-93757400D01*
X140898362Y-93757398D01*
X140898367Y-93757393D01*
X140988599Y-93601107D01*
X141044365Y-93429475D01*
X141063229Y-93250000D01*
X141046442Y-93090283D01*
X143699600Y-93090283D01*
X143699600Y-93136800D01*
X144678600Y-93136800D01*
X145186600Y-93136800D01*
X146165600Y-93136800D01*
X146165600Y-93090283D01*
X146154994Y-92986481D01*
X146154993Y-92986478D01*
X146099257Y-92818274D01*
X146006234Y-92667460D01*
X146006229Y-92667454D01*
X145880945Y-92542170D01*
X145880939Y-92542165D01*
X145730125Y-92449142D01*
X145561921Y-92393406D01*
X145561918Y-92393405D01*
X145458116Y-92382800D01*
X145186600Y-92382800D01*
X145186600Y-93136800D01*
X144678600Y-93136800D01*
X144678600Y-92382800D01*
X144407083Y-92382800D01*
X144303281Y-92393405D01*
X144303278Y-92393406D01*
X144135074Y-92449142D01*
X143984260Y-92542165D01*
X143984254Y-92542170D01*
X143858970Y-92667454D01*
X143858965Y-92667460D01*
X143765942Y-92818274D01*
X143710206Y-92986478D01*
X143710205Y-92986481D01*
X143699600Y-93090283D01*
X141046442Y-93090283D01*
X141044365Y-93070525D01*
X141032668Y-93034526D01*
X140988601Y-92898897D01*
X140988598Y-92898891D01*
X140898368Y-92742609D01*
X140898361Y-92742599D01*
X140777615Y-92608497D01*
X140631615Y-92502422D01*
X140466752Y-92429020D01*
X140290233Y-92391500D01*
X140290232Y-92391500D01*
X140109768Y-92391500D01*
X140109767Y-92391500D01*
X139933250Y-92429019D01*
X139768383Y-92502422D01*
X139768383Y-92502423D01*
X139622384Y-92608497D01*
X139501638Y-92742599D01*
X139501631Y-92742609D01*
X139411401Y-92898891D01*
X139411398Y-92898897D01*
X139355636Y-93070519D01*
X139355635Y-93070523D01*
X139355635Y-93070525D01*
X139353470Y-93091123D01*
X139336771Y-93250000D01*
X139351358Y-93388783D01*
X139338586Y-93458622D01*
X139290084Y-93510468D01*
X139221251Y-93527863D01*
X139153941Y-93505282D01*
X139136953Y-93491049D01*
X139070405Y-93424501D01*
X139036379Y-93362189D01*
X139033500Y-93335406D01*
X139033500Y-92125046D01*
X159650300Y-92125046D01*
X159650300Y-92726144D01*
X159660912Y-92830025D01*
X159716685Y-92998338D01*
X159809770Y-93149252D01*
X159809775Y-93149258D01*
X159935145Y-93274628D01*
X159938250Y-93277083D01*
X159939827Y-93279310D01*
X159940337Y-93279820D01*
X159940249Y-93279907D01*
X159979281Y-93335022D01*
X159982473Y-93405947D01*
X159946814Y-93467339D01*
X159938254Y-93474757D01*
X159935454Y-93476970D01*
X159810170Y-93602254D01*
X159810165Y-93602260D01*
X159717142Y-93753074D01*
X159661406Y-93921278D01*
X159661405Y-93921281D01*
X159650800Y-94025083D01*
X159650800Y-94071600D01*
X162116800Y-94071600D01*
X162116800Y-94025083D01*
X162106194Y-93921281D01*
X162106193Y-93921278D01*
X162050457Y-93753074D01*
X161957434Y-93602260D01*
X161957429Y-93602254D01*
X161832144Y-93476969D01*
X161829351Y-93474761D01*
X161827931Y-93472756D01*
X161826950Y-93471775D01*
X161827117Y-93471607D01*
X161788319Y-93416822D01*
X161785125Y-93345898D01*
X161820783Y-93284505D01*
X161829354Y-93277078D01*
X161832439Y-93274637D01*
X161832452Y-93274630D01*
X161857082Y-93250000D01*
X165336771Y-93250000D01*
X165355112Y-93424501D01*
X165355636Y-93429480D01*
X165411398Y-93601102D01*
X165411401Y-93601108D01*
X165501631Y-93757390D01*
X165501638Y-93757400D01*
X165622384Y-93891502D01*
X165655289Y-93915409D01*
X165768385Y-93997578D01*
X165933248Y-94070980D01*
X166072247Y-94100524D01*
X166109767Y-94108500D01*
X166109768Y-94108500D01*
X166290233Y-94108500D01*
X166321175Y-94101922D01*
X166466752Y-94070980D01*
X166631615Y-93997578D01*
X166777613Y-93891504D01*
X166807162Y-93858687D01*
X166898361Y-93757400D01*
X166898362Y-93757398D01*
X166898367Y-93757393D01*
X166988599Y-93601107D01*
X167044365Y-93429475D01*
X167063229Y-93250000D01*
X167044365Y-93070525D01*
X167032668Y-93034526D01*
X166988601Y-92898897D01*
X166988598Y-92898891D01*
X166898368Y-92742609D01*
X166898361Y-92742599D01*
X166777615Y-92608497D01*
X166631615Y-92502422D01*
X166466752Y-92429020D01*
X166290233Y-92391500D01*
X166290232Y-92391500D01*
X166109768Y-92391500D01*
X166109767Y-92391500D01*
X165933250Y-92429019D01*
X165768383Y-92502422D01*
X165768383Y-92502423D01*
X165622384Y-92608497D01*
X165501638Y-92742599D01*
X165501631Y-92742609D01*
X165411401Y-92898891D01*
X165411398Y-92898897D01*
X165355636Y-93070519D01*
X165355635Y-93070523D01*
X165355635Y-93070525D01*
X165336771Y-93250000D01*
X161857082Y-93250000D01*
X161957830Y-93149252D01*
X162050915Y-92998338D01*
X162106687Y-92830026D01*
X162117300Y-92726145D01*
X162117299Y-92125056D01*
X162106687Y-92021174D01*
X162050915Y-91852862D01*
X161957830Y-91701948D01*
X161957829Y-91701947D01*
X161957824Y-91701941D01*
X161832458Y-91576575D01*
X161832452Y-91576570D01*
X161681538Y-91483485D01*
X161597382Y-91455599D01*
X161513227Y-91427713D01*
X161513220Y-91427712D01*
X161409353Y-91417100D01*
X160358255Y-91417100D01*
X160254374Y-91427712D01*
X160086061Y-91483485D01*
X159935147Y-91576570D01*
X159935141Y-91576575D01*
X159809775Y-91701941D01*
X159809770Y-91701947D01*
X159716685Y-91852862D01*
X159660913Y-92021172D01*
X159660912Y-92021179D01*
X159650300Y-92125046D01*
X139033500Y-92125046D01*
X139033500Y-85100000D01*
X143486771Y-85100000D01*
X143502114Y-85245980D01*
X143505636Y-85279480D01*
X143561398Y-85451102D01*
X143561401Y-85451108D01*
X143651631Y-85607390D01*
X143651633Y-85607393D01*
X143664147Y-85621291D01*
X143729123Y-85693455D01*
X143759840Y-85757463D01*
X143751075Y-85827916D01*
X143729124Y-85862073D01*
X143701632Y-85892606D01*
X143701631Y-85892608D01*
X143611402Y-86048891D01*
X143611398Y-86048897D01*
X143555636Y-86220519D01*
X143536771Y-86400000D01*
X143555636Y-86579480D01*
X143611398Y-86751102D01*
X143611401Y-86751108D01*
X143701631Y-86907390D01*
X143701638Y-86907400D01*
X143822384Y-87041502D01*
X143822387Y-87041504D01*
X143968385Y-87147578D01*
X144133248Y-87220980D01*
X144133249Y-87220980D01*
X144134190Y-87221399D01*
X144188286Y-87267379D01*
X144208935Y-87335307D01*
X144202774Y-87375443D01*
X144182823Y-87436845D01*
X144142749Y-87495450D01*
X144129138Y-87505148D01*
X144034750Y-87563368D01*
X144034741Y-87563375D01*
X143909375Y-87688741D01*
X143909370Y-87688747D01*
X143816285Y-87839662D01*
X143760513Y-88007972D01*
X143760512Y-88007979D01*
X143749900Y-88111846D01*
X143749900Y-88712944D01*
X143760512Y-88816825D01*
X143816285Y-88985138D01*
X143909370Y-89136052D01*
X143909375Y-89136058D01*
X144034744Y-89261427D01*
X144037449Y-89263566D01*
X144038821Y-89265504D01*
X144039937Y-89266620D01*
X144039746Y-89266810D01*
X144078476Y-89321508D01*
X144081664Y-89392433D01*
X144046002Y-89453823D01*
X144037449Y-89461234D01*
X144034744Y-89463372D01*
X143909375Y-89588741D01*
X143909370Y-89588747D01*
X143816285Y-89739662D01*
X143760513Y-89907972D01*
X143760512Y-89907979D01*
X143749900Y-90011846D01*
X143749900Y-90612944D01*
X143760512Y-90716825D01*
X143816285Y-90885138D01*
X143909370Y-91036052D01*
X143909375Y-91036058D01*
X144034741Y-91161424D01*
X144034747Y-91161429D01*
X144034748Y-91161430D01*
X144139215Y-91225866D01*
X144186693Y-91278652D01*
X144192900Y-91294168D01*
X144211401Y-91351107D01*
X144211402Y-91351108D01*
X144211404Y-91351112D01*
X144301631Y-91507390D01*
X144301638Y-91507400D01*
X144422384Y-91641502D01*
X144422387Y-91641504D01*
X144568385Y-91747578D01*
X144733248Y-91820980D01*
X144872247Y-91850524D01*
X144909767Y-91858500D01*
X144909768Y-91858500D01*
X145090233Y-91858500D01*
X145121175Y-91851922D01*
X145266752Y-91820980D01*
X145431615Y-91747578D01*
X145577613Y-91641504D01*
X145577797Y-91641300D01*
X145698361Y-91507400D01*
X145698362Y-91507398D01*
X145698367Y-91507393D01*
X145788599Y-91351107D01*
X145815419Y-91268558D01*
X145855490Y-91209955D01*
X145869091Y-91200264D01*
X145932052Y-91161430D01*
X146057430Y-91036052D01*
X146150515Y-90885138D01*
X146206287Y-90716826D01*
X146216900Y-90612945D01*
X146216899Y-90011856D01*
X146206287Y-89907974D01*
X146150515Y-89739662D01*
X146057430Y-89588748D01*
X146057429Y-89588747D01*
X146057424Y-89588741D01*
X145932054Y-89463371D01*
X145929356Y-89461238D01*
X145927984Y-89459301D01*
X145926863Y-89458180D01*
X145927054Y-89457988D01*
X145888325Y-89403299D01*
X145885133Y-89332374D01*
X145920792Y-89270982D01*
X145929356Y-89263562D01*
X145932049Y-89261431D01*
X145932052Y-89261430D01*
X146057430Y-89136052D01*
X146150515Y-88985138D01*
X146206287Y-88816826D01*
X146216900Y-88712945D01*
X146216899Y-88111856D01*
X146206287Y-88007974D01*
X146150515Y-87839662D01*
X146057430Y-87688748D01*
X146057429Y-87688747D01*
X146057424Y-87688741D01*
X145932058Y-87563375D01*
X145932054Y-87563372D01*
X145932052Y-87563370D01*
X145932046Y-87563366D01*
X145879183Y-87530759D01*
X145831705Y-87477973D01*
X145825497Y-87462454D01*
X145788909Y-87349846D01*
X159599500Y-87349846D01*
X159599500Y-87950944D01*
X159610112Y-88054825D01*
X159665885Y-88223138D01*
X159758970Y-88374052D01*
X159758975Y-88374058D01*
X159884344Y-88499427D01*
X159887049Y-88501566D01*
X159888421Y-88503504D01*
X159889537Y-88504620D01*
X159889346Y-88504810D01*
X159928076Y-88559508D01*
X159931264Y-88630433D01*
X159895602Y-88691823D01*
X159887049Y-88699234D01*
X159884344Y-88701372D01*
X159758975Y-88826741D01*
X159758970Y-88826747D01*
X159665885Y-88977662D01*
X159610113Y-89145972D01*
X159610112Y-89145979D01*
X159599500Y-89249846D01*
X159599500Y-89850944D01*
X159610112Y-89954825D01*
X159665885Y-90123138D01*
X159758970Y-90274052D01*
X159758975Y-90274058D01*
X159884341Y-90399424D01*
X159884347Y-90399429D01*
X159884348Y-90399430D01*
X160035262Y-90492515D01*
X160203574Y-90548287D01*
X160307455Y-90558900D01*
X161358544Y-90558899D01*
X161462426Y-90548287D01*
X161630738Y-90492515D01*
X161781652Y-90399430D01*
X161907030Y-90274052D01*
X162000115Y-90123138D01*
X162055887Y-89954826D01*
X162066500Y-89850945D01*
X162066499Y-89249856D01*
X162055887Y-89145974D01*
X162000115Y-88977662D01*
X161907030Y-88826748D01*
X161907029Y-88826747D01*
X161907024Y-88826741D01*
X161781654Y-88701371D01*
X161778956Y-88699238D01*
X161777584Y-88697301D01*
X161776463Y-88696180D01*
X161776654Y-88695988D01*
X161737925Y-88641299D01*
X161734733Y-88570374D01*
X161770392Y-88508982D01*
X161778956Y-88501562D01*
X161781649Y-88499431D01*
X161781652Y-88499430D01*
X161907030Y-88374052D01*
X162000115Y-88223138D01*
X162055887Y-88054826D01*
X162066500Y-87950945D01*
X162066499Y-87349856D01*
X162066400Y-87348891D01*
X162055887Y-87245974D01*
X162038203Y-87192607D01*
X162000115Y-87077662D01*
X161907030Y-86926748D01*
X161907029Y-86926747D01*
X161907024Y-86926741D01*
X161781658Y-86801375D01*
X161781652Y-86801370D01*
X161630738Y-86708285D01*
X161546582Y-86680399D01*
X161462427Y-86652513D01*
X161462420Y-86652512D01*
X161358553Y-86641900D01*
X160307455Y-86641900D01*
X160203574Y-86652512D01*
X160035261Y-86708285D01*
X159884347Y-86801370D01*
X159884341Y-86801375D01*
X159758975Y-86926741D01*
X159758970Y-86926747D01*
X159665885Y-87077662D01*
X159610113Y-87245972D01*
X159610112Y-87245979D01*
X159599500Y-87349846D01*
X145788909Y-87349846D01*
X145788602Y-87348900D01*
X145788598Y-87348891D01*
X145729181Y-87245979D01*
X145698367Y-87192607D01*
X145698365Y-87192605D01*
X145698361Y-87192599D01*
X145577615Y-87058497D01*
X145431615Y-86952422D01*
X145265809Y-86878600D01*
X145211713Y-86832619D01*
X145191064Y-86764692D01*
X145197224Y-86724560D01*
X145244365Y-86579475D01*
X145263229Y-86400000D01*
X145244365Y-86220525D01*
X145240612Y-86208975D01*
X145188601Y-86048897D01*
X145188598Y-86048891D01*
X145098368Y-85892609D01*
X145098367Y-85892607D01*
X145020875Y-85806543D01*
X144990159Y-85742537D01*
X144998923Y-85672083D01*
X145020874Y-85637925D01*
X145048367Y-85607393D01*
X145138599Y-85451107D01*
X145140387Y-85445606D01*
X145176837Y-85333420D01*
X145194365Y-85279475D01*
X145213229Y-85100000D01*
X145194365Y-84920525D01*
X145161876Y-84820532D01*
X145138601Y-84748897D01*
X145138598Y-84748891D01*
X145048368Y-84592609D01*
X145048361Y-84592599D01*
X144927615Y-84458497D01*
X144781615Y-84352422D01*
X144616752Y-84279020D01*
X144440233Y-84241500D01*
X144440232Y-84241500D01*
X144259768Y-84241500D01*
X144259767Y-84241500D01*
X144083250Y-84279019D01*
X143918383Y-84352422D01*
X143918383Y-84352423D01*
X143772384Y-84458497D01*
X143651638Y-84592599D01*
X143651631Y-84592609D01*
X143561401Y-84748891D01*
X143561398Y-84748897D01*
X143505636Y-84920519D01*
X143505635Y-84920523D01*
X143505635Y-84920525D01*
X143486771Y-85100000D01*
X139033500Y-85100000D01*
X139033500Y-84229246D01*
X145986500Y-84229246D01*
X145986500Y-85280344D01*
X145997112Y-85384225D01*
X146052885Y-85552538D01*
X146145970Y-85703452D01*
X146145975Y-85703458D01*
X146271341Y-85828824D01*
X146271347Y-85828829D01*
X146271348Y-85828830D01*
X146422262Y-85921915D01*
X146590574Y-85977687D01*
X146694455Y-85988300D01*
X147295544Y-85988299D01*
X147399426Y-85977687D01*
X147567738Y-85921915D01*
X147718652Y-85828830D01*
X147844030Y-85703452D01*
X147844031Y-85703449D01*
X147846162Y-85700756D01*
X147848098Y-85699384D01*
X147849220Y-85698263D01*
X147849411Y-85698454D01*
X147904101Y-85659725D01*
X147975026Y-85656533D01*
X148036418Y-85692192D01*
X148043838Y-85700756D01*
X148045971Y-85703454D01*
X148171341Y-85828824D01*
X148171347Y-85828829D01*
X148171348Y-85828830D01*
X148322262Y-85921915D01*
X148490574Y-85977687D01*
X148594455Y-85988300D01*
X149195544Y-85988299D01*
X149299426Y-85977687D01*
X149467738Y-85921915D01*
X149618652Y-85828830D01*
X149744030Y-85703452D01*
X149837115Y-85552538D01*
X149843092Y-85534497D01*
X149883505Y-85476127D01*
X149949061Y-85448870D01*
X150018946Y-85461382D01*
X150069935Y-85507980D01*
X150131255Y-85607395D01*
X150159170Y-85652652D01*
X150159175Y-85652658D01*
X150284541Y-85778024D01*
X150284547Y-85778029D01*
X150284548Y-85778030D01*
X150435462Y-85871115D01*
X150603774Y-85926887D01*
X150707655Y-85937500D01*
X151308744Y-85937499D01*
X151412626Y-85926887D01*
X151580938Y-85871115D01*
X151731852Y-85778030D01*
X151857230Y-85652652D01*
X151857237Y-85652639D01*
X151859678Y-85649554D01*
X151861909Y-85647973D01*
X151862420Y-85647463D01*
X151862507Y-85647550D01*
X151917616Y-85608521D01*
X151988540Y-85605324D01*
X152049934Y-85640980D01*
X152057361Y-85649551D01*
X152059569Y-85652344D01*
X152184854Y-85777629D01*
X152184860Y-85777634D01*
X152335674Y-85870657D01*
X152503878Y-85926393D01*
X152503881Y-85926394D01*
X152607683Y-85936999D01*
X152607683Y-85937000D01*
X152654200Y-85937000D01*
X152654200Y-83471000D01*
X153162200Y-83471000D01*
X153162200Y-85937000D01*
X153208717Y-85937000D01*
X153208716Y-85936999D01*
X153312518Y-85926394D01*
X153312521Y-85926393D01*
X153480725Y-85870657D01*
X153631539Y-85777634D01*
X153631545Y-85777629D01*
X153756829Y-85652345D01*
X153756834Y-85652339D01*
X153849857Y-85501525D01*
X153905593Y-85333321D01*
X153905594Y-85333318D01*
X153916199Y-85229516D01*
X153916200Y-85229516D01*
X153916200Y-84864945D01*
X153936202Y-84796824D01*
X153989858Y-84750331D01*
X154060132Y-84740227D01*
X154124712Y-84769721D01*
X154151317Y-84801943D01*
X154162048Y-84820528D01*
X154226631Y-84932390D01*
X154226638Y-84932400D01*
X154347384Y-85066502D01*
X154347387Y-85066504D01*
X154493385Y-85172578D01*
X154658248Y-85245980D01*
X154797247Y-85275524D01*
X154834767Y-85283500D01*
X154834768Y-85283500D01*
X155015233Y-85283500D01*
X155046175Y-85276922D01*
X155191752Y-85245980D01*
X155356615Y-85172578D01*
X155502613Y-85066504D01*
X155588105Y-84971556D01*
X155623361Y-84932400D01*
X155623362Y-84932398D01*
X155623367Y-84932393D01*
X155713599Y-84776107D01*
X155722442Y-84748893D01*
X155768667Y-84606624D01*
X155808740Y-84548018D01*
X155874136Y-84520380D01*
X155944093Y-84532486D01*
X155996400Y-84580492D01*
X156014500Y-84645559D01*
X156014500Y-85229544D01*
X156025112Y-85333425D01*
X156080885Y-85501738D01*
X156173970Y-85652652D01*
X156173975Y-85652658D01*
X156299341Y-85778024D01*
X156299347Y-85778029D01*
X156299348Y-85778030D01*
X156450262Y-85871115D01*
X156618574Y-85926887D01*
X156722455Y-85937500D01*
X157323544Y-85937499D01*
X157427426Y-85926887D01*
X157595738Y-85871115D01*
X157746652Y-85778030D01*
X157872030Y-85652652D01*
X157872031Y-85652649D01*
X157874162Y-85649956D01*
X157876098Y-85648584D01*
X157877220Y-85647463D01*
X157877411Y-85647654D01*
X157932101Y-85608925D01*
X158003026Y-85605733D01*
X158064418Y-85641392D01*
X158071838Y-85649956D01*
X158073971Y-85652654D01*
X158199341Y-85778024D01*
X158199347Y-85778029D01*
X158199348Y-85778030D01*
X158350262Y-85871115D01*
X158518574Y-85926887D01*
X158622455Y-85937500D01*
X159223544Y-85937499D01*
X159327426Y-85926887D01*
X159495738Y-85871115D01*
X159646652Y-85778030D01*
X159772030Y-85652652D01*
X159865115Y-85501738D01*
X159920887Y-85333426D01*
X159931500Y-85229545D01*
X159931499Y-84300000D01*
X161486771Y-84300000D01*
X161501603Y-84441118D01*
X161505636Y-84479480D01*
X161561398Y-84651102D01*
X161561401Y-84651108D01*
X161651631Y-84807390D01*
X161651638Y-84807400D01*
X161772384Y-84941502D01*
X161772387Y-84941504D01*
X161918385Y-85047578D01*
X162083248Y-85120980D01*
X162222247Y-85150524D01*
X162259767Y-85158500D01*
X162259768Y-85158500D01*
X162440233Y-85158500D01*
X162471175Y-85151922D01*
X162616752Y-85120980D01*
X162781615Y-85047578D01*
X162927613Y-84941504D01*
X163036540Y-84820528D01*
X163048361Y-84807400D01*
X163048362Y-84807398D01*
X163048367Y-84807393D01*
X163138599Y-84651107D01*
X163153751Y-84604475D01*
X163166482Y-84565291D01*
X163194365Y-84479475D01*
X163213229Y-84300000D01*
X163194365Y-84120525D01*
X163181072Y-84079612D01*
X163138601Y-83948897D01*
X163138598Y-83948891D01*
X163059181Y-83811337D01*
X163048367Y-83792607D01*
X163048365Y-83792605D01*
X163048361Y-83792599D01*
X162927615Y-83658497D01*
X162781615Y-83552422D01*
X162616752Y-83479020D01*
X162440233Y-83441500D01*
X162440232Y-83441500D01*
X162259768Y-83441500D01*
X162259767Y-83441500D01*
X162083250Y-83479019D01*
X161918383Y-83552422D01*
X161918383Y-83552423D01*
X161772384Y-83658497D01*
X161651638Y-83792599D01*
X161651631Y-83792609D01*
X161561401Y-83948891D01*
X161561398Y-83948897D01*
X161505636Y-84120519D01*
X161505635Y-84120523D01*
X161505635Y-84120525D01*
X161486771Y-84300000D01*
X159931499Y-84300000D01*
X159931499Y-84178456D01*
X159925580Y-84120519D01*
X159920887Y-84074574D01*
X159916899Y-84062539D01*
X159865115Y-83906262D01*
X159772030Y-83755348D01*
X159772027Y-83755345D01*
X159772024Y-83755341D01*
X159646658Y-83629975D01*
X159646652Y-83629970D01*
X159495738Y-83536885D01*
X159408353Y-83507929D01*
X159327427Y-83481113D01*
X159327420Y-83481112D01*
X159223553Y-83470500D01*
X158622455Y-83470500D01*
X158518574Y-83481112D01*
X158350261Y-83536885D01*
X158199347Y-83629970D01*
X158199341Y-83629975D01*
X158073972Y-83755344D01*
X158071834Y-83758049D01*
X158069895Y-83759421D01*
X158068780Y-83760537D01*
X158068589Y-83760346D01*
X158013892Y-83799076D01*
X157942967Y-83802264D01*
X157881577Y-83766602D01*
X157874166Y-83758049D01*
X157872027Y-83755344D01*
X157746658Y-83629975D01*
X157746652Y-83629970D01*
X157595738Y-83536885D01*
X157508353Y-83507929D01*
X157427427Y-83481113D01*
X157427420Y-83481112D01*
X157323553Y-83470500D01*
X156722455Y-83470500D01*
X156618574Y-83481112D01*
X156450261Y-83536885D01*
X156299347Y-83629970D01*
X156299341Y-83629975D01*
X156173975Y-83755341D01*
X156173970Y-83755347D01*
X156080885Y-83906262D01*
X156025113Y-84074572D01*
X156025112Y-84074579D01*
X156014500Y-84178446D01*
X156014500Y-84204439D01*
X155994498Y-84272560D01*
X155940842Y-84319053D01*
X155870568Y-84329157D01*
X155805988Y-84299663D01*
X155768667Y-84243375D01*
X155713601Y-84073897D01*
X155713598Y-84073891D01*
X155651467Y-83966277D01*
X155623367Y-83917607D01*
X155623365Y-83917605D01*
X155623361Y-83917599D01*
X155502615Y-83783497D01*
X155356615Y-83677422D01*
X155191752Y-83604020D01*
X155015233Y-83566500D01*
X155015232Y-83566500D01*
X154834768Y-83566500D01*
X154834767Y-83566500D01*
X154658250Y-83604019D01*
X154493383Y-83677422D01*
X154493383Y-83677423D01*
X154347384Y-83783497D01*
X154226638Y-83917599D01*
X154226631Y-83917609D01*
X154136395Y-84073902D01*
X154136274Y-84074175D01*
X154136162Y-84074306D01*
X154133099Y-84079612D01*
X154132127Y-84079051D01*
X154090285Y-84128263D01*
X154022354Y-84148901D01*
X153954049Y-84129537D01*
X153907057Y-84076319D01*
X153901571Y-84062539D01*
X153849857Y-83906475D01*
X153756834Y-83755660D01*
X153756829Y-83755654D01*
X153631545Y-83630370D01*
X153631539Y-83630365D01*
X153480725Y-83537342D01*
X153312521Y-83481606D01*
X153312518Y-83481605D01*
X153208716Y-83471000D01*
X153162200Y-83471000D01*
X152654200Y-83471000D01*
X152607683Y-83471000D01*
X152503881Y-83481605D01*
X152503878Y-83481606D01*
X152335674Y-83537342D01*
X152184860Y-83630365D01*
X152184854Y-83630370D01*
X152059570Y-83755654D01*
X152057357Y-83758454D01*
X152055349Y-83759875D01*
X152054375Y-83760850D01*
X152054208Y-83760683D01*
X151999416Y-83799482D01*
X151928491Y-83802672D01*
X151867100Y-83767011D01*
X151859683Y-83758450D01*
X151857228Y-83755345D01*
X151731858Y-83629975D01*
X151731852Y-83629970D01*
X151580938Y-83536885D01*
X151493553Y-83507929D01*
X151412627Y-83481113D01*
X151412620Y-83481112D01*
X151308753Y-83470500D01*
X150707655Y-83470500D01*
X150603774Y-83481112D01*
X150435461Y-83536885D01*
X150284547Y-83629970D01*
X150284541Y-83629975D01*
X150159175Y-83755341D01*
X150159170Y-83755347D01*
X150066083Y-83906264D01*
X150060105Y-83924306D01*
X150019690Y-83982676D01*
X149954132Y-84009930D01*
X149884248Y-83997414D01*
X149833262Y-83950816D01*
X149744030Y-83806148D01*
X149744026Y-83806144D01*
X149744024Y-83806141D01*
X149618658Y-83680775D01*
X149618652Y-83680770D01*
X149568766Y-83650000D01*
X149467738Y-83587685D01*
X149383582Y-83559799D01*
X149299427Y-83531913D01*
X149299420Y-83531912D01*
X149195553Y-83521300D01*
X148594455Y-83521300D01*
X148490574Y-83531912D01*
X148322261Y-83587685D01*
X148171347Y-83680770D01*
X148171341Y-83680775D01*
X148045972Y-83806144D01*
X148043834Y-83808849D01*
X148041895Y-83810221D01*
X148040780Y-83811337D01*
X148040589Y-83811146D01*
X147985892Y-83849876D01*
X147914967Y-83853064D01*
X147853577Y-83817402D01*
X147846166Y-83808849D01*
X147844027Y-83806144D01*
X147718658Y-83680775D01*
X147718652Y-83680770D01*
X147668766Y-83650000D01*
X147567738Y-83587685D01*
X147483582Y-83559799D01*
X147399427Y-83531913D01*
X147399420Y-83531912D01*
X147295553Y-83521300D01*
X146694455Y-83521300D01*
X146590574Y-83531912D01*
X146422261Y-83587685D01*
X146271347Y-83680770D01*
X146271341Y-83680775D01*
X146145975Y-83806141D01*
X146145970Y-83806147D01*
X146052885Y-83957062D01*
X145997113Y-84125372D01*
X145997112Y-84125379D01*
X145986500Y-84229246D01*
X139033500Y-84229246D01*
X139033500Y-83937607D01*
X139033499Y-83937603D01*
X139029522Y-83917609D01*
X139009155Y-83815215D01*
X138961400Y-83699925D01*
X138892071Y-83596167D01*
X138803833Y-83507929D01*
X137220405Y-81924501D01*
X137186379Y-81862189D01*
X137183500Y-81835406D01*
X137183500Y-80200000D01*
X137836771Y-80200000D01*
X137855330Y-80376577D01*
X137855636Y-80379480D01*
X137911398Y-80551102D01*
X137911401Y-80551108D01*
X138001631Y-80707390D01*
X138001638Y-80707400D01*
X138122384Y-80841502D01*
X138122387Y-80841504D01*
X138268385Y-80947578D01*
X138433248Y-81020980D01*
X138572247Y-81050524D01*
X138609767Y-81058500D01*
X138609768Y-81058500D01*
X138790233Y-81058500D01*
X138821175Y-81051922D01*
X138966752Y-81020980D01*
X139131615Y-80947578D01*
X139277613Y-80841504D01*
X139277615Y-80841502D01*
X139398361Y-80707400D01*
X139398362Y-80707398D01*
X139398367Y-80707393D01*
X139488599Y-80551107D01*
X139544365Y-80379475D01*
X139563229Y-80200000D01*
X141386771Y-80200000D01*
X141405330Y-80376577D01*
X141405636Y-80379480D01*
X141461398Y-80551102D01*
X141461401Y-80551108D01*
X141551631Y-80707390D01*
X141551638Y-80707400D01*
X141672384Y-80841502D01*
X141672387Y-80841504D01*
X141818385Y-80947578D01*
X141983248Y-81020980D01*
X142122247Y-81050524D01*
X142159767Y-81058500D01*
X142159768Y-81058500D01*
X142340233Y-81058500D01*
X142371175Y-81051922D01*
X142516752Y-81020980D01*
X142681615Y-80947578D01*
X142827613Y-80841504D01*
X142827615Y-80841502D01*
X142948361Y-80707400D01*
X142948362Y-80707398D01*
X142948367Y-80707393D01*
X143038599Y-80551107D01*
X143094365Y-80379475D01*
X143113229Y-80200000D01*
X143094365Y-80020525D01*
X143072906Y-79954480D01*
X143038601Y-79848897D01*
X143038598Y-79848891D01*
X142995937Y-79775000D01*
X151111771Y-79775000D01*
X151127484Y-79924500D01*
X151130636Y-79954480D01*
X151186398Y-80126102D01*
X151186401Y-80126108D01*
X151276631Y-80282390D01*
X151276638Y-80282400D01*
X151397384Y-80416502D01*
X151397387Y-80416504D01*
X151543385Y-80522578D01*
X151708248Y-80595980D01*
X151847247Y-80625524D01*
X151884767Y-80633500D01*
X151884768Y-80633500D01*
X152065233Y-80633500D01*
X152096175Y-80626922D01*
X152241752Y-80595980D01*
X152406615Y-80522578D01*
X152552613Y-80416504D01*
X152588563Y-80376578D01*
X152673361Y-80282400D01*
X152673362Y-80282398D01*
X152673367Y-80282393D01*
X152763599Y-80126107D01*
X152774101Y-80093787D01*
X152797906Y-80020519D01*
X152819365Y-79954475D01*
X152838229Y-79775000D01*
X152819365Y-79595525D01*
X152807334Y-79558496D01*
X152763601Y-79423897D01*
X152763598Y-79423891D01*
X152688930Y-79294563D01*
X152673367Y-79267607D01*
X152673365Y-79267605D01*
X152673361Y-79267599D01*
X152552615Y-79133497D01*
X152406615Y-79027422D01*
X152241752Y-78954020D01*
X152065233Y-78916500D01*
X152065232Y-78916500D01*
X151884768Y-78916500D01*
X151884767Y-78916500D01*
X151708250Y-78954019D01*
X151543383Y-79027422D01*
X151543383Y-79027423D01*
X151397384Y-79133497D01*
X151276638Y-79267599D01*
X151276631Y-79267609D01*
X151186401Y-79423891D01*
X151186398Y-79423897D01*
X151130636Y-79595519D01*
X151130635Y-79595523D01*
X151130635Y-79595525D01*
X151111771Y-79775000D01*
X142995937Y-79775000D01*
X142948368Y-79692609D01*
X142948361Y-79692599D01*
X142827615Y-79558497D01*
X142681615Y-79452422D01*
X142516752Y-79379020D01*
X142340233Y-79341500D01*
X142340232Y-79341500D01*
X142159768Y-79341500D01*
X142159767Y-79341500D01*
X141983250Y-79379019D01*
X141818383Y-79452422D01*
X141818383Y-79452423D01*
X141672384Y-79558497D01*
X141551638Y-79692599D01*
X141551631Y-79692609D01*
X141461401Y-79848891D01*
X141461398Y-79848897D01*
X141405636Y-80020519D01*
X141405635Y-80020523D01*
X141405635Y-80020525D01*
X141386771Y-80200000D01*
X139563229Y-80200000D01*
X139544365Y-80020525D01*
X139522906Y-79954480D01*
X139488601Y-79848897D01*
X139488598Y-79848891D01*
X139398368Y-79692609D01*
X139398361Y-79692599D01*
X139277615Y-79558497D01*
X139131615Y-79452422D01*
X138966752Y-79379020D01*
X138790233Y-79341500D01*
X138790232Y-79341500D01*
X138609768Y-79341500D01*
X138609767Y-79341500D01*
X138433250Y-79379019D01*
X138268383Y-79452422D01*
X138268383Y-79452423D01*
X138122384Y-79558497D01*
X138001638Y-79692599D01*
X138001631Y-79692609D01*
X137911401Y-79848891D01*
X137911398Y-79848897D01*
X137855636Y-80020519D01*
X137855635Y-80020523D01*
X137855635Y-80020525D01*
X137836771Y-80200000D01*
X137183500Y-80200000D01*
X137183500Y-77868690D01*
X137203502Y-77800569D01*
X137220405Y-77779595D01*
X139963095Y-75036905D01*
X140025407Y-75002879D01*
X140052190Y-75000000D01*
X166778900Y-75000000D01*
X166847021Y-75020002D01*
G37*
G04 #@! TD.AperFunction*
M02*
