G04 #@! TF.GenerationSoftware,KiCad,Pcbnew,8.0.5*
G04 #@! TF.CreationDate,2024-10-19T15:21:04+01:00*
G04 #@! TF.ProjectId,GfxVGA,47667856-4741-42e6-9b69-6361645f7063,rev?*
G04 #@! TF.SameCoordinates,Original*
G04 #@! TF.FileFunction,Paste,Bot*
G04 #@! TF.FilePolarity,Positive*
%FSLAX46Y46*%
G04 Gerber Fmt 4.6, Leading zero omitted, Abs format (unit mm)*
G04 Created by KiCad (PCBNEW 8.0.5) date 2024-10-19 15:21:04*
%MOMM*%
%LPD*%
G01*
G04 APERTURE LIST*
G04 Aperture macros list*
%AMRoundRect*
0 Rectangle with rounded corners*
0 $1 Rounding radius*
0 $2 $3 $4 $5 $6 $7 $8 $9 X,Y pos of 4 corners*
0 Add a 4 corners polygon primitive as box body*
4,1,4,$2,$3,$4,$5,$6,$7,$8,$9,$2,$3,0*
0 Add four circle primitives for the rounded corners*
1,1,$1+$1,$2,$3*
1,1,$1+$1,$4,$5*
1,1,$1+$1,$6,$7*
1,1,$1+$1,$8,$9*
0 Add four rect primitives between the rounded corners*
20,1,$1+$1,$2,$3,$4,$5,0*
20,1,$1+$1,$4,$5,$6,$7,0*
20,1,$1+$1,$6,$7,$8,$9,0*
20,1,$1+$1,$8,$9,$2,$3,0*%
G04 Aperture macros list end*
%ADD10RoundRect,0.250000X-0.250000X-0.475000X0.250000X-0.475000X0.250000X0.475000X-0.250000X0.475000X0*%
%ADD11RoundRect,0.250000X-0.475000X0.250000X-0.475000X-0.250000X0.475000X-0.250000X0.475000X0.250000X0*%
%ADD12RoundRect,0.250000X0.262500X0.450000X-0.262500X0.450000X-0.262500X-0.450000X0.262500X-0.450000X0*%
%ADD13RoundRect,0.250000X0.475000X-0.250000X0.475000X0.250000X-0.475000X0.250000X-0.475000X-0.250000X0*%
%ADD14RoundRect,0.250000X0.250000X0.475000X-0.250000X0.475000X-0.250000X-0.475000X0.250000X-0.475000X0*%
%ADD15RoundRect,0.250000X-0.450000X0.262500X-0.450000X-0.262500X0.450000X-0.262500X0.450000X0.262500X0*%
%ADD16RoundRect,0.250000X-0.262500X-0.450000X0.262500X-0.450000X0.262500X0.450000X-0.262500X0.450000X0*%
G04 APERTURE END LIST*
D10*
X183164400Y-128727200D03*
X185064400Y-128727200D03*
D11*
X160833000Y-87650400D03*
X160833000Y-89550400D03*
D10*
X170611800Y-129057400D03*
X172511800Y-129057400D03*
D12*
X142100000Y-109075000D03*
X140275000Y-109075000D03*
D13*
X160883800Y-94325600D03*
X160883800Y-92425600D03*
D12*
X147574200Y-100553600D03*
X145749200Y-100553600D03*
X137875000Y-109025000D03*
X136050000Y-109025000D03*
D10*
X157023000Y-84704000D03*
X158923000Y-84704000D03*
D14*
X152247800Y-100655200D03*
X150347800Y-100655200D03*
X148895000Y-84754800D03*
X146995000Y-84754800D03*
D10*
X128650000Y-128200000D03*
X130550000Y-128200000D03*
D14*
X138000000Y-113500000D03*
X136100000Y-113500000D03*
D10*
X120243600Y-128828800D03*
X122143600Y-128828800D03*
D15*
X164389000Y-103402200D03*
X164389000Y-105227200D03*
D16*
X158902600Y-100604400D03*
X160727600Y-100604400D03*
D10*
X154025000Y-128125000D03*
X155925000Y-128125000D03*
D16*
X179124600Y-128778000D03*
X180949600Y-128778000D03*
D12*
X133475000Y-108975000D03*
X131650000Y-108975000D03*
D14*
X152908200Y-84704000D03*
X151008200Y-84704000D03*
D11*
X144983400Y-88412400D03*
X144983400Y-90312400D03*
X144932600Y-93390800D03*
X144932600Y-95290800D03*
D10*
X146831800Y-116382000D03*
X148731800Y-116382000D03*
X120294400Y-132740400D03*
X122194400Y-132740400D03*
D14*
X152298600Y-96438800D03*
X150398600Y-96438800D03*
D10*
X170637200Y-132384800D03*
X172537200Y-132384800D03*
X141375000Y-128200000D03*
X143275000Y-128200000D03*
X146933400Y-112572000D03*
X148833400Y-112572000D03*
D16*
X154787800Y-100655200D03*
X156612800Y-100655200D03*
D14*
X187850000Y-132825000D03*
X185950000Y-132825000D03*
M02*
