%TF.GenerationSoftware,KiCad,Pcbnew,8.0.5*%
%TF.CreationDate,2024-10-19T15:21:06+01:00*%
%TF.ProjectId,GfxVGA,47667856-4741-42e6-9b69-6361645f7063,rev?*%
%TF.SameCoordinates,Original*%
%TF.FileFunction,Drillmap*%
%TF.FilePolarity,Positive*%
%FSLAX45Y45*%
G04 Gerber Fmt 4.5, Leading zero omitted, Abs format (unit mm)*
G04 Created by KiCad (PCBNEW 8.0.5) date 2024-10-19 15:21:06*
%MOMM*%
%LPD*%
G01*
G04 APERTURE LIST*
%ADD10C,0.050000*%
%ADD11C,0.200000*%
%ADD12C,0.100000*%
%ADD13C,0.320000*%
G04 APERTURE END LIST*
D10*
X19750000Y-5000000D02*
X10250000Y-5000000D01*
X10000000Y-5250000D02*
X10000000Y-14750000D01*
X10250000Y-15000000D02*
X19750000Y-15000000D01*
X20000000Y-14750000D02*
X20000000Y-5250000D01*
X20000000Y-14750000D02*
G75*
G02*
X19750000Y-15000000I-250000J0D01*
G01*
X19750000Y-5000000D02*
G75*
G02*
X20000000Y-5250000I0J-250000D01*
G01*
X10250000Y-15000000D02*
G75*
G02*
X10000000Y-14750000I0J250000D01*
G01*
X10000000Y-5250000D02*
G75*
G02*
X10250000Y-5000000I250000J0D01*
G01*
D11*
D12*
X10170000Y-12630000D02*
X10210000Y-12670000D01*
X10210000Y-12630000D02*
X10170000Y-12670000D01*
X10235000Y-9530000D02*
X10275000Y-9570000D01*
X10275000Y-9530000D02*
X10235000Y-9570000D01*
X10410000Y-9930000D02*
X10450000Y-9970000D01*
X10450000Y-9930000D02*
X10410000Y-9970000D01*
X10415000Y-10895000D02*
X10455000Y-10935000D01*
X10455000Y-10895000D02*
X10415000Y-10935000D01*
X10420000Y-11122500D02*
X10460000Y-11162500D01*
X10460000Y-11122500D02*
X10420000Y-11162500D01*
X10425000Y-11355000D02*
X10465000Y-11395000D01*
X10465000Y-11355000D02*
X10425000Y-11395000D01*
X10620000Y-8880000D02*
X10660000Y-8920000D01*
X10660000Y-8880000D02*
X10620000Y-8920000D01*
X10675000Y-11125000D02*
X10715000Y-11165000D01*
X10715000Y-11125000D02*
X10675000Y-11165000D01*
X10682500Y-11640000D02*
X10722500Y-11680000D01*
X10722500Y-11640000D02*
X10682500Y-11680000D01*
X10750000Y-9930000D02*
X10790000Y-9970000D01*
X10790000Y-9930000D02*
X10750000Y-9970000D01*
X10800000Y-13090000D02*
X10840000Y-13130000D01*
X10840000Y-13090000D02*
X10800000Y-13130000D01*
X10895000Y-9535000D02*
X10935000Y-9575000D01*
X10935000Y-9535000D02*
X10895000Y-9575000D01*
X10927500Y-12635000D02*
X10967500Y-12675000D01*
X10967500Y-12635000D02*
X10927500Y-12675000D01*
X10930000Y-13550000D02*
X10970000Y-13590000D01*
X10970000Y-13550000D02*
X10930000Y-13590000D01*
X11020000Y-11635000D02*
X11060000Y-11675000D01*
X11060000Y-11635000D02*
X11020000Y-11675000D01*
X11045000Y-11125000D02*
X11085000Y-11165000D01*
X11085000Y-11125000D02*
X11045000Y-11165000D01*
X11070000Y-10650000D02*
X11110000Y-10690000D01*
X11110000Y-10650000D02*
X11070000Y-10690000D01*
X11075000Y-9545000D02*
X11115000Y-9585000D01*
X11115000Y-9545000D02*
X11075000Y-9585000D01*
X11125000Y-12335000D02*
X11165000Y-12375000D01*
X11165000Y-12335000D02*
X11125000Y-12375000D01*
X11185000Y-12500000D02*
X11225000Y-12540000D01*
X11225000Y-12500000D02*
X11185000Y-12540000D01*
X11185000Y-13435000D02*
X11225000Y-13475000D01*
X11225000Y-13435000D02*
X11185000Y-13475000D01*
X11235000Y-9085000D02*
X11275000Y-9125000D01*
X11275000Y-9085000D02*
X11235000Y-9125000D01*
X11300000Y-11125000D02*
X11340000Y-11165000D01*
X11340000Y-11125000D02*
X11300000Y-11165000D01*
X11415000Y-12565000D02*
X11455000Y-12605000D01*
X11455000Y-12565000D02*
X11415000Y-12605000D01*
X11435400Y-13435400D02*
X11475400Y-13475400D01*
X11475400Y-13435400D02*
X11435400Y-13475400D01*
X11460000Y-10975000D02*
X11500000Y-11015000D01*
X11500000Y-10975000D02*
X11460000Y-11015000D01*
X11465000Y-11315000D02*
X11505000Y-11355000D01*
X11505000Y-11315000D02*
X11465000Y-11355000D01*
X11567500Y-7210000D02*
X11607500Y-7250000D01*
X11607500Y-7210000D02*
X11567500Y-7250000D01*
X11570000Y-7307500D02*
X11610000Y-7347500D01*
X11610000Y-7307500D02*
X11570000Y-7347500D01*
X11580000Y-12445000D02*
X11620000Y-12485000D01*
X11620000Y-12445000D02*
X11580000Y-12485000D01*
X11735000Y-6492500D02*
X11775000Y-6532500D01*
X11775000Y-6492500D02*
X11735000Y-6532500D01*
X11745000Y-8875000D02*
X11785000Y-8915000D01*
X11785000Y-8875000D02*
X11745000Y-8915000D01*
X11745000Y-9540000D02*
X11785000Y-9580000D01*
X11785000Y-9540000D02*
X11745000Y-9580000D01*
X11772500Y-13437500D02*
X11812500Y-13477500D01*
X11812500Y-13437500D02*
X11772500Y-13477500D01*
X11777500Y-12852500D02*
X11817500Y-12892500D01*
X11817500Y-12852500D02*
X11777500Y-12892500D01*
X11795000Y-11325000D02*
X11835000Y-11365000D01*
X11835000Y-11325000D02*
X11795000Y-11365000D01*
X11810000Y-10980000D02*
X11850000Y-11020000D01*
X11850000Y-10980000D02*
X11810000Y-11020000D01*
X11855000Y-12575000D02*
X11895000Y-12615000D01*
X11895000Y-12575000D02*
X11855000Y-12615000D01*
X11870000Y-10110000D02*
X11910000Y-10150000D01*
X11910000Y-10110000D02*
X11870000Y-10150000D01*
X11890000Y-9535000D02*
X11930000Y-9575000D01*
X11930000Y-9535000D02*
X11890000Y-9575000D01*
X11930000Y-12877500D02*
X11970000Y-12917500D01*
X11970000Y-12877500D02*
X11930000Y-12917500D01*
X11945000Y-10375000D02*
X11985000Y-10415000D01*
X11985000Y-10375000D02*
X11945000Y-10415000D01*
X12102500Y-6490000D02*
X12142500Y-6530000D01*
X12142500Y-6490000D02*
X12102500Y-6530000D01*
X12220000Y-10830000D02*
X12260000Y-10870000D01*
X12260000Y-10830000D02*
X12220000Y-10870000D01*
X12220000Y-11490000D02*
X12260000Y-11530000D01*
X12260000Y-11490000D02*
X12220000Y-11530000D01*
X12275000Y-12880000D02*
X12315000Y-12920000D01*
X12315000Y-12880000D02*
X12275000Y-12920000D01*
X12425000Y-13435000D02*
X12465000Y-13475000D01*
X12465000Y-13435000D02*
X12425000Y-13475000D01*
X12485000Y-12170000D02*
X12525000Y-12210000D01*
X12525000Y-12170000D02*
X12485000Y-12210000D01*
X12495000Y-9705000D02*
X12535000Y-9745000D01*
X12535000Y-9705000D02*
X12495000Y-9745000D01*
X12507500Y-12590000D02*
X12547500Y-12630000D01*
X12547500Y-12590000D02*
X12507500Y-12630000D01*
X12512500Y-12332500D02*
X12552500Y-12372500D01*
X12552500Y-12332500D02*
X12512500Y-12372500D01*
X12520000Y-10190000D02*
X12560000Y-10230000D01*
X12560000Y-10190000D02*
X12520000Y-10230000D01*
X12640000Y-12950000D02*
X12680000Y-12990000D01*
X12680000Y-12950000D02*
X12640000Y-12990000D01*
X12640000Y-13170000D02*
X12680000Y-13210000D01*
X12680000Y-13170000D02*
X12640000Y-13210000D01*
X12845000Y-12800000D02*
X12885000Y-12840000D01*
X12885000Y-12800000D02*
X12845000Y-12840000D01*
X12860000Y-13485000D02*
X12900000Y-13525000D01*
X12900000Y-13485000D02*
X12860000Y-13525000D01*
X12880000Y-9235000D02*
X12920000Y-9275000D01*
X12920000Y-9235000D02*
X12880000Y-9275000D01*
X12900000Y-14605000D02*
X12940000Y-14645000D01*
X12940000Y-14605000D02*
X12900000Y-14645000D01*
X12905000Y-11412500D02*
X12945000Y-11452500D01*
X12945000Y-11412500D02*
X12905000Y-11452500D01*
X13035000Y-12800000D02*
X13075000Y-12840000D01*
X13075000Y-12800000D02*
X13035000Y-12840000D01*
X13125000Y-11295000D02*
X13165000Y-11335000D01*
X13165000Y-11295000D02*
X13125000Y-11335000D01*
X13155000Y-14730000D02*
X13195000Y-14770000D01*
X13195000Y-14730000D02*
X13155000Y-14770000D01*
X13235000Y-9915000D02*
X13275000Y-9955000D01*
X13275000Y-9915000D02*
X13235000Y-9955000D01*
X13235000Y-10215000D02*
X13275000Y-10255000D01*
X13275000Y-10215000D02*
X13235000Y-10255000D01*
X13295000Y-11720000D02*
X13335000Y-11760000D01*
X13335000Y-11720000D02*
X13295000Y-11760000D01*
X13298410Y-12053780D02*
X13338410Y-12093780D01*
X13338410Y-12053780D02*
X13298410Y-12093780D01*
X13340000Y-9515000D02*
X13380000Y-9555000D01*
X13380000Y-9515000D02*
X13340000Y-9555000D01*
X13345000Y-10215000D02*
X13385000Y-10255000D01*
X13385000Y-10215000D02*
X13345000Y-10255000D01*
X13392500Y-10882500D02*
X13432500Y-10922500D01*
X13432500Y-10882500D02*
X13392500Y-10922500D01*
X13420000Y-14105000D02*
X13460000Y-14145000D01*
X13460000Y-14105000D02*
X13420000Y-14145000D01*
X13450000Y-9650000D02*
X13490000Y-9690000D01*
X13490000Y-9650000D02*
X13450000Y-9690000D01*
X13455000Y-10225000D02*
X13495000Y-10265000D01*
X13495000Y-10225000D02*
X13455000Y-10265000D01*
X13525000Y-12710000D02*
X13565000Y-12750000D01*
X13565000Y-12710000D02*
X13525000Y-12750000D01*
X13525000Y-13425000D02*
X13565000Y-13465000D01*
X13565000Y-13425000D02*
X13525000Y-13465000D01*
X13545000Y-9840000D02*
X13585000Y-9880000D01*
X13585000Y-9840000D02*
X13545000Y-9880000D01*
X13552500Y-7210000D02*
X13592500Y-7250000D01*
X13592500Y-7210000D02*
X13552500Y-7250000D01*
X13557500Y-7317500D02*
X13597500Y-7357500D01*
X13597500Y-7317500D02*
X13557500Y-7357500D01*
X13565000Y-10270000D02*
X13605000Y-10310000D01*
X13605000Y-10270000D02*
X13565000Y-10310000D01*
X13568410Y-12043780D02*
X13608410Y-12083780D01*
X13608410Y-12043780D02*
X13568410Y-12083780D01*
X13587500Y-10967500D02*
X13627500Y-11007500D01*
X13627500Y-10967500D02*
X13587500Y-11007500D01*
X13587500Y-11542500D02*
X13627500Y-11582500D01*
X13627500Y-11542500D02*
X13587500Y-11582500D01*
X13775000Y-10285000D02*
X13815000Y-10325000D01*
X13815000Y-10285000D02*
X13775000Y-10325000D01*
X13782500Y-11432500D02*
X13822500Y-11472500D01*
X13822500Y-11432500D02*
X13782500Y-11472500D01*
X13795000Y-11850000D02*
X13835000Y-11890000D01*
X13835000Y-11850000D02*
X13795000Y-11890000D01*
X13795000Y-14730000D02*
X13835000Y-14770000D01*
X13835000Y-14730000D02*
X13795000Y-14770000D01*
X13835000Y-13480000D02*
X13875000Y-13520000D01*
X13875000Y-13480000D02*
X13835000Y-13520000D01*
X13847500Y-10882500D02*
X13887500Y-10922500D01*
X13887500Y-10882500D02*
X13847500Y-10922500D01*
X13850000Y-8000000D02*
X13890000Y-8040000D01*
X13890000Y-8000000D02*
X13850000Y-8040000D01*
X13900000Y-10397500D02*
X13940000Y-10437500D01*
X13940000Y-10397500D02*
X13900000Y-10437500D01*
X14000000Y-9305000D02*
X14040000Y-9345000D01*
X14040000Y-9305000D02*
X14000000Y-9345000D01*
X14002500Y-10967500D02*
X14042500Y-11007500D01*
X14042500Y-10967500D02*
X14002500Y-11007500D01*
X14049060Y-13675000D02*
X14089060Y-13715000D01*
X14089060Y-13675000D02*
X14049060Y-13715000D01*
X14050000Y-14685000D02*
X14090000Y-14725000D01*
X14090000Y-14685000D02*
X14050000Y-14725000D01*
X14117500Y-12800000D02*
X14157500Y-12840000D01*
X14157500Y-12800000D02*
X14117500Y-12840000D01*
X14145000Y-13065000D02*
X14185000Y-13105000D01*
X14185000Y-13065000D02*
X14145000Y-13105000D01*
X14185000Y-13765000D02*
X14225000Y-13805000D01*
X14225000Y-13765000D02*
X14185000Y-13805000D01*
X14187500Y-10982500D02*
X14227500Y-11022500D01*
X14227500Y-10982500D02*
X14187500Y-11022500D01*
X14205000Y-8000000D02*
X14245000Y-8040000D01*
X14245000Y-8000000D02*
X14205000Y-8040000D01*
X14235000Y-11545000D02*
X14275000Y-11585000D01*
X14275000Y-11545000D02*
X14235000Y-11585000D01*
X14245000Y-11390000D02*
X14285000Y-11430000D01*
X14285000Y-11390000D02*
X14245000Y-11430000D01*
X14305000Y-13455000D02*
X14345000Y-13495000D01*
X14345000Y-13455000D02*
X14305000Y-13495000D01*
X14307500Y-12800000D02*
X14347500Y-12840000D01*
X14347500Y-12800000D02*
X14307500Y-12840000D01*
X14310000Y-14760000D02*
X14350000Y-14800000D01*
X14350000Y-14760000D02*
X14310000Y-14800000D01*
X14340000Y-10840000D02*
X14380000Y-10880000D01*
X14380000Y-10840000D02*
X14340000Y-10880000D01*
X14395000Y-9750000D02*
X14435000Y-9790000D01*
X14435000Y-9750000D02*
X14395000Y-9790000D01*
X14395000Y-9925000D02*
X14435000Y-9965000D01*
X14435000Y-9925000D02*
X14395000Y-9965000D01*
X14400000Y-10115000D02*
X14440000Y-10155000D01*
X14440000Y-10115000D02*
X14400000Y-10155000D01*
X14415000Y-8490000D02*
X14455000Y-8530000D01*
X14455000Y-8490000D02*
X14415000Y-8530000D01*
X14420000Y-8620000D02*
X14460000Y-8660000D01*
X14460000Y-8620000D02*
X14420000Y-8660000D01*
X14425000Y-14300000D02*
X14465000Y-14340000D01*
X14465000Y-14300000D02*
X14425000Y-14340000D01*
X14445000Y-11530000D02*
X14485000Y-11570000D01*
X14485000Y-11530000D02*
X14445000Y-11570000D01*
X14460000Y-11235000D02*
X14500000Y-11275000D01*
X14500000Y-11235000D02*
X14460000Y-11275000D01*
X14473260Y-9319080D02*
X14513260Y-9359080D01*
X14513260Y-9319080D02*
X14473260Y-9359080D01*
X14473260Y-9509080D02*
X14513260Y-9549080D01*
X14513260Y-9509080D02*
X14473260Y-9549080D01*
X14480000Y-8750000D02*
X14520000Y-8790000D01*
X14520000Y-8750000D02*
X14480000Y-8790000D01*
X14480000Y-9080000D02*
X14520000Y-9120000D01*
X14520000Y-9080000D02*
X14480000Y-9120000D01*
X14480000Y-10920000D02*
X14520000Y-10960000D01*
X14520000Y-10920000D02*
X14480000Y-10960000D01*
X14505000Y-13530000D02*
X14545000Y-13570000D01*
X14545000Y-13530000D02*
X14505000Y-13570000D01*
X14554520Y-10119680D02*
X14594520Y-10159680D01*
X14594520Y-10119680D02*
X14554520Y-10159680D01*
X14560000Y-14200000D02*
X14600000Y-14240000D01*
X14600000Y-14200000D02*
X14560000Y-14240000D01*
X14670000Y-12105000D02*
X14710000Y-12145000D01*
X14710000Y-12105000D02*
X14670000Y-12145000D01*
X14679500Y-8455480D02*
X14719500Y-8495480D01*
X14719500Y-8455480D02*
X14679500Y-8495480D01*
X14695000Y-13620000D02*
X14735000Y-13660000D01*
X14735000Y-13620000D02*
X14695000Y-13660000D01*
X14732320Y-10112060D02*
X14772320Y-10152060D01*
X14772320Y-10112060D02*
X14732320Y-10152060D01*
X14869500Y-8455480D02*
X14909500Y-8495480D01*
X14909500Y-8455480D02*
X14869500Y-8495480D01*
X14925000Y-12100000D02*
X14965000Y-12140000D01*
X14965000Y-12100000D02*
X14925000Y-12140000D01*
X14940000Y-9620000D02*
X14980000Y-9660000D01*
X14980000Y-9620000D02*
X14940000Y-9660000D01*
X14940000Y-14295000D02*
X14980000Y-14335000D01*
X14980000Y-14295000D02*
X14940000Y-14335000D01*
X15014780Y-10045520D02*
X15054780Y-10085520D01*
X15054780Y-10045520D02*
X15014780Y-10085520D01*
X15050000Y-10655000D02*
X15090000Y-10695000D01*
X15090000Y-10655000D02*
X15050000Y-10695000D01*
X15080820Y-8450400D02*
X15120820Y-8490400D01*
X15120820Y-8450400D02*
X15080820Y-8490400D01*
X15090000Y-11515000D02*
X15130000Y-11555000D01*
X15130000Y-11515000D02*
X15090000Y-11555000D01*
X15095000Y-13270000D02*
X15135000Y-13310000D01*
X15135000Y-13270000D02*
X15095000Y-13310000D01*
X15110000Y-11250000D02*
X15150000Y-11290000D01*
X15150000Y-11250000D02*
X15110000Y-11290000D01*
X15177500Y-7957500D02*
X15217500Y-7997500D01*
X15217500Y-7957500D02*
X15177500Y-7997500D01*
X15190000Y-14195000D02*
X15230000Y-14235000D01*
X15230000Y-14195000D02*
X15190000Y-14235000D01*
X15200000Y-12390000D02*
X15240000Y-12430000D01*
X15240000Y-12390000D02*
X15200000Y-12430000D01*
X15207300Y-10122220D02*
X15247300Y-10162220D01*
X15247300Y-10122220D02*
X15207300Y-10162220D01*
X15225000Y-10550000D02*
X15265000Y-10590000D01*
X15265000Y-10550000D02*
X15225000Y-10590000D01*
X15225000Y-10745000D02*
X15265000Y-10785000D01*
X15265000Y-10745000D02*
X15225000Y-10785000D01*
X15255000Y-12095000D02*
X15295000Y-12135000D01*
X15295000Y-12095000D02*
X15255000Y-12135000D01*
X15270820Y-8450400D02*
X15310820Y-8490400D01*
X15310820Y-8450400D02*
X15270820Y-8490400D01*
X15285000Y-9620000D02*
X15325000Y-9660000D01*
X15325000Y-9620000D02*
X15285000Y-9660000D01*
X15320000Y-11965000D02*
X15360000Y-12005000D01*
X15360000Y-11965000D02*
X15320000Y-12005000D01*
X15335000Y-10165000D02*
X15375000Y-10205000D01*
X15375000Y-10165000D02*
X15335000Y-10205000D01*
X15370000Y-11545000D02*
X15410000Y-11585000D01*
X15410000Y-11545000D02*
X15370000Y-11585000D01*
X15375000Y-11840000D02*
X15415000Y-11880000D01*
X15415000Y-11840000D02*
X15375000Y-11880000D01*
X15382500Y-12792500D02*
X15422500Y-12832500D01*
X15422500Y-12792500D02*
X15382500Y-12832500D01*
X15423000Y-13065000D02*
X15463000Y-13105000D01*
X15463000Y-13065000D02*
X15423000Y-13105000D01*
X15468920Y-10127300D02*
X15508920Y-10167300D01*
X15508920Y-10127300D02*
X15468920Y-10167300D01*
X15472500Y-8422500D02*
X15512500Y-8462500D01*
X15512500Y-8422500D02*
X15472500Y-8462500D01*
X15550000Y-9760000D02*
X15590000Y-9800000D01*
X15590000Y-9760000D02*
X15550000Y-9800000D01*
X15572500Y-12792500D02*
X15612500Y-12832500D01*
X15612500Y-12792500D02*
X15572500Y-12832500D01*
X15585000Y-10955000D02*
X15625000Y-10995000D01*
X15625000Y-10955000D02*
X15585000Y-10995000D01*
X15641640Y-9954580D02*
X15681640Y-9994580D01*
X15681640Y-9954580D02*
X15641640Y-9994580D01*
X15660000Y-10595000D02*
X15700000Y-10635000D01*
X15700000Y-10595000D02*
X15660000Y-10635000D01*
X15680000Y-13130000D02*
X15720000Y-13170000D01*
X15720000Y-13130000D02*
X15680000Y-13170000D01*
X15682300Y-8450400D02*
X15722300Y-8490400D01*
X15722300Y-8450400D02*
X15682300Y-8490400D01*
X15739500Y-12385000D02*
X15779500Y-12425000D01*
X15779500Y-12385000D02*
X15739500Y-12425000D01*
X15750000Y-9665000D02*
X15790000Y-9705000D01*
X15790000Y-9665000D02*
X15750000Y-9705000D01*
X15785000Y-10730000D02*
X15825000Y-10770000D01*
X15825000Y-10730000D02*
X15785000Y-10770000D01*
X15805900Y-11154320D02*
X15845900Y-11194320D01*
X15845900Y-11154320D02*
X15805900Y-11194320D01*
X15805900Y-11484520D02*
X15845900Y-11524520D01*
X15845900Y-11484520D02*
X15805900Y-11524520D01*
X15870260Y-10040440D02*
X15910260Y-10080440D01*
X15910260Y-10040440D02*
X15870260Y-10080440D01*
X15872300Y-8450400D02*
X15912300Y-8490400D01*
X15912300Y-8450400D02*
X15872300Y-8490400D01*
X15910000Y-13530000D02*
X15950000Y-13570000D01*
X15950000Y-13530000D02*
X15910000Y-13570000D01*
X15930000Y-10200000D02*
X15970000Y-10240000D01*
X15970000Y-10200000D02*
X15930000Y-10240000D01*
X15930000Y-11835000D02*
X15970000Y-11875000D01*
X15970000Y-11835000D02*
X15930000Y-11875000D01*
X15955000Y-13770000D02*
X15995000Y-13810000D01*
X15995000Y-13770000D02*
X15955000Y-13810000D01*
X16030000Y-13695000D02*
X16070000Y-13735000D01*
X16070000Y-13695000D02*
X16030000Y-13735000D01*
X16052760Y-10040440D02*
X16092760Y-10080440D01*
X16092760Y-10040440D02*
X16052760Y-10080440D01*
X16063300Y-8745040D02*
X16103300Y-8785040D01*
X16103300Y-8745040D02*
X16063300Y-8785040D01*
X16063300Y-8935040D02*
X16103300Y-8975040D01*
X16103300Y-8935040D02*
X16063300Y-8975040D01*
X16068380Y-9222560D02*
X16108380Y-9262560D01*
X16108380Y-9222560D02*
X16068380Y-9262560D01*
X16068380Y-9412560D02*
X16108380Y-9452560D01*
X16108380Y-9412560D02*
X16068380Y-9452560D01*
X16090000Y-13475000D02*
X16130000Y-13515000D01*
X16130000Y-13475000D02*
X16090000Y-13515000D01*
X16110000Y-13620000D02*
X16150000Y-13660000D01*
X16150000Y-13620000D02*
X16110000Y-13660000D01*
X16125000Y-12095000D02*
X16165000Y-12135000D01*
X16165000Y-12095000D02*
X16125000Y-12135000D01*
X16190000Y-9905000D02*
X16230000Y-9945000D01*
X16230000Y-9905000D02*
X16190000Y-9945000D01*
X16205000Y-14595000D02*
X16245000Y-14635000D01*
X16245000Y-14595000D02*
X16205000Y-14635000D01*
X16210000Y-10060000D02*
X16250000Y-10100000D01*
X16250000Y-10060000D02*
X16210000Y-10100000D01*
X16215000Y-8410000D02*
X16255000Y-8450000D01*
X16255000Y-8410000D02*
X16215000Y-8450000D01*
X16220000Y-9530000D02*
X16260000Y-9570000D01*
X16260000Y-9530000D02*
X16220000Y-9570000D01*
X16310000Y-11965000D02*
X16350000Y-12005000D01*
X16350000Y-11965000D02*
X16310000Y-12005000D01*
X16350000Y-13410000D02*
X16390000Y-13450000D01*
X16390000Y-13410000D02*
X16350000Y-13450000D01*
X16418900Y-10320220D02*
X16458900Y-10360220D01*
X16458900Y-10320220D02*
X16418900Y-10360220D01*
X16420000Y-10570000D02*
X16460000Y-10610000D01*
X16460000Y-10570000D02*
X16420000Y-10610000D01*
X16460000Y-14670000D02*
X16500000Y-14710000D01*
X16500000Y-14670000D02*
X16460000Y-14710000D01*
X16500000Y-11720000D02*
X16540000Y-11760000D01*
X16540000Y-11720000D02*
X16500000Y-11760000D01*
X16515000Y-13130000D02*
X16555000Y-13170000D01*
X16555000Y-13130000D02*
X16515000Y-13170000D01*
X16550000Y-11385000D02*
X16590000Y-11425000D01*
X16590000Y-11385000D02*
X16550000Y-11425000D01*
X16600000Y-9305000D02*
X16640000Y-9345000D01*
X16640000Y-9305000D02*
X16600000Y-9345000D01*
X16612500Y-13437500D02*
X16652500Y-13477500D01*
X16652500Y-13437500D02*
X16612500Y-13477500D01*
X16630000Y-10850000D02*
X16670000Y-10890000D01*
X16670000Y-10850000D02*
X16630000Y-10890000D01*
X16725000Y-12725000D02*
X16765000Y-12765000D01*
X16765000Y-12725000D02*
X16725000Y-12765000D01*
X16725000Y-14760000D02*
X16765000Y-14800000D01*
X16765000Y-14760000D02*
X16725000Y-14800000D01*
X16730000Y-8160000D02*
X16770000Y-8200000D01*
X16770000Y-8160000D02*
X16730000Y-8200000D01*
X16755000Y-11475000D02*
X16795000Y-11515000D01*
X16795000Y-11475000D02*
X16755000Y-11515000D01*
X16850000Y-13060000D02*
X16890000Y-13100000D01*
X16890000Y-13060000D02*
X16850000Y-13100000D01*
X16870000Y-11315000D02*
X16910000Y-11355000D01*
X16910000Y-11315000D02*
X16870000Y-11355000D01*
X16875000Y-13720000D02*
X16915000Y-13760000D01*
X16915000Y-13720000D02*
X16875000Y-13760000D01*
X16885000Y-11625000D02*
X16925000Y-11665000D01*
X16925000Y-11625000D02*
X16885000Y-11665000D01*
X16962500Y-13632500D02*
X17002500Y-13672500D01*
X17002500Y-13632500D02*
X16962500Y-13672500D01*
X16980000Y-12980000D02*
X17020000Y-13020000D01*
X17020000Y-12980000D02*
X16980000Y-13020000D01*
X16982500Y-13137500D02*
X17022500Y-13177500D01*
X17022500Y-13137500D02*
X16982500Y-13177500D01*
X16985000Y-12030000D02*
X17025000Y-12070000D01*
X17025000Y-12030000D02*
X16985000Y-12070000D01*
X16990000Y-8060000D02*
X17030000Y-8100000D01*
X17030000Y-8060000D02*
X16990000Y-8100000D01*
X17220000Y-14292500D02*
X17260000Y-14332500D01*
X17260000Y-14292500D02*
X17220000Y-14332500D01*
X17240000Y-8440000D02*
X17280000Y-8480000D01*
X17280000Y-8440000D02*
X17240000Y-8480000D01*
X17262500Y-13555000D02*
X17302500Y-13595000D01*
X17302500Y-13555000D02*
X17262500Y-13595000D01*
X17290000Y-12975000D02*
X17330000Y-13015000D01*
X17330000Y-12975000D02*
X17290000Y-13015000D01*
X17350000Y-14127500D02*
X17390000Y-14167500D01*
X17390000Y-14127500D02*
X17350000Y-14167500D01*
X17437500Y-13467500D02*
X17477500Y-13507500D01*
X17477500Y-13467500D02*
X17437500Y-13507500D01*
X17472500Y-14207500D02*
X17512500Y-14247500D01*
X17512500Y-14207500D02*
X17472500Y-14247500D01*
X17495000Y-8345000D02*
X17535000Y-8385000D01*
X17535000Y-8345000D02*
X17495000Y-8385000D01*
X17495000Y-13152500D02*
X17535000Y-13192500D01*
X17535000Y-13152500D02*
X17495000Y-13192500D01*
X17540000Y-12575000D02*
X17580000Y-12615000D01*
X17580000Y-12575000D02*
X17540000Y-12615000D01*
X17605000Y-13447500D02*
X17645000Y-13487500D01*
X17645000Y-13447500D02*
X17605000Y-13487500D01*
X17730000Y-13535000D02*
X17770000Y-13575000D01*
X17770000Y-13535000D02*
X17730000Y-13575000D01*
X17795000Y-13295000D02*
X17835000Y-13335000D01*
X17835000Y-13295000D02*
X17795000Y-13335000D01*
X17832500Y-13617500D02*
X17872500Y-13657500D01*
X17872500Y-13617500D02*
X17832500Y-13657500D01*
X17880000Y-12560000D02*
X17920000Y-12600000D01*
X17920000Y-12560000D02*
X17880000Y-12600000D01*
X17895000Y-12960000D02*
X17935000Y-13000000D01*
X17935000Y-12960000D02*
X17895000Y-13000000D01*
X17985000Y-14295000D02*
X18025000Y-14335000D01*
X18025000Y-14295000D02*
X17985000Y-14335000D01*
X18035000Y-10850000D02*
X18075000Y-10890000D01*
X18075000Y-10850000D02*
X18035000Y-10890000D01*
X18041860Y-13697500D02*
X18081860Y-13737500D01*
X18081860Y-13697500D02*
X18041860Y-13737500D01*
X18045000Y-10430000D02*
X18085000Y-10470000D01*
X18085000Y-10430000D02*
X18045000Y-10470000D01*
X18075000Y-12955000D02*
X18115000Y-12995000D01*
X18115000Y-12955000D02*
X18075000Y-12995000D01*
X18112500Y-14200000D02*
X18152500Y-14240000D01*
X18152500Y-14200000D02*
X18112500Y-14240000D01*
X18160000Y-10960000D02*
X18200000Y-11000000D01*
X18200000Y-10960000D02*
X18160000Y-11000000D01*
X18255000Y-13785000D02*
X18295000Y-13825000D01*
X18295000Y-13785000D02*
X18255000Y-13825000D01*
X18265000Y-10430000D02*
X18305000Y-10470000D01*
X18305000Y-10430000D02*
X18265000Y-10470000D01*
X18300000Y-12950000D02*
X18340000Y-12990000D01*
X18340000Y-12950000D02*
X18300000Y-12990000D01*
X18356250Y-13626250D02*
X18396250Y-13666250D01*
X18396250Y-13626250D02*
X18356250Y-13666250D01*
X18433750Y-13533750D02*
X18473750Y-13573750D01*
X18473750Y-13533750D02*
X18433750Y-13573750D01*
X18490000Y-13447500D02*
X18530000Y-13487500D01*
X18530000Y-13447500D02*
X18490000Y-13487500D01*
X18532500Y-13180000D02*
X18572500Y-13220000D01*
X18572500Y-13180000D02*
X18532500Y-13220000D01*
X18535000Y-12925000D02*
X18575000Y-12965000D01*
X18575000Y-12925000D02*
X18535000Y-12965000D01*
X18638260Y-9422280D02*
X18678260Y-9462280D01*
X18678260Y-9422280D02*
X18638260Y-9462280D01*
X18638260Y-9640720D02*
X18678260Y-9680720D01*
X18678260Y-9640720D02*
X18638260Y-9680720D01*
X18745000Y-14195000D02*
X18785000Y-14235000D01*
X18785000Y-14195000D02*
X18745000Y-14235000D01*
X18827500Y-13230000D02*
X18867500Y-13270000D01*
X18867500Y-13230000D02*
X18827500Y-13270000D01*
X19160000Y-12030000D02*
X19200000Y-12070000D01*
X19200000Y-12030000D02*
X19160000Y-12070000D01*
X19215000Y-12900000D02*
X19255000Y-12940000D01*
X19255000Y-12900000D02*
X19215000Y-12940000D01*
X19258600Y-7942900D02*
X19298600Y-7982900D01*
X19298600Y-7942900D02*
X19258600Y-7982900D01*
X19339880Y-11610660D02*
X19379880Y-11650660D01*
X19379880Y-11610660D02*
X19339880Y-11650660D01*
X19345000Y-12425000D02*
X19385000Y-12465000D01*
X19385000Y-12425000D02*
X19345000Y-12465000D01*
X19355000Y-12735000D02*
X19395000Y-12775000D01*
X19395000Y-12735000D02*
X19355000Y-12775000D01*
X19456720Y-10513380D02*
X19496720Y-10553380D01*
X19496720Y-10513380D02*
X19456720Y-10553380D01*
X19475000Y-11990000D02*
X19515000Y-12030000D01*
X19515000Y-11990000D02*
X19475000Y-12030000D01*
X19550000Y-12420000D02*
X19590000Y-12460000D01*
X19590000Y-12420000D02*
X19550000Y-12460000D01*
X19624360Y-7945440D02*
X19664360Y-7985440D01*
X19664360Y-7945440D02*
X19624360Y-7985440D01*
X19705640Y-11613200D02*
X19745640Y-11653200D01*
X19745640Y-11613200D02*
X19705640Y-11653200D01*
X19723420Y-12735880D02*
X19763420Y-12775880D01*
X19763420Y-12735880D02*
X19723420Y-12775880D01*
X11075500Y-13959840D02*
G75*
G02*
X10975500Y-13959840I-50000J0D01*
G01*
X10975500Y-13959840D02*
G75*
G02*
X11075500Y-13959840I50000J0D01*
G01*
X11075500Y-14467840D02*
G75*
G02*
X10975500Y-14467840I-50000J0D01*
G01*
X10975500Y-14467840D02*
G75*
G02*
X11075500Y-14467840I50000J0D01*
G01*
X11329500Y-13959840D02*
G75*
G02*
X11229500Y-13959840I-50000J0D01*
G01*
X11229500Y-13959840D02*
G75*
G02*
X11329500Y-13959840I50000J0D01*
G01*
X11329500Y-14467840D02*
G75*
G02*
X11229500Y-14467840I-50000J0D01*
G01*
X11229500Y-14467840D02*
G75*
G02*
X11329500Y-14467840I50000J0D01*
G01*
X11583500Y-13959840D02*
G75*
G02*
X11483500Y-13959840I-50000J0D01*
G01*
X11483500Y-13959840D02*
G75*
G02*
X11583500Y-13959840I50000J0D01*
G01*
X11583500Y-14467840D02*
G75*
G02*
X11483500Y-14467840I-50000J0D01*
G01*
X11483500Y-14467840D02*
G75*
G02*
X11583500Y-14467840I50000J0D01*
G01*
X11837500Y-13959840D02*
G75*
G02*
X11737500Y-13959840I-50000J0D01*
G01*
X11737500Y-13959840D02*
G75*
G02*
X11837500Y-13959840I50000J0D01*
G01*
X11837500Y-14467840D02*
G75*
G02*
X11737500Y-14467840I-50000J0D01*
G01*
X11737500Y-14467840D02*
G75*
G02*
X11837500Y-14467840I50000J0D01*
G01*
X12091500Y-13959840D02*
G75*
G02*
X11991500Y-13959840I-50000J0D01*
G01*
X11991500Y-13959840D02*
G75*
G02*
X12091500Y-13959840I50000J0D01*
G01*
X12091500Y-14467840D02*
G75*
G02*
X11991500Y-14467840I-50000J0D01*
G01*
X11991500Y-14467840D02*
G75*
G02*
X12091500Y-14467840I50000J0D01*
G01*
X12345500Y-13959840D02*
G75*
G02*
X12245500Y-13959840I-50000J0D01*
G01*
X12245500Y-13959840D02*
G75*
G02*
X12345500Y-13959840I50000J0D01*
G01*
X12345500Y-14467840D02*
G75*
G02*
X12245500Y-14467840I-50000J0D01*
G01*
X12245500Y-14467840D02*
G75*
G02*
X12345500Y-14467840I50000J0D01*
G01*
X12599500Y-13959840D02*
G75*
G02*
X12499500Y-13959840I-50000J0D01*
G01*
X12499500Y-13959840D02*
G75*
G02*
X12599500Y-13959840I50000J0D01*
G01*
X12599500Y-14467840D02*
G75*
G02*
X12499500Y-14467840I-50000J0D01*
G01*
X12499500Y-14467840D02*
G75*
G02*
X12599500Y-14467840I50000J0D01*
G01*
X12853500Y-13959840D02*
G75*
G02*
X12753500Y-13959840I-50000J0D01*
G01*
X12753500Y-13959840D02*
G75*
G02*
X12853500Y-13959840I50000J0D01*
G01*
X12853500Y-14467840D02*
G75*
G02*
X12753500Y-14467840I-50000J0D01*
G01*
X12753500Y-14467840D02*
G75*
G02*
X12853500Y-14467840I50000J0D01*
G01*
X13107500Y-13959840D02*
G75*
G02*
X13007500Y-13959840I-50000J0D01*
G01*
X13007500Y-13959840D02*
G75*
G02*
X13107500Y-13959840I50000J0D01*
G01*
X13107500Y-14467840D02*
G75*
G02*
X13007500Y-14467840I-50000J0D01*
G01*
X13007500Y-14467840D02*
G75*
G02*
X13107500Y-14467840I50000J0D01*
G01*
X13361500Y-13959840D02*
G75*
G02*
X13261500Y-13959840I-50000J0D01*
G01*
X13261500Y-13959840D02*
G75*
G02*
X13361500Y-13959840I50000J0D01*
G01*
X13361500Y-14467840D02*
G75*
G02*
X13261500Y-14467840I-50000J0D01*
G01*
X13261500Y-14467840D02*
G75*
G02*
X13361500Y-14467840I50000J0D01*
G01*
X13615500Y-13959840D02*
G75*
G02*
X13515500Y-13959840I-50000J0D01*
G01*
X13515500Y-13959840D02*
G75*
G02*
X13615500Y-13959840I50000J0D01*
G01*
X13615500Y-14467840D02*
G75*
G02*
X13515500Y-14467840I-50000J0D01*
G01*
X13515500Y-14467840D02*
G75*
G02*
X13615500Y-14467840I50000J0D01*
G01*
X13869500Y-13959840D02*
G75*
G02*
X13769500Y-13959840I-50000J0D01*
G01*
X13769500Y-13959840D02*
G75*
G02*
X13869500Y-13959840I50000J0D01*
G01*
X13869500Y-14467840D02*
G75*
G02*
X13769500Y-14467840I-50000J0D01*
G01*
X13769500Y-14467840D02*
G75*
G02*
X13869500Y-14467840I50000J0D01*
G01*
X14123500Y-13959840D02*
G75*
G02*
X14023500Y-13959840I-50000J0D01*
G01*
X14023500Y-13959840D02*
G75*
G02*
X14123500Y-13959840I50000J0D01*
G01*
X14123500Y-14467840D02*
G75*
G02*
X14023500Y-14467840I-50000J0D01*
G01*
X14023500Y-14467840D02*
G75*
G02*
X14123500Y-14467840I50000J0D01*
G01*
X14377500Y-13959840D02*
G75*
G02*
X14277500Y-13959840I-50000J0D01*
G01*
X14277500Y-13959840D02*
G75*
G02*
X14377500Y-13959840I50000J0D01*
G01*
X14377500Y-14467840D02*
G75*
G02*
X14277500Y-14467840I-50000J0D01*
G01*
X14277500Y-14467840D02*
G75*
G02*
X14377500Y-14467840I50000J0D01*
G01*
X14631500Y-13959840D02*
G75*
G02*
X14531500Y-13959840I-50000J0D01*
G01*
X14531500Y-13959840D02*
G75*
G02*
X14631500Y-13959840I50000J0D01*
G01*
X14631500Y-14467840D02*
G75*
G02*
X14531500Y-14467840I-50000J0D01*
G01*
X14531500Y-14467840D02*
G75*
G02*
X14631500Y-14467840I50000J0D01*
G01*
X14885500Y-13959840D02*
G75*
G02*
X14785500Y-13959840I-50000J0D01*
G01*
X14785500Y-13959840D02*
G75*
G02*
X14885500Y-13959840I50000J0D01*
G01*
X14885500Y-14467840D02*
G75*
G02*
X14785500Y-14467840I-50000J0D01*
G01*
X14785500Y-14467840D02*
G75*
G02*
X14885500Y-14467840I50000J0D01*
G01*
X15139500Y-13959840D02*
G75*
G02*
X15039500Y-13959840I-50000J0D01*
G01*
X15039500Y-13959840D02*
G75*
G02*
X15139500Y-13959840I50000J0D01*
G01*
X15139500Y-14467840D02*
G75*
G02*
X15039500Y-14467840I-50000J0D01*
G01*
X15039500Y-14467840D02*
G75*
G02*
X15139500Y-14467840I50000J0D01*
G01*
X15393500Y-13959840D02*
G75*
G02*
X15293500Y-13959840I-50000J0D01*
G01*
X15293500Y-13959840D02*
G75*
G02*
X15393500Y-13959840I50000J0D01*
G01*
X15393500Y-14467840D02*
G75*
G02*
X15293500Y-14467840I-50000J0D01*
G01*
X15293500Y-14467840D02*
G75*
G02*
X15393500Y-14467840I50000J0D01*
G01*
X15647500Y-13959840D02*
G75*
G02*
X15547500Y-13959840I-50000J0D01*
G01*
X15547500Y-13959840D02*
G75*
G02*
X15647500Y-13959840I50000J0D01*
G01*
X15647500Y-14467840D02*
G75*
G02*
X15547500Y-14467840I-50000J0D01*
G01*
X15547500Y-14467840D02*
G75*
G02*
X15647500Y-14467840I50000J0D01*
G01*
X15901500Y-13959840D02*
G75*
G02*
X15801500Y-13959840I-50000J0D01*
G01*
X15801500Y-13959840D02*
G75*
G02*
X15901500Y-13959840I50000J0D01*
G01*
X15901500Y-14467840D02*
G75*
G02*
X15801500Y-14467840I-50000J0D01*
G01*
X15801500Y-14467840D02*
G75*
G02*
X15901500Y-14467840I50000J0D01*
G01*
X16155500Y-13959840D02*
G75*
G02*
X16055500Y-13959840I-50000J0D01*
G01*
X16055500Y-13959840D02*
G75*
G02*
X16155500Y-13959840I50000J0D01*
G01*
X16155500Y-14467840D02*
G75*
G02*
X16055500Y-14467840I-50000J0D01*
G01*
X16055500Y-14467840D02*
G75*
G02*
X16155500Y-14467840I50000J0D01*
G01*
X16409500Y-13959840D02*
G75*
G02*
X16309500Y-13959840I-50000J0D01*
G01*
X16309500Y-13959840D02*
G75*
G02*
X16409500Y-13959840I50000J0D01*
G01*
X16409500Y-14467840D02*
G75*
G02*
X16309500Y-14467840I-50000J0D01*
G01*
X16309500Y-14467840D02*
G75*
G02*
X16409500Y-14467840I50000J0D01*
G01*
X16549840Y-6924040D02*
G75*
G02*
X16449840Y-6924040I-50000J0D01*
G01*
X16449840Y-6924040D02*
G75*
G02*
X16549840Y-6924040I50000J0D01*
G01*
X16663500Y-13959840D02*
G75*
G02*
X16563500Y-13959840I-50000J0D01*
G01*
X16563500Y-13959840D02*
G75*
G02*
X16663500Y-13959840I50000J0D01*
G01*
X16663500Y-14467840D02*
G75*
G02*
X16563500Y-14467840I-50000J0D01*
G01*
X16563500Y-14467840D02*
G75*
G02*
X16663500Y-14467840I50000J0D01*
G01*
X16803840Y-6924040D02*
G75*
G02*
X16703840Y-6924040I-50000J0D01*
G01*
X16703840Y-6924040D02*
G75*
G02*
X16803840Y-6924040I50000J0D01*
G01*
X16917500Y-13959840D02*
G75*
G02*
X16817500Y-13959840I-50000J0D01*
G01*
X16817500Y-13959840D02*
G75*
G02*
X16917500Y-13959840I50000J0D01*
G01*
X16917500Y-14467840D02*
G75*
G02*
X16817500Y-14467840I-50000J0D01*
G01*
X16817500Y-14467840D02*
G75*
G02*
X16917500Y-14467840I50000J0D01*
G01*
X17057840Y-6924040D02*
G75*
G02*
X16957840Y-6924040I-50000J0D01*
G01*
X16957840Y-6924040D02*
G75*
G02*
X17057840Y-6924040I50000J0D01*
G01*
X17171500Y-13959840D02*
G75*
G02*
X17071500Y-13959840I-50000J0D01*
G01*
X17071500Y-13959840D02*
G75*
G02*
X17171500Y-13959840I50000J0D01*
G01*
X17171500Y-14467840D02*
G75*
G02*
X17071500Y-14467840I-50000J0D01*
G01*
X17071500Y-14467840D02*
G75*
G02*
X17171500Y-14467840I50000J0D01*
G01*
X17311840Y-6924040D02*
G75*
G02*
X17211840Y-6924040I-50000J0D01*
G01*
X17211840Y-6924040D02*
G75*
G02*
X17311840Y-6924040I50000J0D01*
G01*
X17425500Y-13959840D02*
G75*
G02*
X17325500Y-13959840I-50000J0D01*
G01*
X17325500Y-13959840D02*
G75*
G02*
X17425500Y-13959840I50000J0D01*
G01*
X17425500Y-14467840D02*
G75*
G02*
X17325500Y-14467840I-50000J0D01*
G01*
X17325500Y-14467840D02*
G75*
G02*
X17425500Y-14467840I50000J0D01*
G01*
X17565840Y-6924040D02*
G75*
G02*
X17465840Y-6924040I-50000J0D01*
G01*
X17465840Y-6924040D02*
G75*
G02*
X17565840Y-6924040I50000J0D01*
G01*
X17679500Y-13959840D02*
G75*
G02*
X17579500Y-13959840I-50000J0D01*
G01*
X17579500Y-13959840D02*
G75*
G02*
X17679500Y-13959840I50000J0D01*
G01*
X17679500Y-14467840D02*
G75*
G02*
X17579500Y-14467840I-50000J0D01*
G01*
X17579500Y-14467840D02*
G75*
G02*
X17679500Y-14467840I50000J0D01*
G01*
X17819840Y-6924040D02*
G75*
G02*
X17719840Y-6924040I-50000J0D01*
G01*
X17719840Y-6924040D02*
G75*
G02*
X17819840Y-6924040I50000J0D01*
G01*
X17933500Y-13959840D02*
G75*
G02*
X17833500Y-13959840I-50000J0D01*
G01*
X17833500Y-13959840D02*
G75*
G02*
X17933500Y-13959840I50000J0D01*
G01*
X17933500Y-14467840D02*
G75*
G02*
X17833500Y-14467840I-50000J0D01*
G01*
X17833500Y-14467840D02*
G75*
G02*
X17933500Y-14467840I50000J0D01*
G01*
X18187500Y-13959840D02*
G75*
G02*
X18087500Y-13959840I-50000J0D01*
G01*
X18087500Y-13959840D02*
G75*
G02*
X18187500Y-13959840I50000J0D01*
G01*
X18187500Y-14467840D02*
G75*
G02*
X18087500Y-14467840I-50000J0D01*
G01*
X18087500Y-14467840D02*
G75*
G02*
X18187500Y-14467840I50000J0D01*
G01*
X18441500Y-13959840D02*
G75*
G02*
X18341500Y-13959840I-50000J0D01*
G01*
X18341500Y-13959840D02*
G75*
G02*
X18441500Y-13959840I50000J0D01*
G01*
X18441500Y-14467840D02*
G75*
G02*
X18341500Y-14467840I-50000J0D01*
G01*
X18341500Y-14467840D02*
G75*
G02*
X18441500Y-14467840I50000J0D01*
G01*
X18695500Y-13959840D02*
G75*
G02*
X18595500Y-13959840I-50000J0D01*
G01*
X18595500Y-13959840D02*
G75*
G02*
X18695500Y-13959840I50000J0D01*
G01*
X18695500Y-14467840D02*
G75*
G02*
X18595500Y-14467840I-50000J0D01*
G01*
X18595500Y-14467840D02*
G75*
G02*
X18695500Y-14467840I50000J0D01*
G01*
X18949500Y-13959840D02*
G75*
G02*
X18849500Y-13959840I-50000J0D01*
G01*
X18849500Y-13959840D02*
G75*
G02*
X18949500Y-13959840I50000J0D01*
G01*
X18949500Y-14467840D02*
G75*
G02*
X18849500Y-14467840I-50000J0D01*
G01*
X18849500Y-14467840D02*
G75*
G02*
X18949500Y-14467840I50000J0D01*
G01*
X19342040Y-9363060D02*
G75*
G02*
X19242040Y-9363060I-50000J0D01*
G01*
X19242040Y-9363060D02*
G75*
G02*
X19342040Y-9363060I50000J0D01*
G01*
X19342040Y-9592060D02*
G75*
G02*
X19242040Y-9592060I-50000J0D01*
G01*
X19242040Y-9592060D02*
G75*
G02*
X19342040Y-9592060I50000J0D01*
G01*
X19342040Y-9821060D02*
G75*
G02*
X19242040Y-9821060I-50000J0D01*
G01*
X19242040Y-9821060D02*
G75*
G02*
X19342040Y-9821060I50000J0D01*
G01*
X19342040Y-10050060D02*
G75*
G02*
X19242040Y-10050060I-50000J0D01*
G01*
X19242040Y-10050060D02*
G75*
G02*
X19342040Y-10050060I50000J0D01*
G01*
X19342040Y-10279060D02*
G75*
G02*
X19242040Y-10279060I-50000J0D01*
G01*
X19242040Y-10279060D02*
G75*
G02*
X19342040Y-10279060I50000J0D01*
G01*
X19540040Y-9248560D02*
G75*
G02*
X19440040Y-9248560I-50000J0D01*
G01*
X19440040Y-9248560D02*
G75*
G02*
X19540040Y-9248560I50000J0D01*
G01*
X19540040Y-9477560D02*
G75*
G02*
X19440040Y-9477560I-50000J0D01*
G01*
X19440040Y-9477560D02*
G75*
G02*
X19540040Y-9477560I50000J0D01*
G01*
X19540040Y-9706560D02*
G75*
G02*
X19440040Y-9706560I-50000J0D01*
G01*
X19440040Y-9706560D02*
G75*
G02*
X19540040Y-9706560I50000J0D01*
G01*
X19540040Y-9935560D02*
G75*
G02*
X19440040Y-9935560I-50000J0D01*
G01*
X19440040Y-9935560D02*
G75*
G02*
X19540040Y-9935560I50000J0D01*
G01*
X19540040Y-10164560D02*
G75*
G02*
X19440040Y-10164560I-50000J0D01*
G01*
X19440040Y-10164560D02*
G75*
G02*
X19540040Y-10164560I50000J0D01*
G01*
X19738040Y-9363060D02*
G75*
G02*
X19638040Y-9363060I-50000J0D01*
G01*
X19638040Y-9363060D02*
G75*
G02*
X19738040Y-9363060I50000J0D01*
G01*
X19738040Y-9592060D02*
G75*
G02*
X19638040Y-9592060I-50000J0D01*
G01*
X19638040Y-9592060D02*
G75*
G02*
X19738040Y-9592060I50000J0D01*
G01*
X19738040Y-9821060D02*
G75*
G02*
X19638040Y-9821060I-50000J0D01*
G01*
X19638040Y-9821060D02*
G75*
G02*
X19738040Y-9821060I50000J0D01*
G01*
X19738040Y-10050060D02*
G75*
G02*
X19638040Y-10050060I-50000J0D01*
G01*
X19638040Y-10050060D02*
G75*
G02*
X19738040Y-10050060I50000J0D01*
G01*
X19738040Y-10279060D02*
G75*
G02*
X19638040Y-10279060I-50000J0D01*
G01*
X19638040Y-10279060D02*
G75*
G02*
X19738040Y-10279060I50000J0D01*
G01*
D13*
X19497040Y-8384560D02*
X19497040Y-8704560D01*
X19337040Y-8544560D02*
X19657040Y-8544560D01*
X19497040Y-10884560D02*
X19497040Y-11204560D01*
X19337040Y-11044560D02*
X19657040Y-11044560D01*
D11*
X10258277Y-15313984D02*
X10258277Y-15113984D01*
X10258277Y-15113984D02*
X10305896Y-15113984D01*
X10305896Y-15113984D02*
X10334467Y-15123508D01*
X10334467Y-15123508D02*
X10353515Y-15142555D01*
X10353515Y-15142555D02*
X10363039Y-15161603D01*
X10363039Y-15161603D02*
X10372563Y-15199698D01*
X10372563Y-15199698D02*
X10372563Y-15228269D01*
X10372563Y-15228269D02*
X10363039Y-15266365D01*
X10363039Y-15266365D02*
X10353515Y-15285412D01*
X10353515Y-15285412D02*
X10334467Y-15304460D01*
X10334467Y-15304460D02*
X10305896Y-15313984D01*
X10305896Y-15313984D02*
X10258277Y-15313984D01*
X10458277Y-15313984D02*
X10458277Y-15180650D01*
X10458277Y-15218746D02*
X10467801Y-15199698D01*
X10467801Y-15199698D02*
X10477324Y-15190174D01*
X10477324Y-15190174D02*
X10496372Y-15180650D01*
X10496372Y-15180650D02*
X10515420Y-15180650D01*
X10582086Y-15313984D02*
X10582086Y-15180650D01*
X10582086Y-15113984D02*
X10572563Y-15123508D01*
X10572563Y-15123508D02*
X10582086Y-15133031D01*
X10582086Y-15133031D02*
X10591610Y-15123508D01*
X10591610Y-15123508D02*
X10582086Y-15113984D01*
X10582086Y-15113984D02*
X10582086Y-15133031D01*
X10705896Y-15313984D02*
X10686848Y-15304460D01*
X10686848Y-15304460D02*
X10677324Y-15285412D01*
X10677324Y-15285412D02*
X10677324Y-15113984D01*
X10810658Y-15313984D02*
X10791610Y-15304460D01*
X10791610Y-15304460D02*
X10782086Y-15285412D01*
X10782086Y-15285412D02*
X10782086Y-15113984D01*
X11039229Y-15313984D02*
X11039229Y-15113984D01*
X11039229Y-15113984D02*
X11105896Y-15256841D01*
X11105896Y-15256841D02*
X11172563Y-15113984D01*
X11172563Y-15113984D02*
X11172563Y-15313984D01*
X11353515Y-15313984D02*
X11353515Y-15209222D01*
X11353515Y-15209222D02*
X11343991Y-15190174D01*
X11343991Y-15190174D02*
X11324943Y-15180650D01*
X11324943Y-15180650D02*
X11286848Y-15180650D01*
X11286848Y-15180650D02*
X11267801Y-15190174D01*
X11353515Y-15304460D02*
X11334467Y-15313984D01*
X11334467Y-15313984D02*
X11286848Y-15313984D01*
X11286848Y-15313984D02*
X11267801Y-15304460D01*
X11267801Y-15304460D02*
X11258277Y-15285412D01*
X11258277Y-15285412D02*
X11258277Y-15266365D01*
X11258277Y-15266365D02*
X11267801Y-15247317D01*
X11267801Y-15247317D02*
X11286848Y-15237793D01*
X11286848Y-15237793D02*
X11334467Y-15237793D01*
X11334467Y-15237793D02*
X11353515Y-15228269D01*
X11448753Y-15180650D02*
X11448753Y-15380650D01*
X11448753Y-15190174D02*
X11467801Y-15180650D01*
X11467801Y-15180650D02*
X11505896Y-15180650D01*
X11505896Y-15180650D02*
X11524943Y-15190174D01*
X11524943Y-15190174D02*
X11534467Y-15199698D01*
X11534467Y-15199698D02*
X11543991Y-15218746D01*
X11543991Y-15218746D02*
X11543991Y-15275888D01*
X11543991Y-15275888D02*
X11534467Y-15294936D01*
X11534467Y-15294936D02*
X11524943Y-15304460D01*
X11524943Y-15304460D02*
X11505896Y-15313984D01*
X11505896Y-15313984D02*
X11467801Y-15313984D01*
X11467801Y-15313984D02*
X11448753Y-15304460D01*
X11629705Y-15294936D02*
X11639229Y-15304460D01*
X11639229Y-15304460D02*
X11629705Y-15313984D01*
X11629705Y-15313984D02*
X11620182Y-15304460D01*
X11620182Y-15304460D02*
X11629705Y-15294936D01*
X11629705Y-15294936D02*
X11629705Y-15313984D01*
X11629705Y-15190174D02*
X11639229Y-15199698D01*
X11639229Y-15199698D02*
X11629705Y-15209222D01*
X11629705Y-15209222D02*
X11620182Y-15199698D01*
X11620182Y-15199698D02*
X11629705Y-15190174D01*
X11629705Y-15190174D02*
X11629705Y-15209222D01*
D12*
X9957500Y-15622500D02*
X9997500Y-15662500D01*
X9997500Y-15622500D02*
X9957500Y-15662500D01*
D11*
X10296372Y-15533984D02*
X10315420Y-15533984D01*
X10315420Y-15533984D02*
X10334467Y-15543508D01*
X10334467Y-15543508D02*
X10343991Y-15553031D01*
X10343991Y-15553031D02*
X10353515Y-15572079D01*
X10353515Y-15572079D02*
X10363039Y-15610174D01*
X10363039Y-15610174D02*
X10363039Y-15657793D01*
X10363039Y-15657793D02*
X10353515Y-15695888D01*
X10353515Y-15695888D02*
X10343991Y-15714936D01*
X10343991Y-15714936D02*
X10334467Y-15724460D01*
X10334467Y-15724460D02*
X10315420Y-15733984D01*
X10315420Y-15733984D02*
X10296372Y-15733984D01*
X10296372Y-15733984D02*
X10277324Y-15724460D01*
X10277324Y-15724460D02*
X10267801Y-15714936D01*
X10267801Y-15714936D02*
X10258277Y-15695888D01*
X10258277Y-15695888D02*
X10248753Y-15657793D01*
X10248753Y-15657793D02*
X10248753Y-15610174D01*
X10248753Y-15610174D02*
X10258277Y-15572079D01*
X10258277Y-15572079D02*
X10267801Y-15553031D01*
X10267801Y-15553031D02*
X10277324Y-15543508D01*
X10277324Y-15543508D02*
X10296372Y-15533984D01*
X10448753Y-15714936D02*
X10458277Y-15724460D01*
X10458277Y-15724460D02*
X10448753Y-15733984D01*
X10448753Y-15733984D02*
X10439229Y-15724460D01*
X10439229Y-15724460D02*
X10448753Y-15714936D01*
X10448753Y-15714936D02*
X10448753Y-15733984D01*
X10629705Y-15600650D02*
X10629705Y-15733984D01*
X10582086Y-15524460D02*
X10534467Y-15667317D01*
X10534467Y-15667317D02*
X10658277Y-15667317D01*
X10772563Y-15533984D02*
X10791610Y-15533984D01*
X10791610Y-15533984D02*
X10810658Y-15543508D01*
X10810658Y-15543508D02*
X10820182Y-15553031D01*
X10820182Y-15553031D02*
X10829705Y-15572079D01*
X10829705Y-15572079D02*
X10839229Y-15610174D01*
X10839229Y-15610174D02*
X10839229Y-15657793D01*
X10839229Y-15657793D02*
X10829705Y-15695888D01*
X10829705Y-15695888D02*
X10820182Y-15714936D01*
X10820182Y-15714936D02*
X10810658Y-15724460D01*
X10810658Y-15724460D02*
X10791610Y-15733984D01*
X10791610Y-15733984D02*
X10772563Y-15733984D01*
X10772563Y-15733984D02*
X10753515Y-15724460D01*
X10753515Y-15724460D02*
X10743991Y-15714936D01*
X10743991Y-15714936D02*
X10734467Y-15695888D01*
X10734467Y-15695888D02*
X10724944Y-15657793D01*
X10724944Y-15657793D02*
X10724944Y-15610174D01*
X10724944Y-15610174D02*
X10734467Y-15572079D01*
X10734467Y-15572079D02*
X10743991Y-15553031D01*
X10743991Y-15553031D02*
X10753515Y-15543508D01*
X10753515Y-15543508D02*
X10772563Y-15533984D01*
X10963039Y-15533984D02*
X10982086Y-15533984D01*
X10982086Y-15533984D02*
X11001134Y-15543508D01*
X11001134Y-15543508D02*
X11010658Y-15553031D01*
X11010658Y-15553031D02*
X11020182Y-15572079D01*
X11020182Y-15572079D02*
X11029705Y-15610174D01*
X11029705Y-15610174D02*
X11029705Y-15657793D01*
X11029705Y-15657793D02*
X11020182Y-15695888D01*
X11020182Y-15695888D02*
X11010658Y-15714936D01*
X11010658Y-15714936D02*
X11001134Y-15724460D01*
X11001134Y-15724460D02*
X10982086Y-15733984D01*
X10982086Y-15733984D02*
X10963039Y-15733984D01*
X10963039Y-15733984D02*
X10943991Y-15724460D01*
X10943991Y-15724460D02*
X10934467Y-15714936D01*
X10934467Y-15714936D02*
X10924944Y-15695888D01*
X10924944Y-15695888D02*
X10915420Y-15657793D01*
X10915420Y-15657793D02*
X10915420Y-15610174D01*
X10915420Y-15610174D02*
X10924944Y-15572079D01*
X10924944Y-15572079D02*
X10934467Y-15553031D01*
X10934467Y-15553031D02*
X10943991Y-15543508D01*
X10943991Y-15543508D02*
X10963039Y-15533984D01*
X11115420Y-15733984D02*
X11115420Y-15600650D01*
X11115420Y-15619698D02*
X11124944Y-15610174D01*
X11124944Y-15610174D02*
X11143991Y-15600650D01*
X11143991Y-15600650D02*
X11172563Y-15600650D01*
X11172563Y-15600650D02*
X11191610Y-15610174D01*
X11191610Y-15610174D02*
X11201134Y-15629222D01*
X11201134Y-15629222D02*
X11201134Y-15733984D01*
X11201134Y-15629222D02*
X11210658Y-15610174D01*
X11210658Y-15610174D02*
X11229705Y-15600650D01*
X11229705Y-15600650D02*
X11258277Y-15600650D01*
X11258277Y-15600650D02*
X11277324Y-15610174D01*
X11277324Y-15610174D02*
X11286848Y-15629222D01*
X11286848Y-15629222D02*
X11286848Y-15733984D01*
X11382086Y-15733984D02*
X11382086Y-15600650D01*
X11382086Y-15619698D02*
X11391610Y-15610174D01*
X11391610Y-15610174D02*
X11410658Y-15600650D01*
X11410658Y-15600650D02*
X11439229Y-15600650D01*
X11439229Y-15600650D02*
X11458277Y-15610174D01*
X11458277Y-15610174D02*
X11467801Y-15629222D01*
X11467801Y-15629222D02*
X11467801Y-15733984D01*
X11467801Y-15629222D02*
X11477324Y-15610174D01*
X11477324Y-15610174D02*
X11496372Y-15600650D01*
X11496372Y-15600650D02*
X11524943Y-15600650D01*
X11524943Y-15600650D02*
X11543991Y-15610174D01*
X11543991Y-15610174D02*
X11553515Y-15629222D01*
X11553515Y-15629222D02*
X11553515Y-15733984D01*
X11943991Y-15524460D02*
X11772563Y-15781603D01*
X12201134Y-15533984D02*
X12220182Y-15533984D01*
X12220182Y-15533984D02*
X12239229Y-15543508D01*
X12239229Y-15543508D02*
X12248753Y-15553031D01*
X12248753Y-15553031D02*
X12258277Y-15572079D01*
X12258277Y-15572079D02*
X12267801Y-15610174D01*
X12267801Y-15610174D02*
X12267801Y-15657793D01*
X12267801Y-15657793D02*
X12258277Y-15695888D01*
X12258277Y-15695888D02*
X12248753Y-15714936D01*
X12248753Y-15714936D02*
X12239229Y-15724460D01*
X12239229Y-15724460D02*
X12220182Y-15733984D01*
X12220182Y-15733984D02*
X12201134Y-15733984D01*
X12201134Y-15733984D02*
X12182086Y-15724460D01*
X12182086Y-15724460D02*
X12172563Y-15714936D01*
X12172563Y-15714936D02*
X12163039Y-15695888D01*
X12163039Y-15695888D02*
X12153515Y-15657793D01*
X12153515Y-15657793D02*
X12153515Y-15610174D01*
X12153515Y-15610174D02*
X12163039Y-15572079D01*
X12163039Y-15572079D02*
X12172563Y-15553031D01*
X12172563Y-15553031D02*
X12182086Y-15543508D01*
X12182086Y-15543508D02*
X12201134Y-15533984D01*
X12353515Y-15714936D02*
X12363039Y-15724460D01*
X12363039Y-15724460D02*
X12353515Y-15733984D01*
X12353515Y-15733984D02*
X12343991Y-15724460D01*
X12343991Y-15724460D02*
X12353515Y-15714936D01*
X12353515Y-15714936D02*
X12353515Y-15733984D01*
X12486848Y-15533984D02*
X12505896Y-15533984D01*
X12505896Y-15533984D02*
X12524944Y-15543508D01*
X12524944Y-15543508D02*
X12534467Y-15553031D01*
X12534467Y-15553031D02*
X12543991Y-15572079D01*
X12543991Y-15572079D02*
X12553515Y-15610174D01*
X12553515Y-15610174D02*
X12553515Y-15657793D01*
X12553515Y-15657793D02*
X12543991Y-15695888D01*
X12543991Y-15695888D02*
X12534467Y-15714936D01*
X12534467Y-15714936D02*
X12524944Y-15724460D01*
X12524944Y-15724460D02*
X12505896Y-15733984D01*
X12505896Y-15733984D02*
X12486848Y-15733984D01*
X12486848Y-15733984D02*
X12467801Y-15724460D01*
X12467801Y-15724460D02*
X12458277Y-15714936D01*
X12458277Y-15714936D02*
X12448753Y-15695888D01*
X12448753Y-15695888D02*
X12439229Y-15657793D01*
X12439229Y-15657793D02*
X12439229Y-15610174D01*
X12439229Y-15610174D02*
X12448753Y-15572079D01*
X12448753Y-15572079D02*
X12458277Y-15553031D01*
X12458277Y-15553031D02*
X12467801Y-15543508D01*
X12467801Y-15543508D02*
X12486848Y-15533984D01*
X12743991Y-15733984D02*
X12629706Y-15733984D01*
X12686848Y-15733984D02*
X12686848Y-15533984D01*
X12686848Y-15533984D02*
X12667801Y-15562555D01*
X12667801Y-15562555D02*
X12648753Y-15581603D01*
X12648753Y-15581603D02*
X12629706Y-15591127D01*
X12924944Y-15533984D02*
X12829706Y-15533984D01*
X12829706Y-15533984D02*
X12820182Y-15629222D01*
X12820182Y-15629222D02*
X12829706Y-15619698D01*
X12829706Y-15619698D02*
X12848753Y-15610174D01*
X12848753Y-15610174D02*
X12896372Y-15610174D01*
X12896372Y-15610174D02*
X12915420Y-15619698D01*
X12915420Y-15619698D02*
X12924944Y-15629222D01*
X12924944Y-15629222D02*
X12934467Y-15648269D01*
X12934467Y-15648269D02*
X12934467Y-15695888D01*
X12934467Y-15695888D02*
X12924944Y-15714936D01*
X12924944Y-15714936D02*
X12915420Y-15724460D01*
X12915420Y-15724460D02*
X12896372Y-15733984D01*
X12896372Y-15733984D02*
X12848753Y-15733984D01*
X12848753Y-15733984D02*
X12829706Y-15724460D01*
X12829706Y-15724460D02*
X12820182Y-15714936D01*
X13001134Y-15533984D02*
X13134467Y-15533984D01*
X13134467Y-15533984D02*
X13048753Y-15733984D01*
X13201134Y-15533984D02*
X13201134Y-15572079D01*
X13277325Y-15533984D02*
X13277325Y-15572079D01*
X13572563Y-15810174D02*
X13563039Y-15800650D01*
X13563039Y-15800650D02*
X13543991Y-15772079D01*
X13543991Y-15772079D02*
X13534468Y-15753031D01*
X13534468Y-15753031D02*
X13524944Y-15724460D01*
X13524944Y-15724460D02*
X13515420Y-15676841D01*
X13515420Y-15676841D02*
X13515420Y-15638746D01*
X13515420Y-15638746D02*
X13524944Y-15591127D01*
X13524944Y-15591127D02*
X13534468Y-15562555D01*
X13534468Y-15562555D02*
X13543991Y-15543508D01*
X13543991Y-15543508D02*
X13563039Y-15514936D01*
X13563039Y-15514936D02*
X13572563Y-15505412D01*
X13639229Y-15553031D02*
X13648753Y-15543508D01*
X13648753Y-15543508D02*
X13667801Y-15533984D01*
X13667801Y-15533984D02*
X13715420Y-15533984D01*
X13715420Y-15533984D02*
X13734468Y-15543508D01*
X13734468Y-15543508D02*
X13743991Y-15553031D01*
X13743991Y-15553031D02*
X13753515Y-15572079D01*
X13753515Y-15572079D02*
X13753515Y-15591127D01*
X13753515Y-15591127D02*
X13743991Y-15619698D01*
X13743991Y-15619698D02*
X13629706Y-15733984D01*
X13629706Y-15733984D02*
X13753515Y-15733984D01*
X13934468Y-15533984D02*
X13839229Y-15533984D01*
X13839229Y-15533984D02*
X13829706Y-15629222D01*
X13829706Y-15629222D02*
X13839229Y-15619698D01*
X13839229Y-15619698D02*
X13858277Y-15610174D01*
X13858277Y-15610174D02*
X13905896Y-15610174D01*
X13905896Y-15610174D02*
X13924944Y-15619698D01*
X13924944Y-15619698D02*
X13934468Y-15629222D01*
X13934468Y-15629222D02*
X13943991Y-15648269D01*
X13943991Y-15648269D02*
X13943991Y-15695888D01*
X13943991Y-15695888D02*
X13934468Y-15714936D01*
X13934468Y-15714936D02*
X13924944Y-15724460D01*
X13924944Y-15724460D02*
X13905896Y-15733984D01*
X13905896Y-15733984D02*
X13858277Y-15733984D01*
X13858277Y-15733984D02*
X13839229Y-15724460D01*
X13839229Y-15724460D02*
X13829706Y-15714936D01*
X14115420Y-15600650D02*
X14115420Y-15733984D01*
X14067801Y-15524460D02*
X14020182Y-15667317D01*
X14020182Y-15667317D02*
X14143991Y-15667317D01*
X14372563Y-15733984D02*
X14372563Y-15533984D01*
X14458277Y-15733984D02*
X14458277Y-15629222D01*
X14458277Y-15629222D02*
X14448753Y-15610174D01*
X14448753Y-15610174D02*
X14429706Y-15600650D01*
X14429706Y-15600650D02*
X14401134Y-15600650D01*
X14401134Y-15600650D02*
X14382087Y-15610174D01*
X14382087Y-15610174D02*
X14372563Y-15619698D01*
X14582087Y-15733984D02*
X14563039Y-15724460D01*
X14563039Y-15724460D02*
X14553515Y-15714936D01*
X14553515Y-15714936D02*
X14543991Y-15695888D01*
X14543991Y-15695888D02*
X14543991Y-15638746D01*
X14543991Y-15638746D02*
X14553515Y-15619698D01*
X14553515Y-15619698D02*
X14563039Y-15610174D01*
X14563039Y-15610174D02*
X14582087Y-15600650D01*
X14582087Y-15600650D02*
X14610658Y-15600650D01*
X14610658Y-15600650D02*
X14629706Y-15610174D01*
X14629706Y-15610174D02*
X14639230Y-15619698D01*
X14639230Y-15619698D02*
X14648753Y-15638746D01*
X14648753Y-15638746D02*
X14648753Y-15695888D01*
X14648753Y-15695888D02*
X14639230Y-15714936D01*
X14639230Y-15714936D02*
X14629706Y-15724460D01*
X14629706Y-15724460D02*
X14610658Y-15733984D01*
X14610658Y-15733984D02*
X14582087Y-15733984D01*
X14763039Y-15733984D02*
X14743991Y-15724460D01*
X14743991Y-15724460D02*
X14734468Y-15705412D01*
X14734468Y-15705412D02*
X14734468Y-15533984D01*
X14915420Y-15724460D02*
X14896372Y-15733984D01*
X14896372Y-15733984D02*
X14858277Y-15733984D01*
X14858277Y-15733984D02*
X14839230Y-15724460D01*
X14839230Y-15724460D02*
X14829706Y-15705412D01*
X14829706Y-15705412D02*
X14829706Y-15629222D01*
X14829706Y-15629222D02*
X14839230Y-15610174D01*
X14839230Y-15610174D02*
X14858277Y-15600650D01*
X14858277Y-15600650D02*
X14896372Y-15600650D01*
X14896372Y-15600650D02*
X14915420Y-15610174D01*
X14915420Y-15610174D02*
X14924944Y-15629222D01*
X14924944Y-15629222D02*
X14924944Y-15648269D01*
X14924944Y-15648269D02*
X14829706Y-15667317D01*
X15001134Y-15724460D02*
X15020182Y-15733984D01*
X15020182Y-15733984D02*
X15058277Y-15733984D01*
X15058277Y-15733984D02*
X15077325Y-15724460D01*
X15077325Y-15724460D02*
X15086849Y-15705412D01*
X15086849Y-15705412D02*
X15086849Y-15695888D01*
X15086849Y-15695888D02*
X15077325Y-15676841D01*
X15077325Y-15676841D02*
X15058277Y-15667317D01*
X15058277Y-15667317D02*
X15029706Y-15667317D01*
X15029706Y-15667317D02*
X15010658Y-15657793D01*
X15010658Y-15657793D02*
X15001134Y-15638746D01*
X15001134Y-15638746D02*
X15001134Y-15629222D01*
X15001134Y-15629222D02*
X15010658Y-15610174D01*
X15010658Y-15610174D02*
X15029706Y-15600650D01*
X15029706Y-15600650D02*
X15058277Y-15600650D01*
X15058277Y-15600650D02*
X15077325Y-15610174D01*
X15153515Y-15810174D02*
X15163039Y-15800650D01*
X15163039Y-15800650D02*
X15182087Y-15772079D01*
X15182087Y-15772079D02*
X15191611Y-15753031D01*
X15191611Y-15753031D02*
X15201134Y-15724460D01*
X15201134Y-15724460D02*
X15210658Y-15676841D01*
X15210658Y-15676841D02*
X15210658Y-15638746D01*
X15210658Y-15638746D02*
X15201134Y-15591127D01*
X15201134Y-15591127D02*
X15191611Y-15562555D01*
X15191611Y-15562555D02*
X15182087Y-15543508D01*
X15182087Y-15543508D02*
X15163039Y-15514936D01*
X15163039Y-15514936D02*
X15153515Y-15505412D01*
D12*
X9997500Y-15906500D02*
G75*
G02*
X9897500Y-15906500I-50000J0D01*
G01*
X9897500Y-15906500D02*
G75*
G02*
X9997500Y-15906500I50000J0D01*
G01*
D11*
X10363039Y-15997984D02*
X10248753Y-15997984D01*
X10305896Y-15997984D02*
X10305896Y-15797984D01*
X10305896Y-15797984D02*
X10286848Y-15826555D01*
X10286848Y-15826555D02*
X10267801Y-15845603D01*
X10267801Y-15845603D02*
X10248753Y-15855127D01*
X10448753Y-15978936D02*
X10458277Y-15988460D01*
X10458277Y-15988460D02*
X10448753Y-15997984D01*
X10448753Y-15997984D02*
X10439229Y-15988460D01*
X10439229Y-15988460D02*
X10448753Y-15978936D01*
X10448753Y-15978936D02*
X10448753Y-15997984D01*
X10582086Y-15797984D02*
X10601134Y-15797984D01*
X10601134Y-15797984D02*
X10620182Y-15807508D01*
X10620182Y-15807508D02*
X10629705Y-15817031D01*
X10629705Y-15817031D02*
X10639229Y-15836079D01*
X10639229Y-15836079D02*
X10648753Y-15874174D01*
X10648753Y-15874174D02*
X10648753Y-15921793D01*
X10648753Y-15921793D02*
X10639229Y-15959888D01*
X10639229Y-15959888D02*
X10629705Y-15978936D01*
X10629705Y-15978936D02*
X10620182Y-15988460D01*
X10620182Y-15988460D02*
X10601134Y-15997984D01*
X10601134Y-15997984D02*
X10582086Y-15997984D01*
X10582086Y-15997984D02*
X10563039Y-15988460D01*
X10563039Y-15988460D02*
X10553515Y-15978936D01*
X10553515Y-15978936D02*
X10543991Y-15959888D01*
X10543991Y-15959888D02*
X10534467Y-15921793D01*
X10534467Y-15921793D02*
X10534467Y-15874174D01*
X10534467Y-15874174D02*
X10543991Y-15836079D01*
X10543991Y-15836079D02*
X10553515Y-15817031D01*
X10553515Y-15817031D02*
X10563039Y-15807508D01*
X10563039Y-15807508D02*
X10582086Y-15797984D01*
X10772563Y-15797984D02*
X10791610Y-15797984D01*
X10791610Y-15797984D02*
X10810658Y-15807508D01*
X10810658Y-15807508D02*
X10820182Y-15817031D01*
X10820182Y-15817031D02*
X10829705Y-15836079D01*
X10829705Y-15836079D02*
X10839229Y-15874174D01*
X10839229Y-15874174D02*
X10839229Y-15921793D01*
X10839229Y-15921793D02*
X10829705Y-15959888D01*
X10829705Y-15959888D02*
X10820182Y-15978936D01*
X10820182Y-15978936D02*
X10810658Y-15988460D01*
X10810658Y-15988460D02*
X10791610Y-15997984D01*
X10791610Y-15997984D02*
X10772563Y-15997984D01*
X10772563Y-15997984D02*
X10753515Y-15988460D01*
X10753515Y-15988460D02*
X10743991Y-15978936D01*
X10743991Y-15978936D02*
X10734467Y-15959888D01*
X10734467Y-15959888D02*
X10724944Y-15921793D01*
X10724944Y-15921793D02*
X10724944Y-15874174D01*
X10724944Y-15874174D02*
X10734467Y-15836079D01*
X10734467Y-15836079D02*
X10743991Y-15817031D01*
X10743991Y-15817031D02*
X10753515Y-15807508D01*
X10753515Y-15807508D02*
X10772563Y-15797984D01*
X10963039Y-15797984D02*
X10982086Y-15797984D01*
X10982086Y-15797984D02*
X11001134Y-15807508D01*
X11001134Y-15807508D02*
X11010658Y-15817031D01*
X11010658Y-15817031D02*
X11020182Y-15836079D01*
X11020182Y-15836079D02*
X11029705Y-15874174D01*
X11029705Y-15874174D02*
X11029705Y-15921793D01*
X11029705Y-15921793D02*
X11020182Y-15959888D01*
X11020182Y-15959888D02*
X11010658Y-15978936D01*
X11010658Y-15978936D02*
X11001134Y-15988460D01*
X11001134Y-15988460D02*
X10982086Y-15997984D01*
X10982086Y-15997984D02*
X10963039Y-15997984D01*
X10963039Y-15997984D02*
X10943991Y-15988460D01*
X10943991Y-15988460D02*
X10934467Y-15978936D01*
X10934467Y-15978936D02*
X10924944Y-15959888D01*
X10924944Y-15959888D02*
X10915420Y-15921793D01*
X10915420Y-15921793D02*
X10915420Y-15874174D01*
X10915420Y-15874174D02*
X10924944Y-15836079D01*
X10924944Y-15836079D02*
X10934467Y-15817031D01*
X10934467Y-15817031D02*
X10943991Y-15807508D01*
X10943991Y-15807508D02*
X10963039Y-15797984D01*
X11115420Y-15997984D02*
X11115420Y-15864650D01*
X11115420Y-15883698D02*
X11124944Y-15874174D01*
X11124944Y-15874174D02*
X11143991Y-15864650D01*
X11143991Y-15864650D02*
X11172563Y-15864650D01*
X11172563Y-15864650D02*
X11191610Y-15874174D01*
X11191610Y-15874174D02*
X11201134Y-15893222D01*
X11201134Y-15893222D02*
X11201134Y-15997984D01*
X11201134Y-15893222D02*
X11210658Y-15874174D01*
X11210658Y-15874174D02*
X11229705Y-15864650D01*
X11229705Y-15864650D02*
X11258277Y-15864650D01*
X11258277Y-15864650D02*
X11277324Y-15874174D01*
X11277324Y-15874174D02*
X11286848Y-15893222D01*
X11286848Y-15893222D02*
X11286848Y-15997984D01*
X11382086Y-15997984D02*
X11382086Y-15864650D01*
X11382086Y-15883698D02*
X11391610Y-15874174D01*
X11391610Y-15874174D02*
X11410658Y-15864650D01*
X11410658Y-15864650D02*
X11439229Y-15864650D01*
X11439229Y-15864650D02*
X11458277Y-15874174D01*
X11458277Y-15874174D02*
X11467801Y-15893222D01*
X11467801Y-15893222D02*
X11467801Y-15997984D01*
X11467801Y-15893222D02*
X11477324Y-15874174D01*
X11477324Y-15874174D02*
X11496372Y-15864650D01*
X11496372Y-15864650D02*
X11524943Y-15864650D01*
X11524943Y-15864650D02*
X11543991Y-15874174D01*
X11543991Y-15874174D02*
X11553515Y-15893222D01*
X11553515Y-15893222D02*
X11553515Y-15997984D01*
X11943991Y-15788460D02*
X11772563Y-16045603D01*
X12201134Y-15797984D02*
X12220182Y-15797984D01*
X12220182Y-15797984D02*
X12239229Y-15807508D01*
X12239229Y-15807508D02*
X12248753Y-15817031D01*
X12248753Y-15817031D02*
X12258277Y-15836079D01*
X12258277Y-15836079D02*
X12267801Y-15874174D01*
X12267801Y-15874174D02*
X12267801Y-15921793D01*
X12267801Y-15921793D02*
X12258277Y-15959888D01*
X12258277Y-15959888D02*
X12248753Y-15978936D01*
X12248753Y-15978936D02*
X12239229Y-15988460D01*
X12239229Y-15988460D02*
X12220182Y-15997984D01*
X12220182Y-15997984D02*
X12201134Y-15997984D01*
X12201134Y-15997984D02*
X12182086Y-15988460D01*
X12182086Y-15988460D02*
X12172563Y-15978936D01*
X12172563Y-15978936D02*
X12163039Y-15959888D01*
X12163039Y-15959888D02*
X12153515Y-15921793D01*
X12153515Y-15921793D02*
X12153515Y-15874174D01*
X12153515Y-15874174D02*
X12163039Y-15836079D01*
X12163039Y-15836079D02*
X12172563Y-15817031D01*
X12172563Y-15817031D02*
X12182086Y-15807508D01*
X12182086Y-15807508D02*
X12201134Y-15797984D01*
X12353515Y-15978936D02*
X12363039Y-15988460D01*
X12363039Y-15988460D02*
X12353515Y-15997984D01*
X12353515Y-15997984D02*
X12343991Y-15988460D01*
X12343991Y-15988460D02*
X12353515Y-15978936D01*
X12353515Y-15978936D02*
X12353515Y-15997984D01*
X12486848Y-15797984D02*
X12505896Y-15797984D01*
X12505896Y-15797984D02*
X12524944Y-15807508D01*
X12524944Y-15807508D02*
X12534467Y-15817031D01*
X12534467Y-15817031D02*
X12543991Y-15836079D01*
X12543991Y-15836079D02*
X12553515Y-15874174D01*
X12553515Y-15874174D02*
X12553515Y-15921793D01*
X12553515Y-15921793D02*
X12543991Y-15959888D01*
X12543991Y-15959888D02*
X12534467Y-15978936D01*
X12534467Y-15978936D02*
X12524944Y-15988460D01*
X12524944Y-15988460D02*
X12505896Y-15997984D01*
X12505896Y-15997984D02*
X12486848Y-15997984D01*
X12486848Y-15997984D02*
X12467801Y-15988460D01*
X12467801Y-15988460D02*
X12458277Y-15978936D01*
X12458277Y-15978936D02*
X12448753Y-15959888D01*
X12448753Y-15959888D02*
X12439229Y-15921793D01*
X12439229Y-15921793D02*
X12439229Y-15874174D01*
X12439229Y-15874174D02*
X12448753Y-15836079D01*
X12448753Y-15836079D02*
X12458277Y-15817031D01*
X12458277Y-15817031D02*
X12467801Y-15807508D01*
X12467801Y-15807508D02*
X12486848Y-15797984D01*
X12620182Y-15797984D02*
X12743991Y-15797984D01*
X12743991Y-15797984D02*
X12677325Y-15874174D01*
X12677325Y-15874174D02*
X12705896Y-15874174D01*
X12705896Y-15874174D02*
X12724944Y-15883698D01*
X12724944Y-15883698D02*
X12734467Y-15893222D01*
X12734467Y-15893222D02*
X12743991Y-15912269D01*
X12743991Y-15912269D02*
X12743991Y-15959888D01*
X12743991Y-15959888D02*
X12734467Y-15978936D01*
X12734467Y-15978936D02*
X12724944Y-15988460D01*
X12724944Y-15988460D02*
X12705896Y-15997984D01*
X12705896Y-15997984D02*
X12648753Y-15997984D01*
X12648753Y-15997984D02*
X12629706Y-15988460D01*
X12629706Y-15988460D02*
X12620182Y-15978936D01*
X12839229Y-15997984D02*
X12877325Y-15997984D01*
X12877325Y-15997984D02*
X12896372Y-15988460D01*
X12896372Y-15988460D02*
X12905896Y-15978936D01*
X12905896Y-15978936D02*
X12924944Y-15950365D01*
X12924944Y-15950365D02*
X12934467Y-15912269D01*
X12934467Y-15912269D02*
X12934467Y-15836079D01*
X12934467Y-15836079D02*
X12924944Y-15817031D01*
X12924944Y-15817031D02*
X12915420Y-15807508D01*
X12915420Y-15807508D02*
X12896372Y-15797984D01*
X12896372Y-15797984D02*
X12858277Y-15797984D01*
X12858277Y-15797984D02*
X12839229Y-15807508D01*
X12839229Y-15807508D02*
X12829706Y-15817031D01*
X12829706Y-15817031D02*
X12820182Y-15836079D01*
X12820182Y-15836079D02*
X12820182Y-15883698D01*
X12820182Y-15883698D02*
X12829706Y-15902746D01*
X12829706Y-15902746D02*
X12839229Y-15912269D01*
X12839229Y-15912269D02*
X12858277Y-15921793D01*
X12858277Y-15921793D02*
X12896372Y-15921793D01*
X12896372Y-15921793D02*
X12915420Y-15912269D01*
X12915420Y-15912269D02*
X12924944Y-15902746D01*
X12924944Y-15902746D02*
X12934467Y-15883698D01*
X13105896Y-15864650D02*
X13105896Y-15997984D01*
X13058277Y-15788460D02*
X13010658Y-15931317D01*
X13010658Y-15931317D02*
X13134467Y-15931317D01*
X13201134Y-15797984D02*
X13201134Y-15836079D01*
X13277325Y-15797984D02*
X13277325Y-15836079D01*
X13572563Y-16074174D02*
X13563039Y-16064650D01*
X13563039Y-16064650D02*
X13543991Y-16036079D01*
X13543991Y-16036079D02*
X13534468Y-16017031D01*
X13534468Y-16017031D02*
X13524944Y-15988460D01*
X13524944Y-15988460D02*
X13515420Y-15940841D01*
X13515420Y-15940841D02*
X13515420Y-15902746D01*
X13515420Y-15902746D02*
X13524944Y-15855127D01*
X13524944Y-15855127D02*
X13534468Y-15826555D01*
X13534468Y-15826555D02*
X13543991Y-15807508D01*
X13543991Y-15807508D02*
X13563039Y-15778936D01*
X13563039Y-15778936D02*
X13572563Y-15769412D01*
X13677325Y-15883698D02*
X13658277Y-15874174D01*
X13658277Y-15874174D02*
X13648753Y-15864650D01*
X13648753Y-15864650D02*
X13639229Y-15845603D01*
X13639229Y-15845603D02*
X13639229Y-15836079D01*
X13639229Y-15836079D02*
X13648753Y-15817031D01*
X13648753Y-15817031D02*
X13658277Y-15807508D01*
X13658277Y-15807508D02*
X13677325Y-15797984D01*
X13677325Y-15797984D02*
X13715420Y-15797984D01*
X13715420Y-15797984D02*
X13734468Y-15807508D01*
X13734468Y-15807508D02*
X13743991Y-15817031D01*
X13743991Y-15817031D02*
X13753515Y-15836079D01*
X13753515Y-15836079D02*
X13753515Y-15845603D01*
X13753515Y-15845603D02*
X13743991Y-15864650D01*
X13743991Y-15864650D02*
X13734468Y-15874174D01*
X13734468Y-15874174D02*
X13715420Y-15883698D01*
X13715420Y-15883698D02*
X13677325Y-15883698D01*
X13677325Y-15883698D02*
X13658277Y-15893222D01*
X13658277Y-15893222D02*
X13648753Y-15902746D01*
X13648753Y-15902746D02*
X13639229Y-15921793D01*
X13639229Y-15921793D02*
X13639229Y-15959888D01*
X13639229Y-15959888D02*
X13648753Y-15978936D01*
X13648753Y-15978936D02*
X13658277Y-15988460D01*
X13658277Y-15988460D02*
X13677325Y-15997984D01*
X13677325Y-15997984D02*
X13715420Y-15997984D01*
X13715420Y-15997984D02*
X13734468Y-15988460D01*
X13734468Y-15988460D02*
X13743991Y-15978936D01*
X13743991Y-15978936D02*
X13753515Y-15959888D01*
X13753515Y-15959888D02*
X13753515Y-15921793D01*
X13753515Y-15921793D02*
X13743991Y-15902746D01*
X13743991Y-15902746D02*
X13734468Y-15893222D01*
X13734468Y-15893222D02*
X13715420Y-15883698D01*
X13934468Y-15797984D02*
X13839229Y-15797984D01*
X13839229Y-15797984D02*
X13829706Y-15893222D01*
X13829706Y-15893222D02*
X13839229Y-15883698D01*
X13839229Y-15883698D02*
X13858277Y-15874174D01*
X13858277Y-15874174D02*
X13905896Y-15874174D01*
X13905896Y-15874174D02*
X13924944Y-15883698D01*
X13924944Y-15883698D02*
X13934468Y-15893222D01*
X13934468Y-15893222D02*
X13943991Y-15912269D01*
X13943991Y-15912269D02*
X13943991Y-15959888D01*
X13943991Y-15959888D02*
X13934468Y-15978936D01*
X13934468Y-15978936D02*
X13924944Y-15988460D01*
X13924944Y-15988460D02*
X13905896Y-15997984D01*
X13905896Y-15997984D02*
X13858277Y-15997984D01*
X13858277Y-15997984D02*
X13839229Y-15988460D01*
X13839229Y-15988460D02*
X13829706Y-15978936D01*
X14182087Y-15997984D02*
X14182087Y-15797984D01*
X14267801Y-15997984D02*
X14267801Y-15893222D01*
X14267801Y-15893222D02*
X14258277Y-15874174D01*
X14258277Y-15874174D02*
X14239230Y-15864650D01*
X14239230Y-15864650D02*
X14210658Y-15864650D01*
X14210658Y-15864650D02*
X14191610Y-15874174D01*
X14191610Y-15874174D02*
X14182087Y-15883698D01*
X14391610Y-15997984D02*
X14372563Y-15988460D01*
X14372563Y-15988460D02*
X14363039Y-15978936D01*
X14363039Y-15978936D02*
X14353515Y-15959888D01*
X14353515Y-15959888D02*
X14353515Y-15902746D01*
X14353515Y-15902746D02*
X14363039Y-15883698D01*
X14363039Y-15883698D02*
X14372563Y-15874174D01*
X14372563Y-15874174D02*
X14391610Y-15864650D01*
X14391610Y-15864650D02*
X14420182Y-15864650D01*
X14420182Y-15864650D02*
X14439230Y-15874174D01*
X14439230Y-15874174D02*
X14448753Y-15883698D01*
X14448753Y-15883698D02*
X14458277Y-15902746D01*
X14458277Y-15902746D02*
X14458277Y-15959888D01*
X14458277Y-15959888D02*
X14448753Y-15978936D01*
X14448753Y-15978936D02*
X14439230Y-15988460D01*
X14439230Y-15988460D02*
X14420182Y-15997984D01*
X14420182Y-15997984D02*
X14391610Y-15997984D01*
X14572563Y-15997984D02*
X14553515Y-15988460D01*
X14553515Y-15988460D02*
X14543991Y-15969412D01*
X14543991Y-15969412D02*
X14543991Y-15797984D01*
X14724944Y-15988460D02*
X14705896Y-15997984D01*
X14705896Y-15997984D02*
X14667801Y-15997984D01*
X14667801Y-15997984D02*
X14648753Y-15988460D01*
X14648753Y-15988460D02*
X14639230Y-15969412D01*
X14639230Y-15969412D02*
X14639230Y-15893222D01*
X14639230Y-15893222D02*
X14648753Y-15874174D01*
X14648753Y-15874174D02*
X14667801Y-15864650D01*
X14667801Y-15864650D02*
X14705896Y-15864650D01*
X14705896Y-15864650D02*
X14724944Y-15874174D01*
X14724944Y-15874174D02*
X14734468Y-15893222D01*
X14734468Y-15893222D02*
X14734468Y-15912269D01*
X14734468Y-15912269D02*
X14639230Y-15931317D01*
X14810658Y-15988460D02*
X14829706Y-15997984D01*
X14829706Y-15997984D02*
X14867801Y-15997984D01*
X14867801Y-15997984D02*
X14886849Y-15988460D01*
X14886849Y-15988460D02*
X14896372Y-15969412D01*
X14896372Y-15969412D02*
X14896372Y-15959888D01*
X14896372Y-15959888D02*
X14886849Y-15940841D01*
X14886849Y-15940841D02*
X14867801Y-15931317D01*
X14867801Y-15931317D02*
X14839230Y-15931317D01*
X14839230Y-15931317D02*
X14820182Y-15921793D01*
X14820182Y-15921793D02*
X14810658Y-15902746D01*
X14810658Y-15902746D02*
X14810658Y-15893222D01*
X14810658Y-15893222D02*
X14820182Y-15874174D01*
X14820182Y-15874174D02*
X14839230Y-15864650D01*
X14839230Y-15864650D02*
X14867801Y-15864650D01*
X14867801Y-15864650D02*
X14886849Y-15874174D01*
X14963039Y-16074174D02*
X14972563Y-16064650D01*
X14972563Y-16064650D02*
X14991611Y-16036079D01*
X14991611Y-16036079D02*
X15001134Y-16017031D01*
X15001134Y-16017031D02*
X15010658Y-15988460D01*
X15010658Y-15988460D02*
X15020182Y-15940841D01*
X15020182Y-15940841D02*
X15020182Y-15902746D01*
X15020182Y-15902746D02*
X15010658Y-15855127D01*
X15010658Y-15855127D02*
X15001134Y-15826555D01*
X15001134Y-15826555D02*
X14991611Y-15807508D01*
X14991611Y-15807508D02*
X14972563Y-15778936D01*
X14972563Y-15778936D02*
X14963039Y-15769412D01*
X9897500Y-16070500D02*
X9897500Y-16270500D01*
X9797500Y-16170500D02*
X9997500Y-16170500D01*
X10239229Y-16061984D02*
X10363039Y-16061984D01*
X10363039Y-16061984D02*
X10296372Y-16138174D01*
X10296372Y-16138174D02*
X10324944Y-16138174D01*
X10324944Y-16138174D02*
X10343991Y-16147698D01*
X10343991Y-16147698D02*
X10353515Y-16157222D01*
X10353515Y-16157222D02*
X10363039Y-16176269D01*
X10363039Y-16176269D02*
X10363039Y-16223888D01*
X10363039Y-16223888D02*
X10353515Y-16242936D01*
X10353515Y-16242936D02*
X10343991Y-16252460D01*
X10343991Y-16252460D02*
X10324944Y-16261984D01*
X10324944Y-16261984D02*
X10267801Y-16261984D01*
X10267801Y-16261984D02*
X10248753Y-16252460D01*
X10248753Y-16252460D02*
X10239229Y-16242936D01*
X10448753Y-16242936D02*
X10458277Y-16252460D01*
X10458277Y-16252460D02*
X10448753Y-16261984D01*
X10448753Y-16261984D02*
X10439229Y-16252460D01*
X10439229Y-16252460D02*
X10448753Y-16242936D01*
X10448753Y-16242936D02*
X10448753Y-16261984D01*
X10534467Y-16081031D02*
X10543991Y-16071508D01*
X10543991Y-16071508D02*
X10563039Y-16061984D01*
X10563039Y-16061984D02*
X10610658Y-16061984D01*
X10610658Y-16061984D02*
X10629705Y-16071508D01*
X10629705Y-16071508D02*
X10639229Y-16081031D01*
X10639229Y-16081031D02*
X10648753Y-16100079D01*
X10648753Y-16100079D02*
X10648753Y-16119127D01*
X10648753Y-16119127D02*
X10639229Y-16147698D01*
X10639229Y-16147698D02*
X10524944Y-16261984D01*
X10524944Y-16261984D02*
X10648753Y-16261984D01*
X10772563Y-16061984D02*
X10791610Y-16061984D01*
X10791610Y-16061984D02*
X10810658Y-16071508D01*
X10810658Y-16071508D02*
X10820182Y-16081031D01*
X10820182Y-16081031D02*
X10829705Y-16100079D01*
X10829705Y-16100079D02*
X10839229Y-16138174D01*
X10839229Y-16138174D02*
X10839229Y-16185793D01*
X10839229Y-16185793D02*
X10829705Y-16223888D01*
X10829705Y-16223888D02*
X10820182Y-16242936D01*
X10820182Y-16242936D02*
X10810658Y-16252460D01*
X10810658Y-16252460D02*
X10791610Y-16261984D01*
X10791610Y-16261984D02*
X10772563Y-16261984D01*
X10772563Y-16261984D02*
X10753515Y-16252460D01*
X10753515Y-16252460D02*
X10743991Y-16242936D01*
X10743991Y-16242936D02*
X10734467Y-16223888D01*
X10734467Y-16223888D02*
X10724944Y-16185793D01*
X10724944Y-16185793D02*
X10724944Y-16138174D01*
X10724944Y-16138174D02*
X10734467Y-16100079D01*
X10734467Y-16100079D02*
X10743991Y-16081031D01*
X10743991Y-16081031D02*
X10753515Y-16071508D01*
X10753515Y-16071508D02*
X10772563Y-16061984D01*
X10963039Y-16061984D02*
X10982086Y-16061984D01*
X10982086Y-16061984D02*
X11001134Y-16071508D01*
X11001134Y-16071508D02*
X11010658Y-16081031D01*
X11010658Y-16081031D02*
X11020182Y-16100079D01*
X11020182Y-16100079D02*
X11029705Y-16138174D01*
X11029705Y-16138174D02*
X11029705Y-16185793D01*
X11029705Y-16185793D02*
X11020182Y-16223888D01*
X11020182Y-16223888D02*
X11010658Y-16242936D01*
X11010658Y-16242936D02*
X11001134Y-16252460D01*
X11001134Y-16252460D02*
X10982086Y-16261984D01*
X10982086Y-16261984D02*
X10963039Y-16261984D01*
X10963039Y-16261984D02*
X10943991Y-16252460D01*
X10943991Y-16252460D02*
X10934467Y-16242936D01*
X10934467Y-16242936D02*
X10924944Y-16223888D01*
X10924944Y-16223888D02*
X10915420Y-16185793D01*
X10915420Y-16185793D02*
X10915420Y-16138174D01*
X10915420Y-16138174D02*
X10924944Y-16100079D01*
X10924944Y-16100079D02*
X10934467Y-16081031D01*
X10934467Y-16081031D02*
X10943991Y-16071508D01*
X10943991Y-16071508D02*
X10963039Y-16061984D01*
X11115420Y-16261984D02*
X11115420Y-16128650D01*
X11115420Y-16147698D02*
X11124944Y-16138174D01*
X11124944Y-16138174D02*
X11143991Y-16128650D01*
X11143991Y-16128650D02*
X11172563Y-16128650D01*
X11172563Y-16128650D02*
X11191610Y-16138174D01*
X11191610Y-16138174D02*
X11201134Y-16157222D01*
X11201134Y-16157222D02*
X11201134Y-16261984D01*
X11201134Y-16157222D02*
X11210658Y-16138174D01*
X11210658Y-16138174D02*
X11229705Y-16128650D01*
X11229705Y-16128650D02*
X11258277Y-16128650D01*
X11258277Y-16128650D02*
X11277324Y-16138174D01*
X11277324Y-16138174D02*
X11286848Y-16157222D01*
X11286848Y-16157222D02*
X11286848Y-16261984D01*
X11382086Y-16261984D02*
X11382086Y-16128650D01*
X11382086Y-16147698D02*
X11391610Y-16138174D01*
X11391610Y-16138174D02*
X11410658Y-16128650D01*
X11410658Y-16128650D02*
X11439229Y-16128650D01*
X11439229Y-16128650D02*
X11458277Y-16138174D01*
X11458277Y-16138174D02*
X11467801Y-16157222D01*
X11467801Y-16157222D02*
X11467801Y-16261984D01*
X11467801Y-16157222D02*
X11477324Y-16138174D01*
X11477324Y-16138174D02*
X11496372Y-16128650D01*
X11496372Y-16128650D02*
X11524943Y-16128650D01*
X11524943Y-16128650D02*
X11543991Y-16138174D01*
X11543991Y-16138174D02*
X11553515Y-16157222D01*
X11553515Y-16157222D02*
X11553515Y-16261984D01*
X11943991Y-16052460D02*
X11772563Y-16309603D01*
X12201134Y-16061984D02*
X12220182Y-16061984D01*
X12220182Y-16061984D02*
X12239229Y-16071508D01*
X12239229Y-16071508D02*
X12248753Y-16081031D01*
X12248753Y-16081031D02*
X12258277Y-16100079D01*
X12258277Y-16100079D02*
X12267801Y-16138174D01*
X12267801Y-16138174D02*
X12267801Y-16185793D01*
X12267801Y-16185793D02*
X12258277Y-16223888D01*
X12258277Y-16223888D02*
X12248753Y-16242936D01*
X12248753Y-16242936D02*
X12239229Y-16252460D01*
X12239229Y-16252460D02*
X12220182Y-16261984D01*
X12220182Y-16261984D02*
X12201134Y-16261984D01*
X12201134Y-16261984D02*
X12182086Y-16252460D01*
X12182086Y-16252460D02*
X12172563Y-16242936D01*
X12172563Y-16242936D02*
X12163039Y-16223888D01*
X12163039Y-16223888D02*
X12153515Y-16185793D01*
X12153515Y-16185793D02*
X12153515Y-16138174D01*
X12153515Y-16138174D02*
X12163039Y-16100079D01*
X12163039Y-16100079D02*
X12172563Y-16081031D01*
X12172563Y-16081031D02*
X12182086Y-16071508D01*
X12182086Y-16071508D02*
X12201134Y-16061984D01*
X12353515Y-16242936D02*
X12363039Y-16252460D01*
X12363039Y-16252460D02*
X12353515Y-16261984D01*
X12353515Y-16261984D02*
X12343991Y-16252460D01*
X12343991Y-16252460D02*
X12353515Y-16242936D01*
X12353515Y-16242936D02*
X12353515Y-16261984D01*
X12553515Y-16261984D02*
X12439229Y-16261984D01*
X12496372Y-16261984D02*
X12496372Y-16061984D01*
X12496372Y-16061984D02*
X12477325Y-16090555D01*
X12477325Y-16090555D02*
X12458277Y-16109603D01*
X12458277Y-16109603D02*
X12439229Y-16119127D01*
X12629706Y-16081031D02*
X12639229Y-16071508D01*
X12639229Y-16071508D02*
X12658277Y-16061984D01*
X12658277Y-16061984D02*
X12705896Y-16061984D01*
X12705896Y-16061984D02*
X12724944Y-16071508D01*
X12724944Y-16071508D02*
X12734467Y-16081031D01*
X12734467Y-16081031D02*
X12743991Y-16100079D01*
X12743991Y-16100079D02*
X12743991Y-16119127D01*
X12743991Y-16119127D02*
X12734467Y-16147698D01*
X12734467Y-16147698D02*
X12620182Y-16261984D01*
X12620182Y-16261984D02*
X12743991Y-16261984D01*
X12915420Y-16061984D02*
X12877325Y-16061984D01*
X12877325Y-16061984D02*
X12858277Y-16071508D01*
X12858277Y-16071508D02*
X12848753Y-16081031D01*
X12848753Y-16081031D02*
X12829706Y-16109603D01*
X12829706Y-16109603D02*
X12820182Y-16147698D01*
X12820182Y-16147698D02*
X12820182Y-16223888D01*
X12820182Y-16223888D02*
X12829706Y-16242936D01*
X12829706Y-16242936D02*
X12839229Y-16252460D01*
X12839229Y-16252460D02*
X12858277Y-16261984D01*
X12858277Y-16261984D02*
X12896372Y-16261984D01*
X12896372Y-16261984D02*
X12915420Y-16252460D01*
X12915420Y-16252460D02*
X12924944Y-16242936D01*
X12924944Y-16242936D02*
X12934467Y-16223888D01*
X12934467Y-16223888D02*
X12934467Y-16176269D01*
X12934467Y-16176269D02*
X12924944Y-16157222D01*
X12924944Y-16157222D02*
X12915420Y-16147698D01*
X12915420Y-16147698D02*
X12896372Y-16138174D01*
X12896372Y-16138174D02*
X12858277Y-16138174D01*
X12858277Y-16138174D02*
X12839229Y-16147698D01*
X12839229Y-16147698D02*
X12829706Y-16157222D01*
X12829706Y-16157222D02*
X12820182Y-16176269D01*
X13058277Y-16061984D02*
X13077325Y-16061984D01*
X13077325Y-16061984D02*
X13096372Y-16071508D01*
X13096372Y-16071508D02*
X13105896Y-16081031D01*
X13105896Y-16081031D02*
X13115420Y-16100079D01*
X13115420Y-16100079D02*
X13124944Y-16138174D01*
X13124944Y-16138174D02*
X13124944Y-16185793D01*
X13124944Y-16185793D02*
X13115420Y-16223888D01*
X13115420Y-16223888D02*
X13105896Y-16242936D01*
X13105896Y-16242936D02*
X13096372Y-16252460D01*
X13096372Y-16252460D02*
X13077325Y-16261984D01*
X13077325Y-16261984D02*
X13058277Y-16261984D01*
X13058277Y-16261984D02*
X13039229Y-16252460D01*
X13039229Y-16252460D02*
X13029706Y-16242936D01*
X13029706Y-16242936D02*
X13020182Y-16223888D01*
X13020182Y-16223888D02*
X13010658Y-16185793D01*
X13010658Y-16185793D02*
X13010658Y-16138174D01*
X13010658Y-16138174D02*
X13020182Y-16100079D01*
X13020182Y-16100079D02*
X13029706Y-16081031D01*
X13029706Y-16081031D02*
X13039229Y-16071508D01*
X13039229Y-16071508D02*
X13058277Y-16061984D01*
X13201134Y-16061984D02*
X13201134Y-16100079D01*
X13277325Y-16061984D02*
X13277325Y-16100079D01*
X13572563Y-16338174D02*
X13563039Y-16328650D01*
X13563039Y-16328650D02*
X13543991Y-16300079D01*
X13543991Y-16300079D02*
X13534468Y-16281031D01*
X13534468Y-16281031D02*
X13524944Y-16252460D01*
X13524944Y-16252460D02*
X13515420Y-16204841D01*
X13515420Y-16204841D02*
X13515420Y-16166746D01*
X13515420Y-16166746D02*
X13524944Y-16119127D01*
X13524944Y-16119127D02*
X13534468Y-16090555D01*
X13534468Y-16090555D02*
X13543991Y-16071508D01*
X13543991Y-16071508D02*
X13563039Y-16042936D01*
X13563039Y-16042936D02*
X13572563Y-16033412D01*
X13639229Y-16081031D02*
X13648753Y-16071508D01*
X13648753Y-16071508D02*
X13667801Y-16061984D01*
X13667801Y-16061984D02*
X13715420Y-16061984D01*
X13715420Y-16061984D02*
X13734468Y-16071508D01*
X13734468Y-16071508D02*
X13743991Y-16081031D01*
X13743991Y-16081031D02*
X13753515Y-16100079D01*
X13753515Y-16100079D02*
X13753515Y-16119127D01*
X13753515Y-16119127D02*
X13743991Y-16147698D01*
X13743991Y-16147698D02*
X13629706Y-16261984D01*
X13629706Y-16261984D02*
X13753515Y-16261984D01*
X13991610Y-16261984D02*
X13991610Y-16061984D01*
X14077325Y-16261984D02*
X14077325Y-16157222D01*
X14077325Y-16157222D02*
X14067801Y-16138174D01*
X14067801Y-16138174D02*
X14048753Y-16128650D01*
X14048753Y-16128650D02*
X14020182Y-16128650D01*
X14020182Y-16128650D02*
X14001134Y-16138174D01*
X14001134Y-16138174D02*
X13991610Y-16147698D01*
X14201134Y-16261984D02*
X14182087Y-16252460D01*
X14182087Y-16252460D02*
X14172563Y-16242936D01*
X14172563Y-16242936D02*
X14163039Y-16223888D01*
X14163039Y-16223888D02*
X14163039Y-16166746D01*
X14163039Y-16166746D02*
X14172563Y-16147698D01*
X14172563Y-16147698D02*
X14182087Y-16138174D01*
X14182087Y-16138174D02*
X14201134Y-16128650D01*
X14201134Y-16128650D02*
X14229706Y-16128650D01*
X14229706Y-16128650D02*
X14248753Y-16138174D01*
X14248753Y-16138174D02*
X14258277Y-16147698D01*
X14258277Y-16147698D02*
X14267801Y-16166746D01*
X14267801Y-16166746D02*
X14267801Y-16223888D01*
X14267801Y-16223888D02*
X14258277Y-16242936D01*
X14258277Y-16242936D02*
X14248753Y-16252460D01*
X14248753Y-16252460D02*
X14229706Y-16261984D01*
X14229706Y-16261984D02*
X14201134Y-16261984D01*
X14382087Y-16261984D02*
X14363039Y-16252460D01*
X14363039Y-16252460D02*
X14353515Y-16233412D01*
X14353515Y-16233412D02*
X14353515Y-16061984D01*
X14534468Y-16252460D02*
X14515420Y-16261984D01*
X14515420Y-16261984D02*
X14477325Y-16261984D01*
X14477325Y-16261984D02*
X14458277Y-16252460D01*
X14458277Y-16252460D02*
X14448753Y-16233412D01*
X14448753Y-16233412D02*
X14448753Y-16157222D01*
X14448753Y-16157222D02*
X14458277Y-16138174D01*
X14458277Y-16138174D02*
X14477325Y-16128650D01*
X14477325Y-16128650D02*
X14515420Y-16128650D01*
X14515420Y-16128650D02*
X14534468Y-16138174D01*
X14534468Y-16138174D02*
X14543991Y-16157222D01*
X14543991Y-16157222D02*
X14543991Y-16176269D01*
X14543991Y-16176269D02*
X14448753Y-16195317D01*
X14620182Y-16252460D02*
X14639230Y-16261984D01*
X14639230Y-16261984D02*
X14677325Y-16261984D01*
X14677325Y-16261984D02*
X14696372Y-16252460D01*
X14696372Y-16252460D02*
X14705896Y-16233412D01*
X14705896Y-16233412D02*
X14705896Y-16223888D01*
X14705896Y-16223888D02*
X14696372Y-16204841D01*
X14696372Y-16204841D02*
X14677325Y-16195317D01*
X14677325Y-16195317D02*
X14648753Y-16195317D01*
X14648753Y-16195317D02*
X14629706Y-16185793D01*
X14629706Y-16185793D02*
X14620182Y-16166746D01*
X14620182Y-16166746D02*
X14620182Y-16157222D01*
X14620182Y-16157222D02*
X14629706Y-16138174D01*
X14629706Y-16138174D02*
X14648753Y-16128650D01*
X14648753Y-16128650D02*
X14677325Y-16128650D01*
X14677325Y-16128650D02*
X14696372Y-16138174D01*
X14772563Y-16338174D02*
X14782087Y-16328650D01*
X14782087Y-16328650D02*
X14801134Y-16300079D01*
X14801134Y-16300079D02*
X14810658Y-16281031D01*
X14810658Y-16281031D02*
X14820182Y-16252460D01*
X14820182Y-16252460D02*
X14829706Y-16204841D01*
X14829706Y-16204841D02*
X14829706Y-16166746D01*
X14829706Y-16166746D02*
X14820182Y-16119127D01*
X14820182Y-16119127D02*
X14810658Y-16090555D01*
X14810658Y-16090555D02*
X14801134Y-16071508D01*
X14801134Y-16071508D02*
X14782087Y-16042936D01*
X14782087Y-16042936D02*
X14772563Y-16033412D01*
M02*
