G04 #@! TF.GenerationSoftware,KiCad,Pcbnew,8.0.5*
G04 #@! TF.CreationDate,2024-10-19T15:21:04+01:00*
G04 #@! TF.ProjectId,GfxVGA,47667856-4741-42e6-9b69-6361645f7063,rev?*
G04 #@! TF.SameCoordinates,Original*
G04 #@! TF.FileFunction,Soldermask,Top*
G04 #@! TF.FilePolarity,Negative*
%FSLAX46Y46*%
G04 Gerber Fmt 4.6, Leading zero omitted, Abs format (unit mm)*
G04 Created by KiCad (PCBNEW 8.0.5) date 2024-10-19 15:21:04*
%MOMM*%
%LPD*%
G01*
G04 APERTURE LIST*
G04 Aperture macros list*
%AMRoundRect*
0 Rectangle with rounded corners*
0 $1 Rounding radius*
0 $2 $3 $4 $5 $6 $7 $8 $9 X,Y pos of 4 corners*
0 Add a 4 corners polygon primitive as box body*
4,1,4,$2,$3,$4,$5,$6,$7,$8,$9,$2,$3,0*
0 Add four circle primitives for the rounded corners*
1,1,$1+$1,$2,$3*
1,1,$1+$1,$4,$5*
1,1,$1+$1,$6,$7*
1,1,$1+$1,$8,$9*
0 Add four rect primitives between the rounded corners*
20,1,$1+$1,$2,$3,$4,$5,0*
20,1,$1+$1,$4,$5,$6,$7,0*
20,1,$1+$1,$6,$7,$8,$9,0*
20,1,$1+$1,$8,$9,$2,$3,0*%
G04 Aperture macros list end*
%ADD10C,2.850000*%
%ADD11RoundRect,0.249999X0.525001X0.525001X-0.525001X0.525001X-0.525001X-0.525001X0.525001X-0.525001X0*%
%ADD12C,1.550000*%
%ADD13RoundRect,0.250000X-0.262500X-0.450000X0.262500X-0.450000X0.262500X0.450000X-0.262500X0.450000X0*%
%ADD14RoundRect,0.250000X0.450000X-0.262500X0.450000X0.262500X-0.450000X0.262500X-0.450000X-0.262500X0*%
%ADD15C,4.000000*%
%ADD16R,1.600000X1.600000*%
%ADD17C,1.600000*%
%ADD18RoundRect,0.250000X0.250000X0.475000X-0.250000X0.475000X-0.250000X-0.475000X0.250000X-0.475000X0*%
%ADD19RoundRect,0.250000X-1.050000X-0.550000X1.050000X-0.550000X1.050000X0.550000X-1.050000X0.550000X0*%
%ADD20RoundRect,0.375000X-0.625000X-0.375000X0.625000X-0.375000X0.625000X0.375000X-0.625000X0.375000X0*%
%ADD21RoundRect,0.500000X-0.500000X-1.400000X0.500000X-1.400000X0.500000X1.400000X-0.500000X1.400000X0*%
%ADD22RoundRect,0.250000X-0.450000X0.262500X-0.450000X-0.262500X0.450000X-0.262500X0.450000X0.262500X0*%
%ADD23R,1.300000X0.300000*%
%ADD24RoundRect,0.150000X0.150000X-0.837500X0.150000X0.837500X-0.150000X0.837500X-0.150000X-0.837500X0*%
%ADD25RoundRect,0.250000X-0.250000X-0.475000X0.250000X-0.475000X0.250000X0.475000X-0.250000X0.475000X0*%
%ADD26R,0.410000X1.570000*%
%ADD27R,1.700000X1.700000*%
%ADD28O,1.700000X1.700000*%
%ADD29RoundRect,0.150000X-0.512500X-0.150000X0.512500X-0.150000X0.512500X0.150000X-0.512500X0.150000X0*%
%ADD30RoundRect,0.250000X0.475000X-0.250000X0.475000X0.250000X-0.475000X0.250000X-0.475000X-0.250000X0*%
%ADD31RoundRect,0.250000X0.550000X-1.050000X0.550000X1.050000X-0.550000X1.050000X-0.550000X-1.050000X0*%
%ADD32RoundRect,0.250000X-0.375000X-0.625000X0.375000X-0.625000X0.375000X0.625000X-0.375000X0.625000X0*%
%ADD33RoundRect,0.102000X-0.800000X-0.150000X0.800000X-0.150000X0.800000X0.150000X-0.800000X0.150000X0*%
%ADD34RoundRect,0.102000X0.150000X-0.800000X0.150000X0.800000X-0.150000X0.800000X-0.150000X-0.800000X0*%
%ADD35R,1.610000X0.580000*%
%ADD36RoundRect,0.250000X0.625000X-0.375000X0.625000X0.375000X-0.625000X0.375000X-0.625000X-0.375000X0*%
%ADD37RoundRect,0.150000X0.150000X-0.825000X0.150000X0.825000X-0.150000X0.825000X-0.150000X-0.825000X0*%
%ADD38RoundRect,0.250000X0.262500X0.450000X-0.262500X0.450000X-0.262500X-0.450000X0.262500X-0.450000X0*%
%ADD39RoundRect,0.150000X-0.587500X-0.150000X0.587500X-0.150000X0.587500X0.150000X-0.587500X0.150000X0*%
%ADD40R,1.200000X1.400000*%
G04 APERTURE END LIST*
D10*
X194075000Y-147218400D03*
X105175000Y-147218400D03*
D11*
X188995000Y-144678400D03*
D12*
X186455000Y-144678400D03*
X183915000Y-144678400D03*
X181375000Y-144678400D03*
X178835000Y-144678400D03*
X176295000Y-144678400D03*
X173755000Y-144678400D03*
X171215000Y-144678400D03*
X168675000Y-144678400D03*
X166135000Y-144678400D03*
X163595000Y-144678400D03*
X161055000Y-144678400D03*
X158515000Y-144678400D03*
X155975000Y-144678400D03*
X153435000Y-144678400D03*
X150895000Y-144678400D03*
X148355000Y-144678400D03*
X145815000Y-144678400D03*
X143275000Y-144678400D03*
X140735000Y-144678400D03*
X138195000Y-144678400D03*
X135655000Y-144678400D03*
X133115000Y-144678400D03*
X130575000Y-144678400D03*
X128035000Y-144678400D03*
X125495000Y-144678400D03*
X122955000Y-144678400D03*
X120415000Y-144678400D03*
X117875000Y-144678400D03*
X115335000Y-144678400D03*
X112795000Y-144678400D03*
X110255000Y-144678400D03*
X188995000Y-139598400D03*
X186455000Y-139598400D03*
X183915000Y-139598400D03*
X181375000Y-139598400D03*
X178835000Y-139598400D03*
X176295000Y-139598400D03*
X173755000Y-139598400D03*
X171215000Y-139598400D03*
X168675000Y-139598400D03*
X166135000Y-139598400D03*
X163595000Y-139598400D03*
X161055000Y-139598400D03*
X158515000Y-139598400D03*
X155975000Y-139598400D03*
X153435000Y-139598400D03*
X150895000Y-139598400D03*
X148355000Y-139598400D03*
X145815000Y-139598400D03*
X143275000Y-139598400D03*
X140735000Y-139598400D03*
X138195000Y-139598400D03*
X135655000Y-139598400D03*
X133115000Y-139598400D03*
X130575000Y-139598400D03*
X128035000Y-139598400D03*
X125495000Y-139598400D03*
X122955000Y-139598400D03*
X120415000Y-139598400D03*
X117875000Y-139598400D03*
X115335000Y-139598400D03*
X112795000Y-139598400D03*
X110255000Y-139598400D03*
D13*
X186582600Y-94422800D03*
X188407600Y-94422800D03*
D14*
X141534100Y-119962800D03*
X141534100Y-118137800D03*
D15*
X194970400Y-110445600D03*
X194970400Y-85445600D03*
D16*
X192920400Y-93630600D03*
D17*
X192920400Y-95920600D03*
X192920400Y-98210600D03*
X192920400Y-100500600D03*
X192920400Y-102790600D03*
X194900400Y-92485600D03*
X194900400Y-94775600D03*
X194900400Y-97065600D03*
X194900400Y-99355600D03*
X194900400Y-101645600D03*
X196880400Y-93630600D03*
X196880400Y-95920600D03*
X196880400Y-98210600D03*
X196880400Y-100500600D03*
X196880400Y-102790600D03*
D13*
X186481000Y-101128400D03*
X188306000Y-101128400D03*
X195787000Y-120142000D03*
X197612000Y-120142000D03*
D18*
X117485200Y-110032800D03*
X115585200Y-110032800D03*
D19*
X112517400Y-95630600D03*
X116117400Y-95630600D03*
D20*
X105663200Y-109155200D03*
X105663200Y-111455200D03*
D21*
X111963200Y-111455200D03*
D20*
X105663200Y-113755200D03*
D22*
X128858400Y-99347400D03*
X128858400Y-101172400D03*
D23*
X117612400Y-67081000D03*
X117612400Y-67581000D03*
X117612400Y-68081000D03*
X117612400Y-68581000D03*
X117612400Y-69081000D03*
X117612400Y-69581000D03*
X117612400Y-70081000D03*
X117612400Y-70581000D03*
X117612400Y-71081000D03*
X117612400Y-71581000D03*
X117612400Y-72081000D03*
X117612400Y-72581000D03*
X117612400Y-73081000D03*
X117612400Y-73581000D03*
X117612400Y-74081000D03*
X117612400Y-74581000D03*
X117612400Y-75081000D03*
X117612400Y-75581000D03*
X117612400Y-76081000D03*
X117612400Y-76581000D03*
X117612400Y-77081000D03*
X117612400Y-77581000D03*
X117612400Y-78081000D03*
X117612400Y-78581000D03*
X137312400Y-78581000D03*
X137312400Y-78081000D03*
X137312400Y-77581000D03*
X137312400Y-77081000D03*
X137312400Y-76581000D03*
X137312400Y-76081000D03*
X137312400Y-75581000D03*
X137312400Y-75081000D03*
X137312400Y-74581000D03*
X137312400Y-74081000D03*
X137312400Y-73581000D03*
X137312400Y-73081000D03*
X137312400Y-72581000D03*
X137312400Y-72081000D03*
X137312400Y-71581000D03*
X137312400Y-71081000D03*
X137312400Y-70581000D03*
X137312400Y-70081000D03*
X137312400Y-69581000D03*
X137312400Y-69081000D03*
X137312400Y-68581000D03*
X137312400Y-68081000D03*
X137312400Y-67581000D03*
X137312400Y-67081000D03*
D24*
X141685000Y-132900000D03*
X142955000Y-132900000D03*
X144225000Y-132900000D03*
X145495000Y-132900000D03*
X146765000Y-132900000D03*
X148035000Y-132900000D03*
X149305000Y-132900000D03*
X150575000Y-132900000D03*
X150575000Y-125975000D03*
X149305000Y-125975000D03*
X148035000Y-125975000D03*
X146765000Y-125975000D03*
X145495000Y-125975000D03*
X144225000Y-125975000D03*
X142955000Y-125975000D03*
X141685000Y-125975000D03*
X129085000Y-132900000D03*
X130355000Y-132900000D03*
X131625000Y-132900000D03*
X132895000Y-132900000D03*
X134165000Y-132900000D03*
X135435000Y-132900000D03*
X136705000Y-132900000D03*
X137975000Y-132900000D03*
X137975000Y-125975000D03*
X136705000Y-125975000D03*
X135435000Y-125975000D03*
X134165000Y-125975000D03*
X132895000Y-125975000D03*
X131625000Y-125975000D03*
X130355000Y-125975000D03*
X129085000Y-125975000D03*
D13*
X195736200Y-123444000D03*
X197561200Y-123444000D03*
X119870600Y-95584400D03*
X121695600Y-95584400D03*
D25*
X106812000Y-135636000D03*
X108712000Y-135636000D03*
D13*
X186633400Y-74371200D03*
X188458400Y-74371200D03*
D26*
X178663600Y-133172200D03*
X179313600Y-133172200D03*
X179963600Y-133172200D03*
X180613600Y-133172200D03*
X181263600Y-133172200D03*
X181913600Y-133172200D03*
X182563600Y-133172200D03*
X183213600Y-133172200D03*
X183863600Y-133172200D03*
X184513600Y-133172200D03*
X185163600Y-133172200D03*
X185813600Y-133172200D03*
X185813600Y-127432200D03*
X185163600Y-127432200D03*
X184513600Y-127432200D03*
X183863600Y-127432200D03*
X183213600Y-127432200D03*
X182563600Y-127432200D03*
X181913600Y-127432200D03*
X181263600Y-127432200D03*
X180613600Y-127432200D03*
X179963600Y-127432200D03*
X179313600Y-127432200D03*
X178663600Y-127432200D03*
D27*
X164998400Y-69240400D03*
D28*
X167538400Y-69240400D03*
X170078400Y-69240400D03*
X172618400Y-69240400D03*
X175158400Y-69240400D03*
X177698400Y-69240400D03*
D13*
X186481000Y-103414400D03*
X188306000Y-103414400D03*
D26*
X167983000Y-133172200D03*
X168633000Y-133172200D03*
X169283000Y-133172200D03*
X169933000Y-133172200D03*
X170583000Y-133172200D03*
X171233000Y-133172200D03*
X171883000Y-133172200D03*
X172533000Y-133172200D03*
X173183000Y-133172200D03*
X173833000Y-133172200D03*
X174483000Y-133172200D03*
X175133000Y-133172200D03*
X175133000Y-127432200D03*
X174483000Y-127432200D03*
X173833000Y-127432200D03*
X173183000Y-127432200D03*
X172533000Y-127432200D03*
X171883000Y-127432200D03*
X171233000Y-127432200D03*
X170583000Y-127432200D03*
X169933000Y-127432200D03*
X169283000Y-127432200D03*
X168633000Y-127432200D03*
X167983000Y-127432200D03*
D13*
X186490600Y-98856800D03*
X188315600Y-98856800D03*
D19*
X112550000Y-88925000D03*
X116150000Y-88925000D03*
D29*
X135850000Y-118200000D03*
X135850000Y-119150000D03*
X135850000Y-120100000D03*
X138125000Y-120100000D03*
X138125000Y-118200000D03*
D13*
X186633400Y-81026000D03*
X188458400Y-81026000D03*
D18*
X104750000Y-126550000D03*
X102850000Y-126550000D03*
D13*
X186633400Y-78841600D03*
X188458400Y-78841600D03*
D24*
X154430000Y-132900000D03*
X155700000Y-132900000D03*
X156970000Y-132900000D03*
X158240000Y-132900000D03*
X159510000Y-132900000D03*
X160780000Y-132900000D03*
X162050000Y-132900000D03*
X163320000Y-132900000D03*
X163320000Y-125975000D03*
X162050000Y-125975000D03*
X160780000Y-125975000D03*
X159510000Y-125975000D03*
X158240000Y-125975000D03*
X156970000Y-125975000D03*
X155700000Y-125975000D03*
X154430000Y-125975000D03*
D25*
X193664800Y-79654400D03*
X195564800Y-79654400D03*
D14*
X125404000Y-101168600D03*
X125404000Y-99343600D03*
D30*
X133184100Y-120037800D03*
X133184100Y-118137800D03*
D31*
X122377200Y-113632800D03*
X122377200Y-110032800D03*
D32*
X194608800Y-133604000D03*
X197408800Y-133604000D03*
D13*
X107187200Y-88975800D03*
X109012200Y-88975800D03*
D14*
X186150000Y-124650000D03*
X186150000Y-122825000D03*
D13*
X186439800Y-112217200D03*
X188264800Y-112217200D03*
D18*
X120325000Y-65125000D03*
X118425000Y-65125000D03*
D25*
X107802600Y-116586000D03*
X109702600Y-116586000D03*
D13*
X186582600Y-92136800D03*
X188407600Y-92136800D03*
D33*
X142138200Y-84315600D03*
X142138200Y-84815600D03*
X142138200Y-85315600D03*
X142138200Y-85815600D03*
X142138200Y-86315600D03*
X142138200Y-86815600D03*
X142138200Y-87315600D03*
X142138200Y-87815600D03*
X142138200Y-88315600D03*
X142138200Y-88815600D03*
X142138200Y-89315600D03*
X142138200Y-89815600D03*
X142138200Y-90315600D03*
X142138200Y-90815600D03*
X142138200Y-91315600D03*
X142138200Y-91815600D03*
X142138200Y-92315600D03*
X142138200Y-92815600D03*
X142138200Y-93315600D03*
X142138200Y-93815600D03*
X142138200Y-94315600D03*
X142138200Y-94815600D03*
X142138200Y-95315600D03*
X142138200Y-95815600D03*
X142138200Y-96315600D03*
X142138200Y-96815600D03*
X142138200Y-97315600D03*
X142138200Y-97815600D03*
X142138200Y-98315600D03*
X142138200Y-98815600D03*
X142138200Y-99315600D03*
X142138200Y-99815600D03*
X142138200Y-100315600D03*
X142138200Y-100815600D03*
X142138200Y-101315600D03*
X142138200Y-101815600D03*
D34*
X144488200Y-104165600D03*
X144988200Y-104165600D03*
X145488200Y-104165600D03*
X145988200Y-104165600D03*
X146488200Y-104165600D03*
X146988200Y-104165600D03*
X147488200Y-104165600D03*
X147988200Y-104165600D03*
X148488200Y-104165600D03*
X148988200Y-104165600D03*
X149488200Y-104165600D03*
X149988200Y-104165600D03*
X150488200Y-104165600D03*
X150988200Y-104165600D03*
X151488200Y-104165600D03*
X151988200Y-104165600D03*
X152488200Y-104165600D03*
X152988200Y-104165600D03*
X153488200Y-104165600D03*
X153988200Y-104165600D03*
X154488200Y-104165600D03*
X154988200Y-104165600D03*
X155488200Y-104165600D03*
X155988200Y-104165600D03*
X156488200Y-104165600D03*
X156988200Y-104165600D03*
X157488200Y-104165600D03*
X157988200Y-104165600D03*
X158488200Y-104165600D03*
X158988200Y-104165600D03*
X159488200Y-104165600D03*
X159988200Y-104165600D03*
X160488200Y-104165600D03*
X160988200Y-104165600D03*
X161488200Y-104165600D03*
X161988200Y-104165600D03*
D33*
X164338200Y-101815600D03*
X164338200Y-101315600D03*
X164338200Y-100815600D03*
X164338200Y-100315600D03*
X164338200Y-99815600D03*
X164338200Y-99315600D03*
X164338200Y-98815600D03*
X164338200Y-98315600D03*
X164338200Y-97815600D03*
X164338200Y-97315600D03*
X164338200Y-96815600D03*
X164338200Y-96315600D03*
X164338200Y-95815600D03*
X164338200Y-95315600D03*
X164338200Y-94815600D03*
X164338200Y-94315600D03*
X164338200Y-93815600D03*
X164338200Y-93315600D03*
X164338200Y-92815600D03*
X164338200Y-92315600D03*
X164338200Y-91815600D03*
X164338200Y-91315600D03*
X164338200Y-90815600D03*
X164338200Y-90315600D03*
X164338200Y-89815600D03*
X164338200Y-89315600D03*
X164338200Y-88815600D03*
X164338200Y-88315600D03*
X164338200Y-87815600D03*
X164338200Y-87315600D03*
X164338200Y-86815600D03*
X164338200Y-86315600D03*
X164338200Y-85815600D03*
X164338200Y-85315600D03*
X164338200Y-84815600D03*
X164338200Y-84315600D03*
D34*
X161988200Y-81965600D03*
X161488200Y-81965600D03*
X160988200Y-81965600D03*
X160488200Y-81965600D03*
X159988200Y-81965600D03*
X159488200Y-81965600D03*
X158988200Y-81965600D03*
X158488200Y-81965600D03*
X157988200Y-81965600D03*
X157488200Y-81965600D03*
X156988200Y-81965600D03*
X156488200Y-81965600D03*
X155988200Y-81965600D03*
X155488200Y-81965600D03*
X154988200Y-81965600D03*
X154488200Y-81965600D03*
X153988200Y-81965600D03*
X153488200Y-81965600D03*
X152988200Y-81965600D03*
X152488200Y-81965600D03*
X151988200Y-81965600D03*
X151488200Y-81965600D03*
X150988200Y-81965600D03*
X150488200Y-81965600D03*
X149988200Y-81965600D03*
X149488200Y-81965600D03*
X148988200Y-81965600D03*
X148488200Y-81965600D03*
X147988200Y-81965600D03*
X147488200Y-81965600D03*
X146988200Y-81965600D03*
X146488200Y-81965600D03*
X145988200Y-81965600D03*
X145488200Y-81965600D03*
X144988200Y-81965600D03*
X144488200Y-81965600D03*
D19*
X106305800Y-123545600D03*
X109905800Y-123545600D03*
D30*
X158284400Y-114329000D03*
X158284400Y-112429000D03*
D13*
X186582600Y-96607200D03*
X188407600Y-96607200D03*
X186582600Y-89901600D03*
X188407600Y-89901600D03*
D25*
X194442000Y-116332000D03*
X196342000Y-116332000D03*
D35*
X133462000Y-111823600D03*
X133462000Y-113093600D03*
X133462000Y-114363600D03*
X133462000Y-115633600D03*
X140672000Y-115633600D03*
X140672000Y-114363600D03*
X140672000Y-113093600D03*
X140672000Y-111823600D03*
D36*
X128960000Y-96200000D03*
X128960000Y-93400000D03*
D14*
X166065200Y-124407300D03*
X166065200Y-122582300D03*
D18*
X106929400Y-99491400D03*
X105029400Y-99491400D03*
D26*
X144325000Y-116890000D03*
X144975000Y-116890000D03*
X145625000Y-116890000D03*
X146275000Y-116890000D03*
X146925000Y-116890000D03*
X147575000Y-116890000D03*
X148225000Y-116890000D03*
X148875000Y-116890000D03*
X149525000Y-116890000D03*
X150175000Y-116890000D03*
X150825000Y-116890000D03*
X151475000Y-116890000D03*
X151475000Y-111150000D03*
X150825000Y-111150000D03*
X150175000Y-111150000D03*
X149525000Y-111150000D03*
X148875000Y-111150000D03*
X148225000Y-111150000D03*
X147575000Y-111150000D03*
X146925000Y-111150000D03*
X146275000Y-111150000D03*
X145625000Y-111150000D03*
X144975000Y-111150000D03*
X144325000Y-111150000D03*
D13*
X186481000Y-105598800D03*
X188306000Y-105598800D03*
D36*
X125150000Y-96200000D03*
X125150000Y-93400000D03*
D37*
X106934000Y-132966000D03*
X108204000Y-132966000D03*
X109474000Y-132966000D03*
X110744000Y-132966000D03*
X112014000Y-132966000D03*
X113284000Y-132966000D03*
X114554000Y-132966000D03*
X114554000Y-128016000D03*
X113284000Y-128016000D03*
X112014000Y-128016000D03*
X110744000Y-128016000D03*
X109474000Y-128016000D03*
X108204000Y-128016000D03*
X106934000Y-128016000D03*
D32*
X194659600Y-130556000D03*
X197459600Y-130556000D03*
D26*
X117638800Y-133121800D03*
X118288800Y-133121800D03*
X118938800Y-133121800D03*
X119588800Y-133121800D03*
X120238800Y-133121800D03*
X120888800Y-133121800D03*
X121538800Y-133121800D03*
X122188800Y-133121800D03*
X122838800Y-133121800D03*
X123488800Y-133121800D03*
X124138800Y-133121800D03*
X124788800Y-133121800D03*
X124788800Y-127381800D03*
X124138800Y-127381800D03*
X123488800Y-127381800D03*
X122838800Y-127381800D03*
X122188800Y-127381800D03*
X121538800Y-127381800D03*
X120888800Y-127381800D03*
X120238800Y-127381800D03*
X119588800Y-127381800D03*
X118938800Y-127381800D03*
X118288800Y-127381800D03*
X117638800Y-127381800D03*
D19*
X103989800Y-95529000D03*
X107589800Y-95529000D03*
D14*
X168503600Y-124432700D03*
X168503600Y-122607700D03*
D13*
X186633400Y-76606400D03*
X188458400Y-76606400D03*
D38*
X117496600Y-113385600D03*
X115671600Y-113385600D03*
D13*
X186439800Y-110083600D03*
X188264800Y-110083600D03*
D39*
X119922200Y-99409600D03*
X119922200Y-101309600D03*
X121797200Y-100359600D03*
D13*
X186582600Y-87666400D03*
X188407600Y-87666400D03*
D18*
X141300000Y-80200000D03*
X139400000Y-80200000D03*
D13*
X186633400Y-85482000D03*
X188458400Y-85482000D03*
X186629600Y-83159600D03*
X188454600Y-83159600D03*
D40*
X156100000Y-114715000D03*
X156100000Y-112175000D03*
X153900000Y-112175000D03*
X153900000Y-114715000D03*
D13*
X186430200Y-107884800D03*
X188255200Y-107884800D03*
D32*
X194634200Y-127558800D03*
X197434200Y-127558800D03*
D13*
X191822700Y-123418600D03*
X193647700Y-123418600D03*
M02*
