M48
; DRILL file {KiCad 8.0.5} date 2024-10-19T15:21:06+0100
; FORMAT={-:-/ absolute / metric / decimal}
; #@! TF.CreationDate,2024-10-19T15:21:06+01:00
; #@! TF.GenerationSoftware,Kicad,Pcbnew,8.0.5
; #@! TF.FileFunction,Plated,1,4,PTH
FMAT,2
METRIC
; #@! TA.AperFunction,Plated,PTH,ViaDrill
T1C0.400
; #@! TA.AperFunction,Plated,PTH,ComponentDrill
T2C1.000
; #@! TA.AperFunction,Plated,PTH,ComponentDrill
T3C3.200
%
G90
G05
T1
X101.9Y-126.5
X102.55Y-95.5
X104.3Y-99.5
X104.35Y-109.15
X104.4Y-111.425
X104.45Y-113.75
X106.4Y-89.0
X106.95Y-111.45
X107.025Y-116.6
X107.7Y-99.5
X108.2Y-131.1
X109.15Y-95.55
X109.475Y-126.55
X109.5Y-135.7
X110.4Y-116.55
X110.65Y-111.45
X110.9Y-106.7
X110.95Y-95.65
X111.45Y-123.55
X112.05Y-125.2
X112.05Y-134.55
X112.55Y-91.05
X113.2Y-111.45
X114.35Y-125.85
X114.554Y-134.554
X114.8Y-109.95
X114.85Y-113.35
X115.875Y-72.3
X115.9Y-73.275
X116.0Y-124.65
X117.55Y-65.125
X117.65Y-88.95
X117.65Y-95.6
X117.925Y-134.575
X117.975Y-128.725
X118.15Y-113.45
X118.3Y-110.0
X118.75Y-125.95
X118.9Y-101.3
X119.1Y-95.55
X119.5Y-128.975
X119.65Y-103.95
X121.225Y-65.1
X122.4Y-108.5
X122.4Y-115.1
X122.95Y-129.0
X124.45Y-134.55
X125.05Y-121.9
X125.15Y-97.25
X125.275Y-126.1
X125.325Y-123.525
X125.4Y-102.1
X126.6Y-129.7
X126.6Y-131.9
X128.65Y-128.2
X128.8Y-135.05
X129.0Y-92.55
X129.2Y-146.25
X129.25Y-114.325
X130.55Y-128.2
X131.45Y-113.15
X131.75Y-147.5
X132.55Y-99.35
X132.55Y-102.35
X133.15Y-117.4
X133.184Y-120.738
X133.6Y-95.35
X133.65Y-102.35
X134.125Y-109.025
X134.4Y-141.25
X134.7Y-96.7
X134.75Y-102.45
X135.45Y-127.3
X135.45Y-134.45
X135.65Y-98.6
X135.725Y-72.3
X135.775Y-73.375
X135.85Y-102.9
X135.884Y-120.638
X136.075Y-109.875
X136.075Y-115.625
X137.95Y-103.05
X138.025Y-114.525
X138.15Y-118.7
X138.15Y-147.5
X138.55Y-135.0
X138.675Y-109.025
X138.7Y-80.2
X139.2Y-104.175
X140.2Y-93.25
X140.225Y-109.875
X140.691Y-136.95
X140.7Y-147.05
X141.375Y-128.2
X141.65Y-130.85
X142.05Y-137.85
X142.075Y-110.025
X142.25Y-80.2
X142.55Y-115.65
X142.65Y-114.1
X143.25Y-134.75
X143.275Y-128.2
X143.3Y-147.8
X143.6Y-108.6
X144.15Y-97.7
X144.15Y-99.45
X144.2Y-101.35
X144.35Y-85.1
X144.4Y-86.4
X144.45Y-143.2
X144.65Y-115.5
X144.8Y-112.55
X144.933Y-93.391
X144.933Y-95.291
X145.0Y-87.7
X145.0Y-91.0
X145.0Y-109.4
X145.25Y-135.5
X145.745Y-101.397
X145.8Y-142.2
X146.9Y-121.25
X146.995Y-84.755
X147.15Y-136.4
X147.523Y-101.321
X148.895Y-84.755
X149.45Y-121.2
X149.6Y-96.4
X149.6Y-143.15
X150.348Y-100.655
X150.7Y-106.75
X151.008Y-84.704
X151.1Y-115.35
X151.15Y-132.9
X151.3Y-112.7
X151.975Y-79.775
X152.1Y-142.15
X152.2Y-124.1
X152.273Y-101.422
X152.45Y-105.7
X152.45Y-107.65
X152.75Y-121.15
X152.908Y-84.704
X153.05Y-96.4
X153.4Y-119.85
X153.55Y-101.85
X153.9Y-115.65
X153.95Y-118.6
X154.025Y-128.125
X154.43Y-130.85
X154.889Y-101.473
X154.925Y-84.425
X155.7Y-97.8
X155.925Y-128.125
X156.05Y-109.75
X156.616Y-99.746
X156.8Y-106.15
X157.0Y-131.5
X157.023Y-84.704
X157.595Y-124.05
X157.7Y-96.85
X158.05Y-107.5
X158.259Y-111.743
X158.259Y-115.045
X158.903Y-100.604
X158.923Y-84.704
X159.3Y-135.5
X159.5Y-102.2
X159.5Y-118.55
X159.75Y-137.9
X160.5Y-137.15
X160.728Y-100.604
X160.833Y-87.65
X160.833Y-89.55
X160.884Y-92.426
X160.884Y-94.326
X161.1Y-134.95
X161.3Y-136.4
X161.45Y-121.15
X162.1Y-99.25
X162.25Y-146.15
X162.3Y-100.8
X162.35Y-84.3
X162.4Y-95.5
X163.3Y-119.85
X163.7Y-134.3
X164.389Y-103.402
X164.4Y-105.9
X164.8Y-146.9
X165.2Y-117.4
X165.35Y-131.5
X165.7Y-114.05
X166.2Y-93.25
X166.325Y-134.575
X166.5Y-108.7
X167.45Y-127.45
X167.45Y-147.8
X167.5Y-81.8
X167.75Y-114.95
X168.7Y-130.8
X168.9Y-113.35
X168.95Y-137.4
X169.05Y-116.45
X169.825Y-136.525
X170.0Y-130.0
X170.025Y-131.575
X170.05Y-120.5
X170.1Y-80.8
X172.4Y-143.125
X172.6Y-84.6
X172.825Y-135.75
X173.1Y-129.95
X173.7Y-141.475
X174.575Y-134.875
X174.925Y-142.275
X175.15Y-83.65
X175.15Y-131.725
X175.6Y-125.95
X176.25Y-134.675
X177.5Y-135.55
X178.15Y-133.15
X178.525Y-136.375
X179.0Y-125.8
X179.15Y-129.8
X180.05Y-143.15
X180.55Y-108.7
X180.619Y-137.175
X180.65Y-104.5
X180.95Y-129.75
X181.325Y-142.2
X181.8Y-109.8
X182.75Y-138.05
X182.85Y-104.5
X183.2Y-129.7
X183.762Y-136.463
X184.537Y-135.537
X185.1Y-134.675
X185.525Y-132.0
X185.55Y-129.45
X186.583Y-94.423
X186.583Y-96.607
X187.65Y-142.15
X188.475Y-132.5
X191.8Y-120.5
X192.35Y-129.2
X192.786Y-79.629
X193.599Y-116.307
X193.65Y-124.45
X193.75Y-127.55
X194.767Y-105.334
X194.95Y-120.1
X195.7Y-124.4
X196.444Y-79.654
X197.256Y-116.332
X197.434Y-127.559
T2
X110.255Y-139.598
X110.255Y-144.678
X112.795Y-139.598
X112.795Y-144.678
X115.335Y-139.598
X115.335Y-144.678
X117.875Y-139.598
X117.875Y-144.678
X120.415Y-139.598
X120.415Y-144.678
X122.955Y-139.598
X122.955Y-144.678
X125.495Y-139.598
X125.495Y-144.678
X128.035Y-139.598
X128.035Y-144.678
X130.575Y-139.598
X130.575Y-144.678
X133.115Y-139.598
X133.115Y-144.678
X135.655Y-139.598
X135.655Y-144.678
X138.195Y-139.598
X138.195Y-144.678
X140.735Y-139.598
X140.735Y-144.678
X143.275Y-139.598
X143.275Y-144.678
X145.815Y-139.598
X145.815Y-144.678
X148.355Y-139.598
X148.355Y-144.678
X150.895Y-139.598
X150.895Y-144.678
X153.435Y-139.598
X153.435Y-144.678
X155.975Y-139.598
X155.975Y-144.678
X158.515Y-139.598
X158.515Y-144.678
X161.055Y-139.598
X161.055Y-144.678
X163.595Y-139.598
X163.595Y-144.678
X164.998Y-69.24
X166.135Y-139.598
X166.135Y-144.678
X167.538Y-69.24
X168.675Y-139.598
X168.675Y-144.678
X170.078Y-69.24
X171.215Y-139.598
X171.215Y-144.678
X172.618Y-69.24
X173.755Y-139.598
X173.755Y-144.678
X175.158Y-69.24
X176.295Y-139.598
X176.295Y-144.678
X177.698Y-69.24
X178.835Y-139.598
X178.835Y-144.678
X181.375Y-139.598
X181.375Y-144.678
X183.915Y-139.598
X183.915Y-144.678
X186.455Y-139.598
X186.455Y-144.678
X188.995Y-139.598
X188.995Y-144.678
X192.92Y-93.631
X192.92Y-95.921
X192.92Y-98.211
X192.92Y-100.501
X192.92Y-102.791
X194.9Y-92.486
X194.9Y-94.776
X194.9Y-97.066
X194.9Y-99.356
X194.9Y-101.646
X196.88Y-93.631
X196.88Y-95.921
X196.88Y-98.211
X196.88Y-100.501
X196.88Y-102.791
T3
X194.97Y-85.446
X194.97Y-110.446
M30
