G04 #@! TF.GenerationSoftware,KiCad,Pcbnew,8.0.5*
G04 #@! TF.CreationDate,2024-10-19T15:21:04+01:00*
G04 #@! TF.ProjectId,GfxVGA,47667856-4741-42e6-9b69-6361645f7063,rev?*
G04 #@! TF.SameCoordinates,Original*
G04 #@! TF.FileFunction,Copper,L1,Top*
G04 #@! TF.FilePolarity,Positive*
%FSLAX46Y46*%
G04 Gerber Fmt 4.6, Leading zero omitted, Abs format (unit mm)*
G04 Created by KiCad (PCBNEW 8.0.5) date 2024-10-19 15:21:04*
%MOMM*%
%LPD*%
G01*
G04 APERTURE LIST*
G04 Aperture macros list*
%AMRoundRect*
0 Rectangle with rounded corners*
0 $1 Rounding radius*
0 $2 $3 $4 $5 $6 $7 $8 $9 X,Y pos of 4 corners*
0 Add a 4 corners polygon primitive as box body*
4,1,4,$2,$3,$4,$5,$6,$7,$8,$9,$2,$3,0*
0 Add four circle primitives for the rounded corners*
1,1,$1+$1,$2,$3*
1,1,$1+$1,$4,$5*
1,1,$1+$1,$6,$7*
1,1,$1+$1,$8,$9*
0 Add four rect primitives between the rounded corners*
20,1,$1+$1,$2,$3,$4,$5,0*
20,1,$1+$1,$4,$5,$6,$7,0*
20,1,$1+$1,$6,$7,$8,$9,0*
20,1,$1+$1,$8,$9,$2,$3,0*%
G04 Aperture macros list end*
G04 #@! TA.AperFunction,ComponentPad*
%ADD10RoundRect,0.249999X0.525001X0.525001X-0.525001X0.525001X-0.525001X-0.525001X0.525001X-0.525001X0*%
G04 #@! TD*
G04 #@! TA.AperFunction,ComponentPad*
%ADD11C,1.550000*%
G04 #@! TD*
G04 #@! TA.AperFunction,SMDPad,CuDef*
%ADD12RoundRect,0.250000X-0.262500X-0.450000X0.262500X-0.450000X0.262500X0.450000X-0.262500X0.450000X0*%
G04 #@! TD*
G04 #@! TA.AperFunction,SMDPad,CuDef*
%ADD13RoundRect,0.250000X0.450000X-0.262500X0.450000X0.262500X-0.450000X0.262500X-0.450000X-0.262500X0*%
G04 #@! TD*
G04 #@! TA.AperFunction,ComponentPad*
%ADD14C,4.000000*%
G04 #@! TD*
G04 #@! TA.AperFunction,ComponentPad*
%ADD15R,1.600000X1.600000*%
G04 #@! TD*
G04 #@! TA.AperFunction,ComponentPad*
%ADD16C,1.600000*%
G04 #@! TD*
G04 #@! TA.AperFunction,SMDPad,CuDef*
%ADD17RoundRect,0.250000X0.250000X0.475000X-0.250000X0.475000X-0.250000X-0.475000X0.250000X-0.475000X0*%
G04 #@! TD*
G04 #@! TA.AperFunction,SMDPad,CuDef*
%ADD18RoundRect,0.250000X-1.050000X-0.550000X1.050000X-0.550000X1.050000X0.550000X-1.050000X0.550000X0*%
G04 #@! TD*
G04 #@! TA.AperFunction,SMDPad,CuDef*
%ADD19RoundRect,0.375000X-0.625000X-0.375000X0.625000X-0.375000X0.625000X0.375000X-0.625000X0.375000X0*%
G04 #@! TD*
G04 #@! TA.AperFunction,SMDPad,CuDef*
%ADD20RoundRect,0.500000X-0.500000X-1.400000X0.500000X-1.400000X0.500000X1.400000X-0.500000X1.400000X0*%
G04 #@! TD*
G04 #@! TA.AperFunction,SMDPad,CuDef*
%ADD21RoundRect,0.250000X-0.450000X0.262500X-0.450000X-0.262500X0.450000X-0.262500X0.450000X0.262500X0*%
G04 #@! TD*
G04 #@! TA.AperFunction,SMDPad,CuDef*
%ADD22R,1.300000X0.300000*%
G04 #@! TD*
G04 #@! TA.AperFunction,SMDPad,CuDef*
%ADD23RoundRect,0.150000X0.150000X-0.837500X0.150000X0.837500X-0.150000X0.837500X-0.150000X-0.837500X0*%
G04 #@! TD*
G04 #@! TA.AperFunction,SMDPad,CuDef*
%ADD24RoundRect,0.250000X-0.250000X-0.475000X0.250000X-0.475000X0.250000X0.475000X-0.250000X0.475000X0*%
G04 #@! TD*
G04 #@! TA.AperFunction,SMDPad,CuDef*
%ADD25R,0.410000X1.570000*%
G04 #@! TD*
G04 #@! TA.AperFunction,ComponentPad*
%ADD26R,1.700000X1.700000*%
G04 #@! TD*
G04 #@! TA.AperFunction,ComponentPad*
%ADD27O,1.700000X1.700000*%
G04 #@! TD*
G04 #@! TA.AperFunction,SMDPad,CuDef*
%ADD28RoundRect,0.150000X-0.512500X-0.150000X0.512500X-0.150000X0.512500X0.150000X-0.512500X0.150000X0*%
G04 #@! TD*
G04 #@! TA.AperFunction,SMDPad,CuDef*
%ADD29RoundRect,0.250000X0.475000X-0.250000X0.475000X0.250000X-0.475000X0.250000X-0.475000X-0.250000X0*%
G04 #@! TD*
G04 #@! TA.AperFunction,SMDPad,CuDef*
%ADD30RoundRect,0.250000X0.550000X-1.050000X0.550000X1.050000X-0.550000X1.050000X-0.550000X-1.050000X0*%
G04 #@! TD*
G04 #@! TA.AperFunction,SMDPad,CuDef*
%ADD31RoundRect,0.250000X-0.375000X-0.625000X0.375000X-0.625000X0.375000X0.625000X-0.375000X0.625000X0*%
G04 #@! TD*
G04 #@! TA.AperFunction,SMDPad,CuDef*
%ADD32R,1.600000X0.300000*%
G04 #@! TD*
G04 #@! TA.AperFunction,SMDPad,CuDef*
%ADD33R,0.300000X1.600000*%
G04 #@! TD*
G04 #@! TA.AperFunction,SMDPad,CuDef*
%ADD34R,1.610000X0.580000*%
G04 #@! TD*
G04 #@! TA.AperFunction,SMDPad,CuDef*
%ADD35RoundRect,0.250000X0.625000X-0.375000X0.625000X0.375000X-0.625000X0.375000X-0.625000X-0.375000X0*%
G04 #@! TD*
G04 #@! TA.AperFunction,SMDPad,CuDef*
%ADD36RoundRect,0.150000X0.150000X-0.825000X0.150000X0.825000X-0.150000X0.825000X-0.150000X-0.825000X0*%
G04 #@! TD*
G04 #@! TA.AperFunction,SMDPad,CuDef*
%ADD37RoundRect,0.250000X0.262500X0.450000X-0.262500X0.450000X-0.262500X-0.450000X0.262500X-0.450000X0*%
G04 #@! TD*
G04 #@! TA.AperFunction,SMDPad,CuDef*
%ADD38RoundRect,0.150000X-0.587500X-0.150000X0.587500X-0.150000X0.587500X0.150000X-0.587500X0.150000X0*%
G04 #@! TD*
G04 #@! TA.AperFunction,SMDPad,CuDef*
%ADD39R,1.200000X1.400000*%
G04 #@! TD*
G04 #@! TA.AperFunction,ViaPad*
%ADD40C,0.700000*%
G04 #@! TD*
G04 #@! TA.AperFunction,ViaPad*
%ADD41C,0.800000*%
G04 #@! TD*
G04 #@! TA.AperFunction,Conductor*
%ADD42C,0.210000*%
G04 #@! TD*
G04 #@! TA.AperFunction,Conductor*
%ADD43C,0.254000*%
G04 #@! TD*
G04 #@! TA.AperFunction,Conductor*
%ADD44C,0.400000*%
G04 #@! TD*
G04 #@! TA.AperFunction,Conductor*
%ADD45C,0.600000*%
G04 #@! TD*
G04 #@! TA.AperFunction,Conductor*
%ADD46C,0.250000*%
G04 #@! TD*
G04 APERTURE END LIST*
D10*
X188995000Y-144678400D03*
D11*
X186455000Y-144678400D03*
X183915000Y-144678400D03*
X181375000Y-144678400D03*
X178835000Y-144678400D03*
X176295000Y-144678400D03*
X173755000Y-144678400D03*
X171215000Y-144678400D03*
X168675000Y-144678400D03*
X166135000Y-144678400D03*
X163595000Y-144678400D03*
X161055000Y-144678400D03*
X158515000Y-144678400D03*
X155975000Y-144678400D03*
X153435000Y-144678400D03*
X150895000Y-144678400D03*
X148355000Y-144678400D03*
X145815000Y-144678400D03*
X143275000Y-144678400D03*
X140735000Y-144678400D03*
X138195000Y-144678400D03*
X135655000Y-144678400D03*
X133115000Y-144678400D03*
X130575000Y-144678400D03*
X128035000Y-144678400D03*
X125495000Y-144678400D03*
X122955000Y-144678400D03*
X120415000Y-144678400D03*
X117875000Y-144678400D03*
X115335000Y-144678400D03*
X112795000Y-144678400D03*
X110255000Y-144678400D03*
X188995000Y-139598400D03*
X186455000Y-139598400D03*
X183915000Y-139598400D03*
X181375000Y-139598400D03*
X178835000Y-139598400D03*
X176295000Y-139598400D03*
X173755000Y-139598400D03*
X171215000Y-139598400D03*
X168675000Y-139598400D03*
X166135000Y-139598400D03*
X163595000Y-139598400D03*
X161055000Y-139598400D03*
X158515000Y-139598400D03*
X155975000Y-139598400D03*
X153435000Y-139598400D03*
X150895000Y-139598400D03*
X148355000Y-139598400D03*
X145815000Y-139598400D03*
X143275000Y-139598400D03*
X140735000Y-139598400D03*
X138195000Y-139598400D03*
X135655000Y-139598400D03*
X133115000Y-139598400D03*
X130575000Y-139598400D03*
X128035000Y-139598400D03*
X125495000Y-139598400D03*
X122955000Y-139598400D03*
X120415000Y-139598400D03*
X117875000Y-139598400D03*
X115335000Y-139598400D03*
X112795000Y-139598400D03*
X110255000Y-139598400D03*
D12*
X186582600Y-94422800D03*
X188407600Y-94422800D03*
D13*
X141534100Y-119962800D03*
X141534100Y-118137800D03*
D14*
X194970400Y-110445600D03*
X194970400Y-85445600D03*
D15*
X192920400Y-93630600D03*
D16*
X192920400Y-95920600D03*
X192920400Y-98210600D03*
X192920400Y-100500600D03*
X192920400Y-102790600D03*
X194900400Y-92485600D03*
X194900400Y-94775600D03*
X194900400Y-97065600D03*
X194900400Y-99355600D03*
X194900400Y-101645600D03*
X196880400Y-93630600D03*
X196880400Y-95920600D03*
X196880400Y-98210600D03*
X196880400Y-100500600D03*
X196880400Y-102790600D03*
D12*
X186481000Y-101128400D03*
X188306000Y-101128400D03*
X195787000Y-120142000D03*
X197612000Y-120142000D03*
D17*
X117485200Y-110032800D03*
X115585200Y-110032800D03*
D18*
X112517400Y-95630600D03*
X116117400Y-95630600D03*
D19*
X105663200Y-109155200D03*
X105663200Y-111455200D03*
D20*
X111963200Y-111455200D03*
D19*
X105663200Y-113755200D03*
D21*
X128858400Y-99347400D03*
X128858400Y-101172400D03*
D22*
X117612400Y-67081000D03*
X117612400Y-67581000D03*
X117612400Y-68081000D03*
X117612400Y-68581000D03*
X117612400Y-69081000D03*
X117612400Y-69581000D03*
X117612400Y-70081000D03*
X117612400Y-70581000D03*
X117612400Y-71081000D03*
X117612400Y-71581000D03*
X117612400Y-72081000D03*
X117612400Y-72581000D03*
X117612400Y-73081000D03*
X117612400Y-73581000D03*
X117612400Y-74081000D03*
X117612400Y-74581000D03*
X117612400Y-75081000D03*
X117612400Y-75581000D03*
X117612400Y-76081000D03*
X117612400Y-76581000D03*
X117612400Y-77081000D03*
X117612400Y-77581000D03*
X117612400Y-78081000D03*
X117612400Y-78581000D03*
X137312400Y-78581000D03*
X137312400Y-78081000D03*
X137312400Y-77581000D03*
X137312400Y-77081000D03*
X137312400Y-76581000D03*
X137312400Y-76081000D03*
X137312400Y-75581000D03*
X137312400Y-75081000D03*
X137312400Y-74581000D03*
X137312400Y-74081000D03*
X137312400Y-73581000D03*
X137312400Y-73081000D03*
X137312400Y-72581000D03*
X137312400Y-72081000D03*
X137312400Y-71581000D03*
X137312400Y-71081000D03*
X137312400Y-70581000D03*
X137312400Y-70081000D03*
X137312400Y-69581000D03*
X137312400Y-69081000D03*
X137312400Y-68581000D03*
X137312400Y-68081000D03*
X137312400Y-67581000D03*
X137312400Y-67081000D03*
D23*
X141685000Y-132900000D03*
X142955000Y-132900000D03*
X144225000Y-132900000D03*
X145495000Y-132900000D03*
X146765000Y-132900000D03*
X148035000Y-132900000D03*
X149305000Y-132900000D03*
X150575000Y-132900000D03*
X150575000Y-125975000D03*
X149305000Y-125975000D03*
X148035000Y-125975000D03*
X146765000Y-125975000D03*
X145495000Y-125975000D03*
X144225000Y-125975000D03*
X142955000Y-125975000D03*
X141685000Y-125975000D03*
X129085000Y-132900000D03*
X130355000Y-132900000D03*
X131625000Y-132900000D03*
X132895000Y-132900000D03*
X134165000Y-132900000D03*
X135435000Y-132900000D03*
X136705000Y-132900000D03*
X137975000Y-132900000D03*
X137975000Y-125975000D03*
X136705000Y-125975000D03*
X135435000Y-125975000D03*
X134165000Y-125975000D03*
X132895000Y-125975000D03*
X131625000Y-125975000D03*
X130355000Y-125975000D03*
X129085000Y-125975000D03*
D12*
X195736200Y-123444000D03*
X197561200Y-123444000D03*
X119870600Y-95584400D03*
X121695600Y-95584400D03*
D24*
X106812000Y-135636000D03*
X108712000Y-135636000D03*
D12*
X186633400Y-74371200D03*
X188458400Y-74371200D03*
D25*
X178663600Y-133172200D03*
X179313600Y-133172200D03*
X179963600Y-133172200D03*
X180613600Y-133172200D03*
X181263600Y-133172200D03*
X181913600Y-133172200D03*
X182563600Y-133172200D03*
X183213600Y-133172200D03*
X183863600Y-133172200D03*
X184513600Y-133172200D03*
X185163600Y-133172200D03*
X185813600Y-133172200D03*
X185813600Y-127432200D03*
X185163600Y-127432200D03*
X184513600Y-127432200D03*
X183863600Y-127432200D03*
X183213600Y-127432200D03*
X182563600Y-127432200D03*
X181913600Y-127432200D03*
X181263600Y-127432200D03*
X180613600Y-127432200D03*
X179963600Y-127432200D03*
X179313600Y-127432200D03*
X178663600Y-127432200D03*
D26*
X164998400Y-69240400D03*
D27*
X167538400Y-69240400D03*
X170078400Y-69240400D03*
X172618400Y-69240400D03*
X175158400Y-69240400D03*
X177698400Y-69240400D03*
D12*
X186481000Y-103414400D03*
X188306000Y-103414400D03*
D25*
X167983000Y-133172200D03*
X168633000Y-133172200D03*
X169283000Y-133172200D03*
X169933000Y-133172200D03*
X170583000Y-133172200D03*
X171233000Y-133172200D03*
X171883000Y-133172200D03*
X172533000Y-133172200D03*
X173183000Y-133172200D03*
X173833000Y-133172200D03*
X174483000Y-133172200D03*
X175133000Y-133172200D03*
X175133000Y-127432200D03*
X174483000Y-127432200D03*
X173833000Y-127432200D03*
X173183000Y-127432200D03*
X172533000Y-127432200D03*
X171883000Y-127432200D03*
X171233000Y-127432200D03*
X170583000Y-127432200D03*
X169933000Y-127432200D03*
X169283000Y-127432200D03*
X168633000Y-127432200D03*
X167983000Y-127432200D03*
D12*
X186490600Y-98856800D03*
X188315600Y-98856800D03*
D18*
X112550000Y-88925000D03*
X116150000Y-88925000D03*
D28*
X135850000Y-118200000D03*
X135850000Y-119150000D03*
X135850000Y-120100000D03*
X138125000Y-120100000D03*
X138125000Y-118200000D03*
D12*
X186633400Y-81026000D03*
X188458400Y-81026000D03*
D17*
X104750000Y-126550000D03*
X102850000Y-126550000D03*
D12*
X186633400Y-78841600D03*
X188458400Y-78841600D03*
D23*
X154430000Y-132900000D03*
X155700000Y-132900000D03*
X156970000Y-132900000D03*
X158240000Y-132900000D03*
X159510000Y-132900000D03*
X160780000Y-132900000D03*
X162050000Y-132900000D03*
X163320000Y-132900000D03*
X163320000Y-125975000D03*
X162050000Y-125975000D03*
X160780000Y-125975000D03*
X159510000Y-125975000D03*
X158240000Y-125975000D03*
X156970000Y-125975000D03*
X155700000Y-125975000D03*
X154430000Y-125975000D03*
D24*
X193664800Y-79654400D03*
X195564800Y-79654400D03*
D13*
X125404000Y-101168600D03*
X125404000Y-99343600D03*
D29*
X133184100Y-120037800D03*
X133184100Y-118137800D03*
D30*
X122377200Y-113632800D03*
X122377200Y-110032800D03*
D31*
X194608800Y-133604000D03*
X197408800Y-133604000D03*
D12*
X107187200Y-88975800D03*
X109012200Y-88975800D03*
D13*
X186150000Y-124650000D03*
X186150000Y-122825000D03*
D12*
X186439800Y-112217200D03*
X188264800Y-112217200D03*
D17*
X120325000Y-65125000D03*
X118425000Y-65125000D03*
D24*
X107802600Y-116586000D03*
X109702600Y-116586000D03*
D12*
X186582600Y-92136800D03*
X188407600Y-92136800D03*
D32*
X142138200Y-84315600D03*
X142138200Y-84815600D03*
X142138200Y-85315600D03*
X142138200Y-85815600D03*
X142138200Y-86315600D03*
X142138200Y-86815600D03*
X142138200Y-87315600D03*
X142138200Y-87815600D03*
X142138200Y-88315600D03*
X142138200Y-88815600D03*
X142138200Y-89315600D03*
X142138200Y-89815600D03*
X142138200Y-90315600D03*
X142138200Y-90815600D03*
X142138200Y-91315600D03*
X142138200Y-91815600D03*
X142138200Y-92315600D03*
X142138200Y-92815600D03*
X142138200Y-93315600D03*
X142138200Y-93815600D03*
X142138200Y-94315600D03*
X142138200Y-94815600D03*
X142138200Y-95315600D03*
X142138200Y-95815600D03*
X142138200Y-96315600D03*
X142138200Y-96815600D03*
X142138200Y-97315600D03*
X142138200Y-97815600D03*
X142138200Y-98315600D03*
X142138200Y-98815600D03*
X142138200Y-99315600D03*
X142138200Y-99815600D03*
X142138200Y-100315600D03*
X142138200Y-100815600D03*
X142138200Y-101315600D03*
X142138200Y-101815600D03*
D33*
X144488200Y-104165600D03*
X144988200Y-104165600D03*
X145488200Y-104165600D03*
X145988200Y-104165600D03*
X146488200Y-104165600D03*
X146988200Y-104165600D03*
X147488200Y-104165600D03*
X147988200Y-104165600D03*
X148488200Y-104165600D03*
X148988200Y-104165600D03*
X149488200Y-104165600D03*
X149988200Y-104165600D03*
X150488200Y-104165600D03*
X150988200Y-104165600D03*
X151488200Y-104165600D03*
X151988200Y-104165600D03*
X152488200Y-104165600D03*
X152988200Y-104165600D03*
X153488200Y-104165600D03*
X153988200Y-104165600D03*
X154488200Y-104165600D03*
X154988200Y-104165600D03*
X155488200Y-104165600D03*
X155988200Y-104165600D03*
X156488200Y-104165600D03*
X156988200Y-104165600D03*
X157488200Y-104165600D03*
X157988200Y-104165600D03*
X158488200Y-104165600D03*
X158988200Y-104165600D03*
X159488200Y-104165600D03*
X159988200Y-104165600D03*
X160488200Y-104165600D03*
X160988200Y-104165600D03*
X161488200Y-104165600D03*
X161988200Y-104165600D03*
D32*
X164338200Y-101815600D03*
X164338200Y-101315600D03*
X164338200Y-100815600D03*
X164338200Y-100315600D03*
X164338200Y-99815600D03*
X164338200Y-99315600D03*
X164338200Y-98815600D03*
X164338200Y-98315600D03*
X164338200Y-97815600D03*
X164338200Y-97315600D03*
X164338200Y-96815600D03*
X164338200Y-96315600D03*
X164338200Y-95815600D03*
X164338200Y-95315600D03*
X164338200Y-94815600D03*
X164338200Y-94315600D03*
X164338200Y-93815600D03*
X164338200Y-93315600D03*
X164338200Y-92815600D03*
X164338200Y-92315600D03*
X164338200Y-91815600D03*
X164338200Y-91315600D03*
X164338200Y-90815600D03*
X164338200Y-90315600D03*
X164338200Y-89815600D03*
X164338200Y-89315600D03*
X164338200Y-88815600D03*
X164338200Y-88315600D03*
X164338200Y-87815600D03*
X164338200Y-87315600D03*
X164338200Y-86815600D03*
X164338200Y-86315600D03*
X164338200Y-85815600D03*
X164338200Y-85315600D03*
X164338200Y-84815600D03*
X164338200Y-84315600D03*
D33*
X161988200Y-81965600D03*
X161488200Y-81965600D03*
X160988200Y-81965600D03*
X160488200Y-81965600D03*
X159988200Y-81965600D03*
X159488200Y-81965600D03*
X158988200Y-81965600D03*
X158488200Y-81965600D03*
X157988200Y-81965600D03*
X157488200Y-81965600D03*
X156988200Y-81965600D03*
X156488200Y-81965600D03*
X155988200Y-81965600D03*
X155488200Y-81965600D03*
X154988200Y-81965600D03*
X154488200Y-81965600D03*
X153988200Y-81965600D03*
X153488200Y-81965600D03*
X152988200Y-81965600D03*
X152488200Y-81965600D03*
X151988200Y-81965600D03*
X151488200Y-81965600D03*
X150988200Y-81965600D03*
X150488200Y-81965600D03*
X149988200Y-81965600D03*
X149488200Y-81965600D03*
X148988200Y-81965600D03*
X148488200Y-81965600D03*
X147988200Y-81965600D03*
X147488200Y-81965600D03*
X146988200Y-81965600D03*
X146488200Y-81965600D03*
X145988200Y-81965600D03*
X145488200Y-81965600D03*
X144988200Y-81965600D03*
X144488200Y-81965600D03*
D18*
X106305800Y-123545600D03*
X109905800Y-123545600D03*
D29*
X158284400Y-114329000D03*
X158284400Y-112429000D03*
D12*
X186582600Y-96607200D03*
X188407600Y-96607200D03*
X186582600Y-89901600D03*
X188407600Y-89901600D03*
D24*
X194442000Y-116332000D03*
X196342000Y-116332000D03*
D34*
X133462000Y-111823600D03*
X133462000Y-113093600D03*
X133462000Y-114363600D03*
X133462000Y-115633600D03*
X140672000Y-115633600D03*
X140672000Y-114363600D03*
X140672000Y-113093600D03*
X140672000Y-111823600D03*
D35*
X128960000Y-96200000D03*
X128960000Y-93400000D03*
D13*
X166065200Y-124407300D03*
X166065200Y-122582300D03*
D17*
X106929400Y-99491400D03*
X105029400Y-99491400D03*
D25*
X144325000Y-116890000D03*
X144975000Y-116890000D03*
X145625000Y-116890000D03*
X146275000Y-116890000D03*
X146925000Y-116890000D03*
X147575000Y-116890000D03*
X148225000Y-116890000D03*
X148875000Y-116890000D03*
X149525000Y-116890000D03*
X150175000Y-116890000D03*
X150825000Y-116890000D03*
X151475000Y-116890000D03*
X151475000Y-111150000D03*
X150825000Y-111150000D03*
X150175000Y-111150000D03*
X149525000Y-111150000D03*
X148875000Y-111150000D03*
X148225000Y-111150000D03*
X147575000Y-111150000D03*
X146925000Y-111150000D03*
X146275000Y-111150000D03*
X145625000Y-111150000D03*
X144975000Y-111150000D03*
X144325000Y-111150000D03*
D12*
X186481000Y-105598800D03*
X188306000Y-105598800D03*
D35*
X125150000Y-96200000D03*
X125150000Y-93400000D03*
D36*
X106934000Y-132966000D03*
X108204000Y-132966000D03*
X109474000Y-132966000D03*
X110744000Y-132966000D03*
X112014000Y-132966000D03*
X113284000Y-132966000D03*
X114554000Y-132966000D03*
X114554000Y-128016000D03*
X113284000Y-128016000D03*
X112014000Y-128016000D03*
X110744000Y-128016000D03*
X109474000Y-128016000D03*
X108204000Y-128016000D03*
X106934000Y-128016000D03*
D31*
X194659600Y-130556000D03*
X197459600Y-130556000D03*
D25*
X117638800Y-133121800D03*
X118288800Y-133121800D03*
X118938800Y-133121800D03*
X119588800Y-133121800D03*
X120238800Y-133121800D03*
X120888800Y-133121800D03*
X121538800Y-133121800D03*
X122188800Y-133121800D03*
X122838800Y-133121800D03*
X123488800Y-133121800D03*
X124138800Y-133121800D03*
X124788800Y-133121800D03*
X124788800Y-127381800D03*
X124138800Y-127381800D03*
X123488800Y-127381800D03*
X122838800Y-127381800D03*
X122188800Y-127381800D03*
X121538800Y-127381800D03*
X120888800Y-127381800D03*
X120238800Y-127381800D03*
X119588800Y-127381800D03*
X118938800Y-127381800D03*
X118288800Y-127381800D03*
X117638800Y-127381800D03*
D18*
X103989800Y-95529000D03*
X107589800Y-95529000D03*
D13*
X168503600Y-124432700D03*
X168503600Y-122607700D03*
D12*
X186633400Y-76606400D03*
X188458400Y-76606400D03*
D37*
X117496600Y-113385600D03*
X115671600Y-113385600D03*
D12*
X186439800Y-110083600D03*
X188264800Y-110083600D03*
D38*
X119922200Y-99409600D03*
X119922200Y-101309600D03*
X121797200Y-100359600D03*
D12*
X186582600Y-87666400D03*
X188407600Y-87666400D03*
D17*
X141300000Y-80200000D03*
X139400000Y-80200000D03*
D12*
X186633400Y-85482000D03*
X188458400Y-85482000D03*
X186629600Y-83159600D03*
X188454600Y-83159600D03*
D39*
X156100000Y-114715000D03*
X156100000Y-112175000D03*
X153900000Y-112175000D03*
X153900000Y-114715000D03*
D12*
X186430200Y-107884800D03*
X188255200Y-107884800D03*
D31*
X194634200Y-127558800D03*
X197434200Y-127558800D03*
D12*
X191822700Y-123418600D03*
X193647700Y-123418600D03*
D40*
X117650000Y-95600000D03*
X114350000Y-125850000D03*
X175150000Y-131725000D03*
X160833000Y-89550400D03*
X133150000Y-117400000D03*
X135725000Y-72300000D03*
X164400000Y-105900000D03*
X163700000Y-134300000D03*
X151300000Y-112700000D03*
X173100000Y-129950000D03*
X196443600Y-79654400D03*
X125150000Y-97250000D03*
X130550000Y-128200000D03*
X146995000Y-84754800D03*
X135450000Y-127300000D03*
X135450000Y-134450000D03*
X144932600Y-95290800D03*
X104350000Y-109150000D03*
X158259000Y-111743200D03*
X151150000Y-132900000D03*
X104300000Y-99500000D03*
X138550000Y-135000000D03*
X114800000Y-109950000D03*
X109150000Y-95550000D03*
X135884100Y-120637800D03*
X150347800Y-100655200D03*
X145000000Y-91000000D03*
X175600000Y-125950000D03*
X151100000Y-115350000D03*
X185525000Y-132000000D03*
X156616400Y-99745800D03*
X138700000Y-80200000D03*
X118900000Y-101300000D03*
X185550000Y-129450000D03*
X162100000Y-99250000D03*
X110400000Y-116550000D03*
X144350000Y-85100000D03*
X158923000Y-84704000D03*
X117650000Y-88950000D03*
X118750000Y-125950000D03*
X151008200Y-84704000D03*
X149600000Y-96400000D03*
X193750000Y-127550000D03*
X153550000Y-101850000D03*
X112050000Y-134550000D03*
X122400000Y-108500000D03*
X143275000Y-128200000D03*
X117550000Y-65125000D03*
X125275000Y-126100000D03*
X145000000Y-109400000D03*
X160883800Y-92425600D03*
X136075000Y-115625000D03*
X115900000Y-73275000D03*
X109500000Y-135700000D03*
X197256400Y-116332000D03*
X114850000Y-113350000D03*
X101900000Y-126500000D03*
X124450000Y-134550000D03*
X155925000Y-128125000D03*
X111450000Y-123550000D03*
X162350000Y-84300000D03*
X114554000Y-134554000D03*
X122950000Y-129000000D03*
X109475000Y-126550000D03*
X159500000Y-102200000D03*
X157023000Y-84704000D03*
X144200000Y-101350000D03*
X166200000Y-93250000D03*
X162400000Y-95500000D03*
X142075000Y-110025000D03*
X158259000Y-115045200D03*
X170000000Y-130000000D03*
X144800000Y-112550000D03*
X158902600Y-100604400D03*
X133184100Y-120737800D03*
X193598800Y-116306600D03*
X147523200Y-101320600D03*
X145000000Y-87700000D03*
X153050000Y-96400000D03*
X183200000Y-129700000D03*
X167450000Y-127450000D03*
X160833000Y-87650400D03*
X106400000Y-89000000D03*
X140200000Y-93250000D03*
X121225000Y-65100000D03*
X119100000Y-95550000D03*
X102550000Y-95500000D03*
X148895000Y-84754800D03*
X153900000Y-115650000D03*
X107700000Y-99500000D03*
X142250000Y-80200000D03*
X144150000Y-99450000D03*
X152450000Y-105700000D03*
X117975000Y-128725000D03*
X179000000Y-125800000D03*
X192786000Y-79629000D03*
X138150000Y-118700000D03*
X110950000Y-95650000D03*
X179150000Y-129800000D03*
X154925000Y-84425000D03*
X115875000Y-72300000D03*
X134125000Y-109025000D03*
X195700000Y-124400000D03*
X144400000Y-86400000D03*
X135775000Y-73375000D03*
X138675000Y-109025000D03*
X151975000Y-79775000D03*
X129000000Y-92550000D03*
X107025000Y-116600000D03*
X104450000Y-113750000D03*
X119500000Y-128975000D03*
X162300000Y-100800000D03*
X138025000Y-114525000D03*
X194950000Y-120100000D03*
X154025000Y-128125000D03*
X108200000Y-131100000D03*
X117925000Y-134575000D03*
X141375000Y-128200000D03*
X188475000Y-132500000D03*
X178150000Y-133150000D03*
X170025000Y-131575000D03*
X144650000Y-115500000D03*
X166325000Y-134575000D03*
X128650000Y-128200000D03*
X113200000Y-111450000D03*
X110650000Y-111450000D03*
X144932600Y-93390800D03*
X160883800Y-94325600D03*
X144150000Y-97700000D03*
X118300000Y-110000000D03*
X152908200Y-84704000D03*
X106950000Y-111450000D03*
X118150000Y-113450000D03*
X125400000Y-102100000D03*
X104400000Y-111425000D03*
X152273000Y-101422200D03*
X122400000Y-115100000D03*
D41*
X137950000Y-103050000D03*
X112550000Y-91050000D03*
X156050000Y-109750000D03*
X181800000Y-109800000D03*
D40*
X160500000Y-137150000D03*
X140690600Y-136950000D03*
X143250000Y-134750000D03*
X161100000Y-134950000D03*
X134400000Y-141250000D03*
X159300000Y-135500000D03*
X145250000Y-135500000D03*
X161300000Y-136400000D03*
X147150000Y-136400000D03*
X174575000Y-134875000D03*
X172825000Y-135750000D03*
X169825000Y-136525000D03*
X176250000Y-134675000D03*
X185100000Y-134675000D03*
X183762500Y-136462500D03*
X178525000Y-136375000D03*
X180618600Y-137175000D03*
X138150000Y-147500000D03*
X131750000Y-147500000D03*
X164800000Y-146900000D03*
X140700000Y-147050000D03*
X165350000Y-131500000D03*
X157000000Y-131500000D03*
X167450000Y-147800000D03*
X143300000Y-147800000D03*
X145800000Y-142200000D03*
X152100000Y-142150000D03*
X144450000Y-143200000D03*
X129200000Y-146250000D03*
X162250000Y-146150000D03*
X149600000Y-143150000D03*
X159750000Y-137900000D03*
X142050000Y-137850000D03*
X174925000Y-142275000D03*
X172400000Y-143125000D03*
X173700000Y-141475000D03*
X168950000Y-137400000D03*
X184537500Y-135537500D03*
X177500000Y-135550000D03*
X182750000Y-138050000D03*
X181325000Y-142200000D03*
X187650000Y-142150000D03*
X180050000Y-143150000D03*
D41*
X167500000Y-81800000D03*
X172600000Y-84600000D03*
X170100000Y-80800000D03*
X175150000Y-83650000D03*
X194767200Y-105333800D03*
X129250000Y-114325000D03*
X192350000Y-129200000D03*
X139200000Y-104175000D03*
X136075000Y-109875000D03*
X140225000Y-109875000D03*
X166500000Y-108700000D03*
X160727600Y-100604400D03*
X180550000Y-108700000D03*
X165700000Y-114050000D03*
X142550000Y-115650000D03*
X158050000Y-107500000D03*
X131450000Y-113150000D03*
X154889200Y-101473000D03*
X156800000Y-106150000D03*
X143600000Y-108600000D03*
X145745200Y-101396800D03*
X170050000Y-120500000D03*
X191800000Y-120500000D03*
X164389000Y-103402200D03*
X180950000Y-129750000D03*
D40*
X186582600Y-94422800D03*
X157700000Y-96850000D03*
X186582600Y-96607200D03*
X155700000Y-97800000D03*
X182850000Y-104500000D03*
X180650000Y-104500000D03*
X150700000Y-106750000D03*
X116000000Y-124650000D03*
X112050000Y-125200000D03*
X119650000Y-103950000D03*
X110900000Y-106700000D03*
X152450000Y-107650000D03*
X134750000Y-102450000D03*
X134700000Y-96700000D03*
D41*
X168700000Y-130800000D03*
X165200000Y-117400000D03*
D40*
X167750000Y-114950000D03*
X125050000Y-121900000D03*
D41*
X141650000Y-130850000D03*
X154430000Y-130850000D03*
X128800000Y-135050000D03*
D40*
X135650000Y-98600000D03*
X135850000Y-102900000D03*
X133650000Y-102350000D03*
X133600000Y-95350000D03*
X168900000Y-113350000D03*
X142650000Y-114100000D03*
X132550000Y-99350000D03*
X132550000Y-102350000D03*
X169050000Y-116450000D03*
X125325000Y-123525000D03*
D41*
X149450000Y-121200000D03*
X146900000Y-121250000D03*
X126600000Y-131900000D03*
X126600000Y-129700000D03*
X159500000Y-118550000D03*
X153950000Y-118600000D03*
X161450000Y-121150000D03*
X152750000Y-121150000D03*
X163300000Y-119850000D03*
X153400000Y-119850000D03*
X152200000Y-124100000D03*
X157595000Y-124050000D03*
X193650000Y-124450000D03*
X197434200Y-127558800D03*
D42*
X124138800Y-134238800D02*
X124450000Y-134550000D01*
X148488200Y-83061800D02*
X146995000Y-84555000D01*
X151475000Y-116890000D02*
X151475000Y-115725000D01*
X174483000Y-133172200D02*
X175133000Y-133172200D01*
X119922200Y-101309600D02*
X118909600Y-101309600D01*
X164338200Y-90315600D02*
X161598200Y-90315600D01*
X135850000Y-120100000D02*
X135850000Y-120603700D01*
X137975000Y-134425000D02*
X137975000Y-132900000D01*
X108700000Y-134700000D02*
X108700000Y-134850000D01*
X151475000Y-115725000D02*
X151100000Y-115350000D01*
X108700000Y-134850000D02*
X108712000Y-134862000D01*
X115585200Y-110032800D02*
X114882800Y-110032800D01*
D43*
X192920400Y-102790600D02*
X193755400Y-102790600D01*
D42*
X109474000Y-126551000D02*
X109475000Y-126550000D01*
X175133000Y-126417000D02*
X175600000Y-125950000D01*
X124788800Y-134211200D02*
X124450000Y-134550000D01*
X159988200Y-81965600D02*
X159988200Y-83638800D01*
X159988200Y-104165600D02*
X159988200Y-102688200D01*
X114554000Y-134554000D02*
X114554000Y-132966000D01*
X151475000Y-111150000D02*
X151475000Y-112525000D01*
X125150000Y-96200000D02*
X125150000Y-97250000D01*
X135435000Y-134435000D02*
X135450000Y-134450000D01*
X122377200Y-108522800D02*
X122400000Y-108500000D01*
X150488200Y-100795600D02*
X150347800Y-100655200D01*
X145625000Y-110025000D02*
X145000000Y-109400000D01*
D43*
X195564800Y-79654400D02*
X196443600Y-79654400D01*
D42*
X150825000Y-116890000D02*
X150825000Y-115625000D01*
X151475000Y-112525000D02*
X151300000Y-112700000D01*
X155700000Y-125975000D02*
X155700000Y-127900000D01*
X135435000Y-127285000D02*
X135450000Y-127300000D01*
D43*
X193755400Y-102790600D02*
X194900400Y-101645600D01*
D42*
X185813600Y-132288600D02*
X185525000Y-132000000D01*
X164338200Y-84315600D02*
X162365600Y-84315600D01*
X143907800Y-96315600D02*
X144932600Y-95290800D01*
X162365600Y-84315600D02*
X162350000Y-84300000D01*
X101950000Y-126550000D02*
X101900000Y-126500000D01*
X185813600Y-127432200D02*
X185813600Y-129186400D01*
X138550000Y-135000000D02*
X137975000Y-134425000D01*
X114350000Y-125850000D02*
X113284000Y-126916000D01*
D43*
X196342000Y-116332000D02*
X197256400Y-116332000D01*
D42*
X146995000Y-84555000D02*
X146995000Y-84754800D01*
X151488200Y-81965600D02*
X151488200Y-84224000D01*
X142955000Y-127880000D02*
X143275000Y-128200000D01*
X109129000Y-95529000D02*
X109150000Y-95550000D01*
X136075000Y-115625000D02*
X136066400Y-115633600D01*
X175133000Y-127432200D02*
X175133000Y-126417000D01*
D43*
X194900400Y-97065600D02*
X194900400Y-92485600D01*
D42*
X109436000Y-135636000D02*
X109500000Y-135700000D01*
X194634200Y-127558800D02*
X193758800Y-127558800D01*
X108712000Y-134862000D02*
X108712000Y-135636000D01*
X151488200Y-84224000D02*
X151008200Y-84704000D01*
X150825000Y-115625000D02*
X151100000Y-115350000D01*
X114882800Y-110032800D02*
X114800000Y-109950000D01*
X108712000Y-135636000D02*
X109436000Y-135636000D01*
X130355000Y-125975000D02*
X132895000Y-125975000D01*
X136006000Y-72581000D02*
X135725000Y-72300000D01*
X135850000Y-120603700D02*
X135884100Y-120637800D01*
X175133000Y-133172200D02*
X175133000Y-131742000D01*
X130355000Y-128005000D02*
X130550000Y-128200000D01*
X109474000Y-128016000D02*
X109474000Y-126551000D01*
X108204000Y-134204000D02*
X108700000Y-134700000D01*
X185813600Y-133172200D02*
X185813600Y-132288600D01*
X114885600Y-113385600D02*
X114850000Y-113350000D01*
X142138200Y-96315600D02*
X143907800Y-96315600D01*
X104355200Y-109155200D02*
X104350000Y-109150000D01*
X148488200Y-81965600D02*
X148488200Y-83061800D01*
X163320000Y-132900000D02*
X163320000Y-133920000D01*
X145625000Y-111150000D02*
X145625000Y-110025000D01*
X135435000Y-125975000D02*
X136705000Y-125975000D01*
X164338200Y-99815600D02*
X162665600Y-99815600D01*
X122377200Y-110032800D02*
X122377200Y-108522800D01*
X130355000Y-125975000D02*
X130355000Y-128005000D01*
X104308600Y-99491400D02*
X104300000Y-99500000D01*
X142138200Y-90315600D02*
X144315600Y-90315600D01*
X116094000Y-73081000D02*
X115900000Y-73275000D01*
X175133000Y-131742000D02*
X175150000Y-131725000D01*
X185813600Y-133172200D02*
X185163600Y-133172200D01*
X133184100Y-118137800D02*
X133184100Y-117437800D01*
X164338200Y-92815600D02*
X161273800Y-92815600D01*
X105029400Y-99491400D02*
X104308600Y-99491400D01*
X142955000Y-125975000D02*
X142955000Y-127880000D01*
X144134400Y-85315600D02*
X144350000Y-85100000D01*
X150575000Y-132900000D02*
X151150000Y-132900000D01*
X116150000Y-88925000D02*
X117625000Y-88925000D01*
X115671600Y-113385600D02*
X114885600Y-113385600D01*
X152988200Y-104165600D02*
X152988200Y-102411800D01*
X152988200Y-102411800D02*
X153550000Y-101850000D01*
X162665600Y-99815600D02*
X162100000Y-99250000D01*
X137312400Y-72581000D02*
X136006000Y-72581000D01*
X118938800Y-126138800D02*
X118750000Y-125950000D01*
D43*
X157116000Y-112175000D02*
X156100000Y-112175000D01*
D42*
X109905800Y-123545600D02*
X111445600Y-123545600D01*
X144315600Y-90315600D02*
X145000000Y-91000000D01*
X117619400Y-95630600D02*
X117650000Y-95600000D01*
X107589800Y-95529000D02*
X109129000Y-95529000D01*
X161273800Y-92815600D02*
X160883800Y-92425600D01*
X117612400Y-73081000D02*
X116094000Y-73081000D01*
X118425000Y-65125000D02*
X117550000Y-65125000D01*
X111445600Y-123545600D02*
X111450000Y-123550000D01*
X105663200Y-109155200D02*
X104355200Y-109155200D01*
X161598200Y-90315600D02*
X160833000Y-89550400D01*
X142138200Y-85315600D02*
X144134400Y-85315600D01*
X124788800Y-127381800D02*
X124788800Y-126586200D01*
X118938800Y-127381800D02*
X118938800Y-126138800D01*
X124788800Y-133121800D02*
X124788800Y-134211200D01*
X116117400Y-95630600D02*
X117619400Y-95630600D01*
D43*
X158284400Y-111768600D02*
X158259000Y-111743200D01*
D42*
X159988200Y-83638800D02*
X158923000Y-84704000D01*
X150488200Y-104165600D02*
X150488200Y-100795600D01*
X117625000Y-88925000D02*
X117650000Y-88950000D01*
X124138800Y-133121800D02*
X124138800Y-134238800D01*
X112014000Y-134514000D02*
X112050000Y-134550000D01*
X155700000Y-127900000D02*
X155925000Y-128125000D01*
X113284000Y-126916000D02*
X113284000Y-128016000D01*
X185813600Y-129186400D02*
X185550000Y-129450000D01*
X108204000Y-132966000D02*
X108204000Y-134204000D01*
X159988200Y-102688200D02*
X159500000Y-102200000D01*
D43*
X158284400Y-112429000D02*
X158284400Y-111768600D01*
D42*
X135435000Y-125975000D02*
X135435000Y-127285000D01*
X118909600Y-101309600D02*
X118900000Y-101300000D01*
X136066400Y-115633600D02*
X133462000Y-115633600D01*
X135435000Y-132900000D02*
X135435000Y-134435000D01*
D43*
X157370000Y-112429000D02*
X157116000Y-112175000D01*
X158284400Y-112429000D02*
X157370000Y-112429000D01*
D42*
X110364000Y-116586000D02*
X110400000Y-116550000D01*
X112014000Y-132966000D02*
X112014000Y-134514000D01*
X124788800Y-126586200D02*
X125275000Y-126100000D01*
X193758800Y-127558800D02*
X193750000Y-127550000D01*
X102850000Y-126550000D02*
X101950000Y-126550000D01*
X139400000Y-80200000D02*
X138700000Y-80200000D01*
X109702600Y-116586000D02*
X110364000Y-116586000D01*
X163320000Y-133920000D02*
X163700000Y-134300000D01*
X128960000Y-92590000D02*
X129000000Y-92550000D01*
X144975000Y-111150000D02*
X144975000Y-112375000D01*
X118288800Y-127381800D02*
X118288800Y-128411200D01*
D43*
X156100000Y-114715000D02*
X156709600Y-114715000D01*
D42*
X105663200Y-113755200D02*
X104455200Y-113755200D01*
X119134400Y-95584400D02*
X119100000Y-95550000D01*
D43*
X193664800Y-79654400D02*
X192811400Y-79654400D01*
X158284400Y-115019800D02*
X158259000Y-115045200D01*
D42*
X179313600Y-126113600D02*
X179000000Y-125800000D01*
D43*
X193624200Y-116332000D02*
X193598800Y-116306600D01*
D42*
X102579000Y-95529000D02*
X102550000Y-95500000D01*
X116156000Y-72581000D02*
X117612400Y-72581000D01*
X161667800Y-86815600D02*
X160833000Y-87650400D01*
X153988200Y-83488200D02*
X154925000Y-84425000D01*
X107802600Y-116586000D02*
X107039000Y-116586000D01*
X142075000Y-111525000D02*
X141775000Y-111825000D01*
X117638800Y-127381800D02*
X117638800Y-128388800D01*
X138125000Y-118200000D02*
X138125000Y-118675000D01*
D43*
X194442000Y-116332000D02*
X193624200Y-116332000D01*
D42*
X121200000Y-65125000D02*
X121225000Y-65100000D01*
X164338200Y-86815600D02*
X161667800Y-86815600D01*
X167983000Y-127432200D02*
X167467800Y-127432200D01*
X155488200Y-83169200D02*
X157023000Y-84704000D01*
X157488200Y-104165600D02*
X157488200Y-102018800D01*
X144015600Y-99315600D02*
X144150000Y-99450000D01*
X179313600Y-127432200D02*
X179313600Y-126113600D01*
X143734400Y-101815600D02*
X142138200Y-101815600D01*
X153988200Y-81965600D02*
X153988200Y-83488200D01*
X137312400Y-73081000D02*
X136069000Y-73081000D01*
X178663600Y-127432200D02*
X178663600Y-126136400D01*
X133184100Y-120037800D02*
X133184100Y-120737800D01*
X152488200Y-105661800D02*
X152450000Y-105700000D01*
X119870600Y-95584400D02*
X119134400Y-95584400D01*
X148988200Y-81965600D02*
X148988200Y-84661600D01*
X128960000Y-93400000D02*
X128960000Y-92590000D01*
D43*
X192811400Y-79654400D02*
X192786000Y-79629000D01*
D42*
X120325000Y-65125000D02*
X121200000Y-65125000D01*
X116156000Y-72581000D02*
X115875000Y-72300000D01*
X195736200Y-124363800D02*
X195700000Y-124400000D01*
X141623600Y-111823600D02*
X140672000Y-111823600D01*
X140765600Y-93815600D02*
X140200000Y-93250000D01*
X142075000Y-110025000D02*
X142075000Y-111525000D01*
X144325000Y-111150000D02*
X144325000Y-112075000D01*
X152488200Y-104165600D02*
X152488200Y-105661800D01*
X107187200Y-88975800D02*
X106424200Y-88975800D01*
X194992000Y-120142000D02*
X194950000Y-120100000D01*
X106424200Y-88975800D02*
X106400000Y-89000000D01*
X151988200Y-79788200D02*
X151975000Y-79775000D01*
X103989800Y-95529000D02*
X102579000Y-95529000D01*
X144325000Y-112075000D02*
X144800000Y-112550000D01*
D43*
X158284400Y-114329000D02*
X158284400Y-115019800D01*
D42*
X141625000Y-111825000D02*
X141623600Y-111823600D01*
X142138200Y-99315600D02*
X144015600Y-99315600D01*
X148988200Y-84661600D02*
X148895000Y-84754800D01*
X110969400Y-95630600D02*
X110950000Y-95650000D01*
X164338200Y-93315600D02*
X166134400Y-93315600D01*
X162584400Y-95315600D02*
X162400000Y-95500000D01*
D43*
X157095600Y-114329000D02*
X158284400Y-114329000D01*
D42*
X153900000Y-114715000D02*
X153900000Y-115650000D01*
X140634400Y-92815600D02*
X140200000Y-93250000D01*
X167467800Y-127432200D02*
X167450000Y-127450000D01*
X107691400Y-99491400D02*
X107700000Y-99500000D01*
X141300000Y-80200000D02*
X142250000Y-80200000D01*
X106929400Y-99491400D02*
X107691400Y-99491400D01*
X164338200Y-100315600D02*
X162784400Y-100315600D01*
X157488200Y-102018800D02*
X158902600Y-100604400D01*
X138125000Y-118675000D02*
X138150000Y-118700000D01*
X107039000Y-116586000D02*
X107025000Y-116600000D01*
D43*
X146988200Y-101855600D02*
X147523200Y-101320600D01*
D42*
X195736200Y-123444000D02*
X195736200Y-124363800D01*
X117638800Y-128388800D02*
X117975000Y-128725000D01*
X143815600Y-85815600D02*
X144400000Y-86400000D01*
X141775000Y-111825000D02*
X141625000Y-111825000D01*
X168633000Y-127432200D02*
X167983000Y-127432200D01*
X151988200Y-81965600D02*
X151988200Y-79788200D01*
X162784400Y-100315600D02*
X162300000Y-100800000D01*
X136069000Y-73081000D02*
X135775000Y-73375000D01*
X166134400Y-93315600D02*
X166200000Y-93250000D01*
X178663600Y-126136400D02*
X179000000Y-125800000D01*
X144975000Y-112375000D02*
X144800000Y-112550000D01*
D43*
X156709600Y-114715000D02*
X157095600Y-114329000D01*
D42*
X142138200Y-92815600D02*
X140634400Y-92815600D01*
X104455200Y-113755200D02*
X104450000Y-113750000D01*
X164338200Y-95315600D02*
X162584400Y-95315600D01*
X112517400Y-95630600D02*
X110969400Y-95630600D01*
X155488200Y-81965600D02*
X155488200Y-83169200D01*
D43*
X146988200Y-104165600D02*
X146988200Y-101855600D01*
D42*
X142138200Y-93815600D02*
X140765600Y-93815600D01*
X144200000Y-101350000D02*
X143734400Y-101815600D01*
X142138200Y-85815600D02*
X143815600Y-85815600D01*
X195787000Y-120142000D02*
X194992000Y-120142000D01*
X118288800Y-128411200D02*
X117975000Y-128725000D01*
X144325000Y-119525000D02*
X144325000Y-116890000D01*
D44*
X106934000Y-132966000D02*
X106934000Y-135514000D01*
D42*
X118288800Y-134211200D02*
X117925000Y-134575000D01*
X117638800Y-133121800D02*
X117638800Y-134288800D01*
D44*
X108204000Y-128016000D02*
X108204000Y-131096000D01*
D42*
X141685000Y-122165000D02*
X144325000Y-119525000D01*
X166325000Y-134575000D02*
X167650000Y-134575000D01*
X141685000Y-125975000D02*
X141685000Y-122165000D01*
D44*
X104750000Y-126550000D02*
X106305800Y-124994200D01*
X106934000Y-132366000D02*
X108200000Y-131100000D01*
D42*
X118288800Y-133121800D02*
X118288800Y-134211200D01*
D44*
X108204000Y-131096000D02*
X108200000Y-131100000D01*
D42*
X144975000Y-116890000D02*
X144975000Y-115825000D01*
X117638800Y-134288800D02*
X117925000Y-134575000D01*
X129085000Y-127765000D02*
X128650000Y-128200000D01*
D44*
X106934000Y-128016000D02*
X106934000Y-129834000D01*
D42*
X144975000Y-115825000D02*
X144650000Y-115500000D01*
X154430000Y-127720000D02*
X154025000Y-128125000D01*
X178663600Y-133172200D02*
X178172200Y-133172200D01*
X167650000Y-134575000D02*
X167983000Y-134242000D01*
D44*
X106700000Y-126550000D02*
X106934000Y-126784000D01*
D42*
X178172200Y-133172200D02*
X178150000Y-133150000D01*
X144325000Y-116890000D02*
X144325000Y-115825000D01*
D44*
X106934000Y-126784000D02*
X106934000Y-128016000D01*
X104750000Y-126550000D02*
X106700000Y-126550000D01*
X106934000Y-129834000D02*
X108200000Y-131100000D01*
D42*
X141685000Y-125975000D02*
X141685000Y-127890000D01*
X154430000Y-125975000D02*
X154430000Y-127720000D01*
D44*
X106305800Y-124994200D02*
X106305800Y-123545600D01*
D42*
X144325000Y-115825000D02*
X144650000Y-115500000D01*
X167983000Y-134242000D02*
X167983000Y-133172200D01*
X141685000Y-127890000D02*
X141375000Y-128200000D01*
X129085000Y-125975000D02*
X129085000Y-127765000D01*
D45*
X105663200Y-111455200D02*
X104430200Y-111455200D01*
D42*
X161393800Y-93815600D02*
X160883800Y-94325600D01*
X104430200Y-111455200D02*
X104400000Y-111425000D01*
X125404000Y-101168600D02*
X125404000Y-102096000D01*
X122377200Y-115077200D02*
X122400000Y-115100000D01*
D45*
X111963200Y-111455200D02*
X110655200Y-111455200D01*
D42*
X117496600Y-113385600D02*
X118085600Y-113385600D01*
X142138200Y-93315600D02*
X144857400Y-93315600D01*
X152488200Y-84284000D02*
X152908200Y-84704000D01*
X144857400Y-93315600D02*
X144932600Y-93390800D01*
X122377200Y-113632800D02*
X122377200Y-115077200D01*
X113194800Y-111455200D02*
X113200000Y-111450000D01*
X152488200Y-81965600D02*
X152488200Y-84284000D01*
X110655200Y-111455200D02*
X110650000Y-111450000D01*
X118267200Y-110032800D02*
X118300000Y-110000000D01*
X125404000Y-102096000D02*
X125400000Y-102100000D01*
X106944800Y-111455200D02*
X106950000Y-111450000D01*
D43*
X151988200Y-104165600D02*
X151988200Y-101707000D01*
D42*
X142138200Y-97815600D02*
X144034400Y-97815600D01*
X117485200Y-110032800D02*
X118267200Y-110032800D01*
D45*
X111963200Y-111455200D02*
X113194800Y-111455200D01*
D43*
X151988200Y-101707000D02*
X152273000Y-101422200D01*
D42*
X164338200Y-93815600D02*
X161393800Y-93815600D01*
D45*
X105663200Y-111455200D02*
X106944800Y-111455200D01*
D42*
X118085600Y-113385600D02*
X118150000Y-113450000D01*
X144034400Y-97815600D02*
X144150000Y-97700000D01*
D46*
X143100000Y-103050000D02*
X143450000Y-102700000D01*
X143450000Y-102700000D02*
X144300000Y-102700000D01*
X112550000Y-91050000D02*
X112550000Y-88925000D01*
X144488200Y-102888200D02*
X144300000Y-102700000D01*
X109012200Y-88975800D02*
X112499200Y-88975800D01*
X137950000Y-103050000D02*
X143100000Y-103050000D01*
X144488200Y-104165600D02*
X144488200Y-102888200D01*
X181800000Y-109800000D02*
X181800000Y-111800000D01*
X154463200Y-108163200D02*
X156050000Y-109750000D01*
X190150000Y-132200000D02*
X191554000Y-133604000D01*
X190150000Y-120150000D02*
X190150000Y-132200000D01*
X191554000Y-133604000D02*
X194608800Y-133604000D01*
X154463200Y-104186800D02*
X154463200Y-108163200D01*
X181800000Y-111800000D02*
X190150000Y-120150000D01*
D42*
X119588800Y-133121800D02*
X119588800Y-135763800D01*
X119588800Y-135763800D02*
X122910600Y-139085600D01*
X124500000Y-136975000D02*
X125450600Y-137925600D01*
X125450600Y-137925600D02*
X125450600Y-139598400D01*
X122850000Y-136975000D02*
X124500000Y-136975000D01*
X120888800Y-133121800D02*
X120888800Y-135013800D01*
X120888800Y-135013800D02*
X122850000Y-136975000D01*
X122188800Y-134116800D02*
X123872000Y-135800000D01*
X123872000Y-135800000D02*
X127000000Y-135800000D01*
X127990600Y-136790600D02*
X127990600Y-139598400D01*
X122188800Y-133121800D02*
X122188800Y-134116800D01*
X127000000Y-135800000D02*
X127990600Y-136790600D01*
D46*
X128960000Y-96200000D02*
X128960000Y-99245800D01*
D42*
X136950000Y-136050000D02*
X137400000Y-135600000D01*
X135610600Y-144678400D02*
X135610600Y-143289400D01*
X135610600Y-143289400D02*
X136950000Y-141950000D01*
X137000000Y-119450000D02*
X136700000Y-119150000D01*
X136700000Y-119150000D02*
X135850000Y-119150000D01*
X137000000Y-121250000D02*
X137000000Y-119450000D01*
X137300000Y-126935124D02*
X137300000Y-121550000D01*
X137400000Y-135600000D02*
X137400000Y-127035124D01*
X137400000Y-127035124D02*
X137300000Y-126935124D01*
X137300000Y-121550000D02*
X137000000Y-121250000D01*
X136950000Y-141950000D02*
X136950000Y-136050000D01*
D46*
X122615600Y-95584400D02*
X123400000Y-94800000D01*
X124650000Y-94800000D02*
X125150000Y-94300000D01*
X125150000Y-94300000D02*
X125150000Y-93400000D01*
X123400000Y-94800000D02*
X124650000Y-94800000D01*
X121695600Y-95584400D02*
X122615600Y-95584400D01*
D42*
X160195000Y-130120000D02*
X158240000Y-128165000D01*
X158240000Y-128165000D02*
X158240000Y-125975000D01*
X160500000Y-137150000D02*
X160195000Y-136845000D01*
X160195000Y-136845000D02*
X160195000Y-130120000D01*
X140690600Y-136950000D02*
X140690600Y-139598400D01*
X143250000Y-134750000D02*
X143230600Y-134769400D01*
X160780000Y-134630000D02*
X160780000Y-132900000D01*
X161100000Y-134950000D02*
X160780000Y-134630000D01*
X143230600Y-134769400D02*
X143230600Y-139598400D01*
X145770600Y-137079400D02*
X145770600Y-139598400D01*
X145950000Y-129450000D02*
X146100000Y-129600000D01*
X145495000Y-128845000D02*
X145950000Y-129300000D01*
X146100000Y-136750000D02*
X145770600Y-137079400D01*
X146100000Y-129600000D02*
X146100000Y-136750000D01*
X145950000Y-129300000D02*
X145950000Y-129450000D01*
X145495000Y-125975000D02*
X145495000Y-128845000D01*
X148310600Y-134810600D02*
X148310600Y-139598400D01*
X148035000Y-134535000D02*
X148310600Y-134810600D01*
X148035000Y-132900000D02*
X148035000Y-134535000D01*
X134165000Y-132900000D02*
X134165000Y-138315000D01*
X134400000Y-138550000D02*
X134400000Y-141250000D01*
X134165000Y-138315000D02*
X134400000Y-138550000D01*
X153390600Y-136709400D02*
X155050000Y-135050000D01*
X155050000Y-135050000D02*
X155050000Y-131750000D01*
X156970000Y-129830000D02*
X156970000Y-125975000D01*
X155050000Y-131750000D02*
X156970000Y-129830000D01*
X153390600Y-139598400D02*
X153390600Y-136709400D01*
X156750000Y-135050000D02*
X157250000Y-134550000D01*
X156750000Y-136050000D02*
X156750000Y-135050000D01*
X155930600Y-136869400D02*
X156750000Y-136050000D01*
X157250000Y-134550000D02*
X159200000Y-134550000D01*
X159510000Y-134240000D02*
X159510000Y-132900000D01*
X155930600Y-139598400D02*
X155930600Y-136869400D01*
X159200000Y-134550000D02*
X159510000Y-134240000D01*
X144850000Y-134250000D02*
X145250000Y-134650000D01*
X145250000Y-134650000D02*
X145250000Y-135500000D01*
X144850000Y-130450000D02*
X144225000Y-129825000D01*
X158470600Y-136720600D02*
X158470600Y-139598400D01*
X159300000Y-135850000D02*
X158450000Y-136700000D01*
X159300000Y-135500000D02*
X159300000Y-135850000D01*
X144850000Y-134250000D02*
X144850000Y-130450000D01*
X144225000Y-129825000D02*
X144225000Y-125975000D01*
X158450000Y-136700000D02*
X158470600Y-136720600D01*
X161300000Y-138150000D02*
X161010600Y-138439400D01*
X146765000Y-136015000D02*
X146765000Y-132900000D01*
X147150000Y-136400000D02*
X146765000Y-136015000D01*
X161300000Y-136400000D02*
X161300000Y-138150000D01*
X161010600Y-138439400D02*
X161010600Y-139598400D01*
X173833000Y-134133000D02*
X174575000Y-134875000D01*
X173833000Y-133172200D02*
X173833000Y-134133000D01*
X172825000Y-135750000D02*
X172533000Y-135458000D01*
X172533000Y-135458000D02*
X172533000Y-133172200D01*
X171233000Y-133172200D02*
X171233000Y-139536000D01*
X169933000Y-136417000D02*
X169933000Y-133172200D01*
X169825000Y-136525000D02*
X169933000Y-136417000D01*
X176250000Y-134675000D02*
X176250600Y-134675600D01*
X176250600Y-134675600D02*
X176250600Y-139598400D01*
X184513600Y-134088600D02*
X184513600Y-133172200D01*
X185100000Y-134675000D02*
X184513600Y-134088600D01*
X178525000Y-136375000D02*
X178525000Y-136984400D01*
X183213600Y-135913600D02*
X183213600Y-133172200D01*
X178525000Y-136984400D02*
X178790600Y-137250000D01*
X178790600Y-137250000D02*
X178790600Y-139598400D01*
X183762500Y-136462500D02*
X183213600Y-135913600D01*
X181913600Y-137536400D02*
X181330600Y-138119400D01*
X181913600Y-133172200D02*
X181913600Y-137536400D01*
X181330600Y-138119400D02*
X181330600Y-139598400D01*
X180613600Y-133172200D02*
X180613600Y-137170000D01*
X180613600Y-137170000D02*
X180618600Y-137175000D01*
D43*
X198831200Y-122021600D02*
X198831200Y-130022600D01*
X197612000Y-120802400D02*
X198831200Y-122021600D01*
X197612000Y-120142000D02*
X197612000Y-120802400D01*
X198831200Y-130022600D02*
X198297800Y-130556000D01*
X198297800Y-130556000D02*
X197459600Y-130556000D01*
D46*
X120370600Y-144678400D02*
X116550000Y-140857800D01*
X116550000Y-138275000D02*
X113284000Y-135009000D01*
X113284000Y-135009000D02*
X113284000Y-132966000D01*
X116550000Y-140857800D02*
X116550000Y-138275000D01*
D42*
X122910600Y-142710600D02*
X122910600Y-144678400D01*
X118938800Y-133121800D02*
X118938800Y-136038800D01*
X121675000Y-141475000D02*
X122910600Y-142710600D01*
X118938800Y-136038800D02*
X121675000Y-138775000D01*
X121675000Y-138775000D02*
X121675000Y-141475000D01*
X124150000Y-141425000D02*
X125450600Y-142725600D01*
X120238800Y-133121800D02*
X120238800Y-135488800D01*
X120238800Y-135488800D02*
X122350000Y-137600000D01*
X124150000Y-138250000D02*
X124150000Y-141425000D01*
X123500000Y-137600000D02*
X124150000Y-138250000D01*
X122350000Y-137600000D02*
X123500000Y-137600000D01*
X125450600Y-142725600D02*
X125450600Y-144678400D01*
X126700000Y-141225000D02*
X127990600Y-142515600D01*
X121538800Y-133121800D02*
X121538800Y-134663800D01*
X127990600Y-142515600D02*
X127990600Y-144678400D01*
X123250000Y-136375000D02*
X125650000Y-136375000D01*
X126700000Y-137425000D02*
X126700000Y-141225000D01*
X121538800Y-134663800D02*
X123250000Y-136375000D01*
X125650000Y-136375000D02*
X126700000Y-137425000D01*
X140259100Y-119962800D02*
X141534100Y-119962800D01*
X140071900Y-120100000D02*
X140234100Y-119937800D01*
X138125000Y-120100000D02*
X140071900Y-120100000D01*
X140234100Y-119937800D02*
X140259100Y-119962800D01*
X138150600Y-147149400D02*
X138150600Y-144678400D01*
X138150000Y-147150000D02*
X138150600Y-147149400D01*
X138150000Y-147500000D02*
X138150000Y-147150000D01*
X131750000Y-138550000D02*
X131750000Y-147500000D01*
X131625000Y-138425000D02*
X131750000Y-138550000D01*
X131625000Y-132900000D02*
X131625000Y-138425000D01*
X140690600Y-147040600D02*
X140690600Y-144678400D01*
X162655000Y-129255000D02*
X162050000Y-128650000D01*
X162050000Y-128650000D02*
X162050000Y-125975000D01*
X164800000Y-136550000D02*
X162655000Y-134405000D01*
X140700000Y-147050000D02*
X140690600Y-147040600D01*
X164800000Y-146900000D02*
X164800000Y-136550000D01*
X162655000Y-134405000D02*
X162655000Y-129255000D01*
X143230600Y-144678400D02*
X143230600Y-147730600D01*
X157000000Y-131500000D02*
X157000000Y-132870000D01*
X165350000Y-135800000D02*
X167450000Y-137900000D01*
X143230600Y-147730600D02*
X143300000Y-147800000D01*
X167450000Y-147800000D02*
X167450000Y-137900000D01*
X165350000Y-135800000D02*
X165350000Y-131500000D01*
X149305000Y-125975000D02*
X149305000Y-128355000D01*
X145800000Y-142200000D02*
X145770600Y-142229400D01*
X149305000Y-128355000D02*
X152100000Y-131150000D01*
X152100000Y-131150000D02*
X152100000Y-142150000D01*
X145770600Y-142229400D02*
X145770600Y-144678400D01*
X144225000Y-132900000D02*
X144225000Y-136325000D01*
X144450000Y-136550000D02*
X144450000Y-143200000D01*
X144225000Y-136325000D02*
X144450000Y-136550000D01*
X129200000Y-137200000D02*
X129200000Y-146250000D01*
X130355000Y-132900000D02*
X130355000Y-136045000D01*
X130355000Y-136045000D02*
X129200000Y-137200000D01*
X162250000Y-134900000D02*
X162250000Y-146150000D01*
X160780000Y-129430000D02*
X161445000Y-130095000D01*
X160780000Y-125975000D02*
X160780000Y-129430000D01*
X161445000Y-130095000D02*
X161445000Y-134095000D01*
X161445000Y-134095000D02*
X162250000Y-134900000D01*
X155700000Y-135550000D02*
X154700000Y-136550000D01*
X155700000Y-132900000D02*
X155700000Y-135550000D01*
X154700000Y-136550000D02*
X154700000Y-141250000D01*
X154700000Y-141250000D02*
X155930600Y-142480600D01*
X155930600Y-142480600D02*
X155930600Y-144678400D01*
X148035000Y-128635000D02*
X149910000Y-130510000D01*
X148035000Y-125975000D02*
X148035000Y-128635000D01*
X149910000Y-130510000D02*
X149910000Y-137140000D01*
X149600000Y-137450000D02*
X149600000Y-143150000D01*
X149910000Y-137140000D02*
X149600000Y-137450000D01*
X142955000Y-133945000D02*
X142955000Y-132900000D01*
X142050000Y-137850000D02*
X142050000Y-134850000D01*
X159750000Y-141350000D02*
X161010600Y-142610600D01*
X159750000Y-137900000D02*
X159750000Y-141350000D01*
X142050000Y-134850000D02*
X142955000Y-133945000D01*
X161010600Y-142610600D02*
X161010600Y-144678400D01*
X173183000Y-134933000D02*
X174925000Y-136675000D01*
X173183000Y-133172200D02*
X173183000Y-134933000D01*
X174925000Y-136675000D02*
X174925000Y-142275000D01*
X171883000Y-137108000D02*
X171883000Y-133172200D01*
X172450000Y-143075000D02*
X172450000Y-137675000D01*
X172400000Y-143125000D02*
X172450000Y-143075000D01*
X172450000Y-137675000D02*
X171883000Y-137108000D01*
X171170600Y-142495600D02*
X171170600Y-144678400D01*
X169925000Y-138025000D02*
X169925000Y-141250000D01*
X169925000Y-141250000D02*
X171170600Y-142495600D01*
X170583000Y-137367000D02*
X169925000Y-138025000D01*
X170583000Y-133172200D02*
X170583000Y-137367000D01*
X173700000Y-141475000D02*
X173710600Y-141485600D01*
X168950000Y-135150000D02*
X169283000Y-134817000D01*
X173710600Y-141485600D02*
X173710600Y-144678400D01*
X168950000Y-137400000D02*
X168950000Y-135150000D01*
X169283000Y-134817000D02*
X169283000Y-133172200D01*
X184537500Y-135537500D02*
X183863600Y-134863600D01*
X177500000Y-135550000D02*
X177500000Y-141325000D01*
X177500000Y-141325000D02*
X176250600Y-142574400D01*
X183863600Y-134863600D02*
X183863600Y-133172200D01*
X176250600Y-142574400D02*
X176250600Y-144678400D01*
X182750000Y-138050000D02*
X182563600Y-137863600D01*
X182563600Y-137863600D02*
X182563600Y-133172200D01*
X187650000Y-142150000D02*
X187725000Y-142075000D01*
X187725000Y-142075000D02*
X187725000Y-137600000D01*
X186950000Y-131975000D02*
X186200000Y-131225000D01*
X186950000Y-136825000D02*
X186950000Y-131975000D01*
X181330600Y-142205600D02*
X181330600Y-144678400D01*
X186200000Y-131225000D02*
X181875000Y-131225000D01*
X181325000Y-142200000D02*
X181330600Y-142205600D01*
X181875000Y-131225000D02*
X181263600Y-131836400D01*
X187725000Y-137600000D02*
X186950000Y-136825000D01*
X181263600Y-131836400D02*
X181263600Y-133172200D01*
X180025000Y-143125000D02*
X180025000Y-138450000D01*
X180050000Y-143150000D02*
X180025000Y-143125000D01*
X179963600Y-138388600D02*
X179963600Y-133172200D01*
X180025000Y-138450000D02*
X179963600Y-138388600D01*
D46*
X116100000Y-130775000D02*
X114554000Y-129229000D01*
X120370600Y-139598400D02*
X116100000Y-135327800D01*
X114554000Y-129229000D02*
X114554000Y-128016000D01*
X116100000Y-135327800D02*
X116100000Y-130775000D01*
X161988200Y-81965600D02*
X161988200Y-81061800D01*
X162350000Y-80700000D02*
X166400000Y-80700000D01*
X161988200Y-81061800D02*
X162350000Y-80700000D01*
X166400000Y-80700000D02*
X167500000Y-81800000D01*
X164340600Y-85340600D02*
X167059400Y-85340600D01*
X167700000Y-84700000D02*
X172500000Y-84700000D01*
X167059400Y-85340600D02*
X167700000Y-84700000D01*
X172500000Y-84700000D02*
X172600000Y-84600000D01*
X161488200Y-81965600D02*
X161488200Y-80411800D01*
X161488200Y-80411800D02*
X161900000Y-80000000D01*
X161900000Y-80000000D02*
X169300000Y-80000000D01*
X169300000Y-80000000D02*
X170100000Y-80800000D01*
X166334400Y-84815600D02*
X167500000Y-83650000D01*
X164338200Y-84815600D02*
X166334400Y-84815600D01*
X167500000Y-83650000D02*
X175150000Y-83650000D01*
D43*
X188458400Y-74371200D02*
X188458400Y-83155800D01*
X189534800Y-83159600D02*
X190246000Y-83870800D01*
X190246000Y-83870800D02*
X190246000Y-92379800D01*
X188454600Y-83159600D02*
X189534800Y-83159600D01*
X191496800Y-93630600D02*
X192920400Y-93630600D01*
X190246000Y-92379800D02*
X191496800Y-93630600D01*
X190438200Y-96607200D02*
X188407600Y-96607200D01*
X191124800Y-95920600D02*
X190438200Y-96607200D01*
X188458400Y-85482000D02*
X188458400Y-96556400D01*
X192920400Y-95920600D02*
X191124800Y-95920600D01*
X190460400Y-98210600D02*
X192920400Y-98210600D01*
X188315600Y-98856800D02*
X188315600Y-107824400D01*
X188315600Y-98856800D02*
X189814200Y-98856800D01*
X189814200Y-98856800D02*
X190460400Y-98210600D01*
X198780400Y-105079800D02*
X198780400Y-100888800D01*
X188264800Y-112217200D02*
X189052200Y-112217200D01*
X190906400Y-108889800D02*
X193243200Y-106553000D01*
X189052200Y-112217200D02*
X190906400Y-110363000D01*
X196880400Y-100500600D02*
X198392200Y-100500600D01*
X198392200Y-100500600D02*
X198780400Y-100888800D01*
X193243200Y-106553000D02*
X197307200Y-106553000D01*
X190906400Y-110363000D02*
X190906400Y-108889800D01*
X197307200Y-106553000D02*
X198780400Y-105079800D01*
X188264800Y-110083600D02*
X193014600Y-105333800D01*
X193014600Y-105333800D02*
X194767200Y-105333800D01*
D46*
X129250000Y-114325000D02*
X133423400Y-114325000D01*
X193106000Y-130556000D02*
X194659600Y-130556000D01*
X144988200Y-105611800D02*
X144988200Y-104165600D01*
X144600000Y-106000000D02*
X144988200Y-105611800D01*
X133462000Y-111823600D02*
X135076400Y-111823600D01*
X139200000Y-104175000D02*
X141025000Y-104175000D01*
X136075000Y-110825000D02*
X136075000Y-110500000D01*
X139200000Y-104175000D02*
X137775000Y-104175000D01*
X137775000Y-104175000D02*
X136075000Y-105875000D01*
X136075000Y-110500000D02*
X136075000Y-109875000D01*
X141025000Y-104175000D02*
X142850000Y-106000000D01*
X135076400Y-111823600D02*
X136075000Y-110825000D01*
X136075000Y-108425000D02*
X136075000Y-110500000D01*
X142850000Y-106000000D02*
X144600000Y-106000000D01*
X192350000Y-129800000D02*
X193106000Y-130556000D01*
X136075000Y-105875000D02*
X136075000Y-109050000D01*
X192350000Y-129200000D02*
X192350000Y-129800000D01*
X139175000Y-110975000D02*
X140225000Y-109925000D01*
X139175000Y-112725000D02*
X139175000Y-110975000D01*
X139543600Y-113093600D02*
X139175000Y-112725000D01*
X140225000Y-109925000D02*
X140225000Y-109875000D01*
X140672000Y-113093600D02*
X139543600Y-113093600D01*
X186150000Y-125455800D02*
X186150000Y-124650000D01*
X185163600Y-126442200D02*
X186150000Y-125455800D01*
X185163600Y-127432200D02*
X185163600Y-126442200D01*
X160488200Y-105588200D02*
X163600000Y-108700000D01*
X160488200Y-100843800D02*
X160727600Y-100604400D01*
X180550000Y-108700000D02*
X180550000Y-114000000D01*
X160488200Y-104165600D02*
X160488200Y-100843800D01*
X160488200Y-104165600D02*
X160488200Y-105588200D01*
X180550000Y-114000000D02*
X186150000Y-119600000D01*
X186150000Y-119600000D02*
X186150000Y-122825000D01*
X163600000Y-108700000D02*
X166500000Y-108700000D01*
X158488200Y-106438200D02*
X165600000Y-113550000D01*
X165700000Y-114050000D02*
X166800000Y-115150000D01*
X158488200Y-104165600D02*
X158488200Y-106438200D01*
X166800000Y-115150000D02*
X166800000Y-118600000D01*
X165700000Y-114050000D02*
X165600000Y-113950000D01*
X165600000Y-113950000D02*
X165600000Y-113550000D01*
X168503600Y-120303600D02*
X168503600Y-122607700D01*
X166800000Y-118600000D02*
X168503600Y-120303600D01*
X142550000Y-115650000D02*
X140688400Y-115650000D01*
X170132700Y-124432700D02*
X168503600Y-124432700D01*
X170583000Y-127432200D02*
X170583000Y-124883000D01*
X170583000Y-124883000D02*
X170132700Y-124432700D01*
X166550000Y-125700000D02*
X166065200Y-125215200D01*
X169700000Y-125700000D02*
X166550000Y-125700000D01*
X166065200Y-125215200D02*
X166065200Y-124407300D01*
X169933000Y-125933000D02*
X169700000Y-125700000D01*
X169933000Y-127432200D02*
X169933000Y-125933000D01*
X157988200Y-107438200D02*
X158050000Y-107500000D01*
X157988200Y-104165600D02*
X157988200Y-107438200D01*
X158050000Y-107500000D02*
X159175000Y-108625000D01*
X164550000Y-114450000D02*
X166065200Y-115965200D01*
X166065200Y-115965200D02*
X166065200Y-122582300D01*
X164550000Y-113450000D02*
X164550000Y-114450000D01*
X131450000Y-113150000D02*
X133405600Y-113150000D01*
X159175000Y-108625000D02*
X159725000Y-108625000D01*
X159725000Y-108625000D02*
X164550000Y-113450000D01*
X143450000Y-117350000D02*
X143450000Y-109950000D01*
X155988200Y-105338200D02*
X156800000Y-106150000D01*
X142662200Y-118137800D02*
X143450000Y-117350000D01*
X143600000Y-109800000D02*
X143600000Y-108600000D01*
X155988200Y-104165600D02*
X155988200Y-105338200D01*
D43*
X155965200Y-102549000D02*
X154889200Y-101473000D01*
D46*
X143450000Y-109950000D02*
X143600000Y-109800000D01*
D43*
X155965200Y-104149200D02*
X155965200Y-102549000D01*
D46*
X141534100Y-118137800D02*
X142662200Y-118137800D01*
D43*
X145488200Y-104165600D02*
X145488200Y-101653800D01*
X145488200Y-101653800D02*
X145745200Y-101396800D01*
D46*
X170050000Y-108650000D02*
X170050000Y-120500000D01*
X191822700Y-120522700D02*
X191822700Y-123418600D01*
X191800000Y-120500000D02*
X191822700Y-120522700D01*
X161488200Y-104165600D02*
X161488200Y-105188200D01*
X168275000Y-106875000D02*
X170050000Y-108650000D01*
X163175000Y-106875000D02*
X168275000Y-106875000D01*
X161488200Y-105188200D02*
X163175000Y-106875000D01*
X163350000Y-101900000D02*
X163350000Y-102100000D01*
X163350000Y-102100000D02*
X164389000Y-103139000D01*
X164338200Y-101815600D02*
X163434400Y-101815600D01*
X164389000Y-103139000D02*
X164389000Y-103402200D01*
X163434400Y-101815600D02*
X163350000Y-101900000D01*
X164400000Y-119200000D02*
X162525000Y-117325000D01*
X162525000Y-117325000D02*
X162525000Y-114525000D01*
X169600000Y-128950000D02*
X179350000Y-128950000D01*
X162525000Y-114525000D02*
X154988200Y-106988200D01*
X169283000Y-128633000D02*
X169450000Y-128800000D01*
X169283000Y-128633000D02*
X169300000Y-128650000D01*
X169150000Y-128950000D02*
X169050000Y-128950000D01*
X169300000Y-128950000D02*
X169150000Y-128950000D01*
X169300000Y-128800000D02*
X169150000Y-128950000D01*
X169300000Y-128650000D02*
X169300000Y-128950000D01*
X169300000Y-128650000D02*
X169600000Y-128950000D01*
X169450000Y-128950000D02*
X169300000Y-128950000D01*
X179963600Y-127432200D02*
X179963600Y-128736400D01*
X179963600Y-128763600D02*
X180150000Y-128950000D01*
X179350000Y-128950000D02*
X180150000Y-128950000D01*
X164400000Y-127100000D02*
X164400000Y-119200000D01*
X179963600Y-128736400D02*
X179750000Y-128950000D01*
X166250000Y-128950000D02*
X164400000Y-127100000D01*
X169283000Y-127432200D02*
X169283000Y-128633000D01*
X179350000Y-128950000D02*
X179750000Y-128950000D01*
X179963600Y-128736400D02*
X179963600Y-128763600D01*
X169283000Y-128717000D02*
X169050000Y-128950000D01*
X169283000Y-128633000D02*
X169283000Y-128717000D01*
X169050000Y-128950000D02*
X166250000Y-128950000D01*
X154988200Y-106988200D02*
X154988200Y-104165600D01*
X169600000Y-128950000D02*
X169450000Y-128950000D01*
X180150000Y-128950000D02*
X180950000Y-129750000D01*
X169450000Y-128800000D02*
X169450000Y-128950000D01*
X169300000Y-128650000D02*
X169300000Y-128800000D01*
D42*
X159328800Y-74371200D02*
X158488200Y-75211800D01*
X186633400Y-74371200D02*
X159328800Y-74371200D01*
X158488200Y-75211800D02*
X158488200Y-81965600D01*
X186633400Y-76606400D02*
X159481800Y-76606400D01*
X159481800Y-76606400D02*
X158988200Y-77100000D01*
X158988200Y-77100000D02*
X158988200Y-81965600D01*
X180250000Y-77550000D02*
X181541600Y-78841600D01*
X159800000Y-77550000D02*
X180250000Y-77550000D01*
X159488200Y-77861800D02*
X159800000Y-77550000D01*
X181541600Y-78841600D02*
X186633400Y-78841600D01*
X159488200Y-81965600D02*
X159488200Y-77861800D01*
X160900000Y-78400000D02*
X179050000Y-78400000D01*
X181676000Y-81026000D02*
X186633400Y-81026000D01*
X179050000Y-78400000D02*
X181676000Y-81026000D01*
X160488200Y-81965600D02*
X160488200Y-78811800D01*
X160488200Y-78811800D02*
X160900000Y-78400000D01*
X161250000Y-79250000D02*
X178300000Y-79250000D01*
X178300000Y-79250000D02*
X182209600Y-83159600D01*
X160988200Y-81965600D02*
X160988200Y-79511800D01*
X182209600Y-83159600D02*
X186629600Y-83159600D01*
X160988200Y-79511800D02*
X161250000Y-79250000D01*
X181218000Y-85482000D02*
X180884400Y-85815600D01*
X186633400Y-85482000D02*
X181218000Y-85482000D01*
X180884400Y-85815600D02*
X164338200Y-85815600D01*
X182250000Y-87650000D02*
X182266400Y-87666400D01*
X182266400Y-87666400D02*
X186582600Y-87666400D01*
X164338200Y-86315600D02*
X180765600Y-86315600D01*
X180765600Y-86315600D02*
X182100000Y-87650000D01*
X182100000Y-87650000D02*
X182250000Y-87650000D01*
X182701600Y-89901600D02*
X186582600Y-89901600D01*
X180115600Y-87315600D02*
X182701600Y-89901600D01*
X164338200Y-87315600D02*
X180115600Y-87315600D01*
X164338200Y-87815600D02*
X179015600Y-87815600D01*
X183336800Y-92136800D02*
X186582600Y-92136800D01*
X179015600Y-87815600D02*
X183336800Y-92136800D01*
X156988200Y-104165600D02*
X156988200Y-101461800D01*
X156988200Y-101461800D02*
X157700000Y-100750000D01*
X157700000Y-100750000D02*
X157700000Y-96850000D01*
X156488200Y-104165600D02*
X156488200Y-101988200D01*
X155700000Y-101200000D02*
X156488200Y-101988200D01*
X155700000Y-101200000D02*
X155700000Y-97800000D01*
X185706800Y-98856800D02*
X185250000Y-98400000D01*
X186490600Y-98856800D02*
X185706800Y-98856800D01*
X175915600Y-88315600D02*
X185250000Y-97650000D01*
X185250000Y-97650000D02*
X185250000Y-98400000D01*
X164338200Y-88315600D02*
X175915600Y-88315600D01*
X164338200Y-88815600D02*
X175415600Y-88815600D01*
X185600000Y-101128400D02*
X186481000Y-101128400D01*
X175415600Y-88815600D02*
X184450000Y-97850000D01*
X184450000Y-99978400D02*
X185600000Y-101128400D01*
X184450000Y-97850000D02*
X184450000Y-99978400D01*
X183650000Y-101550000D02*
X185514400Y-103414400D01*
X164338200Y-89315600D02*
X174615600Y-89315600D01*
X185514400Y-103414400D02*
X186481000Y-103414400D01*
X183650000Y-98350000D02*
X183650000Y-101550000D01*
X174615600Y-89315600D02*
X183650000Y-98350000D01*
X164338200Y-89815600D02*
X173915600Y-89815600D01*
X185500000Y-105598800D02*
X186481000Y-105598800D01*
X182900000Y-98800000D02*
X182900000Y-102998800D01*
X182900000Y-102998800D02*
X185500000Y-105598800D01*
X173915600Y-89815600D02*
X182900000Y-98800000D01*
X180650000Y-104500000D02*
X180650000Y-100900000D01*
X185400000Y-107050000D02*
X182850000Y-104500000D01*
X185400000Y-107500000D02*
X185400000Y-107050000D01*
X180650000Y-100900000D02*
X171565600Y-91815600D01*
X186430200Y-107884800D02*
X185784800Y-107884800D01*
X185784800Y-107884800D02*
X185400000Y-107500000D01*
X171565600Y-91815600D02*
X164338200Y-91815600D01*
X181950000Y-105800000D02*
X186233600Y-110083600D01*
X181950000Y-99200000D02*
X181950000Y-105800000D01*
X164338200Y-90815600D02*
X173565600Y-90815600D01*
X173565600Y-90815600D02*
X181950000Y-99200000D01*
X181500000Y-106350000D02*
X185200000Y-110050000D01*
X185200000Y-111700000D02*
X185717200Y-112217200D01*
X185717200Y-112217200D02*
X186439800Y-112217200D01*
X185200000Y-110050000D02*
X185200000Y-111700000D01*
X164338200Y-91315600D02*
X173015600Y-91315600D01*
X173015600Y-91315600D02*
X181500000Y-99800000D01*
X181500000Y-99800000D02*
X181500000Y-106350000D01*
X112050000Y-125200000D02*
X112014000Y-125236000D01*
X150988200Y-104165600D02*
X150988200Y-106461800D01*
X119650000Y-103950000D02*
X119700000Y-104000000D01*
X112014000Y-125236000D02*
X112014000Y-128016000D01*
X115950000Y-124600000D02*
X116000000Y-124650000D01*
X119700000Y-118750000D02*
X115950000Y-122500000D01*
X119700000Y-104000000D02*
X119700000Y-118750000D01*
X150988200Y-106461800D02*
X150700000Y-106750000D01*
X115950000Y-122500000D02*
X115950000Y-124600000D01*
X151488200Y-106688200D02*
X152450000Y-107650000D01*
X110900000Y-106700000D02*
X109400000Y-108200000D01*
X113250000Y-116950000D02*
X113250000Y-125950000D01*
X151488200Y-104165600D02*
X151488200Y-106688200D01*
X112650000Y-126550000D02*
X112650000Y-129100000D01*
X112650000Y-129100000D02*
X110744000Y-131006000D01*
X113250000Y-125950000D02*
X112650000Y-126550000D01*
X110744000Y-131006000D02*
X110744000Y-132966000D01*
X109400000Y-108200000D02*
X109400000Y-113100000D01*
X109400000Y-113100000D02*
X113250000Y-116950000D01*
X119931000Y-77081000D02*
X117612400Y-77081000D01*
X138165600Y-95315600D02*
X119931000Y-77081000D01*
X142138200Y-95315600D02*
X138165600Y-95315600D01*
D46*
X167465600Y-98315600D02*
X164338200Y-98315600D01*
X173833000Y-104683000D02*
X167465600Y-98315600D01*
X173833000Y-127432200D02*
X173833000Y-104683000D01*
D42*
X152988200Y-78663200D02*
X145406000Y-71081000D01*
X152988200Y-81965600D02*
X152988200Y-78663200D01*
X145406000Y-71081000D02*
X137312400Y-71081000D01*
X147988200Y-109050000D02*
X147988200Y-104165600D01*
X148225000Y-111150000D02*
X148225000Y-109286800D01*
X148225000Y-109286800D02*
X147988200Y-109050000D01*
X139565600Y-88315600D02*
X121831000Y-70581000D01*
X142138200Y-88315600D02*
X139565600Y-88315600D01*
X121831000Y-70581000D02*
X117612400Y-70581000D01*
D46*
X183863600Y-127432200D02*
X183863600Y-119563600D01*
X183863600Y-119563600D02*
X178650000Y-114350000D01*
X178650000Y-114350000D02*
X178650000Y-101350000D01*
X171615600Y-94315600D02*
X164338200Y-94315600D01*
X178650000Y-101350000D02*
X171615600Y-94315600D01*
D42*
X150175000Y-109175000D02*
X150175000Y-111150000D01*
X149488200Y-104165600D02*
X149488200Y-108488200D01*
X149488200Y-108488200D02*
X150175000Y-109175000D01*
D46*
X145988200Y-109138200D02*
X145988200Y-104165600D01*
X146000000Y-109350000D02*
X146000000Y-109150000D01*
X146275000Y-109625000D02*
X146000000Y-109350000D01*
X146000000Y-109150000D02*
X145988200Y-109138200D01*
X146275000Y-111150000D02*
X146275000Y-109625000D01*
D42*
X138765600Y-94315600D02*
X142138200Y-94315600D01*
D46*
X120031000Y-75581000D02*
X119400000Y-75581000D01*
D42*
X117612400Y-75581000D02*
X119400000Y-75581000D01*
X127450000Y-83000000D02*
X138765600Y-94315600D01*
D46*
X127450000Y-83000000D02*
X120031000Y-75581000D01*
D42*
X146488200Y-108988200D02*
X146925000Y-109425000D01*
X146925000Y-109425000D02*
X146925000Y-111150000D01*
X146488200Y-104165600D02*
X146488200Y-108988200D01*
X143306000Y-78581000D02*
X137312400Y-78581000D01*
X144488200Y-81965600D02*
X144488200Y-79763200D01*
X144488200Y-79763200D02*
X143306000Y-78581000D01*
X138765600Y-90815600D02*
X142138200Y-90815600D01*
X117612400Y-73581000D02*
X121531000Y-73581000D01*
X121531000Y-73581000D02*
X138765600Y-90815600D01*
X156488200Y-77763200D02*
X147306000Y-68581000D01*
X156488200Y-81965600D02*
X156488200Y-77763200D01*
X147306000Y-68581000D02*
X137312400Y-68581000D01*
X147550000Y-109350000D02*
X147550000Y-109500000D01*
X147550000Y-109500000D02*
X147575000Y-109525000D01*
X147488200Y-109288200D02*
X147550000Y-109350000D01*
X147488200Y-104165600D02*
X147488200Y-109288200D01*
X147575000Y-109525000D02*
X147575000Y-111150000D01*
D46*
X174483000Y-127432200D02*
X174483000Y-104183000D01*
X168115600Y-97815600D02*
X164338200Y-97815600D01*
X174483000Y-104183000D02*
X168115600Y-97815600D01*
D42*
X122188800Y-122061200D02*
X122188800Y-127381800D01*
X134700000Y-96700000D02*
X135150000Y-96700000D01*
X135150000Y-96700000D02*
X137265600Y-98815600D01*
X128050000Y-109150000D02*
X128050000Y-116200000D01*
X128050000Y-116200000D02*
X122188800Y-122061200D01*
X137265600Y-98815600D02*
X142138200Y-98815600D01*
X134750000Y-102450000D02*
X128050000Y-109150000D01*
D46*
X168633000Y-133172200D02*
X168633000Y-130867000D01*
X168633000Y-130867000D02*
X168700000Y-130800000D01*
X178850000Y-130750000D02*
X179313600Y-131213600D01*
X168750000Y-130750000D02*
X178850000Y-130750000D01*
X165200000Y-116100000D02*
X155488200Y-106388200D01*
X179313600Y-131213600D02*
X179313600Y-133172200D01*
X155488200Y-106388200D02*
X155488200Y-104165600D01*
X168750000Y-130750000D02*
X168700000Y-130800000D01*
X165200000Y-117400000D02*
X165200000Y-116100000D01*
D42*
X140515600Y-86815600D02*
X122281000Y-68581000D01*
X142138200Y-86815600D02*
X140515600Y-86815600D01*
X122281000Y-68581000D02*
X117612400Y-68581000D01*
D46*
X155988200Y-78088200D02*
X146981000Y-69081000D01*
X146981000Y-69081000D02*
X137312400Y-69081000D01*
X155988200Y-81965600D02*
X155988200Y-78088200D01*
D42*
X147656000Y-68081000D02*
X137312400Y-68081000D01*
X156988200Y-81965600D02*
X156988200Y-77413200D01*
X156988200Y-77413200D02*
X147656000Y-68081000D01*
D46*
X175950000Y-103500000D02*
X169265600Y-96815600D01*
X169265600Y-96815600D02*
X164338200Y-96815600D01*
X181263600Y-120463600D02*
X175950000Y-115150000D01*
X175950000Y-115150000D02*
X175950000Y-103500000D01*
X181263600Y-127432200D02*
X181263600Y-120463600D01*
D42*
X118831000Y-78581000D02*
X117612400Y-78581000D01*
X142138200Y-97315600D02*
X137565600Y-97315600D01*
X137565600Y-97315600D02*
X118831000Y-78581000D01*
X149500000Y-109350000D02*
X149525000Y-109375000D01*
X149500000Y-109200000D02*
X149500000Y-109350000D01*
X148988200Y-104165600D02*
X148988200Y-108688200D01*
X148988200Y-108688200D02*
X149500000Y-109200000D01*
X149525000Y-109375000D02*
X149525000Y-111150000D01*
X144256000Y-76081000D02*
X137312400Y-76081000D01*
X146988200Y-78813200D02*
X144256000Y-76081000D01*
X146988200Y-81965600D02*
X146988200Y-78813200D01*
D46*
X166665600Y-99315600D02*
X164338200Y-99315600D01*
X172533000Y-127432200D02*
X172533000Y-105183000D01*
X172533000Y-105183000D02*
X166665600Y-99315600D01*
D42*
X137865600Y-95815600D02*
X119631000Y-77581000D01*
X142138200Y-95815600D02*
X137865600Y-95815600D01*
X119631000Y-77581000D02*
X117612400Y-77581000D01*
X125050000Y-121900000D02*
X123488800Y-123461200D01*
X158988200Y-105988200D02*
X158988200Y-104165600D01*
X123488800Y-123461200D02*
X123488800Y-127381800D01*
X167750000Y-114750000D02*
X158988200Y-105988200D01*
X167750000Y-114950000D02*
X167750000Y-114750000D01*
X123231000Y-67581000D02*
X117612400Y-67581000D01*
X142138200Y-84815600D02*
X140465600Y-84815600D01*
X140465600Y-84815600D02*
X123231000Y-67581000D01*
X146488200Y-78988200D02*
X144081000Y-76581000D01*
X144081000Y-76581000D02*
X137312400Y-76581000D01*
X146488200Y-81965600D02*
X146488200Y-78988200D01*
X142138200Y-92315600D02*
X137715600Y-92315600D01*
X120481000Y-75081000D02*
X117612400Y-75081000D01*
X137715600Y-92315600D02*
X120481000Y-75081000D01*
X143931000Y-75081000D02*
X137312400Y-75081000D01*
X147488200Y-81965600D02*
X147488200Y-78638200D01*
X147488200Y-78638200D02*
X143931000Y-75081000D01*
X121881000Y-69081000D02*
X117612400Y-69081000D01*
X142138200Y-87315600D02*
X140115600Y-87315600D01*
X140115600Y-87315600D02*
X121881000Y-69081000D01*
X120331000Y-76581000D02*
X117612400Y-76581000D01*
X142138200Y-94815600D02*
X138565600Y-94815600D01*
X138565600Y-94815600D02*
X120331000Y-76581000D01*
D46*
X171883000Y-127432200D02*
X171883000Y-105483000D01*
X171883000Y-105483000D02*
X167215600Y-100815600D01*
X167215600Y-100815600D02*
X164338200Y-100815600D01*
X155055000Y-130225000D02*
X155055000Y-111605000D01*
X128800000Y-135050000D02*
X129100000Y-134750000D01*
X155055000Y-111605000D02*
X154950000Y-111500000D01*
X153988200Y-108238200D02*
X153988200Y-104165600D01*
X141650000Y-130850000D02*
X141685000Y-130885000D01*
X154430000Y-130850000D02*
X155055000Y-130225000D01*
X154430000Y-130850000D02*
X154430000Y-132900000D01*
X129100000Y-134750000D02*
X129100000Y-134100000D01*
X141685000Y-130885000D02*
X141685000Y-132900000D01*
X129085000Y-134085000D02*
X129085000Y-132900000D01*
X154950000Y-109200000D02*
X153988200Y-108238200D01*
X129100000Y-134100000D02*
X129085000Y-134085000D01*
X154950000Y-111500000D02*
X154950000Y-109200000D01*
X170765600Y-95815600D02*
X164338200Y-95815600D01*
X177300000Y-102350000D02*
X170765600Y-95815600D01*
X177300000Y-114700000D02*
X177300000Y-102350000D01*
X182563600Y-119963600D02*
X177300000Y-114700000D01*
X182563600Y-127432200D02*
X182563600Y-119963600D01*
X146481000Y-69581000D02*
X154988200Y-78088200D01*
X154988200Y-81965600D02*
X154988200Y-78088200D01*
X137312400Y-69581000D02*
X146481000Y-69581000D01*
D42*
X144988200Y-79438200D02*
X143631000Y-78081000D01*
X144988200Y-81965600D02*
X144988200Y-79438200D01*
X143631000Y-78081000D02*
X137312400Y-78081000D01*
X135650000Y-98600000D02*
X136250000Y-98600000D01*
X128450000Y-116950000D02*
X122838800Y-122561200D01*
X137465600Y-99815600D02*
X142138200Y-99815600D01*
X135850000Y-102900000D02*
X128450000Y-110300000D01*
X128450000Y-110300000D02*
X128450000Y-116950000D01*
X136250000Y-98600000D02*
X137465600Y-99815600D01*
X122838800Y-122561200D02*
X122838800Y-127381800D01*
X157988200Y-76813200D02*
X148256000Y-67081000D01*
X148256000Y-67081000D02*
X137312400Y-67081000D01*
X157988200Y-81965600D02*
X157988200Y-76813200D01*
X134800000Y-95350000D02*
X137765600Y-98315600D01*
X133650000Y-102600000D02*
X127500000Y-108750000D01*
X127500000Y-108750000D02*
X127500000Y-115600000D01*
X127500000Y-115600000D02*
X121538800Y-121561200D01*
X137765600Y-98315600D02*
X142138200Y-98315600D01*
X121538800Y-121561200D02*
X121538800Y-127381800D01*
X133650000Y-102350000D02*
X133650000Y-102600000D01*
X133600000Y-95350000D02*
X134800000Y-95350000D01*
D46*
X146081000Y-70081000D02*
X137312400Y-70081000D01*
X154488200Y-81965600D02*
X154488200Y-78488200D01*
X154488200Y-78488200D02*
X146081000Y-70081000D01*
D42*
X150488200Y-78013200D02*
X144556000Y-72081000D01*
X144556000Y-72081000D02*
X137312400Y-72081000D01*
X150488200Y-81965600D02*
X150488200Y-78013200D01*
X144206000Y-74581000D02*
X137312400Y-74581000D01*
X147988200Y-78363200D02*
X144206000Y-74581000D01*
X147988200Y-81965600D02*
X147988200Y-78363200D01*
X125700000Y-114000000D02*
X119588800Y-120111200D01*
X142138200Y-100815600D02*
X131434400Y-100815600D01*
X131434400Y-100815600D02*
X125700000Y-106550000D01*
X119588800Y-120111200D02*
X119588800Y-127381800D01*
X125700000Y-106550000D02*
X125700000Y-114000000D01*
D46*
X170815600Y-92315600D02*
X179400000Y-100900000D01*
X164338200Y-92315600D02*
X170815600Y-92315600D01*
X179400000Y-100900000D02*
X179400000Y-114150000D01*
X179400000Y-114150000D02*
X184513600Y-119263600D01*
X184513600Y-127432200D02*
X184513600Y-119263600D01*
D42*
X161033200Y-104183200D02*
X161033200Y-105433200D01*
X161033200Y-105433200D02*
X163450000Y-107850000D01*
X142036400Y-114363600D02*
X142300000Y-114100000D01*
X168150000Y-107850000D02*
X168900000Y-108600000D01*
X142300000Y-114100000D02*
X142650000Y-114100000D01*
X163450000Y-107850000D02*
X168150000Y-107850000D01*
X168900000Y-108600000D02*
X168900000Y-113350000D01*
X140672000Y-114363600D02*
X142036400Y-114363600D01*
X145681000Y-70581000D02*
X137312400Y-70581000D01*
X153488200Y-78388200D02*
X145681000Y-70581000D01*
X153488200Y-81965600D02*
X153488200Y-78388200D01*
X126300000Y-106950000D02*
X126300000Y-114400000D01*
X120238800Y-120461200D02*
X120238800Y-127381800D01*
X142138200Y-101315600D02*
X131934400Y-101315600D01*
X131934400Y-101315600D02*
X126300000Y-106950000D01*
X126300000Y-114400000D02*
X120238800Y-120461200D01*
X145988200Y-81965600D02*
X145988200Y-79163200D01*
X145988200Y-79163200D02*
X143906000Y-77081000D01*
X143906000Y-77081000D02*
X137312400Y-77081000D01*
X150988200Y-81965600D02*
X150988200Y-77588200D01*
X150988200Y-77588200D02*
X144981000Y-71581000D01*
X144981000Y-71581000D02*
X137312400Y-71581000D01*
X139265600Y-88815600D02*
X121531000Y-71081000D01*
X121531000Y-71081000D02*
X117612400Y-71081000D01*
X142138200Y-88815600D02*
X139265600Y-88815600D01*
X142138200Y-84315600D02*
X140965600Y-84315600D01*
X123731000Y-67081000D02*
X117612400Y-67081000D01*
X140965600Y-84315600D02*
X123731000Y-67081000D01*
X145231000Y-73581000D02*
X137312400Y-73581000D01*
X149988200Y-81965600D02*
X149988200Y-78338200D01*
X149988200Y-78338200D02*
X145231000Y-73581000D01*
X142138200Y-91815600D02*
X138115600Y-91815600D01*
X120881000Y-74581000D02*
X117612400Y-74581000D01*
X138115600Y-91815600D02*
X120881000Y-74581000D01*
X142138200Y-89815600D02*
X138615600Y-89815600D01*
X120881000Y-72081000D02*
X117612400Y-72081000D01*
X138615600Y-89815600D02*
X120881000Y-72081000D01*
X140965600Y-86315600D02*
X122731000Y-68081000D01*
X142138200Y-86315600D02*
X140965600Y-86315600D01*
X122731000Y-68081000D02*
X117612400Y-68081000D01*
X145488200Y-81965600D02*
X145488200Y-79388200D01*
X143681000Y-77581000D02*
X137312400Y-77581000D01*
X145488200Y-79388200D02*
X143681000Y-77581000D01*
X144931000Y-74081000D02*
X137312400Y-74081000D01*
X149488200Y-78638200D02*
X144931000Y-74081000D01*
X149488200Y-81965600D02*
X149488200Y-78638200D01*
D46*
X166865600Y-101315600D02*
X164338200Y-101315600D01*
X171233000Y-105683000D02*
X166865600Y-101315600D01*
X171233000Y-127432200D02*
X171233000Y-105683000D01*
X180613600Y-120763600D02*
X175300000Y-115450000D01*
X180613600Y-127432200D02*
X180613600Y-120763600D01*
X168765600Y-97315600D02*
X164338200Y-97315600D01*
X175300000Y-103850000D02*
X168765600Y-97315600D01*
X175300000Y-115450000D02*
X175300000Y-103850000D01*
D42*
X138415600Y-91315600D02*
X128850000Y-81750000D01*
X142138200Y-91315600D02*
X138415600Y-91315600D01*
X128819000Y-81750000D02*
X121150000Y-74081000D01*
X128850000Y-81750000D02*
X128819000Y-81750000D01*
X121150000Y-74081000D02*
X117612400Y-74081000D01*
X157488200Y-77188200D02*
X147881000Y-67581000D01*
X147881000Y-67581000D02*
X137312400Y-67581000D01*
X157488200Y-81965600D02*
X157488200Y-77188200D01*
D46*
X153900000Y-108900000D02*
X153900000Y-112175000D01*
X153488200Y-104165600D02*
X153488200Y-108488200D01*
X153488200Y-108488200D02*
X153900000Y-108900000D01*
D42*
X142138200Y-87815600D02*
X139815600Y-87815600D01*
X139815600Y-87815600D02*
X122081000Y-70081000D01*
X122081000Y-70081000D02*
X117612400Y-70081000D01*
D46*
X176650000Y-114950000D02*
X176650000Y-103000000D01*
X181913600Y-127432200D02*
X181913600Y-120213600D01*
X181913600Y-120213600D02*
X176650000Y-114950000D01*
X169965600Y-96315600D02*
X164338200Y-96315600D01*
X176650000Y-103000000D02*
X169965600Y-96315600D01*
D42*
X148875000Y-109225000D02*
X148875000Y-111150000D01*
X148488200Y-108838200D02*
X148875000Y-109225000D01*
X148488200Y-104165600D02*
X148488200Y-108838200D01*
D46*
X166915600Y-98815600D02*
X164338200Y-98815600D01*
X173183000Y-127432200D02*
X173183000Y-105083000D01*
X173183000Y-105083000D02*
X166915600Y-98815600D01*
D42*
X136050000Y-99350000D02*
X137015600Y-100315600D01*
X120888800Y-121061200D02*
X120888800Y-127381800D01*
X126950000Y-107950000D02*
X126950000Y-115000000D01*
X126950000Y-115000000D02*
X120888800Y-121061200D01*
X132550000Y-102350000D02*
X126950000Y-107950000D01*
X132550000Y-99350000D02*
X136050000Y-99350000D01*
X137015600Y-100315600D02*
X142138200Y-100315600D01*
X163207000Y-109057000D02*
X163202126Y-109057000D01*
X169050000Y-114900000D02*
X163207000Y-109057000D01*
X163202126Y-109057000D02*
X159488200Y-105343074D01*
X169050000Y-116450000D02*
X169050000Y-114900000D01*
X124138800Y-127381800D02*
X124138800Y-124711200D01*
X124138800Y-124711200D02*
X125325000Y-123525000D01*
X159488200Y-105343074D02*
X159488200Y-104165600D01*
D46*
X183213600Y-119863600D02*
X178000000Y-114650000D01*
X170815600Y-94815600D02*
X164338200Y-94815600D01*
X178000000Y-114650000D02*
X178000000Y-102000000D01*
X178000000Y-102000000D02*
X170815600Y-94815600D01*
X183213600Y-127432200D02*
X183213600Y-119863600D01*
D42*
X121143500Y-71581000D02*
X138878100Y-89315600D01*
X117612400Y-71581000D02*
X121143500Y-71581000D01*
X138878100Y-89315600D02*
X142138200Y-89315600D01*
X149988200Y-104165600D02*
X149988200Y-108288200D01*
X149988200Y-108288200D02*
X150825000Y-109125000D01*
X150825000Y-109125000D02*
X150825000Y-111150000D01*
X142138200Y-96815600D02*
X138015600Y-96815600D01*
X138015600Y-96815600D02*
X119281000Y-78081000D01*
X119281000Y-78081000D02*
X117612400Y-78081000D01*
D46*
X149450000Y-121200000D02*
X150575000Y-122325000D01*
X146900000Y-121250000D02*
X146925000Y-121225000D01*
X146925000Y-121225000D02*
X146925000Y-116890000D01*
X150575000Y-122325000D02*
X150575000Y-125975000D01*
X145750000Y-122700000D02*
X145750000Y-120575000D01*
X149305000Y-131405000D02*
X146140000Y-128240000D01*
X146140000Y-128240000D02*
X146140000Y-123090000D01*
X145750000Y-120575000D02*
X146275000Y-120050000D01*
X146140000Y-123090000D02*
X145750000Y-122700000D01*
X149305000Y-132900000D02*
X149305000Y-131405000D01*
X146275000Y-120050000D02*
X146275000Y-116890000D01*
X145625000Y-116890000D02*
X145625000Y-119875000D01*
X144850000Y-129100000D02*
X145495000Y-129745000D01*
X144850000Y-120650000D02*
X144850000Y-129100000D01*
X145625000Y-119875000D02*
X144850000Y-120650000D01*
X145495000Y-129745000D02*
X145495000Y-132900000D01*
X147575000Y-119850000D02*
X147575000Y-116890000D01*
X146765000Y-123335000D02*
X148050000Y-122050000D01*
X148050000Y-122050000D02*
X148050000Y-120325000D01*
X148050000Y-120325000D02*
X147575000Y-119850000D01*
X146765000Y-125975000D02*
X146765000Y-123335000D01*
X136705000Y-130705000D02*
X136705000Y-132900000D01*
X126600000Y-129700000D02*
X135700000Y-129700000D01*
X123488800Y-132086800D02*
X123675600Y-131900000D01*
X123675600Y-131900000D02*
X126600000Y-131900000D01*
X123488800Y-133121800D02*
X123488800Y-132086800D01*
X135700000Y-129700000D02*
X136705000Y-130705000D01*
X124200000Y-130700000D02*
X132500000Y-130700000D01*
X122838800Y-133121800D02*
X122838800Y-132061200D01*
X132500000Y-130700000D02*
X132895000Y-131095000D01*
X122838800Y-132061200D02*
X124200000Y-130700000D01*
X132895000Y-131095000D02*
X132895000Y-132900000D01*
X150175000Y-117975000D02*
X150175000Y-116890000D01*
X159500000Y-118550000D02*
X159510000Y-118560000D01*
X153950000Y-118600000D02*
X150800000Y-118600000D01*
X150800000Y-118600000D02*
X150175000Y-117975000D01*
X159510000Y-118560000D02*
X159510000Y-125975000D01*
X161425000Y-129225000D02*
X161425000Y-121175000D01*
X161425000Y-129225000D02*
X162050000Y-129850000D01*
X162050000Y-132900000D02*
X162050000Y-129850000D01*
X152750000Y-121150000D02*
X151750000Y-121150000D01*
X151750000Y-121150000D02*
X148875000Y-118275000D01*
X161425000Y-121175000D02*
X161450000Y-121150000D01*
X148875000Y-118275000D02*
X148875000Y-116890000D01*
X163300000Y-119850000D02*
X163320000Y-119870000D01*
X149525000Y-118175000D02*
X149525000Y-116890000D01*
X163320000Y-119870000D02*
X163320000Y-125975000D01*
X153400000Y-119850000D02*
X151200000Y-119850000D01*
X151200000Y-119850000D02*
X149525000Y-118175000D01*
X148225000Y-118475000D02*
X148225000Y-116890000D01*
X158240000Y-130095000D02*
X158240000Y-132900000D01*
X152200000Y-124100000D02*
X152200000Y-122450000D01*
X157595000Y-129450000D02*
X158240000Y-130095000D01*
X152200000Y-122450000D02*
X148225000Y-118475000D01*
X157595000Y-124050000D02*
X157595000Y-129450000D01*
D43*
X195986400Y-126263600D02*
X195986400Y-133350000D01*
X195986400Y-133350000D02*
X196240400Y-133604000D01*
X196240400Y-133604000D02*
X197408800Y-133604000D01*
X197561200Y-124688800D02*
X195986400Y-126263600D01*
X197561200Y-123444000D02*
X197561200Y-124688800D01*
D46*
X193647700Y-123418600D02*
X193647700Y-124447700D01*
X193647700Y-124447700D02*
X193650000Y-124450000D01*
X125404000Y-99343600D02*
X119988200Y-99343600D01*
X128858400Y-102041600D02*
X128858400Y-101172400D01*
X123150000Y-103050000D02*
X123400000Y-103300000D01*
X123150000Y-100600000D02*
X123150000Y-103050000D01*
X122909600Y-100359600D02*
X123150000Y-100600000D01*
X121797200Y-100359600D02*
X122909600Y-100359600D01*
X127600000Y-103300000D02*
X128858400Y-102041600D01*
X123400000Y-103300000D02*
X127600000Y-103300000D01*
M02*
