G04 #@! TF.GenerationSoftware,KiCad,Pcbnew,8.0.5*
G04 #@! TF.CreationDate,2024-10-19T15:16:33+01:00*
G04 #@! TF.ProjectId,GfxV9990,47667856-3939-4393-902e-6b696361645f,rev?*
G04 #@! TF.SameCoordinates,Original*
G04 #@! TF.FileFunction,Paste,Top*
G04 #@! TF.FilePolarity,Positive*
%FSLAX46Y46*%
G04 Gerber Fmt 4.6, Leading zero omitted, Abs format (unit mm)*
G04 Created by KiCad (PCBNEW 8.0.5) date 2024-10-19 15:16:33*
%MOMM*%
%LPD*%
G01*
G04 APERTURE LIST*
G04 Aperture macros list*
%AMRoundRect*
0 Rectangle with rounded corners*
0 $1 Rounding radius*
0 $2 $3 $4 $5 $6 $7 $8 $9 X,Y pos of 4 corners*
0 Add a 4 corners polygon primitive as box body*
4,1,4,$2,$3,$4,$5,$6,$7,$8,$9,$2,$3,0*
0 Add four circle primitives for the rounded corners*
1,1,$1+$1,$2,$3*
1,1,$1+$1,$4,$5*
1,1,$1+$1,$6,$7*
1,1,$1+$1,$8,$9*
0 Add four rect primitives between the rounded corners*
20,1,$1+$1,$2,$3,$4,$5,0*
20,1,$1+$1,$4,$5,$6,$7,0*
20,1,$1+$1,$6,$7,$8,$9,0*
20,1,$1+$1,$8,$9,$2,$3,0*%
G04 Aperture macros list end*
%ADD10RoundRect,0.250000X-0.250000X-0.475000X0.250000X-0.475000X0.250000X0.475000X-0.250000X0.475000X0*%
%ADD11RoundRect,0.150000X0.150000X-0.587500X0.150000X0.587500X-0.150000X0.587500X-0.150000X-0.587500X0*%
%ADD12RoundRect,0.243750X0.243750X0.456250X-0.243750X0.456250X-0.243750X-0.456250X0.243750X-0.456250X0*%
%ADD13RoundRect,0.243750X-0.456250X0.243750X-0.456250X-0.243750X0.456250X-0.243750X0.456250X0.243750X0*%
%ADD14RoundRect,0.137500X0.137500X-0.862500X0.137500X0.862500X-0.137500X0.862500X-0.137500X-0.862500X0*%
%ADD15RoundRect,0.250000X-0.375000X-0.625000X0.375000X-0.625000X0.375000X0.625000X-0.375000X0.625000X0*%
%ADD16RoundRect,0.150000X-0.150000X0.825000X-0.150000X-0.825000X0.150000X-0.825000X0.150000X0.825000X0*%
%ADD17RoundRect,0.250000X0.475000X-0.250000X0.475000X0.250000X-0.475000X0.250000X-0.475000X-0.250000X0*%
%ADD18RoundRect,0.250000X0.250000X0.475000X-0.250000X0.475000X-0.250000X-0.475000X0.250000X-0.475000X0*%
%ADD19RoundRect,0.250000X-0.475000X0.250000X-0.475000X-0.250000X0.475000X-0.250000X0.475000X0.250000X0*%
%ADD20RoundRect,0.150000X0.825000X0.150000X-0.825000X0.150000X-0.825000X-0.150000X0.825000X-0.150000X0*%
%ADD21RoundRect,0.243750X0.456250X-0.243750X0.456250X0.243750X-0.456250X0.243750X-0.456250X-0.243750X0*%
%ADD22RoundRect,0.250000X-0.275000X-0.700000X0.275000X-0.700000X0.275000X0.700000X-0.275000X0.700000X0*%
%ADD23RoundRect,0.243750X-0.243750X-0.456250X0.243750X-0.456250X0.243750X0.456250X-0.243750X0.456250X0*%
%ADD24R,2.200000X0.500000*%
%ADD25O,1.600000X0.350000*%
%ADD26O,0.350000X1.600000*%
G04 APERTURE END LIST*
D10*
X168280000Y-105410000D03*
X170180000Y-105410000D03*
D11*
X175138000Y-102807500D03*
X177038000Y-102807500D03*
X176088000Y-100932500D03*
D12*
X170180000Y-108966000D03*
X168305000Y-108966000D03*
D13*
X183388000Y-87630000D03*
X183388000Y-89505000D03*
X162560000Y-81280000D03*
X162560000Y-83155000D03*
X166116000Y-81280000D03*
X166116000Y-83155000D03*
X169418000Y-81280000D03*
X169418000Y-83155000D03*
X172720000Y-81280000D03*
X172720000Y-83155000D03*
X179324000Y-81280000D03*
X179324000Y-83155000D03*
X182626000Y-81280000D03*
X182626000Y-83155000D03*
X176022000Y-81280000D03*
X176022000Y-83155000D03*
D12*
X174498000Y-105410000D03*
X172623000Y-105410000D03*
X174498000Y-108966000D03*
X172623000Y-108966000D03*
D13*
X180340000Y-101092000D03*
X180340000Y-102967000D03*
D14*
X165735000Y-96344000D03*
X167005000Y-96344000D03*
X168275000Y-96344000D03*
X169545000Y-96344000D03*
X170815000Y-96344000D03*
X172085000Y-96344000D03*
X173355000Y-96344000D03*
X174625000Y-96344000D03*
X175895000Y-96344000D03*
X177165000Y-96344000D03*
X178435000Y-96344000D03*
X179705000Y-96344000D03*
X179705000Y-87044000D03*
X178435000Y-87044000D03*
X177165000Y-87044000D03*
X175895000Y-87044000D03*
X174625000Y-87044000D03*
X173355000Y-87044000D03*
X172085000Y-87044000D03*
X170815000Y-87044000D03*
X169545000Y-87044000D03*
X168275000Y-87044000D03*
X167005000Y-87044000D03*
X165735000Y-87044000D03*
D15*
X194304000Y-138938000D03*
X197104000Y-138938000D03*
D12*
X196517500Y-135382000D03*
X194642500Y-135382000D03*
D16*
X114808000Y-130367000D03*
X113538000Y-130367000D03*
X112268000Y-130367000D03*
X110998000Y-130367000D03*
X109728000Y-130367000D03*
X108458000Y-130367000D03*
X107188000Y-130367000D03*
X107188000Y-135317000D03*
X108458000Y-135317000D03*
X109728000Y-135317000D03*
X110998000Y-135317000D03*
X112268000Y-135317000D03*
X113538000Y-135317000D03*
X114808000Y-135317000D03*
D17*
X104140000Y-133538000D03*
X104140000Y-131638000D03*
D18*
X162682000Y-99161600D03*
X160782000Y-99161600D03*
X162682000Y-106019600D03*
X160782000Y-106019600D03*
D12*
X158242000Y-106019600D03*
X156367000Y-106019600D03*
X158239700Y-102616000D03*
X156364700Y-102616000D03*
X158239700Y-99161600D03*
X156364700Y-99161600D03*
D17*
X181864000Y-57526000D03*
X181864000Y-55626000D03*
X163068000Y-62098000D03*
X163068000Y-60198000D03*
D19*
X163068000Y-55652000D03*
X163068000Y-57552000D03*
D20*
X177989000Y-63500000D03*
X177989000Y-62230000D03*
X177989000Y-60960000D03*
X177989000Y-59690000D03*
X177989000Y-58420000D03*
X177989000Y-57150000D03*
X177989000Y-55880000D03*
X173039000Y-55880000D03*
X173039000Y-57150000D03*
X173039000Y-58420000D03*
X173039000Y-59690000D03*
X173039000Y-60960000D03*
X173039000Y-62230000D03*
X173039000Y-63500000D03*
D13*
X181864000Y-59690000D03*
X181864000Y-61565000D03*
D21*
X160528000Y-59690000D03*
X160528000Y-57815000D03*
D18*
X162682000Y-102616000D03*
X160782000Y-102616000D03*
D10*
X174630000Y-53340000D03*
X176530000Y-53340000D03*
D19*
X149606000Y-89286000D03*
X149606000Y-91186000D03*
D10*
X104272000Y-106680000D03*
X106172000Y-106680000D03*
D18*
X107884000Y-126746000D03*
X105984000Y-126746000D03*
D10*
X113670000Y-126746000D03*
X115570000Y-126746000D03*
X110048000Y-117348000D03*
X111948000Y-117348000D03*
X122560000Y-54610000D03*
X124460000Y-54610000D03*
X132654000Y-54610000D03*
X134554000Y-54610000D03*
X105288000Y-117348000D03*
X107188000Y-117348000D03*
D22*
X109372000Y-109982000D03*
X112522000Y-109982000D03*
X109423000Y-113792000D03*
X112573000Y-113792000D03*
D12*
X111760000Y-126746000D03*
X109885000Y-126746000D03*
D23*
X118013000Y-124206000D03*
X119888000Y-124206000D03*
X118013000Y-120904000D03*
X119888000Y-120904000D03*
D19*
X183388000Y-91760000D03*
X183388000Y-93660000D03*
D24*
X148078000Y-78848000D03*
X148078000Y-77578000D03*
X148078000Y-76308000D03*
X148078000Y-75038000D03*
X148078000Y-73768000D03*
X148078000Y-72498000D03*
X148078000Y-71228000D03*
X148078000Y-69958000D03*
X148078000Y-68688000D03*
X148078000Y-67418000D03*
X148078000Y-66148000D03*
X148078000Y-64878000D03*
X148078000Y-63608000D03*
X148078000Y-62338000D03*
X148078000Y-61068000D03*
X148078000Y-59798000D03*
X148078000Y-58528000D03*
X148078000Y-57258000D03*
X148078000Y-55988000D03*
X148078000Y-54718000D03*
X137028000Y-54718000D03*
X137028000Y-55988000D03*
X137028000Y-57258000D03*
X137028000Y-58528000D03*
X137028000Y-59798000D03*
X137028000Y-61068000D03*
X137028000Y-62338000D03*
X137028000Y-63608000D03*
X137028000Y-64878000D03*
X137028000Y-66148000D03*
X137028000Y-67418000D03*
X137028000Y-68688000D03*
X137028000Y-69958000D03*
X137028000Y-71228000D03*
X137028000Y-72498000D03*
X137028000Y-73768000D03*
X137028000Y-75038000D03*
X137028000Y-76308000D03*
X137028000Y-77578000D03*
X137028000Y-78848000D03*
D25*
X146660000Y-113092000D03*
X146660000Y-112292000D03*
X146660000Y-111492000D03*
X146660000Y-110692000D03*
X146660000Y-109892000D03*
X146660000Y-109092000D03*
X146660000Y-108292000D03*
X146660000Y-107492000D03*
X146660000Y-106692000D03*
X146660000Y-105892000D03*
X146660000Y-105092000D03*
X146660000Y-104292000D03*
X146660000Y-103492000D03*
X146660000Y-102692000D03*
X146660000Y-101892000D03*
X146660000Y-101092000D03*
X146660000Y-100292000D03*
X146660000Y-99492000D03*
X146660000Y-98692000D03*
X146660000Y-97892000D03*
X146660000Y-97092000D03*
X146660000Y-96292000D03*
X146660000Y-95492000D03*
X146660000Y-94692000D03*
X146660000Y-93892000D03*
X146660000Y-93092000D03*
X146660000Y-92292000D03*
X146660000Y-91492000D03*
X146660000Y-90692000D03*
X146660000Y-89892000D03*
X146660000Y-89092000D03*
X146660000Y-88292000D03*
D26*
X143460000Y-85092000D03*
X142660000Y-85092000D03*
X141860000Y-85092000D03*
X141060000Y-85092000D03*
X140260000Y-85092000D03*
X139460000Y-85092000D03*
X138660000Y-85092000D03*
X137860000Y-85092000D03*
X137060000Y-85092000D03*
X136260000Y-85092000D03*
X135460000Y-85092000D03*
X134660000Y-85092000D03*
X133860000Y-85092000D03*
X133060000Y-85092000D03*
X132260000Y-85092000D03*
X131460000Y-85092000D03*
X130660000Y-85092000D03*
X129860000Y-85092000D03*
X129060000Y-85092000D03*
X128260000Y-85092000D03*
X127460000Y-85092000D03*
X126660000Y-85092000D03*
X125860000Y-85092000D03*
X125060000Y-85092000D03*
X124260000Y-85092000D03*
X123460000Y-85092000D03*
X122660000Y-85092000D03*
X121860000Y-85092000D03*
X121060000Y-85092000D03*
X120260000Y-85092000D03*
X119460000Y-85092000D03*
X118660000Y-85092000D03*
D25*
X115460000Y-88292000D03*
X115460000Y-89092000D03*
X115460000Y-89892000D03*
X115460000Y-90692000D03*
X115460000Y-91492000D03*
X115460000Y-92292000D03*
X115460000Y-93092000D03*
X115460000Y-93892000D03*
X115460000Y-94692000D03*
X115460000Y-95492000D03*
X115460000Y-96292000D03*
X115460000Y-97092000D03*
X115460000Y-97892000D03*
X115460000Y-98692000D03*
X115460000Y-99492000D03*
X115460000Y-100292000D03*
X115460000Y-101092000D03*
X115460000Y-101892000D03*
X115460000Y-102692000D03*
X115460000Y-103492000D03*
X115460000Y-104292000D03*
X115460000Y-105092000D03*
X115460000Y-105892000D03*
X115460000Y-106692000D03*
X115460000Y-107492000D03*
X115460000Y-108292000D03*
X115460000Y-109092000D03*
X115460000Y-109892000D03*
X115460000Y-110692000D03*
X115460000Y-111492000D03*
X115460000Y-112292000D03*
X115460000Y-113092000D03*
D26*
X118660000Y-116292000D03*
X119460000Y-116292000D03*
X120260000Y-116292000D03*
X121060000Y-116292000D03*
X121860000Y-116292000D03*
X122660000Y-116292000D03*
X123460000Y-116292000D03*
X124260000Y-116292000D03*
X125060000Y-116292000D03*
X125860000Y-116292000D03*
X126660000Y-116292000D03*
X127460000Y-116292000D03*
X128260000Y-116292000D03*
X129060000Y-116292000D03*
X129860000Y-116292000D03*
X130660000Y-116292000D03*
X131460000Y-116292000D03*
X132260000Y-116292000D03*
X133060000Y-116292000D03*
X133860000Y-116292000D03*
X134660000Y-116292000D03*
X135460000Y-116292000D03*
X136260000Y-116292000D03*
X137060000Y-116292000D03*
X137860000Y-116292000D03*
X138660000Y-116292000D03*
X139460000Y-116292000D03*
X140260000Y-116292000D03*
X141060000Y-116292000D03*
X141860000Y-116292000D03*
X142660000Y-116292000D03*
X143460000Y-116292000D03*
D24*
X119821000Y-78721000D03*
X119821000Y-77451000D03*
X119821000Y-76181000D03*
X119821000Y-74911000D03*
X119821000Y-73641000D03*
X119821000Y-72371000D03*
X119821000Y-71101000D03*
X119821000Y-69831000D03*
X119821000Y-68561000D03*
X119821000Y-67291000D03*
X119821000Y-66021000D03*
X119821000Y-64751000D03*
X119821000Y-63481000D03*
X119821000Y-62211000D03*
X119821000Y-60941000D03*
X119821000Y-59671000D03*
X119821000Y-58401000D03*
X119821000Y-57131000D03*
X119821000Y-55861000D03*
X119821000Y-54591000D03*
X108771000Y-54591000D03*
X108771000Y-55861000D03*
X108771000Y-57131000D03*
X108771000Y-58401000D03*
X108771000Y-59671000D03*
X108771000Y-60941000D03*
X108771000Y-62211000D03*
X108771000Y-63481000D03*
X108771000Y-64751000D03*
X108771000Y-66021000D03*
X108771000Y-67291000D03*
X108771000Y-68561000D03*
X108771000Y-69831000D03*
X108771000Y-71101000D03*
X108771000Y-72371000D03*
X108771000Y-73641000D03*
X108771000Y-74911000D03*
X108771000Y-76181000D03*
X108771000Y-77451000D03*
X108771000Y-78721000D03*
D23*
X138150000Y-129125000D03*
X140025000Y-129125000D03*
X138250000Y-125775000D03*
X140125000Y-125775000D03*
X138150000Y-122350000D03*
X140025000Y-122350000D03*
M02*
