G04 #@! TF.GenerationSoftware,KiCad,Pcbnew,(5.1.10)-1*
G04 #@! TF.CreationDate,2021-07-30T10:38:07+01:00*
G04 #@! TF.ProjectId,GfxV9990,47667856-3939-4393-902e-6b696361645f,rev?*
G04 #@! TF.SameCoordinates,Original*
G04 #@! TF.FileFunction,Soldermask,Top*
G04 #@! TF.FilePolarity,Negative*
%FSLAX46Y46*%
G04 Gerber Fmt 4.6, Leading zero omitted, Abs format (unit mm)*
G04 Created by KiCad (PCBNEW (5.1.10)-1) date 2021-07-30 10:38:07*
%MOMM*%
%LPD*%
G01*
G04 APERTURE LIST*
%ADD10C,0.854000*%
%ADD11R,1.925000X0.700000*%
%ADD12R,0.700000X1.925000*%
%ADD13R,0.800000X0.900000*%
%ADD14C,3.555000*%
%ADD15C,1.509000*%
%ADD16R,1.509000X1.509000*%
%ADD17C,1.550000*%
%ADD18C,2.850000*%
%ADD19C,2.300000*%
%ADD20C,1.600000*%
%ADD21R,1.600000X1.600000*%
%ADD22R,2.200000X0.500000*%
%ADD23O,0.350000X1.600000*%
%ADD24O,1.600000X0.350000*%
%ADD25C,1.200000*%
%ADD26O,2.416000X1.208000*%
%ADD27O,1.208000X2.416000*%
%ADD28O,1.700000X1.700000*%
%ADD29R,1.700000X1.700000*%
%ADD30C,3.600000*%
%ADD31R,3.765000X3.765000*%
%ADD32C,3.306000*%
%ADD33C,1.398000*%
%ADD34R,1.398000X1.398000*%
G04 APERTURE END LIST*
D10*
X198677000Y-54250000D02*
G75*
G03*
X198677000Y-54250000I-427000J0D01*
G01*
X196177000Y-54250000D02*
G75*
G03*
X196177000Y-54250000I-427000J0D01*
G01*
X198677000Y-64250000D02*
G75*
G03*
X198677000Y-64250000I-427000J0D01*
G01*
X196177000Y-64250000D02*
G75*
G03*
X196177000Y-64250000I-427000J0D01*
G01*
X191177000Y-59250000D02*
G75*
G03*
X191177000Y-59250000I-427000J0D01*
G01*
G36*
G01*
X182913000Y-93160000D02*
X183863000Y-93160000D01*
G75*
G02*
X184113000Y-93410000I0J-250000D01*
G01*
X184113000Y-93910000D01*
G75*
G02*
X183863000Y-94160000I-250000J0D01*
G01*
X182913000Y-94160000D01*
G75*
G02*
X182663000Y-93910000I0J250000D01*
G01*
X182663000Y-93410000D01*
G75*
G02*
X182913000Y-93160000I250000J0D01*
G01*
G37*
G36*
G01*
X182913000Y-91260000D02*
X183863000Y-91260000D01*
G75*
G02*
X184113000Y-91510000I0J-250000D01*
G01*
X184113000Y-92010000D01*
G75*
G02*
X183863000Y-92260000I-250000J0D01*
G01*
X182913000Y-92260000D01*
G75*
G02*
X182663000Y-92010000I0J250000D01*
G01*
X182663000Y-91510000D01*
G75*
G02*
X182913000Y-91260000I250000J0D01*
G01*
G37*
G36*
G01*
X174014000Y-63350000D02*
X174014000Y-63650000D01*
G75*
G02*
X173864000Y-63800000I-150000J0D01*
G01*
X172214000Y-63800000D01*
G75*
G02*
X172064000Y-63650000I0J150000D01*
G01*
X172064000Y-63350000D01*
G75*
G02*
X172214000Y-63200000I150000J0D01*
G01*
X173864000Y-63200000D01*
G75*
G02*
X174014000Y-63350000I0J-150000D01*
G01*
G37*
G36*
G01*
X174014000Y-62080000D02*
X174014000Y-62380000D01*
G75*
G02*
X173864000Y-62530000I-150000J0D01*
G01*
X172214000Y-62530000D01*
G75*
G02*
X172064000Y-62380000I0J150000D01*
G01*
X172064000Y-62080000D01*
G75*
G02*
X172214000Y-61930000I150000J0D01*
G01*
X173864000Y-61930000D01*
G75*
G02*
X174014000Y-62080000I0J-150000D01*
G01*
G37*
G36*
G01*
X174014000Y-60810000D02*
X174014000Y-61110000D01*
G75*
G02*
X173864000Y-61260000I-150000J0D01*
G01*
X172214000Y-61260000D01*
G75*
G02*
X172064000Y-61110000I0J150000D01*
G01*
X172064000Y-60810000D01*
G75*
G02*
X172214000Y-60660000I150000J0D01*
G01*
X173864000Y-60660000D01*
G75*
G02*
X174014000Y-60810000I0J-150000D01*
G01*
G37*
G36*
G01*
X174014000Y-59540000D02*
X174014000Y-59840000D01*
G75*
G02*
X173864000Y-59990000I-150000J0D01*
G01*
X172214000Y-59990000D01*
G75*
G02*
X172064000Y-59840000I0J150000D01*
G01*
X172064000Y-59540000D01*
G75*
G02*
X172214000Y-59390000I150000J0D01*
G01*
X173864000Y-59390000D01*
G75*
G02*
X174014000Y-59540000I0J-150000D01*
G01*
G37*
G36*
G01*
X174014000Y-58270000D02*
X174014000Y-58570000D01*
G75*
G02*
X173864000Y-58720000I-150000J0D01*
G01*
X172214000Y-58720000D01*
G75*
G02*
X172064000Y-58570000I0J150000D01*
G01*
X172064000Y-58270000D01*
G75*
G02*
X172214000Y-58120000I150000J0D01*
G01*
X173864000Y-58120000D01*
G75*
G02*
X174014000Y-58270000I0J-150000D01*
G01*
G37*
G36*
G01*
X174014000Y-57000000D02*
X174014000Y-57300000D01*
G75*
G02*
X173864000Y-57450000I-150000J0D01*
G01*
X172214000Y-57450000D01*
G75*
G02*
X172064000Y-57300000I0J150000D01*
G01*
X172064000Y-57000000D01*
G75*
G02*
X172214000Y-56850000I150000J0D01*
G01*
X173864000Y-56850000D01*
G75*
G02*
X174014000Y-57000000I0J-150000D01*
G01*
G37*
G36*
G01*
X174014000Y-55730000D02*
X174014000Y-56030000D01*
G75*
G02*
X173864000Y-56180000I-150000J0D01*
G01*
X172214000Y-56180000D01*
G75*
G02*
X172064000Y-56030000I0J150000D01*
G01*
X172064000Y-55730000D01*
G75*
G02*
X172214000Y-55580000I150000J0D01*
G01*
X173864000Y-55580000D01*
G75*
G02*
X174014000Y-55730000I0J-150000D01*
G01*
G37*
G36*
G01*
X178964000Y-55730000D02*
X178964000Y-56030000D01*
G75*
G02*
X178814000Y-56180000I-150000J0D01*
G01*
X177164000Y-56180000D01*
G75*
G02*
X177014000Y-56030000I0J150000D01*
G01*
X177014000Y-55730000D01*
G75*
G02*
X177164000Y-55580000I150000J0D01*
G01*
X178814000Y-55580000D01*
G75*
G02*
X178964000Y-55730000I0J-150000D01*
G01*
G37*
G36*
G01*
X178964000Y-57000000D02*
X178964000Y-57300000D01*
G75*
G02*
X178814000Y-57450000I-150000J0D01*
G01*
X177164000Y-57450000D01*
G75*
G02*
X177014000Y-57300000I0J150000D01*
G01*
X177014000Y-57000000D01*
G75*
G02*
X177164000Y-56850000I150000J0D01*
G01*
X178814000Y-56850000D01*
G75*
G02*
X178964000Y-57000000I0J-150000D01*
G01*
G37*
G36*
G01*
X178964000Y-58270000D02*
X178964000Y-58570000D01*
G75*
G02*
X178814000Y-58720000I-150000J0D01*
G01*
X177164000Y-58720000D01*
G75*
G02*
X177014000Y-58570000I0J150000D01*
G01*
X177014000Y-58270000D01*
G75*
G02*
X177164000Y-58120000I150000J0D01*
G01*
X178814000Y-58120000D01*
G75*
G02*
X178964000Y-58270000I0J-150000D01*
G01*
G37*
G36*
G01*
X178964000Y-59540000D02*
X178964000Y-59840000D01*
G75*
G02*
X178814000Y-59990000I-150000J0D01*
G01*
X177164000Y-59990000D01*
G75*
G02*
X177014000Y-59840000I0J150000D01*
G01*
X177014000Y-59540000D01*
G75*
G02*
X177164000Y-59390000I150000J0D01*
G01*
X178814000Y-59390000D01*
G75*
G02*
X178964000Y-59540000I0J-150000D01*
G01*
G37*
G36*
G01*
X178964000Y-60810000D02*
X178964000Y-61110000D01*
G75*
G02*
X178814000Y-61260000I-150000J0D01*
G01*
X177164000Y-61260000D01*
G75*
G02*
X177014000Y-61110000I0J150000D01*
G01*
X177014000Y-60810000D01*
G75*
G02*
X177164000Y-60660000I150000J0D01*
G01*
X178814000Y-60660000D01*
G75*
G02*
X178964000Y-60810000I0J-150000D01*
G01*
G37*
G36*
G01*
X178964000Y-62080000D02*
X178964000Y-62380000D01*
G75*
G02*
X178814000Y-62530000I-150000J0D01*
G01*
X177164000Y-62530000D01*
G75*
G02*
X177014000Y-62380000I0J150000D01*
G01*
X177014000Y-62080000D01*
G75*
G02*
X177164000Y-61930000I150000J0D01*
G01*
X178814000Y-61930000D01*
G75*
G02*
X178964000Y-62080000I0J-150000D01*
G01*
G37*
G36*
G01*
X178964000Y-63350000D02*
X178964000Y-63650000D01*
G75*
G02*
X178814000Y-63800000I-150000J0D01*
G01*
X177164000Y-63800000D01*
G75*
G02*
X177014000Y-63650000I0J150000D01*
G01*
X177014000Y-63350000D01*
G75*
G02*
X177164000Y-63200000I150000J0D01*
G01*
X178814000Y-63200000D01*
G75*
G02*
X178964000Y-63350000I0J-150000D01*
G01*
G37*
D11*
X157237500Y-130048000D03*
X157237500Y-128778000D03*
X157237500Y-127508000D03*
X157237500Y-126238000D03*
X157237500Y-124968000D03*
X157237500Y-123698000D03*
X157237500Y-122428000D03*
X157237500Y-121158000D03*
X157237500Y-119888000D03*
X157237500Y-118618000D03*
X157237500Y-117348000D03*
D12*
X158750000Y-115835500D03*
X160020000Y-115835500D03*
X161290000Y-115835500D03*
X162560000Y-115835500D03*
X163830000Y-115835500D03*
X165100000Y-115835500D03*
X166370000Y-115835500D03*
X167640000Y-115835500D03*
X168910000Y-115835500D03*
X170180000Y-115835500D03*
X171450000Y-115835500D03*
D11*
X172962500Y-117348000D03*
X172962500Y-118618000D03*
X172962500Y-119888000D03*
X172962500Y-121158000D03*
X172962500Y-122428000D03*
X172962500Y-123698000D03*
X172962500Y-124968000D03*
X172962500Y-126238000D03*
X172962500Y-127508000D03*
X172962500Y-128778000D03*
X172962500Y-130048000D03*
D12*
X158750000Y-131560500D03*
X160020000Y-131560500D03*
X161290000Y-131560500D03*
X162560000Y-131560500D03*
X163830000Y-131560500D03*
X171450000Y-131560500D03*
X170180000Y-131560500D03*
X168910000Y-131560500D03*
X167640000Y-131560500D03*
X166370000Y-131560500D03*
X165100000Y-131560500D03*
G36*
G01*
X114658000Y-134342000D02*
X114958000Y-134342000D01*
G75*
G02*
X115108000Y-134492000I0J-150000D01*
G01*
X115108000Y-136142000D01*
G75*
G02*
X114958000Y-136292000I-150000J0D01*
G01*
X114658000Y-136292000D01*
G75*
G02*
X114508000Y-136142000I0J150000D01*
G01*
X114508000Y-134492000D01*
G75*
G02*
X114658000Y-134342000I150000J0D01*
G01*
G37*
G36*
G01*
X113388000Y-134342000D02*
X113688000Y-134342000D01*
G75*
G02*
X113838000Y-134492000I0J-150000D01*
G01*
X113838000Y-136142000D01*
G75*
G02*
X113688000Y-136292000I-150000J0D01*
G01*
X113388000Y-136292000D01*
G75*
G02*
X113238000Y-136142000I0J150000D01*
G01*
X113238000Y-134492000D01*
G75*
G02*
X113388000Y-134342000I150000J0D01*
G01*
G37*
G36*
G01*
X112118000Y-134342000D02*
X112418000Y-134342000D01*
G75*
G02*
X112568000Y-134492000I0J-150000D01*
G01*
X112568000Y-136142000D01*
G75*
G02*
X112418000Y-136292000I-150000J0D01*
G01*
X112118000Y-136292000D01*
G75*
G02*
X111968000Y-136142000I0J150000D01*
G01*
X111968000Y-134492000D01*
G75*
G02*
X112118000Y-134342000I150000J0D01*
G01*
G37*
G36*
G01*
X110848000Y-134342000D02*
X111148000Y-134342000D01*
G75*
G02*
X111298000Y-134492000I0J-150000D01*
G01*
X111298000Y-136142000D01*
G75*
G02*
X111148000Y-136292000I-150000J0D01*
G01*
X110848000Y-136292000D01*
G75*
G02*
X110698000Y-136142000I0J150000D01*
G01*
X110698000Y-134492000D01*
G75*
G02*
X110848000Y-134342000I150000J0D01*
G01*
G37*
G36*
G01*
X109578000Y-134342000D02*
X109878000Y-134342000D01*
G75*
G02*
X110028000Y-134492000I0J-150000D01*
G01*
X110028000Y-136142000D01*
G75*
G02*
X109878000Y-136292000I-150000J0D01*
G01*
X109578000Y-136292000D01*
G75*
G02*
X109428000Y-136142000I0J150000D01*
G01*
X109428000Y-134492000D01*
G75*
G02*
X109578000Y-134342000I150000J0D01*
G01*
G37*
G36*
G01*
X108308000Y-134342000D02*
X108608000Y-134342000D01*
G75*
G02*
X108758000Y-134492000I0J-150000D01*
G01*
X108758000Y-136142000D01*
G75*
G02*
X108608000Y-136292000I-150000J0D01*
G01*
X108308000Y-136292000D01*
G75*
G02*
X108158000Y-136142000I0J150000D01*
G01*
X108158000Y-134492000D01*
G75*
G02*
X108308000Y-134342000I150000J0D01*
G01*
G37*
G36*
G01*
X107038000Y-134342000D02*
X107338000Y-134342000D01*
G75*
G02*
X107488000Y-134492000I0J-150000D01*
G01*
X107488000Y-136142000D01*
G75*
G02*
X107338000Y-136292000I-150000J0D01*
G01*
X107038000Y-136292000D01*
G75*
G02*
X106888000Y-136142000I0J150000D01*
G01*
X106888000Y-134492000D01*
G75*
G02*
X107038000Y-134342000I150000J0D01*
G01*
G37*
G36*
G01*
X107038000Y-129392000D02*
X107338000Y-129392000D01*
G75*
G02*
X107488000Y-129542000I0J-150000D01*
G01*
X107488000Y-131192000D01*
G75*
G02*
X107338000Y-131342000I-150000J0D01*
G01*
X107038000Y-131342000D01*
G75*
G02*
X106888000Y-131192000I0J150000D01*
G01*
X106888000Y-129542000D01*
G75*
G02*
X107038000Y-129392000I150000J0D01*
G01*
G37*
G36*
G01*
X108308000Y-129392000D02*
X108608000Y-129392000D01*
G75*
G02*
X108758000Y-129542000I0J-150000D01*
G01*
X108758000Y-131192000D01*
G75*
G02*
X108608000Y-131342000I-150000J0D01*
G01*
X108308000Y-131342000D01*
G75*
G02*
X108158000Y-131192000I0J150000D01*
G01*
X108158000Y-129542000D01*
G75*
G02*
X108308000Y-129392000I150000J0D01*
G01*
G37*
G36*
G01*
X109578000Y-129392000D02*
X109878000Y-129392000D01*
G75*
G02*
X110028000Y-129542000I0J-150000D01*
G01*
X110028000Y-131192000D01*
G75*
G02*
X109878000Y-131342000I-150000J0D01*
G01*
X109578000Y-131342000D01*
G75*
G02*
X109428000Y-131192000I0J150000D01*
G01*
X109428000Y-129542000D01*
G75*
G02*
X109578000Y-129392000I150000J0D01*
G01*
G37*
G36*
G01*
X110848000Y-129392000D02*
X111148000Y-129392000D01*
G75*
G02*
X111298000Y-129542000I0J-150000D01*
G01*
X111298000Y-131192000D01*
G75*
G02*
X111148000Y-131342000I-150000J0D01*
G01*
X110848000Y-131342000D01*
G75*
G02*
X110698000Y-131192000I0J150000D01*
G01*
X110698000Y-129542000D01*
G75*
G02*
X110848000Y-129392000I150000J0D01*
G01*
G37*
G36*
G01*
X112118000Y-129392000D02*
X112418000Y-129392000D01*
G75*
G02*
X112568000Y-129542000I0J-150000D01*
G01*
X112568000Y-131192000D01*
G75*
G02*
X112418000Y-131342000I-150000J0D01*
G01*
X112118000Y-131342000D01*
G75*
G02*
X111968000Y-131192000I0J150000D01*
G01*
X111968000Y-129542000D01*
G75*
G02*
X112118000Y-129392000I150000J0D01*
G01*
G37*
G36*
G01*
X113388000Y-129392000D02*
X113688000Y-129392000D01*
G75*
G02*
X113838000Y-129542000I0J-150000D01*
G01*
X113838000Y-131192000D01*
G75*
G02*
X113688000Y-131342000I-150000J0D01*
G01*
X113388000Y-131342000D01*
G75*
G02*
X113238000Y-131192000I0J150000D01*
G01*
X113238000Y-129542000D01*
G75*
G02*
X113388000Y-129392000I150000J0D01*
G01*
G37*
G36*
G01*
X114658000Y-129392000D02*
X114958000Y-129392000D01*
G75*
G02*
X115108000Y-129542000I0J-150000D01*
G01*
X115108000Y-131192000D01*
G75*
G02*
X114958000Y-131342000I-150000J0D01*
G01*
X114658000Y-131342000D01*
G75*
G02*
X114508000Y-131192000I0J150000D01*
G01*
X114508000Y-129542000D01*
G75*
G02*
X114658000Y-129392000I150000J0D01*
G01*
G37*
G36*
G01*
X119400500Y-121360250D02*
X119400500Y-120447750D01*
G75*
G02*
X119644250Y-120204000I243750J0D01*
G01*
X120131750Y-120204000D01*
G75*
G02*
X120375500Y-120447750I0J-243750D01*
G01*
X120375500Y-121360250D01*
G75*
G02*
X120131750Y-121604000I-243750J0D01*
G01*
X119644250Y-121604000D01*
G75*
G02*
X119400500Y-121360250I0J243750D01*
G01*
G37*
G36*
G01*
X117525500Y-121360250D02*
X117525500Y-120447750D01*
G75*
G02*
X117769250Y-120204000I243750J0D01*
G01*
X118256750Y-120204000D01*
G75*
G02*
X118500500Y-120447750I0J-243750D01*
G01*
X118500500Y-121360250D01*
G75*
G02*
X118256750Y-121604000I-243750J0D01*
G01*
X117769250Y-121604000D01*
G75*
G02*
X117525500Y-121360250I0J243750D01*
G01*
G37*
G36*
G01*
X119400500Y-124662250D02*
X119400500Y-123749750D01*
G75*
G02*
X119644250Y-123506000I243750J0D01*
G01*
X120131750Y-123506000D01*
G75*
G02*
X120375500Y-123749750I0J-243750D01*
G01*
X120375500Y-124662250D01*
G75*
G02*
X120131750Y-124906000I-243750J0D01*
G01*
X119644250Y-124906000D01*
G75*
G02*
X119400500Y-124662250I0J243750D01*
G01*
G37*
G36*
G01*
X117525500Y-124662250D02*
X117525500Y-123749750D01*
G75*
G02*
X117769250Y-123506000I243750J0D01*
G01*
X118256750Y-123506000D01*
G75*
G02*
X118500500Y-123749750I0J-243750D01*
G01*
X118500500Y-124662250D01*
G75*
G02*
X118256750Y-124906000I-243750J0D01*
G01*
X117769250Y-124906000D01*
G75*
G02*
X117525500Y-124662250I0J243750D01*
G01*
G37*
G36*
G01*
X139537500Y-122806250D02*
X139537500Y-121893750D01*
G75*
G02*
X139781250Y-121650000I243750J0D01*
G01*
X140268750Y-121650000D01*
G75*
G02*
X140512500Y-121893750I0J-243750D01*
G01*
X140512500Y-122806250D01*
G75*
G02*
X140268750Y-123050000I-243750J0D01*
G01*
X139781250Y-123050000D01*
G75*
G02*
X139537500Y-122806250I0J243750D01*
G01*
G37*
G36*
G01*
X137662500Y-122806250D02*
X137662500Y-121893750D01*
G75*
G02*
X137906250Y-121650000I243750J0D01*
G01*
X138393750Y-121650000D01*
G75*
G02*
X138637500Y-121893750I0J-243750D01*
G01*
X138637500Y-122806250D01*
G75*
G02*
X138393750Y-123050000I-243750J0D01*
G01*
X137906250Y-123050000D01*
G75*
G02*
X137662500Y-122806250I0J243750D01*
G01*
G37*
G36*
G01*
X139637500Y-126231250D02*
X139637500Y-125318750D01*
G75*
G02*
X139881250Y-125075000I243750J0D01*
G01*
X140368750Y-125075000D01*
G75*
G02*
X140612500Y-125318750I0J-243750D01*
G01*
X140612500Y-126231250D01*
G75*
G02*
X140368750Y-126475000I-243750J0D01*
G01*
X139881250Y-126475000D01*
G75*
G02*
X139637500Y-126231250I0J243750D01*
G01*
G37*
G36*
G01*
X137762500Y-126231250D02*
X137762500Y-125318750D01*
G75*
G02*
X138006250Y-125075000I243750J0D01*
G01*
X138493750Y-125075000D01*
G75*
G02*
X138737500Y-125318750I0J-243750D01*
G01*
X138737500Y-126231250D01*
G75*
G02*
X138493750Y-126475000I-243750J0D01*
G01*
X138006250Y-126475000D01*
G75*
G02*
X137762500Y-126231250I0J243750D01*
G01*
G37*
G36*
G01*
X139537500Y-129581250D02*
X139537500Y-128668750D01*
G75*
G02*
X139781250Y-128425000I243750J0D01*
G01*
X140268750Y-128425000D01*
G75*
G02*
X140512500Y-128668750I0J-243750D01*
G01*
X140512500Y-129581250D01*
G75*
G02*
X140268750Y-129825000I-243750J0D01*
G01*
X139781250Y-129825000D01*
G75*
G02*
X139537500Y-129581250I0J243750D01*
G01*
G37*
G36*
G01*
X137662500Y-129581250D02*
X137662500Y-128668750D01*
G75*
G02*
X137906250Y-128425000I243750J0D01*
G01*
X138393750Y-128425000D01*
G75*
G02*
X138637500Y-128668750I0J-243750D01*
G01*
X138637500Y-129581250D01*
G75*
G02*
X138393750Y-129825000I-243750J0D01*
G01*
X137906250Y-129825000D01*
G75*
G02*
X137662500Y-129581250I0J243750D01*
G01*
G37*
G36*
G01*
X110372500Y-126289750D02*
X110372500Y-127202250D01*
G75*
G02*
X110128750Y-127446000I-243750J0D01*
G01*
X109641250Y-127446000D01*
G75*
G02*
X109397500Y-127202250I0J243750D01*
G01*
X109397500Y-126289750D01*
G75*
G02*
X109641250Y-126046000I243750J0D01*
G01*
X110128750Y-126046000D01*
G75*
G02*
X110372500Y-126289750I0J-243750D01*
G01*
G37*
G36*
G01*
X112247500Y-126289750D02*
X112247500Y-127202250D01*
G75*
G02*
X112003750Y-127446000I-243750J0D01*
G01*
X111516250Y-127446000D01*
G75*
G02*
X111272500Y-127202250I0J243750D01*
G01*
X111272500Y-126289750D01*
G75*
G02*
X111516250Y-126046000I243750J0D01*
G01*
X112003750Y-126046000D01*
G75*
G02*
X112247500Y-126289750I0J-243750D01*
G01*
G37*
G36*
G01*
X179883750Y-102479500D02*
X180796250Y-102479500D01*
G75*
G02*
X181040000Y-102723250I0J-243750D01*
G01*
X181040000Y-103210750D01*
G75*
G02*
X180796250Y-103454500I-243750J0D01*
G01*
X179883750Y-103454500D01*
G75*
G02*
X179640000Y-103210750I0J243750D01*
G01*
X179640000Y-102723250D01*
G75*
G02*
X179883750Y-102479500I243750J0D01*
G01*
G37*
G36*
G01*
X179883750Y-100604500D02*
X180796250Y-100604500D01*
G75*
G02*
X181040000Y-100848250I0J-243750D01*
G01*
X181040000Y-101335750D01*
G75*
G02*
X180796250Y-101579500I-243750J0D01*
G01*
X179883750Y-101579500D01*
G75*
G02*
X179640000Y-101335750I0J243750D01*
G01*
X179640000Y-100848250D01*
G75*
G02*
X179883750Y-100604500I243750J0D01*
G01*
G37*
G36*
G01*
X173110500Y-108509750D02*
X173110500Y-109422250D01*
G75*
G02*
X172866750Y-109666000I-243750J0D01*
G01*
X172379250Y-109666000D01*
G75*
G02*
X172135500Y-109422250I0J243750D01*
G01*
X172135500Y-108509750D01*
G75*
G02*
X172379250Y-108266000I243750J0D01*
G01*
X172866750Y-108266000D01*
G75*
G02*
X173110500Y-108509750I0J-243750D01*
G01*
G37*
G36*
G01*
X174985500Y-108509750D02*
X174985500Y-109422250D01*
G75*
G02*
X174741750Y-109666000I-243750J0D01*
G01*
X174254250Y-109666000D01*
G75*
G02*
X174010500Y-109422250I0J243750D01*
G01*
X174010500Y-108509750D01*
G75*
G02*
X174254250Y-108266000I243750J0D01*
G01*
X174741750Y-108266000D01*
G75*
G02*
X174985500Y-108509750I0J-243750D01*
G01*
G37*
G36*
G01*
X173110500Y-104953750D02*
X173110500Y-105866250D01*
G75*
G02*
X172866750Y-106110000I-243750J0D01*
G01*
X172379250Y-106110000D01*
G75*
G02*
X172135500Y-105866250I0J243750D01*
G01*
X172135500Y-104953750D01*
G75*
G02*
X172379250Y-104710000I243750J0D01*
G01*
X172866750Y-104710000D01*
G75*
G02*
X173110500Y-104953750I0J-243750D01*
G01*
G37*
G36*
G01*
X174985500Y-104953750D02*
X174985500Y-105866250D01*
G75*
G02*
X174741750Y-106110000I-243750J0D01*
G01*
X174254250Y-106110000D01*
G75*
G02*
X174010500Y-105866250I0J243750D01*
G01*
X174010500Y-104953750D01*
G75*
G02*
X174254250Y-104710000I243750J0D01*
G01*
X174741750Y-104710000D01*
G75*
G02*
X174985500Y-104953750I0J-243750D01*
G01*
G37*
G36*
G01*
X175565750Y-82667500D02*
X176478250Y-82667500D01*
G75*
G02*
X176722000Y-82911250I0J-243750D01*
G01*
X176722000Y-83398750D01*
G75*
G02*
X176478250Y-83642500I-243750J0D01*
G01*
X175565750Y-83642500D01*
G75*
G02*
X175322000Y-83398750I0J243750D01*
G01*
X175322000Y-82911250D01*
G75*
G02*
X175565750Y-82667500I243750J0D01*
G01*
G37*
G36*
G01*
X175565750Y-80792500D02*
X176478250Y-80792500D01*
G75*
G02*
X176722000Y-81036250I0J-243750D01*
G01*
X176722000Y-81523750D01*
G75*
G02*
X176478250Y-81767500I-243750J0D01*
G01*
X175565750Y-81767500D01*
G75*
G02*
X175322000Y-81523750I0J243750D01*
G01*
X175322000Y-81036250D01*
G75*
G02*
X175565750Y-80792500I243750J0D01*
G01*
G37*
G36*
G01*
X182169750Y-82667500D02*
X183082250Y-82667500D01*
G75*
G02*
X183326000Y-82911250I0J-243750D01*
G01*
X183326000Y-83398750D01*
G75*
G02*
X183082250Y-83642500I-243750J0D01*
G01*
X182169750Y-83642500D01*
G75*
G02*
X181926000Y-83398750I0J243750D01*
G01*
X181926000Y-82911250D01*
G75*
G02*
X182169750Y-82667500I243750J0D01*
G01*
G37*
G36*
G01*
X182169750Y-80792500D02*
X183082250Y-80792500D01*
G75*
G02*
X183326000Y-81036250I0J-243750D01*
G01*
X183326000Y-81523750D01*
G75*
G02*
X183082250Y-81767500I-243750J0D01*
G01*
X182169750Y-81767500D01*
G75*
G02*
X181926000Y-81523750I0J243750D01*
G01*
X181926000Y-81036250D01*
G75*
G02*
X182169750Y-80792500I243750J0D01*
G01*
G37*
G36*
G01*
X178867750Y-82667500D02*
X179780250Y-82667500D01*
G75*
G02*
X180024000Y-82911250I0J-243750D01*
G01*
X180024000Y-83398750D01*
G75*
G02*
X179780250Y-83642500I-243750J0D01*
G01*
X178867750Y-83642500D01*
G75*
G02*
X178624000Y-83398750I0J243750D01*
G01*
X178624000Y-82911250D01*
G75*
G02*
X178867750Y-82667500I243750J0D01*
G01*
G37*
G36*
G01*
X178867750Y-80792500D02*
X179780250Y-80792500D01*
G75*
G02*
X180024000Y-81036250I0J-243750D01*
G01*
X180024000Y-81523750D01*
G75*
G02*
X179780250Y-81767500I-243750J0D01*
G01*
X178867750Y-81767500D01*
G75*
G02*
X178624000Y-81523750I0J243750D01*
G01*
X178624000Y-81036250D01*
G75*
G02*
X178867750Y-80792500I243750J0D01*
G01*
G37*
G36*
G01*
X172263750Y-82667500D02*
X173176250Y-82667500D01*
G75*
G02*
X173420000Y-82911250I0J-243750D01*
G01*
X173420000Y-83398750D01*
G75*
G02*
X173176250Y-83642500I-243750J0D01*
G01*
X172263750Y-83642500D01*
G75*
G02*
X172020000Y-83398750I0J243750D01*
G01*
X172020000Y-82911250D01*
G75*
G02*
X172263750Y-82667500I243750J0D01*
G01*
G37*
G36*
G01*
X172263750Y-80792500D02*
X173176250Y-80792500D01*
G75*
G02*
X173420000Y-81036250I0J-243750D01*
G01*
X173420000Y-81523750D01*
G75*
G02*
X173176250Y-81767500I-243750J0D01*
G01*
X172263750Y-81767500D01*
G75*
G02*
X172020000Y-81523750I0J243750D01*
G01*
X172020000Y-81036250D01*
G75*
G02*
X172263750Y-80792500I243750J0D01*
G01*
G37*
G36*
G01*
X168961750Y-82667500D02*
X169874250Y-82667500D01*
G75*
G02*
X170118000Y-82911250I0J-243750D01*
G01*
X170118000Y-83398750D01*
G75*
G02*
X169874250Y-83642500I-243750J0D01*
G01*
X168961750Y-83642500D01*
G75*
G02*
X168718000Y-83398750I0J243750D01*
G01*
X168718000Y-82911250D01*
G75*
G02*
X168961750Y-82667500I243750J0D01*
G01*
G37*
G36*
G01*
X168961750Y-80792500D02*
X169874250Y-80792500D01*
G75*
G02*
X170118000Y-81036250I0J-243750D01*
G01*
X170118000Y-81523750D01*
G75*
G02*
X169874250Y-81767500I-243750J0D01*
G01*
X168961750Y-81767500D01*
G75*
G02*
X168718000Y-81523750I0J243750D01*
G01*
X168718000Y-81036250D01*
G75*
G02*
X168961750Y-80792500I243750J0D01*
G01*
G37*
G36*
G01*
X165659750Y-82667500D02*
X166572250Y-82667500D01*
G75*
G02*
X166816000Y-82911250I0J-243750D01*
G01*
X166816000Y-83398750D01*
G75*
G02*
X166572250Y-83642500I-243750J0D01*
G01*
X165659750Y-83642500D01*
G75*
G02*
X165416000Y-83398750I0J243750D01*
G01*
X165416000Y-82911250D01*
G75*
G02*
X165659750Y-82667500I243750J0D01*
G01*
G37*
G36*
G01*
X165659750Y-80792500D02*
X166572250Y-80792500D01*
G75*
G02*
X166816000Y-81036250I0J-243750D01*
G01*
X166816000Y-81523750D01*
G75*
G02*
X166572250Y-81767500I-243750J0D01*
G01*
X165659750Y-81767500D01*
G75*
G02*
X165416000Y-81523750I0J243750D01*
G01*
X165416000Y-81036250D01*
G75*
G02*
X165659750Y-80792500I243750J0D01*
G01*
G37*
G36*
G01*
X162103750Y-82667500D02*
X163016250Y-82667500D01*
G75*
G02*
X163260000Y-82911250I0J-243750D01*
G01*
X163260000Y-83398750D01*
G75*
G02*
X163016250Y-83642500I-243750J0D01*
G01*
X162103750Y-83642500D01*
G75*
G02*
X161860000Y-83398750I0J243750D01*
G01*
X161860000Y-82911250D01*
G75*
G02*
X162103750Y-82667500I243750J0D01*
G01*
G37*
G36*
G01*
X162103750Y-80792500D02*
X163016250Y-80792500D01*
G75*
G02*
X163260000Y-81036250I0J-243750D01*
G01*
X163260000Y-81523750D01*
G75*
G02*
X163016250Y-81767500I-243750J0D01*
G01*
X162103750Y-81767500D01*
G75*
G02*
X161860000Y-81523750I0J243750D01*
G01*
X161860000Y-81036250D01*
G75*
G02*
X162103750Y-80792500I243750J0D01*
G01*
G37*
G36*
G01*
X182931750Y-89017500D02*
X183844250Y-89017500D01*
G75*
G02*
X184088000Y-89261250I0J-243750D01*
G01*
X184088000Y-89748750D01*
G75*
G02*
X183844250Y-89992500I-243750J0D01*
G01*
X182931750Y-89992500D01*
G75*
G02*
X182688000Y-89748750I0J243750D01*
G01*
X182688000Y-89261250D01*
G75*
G02*
X182931750Y-89017500I243750J0D01*
G01*
G37*
G36*
G01*
X182931750Y-87142500D02*
X183844250Y-87142500D01*
G75*
G02*
X184088000Y-87386250I0J-243750D01*
G01*
X184088000Y-87873750D01*
G75*
G02*
X183844250Y-88117500I-243750J0D01*
G01*
X182931750Y-88117500D01*
G75*
G02*
X182688000Y-87873750I0J243750D01*
G01*
X182688000Y-87386250D01*
G75*
G02*
X182931750Y-87142500I243750J0D01*
G01*
G37*
G36*
G01*
X181407750Y-61077500D02*
X182320250Y-61077500D01*
G75*
G02*
X182564000Y-61321250I0J-243750D01*
G01*
X182564000Y-61808750D01*
G75*
G02*
X182320250Y-62052500I-243750J0D01*
G01*
X181407750Y-62052500D01*
G75*
G02*
X181164000Y-61808750I0J243750D01*
G01*
X181164000Y-61321250D01*
G75*
G02*
X181407750Y-61077500I243750J0D01*
G01*
G37*
G36*
G01*
X181407750Y-59202500D02*
X182320250Y-59202500D01*
G75*
G02*
X182564000Y-59446250I0J-243750D01*
G01*
X182564000Y-59933750D01*
G75*
G02*
X182320250Y-60177500I-243750J0D01*
G01*
X181407750Y-60177500D01*
G75*
G02*
X181164000Y-59933750I0J243750D01*
G01*
X181164000Y-59446250D01*
G75*
G02*
X181407750Y-59202500I243750J0D01*
G01*
G37*
G36*
G01*
X168792500Y-108509750D02*
X168792500Y-109422250D01*
G75*
G02*
X168548750Y-109666000I-243750J0D01*
G01*
X168061250Y-109666000D01*
G75*
G02*
X167817500Y-109422250I0J243750D01*
G01*
X167817500Y-108509750D01*
G75*
G02*
X168061250Y-108266000I243750J0D01*
G01*
X168548750Y-108266000D01*
G75*
G02*
X168792500Y-108509750I0J-243750D01*
G01*
G37*
G36*
G01*
X170667500Y-108509750D02*
X170667500Y-109422250D01*
G75*
G02*
X170423750Y-109666000I-243750J0D01*
G01*
X169936250Y-109666000D01*
G75*
G02*
X169692500Y-109422250I0J243750D01*
G01*
X169692500Y-108509750D01*
G75*
G02*
X169936250Y-108266000I243750J0D01*
G01*
X170423750Y-108266000D01*
G75*
G02*
X170667500Y-108509750I0J-243750D01*
G01*
G37*
G36*
G01*
X156852200Y-98705350D02*
X156852200Y-99617850D01*
G75*
G02*
X156608450Y-99861600I-243750J0D01*
G01*
X156120950Y-99861600D01*
G75*
G02*
X155877200Y-99617850I0J243750D01*
G01*
X155877200Y-98705350D01*
G75*
G02*
X156120950Y-98461600I243750J0D01*
G01*
X156608450Y-98461600D01*
G75*
G02*
X156852200Y-98705350I0J-243750D01*
G01*
G37*
G36*
G01*
X158727200Y-98705350D02*
X158727200Y-99617850D01*
G75*
G02*
X158483450Y-99861600I-243750J0D01*
G01*
X157995950Y-99861600D01*
G75*
G02*
X157752200Y-99617850I0J243750D01*
G01*
X157752200Y-98705350D01*
G75*
G02*
X157995950Y-98461600I243750J0D01*
G01*
X158483450Y-98461600D01*
G75*
G02*
X158727200Y-98705350I0J-243750D01*
G01*
G37*
G36*
G01*
X156852200Y-102159750D02*
X156852200Y-103072250D01*
G75*
G02*
X156608450Y-103316000I-243750J0D01*
G01*
X156120950Y-103316000D01*
G75*
G02*
X155877200Y-103072250I0J243750D01*
G01*
X155877200Y-102159750D01*
G75*
G02*
X156120950Y-101916000I243750J0D01*
G01*
X156608450Y-101916000D01*
G75*
G02*
X156852200Y-102159750I0J-243750D01*
G01*
G37*
G36*
G01*
X158727200Y-102159750D02*
X158727200Y-103072250D01*
G75*
G02*
X158483450Y-103316000I-243750J0D01*
G01*
X157995950Y-103316000D01*
G75*
G02*
X157752200Y-103072250I0J243750D01*
G01*
X157752200Y-102159750D01*
G75*
G02*
X157995950Y-101916000I243750J0D01*
G01*
X158483450Y-101916000D01*
G75*
G02*
X158727200Y-102159750I0J-243750D01*
G01*
G37*
G36*
G01*
X160984250Y-58302500D02*
X160071750Y-58302500D01*
G75*
G02*
X159828000Y-58058750I0J243750D01*
G01*
X159828000Y-57571250D01*
G75*
G02*
X160071750Y-57327500I243750J0D01*
G01*
X160984250Y-57327500D01*
G75*
G02*
X161228000Y-57571250I0J-243750D01*
G01*
X161228000Y-58058750D01*
G75*
G02*
X160984250Y-58302500I-243750J0D01*
G01*
G37*
G36*
G01*
X160984250Y-60177500D02*
X160071750Y-60177500D01*
G75*
G02*
X159828000Y-59933750I0J243750D01*
G01*
X159828000Y-59446250D01*
G75*
G02*
X160071750Y-59202500I243750J0D01*
G01*
X160984250Y-59202500D01*
G75*
G02*
X161228000Y-59446250I0J-243750D01*
G01*
X161228000Y-59933750D01*
G75*
G02*
X160984250Y-60177500I-243750J0D01*
G01*
G37*
G36*
G01*
X156854500Y-105563350D02*
X156854500Y-106475850D01*
G75*
G02*
X156610750Y-106719600I-243750J0D01*
G01*
X156123250Y-106719600D01*
G75*
G02*
X155879500Y-106475850I0J243750D01*
G01*
X155879500Y-105563350D01*
G75*
G02*
X156123250Y-105319600I243750J0D01*
G01*
X156610750Y-105319600D01*
G75*
G02*
X156854500Y-105563350I0J-243750D01*
G01*
G37*
G36*
G01*
X158729500Y-105563350D02*
X158729500Y-106475850D01*
G75*
G02*
X158485750Y-106719600I-243750J0D01*
G01*
X157998250Y-106719600D01*
G75*
G02*
X157754500Y-106475850I0J243750D01*
G01*
X157754500Y-105563350D01*
G75*
G02*
X157998250Y-105319600I243750J0D01*
G01*
X158485750Y-105319600D01*
G75*
G02*
X158729500Y-105563350I0J-243750D01*
G01*
G37*
G36*
G01*
X195130000Y-134925750D02*
X195130000Y-135838250D01*
G75*
G02*
X194886250Y-136082000I-243750J0D01*
G01*
X194398750Y-136082000D01*
G75*
G02*
X194155000Y-135838250I0J243750D01*
G01*
X194155000Y-134925750D01*
G75*
G02*
X194398750Y-134682000I243750J0D01*
G01*
X194886250Y-134682000D01*
G75*
G02*
X195130000Y-134925750I0J-243750D01*
G01*
G37*
G36*
G01*
X197005000Y-134925750D02*
X197005000Y-135838250D01*
G75*
G02*
X196761250Y-136082000I-243750J0D01*
G01*
X196273750Y-136082000D01*
G75*
G02*
X196030000Y-135838250I0J243750D01*
G01*
X196030000Y-134925750D01*
G75*
G02*
X196273750Y-134682000I243750J0D01*
G01*
X196761250Y-134682000D01*
G75*
G02*
X197005000Y-134925750I0J-243750D01*
G01*
G37*
D13*
X176088000Y-100870000D03*
X177038000Y-102870000D03*
X175138000Y-102870000D03*
G36*
G01*
X196479000Y-139563000D02*
X196479000Y-138313000D01*
G75*
G02*
X196729000Y-138063000I250000J0D01*
G01*
X197479000Y-138063000D01*
G75*
G02*
X197729000Y-138313000I0J-250000D01*
G01*
X197729000Y-139563000D01*
G75*
G02*
X197479000Y-139813000I-250000J0D01*
G01*
X196729000Y-139813000D01*
G75*
G02*
X196479000Y-139563000I0J250000D01*
G01*
G37*
G36*
G01*
X193679000Y-139563000D02*
X193679000Y-138313000D01*
G75*
G02*
X193929000Y-138063000I250000J0D01*
G01*
X194679000Y-138063000D01*
G75*
G02*
X194929000Y-138313000I0J-250000D01*
G01*
X194929000Y-139563000D01*
G75*
G02*
X194679000Y-139813000I-250000J0D01*
G01*
X193929000Y-139813000D01*
G75*
G02*
X193679000Y-139563000I0J250000D01*
G01*
G37*
G36*
G01*
X106688000Y-117823000D02*
X106688000Y-116873000D01*
G75*
G02*
X106938000Y-116623000I250000J0D01*
G01*
X107438000Y-116623000D01*
G75*
G02*
X107688000Y-116873000I0J-250000D01*
G01*
X107688000Y-117823000D01*
G75*
G02*
X107438000Y-118073000I-250000J0D01*
G01*
X106938000Y-118073000D01*
G75*
G02*
X106688000Y-117823000I0J250000D01*
G01*
G37*
G36*
G01*
X104788000Y-117823000D02*
X104788000Y-116873000D01*
G75*
G02*
X105038000Y-116623000I250000J0D01*
G01*
X105538000Y-116623000D01*
G75*
G02*
X105788000Y-116873000I0J-250000D01*
G01*
X105788000Y-117823000D01*
G75*
G02*
X105538000Y-118073000I-250000J0D01*
G01*
X105038000Y-118073000D01*
G75*
G02*
X104788000Y-117823000I0J250000D01*
G01*
G37*
G36*
G01*
X134054000Y-55085000D02*
X134054000Y-54135000D01*
G75*
G02*
X134304000Y-53885000I250000J0D01*
G01*
X134804000Y-53885000D01*
G75*
G02*
X135054000Y-54135000I0J-250000D01*
G01*
X135054000Y-55085000D01*
G75*
G02*
X134804000Y-55335000I-250000J0D01*
G01*
X134304000Y-55335000D01*
G75*
G02*
X134054000Y-55085000I0J250000D01*
G01*
G37*
G36*
G01*
X132154000Y-55085000D02*
X132154000Y-54135000D01*
G75*
G02*
X132404000Y-53885000I250000J0D01*
G01*
X132904000Y-53885000D01*
G75*
G02*
X133154000Y-54135000I0J-250000D01*
G01*
X133154000Y-55085000D01*
G75*
G02*
X132904000Y-55335000I-250000J0D01*
G01*
X132404000Y-55335000D01*
G75*
G02*
X132154000Y-55085000I0J250000D01*
G01*
G37*
G36*
G01*
X123960000Y-55085000D02*
X123960000Y-54135000D01*
G75*
G02*
X124210000Y-53885000I250000J0D01*
G01*
X124710000Y-53885000D01*
G75*
G02*
X124960000Y-54135000I0J-250000D01*
G01*
X124960000Y-55085000D01*
G75*
G02*
X124710000Y-55335000I-250000J0D01*
G01*
X124210000Y-55335000D01*
G75*
G02*
X123960000Y-55085000I0J250000D01*
G01*
G37*
G36*
G01*
X122060000Y-55085000D02*
X122060000Y-54135000D01*
G75*
G02*
X122310000Y-53885000I250000J0D01*
G01*
X122810000Y-53885000D01*
G75*
G02*
X123060000Y-54135000I0J-250000D01*
G01*
X123060000Y-55085000D01*
G75*
G02*
X122810000Y-55335000I-250000J0D01*
G01*
X122310000Y-55335000D01*
G75*
G02*
X122060000Y-55085000I0J250000D01*
G01*
G37*
G36*
G01*
X149131000Y-90686000D02*
X150081000Y-90686000D01*
G75*
G02*
X150331000Y-90936000I0J-250000D01*
G01*
X150331000Y-91436000D01*
G75*
G02*
X150081000Y-91686000I-250000J0D01*
G01*
X149131000Y-91686000D01*
G75*
G02*
X148881000Y-91436000I0J250000D01*
G01*
X148881000Y-90936000D01*
G75*
G02*
X149131000Y-90686000I250000J0D01*
G01*
G37*
G36*
G01*
X149131000Y-88786000D02*
X150081000Y-88786000D01*
G75*
G02*
X150331000Y-89036000I0J-250000D01*
G01*
X150331000Y-89536000D01*
G75*
G02*
X150081000Y-89786000I-250000J0D01*
G01*
X149131000Y-89786000D01*
G75*
G02*
X148881000Y-89536000I0J250000D01*
G01*
X148881000Y-89036000D01*
G75*
G02*
X149131000Y-88786000I250000J0D01*
G01*
G37*
G36*
G01*
X111448000Y-117823000D02*
X111448000Y-116873000D01*
G75*
G02*
X111698000Y-116623000I250000J0D01*
G01*
X112198000Y-116623000D01*
G75*
G02*
X112448000Y-116873000I0J-250000D01*
G01*
X112448000Y-117823000D01*
G75*
G02*
X112198000Y-118073000I-250000J0D01*
G01*
X111698000Y-118073000D01*
G75*
G02*
X111448000Y-117823000I0J250000D01*
G01*
G37*
G36*
G01*
X109548000Y-117823000D02*
X109548000Y-116873000D01*
G75*
G02*
X109798000Y-116623000I250000J0D01*
G01*
X110298000Y-116623000D01*
G75*
G02*
X110548000Y-116873000I0J-250000D01*
G01*
X110548000Y-117823000D01*
G75*
G02*
X110298000Y-118073000I-250000J0D01*
G01*
X109798000Y-118073000D01*
G75*
G02*
X109548000Y-117823000I0J250000D01*
G01*
G37*
G36*
G01*
X115070000Y-127221000D02*
X115070000Y-126271000D01*
G75*
G02*
X115320000Y-126021000I250000J0D01*
G01*
X115820000Y-126021000D01*
G75*
G02*
X116070000Y-126271000I0J-250000D01*
G01*
X116070000Y-127221000D01*
G75*
G02*
X115820000Y-127471000I-250000J0D01*
G01*
X115320000Y-127471000D01*
G75*
G02*
X115070000Y-127221000I0J250000D01*
G01*
G37*
G36*
G01*
X113170000Y-127221000D02*
X113170000Y-126271000D01*
G75*
G02*
X113420000Y-126021000I250000J0D01*
G01*
X113920000Y-126021000D01*
G75*
G02*
X114170000Y-126271000I0J-250000D01*
G01*
X114170000Y-127221000D01*
G75*
G02*
X113920000Y-127471000I-250000J0D01*
G01*
X113420000Y-127471000D01*
G75*
G02*
X113170000Y-127221000I0J250000D01*
G01*
G37*
G36*
G01*
X106484000Y-126271000D02*
X106484000Y-127221000D01*
G75*
G02*
X106234000Y-127471000I-250000J0D01*
G01*
X105734000Y-127471000D01*
G75*
G02*
X105484000Y-127221000I0J250000D01*
G01*
X105484000Y-126271000D01*
G75*
G02*
X105734000Y-126021000I250000J0D01*
G01*
X106234000Y-126021000D01*
G75*
G02*
X106484000Y-126271000I0J-250000D01*
G01*
G37*
G36*
G01*
X108384000Y-126271000D02*
X108384000Y-127221000D01*
G75*
G02*
X108134000Y-127471000I-250000J0D01*
G01*
X107634000Y-127471000D01*
G75*
G02*
X107384000Y-127221000I0J250000D01*
G01*
X107384000Y-126271000D01*
G75*
G02*
X107634000Y-126021000I250000J0D01*
G01*
X108134000Y-126021000D01*
G75*
G02*
X108384000Y-126271000I0J-250000D01*
G01*
G37*
G36*
G01*
X105672000Y-107155000D02*
X105672000Y-106205000D01*
G75*
G02*
X105922000Y-105955000I250000J0D01*
G01*
X106422000Y-105955000D01*
G75*
G02*
X106672000Y-106205000I0J-250000D01*
G01*
X106672000Y-107155000D01*
G75*
G02*
X106422000Y-107405000I-250000J0D01*
G01*
X105922000Y-107405000D01*
G75*
G02*
X105672000Y-107155000I0J250000D01*
G01*
G37*
G36*
G01*
X103772000Y-107155000D02*
X103772000Y-106205000D01*
G75*
G02*
X104022000Y-105955000I250000J0D01*
G01*
X104522000Y-105955000D01*
G75*
G02*
X104772000Y-106205000I0J-250000D01*
G01*
X104772000Y-107155000D01*
G75*
G02*
X104522000Y-107405000I-250000J0D01*
G01*
X104022000Y-107405000D01*
G75*
G02*
X103772000Y-107155000I0J250000D01*
G01*
G37*
G36*
G01*
X182339000Y-56126000D02*
X181389000Y-56126000D01*
G75*
G02*
X181139000Y-55876000I0J250000D01*
G01*
X181139000Y-55376000D01*
G75*
G02*
X181389000Y-55126000I250000J0D01*
G01*
X182339000Y-55126000D01*
G75*
G02*
X182589000Y-55376000I0J-250000D01*
G01*
X182589000Y-55876000D01*
G75*
G02*
X182339000Y-56126000I-250000J0D01*
G01*
G37*
G36*
G01*
X182339000Y-58026000D02*
X181389000Y-58026000D01*
G75*
G02*
X181139000Y-57776000I0J250000D01*
G01*
X181139000Y-57276000D01*
G75*
G02*
X181389000Y-57026000I250000J0D01*
G01*
X182339000Y-57026000D01*
G75*
G02*
X182589000Y-57276000I0J-250000D01*
G01*
X182589000Y-57776000D01*
G75*
G02*
X182339000Y-58026000I-250000J0D01*
G01*
G37*
G36*
G01*
X169680000Y-105885000D02*
X169680000Y-104935000D01*
G75*
G02*
X169930000Y-104685000I250000J0D01*
G01*
X170430000Y-104685000D01*
G75*
G02*
X170680000Y-104935000I0J-250000D01*
G01*
X170680000Y-105885000D01*
G75*
G02*
X170430000Y-106135000I-250000J0D01*
G01*
X169930000Y-106135000D01*
G75*
G02*
X169680000Y-105885000I0J250000D01*
G01*
G37*
G36*
G01*
X167780000Y-105885000D02*
X167780000Y-104935000D01*
G75*
G02*
X168030000Y-104685000I250000J0D01*
G01*
X168530000Y-104685000D01*
G75*
G02*
X168780000Y-104935000I0J-250000D01*
G01*
X168780000Y-105885000D01*
G75*
G02*
X168530000Y-106135000I-250000J0D01*
G01*
X168030000Y-106135000D01*
G75*
G02*
X167780000Y-105885000I0J250000D01*
G01*
G37*
G36*
G01*
X161282000Y-105544600D02*
X161282000Y-106494600D01*
G75*
G02*
X161032000Y-106744600I-250000J0D01*
G01*
X160532000Y-106744600D01*
G75*
G02*
X160282000Y-106494600I0J250000D01*
G01*
X160282000Y-105544600D01*
G75*
G02*
X160532000Y-105294600I250000J0D01*
G01*
X161032000Y-105294600D01*
G75*
G02*
X161282000Y-105544600I0J-250000D01*
G01*
G37*
G36*
G01*
X163182000Y-105544600D02*
X163182000Y-106494600D01*
G75*
G02*
X162932000Y-106744600I-250000J0D01*
G01*
X162432000Y-106744600D01*
G75*
G02*
X162182000Y-106494600I0J250000D01*
G01*
X162182000Y-105544600D01*
G75*
G02*
X162432000Y-105294600I250000J0D01*
G01*
X162932000Y-105294600D01*
G75*
G02*
X163182000Y-105544600I0J-250000D01*
G01*
G37*
G36*
G01*
X161282000Y-102141000D02*
X161282000Y-103091000D01*
G75*
G02*
X161032000Y-103341000I-250000J0D01*
G01*
X160532000Y-103341000D01*
G75*
G02*
X160282000Y-103091000I0J250000D01*
G01*
X160282000Y-102141000D01*
G75*
G02*
X160532000Y-101891000I250000J0D01*
G01*
X161032000Y-101891000D01*
G75*
G02*
X161282000Y-102141000I0J-250000D01*
G01*
G37*
G36*
G01*
X163182000Y-102141000D02*
X163182000Y-103091000D01*
G75*
G02*
X162932000Y-103341000I-250000J0D01*
G01*
X162432000Y-103341000D01*
G75*
G02*
X162182000Y-103091000I0J250000D01*
G01*
X162182000Y-102141000D01*
G75*
G02*
X162432000Y-101891000I250000J0D01*
G01*
X162932000Y-101891000D01*
G75*
G02*
X163182000Y-102141000I0J-250000D01*
G01*
G37*
G36*
G01*
X161282000Y-98686600D02*
X161282000Y-99636600D01*
G75*
G02*
X161032000Y-99886600I-250000J0D01*
G01*
X160532000Y-99886600D01*
G75*
G02*
X160282000Y-99636600I0J250000D01*
G01*
X160282000Y-98686600D01*
G75*
G02*
X160532000Y-98436600I250000J0D01*
G01*
X161032000Y-98436600D01*
G75*
G02*
X161282000Y-98686600I0J-250000D01*
G01*
G37*
G36*
G01*
X163182000Y-98686600D02*
X163182000Y-99636600D01*
G75*
G02*
X162932000Y-99886600I-250000J0D01*
G01*
X162432000Y-99886600D01*
G75*
G02*
X162182000Y-99636600I0J250000D01*
G01*
X162182000Y-98686600D01*
G75*
G02*
X162432000Y-98436600I250000J0D01*
G01*
X162932000Y-98436600D01*
G75*
G02*
X163182000Y-98686600I0J-250000D01*
G01*
G37*
G36*
G01*
X162593000Y-57052000D02*
X163543000Y-57052000D01*
G75*
G02*
X163793000Y-57302000I0J-250000D01*
G01*
X163793000Y-57802000D01*
G75*
G02*
X163543000Y-58052000I-250000J0D01*
G01*
X162593000Y-58052000D01*
G75*
G02*
X162343000Y-57802000I0J250000D01*
G01*
X162343000Y-57302000D01*
G75*
G02*
X162593000Y-57052000I250000J0D01*
G01*
G37*
G36*
G01*
X162593000Y-55152000D02*
X163543000Y-55152000D01*
G75*
G02*
X163793000Y-55402000I0J-250000D01*
G01*
X163793000Y-55902000D01*
G75*
G02*
X163543000Y-56152000I-250000J0D01*
G01*
X162593000Y-56152000D01*
G75*
G02*
X162343000Y-55902000I0J250000D01*
G01*
X162343000Y-55402000D01*
G75*
G02*
X162593000Y-55152000I250000J0D01*
G01*
G37*
G36*
G01*
X163543000Y-60698000D02*
X162593000Y-60698000D01*
G75*
G02*
X162343000Y-60448000I0J250000D01*
G01*
X162343000Y-59948000D01*
G75*
G02*
X162593000Y-59698000I250000J0D01*
G01*
X163543000Y-59698000D01*
G75*
G02*
X163793000Y-59948000I0J-250000D01*
G01*
X163793000Y-60448000D01*
G75*
G02*
X163543000Y-60698000I-250000J0D01*
G01*
G37*
G36*
G01*
X163543000Y-62598000D02*
X162593000Y-62598000D01*
G75*
G02*
X162343000Y-62348000I0J250000D01*
G01*
X162343000Y-61848000D01*
G75*
G02*
X162593000Y-61598000I250000J0D01*
G01*
X163543000Y-61598000D01*
G75*
G02*
X163793000Y-61848000I0J-250000D01*
G01*
X163793000Y-62348000D01*
G75*
G02*
X163543000Y-62598000I-250000J0D01*
G01*
G37*
G36*
G01*
X176030000Y-53815000D02*
X176030000Y-52865000D01*
G75*
G02*
X176280000Y-52615000I250000J0D01*
G01*
X176780000Y-52615000D01*
G75*
G02*
X177030000Y-52865000I0J-250000D01*
G01*
X177030000Y-53815000D01*
G75*
G02*
X176780000Y-54065000I-250000J0D01*
G01*
X176280000Y-54065000D01*
G75*
G02*
X176030000Y-53815000I0J250000D01*
G01*
G37*
G36*
G01*
X174130000Y-53815000D02*
X174130000Y-52865000D01*
G75*
G02*
X174380000Y-52615000I250000J0D01*
G01*
X174880000Y-52615000D01*
G75*
G02*
X175130000Y-52865000I0J-250000D01*
G01*
X175130000Y-53815000D01*
G75*
G02*
X174880000Y-54065000I-250000J0D01*
G01*
X174380000Y-54065000D01*
G75*
G02*
X174130000Y-53815000I0J250000D01*
G01*
G37*
G36*
G01*
X104615000Y-132138000D02*
X103665000Y-132138000D01*
G75*
G02*
X103415000Y-131888000I0J250000D01*
G01*
X103415000Y-131388000D01*
G75*
G02*
X103665000Y-131138000I250000J0D01*
G01*
X104615000Y-131138000D01*
G75*
G02*
X104865000Y-131388000I0J-250000D01*
G01*
X104865000Y-131888000D01*
G75*
G02*
X104615000Y-132138000I-250000J0D01*
G01*
G37*
G36*
G01*
X104615000Y-134038000D02*
X103665000Y-134038000D01*
G75*
G02*
X103415000Y-133788000I0J250000D01*
G01*
X103415000Y-133288000D01*
G75*
G02*
X103665000Y-133038000I250000J0D01*
G01*
X104615000Y-133038000D01*
G75*
G02*
X104865000Y-133288000I0J-250000D01*
G01*
X104865000Y-133788000D01*
G75*
G02*
X104615000Y-134038000I-250000J0D01*
G01*
G37*
G36*
G01*
X165872500Y-88044000D02*
X165597500Y-88044000D01*
G75*
G02*
X165460000Y-87906500I0J137500D01*
G01*
X165460000Y-86181500D01*
G75*
G02*
X165597500Y-86044000I137500J0D01*
G01*
X165872500Y-86044000D01*
G75*
G02*
X166010000Y-86181500I0J-137500D01*
G01*
X166010000Y-87906500D01*
G75*
G02*
X165872500Y-88044000I-137500J0D01*
G01*
G37*
G36*
G01*
X167142500Y-88044000D02*
X166867500Y-88044000D01*
G75*
G02*
X166730000Y-87906500I0J137500D01*
G01*
X166730000Y-86181500D01*
G75*
G02*
X166867500Y-86044000I137500J0D01*
G01*
X167142500Y-86044000D01*
G75*
G02*
X167280000Y-86181500I0J-137500D01*
G01*
X167280000Y-87906500D01*
G75*
G02*
X167142500Y-88044000I-137500J0D01*
G01*
G37*
G36*
G01*
X168412500Y-88044000D02*
X168137500Y-88044000D01*
G75*
G02*
X168000000Y-87906500I0J137500D01*
G01*
X168000000Y-86181500D01*
G75*
G02*
X168137500Y-86044000I137500J0D01*
G01*
X168412500Y-86044000D01*
G75*
G02*
X168550000Y-86181500I0J-137500D01*
G01*
X168550000Y-87906500D01*
G75*
G02*
X168412500Y-88044000I-137500J0D01*
G01*
G37*
G36*
G01*
X169682500Y-88044000D02*
X169407500Y-88044000D01*
G75*
G02*
X169270000Y-87906500I0J137500D01*
G01*
X169270000Y-86181500D01*
G75*
G02*
X169407500Y-86044000I137500J0D01*
G01*
X169682500Y-86044000D01*
G75*
G02*
X169820000Y-86181500I0J-137500D01*
G01*
X169820000Y-87906500D01*
G75*
G02*
X169682500Y-88044000I-137500J0D01*
G01*
G37*
G36*
G01*
X170952500Y-88044000D02*
X170677500Y-88044000D01*
G75*
G02*
X170540000Y-87906500I0J137500D01*
G01*
X170540000Y-86181500D01*
G75*
G02*
X170677500Y-86044000I137500J0D01*
G01*
X170952500Y-86044000D01*
G75*
G02*
X171090000Y-86181500I0J-137500D01*
G01*
X171090000Y-87906500D01*
G75*
G02*
X170952500Y-88044000I-137500J0D01*
G01*
G37*
G36*
G01*
X172222500Y-88044000D02*
X171947500Y-88044000D01*
G75*
G02*
X171810000Y-87906500I0J137500D01*
G01*
X171810000Y-86181500D01*
G75*
G02*
X171947500Y-86044000I137500J0D01*
G01*
X172222500Y-86044000D01*
G75*
G02*
X172360000Y-86181500I0J-137500D01*
G01*
X172360000Y-87906500D01*
G75*
G02*
X172222500Y-88044000I-137500J0D01*
G01*
G37*
G36*
G01*
X173492500Y-88044000D02*
X173217500Y-88044000D01*
G75*
G02*
X173080000Y-87906500I0J137500D01*
G01*
X173080000Y-86181500D01*
G75*
G02*
X173217500Y-86044000I137500J0D01*
G01*
X173492500Y-86044000D01*
G75*
G02*
X173630000Y-86181500I0J-137500D01*
G01*
X173630000Y-87906500D01*
G75*
G02*
X173492500Y-88044000I-137500J0D01*
G01*
G37*
G36*
G01*
X174762500Y-88044000D02*
X174487500Y-88044000D01*
G75*
G02*
X174350000Y-87906500I0J137500D01*
G01*
X174350000Y-86181500D01*
G75*
G02*
X174487500Y-86044000I137500J0D01*
G01*
X174762500Y-86044000D01*
G75*
G02*
X174900000Y-86181500I0J-137500D01*
G01*
X174900000Y-87906500D01*
G75*
G02*
X174762500Y-88044000I-137500J0D01*
G01*
G37*
G36*
G01*
X176032500Y-88044000D02*
X175757500Y-88044000D01*
G75*
G02*
X175620000Y-87906500I0J137500D01*
G01*
X175620000Y-86181500D01*
G75*
G02*
X175757500Y-86044000I137500J0D01*
G01*
X176032500Y-86044000D01*
G75*
G02*
X176170000Y-86181500I0J-137500D01*
G01*
X176170000Y-87906500D01*
G75*
G02*
X176032500Y-88044000I-137500J0D01*
G01*
G37*
G36*
G01*
X177302500Y-88044000D02*
X177027500Y-88044000D01*
G75*
G02*
X176890000Y-87906500I0J137500D01*
G01*
X176890000Y-86181500D01*
G75*
G02*
X177027500Y-86044000I137500J0D01*
G01*
X177302500Y-86044000D01*
G75*
G02*
X177440000Y-86181500I0J-137500D01*
G01*
X177440000Y-87906500D01*
G75*
G02*
X177302500Y-88044000I-137500J0D01*
G01*
G37*
G36*
G01*
X178572500Y-88044000D02*
X178297500Y-88044000D01*
G75*
G02*
X178160000Y-87906500I0J137500D01*
G01*
X178160000Y-86181500D01*
G75*
G02*
X178297500Y-86044000I137500J0D01*
G01*
X178572500Y-86044000D01*
G75*
G02*
X178710000Y-86181500I0J-137500D01*
G01*
X178710000Y-87906500D01*
G75*
G02*
X178572500Y-88044000I-137500J0D01*
G01*
G37*
G36*
G01*
X179842500Y-88044000D02*
X179567500Y-88044000D01*
G75*
G02*
X179430000Y-87906500I0J137500D01*
G01*
X179430000Y-86181500D01*
G75*
G02*
X179567500Y-86044000I137500J0D01*
G01*
X179842500Y-86044000D01*
G75*
G02*
X179980000Y-86181500I0J-137500D01*
G01*
X179980000Y-87906500D01*
G75*
G02*
X179842500Y-88044000I-137500J0D01*
G01*
G37*
G36*
G01*
X179842500Y-97344000D02*
X179567500Y-97344000D01*
G75*
G02*
X179430000Y-97206500I0J137500D01*
G01*
X179430000Y-95481500D01*
G75*
G02*
X179567500Y-95344000I137500J0D01*
G01*
X179842500Y-95344000D01*
G75*
G02*
X179980000Y-95481500I0J-137500D01*
G01*
X179980000Y-97206500D01*
G75*
G02*
X179842500Y-97344000I-137500J0D01*
G01*
G37*
G36*
G01*
X178572500Y-97344000D02*
X178297500Y-97344000D01*
G75*
G02*
X178160000Y-97206500I0J137500D01*
G01*
X178160000Y-95481500D01*
G75*
G02*
X178297500Y-95344000I137500J0D01*
G01*
X178572500Y-95344000D01*
G75*
G02*
X178710000Y-95481500I0J-137500D01*
G01*
X178710000Y-97206500D01*
G75*
G02*
X178572500Y-97344000I-137500J0D01*
G01*
G37*
G36*
G01*
X177302500Y-97344000D02*
X177027500Y-97344000D01*
G75*
G02*
X176890000Y-97206500I0J137500D01*
G01*
X176890000Y-95481500D01*
G75*
G02*
X177027500Y-95344000I137500J0D01*
G01*
X177302500Y-95344000D01*
G75*
G02*
X177440000Y-95481500I0J-137500D01*
G01*
X177440000Y-97206500D01*
G75*
G02*
X177302500Y-97344000I-137500J0D01*
G01*
G37*
G36*
G01*
X176032500Y-97344000D02*
X175757500Y-97344000D01*
G75*
G02*
X175620000Y-97206500I0J137500D01*
G01*
X175620000Y-95481500D01*
G75*
G02*
X175757500Y-95344000I137500J0D01*
G01*
X176032500Y-95344000D01*
G75*
G02*
X176170000Y-95481500I0J-137500D01*
G01*
X176170000Y-97206500D01*
G75*
G02*
X176032500Y-97344000I-137500J0D01*
G01*
G37*
G36*
G01*
X174762500Y-97344000D02*
X174487500Y-97344000D01*
G75*
G02*
X174350000Y-97206500I0J137500D01*
G01*
X174350000Y-95481500D01*
G75*
G02*
X174487500Y-95344000I137500J0D01*
G01*
X174762500Y-95344000D01*
G75*
G02*
X174900000Y-95481500I0J-137500D01*
G01*
X174900000Y-97206500D01*
G75*
G02*
X174762500Y-97344000I-137500J0D01*
G01*
G37*
G36*
G01*
X173492500Y-97344000D02*
X173217500Y-97344000D01*
G75*
G02*
X173080000Y-97206500I0J137500D01*
G01*
X173080000Y-95481500D01*
G75*
G02*
X173217500Y-95344000I137500J0D01*
G01*
X173492500Y-95344000D01*
G75*
G02*
X173630000Y-95481500I0J-137500D01*
G01*
X173630000Y-97206500D01*
G75*
G02*
X173492500Y-97344000I-137500J0D01*
G01*
G37*
G36*
G01*
X172222500Y-97344000D02*
X171947500Y-97344000D01*
G75*
G02*
X171810000Y-97206500I0J137500D01*
G01*
X171810000Y-95481500D01*
G75*
G02*
X171947500Y-95344000I137500J0D01*
G01*
X172222500Y-95344000D01*
G75*
G02*
X172360000Y-95481500I0J-137500D01*
G01*
X172360000Y-97206500D01*
G75*
G02*
X172222500Y-97344000I-137500J0D01*
G01*
G37*
G36*
G01*
X170952500Y-97344000D02*
X170677500Y-97344000D01*
G75*
G02*
X170540000Y-97206500I0J137500D01*
G01*
X170540000Y-95481500D01*
G75*
G02*
X170677500Y-95344000I137500J0D01*
G01*
X170952500Y-95344000D01*
G75*
G02*
X171090000Y-95481500I0J-137500D01*
G01*
X171090000Y-97206500D01*
G75*
G02*
X170952500Y-97344000I-137500J0D01*
G01*
G37*
G36*
G01*
X169682500Y-97344000D02*
X169407500Y-97344000D01*
G75*
G02*
X169270000Y-97206500I0J137500D01*
G01*
X169270000Y-95481500D01*
G75*
G02*
X169407500Y-95344000I137500J0D01*
G01*
X169682500Y-95344000D01*
G75*
G02*
X169820000Y-95481500I0J-137500D01*
G01*
X169820000Y-97206500D01*
G75*
G02*
X169682500Y-97344000I-137500J0D01*
G01*
G37*
G36*
G01*
X168412500Y-97344000D02*
X168137500Y-97344000D01*
G75*
G02*
X168000000Y-97206500I0J137500D01*
G01*
X168000000Y-95481500D01*
G75*
G02*
X168137500Y-95344000I137500J0D01*
G01*
X168412500Y-95344000D01*
G75*
G02*
X168550000Y-95481500I0J-137500D01*
G01*
X168550000Y-97206500D01*
G75*
G02*
X168412500Y-97344000I-137500J0D01*
G01*
G37*
G36*
G01*
X167142500Y-97344000D02*
X166867500Y-97344000D01*
G75*
G02*
X166730000Y-97206500I0J137500D01*
G01*
X166730000Y-95481500D01*
G75*
G02*
X166867500Y-95344000I137500J0D01*
G01*
X167142500Y-95344000D01*
G75*
G02*
X167280000Y-95481500I0J-137500D01*
G01*
X167280000Y-97206500D01*
G75*
G02*
X167142500Y-97344000I-137500J0D01*
G01*
G37*
G36*
G01*
X165872500Y-97344000D02*
X165597500Y-97344000D01*
G75*
G02*
X165460000Y-97206500I0J137500D01*
G01*
X165460000Y-95481500D01*
G75*
G02*
X165597500Y-95344000I137500J0D01*
G01*
X165872500Y-95344000D01*
G75*
G02*
X166010000Y-95481500I0J-137500D01*
G01*
X166010000Y-97206500D01*
G75*
G02*
X165872500Y-97344000I-137500J0D01*
G01*
G37*
D14*
X194500000Y-82500000D03*
X195310000Y-75740000D03*
X194500000Y-68980000D03*
D15*
X189010000Y-72390000D03*
X189010000Y-74930000D03*
X189010000Y-79090000D03*
X191500000Y-72390000D03*
X189010000Y-77040000D03*
X191500000Y-79090000D03*
X191500000Y-74440000D03*
D16*
X191500000Y-77040000D03*
D17*
X109982000Y-139700000D03*
X112522000Y-139700000D03*
X115062000Y-139700000D03*
X117602000Y-139700000D03*
X120142000Y-139700000D03*
X122682000Y-139700000D03*
X125222000Y-139700000D03*
X127762000Y-139700000D03*
X130302000Y-139700000D03*
X132842000Y-139700000D03*
X135382000Y-139700000D03*
X137922000Y-139700000D03*
X140462000Y-139700000D03*
X143002000Y-139700000D03*
X145542000Y-139700000D03*
X148082000Y-139700000D03*
X150622000Y-139700000D03*
X153162000Y-139700000D03*
X155702000Y-139700000D03*
X158242000Y-139700000D03*
X160782000Y-139700000D03*
X163322000Y-139700000D03*
X165862000Y-139700000D03*
X168402000Y-139700000D03*
X170942000Y-139700000D03*
X173482000Y-139700000D03*
X176022000Y-139700000D03*
X178562000Y-139700000D03*
X181102000Y-139700000D03*
X183642000Y-139700000D03*
X186182000Y-139700000D03*
X188722000Y-139700000D03*
X109982000Y-144780000D03*
X112522000Y-144780000D03*
X115062000Y-144780000D03*
X117602000Y-144780000D03*
X120142000Y-144780000D03*
X122682000Y-144780000D03*
X125222000Y-144780000D03*
X127762000Y-144780000D03*
X130302000Y-144780000D03*
X132842000Y-144780000D03*
X135382000Y-144780000D03*
X137922000Y-144780000D03*
X140462000Y-144780000D03*
X143002000Y-144780000D03*
X145542000Y-144780000D03*
X148082000Y-144780000D03*
X150622000Y-144780000D03*
X153162000Y-144780000D03*
X155702000Y-144780000D03*
X158242000Y-144780000D03*
X160782000Y-144780000D03*
X163322000Y-144780000D03*
X165862000Y-144780000D03*
X168402000Y-144780000D03*
X170942000Y-144780000D03*
X173482000Y-144780000D03*
X176022000Y-144780000D03*
X178562000Y-144780000D03*
X181102000Y-144780000D03*
X183642000Y-144780000D03*
X186182000Y-144780000D03*
G36*
G01*
X189497000Y-144254999D02*
X189497000Y-145305001D01*
G75*
G02*
X189247001Y-145555000I-249999J0D01*
G01*
X188196999Y-145555000D01*
G75*
G02*
X187947000Y-145305001I0J249999D01*
G01*
X187947000Y-144254999D01*
G75*
G02*
X188196999Y-144005000I249999J0D01*
G01*
X189247001Y-144005000D01*
G75*
G02*
X189497000Y-144254999I0J-249999D01*
G01*
G37*
D18*
X104902000Y-147320000D03*
X193802000Y-147320000D03*
D19*
X113358000Y-122428000D03*
X108458000Y-122428000D03*
D20*
X131572000Y-130048000D03*
X131572000Y-122428000D03*
X123952000Y-122428000D03*
D21*
X123952000Y-130048000D03*
D22*
X148078000Y-54718000D03*
X137028000Y-54718000D03*
X148078000Y-55988000D03*
X137028000Y-55988000D03*
X148078000Y-57258000D03*
X137028000Y-57258000D03*
X148078000Y-58528000D03*
X137028000Y-58528000D03*
X148078000Y-59798000D03*
X137028000Y-59798000D03*
X148078000Y-61068000D03*
X137028000Y-61068000D03*
X148078000Y-62338000D03*
X137028000Y-62338000D03*
X148078000Y-63608000D03*
X137028000Y-63608000D03*
X148078000Y-64878000D03*
X137028000Y-64878000D03*
X148078000Y-66148000D03*
X137028000Y-66148000D03*
X148078000Y-67418000D03*
X137028000Y-67418000D03*
X148078000Y-68688000D03*
X137028000Y-68688000D03*
X148078000Y-69958000D03*
X137028000Y-69958000D03*
X148078000Y-71228000D03*
X137028000Y-71228000D03*
X148078000Y-72498000D03*
X137028000Y-72498000D03*
X148078000Y-73768000D03*
X137028000Y-73768000D03*
X148078000Y-75038000D03*
X137028000Y-75038000D03*
X148078000Y-76308000D03*
X137028000Y-76308000D03*
X148078000Y-77578000D03*
X137028000Y-77578000D03*
X148078000Y-78848000D03*
X137028000Y-78848000D03*
X119821000Y-54591000D03*
X108771000Y-54591000D03*
X119821000Y-55861000D03*
X108771000Y-55861000D03*
X119821000Y-57131000D03*
X108771000Y-57131000D03*
X119821000Y-58401000D03*
X108771000Y-58401000D03*
X119821000Y-59671000D03*
X108771000Y-59671000D03*
X119821000Y-60941000D03*
X108771000Y-60941000D03*
X119821000Y-62211000D03*
X108771000Y-62211000D03*
X119821000Y-63481000D03*
X108771000Y-63481000D03*
X119821000Y-64751000D03*
X108771000Y-64751000D03*
X119821000Y-66021000D03*
X108771000Y-66021000D03*
X119821000Y-67291000D03*
X108771000Y-67291000D03*
X119821000Y-68561000D03*
X108771000Y-68561000D03*
X119821000Y-69831000D03*
X108771000Y-69831000D03*
X119821000Y-71101000D03*
X108771000Y-71101000D03*
X119821000Y-72371000D03*
X108771000Y-72371000D03*
X119821000Y-73641000D03*
X108771000Y-73641000D03*
X119821000Y-74911000D03*
X108771000Y-74911000D03*
X119821000Y-76181000D03*
X108771000Y-76181000D03*
X119821000Y-77451000D03*
X108771000Y-77451000D03*
X119821000Y-78721000D03*
X108771000Y-78721000D03*
D23*
X143460000Y-116292000D03*
X142660000Y-116292000D03*
X141860000Y-116292000D03*
X141060000Y-116292000D03*
X140260000Y-116292000D03*
X139460000Y-116292000D03*
X138660000Y-116292000D03*
X137860000Y-116292000D03*
X137060000Y-116292000D03*
X136260000Y-116292000D03*
X135460000Y-116292000D03*
X134660000Y-116292000D03*
X133860000Y-116292000D03*
X133060000Y-116292000D03*
X132260000Y-116292000D03*
X131460000Y-116292000D03*
X130660000Y-116292000D03*
X129860000Y-116292000D03*
X129060000Y-116292000D03*
X128260000Y-116292000D03*
X127460000Y-116292000D03*
X126660000Y-116292000D03*
X125860000Y-116292000D03*
X125060000Y-116292000D03*
X124260000Y-116292000D03*
X123460000Y-116292000D03*
X122660000Y-116292000D03*
X121860000Y-116292000D03*
X121060000Y-116292000D03*
X120260000Y-116292000D03*
X119460000Y-116292000D03*
X118660000Y-116292000D03*
D24*
X115460000Y-113092000D03*
X115460000Y-112292000D03*
X115460000Y-111492000D03*
X115460000Y-110692000D03*
X115460000Y-109892000D03*
X115460000Y-109092000D03*
X115460000Y-108292000D03*
X115460000Y-107492000D03*
X115460000Y-106692000D03*
X115460000Y-105892000D03*
X115460000Y-105092000D03*
X115460000Y-104292000D03*
X115460000Y-103492000D03*
X115460000Y-102692000D03*
X115460000Y-101892000D03*
X115460000Y-101092000D03*
X115460000Y-100292000D03*
X115460000Y-99492000D03*
X115460000Y-98692000D03*
X115460000Y-97892000D03*
X115460000Y-97092000D03*
X115460000Y-96292000D03*
X115460000Y-95492000D03*
X115460000Y-94692000D03*
X115460000Y-93892000D03*
X115460000Y-93092000D03*
X115460000Y-92292000D03*
X115460000Y-91492000D03*
X115460000Y-90692000D03*
X115460000Y-89892000D03*
X115460000Y-89092000D03*
X115460000Y-88292000D03*
D23*
X118660000Y-85092000D03*
X119460000Y-85092000D03*
X120260000Y-85092000D03*
X121060000Y-85092000D03*
X121860000Y-85092000D03*
X122660000Y-85092000D03*
X123460000Y-85092000D03*
X124260000Y-85092000D03*
X125060000Y-85092000D03*
X125860000Y-85092000D03*
X126660000Y-85092000D03*
X127460000Y-85092000D03*
X128260000Y-85092000D03*
X129060000Y-85092000D03*
X129860000Y-85092000D03*
X130660000Y-85092000D03*
X131460000Y-85092000D03*
X132260000Y-85092000D03*
X133060000Y-85092000D03*
X133860000Y-85092000D03*
X134660000Y-85092000D03*
X135460000Y-85092000D03*
X136260000Y-85092000D03*
X137060000Y-85092000D03*
X137860000Y-85092000D03*
X138660000Y-85092000D03*
X139460000Y-85092000D03*
X140260000Y-85092000D03*
X141060000Y-85092000D03*
X141860000Y-85092000D03*
X142660000Y-85092000D03*
X143460000Y-85092000D03*
D24*
X146660000Y-88292000D03*
X146660000Y-89092000D03*
X146660000Y-89892000D03*
X146660000Y-90692000D03*
X146660000Y-91492000D03*
X146660000Y-92292000D03*
X146660000Y-93092000D03*
X146660000Y-93892000D03*
X146660000Y-94692000D03*
X146660000Y-95492000D03*
X146660000Y-96292000D03*
X146660000Y-97092000D03*
X146660000Y-97892000D03*
X146660000Y-98692000D03*
X146660000Y-99492000D03*
X146660000Y-100292000D03*
X146660000Y-101092000D03*
X146660000Y-101892000D03*
X146660000Y-102692000D03*
X146660000Y-103492000D03*
X146660000Y-104292000D03*
X146660000Y-105092000D03*
X146660000Y-105892000D03*
X146660000Y-106692000D03*
X146660000Y-107492000D03*
X146660000Y-108292000D03*
X146660000Y-109092000D03*
X146660000Y-109892000D03*
X146660000Y-110692000D03*
X146660000Y-111492000D03*
X146660000Y-112292000D03*
X146660000Y-113092000D03*
G36*
G01*
X112048000Y-114492001D02*
X112048000Y-113091999D01*
G75*
G02*
X112297999Y-112842000I249999J0D01*
G01*
X112848001Y-112842000D01*
G75*
G02*
X113098000Y-113091999I0J-249999D01*
G01*
X113098000Y-114492001D01*
G75*
G02*
X112848001Y-114742000I-249999J0D01*
G01*
X112297999Y-114742000D01*
G75*
G02*
X112048000Y-114492001I0J249999D01*
G01*
G37*
G36*
G01*
X108898000Y-114492001D02*
X108898000Y-113091999D01*
G75*
G02*
X109147999Y-112842000I249999J0D01*
G01*
X109698001Y-112842000D01*
G75*
G02*
X109948000Y-113091999I0J-249999D01*
G01*
X109948000Y-114492001D01*
G75*
G02*
X109698001Y-114742000I-249999J0D01*
G01*
X109147999Y-114742000D01*
G75*
G02*
X108898000Y-114492001I0J249999D01*
G01*
G37*
G36*
G01*
X111997000Y-110682001D02*
X111997000Y-109281999D01*
G75*
G02*
X112246999Y-109032000I249999J0D01*
G01*
X112797001Y-109032000D01*
G75*
G02*
X113047000Y-109281999I0J-249999D01*
G01*
X113047000Y-110682001D01*
G75*
G02*
X112797001Y-110932000I-249999J0D01*
G01*
X112246999Y-110932000D01*
G75*
G02*
X111997000Y-110682001I0J249999D01*
G01*
G37*
G36*
G01*
X108847000Y-110682001D02*
X108847000Y-109281999D01*
G75*
G02*
X109096999Y-109032000I249999J0D01*
G01*
X109647001Y-109032000D01*
G75*
G02*
X109897000Y-109281999I0J-249999D01*
G01*
X109897000Y-110682001D01*
G75*
G02*
X109647001Y-110932000I-249999J0D01*
G01*
X109096999Y-110932000D01*
G75*
G02*
X108847000Y-110682001I0J249999D01*
G01*
G37*
D20*
X105410000Y-110276000D03*
D21*
X105410000Y-112776000D03*
D19*
X168148000Y-61468000D03*
X168148000Y-56568000D03*
D25*
X198250000Y-64250000D03*
X198250000Y-54250000D03*
X195750000Y-54250000D03*
X195750000Y-64250000D03*
X190750000Y-59250000D03*
D26*
X190750000Y-64250000D03*
X190750000Y-54250000D03*
D27*
X195750000Y-59250000D03*
D28*
X186690000Y-134112000D03*
X186690000Y-131572000D03*
X186690000Y-129032000D03*
X186690000Y-126492000D03*
X186690000Y-123952000D03*
D29*
X186690000Y-121412000D03*
D30*
X191500000Y-92250000D03*
D31*
X196000000Y-92250000D03*
D32*
X194500000Y-102230000D03*
X194500000Y-115750000D03*
X195310000Y-108990000D03*
D33*
X189010000Y-112340000D03*
X191500000Y-112340000D03*
X189010000Y-105640000D03*
D34*
X191500000Y-105640000D03*
D20*
X180300000Y-108966000D03*
D21*
X177800000Y-108966000D03*
D20*
X180594000Y-68620000D03*
D21*
X180594000Y-71120000D03*
D20*
X180594000Y-74970000D03*
D21*
X180594000Y-77470000D03*
D20*
X173228000Y-68620000D03*
D21*
X173228000Y-71120000D03*
D20*
X173228000Y-74970000D03*
D21*
X173228000Y-77470000D03*
D20*
X166116000Y-75224000D03*
D21*
X166116000Y-77724000D03*
D20*
X165862000Y-68620000D03*
D21*
X165862000Y-71120000D03*
M02*
