G04 #@! TF.GenerationSoftware,KiCad,Pcbnew,8.0.4*
G04 #@! TF.CreationDate,2024-08-14T15:54:30+01:00*
G04 #@! TF.ProjectId,GfxV9990,47667856-3939-4393-902e-6b696361645f,rev?*
G04 #@! TF.SameCoordinates,Original*
G04 #@! TF.FileFunction,Soldermask,Top*
G04 #@! TF.FilePolarity,Negative*
%FSLAX46Y46*%
G04 Gerber Fmt 4.6, Leading zero omitted, Abs format (unit mm)*
G04 Created by KiCad (PCBNEW 8.0.4) date 2024-08-14 15:54:30*
%MOMM*%
%LPD*%
G01*
G04 APERTURE LIST*
G04 Aperture macros list*
%AMRoundRect*
0 Rectangle with rounded corners*
0 $1 Rounding radius*
0 $2 $3 $4 $5 $6 $7 $8 $9 X,Y pos of 4 corners*
0 Add a 4 corners polygon primitive as box body*
4,1,4,$2,$3,$4,$5,$6,$7,$8,$9,$2,$3,0*
0 Add four circle primitives for the rounded corners*
1,1,$1+$1,$2,$3*
1,1,$1+$1,$4,$5*
1,1,$1+$1,$6,$7*
1,1,$1+$1,$8,$9*
0 Add four rect primitives between the rounded corners*
20,1,$1+$1,$2,$3,$4,$5,0*
20,1,$1+$1,$4,$5,$6,$7,0*
20,1,$1+$1,$6,$7,$8,$9,0*
20,1,$1+$1,$8,$9,$2,$3,0*%
G04 Aperture macros list end*
%ADD10C,0.854000*%
%ADD11RoundRect,0.250000X-0.250000X-0.475000X0.250000X-0.475000X0.250000X0.475000X-0.250000X0.475000X0*%
%ADD12R,1.600000X1.600000*%
%ADD13C,1.600000*%
%ADD14R,3.765000X3.765000*%
%ADD15C,3.600000*%
%ADD16R,1.509000X1.509000*%
%ADD17C,1.509000*%
%ADD18C,3.555000*%
%ADD19RoundRect,0.150000X0.150000X-0.587500X0.150000X0.587500X-0.150000X0.587500X-0.150000X-0.587500X0*%
%ADD20RoundRect,0.243750X0.243750X0.456250X-0.243750X0.456250X-0.243750X-0.456250X0.243750X-0.456250X0*%
%ADD21RoundRect,0.243750X-0.456250X0.243750X-0.456250X-0.243750X0.456250X-0.243750X0.456250X0.243750X0*%
%ADD22RoundRect,0.137500X0.137500X-0.862500X0.137500X0.862500X-0.137500X0.862500X-0.137500X-0.862500X0*%
%ADD23RoundRect,0.250000X-0.375000X-0.625000X0.375000X-0.625000X0.375000X0.625000X-0.375000X0.625000X0*%
%ADD24C,2.850000*%
%ADD25RoundRect,0.249999X0.525001X0.525001X-0.525001X0.525001X-0.525001X-0.525001X0.525001X-0.525001X0*%
%ADD26C,1.550000*%
%ADD27RoundRect,0.150000X-0.150000X0.825000X-0.150000X-0.825000X0.150000X-0.825000X0.150000X0.825000X0*%
%ADD28RoundRect,0.250000X0.475000X-0.250000X0.475000X0.250000X-0.475000X0.250000X-0.475000X-0.250000X0*%
%ADD29RoundRect,0.250000X0.250000X0.475000X-0.250000X0.475000X-0.250000X-0.475000X0.250000X-0.475000X0*%
%ADD30RoundRect,0.250000X-0.475000X0.250000X-0.475000X-0.250000X0.475000X-0.250000X0.475000X0.250000X0*%
%ADD31C,2.300000*%
%ADD32RoundRect,0.150000X0.825000X0.150000X-0.825000X0.150000X-0.825000X-0.150000X0.825000X-0.150000X0*%
%ADD33RoundRect,0.243750X0.456250X-0.243750X0.456250X0.243750X-0.456250X0.243750X-0.456250X-0.243750X0*%
%ADD34R,1.422400X1.422400*%
%ADD35C,1.422400*%
%ADD36C,1.200000*%
%ADD37O,1.208000X2.416000*%
%ADD38O,2.416000X1.208000*%
%ADD39R,1.700000X1.700000*%
%ADD40O,1.700000X1.700000*%
%ADD41RoundRect,0.250000X-0.275000X-0.700000X0.275000X-0.700000X0.275000X0.700000X-0.275000X0.700000X0*%
%ADD42RoundRect,0.243750X-0.243750X-0.456250X0.243750X-0.456250X0.243750X0.456250X-0.243750X0.456250X0*%
%ADD43R,2.200000X0.500000*%
%ADD44O,1.600000X0.350000*%
%ADD45O,0.350000X1.600000*%
G04 APERTURE END LIST*
D10*
X191152000Y-107350000D02*
G75*
G02*
X190298000Y-107350000I-427000J0D01*
G01*
X190298000Y-107350000D02*
G75*
G02*
X191152000Y-107350000I427000J0D01*
G01*
X196152000Y-102350000D02*
G75*
G02*
X195298000Y-102350000I-427000J0D01*
G01*
X195298000Y-102350000D02*
G75*
G02*
X196152000Y-102350000I427000J0D01*
G01*
X196152000Y-112350000D02*
G75*
G02*
X195298000Y-112350000I-427000J0D01*
G01*
X195298000Y-112350000D02*
G75*
G02*
X196152000Y-112350000I427000J0D01*
G01*
X198652000Y-102350000D02*
G75*
G02*
X197798000Y-102350000I-427000J0D01*
G01*
X197798000Y-102350000D02*
G75*
G02*
X198652000Y-102350000I427000J0D01*
G01*
X198652000Y-112350000D02*
G75*
G02*
X197798000Y-112350000I-427000J0D01*
G01*
X197798000Y-112350000D02*
G75*
G02*
X198652000Y-112350000I427000J0D01*
G01*
D11*
X168280000Y-105410000D03*
X170180000Y-105410000D03*
D12*
X166116000Y-77724000D03*
D13*
X166116000Y-75224000D03*
D12*
X173228000Y-77470000D03*
D13*
X173228000Y-74970000D03*
D12*
X173228000Y-71120000D03*
D13*
X173228000Y-68620000D03*
D12*
X180594000Y-77470000D03*
D13*
X180594000Y-74970000D03*
D12*
X180594000Y-71120000D03*
D13*
X180594000Y-68620000D03*
D12*
X177800000Y-108966000D03*
D13*
X180300000Y-108966000D03*
D14*
X196020000Y-83660000D03*
D15*
X191520000Y-83660000D03*
D16*
X191515000Y-63950000D03*
D17*
X191515000Y-61350000D03*
X191515000Y-66000000D03*
X189025000Y-63950000D03*
X191515000Y-59300000D03*
X189025000Y-66000000D03*
X189025000Y-61840000D03*
X189025000Y-59300000D03*
D18*
X194515000Y-55890000D03*
X195325000Y-62650000D03*
X194515000Y-69410000D03*
D19*
X175138000Y-102807500D03*
X177038000Y-102807500D03*
X176088000Y-100932500D03*
D20*
X170180000Y-108966000D03*
X168305000Y-108966000D03*
D21*
X183388000Y-87630000D03*
X183388000Y-89505000D03*
X162560000Y-81280000D03*
X162560000Y-83155000D03*
X166116000Y-81280000D03*
X166116000Y-83155000D03*
X169418000Y-81280000D03*
X169418000Y-83155000D03*
X172720000Y-81280000D03*
X172720000Y-83155000D03*
X179324000Y-81280000D03*
X179324000Y-83155000D03*
X182626000Y-81280000D03*
X182626000Y-83155000D03*
X176022000Y-81280000D03*
X176022000Y-83155000D03*
D20*
X174498000Y-105410000D03*
X172623000Y-105410000D03*
X174498000Y-108966000D03*
X172623000Y-108966000D03*
D21*
X180340000Y-101092000D03*
X180340000Y-102967000D03*
D22*
X165735000Y-96344000D03*
X167005000Y-96344000D03*
X168275000Y-96344000D03*
X169545000Y-96344000D03*
X170815000Y-96344000D03*
X172085000Y-96344000D03*
X173355000Y-96344000D03*
X174625000Y-96344000D03*
X175895000Y-96344000D03*
X177165000Y-96344000D03*
X178435000Y-96344000D03*
X179705000Y-96344000D03*
X179705000Y-87044000D03*
X178435000Y-87044000D03*
X177165000Y-87044000D03*
X175895000Y-87044000D03*
X174625000Y-87044000D03*
X173355000Y-87044000D03*
X172085000Y-87044000D03*
X170815000Y-87044000D03*
X169545000Y-87044000D03*
X168275000Y-87044000D03*
X167005000Y-87044000D03*
X165735000Y-87044000D03*
D23*
X194304000Y-138938000D03*
X197104000Y-138938000D03*
D24*
X193802000Y-147320000D03*
X104902000Y-147320000D03*
D25*
X188722000Y-144780000D03*
D26*
X186182000Y-144780000D03*
X183642000Y-144780000D03*
X181102000Y-144780000D03*
X178562000Y-144780000D03*
X176022000Y-144780000D03*
X173482000Y-144780000D03*
X170942000Y-144780000D03*
X168402000Y-144780000D03*
X165862000Y-144780000D03*
X163322000Y-144780000D03*
X160782000Y-144780000D03*
X158242000Y-144780000D03*
X155702000Y-144780000D03*
X153162000Y-144780000D03*
X150622000Y-144780000D03*
X148082000Y-144780000D03*
X145542000Y-144780000D03*
X143002000Y-144780000D03*
X140462000Y-144780000D03*
X137922000Y-144780000D03*
X135382000Y-144780000D03*
X132842000Y-144780000D03*
X130302000Y-144780000D03*
X127762000Y-144780000D03*
X125222000Y-144780000D03*
X122682000Y-144780000D03*
X120142000Y-144780000D03*
X117602000Y-144780000D03*
X115062000Y-144780000D03*
X112522000Y-144780000D03*
X109982000Y-144780000D03*
X188722000Y-139700000D03*
X186182000Y-139700000D03*
X183642000Y-139700000D03*
X181102000Y-139700000D03*
X178562000Y-139700000D03*
X176022000Y-139700000D03*
X173482000Y-139700000D03*
X170942000Y-139700000D03*
X168402000Y-139700000D03*
X165862000Y-139700000D03*
X163322000Y-139700000D03*
X160782000Y-139700000D03*
X158242000Y-139700000D03*
X155702000Y-139700000D03*
X153162000Y-139700000D03*
X150622000Y-139700000D03*
X148082000Y-139700000D03*
X145542000Y-139700000D03*
X143002000Y-139700000D03*
X140462000Y-139700000D03*
X137922000Y-139700000D03*
X135382000Y-139700000D03*
X132842000Y-139700000D03*
X130302000Y-139700000D03*
X127762000Y-139700000D03*
X125222000Y-139700000D03*
X122682000Y-139700000D03*
X120142000Y-139700000D03*
X117602000Y-139700000D03*
X115062000Y-139700000D03*
X112522000Y-139700000D03*
X109982000Y-139700000D03*
D20*
X196517500Y-135382000D03*
X194642500Y-135382000D03*
D27*
X114808000Y-130367000D03*
X113538000Y-130367000D03*
X112268000Y-130367000D03*
X110998000Y-130367000D03*
X109728000Y-130367000D03*
X108458000Y-130367000D03*
X107188000Y-130367000D03*
X107188000Y-135317000D03*
X108458000Y-135317000D03*
X109728000Y-135317000D03*
X110998000Y-135317000D03*
X112268000Y-135317000D03*
X113538000Y-135317000D03*
X114808000Y-135317000D03*
D28*
X104140000Y-133538000D03*
X104140000Y-131638000D03*
D29*
X162682000Y-99161600D03*
X160782000Y-99161600D03*
X162682000Y-106019600D03*
X160782000Y-106019600D03*
D20*
X158242000Y-106019600D03*
X156367000Y-106019600D03*
X158239700Y-102616000D03*
X156364700Y-102616000D03*
X158239700Y-99161600D03*
X156364700Y-99161600D03*
D28*
X181864000Y-57526000D03*
X181864000Y-55626000D03*
X163068000Y-62098000D03*
X163068000Y-60198000D03*
D30*
X163068000Y-55652000D03*
X163068000Y-57552000D03*
D31*
X168148000Y-56568000D03*
X168148000Y-61468000D03*
D32*
X177989000Y-63500000D03*
X177989000Y-62230000D03*
X177989000Y-60960000D03*
X177989000Y-59690000D03*
X177989000Y-58420000D03*
X177989000Y-57150000D03*
X177989000Y-55880000D03*
X173039000Y-55880000D03*
X173039000Y-57150000D03*
X173039000Y-58420000D03*
X173039000Y-59690000D03*
X173039000Y-60960000D03*
X173039000Y-62230000D03*
X173039000Y-63500000D03*
D21*
X181864000Y-59690000D03*
X181864000Y-61565000D03*
D33*
X160528000Y-59690000D03*
X160528000Y-57815000D03*
D34*
X167130000Y-130760000D03*
D35*
X169670000Y-133300000D03*
X169670000Y-130760000D03*
X172210000Y-133300000D03*
X172210000Y-130760000D03*
X174750000Y-133300000D03*
X177290000Y-130760000D03*
X174750000Y-130760000D03*
X177290000Y-128220000D03*
X174750000Y-128220000D03*
X177290000Y-125680000D03*
X174750000Y-125680000D03*
X177290000Y-123140000D03*
X174750000Y-123140000D03*
X177290000Y-120600000D03*
X174750000Y-120600000D03*
X177290000Y-118060000D03*
X174750000Y-115520000D03*
X174750000Y-118060000D03*
X172210000Y-115520000D03*
X172210000Y-118060000D03*
X169670000Y-115520000D03*
X169670000Y-118060000D03*
X167130000Y-115520000D03*
X167130000Y-118060000D03*
X164590000Y-115520000D03*
X164590000Y-118060000D03*
X162050000Y-115520000D03*
X159510000Y-118060000D03*
X162050000Y-118060000D03*
X159510000Y-120600000D03*
X162050000Y-120600000D03*
X159510000Y-123140000D03*
X162050000Y-123140000D03*
X159510000Y-125680000D03*
X162050000Y-125680000D03*
X159510000Y-128220000D03*
X162050000Y-128220000D03*
X159510000Y-130760000D03*
X162050000Y-133300000D03*
X162050000Y-130760000D03*
X164590000Y-133300000D03*
X164590000Y-130760000D03*
X167130000Y-133300000D03*
D36*
X198225000Y-112350000D03*
X198225000Y-102350000D03*
X195725000Y-112350000D03*
X195725000Y-102350000D03*
X190725000Y-107350000D03*
D37*
X195725000Y-107350000D03*
D38*
X190725000Y-102350000D03*
X190725000Y-112350000D03*
D39*
X186690000Y-121412000D03*
D40*
X186690000Y-123952000D03*
X186690000Y-126492000D03*
X186690000Y-129032000D03*
X186690000Y-131572000D03*
X186690000Y-134112000D03*
D29*
X162682000Y-102616000D03*
X160782000Y-102616000D03*
D11*
X174630000Y-53340000D03*
X176530000Y-53340000D03*
D12*
X165862000Y-71120000D03*
D13*
X165862000Y-68620000D03*
D30*
X149606000Y-89286000D03*
X149606000Y-91186000D03*
D11*
X104272000Y-106680000D03*
X106172000Y-106680000D03*
D12*
X105410000Y-112776000D03*
D13*
X105410000Y-110276000D03*
D29*
X107884000Y-126746000D03*
X105984000Y-126746000D03*
D11*
X113670000Y-126746000D03*
X115570000Y-126746000D03*
X110048000Y-117348000D03*
X111948000Y-117348000D03*
X122560000Y-54610000D03*
X124460000Y-54610000D03*
X132654000Y-54610000D03*
X134554000Y-54610000D03*
X105288000Y-117348000D03*
X107188000Y-117348000D03*
D41*
X109372000Y-109982000D03*
X112522000Y-109982000D03*
X109423000Y-113792000D03*
X112573000Y-113792000D03*
D20*
X111760000Y-126746000D03*
X109885000Y-126746000D03*
D42*
X118013000Y-124206000D03*
X119888000Y-124206000D03*
X118013000Y-120904000D03*
X119888000Y-120904000D03*
D12*
X123952000Y-130048000D03*
D13*
X131572000Y-130048000D03*
X131572000Y-122428000D03*
X123952000Y-122428000D03*
D31*
X108458000Y-122428000D03*
X113358000Y-122428000D03*
D30*
X183388000Y-91760000D03*
X183388000Y-93660000D03*
D43*
X148078000Y-78848000D03*
X148078000Y-77578000D03*
X148078000Y-76308000D03*
X148078000Y-75038000D03*
X148078000Y-73768000D03*
X148078000Y-72498000D03*
X148078000Y-71228000D03*
X148078000Y-69958000D03*
X148078000Y-68688000D03*
X148078000Y-67418000D03*
X148078000Y-66148000D03*
X148078000Y-64878000D03*
X148078000Y-63608000D03*
X148078000Y-62338000D03*
X148078000Y-61068000D03*
X148078000Y-59798000D03*
X148078000Y-58528000D03*
X148078000Y-57258000D03*
X148078000Y-55988000D03*
X148078000Y-54718000D03*
X137028000Y-54718000D03*
X137028000Y-55988000D03*
X137028000Y-57258000D03*
X137028000Y-58528000D03*
X137028000Y-59798000D03*
X137028000Y-61068000D03*
X137028000Y-62338000D03*
X137028000Y-63608000D03*
X137028000Y-64878000D03*
X137028000Y-66148000D03*
X137028000Y-67418000D03*
X137028000Y-68688000D03*
X137028000Y-69958000D03*
X137028000Y-71228000D03*
X137028000Y-72498000D03*
X137028000Y-73768000D03*
X137028000Y-75038000D03*
X137028000Y-76308000D03*
X137028000Y-77578000D03*
X137028000Y-78848000D03*
D44*
X146660000Y-113092000D03*
X146660000Y-112292000D03*
X146660000Y-111492000D03*
X146660000Y-110692000D03*
X146660000Y-109892000D03*
X146660000Y-109092000D03*
X146660000Y-108292000D03*
X146660000Y-107492000D03*
X146660000Y-106692000D03*
X146660000Y-105892000D03*
X146660000Y-105092000D03*
X146660000Y-104292000D03*
X146660000Y-103492000D03*
X146660000Y-102692000D03*
X146660000Y-101892000D03*
X146660000Y-101092000D03*
X146660000Y-100292000D03*
X146660000Y-99492000D03*
X146660000Y-98692000D03*
X146660000Y-97892000D03*
X146660000Y-97092000D03*
X146660000Y-96292000D03*
X146660000Y-95492000D03*
X146660000Y-94692000D03*
X146660000Y-93892000D03*
X146660000Y-93092000D03*
X146660000Y-92292000D03*
X146660000Y-91492000D03*
X146660000Y-90692000D03*
X146660000Y-89892000D03*
X146660000Y-89092000D03*
X146660000Y-88292000D03*
D45*
X143460000Y-85092000D03*
X142660000Y-85092000D03*
X141860000Y-85092000D03*
X141060000Y-85092000D03*
X140260000Y-85092000D03*
X139460000Y-85092000D03*
X138660000Y-85092000D03*
X137860000Y-85092000D03*
X137060000Y-85092000D03*
X136260000Y-85092000D03*
X135460000Y-85092000D03*
X134660000Y-85092000D03*
X133860000Y-85092000D03*
X133060000Y-85092000D03*
X132260000Y-85092000D03*
X131460000Y-85092000D03*
X130660000Y-85092000D03*
X129860000Y-85092000D03*
X129060000Y-85092000D03*
X128260000Y-85092000D03*
X127460000Y-85092000D03*
X126660000Y-85092000D03*
X125860000Y-85092000D03*
X125060000Y-85092000D03*
X124260000Y-85092000D03*
X123460000Y-85092000D03*
X122660000Y-85092000D03*
X121860000Y-85092000D03*
X121060000Y-85092000D03*
X120260000Y-85092000D03*
X119460000Y-85092000D03*
X118660000Y-85092000D03*
D44*
X115460000Y-88292000D03*
X115460000Y-89092000D03*
X115460000Y-89892000D03*
X115460000Y-90692000D03*
X115460000Y-91492000D03*
X115460000Y-92292000D03*
X115460000Y-93092000D03*
X115460000Y-93892000D03*
X115460000Y-94692000D03*
X115460000Y-95492000D03*
X115460000Y-96292000D03*
X115460000Y-97092000D03*
X115460000Y-97892000D03*
X115460000Y-98692000D03*
X115460000Y-99492000D03*
X115460000Y-100292000D03*
X115460000Y-101092000D03*
X115460000Y-101892000D03*
X115460000Y-102692000D03*
X115460000Y-103492000D03*
X115460000Y-104292000D03*
X115460000Y-105092000D03*
X115460000Y-105892000D03*
X115460000Y-106692000D03*
X115460000Y-107492000D03*
X115460000Y-108292000D03*
X115460000Y-109092000D03*
X115460000Y-109892000D03*
X115460000Y-110692000D03*
X115460000Y-111492000D03*
X115460000Y-112292000D03*
X115460000Y-113092000D03*
D45*
X118660000Y-116292000D03*
X119460000Y-116292000D03*
X120260000Y-116292000D03*
X121060000Y-116292000D03*
X121860000Y-116292000D03*
X122660000Y-116292000D03*
X123460000Y-116292000D03*
X124260000Y-116292000D03*
X125060000Y-116292000D03*
X125860000Y-116292000D03*
X126660000Y-116292000D03*
X127460000Y-116292000D03*
X128260000Y-116292000D03*
X129060000Y-116292000D03*
X129860000Y-116292000D03*
X130660000Y-116292000D03*
X131460000Y-116292000D03*
X132260000Y-116292000D03*
X133060000Y-116292000D03*
X133860000Y-116292000D03*
X134660000Y-116292000D03*
X135460000Y-116292000D03*
X136260000Y-116292000D03*
X137060000Y-116292000D03*
X137860000Y-116292000D03*
X138660000Y-116292000D03*
X139460000Y-116292000D03*
X140260000Y-116292000D03*
X141060000Y-116292000D03*
X141860000Y-116292000D03*
X142660000Y-116292000D03*
X143460000Y-116292000D03*
D43*
X119821000Y-78721000D03*
X119821000Y-77451000D03*
X119821000Y-76181000D03*
X119821000Y-74911000D03*
X119821000Y-73641000D03*
X119821000Y-72371000D03*
X119821000Y-71101000D03*
X119821000Y-69831000D03*
X119821000Y-68561000D03*
X119821000Y-67291000D03*
X119821000Y-66021000D03*
X119821000Y-64751000D03*
X119821000Y-63481000D03*
X119821000Y-62211000D03*
X119821000Y-60941000D03*
X119821000Y-59671000D03*
X119821000Y-58401000D03*
X119821000Y-57131000D03*
X119821000Y-55861000D03*
X119821000Y-54591000D03*
X108771000Y-54591000D03*
X108771000Y-55861000D03*
X108771000Y-57131000D03*
X108771000Y-58401000D03*
X108771000Y-59671000D03*
X108771000Y-60941000D03*
X108771000Y-62211000D03*
X108771000Y-63481000D03*
X108771000Y-64751000D03*
X108771000Y-66021000D03*
X108771000Y-67291000D03*
X108771000Y-68561000D03*
X108771000Y-69831000D03*
X108771000Y-71101000D03*
X108771000Y-72371000D03*
X108771000Y-73641000D03*
X108771000Y-74911000D03*
X108771000Y-76181000D03*
X108771000Y-77451000D03*
X108771000Y-78721000D03*
D42*
X138150000Y-129125000D03*
X140025000Y-129125000D03*
X138250000Y-125775000D03*
X140125000Y-125775000D03*
X138150000Y-122350000D03*
X140025000Y-122350000D03*
M02*
