%FSLAX45Y45*%
G04 Gerber Fmt 4.5, Leading zero omitted, Abs format (unit mm)*
G04 Created by KiCad (PCBNEW (5.1.10)-1) date 2021-07-30 10:38:17*
%MOMM*%
%LPD*%
G01*
G04 APERTURE LIST*
%TA.AperFunction,Profile*%
%ADD10C,0.050000*%
%TD*%
%ADD11C,0.200000*%
%ADD12C,0.300000*%
G04 APERTURE END LIST*
D10*
X10250000Y-5000000D02*
X19750000Y-5000000D01*
X10000000Y-14750000D02*
X10000000Y-5250000D01*
X19750000Y-15000000D02*
X10250000Y-15000000D01*
X10000000Y-5250000D02*
G75*
G02*
X10250000Y-5000000I250000J0D01*
G01*
X10250000Y-15000000D02*
G75*
G02*
X10000000Y-14750000I0J250000D01*
G01*
X20000000Y-14750000D02*
G75*
G02*
X19750000Y-15000000I-250000J0D01*
G01*
X20000000Y-11250000D02*
X20000000Y-10750000D01*
X20000000Y-10750000D02*
X20000000Y-5250000D01*
X20000000Y-14750000D02*
X20000000Y-11250000D01*
X19750000Y-5000000D02*
G75*
G02*
X20000000Y-5250000I0J-250000D01*
G01*
D11*
X10394000Y-13010200D02*
X10434000Y-13050200D01*
X10434000Y-13010200D02*
X10394000Y-13050200D01*
X10394000Y-13467400D02*
X10434000Y-13507400D01*
X10434000Y-13467400D02*
X10394000Y-13507400D01*
X10395000Y-6200000D02*
X10435000Y-6240000D01*
X10435000Y-6200000D02*
X10395000Y-6240000D01*
X10419400Y-11714800D02*
X10459400Y-11754800D01*
X10459400Y-11714800D02*
X10419400Y-11754800D01*
X10444800Y-12654600D02*
X10484800Y-12694600D01*
X10484800Y-12654600D02*
X10444800Y-12694600D01*
X10483800Y-7213600D02*
X10523800Y-7253600D01*
X10523800Y-7213600D02*
X10483800Y-7253600D01*
X10546400Y-14178600D02*
X10586400Y-14218600D01*
X10586400Y-14178600D02*
X10546400Y-14218600D01*
X10563800Y-7073600D02*
X10603800Y-7113600D01*
X10603800Y-7073600D02*
X10563800Y-7113600D01*
X10660000Y-8900000D02*
X10700000Y-8940000D01*
X10700000Y-8900000D02*
X10660000Y-8940000D01*
X10663800Y-7343600D02*
X10703800Y-7383600D01*
X10703800Y-7343600D02*
X10663800Y-7383600D01*
X10663800Y-7473600D02*
X10703800Y-7513600D01*
X10703800Y-7473600D02*
X10663800Y-7513600D01*
X10663800Y-7593600D02*
X10703800Y-7633600D01*
X10703800Y-7593600D02*
X10663800Y-7633600D01*
X10663800Y-7723600D02*
X10703800Y-7763600D01*
X10703800Y-7723600D02*
X10663800Y-7763600D01*
X10673400Y-7879400D02*
X10713400Y-7919400D01*
X10713400Y-7879400D02*
X10673400Y-7919400D01*
X10800400Y-10978200D02*
X10840400Y-11018200D01*
X10840400Y-10978200D02*
X10800400Y-11018200D01*
X10800400Y-11714800D02*
X10840400Y-11754800D01*
X10840400Y-11714800D02*
X10800400Y-11754800D01*
X10851200Y-13340400D02*
X10891200Y-13380400D01*
X10891200Y-13340400D02*
X10851200Y-13380400D01*
X10876600Y-11486200D02*
X10916600Y-11526200D01*
X10916600Y-11486200D02*
X10876600Y-11526200D01*
X10952800Y-13213400D02*
X10992800Y-13253400D01*
X10992800Y-13213400D02*
X10952800Y-13253400D01*
X11080000Y-5440000D02*
X11120000Y-5480000D01*
X11120000Y-5440000D02*
X11080000Y-5480000D01*
X11095000Y-6440000D02*
X11135000Y-6480000D01*
X11135000Y-6440000D02*
X11095000Y-6480000D01*
X11110000Y-13250000D02*
X11150000Y-13290000D01*
X11150000Y-13250000D02*
X11110000Y-13290000D01*
X11283000Y-11714800D02*
X11323000Y-11754800D01*
X11323000Y-11714800D02*
X11283000Y-11754800D01*
X11308400Y-10114600D02*
X11348400Y-10154600D01*
X11348400Y-10114600D02*
X11308400Y-10154600D01*
X11335000Y-13685000D02*
X11375000Y-13725000D01*
X11375000Y-13685000D02*
X11335000Y-13725000D01*
X11664000Y-12629200D02*
X11704000Y-12669200D01*
X11704000Y-12629200D02*
X11664000Y-12669200D01*
X11697500Y-13180000D02*
X11737500Y-13220000D01*
X11737500Y-13180000D02*
X11697500Y-13220000D01*
X11714800Y-9606600D02*
X11754800Y-9646600D01*
X11754800Y-9606600D02*
X11714800Y-9646600D01*
X11765600Y-11410000D02*
X11805600Y-11450000D01*
X11805600Y-11410000D02*
X11765600Y-11450000D01*
X11816400Y-8768400D02*
X11856400Y-8808400D01*
X11856400Y-8768400D02*
X11816400Y-8808400D01*
X11833800Y-9123600D02*
X11873800Y-9163600D01*
X11873800Y-9123600D02*
X11833800Y-9163600D01*
X11841800Y-12553000D02*
X11881800Y-12593000D01*
X11881800Y-12553000D02*
X11841800Y-12593000D01*
X11892500Y-10500000D02*
X11932500Y-10540000D01*
X11932500Y-10500000D02*
X11892500Y-10540000D01*
X11923800Y-8023600D02*
X11963800Y-8063600D01*
X11963800Y-8023600D02*
X11923800Y-8063600D01*
X11923800Y-9213600D02*
X11963800Y-9253600D01*
X11963800Y-9213600D02*
X11923800Y-9253600D01*
X11968799Y-8946200D02*
X12008799Y-8986200D01*
X12008799Y-8946200D02*
X11968799Y-8986200D01*
X11994200Y-8793800D02*
X12034200Y-8833800D01*
X12034200Y-8793800D02*
X11994200Y-8833800D01*
X11995000Y-12620000D02*
X12035000Y-12660000D01*
X12035000Y-12620000D02*
X11995000Y-12660000D01*
X12013800Y-9303600D02*
X12053800Y-9343600D01*
X12053800Y-9303600D02*
X12013800Y-9343600D01*
X12045000Y-7930200D02*
X12085000Y-7970200D01*
X12085000Y-7930200D02*
X12045000Y-7970200D01*
X12070000Y-8070000D02*
X12110000Y-8110000D01*
X12110000Y-8070000D02*
X12070000Y-8110000D01*
X12070400Y-11308400D02*
X12110400Y-11348400D01*
X12110400Y-11308400D02*
X12070400Y-11348400D01*
X12103800Y-9393600D02*
X12143800Y-9433600D01*
X12143800Y-9393600D02*
X12103800Y-9433600D01*
X12115000Y-12735000D02*
X12155000Y-12775000D01*
X12155000Y-12735000D02*
X12115000Y-12775000D01*
X12120000Y-5315000D02*
X12160000Y-5355000D01*
X12160000Y-5315000D02*
X12120000Y-5355000D01*
X12153800Y-6833600D02*
X12193800Y-6873600D01*
X12193800Y-6833600D02*
X12153800Y-6873600D01*
X12153800Y-6583600D02*
X12193800Y-6623600D01*
X12193800Y-6583600D02*
X12153800Y-6623600D01*
X12153800Y-6703600D02*
X12193800Y-6743600D01*
X12193800Y-6703600D02*
X12153800Y-6743600D01*
X12153800Y-6963600D02*
X12193800Y-7003600D01*
X12193800Y-6963600D02*
X12153800Y-7003600D01*
X12180000Y-6425000D02*
X12220000Y-6465000D01*
X12220000Y-6425000D02*
X12180000Y-6465000D01*
X12200000Y-6200000D02*
X12240000Y-6240000D01*
X12240000Y-6200000D02*
X12200000Y-6240000D01*
X12250000Y-9510000D02*
X12290000Y-9550000D01*
X12290000Y-9510000D02*
X12250000Y-9550000D01*
X12370000Y-13305000D02*
X12410000Y-13345000D01*
X12410000Y-13305000D02*
X12370000Y-13345000D01*
X12400600Y-6914200D02*
X12440600Y-6954200D01*
X12440600Y-6914200D02*
X12400600Y-6954200D01*
X12502200Y-7015800D02*
X12542200Y-7055800D01*
X12542200Y-7015800D02*
X12502200Y-7055800D01*
X12553000Y-5441000D02*
X12593000Y-5481000D01*
X12593000Y-5441000D02*
X12553000Y-5481000D01*
X12629200Y-7142800D02*
X12669200Y-7182800D01*
X12669200Y-7142800D02*
X12629200Y-7182800D01*
X12637500Y-11865000D02*
X12677500Y-11905000D01*
X12677500Y-11865000D02*
X12637500Y-11905000D01*
X12654600Y-11308400D02*
X12694600Y-11348400D01*
X12694600Y-11308400D02*
X12654600Y-11348400D01*
X12686900Y-12338100D02*
X12726900Y-12378100D01*
X12726900Y-12338100D02*
X12686900Y-12378100D01*
X12705400Y-8793800D02*
X12745400Y-8833800D01*
X12745400Y-8793800D02*
X12705400Y-8833800D01*
X12730800Y-7244400D02*
X12770800Y-7284400D01*
X12770800Y-7244400D02*
X12730800Y-7284400D01*
X12883200Y-7600000D02*
X12923200Y-7640000D01*
X12923200Y-7600000D02*
X12883200Y-7640000D01*
X12984800Y-7483600D02*
X13024800Y-7523600D01*
X13024800Y-7483600D02*
X12984800Y-7523600D01*
X13137200Y-5441000D02*
X13177200Y-5481000D01*
X13177200Y-5441000D02*
X13137200Y-5481000D01*
X13193800Y-7353600D02*
X13233800Y-7393600D01*
X13233800Y-7353600D02*
X13193800Y-7393600D01*
X13205000Y-11862500D02*
X13245000Y-11902500D01*
X13245000Y-11862500D02*
X13205000Y-11902500D01*
X13333800Y-7223600D02*
X13373800Y-7263600D01*
X13373800Y-7223600D02*
X13333800Y-7263600D01*
X13442000Y-8870000D02*
X13482000Y-8910000D01*
X13482000Y-8870000D02*
X13442000Y-8910000D01*
X13518200Y-7879400D02*
X13558200Y-7919400D01*
X13558200Y-7879400D02*
X13518200Y-7919400D01*
X13518200Y-11308400D02*
X13558200Y-11348400D01*
X13558200Y-11308400D02*
X13518200Y-11348400D01*
X13543600Y-5339400D02*
X13583600Y-5379400D01*
X13583600Y-5339400D02*
X13543600Y-5379400D01*
X13807500Y-11920000D02*
X13847500Y-11960000D01*
X13847500Y-11920000D02*
X13807500Y-11960000D01*
X13930000Y-10385000D02*
X13970000Y-10425000D01*
X13970000Y-10385000D02*
X13930000Y-10425000D01*
X13935000Y-10250000D02*
X13975000Y-10290000D01*
X13975000Y-10250000D02*
X13935000Y-10290000D01*
X13935000Y-10520000D02*
X13975000Y-10560000D01*
X13975000Y-10520000D02*
X13935000Y-10560000D01*
X13935000Y-10680000D02*
X13975000Y-10720000D01*
X13975000Y-10680000D02*
X13935000Y-10720000D01*
X13975400Y-6533200D02*
X14015400Y-6573200D01*
X14015400Y-6533200D02*
X13975400Y-6573200D01*
X14023800Y-7723600D02*
X14063800Y-7763600D01*
X14063800Y-7723600D02*
X14023800Y-7763600D01*
X14023800Y-9123600D02*
X14063800Y-9163600D01*
X14063800Y-9123600D02*
X14023800Y-9163600D01*
X14093800Y-7813600D02*
X14133800Y-7853600D01*
X14133800Y-7813600D02*
X14093800Y-7853600D01*
X14093800Y-9043600D02*
X14133800Y-9083600D01*
X14133800Y-9043600D02*
X14093800Y-9083600D01*
X14093800Y-9683600D02*
X14133800Y-9723600D01*
X14133800Y-9683600D02*
X14093800Y-9723600D01*
X14165000Y-11792500D02*
X14205000Y-11832500D01*
X14205000Y-11792500D02*
X14165000Y-11832500D01*
X14173800Y-7723600D02*
X14213800Y-7763600D01*
X14213800Y-7723600D02*
X14173800Y-7763600D01*
X14173800Y-8963600D02*
X14213800Y-9003600D01*
X14213800Y-8963600D02*
X14173800Y-9003600D01*
X14185000Y-13202500D02*
X14225000Y-13242500D01*
X14225000Y-13202500D02*
X14185000Y-13242500D01*
X14193800Y-9763600D02*
X14233800Y-9803600D01*
X14233800Y-9763600D02*
X14193800Y-9803600D01*
X14253800Y-7813600D02*
X14293800Y-7853600D01*
X14293800Y-7813600D02*
X14253800Y-7853600D01*
X14253800Y-8883600D02*
X14293800Y-8923600D01*
X14293800Y-8883600D02*
X14253800Y-8923600D01*
X14290000Y-13317500D02*
X14330000Y-13357500D01*
X14330000Y-13317500D02*
X14290000Y-13357500D01*
X14302500Y-13112500D02*
X14342500Y-13152500D01*
X14342500Y-13112500D02*
X14302500Y-13152500D01*
X14303800Y-9843600D02*
X14343800Y-9883600D01*
X14343800Y-9843600D02*
X14303800Y-9883600D01*
X14323800Y-8013600D02*
X14363800Y-8053600D01*
X14363800Y-8013600D02*
X14323800Y-8053600D01*
X14326000Y-11796500D02*
X14366000Y-11836500D01*
X14366000Y-11796500D02*
X14326000Y-11836500D01*
X14403800Y-8103600D02*
X14443800Y-8143600D01*
X14443800Y-8103600D02*
X14403800Y-8143600D01*
X14413800Y-9923600D02*
X14453800Y-9963600D01*
X14453800Y-9923600D02*
X14413800Y-9963600D01*
X14415000Y-13595000D02*
X14455000Y-13635000D01*
X14455000Y-13595000D02*
X14415000Y-13635000D01*
X14483800Y-8013600D02*
X14523800Y-8053600D01*
X14523800Y-8013600D02*
X14483800Y-8053600D01*
X14525000Y-13515000D02*
X14565000Y-13555000D01*
X14565000Y-13515000D02*
X14525000Y-13555000D01*
X14559600Y-5466400D02*
X14599600Y-5506400D01*
X14599600Y-5466400D02*
X14559600Y-5506400D01*
X14593800Y-7103600D02*
X14633800Y-7143600D01*
X14633800Y-7103600D02*
X14593800Y-7143600D01*
X14593800Y-7223600D02*
X14633800Y-7263600D01*
X14633800Y-7223600D02*
X14593800Y-7263600D01*
X14593800Y-7353600D02*
X14633800Y-7393600D01*
X14633800Y-7353600D02*
X14593800Y-7393600D01*
X14593800Y-7483600D02*
X14633800Y-7523600D01*
X14633800Y-7483600D02*
X14593800Y-7523600D01*
X14593800Y-7613600D02*
X14633800Y-7653600D01*
X14633800Y-7613600D02*
X14593800Y-7653600D01*
X14593800Y-7733600D02*
X14633800Y-7773600D01*
X14633800Y-7733600D02*
X14593800Y-7773600D01*
X14593800Y-8063600D02*
X14633800Y-8103600D01*
X14633800Y-8063600D02*
X14593800Y-8103600D01*
X14632500Y-13430000D02*
X14672500Y-13470000D01*
X14672500Y-13430000D02*
X14632500Y-13470000D01*
X14665000Y-14122500D02*
X14705000Y-14162500D01*
X14705000Y-14122500D02*
X14665000Y-14162500D01*
X14737400Y-7955600D02*
X14777400Y-7995600D01*
X14777400Y-7955600D02*
X14737400Y-7995600D01*
X14795000Y-11320000D02*
X14835000Y-11360000D01*
X14835000Y-11320000D02*
X14795000Y-11360000D01*
X14882500Y-10010000D02*
X14922500Y-10050000D01*
X14922500Y-10010000D02*
X14882500Y-10050000D01*
X14883800Y-8693600D02*
X14923800Y-8733600D01*
X14923800Y-8693600D02*
X14883800Y-8733600D01*
X14940600Y-8819200D02*
X14980600Y-8859200D01*
X14980600Y-8819200D02*
X14940600Y-8859200D01*
X14940600Y-9174800D02*
X14980600Y-9214800D01*
X14980600Y-9174800D02*
X14940600Y-9214800D01*
X14963800Y-8583600D02*
X15003800Y-8623600D01*
X15003800Y-8583600D02*
X14963800Y-8623600D01*
X14991400Y-6457000D02*
X15031400Y-6497000D01*
X15031400Y-6457000D02*
X14991400Y-6497000D01*
X15093800Y-5703600D02*
X15133800Y-5743600D01*
X15133800Y-5703600D02*
X15093800Y-5743600D01*
X15093800Y-9653600D02*
X15133800Y-9693600D01*
X15133800Y-9653600D02*
X15093800Y-9693600D01*
X15237500Y-11675000D02*
X15277500Y-11715000D01*
X15277500Y-11675000D02*
X15237500Y-11715000D01*
X15520000Y-12220000D02*
X15560000Y-12260000D01*
X15560000Y-12220000D02*
X15520000Y-12260000D01*
X15520000Y-12480000D02*
X15560000Y-12520000D01*
X15560000Y-12480000D02*
X15520000Y-12520000D01*
X15520000Y-12985000D02*
X15560000Y-13025000D01*
X15560000Y-12985000D02*
X15520000Y-13025000D01*
X15524800Y-10089200D02*
X15564800Y-10129200D01*
X15564800Y-10089200D02*
X15524800Y-10129200D01*
X15525000Y-12350000D02*
X15565000Y-12390000D01*
X15565000Y-12350000D02*
X15525000Y-12390000D01*
X15525000Y-12605000D02*
X15565000Y-12645000D01*
X15565000Y-12605000D02*
X15525000Y-12645000D01*
X15525000Y-12730000D02*
X15565000Y-12770000D01*
X15565000Y-12730000D02*
X15525000Y-12770000D01*
X15525000Y-12860000D02*
X15565000Y-12900000D01*
X15565000Y-12860000D02*
X15525000Y-12900000D01*
X15890000Y-11965000D02*
X15930000Y-12005000D01*
X15930000Y-11965000D02*
X15890000Y-12005000D01*
X15895000Y-12110000D02*
X15935000Y-12150000D01*
X15935000Y-12110000D02*
X15895000Y-12150000D01*
X15926600Y-10241600D02*
X15966600Y-10281600D01*
X15966600Y-10241600D02*
X15926600Y-10281600D01*
X15928840Y-9896160D02*
X15968840Y-9936160D01*
X15968840Y-9896160D02*
X15928840Y-9936160D01*
X15931960Y-10581960D02*
X15971960Y-10621960D01*
X15971960Y-10581960D02*
X15931960Y-10621960D01*
X15982500Y-11800000D02*
X16022500Y-11840000D01*
X16022500Y-11800000D02*
X15982500Y-11840000D01*
X16005000Y-12875000D02*
X16045000Y-12915000D01*
X16045000Y-12875000D02*
X16005000Y-12915000D01*
X16022500Y-11232500D02*
X16062500Y-11272500D01*
X16062500Y-11232500D02*
X16022500Y-11272500D01*
X16160000Y-10810000D02*
X16200000Y-10850000D01*
X16200000Y-10810000D02*
X16160000Y-10850000D01*
X16160000Y-11850000D02*
X16200000Y-11890000D01*
X16200000Y-11850000D02*
X16160000Y-11890000D01*
X16285000Y-11050000D02*
X16325000Y-11090000D01*
X16325000Y-11050000D02*
X16285000Y-11090000D01*
X16285000Y-11855000D02*
X16325000Y-11895000D01*
X16325000Y-11855000D02*
X16285000Y-11895000D01*
X16290000Y-5865000D02*
X16330000Y-5905000D01*
X16330000Y-5865000D02*
X16290000Y-5905000D01*
X16495000Y-11760000D02*
X16535000Y-11800000D01*
X16535000Y-11760000D02*
X16495000Y-11800000D01*
X16550000Y-9440000D02*
X16590000Y-9480000D01*
X16590000Y-9440000D02*
X16550000Y-9480000D01*
X16555000Y-8905000D02*
X16595000Y-8945000D01*
X16595000Y-8905000D02*
X16555000Y-8945000D01*
X16615700Y-13595700D02*
X16655700Y-13635700D01*
X16655700Y-13595700D02*
X16615700Y-13635700D01*
X16620000Y-10825000D02*
X16660000Y-10865000D01*
X16660000Y-10825000D02*
X16620000Y-10865000D01*
X16620000Y-10970000D02*
X16660000Y-11010000D01*
X16660000Y-10970000D02*
X16620000Y-11010000D01*
X16620000Y-11865000D02*
X16660000Y-11905000D01*
X16660000Y-11865000D02*
X16620000Y-11905000D01*
X16667800Y-13696000D02*
X16707800Y-13736000D01*
X16707800Y-13696000D02*
X16667800Y-13736000D01*
X16750000Y-11755000D02*
X16790000Y-11795000D01*
X16790000Y-11755000D02*
X16750000Y-11795000D01*
X16862500Y-12730000D02*
X16902500Y-12770000D01*
X16902500Y-12730000D02*
X16862500Y-12770000D01*
X16885000Y-11865000D02*
X16925000Y-11905000D01*
X16925000Y-11865000D02*
X16885000Y-11905000D01*
X16947200Y-14120300D02*
X16987200Y-14160300D01*
X16987200Y-14120300D02*
X16947200Y-14160300D01*
X16967500Y-12477500D02*
X17007500Y-12517500D01*
X17007500Y-12477500D02*
X16967500Y-12517500D01*
X16972500Y-12222500D02*
X17012500Y-12262500D01*
X17012500Y-12222500D02*
X16972500Y-12262500D01*
X17000600Y-13515600D02*
X17040600Y-13555600D01*
X17040600Y-13515600D02*
X17000600Y-13555600D01*
X17045000Y-10400000D02*
X17085000Y-10440000D01*
X17085000Y-10400000D02*
X17045000Y-10440000D01*
X17070000Y-12347500D02*
X17110000Y-12387500D01*
X17110000Y-12347500D02*
X17070000Y-12387500D01*
X17091500Y-10681500D02*
X17131500Y-10721500D01*
X17131500Y-10681500D02*
X17091500Y-10721500D01*
X17110000Y-6325000D02*
X17150000Y-6365000D01*
X17150000Y-6325000D02*
X17110000Y-6365000D01*
X17165000Y-11045000D02*
X17205000Y-11085000D01*
X17205000Y-11045000D02*
X17165000Y-11085000D01*
X17190000Y-8930000D02*
X17230000Y-8970000D01*
X17230000Y-8930000D02*
X17190000Y-8970000D01*
X17267850Y-13375350D02*
X17307850Y-13415350D01*
X17307850Y-13375350D02*
X17267850Y-13415350D01*
X17320000Y-5310000D02*
X17360000Y-5350000D01*
X17360000Y-5310000D02*
X17320000Y-5350000D01*
X17455200Y-12603800D02*
X17495200Y-12643800D01*
X17495200Y-12603800D02*
X17455200Y-12643800D01*
X17460000Y-6200000D02*
X17500000Y-6240000D01*
X17500000Y-6200000D02*
X17460000Y-6240000D01*
X17580000Y-8380000D02*
X17620000Y-8420000D01*
X17620000Y-8380000D02*
X17580000Y-8420000D01*
X17710000Y-10030000D02*
X17750000Y-10070000D01*
X17750000Y-10030000D02*
X17710000Y-10070000D01*
X17780000Y-5420000D02*
X17820000Y-5460000D01*
X17820000Y-5420000D02*
X17780000Y-5460000D01*
X17960000Y-5820000D02*
X18000000Y-5860000D01*
X18000000Y-5820000D02*
X17960000Y-5860000D01*
X17960000Y-9390000D02*
X18000000Y-9430000D01*
X18000000Y-9390000D02*
X17960000Y-9430000D01*
X18040000Y-11840000D02*
X18080000Y-11880000D01*
X18080000Y-11840000D02*
X18040000Y-11880000D01*
X18180000Y-8715000D02*
X18220000Y-8755000D01*
X18220000Y-8715000D02*
X18180000Y-8755000D01*
X18190000Y-9160000D02*
X18230000Y-9200000D01*
X18230000Y-9160000D02*
X18190000Y-9200000D01*
X18302500Y-11232500D02*
X18342500Y-11272500D01*
X18342500Y-11232500D02*
X18302500Y-11272500D01*
X18310000Y-10080000D02*
X18350000Y-10120000D01*
X18350000Y-10080000D02*
X18310000Y-10120000D01*
X18315000Y-9475000D02*
X18355000Y-9515000D01*
X18355000Y-9475000D02*
X18315000Y-9515000D01*
X18410000Y-10545000D02*
X18450000Y-10585000D01*
X18450000Y-10545000D02*
X18410000Y-10585000D01*
X18440000Y-7545000D02*
X18480000Y-7585000D01*
X18480000Y-7545000D02*
X18440000Y-7585000D01*
X19450000Y-13325000D02*
X19490000Y-13365000D01*
X19490000Y-13325000D02*
X19450000Y-13365000D01*
X19110000Y-5425000D02*
G75*
G03*
X19110000Y-5425000I-35000J0D01*
G01*
X19120000Y-5400000D02*
X19030000Y-5400000D01*
X19120000Y-5450000D02*
X19030000Y-5450000D01*
X19030000Y-5400000D02*
G75*
G03*
X19030000Y-5450000I0J-25000D01*
G01*
X19120000Y-5450000D02*
G75*
G03*
X19120000Y-5400000I0J25000D01*
G01*
X19110000Y-6425000D02*
G75*
G03*
X19110000Y-6425000I-35000J0D01*
G01*
X19120000Y-6400000D02*
X19030000Y-6400000D01*
X19120000Y-6450000D02*
X19030000Y-6450000D01*
X19030000Y-6400000D02*
G75*
G03*
X19030000Y-6450000I0J-25000D01*
G01*
X19120000Y-6450000D02*
G75*
G03*
X19120000Y-6400000I0J25000D01*
G01*
X19610000Y-5925000D02*
G75*
G03*
X19610000Y-5925000I-35000J0D01*
G01*
X19600000Y-5970000D02*
X19600000Y-5880000D01*
X19550000Y-5970000D02*
X19550000Y-5880000D01*
X19600000Y-5880000D02*
G75*
G03*
X19550000Y-5880000I-25000J0D01*
G01*
X19550000Y-5970000D02*
G75*
G03*
X19600000Y-5970000I25000J0D01*
G01*
X10541000Y-10987600D02*
X10541000Y-11067600D01*
X10501000Y-11027600D02*
X10581000Y-11027600D01*
X10541000Y-11237600D02*
X10541000Y-11317600D01*
X10501000Y-11277600D02*
X10581000Y-11277600D01*
X12395200Y-12202800D02*
X12395200Y-12282800D01*
X12355200Y-12242800D02*
X12435200Y-12242800D01*
X12395200Y-12964800D02*
X12395200Y-13044800D01*
X12355200Y-13004800D02*
X12435200Y-13004800D01*
X13157200Y-12202800D02*
X13157200Y-12282800D01*
X13117200Y-12242800D02*
X13197200Y-12242800D01*
X13157200Y-12964800D02*
X13157200Y-13044800D01*
X13117200Y-13004800D02*
X13197200Y-13004800D01*
X16586200Y-6822000D02*
X16586200Y-6902000D01*
X16546200Y-6862000D02*
X16626200Y-6862000D01*
X16586200Y-7072000D02*
X16586200Y-7152000D01*
X16546200Y-7112000D02*
X16626200Y-7112000D01*
X16611600Y-7482400D02*
X16611600Y-7562400D01*
X16571600Y-7522400D02*
X16651600Y-7522400D01*
X16611600Y-7732400D02*
X16611600Y-7812400D01*
X16571600Y-7772400D02*
X16651600Y-7772400D01*
X17322800Y-6822000D02*
X17322800Y-6902000D01*
X17282800Y-6862000D02*
X17362800Y-6862000D01*
X17322800Y-7072000D02*
X17322800Y-7152000D01*
X17282800Y-7112000D02*
X17362800Y-7112000D01*
X17322800Y-7457000D02*
X17322800Y-7537000D01*
X17282800Y-7497000D02*
X17362800Y-7497000D01*
X17322800Y-7707000D02*
X17322800Y-7787000D01*
X17282800Y-7747000D02*
X17362800Y-7747000D01*
X17780000Y-10856600D02*
X17780000Y-10936600D01*
X17740000Y-10896600D02*
X17820000Y-10896600D01*
X18030000Y-10856600D02*
X18030000Y-10936600D01*
X17990000Y-10896600D02*
X18070000Y-10896600D01*
X18059400Y-6822000D02*
X18059400Y-6902000D01*
X18019400Y-6862000D02*
X18099400Y-6862000D01*
X18059400Y-7072000D02*
X18059400Y-7152000D01*
X18019400Y-7112000D02*
X18099400Y-7112000D01*
X18059400Y-7457000D02*
X18059400Y-7537000D01*
X18019400Y-7497000D02*
X18099400Y-7497000D01*
X18059400Y-7707000D02*
X18059400Y-7787000D01*
X18019400Y-7747000D02*
X18099400Y-7747000D01*
X18932467Y-10595467D02*
X18932467Y-10532533D01*
X18869533Y-10532533D01*
X18869533Y-10595467D01*
X18932467Y-10595467D01*
X18932467Y-11265467D02*
X18932467Y-11202533D01*
X18869533Y-11202533D01*
X18869533Y-11265467D01*
X18932467Y-11265467D01*
X19181467Y-10595467D02*
X19181467Y-10532533D01*
X19118533Y-10532533D01*
X19118533Y-10595467D01*
X19181467Y-10595467D01*
X19181467Y-11265467D02*
X19181467Y-11202533D01*
X19118533Y-11202533D01*
X19118533Y-11265467D01*
X19181467Y-11265467D01*
X18901000Y-7287500D02*
X18949500Y-7239000D01*
X18901000Y-7190500D01*
X18852500Y-7239000D01*
X18901000Y-7287500D01*
X18901000Y-7541500D02*
X18949500Y-7493000D01*
X18901000Y-7444500D01*
X18852500Y-7493000D01*
X18901000Y-7541500D01*
X18901000Y-7752500D02*
X18949500Y-7704000D01*
X18901000Y-7655500D01*
X18852500Y-7704000D01*
X18901000Y-7752500D01*
X18901000Y-7957500D02*
X18949500Y-7909000D01*
X18901000Y-7860500D01*
X18852500Y-7909000D01*
X18901000Y-7957500D01*
X19150000Y-7287500D02*
X19198500Y-7239000D01*
X19150000Y-7190500D01*
X19101500Y-7239000D01*
X19150000Y-7287500D01*
X19150000Y-7492500D02*
X19198500Y-7444000D01*
X19150000Y-7395500D01*
X19101500Y-7444000D01*
X19150000Y-7492500D01*
X19150000Y-7752500D02*
X19198500Y-7704000D01*
X19150000Y-7655500D01*
X19101500Y-7704000D01*
X19150000Y-7752500D01*
X19150000Y-7957500D02*
X19198500Y-7909000D01*
X19150000Y-7860500D01*
X19101500Y-7909000D01*
X19150000Y-7957500D01*
X10948200Y-13920000D02*
X11048200Y-14020000D01*
X11048200Y-13920000D02*
X10948200Y-14020000D01*
X11048200Y-13970000D02*
G75*
G03*
X11048200Y-13970000I-50000J0D01*
G01*
X10948200Y-14428000D02*
X11048200Y-14528000D01*
X11048200Y-14428000D02*
X10948200Y-14528000D01*
X11048200Y-14478000D02*
G75*
G03*
X11048200Y-14478000I-50000J0D01*
G01*
X11202200Y-13920000D02*
X11302200Y-14020000D01*
X11302200Y-13920000D02*
X11202200Y-14020000D01*
X11302200Y-13970000D02*
G75*
G03*
X11302200Y-13970000I-50000J0D01*
G01*
X11202200Y-14428000D02*
X11302200Y-14528000D01*
X11302200Y-14428000D02*
X11202200Y-14528000D01*
X11302200Y-14478000D02*
G75*
G03*
X11302200Y-14478000I-50000J0D01*
G01*
X11456200Y-13920000D02*
X11556200Y-14020000D01*
X11556200Y-13920000D02*
X11456200Y-14020000D01*
X11556200Y-13970000D02*
G75*
G03*
X11556200Y-13970000I-50000J0D01*
G01*
X11456200Y-14428000D02*
X11556200Y-14528000D01*
X11556200Y-14428000D02*
X11456200Y-14528000D01*
X11556200Y-14478000D02*
G75*
G03*
X11556200Y-14478000I-50000J0D01*
G01*
X11710200Y-13920000D02*
X11810200Y-14020000D01*
X11810200Y-13920000D02*
X11710200Y-14020000D01*
X11810200Y-13970000D02*
G75*
G03*
X11810200Y-13970000I-50000J0D01*
G01*
X11710200Y-14428000D02*
X11810200Y-14528000D01*
X11810200Y-14428000D02*
X11710200Y-14528000D01*
X11810200Y-14478000D02*
G75*
G03*
X11810200Y-14478000I-50000J0D01*
G01*
X11964200Y-13920000D02*
X12064200Y-14020000D01*
X12064200Y-13920000D02*
X11964200Y-14020000D01*
X12064200Y-13970000D02*
G75*
G03*
X12064200Y-13970000I-50000J0D01*
G01*
X11964200Y-14428000D02*
X12064200Y-14528000D01*
X12064200Y-14428000D02*
X11964200Y-14528000D01*
X12064200Y-14478000D02*
G75*
G03*
X12064200Y-14478000I-50000J0D01*
G01*
X12218200Y-13920000D02*
X12318200Y-14020000D01*
X12318200Y-13920000D02*
X12218200Y-14020000D01*
X12318200Y-13970000D02*
G75*
G03*
X12318200Y-13970000I-50000J0D01*
G01*
X12218200Y-14428000D02*
X12318200Y-14528000D01*
X12318200Y-14428000D02*
X12218200Y-14528000D01*
X12318200Y-14478000D02*
G75*
G03*
X12318200Y-14478000I-50000J0D01*
G01*
X12472200Y-13920000D02*
X12572200Y-14020000D01*
X12572200Y-13920000D02*
X12472200Y-14020000D01*
X12572200Y-13970000D02*
G75*
G03*
X12572200Y-13970000I-50000J0D01*
G01*
X12472200Y-14428000D02*
X12572200Y-14528000D01*
X12572200Y-14428000D02*
X12472200Y-14528000D01*
X12572200Y-14478000D02*
G75*
G03*
X12572200Y-14478000I-50000J0D01*
G01*
X12726200Y-13920000D02*
X12826200Y-14020000D01*
X12826200Y-13920000D02*
X12726200Y-14020000D01*
X12826200Y-13970000D02*
G75*
G03*
X12826200Y-13970000I-50000J0D01*
G01*
X12726200Y-14428000D02*
X12826200Y-14528000D01*
X12826200Y-14428000D02*
X12726200Y-14528000D01*
X12826200Y-14478000D02*
G75*
G03*
X12826200Y-14478000I-50000J0D01*
G01*
X12980200Y-13920000D02*
X13080200Y-14020000D01*
X13080200Y-13920000D02*
X12980200Y-14020000D01*
X13080200Y-13970000D02*
G75*
G03*
X13080200Y-13970000I-50000J0D01*
G01*
X12980200Y-14428000D02*
X13080200Y-14528000D01*
X13080200Y-14428000D02*
X12980200Y-14528000D01*
X13080200Y-14478000D02*
G75*
G03*
X13080200Y-14478000I-50000J0D01*
G01*
X13234200Y-13920000D02*
X13334200Y-14020000D01*
X13334200Y-13920000D02*
X13234200Y-14020000D01*
X13334200Y-13970000D02*
G75*
G03*
X13334200Y-13970000I-50000J0D01*
G01*
X13234200Y-14428000D02*
X13334200Y-14528000D01*
X13334200Y-14428000D02*
X13234200Y-14528000D01*
X13334200Y-14478000D02*
G75*
G03*
X13334200Y-14478000I-50000J0D01*
G01*
X13488200Y-13920000D02*
X13588200Y-14020000D01*
X13588200Y-13920000D02*
X13488200Y-14020000D01*
X13588200Y-13970000D02*
G75*
G03*
X13588200Y-13970000I-50000J0D01*
G01*
X13488200Y-14428000D02*
X13588200Y-14528000D01*
X13588200Y-14428000D02*
X13488200Y-14528000D01*
X13588200Y-14478000D02*
G75*
G03*
X13588200Y-14478000I-50000J0D01*
G01*
X13742200Y-13920000D02*
X13842200Y-14020000D01*
X13842200Y-13920000D02*
X13742200Y-14020000D01*
X13842200Y-13970000D02*
G75*
G03*
X13842200Y-13970000I-50000J0D01*
G01*
X13742200Y-14428000D02*
X13842200Y-14528000D01*
X13842200Y-14428000D02*
X13742200Y-14528000D01*
X13842200Y-14478000D02*
G75*
G03*
X13842200Y-14478000I-50000J0D01*
G01*
X13996200Y-13920000D02*
X14096200Y-14020000D01*
X14096200Y-13920000D02*
X13996200Y-14020000D01*
X14096200Y-13970000D02*
G75*
G03*
X14096200Y-13970000I-50000J0D01*
G01*
X13996200Y-14428000D02*
X14096200Y-14528000D01*
X14096200Y-14428000D02*
X13996200Y-14528000D01*
X14096200Y-14478000D02*
G75*
G03*
X14096200Y-14478000I-50000J0D01*
G01*
X14250200Y-13920000D02*
X14350200Y-14020000D01*
X14350200Y-13920000D02*
X14250200Y-14020000D01*
X14350200Y-13970000D02*
G75*
G03*
X14350200Y-13970000I-50000J0D01*
G01*
X14250200Y-14428000D02*
X14350200Y-14528000D01*
X14350200Y-14428000D02*
X14250200Y-14528000D01*
X14350200Y-14478000D02*
G75*
G03*
X14350200Y-14478000I-50000J0D01*
G01*
X14504200Y-13920000D02*
X14604200Y-14020000D01*
X14604200Y-13920000D02*
X14504200Y-14020000D01*
X14604200Y-13970000D02*
G75*
G03*
X14604200Y-13970000I-50000J0D01*
G01*
X14504200Y-14428000D02*
X14604200Y-14528000D01*
X14604200Y-14428000D02*
X14504200Y-14528000D01*
X14604200Y-14478000D02*
G75*
G03*
X14604200Y-14478000I-50000J0D01*
G01*
X14758200Y-13920000D02*
X14858200Y-14020000D01*
X14858200Y-13920000D02*
X14758200Y-14020000D01*
X14858200Y-13970000D02*
G75*
G03*
X14858200Y-13970000I-50000J0D01*
G01*
X14758200Y-14428000D02*
X14858200Y-14528000D01*
X14858200Y-14428000D02*
X14758200Y-14528000D01*
X14858200Y-14478000D02*
G75*
G03*
X14858200Y-14478000I-50000J0D01*
G01*
X15012200Y-13920000D02*
X15112200Y-14020000D01*
X15112200Y-13920000D02*
X15012200Y-14020000D01*
X15112200Y-13970000D02*
G75*
G03*
X15112200Y-13970000I-50000J0D01*
G01*
X15012200Y-14428000D02*
X15112200Y-14528000D01*
X15112200Y-14428000D02*
X15012200Y-14528000D01*
X15112200Y-14478000D02*
G75*
G03*
X15112200Y-14478000I-50000J0D01*
G01*
X15266200Y-13920000D02*
X15366200Y-14020000D01*
X15366200Y-13920000D02*
X15266200Y-14020000D01*
X15366200Y-13970000D02*
G75*
G03*
X15366200Y-13970000I-50000J0D01*
G01*
X15266200Y-14428000D02*
X15366200Y-14528000D01*
X15366200Y-14428000D02*
X15266200Y-14528000D01*
X15366200Y-14478000D02*
G75*
G03*
X15366200Y-14478000I-50000J0D01*
G01*
X15520200Y-13920000D02*
X15620200Y-14020000D01*
X15620200Y-13920000D02*
X15520200Y-14020000D01*
X15620200Y-13970000D02*
G75*
G03*
X15620200Y-13970000I-50000J0D01*
G01*
X15520200Y-14428000D02*
X15620200Y-14528000D01*
X15620200Y-14428000D02*
X15520200Y-14528000D01*
X15620200Y-14478000D02*
G75*
G03*
X15620200Y-14478000I-50000J0D01*
G01*
X15774200Y-13920000D02*
X15874200Y-14020000D01*
X15874200Y-13920000D02*
X15774200Y-14020000D01*
X15874200Y-13970000D02*
G75*
G03*
X15874200Y-13970000I-50000J0D01*
G01*
X15774200Y-14428000D02*
X15874200Y-14528000D01*
X15874200Y-14428000D02*
X15774200Y-14528000D01*
X15874200Y-14478000D02*
G75*
G03*
X15874200Y-14478000I-50000J0D01*
G01*
X16028200Y-13920000D02*
X16128200Y-14020000D01*
X16128200Y-13920000D02*
X16028200Y-14020000D01*
X16128200Y-13970000D02*
G75*
G03*
X16128200Y-13970000I-50000J0D01*
G01*
X16028200Y-14428000D02*
X16128200Y-14528000D01*
X16128200Y-14428000D02*
X16028200Y-14528000D01*
X16128200Y-14478000D02*
G75*
G03*
X16128200Y-14478000I-50000J0D01*
G01*
X16282200Y-13920000D02*
X16382200Y-14020000D01*
X16382200Y-13920000D02*
X16282200Y-14020000D01*
X16382200Y-13970000D02*
G75*
G03*
X16382200Y-13970000I-50000J0D01*
G01*
X16282200Y-14428000D02*
X16382200Y-14528000D01*
X16382200Y-14428000D02*
X16282200Y-14528000D01*
X16382200Y-14478000D02*
G75*
G03*
X16382200Y-14478000I-50000J0D01*
G01*
X16536200Y-13920000D02*
X16636200Y-14020000D01*
X16636200Y-13920000D02*
X16536200Y-14020000D01*
X16636200Y-13970000D02*
G75*
G03*
X16636200Y-13970000I-50000J0D01*
G01*
X16536200Y-14428000D02*
X16636200Y-14528000D01*
X16636200Y-14428000D02*
X16536200Y-14528000D01*
X16636200Y-14478000D02*
G75*
G03*
X16636200Y-14478000I-50000J0D01*
G01*
X16790200Y-13920000D02*
X16890200Y-14020000D01*
X16890200Y-13920000D02*
X16790200Y-14020000D01*
X16890200Y-13970000D02*
G75*
G03*
X16890200Y-13970000I-50000J0D01*
G01*
X16790200Y-14428000D02*
X16890200Y-14528000D01*
X16890200Y-14428000D02*
X16790200Y-14528000D01*
X16890200Y-14478000D02*
G75*
G03*
X16890200Y-14478000I-50000J0D01*
G01*
X17044200Y-13920000D02*
X17144200Y-14020000D01*
X17144200Y-13920000D02*
X17044200Y-14020000D01*
X17144200Y-13970000D02*
G75*
G03*
X17144200Y-13970000I-50000J0D01*
G01*
X17044200Y-14428000D02*
X17144200Y-14528000D01*
X17144200Y-14428000D02*
X17044200Y-14528000D01*
X17144200Y-14478000D02*
G75*
G03*
X17144200Y-14478000I-50000J0D01*
G01*
X17298200Y-13920000D02*
X17398200Y-14020000D01*
X17398200Y-13920000D02*
X17298200Y-14020000D01*
X17398200Y-13970000D02*
G75*
G03*
X17398200Y-13970000I-50000J0D01*
G01*
X17298200Y-14428000D02*
X17398200Y-14528000D01*
X17398200Y-14428000D02*
X17298200Y-14528000D01*
X17398200Y-14478000D02*
G75*
G03*
X17398200Y-14478000I-50000J0D01*
G01*
X17552200Y-13920000D02*
X17652200Y-14020000D01*
X17652200Y-13920000D02*
X17552200Y-14020000D01*
X17652200Y-13970000D02*
G75*
G03*
X17652200Y-13970000I-50000J0D01*
G01*
X17552200Y-14428000D02*
X17652200Y-14528000D01*
X17652200Y-14428000D02*
X17552200Y-14528000D01*
X17652200Y-14478000D02*
G75*
G03*
X17652200Y-14478000I-50000J0D01*
G01*
X17806200Y-13920000D02*
X17906200Y-14020000D01*
X17906200Y-13920000D02*
X17806200Y-14020000D01*
X17906200Y-13970000D02*
G75*
G03*
X17906200Y-13970000I-50000J0D01*
G01*
X17806200Y-14428000D02*
X17906200Y-14528000D01*
X17906200Y-14428000D02*
X17806200Y-14528000D01*
X17906200Y-14478000D02*
G75*
G03*
X17906200Y-14478000I-50000J0D01*
G01*
X18060200Y-13920000D02*
X18160200Y-14020000D01*
X18160200Y-13920000D02*
X18060200Y-14020000D01*
X18160200Y-13970000D02*
G75*
G03*
X18160200Y-13970000I-50000J0D01*
G01*
X18060200Y-14428000D02*
X18160200Y-14528000D01*
X18160200Y-14428000D02*
X18060200Y-14528000D01*
X18160200Y-14478000D02*
G75*
G03*
X18160200Y-14478000I-50000J0D01*
G01*
X18314200Y-13920000D02*
X18414200Y-14020000D01*
X18414200Y-13920000D02*
X18314200Y-14020000D01*
X18414200Y-13970000D02*
G75*
G03*
X18414200Y-13970000I-50000J0D01*
G01*
X18314200Y-14428000D02*
X18414200Y-14528000D01*
X18414200Y-14428000D02*
X18314200Y-14528000D01*
X18414200Y-14478000D02*
G75*
G03*
X18414200Y-14478000I-50000J0D01*
G01*
X18568200Y-13920000D02*
X18668200Y-14020000D01*
X18668200Y-13920000D02*
X18568200Y-14020000D01*
X18668200Y-13970000D02*
G75*
G03*
X18668200Y-13970000I-50000J0D01*
G01*
X18568200Y-14428000D02*
X18668200Y-14528000D01*
X18668200Y-14428000D02*
X18568200Y-14528000D01*
X18668200Y-14478000D02*
G75*
G03*
X18668200Y-14478000I-50000J0D01*
G01*
X18619000Y-12091200D02*
X18719000Y-12191200D01*
X18719000Y-12091200D02*
X18619000Y-12191200D01*
X18719000Y-12141200D02*
G75*
G03*
X18719000Y-12141200I-50000J0D01*
G01*
X18619000Y-12345200D02*
X18719000Y-12445200D01*
X18719000Y-12345200D02*
X18619000Y-12445200D01*
X18719000Y-12395200D02*
G75*
G03*
X18719000Y-12395200I-50000J0D01*
G01*
X18619000Y-12599200D02*
X18719000Y-12699200D01*
X18719000Y-12599200D02*
X18619000Y-12699200D01*
X18719000Y-12649200D02*
G75*
G03*
X18719000Y-12649200I-50000J0D01*
G01*
X18619000Y-12853200D02*
X18719000Y-12953200D01*
X18719000Y-12853200D02*
X18619000Y-12953200D01*
X18719000Y-12903200D02*
G75*
G03*
X18719000Y-12903200I-50000J0D01*
G01*
X18619000Y-13107200D02*
X18719000Y-13207200D01*
X18719000Y-13107200D02*
X18619000Y-13207200D01*
X18719000Y-13157200D02*
G75*
G03*
X18719000Y-13157200I-50000J0D01*
G01*
X18619000Y-13361200D02*
X18719000Y-13461200D01*
X18719000Y-13361200D02*
X18619000Y-13461200D01*
X18719000Y-13411200D02*
G75*
G03*
X18719000Y-13411200I-50000J0D01*
G01*
X18822200Y-13920000D02*
X18922200Y-14020000D01*
X18922200Y-13920000D02*
X18822200Y-14020000D01*
X18922200Y-13970000D02*
G75*
G03*
X18922200Y-13970000I-50000J0D01*
G01*
X18822200Y-14428000D02*
X18922200Y-14528000D01*
X18922200Y-14428000D02*
X18822200Y-14528000D01*
X18922200Y-14478000D02*
G75*
G03*
X18922200Y-14478000I-50000J0D01*
G01*
X10770800Y-12167800D02*
X10920800Y-12317800D01*
X10920800Y-12167800D02*
X10770800Y-12317800D01*
X10845800Y-12167800D02*
X10845800Y-12317800D01*
X10770800Y-12242800D02*
X10920800Y-12242800D01*
X11260800Y-12167800D02*
X11410800Y-12317800D01*
X11410800Y-12167800D02*
X11260800Y-12317800D01*
X11335800Y-12167800D02*
X11335800Y-12317800D01*
X11260800Y-12242800D02*
X11410800Y-12242800D01*
X16739800Y-5581800D02*
X16889800Y-5731800D01*
X16889800Y-5581800D02*
X16739800Y-5731800D01*
X16814800Y-5581800D02*
X16814800Y-5731800D01*
X16739800Y-5656800D02*
X16889800Y-5656800D01*
X16739800Y-6071800D02*
X16889800Y-6221800D01*
X16889800Y-6071800D02*
X16739800Y-6221800D01*
X16814800Y-6071800D02*
X16814800Y-6221800D01*
X16739800Y-6146800D02*
X16889800Y-6146800D01*
X19335500Y-10108500D02*
X19564500Y-10337500D01*
X19564500Y-10108500D02*
X19335500Y-10337500D01*
X19530965Y-10303965D02*
X19530965Y-10142036D01*
X19369036Y-10142036D01*
X19369036Y-10303965D01*
X19530965Y-10303965D01*
X19335500Y-11460500D02*
X19564500Y-11689500D01*
X19564500Y-11460500D02*
X19335500Y-11689500D01*
X19530965Y-11655964D02*
X19530965Y-11494035D01*
X19369036Y-11494035D01*
X19369036Y-11655964D01*
X19530965Y-11655964D01*
X19416500Y-10784500D02*
X19645500Y-11013500D01*
X19645500Y-10784500D02*
X19416500Y-11013500D01*
X19611965Y-10979965D02*
X19611965Y-10818036D01*
X19450036Y-10818036D01*
X19450036Y-10979965D01*
X19611965Y-10979965D01*
X19331500Y-6779500D02*
X19568500Y-7016500D01*
X19568500Y-6779500D02*
X19331500Y-7016500D01*
X19450000Y-7016500D02*
X19568500Y-6898000D01*
X19450000Y-6779500D01*
X19331500Y-6898000D01*
X19450000Y-7016500D01*
X19331500Y-8131500D02*
X19568500Y-8368500D01*
X19568500Y-8131500D02*
X19331500Y-8368500D01*
X19450000Y-8368500D02*
X19568500Y-8250000D01*
X19450000Y-8131500D01*
X19331500Y-8250000D01*
X19450000Y-8368500D01*
X19412500Y-7455500D02*
X19649500Y-7692500D01*
X19649500Y-7455500D02*
X19412500Y-7692500D01*
X19531000Y-7692500D02*
X19649500Y-7574000D01*
X19531000Y-7455500D01*
X19412500Y-7574000D01*
X19531000Y-7692500D01*
X19150000Y-9104000D02*
X19150000Y-9346000D01*
X19029000Y-9225000D02*
X19271000Y-9225000D01*
X19271000Y-9225000D02*
G75*
G03*
X19271000Y-9225000I-121000J0D01*
G01*
X19688743Y-9313743D02*
X19688743Y-9136257D01*
X19511257Y-9136257D01*
X19511257Y-9313743D01*
X19688743Y-9313743D01*
X19725500Y-9225000D02*
G75*
G03*
X19725500Y-9225000I-125500J0D01*
G01*
D12*
X10283928Y-15468214D02*
X10283928Y-15168214D01*
X10355357Y-15168214D01*
X10398214Y-15182500D01*
X10426786Y-15211071D01*
X10441071Y-15239643D01*
X10455357Y-15296786D01*
X10455357Y-15339643D01*
X10441071Y-15396786D01*
X10426786Y-15425357D01*
X10398214Y-15453929D01*
X10355357Y-15468214D01*
X10283928Y-15468214D01*
X10583928Y-15468214D02*
X10583928Y-15268214D01*
X10583928Y-15325357D02*
X10598214Y-15296786D01*
X10612500Y-15282500D01*
X10641071Y-15268214D01*
X10669643Y-15268214D01*
X10769643Y-15468214D02*
X10769643Y-15268214D01*
X10769643Y-15168214D02*
X10755357Y-15182500D01*
X10769643Y-15196786D01*
X10783928Y-15182500D01*
X10769643Y-15168214D01*
X10769643Y-15196786D01*
X10955357Y-15468214D02*
X10926786Y-15453929D01*
X10912500Y-15425357D01*
X10912500Y-15168214D01*
X11112500Y-15468214D02*
X11083928Y-15453929D01*
X11069643Y-15425357D01*
X11069643Y-15168214D01*
X11455357Y-15468214D02*
X11455357Y-15168214D01*
X11555357Y-15382500D01*
X11655357Y-15168214D01*
X11655357Y-15468214D01*
X11926786Y-15468214D02*
X11926786Y-15311071D01*
X11912500Y-15282500D01*
X11883928Y-15268214D01*
X11826786Y-15268214D01*
X11798214Y-15282500D01*
X11926786Y-15453929D02*
X11898214Y-15468214D01*
X11826786Y-15468214D01*
X11798214Y-15453929D01*
X11783928Y-15425357D01*
X11783928Y-15396786D01*
X11798214Y-15368214D01*
X11826786Y-15353929D01*
X11898214Y-15353929D01*
X11926786Y-15339643D01*
X12069643Y-15268214D02*
X12069643Y-15568214D01*
X12069643Y-15282500D02*
X12098214Y-15268214D01*
X12155357Y-15268214D01*
X12183928Y-15282500D01*
X12198214Y-15296786D01*
X12212500Y-15325357D01*
X12212500Y-15411071D01*
X12198214Y-15439643D01*
X12183928Y-15453929D01*
X12155357Y-15468214D01*
X12098214Y-15468214D01*
X12069643Y-15453929D01*
X12341071Y-15439643D02*
X12355357Y-15453929D01*
X12341071Y-15468214D01*
X12326786Y-15453929D01*
X12341071Y-15439643D01*
X12341071Y-15468214D01*
X12341071Y-15282500D02*
X12355357Y-15296786D01*
X12341071Y-15311071D01*
X12326786Y-15296786D01*
X12341071Y-15282500D01*
X12341071Y-15311071D01*
X9957500Y-15942500D02*
X9997500Y-15982500D01*
X9997500Y-15942500D02*
X9957500Y-15982500D01*
X10341071Y-15798214D02*
X10369643Y-15798214D01*
X10398214Y-15812500D01*
X10412500Y-15826786D01*
X10426786Y-15855357D01*
X10441071Y-15912500D01*
X10441071Y-15983929D01*
X10426786Y-16041071D01*
X10412500Y-16069643D01*
X10398214Y-16083929D01*
X10369643Y-16098214D01*
X10341071Y-16098214D01*
X10312500Y-16083929D01*
X10298214Y-16069643D01*
X10283928Y-16041071D01*
X10269643Y-15983929D01*
X10269643Y-15912500D01*
X10283928Y-15855357D01*
X10298214Y-15826786D01*
X10312500Y-15812500D01*
X10341071Y-15798214D01*
X10569643Y-16069643D02*
X10583928Y-16083929D01*
X10569643Y-16098214D01*
X10555357Y-16083929D01*
X10569643Y-16069643D01*
X10569643Y-16098214D01*
X10841071Y-15898214D02*
X10841071Y-16098214D01*
X10769643Y-15783929D02*
X10698214Y-15998214D01*
X10883928Y-15998214D01*
X11055357Y-15798214D02*
X11083928Y-15798214D01*
X11112500Y-15812500D01*
X11126786Y-15826786D01*
X11141071Y-15855357D01*
X11155357Y-15912500D01*
X11155357Y-15983929D01*
X11141071Y-16041071D01*
X11126786Y-16069643D01*
X11112500Y-16083929D01*
X11083928Y-16098214D01*
X11055357Y-16098214D01*
X11026786Y-16083929D01*
X11012500Y-16069643D01*
X10998214Y-16041071D01*
X10983928Y-15983929D01*
X10983928Y-15912500D01*
X10998214Y-15855357D01*
X11012500Y-15826786D01*
X11026786Y-15812500D01*
X11055357Y-15798214D01*
X11341071Y-15798214D02*
X11369643Y-15798214D01*
X11398214Y-15812500D01*
X11412500Y-15826786D01*
X11426786Y-15855357D01*
X11441071Y-15912500D01*
X11441071Y-15983929D01*
X11426786Y-16041071D01*
X11412500Y-16069643D01*
X11398214Y-16083929D01*
X11369643Y-16098214D01*
X11341071Y-16098214D01*
X11312500Y-16083929D01*
X11298214Y-16069643D01*
X11283928Y-16041071D01*
X11269643Y-15983929D01*
X11269643Y-15912500D01*
X11283928Y-15855357D01*
X11298214Y-15826786D01*
X11312500Y-15812500D01*
X11341071Y-15798214D01*
X11569643Y-16098214D02*
X11569643Y-15898214D01*
X11569643Y-15926786D02*
X11583928Y-15912500D01*
X11612500Y-15898214D01*
X11655357Y-15898214D01*
X11683928Y-15912500D01*
X11698214Y-15941071D01*
X11698214Y-16098214D01*
X11698214Y-15941071D02*
X11712500Y-15912500D01*
X11741071Y-15898214D01*
X11783928Y-15898214D01*
X11812500Y-15912500D01*
X11826786Y-15941071D01*
X11826786Y-16098214D01*
X11969643Y-16098214D02*
X11969643Y-15898214D01*
X11969643Y-15926786D02*
X11983928Y-15912500D01*
X12012500Y-15898214D01*
X12055357Y-15898214D01*
X12083928Y-15912500D01*
X12098214Y-15941071D01*
X12098214Y-16098214D01*
X12098214Y-15941071D02*
X12112500Y-15912500D01*
X12141071Y-15898214D01*
X12183928Y-15898214D01*
X12212500Y-15912500D01*
X12226786Y-15941071D01*
X12226786Y-16098214D01*
X12812500Y-15783929D02*
X12555357Y-16169643D01*
X13198214Y-15798214D02*
X13226786Y-15798214D01*
X13255357Y-15812500D01*
X13269643Y-15826786D01*
X13283928Y-15855357D01*
X13298214Y-15912500D01*
X13298214Y-15983929D01*
X13283928Y-16041071D01*
X13269643Y-16069643D01*
X13255357Y-16083929D01*
X13226786Y-16098214D01*
X13198214Y-16098214D01*
X13169643Y-16083929D01*
X13155357Y-16069643D01*
X13141071Y-16041071D01*
X13126786Y-15983929D01*
X13126786Y-15912500D01*
X13141071Y-15855357D01*
X13155357Y-15826786D01*
X13169643Y-15812500D01*
X13198214Y-15798214D01*
X13426786Y-16069643D02*
X13441071Y-16083929D01*
X13426786Y-16098214D01*
X13412500Y-16083929D01*
X13426786Y-16069643D01*
X13426786Y-16098214D01*
X13626786Y-15798214D02*
X13655357Y-15798214D01*
X13683928Y-15812500D01*
X13698214Y-15826786D01*
X13712500Y-15855357D01*
X13726786Y-15912500D01*
X13726786Y-15983929D01*
X13712500Y-16041071D01*
X13698214Y-16069643D01*
X13683928Y-16083929D01*
X13655357Y-16098214D01*
X13626786Y-16098214D01*
X13598214Y-16083929D01*
X13583928Y-16069643D01*
X13569643Y-16041071D01*
X13555357Y-15983929D01*
X13555357Y-15912500D01*
X13569643Y-15855357D01*
X13583928Y-15826786D01*
X13598214Y-15812500D01*
X13626786Y-15798214D01*
X14012500Y-16098214D02*
X13841071Y-16098214D01*
X13926786Y-16098214D02*
X13926786Y-15798214D01*
X13898214Y-15841071D01*
X13869643Y-15869643D01*
X13841071Y-15883929D01*
X14283928Y-15798214D02*
X14141071Y-15798214D01*
X14126786Y-15941071D01*
X14141071Y-15926786D01*
X14169643Y-15912500D01*
X14241071Y-15912500D01*
X14269643Y-15926786D01*
X14283928Y-15941071D01*
X14298214Y-15969643D01*
X14298214Y-16041071D01*
X14283928Y-16069643D01*
X14269643Y-16083929D01*
X14241071Y-16098214D01*
X14169643Y-16098214D01*
X14141071Y-16083929D01*
X14126786Y-16069643D01*
X14398214Y-15798214D02*
X14598214Y-15798214D01*
X14469643Y-16098214D01*
X14698214Y-15798214D02*
X14698214Y-15855357D01*
X14812500Y-15798214D02*
X14812500Y-15855357D01*
X15255357Y-16212500D02*
X15241071Y-16198214D01*
X15212500Y-16155357D01*
X15198214Y-16126786D01*
X15183928Y-16083929D01*
X15169643Y-16012500D01*
X15169643Y-15955357D01*
X15183928Y-15883929D01*
X15198214Y-15841071D01*
X15212500Y-15812500D01*
X15241071Y-15769643D01*
X15255357Y-15755357D01*
X15526786Y-16098214D02*
X15355357Y-16098214D01*
X15441071Y-16098214D02*
X15441071Y-15798214D01*
X15412500Y-15841071D01*
X15383928Y-15869643D01*
X15355357Y-15883929D01*
X15698214Y-15926786D02*
X15669643Y-15912500D01*
X15655357Y-15898214D01*
X15641071Y-15869643D01*
X15641071Y-15855357D01*
X15655357Y-15826786D01*
X15669643Y-15812500D01*
X15698214Y-15798214D01*
X15755357Y-15798214D01*
X15783928Y-15812500D01*
X15798214Y-15826786D01*
X15812500Y-15855357D01*
X15812500Y-15869643D01*
X15798214Y-15898214D01*
X15783928Y-15912500D01*
X15755357Y-15926786D01*
X15698214Y-15926786D01*
X15669643Y-15941071D01*
X15655357Y-15955357D01*
X15641071Y-15983929D01*
X15641071Y-16041071D01*
X15655357Y-16069643D01*
X15669643Y-16083929D01*
X15698214Y-16098214D01*
X15755357Y-16098214D01*
X15783928Y-16083929D01*
X15798214Y-16069643D01*
X15812500Y-16041071D01*
X15812500Y-15983929D01*
X15798214Y-15955357D01*
X15783928Y-15941071D01*
X15755357Y-15926786D01*
X16098214Y-16098214D02*
X15926786Y-16098214D01*
X16012500Y-16098214D02*
X16012500Y-15798214D01*
X15983928Y-15841071D01*
X15955357Y-15869643D01*
X15926786Y-15883929D01*
X16455357Y-16098214D02*
X16455357Y-15798214D01*
X16583928Y-16098214D02*
X16583928Y-15941071D01*
X16569643Y-15912500D01*
X16541071Y-15898214D01*
X16498214Y-15898214D01*
X16469643Y-15912500D01*
X16455357Y-15926786D01*
X16769643Y-16098214D02*
X16741071Y-16083929D01*
X16726786Y-16069643D01*
X16712500Y-16041071D01*
X16712500Y-15955357D01*
X16726786Y-15926786D01*
X16741071Y-15912500D01*
X16769643Y-15898214D01*
X16812500Y-15898214D01*
X16841071Y-15912500D01*
X16855357Y-15926786D01*
X16869643Y-15955357D01*
X16869643Y-16041071D01*
X16855357Y-16069643D01*
X16841071Y-16083929D01*
X16812500Y-16098214D01*
X16769643Y-16098214D01*
X17041071Y-16098214D02*
X17012500Y-16083929D01*
X16998214Y-16055357D01*
X16998214Y-15798214D01*
X17269643Y-16083929D02*
X17241071Y-16098214D01*
X17183928Y-16098214D01*
X17155357Y-16083929D01*
X17141071Y-16055357D01*
X17141071Y-15941071D01*
X17155357Y-15912500D01*
X17183928Y-15898214D01*
X17241071Y-15898214D01*
X17269643Y-15912500D01*
X17283928Y-15941071D01*
X17283928Y-15969643D01*
X17141071Y-15998214D01*
X17398214Y-16083929D02*
X17426786Y-16098214D01*
X17483928Y-16098214D01*
X17512500Y-16083929D01*
X17526786Y-16055357D01*
X17526786Y-16041071D01*
X17512500Y-16012500D01*
X17483928Y-15998214D01*
X17441071Y-15998214D01*
X17412500Y-15983929D01*
X17398214Y-15955357D01*
X17398214Y-15941071D01*
X17412500Y-15912500D01*
X17441071Y-15898214D01*
X17483928Y-15898214D01*
X17512500Y-15912500D01*
X17626786Y-16212500D02*
X17641071Y-16198214D01*
X17669643Y-16155357D01*
X17683928Y-16126786D01*
X17698214Y-16083929D01*
X17712500Y-16012500D01*
X17712500Y-15955357D01*
X17698214Y-15883929D01*
X17683928Y-15841071D01*
X17669643Y-15812500D01*
X17641071Y-15769643D01*
X17626786Y-15755357D01*
X9997500Y-16358500D02*
G75*
G03*
X9997500Y-16358500I-35000J0D01*
G01*
X10341071Y-16194214D02*
X10369643Y-16194214D01*
X10398214Y-16208500D01*
X10412500Y-16222786D01*
X10426786Y-16251357D01*
X10441071Y-16308500D01*
X10441071Y-16379929D01*
X10426786Y-16437071D01*
X10412500Y-16465643D01*
X10398214Y-16479929D01*
X10369643Y-16494214D01*
X10341071Y-16494214D01*
X10312500Y-16479929D01*
X10298214Y-16465643D01*
X10283928Y-16437071D01*
X10269643Y-16379929D01*
X10269643Y-16308500D01*
X10283928Y-16251357D01*
X10298214Y-16222786D01*
X10312500Y-16208500D01*
X10341071Y-16194214D01*
X10569643Y-16465643D02*
X10583928Y-16479929D01*
X10569643Y-16494214D01*
X10555357Y-16479929D01*
X10569643Y-16465643D01*
X10569643Y-16494214D01*
X10683928Y-16194214D02*
X10883928Y-16194214D01*
X10755357Y-16494214D01*
X11055357Y-16194214D02*
X11083928Y-16194214D01*
X11112500Y-16208500D01*
X11126786Y-16222786D01*
X11141071Y-16251357D01*
X11155357Y-16308500D01*
X11155357Y-16379929D01*
X11141071Y-16437071D01*
X11126786Y-16465643D01*
X11112500Y-16479929D01*
X11083928Y-16494214D01*
X11055357Y-16494214D01*
X11026786Y-16479929D01*
X11012500Y-16465643D01*
X10998214Y-16437071D01*
X10983928Y-16379929D01*
X10983928Y-16308500D01*
X10998214Y-16251357D01*
X11012500Y-16222786D01*
X11026786Y-16208500D01*
X11055357Y-16194214D01*
X11341071Y-16194214D02*
X11369643Y-16194214D01*
X11398214Y-16208500D01*
X11412500Y-16222786D01*
X11426786Y-16251357D01*
X11441071Y-16308500D01*
X11441071Y-16379929D01*
X11426786Y-16437071D01*
X11412500Y-16465643D01*
X11398214Y-16479929D01*
X11369643Y-16494214D01*
X11341071Y-16494214D01*
X11312500Y-16479929D01*
X11298214Y-16465643D01*
X11283928Y-16437071D01*
X11269643Y-16379929D01*
X11269643Y-16308500D01*
X11283928Y-16251357D01*
X11298214Y-16222786D01*
X11312500Y-16208500D01*
X11341071Y-16194214D01*
X11569643Y-16494214D02*
X11569643Y-16294214D01*
X11569643Y-16322786D02*
X11583928Y-16308500D01*
X11612500Y-16294214D01*
X11655357Y-16294214D01*
X11683928Y-16308500D01*
X11698214Y-16337071D01*
X11698214Y-16494214D01*
X11698214Y-16337071D02*
X11712500Y-16308500D01*
X11741071Y-16294214D01*
X11783928Y-16294214D01*
X11812500Y-16308500D01*
X11826786Y-16337071D01*
X11826786Y-16494214D01*
X11969643Y-16494214D02*
X11969643Y-16294214D01*
X11969643Y-16322786D02*
X11983928Y-16308500D01*
X12012500Y-16294214D01*
X12055357Y-16294214D01*
X12083928Y-16308500D01*
X12098214Y-16337071D01*
X12098214Y-16494214D01*
X12098214Y-16337071D02*
X12112500Y-16308500D01*
X12141071Y-16294214D01*
X12183928Y-16294214D01*
X12212500Y-16308500D01*
X12226786Y-16337071D01*
X12226786Y-16494214D01*
X12812500Y-16179929D02*
X12555357Y-16565643D01*
X13198214Y-16194214D02*
X13226786Y-16194214D01*
X13255357Y-16208500D01*
X13269643Y-16222786D01*
X13283928Y-16251357D01*
X13298214Y-16308500D01*
X13298214Y-16379929D01*
X13283928Y-16437071D01*
X13269643Y-16465643D01*
X13255357Y-16479929D01*
X13226786Y-16494214D01*
X13198214Y-16494214D01*
X13169643Y-16479929D01*
X13155357Y-16465643D01*
X13141071Y-16437071D01*
X13126786Y-16379929D01*
X13126786Y-16308500D01*
X13141071Y-16251357D01*
X13155357Y-16222786D01*
X13169643Y-16208500D01*
X13198214Y-16194214D01*
X13426786Y-16465643D02*
X13441071Y-16479929D01*
X13426786Y-16494214D01*
X13412500Y-16479929D01*
X13426786Y-16465643D01*
X13426786Y-16494214D01*
X13626786Y-16194214D02*
X13655357Y-16194214D01*
X13683928Y-16208500D01*
X13698214Y-16222786D01*
X13712500Y-16251357D01*
X13726786Y-16308500D01*
X13726786Y-16379929D01*
X13712500Y-16437071D01*
X13698214Y-16465643D01*
X13683928Y-16479929D01*
X13655357Y-16494214D01*
X13626786Y-16494214D01*
X13598214Y-16479929D01*
X13583928Y-16465643D01*
X13569643Y-16437071D01*
X13555357Y-16379929D01*
X13555357Y-16308500D01*
X13569643Y-16251357D01*
X13583928Y-16222786D01*
X13598214Y-16208500D01*
X13626786Y-16194214D01*
X13841071Y-16222786D02*
X13855357Y-16208500D01*
X13883928Y-16194214D01*
X13955357Y-16194214D01*
X13983928Y-16208500D01*
X13998214Y-16222786D01*
X14012500Y-16251357D01*
X14012500Y-16279929D01*
X13998214Y-16322786D01*
X13826786Y-16494214D01*
X14012500Y-16494214D01*
X14112500Y-16194214D02*
X14312500Y-16194214D01*
X14183928Y-16494214D01*
X14555357Y-16194214D02*
X14498214Y-16194214D01*
X14469643Y-16208500D01*
X14455357Y-16222786D01*
X14426786Y-16265643D01*
X14412500Y-16322786D01*
X14412500Y-16437071D01*
X14426786Y-16465643D01*
X14441071Y-16479929D01*
X14469643Y-16494214D01*
X14526786Y-16494214D01*
X14555357Y-16479929D01*
X14569643Y-16465643D01*
X14583928Y-16437071D01*
X14583928Y-16365643D01*
X14569643Y-16337071D01*
X14555357Y-16322786D01*
X14526786Y-16308500D01*
X14469643Y-16308500D01*
X14441071Y-16322786D01*
X14426786Y-16337071D01*
X14412500Y-16365643D01*
X14698214Y-16194214D02*
X14698214Y-16251357D01*
X14812500Y-16194214D02*
X14812500Y-16251357D01*
X15255357Y-16608500D02*
X15241071Y-16594214D01*
X15212500Y-16551357D01*
X15198214Y-16522786D01*
X15183928Y-16479929D01*
X15169643Y-16408500D01*
X15169643Y-16351357D01*
X15183928Y-16279929D01*
X15198214Y-16237071D01*
X15212500Y-16208500D01*
X15241071Y-16165643D01*
X15255357Y-16151357D01*
X15426786Y-16194214D02*
X15455357Y-16194214D01*
X15483928Y-16208500D01*
X15498214Y-16222786D01*
X15512500Y-16251357D01*
X15526786Y-16308500D01*
X15526786Y-16379929D01*
X15512500Y-16437071D01*
X15498214Y-16465643D01*
X15483928Y-16479929D01*
X15455357Y-16494214D01*
X15426786Y-16494214D01*
X15398214Y-16479929D01*
X15383928Y-16465643D01*
X15369643Y-16437071D01*
X15355357Y-16379929D01*
X15355357Y-16308500D01*
X15369643Y-16251357D01*
X15383928Y-16222786D01*
X15398214Y-16208500D01*
X15426786Y-16194214D01*
X15883928Y-16494214D02*
X15883928Y-16194214D01*
X16012500Y-16494214D02*
X16012500Y-16337071D01*
X15998214Y-16308500D01*
X15969643Y-16294214D01*
X15926786Y-16294214D01*
X15898214Y-16308500D01*
X15883928Y-16322786D01*
X16198214Y-16494214D02*
X16169643Y-16479929D01*
X16155357Y-16465643D01*
X16141071Y-16437071D01*
X16141071Y-16351357D01*
X16155357Y-16322786D01*
X16169643Y-16308500D01*
X16198214Y-16294214D01*
X16241071Y-16294214D01*
X16269643Y-16308500D01*
X16283928Y-16322786D01*
X16298214Y-16351357D01*
X16298214Y-16437071D01*
X16283928Y-16465643D01*
X16269643Y-16479929D01*
X16241071Y-16494214D01*
X16198214Y-16494214D01*
X16469643Y-16494214D02*
X16441071Y-16479929D01*
X16426786Y-16451357D01*
X16426786Y-16194214D01*
X16698214Y-16479929D02*
X16669643Y-16494214D01*
X16612500Y-16494214D01*
X16583928Y-16479929D01*
X16569643Y-16451357D01*
X16569643Y-16337071D01*
X16583928Y-16308500D01*
X16612500Y-16294214D01*
X16669643Y-16294214D01*
X16698214Y-16308500D01*
X16712500Y-16337071D01*
X16712500Y-16365643D01*
X16569643Y-16394214D01*
X16826786Y-16479929D02*
X16855357Y-16494214D01*
X16912500Y-16494214D01*
X16941071Y-16479929D01*
X16955357Y-16451357D01*
X16955357Y-16437071D01*
X16941071Y-16408500D01*
X16912500Y-16394214D01*
X16869643Y-16394214D01*
X16841071Y-16379929D01*
X16826786Y-16351357D01*
X16826786Y-16337071D01*
X16841071Y-16308500D01*
X16869643Y-16294214D01*
X16912500Y-16294214D01*
X16941071Y-16308500D01*
X17312500Y-16379929D02*
X17541071Y-16379929D01*
X17426786Y-16494214D02*
X17426786Y-16265643D01*
X17883928Y-16194214D02*
X18069643Y-16194214D01*
X17969643Y-16308500D01*
X18012500Y-16308500D01*
X18041071Y-16322786D01*
X18055357Y-16337071D01*
X18069643Y-16365643D01*
X18069643Y-16437071D01*
X18055357Y-16465643D01*
X18041071Y-16479929D01*
X18012500Y-16494214D01*
X17926786Y-16494214D01*
X17898214Y-16479929D01*
X17883928Y-16465643D01*
X18412500Y-16479929D02*
X18441071Y-16494214D01*
X18498214Y-16494214D01*
X18526786Y-16479929D01*
X18541071Y-16451357D01*
X18541071Y-16437071D01*
X18526786Y-16408500D01*
X18498214Y-16394214D01*
X18455357Y-16394214D01*
X18426786Y-16379929D01*
X18412500Y-16351357D01*
X18412500Y-16337071D01*
X18426786Y-16308500D01*
X18455357Y-16294214D01*
X18498214Y-16294214D01*
X18526786Y-16308500D01*
X18712500Y-16494214D02*
X18683928Y-16479929D01*
X18669643Y-16451357D01*
X18669643Y-16194214D01*
X18869643Y-16494214D02*
X18841071Y-16479929D01*
X18826786Y-16465643D01*
X18812500Y-16437071D01*
X18812500Y-16351357D01*
X18826786Y-16322786D01*
X18841071Y-16308500D01*
X18869643Y-16294214D01*
X18912500Y-16294214D01*
X18941071Y-16308500D01*
X18955357Y-16322786D01*
X18969643Y-16351357D01*
X18969643Y-16437071D01*
X18955357Y-16465643D01*
X18941071Y-16479929D01*
X18912500Y-16494214D01*
X18869643Y-16494214D01*
X19055357Y-16294214D02*
X19169643Y-16294214D01*
X19098214Y-16194214D02*
X19098214Y-16451357D01*
X19112500Y-16479929D01*
X19141071Y-16494214D01*
X19169643Y-16494214D01*
X19255357Y-16479929D02*
X19283928Y-16494214D01*
X19341071Y-16494214D01*
X19369643Y-16479929D01*
X19383928Y-16451357D01*
X19383928Y-16437071D01*
X19369643Y-16408500D01*
X19341071Y-16394214D01*
X19298214Y-16394214D01*
X19269643Y-16379929D01*
X19255357Y-16351357D01*
X19255357Y-16337071D01*
X19269643Y-16308500D01*
X19298214Y-16294214D01*
X19341071Y-16294214D01*
X19369643Y-16308500D01*
X19483928Y-16608500D02*
X19498214Y-16594214D01*
X19526786Y-16551357D01*
X19541071Y-16522786D01*
X19555357Y-16479929D01*
X19569643Y-16408500D01*
X19569643Y-16351357D01*
X19555357Y-16279929D01*
X19541071Y-16237071D01*
X19526786Y-16208500D01*
X19498214Y-16165643D01*
X19483928Y-16151357D01*
X9957500Y-16714500D02*
X9957500Y-16794500D01*
X9917500Y-16754500D02*
X9997500Y-16754500D01*
X10341071Y-16590214D02*
X10369643Y-16590214D01*
X10398214Y-16604500D01*
X10412500Y-16618786D01*
X10426786Y-16647357D01*
X10441071Y-16704500D01*
X10441071Y-16775929D01*
X10426786Y-16833072D01*
X10412500Y-16861643D01*
X10398214Y-16875929D01*
X10369643Y-16890214D01*
X10341071Y-16890214D01*
X10312500Y-16875929D01*
X10298214Y-16861643D01*
X10283928Y-16833072D01*
X10269643Y-16775929D01*
X10269643Y-16704500D01*
X10283928Y-16647357D01*
X10298214Y-16618786D01*
X10312500Y-16604500D01*
X10341071Y-16590214D01*
X10569643Y-16861643D02*
X10583928Y-16875929D01*
X10569643Y-16890214D01*
X10555357Y-16875929D01*
X10569643Y-16861643D01*
X10569643Y-16890214D01*
X10755357Y-16718786D02*
X10726786Y-16704500D01*
X10712500Y-16690214D01*
X10698214Y-16661643D01*
X10698214Y-16647357D01*
X10712500Y-16618786D01*
X10726786Y-16604500D01*
X10755357Y-16590214D01*
X10812500Y-16590214D01*
X10841071Y-16604500D01*
X10855357Y-16618786D01*
X10869643Y-16647357D01*
X10869643Y-16661643D01*
X10855357Y-16690214D01*
X10841071Y-16704500D01*
X10812500Y-16718786D01*
X10755357Y-16718786D01*
X10726786Y-16733071D01*
X10712500Y-16747357D01*
X10698214Y-16775929D01*
X10698214Y-16833072D01*
X10712500Y-16861643D01*
X10726786Y-16875929D01*
X10755357Y-16890214D01*
X10812500Y-16890214D01*
X10841071Y-16875929D01*
X10855357Y-16861643D01*
X10869643Y-16833072D01*
X10869643Y-16775929D01*
X10855357Y-16747357D01*
X10841071Y-16733071D01*
X10812500Y-16718786D01*
X11055357Y-16590214D02*
X11083928Y-16590214D01*
X11112500Y-16604500D01*
X11126786Y-16618786D01*
X11141071Y-16647357D01*
X11155357Y-16704500D01*
X11155357Y-16775929D01*
X11141071Y-16833072D01*
X11126786Y-16861643D01*
X11112500Y-16875929D01*
X11083928Y-16890214D01*
X11055357Y-16890214D01*
X11026786Y-16875929D01*
X11012500Y-16861643D01*
X10998214Y-16833072D01*
X10983928Y-16775929D01*
X10983928Y-16704500D01*
X10998214Y-16647357D01*
X11012500Y-16618786D01*
X11026786Y-16604500D01*
X11055357Y-16590214D01*
X11341071Y-16590214D02*
X11369643Y-16590214D01*
X11398214Y-16604500D01*
X11412500Y-16618786D01*
X11426786Y-16647357D01*
X11441071Y-16704500D01*
X11441071Y-16775929D01*
X11426786Y-16833072D01*
X11412500Y-16861643D01*
X11398214Y-16875929D01*
X11369643Y-16890214D01*
X11341071Y-16890214D01*
X11312500Y-16875929D01*
X11298214Y-16861643D01*
X11283928Y-16833072D01*
X11269643Y-16775929D01*
X11269643Y-16704500D01*
X11283928Y-16647357D01*
X11298214Y-16618786D01*
X11312500Y-16604500D01*
X11341071Y-16590214D01*
X11569643Y-16890214D02*
X11569643Y-16690214D01*
X11569643Y-16718786D02*
X11583928Y-16704500D01*
X11612500Y-16690214D01*
X11655357Y-16690214D01*
X11683928Y-16704500D01*
X11698214Y-16733071D01*
X11698214Y-16890214D01*
X11698214Y-16733071D02*
X11712500Y-16704500D01*
X11741071Y-16690214D01*
X11783928Y-16690214D01*
X11812500Y-16704500D01*
X11826786Y-16733071D01*
X11826786Y-16890214D01*
X11969643Y-16890214D02*
X11969643Y-16690214D01*
X11969643Y-16718786D02*
X11983928Y-16704500D01*
X12012500Y-16690214D01*
X12055357Y-16690214D01*
X12083928Y-16704500D01*
X12098214Y-16733071D01*
X12098214Y-16890214D01*
X12098214Y-16733071D02*
X12112500Y-16704500D01*
X12141071Y-16690214D01*
X12183928Y-16690214D01*
X12212500Y-16704500D01*
X12226786Y-16733071D01*
X12226786Y-16890214D01*
X12812500Y-16575929D02*
X12555357Y-16961643D01*
X13198214Y-16590214D02*
X13226786Y-16590214D01*
X13255357Y-16604500D01*
X13269643Y-16618786D01*
X13283928Y-16647357D01*
X13298214Y-16704500D01*
X13298214Y-16775929D01*
X13283928Y-16833072D01*
X13269643Y-16861643D01*
X13255357Y-16875929D01*
X13226786Y-16890214D01*
X13198214Y-16890214D01*
X13169643Y-16875929D01*
X13155357Y-16861643D01*
X13141071Y-16833072D01*
X13126786Y-16775929D01*
X13126786Y-16704500D01*
X13141071Y-16647357D01*
X13155357Y-16618786D01*
X13169643Y-16604500D01*
X13198214Y-16590214D01*
X13426786Y-16861643D02*
X13441071Y-16875929D01*
X13426786Y-16890214D01*
X13412500Y-16875929D01*
X13426786Y-16861643D01*
X13426786Y-16890214D01*
X13626786Y-16590214D02*
X13655357Y-16590214D01*
X13683928Y-16604500D01*
X13698214Y-16618786D01*
X13712500Y-16647357D01*
X13726786Y-16704500D01*
X13726786Y-16775929D01*
X13712500Y-16833072D01*
X13698214Y-16861643D01*
X13683928Y-16875929D01*
X13655357Y-16890214D01*
X13626786Y-16890214D01*
X13598214Y-16875929D01*
X13583928Y-16861643D01*
X13569643Y-16833072D01*
X13555357Y-16775929D01*
X13555357Y-16704500D01*
X13569643Y-16647357D01*
X13583928Y-16618786D01*
X13598214Y-16604500D01*
X13626786Y-16590214D01*
X13826786Y-16590214D02*
X14012500Y-16590214D01*
X13912500Y-16704500D01*
X13955357Y-16704500D01*
X13983928Y-16718786D01*
X13998214Y-16733071D01*
X14012500Y-16761643D01*
X14012500Y-16833072D01*
X13998214Y-16861643D01*
X13983928Y-16875929D01*
X13955357Y-16890214D01*
X13869643Y-16890214D01*
X13841071Y-16875929D01*
X13826786Y-16861643D01*
X14298214Y-16890214D02*
X14126786Y-16890214D01*
X14212500Y-16890214D02*
X14212500Y-16590214D01*
X14183928Y-16633071D01*
X14155357Y-16661643D01*
X14126786Y-16675929D01*
X14569643Y-16590214D02*
X14426786Y-16590214D01*
X14412500Y-16733071D01*
X14426786Y-16718786D01*
X14455357Y-16704500D01*
X14526786Y-16704500D01*
X14555357Y-16718786D01*
X14569643Y-16733071D01*
X14583928Y-16761643D01*
X14583928Y-16833072D01*
X14569643Y-16861643D01*
X14555357Y-16875929D01*
X14526786Y-16890214D01*
X14455357Y-16890214D01*
X14426786Y-16875929D01*
X14412500Y-16861643D01*
X14698214Y-16590214D02*
X14698214Y-16647357D01*
X14812500Y-16590214D02*
X14812500Y-16647357D01*
X15255357Y-17004500D02*
X15241071Y-16990214D01*
X15212500Y-16947357D01*
X15198214Y-16918786D01*
X15183928Y-16875929D01*
X15169643Y-16804500D01*
X15169643Y-16747357D01*
X15183928Y-16675929D01*
X15198214Y-16633071D01*
X15212500Y-16604500D01*
X15241071Y-16561643D01*
X15255357Y-16547357D01*
X15355357Y-16618786D02*
X15369643Y-16604500D01*
X15398214Y-16590214D01*
X15469643Y-16590214D01*
X15498214Y-16604500D01*
X15512500Y-16618786D01*
X15526786Y-16647357D01*
X15526786Y-16675929D01*
X15512500Y-16718786D01*
X15341071Y-16890214D01*
X15526786Y-16890214D01*
X15712500Y-16590214D02*
X15741071Y-16590214D01*
X15769643Y-16604500D01*
X15783928Y-16618786D01*
X15798214Y-16647357D01*
X15812500Y-16704500D01*
X15812500Y-16775929D01*
X15798214Y-16833072D01*
X15783928Y-16861643D01*
X15769643Y-16875929D01*
X15741071Y-16890214D01*
X15712500Y-16890214D01*
X15683928Y-16875929D01*
X15669643Y-16861643D01*
X15655357Y-16833072D01*
X15641071Y-16775929D01*
X15641071Y-16704500D01*
X15655357Y-16647357D01*
X15669643Y-16618786D01*
X15683928Y-16604500D01*
X15712500Y-16590214D01*
X16169643Y-16890214D02*
X16169643Y-16590214D01*
X16298214Y-16890214D02*
X16298214Y-16733071D01*
X16283928Y-16704500D01*
X16255357Y-16690214D01*
X16212500Y-16690214D01*
X16183928Y-16704500D01*
X16169643Y-16718786D01*
X16483928Y-16890214D02*
X16455357Y-16875929D01*
X16441071Y-16861643D01*
X16426786Y-16833072D01*
X16426786Y-16747357D01*
X16441071Y-16718786D01*
X16455357Y-16704500D01*
X16483928Y-16690214D01*
X16526786Y-16690214D01*
X16555357Y-16704500D01*
X16569643Y-16718786D01*
X16583928Y-16747357D01*
X16583928Y-16833072D01*
X16569643Y-16861643D01*
X16555357Y-16875929D01*
X16526786Y-16890214D01*
X16483928Y-16890214D01*
X16755357Y-16890214D02*
X16726786Y-16875929D01*
X16712500Y-16847357D01*
X16712500Y-16590214D01*
X16983928Y-16875929D02*
X16955357Y-16890214D01*
X16898214Y-16890214D01*
X16869643Y-16875929D01*
X16855357Y-16847357D01*
X16855357Y-16733071D01*
X16869643Y-16704500D01*
X16898214Y-16690214D01*
X16955357Y-16690214D01*
X16983928Y-16704500D01*
X16998214Y-16733071D01*
X16998214Y-16761643D01*
X16855357Y-16790214D01*
X17112500Y-16875929D02*
X17141071Y-16890214D01*
X17198214Y-16890214D01*
X17226786Y-16875929D01*
X17241071Y-16847357D01*
X17241071Y-16833072D01*
X17226786Y-16804500D01*
X17198214Y-16790214D01*
X17155357Y-16790214D01*
X17126786Y-16775929D01*
X17112500Y-16747357D01*
X17112500Y-16733071D01*
X17126786Y-16704500D01*
X17155357Y-16690214D01*
X17198214Y-16690214D01*
X17226786Y-16704500D01*
X17341071Y-17004500D02*
X17355357Y-16990214D01*
X17383928Y-16947357D01*
X17398214Y-16918786D01*
X17412500Y-16875929D01*
X17426786Y-16804500D01*
X17426786Y-16747357D01*
X17412500Y-16675929D01*
X17398214Y-16633071D01*
X17383928Y-16604500D01*
X17355357Y-16561643D01*
X17341071Y-16547357D01*
X9984467Y-17181967D02*
X9984467Y-17119034D01*
X9921533Y-17119034D01*
X9921533Y-17181967D01*
X9984467Y-17181967D01*
X10341071Y-16986214D02*
X10369643Y-16986214D01*
X10398214Y-17000500D01*
X10412500Y-17014786D01*
X10426786Y-17043357D01*
X10441071Y-17100500D01*
X10441071Y-17171929D01*
X10426786Y-17229072D01*
X10412500Y-17257643D01*
X10398214Y-17271929D01*
X10369643Y-17286214D01*
X10341071Y-17286214D01*
X10312500Y-17271929D01*
X10298214Y-17257643D01*
X10283928Y-17229072D01*
X10269643Y-17171929D01*
X10269643Y-17100500D01*
X10283928Y-17043357D01*
X10298214Y-17014786D01*
X10312500Y-17000500D01*
X10341071Y-16986214D01*
X10569643Y-17257643D02*
X10583928Y-17271929D01*
X10569643Y-17286214D01*
X10555357Y-17271929D01*
X10569643Y-17257643D01*
X10569643Y-17286214D01*
X10755357Y-17114786D02*
X10726786Y-17100500D01*
X10712500Y-17086214D01*
X10698214Y-17057643D01*
X10698214Y-17043357D01*
X10712500Y-17014786D01*
X10726786Y-17000500D01*
X10755357Y-16986214D01*
X10812500Y-16986214D01*
X10841071Y-17000500D01*
X10855357Y-17014786D01*
X10869643Y-17043357D01*
X10869643Y-17057643D01*
X10855357Y-17086214D01*
X10841071Y-17100500D01*
X10812500Y-17114786D01*
X10755357Y-17114786D01*
X10726786Y-17129072D01*
X10712500Y-17143357D01*
X10698214Y-17171929D01*
X10698214Y-17229072D01*
X10712500Y-17257643D01*
X10726786Y-17271929D01*
X10755357Y-17286214D01*
X10812500Y-17286214D01*
X10841071Y-17271929D01*
X10855357Y-17257643D01*
X10869643Y-17229072D01*
X10869643Y-17171929D01*
X10855357Y-17143357D01*
X10841071Y-17129072D01*
X10812500Y-17114786D01*
X11012500Y-17286214D02*
X11069643Y-17286214D01*
X11098214Y-17271929D01*
X11112500Y-17257643D01*
X11141071Y-17214786D01*
X11155357Y-17157643D01*
X11155357Y-17043357D01*
X11141071Y-17014786D01*
X11126786Y-17000500D01*
X11098214Y-16986214D01*
X11041071Y-16986214D01*
X11012500Y-17000500D01*
X10998214Y-17014786D01*
X10983928Y-17043357D01*
X10983928Y-17114786D01*
X10998214Y-17143357D01*
X11012500Y-17157643D01*
X11041071Y-17171929D01*
X11098214Y-17171929D01*
X11126786Y-17157643D01*
X11141071Y-17143357D01*
X11155357Y-17114786D01*
X11341071Y-16986214D02*
X11369643Y-16986214D01*
X11398214Y-17000500D01*
X11412500Y-17014786D01*
X11426786Y-17043357D01*
X11441071Y-17100500D01*
X11441071Y-17171929D01*
X11426786Y-17229072D01*
X11412500Y-17257643D01*
X11398214Y-17271929D01*
X11369643Y-17286214D01*
X11341071Y-17286214D01*
X11312500Y-17271929D01*
X11298214Y-17257643D01*
X11283928Y-17229072D01*
X11269643Y-17171929D01*
X11269643Y-17100500D01*
X11283928Y-17043357D01*
X11298214Y-17014786D01*
X11312500Y-17000500D01*
X11341071Y-16986214D01*
X11569643Y-17286214D02*
X11569643Y-17086214D01*
X11569643Y-17114786D02*
X11583928Y-17100500D01*
X11612500Y-17086214D01*
X11655357Y-17086214D01*
X11683928Y-17100500D01*
X11698214Y-17129072D01*
X11698214Y-17286214D01*
X11698214Y-17129072D02*
X11712500Y-17100500D01*
X11741071Y-17086214D01*
X11783928Y-17086214D01*
X11812500Y-17100500D01*
X11826786Y-17129072D01*
X11826786Y-17286214D01*
X11969643Y-17286214D02*
X11969643Y-17086214D01*
X11969643Y-17114786D02*
X11983928Y-17100500D01*
X12012500Y-17086214D01*
X12055357Y-17086214D01*
X12083928Y-17100500D01*
X12098214Y-17129072D01*
X12098214Y-17286214D01*
X12098214Y-17129072D02*
X12112500Y-17100500D01*
X12141071Y-17086214D01*
X12183928Y-17086214D01*
X12212500Y-17100500D01*
X12226786Y-17129072D01*
X12226786Y-17286214D01*
X12812500Y-16971929D02*
X12555357Y-17357643D01*
X13198214Y-16986214D02*
X13226786Y-16986214D01*
X13255357Y-17000500D01*
X13269643Y-17014786D01*
X13283928Y-17043357D01*
X13298214Y-17100500D01*
X13298214Y-17171929D01*
X13283928Y-17229072D01*
X13269643Y-17257643D01*
X13255357Y-17271929D01*
X13226786Y-17286214D01*
X13198214Y-17286214D01*
X13169643Y-17271929D01*
X13155357Y-17257643D01*
X13141071Y-17229072D01*
X13126786Y-17171929D01*
X13126786Y-17100500D01*
X13141071Y-17043357D01*
X13155357Y-17014786D01*
X13169643Y-17000500D01*
X13198214Y-16986214D01*
X13426786Y-17257643D02*
X13441071Y-17271929D01*
X13426786Y-17286214D01*
X13412500Y-17271929D01*
X13426786Y-17257643D01*
X13426786Y-17286214D01*
X13626786Y-16986214D02*
X13655357Y-16986214D01*
X13683928Y-17000500D01*
X13698214Y-17014786D01*
X13712500Y-17043357D01*
X13726786Y-17100500D01*
X13726786Y-17171929D01*
X13712500Y-17229072D01*
X13698214Y-17257643D01*
X13683928Y-17271929D01*
X13655357Y-17286214D01*
X13626786Y-17286214D01*
X13598214Y-17271929D01*
X13583928Y-17257643D01*
X13569643Y-17229072D01*
X13555357Y-17171929D01*
X13555357Y-17100500D01*
X13569643Y-17043357D01*
X13583928Y-17014786D01*
X13598214Y-17000500D01*
X13626786Y-16986214D01*
X13826786Y-16986214D02*
X14012500Y-16986214D01*
X13912500Y-17100500D01*
X13955357Y-17100500D01*
X13983928Y-17114786D01*
X13998214Y-17129072D01*
X14012500Y-17157643D01*
X14012500Y-17229072D01*
X13998214Y-17257643D01*
X13983928Y-17271929D01*
X13955357Y-17286214D01*
X13869643Y-17286214D01*
X13841071Y-17271929D01*
X13826786Y-17257643D01*
X14283928Y-16986214D02*
X14141071Y-16986214D01*
X14126786Y-17129072D01*
X14141071Y-17114786D01*
X14169643Y-17100500D01*
X14241071Y-17100500D01*
X14269643Y-17114786D01*
X14283928Y-17129072D01*
X14298214Y-17157643D01*
X14298214Y-17229072D01*
X14283928Y-17257643D01*
X14269643Y-17271929D01*
X14241071Y-17286214D01*
X14169643Y-17286214D01*
X14141071Y-17271929D01*
X14126786Y-17257643D01*
X14483928Y-16986214D02*
X14512500Y-16986214D01*
X14541071Y-17000500D01*
X14555357Y-17014786D01*
X14569643Y-17043357D01*
X14583928Y-17100500D01*
X14583928Y-17171929D01*
X14569643Y-17229072D01*
X14555357Y-17257643D01*
X14541071Y-17271929D01*
X14512500Y-17286214D01*
X14483928Y-17286214D01*
X14455357Y-17271929D01*
X14441071Y-17257643D01*
X14426786Y-17229072D01*
X14412500Y-17171929D01*
X14412500Y-17100500D01*
X14426786Y-17043357D01*
X14441071Y-17014786D01*
X14455357Y-17000500D01*
X14483928Y-16986214D01*
X14698214Y-16986214D02*
X14698214Y-17043357D01*
X14812500Y-16986214D02*
X14812500Y-17043357D01*
X15255357Y-17400500D02*
X15241071Y-17386214D01*
X15212500Y-17343357D01*
X15198214Y-17314786D01*
X15183928Y-17271929D01*
X15169643Y-17200500D01*
X15169643Y-17143357D01*
X15183928Y-17071929D01*
X15198214Y-17029072D01*
X15212500Y-17000500D01*
X15241071Y-16957643D01*
X15255357Y-16943357D01*
X15498214Y-17086214D02*
X15498214Y-17286214D01*
X15426786Y-16971929D02*
X15355357Y-17186214D01*
X15541071Y-17186214D01*
X15883928Y-17286214D02*
X15883928Y-16986214D01*
X16012500Y-17286214D02*
X16012500Y-17129072D01*
X15998214Y-17100500D01*
X15969643Y-17086214D01*
X15926786Y-17086214D01*
X15898214Y-17100500D01*
X15883928Y-17114786D01*
X16198214Y-17286214D02*
X16169643Y-17271929D01*
X16155357Y-17257643D01*
X16141071Y-17229072D01*
X16141071Y-17143357D01*
X16155357Y-17114786D01*
X16169643Y-17100500D01*
X16198214Y-17086214D01*
X16241071Y-17086214D01*
X16269643Y-17100500D01*
X16283928Y-17114786D01*
X16298214Y-17143357D01*
X16298214Y-17229072D01*
X16283928Y-17257643D01*
X16269643Y-17271929D01*
X16241071Y-17286214D01*
X16198214Y-17286214D01*
X16469643Y-17286214D02*
X16441071Y-17271929D01*
X16426786Y-17243357D01*
X16426786Y-16986214D01*
X16698214Y-17271929D02*
X16669643Y-17286214D01*
X16612500Y-17286214D01*
X16583928Y-17271929D01*
X16569643Y-17243357D01*
X16569643Y-17129072D01*
X16583928Y-17100500D01*
X16612500Y-17086214D01*
X16669643Y-17086214D01*
X16698214Y-17100500D01*
X16712500Y-17129072D01*
X16712500Y-17157643D01*
X16569643Y-17186214D01*
X16826786Y-17271929D02*
X16855357Y-17286214D01*
X16912500Y-17286214D01*
X16941071Y-17271929D01*
X16955357Y-17243357D01*
X16955357Y-17229072D01*
X16941071Y-17200500D01*
X16912500Y-17186214D01*
X16869643Y-17186214D01*
X16841071Y-17171929D01*
X16826786Y-17143357D01*
X16826786Y-17129072D01*
X16841071Y-17100500D01*
X16869643Y-17086214D01*
X16912500Y-17086214D01*
X16941071Y-17100500D01*
X17055357Y-17400500D02*
X17069643Y-17386214D01*
X17098214Y-17343357D01*
X17112500Y-17314786D01*
X17126786Y-17271929D01*
X17141071Y-17200500D01*
X17141071Y-17143357D01*
X17126786Y-17071929D01*
X17112500Y-17029072D01*
X17098214Y-17000500D01*
X17069643Y-16957643D01*
X17055357Y-16943357D01*
X9949000Y-17595000D02*
X9997500Y-17546500D01*
X9949000Y-17498000D01*
X9900500Y-17546500D01*
X9949000Y-17595000D01*
X10341071Y-17382214D02*
X10369643Y-17382214D01*
X10398214Y-17396500D01*
X10412500Y-17410786D01*
X10426786Y-17439357D01*
X10441071Y-17496500D01*
X10441071Y-17567929D01*
X10426786Y-17625072D01*
X10412500Y-17653643D01*
X10398214Y-17667929D01*
X10369643Y-17682214D01*
X10341071Y-17682214D01*
X10312500Y-17667929D01*
X10298214Y-17653643D01*
X10283928Y-17625072D01*
X10269643Y-17567929D01*
X10269643Y-17496500D01*
X10283928Y-17439357D01*
X10298214Y-17410786D01*
X10312500Y-17396500D01*
X10341071Y-17382214D01*
X10569643Y-17653643D02*
X10583928Y-17667929D01*
X10569643Y-17682214D01*
X10555357Y-17667929D01*
X10569643Y-17653643D01*
X10569643Y-17682214D01*
X10726786Y-17682214D02*
X10783928Y-17682214D01*
X10812500Y-17667929D01*
X10826786Y-17653643D01*
X10855357Y-17610786D01*
X10869643Y-17553643D01*
X10869643Y-17439357D01*
X10855357Y-17410786D01*
X10841071Y-17396500D01*
X10812500Y-17382214D01*
X10755357Y-17382214D01*
X10726786Y-17396500D01*
X10712500Y-17410786D01*
X10698214Y-17439357D01*
X10698214Y-17510786D01*
X10712500Y-17539357D01*
X10726786Y-17553643D01*
X10755357Y-17567929D01*
X10812500Y-17567929D01*
X10841071Y-17553643D01*
X10855357Y-17539357D01*
X10869643Y-17510786D01*
X10969643Y-17382214D02*
X11169643Y-17382214D01*
X11041071Y-17682214D01*
X11341071Y-17382214D02*
X11369643Y-17382214D01*
X11398214Y-17396500D01*
X11412500Y-17410786D01*
X11426786Y-17439357D01*
X11441071Y-17496500D01*
X11441071Y-17567929D01*
X11426786Y-17625072D01*
X11412500Y-17653643D01*
X11398214Y-17667929D01*
X11369643Y-17682214D01*
X11341071Y-17682214D01*
X11312500Y-17667929D01*
X11298214Y-17653643D01*
X11283928Y-17625072D01*
X11269643Y-17567929D01*
X11269643Y-17496500D01*
X11283928Y-17439357D01*
X11298214Y-17410786D01*
X11312500Y-17396500D01*
X11341071Y-17382214D01*
X11569643Y-17682214D02*
X11569643Y-17482214D01*
X11569643Y-17510786D02*
X11583928Y-17496500D01*
X11612500Y-17482214D01*
X11655357Y-17482214D01*
X11683928Y-17496500D01*
X11698214Y-17525072D01*
X11698214Y-17682214D01*
X11698214Y-17525072D02*
X11712500Y-17496500D01*
X11741071Y-17482214D01*
X11783928Y-17482214D01*
X11812500Y-17496500D01*
X11826786Y-17525072D01*
X11826786Y-17682214D01*
X11969643Y-17682214D02*
X11969643Y-17482214D01*
X11969643Y-17510786D02*
X11983928Y-17496500D01*
X12012500Y-17482214D01*
X12055357Y-17482214D01*
X12083928Y-17496500D01*
X12098214Y-17525072D01*
X12098214Y-17682214D01*
X12098214Y-17525072D02*
X12112500Y-17496500D01*
X12141071Y-17482214D01*
X12183928Y-17482214D01*
X12212500Y-17496500D01*
X12226786Y-17525072D01*
X12226786Y-17682214D01*
X12812500Y-17367929D02*
X12555357Y-17753643D01*
X13198214Y-17382214D02*
X13226786Y-17382214D01*
X13255357Y-17396500D01*
X13269643Y-17410786D01*
X13283928Y-17439357D01*
X13298214Y-17496500D01*
X13298214Y-17567929D01*
X13283928Y-17625072D01*
X13269643Y-17653643D01*
X13255357Y-17667929D01*
X13226786Y-17682214D01*
X13198214Y-17682214D01*
X13169643Y-17667929D01*
X13155357Y-17653643D01*
X13141071Y-17625072D01*
X13126786Y-17567929D01*
X13126786Y-17496500D01*
X13141071Y-17439357D01*
X13155357Y-17410786D01*
X13169643Y-17396500D01*
X13198214Y-17382214D01*
X13426786Y-17653643D02*
X13441071Y-17667929D01*
X13426786Y-17682214D01*
X13412500Y-17667929D01*
X13426786Y-17653643D01*
X13426786Y-17682214D01*
X13626786Y-17382214D02*
X13655357Y-17382214D01*
X13683928Y-17396500D01*
X13698214Y-17410786D01*
X13712500Y-17439357D01*
X13726786Y-17496500D01*
X13726786Y-17567929D01*
X13712500Y-17625072D01*
X13698214Y-17653643D01*
X13683928Y-17667929D01*
X13655357Y-17682214D01*
X13626786Y-17682214D01*
X13598214Y-17667929D01*
X13583928Y-17653643D01*
X13569643Y-17625072D01*
X13555357Y-17567929D01*
X13555357Y-17496500D01*
X13569643Y-17439357D01*
X13583928Y-17410786D01*
X13598214Y-17396500D01*
X13626786Y-17382214D01*
X13826786Y-17382214D02*
X14012500Y-17382214D01*
X13912500Y-17496500D01*
X13955357Y-17496500D01*
X13983928Y-17510786D01*
X13998214Y-17525072D01*
X14012500Y-17553643D01*
X14012500Y-17625072D01*
X13998214Y-17653643D01*
X13983928Y-17667929D01*
X13955357Y-17682214D01*
X13869643Y-17682214D01*
X13841071Y-17667929D01*
X13826786Y-17653643D01*
X14183928Y-17510786D02*
X14155357Y-17496500D01*
X14141071Y-17482214D01*
X14126786Y-17453643D01*
X14126786Y-17439357D01*
X14141071Y-17410786D01*
X14155357Y-17396500D01*
X14183928Y-17382214D01*
X14241071Y-17382214D01*
X14269643Y-17396500D01*
X14283928Y-17410786D01*
X14298214Y-17439357D01*
X14298214Y-17453643D01*
X14283928Y-17482214D01*
X14269643Y-17496500D01*
X14241071Y-17510786D01*
X14183928Y-17510786D01*
X14155357Y-17525072D01*
X14141071Y-17539357D01*
X14126786Y-17567929D01*
X14126786Y-17625072D01*
X14141071Y-17653643D01*
X14155357Y-17667929D01*
X14183928Y-17682214D01*
X14241071Y-17682214D01*
X14269643Y-17667929D01*
X14283928Y-17653643D01*
X14298214Y-17625072D01*
X14298214Y-17567929D01*
X14283928Y-17539357D01*
X14269643Y-17525072D01*
X14241071Y-17510786D01*
X14412500Y-17410786D02*
X14426786Y-17396500D01*
X14455357Y-17382214D01*
X14526786Y-17382214D01*
X14555357Y-17396500D01*
X14569643Y-17410786D01*
X14583928Y-17439357D01*
X14583928Y-17467929D01*
X14569643Y-17510786D01*
X14398214Y-17682214D01*
X14583928Y-17682214D01*
X14698214Y-17382214D02*
X14698214Y-17439357D01*
X14812500Y-17382214D02*
X14812500Y-17439357D01*
X15255357Y-17796500D02*
X15241071Y-17782214D01*
X15212500Y-17739357D01*
X15198214Y-17710786D01*
X15183928Y-17667929D01*
X15169643Y-17596500D01*
X15169643Y-17539357D01*
X15183928Y-17467929D01*
X15198214Y-17425072D01*
X15212500Y-17396500D01*
X15241071Y-17353643D01*
X15255357Y-17339357D01*
X15412500Y-17510786D02*
X15383928Y-17496500D01*
X15369643Y-17482214D01*
X15355357Y-17453643D01*
X15355357Y-17439357D01*
X15369643Y-17410786D01*
X15383928Y-17396500D01*
X15412500Y-17382214D01*
X15469643Y-17382214D01*
X15498214Y-17396500D01*
X15512500Y-17410786D01*
X15526786Y-17439357D01*
X15526786Y-17453643D01*
X15512500Y-17482214D01*
X15498214Y-17496500D01*
X15469643Y-17510786D01*
X15412500Y-17510786D01*
X15383928Y-17525072D01*
X15369643Y-17539357D01*
X15355357Y-17567929D01*
X15355357Y-17625072D01*
X15369643Y-17653643D01*
X15383928Y-17667929D01*
X15412500Y-17682214D01*
X15469643Y-17682214D01*
X15498214Y-17667929D01*
X15512500Y-17653643D01*
X15526786Y-17625072D01*
X15526786Y-17567929D01*
X15512500Y-17539357D01*
X15498214Y-17525072D01*
X15469643Y-17510786D01*
X15883928Y-17682214D02*
X15883928Y-17382214D01*
X16012500Y-17682214D02*
X16012500Y-17525072D01*
X15998214Y-17496500D01*
X15969643Y-17482214D01*
X15926786Y-17482214D01*
X15898214Y-17496500D01*
X15883928Y-17510786D01*
X16198214Y-17682214D02*
X16169643Y-17667929D01*
X16155357Y-17653643D01*
X16141071Y-17625072D01*
X16141071Y-17539357D01*
X16155357Y-17510786D01*
X16169643Y-17496500D01*
X16198214Y-17482214D01*
X16241071Y-17482214D01*
X16269643Y-17496500D01*
X16283928Y-17510786D01*
X16298214Y-17539357D01*
X16298214Y-17625072D01*
X16283928Y-17653643D01*
X16269643Y-17667929D01*
X16241071Y-17682214D01*
X16198214Y-17682214D01*
X16469643Y-17682214D02*
X16441071Y-17667929D01*
X16426786Y-17639357D01*
X16426786Y-17382214D01*
X16698214Y-17667929D02*
X16669643Y-17682214D01*
X16612500Y-17682214D01*
X16583928Y-17667929D01*
X16569643Y-17639357D01*
X16569643Y-17525072D01*
X16583928Y-17496500D01*
X16612500Y-17482214D01*
X16669643Y-17482214D01*
X16698214Y-17496500D01*
X16712500Y-17525072D01*
X16712500Y-17553643D01*
X16569643Y-17582214D01*
X16826786Y-17667929D02*
X16855357Y-17682214D01*
X16912500Y-17682214D01*
X16941071Y-17667929D01*
X16955357Y-17639357D01*
X16955357Y-17625072D01*
X16941071Y-17596500D01*
X16912500Y-17582214D01*
X16869643Y-17582214D01*
X16841071Y-17567929D01*
X16826786Y-17539357D01*
X16826786Y-17525072D01*
X16841071Y-17496500D01*
X16869643Y-17482214D01*
X16912500Y-17482214D01*
X16941071Y-17496500D01*
X17055357Y-17796500D02*
X17069643Y-17782214D01*
X17098214Y-17739357D01*
X17112500Y-17710786D01*
X17126786Y-17667929D01*
X17141071Y-17596500D01*
X17141071Y-17539357D01*
X17126786Y-17467929D01*
X17112500Y-17425072D01*
X17098214Y-17396500D01*
X17069643Y-17353643D01*
X17055357Y-17339357D01*
X9897500Y-17892500D02*
X9997500Y-17992500D01*
X9997500Y-17892500D02*
X9897500Y-17992500D01*
X9997500Y-17942500D02*
G75*
G03*
X9997500Y-17942500I-50000J0D01*
G01*
X10441071Y-18078214D02*
X10269643Y-18078214D01*
X10355357Y-18078214D02*
X10355357Y-17778214D01*
X10326786Y-17821072D01*
X10298214Y-17849643D01*
X10269643Y-17863929D01*
X10569643Y-18049643D02*
X10583928Y-18063929D01*
X10569643Y-18078214D01*
X10555357Y-18063929D01*
X10569643Y-18049643D01*
X10569643Y-18078214D01*
X10769643Y-17778214D02*
X10798214Y-17778214D01*
X10826786Y-17792500D01*
X10841071Y-17806786D01*
X10855357Y-17835357D01*
X10869643Y-17892500D01*
X10869643Y-17963929D01*
X10855357Y-18021072D01*
X10841071Y-18049643D01*
X10826786Y-18063929D01*
X10798214Y-18078214D01*
X10769643Y-18078214D01*
X10741071Y-18063929D01*
X10726786Y-18049643D01*
X10712500Y-18021072D01*
X10698214Y-17963929D01*
X10698214Y-17892500D01*
X10712500Y-17835357D01*
X10726786Y-17806786D01*
X10741071Y-17792500D01*
X10769643Y-17778214D01*
X11055357Y-17778214D02*
X11083928Y-17778214D01*
X11112500Y-17792500D01*
X11126786Y-17806786D01*
X11141071Y-17835357D01*
X11155357Y-17892500D01*
X11155357Y-17963929D01*
X11141071Y-18021072D01*
X11126786Y-18049643D01*
X11112500Y-18063929D01*
X11083928Y-18078214D01*
X11055357Y-18078214D01*
X11026786Y-18063929D01*
X11012500Y-18049643D01*
X10998214Y-18021072D01*
X10983928Y-17963929D01*
X10983928Y-17892500D01*
X10998214Y-17835357D01*
X11012500Y-17806786D01*
X11026786Y-17792500D01*
X11055357Y-17778214D01*
X11341071Y-17778214D02*
X11369643Y-17778214D01*
X11398214Y-17792500D01*
X11412500Y-17806786D01*
X11426786Y-17835357D01*
X11441071Y-17892500D01*
X11441071Y-17963929D01*
X11426786Y-18021072D01*
X11412500Y-18049643D01*
X11398214Y-18063929D01*
X11369643Y-18078214D01*
X11341071Y-18078214D01*
X11312500Y-18063929D01*
X11298214Y-18049643D01*
X11283928Y-18021072D01*
X11269643Y-17963929D01*
X11269643Y-17892500D01*
X11283928Y-17835357D01*
X11298214Y-17806786D01*
X11312500Y-17792500D01*
X11341071Y-17778214D01*
X11569643Y-18078214D02*
X11569643Y-17878214D01*
X11569643Y-17906786D02*
X11583928Y-17892500D01*
X11612500Y-17878214D01*
X11655357Y-17878214D01*
X11683928Y-17892500D01*
X11698214Y-17921072D01*
X11698214Y-18078214D01*
X11698214Y-17921072D02*
X11712500Y-17892500D01*
X11741071Y-17878214D01*
X11783928Y-17878214D01*
X11812500Y-17892500D01*
X11826786Y-17921072D01*
X11826786Y-18078214D01*
X11969643Y-18078214D02*
X11969643Y-17878214D01*
X11969643Y-17906786D02*
X11983928Y-17892500D01*
X12012500Y-17878214D01*
X12055357Y-17878214D01*
X12083928Y-17892500D01*
X12098214Y-17921072D01*
X12098214Y-18078214D01*
X12098214Y-17921072D02*
X12112500Y-17892500D01*
X12141071Y-17878214D01*
X12183928Y-17878214D01*
X12212500Y-17892500D01*
X12226786Y-17921072D01*
X12226786Y-18078214D01*
X12812500Y-17763929D02*
X12555357Y-18149643D01*
X13198214Y-17778214D02*
X13226786Y-17778214D01*
X13255357Y-17792500D01*
X13269643Y-17806786D01*
X13283928Y-17835357D01*
X13298214Y-17892500D01*
X13298214Y-17963929D01*
X13283928Y-18021072D01*
X13269643Y-18049643D01*
X13255357Y-18063929D01*
X13226786Y-18078214D01*
X13198214Y-18078214D01*
X13169643Y-18063929D01*
X13155357Y-18049643D01*
X13141071Y-18021072D01*
X13126786Y-17963929D01*
X13126786Y-17892500D01*
X13141071Y-17835357D01*
X13155357Y-17806786D01*
X13169643Y-17792500D01*
X13198214Y-17778214D01*
X13426786Y-18049643D02*
X13441071Y-18063929D01*
X13426786Y-18078214D01*
X13412500Y-18063929D01*
X13426786Y-18049643D01*
X13426786Y-18078214D01*
X13626786Y-17778214D02*
X13655357Y-17778214D01*
X13683928Y-17792500D01*
X13698214Y-17806786D01*
X13712500Y-17835357D01*
X13726786Y-17892500D01*
X13726786Y-17963929D01*
X13712500Y-18021072D01*
X13698214Y-18049643D01*
X13683928Y-18063929D01*
X13655357Y-18078214D01*
X13626786Y-18078214D01*
X13598214Y-18063929D01*
X13583928Y-18049643D01*
X13569643Y-18021072D01*
X13555357Y-17963929D01*
X13555357Y-17892500D01*
X13569643Y-17835357D01*
X13583928Y-17806786D01*
X13598214Y-17792500D01*
X13626786Y-17778214D01*
X13826786Y-17778214D02*
X14012500Y-17778214D01*
X13912500Y-17892500D01*
X13955357Y-17892500D01*
X13983928Y-17906786D01*
X13998214Y-17921072D01*
X14012500Y-17949643D01*
X14012500Y-18021072D01*
X13998214Y-18049643D01*
X13983928Y-18063929D01*
X13955357Y-18078214D01*
X13869643Y-18078214D01*
X13841071Y-18063929D01*
X13826786Y-18049643D01*
X14155357Y-18078214D02*
X14212500Y-18078214D01*
X14241071Y-18063929D01*
X14255357Y-18049643D01*
X14283928Y-18006786D01*
X14298214Y-17949643D01*
X14298214Y-17835357D01*
X14283928Y-17806786D01*
X14269643Y-17792500D01*
X14241071Y-17778214D01*
X14183928Y-17778214D01*
X14155357Y-17792500D01*
X14141071Y-17806786D01*
X14126786Y-17835357D01*
X14126786Y-17906786D01*
X14141071Y-17935357D01*
X14155357Y-17949643D01*
X14183928Y-17963929D01*
X14241071Y-17963929D01*
X14269643Y-17949643D01*
X14283928Y-17935357D01*
X14298214Y-17906786D01*
X14555357Y-17878214D02*
X14555357Y-18078214D01*
X14483928Y-17763929D02*
X14412500Y-17978214D01*
X14598214Y-17978214D01*
X14698214Y-17778214D02*
X14698214Y-17835357D01*
X14812500Y-17778214D02*
X14812500Y-17835357D01*
X15255357Y-18192500D02*
X15241071Y-18178214D01*
X15212500Y-18135357D01*
X15198214Y-18106786D01*
X15183928Y-18063929D01*
X15169643Y-17992500D01*
X15169643Y-17935357D01*
X15183928Y-17863929D01*
X15198214Y-17821072D01*
X15212500Y-17792500D01*
X15241071Y-17749643D01*
X15255357Y-17735357D01*
X15341071Y-17778214D02*
X15541071Y-17778214D01*
X15412500Y-18078214D01*
X15712500Y-17778214D02*
X15741071Y-17778214D01*
X15769643Y-17792500D01*
X15783928Y-17806786D01*
X15798214Y-17835357D01*
X15812500Y-17892500D01*
X15812500Y-17963929D01*
X15798214Y-18021072D01*
X15783928Y-18049643D01*
X15769643Y-18063929D01*
X15741071Y-18078214D01*
X15712500Y-18078214D01*
X15683928Y-18063929D01*
X15669643Y-18049643D01*
X15655357Y-18021072D01*
X15641071Y-17963929D01*
X15641071Y-17892500D01*
X15655357Y-17835357D01*
X15669643Y-17806786D01*
X15683928Y-17792500D01*
X15712500Y-17778214D01*
X16169643Y-18078214D02*
X16169643Y-17778214D01*
X16298214Y-18078214D02*
X16298214Y-17921072D01*
X16283928Y-17892500D01*
X16255357Y-17878214D01*
X16212500Y-17878214D01*
X16183928Y-17892500D01*
X16169643Y-17906786D01*
X16483928Y-18078214D02*
X16455357Y-18063929D01*
X16441071Y-18049643D01*
X16426786Y-18021072D01*
X16426786Y-17935357D01*
X16441071Y-17906786D01*
X16455357Y-17892500D01*
X16483928Y-17878214D01*
X16526786Y-17878214D01*
X16555357Y-17892500D01*
X16569643Y-17906786D01*
X16583928Y-17935357D01*
X16583928Y-18021072D01*
X16569643Y-18049643D01*
X16555357Y-18063929D01*
X16526786Y-18078214D01*
X16483928Y-18078214D01*
X16755357Y-18078214D02*
X16726786Y-18063929D01*
X16712500Y-18035357D01*
X16712500Y-17778214D01*
X16983928Y-18063929D02*
X16955357Y-18078214D01*
X16898214Y-18078214D01*
X16869643Y-18063929D01*
X16855357Y-18035357D01*
X16855357Y-17921072D01*
X16869643Y-17892500D01*
X16898214Y-17878214D01*
X16955357Y-17878214D01*
X16983928Y-17892500D01*
X16998214Y-17921072D01*
X16998214Y-17949643D01*
X16855357Y-17978214D01*
X17112500Y-18063929D02*
X17141071Y-18078214D01*
X17198214Y-18078214D01*
X17226786Y-18063929D01*
X17241071Y-18035357D01*
X17241071Y-18021072D01*
X17226786Y-17992500D01*
X17198214Y-17978214D01*
X17155357Y-17978214D01*
X17126786Y-17963929D01*
X17112500Y-17935357D01*
X17112500Y-17921072D01*
X17126786Y-17892500D01*
X17155357Y-17878214D01*
X17198214Y-17878214D01*
X17226786Y-17892500D01*
X17341071Y-18192500D02*
X17355357Y-18178214D01*
X17383928Y-18135357D01*
X17398214Y-18106786D01*
X17412500Y-18063929D01*
X17426786Y-17992500D01*
X17426786Y-17935357D01*
X17412500Y-17863929D01*
X17398214Y-17821072D01*
X17383928Y-17792500D01*
X17355357Y-17749643D01*
X17341071Y-17735357D01*
X9847500Y-18263500D02*
X9997500Y-18413500D01*
X9997500Y-18263500D02*
X9847500Y-18413500D01*
X9922500Y-18263500D02*
X9922500Y-18413500D01*
X9847500Y-18338500D02*
X9997500Y-18338500D01*
X10441071Y-18474214D02*
X10269643Y-18474214D01*
X10355357Y-18474214D02*
X10355357Y-18174214D01*
X10326786Y-18217072D01*
X10298214Y-18245643D01*
X10269643Y-18259929D01*
X10569643Y-18445643D02*
X10583928Y-18459929D01*
X10569643Y-18474214D01*
X10555357Y-18459929D01*
X10569643Y-18445643D01*
X10569643Y-18474214D01*
X10855357Y-18174214D02*
X10712500Y-18174214D01*
X10698214Y-18317072D01*
X10712500Y-18302786D01*
X10741071Y-18288500D01*
X10812500Y-18288500D01*
X10841071Y-18302786D01*
X10855357Y-18317072D01*
X10869643Y-18345643D01*
X10869643Y-18417072D01*
X10855357Y-18445643D01*
X10841071Y-18459929D01*
X10812500Y-18474214D01*
X10741071Y-18474214D01*
X10712500Y-18459929D01*
X10698214Y-18445643D01*
X11055357Y-18174214D02*
X11083928Y-18174214D01*
X11112500Y-18188500D01*
X11126786Y-18202786D01*
X11141071Y-18231357D01*
X11155357Y-18288500D01*
X11155357Y-18359929D01*
X11141071Y-18417072D01*
X11126786Y-18445643D01*
X11112500Y-18459929D01*
X11083928Y-18474214D01*
X11055357Y-18474214D01*
X11026786Y-18459929D01*
X11012500Y-18445643D01*
X10998214Y-18417072D01*
X10983928Y-18359929D01*
X10983928Y-18288500D01*
X10998214Y-18231357D01*
X11012500Y-18202786D01*
X11026786Y-18188500D01*
X11055357Y-18174214D01*
X11341071Y-18174214D02*
X11369643Y-18174214D01*
X11398214Y-18188500D01*
X11412500Y-18202786D01*
X11426786Y-18231357D01*
X11441071Y-18288500D01*
X11441071Y-18359929D01*
X11426786Y-18417072D01*
X11412500Y-18445643D01*
X11398214Y-18459929D01*
X11369643Y-18474214D01*
X11341071Y-18474214D01*
X11312500Y-18459929D01*
X11298214Y-18445643D01*
X11283928Y-18417072D01*
X11269643Y-18359929D01*
X11269643Y-18288500D01*
X11283928Y-18231357D01*
X11298214Y-18202786D01*
X11312500Y-18188500D01*
X11341071Y-18174214D01*
X11569643Y-18474214D02*
X11569643Y-18274214D01*
X11569643Y-18302786D02*
X11583928Y-18288500D01*
X11612500Y-18274214D01*
X11655357Y-18274214D01*
X11683928Y-18288500D01*
X11698214Y-18317072D01*
X11698214Y-18474214D01*
X11698214Y-18317072D02*
X11712500Y-18288500D01*
X11741071Y-18274214D01*
X11783928Y-18274214D01*
X11812500Y-18288500D01*
X11826786Y-18317072D01*
X11826786Y-18474214D01*
X11969643Y-18474214D02*
X11969643Y-18274214D01*
X11969643Y-18302786D02*
X11983928Y-18288500D01*
X12012500Y-18274214D01*
X12055357Y-18274214D01*
X12083928Y-18288500D01*
X12098214Y-18317072D01*
X12098214Y-18474214D01*
X12098214Y-18317072D02*
X12112500Y-18288500D01*
X12141071Y-18274214D01*
X12183928Y-18274214D01*
X12212500Y-18288500D01*
X12226786Y-18317072D01*
X12226786Y-18474214D01*
X12812500Y-18159929D02*
X12555357Y-18545643D01*
X13198214Y-18174214D02*
X13226786Y-18174214D01*
X13255357Y-18188500D01*
X13269643Y-18202786D01*
X13283928Y-18231357D01*
X13298214Y-18288500D01*
X13298214Y-18359929D01*
X13283928Y-18417072D01*
X13269643Y-18445643D01*
X13255357Y-18459929D01*
X13226786Y-18474214D01*
X13198214Y-18474214D01*
X13169643Y-18459929D01*
X13155357Y-18445643D01*
X13141071Y-18417072D01*
X13126786Y-18359929D01*
X13126786Y-18288500D01*
X13141071Y-18231357D01*
X13155357Y-18202786D01*
X13169643Y-18188500D01*
X13198214Y-18174214D01*
X13426786Y-18445643D02*
X13441071Y-18459929D01*
X13426786Y-18474214D01*
X13412500Y-18459929D01*
X13426786Y-18445643D01*
X13426786Y-18474214D01*
X13626786Y-18174214D02*
X13655357Y-18174214D01*
X13683928Y-18188500D01*
X13698214Y-18202786D01*
X13712500Y-18231357D01*
X13726786Y-18288500D01*
X13726786Y-18359929D01*
X13712500Y-18417072D01*
X13698214Y-18445643D01*
X13683928Y-18459929D01*
X13655357Y-18474214D01*
X13626786Y-18474214D01*
X13598214Y-18459929D01*
X13583928Y-18445643D01*
X13569643Y-18417072D01*
X13555357Y-18359929D01*
X13555357Y-18288500D01*
X13569643Y-18231357D01*
X13583928Y-18202786D01*
X13598214Y-18188500D01*
X13626786Y-18174214D01*
X13998214Y-18174214D02*
X13855357Y-18174214D01*
X13841071Y-18317072D01*
X13855357Y-18302786D01*
X13883928Y-18288500D01*
X13955357Y-18288500D01*
X13983928Y-18302786D01*
X13998214Y-18317072D01*
X14012500Y-18345643D01*
X14012500Y-18417072D01*
X13998214Y-18445643D01*
X13983928Y-18459929D01*
X13955357Y-18474214D01*
X13883928Y-18474214D01*
X13855357Y-18459929D01*
X13841071Y-18445643D01*
X14155357Y-18474214D02*
X14212500Y-18474214D01*
X14241071Y-18459929D01*
X14255357Y-18445643D01*
X14283928Y-18402786D01*
X14298214Y-18345643D01*
X14298214Y-18231357D01*
X14283928Y-18202786D01*
X14269643Y-18188500D01*
X14241071Y-18174214D01*
X14183928Y-18174214D01*
X14155357Y-18188500D01*
X14141071Y-18202786D01*
X14126786Y-18231357D01*
X14126786Y-18302786D01*
X14141071Y-18331357D01*
X14155357Y-18345643D01*
X14183928Y-18359929D01*
X14241071Y-18359929D01*
X14269643Y-18345643D01*
X14283928Y-18331357D01*
X14298214Y-18302786D01*
X14583928Y-18474214D02*
X14412500Y-18474214D01*
X14498214Y-18474214D02*
X14498214Y-18174214D01*
X14469643Y-18217072D01*
X14441071Y-18245643D01*
X14412500Y-18259929D01*
X14698214Y-18174214D02*
X14698214Y-18231357D01*
X14812500Y-18174214D02*
X14812500Y-18231357D01*
X15255357Y-18588500D02*
X15241071Y-18574214D01*
X15212500Y-18531357D01*
X15198214Y-18502786D01*
X15183928Y-18459929D01*
X15169643Y-18388500D01*
X15169643Y-18331357D01*
X15183928Y-18259929D01*
X15198214Y-18217072D01*
X15212500Y-18188500D01*
X15241071Y-18145643D01*
X15255357Y-18131357D01*
X15498214Y-18274214D02*
X15498214Y-18474214D01*
X15426786Y-18159929D02*
X15355357Y-18374214D01*
X15541071Y-18374214D01*
X15883928Y-18474214D02*
X15883928Y-18174214D01*
X16012500Y-18474214D02*
X16012500Y-18317072D01*
X15998214Y-18288500D01*
X15969643Y-18274214D01*
X15926786Y-18274214D01*
X15898214Y-18288500D01*
X15883928Y-18302786D01*
X16198214Y-18474214D02*
X16169643Y-18459929D01*
X16155357Y-18445643D01*
X16141071Y-18417072D01*
X16141071Y-18331357D01*
X16155357Y-18302786D01*
X16169643Y-18288500D01*
X16198214Y-18274214D01*
X16241071Y-18274214D01*
X16269643Y-18288500D01*
X16283928Y-18302786D01*
X16298214Y-18331357D01*
X16298214Y-18417072D01*
X16283928Y-18445643D01*
X16269643Y-18459929D01*
X16241071Y-18474214D01*
X16198214Y-18474214D01*
X16469643Y-18474214D02*
X16441071Y-18459929D01*
X16426786Y-18431357D01*
X16426786Y-18174214D01*
X16698214Y-18459929D02*
X16669643Y-18474214D01*
X16612500Y-18474214D01*
X16583928Y-18459929D01*
X16569643Y-18431357D01*
X16569643Y-18317072D01*
X16583928Y-18288500D01*
X16612500Y-18274214D01*
X16669643Y-18274214D01*
X16698214Y-18288500D01*
X16712500Y-18317072D01*
X16712500Y-18345643D01*
X16569643Y-18374214D01*
X16826786Y-18459929D02*
X16855357Y-18474214D01*
X16912500Y-18474214D01*
X16941071Y-18459929D01*
X16955357Y-18431357D01*
X16955357Y-18417072D01*
X16941071Y-18388500D01*
X16912500Y-18374214D01*
X16869643Y-18374214D01*
X16841071Y-18359929D01*
X16826786Y-18331357D01*
X16826786Y-18317072D01*
X16841071Y-18288500D01*
X16869643Y-18274214D01*
X16912500Y-18274214D01*
X16941071Y-18288500D01*
X17055357Y-18588500D02*
X17069643Y-18574214D01*
X17098214Y-18531357D01*
X17112500Y-18502786D01*
X17126786Y-18459929D01*
X17141071Y-18388500D01*
X17141071Y-18331357D01*
X17126786Y-18259929D01*
X17112500Y-18217072D01*
X17098214Y-18188500D01*
X17069643Y-18145643D01*
X17055357Y-18131357D01*
X9768500Y-18620000D02*
X9997500Y-18849000D01*
X9997500Y-18620000D02*
X9768500Y-18849000D01*
X9963964Y-18815465D02*
X9963964Y-18653536D01*
X9802035Y-18653536D01*
X9802035Y-18815465D01*
X9963964Y-18815465D01*
X10269643Y-18598786D02*
X10283928Y-18584500D01*
X10312500Y-18570214D01*
X10383928Y-18570214D01*
X10412500Y-18584500D01*
X10426786Y-18598786D01*
X10441071Y-18627357D01*
X10441071Y-18655929D01*
X10426786Y-18698786D01*
X10255357Y-18870214D01*
X10441071Y-18870214D01*
X10569643Y-18841643D02*
X10583928Y-18855929D01*
X10569643Y-18870214D01*
X10555357Y-18855929D01*
X10569643Y-18841643D01*
X10569643Y-18870214D01*
X10698214Y-18598786D02*
X10712500Y-18584500D01*
X10741071Y-18570214D01*
X10812500Y-18570214D01*
X10841071Y-18584500D01*
X10855357Y-18598786D01*
X10869643Y-18627357D01*
X10869643Y-18655929D01*
X10855357Y-18698786D01*
X10683928Y-18870214D01*
X10869643Y-18870214D01*
X11012500Y-18870214D02*
X11069643Y-18870214D01*
X11098214Y-18855929D01*
X11112500Y-18841643D01*
X11141071Y-18798786D01*
X11155357Y-18741643D01*
X11155357Y-18627357D01*
X11141071Y-18598786D01*
X11126786Y-18584500D01*
X11098214Y-18570214D01*
X11041071Y-18570214D01*
X11012500Y-18584500D01*
X10998214Y-18598786D01*
X10983928Y-18627357D01*
X10983928Y-18698786D01*
X10998214Y-18727357D01*
X11012500Y-18741643D01*
X11041071Y-18755929D01*
X11098214Y-18755929D01*
X11126786Y-18741643D01*
X11141071Y-18727357D01*
X11155357Y-18698786D01*
X11341071Y-18570214D02*
X11369643Y-18570214D01*
X11398214Y-18584500D01*
X11412500Y-18598786D01*
X11426786Y-18627357D01*
X11441071Y-18684500D01*
X11441071Y-18755929D01*
X11426786Y-18813072D01*
X11412500Y-18841643D01*
X11398214Y-18855929D01*
X11369643Y-18870214D01*
X11341071Y-18870214D01*
X11312500Y-18855929D01*
X11298214Y-18841643D01*
X11283928Y-18813072D01*
X11269643Y-18755929D01*
X11269643Y-18684500D01*
X11283928Y-18627357D01*
X11298214Y-18598786D01*
X11312500Y-18584500D01*
X11341071Y-18570214D01*
X11569643Y-18870214D02*
X11569643Y-18670214D01*
X11569643Y-18698786D02*
X11583928Y-18684500D01*
X11612500Y-18670214D01*
X11655357Y-18670214D01*
X11683928Y-18684500D01*
X11698214Y-18713072D01*
X11698214Y-18870214D01*
X11698214Y-18713072D02*
X11712500Y-18684500D01*
X11741071Y-18670214D01*
X11783928Y-18670214D01*
X11812500Y-18684500D01*
X11826786Y-18713072D01*
X11826786Y-18870214D01*
X11969643Y-18870214D02*
X11969643Y-18670214D01*
X11969643Y-18698786D02*
X11983928Y-18684500D01*
X12012500Y-18670214D01*
X12055357Y-18670214D01*
X12083928Y-18684500D01*
X12098214Y-18713072D01*
X12098214Y-18870214D01*
X12098214Y-18713072D02*
X12112500Y-18684500D01*
X12141071Y-18670214D01*
X12183928Y-18670214D01*
X12212500Y-18684500D01*
X12226786Y-18713072D01*
X12226786Y-18870214D01*
X12812500Y-18555929D02*
X12555357Y-18941643D01*
X13198214Y-18570214D02*
X13226786Y-18570214D01*
X13255357Y-18584500D01*
X13269643Y-18598786D01*
X13283928Y-18627357D01*
X13298214Y-18684500D01*
X13298214Y-18755929D01*
X13283928Y-18813072D01*
X13269643Y-18841643D01*
X13255357Y-18855929D01*
X13226786Y-18870214D01*
X13198214Y-18870214D01*
X13169643Y-18855929D01*
X13155357Y-18841643D01*
X13141071Y-18813072D01*
X13126786Y-18755929D01*
X13126786Y-18684500D01*
X13141071Y-18627357D01*
X13155357Y-18598786D01*
X13169643Y-18584500D01*
X13198214Y-18570214D01*
X13426786Y-18841643D02*
X13441071Y-18855929D01*
X13426786Y-18870214D01*
X13412500Y-18855929D01*
X13426786Y-18841643D01*
X13426786Y-18870214D01*
X13626786Y-18570214D02*
X13655357Y-18570214D01*
X13683928Y-18584500D01*
X13698214Y-18598786D01*
X13712500Y-18627357D01*
X13726786Y-18684500D01*
X13726786Y-18755929D01*
X13712500Y-18813072D01*
X13698214Y-18841643D01*
X13683928Y-18855929D01*
X13655357Y-18870214D01*
X13626786Y-18870214D01*
X13598214Y-18855929D01*
X13583928Y-18841643D01*
X13569643Y-18813072D01*
X13555357Y-18755929D01*
X13555357Y-18684500D01*
X13569643Y-18627357D01*
X13583928Y-18598786D01*
X13598214Y-18584500D01*
X13626786Y-18570214D01*
X13869643Y-18870214D02*
X13926786Y-18870214D01*
X13955357Y-18855929D01*
X13969643Y-18841643D01*
X13998214Y-18798786D01*
X14012500Y-18741643D01*
X14012500Y-18627357D01*
X13998214Y-18598786D01*
X13983928Y-18584500D01*
X13955357Y-18570214D01*
X13898214Y-18570214D01*
X13869643Y-18584500D01*
X13855357Y-18598786D01*
X13841071Y-18627357D01*
X13841071Y-18698786D01*
X13855357Y-18727357D01*
X13869643Y-18741643D01*
X13898214Y-18755929D01*
X13955357Y-18755929D01*
X13983928Y-18741643D01*
X13998214Y-18727357D01*
X14012500Y-18698786D01*
X14198214Y-18570214D02*
X14226786Y-18570214D01*
X14255357Y-18584500D01*
X14269643Y-18598786D01*
X14283928Y-18627357D01*
X14298214Y-18684500D01*
X14298214Y-18755929D01*
X14283928Y-18813072D01*
X14269643Y-18841643D01*
X14255357Y-18855929D01*
X14226786Y-18870214D01*
X14198214Y-18870214D01*
X14169643Y-18855929D01*
X14155357Y-18841643D01*
X14141071Y-18813072D01*
X14126786Y-18755929D01*
X14126786Y-18684500D01*
X14141071Y-18627357D01*
X14155357Y-18598786D01*
X14169643Y-18584500D01*
X14198214Y-18570214D01*
X14412500Y-18598786D02*
X14426786Y-18584500D01*
X14455357Y-18570214D01*
X14526786Y-18570214D01*
X14555357Y-18584500D01*
X14569643Y-18598786D01*
X14583928Y-18627357D01*
X14583928Y-18655929D01*
X14569643Y-18698786D01*
X14398214Y-18870214D01*
X14583928Y-18870214D01*
X14698214Y-18570214D02*
X14698214Y-18627357D01*
X14812500Y-18570214D02*
X14812500Y-18627357D01*
X15255357Y-18984500D02*
X15241071Y-18970214D01*
X15212500Y-18927357D01*
X15198214Y-18898786D01*
X15183928Y-18855929D01*
X15169643Y-18784500D01*
X15169643Y-18727357D01*
X15183928Y-18655929D01*
X15198214Y-18613072D01*
X15212500Y-18584500D01*
X15241071Y-18541643D01*
X15255357Y-18527357D01*
X15341071Y-18570214D02*
X15526786Y-18570214D01*
X15426786Y-18684500D01*
X15469643Y-18684500D01*
X15498214Y-18698786D01*
X15512500Y-18713072D01*
X15526786Y-18741643D01*
X15526786Y-18813072D01*
X15512500Y-18841643D01*
X15498214Y-18855929D01*
X15469643Y-18870214D01*
X15383928Y-18870214D01*
X15355357Y-18855929D01*
X15341071Y-18841643D01*
X15883928Y-18870214D02*
X15883928Y-18570214D01*
X16012500Y-18870214D02*
X16012500Y-18713072D01*
X15998214Y-18684500D01*
X15969643Y-18670214D01*
X15926786Y-18670214D01*
X15898214Y-18684500D01*
X15883928Y-18698786D01*
X16198214Y-18870214D02*
X16169643Y-18855929D01*
X16155357Y-18841643D01*
X16141071Y-18813072D01*
X16141071Y-18727357D01*
X16155357Y-18698786D01*
X16169643Y-18684500D01*
X16198214Y-18670214D01*
X16241071Y-18670214D01*
X16269643Y-18684500D01*
X16283928Y-18698786D01*
X16298214Y-18727357D01*
X16298214Y-18813072D01*
X16283928Y-18841643D01*
X16269643Y-18855929D01*
X16241071Y-18870214D01*
X16198214Y-18870214D01*
X16469643Y-18870214D02*
X16441071Y-18855929D01*
X16426786Y-18827357D01*
X16426786Y-18570214D01*
X16698214Y-18855929D02*
X16669643Y-18870214D01*
X16612500Y-18870214D01*
X16583928Y-18855929D01*
X16569643Y-18827357D01*
X16569643Y-18713072D01*
X16583928Y-18684500D01*
X16612500Y-18670214D01*
X16669643Y-18670214D01*
X16698214Y-18684500D01*
X16712500Y-18713072D01*
X16712500Y-18741643D01*
X16569643Y-18770214D01*
X16826786Y-18855929D02*
X16855357Y-18870214D01*
X16912500Y-18870214D01*
X16941071Y-18855929D01*
X16955357Y-18827357D01*
X16955357Y-18813072D01*
X16941071Y-18784500D01*
X16912500Y-18770214D01*
X16869643Y-18770214D01*
X16841071Y-18755929D01*
X16826786Y-18727357D01*
X16826786Y-18713072D01*
X16841071Y-18684500D01*
X16869643Y-18670214D01*
X16912500Y-18670214D01*
X16941071Y-18684500D01*
X17055357Y-18984500D02*
X17069643Y-18970214D01*
X17098214Y-18927357D01*
X17112500Y-18898786D01*
X17126786Y-18855929D01*
X17141071Y-18784500D01*
X17141071Y-18727357D01*
X17126786Y-18655929D01*
X17112500Y-18613072D01*
X17098214Y-18584500D01*
X17069643Y-18541643D01*
X17055357Y-18527357D01*
X9760500Y-19012000D02*
X9997500Y-19249000D01*
X9997500Y-19012000D02*
X9760500Y-19249000D01*
X9879000Y-19249000D02*
X9997500Y-19130500D01*
X9879000Y-19012000D01*
X9760500Y-19130500D01*
X9879000Y-19249000D01*
X10269643Y-18994786D02*
X10283928Y-18980500D01*
X10312500Y-18966214D01*
X10383928Y-18966214D01*
X10412500Y-18980500D01*
X10426786Y-18994786D01*
X10441071Y-19023357D01*
X10441071Y-19051929D01*
X10426786Y-19094786D01*
X10255357Y-19266214D01*
X10441071Y-19266214D01*
X10569643Y-19237643D02*
X10583928Y-19251929D01*
X10569643Y-19266214D01*
X10555357Y-19251929D01*
X10569643Y-19237643D01*
X10569643Y-19266214D01*
X10683928Y-18966214D02*
X10869643Y-18966214D01*
X10769643Y-19080500D01*
X10812500Y-19080500D01*
X10841071Y-19094786D01*
X10855357Y-19109072D01*
X10869643Y-19137643D01*
X10869643Y-19209072D01*
X10855357Y-19237643D01*
X10841071Y-19251929D01*
X10812500Y-19266214D01*
X10726786Y-19266214D01*
X10698214Y-19251929D01*
X10683928Y-19237643D01*
X10969643Y-18966214D02*
X11169643Y-18966214D01*
X11041071Y-19266214D01*
X11341071Y-18966214D02*
X11369643Y-18966214D01*
X11398214Y-18980500D01*
X11412500Y-18994786D01*
X11426786Y-19023357D01*
X11441071Y-19080500D01*
X11441071Y-19151929D01*
X11426786Y-19209072D01*
X11412500Y-19237643D01*
X11398214Y-19251929D01*
X11369643Y-19266214D01*
X11341071Y-19266214D01*
X11312500Y-19251929D01*
X11298214Y-19237643D01*
X11283928Y-19209072D01*
X11269643Y-19151929D01*
X11269643Y-19080500D01*
X11283928Y-19023357D01*
X11298214Y-18994786D01*
X11312500Y-18980500D01*
X11341071Y-18966214D01*
X11569643Y-19266214D02*
X11569643Y-19066214D01*
X11569643Y-19094786D02*
X11583928Y-19080500D01*
X11612500Y-19066214D01*
X11655357Y-19066214D01*
X11683928Y-19080500D01*
X11698214Y-19109072D01*
X11698214Y-19266214D01*
X11698214Y-19109072D02*
X11712500Y-19080500D01*
X11741071Y-19066214D01*
X11783928Y-19066214D01*
X11812500Y-19080500D01*
X11826786Y-19109072D01*
X11826786Y-19266214D01*
X11969643Y-19266214D02*
X11969643Y-19066214D01*
X11969643Y-19094786D02*
X11983928Y-19080500D01*
X12012500Y-19066214D01*
X12055357Y-19066214D01*
X12083928Y-19080500D01*
X12098214Y-19109072D01*
X12098214Y-19266214D01*
X12098214Y-19109072D02*
X12112500Y-19080500D01*
X12141071Y-19066214D01*
X12183928Y-19066214D01*
X12212500Y-19080500D01*
X12226786Y-19109072D01*
X12226786Y-19266214D01*
X12812500Y-18951929D02*
X12555357Y-19337643D01*
X13198214Y-18966214D02*
X13226786Y-18966214D01*
X13255357Y-18980500D01*
X13269643Y-18994786D01*
X13283928Y-19023357D01*
X13298214Y-19080500D01*
X13298214Y-19151929D01*
X13283928Y-19209072D01*
X13269643Y-19237643D01*
X13255357Y-19251929D01*
X13226786Y-19266214D01*
X13198214Y-19266214D01*
X13169643Y-19251929D01*
X13155357Y-19237643D01*
X13141071Y-19209072D01*
X13126786Y-19151929D01*
X13126786Y-19080500D01*
X13141071Y-19023357D01*
X13155357Y-18994786D01*
X13169643Y-18980500D01*
X13198214Y-18966214D01*
X13426786Y-19237643D02*
X13441071Y-19251929D01*
X13426786Y-19266214D01*
X13412500Y-19251929D01*
X13426786Y-19237643D01*
X13426786Y-19266214D01*
X13626786Y-18966214D02*
X13655357Y-18966214D01*
X13683928Y-18980500D01*
X13698214Y-18994786D01*
X13712500Y-19023357D01*
X13726786Y-19080500D01*
X13726786Y-19151929D01*
X13712500Y-19209072D01*
X13698214Y-19237643D01*
X13683928Y-19251929D01*
X13655357Y-19266214D01*
X13626786Y-19266214D01*
X13598214Y-19251929D01*
X13583928Y-19237643D01*
X13569643Y-19209072D01*
X13555357Y-19151929D01*
X13555357Y-19080500D01*
X13569643Y-19023357D01*
X13583928Y-18994786D01*
X13598214Y-18980500D01*
X13626786Y-18966214D01*
X13869643Y-19266214D02*
X13926786Y-19266214D01*
X13955357Y-19251929D01*
X13969643Y-19237643D01*
X13998214Y-19194786D01*
X14012500Y-19137643D01*
X14012500Y-19023357D01*
X13998214Y-18994786D01*
X13983928Y-18980500D01*
X13955357Y-18966214D01*
X13898214Y-18966214D01*
X13869643Y-18980500D01*
X13855357Y-18994786D01*
X13841071Y-19023357D01*
X13841071Y-19094786D01*
X13855357Y-19123357D01*
X13869643Y-19137643D01*
X13898214Y-19151929D01*
X13955357Y-19151929D01*
X13983928Y-19137643D01*
X13998214Y-19123357D01*
X14012500Y-19094786D01*
X14112500Y-18966214D02*
X14298214Y-18966214D01*
X14198214Y-19080500D01*
X14241071Y-19080500D01*
X14269643Y-19094786D01*
X14283928Y-19109072D01*
X14298214Y-19137643D01*
X14298214Y-19209072D01*
X14283928Y-19237643D01*
X14269643Y-19251929D01*
X14241071Y-19266214D01*
X14155357Y-19266214D01*
X14126786Y-19251929D01*
X14112500Y-19237643D01*
X14398214Y-18966214D02*
X14583928Y-18966214D01*
X14483928Y-19080500D01*
X14526786Y-19080500D01*
X14555357Y-19094786D01*
X14569643Y-19109072D01*
X14583928Y-19137643D01*
X14583928Y-19209072D01*
X14569643Y-19237643D01*
X14555357Y-19251929D01*
X14526786Y-19266214D01*
X14441071Y-19266214D01*
X14412500Y-19251929D01*
X14398214Y-19237643D01*
X14698214Y-18966214D02*
X14698214Y-19023357D01*
X14812500Y-18966214D02*
X14812500Y-19023357D01*
X15255357Y-19380500D02*
X15241071Y-19366214D01*
X15212500Y-19323357D01*
X15198214Y-19294786D01*
X15183928Y-19251929D01*
X15169643Y-19180500D01*
X15169643Y-19123357D01*
X15183928Y-19051929D01*
X15198214Y-19009072D01*
X15212500Y-18980500D01*
X15241071Y-18937643D01*
X15255357Y-18923357D01*
X15341071Y-18966214D02*
X15526786Y-18966214D01*
X15426786Y-19080500D01*
X15469643Y-19080500D01*
X15498214Y-19094786D01*
X15512500Y-19109072D01*
X15526786Y-19137643D01*
X15526786Y-19209072D01*
X15512500Y-19237643D01*
X15498214Y-19251929D01*
X15469643Y-19266214D01*
X15383928Y-19266214D01*
X15355357Y-19251929D01*
X15341071Y-19237643D01*
X15883928Y-19266214D02*
X15883928Y-18966214D01*
X16012500Y-19266214D02*
X16012500Y-19109072D01*
X15998214Y-19080500D01*
X15969643Y-19066214D01*
X15926786Y-19066214D01*
X15898214Y-19080500D01*
X15883928Y-19094786D01*
X16198214Y-19266214D02*
X16169643Y-19251929D01*
X16155357Y-19237643D01*
X16141071Y-19209072D01*
X16141071Y-19123357D01*
X16155357Y-19094786D01*
X16169643Y-19080500D01*
X16198214Y-19066214D01*
X16241071Y-19066214D01*
X16269643Y-19080500D01*
X16283928Y-19094786D01*
X16298214Y-19123357D01*
X16298214Y-19209072D01*
X16283928Y-19237643D01*
X16269643Y-19251929D01*
X16241071Y-19266214D01*
X16198214Y-19266214D01*
X16469643Y-19266214D02*
X16441071Y-19251929D01*
X16426786Y-19223357D01*
X16426786Y-18966214D01*
X16698214Y-19251929D02*
X16669643Y-19266214D01*
X16612500Y-19266214D01*
X16583928Y-19251929D01*
X16569643Y-19223357D01*
X16569643Y-19109072D01*
X16583928Y-19080500D01*
X16612500Y-19066214D01*
X16669643Y-19066214D01*
X16698214Y-19080500D01*
X16712500Y-19109072D01*
X16712500Y-19137643D01*
X16569643Y-19166214D01*
X16826786Y-19251929D02*
X16855357Y-19266214D01*
X16912500Y-19266214D01*
X16941071Y-19251929D01*
X16955357Y-19223357D01*
X16955357Y-19209072D01*
X16941071Y-19180500D01*
X16912500Y-19166214D01*
X16869643Y-19166214D01*
X16841071Y-19151929D01*
X16826786Y-19123357D01*
X16826786Y-19109072D01*
X16841071Y-19080500D01*
X16869643Y-19066214D01*
X16912500Y-19066214D01*
X16941071Y-19080500D01*
X17055357Y-19380500D02*
X17069643Y-19366214D01*
X17098214Y-19323357D01*
X17112500Y-19294786D01*
X17126786Y-19251929D01*
X17141071Y-19180500D01*
X17141071Y-19123357D01*
X17126786Y-19051929D01*
X17112500Y-19009072D01*
X17098214Y-18980500D01*
X17069643Y-18937643D01*
X17055357Y-18923357D01*
X9876500Y-19405500D02*
X9876500Y-19647500D01*
X9755500Y-19526500D02*
X9997500Y-19526500D01*
X9997500Y-19526500D02*
G75*
G03*
X9997500Y-19526500I-121000J0D01*
G01*
X10269643Y-19390786D02*
X10283928Y-19376500D01*
X10312500Y-19362214D01*
X10383928Y-19362214D01*
X10412500Y-19376500D01*
X10426786Y-19390786D01*
X10441071Y-19419357D01*
X10441071Y-19447929D01*
X10426786Y-19490786D01*
X10255357Y-19662214D01*
X10441071Y-19662214D01*
X10569643Y-19633643D02*
X10583928Y-19647929D01*
X10569643Y-19662214D01*
X10555357Y-19647929D01*
X10569643Y-19633643D01*
X10569643Y-19662214D01*
X10841071Y-19462214D02*
X10841071Y-19662214D01*
X10769643Y-19347929D02*
X10698214Y-19562214D01*
X10883928Y-19562214D01*
X10983928Y-19390786D02*
X10998214Y-19376500D01*
X11026786Y-19362214D01*
X11098214Y-19362214D01*
X11126786Y-19376500D01*
X11141071Y-19390786D01*
X11155357Y-19419357D01*
X11155357Y-19447929D01*
X11141071Y-19490786D01*
X10969643Y-19662214D01*
X11155357Y-19662214D01*
X11341071Y-19362214D02*
X11369643Y-19362214D01*
X11398214Y-19376500D01*
X11412500Y-19390786D01*
X11426786Y-19419357D01*
X11441071Y-19476500D01*
X11441071Y-19547929D01*
X11426786Y-19605072D01*
X11412500Y-19633643D01*
X11398214Y-19647929D01*
X11369643Y-19662214D01*
X11341071Y-19662214D01*
X11312500Y-19647929D01*
X11298214Y-19633643D01*
X11283928Y-19605072D01*
X11269643Y-19547929D01*
X11269643Y-19476500D01*
X11283928Y-19419357D01*
X11298214Y-19390786D01*
X11312500Y-19376500D01*
X11341071Y-19362214D01*
X11569643Y-19662214D02*
X11569643Y-19462214D01*
X11569643Y-19490786D02*
X11583928Y-19476500D01*
X11612500Y-19462214D01*
X11655357Y-19462214D01*
X11683928Y-19476500D01*
X11698214Y-19505072D01*
X11698214Y-19662214D01*
X11698214Y-19505072D02*
X11712500Y-19476500D01*
X11741071Y-19462214D01*
X11783928Y-19462214D01*
X11812500Y-19476500D01*
X11826786Y-19505072D01*
X11826786Y-19662214D01*
X11969643Y-19662214D02*
X11969643Y-19462214D01*
X11969643Y-19490786D02*
X11983928Y-19476500D01*
X12012500Y-19462214D01*
X12055357Y-19462214D01*
X12083928Y-19476500D01*
X12098214Y-19505072D01*
X12098214Y-19662214D01*
X12098214Y-19505072D02*
X12112500Y-19476500D01*
X12141071Y-19462214D01*
X12183928Y-19462214D01*
X12212500Y-19476500D01*
X12226786Y-19505072D01*
X12226786Y-19662214D01*
X12812500Y-19347929D02*
X12555357Y-19733643D01*
X13198214Y-19362214D02*
X13226786Y-19362214D01*
X13255357Y-19376500D01*
X13269643Y-19390786D01*
X13283928Y-19419357D01*
X13298214Y-19476500D01*
X13298214Y-19547929D01*
X13283928Y-19605072D01*
X13269643Y-19633643D01*
X13255357Y-19647929D01*
X13226786Y-19662214D01*
X13198214Y-19662214D01*
X13169643Y-19647929D01*
X13155357Y-19633643D01*
X13141071Y-19605072D01*
X13126786Y-19547929D01*
X13126786Y-19476500D01*
X13141071Y-19419357D01*
X13155357Y-19390786D01*
X13169643Y-19376500D01*
X13198214Y-19362214D01*
X13426786Y-19633643D02*
X13441071Y-19647929D01*
X13426786Y-19662214D01*
X13412500Y-19647929D01*
X13426786Y-19633643D01*
X13426786Y-19662214D01*
X13626786Y-19362214D02*
X13655357Y-19362214D01*
X13683928Y-19376500D01*
X13698214Y-19390786D01*
X13712500Y-19419357D01*
X13726786Y-19476500D01*
X13726786Y-19547929D01*
X13712500Y-19605072D01*
X13698214Y-19633643D01*
X13683928Y-19647929D01*
X13655357Y-19662214D01*
X13626786Y-19662214D01*
X13598214Y-19647929D01*
X13583928Y-19633643D01*
X13569643Y-19605072D01*
X13555357Y-19547929D01*
X13555357Y-19476500D01*
X13569643Y-19419357D01*
X13583928Y-19390786D01*
X13598214Y-19376500D01*
X13626786Y-19362214D01*
X13869643Y-19662214D02*
X13926786Y-19662214D01*
X13955357Y-19647929D01*
X13969643Y-19633643D01*
X13998214Y-19590786D01*
X14012500Y-19533643D01*
X14012500Y-19419357D01*
X13998214Y-19390786D01*
X13983928Y-19376500D01*
X13955357Y-19362214D01*
X13898214Y-19362214D01*
X13869643Y-19376500D01*
X13855357Y-19390786D01*
X13841071Y-19419357D01*
X13841071Y-19490786D01*
X13855357Y-19519357D01*
X13869643Y-19533643D01*
X13898214Y-19547929D01*
X13955357Y-19547929D01*
X13983928Y-19533643D01*
X13998214Y-19519357D01*
X14012500Y-19490786D01*
X14283928Y-19362214D02*
X14141071Y-19362214D01*
X14126786Y-19505072D01*
X14141071Y-19490786D01*
X14169643Y-19476500D01*
X14241071Y-19476500D01*
X14269643Y-19490786D01*
X14283928Y-19505072D01*
X14298214Y-19533643D01*
X14298214Y-19605072D01*
X14283928Y-19633643D01*
X14269643Y-19647929D01*
X14241071Y-19662214D01*
X14169643Y-19662214D01*
X14141071Y-19647929D01*
X14126786Y-19633643D01*
X14398214Y-19362214D02*
X14583928Y-19362214D01*
X14483928Y-19476500D01*
X14526786Y-19476500D01*
X14555357Y-19490786D01*
X14569643Y-19505072D01*
X14583928Y-19533643D01*
X14583928Y-19605072D01*
X14569643Y-19633643D01*
X14555357Y-19647929D01*
X14526786Y-19662214D01*
X14441071Y-19662214D01*
X14412500Y-19647929D01*
X14398214Y-19633643D01*
X14698214Y-19362214D02*
X14698214Y-19419357D01*
X14812500Y-19362214D02*
X14812500Y-19419357D01*
X15255357Y-19776500D02*
X15241071Y-19762214D01*
X15212500Y-19719357D01*
X15198214Y-19690786D01*
X15183928Y-19647929D01*
X15169643Y-19576500D01*
X15169643Y-19519357D01*
X15183928Y-19447929D01*
X15198214Y-19405072D01*
X15212500Y-19376500D01*
X15241071Y-19333643D01*
X15255357Y-19319357D01*
X15526786Y-19662214D02*
X15355357Y-19662214D01*
X15441071Y-19662214D02*
X15441071Y-19362214D01*
X15412500Y-19405072D01*
X15383928Y-19433643D01*
X15355357Y-19447929D01*
X15883928Y-19662214D02*
X15883928Y-19362214D01*
X16012500Y-19662214D02*
X16012500Y-19505072D01*
X15998214Y-19476500D01*
X15969643Y-19462214D01*
X15926786Y-19462214D01*
X15898214Y-19476500D01*
X15883928Y-19490786D01*
X16198214Y-19662214D02*
X16169643Y-19647929D01*
X16155357Y-19633643D01*
X16141071Y-19605072D01*
X16141071Y-19519357D01*
X16155357Y-19490786D01*
X16169643Y-19476500D01*
X16198214Y-19462214D01*
X16241071Y-19462214D01*
X16269643Y-19476500D01*
X16283928Y-19490786D01*
X16298214Y-19519357D01*
X16298214Y-19605072D01*
X16283928Y-19633643D01*
X16269643Y-19647929D01*
X16241071Y-19662214D01*
X16198214Y-19662214D01*
X16469643Y-19662214D02*
X16441071Y-19647929D01*
X16426786Y-19619357D01*
X16426786Y-19362214D01*
X16698214Y-19647929D02*
X16669643Y-19662214D01*
X16612500Y-19662214D01*
X16583928Y-19647929D01*
X16569643Y-19619357D01*
X16569643Y-19505072D01*
X16583928Y-19476500D01*
X16612500Y-19462214D01*
X16669643Y-19462214D01*
X16698214Y-19476500D01*
X16712500Y-19505072D01*
X16712500Y-19533643D01*
X16569643Y-19562214D01*
X16812500Y-19776500D02*
X16826786Y-19762214D01*
X16855357Y-19719357D01*
X16869643Y-19690786D01*
X16883928Y-19647929D01*
X16898214Y-19576500D01*
X16898214Y-19519357D01*
X16883928Y-19447929D01*
X16869643Y-19405072D01*
X16855357Y-19376500D01*
X16826786Y-19333643D01*
X16812500Y-19319357D01*
X9960743Y-20011243D02*
X9960743Y-19833757D01*
X9783257Y-19833757D01*
X9783257Y-20011243D01*
X9960743Y-20011243D01*
X9997500Y-19922500D02*
G75*
G03*
X9997500Y-19922500I-125500J0D01*
G01*
X10269643Y-19786786D02*
X10283928Y-19772500D01*
X10312500Y-19758214D01*
X10383928Y-19758214D01*
X10412500Y-19772500D01*
X10426786Y-19786786D01*
X10441071Y-19815357D01*
X10441071Y-19843929D01*
X10426786Y-19886786D01*
X10255357Y-20058214D01*
X10441071Y-20058214D01*
X10569643Y-20029643D02*
X10583928Y-20043929D01*
X10569643Y-20058214D01*
X10555357Y-20043929D01*
X10569643Y-20029643D01*
X10569643Y-20058214D01*
X10855357Y-19758214D02*
X10712500Y-19758214D01*
X10698214Y-19901072D01*
X10712500Y-19886786D01*
X10741071Y-19872500D01*
X10812500Y-19872500D01*
X10841071Y-19886786D01*
X10855357Y-19901072D01*
X10869643Y-19929643D01*
X10869643Y-20001072D01*
X10855357Y-20029643D01*
X10841071Y-20043929D01*
X10812500Y-20058214D01*
X10741071Y-20058214D01*
X10712500Y-20043929D01*
X10698214Y-20029643D01*
X11155357Y-20058214D02*
X10983928Y-20058214D01*
X11069643Y-20058214D02*
X11069643Y-19758214D01*
X11041071Y-19801072D01*
X11012500Y-19829643D01*
X10983928Y-19843929D01*
X11341071Y-19758214D02*
X11369643Y-19758214D01*
X11398214Y-19772500D01*
X11412500Y-19786786D01*
X11426786Y-19815357D01*
X11441071Y-19872500D01*
X11441071Y-19943929D01*
X11426786Y-20001072D01*
X11412500Y-20029643D01*
X11398214Y-20043929D01*
X11369643Y-20058214D01*
X11341071Y-20058214D01*
X11312500Y-20043929D01*
X11298214Y-20029643D01*
X11283928Y-20001072D01*
X11269643Y-19943929D01*
X11269643Y-19872500D01*
X11283928Y-19815357D01*
X11298214Y-19786786D01*
X11312500Y-19772500D01*
X11341071Y-19758214D01*
X11569643Y-20058214D02*
X11569643Y-19858214D01*
X11569643Y-19886786D02*
X11583928Y-19872500D01*
X11612500Y-19858214D01*
X11655357Y-19858214D01*
X11683928Y-19872500D01*
X11698214Y-19901072D01*
X11698214Y-20058214D01*
X11698214Y-19901072D02*
X11712500Y-19872500D01*
X11741071Y-19858214D01*
X11783928Y-19858214D01*
X11812500Y-19872500D01*
X11826786Y-19901072D01*
X11826786Y-20058214D01*
X11969643Y-20058214D02*
X11969643Y-19858214D01*
X11969643Y-19886786D02*
X11983928Y-19872500D01*
X12012500Y-19858214D01*
X12055357Y-19858214D01*
X12083928Y-19872500D01*
X12098214Y-19901072D01*
X12098214Y-20058214D01*
X12098214Y-19901072D02*
X12112500Y-19872500D01*
X12141071Y-19858214D01*
X12183928Y-19858214D01*
X12212500Y-19872500D01*
X12226786Y-19901072D01*
X12226786Y-20058214D01*
X12812500Y-19743929D02*
X12555357Y-20129643D01*
X13198214Y-19758214D02*
X13226786Y-19758214D01*
X13255357Y-19772500D01*
X13269643Y-19786786D01*
X13283928Y-19815357D01*
X13298214Y-19872500D01*
X13298214Y-19943929D01*
X13283928Y-20001072D01*
X13269643Y-20029643D01*
X13255357Y-20043929D01*
X13226786Y-20058214D01*
X13198214Y-20058214D01*
X13169643Y-20043929D01*
X13155357Y-20029643D01*
X13141071Y-20001072D01*
X13126786Y-19943929D01*
X13126786Y-19872500D01*
X13141071Y-19815357D01*
X13155357Y-19786786D01*
X13169643Y-19772500D01*
X13198214Y-19758214D01*
X13426786Y-20029643D02*
X13441071Y-20043929D01*
X13426786Y-20058214D01*
X13412500Y-20043929D01*
X13426786Y-20029643D01*
X13426786Y-20058214D01*
X13626786Y-19758214D02*
X13655357Y-19758214D01*
X13683928Y-19772500D01*
X13698214Y-19786786D01*
X13712500Y-19815357D01*
X13726786Y-19872500D01*
X13726786Y-19943929D01*
X13712500Y-20001072D01*
X13698214Y-20029643D01*
X13683928Y-20043929D01*
X13655357Y-20058214D01*
X13626786Y-20058214D01*
X13598214Y-20043929D01*
X13583928Y-20029643D01*
X13569643Y-20001072D01*
X13555357Y-19943929D01*
X13555357Y-19872500D01*
X13569643Y-19815357D01*
X13583928Y-19786786D01*
X13598214Y-19772500D01*
X13626786Y-19758214D01*
X13869643Y-20058214D02*
X13926786Y-20058214D01*
X13955357Y-20043929D01*
X13969643Y-20029643D01*
X13998214Y-19986786D01*
X14012500Y-19929643D01*
X14012500Y-19815357D01*
X13998214Y-19786786D01*
X13983928Y-19772500D01*
X13955357Y-19758214D01*
X13898214Y-19758214D01*
X13869643Y-19772500D01*
X13855357Y-19786786D01*
X13841071Y-19815357D01*
X13841071Y-19886786D01*
X13855357Y-19915357D01*
X13869643Y-19929643D01*
X13898214Y-19943929D01*
X13955357Y-19943929D01*
X13983928Y-19929643D01*
X13998214Y-19915357D01*
X14012500Y-19886786D01*
X14183928Y-19886786D02*
X14155357Y-19872500D01*
X14141071Y-19858214D01*
X14126786Y-19829643D01*
X14126786Y-19815357D01*
X14141071Y-19786786D01*
X14155357Y-19772500D01*
X14183928Y-19758214D01*
X14241071Y-19758214D01*
X14269643Y-19772500D01*
X14283928Y-19786786D01*
X14298214Y-19815357D01*
X14298214Y-19829643D01*
X14283928Y-19858214D01*
X14269643Y-19872500D01*
X14241071Y-19886786D01*
X14183928Y-19886786D01*
X14155357Y-19901072D01*
X14141071Y-19915357D01*
X14126786Y-19943929D01*
X14126786Y-20001072D01*
X14141071Y-20029643D01*
X14155357Y-20043929D01*
X14183928Y-20058214D01*
X14241071Y-20058214D01*
X14269643Y-20043929D01*
X14283928Y-20029643D01*
X14298214Y-20001072D01*
X14298214Y-19943929D01*
X14283928Y-19915357D01*
X14269643Y-19901072D01*
X14241071Y-19886786D01*
X14469643Y-19886786D02*
X14441071Y-19872500D01*
X14426786Y-19858214D01*
X14412500Y-19829643D01*
X14412500Y-19815357D01*
X14426786Y-19786786D01*
X14441071Y-19772500D01*
X14469643Y-19758214D01*
X14526786Y-19758214D01*
X14555357Y-19772500D01*
X14569643Y-19786786D01*
X14583928Y-19815357D01*
X14583928Y-19829643D01*
X14569643Y-19858214D01*
X14555357Y-19872500D01*
X14526786Y-19886786D01*
X14469643Y-19886786D01*
X14441071Y-19901072D01*
X14426786Y-19915357D01*
X14412500Y-19943929D01*
X14412500Y-20001072D01*
X14426786Y-20029643D01*
X14441071Y-20043929D01*
X14469643Y-20058214D01*
X14526786Y-20058214D01*
X14555357Y-20043929D01*
X14569643Y-20029643D01*
X14583928Y-20001072D01*
X14583928Y-19943929D01*
X14569643Y-19915357D01*
X14555357Y-19901072D01*
X14526786Y-19886786D01*
X14698214Y-19758214D02*
X14698214Y-19815357D01*
X14812500Y-19758214D02*
X14812500Y-19815357D01*
X15255357Y-20172500D02*
X15241071Y-20158214D01*
X15212500Y-20115357D01*
X15198214Y-20086786D01*
X15183928Y-20043929D01*
X15169643Y-19972500D01*
X15169643Y-19915357D01*
X15183928Y-19843929D01*
X15198214Y-19801072D01*
X15212500Y-19772500D01*
X15241071Y-19729643D01*
X15255357Y-19715357D01*
X15526786Y-20058214D02*
X15355357Y-20058214D01*
X15441071Y-20058214D02*
X15441071Y-19758214D01*
X15412500Y-19801072D01*
X15383928Y-19829643D01*
X15355357Y-19843929D01*
X15883928Y-20058214D02*
X15883928Y-19758214D01*
X16012500Y-20058214D02*
X16012500Y-19901072D01*
X15998214Y-19872500D01*
X15969643Y-19858214D01*
X15926786Y-19858214D01*
X15898214Y-19872500D01*
X15883928Y-19886786D01*
X16198214Y-20058214D02*
X16169643Y-20043929D01*
X16155357Y-20029643D01*
X16141071Y-20001072D01*
X16141071Y-19915357D01*
X16155357Y-19886786D01*
X16169643Y-19872500D01*
X16198214Y-19858214D01*
X16241071Y-19858214D01*
X16269643Y-19872500D01*
X16283928Y-19886786D01*
X16298214Y-19915357D01*
X16298214Y-20001072D01*
X16283928Y-20029643D01*
X16269643Y-20043929D01*
X16241071Y-20058214D01*
X16198214Y-20058214D01*
X16469643Y-20058214D02*
X16441071Y-20043929D01*
X16426786Y-20015357D01*
X16426786Y-19758214D01*
X16698214Y-20043929D02*
X16669643Y-20058214D01*
X16612500Y-20058214D01*
X16583928Y-20043929D01*
X16569643Y-20015357D01*
X16569643Y-19901072D01*
X16583928Y-19872500D01*
X16612500Y-19858214D01*
X16669643Y-19858214D01*
X16698214Y-19872500D01*
X16712500Y-19901072D01*
X16712500Y-19929643D01*
X16569643Y-19958214D01*
X16812500Y-20172500D02*
X16826786Y-20158214D01*
X16855357Y-20115357D01*
X16869643Y-20086786D01*
X16883928Y-20043929D01*
X16898214Y-19972500D01*
X16898214Y-19915357D01*
X16883928Y-19843929D01*
X16869643Y-19801072D01*
X16855357Y-19772500D01*
X16826786Y-19729643D01*
X16812500Y-19715357D01*
M02*
