M48
; DRILL file {KiCad (5.1.10)-1} date 07/30/21 10:38:13
; FORMAT={-:-/ absolute / metric / decimal}
; #@! TF.CreationDate,2021-07-30T10:38:13+01:00
; #@! TF.GenerationSoftware,Kicad,Pcbnew,(5.1.10)-1
; #@! TF.FileFunction,Plated,1,4,PTH
FMAT,2
METRIC
T1C0.400
T2C0.700
T3C0.800
T4C0.890
T5C0.970
T6C1.000
T7C1.500
T8C2.290
T9C2.370
T10C2.420
T11C2.510
%
G90
G05
T1
X104.14Y-130.302
X104.14Y-134.874
X104.15Y-62.2
X104.394Y-117.348
X104.648Y-126.746
X105.038Y-72.336
X105.664Y-141.986
X105.838Y-70.936
X106.8Y-89.2
X106.838Y-73.636
X106.838Y-74.936
X106.838Y-76.136
X106.838Y-77.436
X106.934Y-78.994
X108.204Y-109.982
X108.204Y-117.348
X108.712Y-133.604
X108.966Y-115.062
X109.728Y-132.334
X111.0Y-54.6
X111.15Y-64.6
X111.3Y-132.7
X113.03Y-117.348
X113.284Y-101.346
X113.55Y-137.05
X116.84Y-126.492
X117.175Y-132.0
X117.348Y-96.266
X117.856Y-114.3
X118.364Y-87.884
X118.538Y-91.436
X118.618Y-125.73
X119.125Y-105.2
X119.438Y-80.436
X119.438Y-92.336
X119.888Y-89.662
X120.142Y-88.138
X120.15Y-126.4
X120.338Y-93.236
X120.65Y-79.502
X120.9Y-80.9
X120.904Y-113.284
X121.238Y-94.136
X121.35Y-127.55
X121.4Y-53.35
X121.738Y-68.536
X121.738Y-66.036
X121.738Y-67.236
X121.738Y-69.836
X122.0Y-64.45
X122.2Y-62.2
X122.7Y-95.3
X123.9Y-133.25
X124.206Y-69.342
X125.222Y-70.358
X125.73Y-54.61
X126.492Y-71.628
X126.575Y-118.85
X126.746Y-113.284
X127.069Y-123.581
X127.254Y-88.138
X127.508Y-72.644
X129.032Y-76.2
X130.048Y-75.036
X131.572Y-54.61
X132.138Y-73.736
X132.25Y-118.825
X133.538Y-72.436
X134.62Y-88.9
X135.382Y-78.994
X135.382Y-113.284
X135.636Y-53.594
X138.275Y-119.4
X139.5Y-104.05
X139.55Y-102.7
X139.55Y-105.4
X139.55Y-107.0
X139.954Y-65.532
X140.438Y-77.436
X140.438Y-91.436
X141.138Y-78.336
X141.138Y-90.636
X141.138Y-97.036
X141.85Y-118.125
X141.938Y-77.436
X141.938Y-89.836
X142.05Y-132.225
X142.138Y-97.836
X142.738Y-78.336
X142.738Y-89.036
X143.1Y-133.375
X143.225Y-131.325
X143.238Y-98.636
X143.438Y-80.336
X143.46Y-118.165
X144.238Y-81.236
X144.338Y-99.436
X144.35Y-136.15
X145.038Y-80.336
X145.45Y-135.35
X145.796Y-54.864
X146.138Y-71.236
X146.138Y-72.436
X146.138Y-73.736
X146.138Y-75.036
X146.138Y-76.336
X146.138Y-77.536
X146.138Y-80.836
X146.525Y-134.5
X146.85Y-141.425
X147.574Y-79.756
X148.15Y-113.4
X149.025Y-100.3
X149.038Y-87.136
X149.606Y-88.392
X149.606Y-91.948
X149.838Y-86.036
X150.114Y-64.77
X151.138Y-57.236
X151.138Y-96.736
X152.575Y-116.95
X155.4Y-122.4
X155.4Y-125.0
X155.4Y-130.05
X155.448Y-101.092
X155.45Y-123.7
X155.45Y-126.25
X155.45Y-127.5
X155.45Y-128.8
X159.1Y-119.85
X159.15Y-121.3
X159.466Y-102.616
X159.488Y-99.162
X159.52Y-106.02
X160.025Y-118.2
X160.25Y-128.95
X160.425Y-112.525
X161.8Y-108.3
X161.8Y-118.7
X163.05Y-110.7
X163.05Y-118.75
X163.1Y-58.85
X165.15Y-117.8
X165.7Y-94.6
X165.75Y-89.25
X166.357Y-136.157
X166.4Y-108.45
X166.4Y-109.9
X166.4Y-118.85
X166.878Y-137.16
X167.7Y-117.75
X168.825Y-127.5
X169.05Y-118.85
X169.672Y-141.403
X169.875Y-124.975
X169.925Y-122.425
X170.206Y-135.356
X170.65Y-104.2
X170.9Y-123.675
X171.115Y-107.015
X171.3Y-63.45
X171.85Y-110.65
X172.1Y-89.5
X172.879Y-133.953
X173.4Y-53.3
X174.752Y-126.238
X174.8Y-62.2
X176.0Y-84.0
X177.3Y-100.5
X178.0Y-54.4
X179.8Y-58.4
X179.8Y-94.1
X180.6Y-118.6
X182.0Y-87.35
X182.1Y-91.8
X183.225Y-112.525
X183.3Y-101.0
X183.35Y-94.95
X184.3Y-105.65
X184.6Y-75.65
X194.7Y-133.45
T3
X105.41Y-110.276
X105.41Y-112.776
X123.952Y-122.428
X123.952Y-130.048
X131.572Y-122.428
X131.572Y-130.048
X165.862Y-68.62
X165.862Y-71.12
X166.116Y-75.224
X166.116Y-77.724
X173.228Y-68.62
X173.228Y-71.12
X173.228Y-74.97
X173.228Y-77.47
X177.8Y-108.966
X180.3Y-108.966
X180.594Y-68.62
X180.594Y-71.12
X180.594Y-74.97
X180.594Y-77.47
T4
X189.01Y-105.64
X189.01Y-112.34
X191.5Y-105.64
X191.5Y-112.34
T5
X189.01Y-72.39
X189.01Y-74.93
X189.01Y-77.04
X189.01Y-79.09
X191.5Y-72.39
X191.5Y-74.44
X191.5Y-77.04
X191.5Y-79.09
T6
X109.982Y-139.7
X109.982Y-144.78
X112.522Y-139.7
X112.522Y-144.78
X115.062Y-139.7
X115.062Y-144.78
X117.602Y-139.7
X117.602Y-144.78
X120.142Y-139.7
X120.142Y-144.78
X122.682Y-139.7
X122.682Y-144.78
X125.222Y-139.7
X125.222Y-144.78
X127.762Y-139.7
X127.762Y-144.78
X130.302Y-139.7
X130.302Y-144.78
X132.842Y-139.7
X132.842Y-144.78
X135.382Y-139.7
X135.382Y-144.78
X137.922Y-139.7
X137.922Y-144.78
X140.462Y-139.7
X140.462Y-144.78
X143.002Y-139.7
X143.002Y-144.78
X145.542Y-139.7
X145.542Y-144.78
X148.082Y-139.7
X148.082Y-144.78
X150.622Y-139.7
X150.622Y-144.78
X153.162Y-139.7
X153.162Y-144.78
X155.702Y-139.7
X155.702Y-144.78
X158.242Y-139.7
X158.242Y-144.78
X160.782Y-139.7
X160.782Y-144.78
X163.322Y-139.7
X163.322Y-144.78
X165.862Y-139.7
X165.862Y-144.78
X168.402Y-139.7
X168.402Y-144.78
X170.942Y-139.7
X170.942Y-144.78
X173.482Y-139.7
X173.482Y-144.78
X176.022Y-139.7
X176.022Y-144.78
X178.562Y-139.7
X178.562Y-144.78
X181.102Y-139.7
X181.102Y-144.78
X183.642Y-139.7
X183.642Y-144.78
X186.182Y-139.7
X186.182Y-144.78
X186.69Y-121.412
X186.69Y-123.952
X186.69Y-126.492
X186.69Y-129.032
X186.69Y-131.572
X186.69Y-134.112
X188.722Y-139.7
X188.722Y-144.78
T7
X108.458Y-122.428
X113.358Y-122.428
X168.148Y-56.568
X168.148Y-61.468
T8
X194.5Y-102.23
X194.5Y-115.75
X195.31Y-108.99
T9
X194.5Y-68.98
X194.5Y-82.5
X195.31Y-75.74
T10
X191.5Y-92.25
T11
X196.0Y-92.25
T2
X191.2Y-54.25G85X190.3Y-54.25
G05
X191.2Y-64.25G85X190.3Y-64.25
G05
X195.75Y-59.7G85X195.75Y-58.8
G05
T0
M30
