G04 #@! TF.GenerationSoftware,KiCad,Pcbnew,8.0.5*
G04 #@! TF.CreationDate,2024-10-19T15:16:33+01:00*
G04 #@! TF.ProjectId,GfxV9990,47667856-3939-4393-902e-6b696361645f,rev?*
G04 #@! TF.SameCoordinates,Original*
G04 #@! TF.FileFunction,Copper,L1,Top*
G04 #@! TF.FilePolarity,Positive*
%FSLAX46Y46*%
G04 Gerber Fmt 4.6, Leading zero omitted, Abs format (unit mm)*
G04 Created by KiCad (PCBNEW 8.0.5) date 2024-10-19 15:16:33*
%MOMM*%
%LPD*%
G01*
G04 APERTURE LIST*
G04 Aperture macros list*
%AMRoundRect*
0 Rectangle with rounded corners*
0 $1 Rounding radius*
0 $2 $3 $4 $5 $6 $7 $8 $9 X,Y pos of 4 corners*
0 Add a 4 corners polygon primitive as box body*
4,1,4,$2,$3,$4,$5,$6,$7,$8,$9,$2,$3,0*
0 Add four circle primitives for the rounded corners*
1,1,$1+$1,$2,$3*
1,1,$1+$1,$4,$5*
1,1,$1+$1,$6,$7*
1,1,$1+$1,$8,$9*
0 Add four rect primitives between the rounded corners*
20,1,$1+$1,$2,$3,$4,$5,0*
20,1,$1+$1,$4,$5,$6,$7,0*
20,1,$1+$1,$6,$7,$8,$9,0*
20,1,$1+$1,$8,$9,$2,$3,0*%
G04 Aperture macros list end*
G04 #@! TA.AperFunction,SMDPad,CuDef*
%ADD10RoundRect,0.250000X-0.250000X-0.475000X0.250000X-0.475000X0.250000X0.475000X-0.250000X0.475000X0*%
G04 #@! TD*
G04 #@! TA.AperFunction,ComponentPad*
%ADD11R,1.600000X1.600000*%
G04 #@! TD*
G04 #@! TA.AperFunction,ComponentPad*
%ADD12C,1.600000*%
G04 #@! TD*
G04 #@! TA.AperFunction,ComponentPad*
%ADD13R,3.765000X3.765000*%
G04 #@! TD*
G04 #@! TA.AperFunction,ComponentPad*
%ADD14C,3.600000*%
G04 #@! TD*
G04 #@! TA.AperFunction,ComponentPad*
%ADD15R,1.509000X1.509000*%
G04 #@! TD*
G04 #@! TA.AperFunction,ComponentPad*
%ADD16C,1.509000*%
G04 #@! TD*
G04 #@! TA.AperFunction,ComponentPad*
%ADD17C,3.555000*%
G04 #@! TD*
G04 #@! TA.AperFunction,SMDPad,CuDef*
%ADD18RoundRect,0.150000X0.150000X-0.587500X0.150000X0.587500X-0.150000X0.587500X-0.150000X-0.587500X0*%
G04 #@! TD*
G04 #@! TA.AperFunction,SMDPad,CuDef*
%ADD19RoundRect,0.243750X0.243750X0.456250X-0.243750X0.456250X-0.243750X-0.456250X0.243750X-0.456250X0*%
G04 #@! TD*
G04 #@! TA.AperFunction,SMDPad,CuDef*
%ADD20RoundRect,0.243750X-0.456250X0.243750X-0.456250X-0.243750X0.456250X-0.243750X0.456250X0.243750X0*%
G04 #@! TD*
G04 #@! TA.AperFunction,SMDPad,CuDef*
%ADD21RoundRect,0.137500X0.137500X-0.862500X0.137500X0.862500X-0.137500X0.862500X-0.137500X-0.862500X0*%
G04 #@! TD*
G04 #@! TA.AperFunction,SMDPad,CuDef*
%ADD22RoundRect,0.250000X-0.375000X-0.625000X0.375000X-0.625000X0.375000X0.625000X-0.375000X0.625000X0*%
G04 #@! TD*
G04 #@! TA.AperFunction,ComponentPad*
%ADD23RoundRect,0.249999X0.525001X0.525001X-0.525001X0.525001X-0.525001X-0.525001X0.525001X-0.525001X0*%
G04 #@! TD*
G04 #@! TA.AperFunction,ComponentPad*
%ADD24C,1.550000*%
G04 #@! TD*
G04 #@! TA.AperFunction,SMDPad,CuDef*
%ADD25RoundRect,0.150000X-0.150000X0.825000X-0.150000X-0.825000X0.150000X-0.825000X0.150000X0.825000X0*%
G04 #@! TD*
G04 #@! TA.AperFunction,SMDPad,CuDef*
%ADD26RoundRect,0.250000X0.475000X-0.250000X0.475000X0.250000X-0.475000X0.250000X-0.475000X-0.250000X0*%
G04 #@! TD*
G04 #@! TA.AperFunction,SMDPad,CuDef*
%ADD27RoundRect,0.250000X0.250000X0.475000X-0.250000X0.475000X-0.250000X-0.475000X0.250000X-0.475000X0*%
G04 #@! TD*
G04 #@! TA.AperFunction,SMDPad,CuDef*
%ADD28RoundRect,0.250000X-0.475000X0.250000X-0.475000X-0.250000X0.475000X-0.250000X0.475000X0.250000X0*%
G04 #@! TD*
G04 #@! TA.AperFunction,ComponentPad*
%ADD29C,2.300000*%
G04 #@! TD*
G04 #@! TA.AperFunction,SMDPad,CuDef*
%ADD30RoundRect,0.150000X0.825000X0.150000X-0.825000X0.150000X-0.825000X-0.150000X0.825000X-0.150000X0*%
G04 #@! TD*
G04 #@! TA.AperFunction,SMDPad,CuDef*
%ADD31RoundRect,0.243750X0.456250X-0.243750X0.456250X0.243750X-0.456250X0.243750X-0.456250X-0.243750X0*%
G04 #@! TD*
G04 #@! TA.AperFunction,ComponentPad*
%ADD32R,1.422400X1.422400*%
G04 #@! TD*
G04 #@! TA.AperFunction,ComponentPad*
%ADD33C,1.422400*%
G04 #@! TD*
G04 #@! TA.AperFunction,ComponentPad*
%ADD34R,1.700000X1.700000*%
G04 #@! TD*
G04 #@! TA.AperFunction,ComponentPad*
%ADD35O,1.700000X1.700000*%
G04 #@! TD*
G04 #@! TA.AperFunction,SMDPad,CuDef*
%ADD36RoundRect,0.250000X-0.275000X-0.700000X0.275000X-0.700000X0.275000X0.700000X-0.275000X0.700000X0*%
G04 #@! TD*
G04 #@! TA.AperFunction,SMDPad,CuDef*
%ADD37RoundRect,0.243750X-0.243750X-0.456250X0.243750X-0.456250X0.243750X0.456250X-0.243750X0.456250X0*%
G04 #@! TD*
G04 #@! TA.AperFunction,SMDPad,CuDef*
%ADD38R,2.200000X0.500000*%
G04 #@! TD*
G04 #@! TA.AperFunction,SMDPad,CuDef*
%ADD39O,1.600000X0.350000*%
G04 #@! TD*
G04 #@! TA.AperFunction,SMDPad,CuDef*
%ADD40O,0.350000X1.600000*%
G04 #@! TD*
G04 #@! TA.AperFunction,ComponentPad*
%ADD41O,1.300000X2.600000*%
G04 #@! TD*
G04 #@! TA.AperFunction,ComponentPad*
%ADD42O,2.600000X1.300000*%
G04 #@! TD*
G04 #@! TA.AperFunction,ViaPad*
%ADD43C,0.800000*%
G04 #@! TD*
G04 #@! TA.AperFunction,Conductor*
%ADD44C,0.400000*%
G04 #@! TD*
G04 #@! TA.AperFunction,Conductor*
%ADD45C,0.210000*%
G04 #@! TD*
G04 #@! TA.AperFunction,Conductor*
%ADD46C,0.300000*%
G04 #@! TD*
G04 #@! TA.AperFunction,Conductor*
%ADD47C,0.250000*%
G04 #@! TD*
G04 APERTURE END LIST*
D10*
X168280000Y-105410000D03*
X170180000Y-105410000D03*
D11*
X166116000Y-77724000D03*
D12*
X166116000Y-75224000D03*
D11*
X173228000Y-77470000D03*
D12*
X173228000Y-74970000D03*
D11*
X173228000Y-71120000D03*
D12*
X173228000Y-68620000D03*
D11*
X180594000Y-77470000D03*
D12*
X180594000Y-74970000D03*
D11*
X180594000Y-71120000D03*
D12*
X180594000Y-68620000D03*
D11*
X177800000Y-108966000D03*
D12*
X180300000Y-108966000D03*
D13*
X196020000Y-83660000D03*
D14*
X191520000Y-83660000D03*
D15*
X191515000Y-63950000D03*
D16*
X191515000Y-61350000D03*
X191515000Y-66000000D03*
X189025000Y-63950000D03*
X191515000Y-59300000D03*
X189025000Y-66000000D03*
X189025000Y-61840000D03*
X189025000Y-59300000D03*
D17*
X194515000Y-55890000D03*
X195325000Y-62650000D03*
X194515000Y-69410000D03*
D18*
X175138000Y-102807500D03*
X177038000Y-102807500D03*
X176088000Y-100932500D03*
D19*
X170180000Y-108966000D03*
X168305000Y-108966000D03*
D20*
X183388000Y-87630000D03*
X183388000Y-89505000D03*
X162560000Y-81280000D03*
X162560000Y-83155000D03*
X166116000Y-81280000D03*
X166116000Y-83155000D03*
X169418000Y-81280000D03*
X169418000Y-83155000D03*
X172720000Y-81280000D03*
X172720000Y-83155000D03*
X179324000Y-81280000D03*
X179324000Y-83155000D03*
X182626000Y-81280000D03*
X182626000Y-83155000D03*
X176022000Y-81280000D03*
X176022000Y-83155000D03*
D19*
X174498000Y-105410000D03*
X172623000Y-105410000D03*
X174498000Y-108966000D03*
X172623000Y-108966000D03*
D20*
X180340000Y-101092000D03*
X180340000Y-102967000D03*
D21*
X165735000Y-96344000D03*
X167005000Y-96344000D03*
X168275000Y-96344000D03*
X169545000Y-96344000D03*
X170815000Y-96344000D03*
X172085000Y-96344000D03*
X173355000Y-96344000D03*
X174625000Y-96344000D03*
X175895000Y-96344000D03*
X177165000Y-96344000D03*
X178435000Y-96344000D03*
X179705000Y-96344000D03*
X179705000Y-87044000D03*
X178435000Y-87044000D03*
X177165000Y-87044000D03*
X175895000Y-87044000D03*
X174625000Y-87044000D03*
X173355000Y-87044000D03*
X172085000Y-87044000D03*
X170815000Y-87044000D03*
X169545000Y-87044000D03*
X168275000Y-87044000D03*
X167005000Y-87044000D03*
X165735000Y-87044000D03*
D22*
X194304000Y-138938000D03*
X197104000Y-138938000D03*
D23*
X188722000Y-144780000D03*
D24*
X186182000Y-144780000D03*
X183642000Y-144780000D03*
X181102000Y-144780000D03*
X178562000Y-144780000D03*
X176022000Y-144780000D03*
X173482000Y-144780000D03*
X170942000Y-144780000D03*
X168402000Y-144780000D03*
X165862000Y-144780000D03*
X163322000Y-144780000D03*
X160782000Y-144780000D03*
X158242000Y-144780000D03*
X155702000Y-144780000D03*
X153162000Y-144780000D03*
X150622000Y-144780000D03*
X148082000Y-144780000D03*
X145542000Y-144780000D03*
X143002000Y-144780000D03*
X140462000Y-144780000D03*
X137922000Y-144780000D03*
X135382000Y-144780000D03*
X132842000Y-144780000D03*
X130302000Y-144780000D03*
X127762000Y-144780000D03*
X125222000Y-144780000D03*
X122682000Y-144780000D03*
X120142000Y-144780000D03*
X117602000Y-144780000D03*
X115062000Y-144780000D03*
X112522000Y-144780000D03*
X109982000Y-144780000D03*
X188722000Y-139700000D03*
X186182000Y-139700000D03*
X183642000Y-139700000D03*
X181102000Y-139700000D03*
X178562000Y-139700000D03*
X176022000Y-139700000D03*
X173482000Y-139700000D03*
X170942000Y-139700000D03*
X168402000Y-139700000D03*
X165862000Y-139700000D03*
X163322000Y-139700000D03*
X160782000Y-139700000D03*
X158242000Y-139700000D03*
X155702000Y-139700000D03*
X153162000Y-139700000D03*
X150622000Y-139700000D03*
X148082000Y-139700000D03*
X145542000Y-139700000D03*
X143002000Y-139700000D03*
X140462000Y-139700000D03*
X137922000Y-139700000D03*
X135382000Y-139700000D03*
X132842000Y-139700000D03*
X130302000Y-139700000D03*
X127762000Y-139700000D03*
X125222000Y-139700000D03*
X122682000Y-139700000D03*
X120142000Y-139700000D03*
X117602000Y-139700000D03*
X115062000Y-139700000D03*
X112522000Y-139700000D03*
X109982000Y-139700000D03*
D19*
X196517500Y-135382000D03*
X194642500Y-135382000D03*
D25*
X114808000Y-130367000D03*
X113538000Y-130367000D03*
X112268000Y-130367000D03*
X110998000Y-130367000D03*
X109728000Y-130367000D03*
X108458000Y-130367000D03*
X107188000Y-130367000D03*
X107188000Y-135317000D03*
X108458000Y-135317000D03*
X109728000Y-135317000D03*
X110998000Y-135317000D03*
X112268000Y-135317000D03*
X113538000Y-135317000D03*
X114808000Y-135317000D03*
D26*
X104140000Y-133538000D03*
X104140000Y-131638000D03*
D27*
X162682000Y-99161600D03*
X160782000Y-99161600D03*
X162682000Y-106019600D03*
X160782000Y-106019600D03*
D19*
X158242000Y-106019600D03*
X156367000Y-106019600D03*
X158239700Y-102616000D03*
X156364700Y-102616000D03*
X158239700Y-99161600D03*
X156364700Y-99161600D03*
D26*
X181864000Y-57526000D03*
X181864000Y-55626000D03*
X163068000Y-62098000D03*
X163068000Y-60198000D03*
D28*
X163068000Y-55652000D03*
X163068000Y-57552000D03*
D29*
X168148000Y-56568000D03*
X168148000Y-61468000D03*
D30*
X177989000Y-63500000D03*
X177989000Y-62230000D03*
X177989000Y-60960000D03*
X177989000Y-59690000D03*
X177989000Y-58420000D03*
X177989000Y-57150000D03*
X177989000Y-55880000D03*
X173039000Y-55880000D03*
X173039000Y-57150000D03*
X173039000Y-58420000D03*
X173039000Y-59690000D03*
X173039000Y-60960000D03*
X173039000Y-62230000D03*
X173039000Y-63500000D03*
D20*
X181864000Y-59690000D03*
X181864000Y-61565000D03*
D31*
X160528000Y-59690000D03*
X160528000Y-57815000D03*
D32*
X167130000Y-130760000D03*
D33*
X169670000Y-133300000D03*
X169670000Y-130760000D03*
X172210000Y-133300000D03*
X172210000Y-130760000D03*
X174750000Y-133300000D03*
X177290000Y-130760000D03*
X174750000Y-130760000D03*
X177290000Y-128220000D03*
X174750000Y-128220000D03*
X177290000Y-125680000D03*
X174750000Y-125680000D03*
X177290000Y-123140000D03*
X174750000Y-123140000D03*
X177290000Y-120600000D03*
X174750000Y-120600000D03*
X177290000Y-118060000D03*
X174750000Y-115520000D03*
X174750000Y-118060000D03*
X172210000Y-115520000D03*
X172210000Y-118060000D03*
X169670000Y-115520000D03*
X169670000Y-118060000D03*
X167130000Y-115520000D03*
X167130000Y-118060000D03*
X164590000Y-115520000D03*
X164590000Y-118060000D03*
X162050000Y-115520000D03*
X159510000Y-118060000D03*
X162050000Y-118060000D03*
X159510000Y-120600000D03*
X162050000Y-120600000D03*
X159510000Y-123140000D03*
X162050000Y-123140000D03*
X159510000Y-125680000D03*
X162050000Y-125680000D03*
X159510000Y-128220000D03*
X162050000Y-128220000D03*
X159510000Y-130760000D03*
X162050000Y-133300000D03*
X162050000Y-130760000D03*
X164590000Y-133300000D03*
X164590000Y-130760000D03*
X167130000Y-133300000D03*
D34*
X186690000Y-121412000D03*
D35*
X186690000Y-123952000D03*
X186690000Y-126492000D03*
X186690000Y-129032000D03*
X186690000Y-131572000D03*
X186690000Y-134112000D03*
D27*
X162682000Y-102616000D03*
X160782000Y-102616000D03*
D10*
X174630000Y-53340000D03*
X176530000Y-53340000D03*
D11*
X165862000Y-71120000D03*
D12*
X165862000Y-68620000D03*
D28*
X149606000Y-89286000D03*
X149606000Y-91186000D03*
D10*
X104272000Y-106680000D03*
X106172000Y-106680000D03*
D11*
X105410000Y-112776000D03*
D12*
X105410000Y-110276000D03*
D27*
X107884000Y-126746000D03*
X105984000Y-126746000D03*
D10*
X113670000Y-126746000D03*
X115570000Y-126746000D03*
X110048000Y-117348000D03*
X111948000Y-117348000D03*
X122560000Y-54610000D03*
X124460000Y-54610000D03*
X132654000Y-54610000D03*
X134554000Y-54610000D03*
X105288000Y-117348000D03*
X107188000Y-117348000D03*
D36*
X109372000Y-109982000D03*
X112522000Y-109982000D03*
X109423000Y-113792000D03*
X112573000Y-113792000D03*
D19*
X111760000Y-126746000D03*
X109885000Y-126746000D03*
D37*
X118013000Y-124206000D03*
X119888000Y-124206000D03*
X118013000Y-120904000D03*
X119888000Y-120904000D03*
D11*
X123952000Y-130048000D03*
D12*
X131572000Y-130048000D03*
X131572000Y-122428000D03*
X123952000Y-122428000D03*
D29*
X108458000Y-122428000D03*
X113358000Y-122428000D03*
D28*
X183388000Y-91760000D03*
X183388000Y-93660000D03*
D38*
X148078000Y-78848000D03*
X148078000Y-77578000D03*
X148078000Y-76308000D03*
X148078000Y-75038000D03*
X148078000Y-73768000D03*
X148078000Y-72498000D03*
X148078000Y-71228000D03*
X148078000Y-69958000D03*
X148078000Y-68688000D03*
X148078000Y-67418000D03*
X148078000Y-66148000D03*
X148078000Y-64878000D03*
X148078000Y-63608000D03*
X148078000Y-62338000D03*
X148078000Y-61068000D03*
X148078000Y-59798000D03*
X148078000Y-58528000D03*
X148078000Y-57258000D03*
X148078000Y-55988000D03*
X148078000Y-54718000D03*
X137028000Y-54718000D03*
X137028000Y-55988000D03*
X137028000Y-57258000D03*
X137028000Y-58528000D03*
X137028000Y-59798000D03*
X137028000Y-61068000D03*
X137028000Y-62338000D03*
X137028000Y-63608000D03*
X137028000Y-64878000D03*
X137028000Y-66148000D03*
X137028000Y-67418000D03*
X137028000Y-68688000D03*
X137028000Y-69958000D03*
X137028000Y-71228000D03*
X137028000Y-72498000D03*
X137028000Y-73768000D03*
X137028000Y-75038000D03*
X137028000Y-76308000D03*
X137028000Y-77578000D03*
X137028000Y-78848000D03*
D39*
X146660000Y-113092000D03*
X146660000Y-112292000D03*
X146660000Y-111492000D03*
X146660000Y-110692000D03*
X146660000Y-109892000D03*
X146660000Y-109092000D03*
X146660000Y-108292000D03*
X146660000Y-107492000D03*
X146660000Y-106692000D03*
X146660000Y-105892000D03*
X146660000Y-105092000D03*
X146660000Y-104292000D03*
X146660000Y-103492000D03*
X146660000Y-102692000D03*
X146660000Y-101892000D03*
X146660000Y-101092000D03*
X146660000Y-100292000D03*
X146660000Y-99492000D03*
X146660000Y-98692000D03*
X146660000Y-97892000D03*
X146660000Y-97092000D03*
X146660000Y-96292000D03*
X146660000Y-95492000D03*
X146660000Y-94692000D03*
X146660000Y-93892000D03*
X146660000Y-93092000D03*
X146660000Y-92292000D03*
X146660000Y-91492000D03*
X146660000Y-90692000D03*
X146660000Y-89892000D03*
X146660000Y-89092000D03*
X146660000Y-88292000D03*
D40*
X143460000Y-85092000D03*
X142660000Y-85092000D03*
X141860000Y-85092000D03*
X141060000Y-85092000D03*
X140260000Y-85092000D03*
X139460000Y-85092000D03*
X138660000Y-85092000D03*
X137860000Y-85092000D03*
X137060000Y-85092000D03*
X136260000Y-85092000D03*
X135460000Y-85092000D03*
X134660000Y-85092000D03*
X133860000Y-85092000D03*
X133060000Y-85092000D03*
X132260000Y-85092000D03*
X131460000Y-85092000D03*
X130660000Y-85092000D03*
X129860000Y-85092000D03*
X129060000Y-85092000D03*
X128260000Y-85092000D03*
X127460000Y-85092000D03*
X126660000Y-85092000D03*
X125860000Y-85092000D03*
X125060000Y-85092000D03*
X124260000Y-85092000D03*
X123460000Y-85092000D03*
X122660000Y-85092000D03*
X121860000Y-85092000D03*
X121060000Y-85092000D03*
X120260000Y-85092000D03*
X119460000Y-85092000D03*
X118660000Y-85092000D03*
D39*
X115460000Y-88292000D03*
X115460000Y-89092000D03*
X115460000Y-89892000D03*
X115460000Y-90692000D03*
X115460000Y-91492000D03*
X115460000Y-92292000D03*
X115460000Y-93092000D03*
X115460000Y-93892000D03*
X115460000Y-94692000D03*
X115460000Y-95492000D03*
X115460000Y-96292000D03*
X115460000Y-97092000D03*
X115460000Y-97892000D03*
X115460000Y-98692000D03*
X115460000Y-99492000D03*
X115460000Y-100292000D03*
X115460000Y-101092000D03*
X115460000Y-101892000D03*
X115460000Y-102692000D03*
X115460000Y-103492000D03*
X115460000Y-104292000D03*
X115460000Y-105092000D03*
X115460000Y-105892000D03*
X115460000Y-106692000D03*
X115460000Y-107492000D03*
X115460000Y-108292000D03*
X115460000Y-109092000D03*
X115460000Y-109892000D03*
X115460000Y-110692000D03*
X115460000Y-111492000D03*
X115460000Y-112292000D03*
X115460000Y-113092000D03*
D40*
X118660000Y-116292000D03*
X119460000Y-116292000D03*
X120260000Y-116292000D03*
X121060000Y-116292000D03*
X121860000Y-116292000D03*
X122660000Y-116292000D03*
X123460000Y-116292000D03*
X124260000Y-116292000D03*
X125060000Y-116292000D03*
X125860000Y-116292000D03*
X126660000Y-116292000D03*
X127460000Y-116292000D03*
X128260000Y-116292000D03*
X129060000Y-116292000D03*
X129860000Y-116292000D03*
X130660000Y-116292000D03*
X131460000Y-116292000D03*
X132260000Y-116292000D03*
X133060000Y-116292000D03*
X133860000Y-116292000D03*
X134660000Y-116292000D03*
X135460000Y-116292000D03*
X136260000Y-116292000D03*
X137060000Y-116292000D03*
X137860000Y-116292000D03*
X138660000Y-116292000D03*
X139460000Y-116292000D03*
X140260000Y-116292000D03*
X141060000Y-116292000D03*
X141860000Y-116292000D03*
X142660000Y-116292000D03*
X143460000Y-116292000D03*
D38*
X119821000Y-78721000D03*
X119821000Y-77451000D03*
X119821000Y-76181000D03*
X119821000Y-74911000D03*
X119821000Y-73641000D03*
X119821000Y-72371000D03*
X119821000Y-71101000D03*
X119821000Y-69831000D03*
X119821000Y-68561000D03*
X119821000Y-67291000D03*
X119821000Y-66021000D03*
X119821000Y-64751000D03*
X119821000Y-63481000D03*
X119821000Y-62211000D03*
X119821000Y-60941000D03*
X119821000Y-59671000D03*
X119821000Y-58401000D03*
X119821000Y-57131000D03*
X119821000Y-55861000D03*
X119821000Y-54591000D03*
X108771000Y-54591000D03*
X108771000Y-55861000D03*
X108771000Y-57131000D03*
X108771000Y-58401000D03*
X108771000Y-59671000D03*
X108771000Y-60941000D03*
X108771000Y-62211000D03*
X108771000Y-63481000D03*
X108771000Y-64751000D03*
X108771000Y-66021000D03*
X108771000Y-67291000D03*
X108771000Y-68561000D03*
X108771000Y-69831000D03*
X108771000Y-71101000D03*
X108771000Y-72371000D03*
X108771000Y-73641000D03*
X108771000Y-74911000D03*
X108771000Y-76181000D03*
X108771000Y-77451000D03*
X108771000Y-78721000D03*
D37*
X138150000Y-129125000D03*
X140025000Y-129125000D03*
X138250000Y-125775000D03*
X140125000Y-125775000D03*
X138150000Y-122350000D03*
X140025000Y-122350000D03*
D41*
X195721600Y-107362000D03*
D42*
X190721600Y-102362000D03*
X190721600Y-112362000D03*
X190721600Y-104862000D03*
X190721600Y-109862000D03*
D43*
X148150000Y-113400000D03*
X113030000Y-117348000D03*
X122000000Y-64450000D03*
X165750000Y-89250000D03*
X149606000Y-88392000D03*
X125730000Y-54610000D03*
X109728000Y-132334000D03*
X104140000Y-130302000D03*
X150114000Y-64770000D03*
X178000000Y-54400000D03*
X120904000Y-113284000D03*
X111150000Y-64600000D03*
X174800000Y-62200000D03*
X155448000Y-101092000D03*
X135382000Y-78994000D03*
X135636000Y-53594000D03*
X108204000Y-117348000D03*
X149025000Y-100300000D03*
X120142000Y-88138000D03*
X119125000Y-105200000D03*
X173990000Y-93980000D03*
X126746000Y-113284000D03*
X111000000Y-54600000D03*
X108204000Y-109982000D03*
X179800000Y-58400000D03*
X170650000Y-104200000D03*
X183350000Y-94950000D03*
X163100000Y-58850000D03*
X171850000Y-110650000D03*
X165700000Y-94600000D03*
X139954000Y-65532000D03*
X104648000Y-126746000D03*
X116840000Y-126492000D03*
X134620000Y-88900000D03*
X176000000Y-84000000D03*
X135382000Y-113284000D03*
X117348000Y-96266000D03*
X106934000Y-78994000D03*
X104140000Y-134874000D03*
X177300000Y-100500000D03*
X131572000Y-54610000D03*
X120650000Y-79502000D03*
X171300000Y-63450000D03*
X127254000Y-88138000D03*
X113550000Y-137050000D03*
X121400000Y-53350000D03*
X172100000Y-89500000D03*
X182000000Y-87350000D03*
X117856000Y-114300000D03*
X149606000Y-91948000D03*
X194700000Y-133450000D03*
X108966000Y-115062000D03*
X173400000Y-53300000D03*
X108712000Y-133604000D03*
X182100000Y-91800000D03*
X113284000Y-101346000D03*
X179800000Y-94100000D03*
X145796000Y-54864000D03*
X104394000Y-117348000D03*
X138275000Y-119400000D03*
X118618000Y-125730000D03*
X148040000Y-79290000D03*
X194250000Y-140300000D03*
X121350000Y-127550000D03*
X127069000Y-124450000D03*
X169650000Y-141350000D03*
X155702000Y-134874000D03*
X161800000Y-112250000D03*
X161800000Y-108300000D03*
X157000000Y-143150000D03*
X164600000Y-143150000D03*
X168350000Y-126800000D03*
X164750000Y-126800000D03*
X172200000Y-138200000D03*
X144300000Y-138200000D03*
X165862000Y-138200000D03*
X146450000Y-136000000D03*
X168402000Y-136000000D03*
X133800000Y-111000000D03*
X179100000Y-114900000D03*
X132600000Y-112000000D03*
X164400000Y-122800000D03*
X153200000Y-118100000D03*
X105664000Y-141986000D03*
X120150000Y-126400000D03*
X151900000Y-132350000D03*
X154350000Y-131350000D03*
X164750000Y-124450000D03*
X169670000Y-124450000D03*
X167130000Y-128450000D03*
X164800000Y-128500000D03*
X174750000Y-137150000D03*
X145500000Y-137150000D03*
X177250000Y-142300000D03*
X146850000Y-142300000D03*
X170900000Y-146800000D03*
X141700000Y-132225000D03*
X182750000Y-129100000D03*
X141700000Y-137000000D03*
X184000000Y-127850000D03*
X132250000Y-118825000D03*
X184900000Y-142350000D03*
X183300000Y-101000000D03*
X190250000Y-68700000D03*
X158550000Y-113650000D03*
X189850000Y-115100000D03*
X181700000Y-131600000D03*
X181600000Y-119350000D03*
X183250000Y-120650000D03*
X183350000Y-126450000D03*
X184400000Y-118100000D03*
X184400000Y-123950000D03*
X126575000Y-118850000D03*
X117175000Y-132000000D03*
X141850000Y-118125000D03*
X123900000Y-133250000D03*
X111300000Y-132700000D03*
X143460000Y-119300000D03*
X139550000Y-102700000D03*
X159488400Y-99161600D03*
X159466000Y-102616000D03*
X139500000Y-104050000D03*
X159519600Y-106019600D03*
X139550000Y-105400000D03*
X171115000Y-107015000D03*
X139550000Y-107000000D03*
X146138000Y-71236000D03*
X149838000Y-86036000D03*
X146138000Y-77536000D03*
X149038000Y-87136000D03*
X104150000Y-62200000D03*
X106800000Y-89200000D03*
X122200000Y-62200000D03*
X122700000Y-95300000D03*
X119438000Y-80436000D03*
X105838000Y-70936000D03*
X121238000Y-94136000D03*
X121738000Y-66036000D03*
X121738000Y-67236000D03*
X120338000Y-93236000D03*
X119438000Y-92336000D03*
X121737998Y-68536000D03*
X121738000Y-69836000D03*
X118538000Y-91436000D03*
X106838000Y-73636000D03*
X124206000Y-69342000D03*
X106838000Y-74936000D03*
X125222000Y-70358000D03*
X106838000Y-76136000D03*
X126492000Y-71628000D03*
X106838000Y-77436000D03*
X127508000Y-72644000D03*
X146138000Y-76336000D03*
X129032000Y-76200002D03*
X146138000Y-75036000D03*
X130047996Y-75036000D03*
X146138000Y-73736000D03*
X132138000Y-73736000D03*
X133538000Y-72436000D03*
X146138000Y-72436000D03*
X105038000Y-72336000D03*
X119887994Y-89662000D03*
X118364000Y-87884000D03*
X120900000Y-80900000D03*
X142738000Y-78336000D03*
X142738000Y-89035998D03*
X141938000Y-89836000D03*
X141675000Y-77550000D03*
X141138000Y-90635996D03*
X140700000Y-80300000D03*
X138275000Y-93825000D03*
X140433000Y-82075000D03*
X151138000Y-96736000D03*
X151138000Y-57236000D03*
X143925000Y-80775000D03*
X140933000Y-97092000D03*
X145150000Y-80975000D03*
X142225000Y-98650000D03*
X146600000Y-80925000D03*
X143300000Y-99675000D03*
X147975000Y-80975000D03*
X144525000Y-100400000D03*
D44*
X173355000Y-94615000D02*
X173990000Y-93980000D01*
X113538000Y-130367000D02*
X113538000Y-129032000D01*
X165735000Y-94635000D02*
X165700000Y-94600000D01*
X155602700Y-100937300D02*
X155448000Y-101092000D01*
X121699000Y-64751000D02*
X122000000Y-64450000D01*
X176022000Y-83678000D02*
X176000000Y-83700000D01*
X135460000Y-116292000D02*
X135460000Y-113362000D01*
X108771000Y-54591000D02*
X110991000Y-54591000D01*
X139300000Y-64878000D02*
X139954000Y-65532000D01*
X146660000Y-100292000D02*
X149017000Y-100292000D01*
X183388000Y-93660000D02*
X183388000Y-94912000D01*
X137028000Y-78848000D02*
X135528000Y-78848000D01*
X177989000Y-58420000D02*
X179780000Y-58420000D01*
X110999000Y-64751000D02*
X111150000Y-64600000D01*
X172623000Y-109877000D02*
X171850000Y-110650000D01*
X137028000Y-66148000D02*
X139338000Y-66148000D01*
X135490000Y-53740000D02*
X135636000Y-53594000D01*
X109372000Y-109982000D02*
X108204000Y-109982000D01*
X173039000Y-57150000D02*
X174800000Y-57150000D01*
X108771000Y-64751000D02*
X108771000Y-66021000D01*
X120142000Y-87630000D02*
X120142000Y-88138000D01*
X177989000Y-54911000D02*
X177989000Y-53789000D01*
X179670000Y-55880000D02*
X179924000Y-55626000D01*
X179924000Y-55626000D02*
X181864000Y-55626000D01*
X150006000Y-64878000D02*
X150114000Y-64770000D01*
X105984000Y-128082000D02*
X105984000Y-126746000D01*
X174460000Y-59690000D02*
X175730000Y-58420000D01*
X176070000Y-55880000D02*
X177989000Y-55880000D01*
X108771000Y-78721000D02*
X107207000Y-78721000D01*
X135490000Y-54718000D02*
X134662000Y-54718000D01*
X177989000Y-53789000D02*
X177540000Y-53340000D01*
X148612000Y-88292000D02*
X149606000Y-89286000D01*
X146660000Y-88292000D02*
X148612000Y-88292000D01*
X165735000Y-96344000D02*
X165735000Y-94635000D01*
X121060000Y-113440000D02*
X120904000Y-113284000D01*
X108771000Y-64751000D02*
X110999000Y-64751000D01*
X118660000Y-86148000D02*
X120142000Y-87630000D01*
X156364700Y-100937300D02*
X156364700Y-106017300D01*
X107188000Y-117348000D02*
X108204000Y-117348000D01*
X148078000Y-64878000D02*
X150006000Y-64878000D01*
X107188000Y-130367000D02*
X107188000Y-129286000D01*
X175730000Y-58420000D02*
X177989000Y-58420000D01*
X119821000Y-64751000D02*
X121699000Y-64751000D01*
X177989000Y-55880000D02*
X179670000Y-55880000D01*
X110991000Y-54591000D02*
X111000000Y-54600000D01*
X156364700Y-100937300D02*
X155602700Y-100937300D01*
X135460000Y-113362000D02*
X135382000Y-113284000D01*
X124460000Y-54610000D02*
X125730000Y-54610000D01*
X107188000Y-129286000D02*
X105984000Y-128082000D01*
X179780000Y-58420000D02*
X179800000Y-58400000D01*
X109728000Y-130367000D02*
X109728000Y-132334000D01*
X121060000Y-116292000D02*
X121060000Y-113440000D01*
X135490000Y-54718000D02*
X135490000Y-53740000D01*
X163068000Y-57552000D02*
X163068000Y-58818000D01*
X126660000Y-116292000D02*
X126660000Y-113370000D01*
X177540000Y-53340000D02*
X176530000Y-53340000D01*
X115460000Y-105092000D02*
X119017000Y-105092000D01*
X119017000Y-105092000D02*
X119125000Y-105200000D01*
X111948000Y-117348000D02*
X113030000Y-117348000D01*
X177989000Y-54911000D02*
X177989000Y-54411000D01*
X113538000Y-129032000D02*
X115570000Y-127000000D01*
X165735000Y-87044000D02*
X165735000Y-89235000D01*
X170180000Y-104670000D02*
X170650000Y-104200000D01*
X115570000Y-126746000D02*
X116586000Y-126746000D01*
X115460000Y-96292000D02*
X117322000Y-96292000D01*
X183388000Y-94912000D02*
X183350000Y-94950000D01*
X173355000Y-96344000D02*
X173355000Y-94615000D01*
X135528000Y-78848000D02*
X135382000Y-78994000D01*
X147842000Y-113092000D02*
X148150000Y-113400000D01*
X117322000Y-96292000D02*
X117348000Y-96266000D01*
X134660000Y-85092000D02*
X134660000Y-88860000D01*
X170180000Y-105410000D02*
X170180000Y-104670000D01*
X139338000Y-66148000D02*
X139954000Y-65532000D01*
X177989000Y-54411000D02*
X178000000Y-54400000D01*
X104140000Y-131638000D02*
X104140000Y-130302000D01*
X149017000Y-100292000D02*
X149025000Y-100300000D01*
X174800000Y-57150000D02*
X176070000Y-55880000D01*
X149606000Y-89286000D02*
X149606000Y-88392000D01*
X146660000Y-113092000D02*
X147842000Y-113092000D01*
X174770000Y-62230000D02*
X174800000Y-62200000D01*
X137028000Y-64878000D02*
X139300000Y-64878000D01*
X173039000Y-62230000D02*
X174770000Y-62230000D01*
X156364700Y-99161600D02*
X156364700Y-100937300D01*
X118660000Y-85092000D02*
X118660000Y-86148000D01*
X173039000Y-59690000D02*
X174460000Y-59690000D01*
X137028000Y-54718000D02*
X135490000Y-54718000D01*
X134660000Y-88860000D02*
X134620000Y-88900000D01*
X107207000Y-78721000D02*
X106934000Y-78994000D01*
X116586000Y-126746000D02*
X116840000Y-126492000D01*
X177989000Y-55880000D02*
X177989000Y-54911000D01*
X163068000Y-58818000D02*
X163068000Y-60198000D01*
X176000000Y-83700000D02*
X176000000Y-84000000D01*
X105984000Y-126746000D02*
X104648000Y-126746000D01*
X163068000Y-58818000D02*
X163100000Y-58850000D01*
X172623000Y-108966000D02*
X172623000Y-109877000D01*
X126660000Y-113370000D02*
X126746000Y-113284000D01*
X165735000Y-89235000D02*
X165750000Y-89250000D01*
X176022000Y-83155000D02*
X176022000Y-83678000D01*
X138250000Y-122000000D02*
X138250000Y-119425000D01*
X118660000Y-116292000D02*
X118660000Y-115104000D01*
X113538000Y-137038000D02*
X113550000Y-137050000D01*
X194642500Y-135382000D02*
X194642500Y-133507500D01*
X138250000Y-125450000D02*
X138250000Y-122000000D01*
X139460000Y-118215000D02*
X138275000Y-119400000D01*
X109423000Y-113792000D02*
X109423000Y-114605000D01*
X149606000Y-91186000D02*
X149606000Y-91948000D01*
X179705000Y-96344000D02*
X179705000Y-94195000D01*
X139460000Y-116292000D02*
X139460000Y-118215000D01*
X118013000Y-125125000D02*
X118618000Y-125730000D01*
X132654000Y-54610000D02*
X131572000Y-54610000D01*
X148500000Y-92292000D02*
X149606000Y-91186000D01*
X109423000Y-114605000D02*
X108966000Y-115062000D01*
X109728000Y-135317000D02*
X108458000Y-135317000D01*
X105288000Y-117348000D02*
X104394000Y-117348000D01*
X145942000Y-54718000D02*
X145796000Y-54864000D01*
X110048000Y-117348000D02*
X110048000Y-116144000D01*
X138250000Y-119425000D02*
X138275000Y-119400000D01*
X121393000Y-53357000D02*
X121400000Y-53350000D01*
X108458000Y-135317000D02*
X108458000Y-133858000D01*
X148040000Y-79290000D02*
X148078000Y-79252000D01*
X113538000Y-101092000D02*
X113284000Y-101346000D01*
X172085000Y-87044000D02*
X172085000Y-89485000D01*
X121393000Y-54591000D02*
X121393000Y-53357000D01*
X121393000Y-54591000D02*
X122541000Y-54591000D01*
X118013000Y-120904000D02*
X118013000Y-124206000D01*
X118660000Y-115104000D02*
X117856000Y-114300000D01*
X108458000Y-133858000D02*
X108712000Y-133604000D01*
X182280000Y-87630000D02*
X182000000Y-87350000D01*
X183388000Y-91760000D02*
X182140000Y-91760000D01*
X194642500Y-133507500D02*
X194700000Y-133450000D01*
X119869000Y-78721000D02*
X120650000Y-79502000D01*
X148078000Y-54718000D02*
X145942000Y-54718000D01*
X171350000Y-63500000D02*
X171300000Y-63450000D01*
X138250000Y-125450000D02*
X138250000Y-128850000D01*
X127460000Y-87932000D02*
X127254000Y-88138000D01*
X114808000Y-135317000D02*
X112268000Y-135317000D01*
X173039000Y-63500000D02*
X171350000Y-63500000D01*
X176088000Y-100870000D02*
X176930000Y-100870000D01*
X110048000Y-116144000D02*
X108966000Y-115062000D01*
X174630000Y-53340000D02*
X173440000Y-53340000D01*
X104140000Y-133538000D02*
X104140000Y-134874000D01*
X148078000Y-79252000D02*
X148078000Y-78848000D01*
X118013000Y-124206000D02*
X118013000Y-125125000D01*
X113538000Y-135317000D02*
X113538000Y-137038000D01*
X183388000Y-87630000D02*
X182280000Y-87630000D01*
X179705000Y-94195000D02*
X179800000Y-94100000D01*
X172085000Y-89485000D02*
X172100000Y-89500000D01*
X115460000Y-101092000D02*
X113538000Y-101092000D01*
X173440000Y-53340000D02*
X173400000Y-53300000D01*
X182140000Y-91760000D02*
X182100000Y-91800000D01*
X146660000Y-92292000D02*
X148500000Y-92292000D01*
X119821000Y-54591000D02*
X121393000Y-54591000D01*
X127460000Y-85092000D02*
X127460000Y-87932000D01*
X176930000Y-100870000D02*
X177300000Y-100500000D01*
D45*
X174700000Y-65000000D02*
X169200000Y-65000000D01*
X169200000Y-65000000D02*
X168148000Y-63948000D01*
X160528000Y-61128000D02*
X161498000Y-62098000D01*
X163068000Y-62098000D02*
X164952000Y-62098000D01*
X161498000Y-62098000D02*
X163068000Y-62098000D01*
X168148000Y-63948000D02*
X168148000Y-61468000D01*
X160528000Y-59690000D02*
X160528000Y-61128000D01*
X165582000Y-61468000D02*
X168148000Y-61468000D01*
X164952000Y-62098000D02*
X165582000Y-61468000D01*
X176200000Y-63500000D02*
X174700000Y-65000000D01*
X177989000Y-63500000D02*
X176200000Y-63500000D01*
X175500000Y-60350000D02*
X176110000Y-60960000D01*
X168148000Y-56568000D02*
X169568000Y-56568000D01*
X169568000Y-56568000D02*
X169950000Y-56950000D01*
X163068000Y-55652000D02*
X164952000Y-55652000D01*
X176110000Y-60960000D02*
X177989000Y-60960000D01*
X165868000Y-56568000D02*
X168148000Y-56568000D01*
X177989000Y-62230000D02*
X177989000Y-60960000D01*
X161398000Y-55652000D02*
X163068000Y-55652000D01*
X169950000Y-56950000D02*
X169950000Y-59600000D01*
X169950000Y-59600000D02*
X170700000Y-60350000D01*
X170700000Y-60350000D02*
X175500000Y-60350000D01*
X160528000Y-56522000D02*
X161398000Y-55652000D01*
X160528000Y-57815000D02*
X160528000Y-56522000D01*
X164952000Y-55652000D02*
X165868000Y-56568000D01*
X162682000Y-99161600D02*
X166388400Y-99161600D01*
X167005000Y-98545000D02*
X167005000Y-96344000D01*
X166388400Y-99161600D02*
X167005000Y-98545000D01*
X162682000Y-102616000D02*
X165434000Y-102616000D01*
X165434000Y-102616000D02*
X168275000Y-99775000D01*
X168275000Y-99775000D02*
X168275000Y-96344000D01*
X169545000Y-101005000D02*
X164530400Y-106019600D01*
X169545000Y-96344000D02*
X169545000Y-101005000D01*
X164530400Y-106019600D02*
X162682000Y-106019600D01*
X168280000Y-105410000D02*
X168280000Y-104470000D01*
X171050000Y-99650000D02*
X171800000Y-98900000D01*
X168280000Y-104470000D02*
X171050000Y-101700000D01*
X176950000Y-98900000D02*
X177165000Y-98685000D01*
X171050000Y-101700000D02*
X171050000Y-99650000D01*
X168280000Y-105410000D02*
X168280000Y-108941000D01*
X177165000Y-98685000D02*
X177165000Y-96344000D01*
X171800000Y-98900000D02*
X176950000Y-98900000D01*
X183300000Y-60100000D02*
X183300000Y-64175000D01*
X159600000Y-67800000D02*
X159600000Y-90400000D01*
X162200000Y-93000000D02*
X171450000Y-93000000D01*
X159600000Y-90400000D02*
X162200000Y-93000000D01*
X171450000Y-93000000D02*
X172085000Y-93635000D01*
X183300000Y-64175000D02*
X181525000Y-65950000D01*
X181864000Y-57526000D02*
X181864000Y-59690000D01*
X172085000Y-93635000D02*
X172085000Y-96344000D01*
X181525000Y-65950000D02*
X161450000Y-65950000D01*
X181864000Y-59690000D02*
X182890000Y-59690000D01*
X161450000Y-65950000D02*
X159600000Y-67800000D01*
X182890000Y-59690000D02*
X183300000Y-60100000D01*
X162560000Y-81280000D02*
X162560000Y-71890000D01*
X163330000Y-71120000D02*
X165862000Y-71120000D01*
X162560000Y-71890000D02*
X163330000Y-71120000D01*
X166116000Y-77724000D02*
X166116000Y-81280000D01*
X169418000Y-81280000D02*
X169418000Y-78582000D01*
X169418000Y-78582000D02*
X170530000Y-77470000D01*
X170530000Y-77470000D02*
X173228000Y-77470000D01*
D46*
X187650000Y-88850000D02*
X194850000Y-88850000D01*
X187000000Y-88200000D02*
X187650000Y-88850000D01*
X196020000Y-87680000D02*
X196020000Y-83660000D01*
X184900000Y-66800000D02*
X187000000Y-68900000D01*
X177800000Y-66800000D02*
X184900000Y-66800000D01*
X175980000Y-68620000D02*
X177800000Y-66800000D01*
X173228000Y-68620000D02*
X175980000Y-68620000D01*
X187000000Y-68900000D02*
X187000000Y-88200000D01*
X194850000Y-88850000D02*
X196020000Y-87680000D01*
D45*
X176022000Y-81280000D02*
X176022000Y-72022000D01*
X176022000Y-72022000D02*
X175120000Y-71120000D01*
X172720000Y-81280000D02*
X176022000Y-81280000D01*
X175120000Y-71120000D02*
X173228000Y-71120000D01*
X179324000Y-81280000D02*
X179324000Y-80126000D01*
X180594000Y-78856000D02*
X180594000Y-77470000D01*
X179324000Y-80126000D02*
X180594000Y-78856000D01*
X182020000Y-71120000D02*
X180594000Y-71120000D01*
X182626000Y-71726000D02*
X182020000Y-71120000D01*
X182626000Y-81280000D02*
X182626000Y-71726000D01*
X180340000Y-102967000D02*
X180340000Y-108926000D01*
X177800000Y-108966000D02*
X177800000Y-106426000D01*
X177038000Y-105664000D02*
X177038000Y-102870000D01*
X177800000Y-106426000D02*
X177038000Y-105664000D01*
X174498000Y-108966000D02*
X177800000Y-108966000D01*
X114046000Y-118618000D02*
X113157000Y-119507000D01*
X107884000Y-125288000D02*
X107884000Y-126746000D01*
X118110000Y-118618000D02*
X114046000Y-118618000D01*
X108458000Y-122428000D02*
X108458000Y-124714000D01*
X113157000Y-119507000D02*
X109347000Y-119507000D01*
X108458000Y-120396000D02*
X108458000Y-122428000D01*
X109885000Y-126746000D02*
X107884000Y-126746000D01*
X108458000Y-124714000D02*
X107884000Y-125288000D01*
X119460000Y-117268000D02*
X118110000Y-118618000D01*
X109347000Y-119507000D02*
X108458000Y-120396000D01*
X119460000Y-116292000D02*
X119460000Y-117268000D01*
X194250000Y-140300000D02*
X194250000Y-138992000D01*
X113358000Y-120830000D02*
X113358000Y-122428000D01*
X113358000Y-124026000D02*
X113670000Y-124338000D01*
X118618000Y-119380000D02*
X114808000Y-119380000D01*
X111760000Y-126746000D02*
X113670000Y-126746000D01*
X114808000Y-119380000D02*
X113358000Y-120830000D01*
X113358000Y-122428000D02*
X113358000Y-124026000D01*
X120260000Y-116292000D02*
X120260000Y-117738000D01*
X113670000Y-124338000D02*
X113670000Y-126746000D01*
X120260000Y-117738000D02*
X118618000Y-119380000D01*
X196517500Y-135382000D02*
X196517500Y-137032500D01*
X196517500Y-137032500D02*
X197104000Y-137619000D01*
X197104000Y-137619000D02*
X197104000Y-138938000D01*
X122682000Y-135082000D02*
X122682000Y-139700000D01*
X121350000Y-133750000D02*
X122682000Y-135082000D01*
X121350000Y-127550000D02*
X121350000Y-133750000D01*
X129060000Y-116292000D02*
X129060000Y-119160000D01*
X125222000Y-134366000D02*
X125222000Y-139700000D01*
X127069000Y-121151000D02*
X129060000Y-119160000D01*
X127069000Y-132519000D02*
X127069000Y-124450000D01*
X127069000Y-132519000D02*
X125222000Y-134366000D01*
X127069000Y-124450000D02*
X127069000Y-121151000D01*
X169650000Y-138000000D02*
X169650000Y-141350000D01*
X169650000Y-138000000D02*
X170950000Y-136700000D01*
X170950000Y-132310000D02*
X172500000Y-130760000D01*
X170950000Y-132310000D02*
X170950000Y-136700000D01*
X113000000Y-133300000D02*
X115600000Y-133300000D01*
X112268000Y-132568000D02*
X113000000Y-133300000D01*
X120142000Y-142494000D02*
X120142000Y-144780000D01*
X118872000Y-141224000D02*
X120142000Y-142494000D01*
X118872000Y-136572000D02*
X118872000Y-141224000D01*
X115600000Y-133300000D02*
X118872000Y-136572000D01*
X112268000Y-130367000D02*
X112268000Y-132568000D01*
X155702000Y-134874000D02*
X155702000Y-139700000D01*
X158242000Y-140558000D02*
X158242000Y-139700000D01*
X157000000Y-143150000D02*
X157000000Y-141800000D01*
X163250000Y-119800000D02*
X163250000Y-113700000D01*
X165800000Y-131970000D02*
X165800000Y-122350000D01*
X163250000Y-113700000D02*
X161800000Y-112250000D01*
X164600000Y-135830000D02*
X167130000Y-133300000D01*
X164600000Y-135830000D02*
X164600000Y-143150000D01*
X163250000Y-119800000D02*
X165800000Y-122350000D01*
X167130000Y-133300000D02*
X165800000Y-131970000D01*
X157000000Y-141800000D02*
X158242000Y-140558000D01*
X161800000Y-108300000D02*
X146668000Y-108300000D01*
X161500000Y-126900000D02*
X164650000Y-126900000D01*
X168350000Y-113700000D02*
X164550000Y-109900000D01*
X169670000Y-133300000D02*
X168350000Y-131980000D01*
X164550000Y-109900000D02*
X146668000Y-109900000D01*
X164650000Y-126900000D02*
X164750000Y-126800000D01*
X168350000Y-126800000D02*
X168350000Y-113700000D01*
X160782000Y-139700000D02*
X160782000Y-127618000D01*
X160782000Y-127618000D02*
X161500000Y-126900000D01*
X168350000Y-131980000D02*
X168350000Y-126800000D01*
X143850000Y-114800000D02*
X138800000Y-114800000D01*
X138660000Y-114940000D02*
X138660000Y-116292000D01*
X172210000Y-133300000D02*
X172210000Y-138190000D01*
X172210000Y-138190000D02*
X172200000Y-138200000D01*
X144300000Y-138200000D02*
X144300000Y-115250000D01*
X144300000Y-115250000D02*
X143850000Y-114800000D01*
X165862000Y-139700000D02*
X165862000Y-138200000D01*
X138800000Y-114800000D02*
X138660000Y-114940000D01*
X168402000Y-139700000D02*
X168402000Y-136000000D01*
X144575000Y-113750000D02*
X138000000Y-113750000D01*
X146450000Y-136000000D02*
X146450000Y-132200000D01*
X138000000Y-113750000D02*
X137060000Y-114690000D01*
X145575000Y-114750000D02*
X144575000Y-113750000D01*
X145575000Y-131325000D02*
X145575000Y-114750000D01*
X145575000Y-131325000D02*
X146450000Y-132200000D01*
X137060000Y-114690000D02*
X137060000Y-116292000D01*
X134660000Y-114960000D02*
X134660000Y-116292000D01*
X133800000Y-114100000D02*
X134660000Y-114960000D01*
X179100000Y-127500000D02*
X178380000Y-128220000D01*
X179100000Y-114900000D02*
X179100000Y-127500000D01*
X133800000Y-111000000D02*
X133800000Y-114100000D01*
X178380000Y-128220000D02*
X177290000Y-128220000D01*
X133060000Y-116292000D02*
X133060000Y-114260000D01*
X173450000Y-139668000D02*
X173450000Y-127270000D01*
X132600000Y-113800000D02*
X132600000Y-112000000D01*
X164100000Y-122800000D02*
X163200000Y-121900000D01*
X133060000Y-114260000D02*
X132600000Y-113800000D01*
X153200000Y-119000000D02*
X153200000Y-118100000D01*
X153200000Y-119000000D02*
X156100000Y-121900000D01*
X156100000Y-121900000D02*
X163200000Y-121900000D01*
X173450000Y-127270000D02*
X175040000Y-125680000D01*
X164400000Y-122800000D02*
X164100000Y-122800000D01*
X108458000Y-131572000D02*
X105664000Y-134366000D01*
X108458000Y-131318000D02*
X108458000Y-131572000D01*
X105664000Y-134366000D02*
X105664000Y-141986000D01*
X108458000Y-130367000D02*
X108458000Y-131318000D01*
X120150000Y-133950000D02*
X121400000Y-135200000D01*
X121400000Y-141050000D02*
X122682000Y-142332000D01*
X122682000Y-142332000D02*
X122682000Y-144780000D01*
X120150000Y-126400000D02*
X120150000Y-133950000D01*
X121400000Y-135200000D02*
X121400000Y-141050000D01*
X153162000Y-142112000D02*
X153162000Y-144780000D01*
X151900000Y-140850000D02*
X153162000Y-142112000D01*
X151900000Y-132350000D02*
X151900000Y-140850000D01*
X154400000Y-131400000D02*
X154350000Y-131350000D01*
X154400000Y-141500000D02*
X154400000Y-131400000D01*
X155702000Y-144780000D02*
X155702000Y-142802000D01*
X154400000Y-141500000D02*
X155702000Y-142802000D01*
X169670000Y-121120000D02*
X169650000Y-121100000D01*
X157500000Y-125350000D02*
X157500000Y-133250000D01*
X159500000Y-141350000D02*
X158242000Y-142608000D01*
X146660000Y-109092000D02*
X165492000Y-109092000D01*
X169670000Y-124450000D02*
X169670000Y-121700000D01*
X170950000Y-119400000D02*
X170950000Y-114550000D01*
X158350000Y-124500000D02*
X157500000Y-125350000D01*
X158242000Y-142608000D02*
X158242000Y-144780000D01*
X164750000Y-124450000D02*
X164700000Y-124500000D01*
X169670000Y-121700000D02*
X169670000Y-120680000D01*
X169670000Y-130760000D02*
X169670000Y-124450000D01*
X169670000Y-120680000D02*
X170950000Y-119400000D01*
X159500000Y-135250000D02*
X159500000Y-141350000D01*
X157500000Y-133250000D02*
X159500000Y-135250000D01*
X164700000Y-124500000D02*
X158350000Y-124500000D01*
X170950000Y-114550000D02*
X165492000Y-109092000D01*
X169670000Y-121700000D02*
X169670000Y-121120000D01*
X163300000Y-130000000D02*
X164800000Y-128500000D01*
X167130000Y-120480000D02*
X165850000Y-119200000D01*
X165850000Y-112850000D02*
X163700000Y-110700000D01*
X165850000Y-119200000D02*
X165850000Y-112850000D01*
X167130000Y-130760000D02*
X167130000Y-128450000D01*
X163300000Y-136600000D02*
X163300000Y-130000000D01*
X162000000Y-141900000D02*
X162000000Y-137900000D01*
X160782000Y-144780000D02*
X160782000Y-143118000D01*
X167130000Y-128450000D02*
X167130000Y-120480000D01*
X162000000Y-137900000D02*
X163300000Y-136600000D01*
X146668000Y-110700000D02*
X163700000Y-110700000D01*
X160782000Y-143118000D02*
X162000000Y-141900000D01*
X172700000Y-143150000D02*
X174750000Y-141100000D01*
X166450000Y-143150000D02*
X165862000Y-143738000D01*
X144950000Y-132300000D02*
X145500000Y-132850000D01*
X174750000Y-133300000D02*
X174750000Y-137150000D01*
X144950000Y-132300000D02*
X144950000Y-115000000D01*
X144950000Y-115000000D02*
X144250000Y-114300000D01*
X145500000Y-137150000D02*
X145500000Y-132850000D01*
X144250000Y-114300000D02*
X138300000Y-114300000D01*
X174750000Y-137150000D02*
X174750000Y-141100000D01*
X137860000Y-114740000D02*
X137860000Y-116292000D01*
X172700000Y-143150000D02*
X166450000Y-143150000D01*
X165862000Y-143738000D02*
X165862000Y-144780000D01*
X138300000Y-114300000D02*
X137860000Y-114740000D01*
X136260000Y-114315000D02*
X136260000Y-116292000D01*
X146150000Y-130400000D02*
X146150000Y-114425000D01*
X146150000Y-114425000D02*
X144850000Y-113125000D01*
X177250000Y-133260000D02*
X174750000Y-130760000D01*
X147500000Y-131750000D02*
X146150000Y-130400000D01*
X137450000Y-113125000D02*
X136260000Y-114315000D01*
X146850000Y-142300000D02*
X146850000Y-137750000D01*
X147500000Y-137100000D02*
X147500000Y-131750000D01*
X146850000Y-137750000D02*
X147500000Y-137100000D01*
X177250000Y-142300000D02*
X177250000Y-133260000D01*
X144850000Y-113125000D02*
X137450000Y-113125000D01*
X171050000Y-146800000D02*
X181850000Y-146800000D01*
X182400000Y-146250000D02*
X182400000Y-133300000D01*
X141700000Y-137000000D02*
X141700000Y-146300000D01*
X170600000Y-146800000D02*
X170900000Y-146800000D01*
X170900000Y-146800000D02*
X171050000Y-146800000D01*
X133860000Y-118460000D02*
X135675000Y-120275000D01*
X142200000Y-146800000D02*
X170600000Y-146800000D01*
X182400000Y-133300000D02*
X182850000Y-132850000D01*
X181850000Y-146800000D02*
X182400000Y-146250000D01*
X136575000Y-132225000D02*
X141700000Y-132225000D01*
X182850000Y-129200000D02*
X182750000Y-129100000D01*
X135675000Y-120275000D02*
X135675000Y-131325000D01*
X135675000Y-131325000D02*
X136575000Y-132225000D01*
X182850000Y-132850000D02*
X182850000Y-129200000D01*
X141700000Y-146300000D02*
X142200000Y-146800000D01*
X133860000Y-116292000D02*
X133860000Y-118460000D01*
X184900000Y-137000000D02*
X184050000Y-136150000D01*
X132260000Y-118815000D02*
X132250000Y-118825000D01*
X132260000Y-116292000D02*
X132260000Y-118815000D01*
X184050000Y-127900000D02*
X184000000Y-127850000D01*
X184050000Y-136150000D02*
X184050000Y-127900000D01*
X184900000Y-142350000D02*
X184900000Y-137000000D01*
D46*
X183208000Y-101092000D02*
X183300000Y-101000000D01*
X180340000Y-101092000D02*
X183208000Y-101092000D01*
X190250000Y-68700000D02*
X190250000Y-62615000D01*
X190250000Y-62615000D02*
X191515000Y-61350000D01*
D45*
X177989000Y-59690000D02*
X179240000Y-59690000D01*
X181115000Y-61565000D02*
X181864000Y-61565000D01*
X179240000Y-59690000D02*
X181115000Y-61565000D01*
D47*
X189850000Y-128000000D02*
X188818000Y-129032000D01*
X189850000Y-115100000D02*
X189850000Y-128000000D01*
X162050000Y-118060000D02*
X160650000Y-116660000D01*
X160650000Y-115750000D02*
X158550000Y-113650000D01*
X160650000Y-116660000D02*
X160650000Y-115750000D01*
X188818000Y-129032000D02*
X186690000Y-129032000D01*
X181600000Y-131500000D02*
X181700000Y-131600000D01*
X181600000Y-119350000D02*
X181600000Y-131500000D01*
X183350000Y-126450000D02*
X183250000Y-126350000D01*
X183250000Y-126350000D02*
X183250000Y-120650000D01*
X184400000Y-123950000D02*
X184400000Y-118100000D01*
X174498000Y-104140000D02*
X174498000Y-105410000D01*
X175138000Y-102870000D02*
X175138000Y-103500000D01*
X175138000Y-103500000D02*
X174498000Y-104140000D01*
D45*
X183388000Y-89505000D02*
X175255000Y-89505000D01*
X175255000Y-89505000D02*
X174625000Y-88875000D01*
X174625000Y-88875000D02*
X174625000Y-87044000D01*
X124375000Y-133250000D02*
X123900000Y-133250000D01*
X117175000Y-132000000D02*
X115150000Y-132000000D01*
X115150000Y-132000000D02*
X114808000Y-131658000D01*
X126575000Y-119900000D02*
X126000000Y-120475000D01*
X141860000Y-117415000D02*
X141860000Y-125140000D01*
X141860000Y-116292000D02*
X141860000Y-117415000D01*
X126000000Y-131625000D02*
X124375000Y-133250000D01*
X126000000Y-120475000D02*
X126000000Y-131625000D01*
X141860000Y-117415000D02*
X141860000Y-118115000D01*
X114808000Y-131658000D02*
X114808000Y-130367000D01*
X142660000Y-116292000D02*
X141860000Y-116292000D01*
X141860000Y-125140000D02*
X141225000Y-125775000D01*
X126575000Y-118850000D02*
X126575000Y-119900000D01*
X141225000Y-125775000D02*
X140125000Y-125775000D01*
X141860000Y-118115000D02*
X141850000Y-118125000D01*
X110998000Y-131648000D02*
X110998000Y-130367000D01*
X111300000Y-131950000D02*
X110998000Y-131648000D01*
X111300000Y-132700000D02*
X111300000Y-131950000D01*
X159040000Y-112510000D02*
X162050000Y-115520000D01*
X158139000Y-111609000D02*
X159040000Y-112510000D01*
X158091000Y-111609000D02*
X158139000Y-111609000D01*
X157974000Y-111492000D02*
X158091000Y-111609000D01*
X159040000Y-112510000D02*
X158022000Y-111492000D01*
X146660000Y-111492000D02*
X156750000Y-111492000D01*
X158022000Y-111492000D02*
X156750000Y-111492000D01*
X156750000Y-111492000D02*
X157974000Y-111492000D01*
X159510000Y-116510000D02*
X159510000Y-118060000D01*
X146660000Y-112292000D02*
X155292000Y-112292000D01*
X155292000Y-112292000D02*
X159510000Y-116510000D01*
X167005000Y-87044000D02*
X167005000Y-85455000D01*
X162800000Y-85050000D02*
X162560000Y-84810000D01*
X166600000Y-85050000D02*
X162800000Y-85050000D01*
X167005000Y-85455000D02*
X166600000Y-85050000D01*
X162560000Y-84810000D02*
X162560000Y-83155000D01*
X168275000Y-87044000D02*
X168275000Y-84725000D01*
X166116000Y-83966000D02*
X166116000Y-83155000D01*
X168275000Y-84725000D02*
X167800000Y-84250000D01*
X167800000Y-84250000D02*
X166400000Y-84250000D01*
X166400000Y-84250000D02*
X166116000Y-83966000D01*
X143460000Y-116292000D02*
X143460000Y-119300000D01*
X143460000Y-128190000D02*
X142525000Y-129125000D01*
X143460000Y-119300000D02*
X143460000Y-128190000D01*
X142525000Y-129125000D02*
X140025000Y-129125000D01*
X169545000Y-87044000D02*
X169545000Y-84695000D01*
X169418000Y-84568000D02*
X169418000Y-83155000D01*
X169545000Y-84695000D02*
X169418000Y-84568000D01*
X170815000Y-87044000D02*
X170815000Y-86085000D01*
X172720000Y-84180000D02*
X172720000Y-83155000D01*
X170815000Y-86085000D02*
X172720000Y-84180000D01*
X175895000Y-87044000D02*
X175895000Y-85905000D01*
X179050000Y-84550000D02*
X179324000Y-84276000D01*
X177250000Y-84550000D02*
X179050000Y-84550000D01*
X179324000Y-84276000D02*
X179324000Y-83155000D01*
X175895000Y-85905000D02*
X177250000Y-84550000D01*
X182626000Y-84824000D02*
X182626000Y-83155000D01*
X177165000Y-87044000D02*
X177165000Y-85685000D01*
X177165000Y-85685000D02*
X177750000Y-85100000D01*
X177750000Y-85100000D02*
X182350000Y-85100000D01*
X182350000Y-85100000D02*
X182626000Y-84824000D01*
X140025000Y-120525000D02*
X140025000Y-122350000D01*
X140260000Y-120290000D02*
X140025000Y-120525000D01*
X140260000Y-116292000D02*
X140260000Y-120290000D01*
X125860000Y-117980000D02*
X124460000Y-119380000D01*
X125860000Y-116292000D02*
X125860000Y-117980000D01*
X121158000Y-123698000D02*
X120650000Y-124206000D01*
X121666000Y-119380000D02*
X121158000Y-119888000D01*
X120650000Y-124206000D02*
X119888000Y-124206000D01*
X124460000Y-119380000D02*
X121666000Y-119380000D01*
X121158000Y-119888000D02*
X121158000Y-123698000D01*
X123952000Y-118618000D02*
X120650000Y-118618000D01*
X119888000Y-119380000D02*
X119888000Y-120904000D01*
X125060000Y-117510000D02*
X123952000Y-118618000D01*
X125060000Y-116292000D02*
X125060000Y-117510000D01*
X120650000Y-118618000D02*
X119888000Y-119380000D01*
X115460000Y-110692000D02*
X117883000Y-110692000D01*
X158239700Y-99161600D02*
X159488400Y-99161600D01*
X117883000Y-110692000D02*
X125875000Y-102700000D01*
X125875000Y-102700000D02*
X139550000Y-102700000D01*
X159488400Y-99161600D02*
X160782000Y-99161600D01*
X118458000Y-111492000D02*
X125900000Y-104050000D01*
X158239700Y-102616000D02*
X159466000Y-102616000D01*
X159466000Y-102616000D02*
X160782000Y-102616000D01*
X125900000Y-104050000D02*
X139500000Y-104050000D01*
X115460000Y-111492000D02*
X118458000Y-111492000D01*
X115460000Y-112292000D02*
X119158000Y-112292000D01*
X126050000Y-105400000D02*
X139550000Y-105400000D01*
X159519600Y-106019600D02*
X160782000Y-106019600D01*
X119158000Y-112292000D02*
X126050000Y-105400000D01*
X158242000Y-106019600D02*
X159519600Y-106019600D01*
D44*
X115460000Y-109892000D02*
X112612000Y-109892000D01*
X110490000Y-108204000D02*
X112268000Y-109982000D01*
X106172000Y-106680000D02*
X106172000Y-108204000D01*
X106172000Y-108204000D02*
X110490000Y-108204000D01*
X106172000Y-109514000D02*
X105410000Y-110276000D01*
X106172000Y-108204000D02*
X106172000Y-109514000D01*
X107696000Y-112268000D02*
X110236000Y-112268000D01*
X111760000Y-113792000D02*
X112573000Y-113792000D01*
X103632000Y-112776000D02*
X105410000Y-112776000D01*
X114238000Y-113092000D02*
X113538000Y-113792000D01*
X115460000Y-113092000D02*
X114238000Y-113092000D01*
X103124000Y-112268000D02*
X103632000Y-112776000D01*
X105410000Y-112776000D02*
X107188000Y-112776000D01*
X107188000Y-112776000D02*
X107696000Y-112268000D01*
X104272000Y-106680000D02*
X104272000Y-107818000D01*
X104272000Y-107818000D02*
X103124000Y-108966000D01*
X110236000Y-112268000D02*
X111760000Y-113792000D01*
X103124000Y-108966000D02*
X103124000Y-112268000D01*
X113538000Y-113792000D02*
X112573000Y-113792000D01*
D45*
X126450000Y-107000000D02*
X139550000Y-107000000D01*
X122660000Y-116292000D02*
X122660000Y-110790000D01*
X170180000Y-107950000D02*
X171115000Y-107015000D01*
X122660000Y-110790000D02*
X126450000Y-107000000D01*
X170180000Y-108966000D02*
X170180000Y-107950000D01*
X171115000Y-107015000D02*
X172623000Y-105507000D01*
X137938000Y-87536000D02*
X137060000Y-86658000D01*
X146238000Y-86036000D02*
X144738000Y-87536000D01*
X149838000Y-86036000D02*
X146238000Y-86036000D01*
X146138000Y-71236000D02*
X148070000Y-71236000D01*
X144738000Y-87536000D02*
X137938000Y-87536000D01*
X137060000Y-86658000D02*
X137060000Y-85092000D01*
X136260000Y-86858000D02*
X137438000Y-88036000D01*
X146138000Y-77536000D02*
X148036000Y-77536000D01*
X137438000Y-88036000D02*
X145038000Y-88036000D01*
X136260000Y-85092000D02*
X136260000Y-86858000D01*
X145038000Y-88036000D02*
X145938000Y-87136000D01*
X145938000Y-87136000D02*
X149038000Y-87136000D01*
X120260000Y-86360000D02*
X122700000Y-88800000D01*
X104100000Y-62250000D02*
X104150000Y-62200000D01*
X106800000Y-82200000D02*
X104100000Y-79500000D01*
X104100000Y-79500000D02*
X104100000Y-62250000D01*
X120260000Y-85092000D02*
X120260000Y-86360000D01*
X122200000Y-62200000D02*
X119832000Y-62200000D01*
X106800000Y-89200000D02*
X106800000Y-82200000D01*
X122700000Y-88800000D02*
X122700000Y-95300000D01*
X119460000Y-85092000D02*
X119460000Y-80458000D01*
X105838000Y-70936000D02*
X105838000Y-62836000D01*
X119460000Y-80458000D02*
X119438000Y-80436000D01*
X105838000Y-62836000D02*
X106438000Y-62236000D01*
X106438000Y-62236000D02*
X108746000Y-62236000D01*
X108138000Y-81736000D02*
X110838000Y-79036000D01*
X115460000Y-108292000D02*
X112494000Y-108292000D01*
X110838000Y-71236000D02*
X110703000Y-71101000D01*
X112494000Y-108292000D02*
X108138000Y-103936000D01*
X108138000Y-103936000D02*
X108138000Y-81736000D01*
X110838000Y-79036000D02*
X110838000Y-71236000D01*
X110703000Y-71101000D02*
X108771000Y-71101000D01*
X110933000Y-69831000D02*
X108771000Y-69831000D01*
X110838000Y-105736000D02*
X110838000Y-105636000D01*
X110838000Y-105636000D02*
X108638000Y-103436000D01*
X111338000Y-70236000D02*
X110933000Y-69831000D01*
X108638000Y-103436000D02*
X108638000Y-82036000D01*
X112594000Y-107492000D02*
X110838000Y-105736000D01*
X111338000Y-79336000D02*
X111338000Y-70236000D01*
X115460000Y-107492000D02*
X112594000Y-107492000D01*
X108638000Y-82036000D02*
X111338000Y-79336000D01*
X111838000Y-68936000D02*
X111463000Y-68561000D01*
X109138000Y-82436000D02*
X111838000Y-79736000D01*
X112694000Y-106692000D02*
X109138000Y-103136000D01*
X111838000Y-79736000D02*
X111838000Y-68936000D01*
X109138000Y-103136000D02*
X109138000Y-82436000D01*
X115460000Y-106692000D02*
X112694000Y-106692000D01*
X111463000Y-68561000D02*
X108771000Y-68561000D01*
X115460000Y-105892000D02*
X112794000Y-105892000D01*
X112438000Y-67936000D02*
X111793000Y-67291000D01*
X109638000Y-82836000D02*
X112438000Y-80036000D01*
X112438000Y-80036000D02*
X112438000Y-67936000D01*
X111793000Y-67291000D02*
X108771000Y-67291000D01*
X109638000Y-102736000D02*
X109638000Y-82836000D01*
X112794000Y-105892000D02*
X109638000Y-102736000D01*
X121738000Y-66036000D02*
X119836000Y-66036000D01*
X117782000Y-104292000D02*
X121238000Y-100836000D01*
X121238000Y-100836000D02*
X121238000Y-94136000D01*
X115460000Y-104292000D02*
X117782000Y-104292000D01*
X115460000Y-103492000D02*
X117582000Y-103492000D01*
X120338000Y-100736000D02*
X120338000Y-93236000D01*
X121738000Y-67236000D02*
X119876000Y-67236000D01*
X117582000Y-103492000D02*
X120338000Y-100736000D01*
X119821000Y-68561000D02*
X121712998Y-68561000D01*
X119438000Y-100736000D02*
X119438000Y-92336000D01*
X121712998Y-68561000D02*
X121737998Y-68536000D01*
X117482000Y-102692000D02*
X119438000Y-100736000D01*
X115460000Y-102692000D02*
X117482000Y-102692000D01*
X121733000Y-69831000D02*
X121738000Y-69836000D01*
X119821000Y-69831000D02*
X121733000Y-69831000D01*
X117182000Y-101892000D02*
X118538000Y-100536000D01*
X115460000Y-101892000D02*
X117182000Y-101892000D01*
X118538000Y-100536000D02*
X118538000Y-91436000D01*
X112938000Y-80361000D02*
X112938000Y-59936000D01*
X112994000Y-100292000D02*
X110138000Y-97436000D01*
X110138000Y-83161000D02*
X112938000Y-80361000D01*
X112938000Y-59936000D02*
X112673000Y-59671000D01*
X112673000Y-59671000D02*
X108771000Y-59671000D01*
X115460000Y-100292000D02*
X112994000Y-100292000D01*
X110138000Y-97436000D02*
X110138000Y-83161000D01*
X112994000Y-99492000D02*
X110638000Y-97136000D01*
X110638000Y-83536000D02*
X113438000Y-80736000D01*
X113438000Y-80736000D02*
X113438000Y-58736000D01*
X113438000Y-58736000D02*
X113103000Y-58401000D01*
X115460000Y-99492000D02*
X112994000Y-99492000D01*
X110638000Y-97136000D02*
X110638000Y-83536000D01*
X113103000Y-58401000D02*
X108771000Y-58401000D01*
X113433000Y-57131000D02*
X108771000Y-57131000D01*
X111138000Y-96636000D02*
X111138000Y-83936000D01*
X113938000Y-57636000D02*
X113433000Y-57131000D01*
X111138000Y-83936000D02*
X113938000Y-81136000D01*
X113194000Y-98692000D02*
X111138000Y-96636000D01*
X115460000Y-98692000D02*
X113194000Y-98692000D01*
X113938000Y-81136000D02*
X113938000Y-57636000D01*
X115460000Y-97892000D02*
X113194000Y-97892000D01*
X114438000Y-81436000D02*
X114438000Y-56536000D01*
X111638000Y-84236000D02*
X114438000Y-81436000D01*
X113194000Y-97892000D02*
X111638000Y-96336000D01*
X114438000Y-56536000D02*
X113763000Y-55861000D01*
X111638000Y-96336000D02*
X111638000Y-84236000D01*
X113763000Y-55861000D02*
X108771000Y-55861000D01*
X112138000Y-84586000D02*
X114938000Y-81786000D01*
X114938000Y-56636000D02*
X115713000Y-55861000D01*
X114938000Y-81786000D02*
X114938000Y-56636000D01*
X112138000Y-96036000D02*
X112138000Y-84586000D01*
X113194000Y-97092000D02*
X112138000Y-96036000D01*
X115460000Y-97092000D02*
X113194000Y-97092000D01*
X115713000Y-55861000D02*
X119821000Y-55861000D01*
X113594000Y-95492000D02*
X112638000Y-94536000D01*
X112638000Y-94536000D02*
X112638000Y-84986000D01*
X112638000Y-84986000D02*
X115438000Y-82186000D01*
X115438000Y-57726000D02*
X116033000Y-57131000D01*
X116033000Y-57131000D02*
X119821000Y-57131000D01*
X115460000Y-95492000D02*
X113594000Y-95492000D01*
X115438000Y-82186000D02*
X115438000Y-57726000D01*
X115460000Y-94692000D02*
X113794000Y-94692000D01*
X113138000Y-94036000D02*
X113138000Y-85336000D01*
X115938000Y-82536000D02*
X115938000Y-59066000D01*
X115938000Y-59066000D02*
X116603000Y-58401000D01*
X113794000Y-94692000D02*
X113138000Y-94036000D01*
X113138000Y-85336000D02*
X115938000Y-82536000D01*
X116603000Y-58401000D02*
X119821000Y-58401000D01*
X113638000Y-93336000D02*
X113638000Y-85636000D01*
X116438000Y-82836000D02*
X116438000Y-60036000D01*
X115460000Y-93892000D02*
X114194000Y-93892000D01*
X114194000Y-93892000D02*
X113638000Y-93336000D01*
X113638000Y-85636000D02*
X116438000Y-82836000D01*
X116438000Y-60036000D02*
X116803000Y-59671000D01*
X116803000Y-59671000D02*
X119821000Y-59671000D01*
X117233000Y-60941000D02*
X116938000Y-61236000D01*
X114138000Y-92892000D02*
X114338000Y-93092000D01*
X119821000Y-60941000D02*
X117233000Y-60941000D01*
X116938000Y-61236000D02*
X116938000Y-83136000D01*
X114338000Y-93092000D02*
X115460000Y-93092000D01*
X116938000Y-83136000D02*
X114138000Y-85936000D01*
X114138000Y-85936000D02*
X114138000Y-92892000D01*
X119821000Y-63481000D02*
X117693000Y-63481000D01*
X117693000Y-63481000D02*
X117438000Y-63736000D01*
X117438000Y-83436000D02*
X115460000Y-85414000D01*
X117438000Y-63736000D02*
X117438000Y-83436000D01*
X115460000Y-85414000D02*
X115460000Y-88292000D01*
X115460000Y-89092000D02*
X116478000Y-89092000D01*
X116836000Y-88734000D02*
X116836000Y-84838000D01*
X116478000Y-89092000D02*
X116836000Y-88734000D01*
X117938000Y-71436000D02*
X118273000Y-71101000D01*
X118273000Y-71101000D02*
X119821000Y-71101000D01*
X117938000Y-83736000D02*
X117938000Y-71436000D01*
X116836000Y-84838000D02*
X117938000Y-83736000D01*
X119821000Y-76181000D02*
X121781000Y-76181000D01*
X122500000Y-80517000D02*
X121060000Y-81957000D01*
X121781000Y-76181000D02*
X122500000Y-76900000D01*
X122500000Y-76900000D02*
X122500000Y-80517000D01*
X121060000Y-81957000D02*
X121060000Y-85092000D01*
X121860000Y-85092000D02*
X121860000Y-82102000D01*
X121860000Y-82102000D02*
X123200000Y-80762000D01*
X122711000Y-74911000D02*
X119821000Y-74911000D01*
X123200000Y-75400000D02*
X122711000Y-74911000D01*
X123200000Y-80762000D02*
X123200000Y-75400000D01*
X123900000Y-81078000D02*
X123900000Y-74370000D01*
X122660000Y-85092000D02*
X122660000Y-82318000D01*
X119821000Y-73641000D02*
X123171000Y-73641000D01*
X122660000Y-82318000D02*
X123900000Y-81078000D01*
X123900000Y-74370000D02*
X123171000Y-73641000D01*
X123460000Y-85092000D02*
X123460000Y-82534000D01*
X119821000Y-72371000D02*
X122971000Y-72371000D01*
X123460000Y-82534000D02*
X124700000Y-81294000D01*
X124700000Y-74100000D02*
X122971000Y-72371000D01*
X124700000Y-81294000D02*
X124700000Y-74100000D01*
X108771000Y-73641000D02*
X106843000Y-73641000D01*
X106843000Y-73641000D02*
X106838000Y-73636000D01*
X124260000Y-82750000D02*
X125500000Y-81510000D01*
X125500000Y-81510000D02*
X125500000Y-73900000D01*
X124260000Y-85092000D02*
X124260000Y-82750000D01*
X124206000Y-72606000D02*
X124206000Y-69342000D01*
X125500000Y-73900000D02*
X124206000Y-72606000D01*
X106838000Y-74936000D02*
X108746000Y-74936000D01*
X125060000Y-85092000D02*
X125060000Y-82966000D01*
X126200000Y-73700000D02*
X125222000Y-72722000D01*
X126200000Y-81826000D02*
X126200000Y-73700000D01*
X125060000Y-82966000D02*
X126200000Y-81826000D01*
X125222000Y-72722000D02*
X125222000Y-70358000D01*
X106838000Y-76136000D02*
X108726000Y-76136000D01*
X125860000Y-83188000D02*
X125860000Y-85092000D01*
X126900000Y-73500000D02*
X126900000Y-82148000D01*
X126492000Y-73092000D02*
X126900000Y-73500000D01*
X126492000Y-71628000D02*
X126492000Y-73092000D01*
X126900000Y-82148000D02*
X125860000Y-83188000D01*
X106838000Y-77436000D02*
X108756000Y-77436000D01*
X127508000Y-82632000D02*
X126660000Y-83480000D01*
X127508000Y-82632000D02*
X127508000Y-72644000D01*
X126660000Y-83480000D02*
X126660000Y-85092000D01*
X146138000Y-76336000D02*
X148050000Y-76336000D01*
X129032000Y-80518000D02*
X129032000Y-76200002D01*
X128260000Y-85092000D02*
X128260000Y-81290000D01*
X128260000Y-81290000D02*
X129032000Y-80518000D01*
X146138000Y-75036000D02*
X148076000Y-75036000D01*
X129060000Y-85092000D02*
X129060000Y-81714843D01*
X130047996Y-80726847D02*
X130047996Y-75036000D01*
X129060000Y-81714843D02*
X130047996Y-80726847D01*
X146138000Y-73736000D02*
X148046000Y-73736000D01*
X130810000Y-76708000D02*
X132138000Y-75380000D01*
X132138000Y-75380000D02*
X132138000Y-73736000D01*
X130810000Y-81026000D02*
X130810000Y-76708000D01*
X129860000Y-85092000D02*
X129860000Y-81976000D01*
X129860000Y-81976000D02*
X130810000Y-81026000D01*
X146138000Y-72436000D02*
X148016000Y-72436000D01*
X133538000Y-74996000D02*
X133538000Y-72436000D01*
X130660000Y-82446000D02*
X131445000Y-81661000D01*
X131445000Y-81661000D02*
X131445000Y-77089000D01*
X131445000Y-77089000D02*
X133538000Y-74996000D01*
X130660000Y-85092000D02*
X130660000Y-82446000D01*
X131460000Y-82662000D02*
X132207000Y-81915000D01*
X135782000Y-73768000D02*
X137028000Y-73768000D01*
X132207000Y-81915000D02*
X132207000Y-77343000D01*
X131460000Y-85092000D02*
X131460000Y-82662000D01*
X132207000Y-77343000D02*
X135782000Y-73768000D01*
X132260000Y-85092000D02*
X132260000Y-82878000D01*
X135782000Y-75038000D02*
X137028000Y-75038000D01*
X132969000Y-82169000D02*
X132969000Y-77851000D01*
X132969000Y-77851000D02*
X135782000Y-75038000D01*
X132260000Y-82878000D02*
X132969000Y-82169000D01*
X133731000Y-78359000D02*
X135782000Y-76308000D01*
X133060000Y-85092000D02*
X133060000Y-83094000D01*
X133731000Y-82423000D02*
X133731000Y-78359000D01*
X133060000Y-83094000D02*
X133731000Y-82423000D01*
X135782000Y-76308000D02*
X137028000Y-76308000D01*
X133860000Y-83564000D02*
X134366000Y-83058000D01*
X134366000Y-78740000D02*
X135528000Y-77578000D01*
X135528000Y-77578000D02*
X137028000Y-77578000D01*
X134366000Y-83058000D02*
X134366000Y-78740000D01*
X133860000Y-85092000D02*
X133860000Y-83564000D01*
X105073000Y-72371000D02*
X105038000Y-72336000D01*
X108771000Y-72371000D02*
X105073000Y-72371000D01*
X118872000Y-89662000D02*
X119887994Y-89662000D01*
X117842000Y-90692000D02*
X118872000Y-89662000D01*
X115460000Y-90692000D02*
X117842000Y-90692000D01*
X137028000Y-72498000D02*
X138323000Y-72498000D01*
X138323000Y-72498000D02*
X138625000Y-72800000D01*
X138625000Y-72800000D02*
X138625000Y-81736000D01*
X136438000Y-82336000D02*
X135460000Y-83314000D01*
X138625000Y-81736000D02*
X138025000Y-82336000D01*
X138025000Y-82336000D02*
X136438000Y-82336000D01*
X135460000Y-83314000D02*
X135460000Y-85092000D01*
X115460000Y-89892000D02*
X117626000Y-89892000D01*
X117626000Y-89892000D02*
X118364000Y-89154000D01*
X121700000Y-77700000D02*
X121451000Y-77451000D01*
X121700000Y-80100000D02*
X121700000Y-77700000D01*
X121451000Y-77451000D02*
X119821000Y-77451000D01*
X118364000Y-89154000D02*
X118364000Y-87884000D01*
X120900000Y-80900000D02*
X121700000Y-80100000D01*
X150038000Y-84436000D02*
X151838000Y-82636000D01*
X139838000Y-86436000D02*
X144038000Y-86436000D01*
X139460000Y-85092000D02*
X139460000Y-86058000D01*
X146038000Y-84436000D02*
X150038000Y-84436000D01*
X150840000Y-62338000D02*
X148078000Y-62338000D01*
X151838000Y-82636000D02*
X151838000Y-63336000D01*
X144038000Y-86436000D02*
X146038000Y-84436000D01*
X139460000Y-86058000D02*
X139838000Y-86436000D01*
X151838000Y-63336000D02*
X150840000Y-62338000D01*
X149838000Y-81236000D02*
X149038000Y-82036000D01*
X149838000Y-81236000D02*
X149838000Y-70180000D01*
X141060000Y-83814000D02*
X142838000Y-82036000D01*
X142838000Y-82036000D02*
X149038000Y-82036000D01*
X141060000Y-85092000D02*
X141060000Y-83814000D01*
X149838000Y-70180000D02*
X149616000Y-69958000D01*
X149616000Y-69958000D02*
X148078000Y-69958000D01*
X150338000Y-69140000D02*
X150338000Y-81636000D01*
X148078000Y-68688000D02*
X149886000Y-68688000D01*
X143138000Y-82636000D02*
X141860000Y-83914000D01*
X141860000Y-83914000D02*
X141860000Y-85092000D01*
X149886000Y-68688000D02*
X150338000Y-69140000D01*
X150338000Y-81636000D02*
X149338000Y-82636000D01*
X149338000Y-82636000D02*
X143138000Y-82636000D01*
X149738000Y-83136000D02*
X143538000Y-83136000D01*
X150838000Y-68100000D02*
X150838000Y-82036000D01*
X148078000Y-67418000D02*
X150156000Y-67418000D01*
X150838000Y-82036000D02*
X149738000Y-83136000D01*
X150156000Y-67418000D02*
X150838000Y-68100000D01*
X143538000Y-83136000D02*
X142660000Y-84014000D01*
X142660000Y-84014000D02*
X142660000Y-85092000D01*
X143838000Y-83736000D02*
X149938000Y-83736000D01*
X143460000Y-84114000D02*
X143838000Y-83736000D01*
X149938000Y-83736000D02*
X151338000Y-82336000D01*
X143460000Y-85092000D02*
X143460000Y-84114000D01*
X150250000Y-66148000D02*
X148078000Y-66148000D01*
X151338000Y-82336000D02*
X151338000Y-67236000D01*
X151338000Y-67236000D02*
X150250000Y-66148000D01*
X142794002Y-89092000D02*
X142738000Y-89035998D01*
X142738000Y-69636000D02*
X140520000Y-67418000D01*
X140520000Y-67418000D02*
X137028000Y-67418000D01*
X142738000Y-78336000D02*
X142738000Y-69636000D01*
X146660000Y-89092000D02*
X142794002Y-89092000D01*
X141994000Y-89892000D02*
X141938000Y-89836000D01*
X146660000Y-89892000D02*
X141994000Y-89892000D01*
X140286000Y-68688000D02*
X137028000Y-68688000D01*
X141675000Y-77550000D02*
X141700000Y-77525000D01*
X141700000Y-70102000D02*
X140286000Y-68688000D01*
X141700000Y-77525000D02*
X141700000Y-70102000D01*
X141194004Y-90692000D02*
X141138000Y-90635996D01*
X146660000Y-90692000D02*
X141194004Y-90692000D01*
X140675000Y-80275000D02*
X140675000Y-70573000D01*
X140060000Y-69958000D02*
X137028000Y-69958000D01*
X140700000Y-80300000D02*
X140675000Y-80275000D01*
X140675000Y-70573000D02*
X140060000Y-69958000D01*
X138275000Y-93825000D02*
X138312500Y-93862500D01*
X139850000Y-71850000D02*
X139228000Y-71228000D01*
X139850000Y-71850000D02*
X139850000Y-81492000D01*
X143508000Y-91492000D02*
X146660000Y-91492000D01*
X139850000Y-81492000D02*
X140433000Y-82075000D01*
X141137500Y-93862500D02*
X143508000Y-91492000D01*
X139228000Y-71228000D02*
X137028000Y-71228000D01*
X138312500Y-93862500D02*
X141137500Y-93862500D01*
X146660000Y-93092000D02*
X151482000Y-93092000D01*
X141438000Y-53736000D02*
X141138000Y-54036000D01*
X151482000Y-93092000D02*
X152838000Y-91736000D01*
X149838000Y-53736000D02*
X141438000Y-53736000D01*
X141138000Y-54036000D02*
X141138000Y-58260000D01*
X141138000Y-58260000D02*
X139600000Y-59798000D01*
X139600000Y-59798000D02*
X137028000Y-59798000D01*
X152838000Y-91736000D02*
X152838000Y-56736000D01*
X152838000Y-56736000D02*
X149838000Y-53736000D01*
X153338000Y-92036000D02*
X153338000Y-56136000D01*
X151482000Y-93892000D02*
X153338000Y-92036000D01*
X146660000Y-93892000D02*
X151482000Y-93892000D01*
X139646000Y-58528000D02*
X137028000Y-58528000D01*
X140538000Y-57636000D02*
X139646000Y-58528000D01*
X150438000Y-53236000D02*
X140938000Y-53236000D01*
X140538000Y-53636000D02*
X140538000Y-57636000D01*
X153338000Y-56136000D02*
X150438000Y-53236000D01*
X140938000Y-53236000D02*
X140538000Y-53636000D01*
X153838000Y-55536000D02*
X153838000Y-92336000D01*
X139938000Y-56836000D02*
X139938000Y-53236000D01*
X139516000Y-57258000D02*
X139938000Y-56836000D01*
X140438000Y-52736000D02*
X151038000Y-52736000D01*
X151038000Y-52736000D02*
X153838000Y-55536000D01*
X153838000Y-92336000D02*
X151482000Y-94692000D01*
X139938000Y-53236000D02*
X140438000Y-52736000D01*
X137028000Y-57258000D02*
X139516000Y-57258000D01*
X151482000Y-94692000D02*
X146660000Y-94692000D01*
X151482000Y-95492000D02*
X154438000Y-92536000D01*
X154438000Y-55236000D02*
X151438000Y-52236000D01*
X139938000Y-52236000D02*
X139338000Y-52836000D01*
X138886000Y-55988000D02*
X137028000Y-55988000D01*
X154438000Y-92536000D02*
X154438000Y-55236000D01*
X146660000Y-95492000D02*
X151482000Y-95492000D01*
X139338000Y-52836000D02*
X139338000Y-55536000D01*
X139338000Y-55536000D02*
X138886000Y-55988000D01*
X151438000Y-52236000D02*
X139938000Y-52236000D01*
X148078000Y-55988000D02*
X150090000Y-55988000D01*
X151138000Y-57036000D02*
X151138000Y-57236000D01*
X150338000Y-96736000D02*
X149894000Y-96292000D01*
X149894000Y-96292000D02*
X146660000Y-96292000D01*
X151138000Y-96736000D02*
X150338000Y-96736000D01*
X150090000Y-55988000D02*
X151138000Y-57036000D01*
X143575000Y-80425000D02*
X143575000Y-59999000D01*
X143925000Y-80775000D02*
X143575000Y-80425000D01*
X143575000Y-59999000D02*
X146316000Y-57258000D01*
X140933000Y-97092000D02*
X146660000Y-97092000D01*
X146316000Y-57258000D02*
X148078000Y-57258000D01*
X142225000Y-98650000D02*
X142291598Y-98650000D01*
X146297000Y-58528000D02*
X148078000Y-58528000D01*
X145150000Y-80550000D02*
X144138000Y-79538000D01*
X142291598Y-98650000D02*
X143049598Y-97892000D01*
X143049598Y-97892000D02*
X146660000Y-97892000D01*
X144138000Y-60687000D02*
X146297000Y-58528000D01*
X145150000Y-80975000D02*
X145150000Y-80550000D01*
X144138000Y-79538000D02*
X144138000Y-60687000D01*
X146600000Y-80800000D02*
X144675000Y-78875000D01*
X146600000Y-80925000D02*
X146600000Y-80800000D01*
X143300000Y-99675000D02*
X144283000Y-98692000D01*
X146152000Y-59798000D02*
X148078000Y-59798000D01*
X144675000Y-78875000D02*
X144675000Y-61275000D01*
X144675000Y-61275000D02*
X146152000Y-59798000D01*
X144283000Y-98692000D02*
X146660000Y-98692000D01*
X147925000Y-80975000D02*
X145238000Y-78288000D01*
X145433000Y-99492000D02*
X146660000Y-99492000D01*
X145982000Y-61068000D02*
X148078000Y-61068000D01*
X145238000Y-61812000D02*
X145982000Y-61068000D01*
X145238000Y-78288000D02*
X145238000Y-61812000D01*
X144525000Y-100400000D02*
X145433000Y-99492000D01*
X147975000Y-80975000D02*
X147925000Y-80975000D01*
X138660000Y-83614000D02*
X138660000Y-85092000D01*
X139125000Y-72123000D02*
X139125000Y-83149000D01*
X137028000Y-62338000D02*
X135336000Y-62338000D01*
X134938000Y-62736000D02*
X134938000Y-71336000D01*
X138838000Y-71836000D02*
X139125000Y-72123000D01*
X134938000Y-71336000D02*
X135438000Y-71836000D01*
X135336000Y-62338000D02*
X134938000Y-62736000D01*
X135438000Y-71836000D02*
X138838000Y-71836000D01*
X139125000Y-83149000D02*
X138660000Y-83614000D01*
X131460000Y-120284000D02*
X131572000Y-120396000D01*
X131572000Y-120396000D02*
X131572000Y-122428000D01*
X131460000Y-116292000D02*
X131460000Y-120284000D01*
X138438000Y-86936000D02*
X144238000Y-86936000D01*
X137860000Y-85092000D02*
X137860000Y-86358000D01*
X137860000Y-86358000D02*
X138438000Y-86936000D01*
X146138000Y-63436000D02*
X146310000Y-63608000D01*
X146310000Y-63608000D02*
X148078000Y-63608000D01*
X152338000Y-62636000D02*
X151438000Y-61736000D01*
X146238000Y-84936000D02*
X150438000Y-84936000D01*
X144238000Y-86936000D02*
X146238000Y-84936000D01*
X150438000Y-84936000D02*
X152338000Y-83036000D01*
X152338000Y-83036000D02*
X152338000Y-62636000D01*
X146438000Y-61736000D02*
X146138000Y-62036000D01*
X151438000Y-61736000D02*
X146438000Y-61736000D01*
X146138000Y-62036000D02*
X146138000Y-63436000D01*
M02*
