M48
; DRILL file {KiCad 8.0.4} date 2024-08-14T15:54:33+0100
; FORMAT={-:-/ absolute / metric / decimal}
; #@! TF.CreationDate,2024-08-14T15:54:33+01:00
; #@! TF.GenerationSoftware,Kicad,Pcbnew,8.0.4
; #@! TF.FileFunction,Plated,1,4,PTH
FMAT,2
METRIC
; #@! TA.AperFunction,Plated,PTH,ViaDrill
T1C0.400
; #@! TA.AperFunction,Plated,PTH,ComponentDrill
T2C0.700
; #@! TA.AperFunction,Plated,PTH,ComponentDrill
T3C0.800
; #@! TA.AperFunction,Plated,PTH,ComponentDrill
T4C0.970
; #@! TA.AperFunction,Plated,PTH,ComponentDrill
T5C1.000
; #@! TA.AperFunction,Plated,PTH,ComponentDrill
T6C1.500
; #@! TA.AperFunction,Plated,PTH,ComponentDrill
T7C2.370
; #@! TA.AperFunction,Plated,PTH,ComponentDrill
T8C2.420
; #@! TA.AperFunction,Plated,PTH,ComponentDrill
T9C2.510
%
G90
G05
T1
X104.14Y-130.302
X104.14Y-134.874
X104.15Y-62.2
X104.394Y-117.348
X104.648Y-126.746
X105.038Y-72.336
X105.664Y-141.986
X105.838Y-70.936
X106.8Y-89.2
X106.838Y-73.636
X106.838Y-74.936
X106.838Y-76.136
X106.838Y-77.436
X106.934Y-78.994
X108.204Y-109.982
X108.204Y-117.348
X108.712Y-133.604
X108.966Y-115.062
X109.728Y-132.334
X111.0Y-54.6
X111.15Y-64.6
X111.3Y-132.7
X113.03Y-117.348
X113.284Y-101.346
X113.55Y-137.05
X116.84Y-126.492
X117.175Y-132.0
X117.348Y-96.266
X117.856Y-114.3
X118.364Y-87.884
X118.538Y-91.436
X118.618Y-125.73
X119.125Y-105.2
X119.438Y-80.436
X119.438Y-92.336
X119.888Y-89.662
X120.142Y-88.138
X120.15Y-126.4
X120.338Y-93.236
X120.65Y-79.502
X120.9Y-80.9
X120.904Y-113.284
X121.238Y-94.136
X121.35Y-127.55
X121.4Y-53.35
X121.738Y-68.536
X121.738Y-66.036
X121.738Y-67.236
X121.738Y-69.836
X122.0Y-64.45
X122.2Y-62.2
X122.7Y-95.3
X123.9Y-133.25
X124.206Y-69.342
X125.222Y-70.358
X125.73Y-54.61
X126.492Y-71.628
X126.575Y-118.85
X126.746Y-113.284
X127.069Y-124.45
X127.254Y-88.138
X127.508Y-72.644
X129.032Y-76.2
X130.048Y-75.036
X131.572Y-54.61
X132.138Y-73.736
X132.25Y-118.825
X132.6Y-112.0
X133.538Y-72.436
X133.8Y-111.0
X134.62Y-88.9
X135.382Y-78.994
X135.382Y-113.284
X135.636Y-53.594
X138.275Y-93.825
X138.275Y-119.4
X139.5Y-104.05
X139.55Y-102.7
X139.55Y-105.4
X139.55Y-107.0
X139.954Y-65.532
X140.433Y-82.075
X140.7Y-80.3
X140.933Y-97.092
X141.138Y-90.636
X141.675Y-77.55
X141.7Y-132.225
X141.7Y-137.0
X141.85Y-118.125
X141.938Y-89.836
X142.225Y-98.65
X142.738Y-78.336
X142.738Y-89.036
X143.3Y-99.675
X143.46Y-119.3
X143.925Y-80.775
X144.3Y-138.2
X144.525Y-100.4
X145.15Y-80.975
X145.5Y-137.15
X145.796Y-54.864
X146.138Y-71.236
X146.138Y-72.436
X146.138Y-73.736
X146.138Y-75.036
X146.138Y-76.336
X146.138Y-77.536
X146.45Y-136.0
X146.6Y-80.925
X146.85Y-142.3
X147.975Y-80.975
X148.04Y-79.29
X148.15Y-113.4
X149.025Y-100.3
X149.038Y-87.136
X149.606Y-88.392
X149.606Y-91.948
X149.838Y-86.036
X150.114Y-64.77
X151.138Y-57.236
X151.138Y-96.736
X151.9Y-132.35
X153.2Y-118.1
X154.35Y-131.35
X155.448Y-101.092
X155.7Y-135.15
X157.0Y-143.15
X158.55Y-113.65
X159.466Y-102.616
X159.488Y-99.162
X159.52Y-106.02
X161.8Y-108.3
X161.8Y-112.25
X163.1Y-58.85
X164.4Y-122.8
X164.6Y-143.15
X164.75Y-124.45
X164.75Y-126.8
X164.8Y-128.5
X165.7Y-94.6
X165.75Y-89.25
X165.862Y-138.2
X167.13Y-128.45
X168.35Y-126.8
X168.402Y-136.0
X169.65Y-141.35
X169.67Y-124.45
X170.65Y-104.2
X170.9Y-146.8
X171.115Y-107.015
X171.3Y-63.45
X171.85Y-110.65
X172.1Y-89.5
X172.2Y-138.2
X173.4Y-53.3
X173.99Y-93.98
X174.75Y-137.15
X174.8Y-62.2
X176.0Y-84.0
X177.25Y-142.3
X177.3Y-100.5
X178.0Y-54.4
X179.1Y-114.9
X179.8Y-58.4
X179.8Y-94.1
X181.6Y-119.35
X181.7Y-131.6
X182.0Y-87.35
X182.1Y-91.8
X182.75Y-129.1
X183.25Y-120.65
X183.3Y-101.0
X183.35Y-94.95
X183.35Y-126.45
X184.0Y-127.85
X184.4Y-118.1
X184.4Y-123.95
X184.9Y-142.35
X189.85Y-115.1
X190.25Y-68.7
X194.25Y-140.3
X194.7Y-133.45
T3
X105.41Y-110.276
X105.41Y-112.776
X123.952Y-122.428
X123.952Y-130.048
X131.572Y-122.428
X131.572Y-130.048
X159.51Y-118.06
X159.51Y-120.6
X159.51Y-123.14
X159.51Y-125.68
X159.51Y-128.22
X159.51Y-130.76
X162.05Y-115.52
X162.05Y-118.06
X162.05Y-120.6
X162.05Y-123.14
X162.05Y-125.68
X162.05Y-128.22
X162.05Y-130.76
X162.05Y-133.3
X164.59Y-115.52
X164.59Y-118.06
X164.59Y-130.76
X164.59Y-133.3
X165.862Y-68.62
X165.862Y-71.12
X166.116Y-75.224
X166.116Y-77.724
X167.13Y-115.52
X167.13Y-118.06
X167.13Y-130.76
X167.13Y-133.3
X169.67Y-115.52
X169.67Y-118.06
X169.67Y-130.76
X169.67Y-133.3
X172.21Y-115.52
X172.21Y-118.06
X172.21Y-130.76
X172.21Y-133.3
X173.228Y-68.62
X173.228Y-71.12
X173.228Y-74.97
X173.228Y-77.47
X174.75Y-115.52
X174.75Y-118.06
X174.75Y-120.6
X174.75Y-123.14
X174.75Y-125.68
X174.75Y-128.22
X174.75Y-130.76
X174.75Y-133.3
X177.29Y-118.06
X177.29Y-120.6
X177.29Y-123.14
X177.29Y-125.68
X177.29Y-128.22
X177.29Y-130.76
X177.8Y-108.966
X180.3Y-108.966
X180.594Y-68.62
X180.594Y-71.12
X180.594Y-74.97
X180.594Y-77.47
T4
X189.025Y-59.3
X189.025Y-61.84
X189.025Y-63.95
X189.025Y-66.0
X191.515Y-59.3
X191.515Y-61.35
X191.515Y-63.95
X191.515Y-66.0
T5
X109.982Y-139.7
X109.982Y-144.78
X112.522Y-139.7
X112.522Y-144.78
X115.062Y-139.7
X115.062Y-144.78
X117.602Y-139.7
X117.602Y-144.78
X120.142Y-139.7
X120.142Y-144.78
X122.682Y-139.7
X122.682Y-144.78
X125.222Y-139.7
X125.222Y-144.78
X127.762Y-139.7
X127.762Y-144.78
X130.302Y-139.7
X130.302Y-144.78
X132.842Y-139.7
X132.842Y-144.78
X135.382Y-139.7
X135.382Y-144.78
X137.922Y-139.7
X137.922Y-144.78
X140.462Y-139.7
X140.462Y-144.78
X143.002Y-139.7
X143.002Y-144.78
X145.542Y-139.7
X145.542Y-144.78
X148.082Y-139.7
X148.082Y-144.78
X150.622Y-139.7
X150.622Y-144.78
X153.162Y-139.7
X153.162Y-144.78
X155.702Y-139.7
X155.702Y-144.78
X158.242Y-139.7
X158.242Y-144.78
X160.782Y-139.7
X160.782Y-144.78
X163.322Y-139.7
X163.322Y-144.78
X165.862Y-139.7
X165.862Y-144.78
X168.402Y-139.7
X168.402Y-144.78
X170.942Y-139.7
X170.942Y-144.78
X173.482Y-139.7
X173.482Y-144.78
X176.022Y-139.7
X176.022Y-144.78
X178.562Y-139.7
X178.562Y-144.78
X181.102Y-139.7
X181.102Y-144.78
X183.642Y-139.7
X183.642Y-144.78
X186.182Y-139.7
X186.182Y-144.78
X186.69Y-121.412
X186.69Y-123.952
X186.69Y-126.492
X186.69Y-129.032
X186.69Y-131.572
X186.69Y-134.112
X188.722Y-139.7
X188.722Y-144.78
T6
X108.458Y-122.428
X113.358Y-122.428
X168.148Y-56.568
X168.148Y-61.468
T7
X194.515Y-55.89
X194.515Y-69.41
X195.325Y-62.65
T8
X191.52Y-83.66
T9
X196.02Y-83.66
T2
X191.175Y-102.35G85X190.275Y-102.35
G05
X191.175Y-112.35G85X190.275Y-112.35
G05
X195.725Y-107.8G85X195.725Y-106.9
G05
M30
