G04 #@! TF.GenerationSoftware,KiCad,Pcbnew,(5.1.10)-1*
G04 #@! TF.CreationDate,2021-07-30T10:38:07+01:00*
G04 #@! TF.ProjectId,GfxV9990,47667856-3939-4393-902e-6b696361645f,rev?*
G04 #@! TF.SameCoordinates,Original*
G04 #@! TF.FileFunction,Copper,L4,Bot*
G04 #@! TF.FilePolarity,Positive*
%FSLAX46Y46*%
G04 Gerber Fmt 4.6, Leading zero omitted, Abs format (unit mm)*
G04 Created by KiCad (PCBNEW (5.1.10)-1) date 2021-07-30 10:38:07*
%MOMM*%
%LPD*%
G01*
G04 APERTURE LIST*
G04 #@! TA.AperFunction,NonConductor*
%ADD10C,0.300000*%
G04 #@! TD*
G04 #@! TA.AperFunction,ComponentPad*
%ADD11C,3.555000*%
G04 #@! TD*
G04 #@! TA.AperFunction,ComponentPad*
%ADD12C,1.509000*%
G04 #@! TD*
G04 #@! TA.AperFunction,ComponentPad*
%ADD13R,1.509000X1.509000*%
G04 #@! TD*
G04 #@! TA.AperFunction,ComponentPad*
%ADD14C,1.550000*%
G04 #@! TD*
G04 #@! TA.AperFunction,ComponentPad*
%ADD15C,2.300000*%
G04 #@! TD*
G04 #@! TA.AperFunction,ComponentPad*
%ADD16C,1.600000*%
G04 #@! TD*
G04 #@! TA.AperFunction,ComponentPad*
%ADD17R,1.600000X1.600000*%
G04 #@! TD*
G04 #@! TA.AperFunction,ComponentPad*
%ADD18O,2.416000X1.208000*%
G04 #@! TD*
G04 #@! TA.AperFunction,ComponentPad*
%ADD19O,1.208000X2.416000*%
G04 #@! TD*
G04 #@! TA.AperFunction,ComponentPad*
%ADD20O,1.700000X1.700000*%
G04 #@! TD*
G04 #@! TA.AperFunction,ComponentPad*
%ADD21R,1.700000X1.700000*%
G04 #@! TD*
G04 #@! TA.AperFunction,ComponentPad*
%ADD22C,3.600000*%
G04 #@! TD*
G04 #@! TA.AperFunction,ComponentPad*
%ADD23R,3.765000X3.765000*%
G04 #@! TD*
G04 #@! TA.AperFunction,ComponentPad*
%ADD24C,3.306000*%
G04 #@! TD*
G04 #@! TA.AperFunction,ComponentPad*
%ADD25C,1.398000*%
G04 #@! TD*
G04 #@! TA.AperFunction,ComponentPad*
%ADD26R,1.398000X1.398000*%
G04 #@! TD*
G04 #@! TA.AperFunction,ViaPad*
%ADD27C,0.800000*%
G04 #@! TD*
G04 #@! TA.AperFunction,Conductor*
%ADD28C,0.210000*%
G04 #@! TD*
G04 APERTURE END LIST*
D10*
X129739285Y-52035714D02*
X129882142Y-51964285D01*
X130167857Y-51964285D01*
X130310714Y-52035714D01*
X130453571Y-52178571D01*
X130525000Y-52321428D01*
X130525000Y-52607142D01*
X130453571Y-52750000D01*
X130310714Y-52892857D01*
X130167857Y-52964285D01*
X129882142Y-52964285D01*
X129739285Y-52892857D01*
X130025000Y-51464285D02*
X130382142Y-51535714D01*
X130739285Y-51750000D01*
X130953571Y-52107142D01*
X131025000Y-52464285D01*
X130953571Y-52821428D01*
X130739285Y-53178571D01*
X130382142Y-53392857D01*
X130025000Y-53464285D01*
X129667857Y-53392857D01*
X129310714Y-53178571D01*
X129096428Y-52821428D01*
X129025000Y-52464285D01*
X129096428Y-52107142D01*
X129310714Y-51750000D01*
X129667857Y-51535714D01*
X130025000Y-51464285D01*
X127310714Y-51821428D02*
X127239285Y-51750000D01*
X127096428Y-51678571D01*
X126739285Y-51678571D01*
X126596428Y-51750000D01*
X126525000Y-51821428D01*
X126453571Y-51964285D01*
X126453571Y-52107142D01*
X126525000Y-52321428D01*
X127382142Y-53178571D01*
X126453571Y-53178571D01*
X125525000Y-51678571D02*
X125382142Y-51678571D01*
X125239285Y-51750000D01*
X125167857Y-51821428D01*
X125096428Y-51964285D01*
X125025000Y-52250000D01*
X125025000Y-52607142D01*
X125096428Y-52892857D01*
X125167857Y-53035714D01*
X125239285Y-53107142D01*
X125382142Y-53178571D01*
X125525000Y-53178571D01*
X125667857Y-53107142D01*
X125739285Y-53035714D01*
X125810714Y-52892857D01*
X125882142Y-52607142D01*
X125882142Y-52250000D01*
X125810714Y-51964285D01*
X125739285Y-51821428D01*
X125667857Y-51750000D01*
X125525000Y-51678571D01*
X124453571Y-51821428D02*
X124382142Y-51750000D01*
X124239285Y-51678571D01*
X123882142Y-51678571D01*
X123739285Y-51750000D01*
X123667857Y-51821428D01*
X123596428Y-51964285D01*
X123596428Y-52107142D01*
X123667857Y-52321428D01*
X124525000Y-53178571D01*
X123596428Y-53178571D01*
X122167857Y-53178571D02*
X123025000Y-53178571D01*
X122596428Y-53178571D02*
X122596428Y-51678571D01*
X122739285Y-51892857D01*
X122882142Y-52035714D01*
X123025000Y-52107142D01*
X120453571Y-53107142D02*
X120239285Y-53178571D01*
X119882142Y-53178571D01*
X119739285Y-53107142D01*
X119667857Y-53035714D01*
X119596428Y-52892857D01*
X119596428Y-52750000D01*
X119667857Y-52607142D01*
X119739285Y-52535714D01*
X119882142Y-52464285D01*
X120167857Y-52392857D01*
X120310714Y-52321428D01*
X120382142Y-52250000D01*
X120453571Y-52107142D01*
X120453571Y-51964285D01*
X120382142Y-51821428D01*
X120310714Y-51750000D01*
X120167857Y-51678571D01*
X119810714Y-51678571D01*
X119596428Y-51750000D01*
X119167857Y-52178571D02*
X118596428Y-52178571D01*
X118953571Y-51678571D02*
X118953571Y-52964285D01*
X118882142Y-53107142D01*
X118739285Y-53178571D01*
X118596428Y-53178571D01*
X117525000Y-53107142D02*
X117667857Y-53178571D01*
X117953571Y-53178571D01*
X118096428Y-53107142D01*
X118167857Y-52964285D01*
X118167857Y-52392857D01*
X118096428Y-52250000D01*
X117953571Y-52178571D01*
X117667857Y-52178571D01*
X117525000Y-52250000D01*
X117453571Y-52392857D01*
X117453571Y-52535714D01*
X118167857Y-52678571D01*
X116810714Y-52178571D02*
X116810714Y-53678571D01*
X116810714Y-52250000D02*
X116667857Y-52178571D01*
X116382142Y-52178571D01*
X116239285Y-52250000D01*
X116167857Y-52321428D01*
X116096428Y-52464285D01*
X116096428Y-52892857D01*
X116167857Y-53035714D01*
X116239285Y-53107142D01*
X116382142Y-53178571D01*
X116667857Y-53178571D01*
X116810714Y-53107142D01*
X115453571Y-53178571D02*
X115453571Y-51678571D01*
X114810714Y-53178571D02*
X114810714Y-52392857D01*
X114882142Y-52250000D01*
X115025000Y-52178571D01*
X115239285Y-52178571D01*
X115382142Y-52250000D01*
X115453571Y-52321428D01*
X113525000Y-53107142D02*
X113667857Y-53178571D01*
X113953571Y-53178571D01*
X114096428Y-53107142D01*
X114167857Y-52964285D01*
X114167857Y-52392857D01*
X114096428Y-52250000D01*
X113953571Y-52178571D01*
X113667857Y-52178571D01*
X113525000Y-52250000D01*
X113453571Y-52392857D01*
X113453571Y-52535714D01*
X114167857Y-52678571D01*
X112810714Y-52178571D02*
X112810714Y-53178571D01*
X112810714Y-52321428D02*
X112739285Y-52250000D01*
X112596428Y-52178571D01*
X112382142Y-52178571D01*
X112239285Y-52250000D01*
X112167857Y-52392857D01*
X112167857Y-53178571D01*
X110310714Y-53178571D02*
X110310714Y-51678571D01*
X109810714Y-52750000D01*
X109310714Y-51678571D01*
X109310714Y-53178571D01*
X108382142Y-53178571D02*
X108525000Y-53107142D01*
X108596428Y-53035714D01*
X108667857Y-52892857D01*
X108667857Y-52464285D01*
X108596428Y-52321428D01*
X108525000Y-52250000D01*
X108382142Y-52178571D01*
X108167857Y-52178571D01*
X108025000Y-52250000D01*
X107953571Y-52321428D01*
X107882142Y-52464285D01*
X107882142Y-52892857D01*
X107953571Y-53035714D01*
X108025000Y-53107142D01*
X108167857Y-53178571D01*
X108382142Y-53178571D01*
X107025000Y-53178571D02*
X107167857Y-53107142D01*
X107239285Y-53035714D01*
X107310714Y-52892857D01*
X107310714Y-52464285D01*
X107239285Y-52321428D01*
X107167857Y-52250000D01*
X107025000Y-52178571D01*
X106810714Y-52178571D01*
X106667857Y-52250000D01*
X106596428Y-52321428D01*
X106525000Y-52464285D01*
X106525000Y-52892857D01*
X106596428Y-53035714D01*
X106667857Y-53107142D01*
X106810714Y-53178571D01*
X107025000Y-53178571D01*
X105239285Y-53178571D02*
X105239285Y-51678571D01*
X105239285Y-53107142D02*
X105382142Y-53178571D01*
X105667857Y-53178571D01*
X105810714Y-53107142D01*
X105882142Y-53035714D01*
X105953571Y-52892857D01*
X105953571Y-52464285D01*
X105882142Y-52321428D01*
X105810714Y-52250000D01*
X105667857Y-52178571D01*
X105382142Y-52178571D01*
X105239285Y-52250000D01*
X104667857Y-52178571D02*
X104310714Y-53178571D01*
X103953571Y-52178571D02*
X104310714Y-53178571D01*
X104453571Y-53535714D01*
X104525000Y-53607142D01*
X104667857Y-53678571D01*
D11*
X194500000Y-82500000D03*
X195310000Y-75740000D03*
X194500000Y-68980000D03*
D12*
X189010000Y-72390000D03*
X189010000Y-74930000D03*
X189010000Y-79090000D03*
X191500000Y-72390000D03*
X189010000Y-77040000D03*
X191500000Y-79090000D03*
X191500000Y-74440000D03*
D13*
X191500000Y-77040000D03*
D14*
X109982000Y-139700000D03*
X112522000Y-139700000D03*
X115062000Y-139700000D03*
X117602000Y-139700000D03*
X120142000Y-139700000D03*
X122682000Y-139700000D03*
X125222000Y-139700000D03*
X127762000Y-139700000D03*
X130302000Y-139700000D03*
X132842000Y-139700000D03*
X135382000Y-139700000D03*
X137922000Y-139700000D03*
X140462000Y-139700000D03*
X143002000Y-139700000D03*
X145542000Y-139700000D03*
X148082000Y-139700000D03*
X150622000Y-139700000D03*
X153162000Y-139700000D03*
X155702000Y-139700000D03*
X158242000Y-139700000D03*
X160782000Y-139700000D03*
X163322000Y-139700000D03*
X165862000Y-139700000D03*
X168402000Y-139700000D03*
X170942000Y-139700000D03*
X173482000Y-139700000D03*
X176022000Y-139700000D03*
X178562000Y-139700000D03*
X181102000Y-139700000D03*
X183642000Y-139700000D03*
X186182000Y-139700000D03*
X188722000Y-139700000D03*
X109982000Y-144780000D03*
X112522000Y-144780000D03*
X115062000Y-144780000D03*
X117602000Y-144780000D03*
X120142000Y-144780000D03*
X122682000Y-144780000D03*
X125222000Y-144780000D03*
X127762000Y-144780000D03*
X130302000Y-144780000D03*
X132842000Y-144780000D03*
X135382000Y-144780000D03*
X137922000Y-144780000D03*
X140462000Y-144780000D03*
X143002000Y-144780000D03*
X145542000Y-144780000D03*
X148082000Y-144780000D03*
X150622000Y-144780000D03*
X153162000Y-144780000D03*
X155702000Y-144780000D03*
X158242000Y-144780000D03*
X160782000Y-144780000D03*
X163322000Y-144780000D03*
X165862000Y-144780000D03*
X168402000Y-144780000D03*
X170942000Y-144780000D03*
X173482000Y-144780000D03*
X176022000Y-144780000D03*
X178562000Y-144780000D03*
X181102000Y-144780000D03*
X183642000Y-144780000D03*
X186182000Y-144780000D03*
G04 #@! TA.AperFunction,ComponentPad*
G36*
G01*
X189497000Y-144254999D02*
X189497000Y-145305001D01*
G75*
G02*
X189247001Y-145555000I-249999J0D01*
G01*
X188196999Y-145555000D01*
G75*
G02*
X187947000Y-145305001I0J249999D01*
G01*
X187947000Y-144254999D01*
G75*
G02*
X188196999Y-144005000I249999J0D01*
G01*
X189247001Y-144005000D01*
G75*
G02*
X189497000Y-144254999I0J-249999D01*
G01*
G37*
G04 #@! TD.AperFunction*
D15*
X113358000Y-122428000D03*
X108458000Y-122428000D03*
D16*
X131572000Y-130048000D03*
X131572000Y-122428000D03*
X123952000Y-122428000D03*
D17*
X123952000Y-130048000D03*
D16*
X105410000Y-110276000D03*
D17*
X105410000Y-112776000D03*
D15*
X168148000Y-61468000D03*
X168148000Y-56568000D03*
D18*
X190750000Y-64250000D03*
X190750000Y-54250000D03*
D19*
X195750000Y-59250000D03*
D20*
X186690000Y-134112000D03*
X186690000Y-131572000D03*
X186690000Y-129032000D03*
X186690000Y-126492000D03*
X186690000Y-123952000D03*
D21*
X186690000Y-121412000D03*
D22*
X191500000Y-92250000D03*
D23*
X196000000Y-92250000D03*
D24*
X194500000Y-102230000D03*
X194500000Y-115750000D03*
X195310000Y-108990000D03*
D25*
X189010000Y-112340000D03*
X191500000Y-112340000D03*
X189010000Y-105640000D03*
D26*
X191500000Y-105640000D03*
D16*
X180300000Y-108966000D03*
D17*
X177800000Y-108966000D03*
D16*
X180594000Y-68620000D03*
D17*
X180594000Y-71120000D03*
D16*
X180594000Y-74970000D03*
D17*
X180594000Y-77470000D03*
D16*
X173228000Y-68620000D03*
D17*
X173228000Y-71120000D03*
D16*
X173228000Y-74970000D03*
D17*
X173228000Y-77470000D03*
D16*
X166116000Y-75224000D03*
D17*
X166116000Y-77724000D03*
D16*
X165862000Y-68620000D03*
D17*
X165862000Y-71120000D03*
D27*
X125730000Y-54610000D03*
X135636000Y-53594000D03*
X139954000Y-65532000D03*
X150114000Y-64770000D03*
X135382000Y-78994000D03*
X134620000Y-88900000D03*
X149606000Y-88392000D03*
X108204000Y-109982000D03*
X108204000Y-117348000D03*
X113030000Y-117348000D03*
X117348000Y-96266000D03*
X106934000Y-78994000D03*
X104140000Y-130302000D03*
X109728000Y-132334000D03*
X104648000Y-126746000D03*
X116840000Y-126492000D03*
X174752000Y-126238000D03*
X155448000Y-101092000D03*
X135382000Y-113284000D03*
X126746000Y-113284000D03*
X120904000Y-113284000D03*
X120142000Y-88138000D03*
X122000000Y-64450000D03*
X111150000Y-64600000D03*
X111000000Y-54600000D03*
X148150000Y-113400000D03*
X165150000Y-117800000D03*
X159100000Y-119850000D03*
X176000000Y-84000000D03*
X183350000Y-94950000D03*
X163100000Y-58850000D03*
X178000000Y-54400000D03*
X179800000Y-58400000D03*
X165700000Y-94600000D03*
X165750000Y-89250000D03*
X170650000Y-104200000D03*
X171850000Y-110650000D03*
X174800000Y-62200000D03*
X119125000Y-105200000D03*
X149025000Y-100300000D03*
X131572000Y-54610000D03*
X145796000Y-54864000D03*
X147574000Y-79756000D03*
X149606000Y-91948000D03*
X108966000Y-115062000D03*
X104394000Y-117348000D03*
X113284000Y-101346000D03*
X120650000Y-79502000D03*
X127254000Y-88138000D03*
X104140000Y-134874000D03*
X108712000Y-133604000D03*
X117856000Y-114300000D03*
X118618000Y-125730000D03*
X113550000Y-137050000D03*
X167700000Y-117750000D03*
X159150000Y-121300000D03*
X160250000Y-128950000D03*
X172100000Y-89500000D03*
X179800000Y-94100000D03*
X182100000Y-91800000D03*
X182000000Y-87350000D03*
X177300000Y-100500000D03*
X173400000Y-53300000D03*
X194700000Y-133450000D03*
X171300000Y-63450000D03*
X138275000Y-119400000D03*
X121400000Y-53350000D03*
X184600000Y-75650000D03*
X184300000Y-105650000D03*
X105664000Y-141986000D03*
X155450000Y-126250000D03*
X121350000Y-127550000D03*
X155450000Y-123700000D03*
X127069000Y-123581000D03*
X155450000Y-128800000D03*
X166878000Y-137160000D03*
X161800000Y-118700000D03*
X161800000Y-108300000D03*
X166400000Y-118850000D03*
X166400000Y-109900000D03*
X166357000Y-136157000D03*
X144350000Y-136150000D03*
X146525000Y-134500000D03*
X172878500Y-133953500D03*
X168825000Y-127500000D03*
X143225000Y-131325000D03*
X170900000Y-123675000D03*
X143100000Y-133375000D03*
X120150000Y-126400000D03*
X155400000Y-124999998D03*
X155450000Y-127500000D03*
X155400000Y-130050000D03*
X169050000Y-118850000D03*
X166400000Y-108450000D03*
X163050000Y-118750000D03*
X163050000Y-110700000D03*
X145450000Y-135350000D03*
X170206000Y-135356000D03*
X146850000Y-141425000D03*
X169672000Y-141403000D03*
X169875000Y-124975000D03*
X142050000Y-132225000D03*
X132250000Y-118825000D03*
X169925000Y-122425000D03*
X152575000Y-116950000D03*
X160425000Y-112525000D03*
X183225000Y-112525000D03*
X183300000Y-101000000D03*
X141850000Y-118125000D03*
X126575000Y-118850000D03*
X123900000Y-133250000D03*
X117175000Y-132000000D03*
X155400000Y-122400000D03*
X111300000Y-132700000D03*
X143460000Y-118165000D03*
X160025000Y-118200000D03*
X180600000Y-118600000D03*
X159488400Y-99161600D03*
X139550000Y-102700000D03*
X139500000Y-104050000D03*
X159466000Y-102616000D03*
X139550000Y-105400000D03*
X159519600Y-106019600D03*
X139550000Y-107000000D03*
X171115000Y-107015000D03*
X121238000Y-94136000D03*
X121738000Y-66036000D03*
X120338000Y-93236000D03*
X121738000Y-67236000D03*
X119438000Y-92336000D03*
X121737998Y-68536000D03*
X118538000Y-91436000D03*
X121738000Y-69836000D03*
X105038000Y-72336000D03*
X119887994Y-89662000D03*
X120900000Y-80900000D03*
X118364000Y-87884000D03*
X119438000Y-80436000D03*
X105838000Y-70936000D03*
X122700000Y-95300000D03*
X106800000Y-89200000D03*
X104150000Y-62200000D03*
X122200000Y-62200000D03*
X106838000Y-73636000D03*
X124206000Y-69342000D03*
X106838000Y-74936000D03*
X125222000Y-70358000D03*
X106838000Y-76136000D03*
X126492000Y-71628000D03*
X106838000Y-77436000D03*
X127508000Y-72644000D03*
X146138000Y-76336000D03*
X129032000Y-76200002D03*
X146138000Y-75036000D03*
X130047996Y-75036000D03*
X132138000Y-73736000D03*
X146138000Y-73736000D03*
X146138000Y-72436000D03*
X133538000Y-72436000D03*
X149038000Y-87136000D03*
X146138000Y-77536000D03*
X149838000Y-86036000D03*
X146138000Y-71236000D03*
X142738000Y-78336000D03*
X142738000Y-89035998D03*
X141938000Y-77436000D03*
X141938000Y-89836000D03*
X141138000Y-78336000D03*
X141138000Y-90635996D03*
X140438000Y-77436000D03*
X140438000Y-91436000D03*
X151138000Y-57236000D03*
X151138000Y-96736000D03*
X143438000Y-80336000D03*
X141138000Y-97036000D03*
X144238000Y-81236000D03*
X142138000Y-97836000D03*
X145038000Y-80336000D03*
X143238000Y-98636000D03*
X146138000Y-80836000D03*
X144338000Y-99436000D03*
D28*
X189010000Y-72390000D02*
X184510000Y-72390000D01*
X184510000Y-72390000D02*
X184150000Y-72750000D01*
X184150000Y-72750000D02*
X169250000Y-72750000D01*
X169250000Y-72750000D02*
X168450000Y-71950000D01*
X168450000Y-71950000D02*
X168450000Y-69200000D01*
X167870000Y-68620000D02*
X165862000Y-68620000D01*
X168450000Y-69200000D02*
X167870000Y-68620000D01*
X189010000Y-74930000D02*
X185930000Y-74930000D01*
X185930000Y-74930000D02*
X184350000Y-73350000D01*
X184350000Y-73350000D02*
X166550000Y-73350000D01*
X166116000Y-73784000D02*
X166116000Y-75224000D01*
X166550000Y-73350000D02*
X166116000Y-73784000D01*
X189010000Y-79090000D02*
X176990000Y-79090000D01*
X176990000Y-79090000D02*
X176150000Y-78250000D01*
X176150000Y-78250000D02*
X176150000Y-75350000D01*
X175770000Y-74970000D02*
X173228000Y-74970000D01*
X176150000Y-75350000D02*
X175770000Y-74970000D01*
X183920000Y-74970000D02*
X184600000Y-75650000D01*
X180594000Y-74970000D02*
X183920000Y-74970000D01*
X189000000Y-105650000D02*
X189010000Y-105640000D01*
X184300000Y-105650000D02*
X189000000Y-105650000D01*
X105664000Y-141986000D02*
X119380000Y-141986000D01*
X120142000Y-141224000D02*
X120142000Y-139700000D01*
X119380000Y-141986000D02*
X120142000Y-141224000D01*
X155450000Y-126250000D02*
X149000000Y-126250000D01*
X149000000Y-126250000D02*
X142700000Y-126250000D01*
X142700000Y-126250000D02*
X137150000Y-126250000D01*
X137150000Y-126250000D02*
X135850000Y-127550000D01*
X135850000Y-127550000D02*
X121350000Y-127550000D01*
X155450000Y-123700000D02*
X134500000Y-123700000D01*
X134500000Y-123700000D02*
X133950000Y-124250000D01*
X133950000Y-124250000D02*
X128800000Y-124250000D01*
X128800000Y-124250000D02*
X128131000Y-123581000D01*
X128131000Y-123581000D02*
X127069000Y-123581000D01*
X127762000Y-136338000D02*
X127762000Y-139700000D01*
X128600000Y-135500000D02*
X127762000Y-136338000D01*
X138000000Y-128800000D02*
X131300000Y-135500000D01*
X131300000Y-135500000D02*
X128600000Y-135500000D01*
X155450000Y-128800000D02*
X138000000Y-128800000D01*
X166878000Y-137160000D02*
X133350000Y-137160000D01*
X132842000Y-137668000D02*
X132842000Y-139700000D01*
X133350000Y-137160000D02*
X132842000Y-137668000D01*
X161800000Y-118700000D02*
X161800000Y-108300000D01*
X166400000Y-118850000D02*
X166400000Y-109900000D01*
X166350000Y-136150000D02*
X166357000Y-136157000D01*
X144350000Y-136150000D02*
X166350000Y-136150000D01*
X146525000Y-134500000D02*
X170975000Y-134500000D01*
X171521500Y-133953500D02*
X172878500Y-133953500D01*
X170975000Y-134500000D02*
X171521500Y-133953500D01*
X168825000Y-130175000D02*
X168825000Y-127500000D01*
X167675000Y-131325000D02*
X168825000Y-130175000D01*
X143225000Y-131325000D02*
X167675000Y-131325000D01*
X169400000Y-133375000D02*
X143100000Y-133375000D01*
X170900000Y-131875000D02*
X169400000Y-133375000D01*
X170900000Y-123675000D02*
X170900000Y-131875000D01*
X120150000Y-126400000D02*
X121550002Y-124999998D01*
X121550002Y-124999998D02*
X155400000Y-124999998D01*
X125222000Y-142428000D02*
X125222000Y-144780000D01*
X126500000Y-141150000D02*
X125222000Y-142428000D01*
X126500000Y-135550000D02*
X126500000Y-141150000D01*
X127700000Y-134350000D02*
X126500000Y-135550000D01*
X130800000Y-134350000D02*
X127700000Y-134350000D01*
X137650000Y-127500000D02*
X130800000Y-134350000D01*
X155450000Y-127500000D02*
X137650000Y-127500000D01*
X129050000Y-137600000D02*
X129050000Y-141350000D01*
X130250000Y-136400000D02*
X129050000Y-137600000D01*
X131750000Y-136400000D02*
X130250000Y-136400000D01*
X129050000Y-141350000D02*
X127762000Y-142638000D01*
X138100000Y-130050000D02*
X131750000Y-136400000D01*
X127762000Y-142638000D02*
X127762000Y-144780000D01*
X155400000Y-130050000D02*
X138100000Y-130050000D01*
X169050000Y-118850000D02*
X169050000Y-109150000D01*
X169050000Y-109150000D02*
X168350000Y-108450000D01*
X168350000Y-108450000D02*
X166400000Y-108450000D01*
X163050000Y-118750000D02*
X163050000Y-110700000D01*
X170200000Y-135350000D02*
X170206000Y-135356000D01*
X145450000Y-135350000D02*
X170200000Y-135350000D01*
X169650000Y-141425000D02*
X169672000Y-141403000D01*
X146850000Y-141425000D02*
X169650000Y-141425000D01*
X168675000Y-132225000D02*
X142050000Y-132225000D01*
X169875000Y-131025000D02*
X168675000Y-132225000D01*
X169875000Y-124975000D02*
X169875000Y-131025000D01*
X132250000Y-118825000D02*
X134400000Y-118825000D01*
X134400000Y-118825000D02*
X136275000Y-120700000D01*
X136275000Y-120700000D02*
X156300000Y-120700000D01*
X158025000Y-122425000D02*
X169925000Y-122425000D01*
X156300000Y-120700000D02*
X158025000Y-122425000D01*
X152575000Y-116950000D02*
X152575000Y-113375000D01*
X153425000Y-112525000D02*
X160425000Y-112525000D01*
X152575000Y-113375000D02*
X153425000Y-112525000D01*
X183225000Y-112525000D02*
X183225000Y-128650000D01*
X183607000Y-129032000D02*
X186690000Y-129032000D01*
X183225000Y-128650000D02*
X183607000Y-129032000D01*
X183300000Y-101000000D02*
X187100000Y-101000000D01*
X187100000Y-101000000D02*
X188100000Y-100000000D01*
X188100000Y-100000000D02*
X188100000Y-83900000D01*
X191500000Y-80500000D02*
X191500000Y-79090000D01*
X188100000Y-83900000D02*
X191500000Y-80500000D01*
X191500000Y-74440000D02*
X190200000Y-73140000D01*
X190200000Y-73140000D02*
X190200000Y-66450000D01*
X190750000Y-65900000D02*
X190750000Y-64250000D01*
X190200000Y-66450000D02*
X190750000Y-65900000D01*
X141850000Y-118125000D02*
X135475000Y-118125000D01*
X135475000Y-118125000D02*
X135075000Y-117725000D01*
X135075000Y-117725000D02*
X129050000Y-117725000D01*
X127925000Y-118850000D02*
X126575000Y-118850000D01*
X129050000Y-117725000D02*
X127925000Y-118850000D01*
X123900000Y-133250000D02*
X118675000Y-133250000D01*
X117425000Y-132000000D02*
X117175000Y-132000000D01*
X118675000Y-133250000D02*
X117425000Y-132000000D01*
X135400000Y-122400000D02*
X155400000Y-122400000D01*
X133500000Y-120500000D02*
X135400000Y-122400000D01*
X115950000Y-120500000D02*
X133500000Y-120500000D01*
X115550000Y-120100000D02*
X115950000Y-120500000D01*
X112100000Y-120100000D02*
X115550000Y-120100000D01*
X110900000Y-121300000D02*
X112100000Y-120100000D01*
X110900000Y-132300000D02*
X110900000Y-121300000D01*
X111300000Y-132700000D02*
X110900000Y-132300000D01*
X159990000Y-118165000D02*
X160025000Y-118200000D01*
X143460000Y-118165000D02*
X159990000Y-118165000D01*
X180600000Y-118600000D02*
X180600000Y-129750000D01*
X182422000Y-131572000D02*
X186690000Y-131572000D01*
X180600000Y-129750000D02*
X182422000Y-131572000D01*
X159488400Y-99161600D02*
X155950000Y-102700000D01*
X155950000Y-102700000D02*
X139550000Y-102700000D01*
X139500000Y-104050000D02*
X158600000Y-104050000D01*
X159466000Y-103184000D02*
X159466000Y-102616000D01*
X158600000Y-104050000D02*
X159466000Y-103184000D01*
X139550000Y-105400000D02*
X159250000Y-105400000D01*
X159519600Y-105669600D02*
X159519600Y-106019600D01*
X159250000Y-105400000D02*
X159519600Y-105669600D01*
X171100000Y-107000000D02*
X171115000Y-107015000D01*
X139550000Y-107000000D02*
X171100000Y-107000000D01*
X121238000Y-94136000D02*
X115738000Y-94136000D01*
X115738000Y-94136000D02*
X102738000Y-81136000D01*
X102738000Y-81136000D02*
X102738000Y-76936000D01*
X102738000Y-76936000D02*
X102738000Y-66936000D01*
X103638000Y-66036000D02*
X121738000Y-66036000D01*
X102738000Y-66936000D02*
X103638000Y-66036000D01*
X104038000Y-67236000D02*
X121738000Y-67236000D01*
X103238000Y-68036000D02*
X104038000Y-67236000D01*
X103238000Y-80836000D02*
X103238000Y-68036000D01*
X115638000Y-93236000D02*
X103238000Y-80836000D01*
X120338000Y-93236000D02*
X115638000Y-93236000D01*
X104538000Y-68536000D02*
X121737998Y-68536000D01*
X103738000Y-69336000D02*
X104538000Y-68536000D01*
X103738000Y-80436000D02*
X103738000Y-69336000D01*
X115638000Y-92336000D02*
X103738000Y-80436000D01*
X119438000Y-92336000D02*
X115638000Y-92336000D01*
X104738000Y-69836000D02*
X121738000Y-69836000D01*
X104238000Y-70336000D02*
X104738000Y-69836000D01*
X104238000Y-80136000D02*
X104238000Y-70336000D01*
X115538000Y-91436000D02*
X104238000Y-80136000D01*
X118538000Y-91436000D02*
X115538000Y-91436000D01*
X114764000Y-89662000D02*
X119887994Y-89662000D01*
X105038000Y-72336000D02*
X105038000Y-79936000D01*
X105038000Y-79936000D02*
X114764000Y-89662000D01*
X120300000Y-81500000D02*
X120900000Y-80900000D01*
X120300000Y-82000000D02*
X120300000Y-81500000D01*
X120000000Y-84800000D02*
X120300000Y-84500000D01*
X120300000Y-84500000D02*
X120300000Y-82000000D01*
X118364000Y-86436000D02*
X120000000Y-84800000D01*
X118364000Y-86936000D02*
X118364000Y-86436000D01*
X118364000Y-87884000D02*
X118364000Y-86936000D01*
X119438000Y-80436000D02*
X107538000Y-80436000D01*
X107538000Y-80436000D02*
X106938000Y-80436000D01*
X106938000Y-80436000D02*
X106538000Y-80436000D01*
X106538000Y-80436000D02*
X105838000Y-79736000D01*
X105838000Y-75936000D02*
X105838000Y-70936000D01*
X105838000Y-79736000D02*
X105838000Y-75936000D01*
X122700000Y-95300000D02*
X108000000Y-95300000D01*
X106800000Y-94100000D02*
X106800000Y-89200000D01*
X108000000Y-95300000D02*
X106800000Y-94100000D01*
X104150000Y-62200000D02*
X122200000Y-62200000D01*
X115824000Y-71628000D02*
X113816000Y-73636000D01*
X113816000Y-73636000D02*
X106838000Y-73636000D01*
X120904000Y-71628000D02*
X121920000Y-71628000D01*
X120904000Y-71628000D02*
X115824000Y-71628000D01*
X121920000Y-71628000D02*
X124206000Y-69342000D01*
X114052000Y-74936000D02*
X106838000Y-74936000D01*
X115576000Y-73412000D02*
X115576000Y-73400000D01*
X115576000Y-73412000D02*
X114052000Y-74936000D01*
X115576000Y-73400000D02*
X116586000Y-72390000D01*
X116586000Y-72390000D02*
X122682000Y-72390000D01*
X124714000Y-70358000D02*
X125222000Y-70358000D01*
X122682000Y-72390000D02*
X124714000Y-70358000D01*
X114618000Y-76136000D02*
X106838000Y-76136000D01*
X116332000Y-74422000D02*
X117602000Y-73152000D01*
X116332000Y-74422000D02*
X114618000Y-76136000D01*
X117602000Y-73152000D02*
X123190000Y-73152000D01*
X123190000Y-73152000D02*
X123698000Y-73152000D01*
X125222000Y-71628000D02*
X126492000Y-71628000D01*
X123698000Y-73152000D02*
X125222000Y-71628000D01*
X106938000Y-77336000D02*
X106838000Y-77436000D01*
X115182000Y-77336000D02*
X106938000Y-77336000D01*
X127508000Y-72644000D02*
X125730000Y-72644000D01*
X125730000Y-72644000D02*
X124206000Y-74168000D01*
X118350000Y-74168000D02*
X116960000Y-75558000D01*
X124206000Y-74168000D02*
X118350000Y-74168000D01*
X116960000Y-75558000D02*
X115182000Y-77336000D01*
X146138000Y-76336000D02*
X129167998Y-76336000D01*
X129167998Y-76336000D02*
X129032000Y-76200002D01*
X146138000Y-75036000D02*
X130047996Y-75036000D01*
X132138000Y-73736000D02*
X146138000Y-73736000D01*
X146138000Y-72436000D02*
X133538000Y-72436000D01*
X149038000Y-87136000D02*
X149038000Y-77836000D01*
X148738000Y-77536000D02*
X146138000Y-77536000D01*
X149038000Y-77836000D02*
X148738000Y-77536000D01*
X149838000Y-86036000D02*
X149838000Y-72036000D01*
X149038000Y-71236000D02*
X146138000Y-71236000D01*
X149838000Y-72036000D02*
X149038000Y-71236000D01*
X142738000Y-78336000D02*
X142738000Y-89035998D01*
X141938000Y-77436000D02*
X141938000Y-89836000D01*
X141138000Y-78336000D02*
X141138000Y-90635996D01*
X140438000Y-77436000D02*
X140438000Y-91436000D01*
X151138000Y-57236000D02*
X151138000Y-96736000D01*
X143438000Y-80336000D02*
X143438000Y-87936000D01*
X143438000Y-87936000D02*
X143538000Y-88036000D01*
X143538000Y-88036000D02*
X143538000Y-90436000D01*
X141138000Y-92836000D02*
X141138000Y-97036000D01*
X143538000Y-90436000D02*
X141138000Y-92836000D01*
X144238000Y-81236000D02*
X144238000Y-90836000D01*
X142138000Y-92936000D02*
X142138000Y-97836000D01*
X144238000Y-90836000D02*
X142138000Y-92936000D01*
X145038000Y-80336000D02*
X145038000Y-90936000D01*
X143238000Y-92736000D02*
X143238000Y-98636000D01*
X145038000Y-90936000D02*
X143238000Y-92736000D01*
X146138000Y-80836000D02*
X146138000Y-90836000D01*
X144338000Y-92636000D02*
X144338000Y-99436000D01*
X146138000Y-90836000D02*
X144338000Y-92636000D01*
M02*
