G04 #@! TF.GenerationSoftware,KiCad,Pcbnew,8.0.5*
G04 #@! TF.CreationDate,2024-10-19T15:16:33+01:00*
G04 #@! TF.ProjectId,GfxV9990,47667856-3939-4393-902e-6b696361645f,rev?*
G04 #@! TF.SameCoordinates,Original*
G04 #@! TF.FileFunction,Soldermask,Bot*
G04 #@! TF.FilePolarity,Negative*
%FSLAX46Y46*%
G04 Gerber Fmt 4.6, Leading zero omitted, Abs format (unit mm)*
G04 Created by KiCad (PCBNEW 8.0.5) date 2024-10-19 15:16:33*
%MOMM*%
%LPD*%
G01*
G04 APERTURE LIST*
G04 Aperture macros list*
%AMRoundRect*
0 Rectangle with rounded corners*
0 $1 Rounding radius*
0 $2 $3 $4 $5 $6 $7 $8 $9 X,Y pos of 4 corners*
0 Add a 4 corners polygon primitive as box body*
4,1,4,$2,$3,$4,$5,$6,$7,$8,$9,$2,$3,0*
0 Add four circle primitives for the rounded corners*
1,1,$1+$1,$2,$3*
1,1,$1+$1,$4,$5*
1,1,$1+$1,$6,$7*
1,1,$1+$1,$8,$9*
0 Add four rect primitives between the rounded corners*
20,1,$1+$1,$2,$3,$4,$5,0*
20,1,$1+$1,$4,$5,$6,$7,0*
20,1,$1+$1,$6,$7,$8,$9,0*
20,1,$1+$1,$8,$9,$2,$3,0*%
G04 Aperture macros list end*
%ADD10R,1.600000X1.600000*%
%ADD11C,1.600000*%
%ADD12R,3.765000X3.765000*%
%ADD13C,3.600000*%
%ADD14R,1.509000X1.509000*%
%ADD15C,1.509000*%
%ADD16C,3.555000*%
%ADD17C,2.850000*%
%ADD18RoundRect,0.249999X0.525001X0.525001X-0.525001X0.525001X-0.525001X-0.525001X0.525001X-0.525001X0*%
%ADD19C,1.550000*%
%ADD20C,2.300000*%
%ADD21R,1.422400X1.422400*%
%ADD22C,1.422400*%
%ADD23R,1.700000X1.700000*%
%ADD24O,1.700000X1.700000*%
%ADD25C,1.200000*%
%ADD26O,1.504000X2.804000*%
%ADD27O,2.804000X1.504000*%
G04 APERTURE END LIST*
D10*
X166116000Y-77724000D03*
D11*
X166116000Y-75224000D03*
D10*
X173228000Y-77470000D03*
D11*
X173228000Y-74970000D03*
D10*
X173228000Y-71120000D03*
D11*
X173228000Y-68620000D03*
D10*
X180594000Y-77470000D03*
D11*
X180594000Y-74970000D03*
D10*
X180594000Y-71120000D03*
D11*
X180594000Y-68620000D03*
D10*
X177800000Y-108966000D03*
D11*
X180300000Y-108966000D03*
D12*
X196020000Y-83660000D03*
D13*
X191520000Y-83660000D03*
D14*
X191515000Y-63950000D03*
D15*
X191515000Y-61350000D03*
X191515000Y-66000000D03*
X189025000Y-63950000D03*
X191515000Y-59300000D03*
X189025000Y-66000000D03*
X189025000Y-61840000D03*
X189025000Y-59300000D03*
D16*
X194515000Y-55890000D03*
X195325000Y-62650000D03*
X194515000Y-69410000D03*
D17*
X193802000Y-147320000D03*
X104902000Y-147320000D03*
D18*
X188722000Y-144780000D03*
D19*
X186182000Y-144780000D03*
X183642000Y-144780000D03*
X181102000Y-144780000D03*
X178562000Y-144780000D03*
X176022000Y-144780000D03*
X173482000Y-144780000D03*
X170942000Y-144780000D03*
X168402000Y-144780000D03*
X165862000Y-144780000D03*
X163322000Y-144780000D03*
X160782000Y-144780000D03*
X158242000Y-144780000D03*
X155702000Y-144780000D03*
X153162000Y-144780000D03*
X150622000Y-144780000D03*
X148082000Y-144780000D03*
X145542000Y-144780000D03*
X143002000Y-144780000D03*
X140462000Y-144780000D03*
X137922000Y-144780000D03*
X135382000Y-144780000D03*
X132842000Y-144780000D03*
X130302000Y-144780000D03*
X127762000Y-144780000D03*
X125222000Y-144780000D03*
X122682000Y-144780000D03*
X120142000Y-144780000D03*
X117602000Y-144780000D03*
X115062000Y-144780000D03*
X112522000Y-144780000D03*
X109982000Y-144780000D03*
X188722000Y-139700000D03*
X186182000Y-139700000D03*
X183642000Y-139700000D03*
X181102000Y-139700000D03*
X178562000Y-139700000D03*
X176022000Y-139700000D03*
X173482000Y-139700000D03*
X170942000Y-139700000D03*
X168402000Y-139700000D03*
X165862000Y-139700000D03*
X163322000Y-139700000D03*
X160782000Y-139700000D03*
X158242000Y-139700000D03*
X155702000Y-139700000D03*
X153162000Y-139700000D03*
X150622000Y-139700000D03*
X148082000Y-139700000D03*
X145542000Y-139700000D03*
X143002000Y-139700000D03*
X140462000Y-139700000D03*
X137922000Y-139700000D03*
X135382000Y-139700000D03*
X132842000Y-139700000D03*
X130302000Y-139700000D03*
X127762000Y-139700000D03*
X125222000Y-139700000D03*
X122682000Y-139700000D03*
X120142000Y-139700000D03*
X117602000Y-139700000D03*
X115062000Y-139700000D03*
X112522000Y-139700000D03*
X109982000Y-139700000D03*
D20*
X168148000Y-56568000D03*
X168148000Y-61468000D03*
D21*
X167130000Y-130760000D03*
D22*
X169670000Y-133300000D03*
X169670000Y-130760000D03*
X172210000Y-133300000D03*
X172210000Y-130760000D03*
X174750000Y-133300000D03*
X177290000Y-130760000D03*
X174750000Y-130760000D03*
X177290000Y-128220000D03*
X174750000Y-128220000D03*
X177290000Y-125680000D03*
X174750000Y-125680000D03*
X177290000Y-123140000D03*
X174750000Y-123140000D03*
X177290000Y-120600000D03*
X174750000Y-120600000D03*
X177290000Y-118060000D03*
X174750000Y-115520000D03*
X174750000Y-118060000D03*
X172210000Y-115520000D03*
X172210000Y-118060000D03*
X169670000Y-115520000D03*
X169670000Y-118060000D03*
X167130000Y-115520000D03*
X167130000Y-118060000D03*
X164590000Y-115520000D03*
X164590000Y-118060000D03*
X162050000Y-115520000D03*
X159510000Y-118060000D03*
X162050000Y-118060000D03*
X159510000Y-120600000D03*
X162050000Y-120600000D03*
X159510000Y-123140000D03*
X162050000Y-123140000D03*
X159510000Y-125680000D03*
X162050000Y-125680000D03*
X159510000Y-128220000D03*
X162050000Y-128220000D03*
X159510000Y-130760000D03*
X162050000Y-133300000D03*
X162050000Y-130760000D03*
X164590000Y-133300000D03*
X164590000Y-130760000D03*
X167130000Y-133300000D03*
D23*
X186690000Y-121412000D03*
D24*
X186690000Y-123952000D03*
X186690000Y-126492000D03*
X186690000Y-129032000D03*
X186690000Y-131572000D03*
X186690000Y-134112000D03*
D10*
X165862000Y-71120000D03*
D11*
X165862000Y-68620000D03*
D10*
X105410000Y-112776000D03*
D11*
X105410000Y-110276000D03*
D10*
X123952000Y-130048000D03*
D11*
X131572000Y-130048000D03*
X131572000Y-122428000D03*
X123952000Y-122428000D03*
D20*
X108458000Y-122428000D03*
X113358000Y-122428000D03*
D25*
X195721600Y-112362000D03*
X198221600Y-112362000D03*
X190721600Y-107362000D03*
X195721600Y-102362000D03*
X198221600Y-102362000D03*
D26*
X195721600Y-107362000D03*
D27*
X190721600Y-102362000D03*
X190721600Y-112362000D03*
X190721600Y-104862000D03*
X190721600Y-109862000D03*
M02*
