G04 #@! TF.GenerationSoftware,KiCad,Pcbnew,(5.1.10)-1*
G04 #@! TF.CreationDate,2021-07-30T10:38:07+01:00*
G04 #@! TF.ProjectId,GfxV9990,47667856-3939-4393-902e-6b696361645f,rev?*
G04 #@! TF.SameCoordinates,Original*
G04 #@! TF.FileFunction,Legend,Bot*
G04 #@! TF.FilePolarity,Positive*
%FSLAX46Y46*%
G04 Gerber Fmt 4.6, Leading zero omitted, Abs format (unit mm)*
G04 Created by KiCad (PCBNEW (5.1.10)-1) date 2021-07-30 10:38:07*
%MOMM*%
%LPD*%
G01*
G04 APERTURE LIST*
%ADD10C,0.854000*%
%ADD11C,3.555000*%
%ADD12C,1.509000*%
%ADD13R,1.509000X1.509000*%
%ADD14C,1.550000*%
%ADD15C,2.850000*%
%ADD16C,2.300000*%
%ADD17C,1.600000*%
%ADD18R,1.600000X1.600000*%
%ADD19C,1.200000*%
%ADD20O,2.416000X1.208000*%
%ADD21O,1.208000X2.416000*%
%ADD22O,1.700000X1.700000*%
%ADD23R,1.700000X1.700000*%
%ADD24C,3.600000*%
%ADD25R,3.765000X3.765000*%
%ADD26C,3.306000*%
%ADD27C,1.398000*%
%ADD28R,1.398000X1.398000*%
G04 APERTURE END LIST*
%LPC*%
D10*
X198677000Y-54250000D02*
G75*
G03*
X198677000Y-54250000I-427000J0D01*
G01*
X196177000Y-54250000D02*
G75*
G03*
X196177000Y-54250000I-427000J0D01*
G01*
X198677000Y-64250000D02*
G75*
G03*
X198677000Y-64250000I-427000J0D01*
G01*
X196177000Y-64250000D02*
G75*
G03*
X196177000Y-64250000I-427000J0D01*
G01*
X191177000Y-59250000D02*
G75*
G03*
X191177000Y-59250000I-427000J0D01*
G01*
D11*
X194500000Y-82500000D03*
X195310000Y-75740000D03*
X194500000Y-68980000D03*
D12*
X189010000Y-72390000D03*
X189010000Y-74930000D03*
X189010000Y-79090000D03*
X191500000Y-72390000D03*
X189010000Y-77040000D03*
X191500000Y-79090000D03*
X191500000Y-74440000D03*
D13*
X191500000Y-77040000D03*
D14*
X109982000Y-139700000D03*
X112522000Y-139700000D03*
X115062000Y-139700000D03*
X117602000Y-139700000D03*
X120142000Y-139700000D03*
X122682000Y-139700000D03*
X125222000Y-139700000D03*
X127762000Y-139700000D03*
X130302000Y-139700000D03*
X132842000Y-139700000D03*
X135382000Y-139700000D03*
X137922000Y-139700000D03*
X140462000Y-139700000D03*
X143002000Y-139700000D03*
X145542000Y-139700000D03*
X148082000Y-139700000D03*
X150622000Y-139700000D03*
X153162000Y-139700000D03*
X155702000Y-139700000D03*
X158242000Y-139700000D03*
X160782000Y-139700000D03*
X163322000Y-139700000D03*
X165862000Y-139700000D03*
X168402000Y-139700000D03*
X170942000Y-139700000D03*
X173482000Y-139700000D03*
X176022000Y-139700000D03*
X178562000Y-139700000D03*
X181102000Y-139700000D03*
X183642000Y-139700000D03*
X186182000Y-139700000D03*
X188722000Y-139700000D03*
X109982000Y-144780000D03*
X112522000Y-144780000D03*
X115062000Y-144780000D03*
X117602000Y-144780000D03*
X120142000Y-144780000D03*
X122682000Y-144780000D03*
X125222000Y-144780000D03*
X127762000Y-144780000D03*
X130302000Y-144780000D03*
X132842000Y-144780000D03*
X135382000Y-144780000D03*
X137922000Y-144780000D03*
X140462000Y-144780000D03*
X143002000Y-144780000D03*
X145542000Y-144780000D03*
X148082000Y-144780000D03*
X150622000Y-144780000D03*
X153162000Y-144780000D03*
X155702000Y-144780000D03*
X158242000Y-144780000D03*
X160782000Y-144780000D03*
X163322000Y-144780000D03*
X165862000Y-144780000D03*
X168402000Y-144780000D03*
X170942000Y-144780000D03*
X173482000Y-144780000D03*
X176022000Y-144780000D03*
X178562000Y-144780000D03*
X181102000Y-144780000D03*
X183642000Y-144780000D03*
X186182000Y-144780000D03*
G36*
G01*
X189497000Y-144254999D02*
X189497000Y-145305001D01*
G75*
G02*
X189247001Y-145555000I-249999J0D01*
G01*
X188196999Y-145555000D01*
G75*
G02*
X187947000Y-145305001I0J249999D01*
G01*
X187947000Y-144254999D01*
G75*
G02*
X188196999Y-144005000I249999J0D01*
G01*
X189247001Y-144005000D01*
G75*
G02*
X189497000Y-144254999I0J-249999D01*
G01*
G37*
D15*
X104902000Y-147320000D03*
X193802000Y-147320000D03*
D16*
X113358000Y-122428000D03*
X108458000Y-122428000D03*
D17*
X131572000Y-130048000D03*
X131572000Y-122428000D03*
X123952000Y-122428000D03*
D18*
X123952000Y-130048000D03*
D17*
X105410000Y-110276000D03*
D18*
X105410000Y-112776000D03*
D16*
X168148000Y-61468000D03*
X168148000Y-56568000D03*
D19*
X198250000Y-64250000D03*
X198250000Y-54250000D03*
X195750000Y-54250000D03*
X195750000Y-64250000D03*
X190750000Y-59250000D03*
D20*
X190750000Y-64250000D03*
X190750000Y-54250000D03*
D21*
X195750000Y-59250000D03*
D22*
X186690000Y-134112000D03*
X186690000Y-131572000D03*
X186690000Y-129032000D03*
X186690000Y-126492000D03*
X186690000Y-123952000D03*
D23*
X186690000Y-121412000D03*
D24*
X191500000Y-92250000D03*
D25*
X196000000Y-92250000D03*
D26*
X194500000Y-102230000D03*
X194500000Y-115750000D03*
X195310000Y-108990000D03*
D27*
X189010000Y-112340000D03*
X191500000Y-112340000D03*
X189010000Y-105640000D03*
D28*
X191500000Y-105640000D03*
D17*
X180300000Y-108966000D03*
D18*
X177800000Y-108966000D03*
D17*
X180594000Y-68620000D03*
D18*
X180594000Y-71120000D03*
D17*
X180594000Y-74970000D03*
D18*
X180594000Y-77470000D03*
D17*
X173228000Y-68620000D03*
D18*
X173228000Y-71120000D03*
D17*
X173228000Y-74970000D03*
D18*
X173228000Y-77470000D03*
D17*
X166116000Y-75224000D03*
D18*
X166116000Y-77724000D03*
D17*
X165862000Y-68620000D03*
D18*
X165862000Y-71120000D03*
M02*
