M48
; DRILL file {KiCad (6.0.7-rc1-83-g1005f75cdb)} date Wed Aug 17 14:22:40 2022
; FORMAT={2:4/ absolute / inch / suppress leading zeros}
; #@! TF.CreationDate,2022-08-17T14:22:40+01:00
; #@! TF.GenerationSoftware,Kicad,Pcbnew,(6.0.7-rc1-83-g1005f75cdb)
; #@! TF.FileFunction,Plated,1,4,PTH
FMAT,2
INCH,TZ
; #@! TA.AperFunction,Plated,PTH,ViaDrill
T1C0.0157
; #@! TA.AperFunction,Plated,PTH,ComponentDrill
T2C0.0394
; #@! TA.AperFunction,Plated,PTH,ComponentDrill
T3C0.1260
%
G90
G05
T1
X40433Y-40669
X40669Y-48110
X41335Y-53382
X41710Y-42845
X41850Y-55433
X41929Y-44764
X41929Y-45906
X41946Y-41861
X42146Y-51476
X42480Y-46732
X42852Y-44026
X43757Y-44774
X43757Y-46034
X43835Y-51354
X43876Y-42845
X43954Y-41428
X44094Y-47677
X44387Y-30719
X44387Y-31310
X44387Y-32452
X44803Y-36772
X45529Y-26310
X45765Y-24774
X45765Y-25326
X45844Y-43239
X46811Y-51142
X46850Y-52244
X47343Y-48504
X48091Y-43031
X48504Y-48110
X48937Y-51142
X48976Y-47677
X49409Y-52126
X49606Y-42520
X50374Y-44469
X50748Y-38465
X50748Y-43130
X51260Y-46339
X51339Y-45571
X51654Y-51102
X51693Y-52126
X51949Y-44291
X51986Y-30916
X51986Y-31546
X52421Y-43169
X52795Y-48484
X53209Y-43209
X53679Y-24696
X53679Y-25247
X53701Y-46299
X53789Y-44675
X54291Y-52126
X54331Y-51102
X55591Y-45689
X55748Y-30197
X56063Y-45177
X56476Y-51102
X56496Y-52126
X56769Y-30227
X56868Y-27688
X56986Y-42058
X56988Y-45039
X57087Y-40394
X57183Y-33593
X57323Y-44213
X57340Y-32215
X57380Y-35129
X57380Y-36113
X57380Y-36900
X57419Y-34381
X57419Y-38869
X57458Y-39617
X57616Y-41625
X58189Y-45039
X58324Y-41664
X58482Y-32688
X58583Y-51220
X58994Y-31979
X58996Y-40295
X59094Y-52126
X59370Y-38110
X59646Y-41457
X60254Y-32294
X60457Y-40449
X60512Y-38661
X60748Y-41929
X61002Y-32294
X61024Y-52126
X61063Y-51142
X61339Y-41969
X61457Y-38622
X61457Y-39606
X61457Y-41457
X61555Y-35525
X61595Y-34777
X61654Y-32638
X61890Y-29173
X61909Y-41949
X62165Y-38701
X62323Y-47992
X62520Y-32559
X62931Y-34774
X62933Y-35525
X62992Y-38701
X62992Y-40276
X63088Y-32097
X63150Y-41732
X63346Y-51181
X63740Y-52087
X63780Y-40079
X63819Y-37677
X63876Y-32294
X63898Y-41732
X64488Y-40118
X64528Y-38740
X64547Y-49035
X64624Y-32294
X65079Y-53504
X65175Y-42176
X65276Y-40157
X65450Y-32097
X65630Y-38189
X65669Y-51102
X65748Y-52165
X65866Y-47992
X66457Y-37323
X66535Y-38150
X66575Y-38898
X66614Y-39646
X66710Y-34578
X66710Y-35286
X66828Y-40562
X66907Y-32019
X66986Y-33475
X67143Y-41940
X68268Y-51142
X68386Y-52165
X68878Y-45689
X70118Y-53504
X70372Y-31704
X70608Y-37688
X70787Y-52165
X70984Y-44390
X71002Y-35247
X71004Y-47835
X71063Y-51142
X71592Y-35444
X71592Y-36782
X71890Y-43543
X71946Y-31743
X72320Y-36093
X73009Y-35601
X73009Y-36231
X73346Y-51969
X73583Y-51102
X73600Y-31861
X74173Y-47047
X74348Y-37333
X74685Y-43543
X75049Y-51880
X75315Y-40118
X76220Y-52598
X77638Y-43976
X77697Y-48031
T2
X43400Y-55000
X43400Y-57000
X44400Y-55000
X44400Y-57000
X45400Y-55000
X45400Y-57000
X46400Y-55000
X46400Y-57000
X47400Y-55000
X47400Y-57000
X48400Y-55000
X48400Y-57000
X49400Y-55000
X49400Y-57000
X50400Y-55000
X50400Y-57000
X51400Y-55000
X51400Y-57000
X52400Y-55000
X52400Y-57000
X53400Y-55000
X53400Y-57000
X54400Y-55000
X54400Y-57000
X55400Y-55000
X55400Y-57000
X56400Y-55000
X56400Y-57000
X57400Y-55000
X57400Y-57000
X58400Y-55000
X58400Y-57000
X59400Y-55000
X59400Y-57000
X60400Y-55000
X60400Y-57000
X61400Y-55000
X61400Y-57000
X62400Y-55000
X62400Y-57000
X63400Y-55000
X63400Y-57000
X64400Y-55000
X64400Y-57000
X65400Y-55000
X65400Y-57000
X66400Y-55000
X66400Y-57000
X67400Y-55000
X67400Y-57000
X68324Y-28239
X68400Y-55000
X68400Y-57000
X69324Y-28239
X69400Y-55000
X69400Y-57000
X70324Y-28239
X70400Y-55000
X70400Y-57000
X71324Y-28239
X71400Y-55000
X71400Y-57000
X72324Y-28239
X72400Y-55000
X72400Y-57000
X73324Y-28239
X73400Y-55000
X73400Y-57000
X74400Y-55000
X74400Y-57000
X75756Y-34821
X75756Y-35722
X75756Y-36624
X75756Y-37526
X75756Y-38427
X76535Y-34370
X76535Y-35272
X76535Y-36173
X76535Y-37075
X76535Y-37976
X77315Y-34821
X77315Y-35722
X77315Y-36624
X77315Y-37526
X77315Y-38427
T3
X76563Y-31598
X76563Y-41441
T0
M30
