%TF.GenerationSoftware,KiCad,Pcbnew,(6.0.7-rc1-83-g1005f75cdb)*%
%TF.CreationDate,2022-08-17T14:22:35+01:00*%
%TF.ProjectId,GfxFPGAS3,47667846-5047-4415-9333-2e6b69636164,rev?*%
%TF.SameCoordinates,Original*%
%TF.FileFunction,Paste,Top*%
%TF.FilePolarity,Positive*%
%FSLAX46Y46*%
G04 Gerber Fmt 4.6, Leading zero omitted, Abs format (unit mm)*
G04 Created by KiCad (PCBNEW (6.0.7-rc1-83-g1005f75cdb)) date 2022-08-17 14:22:35*
%MOMM*%
%LPD*%
G01*
G04 APERTURE LIST*
G04 Aperture macros list*
%AMRoundRect*
0 Rectangle with rounded corners*
0 $1 Rounding radius*
0 $2 $3 $4 $5 $6 $7 $8 $9 X,Y pos of 4 corners*
0 Add a 4 corners polygon primitive as box body*
4,1,4,$2,$3,$4,$5,$6,$7,$8,$9,$2,$3,0*
0 Add four circle primitives for the rounded corners*
1,1,$1+$1,$2,$3*
1,1,$1+$1,$4,$5*
1,1,$1+$1,$6,$7*
1,1,$1+$1,$8,$9*
0 Add four rect primitives between the rounded corners*
20,1,$1+$1,$2,$3,$4,$5,0*
20,1,$1+$1,$4,$5,$6,$7,0*
20,1,$1+$1,$6,$7,$8,$9,0*
20,1,$1+$1,$8,$9,$2,$3,0*%
G04 Aperture macros list end*
%ADD10RoundRect,0.250000X0.250000X0.475000X-0.250000X0.475000X-0.250000X-0.475000X0.250000X-0.475000X0*%
%ADD11RoundRect,0.250000X-0.250000X-0.475000X0.250000X-0.475000X0.250000X0.475000X-0.250000X0.475000X0*%
%ADD12RoundRect,0.250000X-0.550000X1.050000X-0.550000X-1.050000X0.550000X-1.050000X0.550000X1.050000X0*%
%ADD13RoundRect,0.250000X-0.262500X-0.450000X0.262500X-0.450000X0.262500X0.450000X-0.262500X0.450000X0*%
%ADD14RoundRect,0.150000X0.150000X-0.825000X0.150000X0.825000X-0.150000X0.825000X-0.150000X-0.825000X0*%
%ADD15R,1.500000X2.000000*%
%ADD16R,3.800000X2.000000*%
%ADD17R,1.500000X0.280000*%
%ADD18R,0.280000X1.500000*%
%ADD19R,1.610000X0.580000*%
%ADD20R,1.475000X0.300000*%
%ADD21R,0.300000X1.475000*%
%ADD22R,0.410000X1.570000*%
%ADD23R,1.300000X0.300000*%
%ADD24RoundRect,0.250000X-1.050000X-0.550000X1.050000X-0.550000X1.050000X0.550000X-1.050000X0.550000X0*%
%ADD25RoundRect,0.250000X0.375000X0.625000X-0.375000X0.625000X-0.375000X-0.625000X0.375000X-0.625000X0*%
%ADD26RoundRect,0.250000X0.450000X-0.262500X0.450000X0.262500X-0.450000X0.262500X-0.450000X-0.262500X0*%
G04 APERTURE END LIST*
D10*
%TO.C,C101*%
X111094000Y-118727000D03*
X109194000Y-118727000D03*
%TD*%
D11*
%TO.C,C102*%
X104450000Y-139600000D03*
X106350000Y-139600000D03*
%TD*%
%TO.C,C104*%
X104700000Y-125400000D03*
X106600000Y-125400000D03*
%TD*%
D12*
%TO.C,C105*%
X116444000Y-104527000D03*
X116444000Y-108127000D03*
%TD*%
D11*
%TO.C,C501*%
X186944000Y-79027000D03*
X188844000Y-79027000D03*
%TD*%
%TO.C,C502*%
X186944000Y-82827000D03*
X188844000Y-82827000D03*
%TD*%
D13*
%TO.C,R101*%
X104681500Y-105327000D03*
X106506500Y-105327000D03*
%TD*%
%TO.C,R501*%
X182719000Y-79027000D03*
X184544000Y-79027000D03*
%TD*%
%TO.C,R502*%
X178756500Y-79027000D03*
X180581500Y-79027000D03*
%TD*%
%TO.C,R503*%
X186544000Y-104027000D03*
X188369000Y-104027000D03*
%TD*%
%TO.C,R504*%
X186544000Y-100627000D03*
X188369000Y-100627000D03*
%TD*%
D14*
%TO.C,U101*%
X104990000Y-133475000D03*
X106260000Y-133475000D03*
X107530000Y-133475000D03*
X108800000Y-133475000D03*
X110070000Y-133475000D03*
X111340000Y-133475000D03*
X112610000Y-133475000D03*
X112610000Y-128525000D03*
X111340000Y-128525000D03*
X110070000Y-128525000D03*
X108800000Y-128525000D03*
X107530000Y-128525000D03*
X106260000Y-128525000D03*
X104990000Y-128525000D03*
%TD*%
D15*
%TO.C,U102*%
X106544000Y-115127000D03*
D16*
X108844000Y-108827000D03*
D15*
X108844000Y-115127000D03*
X111144000Y-115127000D03*
%TD*%
D17*
%TO.C,U301*%
X142585000Y-81315000D03*
X142585000Y-81815000D03*
X142585000Y-82315000D03*
X142585000Y-82815000D03*
X142585000Y-83315000D03*
X142585000Y-83815000D03*
X142585000Y-84315000D03*
X142585000Y-84815000D03*
X142585000Y-85315000D03*
X142585000Y-85815000D03*
X142585000Y-86315000D03*
X142585000Y-86815000D03*
X142585000Y-87315000D03*
X142585000Y-87815000D03*
X142585000Y-88315000D03*
X142585000Y-88815000D03*
X142585000Y-89315000D03*
X142585000Y-89815000D03*
X142585000Y-90315000D03*
X142585000Y-90815000D03*
X142585000Y-91315000D03*
X142585000Y-91815000D03*
X142585000Y-92315000D03*
X142585000Y-92815000D03*
X142585000Y-93315000D03*
X142585000Y-93815000D03*
X142585000Y-94315000D03*
X142585000Y-94815000D03*
X142585000Y-95315000D03*
X142585000Y-95815000D03*
X142585000Y-96315000D03*
X142585000Y-96815000D03*
X142585000Y-97315000D03*
X142585000Y-97815000D03*
X142585000Y-98315000D03*
X142585000Y-98815000D03*
X142585000Y-99315000D03*
X142585000Y-99815000D03*
X142585000Y-100315000D03*
X142585000Y-100815000D03*
X142585000Y-101315000D03*
X142585000Y-101815000D03*
X142585000Y-102315000D03*
X142585000Y-102815000D03*
X142585000Y-103315000D03*
X142585000Y-103815000D03*
X142585000Y-104315000D03*
X142585000Y-104815000D03*
X142585000Y-105315000D03*
X142585000Y-105815000D03*
X142585000Y-106315000D03*
X142585000Y-106815000D03*
D18*
X144800000Y-109030000D03*
X145300000Y-109030000D03*
X145800000Y-109030000D03*
X146300000Y-109030000D03*
X146800000Y-109030000D03*
X147300000Y-109030000D03*
X147800000Y-109030000D03*
X148300000Y-109030000D03*
X148800000Y-109030000D03*
X149300000Y-109030000D03*
X149800000Y-109030000D03*
X150300000Y-109030000D03*
X150800000Y-109030000D03*
X151300000Y-109030000D03*
X151800000Y-109030000D03*
X152300000Y-109030000D03*
X152800000Y-109030000D03*
X153300000Y-109030000D03*
X153800000Y-109030000D03*
X154300000Y-109030000D03*
X154800000Y-109030000D03*
X155300000Y-109030000D03*
X155800000Y-109030000D03*
X156300000Y-109030000D03*
X156800000Y-109030000D03*
X157300000Y-109030000D03*
X157800000Y-109030000D03*
X158300000Y-109030000D03*
X158800000Y-109030000D03*
X159300000Y-109030000D03*
X159800000Y-109030000D03*
X160300000Y-109030000D03*
X160800000Y-109030000D03*
X161300000Y-109030000D03*
X161800000Y-109030000D03*
X162300000Y-109030000D03*
X162800000Y-109030000D03*
X163300000Y-109030000D03*
X163800000Y-109030000D03*
X164300000Y-109030000D03*
X164800000Y-109030000D03*
X165300000Y-109030000D03*
X165800000Y-109030000D03*
X166300000Y-109030000D03*
X166800000Y-109030000D03*
X167300000Y-109030000D03*
X167800000Y-109030000D03*
X168300000Y-109030000D03*
X168800000Y-109030000D03*
X169300000Y-109030000D03*
X169800000Y-109030000D03*
X170300000Y-109030000D03*
D17*
X172515000Y-106815000D03*
X172515000Y-106315000D03*
X172515000Y-105815000D03*
X172515000Y-105315000D03*
X172515000Y-104815000D03*
X172515000Y-104315000D03*
X172515000Y-103815000D03*
X172515000Y-103315000D03*
X172515000Y-102815000D03*
X172515000Y-102315000D03*
X172515000Y-101815000D03*
X172515000Y-101315000D03*
X172515000Y-100815000D03*
X172515000Y-100315000D03*
X172515000Y-99815000D03*
X172515000Y-99315000D03*
X172515000Y-98815000D03*
X172515000Y-98315000D03*
X172515000Y-97815000D03*
X172515000Y-97315000D03*
X172515000Y-96815000D03*
X172515000Y-96315000D03*
X172515000Y-95815000D03*
X172515000Y-95315000D03*
X172515000Y-94815000D03*
X172515000Y-94315000D03*
X172515000Y-93815000D03*
X172515000Y-93315000D03*
X172515000Y-92815000D03*
X172515000Y-92315000D03*
X172515000Y-91815000D03*
X172515000Y-91315000D03*
X172515000Y-90815000D03*
X172515000Y-90315000D03*
X172515000Y-89815000D03*
X172515000Y-89315000D03*
X172515000Y-88815000D03*
X172515000Y-88315000D03*
X172515000Y-87815000D03*
X172515000Y-87315000D03*
X172515000Y-86815000D03*
X172515000Y-86315000D03*
X172515000Y-85815000D03*
X172515000Y-85315000D03*
X172515000Y-84815000D03*
X172515000Y-84315000D03*
X172515000Y-83815000D03*
X172515000Y-83315000D03*
X172515000Y-82815000D03*
X172515000Y-82315000D03*
X172515000Y-81815000D03*
X172515000Y-81315000D03*
D18*
X170300000Y-79100000D03*
X169800000Y-79100000D03*
X169300000Y-79100000D03*
X168800000Y-79100000D03*
X168300000Y-79100000D03*
X167800000Y-79100000D03*
X167300000Y-79100000D03*
X166800000Y-79100000D03*
X166300000Y-79100000D03*
X165800000Y-79100000D03*
X165300000Y-79100000D03*
X164800000Y-79100000D03*
X164300000Y-79100000D03*
X163800000Y-79100000D03*
X163300000Y-79100000D03*
X162800000Y-79100000D03*
X162300000Y-79100000D03*
X161800000Y-79100000D03*
X161300000Y-79100000D03*
X160800000Y-79100000D03*
X160300000Y-79100000D03*
X159800000Y-79100000D03*
X159300000Y-79100000D03*
X158800000Y-79100000D03*
X158300000Y-79100000D03*
X157800000Y-79100000D03*
X157300000Y-79100000D03*
X156800000Y-79100000D03*
X156300000Y-79100000D03*
X155800000Y-79100000D03*
X155300000Y-79100000D03*
X154800000Y-79100000D03*
X154300000Y-79100000D03*
X153800000Y-79100000D03*
X153300000Y-79100000D03*
X152800000Y-79100000D03*
X152300000Y-79100000D03*
X151800000Y-79100000D03*
X151300000Y-79100000D03*
X150800000Y-79100000D03*
X150300000Y-79100000D03*
X149800000Y-79100000D03*
X149300000Y-79100000D03*
X148800000Y-79100000D03*
X148300000Y-79100000D03*
X147800000Y-79100000D03*
X147300000Y-79100000D03*
X146800000Y-79100000D03*
X146300000Y-79100000D03*
X145800000Y-79100000D03*
X145300000Y-79100000D03*
X144800000Y-79100000D03*
%TD*%
D19*
%TO.C,U302*%
X131960000Y-113490000D03*
X131960000Y-114760000D03*
X131960000Y-116030000D03*
X131960000Y-117300000D03*
X139170000Y-117300000D03*
X139170000Y-116030000D03*
X139170000Y-114760000D03*
X139170000Y-113490000D03*
%TD*%
D20*
%TO.C,U501*%
X178844000Y-89075000D03*
X178844000Y-89575000D03*
X178844000Y-90075000D03*
X178844000Y-90575000D03*
X178844000Y-91075000D03*
X178844000Y-91575000D03*
X178844000Y-92075000D03*
X178844000Y-92575000D03*
X178844000Y-93075000D03*
X178844000Y-93575000D03*
X178844000Y-94075000D03*
X178844000Y-94575000D03*
D21*
X180332000Y-96063000D03*
X180832000Y-96063000D03*
X181332000Y-96063000D03*
X181832000Y-96063000D03*
X182332000Y-96063000D03*
X182832000Y-96063000D03*
X183332000Y-96063000D03*
X183832000Y-96063000D03*
X184332000Y-96063000D03*
X184832000Y-96063000D03*
X185332000Y-96063000D03*
X185832000Y-96063000D03*
D20*
X187320000Y-94575000D03*
X187320000Y-94075000D03*
X187320000Y-93575000D03*
X187320000Y-93075000D03*
X187320000Y-92575000D03*
X187320000Y-92075000D03*
X187320000Y-91575000D03*
X187320000Y-91075000D03*
X187320000Y-90575000D03*
X187320000Y-90075000D03*
X187320000Y-89575000D03*
X187320000Y-89075000D03*
D21*
X185832000Y-87587000D03*
X185332000Y-87587000D03*
X184832000Y-87587000D03*
X184332000Y-87587000D03*
X183832000Y-87587000D03*
X183332000Y-87587000D03*
X182832000Y-87587000D03*
X182332000Y-87587000D03*
X181832000Y-87587000D03*
X181332000Y-87587000D03*
X180832000Y-87587000D03*
X180332000Y-87587000D03*
%TD*%
D22*
%TO.C,U201*%
X154825000Y-133870000D03*
X155475000Y-133870000D03*
X156125000Y-133870000D03*
X156775000Y-133870000D03*
X157425000Y-133870000D03*
X158075000Y-133870000D03*
X158725000Y-133870000D03*
X159375000Y-133870000D03*
X160025000Y-133870000D03*
X160675000Y-133870000D03*
X161325000Y-133870000D03*
X161975000Y-133870000D03*
X161975000Y-128130000D03*
X161325000Y-128130000D03*
X160675000Y-128130000D03*
X160025000Y-128130000D03*
X159375000Y-128130000D03*
X158725000Y-128130000D03*
X158075000Y-128130000D03*
X157425000Y-128130000D03*
X156775000Y-128130000D03*
X156125000Y-128130000D03*
X155475000Y-128130000D03*
X154825000Y-128130000D03*
%TD*%
%TO.C,U202*%
X143225000Y-133870000D03*
X143875000Y-133870000D03*
X144525000Y-133870000D03*
X145175000Y-133870000D03*
X145825000Y-133870000D03*
X146475000Y-133870000D03*
X147125000Y-133870000D03*
X147775000Y-133870000D03*
X148425000Y-133870000D03*
X149075000Y-133870000D03*
X149725000Y-133870000D03*
X150375000Y-133870000D03*
X150375000Y-128130000D03*
X149725000Y-128130000D03*
X149075000Y-128130000D03*
X148425000Y-128130000D03*
X147775000Y-128130000D03*
X147125000Y-128130000D03*
X146475000Y-128130000D03*
X145825000Y-128130000D03*
X145175000Y-128130000D03*
X144525000Y-128130000D03*
X143875000Y-128130000D03*
X143225000Y-128130000D03*
%TD*%
%TO.C,U204*%
X118625000Y-133870000D03*
X119275000Y-133870000D03*
X119925000Y-133870000D03*
X120575000Y-133870000D03*
X121225000Y-133870000D03*
X121875000Y-133870000D03*
X122525000Y-133870000D03*
X123175000Y-133870000D03*
X123825000Y-133870000D03*
X124475000Y-133870000D03*
X125125000Y-133870000D03*
X125775000Y-133870000D03*
X125775000Y-128130000D03*
X125125000Y-128130000D03*
X124475000Y-128130000D03*
X123825000Y-128130000D03*
X123175000Y-128130000D03*
X122525000Y-128130000D03*
X121875000Y-128130000D03*
X121225000Y-128130000D03*
X120575000Y-128130000D03*
X119925000Y-128130000D03*
X119275000Y-128130000D03*
X118625000Y-128130000D03*
%TD*%
%TO.C,U205*%
X179825000Y-133870000D03*
X180475000Y-133870000D03*
X181125000Y-133870000D03*
X181775000Y-133870000D03*
X182425000Y-133870000D03*
X183075000Y-133870000D03*
X183725000Y-133870000D03*
X184375000Y-133870000D03*
X185025000Y-133870000D03*
X185675000Y-133870000D03*
X186325000Y-133870000D03*
X186975000Y-133870000D03*
X186975000Y-128130000D03*
X186325000Y-128130000D03*
X185675000Y-128130000D03*
X185025000Y-128130000D03*
X184375000Y-128130000D03*
X183725000Y-128130000D03*
X183075000Y-128130000D03*
X182425000Y-128130000D03*
X181775000Y-128130000D03*
X181125000Y-128130000D03*
X180475000Y-128130000D03*
X179825000Y-128130000D03*
%TD*%
%TO.C,U206*%
X166960000Y-133870000D03*
X167610000Y-133870000D03*
X168260000Y-133870000D03*
X168910000Y-133870000D03*
X169560000Y-133870000D03*
X170210000Y-133870000D03*
X170860000Y-133870000D03*
X171510000Y-133870000D03*
X172160000Y-133870000D03*
X172810000Y-133870000D03*
X173460000Y-133870000D03*
X174110000Y-133870000D03*
X174110000Y-128130000D03*
X173460000Y-128130000D03*
X172810000Y-128130000D03*
X172160000Y-128130000D03*
X171510000Y-128130000D03*
X170860000Y-128130000D03*
X170210000Y-128130000D03*
X169560000Y-128130000D03*
X168910000Y-128130000D03*
X168260000Y-128130000D03*
X167610000Y-128130000D03*
X166960000Y-128130000D03*
%TD*%
%TO.C,U203*%
X131025000Y-133870000D03*
X131675000Y-133870000D03*
X132325000Y-133870000D03*
X132975000Y-133870000D03*
X133625000Y-133870000D03*
X134275000Y-133870000D03*
X134925000Y-133870000D03*
X135575000Y-133870000D03*
X136225000Y-133870000D03*
X136875000Y-133870000D03*
X137525000Y-133870000D03*
X138175000Y-133870000D03*
X138175000Y-128130000D03*
X137525000Y-128130000D03*
X136875000Y-128130000D03*
X136225000Y-128130000D03*
X135575000Y-128130000D03*
X134925000Y-128130000D03*
X134275000Y-128130000D03*
X133625000Y-128130000D03*
X132975000Y-128130000D03*
X132325000Y-128130000D03*
X131675000Y-128130000D03*
X131025000Y-128130000D03*
%TD*%
D11*
%TO.C,C106*%
X108794000Y-105327000D03*
X110694000Y-105327000D03*
%TD*%
D23*
%TO.C,U402*%
X138594000Y-69277000D03*
X138594000Y-68777000D03*
X138594000Y-68277000D03*
X138594000Y-67777000D03*
X138594000Y-67277000D03*
X138594000Y-66777000D03*
X138594000Y-66277000D03*
X138594000Y-65777000D03*
X138594000Y-65277000D03*
X138594000Y-64777000D03*
X138594000Y-64277000D03*
X138594000Y-63777000D03*
X138594000Y-63277000D03*
X138594000Y-62777000D03*
X138594000Y-62277000D03*
X138594000Y-61777000D03*
X138594000Y-61277000D03*
X138594000Y-60777000D03*
X138594000Y-60277000D03*
X138594000Y-59777000D03*
X138594000Y-59277000D03*
X138594000Y-58777000D03*
X138594000Y-58277000D03*
X138594000Y-57777000D03*
X118894000Y-57777000D03*
X118894000Y-58277000D03*
X118894000Y-58777000D03*
X118894000Y-59277000D03*
X118894000Y-59777000D03*
X118894000Y-60277000D03*
X118894000Y-60777000D03*
X118894000Y-61277000D03*
X118894000Y-61777000D03*
X118894000Y-62277000D03*
X118894000Y-62777000D03*
X118894000Y-63277000D03*
X118894000Y-63777000D03*
X118894000Y-64277000D03*
X118894000Y-64777000D03*
X118894000Y-65277000D03*
X118894000Y-65777000D03*
X118894000Y-66277000D03*
X118894000Y-66777000D03*
X118894000Y-67277000D03*
X118894000Y-67777000D03*
X118894000Y-68277000D03*
X118894000Y-68777000D03*
X118894000Y-69277000D03*
%TD*%
%TO.C,U401*%
X129944000Y-85027000D03*
X129944000Y-84527000D03*
X129944000Y-84027000D03*
X129944000Y-83527000D03*
X129944000Y-83027000D03*
X129944000Y-82527000D03*
X129944000Y-82027000D03*
X129944000Y-81527000D03*
X129944000Y-81027000D03*
X129944000Y-80527000D03*
X129944000Y-80027000D03*
X129944000Y-79527000D03*
X129944000Y-79027000D03*
X129944000Y-78527000D03*
X129944000Y-78027000D03*
X129944000Y-77527000D03*
X129944000Y-77027000D03*
X129944000Y-76527000D03*
X129944000Y-76027000D03*
X129944000Y-75527000D03*
X129944000Y-75027000D03*
X129944000Y-74527000D03*
X129944000Y-74027000D03*
X129944000Y-73527000D03*
X110244000Y-73527000D03*
X110244000Y-74027000D03*
X110244000Y-74527000D03*
X110244000Y-75027000D03*
X110244000Y-75527000D03*
X110244000Y-76027000D03*
X110244000Y-76527000D03*
X110244000Y-77027000D03*
X110244000Y-77527000D03*
X110244000Y-78027000D03*
X110244000Y-78527000D03*
X110244000Y-79027000D03*
X110244000Y-79527000D03*
X110244000Y-80027000D03*
X110244000Y-80527000D03*
X110244000Y-81027000D03*
X110244000Y-81527000D03*
X110244000Y-82027000D03*
X110244000Y-82527000D03*
X110244000Y-83027000D03*
X110244000Y-83527000D03*
X110244000Y-84027000D03*
X110244000Y-84527000D03*
X110244000Y-85027000D03*
%TD*%
D24*
%TO.C,C1*%
X139644000Y-73327000D03*
X143244000Y-73327000D03*
%TD*%
D25*
%TO.C,D2*%
X197200000Y-119500000D03*
X194400000Y-119500000D03*
%TD*%
%TO.C,D1*%
X197200000Y-113500000D03*
X194400000Y-113500000D03*
%TD*%
D10*
%TO.C,C103*%
X117000000Y-125800000D03*
X115100000Y-125800000D03*
%TD*%
D13*
%TO.C,R12*%
X189575000Y-119500000D03*
X191400000Y-119500000D03*
%TD*%
%TO.C,R7*%
X141675000Y-124900000D03*
X143500000Y-124900000D03*
%TD*%
%TO.C,R2*%
X189675000Y-113500000D03*
X191500000Y-113500000D03*
%TD*%
D26*
%TO.C,R8*%
X192500000Y-133600000D03*
X192500000Y-131775000D03*
%TD*%
M02*
