%TF.GenerationSoftware,KiCad,Pcbnew,(6.0.7-rc1-83-g1005f75cdb)*%
%TF.CreationDate,2022-08-17T14:22:36+01:00*%
%TF.ProjectId,GfxFPGAS3,47667846-5047-4415-9333-2e6b69636164,rev?*%
%TF.SameCoordinates,Original*%
%TF.FileFunction,Legend,Bot*%
%TF.FilePolarity,Positive*%
%FSLAX46Y46*%
G04 Gerber Fmt 4.6, Leading zero omitted, Abs format (unit mm)*
G04 Created by KiCad (PCBNEW (6.0.7-rc1-83-g1005f75cdb)) date 2022-08-17 14:22:36*
%MOMM*%
%LPD*%
G01*
G04 APERTURE LIST*
%ADD10C,0.150000*%
%ADD11C,0.120293*%
%ADD12C,0.120000*%
%ADD13C,0.127000*%
%ADD14C,0.200000*%
G04 APERTURE END LIST*
D10*
%TO.C,C201*%
X184469047Y-134937142D02*
X184516666Y-134984761D01*
X184659523Y-135032380D01*
X184754761Y-135032380D01*
X184897619Y-134984761D01*
X184992857Y-134889523D01*
X185040476Y-134794285D01*
X185088095Y-134603809D01*
X185088095Y-134460952D01*
X185040476Y-134270476D01*
X184992857Y-134175238D01*
X184897619Y-134080000D01*
X184754761Y-134032380D01*
X184659523Y-134032380D01*
X184516666Y-134080000D01*
X184469047Y-134127619D01*
X184088095Y-134127619D02*
X184040476Y-134080000D01*
X183945238Y-134032380D01*
X183707142Y-134032380D01*
X183611904Y-134080000D01*
X183564285Y-134127619D01*
X183516666Y-134222857D01*
X183516666Y-134318095D01*
X183564285Y-134460952D01*
X184135714Y-135032380D01*
X183516666Y-135032380D01*
X182897619Y-134032380D02*
X182802380Y-134032380D01*
X182707142Y-134080000D01*
X182659523Y-134127619D01*
X182611904Y-134222857D01*
X182564285Y-134413333D01*
X182564285Y-134651428D01*
X182611904Y-134841904D01*
X182659523Y-134937142D01*
X182707142Y-134984761D01*
X182802380Y-135032380D01*
X182897619Y-135032380D01*
X182992857Y-134984761D01*
X183040476Y-134937142D01*
X183088095Y-134841904D01*
X183135714Y-134651428D01*
X183135714Y-134413333D01*
X183088095Y-134222857D01*
X183040476Y-134127619D01*
X182992857Y-134080000D01*
X182897619Y-134032380D01*
X181611904Y-135032380D02*
X182183333Y-135032380D01*
X181897619Y-135032380D02*
X181897619Y-134032380D01*
X181992857Y-134175238D01*
X182088095Y-134270476D01*
X182183333Y-134318095D01*
%TO.C,C202*%
X171669047Y-134837142D02*
X171716666Y-134884761D01*
X171859523Y-134932380D01*
X171954761Y-134932380D01*
X172097619Y-134884761D01*
X172192857Y-134789523D01*
X172240476Y-134694285D01*
X172288095Y-134503809D01*
X172288095Y-134360952D01*
X172240476Y-134170476D01*
X172192857Y-134075238D01*
X172097619Y-133980000D01*
X171954761Y-133932380D01*
X171859523Y-133932380D01*
X171716666Y-133980000D01*
X171669047Y-134027619D01*
X171288095Y-134027619D02*
X171240476Y-133980000D01*
X171145238Y-133932380D01*
X170907142Y-133932380D01*
X170811904Y-133980000D01*
X170764285Y-134027619D01*
X170716666Y-134122857D01*
X170716666Y-134218095D01*
X170764285Y-134360952D01*
X171335714Y-134932380D01*
X170716666Y-134932380D01*
X170097619Y-133932380D02*
X170002380Y-133932380D01*
X169907142Y-133980000D01*
X169859523Y-134027619D01*
X169811904Y-134122857D01*
X169764285Y-134313333D01*
X169764285Y-134551428D01*
X169811904Y-134741904D01*
X169859523Y-134837142D01*
X169907142Y-134884761D01*
X170002380Y-134932380D01*
X170097619Y-134932380D01*
X170192857Y-134884761D01*
X170240476Y-134837142D01*
X170288095Y-134741904D01*
X170335714Y-134551428D01*
X170335714Y-134313333D01*
X170288095Y-134122857D01*
X170240476Y-134027619D01*
X170192857Y-133980000D01*
X170097619Y-133932380D01*
X169383333Y-134027619D02*
X169335714Y-133980000D01*
X169240476Y-133932380D01*
X169002380Y-133932380D01*
X168907142Y-133980000D01*
X168859523Y-134027619D01*
X168811904Y-134122857D01*
X168811904Y-134218095D01*
X168859523Y-134360952D01*
X169430952Y-134932380D01*
X168811904Y-134932380D01*
%TO.C,C203*%
X159519047Y-134837142D02*
X159566666Y-134884761D01*
X159709523Y-134932380D01*
X159804761Y-134932380D01*
X159947619Y-134884761D01*
X160042857Y-134789523D01*
X160090476Y-134694285D01*
X160138095Y-134503809D01*
X160138095Y-134360952D01*
X160090476Y-134170476D01*
X160042857Y-134075238D01*
X159947619Y-133980000D01*
X159804761Y-133932380D01*
X159709523Y-133932380D01*
X159566666Y-133980000D01*
X159519047Y-134027619D01*
X159138095Y-134027619D02*
X159090476Y-133980000D01*
X158995238Y-133932380D01*
X158757142Y-133932380D01*
X158661904Y-133980000D01*
X158614285Y-134027619D01*
X158566666Y-134122857D01*
X158566666Y-134218095D01*
X158614285Y-134360952D01*
X159185714Y-134932380D01*
X158566666Y-134932380D01*
X157947619Y-133932380D02*
X157852380Y-133932380D01*
X157757142Y-133980000D01*
X157709523Y-134027619D01*
X157661904Y-134122857D01*
X157614285Y-134313333D01*
X157614285Y-134551428D01*
X157661904Y-134741904D01*
X157709523Y-134837142D01*
X157757142Y-134884761D01*
X157852380Y-134932380D01*
X157947619Y-134932380D01*
X158042857Y-134884761D01*
X158090476Y-134837142D01*
X158138095Y-134741904D01*
X158185714Y-134551428D01*
X158185714Y-134313333D01*
X158138095Y-134122857D01*
X158090476Y-134027619D01*
X158042857Y-133980000D01*
X157947619Y-133932380D01*
X157280952Y-133932380D02*
X156661904Y-133932380D01*
X156995238Y-134313333D01*
X156852380Y-134313333D01*
X156757142Y-134360952D01*
X156709523Y-134408571D01*
X156661904Y-134503809D01*
X156661904Y-134741904D01*
X156709523Y-134837142D01*
X156757142Y-134884761D01*
X156852380Y-134932380D01*
X157138095Y-134932380D01*
X157233333Y-134884761D01*
X157280952Y-134837142D01*
%TO.C,C204*%
X147969047Y-134937142D02*
X148016666Y-134984761D01*
X148159523Y-135032380D01*
X148254761Y-135032380D01*
X148397619Y-134984761D01*
X148492857Y-134889523D01*
X148540476Y-134794285D01*
X148588095Y-134603809D01*
X148588095Y-134460952D01*
X148540476Y-134270476D01*
X148492857Y-134175238D01*
X148397619Y-134080000D01*
X148254761Y-134032380D01*
X148159523Y-134032380D01*
X148016666Y-134080000D01*
X147969047Y-134127619D01*
X147588095Y-134127619D02*
X147540476Y-134080000D01*
X147445238Y-134032380D01*
X147207142Y-134032380D01*
X147111904Y-134080000D01*
X147064285Y-134127619D01*
X147016666Y-134222857D01*
X147016666Y-134318095D01*
X147064285Y-134460952D01*
X147635714Y-135032380D01*
X147016666Y-135032380D01*
X146397619Y-134032380D02*
X146302380Y-134032380D01*
X146207142Y-134080000D01*
X146159523Y-134127619D01*
X146111904Y-134222857D01*
X146064285Y-134413333D01*
X146064285Y-134651428D01*
X146111904Y-134841904D01*
X146159523Y-134937142D01*
X146207142Y-134984761D01*
X146302380Y-135032380D01*
X146397619Y-135032380D01*
X146492857Y-134984761D01*
X146540476Y-134937142D01*
X146588095Y-134841904D01*
X146635714Y-134651428D01*
X146635714Y-134413333D01*
X146588095Y-134222857D01*
X146540476Y-134127619D01*
X146492857Y-134080000D01*
X146397619Y-134032380D01*
X145207142Y-134365714D02*
X145207142Y-135032380D01*
X145445238Y-133984761D02*
X145683333Y-134699047D01*
X145064285Y-134699047D01*
%TO.C,C205*%
X135769047Y-134937142D02*
X135816666Y-134984761D01*
X135959523Y-135032380D01*
X136054761Y-135032380D01*
X136197619Y-134984761D01*
X136292857Y-134889523D01*
X136340476Y-134794285D01*
X136388095Y-134603809D01*
X136388095Y-134460952D01*
X136340476Y-134270476D01*
X136292857Y-134175238D01*
X136197619Y-134080000D01*
X136054761Y-134032380D01*
X135959523Y-134032380D01*
X135816666Y-134080000D01*
X135769047Y-134127619D01*
X135388095Y-134127619D02*
X135340476Y-134080000D01*
X135245238Y-134032380D01*
X135007142Y-134032380D01*
X134911904Y-134080000D01*
X134864285Y-134127619D01*
X134816666Y-134222857D01*
X134816666Y-134318095D01*
X134864285Y-134460952D01*
X135435714Y-135032380D01*
X134816666Y-135032380D01*
X134197619Y-134032380D02*
X134102380Y-134032380D01*
X134007142Y-134080000D01*
X133959523Y-134127619D01*
X133911904Y-134222857D01*
X133864285Y-134413333D01*
X133864285Y-134651428D01*
X133911904Y-134841904D01*
X133959523Y-134937142D01*
X134007142Y-134984761D01*
X134102380Y-135032380D01*
X134197619Y-135032380D01*
X134292857Y-134984761D01*
X134340476Y-134937142D01*
X134388095Y-134841904D01*
X134435714Y-134651428D01*
X134435714Y-134413333D01*
X134388095Y-134222857D01*
X134340476Y-134127619D01*
X134292857Y-134080000D01*
X134197619Y-134032380D01*
X132959523Y-134032380D02*
X133435714Y-134032380D01*
X133483333Y-134508571D01*
X133435714Y-134460952D01*
X133340476Y-134413333D01*
X133102380Y-134413333D01*
X133007142Y-134460952D01*
X132959523Y-134508571D01*
X132911904Y-134603809D01*
X132911904Y-134841904D01*
X132959523Y-134937142D01*
X133007142Y-134984761D01*
X133102380Y-135032380D01*
X133340476Y-135032380D01*
X133435714Y-134984761D01*
X133483333Y-134937142D01*
%TO.C,C206*%
X123319047Y-135237142D02*
X123366666Y-135284761D01*
X123509523Y-135332380D01*
X123604761Y-135332380D01*
X123747619Y-135284761D01*
X123842857Y-135189523D01*
X123890476Y-135094285D01*
X123938095Y-134903809D01*
X123938095Y-134760952D01*
X123890476Y-134570476D01*
X123842857Y-134475238D01*
X123747619Y-134380000D01*
X123604761Y-134332380D01*
X123509523Y-134332380D01*
X123366666Y-134380000D01*
X123319047Y-134427619D01*
X122938095Y-134427619D02*
X122890476Y-134380000D01*
X122795238Y-134332380D01*
X122557142Y-134332380D01*
X122461904Y-134380000D01*
X122414285Y-134427619D01*
X122366666Y-134522857D01*
X122366666Y-134618095D01*
X122414285Y-134760952D01*
X122985714Y-135332380D01*
X122366666Y-135332380D01*
X121747619Y-134332380D02*
X121652380Y-134332380D01*
X121557142Y-134380000D01*
X121509523Y-134427619D01*
X121461904Y-134522857D01*
X121414285Y-134713333D01*
X121414285Y-134951428D01*
X121461904Y-135141904D01*
X121509523Y-135237142D01*
X121557142Y-135284761D01*
X121652380Y-135332380D01*
X121747619Y-135332380D01*
X121842857Y-135284761D01*
X121890476Y-135237142D01*
X121938095Y-135141904D01*
X121985714Y-134951428D01*
X121985714Y-134713333D01*
X121938095Y-134522857D01*
X121890476Y-134427619D01*
X121842857Y-134380000D01*
X121747619Y-134332380D01*
X120557142Y-134332380D02*
X120747619Y-134332380D01*
X120842857Y-134380000D01*
X120890476Y-134427619D01*
X120985714Y-134570476D01*
X121033333Y-134760952D01*
X121033333Y-135141904D01*
X120985714Y-135237142D01*
X120938095Y-135284761D01*
X120842857Y-135332380D01*
X120652380Y-135332380D01*
X120557142Y-135284761D01*
X120509523Y-135237142D01*
X120461904Y-135141904D01*
X120461904Y-134903809D01*
X120509523Y-134808571D01*
X120557142Y-134760952D01*
X120652380Y-134713333D01*
X120842857Y-134713333D01*
X120938095Y-134760952D01*
X120985714Y-134808571D01*
X121033333Y-134903809D01*
%TO.C,C207*%
X184469047Y-131037142D02*
X184516666Y-131084761D01*
X184659523Y-131132380D01*
X184754761Y-131132380D01*
X184897619Y-131084761D01*
X184992857Y-130989523D01*
X185040476Y-130894285D01*
X185088095Y-130703809D01*
X185088095Y-130560952D01*
X185040476Y-130370476D01*
X184992857Y-130275238D01*
X184897619Y-130180000D01*
X184754761Y-130132380D01*
X184659523Y-130132380D01*
X184516666Y-130180000D01*
X184469047Y-130227619D01*
X184088095Y-130227619D02*
X184040476Y-130180000D01*
X183945238Y-130132380D01*
X183707142Y-130132380D01*
X183611904Y-130180000D01*
X183564285Y-130227619D01*
X183516666Y-130322857D01*
X183516666Y-130418095D01*
X183564285Y-130560952D01*
X184135714Y-131132380D01*
X183516666Y-131132380D01*
X182897619Y-130132380D02*
X182802380Y-130132380D01*
X182707142Y-130180000D01*
X182659523Y-130227619D01*
X182611904Y-130322857D01*
X182564285Y-130513333D01*
X182564285Y-130751428D01*
X182611904Y-130941904D01*
X182659523Y-131037142D01*
X182707142Y-131084761D01*
X182802380Y-131132380D01*
X182897619Y-131132380D01*
X182992857Y-131084761D01*
X183040476Y-131037142D01*
X183088095Y-130941904D01*
X183135714Y-130751428D01*
X183135714Y-130513333D01*
X183088095Y-130322857D01*
X183040476Y-130227619D01*
X182992857Y-130180000D01*
X182897619Y-130132380D01*
X182230952Y-130132380D02*
X181564285Y-130132380D01*
X181992857Y-131132380D01*
%TO.C,C208*%
X171669047Y-131137142D02*
X171716666Y-131184761D01*
X171859523Y-131232380D01*
X171954761Y-131232380D01*
X172097619Y-131184761D01*
X172192857Y-131089523D01*
X172240476Y-130994285D01*
X172288095Y-130803809D01*
X172288095Y-130660952D01*
X172240476Y-130470476D01*
X172192857Y-130375238D01*
X172097619Y-130280000D01*
X171954761Y-130232380D01*
X171859523Y-130232380D01*
X171716666Y-130280000D01*
X171669047Y-130327619D01*
X171288095Y-130327619D02*
X171240476Y-130280000D01*
X171145238Y-130232380D01*
X170907142Y-130232380D01*
X170811904Y-130280000D01*
X170764285Y-130327619D01*
X170716666Y-130422857D01*
X170716666Y-130518095D01*
X170764285Y-130660952D01*
X171335714Y-131232380D01*
X170716666Y-131232380D01*
X170097619Y-130232380D02*
X170002380Y-130232380D01*
X169907142Y-130280000D01*
X169859523Y-130327619D01*
X169811904Y-130422857D01*
X169764285Y-130613333D01*
X169764285Y-130851428D01*
X169811904Y-131041904D01*
X169859523Y-131137142D01*
X169907142Y-131184761D01*
X170002380Y-131232380D01*
X170097619Y-131232380D01*
X170192857Y-131184761D01*
X170240476Y-131137142D01*
X170288095Y-131041904D01*
X170335714Y-130851428D01*
X170335714Y-130613333D01*
X170288095Y-130422857D01*
X170240476Y-130327619D01*
X170192857Y-130280000D01*
X170097619Y-130232380D01*
X169192857Y-130660952D02*
X169288095Y-130613333D01*
X169335714Y-130565714D01*
X169383333Y-130470476D01*
X169383333Y-130422857D01*
X169335714Y-130327619D01*
X169288095Y-130280000D01*
X169192857Y-130232380D01*
X169002380Y-130232380D01*
X168907142Y-130280000D01*
X168859523Y-130327619D01*
X168811904Y-130422857D01*
X168811904Y-130470476D01*
X168859523Y-130565714D01*
X168907142Y-130613333D01*
X169002380Y-130660952D01*
X169192857Y-130660952D01*
X169288095Y-130708571D01*
X169335714Y-130756190D01*
X169383333Y-130851428D01*
X169383333Y-131041904D01*
X169335714Y-131137142D01*
X169288095Y-131184761D01*
X169192857Y-131232380D01*
X169002380Y-131232380D01*
X168907142Y-131184761D01*
X168859523Y-131137142D01*
X168811904Y-131041904D01*
X168811904Y-130851428D01*
X168859523Y-130756190D01*
X168907142Y-130708571D01*
X169002380Y-130660952D01*
%TO.C,C209*%
X159469047Y-131137142D02*
X159516666Y-131184761D01*
X159659523Y-131232380D01*
X159754761Y-131232380D01*
X159897619Y-131184761D01*
X159992857Y-131089523D01*
X160040476Y-130994285D01*
X160088095Y-130803809D01*
X160088095Y-130660952D01*
X160040476Y-130470476D01*
X159992857Y-130375238D01*
X159897619Y-130280000D01*
X159754761Y-130232380D01*
X159659523Y-130232380D01*
X159516666Y-130280000D01*
X159469047Y-130327619D01*
X159088095Y-130327619D02*
X159040476Y-130280000D01*
X158945238Y-130232380D01*
X158707142Y-130232380D01*
X158611904Y-130280000D01*
X158564285Y-130327619D01*
X158516666Y-130422857D01*
X158516666Y-130518095D01*
X158564285Y-130660952D01*
X159135714Y-131232380D01*
X158516666Y-131232380D01*
X157897619Y-130232380D02*
X157802380Y-130232380D01*
X157707142Y-130280000D01*
X157659523Y-130327619D01*
X157611904Y-130422857D01*
X157564285Y-130613333D01*
X157564285Y-130851428D01*
X157611904Y-131041904D01*
X157659523Y-131137142D01*
X157707142Y-131184761D01*
X157802380Y-131232380D01*
X157897619Y-131232380D01*
X157992857Y-131184761D01*
X158040476Y-131137142D01*
X158088095Y-131041904D01*
X158135714Y-130851428D01*
X158135714Y-130613333D01*
X158088095Y-130422857D01*
X158040476Y-130327619D01*
X157992857Y-130280000D01*
X157897619Y-130232380D01*
X157088095Y-131232380D02*
X156897619Y-131232380D01*
X156802380Y-131184761D01*
X156754761Y-131137142D01*
X156659523Y-130994285D01*
X156611904Y-130803809D01*
X156611904Y-130422857D01*
X156659523Y-130327619D01*
X156707142Y-130280000D01*
X156802380Y-130232380D01*
X156992857Y-130232380D01*
X157088095Y-130280000D01*
X157135714Y-130327619D01*
X157183333Y-130422857D01*
X157183333Y-130660952D01*
X157135714Y-130756190D01*
X157088095Y-130803809D01*
X156992857Y-130851428D01*
X156802380Y-130851428D01*
X156707142Y-130803809D01*
X156659523Y-130756190D01*
X156611904Y-130660952D01*
%TO.C,C210*%
X147919047Y-131137142D02*
X147966666Y-131184761D01*
X148109523Y-131232380D01*
X148204761Y-131232380D01*
X148347619Y-131184761D01*
X148442857Y-131089523D01*
X148490476Y-130994285D01*
X148538095Y-130803809D01*
X148538095Y-130660952D01*
X148490476Y-130470476D01*
X148442857Y-130375238D01*
X148347619Y-130280000D01*
X148204761Y-130232380D01*
X148109523Y-130232380D01*
X147966666Y-130280000D01*
X147919047Y-130327619D01*
X147538095Y-130327619D02*
X147490476Y-130280000D01*
X147395238Y-130232380D01*
X147157142Y-130232380D01*
X147061904Y-130280000D01*
X147014285Y-130327619D01*
X146966666Y-130422857D01*
X146966666Y-130518095D01*
X147014285Y-130660952D01*
X147585714Y-131232380D01*
X146966666Y-131232380D01*
X146014285Y-131232380D02*
X146585714Y-131232380D01*
X146300000Y-131232380D02*
X146300000Y-130232380D01*
X146395238Y-130375238D01*
X146490476Y-130470476D01*
X146585714Y-130518095D01*
X145395238Y-130232380D02*
X145300000Y-130232380D01*
X145204761Y-130280000D01*
X145157142Y-130327619D01*
X145109523Y-130422857D01*
X145061904Y-130613333D01*
X145061904Y-130851428D01*
X145109523Y-131041904D01*
X145157142Y-131137142D01*
X145204761Y-131184761D01*
X145300000Y-131232380D01*
X145395238Y-131232380D01*
X145490476Y-131184761D01*
X145538095Y-131137142D01*
X145585714Y-131041904D01*
X145633333Y-130851428D01*
X145633333Y-130613333D01*
X145585714Y-130422857D01*
X145538095Y-130327619D01*
X145490476Y-130280000D01*
X145395238Y-130232380D01*
%TO.C,C211*%
X135719047Y-131137142D02*
X135766666Y-131184761D01*
X135909523Y-131232380D01*
X136004761Y-131232380D01*
X136147619Y-131184761D01*
X136242857Y-131089523D01*
X136290476Y-130994285D01*
X136338095Y-130803809D01*
X136338095Y-130660952D01*
X136290476Y-130470476D01*
X136242857Y-130375238D01*
X136147619Y-130280000D01*
X136004761Y-130232380D01*
X135909523Y-130232380D01*
X135766666Y-130280000D01*
X135719047Y-130327619D01*
X135338095Y-130327619D02*
X135290476Y-130280000D01*
X135195238Y-130232380D01*
X134957142Y-130232380D01*
X134861904Y-130280000D01*
X134814285Y-130327619D01*
X134766666Y-130422857D01*
X134766666Y-130518095D01*
X134814285Y-130660952D01*
X135385714Y-131232380D01*
X134766666Y-131232380D01*
X133814285Y-131232380D02*
X134385714Y-131232380D01*
X134100000Y-131232380D02*
X134100000Y-130232380D01*
X134195238Y-130375238D01*
X134290476Y-130470476D01*
X134385714Y-130518095D01*
X132861904Y-131232380D02*
X133433333Y-131232380D01*
X133147619Y-131232380D02*
X133147619Y-130232380D01*
X133242857Y-130375238D01*
X133338095Y-130470476D01*
X133433333Y-130518095D01*
%TO.C,C212*%
X123319047Y-131137142D02*
X123366666Y-131184761D01*
X123509523Y-131232380D01*
X123604761Y-131232380D01*
X123747619Y-131184761D01*
X123842857Y-131089523D01*
X123890476Y-130994285D01*
X123938095Y-130803809D01*
X123938095Y-130660952D01*
X123890476Y-130470476D01*
X123842857Y-130375238D01*
X123747619Y-130280000D01*
X123604761Y-130232380D01*
X123509523Y-130232380D01*
X123366666Y-130280000D01*
X123319047Y-130327619D01*
X122938095Y-130327619D02*
X122890476Y-130280000D01*
X122795238Y-130232380D01*
X122557142Y-130232380D01*
X122461904Y-130280000D01*
X122414285Y-130327619D01*
X122366666Y-130422857D01*
X122366666Y-130518095D01*
X122414285Y-130660952D01*
X122985714Y-131232380D01*
X122366666Y-131232380D01*
X121414285Y-131232380D02*
X121985714Y-131232380D01*
X121700000Y-131232380D02*
X121700000Y-130232380D01*
X121795238Y-130375238D01*
X121890476Y-130470476D01*
X121985714Y-130518095D01*
X121033333Y-130327619D02*
X120985714Y-130280000D01*
X120890476Y-130232380D01*
X120652380Y-130232380D01*
X120557142Y-130280000D01*
X120509523Y-130327619D01*
X120461904Y-130422857D01*
X120461904Y-130518095D01*
X120509523Y-130660952D01*
X121080952Y-131232380D01*
X120461904Y-131232380D01*
%TO.C,C301*%
X160221142Y-88157952D02*
X160268761Y-88110333D01*
X160316380Y-87967476D01*
X160316380Y-87872238D01*
X160268761Y-87729380D01*
X160173523Y-87634142D01*
X160078285Y-87586523D01*
X159887809Y-87538904D01*
X159744952Y-87538904D01*
X159554476Y-87586523D01*
X159459238Y-87634142D01*
X159364000Y-87729380D01*
X159316380Y-87872238D01*
X159316380Y-87967476D01*
X159364000Y-88110333D01*
X159411619Y-88157952D01*
X159316380Y-88491285D02*
X159316380Y-89110333D01*
X159697333Y-88777000D01*
X159697333Y-88919857D01*
X159744952Y-89015095D01*
X159792571Y-89062714D01*
X159887809Y-89110333D01*
X160125904Y-89110333D01*
X160221142Y-89062714D01*
X160268761Y-89015095D01*
X160316380Y-88919857D01*
X160316380Y-88634142D01*
X160268761Y-88538904D01*
X160221142Y-88491285D01*
X159316380Y-89729380D02*
X159316380Y-89824619D01*
X159364000Y-89919857D01*
X159411619Y-89967476D01*
X159506857Y-90015095D01*
X159697333Y-90062714D01*
X159935428Y-90062714D01*
X160125904Y-90015095D01*
X160221142Y-89967476D01*
X160268761Y-89919857D01*
X160316380Y-89824619D01*
X160316380Y-89729380D01*
X160268761Y-89634142D01*
X160221142Y-89586523D01*
X160125904Y-89538904D01*
X159935428Y-89491285D01*
X159697333Y-89491285D01*
X159506857Y-89538904D01*
X159411619Y-89586523D01*
X159364000Y-89634142D01*
X159316380Y-89729380D01*
X160316380Y-91015095D02*
X160316380Y-90443666D01*
X160316380Y-90729380D02*
X159316380Y-90729380D01*
X159459238Y-90634142D01*
X159554476Y-90538904D01*
X159602095Y-90443666D01*
%TO.C,C302*%
X172181142Y-94707952D02*
X172228761Y-94660333D01*
X172276380Y-94517476D01*
X172276380Y-94422238D01*
X172228761Y-94279380D01*
X172133523Y-94184142D01*
X172038285Y-94136523D01*
X171847809Y-94088904D01*
X171704952Y-94088904D01*
X171514476Y-94136523D01*
X171419238Y-94184142D01*
X171324000Y-94279380D01*
X171276380Y-94422238D01*
X171276380Y-94517476D01*
X171324000Y-94660333D01*
X171371619Y-94707952D01*
X171276380Y-95041285D02*
X171276380Y-95660333D01*
X171657333Y-95327000D01*
X171657333Y-95469857D01*
X171704952Y-95565095D01*
X171752571Y-95612714D01*
X171847809Y-95660333D01*
X172085904Y-95660333D01*
X172181142Y-95612714D01*
X172228761Y-95565095D01*
X172276380Y-95469857D01*
X172276380Y-95184142D01*
X172228761Y-95088904D01*
X172181142Y-95041285D01*
X171276380Y-96279380D02*
X171276380Y-96374619D01*
X171324000Y-96469857D01*
X171371619Y-96517476D01*
X171466857Y-96565095D01*
X171657333Y-96612714D01*
X171895428Y-96612714D01*
X172085904Y-96565095D01*
X172181142Y-96517476D01*
X172228761Y-96469857D01*
X172276380Y-96374619D01*
X172276380Y-96279380D01*
X172228761Y-96184142D01*
X172181142Y-96136523D01*
X172085904Y-96088904D01*
X171895428Y-96041285D01*
X171657333Y-96041285D01*
X171466857Y-96088904D01*
X171371619Y-96136523D01*
X171324000Y-96184142D01*
X171276380Y-96279380D01*
X171371619Y-96993666D02*
X171324000Y-97041285D01*
X171276380Y-97136523D01*
X171276380Y-97374619D01*
X171324000Y-97469857D01*
X171371619Y-97517476D01*
X171466857Y-97565095D01*
X171562095Y-97565095D01*
X171704952Y-97517476D01*
X172276380Y-96946047D01*
X172276380Y-97565095D01*
%TO.C,C303*%
X153421142Y-88157952D02*
X153468761Y-88110333D01*
X153516380Y-87967476D01*
X153516380Y-87872238D01*
X153468761Y-87729380D01*
X153373523Y-87634142D01*
X153278285Y-87586523D01*
X153087809Y-87538904D01*
X152944952Y-87538904D01*
X152754476Y-87586523D01*
X152659238Y-87634142D01*
X152564000Y-87729380D01*
X152516380Y-87872238D01*
X152516380Y-87967476D01*
X152564000Y-88110333D01*
X152611619Y-88157952D01*
X152516380Y-88491285D02*
X152516380Y-89110333D01*
X152897333Y-88777000D01*
X152897333Y-88919857D01*
X152944952Y-89015095D01*
X152992571Y-89062714D01*
X153087809Y-89110333D01*
X153325904Y-89110333D01*
X153421142Y-89062714D01*
X153468761Y-89015095D01*
X153516380Y-88919857D01*
X153516380Y-88634142D01*
X153468761Y-88538904D01*
X153421142Y-88491285D01*
X152516380Y-89729380D02*
X152516380Y-89824619D01*
X152564000Y-89919857D01*
X152611619Y-89967476D01*
X152706857Y-90015095D01*
X152897333Y-90062714D01*
X153135428Y-90062714D01*
X153325904Y-90015095D01*
X153421142Y-89967476D01*
X153468761Y-89919857D01*
X153516380Y-89824619D01*
X153516380Y-89729380D01*
X153468761Y-89634142D01*
X153421142Y-89586523D01*
X153325904Y-89538904D01*
X153135428Y-89491285D01*
X152897333Y-89491285D01*
X152706857Y-89538904D01*
X152611619Y-89586523D01*
X152564000Y-89634142D01*
X152516380Y-89729380D01*
X152516380Y-90396047D02*
X152516380Y-91015095D01*
X152897333Y-90681761D01*
X152897333Y-90824619D01*
X152944952Y-90919857D01*
X152992571Y-90967476D01*
X153087809Y-91015095D01*
X153325904Y-91015095D01*
X153421142Y-90967476D01*
X153468761Y-90919857D01*
X153516380Y-90824619D01*
X153516380Y-90538904D01*
X153468761Y-90443666D01*
X153421142Y-90396047D01*
%TO.C,C304*%
X146881142Y-98507952D02*
X146928761Y-98460333D01*
X146976380Y-98317476D01*
X146976380Y-98222238D01*
X146928761Y-98079380D01*
X146833523Y-97984142D01*
X146738285Y-97936523D01*
X146547809Y-97888904D01*
X146404952Y-97888904D01*
X146214476Y-97936523D01*
X146119238Y-97984142D01*
X146024000Y-98079380D01*
X145976380Y-98222238D01*
X145976380Y-98317476D01*
X146024000Y-98460333D01*
X146071619Y-98507952D01*
X145976380Y-98841285D02*
X145976380Y-99460333D01*
X146357333Y-99127000D01*
X146357333Y-99269857D01*
X146404952Y-99365095D01*
X146452571Y-99412714D01*
X146547809Y-99460333D01*
X146785904Y-99460333D01*
X146881142Y-99412714D01*
X146928761Y-99365095D01*
X146976380Y-99269857D01*
X146976380Y-98984142D01*
X146928761Y-98888904D01*
X146881142Y-98841285D01*
X145976380Y-100079380D02*
X145976380Y-100174619D01*
X146024000Y-100269857D01*
X146071619Y-100317476D01*
X146166857Y-100365095D01*
X146357333Y-100412714D01*
X146595428Y-100412714D01*
X146785904Y-100365095D01*
X146881142Y-100317476D01*
X146928761Y-100269857D01*
X146976380Y-100174619D01*
X146976380Y-100079380D01*
X146928761Y-99984142D01*
X146881142Y-99936523D01*
X146785904Y-99888904D01*
X146595428Y-99841285D01*
X146357333Y-99841285D01*
X146166857Y-99888904D01*
X146071619Y-99936523D01*
X146024000Y-99984142D01*
X145976380Y-100079380D01*
X146309714Y-101269857D02*
X146976380Y-101269857D01*
X145928761Y-101031761D02*
X146643047Y-100793666D01*
X146643047Y-101412714D01*
%TO.C,C305*%
X156859142Y-88164452D02*
X156906761Y-88116833D01*
X156954380Y-87973976D01*
X156954380Y-87878738D01*
X156906761Y-87735880D01*
X156811523Y-87640642D01*
X156716285Y-87593023D01*
X156525809Y-87545404D01*
X156382952Y-87545404D01*
X156192476Y-87593023D01*
X156097238Y-87640642D01*
X156002000Y-87735880D01*
X155954380Y-87878738D01*
X155954380Y-87973976D01*
X156002000Y-88116833D01*
X156049619Y-88164452D01*
X155954380Y-88497785D02*
X155954380Y-89116833D01*
X156335333Y-88783500D01*
X156335333Y-88926357D01*
X156382952Y-89021595D01*
X156430571Y-89069214D01*
X156525809Y-89116833D01*
X156763904Y-89116833D01*
X156859142Y-89069214D01*
X156906761Y-89021595D01*
X156954380Y-88926357D01*
X156954380Y-88640642D01*
X156906761Y-88545404D01*
X156859142Y-88497785D01*
X155954380Y-89735880D02*
X155954380Y-89831119D01*
X156002000Y-89926357D01*
X156049619Y-89973976D01*
X156144857Y-90021595D01*
X156335333Y-90069214D01*
X156573428Y-90069214D01*
X156763904Y-90021595D01*
X156859142Y-89973976D01*
X156906761Y-89926357D01*
X156954380Y-89831119D01*
X156954380Y-89735880D01*
X156906761Y-89640642D01*
X156859142Y-89593023D01*
X156763904Y-89545404D01*
X156573428Y-89497785D01*
X156335333Y-89497785D01*
X156144857Y-89545404D01*
X156049619Y-89593023D01*
X156002000Y-89640642D01*
X155954380Y-89735880D01*
X155954380Y-90973976D02*
X155954380Y-90497785D01*
X156430571Y-90450166D01*
X156382952Y-90497785D01*
X156335333Y-90593023D01*
X156335333Y-90831119D01*
X156382952Y-90926357D01*
X156430571Y-90973976D01*
X156525809Y-91021595D01*
X156763904Y-91021595D01*
X156859142Y-90973976D01*
X156906761Y-90926357D01*
X156954380Y-90831119D01*
X156954380Y-90593023D01*
X156906761Y-90497785D01*
X156859142Y-90450166D01*
%TO.C,C306*%
X169021142Y-87607952D02*
X169068761Y-87560333D01*
X169116380Y-87417476D01*
X169116380Y-87322238D01*
X169068761Y-87179380D01*
X168973523Y-87084142D01*
X168878285Y-87036523D01*
X168687809Y-86988904D01*
X168544952Y-86988904D01*
X168354476Y-87036523D01*
X168259238Y-87084142D01*
X168164000Y-87179380D01*
X168116380Y-87322238D01*
X168116380Y-87417476D01*
X168164000Y-87560333D01*
X168211619Y-87607952D01*
X168116380Y-87941285D02*
X168116380Y-88560333D01*
X168497333Y-88227000D01*
X168497333Y-88369857D01*
X168544952Y-88465095D01*
X168592571Y-88512714D01*
X168687809Y-88560333D01*
X168925904Y-88560333D01*
X169021142Y-88512714D01*
X169068761Y-88465095D01*
X169116380Y-88369857D01*
X169116380Y-88084142D01*
X169068761Y-87988904D01*
X169021142Y-87941285D01*
X168116380Y-89179380D02*
X168116380Y-89274619D01*
X168164000Y-89369857D01*
X168211619Y-89417476D01*
X168306857Y-89465095D01*
X168497333Y-89512714D01*
X168735428Y-89512714D01*
X168925904Y-89465095D01*
X169021142Y-89417476D01*
X169068761Y-89369857D01*
X169116380Y-89274619D01*
X169116380Y-89179380D01*
X169068761Y-89084142D01*
X169021142Y-89036523D01*
X168925904Y-88988904D01*
X168735428Y-88941285D01*
X168497333Y-88941285D01*
X168306857Y-88988904D01*
X168211619Y-89036523D01*
X168164000Y-89084142D01*
X168116380Y-89179380D01*
X168116380Y-90369857D02*
X168116380Y-90179380D01*
X168164000Y-90084142D01*
X168211619Y-90036523D01*
X168354476Y-89941285D01*
X168544952Y-89893666D01*
X168925904Y-89893666D01*
X169021142Y-89941285D01*
X169068761Y-89988904D01*
X169116380Y-90084142D01*
X169116380Y-90274619D01*
X169068761Y-90369857D01*
X169021142Y-90417476D01*
X168925904Y-90465095D01*
X168687809Y-90465095D01*
X168592571Y-90417476D01*
X168544952Y-90369857D01*
X168497333Y-90274619D01*
X168497333Y-90084142D01*
X168544952Y-89988904D01*
X168592571Y-89941285D01*
X168687809Y-89893666D01*
%TO.C,C401*%
X161213047Y-102704142D02*
X161260666Y-102751761D01*
X161403523Y-102799380D01*
X161498761Y-102799380D01*
X161641619Y-102751761D01*
X161736857Y-102656523D01*
X161784476Y-102561285D01*
X161832095Y-102370809D01*
X161832095Y-102227952D01*
X161784476Y-102037476D01*
X161736857Y-101942238D01*
X161641619Y-101847000D01*
X161498761Y-101799380D01*
X161403523Y-101799380D01*
X161260666Y-101847000D01*
X161213047Y-101894619D01*
X160355904Y-102132714D02*
X160355904Y-102799380D01*
X160594000Y-101751761D02*
X160832095Y-102466047D01*
X160213047Y-102466047D01*
X159641619Y-101799380D02*
X159546380Y-101799380D01*
X159451142Y-101847000D01*
X159403523Y-101894619D01*
X159355904Y-101989857D01*
X159308285Y-102180333D01*
X159308285Y-102418428D01*
X159355904Y-102608904D01*
X159403523Y-102704142D01*
X159451142Y-102751761D01*
X159546380Y-102799380D01*
X159641619Y-102799380D01*
X159736857Y-102751761D01*
X159784476Y-102704142D01*
X159832095Y-102608904D01*
X159879714Y-102418428D01*
X159879714Y-102180333D01*
X159832095Y-101989857D01*
X159784476Y-101894619D01*
X159736857Y-101847000D01*
X159641619Y-101799380D01*
X158355904Y-102799380D02*
X158927333Y-102799380D01*
X158641619Y-102799380D02*
X158641619Y-101799380D01*
X158736857Y-101942238D01*
X158832095Y-102037476D01*
X158927333Y-102085095D01*
%TO.C,C402*%
X143521142Y-91607952D02*
X143568761Y-91560333D01*
X143616380Y-91417476D01*
X143616380Y-91322238D01*
X143568761Y-91179380D01*
X143473523Y-91084142D01*
X143378285Y-91036523D01*
X143187809Y-90988904D01*
X143044952Y-90988904D01*
X142854476Y-91036523D01*
X142759238Y-91084142D01*
X142664000Y-91179380D01*
X142616380Y-91322238D01*
X142616380Y-91417476D01*
X142664000Y-91560333D01*
X142711619Y-91607952D01*
X142949714Y-92465095D02*
X143616380Y-92465095D01*
X142568761Y-92227000D02*
X143283047Y-91988904D01*
X143283047Y-92607952D01*
X142616380Y-93179380D02*
X142616380Y-93274619D01*
X142664000Y-93369857D01*
X142711619Y-93417476D01*
X142806857Y-93465095D01*
X142997333Y-93512714D01*
X143235428Y-93512714D01*
X143425904Y-93465095D01*
X143521142Y-93417476D01*
X143568761Y-93369857D01*
X143616380Y-93274619D01*
X143616380Y-93179380D01*
X143568761Y-93084142D01*
X143521142Y-93036523D01*
X143425904Y-92988904D01*
X143235428Y-92941285D01*
X142997333Y-92941285D01*
X142806857Y-92988904D01*
X142711619Y-93036523D01*
X142664000Y-93084142D01*
X142616380Y-93179380D01*
X142711619Y-93893666D02*
X142664000Y-93941285D01*
X142616380Y-94036523D01*
X142616380Y-94274619D01*
X142664000Y-94369857D01*
X142711619Y-94417476D01*
X142806857Y-94465095D01*
X142902095Y-94465095D01*
X143044952Y-94417476D01*
X143616380Y-93846047D01*
X143616380Y-94465095D01*
%TO.C,C403*%
X137187142Y-111530952D02*
X137234761Y-111483333D01*
X137282380Y-111340476D01*
X137282380Y-111245238D01*
X137234761Y-111102380D01*
X137139523Y-111007142D01*
X137044285Y-110959523D01*
X136853809Y-110911904D01*
X136710952Y-110911904D01*
X136520476Y-110959523D01*
X136425238Y-111007142D01*
X136330000Y-111102380D01*
X136282380Y-111245238D01*
X136282380Y-111340476D01*
X136330000Y-111483333D01*
X136377619Y-111530952D01*
X136615714Y-112388095D02*
X137282380Y-112388095D01*
X136234761Y-112150000D02*
X136949047Y-111911904D01*
X136949047Y-112530952D01*
X136282380Y-113102380D02*
X136282380Y-113197619D01*
X136330000Y-113292857D01*
X136377619Y-113340476D01*
X136472857Y-113388095D01*
X136663333Y-113435714D01*
X136901428Y-113435714D01*
X137091904Y-113388095D01*
X137187142Y-113340476D01*
X137234761Y-113292857D01*
X137282380Y-113197619D01*
X137282380Y-113102380D01*
X137234761Y-113007142D01*
X137187142Y-112959523D01*
X137091904Y-112911904D01*
X136901428Y-112864285D01*
X136663333Y-112864285D01*
X136472857Y-112911904D01*
X136377619Y-112959523D01*
X136330000Y-113007142D01*
X136282380Y-113102380D01*
X136282380Y-113769047D02*
X136282380Y-114388095D01*
X136663333Y-114054761D01*
X136663333Y-114197619D01*
X136710952Y-114292857D01*
X136758571Y-114340476D01*
X136853809Y-114388095D01*
X137091904Y-114388095D01*
X137187142Y-114340476D01*
X137234761Y-114292857D01*
X137282380Y-114197619D01*
X137282380Y-113911904D01*
X137234761Y-113816666D01*
X137187142Y-113769047D01*
%TO.C,C404*%
X155163047Y-83064142D02*
X155210666Y-83111761D01*
X155353523Y-83159380D01*
X155448761Y-83159380D01*
X155591619Y-83111761D01*
X155686857Y-83016523D01*
X155734476Y-82921285D01*
X155782095Y-82730809D01*
X155782095Y-82587952D01*
X155734476Y-82397476D01*
X155686857Y-82302238D01*
X155591619Y-82207000D01*
X155448761Y-82159380D01*
X155353523Y-82159380D01*
X155210666Y-82207000D01*
X155163047Y-82254619D01*
X154305904Y-82492714D02*
X154305904Y-83159380D01*
X154544000Y-82111761D02*
X154782095Y-82826047D01*
X154163047Y-82826047D01*
X153591619Y-82159380D02*
X153496380Y-82159380D01*
X153401142Y-82207000D01*
X153353523Y-82254619D01*
X153305904Y-82349857D01*
X153258285Y-82540333D01*
X153258285Y-82778428D01*
X153305904Y-82968904D01*
X153353523Y-83064142D01*
X153401142Y-83111761D01*
X153496380Y-83159380D01*
X153591619Y-83159380D01*
X153686857Y-83111761D01*
X153734476Y-83064142D01*
X153782095Y-82968904D01*
X153829714Y-82778428D01*
X153829714Y-82540333D01*
X153782095Y-82349857D01*
X153734476Y-82254619D01*
X153686857Y-82207000D01*
X153591619Y-82159380D01*
X152401142Y-82492714D02*
X152401142Y-83159380D01*
X152639238Y-82111761D02*
X152877333Y-82826047D01*
X152258285Y-82826047D01*
%TO.C,C503*%
X183863047Y-88714142D02*
X183910666Y-88761761D01*
X184053523Y-88809380D01*
X184148761Y-88809380D01*
X184291619Y-88761761D01*
X184386857Y-88666523D01*
X184434476Y-88571285D01*
X184482095Y-88380809D01*
X184482095Y-88237952D01*
X184434476Y-88047476D01*
X184386857Y-87952238D01*
X184291619Y-87857000D01*
X184148761Y-87809380D01*
X184053523Y-87809380D01*
X183910666Y-87857000D01*
X183863047Y-87904619D01*
X182958285Y-87809380D02*
X183434476Y-87809380D01*
X183482095Y-88285571D01*
X183434476Y-88237952D01*
X183339238Y-88190333D01*
X183101142Y-88190333D01*
X183005904Y-88237952D01*
X182958285Y-88285571D01*
X182910666Y-88380809D01*
X182910666Y-88618904D01*
X182958285Y-88714142D01*
X183005904Y-88761761D01*
X183101142Y-88809380D01*
X183339238Y-88809380D01*
X183434476Y-88761761D01*
X183482095Y-88714142D01*
X182291619Y-87809380D02*
X182196380Y-87809380D01*
X182101142Y-87857000D01*
X182053523Y-87904619D01*
X182005904Y-87999857D01*
X181958285Y-88190333D01*
X181958285Y-88428428D01*
X182005904Y-88618904D01*
X182053523Y-88714142D01*
X182101142Y-88761761D01*
X182196380Y-88809380D01*
X182291619Y-88809380D01*
X182386857Y-88761761D01*
X182434476Y-88714142D01*
X182482095Y-88618904D01*
X182529714Y-88428428D01*
X182529714Y-88190333D01*
X182482095Y-87999857D01*
X182434476Y-87904619D01*
X182386857Y-87857000D01*
X182291619Y-87809380D01*
X181624952Y-87809380D02*
X181005904Y-87809380D01*
X181339238Y-88190333D01*
X181196380Y-88190333D01*
X181101142Y-88237952D01*
X181053523Y-88285571D01*
X181005904Y-88380809D01*
X181005904Y-88618904D01*
X181053523Y-88714142D01*
X181101142Y-88761761D01*
X181196380Y-88809380D01*
X181482095Y-88809380D01*
X181577333Y-88761761D01*
X181624952Y-88714142D01*
%TO.C,C504*%
X183913047Y-92104142D02*
X183960666Y-92151761D01*
X184103523Y-92199380D01*
X184198761Y-92199380D01*
X184341619Y-92151761D01*
X184436857Y-92056523D01*
X184484476Y-91961285D01*
X184532095Y-91770809D01*
X184532095Y-91627952D01*
X184484476Y-91437476D01*
X184436857Y-91342238D01*
X184341619Y-91247000D01*
X184198761Y-91199380D01*
X184103523Y-91199380D01*
X183960666Y-91247000D01*
X183913047Y-91294619D01*
X183008285Y-91199380D02*
X183484476Y-91199380D01*
X183532095Y-91675571D01*
X183484476Y-91627952D01*
X183389238Y-91580333D01*
X183151142Y-91580333D01*
X183055904Y-91627952D01*
X183008285Y-91675571D01*
X182960666Y-91770809D01*
X182960666Y-92008904D01*
X183008285Y-92104142D01*
X183055904Y-92151761D01*
X183151142Y-92199380D01*
X183389238Y-92199380D01*
X183484476Y-92151761D01*
X183532095Y-92104142D01*
X182341619Y-91199380D02*
X182246380Y-91199380D01*
X182151142Y-91247000D01*
X182103523Y-91294619D01*
X182055904Y-91389857D01*
X182008285Y-91580333D01*
X182008285Y-91818428D01*
X182055904Y-92008904D01*
X182103523Y-92104142D01*
X182151142Y-92151761D01*
X182246380Y-92199380D01*
X182341619Y-92199380D01*
X182436857Y-92151761D01*
X182484476Y-92104142D01*
X182532095Y-92008904D01*
X182579714Y-91818428D01*
X182579714Y-91580333D01*
X182532095Y-91389857D01*
X182484476Y-91294619D01*
X182436857Y-91247000D01*
X182341619Y-91199380D01*
X181151142Y-91532714D02*
X181151142Y-92199380D01*
X181389238Y-91151761D02*
X181627333Y-91866047D01*
X181008285Y-91866047D01*
%TO.C,R301*%
X137252380Y-115568452D02*
X136776190Y-115235119D01*
X137252380Y-114997023D02*
X136252380Y-114997023D01*
X136252380Y-115377976D01*
X136300000Y-115473214D01*
X136347619Y-115520833D01*
X136442857Y-115568452D01*
X136585714Y-115568452D01*
X136680952Y-115520833D01*
X136728571Y-115473214D01*
X136776190Y-115377976D01*
X136776190Y-114997023D01*
X136252380Y-115901785D02*
X136252380Y-116520833D01*
X136633333Y-116187500D01*
X136633333Y-116330357D01*
X136680952Y-116425595D01*
X136728571Y-116473214D01*
X136823809Y-116520833D01*
X137061904Y-116520833D01*
X137157142Y-116473214D01*
X137204761Y-116425595D01*
X137252380Y-116330357D01*
X137252380Y-116044642D01*
X137204761Y-115949404D01*
X137157142Y-115901785D01*
X136252380Y-117139880D02*
X136252380Y-117235119D01*
X136300000Y-117330357D01*
X136347619Y-117377976D01*
X136442857Y-117425595D01*
X136633333Y-117473214D01*
X136871428Y-117473214D01*
X137061904Y-117425595D01*
X137157142Y-117377976D01*
X137204761Y-117330357D01*
X137252380Y-117235119D01*
X137252380Y-117139880D01*
X137204761Y-117044642D01*
X137157142Y-116997023D01*
X137061904Y-116949404D01*
X136871428Y-116901785D01*
X136633333Y-116901785D01*
X136442857Y-116949404D01*
X136347619Y-116997023D01*
X136300000Y-117044642D01*
X136252380Y-117139880D01*
X137252380Y-118425595D02*
X137252380Y-117854166D01*
X137252380Y-118139880D02*
X136252380Y-118139880D01*
X136395238Y-118044642D01*
X136490476Y-117949404D01*
X136538095Y-117854166D01*
%TO.C,R302*%
X130752380Y-109443452D02*
X130276190Y-109110119D01*
X130752380Y-108872023D02*
X129752380Y-108872023D01*
X129752380Y-109252976D01*
X129800000Y-109348214D01*
X129847619Y-109395833D01*
X129942857Y-109443452D01*
X130085714Y-109443452D01*
X130180952Y-109395833D01*
X130228571Y-109348214D01*
X130276190Y-109252976D01*
X130276190Y-108872023D01*
X129752380Y-109776785D02*
X129752380Y-110395833D01*
X130133333Y-110062500D01*
X130133333Y-110205357D01*
X130180952Y-110300595D01*
X130228571Y-110348214D01*
X130323809Y-110395833D01*
X130561904Y-110395833D01*
X130657142Y-110348214D01*
X130704761Y-110300595D01*
X130752380Y-110205357D01*
X130752380Y-109919642D01*
X130704761Y-109824404D01*
X130657142Y-109776785D01*
X129752380Y-111014880D02*
X129752380Y-111110119D01*
X129800000Y-111205357D01*
X129847619Y-111252976D01*
X129942857Y-111300595D01*
X130133333Y-111348214D01*
X130371428Y-111348214D01*
X130561904Y-111300595D01*
X130657142Y-111252976D01*
X130704761Y-111205357D01*
X130752380Y-111110119D01*
X130752380Y-111014880D01*
X130704761Y-110919642D01*
X130657142Y-110872023D01*
X130561904Y-110824404D01*
X130371428Y-110776785D01*
X130133333Y-110776785D01*
X129942857Y-110824404D01*
X129847619Y-110872023D01*
X129800000Y-110919642D01*
X129752380Y-111014880D01*
X129847619Y-111729166D02*
X129800000Y-111776785D01*
X129752380Y-111872023D01*
X129752380Y-112110119D01*
X129800000Y-112205357D01*
X129847619Y-112252976D01*
X129942857Y-112300595D01*
X130038095Y-112300595D01*
X130180952Y-112252976D01*
X130752380Y-111681547D01*
X130752380Y-112300595D01*
%TO.C,R303*%
X140202380Y-112518452D02*
X139726190Y-112185119D01*
X140202380Y-111947023D02*
X139202380Y-111947023D01*
X139202380Y-112327976D01*
X139250000Y-112423214D01*
X139297619Y-112470833D01*
X139392857Y-112518452D01*
X139535714Y-112518452D01*
X139630952Y-112470833D01*
X139678571Y-112423214D01*
X139726190Y-112327976D01*
X139726190Y-111947023D01*
X139202380Y-112851785D02*
X139202380Y-113470833D01*
X139583333Y-113137500D01*
X139583333Y-113280357D01*
X139630952Y-113375595D01*
X139678571Y-113423214D01*
X139773809Y-113470833D01*
X140011904Y-113470833D01*
X140107142Y-113423214D01*
X140154761Y-113375595D01*
X140202380Y-113280357D01*
X140202380Y-112994642D01*
X140154761Y-112899404D01*
X140107142Y-112851785D01*
X139202380Y-114089880D02*
X139202380Y-114185119D01*
X139250000Y-114280357D01*
X139297619Y-114327976D01*
X139392857Y-114375595D01*
X139583333Y-114423214D01*
X139821428Y-114423214D01*
X140011904Y-114375595D01*
X140107142Y-114327976D01*
X140154761Y-114280357D01*
X140202380Y-114185119D01*
X140202380Y-114089880D01*
X140154761Y-113994642D01*
X140107142Y-113947023D01*
X140011904Y-113899404D01*
X139821428Y-113851785D01*
X139583333Y-113851785D01*
X139392857Y-113899404D01*
X139297619Y-113947023D01*
X139250000Y-113994642D01*
X139202380Y-114089880D01*
X139202380Y-114756547D02*
X139202380Y-115375595D01*
X139583333Y-115042261D01*
X139583333Y-115185119D01*
X139630952Y-115280357D01*
X139678571Y-115327976D01*
X139773809Y-115375595D01*
X140011904Y-115375595D01*
X140107142Y-115327976D01*
X140154761Y-115280357D01*
X140202380Y-115185119D01*
X140202380Y-114899404D01*
X140154761Y-114804166D01*
X140107142Y-114756547D01*
%TO.C,C307*%
X164313047Y-79804142D02*
X164360666Y-79851761D01*
X164503523Y-79899380D01*
X164598761Y-79899380D01*
X164741619Y-79851761D01*
X164836857Y-79756523D01*
X164884476Y-79661285D01*
X164932095Y-79470809D01*
X164932095Y-79327952D01*
X164884476Y-79137476D01*
X164836857Y-79042238D01*
X164741619Y-78947000D01*
X164598761Y-78899380D01*
X164503523Y-78899380D01*
X164360666Y-78947000D01*
X164313047Y-78994619D01*
X163979714Y-78899380D02*
X163360666Y-78899380D01*
X163694000Y-79280333D01*
X163551142Y-79280333D01*
X163455904Y-79327952D01*
X163408285Y-79375571D01*
X163360666Y-79470809D01*
X163360666Y-79708904D01*
X163408285Y-79804142D01*
X163455904Y-79851761D01*
X163551142Y-79899380D01*
X163836857Y-79899380D01*
X163932095Y-79851761D01*
X163979714Y-79804142D01*
X162741619Y-78899380D02*
X162646380Y-78899380D01*
X162551142Y-78947000D01*
X162503523Y-78994619D01*
X162455904Y-79089857D01*
X162408285Y-79280333D01*
X162408285Y-79518428D01*
X162455904Y-79708904D01*
X162503523Y-79804142D01*
X162551142Y-79851761D01*
X162646380Y-79899380D01*
X162741619Y-79899380D01*
X162836857Y-79851761D01*
X162884476Y-79804142D01*
X162932095Y-79708904D01*
X162979714Y-79518428D01*
X162979714Y-79280333D01*
X162932095Y-79089857D01*
X162884476Y-78994619D01*
X162836857Y-78947000D01*
X162741619Y-78899380D01*
X162074952Y-78899380D02*
X161408285Y-78899380D01*
X161836857Y-79899380D01*
%TO.C,C308*%
X172081142Y-98607952D02*
X172128761Y-98560333D01*
X172176380Y-98417476D01*
X172176380Y-98322238D01*
X172128761Y-98179380D01*
X172033523Y-98084142D01*
X171938285Y-98036523D01*
X171747809Y-97988904D01*
X171604952Y-97988904D01*
X171414476Y-98036523D01*
X171319238Y-98084142D01*
X171224000Y-98179380D01*
X171176380Y-98322238D01*
X171176380Y-98417476D01*
X171224000Y-98560333D01*
X171271619Y-98607952D01*
X171176380Y-98941285D02*
X171176380Y-99560333D01*
X171557333Y-99227000D01*
X171557333Y-99369857D01*
X171604952Y-99465095D01*
X171652571Y-99512714D01*
X171747809Y-99560333D01*
X171985904Y-99560333D01*
X172081142Y-99512714D01*
X172128761Y-99465095D01*
X172176380Y-99369857D01*
X172176380Y-99084142D01*
X172128761Y-98988904D01*
X172081142Y-98941285D01*
X171176380Y-100179380D02*
X171176380Y-100274619D01*
X171224000Y-100369857D01*
X171271619Y-100417476D01*
X171366857Y-100465095D01*
X171557333Y-100512714D01*
X171795428Y-100512714D01*
X171985904Y-100465095D01*
X172081142Y-100417476D01*
X172128761Y-100369857D01*
X172176380Y-100274619D01*
X172176380Y-100179380D01*
X172128761Y-100084142D01*
X172081142Y-100036523D01*
X171985904Y-99988904D01*
X171795428Y-99941285D01*
X171557333Y-99941285D01*
X171366857Y-99988904D01*
X171271619Y-100036523D01*
X171224000Y-100084142D01*
X171176380Y-100179380D01*
X171604952Y-101084142D02*
X171557333Y-100988904D01*
X171509714Y-100941285D01*
X171414476Y-100893666D01*
X171366857Y-100893666D01*
X171271619Y-100941285D01*
X171224000Y-100988904D01*
X171176380Y-101084142D01*
X171176380Y-101274619D01*
X171224000Y-101369857D01*
X171271619Y-101417476D01*
X171366857Y-101465095D01*
X171414476Y-101465095D01*
X171509714Y-101417476D01*
X171557333Y-101369857D01*
X171604952Y-101274619D01*
X171604952Y-101084142D01*
X171652571Y-100988904D01*
X171700190Y-100941285D01*
X171795428Y-100893666D01*
X171985904Y-100893666D01*
X172081142Y-100941285D01*
X172128761Y-100988904D01*
X172176380Y-101084142D01*
X172176380Y-101274619D01*
X172128761Y-101369857D01*
X172081142Y-101417476D01*
X171985904Y-101465095D01*
X171795428Y-101465095D01*
X171700190Y-101417476D01*
X171652571Y-101369857D01*
X171604952Y-101274619D01*
%TO.C,C309*%
X143521142Y-87157952D02*
X143568761Y-87110333D01*
X143616380Y-86967476D01*
X143616380Y-86872238D01*
X143568761Y-86729380D01*
X143473523Y-86634142D01*
X143378285Y-86586523D01*
X143187809Y-86538904D01*
X143044952Y-86538904D01*
X142854476Y-86586523D01*
X142759238Y-86634142D01*
X142664000Y-86729380D01*
X142616380Y-86872238D01*
X142616380Y-86967476D01*
X142664000Y-87110333D01*
X142711619Y-87157952D01*
X142616380Y-87491285D02*
X142616380Y-88110333D01*
X142997333Y-87777000D01*
X142997333Y-87919857D01*
X143044952Y-88015095D01*
X143092571Y-88062714D01*
X143187809Y-88110333D01*
X143425904Y-88110333D01*
X143521142Y-88062714D01*
X143568761Y-88015095D01*
X143616380Y-87919857D01*
X143616380Y-87634142D01*
X143568761Y-87538904D01*
X143521142Y-87491285D01*
X142616380Y-88729380D02*
X142616380Y-88824619D01*
X142664000Y-88919857D01*
X142711619Y-88967476D01*
X142806857Y-89015095D01*
X142997333Y-89062714D01*
X143235428Y-89062714D01*
X143425904Y-89015095D01*
X143521142Y-88967476D01*
X143568761Y-88919857D01*
X143616380Y-88824619D01*
X143616380Y-88729380D01*
X143568761Y-88634142D01*
X143521142Y-88586523D01*
X143425904Y-88538904D01*
X143235428Y-88491285D01*
X142997333Y-88491285D01*
X142806857Y-88538904D01*
X142711619Y-88586523D01*
X142664000Y-88634142D01*
X142616380Y-88729380D01*
X143616380Y-89538904D02*
X143616380Y-89729380D01*
X143568761Y-89824619D01*
X143521142Y-89872238D01*
X143378285Y-89967476D01*
X143187809Y-90015095D01*
X142806857Y-90015095D01*
X142711619Y-89967476D01*
X142664000Y-89919857D01*
X142616380Y-89824619D01*
X142616380Y-89634142D01*
X142664000Y-89538904D01*
X142711619Y-89491285D01*
X142806857Y-89443666D01*
X143044952Y-89443666D01*
X143140190Y-89491285D01*
X143187809Y-89538904D01*
X143235428Y-89634142D01*
X143235428Y-89824619D01*
X143187809Y-89919857D01*
X143140190Y-89967476D01*
X143044952Y-90015095D01*
%TO.C,C310*%
X153563047Y-108664142D02*
X153610666Y-108711761D01*
X153753523Y-108759380D01*
X153848761Y-108759380D01*
X153991619Y-108711761D01*
X154086857Y-108616523D01*
X154134476Y-108521285D01*
X154182095Y-108330809D01*
X154182095Y-108187952D01*
X154134476Y-107997476D01*
X154086857Y-107902238D01*
X153991619Y-107807000D01*
X153848761Y-107759380D01*
X153753523Y-107759380D01*
X153610666Y-107807000D01*
X153563047Y-107854619D01*
X153229714Y-107759380D02*
X152610666Y-107759380D01*
X152944000Y-108140333D01*
X152801142Y-108140333D01*
X152705904Y-108187952D01*
X152658285Y-108235571D01*
X152610666Y-108330809D01*
X152610666Y-108568904D01*
X152658285Y-108664142D01*
X152705904Y-108711761D01*
X152801142Y-108759380D01*
X153086857Y-108759380D01*
X153182095Y-108711761D01*
X153229714Y-108664142D01*
X151658285Y-108759380D02*
X152229714Y-108759380D01*
X151944000Y-108759380D02*
X151944000Y-107759380D01*
X152039238Y-107902238D01*
X152134476Y-107997476D01*
X152229714Y-108045095D01*
X151039238Y-107759380D02*
X150944000Y-107759380D01*
X150848761Y-107807000D01*
X150801142Y-107854619D01*
X150753523Y-107949857D01*
X150705904Y-108140333D01*
X150705904Y-108378428D01*
X150753523Y-108568904D01*
X150801142Y-108664142D01*
X150848761Y-108711761D01*
X150944000Y-108759380D01*
X151039238Y-108759380D01*
X151134476Y-108711761D01*
X151182095Y-108664142D01*
X151229714Y-108568904D01*
X151277333Y-108378428D01*
X151277333Y-108140333D01*
X151229714Y-107949857D01*
X151182095Y-107854619D01*
X151134476Y-107807000D01*
X151039238Y-107759380D01*
%TO.C,R6*%
X146710666Y-81829380D02*
X147044000Y-81353190D01*
X147282095Y-81829380D02*
X147282095Y-80829380D01*
X146901142Y-80829380D01*
X146805904Y-80877000D01*
X146758285Y-80924619D01*
X146710666Y-81019857D01*
X146710666Y-81162714D01*
X146758285Y-81257952D01*
X146805904Y-81305571D01*
X146901142Y-81353190D01*
X147282095Y-81353190D01*
X145853523Y-80829380D02*
X146044000Y-80829380D01*
X146139238Y-80877000D01*
X146186857Y-80924619D01*
X146282095Y-81067476D01*
X146329714Y-81257952D01*
X146329714Y-81638904D01*
X146282095Y-81734142D01*
X146234476Y-81781761D01*
X146139238Y-81829380D01*
X145948761Y-81829380D01*
X145853523Y-81781761D01*
X145805904Y-81734142D01*
X145758285Y-81638904D01*
X145758285Y-81400809D01*
X145805904Y-81305571D01*
X145853523Y-81257952D01*
X145948761Y-81210333D01*
X146139238Y-81210333D01*
X146234476Y-81257952D01*
X146282095Y-81305571D01*
X146329714Y-81400809D01*
%TO.C,R9*%
X161110666Y-95629380D02*
X161444000Y-95153190D01*
X161682095Y-95629380D02*
X161682095Y-94629380D01*
X161301142Y-94629380D01*
X161205904Y-94677000D01*
X161158285Y-94724619D01*
X161110666Y-94819857D01*
X161110666Y-94962714D01*
X161158285Y-95057952D01*
X161205904Y-95105571D01*
X161301142Y-95153190D01*
X161682095Y-95153190D01*
X160634476Y-95629380D02*
X160444000Y-95629380D01*
X160348761Y-95581761D01*
X160301142Y-95534142D01*
X160205904Y-95391285D01*
X160158285Y-95200809D01*
X160158285Y-94819857D01*
X160205904Y-94724619D01*
X160253523Y-94677000D01*
X160348761Y-94629380D01*
X160539238Y-94629380D01*
X160634476Y-94677000D01*
X160682095Y-94724619D01*
X160729714Y-94819857D01*
X160729714Y-95057952D01*
X160682095Y-95153190D01*
X160634476Y-95200809D01*
X160539238Y-95248428D01*
X160348761Y-95248428D01*
X160253523Y-95200809D01*
X160205904Y-95153190D01*
X160158285Y-95057952D01*
%TO.C,R4*%
X161098166Y-99429380D02*
X161431500Y-98953190D01*
X161669595Y-99429380D02*
X161669595Y-98429380D01*
X161288642Y-98429380D01*
X161193404Y-98477000D01*
X161145785Y-98524619D01*
X161098166Y-98619857D01*
X161098166Y-98762714D01*
X161145785Y-98857952D01*
X161193404Y-98905571D01*
X161288642Y-98953190D01*
X161669595Y-98953190D01*
X160241023Y-98762714D02*
X160241023Y-99429380D01*
X160479119Y-98381761D02*
X160717214Y-99096047D01*
X160098166Y-99096047D01*
D11*
%TO.C,Y1*%
X153970475Y-105257368D02*
X153970475Y-105486498D01*
X154130866Y-105005325D02*
X153970475Y-105257368D01*
X153810084Y-105005325D01*
X153397650Y-105486498D02*
X153672606Y-105486498D01*
X153535128Y-105486498D02*
X153535128Y-105005325D01*
X153580954Y-105074064D01*
X153626780Y-105119890D01*
X153672606Y-105142803D01*
D10*
%TO.C,R11*%
X165486857Y-99429380D02*
X165820190Y-98953190D01*
X166058285Y-99429380D02*
X166058285Y-98429380D01*
X165677333Y-98429380D01*
X165582095Y-98477000D01*
X165534476Y-98524619D01*
X165486857Y-98619857D01*
X165486857Y-98762714D01*
X165534476Y-98857952D01*
X165582095Y-98905571D01*
X165677333Y-98953190D01*
X166058285Y-98953190D01*
X164534476Y-99429380D02*
X165105904Y-99429380D01*
X164820190Y-99429380D02*
X164820190Y-98429380D01*
X164915428Y-98572238D01*
X165010666Y-98667476D01*
X165105904Y-98715095D01*
X163582095Y-99429380D02*
X164153523Y-99429380D01*
X163867809Y-99429380D02*
X163867809Y-98429380D01*
X163963047Y-98572238D01*
X164058285Y-98667476D01*
X164153523Y-98715095D01*
%TO.C,R5*%
X147398166Y-105429380D02*
X147731500Y-104953190D01*
X147969595Y-105429380D02*
X147969595Y-104429380D01*
X147588642Y-104429380D01*
X147493404Y-104477000D01*
X147445785Y-104524619D01*
X147398166Y-104619857D01*
X147398166Y-104762714D01*
X147445785Y-104857952D01*
X147493404Y-104905571D01*
X147588642Y-104953190D01*
X147969595Y-104953190D01*
X146493404Y-104429380D02*
X146969595Y-104429380D01*
X147017214Y-104905571D01*
X146969595Y-104857952D01*
X146874357Y-104810333D01*
X146636261Y-104810333D01*
X146541023Y-104857952D01*
X146493404Y-104905571D01*
X146445785Y-105000809D01*
X146445785Y-105238904D01*
X146493404Y-105334142D01*
X146541023Y-105381761D01*
X146636261Y-105429380D01*
X146874357Y-105429380D01*
X146969595Y-105381761D01*
X147017214Y-105334142D01*
%TO.C,R10*%
X165386857Y-95729380D02*
X165720190Y-95253190D01*
X165958285Y-95729380D02*
X165958285Y-94729380D01*
X165577333Y-94729380D01*
X165482095Y-94777000D01*
X165434476Y-94824619D01*
X165386857Y-94919857D01*
X165386857Y-95062714D01*
X165434476Y-95157952D01*
X165482095Y-95205571D01*
X165577333Y-95253190D01*
X165958285Y-95253190D01*
X164434476Y-95729380D02*
X165005904Y-95729380D01*
X164720190Y-95729380D02*
X164720190Y-94729380D01*
X164815428Y-94872238D01*
X164910666Y-94967476D01*
X165005904Y-95015095D01*
X163815428Y-94729380D02*
X163720190Y-94729380D01*
X163624952Y-94777000D01*
X163577333Y-94824619D01*
X163529714Y-94919857D01*
X163482095Y-95110333D01*
X163482095Y-95348428D01*
X163529714Y-95538904D01*
X163577333Y-95634142D01*
X163624952Y-95681761D01*
X163720190Y-95729380D01*
X163815428Y-95729380D01*
X163910666Y-95681761D01*
X163958285Y-95634142D01*
X164005904Y-95538904D01*
X164053523Y-95348428D01*
X164053523Y-95110333D01*
X164005904Y-94919857D01*
X163958285Y-94824619D01*
X163910666Y-94777000D01*
X163815428Y-94729380D01*
%TO.C,R1*%
X157098166Y-95629380D02*
X157431500Y-95153190D01*
X157669595Y-95629380D02*
X157669595Y-94629380D01*
X157288642Y-94629380D01*
X157193404Y-94677000D01*
X157145785Y-94724619D01*
X157098166Y-94819857D01*
X157098166Y-94962714D01*
X157145785Y-95057952D01*
X157193404Y-95105571D01*
X157288642Y-95153190D01*
X157669595Y-95153190D01*
X156145785Y-95629380D02*
X156717214Y-95629380D01*
X156431500Y-95629380D02*
X156431500Y-94629380D01*
X156526738Y-94772238D01*
X156621976Y-94867476D01*
X156717214Y-94915095D01*
%TO.C,R3*%
X152998166Y-95629380D02*
X153331500Y-95153190D01*
X153569595Y-95629380D02*
X153569595Y-94629380D01*
X153188642Y-94629380D01*
X153093404Y-94677000D01*
X153045785Y-94724619D01*
X152998166Y-94819857D01*
X152998166Y-94962714D01*
X153045785Y-95057952D01*
X153093404Y-95105571D01*
X153188642Y-95153190D01*
X153569595Y-95153190D01*
X152664833Y-94629380D02*
X152045785Y-94629380D01*
X152379119Y-95010333D01*
X152236261Y-95010333D01*
X152141023Y-95057952D01*
X152093404Y-95105571D01*
X152045785Y-95200809D01*
X152045785Y-95438904D01*
X152093404Y-95534142D01*
X152141023Y-95581761D01*
X152236261Y-95629380D01*
X152521976Y-95629380D01*
X152617214Y-95581761D01*
X152664833Y-95534142D01*
D12*
%TO.C,C201*%
X183088748Y-133635000D02*
X183611252Y-133635000D01*
X183088748Y-132165000D02*
X183611252Y-132165000D01*
%TO.C,C202*%
X170288748Y-133535000D02*
X170811252Y-133535000D01*
X170288748Y-132065000D02*
X170811252Y-132065000D01*
%TO.C,C203*%
X158138748Y-133535000D02*
X158661252Y-133535000D01*
X158138748Y-132065000D02*
X158661252Y-132065000D01*
%TO.C,C204*%
X146588748Y-133635000D02*
X147111252Y-133635000D01*
X146588748Y-132165000D02*
X147111252Y-132165000D01*
%TO.C,C205*%
X134388748Y-132165000D02*
X134911252Y-132165000D01*
X134388748Y-133635000D02*
X134911252Y-133635000D01*
%TO.C,C206*%
X121938748Y-133935000D02*
X122461252Y-133935000D01*
X121938748Y-132465000D02*
X122461252Y-132465000D01*
%TO.C,C207*%
X183088748Y-129735000D02*
X183611252Y-129735000D01*
X183088748Y-128265000D02*
X183611252Y-128265000D01*
%TO.C,C208*%
X170288748Y-128365000D02*
X170811252Y-128365000D01*
X170288748Y-129835000D02*
X170811252Y-129835000D01*
%TO.C,C209*%
X158088748Y-129835000D02*
X158611252Y-129835000D01*
X158088748Y-128365000D02*
X158611252Y-128365000D01*
%TO.C,C210*%
X146538748Y-128365000D02*
X147061252Y-128365000D01*
X146538748Y-129835000D02*
X147061252Y-129835000D01*
%TO.C,C211*%
X134338748Y-129835000D02*
X134861252Y-129835000D01*
X134338748Y-128365000D02*
X134861252Y-128365000D01*
%TO.C,C212*%
X121938748Y-129835000D02*
X122461252Y-129835000D01*
X121938748Y-128365000D02*
X122461252Y-128365000D01*
%TO.C,C301*%
X160809000Y-89015748D02*
X160809000Y-89538252D01*
X162279000Y-89015748D02*
X162279000Y-89538252D01*
%TO.C,C302*%
X170879000Y-96088252D02*
X170879000Y-95565748D01*
X169409000Y-96088252D02*
X169409000Y-95565748D01*
%TO.C,C303*%
X154009000Y-89015748D02*
X154009000Y-89538252D01*
X155479000Y-89015748D02*
X155479000Y-89538252D01*
%TO.C,C304*%
X145579000Y-99888252D02*
X145579000Y-99365748D01*
X144109000Y-99888252D02*
X144109000Y-99365748D01*
%TO.C,C305*%
X157447000Y-89022248D02*
X157447000Y-89544752D01*
X158917000Y-89022248D02*
X158917000Y-89544752D01*
%TO.C,C306*%
X171079000Y-88465748D02*
X171079000Y-88988252D01*
X169609000Y-88465748D02*
X169609000Y-88988252D01*
%TO.C,C401*%
X161655252Y-107762000D02*
X161132748Y-107762000D01*
X161655252Y-106292000D02*
X161132748Y-106292000D01*
%TO.C,C402*%
X144109000Y-92465748D02*
X144109000Y-92988252D01*
X145579000Y-92465748D02*
X145579000Y-92988252D01*
%TO.C,C403*%
X135885000Y-112911252D02*
X135885000Y-112388748D01*
X134415000Y-112911252D02*
X134415000Y-112388748D01*
%TO.C,C404*%
X153782748Y-80292000D02*
X154305252Y-80292000D01*
X153782748Y-81762000D02*
X154305252Y-81762000D01*
%TO.C,C503*%
X183005252Y-90772000D02*
X182482748Y-90772000D01*
X183005252Y-89302000D02*
X182482748Y-89302000D01*
%TO.C,C504*%
X183055252Y-92692000D02*
X182532748Y-92692000D01*
X183055252Y-94162000D02*
X182532748Y-94162000D01*
%TO.C,R301*%
X135885000Y-116914564D02*
X135885000Y-116460436D01*
X134415000Y-116914564D02*
X134415000Y-116460436D01*
%TO.C,R302*%
X132685000Y-110335436D02*
X132685000Y-110789564D01*
X131215000Y-110335436D02*
X131215000Y-110789564D01*
%TO.C,R303*%
X140665000Y-113410436D02*
X140665000Y-113864564D01*
X142135000Y-113410436D02*
X142135000Y-113864564D01*
%TO.C,C307*%
X163455252Y-80392000D02*
X162932748Y-80392000D01*
X163455252Y-81862000D02*
X162932748Y-81862000D01*
%TO.C,C308*%
X169309000Y-99988252D02*
X169309000Y-99465748D01*
X170779000Y-99988252D02*
X170779000Y-99465748D01*
%TO.C,C309*%
X144109000Y-88015748D02*
X144109000Y-88538252D01*
X145579000Y-88015748D02*
X145579000Y-88538252D01*
%TO.C,C310*%
X152182748Y-105892000D02*
X152705252Y-105892000D01*
X152182748Y-107362000D02*
X152705252Y-107362000D01*
%TO.C,R6*%
X146771064Y-82292000D02*
X146316936Y-82292000D01*
X146771064Y-83762000D02*
X146316936Y-83762000D01*
%TO.C,R9*%
X161171064Y-97562000D02*
X160716936Y-97562000D01*
X161171064Y-96092000D02*
X160716936Y-96092000D01*
%TO.C,R4*%
X161158564Y-99892000D02*
X160704436Y-99892000D01*
X161158564Y-101362000D02*
X160704436Y-101362000D01*
D13*
%TO.C,Y1*%
X152606000Y-101200000D02*
X152330000Y-101200000D01*
X157330000Y-104400000D02*
X157330000Y-101200000D01*
X152606000Y-104400000D02*
X152330000Y-104400000D01*
X157330000Y-101200000D02*
X157054000Y-101200000D01*
X157330000Y-104400000D02*
X157054000Y-104400000D01*
X152330000Y-101200000D02*
X152330000Y-104400000D01*
D14*
X151930000Y-101600000D02*
G75*
G03*
X151930000Y-101600000I-100000J0D01*
G01*
D12*
%TO.C,R11*%
X165071064Y-99892000D02*
X164616936Y-99892000D01*
X165071064Y-101362000D02*
X164616936Y-101362000D01*
%TO.C,R5*%
X147458564Y-105892000D02*
X147004436Y-105892000D01*
X147458564Y-107362000D02*
X147004436Y-107362000D01*
%TO.C,R10*%
X164971064Y-96192000D02*
X164516936Y-96192000D01*
X164971064Y-97662000D02*
X164516936Y-97662000D01*
%TO.C,R1*%
X157158564Y-96092000D02*
X156704436Y-96092000D01*
X157158564Y-97562000D02*
X156704436Y-97562000D01*
%TO.C,R3*%
X153058564Y-96092000D02*
X152604436Y-96092000D01*
X153058564Y-97562000D02*
X152604436Y-97562000D01*
%TD*%
M02*
