%TF.GenerationSoftware,KiCad,Pcbnew,(6.0.7-rc1-83-g1005f75cdb)*%
%TF.CreationDate,2022-08-17T14:22:35+01:00*%
%TF.ProjectId,GfxFPGAS3,47667846-5047-4415-9333-2e6b69636164,rev?*%
%TF.SameCoordinates,Original*%
%TF.FileFunction,Paste,Bot*%
%TF.FilePolarity,Positive*%
%FSLAX46Y46*%
G04 Gerber Fmt 4.6, Leading zero omitted, Abs format (unit mm)*
G04 Created by KiCad (PCBNEW (6.0.7-rc1-83-g1005f75cdb)) date 2022-08-17 14:22:35*
%MOMM*%
%LPD*%
G01*
G04 APERTURE LIST*
G04 Aperture macros list*
%AMRoundRect*
0 Rectangle with rounded corners*
0 $1 Rounding radius*
0 $2 $3 $4 $5 $6 $7 $8 $9 X,Y pos of 4 corners*
0 Add a 4 corners polygon primitive as box body*
4,1,4,$2,$3,$4,$5,$6,$7,$8,$9,$2,$3,0*
0 Add four circle primitives for the rounded corners*
1,1,$1+$1,$2,$3*
1,1,$1+$1,$4,$5*
1,1,$1+$1,$6,$7*
1,1,$1+$1,$8,$9*
0 Add four rect primitives between the rounded corners*
20,1,$1+$1,$2,$3,$4,$5,0*
20,1,$1+$1,$4,$5,$6,$7,0*
20,1,$1+$1,$6,$7,$8,$9,0*
20,1,$1+$1,$8,$9,$2,$3,0*%
G04 Aperture macros list end*
%ADD10RoundRect,0.250000X-0.250000X-0.475000X0.250000X-0.475000X0.250000X0.475000X-0.250000X0.475000X0*%
%ADD11RoundRect,0.250000X-0.475000X0.250000X-0.475000X-0.250000X0.475000X-0.250000X0.475000X0.250000X0*%
%ADD12RoundRect,0.250000X0.475000X-0.250000X0.475000X0.250000X-0.475000X0.250000X-0.475000X-0.250000X0*%
%ADD13RoundRect,0.250000X0.250000X0.475000X-0.250000X0.475000X-0.250000X-0.475000X0.250000X-0.475000X0*%
%ADD14RoundRect,0.250000X0.450000X-0.262500X0.450000X0.262500X-0.450000X0.262500X-0.450000X-0.262500X0*%
%ADD15RoundRect,0.250000X-0.450000X0.262500X-0.450000X-0.262500X0.450000X-0.262500X0.450000X0.262500X0*%
%ADD16RoundRect,0.250000X0.262500X0.450000X-0.262500X0.450000X-0.262500X-0.450000X0.262500X-0.450000X0*%
%ADD17R,1.400000X1.200000*%
G04 APERTURE END LIST*
D10*
%TO.C,C201*%
X182400000Y-132900000D03*
X184300000Y-132900000D03*
%TD*%
%TO.C,C202*%
X169600000Y-132800000D03*
X171500000Y-132800000D03*
%TD*%
%TO.C,C203*%
X157450000Y-132800000D03*
X159350000Y-132800000D03*
%TD*%
%TO.C,C204*%
X145900000Y-132900000D03*
X147800000Y-132900000D03*
%TD*%
%TO.C,C205*%
X133700000Y-132900000D03*
X135600000Y-132900000D03*
%TD*%
%TO.C,C206*%
X121250000Y-133200000D03*
X123150000Y-133200000D03*
%TD*%
%TO.C,C207*%
X182400000Y-129000000D03*
X184300000Y-129000000D03*
%TD*%
%TO.C,C208*%
X169600000Y-129100000D03*
X171500000Y-129100000D03*
%TD*%
%TO.C,C209*%
X157400000Y-129100000D03*
X159300000Y-129100000D03*
%TD*%
%TO.C,C210*%
X145850000Y-129100000D03*
X147750000Y-129100000D03*
%TD*%
%TO.C,C211*%
X133650000Y-129100000D03*
X135550000Y-129100000D03*
%TD*%
%TO.C,C212*%
X121250000Y-129100000D03*
X123150000Y-129100000D03*
%TD*%
D11*
%TO.C,C301*%
X161544000Y-88327000D03*
X161544000Y-90227000D03*
%TD*%
D12*
%TO.C,C302*%
X170144000Y-96777000D03*
X170144000Y-94877000D03*
%TD*%
D11*
%TO.C,C303*%
X154744000Y-88327000D03*
X154744000Y-90227000D03*
%TD*%
D12*
%TO.C,C304*%
X144844000Y-100577000D03*
X144844000Y-98677000D03*
%TD*%
D11*
%TO.C,C305*%
X158182000Y-88333500D03*
X158182000Y-90233500D03*
%TD*%
%TO.C,C306*%
X170344000Y-87777000D03*
X170344000Y-89677000D03*
%TD*%
D13*
%TO.C,C401*%
X162344000Y-107027000D03*
X160444000Y-107027000D03*
%TD*%
D11*
%TO.C,C402*%
X144844000Y-91777000D03*
X144844000Y-93677000D03*
%TD*%
D12*
%TO.C,C403*%
X135150000Y-113600000D03*
X135150000Y-111700000D03*
%TD*%
D10*
%TO.C,C404*%
X153094000Y-81027000D03*
X154994000Y-81027000D03*
%TD*%
D13*
%TO.C,C503*%
X183694000Y-90037000D03*
X181794000Y-90037000D03*
%TD*%
%TO.C,C504*%
X183744000Y-93427000D03*
X181844000Y-93427000D03*
%TD*%
D14*
%TO.C,R301*%
X135150000Y-117600000D03*
X135150000Y-115775000D03*
%TD*%
D15*
%TO.C,R302*%
X131950000Y-109650000D03*
X131950000Y-111475000D03*
%TD*%
%TO.C,R303*%
X141400000Y-112725000D03*
X141400000Y-114550000D03*
%TD*%
D13*
%TO.C,C307*%
X164144000Y-81127000D03*
X162244000Y-81127000D03*
%TD*%
D12*
%TO.C,C308*%
X170044000Y-100677000D03*
X170044000Y-98777000D03*
%TD*%
D11*
%TO.C,C309*%
X144844000Y-87327000D03*
X144844000Y-89227000D03*
%TD*%
D10*
%TO.C,C310*%
X151494000Y-106627000D03*
X153394000Y-106627000D03*
%TD*%
D16*
%TO.C,R6*%
X147456500Y-83027000D03*
X145631500Y-83027000D03*
%TD*%
%TO.C,R9*%
X161856500Y-96827000D03*
X160031500Y-96827000D03*
%TD*%
%TO.C,R4*%
X161844000Y-100627000D03*
X160019000Y-100627000D03*
%TD*%
D17*
%TO.C,Y1*%
X153560000Y-101700000D03*
X156100000Y-101700000D03*
X156100000Y-103900000D03*
X153560000Y-103900000D03*
%TD*%
D16*
%TO.C,R11*%
X165756500Y-100627000D03*
X163931500Y-100627000D03*
%TD*%
%TO.C,R5*%
X148144000Y-106627000D03*
X146319000Y-106627000D03*
%TD*%
%TO.C,R10*%
X165656500Y-96927000D03*
X163831500Y-96927000D03*
%TD*%
%TO.C,R1*%
X157844000Y-96827000D03*
X156019000Y-96827000D03*
%TD*%
%TO.C,R3*%
X153744000Y-96827000D03*
X151919000Y-96827000D03*
%TD*%
M02*
