M48
; DRILL file {KiCad (5.1.10)-1} date 07/30/21 10:20:05
; FORMAT={-:-/ absolute / metric / decimal}
; #@! TF.CreationDate,2021-07-30T10:20:05+01:00
; #@! TF.GenerationSoftware,Kicad,Pcbnew,(5.1.10)-1
; #@! TF.FileFunction,Plated,1,4,PTH
FMAT,2
METRIC
T1C0.400
T2C0.750
T3C0.762
T4C0.800
T5C0.813
T6C0.900
T7C1.000
T8C1.397
T9C1.500
T10C2.300
T11C2.540
T12C2.997
T13C3.200
%
G90
G05
T1
X61.214Y-200.406
X61.214Y-227.838
X62.992Y-149.86
X62.992Y-198.374
X62.992Y-223.52
X63.754Y-133.096
X63.754Y-141.986
X65.532Y-59.944
X65.532Y-179.324
X71.247Y-53.848
X71.374Y-143.256
X71.882Y-129.286
X73.025Y-89.281
X73.152Y-124.206
X73.152Y-129.286
X73.406Y-149.86
X74.422Y-217.17
X74.422Y-221.488
X74.422Y-226.695
X74.93Y-184.912
X74.93Y-197.104
X75.184Y-199.39
X75.819Y-173.736
X76.2Y-180.467
X76.2Y-208.788
X76.2Y-219.71
X76.327Y-224.917
X77.216Y-172.72
X77.216Y-209.804
X77.724Y-230.505
X77.978Y-59.944
X77.978Y-143.256
X78.232Y-119.126
X78.232Y-128.524
X78.359Y-182.372
X79.375Y-152.4
X80.264Y-183.515
X80.645Y-217.17
X80.645Y-229.235
X81.534Y-179.324
X83.312Y-88.646
X83.439Y-169.926
X84.074Y-183.515
X84.074Y-192.024
X84.582Y-89.916
X84.836Y-206.248
X85.598Y-217.17
X85.852Y-222.25
X85.852Y-227.838
X85.979Y-91.186
X85.979Y-180.34
X86.106Y-201.676
X86.995Y-220.98
X87.122Y-120.65
X87.122Y-126.746
X87.249Y-63.246
X87.249Y-119.126
X87.249Y-130.556
X87.249Y-150.495
X88.392Y-224.79
X88.519Y-92.456
X88.519Y-172.72
X88.646Y-184.912
X90.17Y-200.279
X90.932Y-230.505
X91.059Y-93.853
X93.599Y-96.266
X93.599Y-184.785
X93.98Y-195.326
X93.98Y-214.376
X96.139Y-182.626
X96.139Y-97.536
X96.774Y-216.662
X97.409Y-184.785
X97.409Y-195.326
X98.298Y-229.235
X98.298Y-247.015
X98.679Y-98.806
X98.679Y-182.626
X98.933Y-193.04
X100.076Y-201.676
X100.457Y-130.429
X100.457Y-149.606
X101.727Y-58.801
X101.854Y-128.016
X102.362Y-139.446
X102.616Y-186.436
X104.648Y-218.821
X105.029Y-173.736
X105.156Y-247.015
X107.442Y-143.256
X107.569Y-180.848
X107.95Y-127.635
X107.95Y-199.39
X108.204Y-59.944
X110.109Y-181.737
X112.649Y-183.007
X113.03Y-53.848
X113.03Y-64.516
X113.03Y-98.806
X114.046Y-194.056
X114.3Y-100.076
X115.189Y-171.958
X115.316Y-198.882
X115.316Y-250.952
X115.57Y-101.346
X116.459Y-157.353
X116.586Y-86.106
X116.586Y-130.556
X116.586Y-151.384
X116.586Y-197.104
X117.729Y-102.616
X117.729Y-170.942
X118.11Y-209.804
X118.999Y-128.016
X119.38Y-183.007
X119.38Y-191.262
X119.38Y-227.076
X119.38Y-234.95
X120.269Y-103.886
X120.269Y-172.847
X120.269Y-216.916
X120.396Y-201.93
X120.777Y-53.086
X120.904Y-227.076
X121.666Y-208.28
X121.666Y-171.958
X121.92Y-212.217
X122.809Y-106.045
X124.079Y-133.096
X124.079Y-165.1
X124.079Y-219.329
X125.349Y-107.696
X125.349Y-184.404
X125.476Y-203.708
X125.476Y-209.169
X125.73Y-51.816
X126.619Y-158.496
X127.889Y-108.966
X130.048Y-128.016
X130.048Y-160.909
X131.064Y-160.02
X131.445Y-171.958
X131.445Y-209.423
X131.826Y-65.786
X132.08Y-87.122
X132.08Y-88.646
X132.08Y-128.016
X132.334Y-141.859
X132.334Y-156.718
X132.461Y-202.819
X133.604Y-207.391
X133.604Y-221.996
X134.239Y-154.686
X134.239Y-173.736
X135.128Y-244.729
X136.779Y-179.07
X137.16Y-143.256
X137.414Y-152.4
X137.668Y-59.944
X139.319Y-185.42
X140.208Y-233.553
X140.589Y-147.32
X140.589Y-158.75
X140.589Y-177.419
X141.859Y-171.958
X141.859Y-211.963
X141.859Y-227.203
X142.494Y-108.966
X143.129Y-171.958
X143.764Y-110.236
X145.034Y-111.506
X145.669Y-166.116
X146.177Y-130.556
X146.939Y-183.515
X148.209Y-153.289
X148.209Y-157.607
X148.209Y-165.1
X148.717Y-237.998
X149.479Y-186.309
X149.606Y-64.389
X149.606Y-147.32
X149.606Y-231.521
X150.368Y-149.606
X150.368Y-152.654
X150.749Y-188.087
X152.019Y-178.181
X152.019Y-215.519
X153.289Y-199.898
X154.559Y-242.689
X155.702Y-179.959
X158.369Y-211.963
X158.369Y-222.631
X158.75Y-56.515
X158.75Y-131.826
X160.02Y-63.373
X160.02Y-128.016
X160.147Y-131.953
X160.147Y-134.366
X160.274Y-172.847
X160.274Y-182.626
X161.163Y-170.942
X161.544Y-61.595
X162.052Y-124.206
X162.052Y-143.891
X162.179Y-209.169
X162.306Y-240.284
X162.433Y-58.928
X162.814Y-217.551
X163.195Y-159.258
X163.449Y-172.847
X163.703Y-205.486
X164.084Y-209.169
X164.719Y-159.258
X164.719Y-165.227
X164.719Y-170.815
X164.719Y-187.198
X164.719Y-201.93
X165.989Y-165.227
X165.989Y-179.07
X166.624Y-65.151
X166.624Y-92.075
X166.878Y-59.944
X167.005Y-112.141
X167.005Y-128.016
X167.005Y-129.286
X167.005Y-133.096
X167.132Y-142.748
X167.259Y-191.135
X168.529Y-170.815
X169.037Y-201.803
X169.799Y-192.024
X170.434Y-227.203
X170.434Y-240.284
X171.069Y-142.875
X171.069Y-171.958
X171.323Y-126.746
X171.323Y-136.906
X171.577Y-217.551
X172.325Y-65.786
X172.339Y-59.436
X172.339Y-156.718
X172.339Y-166.116
X172.72Y-201.803
X173.228Y-217.551
X173.482Y-61.976
X173.482Y-67.056
X173.863Y-239.395
X173.863Y-244.094
X174.498Y-53.721
X174.498Y-107.569
X174.498Y-218.44
X174.879Y-169.926
X175.768Y-243.967
X176.149Y-183.515
X176.149Y-191.135
X176.53Y-200.914
X176.657Y-83.693
X176.657Y-94.107
X176.657Y-95.631
X176.657Y-117.348
X177.292Y-164.338
X177.292Y-171.704
X177.292Y-242.689
X177.292Y-245.11
X177.673Y-105.029
X177.673Y-118.237
X178.308Y-210.82
X178.689Y-186.309
X178.689Y-207.391
X178.816Y-104.14
X178.816Y-116.586
X178.816Y-132.842
X179.07Y-53.34
X179.07Y-138.303
X179.578Y-228.346
X179.578Y-236.474
X179.959Y-153.67
X179.959Y-164.338
X179.959Y-202.819
X180.086Y-169.926
X180.594Y-64.516
X180.848Y-223.012
X180.848Y-229.743
X181.229Y-178.181
X181.61Y-52.07
X181.61Y-58.039
X181.864Y-67.056
X182.118Y-218.44
X182.499Y-199.898
X183.261Y-69.596
X183.769Y-179.959
X184.277Y-72.136
X184.785Y-217.551
X185.166Y-74.676
X185.42Y-195.072
X185.928Y-227.711
X185.928Y-238.379
X186.309Y-77.216
X186.309Y-192.024
X186.309Y-207.137
X187.198Y-198.12
X187.198Y-214.63
X187.579Y-50.165
X187.579Y-69.596
X187.579Y-125.349
X187.579Y-130.429
X187.579Y-137.922
X188.468Y-187.198
X188.468Y-208.28
X188.468Y-223.012
X188.468Y-242.57
X188.468Y-245.11
X189.103Y-216.916
X189.23Y-80.518
X189.23Y-130.556
X189.611Y-179.07
X189.738Y-230.632
X189.738Y-248.666
X190.246Y-122.809
X190.5Y-51.054
X190.5Y-74.422
X190.5Y-90.297
X190.881Y-129.159
X191.008Y-215.646
X191.008Y-228.6
X191.008Y-243.967
X191.262Y-152.781
X191.643Y-63.373
X192.278Y-235.458
X192.659Y-172.847
X193.04Y-186.309
X193.548Y-229.743
X193.929Y-170.815
X194.31Y-152.4
X194.31Y-160.909
X194.945Y-88.646
X194.945Y-110.109
X195.072Y-134.112
X195.072Y-140.462
X195.199Y-170.815
X195.453Y-158.496
X195.707Y-144.272
X195.707Y-149.606
X195.834Y-60.833
X195.834Y-115.189
X196.088Y-222.885
X196.088Y-230.759
X196.596Y-117.729
X196.723Y-58.166
X196.723Y-140.589
X197.104Y-214.63
X197.739Y-78.613
X197.739Y-179.07
X198.628Y-229.743
X198.882Y-79.375
X199.009Y-160.909
X199.898Y-223.774
X199.898Y-227.711
X200.279Y-190.5
X201.168Y-228.6
X201.549Y-158.877
X201.549Y-182.626
X201.549Y-187.96
X202.438Y-129.54
X202.438Y-201.803
X202.438Y-204.343
X202.692Y-108.966
X202.692Y-121.539
X202.819Y-189.23
X203.581Y-111.506
X203.581Y-143.002
X203.708Y-200.152
X203.708Y-203.2
X203.708Y-228.6
X204.089Y-144.78
X204.089Y-157.48
X204.597Y-81.407
X204.978Y-190.5
X205.486Y-82.55
X206.248Y-192.913
X206.248Y-223.774
X206.248Y-233.68
X206.629Y-141.732
X206.629Y-150.749
X206.629Y-159.131
X207.518Y-184.404
X207.645Y-95.631
X207.645Y-122.809
X208.661Y-112.522
X208.661Y-120.269
X208.788Y-229.743
X209.169Y-158.115
X209.423Y-82.55
X209.423Y-99.822
X210.058Y-182.626
X210.058Y-222.885
X210.185Y-171.704
X210.185Y-239.395
X210.185Y-244.983
X210.439Y-177.419
X210.82Y-67.183
X210.82Y-94.869
X211.328Y-181.737
X211.328Y-228.6
X212.09Y-83.82
X212.217Y-57.15
X212.598Y-189.23
X212.725Y-124.079
X212.979Y-152.4
X213.36Y-75.311
X213.36Y-80.01
X213.868Y-180.848
X213.868Y-228.6
X213.868Y-234.569
X213.868Y-239.268
X214.249Y-157.099
X214.249Y-177.419
X214.63Y-81.153
X215.011Y-55.88
X215.138Y-243.84
X215.519Y-151.13
X215.9Y-78.994
X215.9Y-82.55
X216.408Y-215.646
X216.408Y-227.711
X216.916Y-173.736
X217.043Y-84.836
X217.043Y-88.9
X217.678Y-242.57
X218.44Y-68.58
X218.44Y-83.82
X218.44Y-85.09
X218.948Y-228.6
X219.075Y-202.692
X219.71Y-55.88
X219.71Y-90.17
X220.218Y-183.515
X220.98Y-86.36
X220.98Y-87.63
X221.361Y-103.632
X221.361Y-128.143
X221.488Y-230.505
X221.488Y-240.284
X222.25Y-57.15
X222.25Y-78.994
X222.377Y-160.909
X223.393Y-104.14
X223.393Y-146.812
X224.028Y-205.359
X224.663Y-107.569
X224.79Y-88.9
X224.79Y-112.649
X224.79Y-132.969
X225.298Y-227.33
X225.298Y-233.68
X226.06Y-158.115
X226.187Y-207.137
X226.441Y-171.831
X227.203Y-95.885
X227.33Y-74.422
X227.33Y-89.027
X227.33Y-151.13
X227.33Y-168.91
X227.33Y-184.404
X227.584Y-205.359
X228.473Y-152.4
X228.6Y-94.869
X228.6Y-176.657
X229.87Y-87.63
X229.87Y-175.387
X229.87Y-75.311
X229.997Y-107.569
X230.505Y-235.458
X231.14Y-170.815
X231.14Y-202.692
X231.394Y-70.358
X231.648Y-241.173
X232.41Y-86.36
X232.41Y-179.07
X232.41Y-203.708
X232.918Y-222.123
X233.553Y-67.31
X233.553Y-101.854
X233.553Y-159.131
X233.553Y-188.087
X233.553Y-189.357
X234.188Y-248.92
X234.188Y-209.931
X234.696Y-171.704
X234.696Y-200.152
X234.95Y-68.58
X235.458Y-242.951
X235.458Y-223.52
X235.458Y-234.569
X236.093Y-158.115
X236.728Y-228.346
X237.998Y-178.181
X238.76Y-103.124
X238.76Y-156.083
X239.268Y-185.42
X239.268Y-234.569
X239.268Y-243.84
X240.03Y-110.109
X240.03Y-154.178
X240.538Y-178.181
X240.538Y-219.202
X241.046Y-101.981
X241.046Y-115.189
X241.3Y-149.606
X241.808Y-164.338
X241.808Y-204.597
X241.808Y-228.346
X242.316Y-103.124
X242.443Y-66.421
X242.57Y-115.189
X242.57Y-120.269
X242.57Y-162.56
X243.078Y-179.959
X243.078Y-238.379
X243.713Y-66.421
X243.713Y-105.283
X243.713Y-137.922
X243.84Y-90.17
X243.84Y-143.256
X243.84Y-158.75
X244.348Y-215.646
X244.348Y-235.458
X244.348Y-245.11
X244.983Y-57.15
X244.983Y-139.7
X244.983Y-160.528
X245.237Y-138.049
X246.38Y-103.251
X246.38Y-122.809
X246.38Y-161.29
X246.761Y-220.853
X247.65Y-95.377
X247.777Y-124.079
X247.777Y-139.7
X248.158Y-249.809
X248.666Y-155.067
X248.666Y-206.629
X248.92Y-89.027
X249.428Y-223.647
X249.428Y-249.809
X249.682Y-157.099
X250.19Y-66.421
X250.698Y-222.504
X250.698Y-245.11
X251.333Y-57.15
X251.46Y-182.626
X251.46Y-206.629
X251.46Y-158.623
X251.714Y-99.695
X251.714Y-129.413
X252.603Y-136.779
X252.73Y-111.379
X253.238Y-249.809
X253.365Y-67.183
X253.873Y-217.17
X255.143Y-105.283
X255.27Y-74.295
X255.27Y-94.615
X255.27Y-113.919
X256.032Y-190.5
X256.032Y-211.963
X256.286Y-108.839
X256.54Y-69.596
X256.54Y-99.695
X256.921Y-222.504
X257.556Y-105.156
X257.556Y-113.284
X257.556Y-114.3
X257.937Y-219.202
X258.826Y-109.093
X258.826Y-214.884
X259.08Y-88.9
X259.461Y-227.584
X259.461Y-230.505
X259.715Y-242.951
X259.715Y-247.904
X260.096Y-220.853
X260.477Y-222.123
X260.477Y-236.347
X261.366Y-175.387
X261.493Y-106.299
X261.493Y-114.3
X261.62Y-67.691
X261.874Y-248.92
X262.636Y-181.61
X262.636Y-189.357
X263.525Y-233.68
X263.779Y-65.024
X263.779Y-71.501
X263.906Y-113.284
X263.906Y-176.657
X263.906Y-180.34
X265.176Y-109.093
X265.176Y-159.766
X265.176Y-223.139
X265.176Y-228.6
X266.446Y-127.889
X266.446Y-151.257
X266.446Y-173.736
X266.7Y-75.057
X266.7Y-101.473
X267.716Y-178.181
X267.716Y-200.025
X268.986Y-154.178
X268.986Y-176.53
X268.986Y-219.456
X270.129Y-143.256
X270.256Y-192.151
X270.764Y-110.871
X271.526Y-116.332
X271.526Y-134.239
X271.526Y-177.8
X271.526Y-189.357
X272.796Y-191.262
X273.685Y-217.17
X273.939Y-165.227
X274.066Y-100.457
X274.828Y-81.153
X275.336Y-110.871
X275.336Y-200.025
X276.606Y-129.159
X276.606Y-171.704
X276.606Y-182.753
X276.606Y-192.151
X276.733Y-166.116
X277.368Y-80.01
X277.749Y-109.728
X277.876Y-140.589
X277.876Y-154.813
X277.876Y-189.357
X278.384Y-250.19
X278.638Y-67.056
X279.146Y-156.21
X279.146Y-183.769
X279.146Y-213.741
X279.527Y-236.601
X279.908Y-78.994
X280.416Y-177.8
X280.416Y-191.262
X280.416Y-225.171
X281.178Y-74.422
X281.559Y-171.704
X281.686Y-172.847
X281.686Y-226.568
X281.686Y-103.124
X282.448Y-82.55
X282.956Y-171.831
X282.956Y-184.15
X283.845Y-186.69
X284.353Y-157.48
X284.607Y-222.25
X284.734Y-190.373
X284.988Y-83.82
X285.496Y-62.23
X285.496Y-173.101
X287.02Y-148.59
X287.02Y-150.368
X287.528Y-60.96
X288.29Y-186.69
X288.417Y-184.15
X288.671Y-238.379
X288.798Y-85.09
X289.941Y-131.699
X290.068Y-210.82
X290.068Y-218.44
X290.068Y-86.36
X290.195Y-146.439
X290.195Y-158.623
X291.338Y-58.42
X291.338Y-151.892
X291.338Y-187.96
X291.592Y-240.284
X292.608Y-57.15
X292.608Y-74.422
X292.608Y-87.63
X292.608Y-143.002
X292.608Y-174.244
X292.608Y-200.533
X292.608Y-211.963
X293.878Y-189.23
X294.005Y-102.87
X295.021Y-241.173
X295.148Y-67.056
X295.148Y-143.002
X295.148Y-144.78
X295.148Y-169.926
X295.148Y-199.263
X295.148Y-210.82
X295.275Y-95.631
X296.164Y-135.636
X296.164Y-161.29
X296.418Y-182.753
X296.418Y-193.04
X296.418Y-194.31
X296.545Y-128.27
X296.545Y-128.27
X297.688Y-62.23
X297.688Y-68.072
X297.688Y-75.311
X297.688Y-94.615
X297.688Y-170.815
X297.688Y-198.12
X297.688Y-209.55
X297.688Y-244.475
X298.958Y-97.028
X298.958Y-156.21
X298.958Y-195.707
X299.212Y-127.508
X299.339Y-154.813
X300.228Y-88.9
X300.228Y-196.85
X300.228Y-202.946
X300.228Y-207.645
X300.228Y-245.364
X300.99Y-143.002
X300.99Y-152.146
X301.498Y-157.48
X301.498Y-228.6
X301.498Y-237.49
X302.768Y-60.96
X302.768Y-182.499
X302.768Y-213.741
X302.768Y-236.601
X302.768Y-222.25
X303.53Y-101.473
X303.53Y-144.78
X303.53Y-146.431
X304.038Y-96.139
X304.038Y-170.815
X304.038Y-236.601
X304.8Y-121.539
X305.308Y-114.3
X305.308Y-164.465
X305.308Y-171.831
X305.308Y-207.645
X305.308Y-214.63
X305.308Y-215.9
X306.197Y-58.42
X306.578Y-75.311
X306.578Y-169.926
X306.578Y-226.568
X306.578Y-237.363
X307.086Y-118.999
X307.848Y-109.728
X307.848Y-173.101
X307.848Y-215.9
X308.229Y-129.159
X308.356Y-57.15
X308.483Y-212.852
X309.118Y-74.295
X309.118Y-141.478
X309.118Y-166.243
X309.118Y-170.053
X309.118Y-174.244
X309.118Y-218.44
X309.118Y-239.141
X309.499Y-119.888
X310.388Y-104.14
X310.388Y-110.998
X310.388Y-135.636
X310.388Y-193.04
X310.388Y-200.533
X310.388Y-228.6
X310.769Y-132.969
X311.658Y-66.802
X311.658Y-136.779
X311.658Y-185.42
X311.658Y-201.676
X311.658Y-215.519
X312.801Y-64.516
X312.928Y-124.587
X312.928Y-184.15
X312.928Y-199.263
X312.928Y-214.63
X312.928Y-241.3
X314.198Y-90.17
X314.198Y-109.728
X314.198Y-152.654
X314.198Y-158.623
X314.198Y-174.371
X314.198Y-198.12
X314.198Y-214.63
X315.468Y-118.872
X315.468Y-123.19
X315.468Y-182.499
X315.468Y-213.741
X315.468Y-242.57
X316.357Y-143.891
X316.738Y-184.15
X316.738Y-213.741
X316.865Y-196.85
X318.008Y-109.728
X318.008Y-174.371
X318.008Y-243.84
X318.77Y-114.3
X319.278Y-58.42
X319.278Y-103.632
X319.278Y-185.42
X319.278Y-230.505
X319.278Y-240.284
X319.278Y-249.301
X320.04Y-124.587
X320.548Y-68.072
X320.548Y-151.638
X320.548Y-170.053
X320.548Y-201.676
X320.548Y-227.203
X320.548Y-249.301
X321.945Y-138.176
X321.945Y-143.002
X322.58Y-123.19
X322.58Y-132.842
X322.834Y-104.394
X322.834Y-110.49
X322.834Y-112.522
X323.088Y-159.893
X323.088Y-184.15
X323.088Y-230.505
X323.088Y-245.745
X323.342Y-143.002
X323.85Y-125.095
X324.231Y-107.569
X324.358Y-115.824
X324.358Y-155.575
X324.358Y-233.815
X324.358Y-244.729
X324.866Y-119.888
X325.12Y-138.176
X325.628Y-162.56
X325.628Y-185.42
X325.628Y-222.377
X325.628Y-206.756
X326.39Y-55.88
X326.39Y-124.079
X326.39Y-132.842
X326.898Y-154.686
X326.898Y-161.417
X327.025Y-147.066
X327.66Y-131.699
X327.66Y-143.002
X328.168Y-152.654
X328.168Y-161.544
X328.168Y-208.661
X328.168Y-228.981
X328.93Y-117.983
X329.438Y-140.716
X329.565Y-102.87
X330.708Y-159.512
X330.708Y-175.387
X331.47Y-118.872
X331.978Y-153.67
X331.978Y-238.252
X332.105Y-96.901
X333.121Y-196.85
X333.121Y-208.661
X333.375Y-72.263
X333.883Y-129.667
X334.01Y-108.585
X334.645Y-95.631
X334.645Y-101.473
X335.788Y-160.528
X335.788Y-181.61
X337.058Y-175.26
X337.185Y-94.615
X337.185Y-240.284
X337.693Y-117.983
X338.328Y-165.608
X338.328Y-180.34
X338.582Y-69.85
X338.836Y-148.082
X339.598Y-173.863
X339.598Y-228.092
X339.725Y-88.9
X340.36Y-124.079
X340.868Y-73.787
X340.868Y-179.07
X342.138Y-133.731
X342.138Y-172.593
X342.138Y-224.282
X342.265Y-69.088
X342.392Y-101.727
X342.9Y-125.095
X343.281Y-170.815
X343.281Y-185.42
X343.408Y-165.608
X343.408Y-193.421
X343.408Y-223.266
X343.408Y-229.87
X343.916Y-58.42
X344.043Y-116.332
X344.551Y-154.94
X344.678Y-171.323
X344.678Y-234.823
X344.805Y-71.12
X344.805Y-72.39
X345.313Y-59.69
X345.44Y-113.157
X345.948Y-195.072
X345.948Y-196.215
X346.71Y-60.96
X347.218Y-153.797
X347.218Y-170.307
X347.218Y-217.17
X347.218Y-235.712
X347.345Y-74.93
X348.107Y-69.088
X348.361Y-198.12
X348.488Y-164.465
X348.488Y-194.31
X348.488Y-202.946
X349.449Y-62.158
X349.758Y-107.823
X349.758Y-163.576
X349.758Y-185.42
X350.774Y-59.69
X351.028Y-225.171
X351.028Y-250.19
X351.155Y-69.85
X352.171Y-99.187
X352.219Y-63.452
X352.298Y-163.576
X352.298Y-199.39
X352.298Y-236.601
X353.568Y-146.304
X353.568Y-176.53
X353.568Y-187.96
X353.568Y-207.645
X353.695Y-69.85
X353.695Y-83.82
X353.695Y-101.727
X354.838Y-237.363
X354.965Y-64.77
X354.965Y-73.787
X356.108Y-139.7
X356.108Y-177.8
X356.108Y-186.69
X356.235Y-85.09
X356.235Y-98.171
X356.235Y-107.696
X356.743Y-212.852
X357.378Y-116.332
X357.378Y-239.141
X357.505Y-68.58
X357.759Y-65.913
X358.775Y-86.36
X358.775Y-96.901
X359.918Y-211.963
X359.918Y-215.519
X360.045Y-110.49
X360.045Y-139.7
X360.045Y-143.002
X361.188Y-170.18
X361.188Y-241.3
X361.315Y-87.63
X361.315Y-95.631
X362.458Y-210.82
X362.458Y-214.63
X362.585Y-115.316
X362.585Y-126.238
X362.585Y-160.528
X363.728Y-171.323
X363.728Y-242.57
X363.855Y-68.58
X363.855Y-94.615
X364.998Y-209.55
X364.998Y-213.741
X365.125Y-65.913
X365.125Y-90.17
X365.633Y-133.731
X366.268Y-74.93
X366.268Y-172.593
X366.268Y-198.12
X366.268Y-208.661
X366.268Y-243.84
X366.395Y-88.9
X367.538Y-195.199
X367.538Y-199.39
X367.665Y-64.77
X367.665Y-115.316
X368.808Y-196.215
X368.808Y-72.39
X368.808Y-107.569
X368.808Y-175.26
X368.808Y-222.377
X368.808Y-223.52
X368.808Y-227.203
X368.808Y-244.729
X369.443Y-100.203
X370.078Y-156.972
X370.078Y-198.501
X370.205Y-63.5
X370.205Y-95.25
X371.348Y-173.863
X371.348Y-193.421
X371.348Y-233.934
X371.348Y-245.745
X371.475Y-109.093
X372.618Y-223.52
X372.745Y-62.23
X373.888Y-107.569
X373.888Y-206.756
X373.888Y-249.301
X375.285Y-60.96
X375.285Y-99.187
X376.301Y-222.377
X376.428Y-228.981
X377.825Y-58.42
X377.825Y-87.63
X378.587Y-198.501
X378.587Y-209.931
X378.714Y-95.25
X378.714Y-131.953
X379.73Y-146.304
X379.73Y-229.87
X379.73Y-250.19
X380.365Y-71.12
X380.365Y-86.36
X381.127Y-187.198
X381.127Y-195.707
X382.905Y-81.153
X382.905Y-85.09
X384.175Y-194.564
X384.683Y-155.321
X385.191Y-223.012
X385.445Y-80.01
X385.445Y-83.82
X385.572Y-138.303
X386.588Y-227.584
X387.858Y-236.22
X387.985Y-78.994
X387.985Y-82.55
X388.366Y-195.707
X390.017Y-213.868
X390.017Y-237.617
X391.16Y-112.522
X391.16Y-125.222
X391.287Y-187.198
X392.684Y-194.564
X393.827Y-126.492
T2
X161.544Y-212.598
X162.814Y-212.598
X164.084Y-212.598
X273.685Y-61.595
X274.955Y-60.325
X276.225Y-61.595
X280.416Y-61.595
X281.686Y-60.325
X282.956Y-61.595
X372.872Y-120.396
X372.872Y-126.492
X374.142Y-119.126
X374.142Y-125.222
X375.412Y-120.396
X375.412Y-126.492
X382.143Y-183.388
X383.413Y-182.118
X384.683Y-183.388
X388.747Y-183.388
X388.747Y-191.516
X390.017Y-182.118
X390.017Y-190.246
X391.287Y-183.388
X391.287Y-191.516
T3
X285.369Y-51.348
X285.369Y-53.848
X287.469Y-51.348
X290.069Y-51.348
X292.169Y-51.348
X292.169Y-53.848
X306.256Y-51.348
X306.256Y-53.848
X308.356Y-51.348
X310.956Y-51.348
X313.056Y-51.348
X313.056Y-53.848
T4
X68.072Y-121.666
X68.072Y-124.206
X68.072Y-126.746
X68.072Y-129.286
X68.072Y-131.826
X68.072Y-134.366
X68.072Y-136.906
X68.072Y-139.446
X68.072Y-141.986
X68.58Y-71.12
X68.58Y-73.66
X68.58Y-76.2
X68.58Y-78.74
X68.58Y-81.28
X68.58Y-83.82
X68.58Y-86.36
X68.58Y-88.9
X68.58Y-91.44
X75.224Y-163.449
X75.819Y-167.894
X75.819Y-175.514
X77.724Y-163.449
X77.724Y-232.664
X78.359Y-167.894
X78.359Y-175.514
X80.224Y-232.664
X80.899Y-155.194
X80.899Y-162.814
X80.899Y-167.894
X80.899Y-175.514
X82.296Y-197.104
X82.296Y-201.676
X82.296Y-206.248
X83.439Y-155.194
X83.439Y-162.814
X83.439Y-167.894
X83.439Y-175.514
X84.328Y-232.664
X85.232Y-57.404
X85.979Y-155.194
X85.979Y-162.814
X85.979Y-167.894
X85.979Y-175.514
X86.828Y-232.664
X86.868Y-240.284
X87.732Y-57.404
X88.519Y-155.194
X88.519Y-162.814
X88.519Y-167.894
X88.519Y-175.514
X90.932Y-232.664
X91.059Y-155.194
X91.059Y-162.814
X91.059Y-167.894
X91.059Y-175.514
X92.456Y-197.104
X92.456Y-201.676
X92.456Y-206.248
X93.432Y-232.664
X93.599Y-155.194
X93.599Y-162.814
X93.599Y-167.894
X93.599Y-175.514
X96.012Y-197.104
X96.139Y-155.194
X96.139Y-162.814
X96.139Y-167.894
X96.139Y-175.514
X96.139Y-201.676
X96.139Y-206.248
X97.028Y-240.284
X97.536Y-232.664
X98.679Y-155.194
X98.679Y-162.814
X98.679Y-167.894
X98.679Y-175.514
X98.933Y-222.758
X98.933Y-226.695
X99.1Y-217.17
X100.036Y-232.664
X100.584Y-240.792
X100.584Y-250.952
X101.6Y-217.17
X103.672Y-161.417
X104.18Y-236.728
X104.688Y-217.17
X105.029Y-167.894
X105.029Y-175.514
X105.156Y-240.792
X105.156Y-250.952
X106.172Y-161.417
X106.172Y-197.104
X106.299Y-201.676
X106.299Y-206.248
X106.553Y-222.758
X106.553Y-226.695
X106.68Y-236.728
X107.188Y-217.17
X107.569Y-167.894
X107.569Y-175.514
X109.728Y-197.104
X110.109Y-155.194
X110.109Y-162.814
X110.109Y-167.894
X110.109Y-175.514
X110.236Y-206.248
X110.236Y-230.632
X110.236Y-240.792
X110.236Y-250.952
X110.276Y-201.676
X110.784Y-222.504
X112.649Y-155.194
X112.649Y-162.814
X112.649Y-167.894
X112.649Y-175.514
X112.736Y-230.632
X112.776Y-201.676
X112.776Y-206.248
X113.284Y-222.504
X115.189Y-155.194
X115.189Y-162.814
X115.189Y-167.894
X115.189Y-175.514
X115.316Y-206.248
X115.316Y-237.744
X115.773Y-57.252
X116.332Y-212.344
X116.332Y-216.916
X117.348Y-221.996
X117.348Y-224.536
X117.348Y-227.076
X117.348Y-229.616
X117.729Y-155.194
X117.729Y-162.814
X117.729Y-167.894
X117.729Y-175.514
X117.816Y-237.744
X117.856Y-206.248
X118.273Y-57.252
X119.888Y-197.104
X120.269Y-155.194
X120.269Y-162.814
X120.269Y-167.894
X120.269Y-175.514
X120.396Y-206.248
X122.428Y-237.744
X122.809Y-155.194
X122.809Y-162.814
X122.809Y-167.894
X122.809Y-175.514
X122.936Y-206.248
X124.246Y-194.056
X124.928Y-237.744
X124.968Y-221.996
X124.968Y-224.536
X124.968Y-227.076
X124.968Y-229.616
X125.349Y-155.194
X125.349Y-162.814
X125.349Y-167.894
X125.349Y-175.514
X125.476Y-206.248
X126.492Y-212.344
X126.492Y-216.916
X126.746Y-194.056
X127.889Y-155.194
X127.889Y-162.814
X127.889Y-167.894
X127.889Y-175.514
X128.016Y-206.248
X130.048Y-211.836
X130.048Y-214.376
X130.048Y-216.916
X130.048Y-219.456
X130.048Y-221.996
X130.048Y-224.536
X130.048Y-227.076
X130.048Y-229.616
X130.048Y-235.712
X130.048Y-238.252
X130.048Y-240.792
X130.048Y-243.332
X130.048Y-245.872
X130.048Y-248.412
X130.048Y-250.952
X132.247Y-162.814
X134.239Y-167.894
X134.239Y-175.514
X134.747Y-162.814
X136.779Y-167.894
X136.779Y-175.514
X137.668Y-211.836
X137.668Y-214.376
X137.668Y-216.916
X137.668Y-219.456
X137.668Y-221.996
X137.668Y-224.536
X137.668Y-227.076
X137.668Y-229.616
X137.668Y-235.712
X137.668Y-238.252
X137.668Y-240.792
X137.668Y-243.332
X137.668Y-245.872
X137.668Y-248.412
X137.668Y-250.952
X139.319Y-155.194
X139.319Y-162.814
X139.319Y-167.894
X139.319Y-175.514
X141.859Y-155.194
X141.859Y-162.814
X141.859Y-167.894
X141.859Y-175.514
X141.986Y-231.521
X141.986Y-235.712
X142.24Y-240.284
X144.399Y-155.194
X144.399Y-162.814
X144.399Y-167.894
X144.399Y-175.514
X146.939Y-155.194
X146.939Y-162.814
X146.939Y-167.894
X146.939Y-175.514
X149.479Y-155.194
X149.479Y-162.814
X149.479Y-167.894
X149.479Y-175.514
X152.019Y-155.194
X152.019Y-162.814
X152.019Y-167.894
X152.019Y-175.514
X152.146Y-231.521
X152.146Y-235.712
X152.4Y-240.284
X154.559Y-155.194
X154.559Y-162.814
X154.559Y-167.894
X154.559Y-175.514
X156.972Y-232.156
X156.972Y-246.888
X157.099Y-155.194
X157.099Y-162.814
X157.099Y-167.894
X157.099Y-175.514
X159.472Y-232.156
X159.472Y-246.888
X159.639Y-205.74
X160.568Y-219.964
X160.568Y-225.044
X161.33Y-155.321
X163.068Y-219.964
X163.068Y-225.044
X163.449Y-167.894
X163.449Y-175.514
X163.83Y-155.321
X164.084Y-246.888
X164.124Y-232.156
X164.719Y-189.484
X165.989Y-167.894
X165.989Y-175.514
X166.156Y-225.044
X166.584Y-246.888
X166.624Y-232.156
X167.259Y-189.484
X167.767Y-212.852
X168.529Y-155.194
X168.529Y-162.814
X168.529Y-167.894
X168.529Y-175.514
X168.656Y-225.044
X169.799Y-189.484
X169.799Y-205.74
X170.267Y-212.852
X171.069Y-155.194
X171.069Y-162.814
X171.069Y-167.894
X171.069Y-175.514
X172.339Y-189.484
X173.228Y-205.74
X173.228Y-212.852
X173.228Y-220.472
X173.228Y-225.552
X173.609Y-155.194
X173.609Y-162.814
X173.609Y-167.894
X173.609Y-175.514
X174.879Y-189.484
X175.768Y-212.852
X175.768Y-220.472
X175.768Y-225.552
X176.149Y-155.194
X176.149Y-162.814
X176.149Y-167.894
X176.149Y-175.514
X176.276Y-120.269
X176.276Y-122.809
X176.276Y-125.349
X176.276Y-127.889
X176.276Y-130.429
X176.276Y-132.969
X176.276Y-135.509
X176.276Y-138.049
X176.276Y-140.589
X177.419Y-189.484
X178.308Y-56.896
X178.308Y-59.436
X178.308Y-61.976
X178.308Y-64.516
X178.308Y-67.056
X178.308Y-69.596
X178.308Y-72.136
X178.308Y-74.676
X178.308Y-77.216
X178.308Y-212.852
X178.308Y-220.472
X178.308Y-225.552
X178.689Y-155.194
X178.689Y-162.814
X178.689Y-167.894
X178.689Y-175.514
X179.959Y-189.484
X180.848Y-212.852
X180.848Y-220.472
X180.848Y-225.552
X181.229Y-155.194
X181.229Y-162.814
X181.229Y-167.894
X181.229Y-175.514
X182.499Y-189.484
X183.388Y-205.74
X183.388Y-212.852
X183.388Y-220.472
X183.388Y-225.552
X183.769Y-155.194
X183.769Y-162.814
X183.769Y-167.894
X183.769Y-175.514
X185.928Y-212.852
X185.928Y-220.472
X185.928Y-225.552
X186.309Y-155.194
X186.309Y-162.814
X186.309Y-167.894
X186.309Y-175.514
X188.468Y-212.852
X188.468Y-220.472
X188.468Y-225.552
X189.738Y-155.067
X189.738Y-162.687
X191.008Y-212.852
X191.008Y-220.472
X191.008Y-225.552
X192.238Y-155.067
X192.238Y-162.687
X192.659Y-167.894
X192.659Y-175.514
X193.04Y-102.489
X193.04Y-105.029
X193.04Y-107.569
X193.04Y-110.109
X193.04Y-112.649
X193.04Y-115.189
X193.04Y-117.729
X193.04Y-120.269
X193.04Y-122.809
X193.04Y-125.349
X193.04Y-131.572
X193.04Y-134.112
X193.04Y-136.652
X193.04Y-139.192
X193.04Y-141.732
X193.04Y-144.272
X193.04Y-146.812
X195.199Y-167.894
X195.199Y-175.514
X196.088Y-225.552
X197.739Y-155.194
X197.739Y-162.814
X197.739Y-167.894
X197.739Y-175.514
X198.628Y-212.852
X198.628Y-220.472
X198.628Y-225.552
X200.279Y-155.194
X200.279Y-162.814
X200.279Y-167.894
X200.279Y-175.514
X200.66Y-102.489
X200.66Y-105.029
X200.66Y-107.569
X200.66Y-110.109
X200.66Y-112.649
X200.66Y-115.189
X200.66Y-117.729
X200.66Y-120.269
X200.66Y-122.809
X200.66Y-125.349
X200.66Y-131.572
X200.66Y-134.112
X200.66Y-136.652
X200.66Y-139.192
X200.66Y-141.732
X200.66Y-144.272
X200.66Y-146.812
X200.7Y-98.679
X201.168Y-212.852
X201.168Y-220.472
X201.168Y-225.552
X202.819Y-155.194
X202.819Y-162.814
X202.819Y-167.894
X202.819Y-175.514
X203.2Y-98.679
X203.708Y-212.852
X203.708Y-220.472
X203.708Y-225.552
X205.359Y-155.194
X205.359Y-162.814
X205.359Y-167.894
X205.359Y-175.514
X206.248Y-64.516
X206.248Y-67.016
X206.248Y-77.216
X206.248Y-79.716
X206.248Y-212.852
X206.248Y-220.472
X206.248Y-225.552
X207.899Y-155.194
X207.899Y-162.814
X207.899Y-167.894
X207.899Y-175.514
X208.788Y-212.852
X208.788Y-220.472
X208.788Y-225.552
X210.439Y-155.194
X210.439Y-162.814
X210.439Y-167.894
X210.439Y-175.514
X210.82Y-64.516
X210.82Y-72.136
X210.82Y-77.216
X210.82Y-92.456
X210.82Y-102.489
X210.82Y-105.029
X210.82Y-107.569
X210.82Y-110.109
X210.82Y-112.649
X210.82Y-115.189
X210.82Y-117.729
X210.82Y-120.269
X210.82Y-122.809
X210.82Y-125.349
X211.328Y-212.852
X211.328Y-220.472
X211.328Y-225.552
X212.979Y-155.194
X212.979Y-162.814
X212.979Y-167.894
X212.979Y-175.514
X213.36Y-59.69
X213.36Y-64.516
X213.36Y-72.136
X213.36Y-77.216
X213.36Y-92.456
X213.868Y-212.852
X213.868Y-220.472
X213.868Y-225.552
X215.519Y-155.194
X215.519Y-162.814
X215.519Y-167.894
X215.519Y-175.514
X215.86Y-59.69
X215.9Y-64.516
X215.9Y-72.136
X215.9Y-77.216
X215.9Y-92.456
X216.408Y-212.852
X216.408Y-220.472
X218.44Y-59.69
X218.44Y-64.516
X218.44Y-72.136
X218.44Y-77.216
X218.44Y-92.456
X218.44Y-102.489
X218.44Y-105.029
X218.44Y-107.569
X218.44Y-110.109
X218.44Y-112.649
X218.44Y-115.189
X218.44Y-117.729
X218.44Y-120.269
X218.44Y-122.809
X218.44Y-125.349
X218.948Y-225.552
X220.94Y-59.69
X220.98Y-64.516
X220.98Y-72.136
X220.98Y-77.216
X220.98Y-92.456
X221.488Y-225.552
X223.52Y-59.69
X223.52Y-64.516
X223.52Y-72.136
X223.52Y-77.216
X223.52Y-92.456
X224.028Y-225.552
X226.02Y-59.69
X226.06Y-64.516
X226.06Y-72.136
X226.06Y-77.216
X226.06Y-92.456
X226.568Y-213.106
X226.568Y-220.726
X226.568Y-225.552
X228.6Y-59.69
X228.6Y-64.516
X228.6Y-72.136
X228.6Y-77.216
X228.6Y-92.456
X229.108Y-213.106
X229.108Y-220.726
X229.108Y-225.552
X231.1Y-59.69
X231.14Y-77.216
X231.14Y-92.456
X231.648Y-213.106
X231.648Y-220.726
X231.648Y-225.552
X233.553Y-64.516
X233.553Y-72.136
X233.553Y-97.322
X233.553Y-99.822
X233.68Y-77.216
X233.68Y-92.456
X234.188Y-213.106
X234.188Y-220.726
X234.188Y-225.552
X236.093Y-59.69
X236.093Y-64.516
X236.093Y-72.136
X236.22Y-77.216
X236.22Y-92.456
X236.728Y-213.106
X236.728Y-220.726
X236.728Y-225.552
X238.593Y-59.69
X238.633Y-64.516
X238.633Y-72.136
X238.76Y-77.216
X238.76Y-92.456
X238.76Y-98.552
X239.268Y-213.106
X239.268Y-220.726
X240.538Y-225.552
X241.173Y-59.69
X241.173Y-64.516
X241.173Y-72.136
X241.3Y-77.216
X241.3Y-92.456
X241.808Y-213.106
X241.808Y-220.726
X243.078Y-225.552
X243.66Y-98.552
X243.673Y-59.69
X243.713Y-64.516
X243.713Y-72.136
X243.84Y-77.216
X243.84Y-92.456
X244.348Y-213.106
X244.348Y-220.726
X245.618Y-225.552
X246.253Y-64.516
X246.253Y-72.136
X246.293Y-59.69
X246.38Y-77.216
X246.38Y-92.456
X248.158Y-225.552
X248.452Y-212.852
X248.793Y-59.69
X248.793Y-64.516
X248.793Y-72.136
X248.92Y-77.216
X248.92Y-92.456
X248.92Y-97.195
X248.92Y-99.695
X249.809Y-149.479
X249.809Y-151.979
X250.698Y-225.552
X250.952Y-212.852
X251.333Y-59.69
X251.333Y-64.516
X251.333Y-72.136
X251.46Y-77.216
X251.46Y-92.456
X253.238Y-225.552
X253.746Y-97.282
X253.833Y-59.69
X254.0Y-77.216
X254.0Y-92.456
X255.016Y-121.539
X255.016Y-124.079
X255.016Y-126.619
X255.016Y-129.159
X255.016Y-131.699
X255.016Y-134.239
X255.016Y-136.779
X255.016Y-139.319
X255.016Y-141.859
X255.016Y-144.399
X255.016Y-146.939
X255.778Y-225.552
X256.54Y-77.216
X256.54Y-92.456
X257.556Y-118.999
X257.556Y-121.539
X257.556Y-124.079
X257.556Y-126.619
X257.556Y-129.159
X257.556Y-131.699
X257.556Y-134.239
X257.556Y-136.779
X257.556Y-139.319
X257.556Y-141.859
X257.556Y-144.399
X257.556Y-146.939
X257.556Y-149.479
X258.318Y-225.552
X259.08Y-77.216
X259.08Y-92.456
X259.334Y-60.706
X259.334Y-65.024
X259.334Y-69.596
X259.334Y-73.406
X260.096Y-118.999
X260.096Y-121.539
X260.096Y-146.939
X260.096Y-149.479
X261.66Y-201.676
X262.422Y-92.456
X262.636Y-118.999
X262.636Y-121.539
X262.636Y-146.939
X262.636Y-149.479
X263.525Y-220.218
X263.525Y-225.171
X263.906Y-97.282
X264.16Y-201.676
X264.922Y-92.456
X265.176Y-118.999
X265.176Y-121.539
X265.176Y-146.939
X265.176Y-149.479
X267.716Y-118.999
X267.716Y-121.539
X267.716Y-146.939
X267.716Y-149.479
X267.716Y-194.056
X267.716Y-201.676
X269.494Y-60.706
X269.494Y-65.024
X269.494Y-69.596
X269.494Y-73.406
X270.256Y-118.999
X270.256Y-121.539
X270.256Y-146.939
X270.256Y-149.479
X270.256Y-194.056
X270.256Y-201.676
X272.288Y-77.216
X272.288Y-92.456
X272.796Y-118.999
X272.796Y-121.539
X272.796Y-146.939
X272.796Y-149.479
X272.796Y-194.056
X272.796Y-201.676
X273.685Y-220.218
X273.685Y-225.171
X273.812Y-232.156
X273.812Y-246.888
X273.979Y-96.774
X274.828Y-77.216
X274.828Y-92.456
X275.336Y-118.999
X275.336Y-121.539
X275.336Y-146.939
X275.336Y-149.479
X275.336Y-194.056
X275.336Y-201.676
X276.312Y-232.156
X276.312Y-246.888
X276.479Y-96.774
X276.479Y-113.919
X277.368Y-77.216
X277.368Y-92.456
X277.876Y-118.999
X277.876Y-121.539
X277.876Y-146.939
X277.876Y-149.479
X277.876Y-194.056
X277.876Y-201.676
X278.979Y-113.919
X279.908Y-77.216
X279.908Y-92.456
X280.416Y-118.999
X280.416Y-121.539
X280.416Y-146.939
X280.416Y-149.479
X280.416Y-194.056
X280.416Y-201.676
X282.448Y-77.216
X282.448Y-92.456
X282.448Y-246.888
X282.956Y-118.999
X282.956Y-121.539
X282.956Y-124.079
X282.956Y-126.619
X282.956Y-129.159
X282.956Y-131.699
X282.956Y-134.239
X282.956Y-136.779
X282.956Y-139.319
X282.956Y-141.859
X282.956Y-144.399
X282.956Y-146.939
X282.956Y-149.479
X282.956Y-194.056
X282.956Y-201.676
X283.377Y-220.472
X284.139Y-113.919
X284.948Y-246.888
X284.988Y-77.216
X284.988Y-92.456
X285.496Y-121.539
X285.496Y-124.079
X285.496Y-126.619
X285.496Y-129.159
X285.496Y-131.699
X285.496Y-134.239
X285.496Y-136.779
X285.496Y-139.319
X285.496Y-141.859
X285.496Y-144.399
X285.496Y-146.939
X285.877Y-220.472
X286.639Y-113.919
X287.06Y-190.754
X287.187Y-164.846
X287.528Y-77.216
X287.528Y-92.456
X289.56Y-190.754
X289.687Y-164.846
X290.068Y-64.643
X290.068Y-72.263
X290.068Y-77.216
X290.068Y-92.456
X290.068Y-205.105
X290.068Y-220.345
X290.068Y-232.156
X290.068Y-247.396
X292.481Y-124.079
X292.481Y-139.319
X292.608Y-64.643
X292.608Y-72.263
X292.608Y-77.216
X292.608Y-92.456
X292.608Y-168.148
X292.608Y-191.008
X292.608Y-205.105
X292.608Y-220.345
X292.608Y-232.156
X292.608Y-247.396
X295.148Y-64.643
X295.148Y-72.263
X295.148Y-77.216
X295.148Y-92.456
X295.148Y-168.148
X295.148Y-191.008
X295.148Y-205.105
X295.148Y-220.345
X295.148Y-232.156
X295.148Y-247.396
X297.688Y-64.643
X297.688Y-72.263
X297.688Y-77.216
X297.688Y-92.456
X297.688Y-168.148
X297.688Y-191.008
X297.688Y-205.105
X297.688Y-220.345
X297.688Y-232.156
X297.688Y-247.396
X300.101Y-124.079
X300.101Y-139.319
X300.228Y-64.643
X300.228Y-72.263
X300.228Y-77.216
X300.228Y-92.456
X300.228Y-168.148
X300.228Y-191.008
X300.228Y-205.105
X300.228Y-220.345
X300.228Y-232.156
X300.228Y-247.396
X302.768Y-64.643
X302.768Y-72.263
X302.768Y-77.216
X302.768Y-92.456
X302.768Y-168.148
X302.768Y-191.008
X302.768Y-205.105
X302.768Y-220.345
X302.768Y-232.156
X302.768Y-247.396
X305.308Y-64.643
X305.308Y-72.263
X305.308Y-77.216
X305.308Y-92.456
X305.308Y-99.06
X305.308Y-106.68
X305.308Y-168.148
X305.308Y-191.008
X305.308Y-205.105
X305.308Y-220.345
X305.308Y-232.156
X305.308Y-247.396
X307.848Y-77.216
X307.848Y-92.456
X307.848Y-99.06
X307.848Y-106.68
X307.848Y-168.148
X307.848Y-191.008
X307.848Y-205.105
X307.848Y-220.345
X307.848Y-232.156
X307.848Y-247.396
X308.777Y-61.849
X310.388Y-77.216
X310.388Y-92.456
X310.388Y-99.06
X310.388Y-106.68
X310.388Y-112.903
X310.388Y-168.148
X310.388Y-191.008
X310.388Y-205.105
X310.388Y-220.345
X310.388Y-232.156
X310.388Y-247.396
X311.277Y-61.849
X312.928Y-77.216
X312.928Y-92.456
X312.928Y-99.06
X312.928Y-106.68
X312.928Y-168.148
X312.928Y-191.008
X312.928Y-205.105
X312.928Y-220.345
X312.928Y-232.156
X312.928Y-247.396
X315.468Y-64.643
X315.468Y-72.263
X315.468Y-77.216
X315.468Y-92.456
X315.468Y-99.06
X315.468Y-106.68
X315.468Y-168.148
X315.468Y-191.008
X315.468Y-205.105
X315.468Y-220.345
X315.468Y-232.156
X315.468Y-247.396
X317.5Y-128.016
X317.5Y-135.636
X318.008Y-77.216
X318.008Y-92.456
X318.008Y-99.06
X318.008Y-106.68
X318.008Y-168.148
X318.008Y-191.008
X318.008Y-205.105
X318.008Y-220.345
X318.008Y-232.156
X318.008Y-247.396
X319.064Y-145.288
X319.278Y-149.86
X319.278Y-157.48
X320.04Y-128.016
X320.04Y-135.636
X320.548Y-77.216
X320.548Y-92.456
X320.548Y-99.06
X320.548Y-106.68
X320.548Y-112.903
X320.548Y-168.148
X320.548Y-191.008
X320.548Y-205.105
X320.548Y-220.345
X320.548Y-232.156
X320.548Y-247.396
X321.564Y-145.288
X321.818Y-149.86
X321.818Y-157.48
X322.58Y-128.016
X322.58Y-135.636
X323.088Y-64.643
X323.088Y-72.263
X323.088Y-168.148
X323.088Y-191.008
X323.088Y-205.105
X323.088Y-220.345
X323.088Y-232.156
X323.088Y-247.396
X324.358Y-149.86
X324.358Y-157.48
X325.12Y-128.016
X325.12Y-135.636
X325.12Y-140.716
X325.12Y-145.288
X325.628Y-168.148
X325.628Y-191.008
X325.628Y-205.105
X325.628Y-220.345
X325.628Y-232.156
X325.628Y-247.396
X326.898Y-149.86
X326.898Y-157.48
X327.66Y-121.412
X327.66Y-128.016
X327.66Y-135.636
X328.168Y-168.148
X328.168Y-191.008
X328.168Y-205.105
X328.168Y-220.345
X328.168Y-232.156
X328.168Y-247.396
X328.422Y-63.373
X328.422Y-67.818
X328.422Y-72.263
X329.438Y-149.86
X329.438Y-157.48
X329.565Y-77.216
X329.565Y-92.456
X330.2Y-121.412
X330.2Y-128.016
X330.2Y-135.636
X330.708Y-168.148
X330.708Y-191.008
X331.978Y-149.86
X331.978Y-157.48
X332.105Y-77.216
X332.105Y-92.456
X332.74Y-121.412
X332.74Y-128.016
X332.74Y-135.636
X333.248Y-168.148
X333.248Y-191.008
X334.518Y-149.86
X334.518Y-157.48
X334.645Y-77.216
X334.645Y-92.456
X334.645Y-105.41
X335.28Y-121.412
X335.28Y-128.016
X335.28Y-135.636
X335.28Y-140.716
X335.28Y-145.288
X335.788Y-168.148
X335.788Y-191.008
X335.828Y-115.316
X337.185Y-77.216
X337.185Y-92.456
X337.82Y-121.412
X338.328Y-115.316
X338.328Y-168.148
X338.328Y-191.008
X338.328Y-205.105
X338.328Y-220.345
X338.328Y-232.156
X338.328Y-247.396
X338.582Y-63.373
X338.582Y-67.818
X338.582Y-72.263
X339.725Y-77.216
X339.725Y-92.456
X340.36Y-121.412
X340.868Y-128.016
X340.868Y-135.636
X340.868Y-140.716
X340.868Y-145.288
X340.868Y-149.86
X340.868Y-157.48
X340.868Y-168.148
X340.868Y-191.008
X340.868Y-205.105
X340.868Y-220.345
X340.868Y-232.156
X340.868Y-247.396
X342.265Y-77.216
X342.265Y-92.456
X342.9Y-121.412
X343.408Y-128.016
X343.408Y-135.636
X343.408Y-149.86
X343.408Y-157.48
X343.408Y-168.148
X343.408Y-191.008
X343.408Y-205.105
X343.408Y-220.345
X343.408Y-232.156
X343.408Y-247.396
X344.805Y-77.216
X344.805Y-92.456
X344.805Y-105.41
X345.44Y-121.412
X345.948Y-128.016
X345.948Y-135.636
X345.948Y-149.86
X345.948Y-157.48
X345.948Y-168.148
X345.948Y-191.008
X345.948Y-205.105
X345.948Y-220.345
X345.948Y-232.156
X345.948Y-247.396
X347.345Y-77.216
X347.345Y-92.456
X347.98Y-121.412
X348.274Y-105.41
X348.488Y-128.016
X348.488Y-135.636
X348.488Y-149.86
X348.488Y-157.48
X348.488Y-168.148
X348.488Y-191.008
X348.488Y-205.105
X348.488Y-220.345
X348.488Y-232.156
X348.488Y-247.396
X349.885Y-77.216
X349.885Y-92.456
X350.774Y-105.41
X351.028Y-128.016
X351.028Y-135.636
X351.028Y-140.716
X351.028Y-145.288
X351.028Y-149.86
X351.028Y-157.48
X351.028Y-168.148
X351.028Y-191.008
X351.028Y-205.105
X351.028Y-220.345
X351.028Y-232.156
X351.028Y-247.396
X352.425Y-77.216
X352.425Y-92.456
X353.568Y-128.016
X353.568Y-135.636
X353.568Y-149.86
X353.568Y-157.48
X353.568Y-168.148
X353.568Y-191.008
X353.568Y-205.105
X353.568Y-220.345
X353.568Y-232.156
X353.568Y-247.396
X353.695Y-105.283
X353.695Y-112.903
X354.965Y-77.216
X354.965Y-92.456
X356.108Y-128.016
X356.108Y-135.636
X356.108Y-149.86
X356.108Y-157.48
X356.108Y-168.148
X356.108Y-191.008
X356.108Y-205.105
X356.108Y-220.345
X356.108Y-232.156
X356.108Y-247.396
X356.235Y-105.283
X356.235Y-112.903
X357.505Y-77.216
X357.505Y-92.456
X358.648Y-168.148
X358.648Y-191.008
X358.648Y-205.105
X358.648Y-220.345
X358.648Y-232.156
X358.648Y-247.396
X358.775Y-105.283
X358.775Y-112.903
X360.045Y-77.216
X360.045Y-92.456
X361.188Y-168.148
X361.188Y-191.008
X361.188Y-205.105
X361.188Y-220.345
X361.188Y-232.156
X361.188Y-247.396
X361.315Y-105.283
X361.315Y-112.903
X362.585Y-77.216
X362.585Y-92.456
X363.728Y-168.148
X363.728Y-191.008
X363.728Y-205.105
X363.728Y-220.345
X363.728Y-232.156
X363.728Y-247.396
X363.855Y-105.283
X363.855Y-112.903
X365.125Y-77.216
X365.125Y-92.456
X366.268Y-156.972
X366.268Y-161.544
X366.268Y-168.148
X366.268Y-191.008
X366.268Y-205.105
X366.268Y-220.345
X366.268Y-232.156
X366.268Y-247.396
X366.395Y-105.283
X366.395Y-112.903
X366.776Y-120.396
X366.816Y-127.0
X367.284Y-151.384
X367.665Y-77.216
X367.665Y-92.456
X368.808Y-168.148
X368.808Y-191.008
X368.808Y-205.105
X368.808Y-220.345
X368.808Y-232.156
X368.808Y-247.396
X368.935Y-105.283
X368.935Y-112.903
X369.276Y-120.396
X369.316Y-127.0
X369.784Y-151.384
X370.205Y-77.216
X370.205Y-92.456
X371.348Y-168.148
X371.348Y-191.008
X371.348Y-205.105
X371.348Y-220.345
X371.348Y-232.156
X371.348Y-247.396
X371.475Y-105.283
X371.475Y-112.903
X371.54Y-101.6
X372.745Y-77.216
X372.745Y-92.456
X372.934Y-151.384
X373.888Y-205.105
X373.888Y-220.345
X373.888Y-232.156
X373.888Y-247.396
X374.015Y-105.283
X374.015Y-112.903
X374.04Y-101.6
X374.055Y-201.295
X374.436Y-168.148
X375.285Y-77.216
X375.285Y-92.456
X375.434Y-151.384
X376.428Y-156.972
X376.428Y-161.544
X376.428Y-205.105
X376.428Y-220.345
X376.428Y-232.156
X376.428Y-247.396
X376.555Y-201.295
X376.936Y-168.148
X377.825Y-77.216
X377.825Y-92.456
X380.365Y-77.216
X380.365Y-92.456
X381.889Y-246.38
X382.524Y-200.152
X382.524Y-204.724
X382.524Y-209.296
X382.524Y-213.868
X382.524Y-218.44
X382.524Y-223.012
X382.524Y-227.584
X382.905Y-77.216
X382.905Y-92.456
X383.667Y-108.077
X383.667Y-112.522
X383.667Y-116.967
X384.389Y-246.38
X384.937Y-102.997
X385.104Y-73.025
X385.445Y-77.216
X385.445Y-92.456
X387.604Y-73.025
X387.985Y-77.216
X387.985Y-92.456
X391.566Y-90.667
X391.566Y-93.167
X392.557Y-102.997
X392.684Y-200.152
X392.684Y-204.724
X392.684Y-209.296
X392.684Y-213.868
X392.684Y-218.44
X392.684Y-223.012
X392.684Y-227.584
X393.827Y-108.077
X393.827Y-112.522
X393.827Y-116.967
T5
X183.388Y-232.156
X183.388Y-246.888
X185.928Y-232.156
X185.928Y-246.888
X188.468Y-232.156
X188.468Y-246.888
X191.008Y-232.156
X191.008Y-246.888
X193.548Y-232.156
X193.548Y-246.888
X196.088Y-232.156
X196.088Y-246.888
X198.628Y-232.156
X198.628Y-246.888
X201.168Y-232.156
X201.168Y-246.888
X203.708Y-232.156
X203.708Y-246.888
X206.248Y-232.156
X206.248Y-246.888
X208.788Y-232.156
X208.788Y-246.888
X211.328Y-232.156
X211.328Y-246.888
X213.868Y-232.156
X213.868Y-246.888
X216.408Y-232.156
X216.408Y-246.888
X218.948Y-232.156
X218.948Y-246.888
X221.488Y-232.156
X221.488Y-246.888
X224.028Y-232.156
X224.028Y-246.888
X226.568Y-232.156
X226.568Y-246.888
X229.108Y-232.156
X229.108Y-246.888
X231.648Y-232.156
X231.648Y-246.888
X234.188Y-232.156
X234.188Y-246.888
X236.728Y-232.156
X236.728Y-246.888
X239.268Y-232.156
X239.268Y-246.888
X241.808Y-232.156
X241.808Y-246.888
X244.348Y-232.156
X244.348Y-246.888
X246.888Y-232.156
X246.888Y-246.888
X249.428Y-232.156
X249.428Y-246.888
X251.968Y-232.156
X251.968Y-246.888
X254.508Y-232.156
X254.508Y-246.888
X257.048Y-232.156
X257.048Y-246.888
T6
X79.121Y-189.865
X81.661Y-189.865
X86.106Y-189.865
X88.646Y-189.865
X93.091Y-189.865
X95.631Y-189.865
X100.076Y-189.865
X102.616Y-189.865
X107.061Y-189.865
X109.601Y-189.865
X114.046Y-189.865
X116.586Y-189.865
X143.764Y-220.472
X146.304Y-220.472
X273.685Y-69.85
X276.225Y-69.85
X280.416Y-69.85
X282.956Y-69.85
X388.747Y-157.48
X388.747Y-165.608
X388.747Y-173.736
X391.287Y-157.48
X391.287Y-165.608
X391.287Y-173.736
T7
X75.438Y-61.976
X75.438Y-64.516
X75.438Y-67.056
X75.438Y-69.596
X75.438Y-72.136
X75.438Y-74.676
X75.438Y-77.216
X75.438Y-79.756
X75.438Y-82.296
X75.438Y-84.836
X75.438Y-87.376
X75.438Y-89.916
X75.438Y-92.456
X75.438Y-94.996
X75.438Y-97.536
X75.438Y-100.076
X75.438Y-102.616
X75.438Y-105.156
X75.438Y-107.696
X75.438Y-110.236
X75.438Y-112.776
X75.438Y-115.316
X75.438Y-117.856
X75.438Y-120.396
X75.438Y-122.936
X75.438Y-125.476
X75.438Y-128.016
X75.438Y-130.556
X75.438Y-133.096
X75.438Y-135.636
X75.438Y-138.176
X75.438Y-140.716
X78.082Y-243.586
X78.082Y-248.086
X80.518Y-61.976
X80.518Y-64.516
X80.518Y-67.056
X80.518Y-69.596
X80.518Y-72.136
X80.518Y-74.676
X80.518Y-77.216
X80.518Y-79.756
X80.518Y-82.296
X80.518Y-84.836
X80.518Y-87.376
X80.518Y-89.916
X80.518Y-92.456
X80.518Y-94.996
X80.518Y-97.536
X80.518Y-100.076
X80.518Y-102.616
X80.518Y-105.156
X80.518Y-107.696
X80.518Y-110.236
X80.518Y-112.776
X80.518Y-115.316
X80.518Y-117.856
X80.518Y-120.396
X80.518Y-122.936
X80.518Y-125.476
X80.518Y-128.016
X80.518Y-130.556
X80.518Y-133.096
X80.518Y-135.636
X80.518Y-138.176
X80.518Y-140.716
X84.582Y-243.586
X84.582Y-248.086
X90.424Y-245.872
X90.424Y-248.412
X95.504Y-245.872
X95.504Y-248.412
X105.156Y-61.976
X105.156Y-64.516
X105.156Y-67.056
X105.156Y-69.596
X105.156Y-72.136
X105.156Y-74.676
X105.156Y-77.216
X105.156Y-79.756
X105.156Y-82.296
X105.156Y-84.836
X105.156Y-87.376
X105.156Y-89.916
X105.156Y-92.456
X105.156Y-94.996
X105.156Y-97.536
X105.156Y-100.076
X105.156Y-102.616
X105.156Y-105.156
X105.156Y-107.696
X105.156Y-110.236
X105.156Y-112.776
X105.156Y-115.316
X105.156Y-117.856
X105.156Y-120.396
X105.156Y-122.936
X105.156Y-125.476
X105.156Y-128.016
X105.156Y-130.556
X105.156Y-133.096
X105.156Y-135.636
X105.156Y-138.176
X105.156Y-140.716
X110.236Y-61.976
X110.236Y-64.516
X110.236Y-67.056
X110.236Y-69.596
X110.236Y-72.136
X110.236Y-74.676
X110.236Y-77.216
X110.236Y-79.756
X110.236Y-82.296
X110.236Y-84.836
X110.236Y-87.376
X110.236Y-89.916
X110.236Y-92.456
X110.236Y-94.996
X110.236Y-97.536
X110.236Y-100.076
X110.236Y-102.616
X110.236Y-105.156
X110.236Y-107.696
X110.236Y-110.236
X110.236Y-112.776
X110.236Y-115.316
X110.236Y-117.856
X110.236Y-120.396
X110.236Y-122.936
X110.236Y-125.476
X110.236Y-128.016
X110.236Y-130.556
X110.236Y-133.096
X110.236Y-135.636
X110.236Y-138.176
X110.236Y-140.716
X117.96Y-243.404
X117.96Y-247.904
X124.46Y-243.404
X124.46Y-247.904
X134.239Y-195.58
X134.239Y-198.12
X134.62Y-61.976
X134.62Y-64.516
X134.62Y-67.056
X134.62Y-69.596
X134.62Y-72.136
X134.62Y-74.676
X134.62Y-77.216
X134.62Y-79.756
X134.62Y-82.296
X134.62Y-84.836
X134.62Y-87.376
X134.62Y-89.916
X134.62Y-92.456
X134.62Y-94.996
X134.62Y-97.536
X134.62Y-100.076
X134.62Y-102.616
X134.62Y-105.156
X134.62Y-107.696
X134.62Y-110.236
X134.62Y-112.776
X134.62Y-115.316
X134.62Y-117.856
X134.62Y-120.396
X134.62Y-122.936
X134.62Y-125.476
X134.62Y-128.016
X134.62Y-130.556
X134.62Y-133.096
X134.62Y-135.636
X134.62Y-138.176
X134.62Y-140.716
X136.779Y-195.58
X136.779Y-198.12
X139.319Y-195.58
X139.319Y-198.12
X139.7Y-61.976
X139.7Y-64.516
X139.7Y-67.056
X139.7Y-69.596
X139.7Y-72.136
X139.7Y-74.676
X139.7Y-77.216
X139.7Y-79.756
X139.7Y-82.296
X139.7Y-84.836
X139.7Y-87.376
X139.7Y-89.916
X139.7Y-92.456
X139.7Y-94.996
X139.7Y-97.536
X139.7Y-100.076
X139.7Y-102.616
X139.7Y-105.156
X139.7Y-107.696
X139.7Y-110.236
X139.7Y-112.776
X139.7Y-115.316
X139.7Y-117.856
X139.7Y-120.396
X139.7Y-122.936
X139.7Y-125.476
X139.7Y-128.016
X139.7Y-130.556
X139.7Y-133.096
X139.7Y-135.636
X139.7Y-138.176
X139.7Y-140.716
X141.859Y-195.58
X141.859Y-198.12
X144.399Y-195.58
X144.399Y-198.12
X145.796Y-246.38
X146.939Y-195.58
X146.939Y-198.12
X148.336Y-246.38
X149.479Y-195.58
X149.479Y-198.12
X151.638Y-219.202
X151.638Y-221.742
X152.019Y-195.58
X152.019Y-198.12
X154.559Y-189.611
X154.559Y-195.58
X154.559Y-198.12
X157.099Y-189.611
X157.099Y-195.58
X157.099Y-198.12
X159.639Y-195.58
X159.639Y-198.12
X162.179Y-195.58
X162.179Y-198.12
X164.338Y-61.976
X164.338Y-64.516
X164.338Y-67.056
X164.338Y-69.596
X164.338Y-72.136
X164.338Y-74.676
X164.338Y-77.216
X164.338Y-79.756
X164.338Y-82.296
X164.338Y-84.836
X164.338Y-87.376
X164.338Y-89.916
X164.338Y-92.456
X164.338Y-94.996
X164.338Y-97.536
X164.338Y-100.076
X164.338Y-102.616
X164.338Y-105.156
X164.338Y-107.696
X164.338Y-110.236
X164.338Y-112.776
X164.338Y-115.316
X164.338Y-117.856
X164.338Y-120.396
X164.338Y-122.936
X164.338Y-125.476
X164.338Y-128.016
X164.338Y-130.556
X164.338Y-133.096
X164.338Y-135.636
X164.338Y-138.176
X164.338Y-140.716
X164.719Y-195.58
X164.719Y-198.12
X167.259Y-195.58
X167.259Y-198.12
X169.418Y-61.976
X169.418Y-64.516
X169.418Y-67.056
X169.418Y-69.596
X169.418Y-72.136
X169.418Y-74.676
X169.418Y-77.216
X169.418Y-79.756
X169.418Y-82.296
X169.418Y-84.836
X169.418Y-87.376
X169.418Y-89.916
X169.418Y-92.456
X169.418Y-94.996
X169.418Y-97.536
X169.418Y-100.076
X169.418Y-102.616
X169.418Y-105.156
X169.418Y-107.696
X169.418Y-110.236
X169.418Y-112.776
X169.418Y-115.316
X169.418Y-117.856
X169.418Y-120.396
X169.418Y-122.936
X169.418Y-125.476
X169.418Y-128.016
X169.418Y-130.556
X169.418Y-133.096
X169.418Y-135.636
X169.418Y-138.176
X169.418Y-140.716
X169.799Y-195.58
X169.799Y-198.12
X172.339Y-195.58
X172.339Y-198.12
X174.879Y-195.58
X174.879Y-198.12
X177.419Y-195.58
X177.419Y-198.12
X179.959Y-195.58
X179.959Y-198.12
X182.499Y-195.58
X182.499Y-198.12
X206.665Y-53.132
X208.05Y-50.292
X209.435Y-53.132
X210.82Y-50.292
X212.205Y-53.132
X213.59Y-50.292
X214.975Y-53.132
X216.36Y-50.292
X217.745Y-53.132
X241.983Y-53.213
X243.368Y-50.373
X244.753Y-53.213
X246.138Y-50.373
X247.523Y-53.213
X248.908Y-50.373
X250.293Y-53.213
X251.678Y-50.373
X253.063Y-53.213
X255.016Y-111.252
X257.556Y-111.252
X260.096Y-111.252
X262.636Y-111.252
X265.176Y-111.252
X267.716Y-111.252
X327.787Y-115.316
X330.327Y-115.316
X338.369Y-55.245
X339.754Y-52.405
X341.139Y-55.245
X342.524Y-52.405
X343.909Y-55.245
X345.294Y-52.405
X346.679Y-55.245
X348.064Y-52.405
X349.449Y-55.245
X350.834Y-52.405
X352.219Y-55.245
X353.604Y-52.405
X354.989Y-55.245
X356.374Y-52.405
X357.759Y-55.245
X359.144Y-52.405
X360.529Y-55.245
X361.914Y-52.405
X363.299Y-55.245
X364.684Y-52.405
X366.069Y-55.245
X367.454Y-52.405
X368.839Y-55.245
X370.224Y-52.405
X371.609Y-55.245
X383.54Y-236.728
X383.54Y-239.268
T8
X65.874Y-187.87
X65.874Y-192.07
X65.874Y-196.27
X65.874Y-200.47
X65.874Y-204.67
X65.874Y-208.87
X65.874Y-213.07
X65.874Y-217.27
X65.874Y-221.47
X65.874Y-225.67
X65.874Y-229.87
X65.874Y-234.07
X71.374Y-187.87
X71.374Y-192.07
X71.374Y-196.27
X71.374Y-200.47
X71.374Y-204.67
X71.374Y-208.87
X71.374Y-213.07
X71.374Y-217.27
X71.374Y-221.47
X71.374Y-225.67
X71.374Y-229.87
X71.374Y-234.07
T9
X369.781Y-138.303
X390.271Y-138.303
T10
X282.019Y-48.348
X288.769Y-47.548
X295.519Y-48.348
X302.906Y-48.348
X309.656Y-47.548
X316.406Y-48.348
T11
X173.228Y-232.156
X173.228Y-246.888
X267.208Y-232.156
X267.208Y-246.888
T12
X65.977Y-183.107
T13
X199.705Y-52.832
X224.705Y-52.832
X235.023Y-52.913
X260.023Y-52.913
X331.439Y-53.825
X378.539Y-53.825
T0
M30
