G04 #@! TF.GenerationSoftware,KiCad,Pcbnew,(5.1.10)-1*
G04 #@! TF.CreationDate,2021-07-30T10:31:03+01:00*
G04 #@! TF.ProjectId,FloppyDiskController,466c6f70-7079-4446-9973-6b436f6e7472,rev?*
G04 #@! TF.SameCoordinates,Original*
G04 #@! TF.FileFunction,Copper,L1,Top*
G04 #@! TF.FilePolarity,Positive*
%FSLAX46Y46*%
G04 Gerber Fmt 4.6, Leading zero omitted, Abs format (unit mm)*
G04 Created by KiCad (PCBNEW (5.1.10)-1) date 2021-07-30 10:31:03*
%MOMM*%
%LPD*%
G01*
G04 APERTURE LIST*
G04 #@! TA.AperFunction,ComponentPad*
%ADD10O,1.600000X1.600000*%
G04 #@! TD*
G04 #@! TA.AperFunction,ComponentPad*
%ADD11R,1.600000X1.600000*%
G04 #@! TD*
G04 #@! TA.AperFunction,ComponentPad*
%ADD12C,1.550000*%
G04 #@! TD*
G04 #@! TA.AperFunction,ComponentPad*
%ADD13O,1.700000X1.700000*%
G04 #@! TD*
G04 #@! TA.AperFunction,ComponentPad*
%ADD14R,1.700000X1.700000*%
G04 #@! TD*
G04 #@! TA.AperFunction,ComponentPad*
%ADD15C,2.780000*%
G04 #@! TD*
G04 #@! TA.AperFunction,ComponentPad*
%ADD16R,2.780000X2.780000*%
G04 #@! TD*
G04 #@! TA.AperFunction,ComponentPad*
%ADD17C,1.600000*%
G04 #@! TD*
G04 #@! TA.AperFunction,ComponentPad*
%ADD18C,1.422400*%
G04 #@! TD*
G04 #@! TA.AperFunction,ComponentPad*
%ADD19R,1.422400X1.422400*%
G04 #@! TD*
G04 #@! TA.AperFunction,ComponentPad*
%ADD20R,1.300000X1.300000*%
G04 #@! TD*
G04 #@! TA.AperFunction,ComponentPad*
%ADD21C,1.300000*%
G04 #@! TD*
G04 #@! TA.AperFunction,ComponentPad*
%ADD22C,1.800000*%
G04 #@! TD*
G04 #@! TA.AperFunction,ComponentPad*
%ADD23R,1.800000X1.800000*%
G04 #@! TD*
G04 #@! TA.AperFunction,ViaPad*
%ADD24C,0.800000*%
G04 #@! TD*
G04 #@! TA.AperFunction,Conductor*
%ADD25C,0.250000*%
G04 #@! TD*
G04 APERTURE END LIST*
D10*
X125222000Y-53594000D03*
X173482000Y-68834000D03*
X127762000Y-53594000D03*
X170942000Y-68834000D03*
X130302000Y-53594000D03*
X168402000Y-68834000D03*
X132842000Y-53594000D03*
X165862000Y-68834000D03*
X135382000Y-53594000D03*
X163322000Y-68834000D03*
X137922000Y-53594000D03*
X160782000Y-68834000D03*
X140462000Y-53594000D03*
X158242000Y-68834000D03*
X143002000Y-53594000D03*
X155702000Y-68834000D03*
X145542000Y-53594000D03*
X153162000Y-68834000D03*
X148082000Y-53594000D03*
X150622000Y-68834000D03*
X150622000Y-53594000D03*
X148082000Y-68834000D03*
X153162000Y-53594000D03*
X145542000Y-68834000D03*
X155702000Y-53594000D03*
X143002000Y-68834000D03*
X158242000Y-53594000D03*
X140462000Y-68834000D03*
X160782000Y-53594000D03*
X137922000Y-68834000D03*
X163322000Y-53594000D03*
X135382000Y-68834000D03*
X165862000Y-53594000D03*
X132842000Y-68834000D03*
X168402000Y-53594000D03*
X130302000Y-68834000D03*
X170942000Y-53594000D03*
X127762000Y-68834000D03*
X173482000Y-53594000D03*
D11*
X125222000Y-68834000D03*
D10*
X102362000Y-107188000D03*
X109982000Y-91948000D03*
X102362000Y-104648000D03*
X109982000Y-94488000D03*
X102362000Y-102108000D03*
X109982000Y-97028000D03*
X102362000Y-99568000D03*
X109982000Y-99568000D03*
X102362000Y-97028000D03*
X109982000Y-102108000D03*
X102362000Y-94488000D03*
X109982000Y-104648000D03*
X102362000Y-91948000D03*
D11*
X109982000Y-107188000D03*
D12*
X105410000Y-119634000D03*
X107950000Y-119634000D03*
X110490000Y-119634000D03*
X113030000Y-119634000D03*
X115570000Y-119634000D03*
X118110000Y-119634000D03*
X120650000Y-119634000D03*
X123190000Y-119634000D03*
X125730000Y-119634000D03*
X128270000Y-119634000D03*
X130810000Y-119634000D03*
X133350000Y-119634000D03*
X135890000Y-119634000D03*
X138430000Y-119634000D03*
X140970000Y-119634000D03*
X143510000Y-119634000D03*
X146050000Y-119634000D03*
X148590000Y-119634000D03*
X151130000Y-119634000D03*
X153670000Y-119634000D03*
X156210000Y-119634000D03*
X158750000Y-119634000D03*
X161290000Y-119634000D03*
X163830000Y-119634000D03*
X166370000Y-119634000D03*
X168910000Y-119634000D03*
X171450000Y-119634000D03*
X173990000Y-119634000D03*
X176530000Y-119634000D03*
X179070000Y-119634000D03*
X181610000Y-119634000D03*
X184150000Y-119634000D03*
X105410000Y-124714000D03*
X107950000Y-124714000D03*
X110490000Y-124714000D03*
X113030000Y-124714000D03*
X115570000Y-124714000D03*
X118110000Y-124714000D03*
X120650000Y-124714000D03*
X123190000Y-124714000D03*
X125730000Y-124714000D03*
X128270000Y-124714000D03*
X130810000Y-124714000D03*
X133350000Y-124714000D03*
X135890000Y-124714000D03*
X138430000Y-124714000D03*
X140970000Y-124714000D03*
X143510000Y-124714000D03*
X146050000Y-124714000D03*
X148590000Y-124714000D03*
X151130000Y-124714000D03*
X153670000Y-124714000D03*
X156210000Y-124714000D03*
X158750000Y-124714000D03*
X161290000Y-124714000D03*
X163830000Y-124714000D03*
X166370000Y-124714000D03*
X168910000Y-124714000D03*
X171450000Y-124714000D03*
X173990000Y-124714000D03*
X176530000Y-124714000D03*
X179070000Y-124714000D03*
X181610000Y-124714000D03*
G04 #@! TA.AperFunction,ComponentPad*
G36*
G01*
X184925000Y-124188998D02*
X184925000Y-125239002D01*
G75*
G02*
X184675002Y-125489000I-249998J0D01*
G01*
X183624998Y-125489000D01*
G75*
G02*
X183375000Y-125239002I0J249998D01*
G01*
X183375000Y-124188998D01*
G75*
G02*
X183624998Y-123939000I249998J0D01*
G01*
X184675002Y-123939000D01*
G75*
G02*
X184925000Y-124188998I0J-249998D01*
G01*
G37*
G04 #@! TD.AperFunction*
D13*
X122936000Y-105156000D03*
X122936000Y-102616000D03*
X122936000Y-100076000D03*
X122936000Y-97536000D03*
X122936000Y-94996000D03*
D14*
X122936000Y-92456000D03*
D15*
X104902000Y-39370000D03*
X104902000Y-44450000D03*
X104902000Y-49530000D03*
D16*
X104902000Y-54610000D03*
D17*
X102068000Y-116332000D03*
D11*
X99568000Y-116332000D03*
D17*
X117054000Y-38354000D03*
D11*
X114554000Y-38354000D03*
D17*
X162814000Y-38608000D03*
X162814000Y-46228000D03*
X178054000Y-46228000D03*
D11*
X178054000Y-38608000D03*
D18*
X153162000Y-87376000D03*
X153162000Y-89916000D03*
X153162000Y-92456000D03*
X153162000Y-94996000D03*
X153162000Y-97536000D03*
X150622000Y-84836000D03*
X150622000Y-89916000D03*
X150622000Y-92456000D03*
X150622000Y-94996000D03*
X150622000Y-97536000D03*
X150622000Y-100076000D03*
X150622000Y-102616000D03*
X148082000Y-102616000D03*
X145542000Y-102616000D03*
X143002000Y-102616000D03*
X140462000Y-102616000D03*
X137922000Y-102616000D03*
X153162000Y-100076000D03*
X148082000Y-100076000D03*
X145542000Y-100076000D03*
X143002000Y-100076000D03*
X140462000Y-100076000D03*
X137922000Y-100076000D03*
X135382000Y-100076000D03*
X135382000Y-97536000D03*
X135382000Y-94996000D03*
X135382000Y-92456000D03*
X135382000Y-89916000D03*
X135382000Y-87376000D03*
X137922000Y-97536000D03*
X137922000Y-94996000D03*
X137922000Y-92456000D03*
X137922000Y-89916000D03*
X137922000Y-87376000D03*
X148082000Y-84836000D03*
X145542000Y-84836000D03*
X137922000Y-84836000D03*
X140462000Y-84836000D03*
X143002000Y-84836000D03*
X150622000Y-87376000D03*
X148082000Y-87376000D03*
X140462000Y-87376000D03*
X143002000Y-87376000D03*
D19*
X145542000Y-87376000D03*
D10*
X145542000Y-44958000D03*
X143002000Y-44958000D03*
X140462000Y-44958000D03*
X137922000Y-44958000D03*
X135382000Y-44958000D03*
X132842000Y-44958000D03*
X130302000Y-44958000D03*
X127762000Y-44958000D03*
D11*
X125222000Y-44958000D03*
D10*
X172974000Y-111252000D03*
D17*
X183134000Y-111252000D03*
D10*
X183134000Y-115062000D03*
D17*
X172974000Y-115062000D03*
D20*
X180340000Y-106426000D03*
D21*
X182880000Y-106426000D03*
X181610000Y-105156000D03*
D13*
X187706000Y-44450000D03*
X190246000Y-44450000D03*
X187706000Y-46990000D03*
X190246000Y-46990000D03*
X187706000Y-49530000D03*
X190246000Y-49530000D03*
X187706000Y-52070000D03*
X190246000Y-52070000D03*
X187706000Y-54610000D03*
X190246000Y-54610000D03*
X187706000Y-57150000D03*
X190246000Y-57150000D03*
X187706000Y-59690000D03*
X190246000Y-59690000D03*
X187706000Y-62230000D03*
X190246000Y-62230000D03*
X187706000Y-64770000D03*
X190246000Y-64770000D03*
X187706000Y-67310000D03*
X190246000Y-67310000D03*
X187706000Y-69850000D03*
X190246000Y-69850000D03*
X187706000Y-72390000D03*
X190246000Y-72390000D03*
X187706000Y-74930000D03*
X190246000Y-74930000D03*
X187706000Y-77470000D03*
X190246000Y-77470000D03*
X187706000Y-80010000D03*
X190246000Y-80010000D03*
X187706000Y-82550000D03*
X190246000Y-82550000D03*
X187706000Y-85090000D03*
D14*
X190246000Y-85090000D03*
D22*
X190754000Y-111252000D03*
D23*
X188214000Y-111252000D03*
D17*
X147106000Y-107188000D03*
X149606000Y-107188000D03*
X121920000Y-65572000D03*
X121920000Y-68072000D03*
X107696000Y-87884000D03*
X105196000Y-87884000D03*
X175768000Y-106172000D03*
X173268000Y-106172000D03*
X121920000Y-55412000D03*
X121920000Y-57912000D03*
X138430000Y-80010000D03*
X135930000Y-80010000D03*
D24*
X115570000Y-94488000D03*
X118110000Y-90423996D03*
X126238000Y-87376000D03*
X140462000Y-97536000D03*
X129794000Y-98806000D03*
X143002000Y-116078000D03*
X151130000Y-116078000D03*
X156210000Y-112776000D03*
X141732000Y-112776000D03*
X141732000Y-94996000D03*
X158242000Y-89916000D03*
X161290000Y-89916000D03*
X163830000Y-87376000D03*
X148082000Y-82804000D03*
X166370000Y-82804000D03*
X168910000Y-78740000D03*
X143002000Y-78740000D03*
X114300000Y-102108000D03*
X116840000Y-88392000D03*
X119380000Y-84836000D03*
X140462000Y-115062000D03*
X152400000Y-115062000D03*
X153670000Y-122428000D03*
X137160000Y-122428000D03*
X132842000Y-117094000D03*
X157480000Y-117094000D03*
X132842000Y-94996000D03*
X151892000Y-71120000D03*
X155702000Y-71120000D03*
X162560000Y-81534000D03*
X151892000Y-81534000D03*
X165100000Y-84836000D03*
X167640000Y-80010000D03*
X146558000Y-80010000D03*
X170180000Y-77724000D03*
X140462000Y-77724000D03*
X137922000Y-42418000D03*
X163322000Y-49530000D03*
X172212000Y-42672000D03*
X135382000Y-40894000D03*
X184658000Y-49530000D03*
X184658000Y-42672000D03*
X132842000Y-51562000D03*
X130302000Y-56134000D03*
X160782000Y-57150000D03*
X158242000Y-59690000D03*
X153162000Y-62230000D03*
X155702000Y-64770000D03*
X140462000Y-66802000D03*
X183642000Y-69850000D03*
X183642000Y-58420000D03*
X150622000Y-58420000D03*
X182372000Y-72390000D03*
X182372000Y-60960000D03*
X145542000Y-60960000D03*
X180594000Y-74930000D03*
X180594000Y-63500000D03*
X143002000Y-63500000D03*
X179324000Y-77470000D03*
X179324000Y-66040000D03*
X127762000Y-65786000D03*
X176276000Y-85090000D03*
X176276000Y-50546000D03*
X135382000Y-50546000D03*
X136652000Y-110998000D03*
X113030000Y-86106000D03*
X113030000Y-99568000D03*
X114300000Y-82804000D03*
X114300000Y-98298000D03*
X156972000Y-92456000D03*
X156972000Y-75438000D03*
X130302000Y-75438000D03*
X177546000Y-94996000D03*
X177546000Y-71120000D03*
X168402000Y-71120000D03*
X128524000Y-93726000D03*
X175006000Y-93726000D03*
X175006000Y-72136000D03*
X165862000Y-72136000D03*
X135382000Y-76708000D03*
X155448000Y-102616000D03*
X155448000Y-76708000D03*
X173228000Y-102616000D03*
X173228000Y-73914000D03*
X163322000Y-73914000D03*
X159766000Y-100076000D03*
X149352000Y-74168000D03*
X137922000Y-74168000D03*
X171450000Y-98806000D03*
X125222000Y-89408000D03*
X120650000Y-83820000D03*
X168402000Y-46228000D03*
X153670000Y-113792000D03*
X139192000Y-113792000D03*
X133858000Y-102616000D03*
X133858000Y-96266000D03*
X128524000Y-94996000D03*
X128524000Y-100076000D03*
D25*
X182880000Y-106426000D02*
X189992000Y-106426000D01*
X190754000Y-107188000D02*
X190754000Y-111252000D01*
X189992000Y-106426000D02*
X190754000Y-107188000D01*
X183134000Y-111252000D02*
X188214000Y-111252000D01*
X115570000Y-94488000D02*
X109982000Y-94488000D01*
X129539996Y-90423996D02*
X118110000Y-90423996D01*
X131572000Y-92456000D02*
X129539996Y-90423996D01*
X135382000Y-92456000D02*
X131572000Y-92456000D01*
X135382000Y-87376000D02*
X126238000Y-87376000D01*
X140462000Y-97536000D02*
X139192000Y-98806000D01*
X139192000Y-98806000D02*
X129794000Y-98806000D01*
X143002000Y-116078000D02*
X151130000Y-116078000D01*
X156210000Y-112776000D02*
X141732000Y-112776000D01*
X141732000Y-94996000D02*
X137922000Y-94996000D01*
X156972000Y-89916000D02*
X161290000Y-89916000D01*
X153162000Y-89916000D02*
X156972000Y-89916000D01*
X156972000Y-89916000D02*
X158242000Y-89916000D01*
X153162000Y-87376000D02*
X163830000Y-87376000D01*
X148082000Y-82804000D02*
X166370000Y-82804000D01*
X168910000Y-78740000D02*
X143002000Y-78740000D01*
X114300000Y-102108000D02*
X109982000Y-102108000D01*
X131318000Y-88392000D02*
X132842000Y-89916000D01*
X116840000Y-88392000D02*
X131318000Y-88392000D01*
X135382000Y-89916000D02*
X132842000Y-89916000D01*
X137922000Y-84836000D02*
X119380000Y-84836000D01*
X140462000Y-115062000D02*
X152400000Y-115062000D01*
X153670000Y-122428000D02*
X137160000Y-122428000D01*
X132842000Y-117094000D02*
X157480000Y-117094000D01*
X135382000Y-94996000D02*
X132842000Y-94996000D01*
X151892000Y-71120000D02*
X155702000Y-71120000D01*
X162560000Y-81534000D02*
X151892000Y-81534000D01*
X150622000Y-84836000D02*
X165100000Y-84836000D01*
X167640000Y-80010000D02*
X146558000Y-80010000D01*
X170180000Y-77724000D02*
X140462000Y-77724000D01*
X150622000Y-100076000D02*
X149352000Y-101346000D01*
X149352000Y-101346000D02*
X126238000Y-101346000D01*
X124968000Y-100076000D02*
X122936000Y-100076000D01*
X126238000Y-101346000D02*
X124968000Y-100076000D01*
X187706000Y-44450000D02*
X155956000Y-44450000D01*
X153924000Y-42418000D02*
X137922000Y-42418000D01*
X155956000Y-44450000D02*
X153924000Y-42418000D01*
X187706000Y-46990000D02*
X184150000Y-46990000D01*
X181610000Y-49530000D02*
X163322000Y-49530000D01*
X184150000Y-46990000D02*
X181610000Y-49530000D01*
X172212000Y-42672000D02*
X157734000Y-42672000D01*
X157734000Y-42672000D02*
X155956000Y-40894000D01*
X155956000Y-40894000D02*
X135382000Y-40894000D01*
X187706000Y-49530000D02*
X184658000Y-49530000D01*
X184658000Y-42672000D02*
X172212000Y-42672000D01*
X187706000Y-52070000D02*
X176022000Y-52070000D01*
X176022000Y-52070000D02*
X175514000Y-51562000D01*
X175514000Y-51562000D02*
X132842000Y-51562000D01*
X187706000Y-54610000D02*
X183134000Y-54610000D01*
X183134000Y-54610000D02*
X181610000Y-56134000D01*
X181610000Y-56134000D02*
X130302000Y-56134000D01*
X187706000Y-57150000D02*
X160782000Y-57150000D01*
X187706000Y-59690000D02*
X158242000Y-59690000D01*
X187706000Y-62230000D02*
X153162000Y-62230000D01*
X187706000Y-64770000D02*
X155702000Y-64770000D01*
X187706000Y-67310000D02*
X176022000Y-67310000D01*
X176022000Y-67310000D02*
X175514000Y-66802000D01*
X175514000Y-66802000D02*
X140462000Y-66802000D01*
X187706000Y-69850000D02*
X183642000Y-69850000D01*
X183642000Y-58420000D02*
X150622000Y-58420000D01*
X187706000Y-72390000D02*
X182372000Y-72390000D01*
X182372000Y-60960000D02*
X145542000Y-60960000D01*
X187706000Y-74930000D02*
X180594000Y-74930000D01*
X180594000Y-63500000D02*
X143002000Y-63500000D01*
X187706000Y-77470000D02*
X179324000Y-77470000D01*
X179324000Y-66040000D02*
X175768000Y-66040000D01*
X175514000Y-65786000D02*
X127762000Y-65786000D01*
X175768000Y-66040000D02*
X175514000Y-65786000D01*
X187706000Y-85090000D02*
X176276000Y-85090000D01*
X176276000Y-50546000D02*
X135382000Y-50546000D01*
X136652000Y-110998000D02*
X166624000Y-110998000D01*
X170688000Y-115062000D02*
X172974000Y-115062000D01*
X166624000Y-110998000D02*
X170688000Y-115062000D01*
X143002000Y-87376000D02*
X141732000Y-86106000D01*
X141732000Y-86106000D02*
X136144000Y-86106000D01*
X117094000Y-86106000D02*
X113030000Y-86106000D01*
X136144000Y-86106000D02*
X117094000Y-86106000D01*
X117094000Y-86106000D02*
X116332000Y-86106000D01*
X113030000Y-99568000D02*
X109982000Y-99568000D01*
X107442000Y-107188000D02*
X109982000Y-107188000D01*
X106426000Y-106172000D02*
X107442000Y-107188000D01*
X106426000Y-99314000D02*
X106426000Y-106172000D01*
X107442000Y-98298000D02*
X106426000Y-99314000D01*
X114300000Y-98298000D02*
X107442000Y-98298000D01*
X143002000Y-83566000D02*
X141732000Y-82296000D01*
X143002000Y-84836000D02*
X143002000Y-83566000D01*
X132080000Y-82804000D02*
X132588000Y-82296000D01*
X114300000Y-82804000D02*
X132080000Y-82804000D01*
X141732000Y-82296000D02*
X132588000Y-82296000D01*
X153162000Y-92456000D02*
X156972000Y-92456000D01*
X156972000Y-75438000D02*
X130302000Y-75438000D01*
X153162000Y-94996000D02*
X177546000Y-94996000D01*
X177546000Y-71120000D02*
X168402000Y-71120000D01*
X150622000Y-92456000D02*
X141732000Y-92456000D01*
X141732000Y-92456000D02*
X140462000Y-93726000D01*
X140462000Y-93726000D02*
X128524000Y-93726000D01*
X150622000Y-94996000D02*
X151892000Y-93726000D01*
X151892000Y-93726000D02*
X175006000Y-93726000D01*
X175006000Y-72136000D02*
X165862000Y-72136000D01*
X150622000Y-102616000D02*
X155448000Y-102616000D01*
X155448000Y-76708000D02*
X148082000Y-76708000D01*
X148082000Y-76708000D02*
X135382000Y-76708000D01*
X148082000Y-102616000D02*
X148082000Y-104648000D01*
X148082000Y-104648000D02*
X148844000Y-105410000D01*
X148844000Y-105410000D02*
X168402000Y-105410000D01*
X171196000Y-102616000D02*
X173228000Y-102616000D01*
X168402000Y-105410000D02*
X171196000Y-102616000D01*
X173228000Y-73914000D02*
X163322000Y-73914000D01*
X159766000Y-100076000D02*
X153162000Y-100076000D01*
X149352000Y-74168000D02*
X137922000Y-74168000D01*
X145542000Y-100076000D02*
X146812000Y-98806000D01*
X146812000Y-98806000D02*
X171450000Y-98806000D01*
X137922000Y-92456000D02*
X136652000Y-91186000D01*
X130302000Y-89408000D02*
X132080000Y-91186000D01*
X125222000Y-89408000D02*
X130302000Y-89408000D01*
X136652000Y-91186000D02*
X132080000Y-91186000D01*
X140462000Y-83312000D02*
X140462000Y-84836000D01*
X140208000Y-83058000D02*
X140462000Y-83312000D01*
X133350000Y-83058000D02*
X140208000Y-83058000D01*
X132588000Y-83820000D02*
X133350000Y-83058000D01*
X120650000Y-83820000D02*
X132588000Y-83820000D01*
X168402000Y-46228000D02*
X162814000Y-46228000D01*
X153670000Y-113792000D02*
X139192000Y-113792000D01*
X137922000Y-97536000D02*
X136652000Y-96266000D01*
X122936000Y-102616000D02*
X133858000Y-102616000D01*
X136652000Y-96266000D02*
X133858000Y-96266000D01*
X135382000Y-97536000D02*
X122936000Y-97536000D01*
X128524000Y-94996000D02*
X122936000Y-94996000D01*
X135382000Y-100076000D02*
X128524000Y-100076000D01*
M02*
