M48
; DRILL file {KiCad (5.1.10)-1} date 07/30/21 10:31:10
; FORMAT={-:-/ absolute / metric / decimal}
; #@! TF.CreationDate,2021-07-30T10:31:10+01:00
; #@! TF.GenerationSoftware,Kicad,Pcbnew,(5.1.10)-1
; #@! TF.FileFunction,Plated,1,4,PTH
FMAT,2
METRIC
T1C0.400
T2C0.750
T3C0.800
T4C0.900
T5C1.000
T6C1.780
%
G90
G05
T1
X113.03Y-86.106
X113.03Y-99.568
X114.3Y-82.804
X114.3Y-98.298
X114.3Y-102.108
X115.57Y-94.488
X116.84Y-88.392
X118.11Y-90.424
X119.38Y-84.836
X120.65Y-83.82
X125.222Y-89.408
X126.238Y-87.376
X127.762Y-65.786
X128.524Y-93.726
X128.524Y-94.996
X128.524Y-100.076
X129.794Y-98.806
X130.302Y-56.134
X130.302Y-75.438
X132.842Y-51.562
X132.842Y-94.996
X132.842Y-117.094
X133.858Y-96.266
X133.858Y-102.616
X135.382Y-40.894
X135.382Y-50.546
X135.382Y-76.708
X136.652Y-110.998
X137.16Y-122.428
X137.922Y-42.418
X137.922Y-74.168
X139.192Y-113.792
X140.462Y-66.802
X140.462Y-77.724
X140.462Y-97.536
X140.462Y-115.062
X141.732Y-94.996
X141.732Y-112.776
X143.002Y-63.5
X143.002Y-78.74
X143.002Y-116.078
X145.542Y-60.96
X146.558Y-80.01
X148.082Y-82.804
X149.352Y-74.168
X150.622Y-58.42
X151.13Y-116.078
X151.892Y-71.12
X151.892Y-81.534
X152.4Y-115.062
X153.162Y-62.23
X153.67Y-113.792
X153.67Y-122.428
X155.448Y-76.708
X155.448Y-102.616
X155.702Y-64.77
X155.702Y-71.12
X156.21Y-112.776
X156.972Y-75.438
X156.972Y-92.456
X157.48Y-117.094
X158.242Y-59.69
X158.242Y-89.916
X159.766Y-100.076
X160.782Y-57.15
X161.29Y-89.916
X162.56Y-81.534
X163.322Y-49.53
X163.322Y-73.914
X163.83Y-87.376
X165.1Y-84.836
X165.862Y-72.136
X166.37Y-82.804
X167.64Y-80.01
X168.402Y-46.228
X168.402Y-71.12
X168.91Y-78.74
X170.18Y-77.724
X171.45Y-98.806
X172.212Y-42.672
X173.228Y-73.914
X173.228Y-102.616
X175.006Y-72.136
X175.006Y-93.726
X176.276Y-50.546
X176.276Y-85.09
X177.546Y-71.12
X177.546Y-94.996
X179.324Y-66.04
X179.324Y-77.47
X180.594Y-63.5
X180.594Y-74.93
X182.372Y-60.96
X182.372Y-72.39
X183.642Y-58.42
X183.642Y-69.85
X184.658Y-42.672
X184.658Y-49.53
T2
X180.34Y-106.426
X181.61Y-105.156
X182.88Y-106.426
T3
X99.568Y-116.332
X102.068Y-116.332
X102.362Y-91.948
X102.362Y-94.488
X102.362Y-97.028
X102.362Y-99.568
X102.362Y-102.108
X102.362Y-104.648
X102.362Y-107.188
X105.196Y-87.884
X107.696Y-87.884
X109.982Y-91.948
X109.982Y-94.488
X109.982Y-97.028
X109.982Y-99.568
X109.982Y-102.108
X109.982Y-104.648
X109.982Y-107.188
X114.554Y-38.354
X117.054Y-38.354
X121.92Y-55.412
X121.92Y-57.912
X121.92Y-65.572
X121.92Y-68.072
X125.222Y-44.958
X125.222Y-53.594
X125.222Y-68.834
X127.762Y-44.958
X127.762Y-53.594
X127.762Y-68.834
X130.302Y-44.958
X130.302Y-53.594
X130.302Y-68.834
X132.842Y-44.958
X132.842Y-53.594
X132.842Y-68.834
X135.382Y-44.958
X135.382Y-53.594
X135.382Y-68.834
X135.382Y-87.376
X135.382Y-89.916
X135.382Y-92.456
X135.382Y-94.996
X135.382Y-97.536
X135.382Y-100.076
X135.93Y-80.01
X137.922Y-44.958
X137.922Y-53.594
X137.922Y-68.834
X137.922Y-84.836
X137.922Y-87.376
X137.922Y-89.916
X137.922Y-92.456
X137.922Y-94.996
X137.922Y-97.536
X137.922Y-100.076
X137.922Y-102.616
X138.43Y-80.01
X140.462Y-44.958
X140.462Y-53.594
X140.462Y-68.834
X140.462Y-84.836
X140.462Y-87.376
X140.462Y-100.076
X140.462Y-102.616
X143.002Y-44.958
X143.002Y-53.594
X143.002Y-68.834
X143.002Y-84.836
X143.002Y-87.376
X143.002Y-100.076
X143.002Y-102.616
X145.542Y-44.958
X145.542Y-53.594
X145.542Y-68.834
X145.542Y-84.836
X145.542Y-87.376
X145.542Y-100.076
X145.542Y-102.616
X147.106Y-107.188
X148.082Y-53.594
X148.082Y-68.834
X148.082Y-84.836
X148.082Y-87.376
X148.082Y-100.076
X148.082Y-102.616
X149.606Y-107.188
X150.622Y-53.594
X150.622Y-68.834
X150.622Y-84.836
X150.622Y-87.376
X150.622Y-89.916
X150.622Y-92.456
X150.622Y-94.996
X150.622Y-97.536
X150.622Y-100.076
X150.622Y-102.616
X153.162Y-53.594
X153.162Y-68.834
X153.162Y-87.376
X153.162Y-89.916
X153.162Y-92.456
X153.162Y-94.996
X153.162Y-97.536
X153.162Y-100.076
X155.702Y-53.594
X155.702Y-68.834
X158.242Y-53.594
X158.242Y-68.834
X160.782Y-53.594
X160.782Y-68.834
X162.814Y-38.608
X162.814Y-46.228
X163.322Y-53.594
X163.322Y-68.834
X165.862Y-53.594
X165.862Y-68.834
X168.402Y-53.594
X168.402Y-68.834
X170.942Y-53.594
X170.942Y-68.834
X172.974Y-111.252
X172.974Y-115.062
X173.268Y-106.172
X173.482Y-53.594
X173.482Y-68.834
X175.768Y-106.172
X178.054Y-38.608
X178.054Y-46.228
X183.134Y-111.252
X183.134Y-115.062
T4
X188.214Y-111.252
X190.754Y-111.252
T5
X105.41Y-119.634
X105.41Y-124.714
X107.95Y-119.634
X107.95Y-124.714
X110.49Y-119.634
X110.49Y-124.714
X113.03Y-119.634
X113.03Y-124.714
X115.57Y-119.634
X115.57Y-124.714
X118.11Y-119.634
X118.11Y-124.714
X120.65Y-119.634
X120.65Y-124.714
X122.936Y-92.456
X122.936Y-94.996
X122.936Y-97.536
X122.936Y-100.076
X122.936Y-102.616
X122.936Y-105.156
X123.19Y-119.634
X123.19Y-124.714
X125.73Y-119.634
X125.73Y-124.714
X128.27Y-119.634
X128.27Y-124.714
X130.81Y-119.634
X130.81Y-124.714
X133.35Y-119.634
X133.35Y-124.714
X135.89Y-119.634
X135.89Y-124.714
X138.43Y-119.634
X138.43Y-124.714
X140.97Y-119.634
X140.97Y-124.714
X143.51Y-119.634
X143.51Y-124.714
X146.05Y-119.634
X146.05Y-124.714
X148.59Y-119.634
X148.59Y-124.714
X151.13Y-119.634
X151.13Y-124.714
X153.67Y-119.634
X153.67Y-124.714
X156.21Y-119.634
X156.21Y-124.714
X158.75Y-119.634
X158.75Y-124.714
X161.29Y-119.634
X161.29Y-124.714
X163.83Y-119.634
X163.83Y-124.714
X166.37Y-119.634
X166.37Y-124.714
X168.91Y-119.634
X168.91Y-124.714
X171.45Y-119.634
X171.45Y-124.714
X173.99Y-119.634
X173.99Y-124.714
X176.53Y-119.634
X176.53Y-124.714
X179.07Y-119.634
X179.07Y-124.714
X181.61Y-119.634
X181.61Y-124.714
X184.15Y-119.634
X184.15Y-124.714
X187.706Y-44.45
X187.706Y-46.99
X187.706Y-49.53
X187.706Y-52.07
X187.706Y-54.61
X187.706Y-57.15
X187.706Y-59.69
X187.706Y-62.23
X187.706Y-64.77
X187.706Y-67.31
X187.706Y-69.85
X187.706Y-72.39
X187.706Y-74.93
X187.706Y-77.47
X187.706Y-80.01
X187.706Y-82.55
X187.706Y-85.09
X190.246Y-44.45
X190.246Y-46.99
X190.246Y-49.53
X190.246Y-52.07
X190.246Y-54.61
X190.246Y-57.15
X190.246Y-59.69
X190.246Y-62.23
X190.246Y-64.77
X190.246Y-67.31
X190.246Y-69.85
X190.246Y-72.39
X190.246Y-74.93
X190.246Y-77.47
X190.246Y-80.01
X190.246Y-82.55
X190.246Y-85.09
T6
X104.902Y-39.37
X104.902Y-44.45
X104.902Y-49.53
X104.902Y-54.61
T0
M30
