%FSLAX45Y45*%
G04 Gerber Fmt 4.5, Leading zero omitted, Abs format (unit mm)*
G04 Created by KiCad (PCBNEW (5.1.10)-1) date 2021-07-30 10:31:12*
%MOMM*%
%LPD*%
G01*
G04 APERTURE LIST*
%TA.AperFunction,Profile*%
%ADD10C,0.050000*%
%TD*%
%ADD11C,0.200000*%
%ADD12C,0.300000*%
G04 APERTURE END LIST*
D10*
X19500000Y-3250000D02*
X19500000Y-12750000D01*
X9750000Y-3000000D02*
X19250000Y-3000000D01*
X9500000Y-12750000D02*
X9500000Y-3250000D01*
X19250000Y-13000000D02*
X9750000Y-13000000D01*
X9750000Y-13000000D02*
G75*
G02*
X9500000Y-12750000I0J250000D01*
G01*
X9500000Y-3250000D02*
G75*
G02*
X9750000Y-3000000I250000J0D01*
G01*
X19250000Y-3000000D02*
G75*
G02*
X19500000Y-3250000I0J-250000D01*
G01*
X19500000Y-12750000D02*
G75*
G02*
X19250000Y-13000000I-250000J0D01*
G01*
D11*
X11283000Y-8590600D02*
X11323000Y-8630600D01*
X11323000Y-8590600D02*
X11283000Y-8630600D01*
X11283000Y-9936800D02*
X11323000Y-9976800D01*
X11323000Y-9936800D02*
X11283000Y-9976800D01*
X11410000Y-8260400D02*
X11450000Y-8300400D01*
X11450000Y-8260400D02*
X11410000Y-8300400D01*
X11410000Y-9809800D02*
X11450000Y-9849800D01*
X11450000Y-9809800D02*
X11410000Y-9849800D01*
X11410000Y-10190800D02*
X11450000Y-10230800D01*
X11450000Y-10190800D02*
X11410000Y-10230800D01*
X11537000Y-9428800D02*
X11577000Y-9468800D01*
X11577000Y-9428800D02*
X11537000Y-9468800D01*
X11664000Y-8819200D02*
X11704000Y-8859200D01*
X11704000Y-8819200D02*
X11664000Y-8859200D01*
X11791000Y-9022400D02*
X11831000Y-9062400D01*
X11831000Y-9022400D02*
X11791000Y-9062400D01*
X11918000Y-8463600D02*
X11958000Y-8503600D01*
X11958000Y-8463600D02*
X11918000Y-8503600D01*
X12045000Y-8362000D02*
X12085000Y-8402000D01*
X12085000Y-8362000D02*
X12045000Y-8402000D01*
X12502200Y-8920800D02*
X12542200Y-8960800D01*
X12542200Y-8920800D02*
X12502200Y-8960800D01*
X12603800Y-8717600D02*
X12643800Y-8757600D01*
X12643800Y-8717600D02*
X12603800Y-8757600D01*
X12756200Y-6558600D02*
X12796200Y-6598600D01*
X12796200Y-6558600D02*
X12756200Y-6598600D01*
X12832400Y-9352600D02*
X12872400Y-9392600D01*
X12872400Y-9352600D02*
X12832400Y-9392600D01*
X12832400Y-9479600D02*
X12872400Y-9519600D01*
X12872400Y-9479600D02*
X12832400Y-9519600D01*
X12832400Y-9987600D02*
X12872400Y-10027600D01*
X12872400Y-9987600D02*
X12832400Y-10027600D01*
X12959400Y-9860600D02*
X12999400Y-9900600D01*
X12999400Y-9860600D02*
X12959400Y-9900600D01*
X13010200Y-5593400D02*
X13050200Y-5633400D01*
X13050200Y-5593400D02*
X13010200Y-5633400D01*
X13010200Y-7523800D02*
X13050200Y-7563800D01*
X13050200Y-7523800D02*
X13010200Y-7563800D01*
X13264200Y-5136200D02*
X13304200Y-5176200D01*
X13304200Y-5136200D02*
X13264200Y-5176200D01*
X13264200Y-9479600D02*
X13304200Y-9519600D01*
X13304200Y-9479600D02*
X13264200Y-9519600D01*
X13264200Y-11689400D02*
X13304200Y-11729400D01*
X13304200Y-11689400D02*
X13264200Y-11729400D01*
X13365800Y-9606600D02*
X13405800Y-9646600D01*
X13405800Y-9606600D02*
X13365800Y-9646600D01*
X13365800Y-10241600D02*
X13405800Y-10281600D01*
X13405800Y-10241600D02*
X13365800Y-10281600D01*
X13518200Y-4069400D02*
X13558200Y-4109400D01*
X13558200Y-4069400D02*
X13518200Y-4109400D01*
X13518200Y-5034600D02*
X13558200Y-5074600D01*
X13558200Y-5034600D02*
X13518200Y-5074600D01*
X13518200Y-7650800D02*
X13558200Y-7690800D01*
X13558200Y-7650800D02*
X13518200Y-7690800D01*
X13645200Y-11079800D02*
X13685200Y-11119800D01*
X13685200Y-11079800D02*
X13645200Y-11119800D01*
X13696000Y-12222800D02*
X13736000Y-12262800D01*
X13736000Y-12222800D02*
X13696000Y-12262800D01*
X13772200Y-4221800D02*
X13812200Y-4261800D01*
X13812200Y-4221800D02*
X13772200Y-4261800D01*
X13772200Y-7396800D02*
X13812200Y-7436800D01*
X13812200Y-7396800D02*
X13772200Y-7436800D01*
X13899200Y-11359200D02*
X13939200Y-11399200D01*
X13939200Y-11359200D02*
X13899200Y-11399200D01*
X14026200Y-6660200D02*
X14066200Y-6700200D01*
X14066200Y-6660200D02*
X14026200Y-6700200D01*
X14026200Y-7752400D02*
X14066200Y-7792400D01*
X14066200Y-7752400D02*
X14026200Y-7792400D01*
X14026200Y-9733600D02*
X14066200Y-9773600D01*
X14066200Y-9733600D02*
X14026200Y-9773600D01*
X14026200Y-11486200D02*
X14066200Y-11526200D01*
X14066200Y-11486200D02*
X14026200Y-11526200D01*
X14153200Y-9479600D02*
X14193200Y-9519600D01*
X14193200Y-9479600D02*
X14153200Y-9519600D01*
X14153200Y-11257600D02*
X14193200Y-11297600D01*
X14193200Y-11257600D02*
X14153200Y-11297600D01*
X14280200Y-6330000D02*
X14320200Y-6370000D01*
X14320200Y-6330000D02*
X14280200Y-6370000D01*
X14280200Y-7854000D02*
X14320200Y-7894000D01*
X14320200Y-7854000D02*
X14280200Y-7894000D01*
X14280200Y-11587800D02*
X14320200Y-11627800D01*
X14320200Y-11587800D02*
X14280200Y-11627800D01*
X14534200Y-6076000D02*
X14574200Y-6116000D01*
X14574200Y-6076000D02*
X14534200Y-6116000D01*
X14635800Y-7981000D02*
X14675800Y-8021000D01*
X14675800Y-7981000D02*
X14635800Y-8021000D01*
X14788200Y-8260400D02*
X14828200Y-8300400D01*
X14828200Y-8260400D02*
X14788200Y-8300400D01*
X14915200Y-7396800D02*
X14955200Y-7436800D01*
X14955200Y-7396800D02*
X14915200Y-7436800D01*
X15042200Y-5822000D02*
X15082200Y-5862000D01*
X15082200Y-5822000D02*
X15042200Y-5862000D01*
X15093000Y-11587800D02*
X15133000Y-11627800D01*
X15133000Y-11587800D02*
X15093000Y-11627800D01*
X15169200Y-7092000D02*
X15209200Y-7132000D01*
X15209200Y-7092000D02*
X15169200Y-7132000D01*
X15169200Y-8133400D02*
X15209200Y-8173400D01*
X15209200Y-8133400D02*
X15169200Y-8173400D01*
X15220000Y-11486200D02*
X15260000Y-11526200D01*
X15260000Y-11486200D02*
X15220000Y-11526200D01*
X15296200Y-6203000D02*
X15336200Y-6243000D01*
X15336200Y-6203000D02*
X15296200Y-6243000D01*
X15347000Y-11359200D02*
X15387000Y-11399200D01*
X15387000Y-11359200D02*
X15347000Y-11399200D01*
X15347000Y-12222800D02*
X15387000Y-12262800D01*
X15387000Y-12222800D02*
X15347000Y-12262800D01*
X15524800Y-7650800D02*
X15564800Y-7690800D01*
X15564800Y-7650800D02*
X15524800Y-7690800D01*
X15524800Y-10241600D02*
X15564800Y-10281600D01*
X15564800Y-10241600D02*
X15524800Y-10281600D01*
X15550200Y-6457000D02*
X15590200Y-6497000D01*
X15590200Y-6457000D02*
X15550200Y-6497000D01*
X15550200Y-7092000D02*
X15590200Y-7132000D01*
X15590200Y-7092000D02*
X15550200Y-7132000D01*
X15601000Y-11257600D02*
X15641000Y-11297600D01*
X15641000Y-11257600D02*
X15601000Y-11297600D01*
X15677200Y-7523800D02*
X15717200Y-7563800D01*
X15717200Y-7523800D02*
X15677200Y-7563800D01*
X15677200Y-9225600D02*
X15717200Y-9265600D01*
X15717200Y-9225600D02*
X15677200Y-9265600D01*
X15728000Y-11689400D02*
X15768000Y-11729400D01*
X15768000Y-11689400D02*
X15728000Y-11729400D01*
X15804200Y-5949000D02*
X15844200Y-5989000D01*
X15844200Y-5949000D02*
X15804200Y-5989000D01*
X15804200Y-8971600D02*
X15844200Y-9011600D01*
X15844200Y-8971600D02*
X15804200Y-9011600D01*
X15956600Y-9987600D02*
X15996600Y-10027600D01*
X15996600Y-9987600D02*
X15956600Y-10027600D01*
X16058200Y-5695000D02*
X16098200Y-5735000D01*
X16098200Y-5695000D02*
X16058200Y-5735000D01*
X16109000Y-8971600D02*
X16149000Y-9011600D01*
X16149000Y-8971600D02*
X16109000Y-9011600D01*
X16236000Y-8133400D02*
X16276000Y-8173400D01*
X16276000Y-8133400D02*
X16236000Y-8173400D01*
X16312200Y-4933000D02*
X16352200Y-4973000D01*
X16352200Y-4933000D02*
X16312200Y-4973000D01*
X16312200Y-7371400D02*
X16352200Y-7411400D01*
X16352200Y-7371400D02*
X16312200Y-7411400D01*
X16363000Y-8717600D02*
X16403000Y-8757600D01*
X16403000Y-8717600D02*
X16363000Y-8757600D01*
X16490000Y-8463600D02*
X16530000Y-8503600D01*
X16530000Y-8463600D02*
X16490000Y-8503600D01*
X16566200Y-7193600D02*
X16606200Y-7233600D01*
X16606200Y-7193600D02*
X16566200Y-7233600D01*
X16617000Y-8260400D02*
X16657000Y-8300400D01*
X16657000Y-8260400D02*
X16617000Y-8300400D01*
X16744000Y-7981000D02*
X16784000Y-8021000D01*
X16784000Y-7981000D02*
X16744000Y-8021000D01*
X16820200Y-4602800D02*
X16860200Y-4642800D01*
X16860200Y-4602800D02*
X16820200Y-4642800D01*
X16820200Y-7092000D02*
X16860200Y-7132000D01*
X16860200Y-7092000D02*
X16820200Y-7132000D01*
X16871000Y-7854000D02*
X16911000Y-7894000D01*
X16911000Y-7854000D02*
X16871000Y-7894000D01*
X16998000Y-7752400D02*
X17038000Y-7792400D01*
X17038000Y-7752400D02*
X16998000Y-7792400D01*
X17125000Y-9860600D02*
X17165000Y-9900600D01*
X17165000Y-9860600D02*
X17125000Y-9900600D01*
X17201200Y-4247200D02*
X17241200Y-4287200D01*
X17241200Y-4247200D02*
X17201200Y-4287200D01*
X17302800Y-7371400D02*
X17342800Y-7411400D01*
X17342800Y-7371400D02*
X17302800Y-7411400D01*
X17302800Y-10241600D02*
X17342800Y-10281600D01*
X17342800Y-10241600D02*
X17302800Y-10281600D01*
X17480600Y-7193600D02*
X17520600Y-7233600D01*
X17520600Y-7193600D02*
X17480600Y-7233600D01*
X17480600Y-9352600D02*
X17520600Y-9392600D01*
X17520600Y-9352600D02*
X17480600Y-9392600D01*
X17607600Y-5034600D02*
X17647600Y-5074600D01*
X17647600Y-5034600D02*
X17607600Y-5074600D01*
X17607600Y-8489000D02*
X17647600Y-8529000D01*
X17647600Y-8489000D02*
X17607600Y-8529000D01*
X17734600Y-7092000D02*
X17774600Y-7132000D01*
X17774600Y-7092000D02*
X17734600Y-7132000D01*
X17734600Y-9479600D02*
X17774600Y-9519600D01*
X17774600Y-9479600D02*
X17734600Y-9519600D01*
X17912400Y-6584000D02*
X17952400Y-6624000D01*
X17952400Y-6584000D02*
X17912400Y-6624000D01*
X17912400Y-7727000D02*
X17952400Y-7767000D01*
X17952400Y-7727000D02*
X17912400Y-7767000D01*
X18039400Y-6330000D02*
X18079400Y-6370000D01*
X18079400Y-6330000D02*
X18039400Y-6370000D01*
X18039400Y-7473000D02*
X18079400Y-7513000D01*
X18079400Y-7473000D02*
X18039400Y-7513000D01*
X18217200Y-6076000D02*
X18257200Y-6116000D01*
X18257200Y-6076000D02*
X18217200Y-6116000D01*
X18217200Y-7219000D02*
X18257200Y-7259000D01*
X18257200Y-7219000D02*
X18217200Y-7259000D01*
X18344200Y-5822000D02*
X18384200Y-5862000D01*
X18384200Y-5822000D02*
X18344200Y-5862000D01*
X18344200Y-6965000D02*
X18384200Y-7005000D01*
X18384200Y-6965000D02*
X18344200Y-7005000D01*
X18445800Y-4247200D02*
X18485800Y-4287200D01*
X18485800Y-4247200D02*
X18445800Y-4287200D01*
X18445800Y-4933000D02*
X18485800Y-4973000D01*
X18485800Y-4933000D02*
X18445800Y-4973000D01*
X18071500Y-10642600D02*
G75*
G03*
X18071500Y-10642600I-37500J0D01*
G01*
X18198500Y-10515600D02*
G75*
G03*
X18198500Y-10515600I-37500J0D01*
G01*
X18325500Y-10642600D02*
G75*
G03*
X18325500Y-10642600I-37500J0D01*
G01*
X9956800Y-11593200D02*
X9956800Y-11673200D01*
X9916800Y-11633200D02*
X9996800Y-11633200D01*
X10206800Y-11593200D02*
X10206800Y-11673200D01*
X10166800Y-11633200D02*
X10246800Y-11633200D01*
X10236200Y-9154800D02*
X10236200Y-9234800D01*
X10196200Y-9194800D02*
X10276200Y-9194800D01*
X10236200Y-9408800D02*
X10236200Y-9488800D01*
X10196200Y-9448800D02*
X10276200Y-9448800D01*
X10236200Y-9662800D02*
X10236200Y-9742800D01*
X10196200Y-9702800D02*
X10276200Y-9702800D01*
X10236200Y-9916800D02*
X10236200Y-9996800D01*
X10196200Y-9956800D02*
X10276200Y-9956800D01*
X10236200Y-10170800D02*
X10236200Y-10250800D01*
X10196200Y-10210800D02*
X10276200Y-10210800D01*
X10236200Y-10424800D02*
X10236200Y-10504800D01*
X10196200Y-10464800D02*
X10276200Y-10464800D01*
X10236200Y-10678800D02*
X10236200Y-10758800D01*
X10196200Y-10718800D02*
X10276200Y-10718800D01*
X10519600Y-8748400D02*
X10519600Y-8828400D01*
X10479600Y-8788400D02*
X10559600Y-8788400D01*
X10769600Y-8748400D02*
X10769600Y-8828400D01*
X10729600Y-8788400D02*
X10809600Y-8788400D01*
X10998200Y-9154800D02*
X10998200Y-9234800D01*
X10958200Y-9194800D02*
X11038200Y-9194800D01*
X10998200Y-9408800D02*
X10998200Y-9488800D01*
X10958200Y-9448800D02*
X11038200Y-9448800D01*
X10998200Y-9662800D02*
X10998200Y-9742800D01*
X10958200Y-9702800D02*
X11038200Y-9702800D01*
X10998200Y-9916800D02*
X10998200Y-9996800D01*
X10958200Y-9956800D02*
X11038200Y-9956800D01*
X10998200Y-10170800D02*
X10998200Y-10250800D01*
X10958200Y-10210800D02*
X11038200Y-10210800D01*
X10998200Y-10424800D02*
X10998200Y-10504800D01*
X10958200Y-10464800D02*
X11038200Y-10464800D01*
X10998200Y-10678800D02*
X10998200Y-10758800D01*
X10958200Y-10718800D02*
X11038200Y-10718800D01*
X11455400Y-3795400D02*
X11455400Y-3875400D01*
X11415400Y-3835400D02*
X11495400Y-3835400D01*
X11705400Y-3795400D02*
X11705400Y-3875400D01*
X11665400Y-3835400D02*
X11745400Y-3835400D01*
X12192000Y-5501200D02*
X12192000Y-5581200D01*
X12152000Y-5541200D02*
X12232000Y-5541200D01*
X12192000Y-5751200D02*
X12192000Y-5831200D01*
X12152000Y-5791200D02*
X12232000Y-5791200D01*
X12192000Y-6517200D02*
X12192000Y-6597200D01*
X12152000Y-6557200D02*
X12232000Y-6557200D01*
X12192000Y-6767200D02*
X12192000Y-6847200D01*
X12152000Y-6807200D02*
X12232000Y-6807200D01*
X12522200Y-4455800D02*
X12522200Y-4535800D01*
X12482200Y-4495800D02*
X12562200Y-4495800D01*
X12522200Y-5319400D02*
X12522200Y-5399400D01*
X12482200Y-5359400D02*
X12562200Y-5359400D01*
X12522200Y-6843400D02*
X12522200Y-6923400D01*
X12482200Y-6883400D02*
X12562200Y-6883400D01*
X12776200Y-4455800D02*
X12776200Y-4535800D01*
X12736200Y-4495800D02*
X12816200Y-4495800D01*
X12776200Y-5319400D02*
X12776200Y-5399400D01*
X12736200Y-5359400D02*
X12816200Y-5359400D01*
X12776200Y-6843400D02*
X12776200Y-6923400D01*
X12736200Y-6883400D02*
X12816200Y-6883400D01*
X13030200Y-4455800D02*
X13030200Y-4535800D01*
X12990200Y-4495800D02*
X13070200Y-4495800D01*
X13030200Y-5319400D02*
X13030200Y-5399400D01*
X12990200Y-5359400D02*
X13070200Y-5359400D01*
X13030200Y-6843400D02*
X13030200Y-6923400D01*
X12990200Y-6883400D02*
X13070200Y-6883400D01*
X13284200Y-4455800D02*
X13284200Y-4535800D01*
X13244200Y-4495800D02*
X13324200Y-4495800D01*
X13284200Y-5319400D02*
X13284200Y-5399400D01*
X13244200Y-5359400D02*
X13324200Y-5359400D01*
X13284200Y-6843400D02*
X13284200Y-6923400D01*
X13244200Y-6883400D02*
X13324200Y-6883400D01*
X13538200Y-4455800D02*
X13538200Y-4535800D01*
X13498200Y-4495800D02*
X13578200Y-4495800D01*
X13538200Y-5319400D02*
X13538200Y-5399400D01*
X13498200Y-5359400D02*
X13578200Y-5359400D01*
X13538200Y-6843400D02*
X13538200Y-6923400D01*
X13498200Y-6883400D02*
X13578200Y-6883400D01*
X13538200Y-8697600D02*
X13538200Y-8777600D01*
X13498200Y-8737600D02*
X13578200Y-8737600D01*
X13538200Y-8951600D02*
X13538200Y-9031600D01*
X13498200Y-8991600D02*
X13578200Y-8991600D01*
X13538200Y-9205600D02*
X13538200Y-9285600D01*
X13498200Y-9245600D02*
X13578200Y-9245600D01*
X13538200Y-9459600D02*
X13538200Y-9539600D01*
X13498200Y-9499600D02*
X13578200Y-9499600D01*
X13538200Y-9713600D02*
X13538200Y-9793600D01*
X13498200Y-9753600D02*
X13578200Y-9753600D01*
X13538200Y-9967600D02*
X13538200Y-10047600D01*
X13498200Y-10007600D02*
X13578200Y-10007600D01*
X13593000Y-7961000D02*
X13593000Y-8041000D01*
X13553000Y-8001000D02*
X13633000Y-8001000D01*
X13792200Y-4455800D02*
X13792200Y-4535800D01*
X13752200Y-4495800D02*
X13832200Y-4495800D01*
X13792200Y-5319400D02*
X13792200Y-5399400D01*
X13752200Y-5359400D02*
X13832200Y-5359400D01*
X13792200Y-6843400D02*
X13792200Y-6923400D01*
X13752200Y-6883400D02*
X13832200Y-6883400D01*
X13792200Y-8443600D02*
X13792200Y-8523600D01*
X13752200Y-8483600D02*
X13832200Y-8483600D01*
X13792200Y-8697600D02*
X13792200Y-8777600D01*
X13752200Y-8737600D02*
X13832200Y-8737600D01*
X13792200Y-8951600D02*
X13792200Y-9031600D01*
X13752200Y-8991600D02*
X13832200Y-8991600D01*
X13792200Y-9205600D02*
X13792200Y-9285600D01*
X13752200Y-9245600D02*
X13832200Y-9245600D01*
X13792200Y-9459600D02*
X13792200Y-9539600D01*
X13752200Y-9499600D02*
X13832200Y-9499600D01*
X13792200Y-9713600D02*
X13792200Y-9793600D01*
X13752200Y-9753600D02*
X13832200Y-9753600D01*
X13792200Y-9967600D02*
X13792200Y-10047600D01*
X13752200Y-10007600D02*
X13832200Y-10007600D01*
X13792200Y-10221600D02*
X13792200Y-10301600D01*
X13752200Y-10261600D02*
X13832200Y-10261600D01*
X13843000Y-7961000D02*
X13843000Y-8041000D01*
X13803000Y-8001000D02*
X13883000Y-8001000D01*
X14046200Y-4455800D02*
X14046200Y-4535800D01*
X14006200Y-4495800D02*
X14086200Y-4495800D01*
X14046200Y-5319400D02*
X14046200Y-5399400D01*
X14006200Y-5359400D02*
X14086200Y-5359400D01*
X14046200Y-6843400D02*
X14046200Y-6923400D01*
X14006200Y-6883400D02*
X14086200Y-6883400D01*
X14046200Y-8443600D02*
X14046200Y-8523600D01*
X14006200Y-8483600D02*
X14086200Y-8483600D01*
X14046200Y-8697600D02*
X14046200Y-8777600D01*
X14006200Y-8737600D02*
X14086200Y-8737600D01*
X14046200Y-9967600D02*
X14046200Y-10047600D01*
X14006200Y-10007600D02*
X14086200Y-10007600D01*
X14046200Y-10221600D02*
X14046200Y-10301600D01*
X14006200Y-10261600D02*
X14086200Y-10261600D01*
X14300200Y-4455800D02*
X14300200Y-4535800D01*
X14260200Y-4495800D02*
X14340200Y-4495800D01*
X14300200Y-5319400D02*
X14300200Y-5399400D01*
X14260200Y-5359400D02*
X14340200Y-5359400D01*
X14300200Y-6843400D02*
X14300200Y-6923400D01*
X14260200Y-6883400D02*
X14340200Y-6883400D01*
X14300200Y-8443600D02*
X14300200Y-8523600D01*
X14260200Y-8483600D02*
X14340200Y-8483600D01*
X14300200Y-8697600D02*
X14300200Y-8777600D01*
X14260200Y-8737600D02*
X14340200Y-8737600D01*
X14300200Y-9967600D02*
X14300200Y-10047600D01*
X14260200Y-10007600D02*
X14340200Y-10007600D01*
X14300200Y-10221600D02*
X14300200Y-10301600D01*
X14260200Y-10261600D02*
X14340200Y-10261600D01*
X14554200Y-4455800D02*
X14554200Y-4535800D01*
X14514200Y-4495800D02*
X14594200Y-4495800D01*
X14554200Y-5319400D02*
X14554200Y-5399400D01*
X14514200Y-5359400D02*
X14594200Y-5359400D01*
X14554200Y-6843400D02*
X14554200Y-6923400D01*
X14514200Y-6883400D02*
X14594200Y-6883400D01*
X14554200Y-8443600D02*
X14554200Y-8523600D01*
X14514200Y-8483600D02*
X14594200Y-8483600D01*
X14554200Y-8697600D02*
X14554200Y-8777600D01*
X14514200Y-8737600D02*
X14594200Y-8737600D01*
X14554200Y-9967600D02*
X14554200Y-10047600D01*
X14514200Y-10007600D02*
X14594200Y-10007600D01*
X14554200Y-10221600D02*
X14554200Y-10301600D01*
X14514200Y-10261600D02*
X14594200Y-10261600D01*
X14710600Y-10678800D02*
X14710600Y-10758800D01*
X14670600Y-10718800D02*
X14750600Y-10718800D01*
X14808200Y-5319400D02*
X14808200Y-5399400D01*
X14768200Y-5359400D02*
X14848200Y-5359400D01*
X14808200Y-6843400D02*
X14808200Y-6923400D01*
X14768200Y-6883400D02*
X14848200Y-6883400D01*
X14808200Y-8443600D02*
X14808200Y-8523600D01*
X14768200Y-8483600D02*
X14848200Y-8483600D01*
X14808200Y-8697600D02*
X14808200Y-8777600D01*
X14768200Y-8737600D02*
X14848200Y-8737600D01*
X14808200Y-9967600D02*
X14808200Y-10047600D01*
X14768200Y-10007600D02*
X14848200Y-10007600D01*
X14808200Y-10221600D02*
X14808200Y-10301600D01*
X14768200Y-10261600D02*
X14848200Y-10261600D01*
X14960600Y-10678800D02*
X14960600Y-10758800D01*
X14920600Y-10718800D02*
X15000600Y-10718800D01*
X15062200Y-5319400D02*
X15062200Y-5399400D01*
X15022200Y-5359400D02*
X15102200Y-5359400D01*
X15062200Y-6843400D02*
X15062200Y-6923400D01*
X15022200Y-6883400D02*
X15102200Y-6883400D01*
X15062200Y-8443600D02*
X15062200Y-8523600D01*
X15022200Y-8483600D02*
X15102200Y-8483600D01*
X15062200Y-8697600D02*
X15062200Y-8777600D01*
X15022200Y-8737600D02*
X15102200Y-8737600D01*
X15062200Y-8951600D02*
X15062200Y-9031600D01*
X15022200Y-8991600D02*
X15102200Y-8991600D01*
X15062200Y-9205600D02*
X15062200Y-9285600D01*
X15022200Y-9245600D02*
X15102200Y-9245600D01*
X15062200Y-9459600D02*
X15062200Y-9539600D01*
X15022200Y-9499600D02*
X15102200Y-9499600D01*
X15062200Y-9713600D02*
X15062200Y-9793600D01*
X15022200Y-9753600D02*
X15102200Y-9753600D01*
X15062200Y-9967600D02*
X15062200Y-10047600D01*
X15022200Y-10007600D02*
X15102200Y-10007600D01*
X15062200Y-10221600D02*
X15062200Y-10301600D01*
X15022200Y-10261600D02*
X15102200Y-10261600D01*
X15316200Y-5319400D02*
X15316200Y-5399400D01*
X15276200Y-5359400D02*
X15356200Y-5359400D01*
X15316200Y-6843400D02*
X15316200Y-6923400D01*
X15276200Y-6883400D02*
X15356200Y-6883400D01*
X15316200Y-8697600D02*
X15316200Y-8777600D01*
X15276200Y-8737600D02*
X15356200Y-8737600D01*
X15316200Y-8951600D02*
X15316200Y-9031600D01*
X15276200Y-8991600D02*
X15356200Y-8991600D01*
X15316200Y-9205600D02*
X15316200Y-9285600D01*
X15276200Y-9245600D02*
X15356200Y-9245600D01*
X15316200Y-9459600D02*
X15316200Y-9539600D01*
X15276200Y-9499600D02*
X15356200Y-9499600D01*
X15316200Y-9713600D02*
X15316200Y-9793600D01*
X15276200Y-9753600D02*
X15356200Y-9753600D01*
X15316200Y-9967600D02*
X15316200Y-10047600D01*
X15276200Y-10007600D02*
X15356200Y-10007600D01*
X15570200Y-5319400D02*
X15570200Y-5399400D01*
X15530200Y-5359400D02*
X15610200Y-5359400D01*
X15570200Y-6843400D02*
X15570200Y-6923400D01*
X15530200Y-6883400D02*
X15610200Y-6883400D01*
X15824200Y-5319400D02*
X15824200Y-5399400D01*
X15784200Y-5359400D02*
X15864200Y-5359400D01*
X15824200Y-6843400D02*
X15824200Y-6923400D01*
X15784200Y-6883400D02*
X15864200Y-6883400D01*
X16078200Y-5319400D02*
X16078200Y-5399400D01*
X16038200Y-5359400D02*
X16118200Y-5359400D01*
X16078200Y-6843400D02*
X16078200Y-6923400D01*
X16038200Y-6883400D02*
X16118200Y-6883400D01*
X16281400Y-3820800D02*
X16281400Y-3900800D01*
X16241400Y-3860800D02*
X16321400Y-3860800D01*
X16281400Y-4582800D02*
X16281400Y-4662800D01*
X16241400Y-4622800D02*
X16321400Y-4622800D01*
X16332200Y-5319400D02*
X16332200Y-5399400D01*
X16292200Y-5359400D02*
X16372200Y-5359400D01*
X16332200Y-6843400D02*
X16332200Y-6923400D01*
X16292200Y-6883400D02*
X16372200Y-6883400D01*
X16586200Y-5319400D02*
X16586200Y-5399400D01*
X16546200Y-5359400D02*
X16626200Y-5359400D01*
X16586200Y-6843400D02*
X16586200Y-6923400D01*
X16546200Y-6883400D02*
X16626200Y-6883400D01*
X16840200Y-5319400D02*
X16840200Y-5399400D01*
X16800200Y-5359400D02*
X16880200Y-5359400D01*
X16840200Y-6843400D02*
X16840200Y-6923400D01*
X16800200Y-6883400D02*
X16880200Y-6883400D01*
X17094200Y-5319400D02*
X17094200Y-5399400D01*
X17054200Y-5359400D02*
X17134200Y-5359400D01*
X17094200Y-6843400D02*
X17094200Y-6923400D01*
X17054200Y-6883400D02*
X17134200Y-6883400D01*
X17297400Y-11085200D02*
X17297400Y-11165200D01*
X17257400Y-11125200D02*
X17337400Y-11125200D01*
X17297400Y-11466200D02*
X17297400Y-11546200D01*
X17257400Y-11506200D02*
X17337400Y-11506200D01*
X17326800Y-10577200D02*
X17326800Y-10657200D01*
X17286800Y-10617200D02*
X17366800Y-10617200D01*
X17348200Y-5319400D02*
X17348200Y-5399400D01*
X17308200Y-5359400D02*
X17388200Y-5359400D01*
X17348200Y-6843400D02*
X17348200Y-6923400D01*
X17308200Y-6883400D02*
X17388200Y-6883400D01*
X17576800Y-10577200D02*
X17576800Y-10657200D01*
X17536800Y-10617200D02*
X17616800Y-10617200D01*
X17805400Y-3820800D02*
X17805400Y-3900800D01*
X17765400Y-3860800D02*
X17845400Y-3860800D01*
X17805400Y-4582800D02*
X17805400Y-4662800D01*
X17765400Y-4622800D02*
X17845400Y-4622800D01*
X18313400Y-11085200D02*
X18313400Y-11165200D01*
X18273400Y-11125200D02*
X18353400Y-11125200D01*
X18313400Y-11466200D02*
X18313400Y-11546200D01*
X18273400Y-11506200D02*
X18353400Y-11506200D01*
X18853220Y-11157020D02*
X18853220Y-11093380D01*
X18789580Y-11093380D01*
X18789580Y-11157020D01*
X18853220Y-11157020D01*
X19107220Y-11157020D02*
X19107220Y-11093380D01*
X19043580Y-11093380D01*
X19043580Y-11157020D01*
X19107220Y-11157020D01*
X10541000Y-12013400D02*
X10591000Y-11963400D01*
X10541000Y-11913400D01*
X10491000Y-11963400D01*
X10541000Y-12013400D01*
X10541000Y-12521400D02*
X10591000Y-12471400D01*
X10541000Y-12421400D01*
X10491000Y-12471400D01*
X10541000Y-12521400D01*
X10795000Y-12013400D02*
X10845000Y-11963400D01*
X10795000Y-11913400D01*
X10745000Y-11963400D01*
X10795000Y-12013400D01*
X10795000Y-12521400D02*
X10845000Y-12471400D01*
X10795000Y-12421400D01*
X10745000Y-12471400D01*
X10795000Y-12521400D01*
X11049000Y-12013400D02*
X11099000Y-11963400D01*
X11049000Y-11913400D01*
X10999000Y-11963400D01*
X11049000Y-12013400D01*
X11049000Y-12521400D02*
X11099000Y-12471400D01*
X11049000Y-12421400D01*
X10999000Y-12471400D01*
X11049000Y-12521400D01*
X11303000Y-12013400D02*
X11353000Y-11963400D01*
X11303000Y-11913400D01*
X11253000Y-11963400D01*
X11303000Y-12013400D01*
X11303000Y-12521400D02*
X11353000Y-12471400D01*
X11303000Y-12421400D01*
X11253000Y-12471400D01*
X11303000Y-12521400D01*
X11557000Y-12013400D02*
X11607000Y-11963400D01*
X11557000Y-11913400D01*
X11507000Y-11963400D01*
X11557000Y-12013400D01*
X11557000Y-12521400D02*
X11607000Y-12471400D01*
X11557000Y-12421400D01*
X11507000Y-12471400D01*
X11557000Y-12521400D01*
X11811000Y-12013400D02*
X11861000Y-11963400D01*
X11811000Y-11913400D01*
X11761000Y-11963400D01*
X11811000Y-12013400D01*
X11811000Y-12521400D02*
X11861000Y-12471400D01*
X11811000Y-12421400D01*
X11761000Y-12471400D01*
X11811000Y-12521400D01*
X12065000Y-12013400D02*
X12115000Y-11963400D01*
X12065000Y-11913400D01*
X12015000Y-11963400D01*
X12065000Y-12013400D01*
X12065000Y-12521400D02*
X12115000Y-12471400D01*
X12065000Y-12421400D01*
X12015000Y-12471400D01*
X12065000Y-12521400D01*
X12293600Y-9295600D02*
X12343600Y-9245600D01*
X12293600Y-9195600D01*
X12243600Y-9245600D01*
X12293600Y-9295600D01*
X12293600Y-9549600D02*
X12343600Y-9499600D01*
X12293600Y-9449600D01*
X12243600Y-9499600D01*
X12293600Y-9549600D01*
X12293600Y-9803600D02*
X12343600Y-9753600D01*
X12293600Y-9703600D01*
X12243600Y-9753600D01*
X12293600Y-9803600D01*
X12293600Y-10057600D02*
X12343600Y-10007600D01*
X12293600Y-9957600D01*
X12243600Y-10007600D01*
X12293600Y-10057600D01*
X12293600Y-10311600D02*
X12343600Y-10261600D01*
X12293600Y-10211600D01*
X12243600Y-10261600D01*
X12293600Y-10311600D01*
X12293600Y-10565600D02*
X12343600Y-10515600D01*
X12293600Y-10465600D01*
X12243600Y-10515600D01*
X12293600Y-10565600D01*
X12319000Y-12013400D02*
X12369000Y-11963400D01*
X12319000Y-11913400D01*
X12269000Y-11963400D01*
X12319000Y-12013400D01*
X12319000Y-12521400D02*
X12369000Y-12471400D01*
X12319000Y-12421400D01*
X12269000Y-12471400D01*
X12319000Y-12521400D01*
X12573000Y-12013400D02*
X12623000Y-11963400D01*
X12573000Y-11913400D01*
X12523000Y-11963400D01*
X12573000Y-12013400D01*
X12573000Y-12521400D02*
X12623000Y-12471400D01*
X12573000Y-12421400D01*
X12523000Y-12471400D01*
X12573000Y-12521400D01*
X12827000Y-12013400D02*
X12877000Y-11963400D01*
X12827000Y-11913400D01*
X12777000Y-11963400D01*
X12827000Y-12013400D01*
X12827000Y-12521400D02*
X12877000Y-12471400D01*
X12827000Y-12421400D01*
X12777000Y-12471400D01*
X12827000Y-12521400D01*
X13081000Y-12013400D02*
X13131000Y-11963400D01*
X13081000Y-11913400D01*
X13031000Y-11963400D01*
X13081000Y-12013400D01*
X13081000Y-12521400D02*
X13131000Y-12471400D01*
X13081000Y-12421400D01*
X13031000Y-12471400D01*
X13081000Y-12521400D01*
X13335000Y-12013400D02*
X13385000Y-11963400D01*
X13335000Y-11913400D01*
X13285000Y-11963400D01*
X13335000Y-12013400D01*
X13335000Y-12521400D02*
X13385000Y-12471400D01*
X13335000Y-12421400D01*
X13285000Y-12471400D01*
X13335000Y-12521400D01*
X13589000Y-12013400D02*
X13639000Y-11963400D01*
X13589000Y-11913400D01*
X13539000Y-11963400D01*
X13589000Y-12013400D01*
X13589000Y-12521400D02*
X13639000Y-12471400D01*
X13589000Y-12421400D01*
X13539000Y-12471400D01*
X13589000Y-12521400D01*
X13843000Y-12013400D02*
X13893000Y-11963400D01*
X13843000Y-11913400D01*
X13793000Y-11963400D01*
X13843000Y-12013400D01*
X13843000Y-12521400D02*
X13893000Y-12471400D01*
X13843000Y-12421400D01*
X13793000Y-12471400D01*
X13843000Y-12521400D01*
X14097000Y-12013400D02*
X14147000Y-11963400D01*
X14097000Y-11913400D01*
X14047000Y-11963400D01*
X14097000Y-12013400D01*
X14097000Y-12521400D02*
X14147000Y-12471400D01*
X14097000Y-12421400D01*
X14047000Y-12471400D01*
X14097000Y-12521400D01*
X14351000Y-12013400D02*
X14401000Y-11963400D01*
X14351000Y-11913400D01*
X14301000Y-11963400D01*
X14351000Y-12013400D01*
X14351000Y-12521400D02*
X14401000Y-12471400D01*
X14351000Y-12421400D01*
X14301000Y-12471400D01*
X14351000Y-12521400D01*
X14605000Y-12013400D02*
X14655000Y-11963400D01*
X14605000Y-11913400D01*
X14555000Y-11963400D01*
X14605000Y-12013400D01*
X14605000Y-12521400D02*
X14655000Y-12471400D01*
X14605000Y-12421400D01*
X14555000Y-12471400D01*
X14605000Y-12521400D01*
X14859000Y-12013400D02*
X14909000Y-11963400D01*
X14859000Y-11913400D01*
X14809000Y-11963400D01*
X14859000Y-12013400D01*
X14859000Y-12521400D02*
X14909000Y-12471400D01*
X14859000Y-12421400D01*
X14809000Y-12471400D01*
X14859000Y-12521400D01*
X15113000Y-12013400D02*
X15163000Y-11963400D01*
X15113000Y-11913400D01*
X15063000Y-11963400D01*
X15113000Y-12013400D01*
X15113000Y-12521400D02*
X15163000Y-12471400D01*
X15113000Y-12421400D01*
X15063000Y-12471400D01*
X15113000Y-12521400D01*
X15367000Y-12013400D02*
X15417000Y-11963400D01*
X15367000Y-11913400D01*
X15317000Y-11963400D01*
X15367000Y-12013400D01*
X15367000Y-12521400D02*
X15417000Y-12471400D01*
X15367000Y-12421400D01*
X15317000Y-12471400D01*
X15367000Y-12521400D01*
X15621000Y-12013400D02*
X15671000Y-11963400D01*
X15621000Y-11913400D01*
X15571000Y-11963400D01*
X15621000Y-12013400D01*
X15621000Y-12521400D02*
X15671000Y-12471400D01*
X15621000Y-12421400D01*
X15571000Y-12471400D01*
X15621000Y-12521400D01*
X15875000Y-12013400D02*
X15925000Y-11963400D01*
X15875000Y-11913400D01*
X15825000Y-11963400D01*
X15875000Y-12013400D01*
X15875000Y-12521400D02*
X15925000Y-12471400D01*
X15875000Y-12421400D01*
X15825000Y-12471400D01*
X15875000Y-12521400D01*
X16129000Y-12013400D02*
X16179000Y-11963400D01*
X16129000Y-11913400D01*
X16079000Y-11963400D01*
X16129000Y-12013400D01*
X16129000Y-12521400D02*
X16179000Y-12471400D01*
X16129000Y-12421400D01*
X16079000Y-12471400D01*
X16129000Y-12521400D01*
X16383000Y-12013400D02*
X16433000Y-11963400D01*
X16383000Y-11913400D01*
X16333000Y-11963400D01*
X16383000Y-12013400D01*
X16383000Y-12521400D02*
X16433000Y-12471400D01*
X16383000Y-12421400D01*
X16333000Y-12471400D01*
X16383000Y-12521400D01*
X16637000Y-12013400D02*
X16687000Y-11963400D01*
X16637000Y-11913400D01*
X16587000Y-11963400D01*
X16637000Y-12013400D01*
X16637000Y-12521400D02*
X16687000Y-12471400D01*
X16637000Y-12421400D01*
X16587000Y-12471400D01*
X16637000Y-12521400D01*
X16891000Y-12013400D02*
X16941000Y-11963400D01*
X16891000Y-11913400D01*
X16841000Y-11963400D01*
X16891000Y-12013400D01*
X16891000Y-12521400D02*
X16941000Y-12471400D01*
X16891000Y-12421400D01*
X16841000Y-12471400D01*
X16891000Y-12521400D01*
X17145000Y-12013400D02*
X17195000Y-11963400D01*
X17145000Y-11913400D01*
X17095000Y-11963400D01*
X17145000Y-12013400D01*
X17145000Y-12521400D02*
X17195000Y-12471400D01*
X17145000Y-12421400D01*
X17095000Y-12471400D01*
X17145000Y-12521400D01*
X17399000Y-12013400D02*
X17449000Y-11963400D01*
X17399000Y-11913400D01*
X17349000Y-11963400D01*
X17399000Y-12013400D01*
X17399000Y-12521400D02*
X17449000Y-12471400D01*
X17399000Y-12421400D01*
X17349000Y-12471400D01*
X17399000Y-12521400D01*
X17653000Y-12013400D02*
X17703000Y-11963400D01*
X17653000Y-11913400D01*
X17603000Y-11963400D01*
X17653000Y-12013400D01*
X17653000Y-12521400D02*
X17703000Y-12471400D01*
X17653000Y-12421400D01*
X17603000Y-12471400D01*
X17653000Y-12521400D01*
X17907000Y-12013400D02*
X17957000Y-11963400D01*
X17907000Y-11913400D01*
X17857000Y-11963400D01*
X17907000Y-12013400D01*
X17907000Y-12521400D02*
X17957000Y-12471400D01*
X17907000Y-12421400D01*
X17857000Y-12471400D01*
X17907000Y-12521400D01*
X18161000Y-12013400D02*
X18211000Y-11963400D01*
X18161000Y-11913400D01*
X18111000Y-11963400D01*
X18161000Y-12013400D01*
X18161000Y-12521400D02*
X18211000Y-12471400D01*
X18161000Y-12421400D01*
X18111000Y-12471400D01*
X18161000Y-12521400D01*
X18415000Y-12013400D02*
X18465000Y-11963400D01*
X18415000Y-11913400D01*
X18365000Y-11963400D01*
X18415000Y-12013400D01*
X18415000Y-12521400D02*
X18465000Y-12471400D01*
X18415000Y-12421400D01*
X18365000Y-12471400D01*
X18415000Y-12521400D01*
X18770600Y-4495000D02*
X18820600Y-4445000D01*
X18770600Y-4395000D01*
X18720600Y-4445000D01*
X18770600Y-4495000D01*
X18770600Y-4749000D02*
X18820600Y-4699000D01*
X18770600Y-4649000D01*
X18720600Y-4699000D01*
X18770600Y-4749000D01*
X18770600Y-5003000D02*
X18820600Y-4953000D01*
X18770600Y-4903000D01*
X18720600Y-4953000D01*
X18770600Y-5003000D01*
X18770600Y-5257000D02*
X18820600Y-5207000D01*
X18770600Y-5157000D01*
X18720600Y-5207000D01*
X18770600Y-5257000D01*
X18770600Y-5511000D02*
X18820600Y-5461000D01*
X18770600Y-5411000D01*
X18720600Y-5461000D01*
X18770600Y-5511000D01*
X18770600Y-5765000D02*
X18820600Y-5715000D01*
X18770600Y-5665000D01*
X18720600Y-5715000D01*
X18770600Y-5765000D01*
X18770600Y-6019000D02*
X18820600Y-5969000D01*
X18770600Y-5919000D01*
X18720600Y-5969000D01*
X18770600Y-6019000D01*
X18770600Y-6273000D02*
X18820600Y-6223000D01*
X18770600Y-6173000D01*
X18720600Y-6223000D01*
X18770600Y-6273000D01*
X18770600Y-6527000D02*
X18820600Y-6477000D01*
X18770600Y-6427000D01*
X18720600Y-6477000D01*
X18770600Y-6527000D01*
X18770600Y-6781000D02*
X18820600Y-6731000D01*
X18770600Y-6681000D01*
X18720600Y-6731000D01*
X18770600Y-6781000D01*
X18770600Y-7035000D02*
X18820600Y-6985000D01*
X18770600Y-6935000D01*
X18720600Y-6985000D01*
X18770600Y-7035000D01*
X18770600Y-7289000D02*
X18820600Y-7239000D01*
X18770600Y-7189000D01*
X18720600Y-7239000D01*
X18770600Y-7289000D01*
X18770600Y-7543000D02*
X18820600Y-7493000D01*
X18770600Y-7443000D01*
X18720600Y-7493000D01*
X18770600Y-7543000D01*
X18770600Y-7797000D02*
X18820600Y-7747000D01*
X18770600Y-7697000D01*
X18720600Y-7747000D01*
X18770600Y-7797000D01*
X18770600Y-8051000D02*
X18820600Y-8001000D01*
X18770600Y-7951000D01*
X18720600Y-8001000D01*
X18770600Y-8051000D01*
X18770600Y-8305000D02*
X18820600Y-8255000D01*
X18770600Y-8205000D01*
X18720600Y-8255000D01*
X18770600Y-8305000D01*
X18770600Y-8559000D02*
X18820600Y-8509000D01*
X18770600Y-8459000D01*
X18720600Y-8509000D01*
X18770600Y-8559000D01*
X19024600Y-4495000D02*
X19074600Y-4445000D01*
X19024600Y-4395000D01*
X18974600Y-4445000D01*
X19024600Y-4495000D01*
X19024600Y-4749000D02*
X19074600Y-4699000D01*
X19024600Y-4649000D01*
X18974600Y-4699000D01*
X19024600Y-4749000D01*
X19024600Y-5003000D02*
X19074600Y-4953000D01*
X19024600Y-4903000D01*
X18974600Y-4953000D01*
X19024600Y-5003000D01*
X19024600Y-5257000D02*
X19074600Y-5207000D01*
X19024600Y-5157000D01*
X18974600Y-5207000D01*
X19024600Y-5257000D01*
X19024600Y-5511000D02*
X19074600Y-5461000D01*
X19024600Y-5411000D01*
X18974600Y-5461000D01*
X19024600Y-5511000D01*
X19024600Y-5765000D02*
X19074600Y-5715000D01*
X19024600Y-5665000D01*
X18974600Y-5715000D01*
X19024600Y-5765000D01*
X19024600Y-6019000D02*
X19074600Y-5969000D01*
X19024600Y-5919000D01*
X18974600Y-5969000D01*
X19024600Y-6019000D01*
X19024600Y-6273000D02*
X19074600Y-6223000D01*
X19024600Y-6173000D01*
X18974600Y-6223000D01*
X19024600Y-6273000D01*
X19024600Y-6527000D02*
X19074600Y-6477000D01*
X19024600Y-6427000D01*
X18974600Y-6477000D01*
X19024600Y-6527000D01*
X19024600Y-6781000D02*
X19074600Y-6731000D01*
X19024600Y-6681000D01*
X18974600Y-6731000D01*
X19024600Y-6781000D01*
X19024600Y-7035000D02*
X19074600Y-6985000D01*
X19024600Y-6935000D01*
X18974600Y-6985000D01*
X19024600Y-7035000D01*
X19024600Y-7289000D02*
X19074600Y-7239000D01*
X19024600Y-7189000D01*
X18974600Y-7239000D01*
X19024600Y-7289000D01*
X19024600Y-7543000D02*
X19074600Y-7493000D01*
X19024600Y-7443000D01*
X18974600Y-7493000D01*
X19024600Y-7543000D01*
X19024600Y-7797000D02*
X19074600Y-7747000D01*
X19024600Y-7697000D01*
X18974600Y-7747000D01*
X19024600Y-7797000D01*
X19024600Y-8051000D02*
X19074600Y-8001000D01*
X19024600Y-7951000D01*
X18974600Y-8001000D01*
X19024600Y-8051000D01*
X19024600Y-8305000D02*
X19074600Y-8255000D01*
X19024600Y-8205000D01*
X18974600Y-8255000D01*
X19024600Y-8305000D01*
X19024600Y-8559000D02*
X19074600Y-8509000D01*
X19024600Y-8459000D01*
X18974600Y-8509000D01*
X19024600Y-8559000D01*
X10401200Y-3848000D02*
X10579200Y-4026000D01*
X10579200Y-3848000D02*
X10401200Y-4026000D01*
X10579200Y-3937000D02*
G75*
G03*
X10579200Y-3937000I-89000J0D01*
G01*
X10401200Y-4356000D02*
X10579200Y-4534000D01*
X10579200Y-4356000D02*
X10401200Y-4534000D01*
X10579200Y-4445000D02*
G75*
G03*
X10579200Y-4445000I-89000J0D01*
G01*
X10401200Y-4864000D02*
X10579200Y-5042000D01*
X10579200Y-4864000D02*
X10401200Y-5042000D01*
X10579200Y-4953000D02*
G75*
G03*
X10579200Y-4953000I-89000J0D01*
G01*
X10401200Y-5372000D02*
X10579200Y-5550000D01*
X10579200Y-5372000D02*
X10401200Y-5550000D01*
X10579200Y-5461000D02*
G75*
G03*
X10579200Y-5461000I-89000J0D01*
G01*
D12*
X9783928Y-13468214D02*
X9783928Y-13168214D01*
X9855357Y-13168214D01*
X9898214Y-13182500D01*
X9926786Y-13211071D01*
X9941071Y-13239643D01*
X9955357Y-13296786D01*
X9955357Y-13339643D01*
X9941071Y-13396786D01*
X9926786Y-13425357D01*
X9898214Y-13453929D01*
X9855357Y-13468214D01*
X9783928Y-13468214D01*
X10083928Y-13468214D02*
X10083928Y-13268214D01*
X10083928Y-13325357D02*
X10098214Y-13296786D01*
X10112500Y-13282500D01*
X10141071Y-13268214D01*
X10169643Y-13268214D01*
X10269643Y-13468214D02*
X10269643Y-13268214D01*
X10269643Y-13168214D02*
X10255357Y-13182500D01*
X10269643Y-13196786D01*
X10283928Y-13182500D01*
X10269643Y-13168214D01*
X10269643Y-13196786D01*
X10455357Y-13468214D02*
X10426786Y-13453929D01*
X10412500Y-13425357D01*
X10412500Y-13168214D01*
X10612500Y-13468214D02*
X10583928Y-13453929D01*
X10569643Y-13425357D01*
X10569643Y-13168214D01*
X10955357Y-13468214D02*
X10955357Y-13168214D01*
X11055357Y-13382500D01*
X11155357Y-13168214D01*
X11155357Y-13468214D01*
X11426786Y-13468214D02*
X11426786Y-13311071D01*
X11412500Y-13282500D01*
X11383928Y-13268214D01*
X11326786Y-13268214D01*
X11298214Y-13282500D01*
X11426786Y-13453929D02*
X11398214Y-13468214D01*
X11326786Y-13468214D01*
X11298214Y-13453929D01*
X11283928Y-13425357D01*
X11283928Y-13396786D01*
X11298214Y-13368214D01*
X11326786Y-13353929D01*
X11398214Y-13353929D01*
X11426786Y-13339643D01*
X11569643Y-13268214D02*
X11569643Y-13568214D01*
X11569643Y-13282500D02*
X11598214Y-13268214D01*
X11655357Y-13268214D01*
X11683928Y-13282500D01*
X11698214Y-13296786D01*
X11712500Y-13325357D01*
X11712500Y-13411071D01*
X11698214Y-13439643D01*
X11683928Y-13453929D01*
X11655357Y-13468214D01*
X11598214Y-13468214D01*
X11569643Y-13453929D01*
X11841071Y-13439643D02*
X11855357Y-13453929D01*
X11841071Y-13468214D01*
X11826786Y-13453929D01*
X11841071Y-13439643D01*
X11841071Y-13468214D01*
X11841071Y-13282500D02*
X11855357Y-13296786D01*
X11841071Y-13311071D01*
X11826786Y-13296786D01*
X11841071Y-13282500D01*
X11841071Y-13311071D01*
X9457500Y-13942500D02*
X9497500Y-13982500D01*
X9497500Y-13942500D02*
X9457500Y-13982500D01*
X9841071Y-13798214D02*
X9869643Y-13798214D01*
X9898214Y-13812500D01*
X9912500Y-13826786D01*
X9926786Y-13855357D01*
X9941071Y-13912500D01*
X9941071Y-13983929D01*
X9926786Y-14041071D01*
X9912500Y-14069643D01*
X9898214Y-14083929D01*
X9869643Y-14098214D01*
X9841071Y-14098214D01*
X9812500Y-14083929D01*
X9798214Y-14069643D01*
X9783928Y-14041071D01*
X9769643Y-13983929D01*
X9769643Y-13912500D01*
X9783928Y-13855357D01*
X9798214Y-13826786D01*
X9812500Y-13812500D01*
X9841071Y-13798214D01*
X10069643Y-14069643D02*
X10083928Y-14083929D01*
X10069643Y-14098214D01*
X10055357Y-14083929D01*
X10069643Y-14069643D01*
X10069643Y-14098214D01*
X10341071Y-13898214D02*
X10341071Y-14098214D01*
X10269643Y-13783929D02*
X10198214Y-13998214D01*
X10383928Y-13998214D01*
X10555357Y-13798214D02*
X10583928Y-13798214D01*
X10612500Y-13812500D01*
X10626786Y-13826786D01*
X10641071Y-13855357D01*
X10655357Y-13912500D01*
X10655357Y-13983929D01*
X10641071Y-14041071D01*
X10626786Y-14069643D01*
X10612500Y-14083929D01*
X10583928Y-14098214D01*
X10555357Y-14098214D01*
X10526786Y-14083929D01*
X10512500Y-14069643D01*
X10498214Y-14041071D01*
X10483928Y-13983929D01*
X10483928Y-13912500D01*
X10498214Y-13855357D01*
X10512500Y-13826786D01*
X10526786Y-13812500D01*
X10555357Y-13798214D01*
X10841071Y-13798214D02*
X10869643Y-13798214D01*
X10898214Y-13812500D01*
X10912500Y-13826786D01*
X10926786Y-13855357D01*
X10941071Y-13912500D01*
X10941071Y-13983929D01*
X10926786Y-14041071D01*
X10912500Y-14069643D01*
X10898214Y-14083929D01*
X10869643Y-14098214D01*
X10841071Y-14098214D01*
X10812500Y-14083929D01*
X10798214Y-14069643D01*
X10783928Y-14041071D01*
X10769643Y-13983929D01*
X10769643Y-13912500D01*
X10783928Y-13855357D01*
X10798214Y-13826786D01*
X10812500Y-13812500D01*
X10841071Y-13798214D01*
X11069643Y-14098214D02*
X11069643Y-13898214D01*
X11069643Y-13926786D02*
X11083928Y-13912500D01*
X11112500Y-13898214D01*
X11155357Y-13898214D01*
X11183928Y-13912500D01*
X11198214Y-13941071D01*
X11198214Y-14098214D01*
X11198214Y-13941071D02*
X11212500Y-13912500D01*
X11241071Y-13898214D01*
X11283928Y-13898214D01*
X11312500Y-13912500D01*
X11326786Y-13941071D01*
X11326786Y-14098214D01*
X11469643Y-14098214D02*
X11469643Y-13898214D01*
X11469643Y-13926786D02*
X11483928Y-13912500D01*
X11512500Y-13898214D01*
X11555357Y-13898214D01*
X11583928Y-13912500D01*
X11598214Y-13941071D01*
X11598214Y-14098214D01*
X11598214Y-13941071D02*
X11612500Y-13912500D01*
X11641071Y-13898214D01*
X11683928Y-13898214D01*
X11712500Y-13912500D01*
X11726786Y-13941071D01*
X11726786Y-14098214D01*
X12312500Y-13783929D02*
X12055357Y-14169643D01*
X12698214Y-13798214D02*
X12726786Y-13798214D01*
X12755357Y-13812500D01*
X12769643Y-13826786D01*
X12783928Y-13855357D01*
X12798214Y-13912500D01*
X12798214Y-13983929D01*
X12783928Y-14041071D01*
X12769643Y-14069643D01*
X12755357Y-14083929D01*
X12726786Y-14098214D01*
X12698214Y-14098214D01*
X12669643Y-14083929D01*
X12655357Y-14069643D01*
X12641071Y-14041071D01*
X12626786Y-13983929D01*
X12626786Y-13912500D01*
X12641071Y-13855357D01*
X12655357Y-13826786D01*
X12669643Y-13812500D01*
X12698214Y-13798214D01*
X12926786Y-14069643D02*
X12941071Y-14083929D01*
X12926786Y-14098214D01*
X12912500Y-14083929D01*
X12926786Y-14069643D01*
X12926786Y-14098214D01*
X13126786Y-13798214D02*
X13155357Y-13798214D01*
X13183928Y-13812500D01*
X13198214Y-13826786D01*
X13212500Y-13855357D01*
X13226786Y-13912500D01*
X13226786Y-13983929D01*
X13212500Y-14041071D01*
X13198214Y-14069643D01*
X13183928Y-14083929D01*
X13155357Y-14098214D01*
X13126786Y-14098214D01*
X13098214Y-14083929D01*
X13083928Y-14069643D01*
X13069643Y-14041071D01*
X13055357Y-13983929D01*
X13055357Y-13912500D01*
X13069643Y-13855357D01*
X13083928Y-13826786D01*
X13098214Y-13812500D01*
X13126786Y-13798214D01*
X13512500Y-14098214D02*
X13341071Y-14098214D01*
X13426786Y-14098214D02*
X13426786Y-13798214D01*
X13398214Y-13841071D01*
X13369643Y-13869643D01*
X13341071Y-13883929D01*
X13783928Y-13798214D02*
X13641071Y-13798214D01*
X13626786Y-13941071D01*
X13641071Y-13926786D01*
X13669643Y-13912500D01*
X13741071Y-13912500D01*
X13769643Y-13926786D01*
X13783928Y-13941071D01*
X13798214Y-13969643D01*
X13798214Y-14041071D01*
X13783928Y-14069643D01*
X13769643Y-14083929D01*
X13741071Y-14098214D01*
X13669643Y-14098214D01*
X13641071Y-14083929D01*
X13626786Y-14069643D01*
X13898214Y-13798214D02*
X14098214Y-13798214D01*
X13969643Y-14098214D01*
X14198214Y-13798214D02*
X14198214Y-13855357D01*
X14312500Y-13798214D02*
X14312500Y-13855357D01*
X14755357Y-14212500D02*
X14741071Y-14198214D01*
X14712500Y-14155357D01*
X14698214Y-14126786D01*
X14683928Y-14083929D01*
X14669643Y-14012500D01*
X14669643Y-13955357D01*
X14683928Y-13883929D01*
X14698214Y-13841071D01*
X14712500Y-13812500D01*
X14741071Y-13769643D01*
X14755357Y-13755357D01*
X14883928Y-14098214D02*
X14941071Y-14098214D01*
X14969643Y-14083929D01*
X14983928Y-14069643D01*
X15012500Y-14026786D01*
X15026786Y-13969643D01*
X15026786Y-13855357D01*
X15012500Y-13826786D01*
X14998214Y-13812500D01*
X14969643Y-13798214D01*
X14912500Y-13798214D01*
X14883928Y-13812500D01*
X14869643Y-13826786D01*
X14855357Y-13855357D01*
X14855357Y-13926786D01*
X14869643Y-13955357D01*
X14883928Y-13969643D01*
X14912500Y-13983929D01*
X14969643Y-13983929D01*
X14998214Y-13969643D01*
X15012500Y-13955357D01*
X15026786Y-13926786D01*
X15198214Y-13926786D02*
X15169643Y-13912500D01*
X15155357Y-13898214D01*
X15141071Y-13869643D01*
X15141071Y-13855357D01*
X15155357Y-13826786D01*
X15169643Y-13812500D01*
X15198214Y-13798214D01*
X15255357Y-13798214D01*
X15283928Y-13812500D01*
X15298214Y-13826786D01*
X15312500Y-13855357D01*
X15312500Y-13869643D01*
X15298214Y-13898214D01*
X15283928Y-13912500D01*
X15255357Y-13926786D01*
X15198214Y-13926786D01*
X15169643Y-13941071D01*
X15155357Y-13955357D01*
X15141071Y-13983929D01*
X15141071Y-14041071D01*
X15155357Y-14069643D01*
X15169643Y-14083929D01*
X15198214Y-14098214D01*
X15255357Y-14098214D01*
X15283928Y-14083929D01*
X15298214Y-14069643D01*
X15312500Y-14041071D01*
X15312500Y-13983929D01*
X15298214Y-13955357D01*
X15283928Y-13941071D01*
X15255357Y-13926786D01*
X15669643Y-14098214D02*
X15669643Y-13798214D01*
X15798214Y-14098214D02*
X15798214Y-13941071D01*
X15783928Y-13912500D01*
X15755357Y-13898214D01*
X15712500Y-13898214D01*
X15683928Y-13912500D01*
X15669643Y-13926786D01*
X15983928Y-14098214D02*
X15955357Y-14083929D01*
X15941071Y-14069643D01*
X15926786Y-14041071D01*
X15926786Y-13955357D01*
X15941071Y-13926786D01*
X15955357Y-13912500D01*
X15983928Y-13898214D01*
X16026786Y-13898214D01*
X16055357Y-13912500D01*
X16069643Y-13926786D01*
X16083928Y-13955357D01*
X16083928Y-14041071D01*
X16069643Y-14069643D01*
X16055357Y-14083929D01*
X16026786Y-14098214D01*
X15983928Y-14098214D01*
X16255357Y-14098214D02*
X16226786Y-14083929D01*
X16212500Y-14055357D01*
X16212500Y-13798214D01*
X16483928Y-14083929D02*
X16455357Y-14098214D01*
X16398214Y-14098214D01*
X16369643Y-14083929D01*
X16355357Y-14055357D01*
X16355357Y-13941071D01*
X16369643Y-13912500D01*
X16398214Y-13898214D01*
X16455357Y-13898214D01*
X16483928Y-13912500D01*
X16498214Y-13941071D01*
X16498214Y-13969643D01*
X16355357Y-13998214D01*
X16612500Y-14083929D02*
X16641071Y-14098214D01*
X16698214Y-14098214D01*
X16726786Y-14083929D01*
X16741071Y-14055357D01*
X16741071Y-14041071D01*
X16726786Y-14012500D01*
X16698214Y-13998214D01*
X16655357Y-13998214D01*
X16626786Y-13983929D01*
X16612500Y-13955357D01*
X16612500Y-13941071D01*
X16626786Y-13912500D01*
X16655357Y-13898214D01*
X16698214Y-13898214D01*
X16726786Y-13912500D01*
X16841071Y-14212500D02*
X16855357Y-14198214D01*
X16883928Y-14155357D01*
X16898214Y-14126786D01*
X16912500Y-14083929D01*
X16926786Y-14012500D01*
X16926786Y-13955357D01*
X16912500Y-13883929D01*
X16898214Y-13841071D01*
X16883928Y-13812500D01*
X16855357Y-13769643D01*
X16841071Y-13755357D01*
X9497500Y-14358500D02*
G75*
G03*
X9497500Y-14358500I-37500J0D01*
G01*
X9841071Y-14194214D02*
X9869643Y-14194214D01*
X9898214Y-14208500D01*
X9912500Y-14222786D01*
X9926786Y-14251357D01*
X9941071Y-14308500D01*
X9941071Y-14379929D01*
X9926786Y-14437071D01*
X9912500Y-14465643D01*
X9898214Y-14479929D01*
X9869643Y-14494214D01*
X9841071Y-14494214D01*
X9812500Y-14479929D01*
X9798214Y-14465643D01*
X9783928Y-14437071D01*
X9769643Y-14379929D01*
X9769643Y-14308500D01*
X9783928Y-14251357D01*
X9798214Y-14222786D01*
X9812500Y-14208500D01*
X9841071Y-14194214D01*
X10069643Y-14465643D02*
X10083928Y-14479929D01*
X10069643Y-14494214D01*
X10055357Y-14479929D01*
X10069643Y-14465643D01*
X10069643Y-14494214D01*
X10183928Y-14194214D02*
X10383928Y-14194214D01*
X10255357Y-14494214D01*
X10641071Y-14194214D02*
X10498214Y-14194214D01*
X10483928Y-14337071D01*
X10498214Y-14322786D01*
X10526786Y-14308500D01*
X10598214Y-14308500D01*
X10626786Y-14322786D01*
X10641071Y-14337071D01*
X10655357Y-14365643D01*
X10655357Y-14437071D01*
X10641071Y-14465643D01*
X10626786Y-14479929D01*
X10598214Y-14494214D01*
X10526786Y-14494214D01*
X10498214Y-14479929D01*
X10483928Y-14465643D01*
X10841071Y-14194214D02*
X10869643Y-14194214D01*
X10898214Y-14208500D01*
X10912500Y-14222786D01*
X10926786Y-14251357D01*
X10941071Y-14308500D01*
X10941071Y-14379929D01*
X10926786Y-14437071D01*
X10912500Y-14465643D01*
X10898214Y-14479929D01*
X10869643Y-14494214D01*
X10841071Y-14494214D01*
X10812500Y-14479929D01*
X10798214Y-14465643D01*
X10783928Y-14437071D01*
X10769643Y-14379929D01*
X10769643Y-14308500D01*
X10783928Y-14251357D01*
X10798214Y-14222786D01*
X10812500Y-14208500D01*
X10841071Y-14194214D01*
X11069643Y-14494214D02*
X11069643Y-14294214D01*
X11069643Y-14322786D02*
X11083928Y-14308500D01*
X11112500Y-14294214D01*
X11155357Y-14294214D01*
X11183928Y-14308500D01*
X11198214Y-14337071D01*
X11198214Y-14494214D01*
X11198214Y-14337071D02*
X11212500Y-14308500D01*
X11241071Y-14294214D01*
X11283928Y-14294214D01*
X11312500Y-14308500D01*
X11326786Y-14337071D01*
X11326786Y-14494214D01*
X11469643Y-14494214D02*
X11469643Y-14294214D01*
X11469643Y-14322786D02*
X11483928Y-14308500D01*
X11512500Y-14294214D01*
X11555357Y-14294214D01*
X11583928Y-14308500D01*
X11598214Y-14337071D01*
X11598214Y-14494214D01*
X11598214Y-14337071D02*
X11612500Y-14308500D01*
X11641071Y-14294214D01*
X11683928Y-14294214D01*
X11712500Y-14308500D01*
X11726786Y-14337071D01*
X11726786Y-14494214D01*
X12312500Y-14179929D02*
X12055357Y-14565643D01*
X12698214Y-14194214D02*
X12726786Y-14194214D01*
X12755357Y-14208500D01*
X12769643Y-14222786D01*
X12783928Y-14251357D01*
X12798214Y-14308500D01*
X12798214Y-14379929D01*
X12783928Y-14437071D01*
X12769643Y-14465643D01*
X12755357Y-14479929D01*
X12726786Y-14494214D01*
X12698214Y-14494214D01*
X12669643Y-14479929D01*
X12655357Y-14465643D01*
X12641071Y-14437071D01*
X12626786Y-14379929D01*
X12626786Y-14308500D01*
X12641071Y-14251357D01*
X12655357Y-14222786D01*
X12669643Y-14208500D01*
X12698214Y-14194214D01*
X12926786Y-14465643D02*
X12941071Y-14479929D01*
X12926786Y-14494214D01*
X12912500Y-14479929D01*
X12926786Y-14465643D01*
X12926786Y-14494214D01*
X13126786Y-14194214D02*
X13155357Y-14194214D01*
X13183928Y-14208500D01*
X13198214Y-14222786D01*
X13212500Y-14251357D01*
X13226786Y-14308500D01*
X13226786Y-14379929D01*
X13212500Y-14437071D01*
X13198214Y-14465643D01*
X13183928Y-14479929D01*
X13155357Y-14494214D01*
X13126786Y-14494214D01*
X13098214Y-14479929D01*
X13083928Y-14465643D01*
X13069643Y-14437071D01*
X13055357Y-14379929D01*
X13055357Y-14308500D01*
X13069643Y-14251357D01*
X13083928Y-14222786D01*
X13098214Y-14208500D01*
X13126786Y-14194214D01*
X13341071Y-14222786D02*
X13355357Y-14208500D01*
X13383928Y-14194214D01*
X13455357Y-14194214D01*
X13483928Y-14208500D01*
X13498214Y-14222786D01*
X13512500Y-14251357D01*
X13512500Y-14279929D01*
X13498214Y-14322786D01*
X13326786Y-14494214D01*
X13512500Y-14494214D01*
X13655357Y-14494214D02*
X13712500Y-14494214D01*
X13741071Y-14479929D01*
X13755357Y-14465643D01*
X13783928Y-14422786D01*
X13798214Y-14365643D01*
X13798214Y-14251357D01*
X13783928Y-14222786D01*
X13769643Y-14208500D01*
X13741071Y-14194214D01*
X13683928Y-14194214D01*
X13655357Y-14208500D01*
X13641071Y-14222786D01*
X13626786Y-14251357D01*
X13626786Y-14322786D01*
X13641071Y-14351357D01*
X13655357Y-14365643D01*
X13683928Y-14379929D01*
X13741071Y-14379929D01*
X13769643Y-14365643D01*
X13783928Y-14351357D01*
X13798214Y-14322786D01*
X14069643Y-14194214D02*
X13926786Y-14194214D01*
X13912500Y-14337071D01*
X13926786Y-14322786D01*
X13955357Y-14308500D01*
X14026786Y-14308500D01*
X14055357Y-14322786D01*
X14069643Y-14337071D01*
X14083928Y-14365643D01*
X14083928Y-14437071D01*
X14069643Y-14465643D01*
X14055357Y-14479929D01*
X14026786Y-14494214D01*
X13955357Y-14494214D01*
X13926786Y-14479929D01*
X13912500Y-14465643D01*
X14198214Y-14194214D02*
X14198214Y-14251357D01*
X14312500Y-14194214D02*
X14312500Y-14251357D01*
X14755357Y-14608500D02*
X14741071Y-14594214D01*
X14712500Y-14551357D01*
X14698214Y-14522786D01*
X14683928Y-14479929D01*
X14669643Y-14408500D01*
X14669643Y-14351357D01*
X14683928Y-14279929D01*
X14698214Y-14237071D01*
X14712500Y-14208500D01*
X14741071Y-14165643D01*
X14755357Y-14151357D01*
X14841071Y-14194214D02*
X15026786Y-14194214D01*
X14926786Y-14308500D01*
X14969643Y-14308500D01*
X14998214Y-14322786D01*
X15012500Y-14337071D01*
X15026786Y-14365643D01*
X15026786Y-14437071D01*
X15012500Y-14465643D01*
X14998214Y-14479929D01*
X14969643Y-14494214D01*
X14883928Y-14494214D01*
X14855357Y-14479929D01*
X14841071Y-14465643D01*
X15383928Y-14494214D02*
X15383928Y-14194214D01*
X15512500Y-14494214D02*
X15512500Y-14337071D01*
X15498214Y-14308500D01*
X15469643Y-14294214D01*
X15426786Y-14294214D01*
X15398214Y-14308500D01*
X15383928Y-14322786D01*
X15698214Y-14494214D02*
X15669643Y-14479929D01*
X15655357Y-14465643D01*
X15641071Y-14437071D01*
X15641071Y-14351357D01*
X15655357Y-14322786D01*
X15669643Y-14308500D01*
X15698214Y-14294214D01*
X15741071Y-14294214D01*
X15769643Y-14308500D01*
X15783928Y-14322786D01*
X15798214Y-14351357D01*
X15798214Y-14437071D01*
X15783928Y-14465643D01*
X15769643Y-14479929D01*
X15741071Y-14494214D01*
X15698214Y-14494214D01*
X15969643Y-14494214D02*
X15941071Y-14479929D01*
X15926786Y-14451357D01*
X15926786Y-14194214D01*
X16198214Y-14479929D02*
X16169643Y-14494214D01*
X16112500Y-14494214D01*
X16083928Y-14479929D01*
X16069643Y-14451357D01*
X16069643Y-14337071D01*
X16083928Y-14308500D01*
X16112500Y-14294214D01*
X16169643Y-14294214D01*
X16198214Y-14308500D01*
X16212500Y-14337071D01*
X16212500Y-14365643D01*
X16069643Y-14394214D01*
X16326786Y-14479929D02*
X16355357Y-14494214D01*
X16412500Y-14494214D01*
X16441071Y-14479929D01*
X16455357Y-14451357D01*
X16455357Y-14437071D01*
X16441071Y-14408500D01*
X16412500Y-14394214D01*
X16369643Y-14394214D01*
X16341071Y-14379929D01*
X16326786Y-14351357D01*
X16326786Y-14337071D01*
X16341071Y-14308500D01*
X16369643Y-14294214D01*
X16412500Y-14294214D01*
X16441071Y-14308500D01*
X16555357Y-14608500D02*
X16569643Y-14594214D01*
X16598214Y-14551357D01*
X16612500Y-14522786D01*
X16626786Y-14479929D01*
X16641071Y-14408500D01*
X16641071Y-14351357D01*
X16626786Y-14279929D01*
X16612500Y-14237071D01*
X16598214Y-14208500D01*
X16569643Y-14165643D01*
X16555357Y-14151357D01*
X9457500Y-14714500D02*
X9457500Y-14794500D01*
X9417500Y-14754500D02*
X9497500Y-14754500D01*
X9841071Y-14590214D02*
X9869643Y-14590214D01*
X9898214Y-14604500D01*
X9912500Y-14618786D01*
X9926786Y-14647357D01*
X9941071Y-14704500D01*
X9941071Y-14775929D01*
X9926786Y-14833071D01*
X9912500Y-14861643D01*
X9898214Y-14875929D01*
X9869643Y-14890214D01*
X9841071Y-14890214D01*
X9812500Y-14875929D01*
X9798214Y-14861643D01*
X9783928Y-14833071D01*
X9769643Y-14775929D01*
X9769643Y-14704500D01*
X9783928Y-14647357D01*
X9798214Y-14618786D01*
X9812500Y-14604500D01*
X9841071Y-14590214D01*
X10069643Y-14861643D02*
X10083928Y-14875929D01*
X10069643Y-14890214D01*
X10055357Y-14875929D01*
X10069643Y-14861643D01*
X10069643Y-14890214D01*
X10255357Y-14718786D02*
X10226786Y-14704500D01*
X10212500Y-14690214D01*
X10198214Y-14661643D01*
X10198214Y-14647357D01*
X10212500Y-14618786D01*
X10226786Y-14604500D01*
X10255357Y-14590214D01*
X10312500Y-14590214D01*
X10341071Y-14604500D01*
X10355357Y-14618786D01*
X10369643Y-14647357D01*
X10369643Y-14661643D01*
X10355357Y-14690214D01*
X10341071Y-14704500D01*
X10312500Y-14718786D01*
X10255357Y-14718786D01*
X10226786Y-14733071D01*
X10212500Y-14747357D01*
X10198214Y-14775929D01*
X10198214Y-14833071D01*
X10212500Y-14861643D01*
X10226786Y-14875929D01*
X10255357Y-14890214D01*
X10312500Y-14890214D01*
X10341071Y-14875929D01*
X10355357Y-14861643D01*
X10369643Y-14833071D01*
X10369643Y-14775929D01*
X10355357Y-14747357D01*
X10341071Y-14733071D01*
X10312500Y-14718786D01*
X10555357Y-14590214D02*
X10583928Y-14590214D01*
X10612500Y-14604500D01*
X10626786Y-14618786D01*
X10641071Y-14647357D01*
X10655357Y-14704500D01*
X10655357Y-14775929D01*
X10641071Y-14833071D01*
X10626786Y-14861643D01*
X10612500Y-14875929D01*
X10583928Y-14890214D01*
X10555357Y-14890214D01*
X10526786Y-14875929D01*
X10512500Y-14861643D01*
X10498214Y-14833071D01*
X10483928Y-14775929D01*
X10483928Y-14704500D01*
X10498214Y-14647357D01*
X10512500Y-14618786D01*
X10526786Y-14604500D01*
X10555357Y-14590214D01*
X10841071Y-14590214D02*
X10869643Y-14590214D01*
X10898214Y-14604500D01*
X10912500Y-14618786D01*
X10926786Y-14647357D01*
X10941071Y-14704500D01*
X10941071Y-14775929D01*
X10926786Y-14833071D01*
X10912500Y-14861643D01*
X10898214Y-14875929D01*
X10869643Y-14890214D01*
X10841071Y-14890214D01*
X10812500Y-14875929D01*
X10798214Y-14861643D01*
X10783928Y-14833071D01*
X10769643Y-14775929D01*
X10769643Y-14704500D01*
X10783928Y-14647357D01*
X10798214Y-14618786D01*
X10812500Y-14604500D01*
X10841071Y-14590214D01*
X11069643Y-14890214D02*
X11069643Y-14690214D01*
X11069643Y-14718786D02*
X11083928Y-14704500D01*
X11112500Y-14690214D01*
X11155357Y-14690214D01*
X11183928Y-14704500D01*
X11198214Y-14733071D01*
X11198214Y-14890214D01*
X11198214Y-14733071D02*
X11212500Y-14704500D01*
X11241071Y-14690214D01*
X11283928Y-14690214D01*
X11312500Y-14704500D01*
X11326786Y-14733071D01*
X11326786Y-14890214D01*
X11469643Y-14890214D02*
X11469643Y-14690214D01*
X11469643Y-14718786D02*
X11483928Y-14704500D01*
X11512500Y-14690214D01*
X11555357Y-14690214D01*
X11583928Y-14704500D01*
X11598214Y-14733071D01*
X11598214Y-14890214D01*
X11598214Y-14733071D02*
X11612500Y-14704500D01*
X11641071Y-14690214D01*
X11683928Y-14690214D01*
X11712500Y-14704500D01*
X11726786Y-14733071D01*
X11726786Y-14890214D01*
X12312500Y-14575929D02*
X12055357Y-14961643D01*
X12698214Y-14590214D02*
X12726786Y-14590214D01*
X12755357Y-14604500D01*
X12769643Y-14618786D01*
X12783928Y-14647357D01*
X12798214Y-14704500D01*
X12798214Y-14775929D01*
X12783928Y-14833071D01*
X12769643Y-14861643D01*
X12755357Y-14875929D01*
X12726786Y-14890214D01*
X12698214Y-14890214D01*
X12669643Y-14875929D01*
X12655357Y-14861643D01*
X12641071Y-14833071D01*
X12626786Y-14775929D01*
X12626786Y-14704500D01*
X12641071Y-14647357D01*
X12655357Y-14618786D01*
X12669643Y-14604500D01*
X12698214Y-14590214D01*
X12926786Y-14861643D02*
X12941071Y-14875929D01*
X12926786Y-14890214D01*
X12912500Y-14875929D01*
X12926786Y-14861643D01*
X12926786Y-14890214D01*
X13126786Y-14590214D02*
X13155357Y-14590214D01*
X13183928Y-14604500D01*
X13198214Y-14618786D01*
X13212500Y-14647357D01*
X13226786Y-14704500D01*
X13226786Y-14775929D01*
X13212500Y-14833071D01*
X13198214Y-14861643D01*
X13183928Y-14875929D01*
X13155357Y-14890214D01*
X13126786Y-14890214D01*
X13098214Y-14875929D01*
X13083928Y-14861643D01*
X13069643Y-14833071D01*
X13055357Y-14775929D01*
X13055357Y-14704500D01*
X13069643Y-14647357D01*
X13083928Y-14618786D01*
X13098214Y-14604500D01*
X13126786Y-14590214D01*
X13326786Y-14590214D02*
X13512500Y-14590214D01*
X13412500Y-14704500D01*
X13455357Y-14704500D01*
X13483928Y-14718786D01*
X13498214Y-14733071D01*
X13512500Y-14761643D01*
X13512500Y-14833071D01*
X13498214Y-14861643D01*
X13483928Y-14875929D01*
X13455357Y-14890214D01*
X13369643Y-14890214D01*
X13341071Y-14875929D01*
X13326786Y-14861643D01*
X13798214Y-14890214D02*
X13626786Y-14890214D01*
X13712500Y-14890214D02*
X13712500Y-14590214D01*
X13683928Y-14633071D01*
X13655357Y-14661643D01*
X13626786Y-14675929D01*
X14069643Y-14590214D02*
X13926786Y-14590214D01*
X13912500Y-14733071D01*
X13926786Y-14718786D01*
X13955357Y-14704500D01*
X14026786Y-14704500D01*
X14055357Y-14718786D01*
X14069643Y-14733071D01*
X14083928Y-14761643D01*
X14083928Y-14833071D01*
X14069643Y-14861643D01*
X14055357Y-14875929D01*
X14026786Y-14890214D01*
X13955357Y-14890214D01*
X13926786Y-14875929D01*
X13912500Y-14861643D01*
X14198214Y-14590214D02*
X14198214Y-14647357D01*
X14312500Y-14590214D02*
X14312500Y-14647357D01*
X14755357Y-15004500D02*
X14741071Y-14990214D01*
X14712500Y-14947357D01*
X14698214Y-14918786D01*
X14683928Y-14875929D01*
X14669643Y-14804500D01*
X14669643Y-14747357D01*
X14683928Y-14675929D01*
X14698214Y-14633071D01*
X14712500Y-14604500D01*
X14741071Y-14561643D01*
X14755357Y-14547357D01*
X15026786Y-14890214D02*
X14855357Y-14890214D01*
X14941071Y-14890214D02*
X14941071Y-14590214D01*
X14912500Y-14633071D01*
X14883928Y-14661643D01*
X14855357Y-14675929D01*
X15126786Y-14590214D02*
X15312500Y-14590214D01*
X15212500Y-14704500D01*
X15255357Y-14704500D01*
X15283928Y-14718786D01*
X15298214Y-14733071D01*
X15312500Y-14761643D01*
X15312500Y-14833071D01*
X15298214Y-14861643D01*
X15283928Y-14875929D01*
X15255357Y-14890214D01*
X15169643Y-14890214D01*
X15141071Y-14875929D01*
X15126786Y-14861643D01*
X15598214Y-14890214D02*
X15426786Y-14890214D01*
X15512500Y-14890214D02*
X15512500Y-14590214D01*
X15483928Y-14633071D01*
X15455357Y-14661643D01*
X15426786Y-14675929D01*
X15955357Y-14890214D02*
X15955357Y-14590214D01*
X16083928Y-14890214D02*
X16083928Y-14733071D01*
X16069643Y-14704500D01*
X16041071Y-14690214D01*
X15998214Y-14690214D01*
X15969643Y-14704500D01*
X15955357Y-14718786D01*
X16269643Y-14890214D02*
X16241071Y-14875929D01*
X16226786Y-14861643D01*
X16212500Y-14833071D01*
X16212500Y-14747357D01*
X16226786Y-14718786D01*
X16241071Y-14704500D01*
X16269643Y-14690214D01*
X16312500Y-14690214D01*
X16341071Y-14704500D01*
X16355357Y-14718786D01*
X16369643Y-14747357D01*
X16369643Y-14833071D01*
X16355357Y-14861643D01*
X16341071Y-14875929D01*
X16312500Y-14890214D01*
X16269643Y-14890214D01*
X16541071Y-14890214D02*
X16512500Y-14875929D01*
X16498214Y-14847357D01*
X16498214Y-14590214D01*
X16769643Y-14875929D02*
X16741071Y-14890214D01*
X16683928Y-14890214D01*
X16655357Y-14875929D01*
X16641071Y-14847357D01*
X16641071Y-14733071D01*
X16655357Y-14704500D01*
X16683928Y-14690214D01*
X16741071Y-14690214D01*
X16769643Y-14704500D01*
X16783928Y-14733071D01*
X16783928Y-14761643D01*
X16641071Y-14790214D01*
X16898214Y-14875929D02*
X16926786Y-14890214D01*
X16983928Y-14890214D01*
X17012500Y-14875929D01*
X17026786Y-14847357D01*
X17026786Y-14833071D01*
X17012500Y-14804500D01*
X16983928Y-14790214D01*
X16941071Y-14790214D01*
X16912500Y-14775929D01*
X16898214Y-14747357D01*
X16898214Y-14733071D01*
X16912500Y-14704500D01*
X16941071Y-14690214D01*
X16983928Y-14690214D01*
X17012500Y-14704500D01*
X17126786Y-15004500D02*
X17141071Y-14990214D01*
X17169643Y-14947357D01*
X17183928Y-14918786D01*
X17198214Y-14875929D01*
X17212500Y-14804500D01*
X17212500Y-14747357D01*
X17198214Y-14675929D01*
X17183928Y-14633071D01*
X17169643Y-14604500D01*
X17141071Y-14561643D01*
X17126786Y-14547357D01*
X9484320Y-15182320D02*
X9484320Y-15118680D01*
X9420680Y-15118680D01*
X9420680Y-15182320D01*
X9484320Y-15182320D01*
X9841071Y-14986214D02*
X9869643Y-14986214D01*
X9898214Y-15000500D01*
X9912500Y-15014786D01*
X9926786Y-15043357D01*
X9941071Y-15100500D01*
X9941071Y-15171929D01*
X9926786Y-15229071D01*
X9912500Y-15257643D01*
X9898214Y-15271929D01*
X9869643Y-15286214D01*
X9841071Y-15286214D01*
X9812500Y-15271929D01*
X9798214Y-15257643D01*
X9783928Y-15229071D01*
X9769643Y-15171929D01*
X9769643Y-15100500D01*
X9783928Y-15043357D01*
X9798214Y-15014786D01*
X9812500Y-15000500D01*
X9841071Y-14986214D01*
X10069643Y-15257643D02*
X10083928Y-15271929D01*
X10069643Y-15286214D01*
X10055357Y-15271929D01*
X10069643Y-15257643D01*
X10069643Y-15286214D01*
X10226786Y-15286214D02*
X10283928Y-15286214D01*
X10312500Y-15271929D01*
X10326786Y-15257643D01*
X10355357Y-15214786D01*
X10369643Y-15157643D01*
X10369643Y-15043357D01*
X10355357Y-15014786D01*
X10341071Y-15000500D01*
X10312500Y-14986214D01*
X10255357Y-14986214D01*
X10226786Y-15000500D01*
X10212500Y-15014786D01*
X10198214Y-15043357D01*
X10198214Y-15114786D01*
X10212500Y-15143357D01*
X10226786Y-15157643D01*
X10255357Y-15171929D01*
X10312500Y-15171929D01*
X10341071Y-15157643D01*
X10355357Y-15143357D01*
X10369643Y-15114786D01*
X10555357Y-14986214D02*
X10583928Y-14986214D01*
X10612500Y-15000500D01*
X10626786Y-15014786D01*
X10641071Y-15043357D01*
X10655357Y-15100500D01*
X10655357Y-15171929D01*
X10641071Y-15229071D01*
X10626786Y-15257643D01*
X10612500Y-15271929D01*
X10583928Y-15286214D01*
X10555357Y-15286214D01*
X10526786Y-15271929D01*
X10512500Y-15257643D01*
X10498214Y-15229071D01*
X10483928Y-15171929D01*
X10483928Y-15100500D01*
X10498214Y-15043357D01*
X10512500Y-15014786D01*
X10526786Y-15000500D01*
X10555357Y-14986214D01*
X10841071Y-14986214D02*
X10869643Y-14986214D01*
X10898214Y-15000500D01*
X10912500Y-15014786D01*
X10926786Y-15043357D01*
X10941071Y-15100500D01*
X10941071Y-15171929D01*
X10926786Y-15229071D01*
X10912500Y-15257643D01*
X10898214Y-15271929D01*
X10869643Y-15286214D01*
X10841071Y-15286214D01*
X10812500Y-15271929D01*
X10798214Y-15257643D01*
X10783928Y-15229071D01*
X10769643Y-15171929D01*
X10769643Y-15100500D01*
X10783928Y-15043357D01*
X10798214Y-15014786D01*
X10812500Y-15000500D01*
X10841071Y-14986214D01*
X11069643Y-15286214D02*
X11069643Y-15086214D01*
X11069643Y-15114786D02*
X11083928Y-15100500D01*
X11112500Y-15086214D01*
X11155357Y-15086214D01*
X11183928Y-15100500D01*
X11198214Y-15129071D01*
X11198214Y-15286214D01*
X11198214Y-15129071D02*
X11212500Y-15100500D01*
X11241071Y-15086214D01*
X11283928Y-15086214D01*
X11312500Y-15100500D01*
X11326786Y-15129071D01*
X11326786Y-15286214D01*
X11469643Y-15286214D02*
X11469643Y-15086214D01*
X11469643Y-15114786D02*
X11483928Y-15100500D01*
X11512500Y-15086214D01*
X11555357Y-15086214D01*
X11583928Y-15100500D01*
X11598214Y-15129071D01*
X11598214Y-15286214D01*
X11598214Y-15129071D02*
X11612500Y-15100500D01*
X11641071Y-15086214D01*
X11683928Y-15086214D01*
X11712500Y-15100500D01*
X11726786Y-15129071D01*
X11726786Y-15286214D01*
X12312500Y-14971929D02*
X12055357Y-15357643D01*
X12698214Y-14986214D02*
X12726786Y-14986214D01*
X12755357Y-15000500D01*
X12769643Y-15014786D01*
X12783928Y-15043357D01*
X12798214Y-15100500D01*
X12798214Y-15171929D01*
X12783928Y-15229071D01*
X12769643Y-15257643D01*
X12755357Y-15271929D01*
X12726786Y-15286214D01*
X12698214Y-15286214D01*
X12669643Y-15271929D01*
X12655357Y-15257643D01*
X12641071Y-15229071D01*
X12626786Y-15171929D01*
X12626786Y-15100500D01*
X12641071Y-15043357D01*
X12655357Y-15014786D01*
X12669643Y-15000500D01*
X12698214Y-14986214D01*
X12926786Y-15257643D02*
X12941071Y-15271929D01*
X12926786Y-15286214D01*
X12912500Y-15271929D01*
X12926786Y-15257643D01*
X12926786Y-15286214D01*
X13126786Y-14986214D02*
X13155357Y-14986214D01*
X13183928Y-15000500D01*
X13198214Y-15014786D01*
X13212500Y-15043357D01*
X13226786Y-15100500D01*
X13226786Y-15171929D01*
X13212500Y-15229071D01*
X13198214Y-15257643D01*
X13183928Y-15271929D01*
X13155357Y-15286214D01*
X13126786Y-15286214D01*
X13098214Y-15271929D01*
X13083928Y-15257643D01*
X13069643Y-15229071D01*
X13055357Y-15171929D01*
X13055357Y-15100500D01*
X13069643Y-15043357D01*
X13083928Y-15014786D01*
X13098214Y-15000500D01*
X13126786Y-14986214D01*
X13326786Y-14986214D02*
X13512500Y-14986214D01*
X13412500Y-15100500D01*
X13455357Y-15100500D01*
X13483928Y-15114786D01*
X13498214Y-15129071D01*
X13512500Y-15157643D01*
X13512500Y-15229071D01*
X13498214Y-15257643D01*
X13483928Y-15271929D01*
X13455357Y-15286214D01*
X13369643Y-15286214D01*
X13341071Y-15271929D01*
X13326786Y-15257643D01*
X13783928Y-14986214D02*
X13641071Y-14986214D01*
X13626786Y-15129071D01*
X13641071Y-15114786D01*
X13669643Y-15100500D01*
X13741071Y-15100500D01*
X13769643Y-15114786D01*
X13783928Y-15129071D01*
X13798214Y-15157643D01*
X13798214Y-15229071D01*
X13783928Y-15257643D01*
X13769643Y-15271929D01*
X13741071Y-15286214D01*
X13669643Y-15286214D01*
X13641071Y-15271929D01*
X13626786Y-15257643D01*
X14055357Y-15086214D02*
X14055357Y-15286214D01*
X13983928Y-14971929D02*
X13912500Y-15186214D01*
X14098214Y-15186214D01*
X14198214Y-14986214D02*
X14198214Y-15043357D01*
X14312500Y-14986214D02*
X14312500Y-15043357D01*
X14755357Y-15400500D02*
X14741071Y-15386214D01*
X14712500Y-15343357D01*
X14698214Y-15314786D01*
X14683928Y-15271929D01*
X14669643Y-15200500D01*
X14669643Y-15143357D01*
X14683928Y-15071929D01*
X14698214Y-15029071D01*
X14712500Y-15000500D01*
X14741071Y-14957643D01*
X14755357Y-14943357D01*
X14855357Y-15014786D02*
X14869643Y-15000500D01*
X14898214Y-14986214D01*
X14969643Y-14986214D01*
X14998214Y-15000500D01*
X15012500Y-15014786D01*
X15026786Y-15043357D01*
X15026786Y-15071929D01*
X15012500Y-15114786D01*
X14841071Y-15286214D01*
X15026786Y-15286214D01*
X15383928Y-15286214D02*
X15383928Y-14986214D01*
X15512500Y-15286214D02*
X15512500Y-15129071D01*
X15498214Y-15100500D01*
X15469643Y-15086214D01*
X15426786Y-15086214D01*
X15398214Y-15100500D01*
X15383928Y-15114786D01*
X15698214Y-15286214D02*
X15669643Y-15271929D01*
X15655357Y-15257643D01*
X15641071Y-15229071D01*
X15641071Y-15143357D01*
X15655357Y-15114786D01*
X15669643Y-15100500D01*
X15698214Y-15086214D01*
X15741071Y-15086214D01*
X15769643Y-15100500D01*
X15783928Y-15114786D01*
X15798214Y-15143357D01*
X15798214Y-15229071D01*
X15783928Y-15257643D01*
X15769643Y-15271929D01*
X15741071Y-15286214D01*
X15698214Y-15286214D01*
X15969643Y-15286214D02*
X15941071Y-15271929D01*
X15926786Y-15243357D01*
X15926786Y-14986214D01*
X16198214Y-15271929D02*
X16169643Y-15286214D01*
X16112500Y-15286214D01*
X16083928Y-15271929D01*
X16069643Y-15243357D01*
X16069643Y-15129071D01*
X16083928Y-15100500D01*
X16112500Y-15086214D01*
X16169643Y-15086214D01*
X16198214Y-15100500D01*
X16212500Y-15129071D01*
X16212500Y-15157643D01*
X16069643Y-15186214D01*
X16326786Y-15271929D02*
X16355357Y-15286214D01*
X16412500Y-15286214D01*
X16441071Y-15271929D01*
X16455357Y-15243357D01*
X16455357Y-15229071D01*
X16441071Y-15200500D01*
X16412500Y-15186214D01*
X16369643Y-15186214D01*
X16341071Y-15171929D01*
X16326786Y-15143357D01*
X16326786Y-15129071D01*
X16341071Y-15100500D01*
X16369643Y-15086214D01*
X16412500Y-15086214D01*
X16441071Y-15100500D01*
X16555357Y-15400500D02*
X16569643Y-15386214D01*
X16598214Y-15343357D01*
X16612500Y-15314786D01*
X16626786Y-15271929D01*
X16641071Y-15200500D01*
X16641071Y-15143357D01*
X16626786Y-15071929D01*
X16612500Y-15029071D01*
X16598214Y-15000500D01*
X16569643Y-14957643D01*
X16555357Y-14943357D01*
X9447500Y-15596500D02*
X9497500Y-15546500D01*
X9447500Y-15496500D01*
X9397500Y-15546500D01*
X9447500Y-15596500D01*
X9941071Y-15682214D02*
X9769643Y-15682214D01*
X9855357Y-15682214D02*
X9855357Y-15382214D01*
X9826786Y-15425071D01*
X9798214Y-15453643D01*
X9769643Y-15467929D01*
X10069643Y-15653643D02*
X10083928Y-15667929D01*
X10069643Y-15682214D01*
X10055357Y-15667929D01*
X10069643Y-15653643D01*
X10069643Y-15682214D01*
X10269643Y-15382214D02*
X10298214Y-15382214D01*
X10326786Y-15396500D01*
X10341071Y-15410786D01*
X10355357Y-15439357D01*
X10369643Y-15496500D01*
X10369643Y-15567929D01*
X10355357Y-15625071D01*
X10341071Y-15653643D01*
X10326786Y-15667929D01*
X10298214Y-15682214D01*
X10269643Y-15682214D01*
X10241071Y-15667929D01*
X10226786Y-15653643D01*
X10212500Y-15625071D01*
X10198214Y-15567929D01*
X10198214Y-15496500D01*
X10212500Y-15439357D01*
X10226786Y-15410786D01*
X10241071Y-15396500D01*
X10269643Y-15382214D01*
X10555357Y-15382214D02*
X10583928Y-15382214D01*
X10612500Y-15396500D01*
X10626786Y-15410786D01*
X10641071Y-15439357D01*
X10655357Y-15496500D01*
X10655357Y-15567929D01*
X10641071Y-15625071D01*
X10626786Y-15653643D01*
X10612500Y-15667929D01*
X10583928Y-15682214D01*
X10555357Y-15682214D01*
X10526786Y-15667929D01*
X10512500Y-15653643D01*
X10498214Y-15625071D01*
X10483928Y-15567929D01*
X10483928Y-15496500D01*
X10498214Y-15439357D01*
X10512500Y-15410786D01*
X10526786Y-15396500D01*
X10555357Y-15382214D01*
X10841071Y-15382214D02*
X10869643Y-15382214D01*
X10898214Y-15396500D01*
X10912500Y-15410786D01*
X10926786Y-15439357D01*
X10941071Y-15496500D01*
X10941071Y-15567929D01*
X10926786Y-15625071D01*
X10912500Y-15653643D01*
X10898214Y-15667929D01*
X10869643Y-15682214D01*
X10841071Y-15682214D01*
X10812500Y-15667929D01*
X10798214Y-15653643D01*
X10783928Y-15625071D01*
X10769643Y-15567929D01*
X10769643Y-15496500D01*
X10783928Y-15439357D01*
X10798214Y-15410786D01*
X10812500Y-15396500D01*
X10841071Y-15382214D01*
X11069643Y-15682214D02*
X11069643Y-15482214D01*
X11069643Y-15510786D02*
X11083928Y-15496500D01*
X11112500Y-15482214D01*
X11155357Y-15482214D01*
X11183928Y-15496500D01*
X11198214Y-15525071D01*
X11198214Y-15682214D01*
X11198214Y-15525071D02*
X11212500Y-15496500D01*
X11241071Y-15482214D01*
X11283928Y-15482214D01*
X11312500Y-15496500D01*
X11326786Y-15525071D01*
X11326786Y-15682214D01*
X11469643Y-15682214D02*
X11469643Y-15482214D01*
X11469643Y-15510786D02*
X11483928Y-15496500D01*
X11512500Y-15482214D01*
X11555357Y-15482214D01*
X11583928Y-15496500D01*
X11598214Y-15525071D01*
X11598214Y-15682214D01*
X11598214Y-15525071D02*
X11612500Y-15496500D01*
X11641071Y-15482214D01*
X11683928Y-15482214D01*
X11712500Y-15496500D01*
X11726786Y-15525071D01*
X11726786Y-15682214D01*
X12312500Y-15367929D02*
X12055357Y-15753643D01*
X12698214Y-15382214D02*
X12726786Y-15382214D01*
X12755357Y-15396500D01*
X12769643Y-15410786D01*
X12783928Y-15439357D01*
X12798214Y-15496500D01*
X12798214Y-15567929D01*
X12783928Y-15625071D01*
X12769643Y-15653643D01*
X12755357Y-15667929D01*
X12726786Y-15682214D01*
X12698214Y-15682214D01*
X12669643Y-15667929D01*
X12655357Y-15653643D01*
X12641071Y-15625071D01*
X12626786Y-15567929D01*
X12626786Y-15496500D01*
X12641071Y-15439357D01*
X12655357Y-15410786D01*
X12669643Y-15396500D01*
X12698214Y-15382214D01*
X12926786Y-15653643D02*
X12941071Y-15667929D01*
X12926786Y-15682214D01*
X12912500Y-15667929D01*
X12926786Y-15653643D01*
X12926786Y-15682214D01*
X13126786Y-15382214D02*
X13155357Y-15382214D01*
X13183928Y-15396500D01*
X13198214Y-15410786D01*
X13212500Y-15439357D01*
X13226786Y-15496500D01*
X13226786Y-15567929D01*
X13212500Y-15625071D01*
X13198214Y-15653643D01*
X13183928Y-15667929D01*
X13155357Y-15682214D01*
X13126786Y-15682214D01*
X13098214Y-15667929D01*
X13083928Y-15653643D01*
X13069643Y-15625071D01*
X13055357Y-15567929D01*
X13055357Y-15496500D01*
X13069643Y-15439357D01*
X13083928Y-15410786D01*
X13098214Y-15396500D01*
X13126786Y-15382214D01*
X13326786Y-15382214D02*
X13512500Y-15382214D01*
X13412500Y-15496500D01*
X13455357Y-15496500D01*
X13483928Y-15510786D01*
X13498214Y-15525071D01*
X13512500Y-15553643D01*
X13512500Y-15625071D01*
X13498214Y-15653643D01*
X13483928Y-15667929D01*
X13455357Y-15682214D01*
X13369643Y-15682214D01*
X13341071Y-15667929D01*
X13326786Y-15653643D01*
X13655357Y-15682214D02*
X13712500Y-15682214D01*
X13741071Y-15667929D01*
X13755357Y-15653643D01*
X13783928Y-15610786D01*
X13798214Y-15553643D01*
X13798214Y-15439357D01*
X13783928Y-15410786D01*
X13769643Y-15396500D01*
X13741071Y-15382214D01*
X13683928Y-15382214D01*
X13655357Y-15396500D01*
X13641071Y-15410786D01*
X13626786Y-15439357D01*
X13626786Y-15510786D01*
X13641071Y-15539357D01*
X13655357Y-15553643D01*
X13683928Y-15567929D01*
X13741071Y-15567929D01*
X13769643Y-15553643D01*
X13783928Y-15539357D01*
X13798214Y-15510786D01*
X14055357Y-15482214D02*
X14055357Y-15682214D01*
X13983928Y-15367929D02*
X13912500Y-15582214D01*
X14098214Y-15582214D01*
X14198214Y-15382214D02*
X14198214Y-15439357D01*
X14312500Y-15382214D02*
X14312500Y-15439357D01*
X14755357Y-15796500D02*
X14741071Y-15782214D01*
X14712500Y-15739357D01*
X14698214Y-15710786D01*
X14683928Y-15667929D01*
X14669643Y-15596500D01*
X14669643Y-15539357D01*
X14683928Y-15467929D01*
X14698214Y-15425071D01*
X14712500Y-15396500D01*
X14741071Y-15353643D01*
X14755357Y-15339357D01*
X15026786Y-15682214D02*
X14855357Y-15682214D01*
X14941071Y-15682214D02*
X14941071Y-15382214D01*
X14912500Y-15425071D01*
X14883928Y-15453643D01*
X14855357Y-15467929D01*
X15212500Y-15382214D02*
X15241071Y-15382214D01*
X15269643Y-15396500D01*
X15283928Y-15410786D01*
X15298214Y-15439357D01*
X15312500Y-15496500D01*
X15312500Y-15567929D01*
X15298214Y-15625071D01*
X15283928Y-15653643D01*
X15269643Y-15667929D01*
X15241071Y-15682214D01*
X15212500Y-15682214D01*
X15183928Y-15667929D01*
X15169643Y-15653643D01*
X15155357Y-15625071D01*
X15141071Y-15567929D01*
X15141071Y-15496500D01*
X15155357Y-15439357D01*
X15169643Y-15410786D01*
X15183928Y-15396500D01*
X15212500Y-15382214D01*
X15569643Y-15482214D02*
X15569643Y-15682214D01*
X15498214Y-15367929D02*
X15426786Y-15582214D01*
X15612500Y-15582214D01*
X15955357Y-15682214D02*
X15955357Y-15382214D01*
X16083928Y-15682214D02*
X16083928Y-15525071D01*
X16069643Y-15496500D01*
X16041071Y-15482214D01*
X15998214Y-15482214D01*
X15969643Y-15496500D01*
X15955357Y-15510786D01*
X16269643Y-15682214D02*
X16241071Y-15667929D01*
X16226786Y-15653643D01*
X16212500Y-15625071D01*
X16212500Y-15539357D01*
X16226786Y-15510786D01*
X16241071Y-15496500D01*
X16269643Y-15482214D01*
X16312500Y-15482214D01*
X16341071Y-15496500D01*
X16355357Y-15510786D01*
X16369643Y-15539357D01*
X16369643Y-15625071D01*
X16355357Y-15653643D01*
X16341071Y-15667929D01*
X16312500Y-15682214D01*
X16269643Y-15682214D01*
X16541071Y-15682214D02*
X16512500Y-15667929D01*
X16498214Y-15639357D01*
X16498214Y-15382214D01*
X16769643Y-15667929D02*
X16741071Y-15682214D01*
X16683928Y-15682214D01*
X16655357Y-15667929D01*
X16641071Y-15639357D01*
X16641071Y-15525071D01*
X16655357Y-15496500D01*
X16683928Y-15482214D01*
X16741071Y-15482214D01*
X16769643Y-15496500D01*
X16783928Y-15525071D01*
X16783928Y-15553643D01*
X16641071Y-15582214D01*
X16898214Y-15667929D02*
X16926786Y-15682214D01*
X16983928Y-15682214D01*
X17012500Y-15667929D01*
X17026786Y-15639357D01*
X17026786Y-15625071D01*
X17012500Y-15596500D01*
X16983928Y-15582214D01*
X16941071Y-15582214D01*
X16912500Y-15567929D01*
X16898214Y-15539357D01*
X16898214Y-15525071D01*
X16912500Y-15496500D01*
X16941071Y-15482214D01*
X16983928Y-15482214D01*
X17012500Y-15496500D01*
X17126786Y-15796500D02*
X17141071Y-15782214D01*
X17169643Y-15739357D01*
X17183928Y-15710786D01*
X17198214Y-15667929D01*
X17212500Y-15596500D01*
X17212500Y-15539357D01*
X17198214Y-15467929D01*
X17183928Y-15425071D01*
X17169643Y-15396500D01*
X17141071Y-15353643D01*
X17126786Y-15339357D01*
X9319500Y-15853500D02*
X9497500Y-16031500D01*
X9497500Y-15853500D02*
X9319500Y-16031500D01*
X9497500Y-15942500D02*
G75*
G03*
X9497500Y-15942500I-89000J0D01*
G01*
X9941071Y-16078214D02*
X9769643Y-16078214D01*
X9855357Y-16078214D02*
X9855357Y-15778214D01*
X9826786Y-15821071D01*
X9798214Y-15849643D01*
X9769643Y-15863929D01*
X10069643Y-16049643D02*
X10083928Y-16063929D01*
X10069643Y-16078214D01*
X10055357Y-16063929D01*
X10069643Y-16049643D01*
X10069643Y-16078214D01*
X10183928Y-15778214D02*
X10383928Y-15778214D01*
X10255357Y-16078214D01*
X10541071Y-15906786D02*
X10512500Y-15892500D01*
X10498214Y-15878214D01*
X10483928Y-15849643D01*
X10483928Y-15835357D01*
X10498214Y-15806786D01*
X10512500Y-15792500D01*
X10541071Y-15778214D01*
X10598214Y-15778214D01*
X10626786Y-15792500D01*
X10641071Y-15806786D01*
X10655357Y-15835357D01*
X10655357Y-15849643D01*
X10641071Y-15878214D01*
X10626786Y-15892500D01*
X10598214Y-15906786D01*
X10541071Y-15906786D01*
X10512500Y-15921071D01*
X10498214Y-15935357D01*
X10483928Y-15963929D01*
X10483928Y-16021071D01*
X10498214Y-16049643D01*
X10512500Y-16063929D01*
X10541071Y-16078214D01*
X10598214Y-16078214D01*
X10626786Y-16063929D01*
X10641071Y-16049643D01*
X10655357Y-16021071D01*
X10655357Y-15963929D01*
X10641071Y-15935357D01*
X10626786Y-15921071D01*
X10598214Y-15906786D01*
X10841071Y-15778214D02*
X10869643Y-15778214D01*
X10898214Y-15792500D01*
X10912500Y-15806786D01*
X10926786Y-15835357D01*
X10941071Y-15892500D01*
X10941071Y-15963929D01*
X10926786Y-16021071D01*
X10912500Y-16049643D01*
X10898214Y-16063929D01*
X10869643Y-16078214D01*
X10841071Y-16078214D01*
X10812500Y-16063929D01*
X10798214Y-16049643D01*
X10783928Y-16021071D01*
X10769643Y-15963929D01*
X10769643Y-15892500D01*
X10783928Y-15835357D01*
X10798214Y-15806786D01*
X10812500Y-15792500D01*
X10841071Y-15778214D01*
X11069643Y-16078214D02*
X11069643Y-15878214D01*
X11069643Y-15906786D02*
X11083928Y-15892500D01*
X11112500Y-15878214D01*
X11155357Y-15878214D01*
X11183928Y-15892500D01*
X11198214Y-15921071D01*
X11198214Y-16078214D01*
X11198214Y-15921071D02*
X11212500Y-15892500D01*
X11241071Y-15878214D01*
X11283928Y-15878214D01*
X11312500Y-15892500D01*
X11326786Y-15921071D01*
X11326786Y-16078214D01*
X11469643Y-16078214D02*
X11469643Y-15878214D01*
X11469643Y-15906786D02*
X11483928Y-15892500D01*
X11512500Y-15878214D01*
X11555357Y-15878214D01*
X11583928Y-15892500D01*
X11598214Y-15921071D01*
X11598214Y-16078214D01*
X11598214Y-15921071D02*
X11612500Y-15892500D01*
X11641071Y-15878214D01*
X11683928Y-15878214D01*
X11712500Y-15892500D01*
X11726786Y-15921071D01*
X11726786Y-16078214D01*
X12312500Y-15763929D02*
X12055357Y-16149643D01*
X12698214Y-15778214D02*
X12726786Y-15778214D01*
X12755357Y-15792500D01*
X12769643Y-15806786D01*
X12783928Y-15835357D01*
X12798214Y-15892500D01*
X12798214Y-15963929D01*
X12783928Y-16021071D01*
X12769643Y-16049643D01*
X12755357Y-16063929D01*
X12726786Y-16078214D01*
X12698214Y-16078214D01*
X12669643Y-16063929D01*
X12655357Y-16049643D01*
X12641071Y-16021071D01*
X12626786Y-15963929D01*
X12626786Y-15892500D01*
X12641071Y-15835357D01*
X12655357Y-15806786D01*
X12669643Y-15792500D01*
X12698214Y-15778214D01*
X12926786Y-16049643D02*
X12941071Y-16063929D01*
X12926786Y-16078214D01*
X12912500Y-16063929D01*
X12926786Y-16049643D01*
X12926786Y-16078214D01*
X13126786Y-15778214D02*
X13155357Y-15778214D01*
X13183928Y-15792500D01*
X13198214Y-15806786D01*
X13212500Y-15835357D01*
X13226786Y-15892500D01*
X13226786Y-15963929D01*
X13212500Y-16021071D01*
X13198214Y-16049643D01*
X13183928Y-16063929D01*
X13155357Y-16078214D01*
X13126786Y-16078214D01*
X13098214Y-16063929D01*
X13083928Y-16049643D01*
X13069643Y-16021071D01*
X13055357Y-15963929D01*
X13055357Y-15892500D01*
X13069643Y-15835357D01*
X13083928Y-15806786D01*
X13098214Y-15792500D01*
X13126786Y-15778214D01*
X13326786Y-15778214D02*
X13526786Y-15778214D01*
X13398214Y-16078214D01*
X13698214Y-15778214D02*
X13726786Y-15778214D01*
X13755357Y-15792500D01*
X13769643Y-15806786D01*
X13783928Y-15835357D01*
X13798214Y-15892500D01*
X13798214Y-15963929D01*
X13783928Y-16021071D01*
X13769643Y-16049643D01*
X13755357Y-16063929D01*
X13726786Y-16078214D01*
X13698214Y-16078214D01*
X13669643Y-16063929D01*
X13655357Y-16049643D01*
X13641071Y-16021071D01*
X13626786Y-15963929D01*
X13626786Y-15892500D01*
X13641071Y-15835357D01*
X13655357Y-15806786D01*
X13669643Y-15792500D01*
X13698214Y-15778214D01*
X14083928Y-16078214D02*
X13912500Y-16078214D01*
X13998214Y-16078214D02*
X13998214Y-15778214D01*
X13969643Y-15821071D01*
X13941071Y-15849643D01*
X13912500Y-15863929D01*
X14198214Y-15778214D02*
X14198214Y-15835357D01*
X14312500Y-15778214D02*
X14312500Y-15835357D01*
X14755357Y-16192500D02*
X14741071Y-16178214D01*
X14712500Y-16135357D01*
X14698214Y-16106786D01*
X14683928Y-16063929D01*
X14669643Y-15992500D01*
X14669643Y-15935357D01*
X14683928Y-15863929D01*
X14698214Y-15821071D01*
X14712500Y-15792500D01*
X14741071Y-15749643D01*
X14755357Y-15735357D01*
X14998214Y-15878214D02*
X14998214Y-16078214D01*
X14926786Y-15763929D02*
X14855357Y-15978214D01*
X15041071Y-15978214D01*
X15383928Y-16078214D02*
X15383928Y-15778214D01*
X15512500Y-16078214D02*
X15512500Y-15921071D01*
X15498214Y-15892500D01*
X15469643Y-15878214D01*
X15426786Y-15878214D01*
X15398214Y-15892500D01*
X15383928Y-15906786D01*
X15698214Y-16078214D02*
X15669643Y-16063929D01*
X15655357Y-16049643D01*
X15641071Y-16021071D01*
X15641071Y-15935357D01*
X15655357Y-15906786D01*
X15669643Y-15892500D01*
X15698214Y-15878214D01*
X15741071Y-15878214D01*
X15769643Y-15892500D01*
X15783928Y-15906786D01*
X15798214Y-15935357D01*
X15798214Y-16021071D01*
X15783928Y-16049643D01*
X15769643Y-16063929D01*
X15741071Y-16078214D01*
X15698214Y-16078214D01*
X15969643Y-16078214D02*
X15941071Y-16063929D01*
X15926786Y-16035357D01*
X15926786Y-15778214D01*
X16198214Y-16063929D02*
X16169643Y-16078214D01*
X16112500Y-16078214D01*
X16083928Y-16063929D01*
X16069643Y-16035357D01*
X16069643Y-15921071D01*
X16083928Y-15892500D01*
X16112500Y-15878214D01*
X16169643Y-15878214D01*
X16198214Y-15892500D01*
X16212500Y-15921071D01*
X16212500Y-15949643D01*
X16069643Y-15978214D01*
X16326786Y-16063929D02*
X16355357Y-16078214D01*
X16412500Y-16078214D01*
X16441071Y-16063929D01*
X16455357Y-16035357D01*
X16455357Y-16021071D01*
X16441071Y-15992500D01*
X16412500Y-15978214D01*
X16369643Y-15978214D01*
X16341071Y-15963929D01*
X16326786Y-15935357D01*
X16326786Y-15921071D01*
X16341071Y-15892500D01*
X16369643Y-15878214D01*
X16412500Y-15878214D01*
X16441071Y-15892500D01*
X16555357Y-16192500D02*
X16569643Y-16178214D01*
X16598214Y-16135357D01*
X16612500Y-16106786D01*
X16626786Y-16063929D01*
X16641071Y-15992500D01*
X16641071Y-15935357D01*
X16626786Y-15863929D01*
X16612500Y-15821071D01*
X16598214Y-15792500D01*
X16569643Y-15749643D01*
X16555357Y-15735357D01*
M02*
