%TF.GenerationSoftware,KiCad,Pcbnew,(5.1.10)-1*%
%TF.CreationDate,2021-05-24T14:39:04+01:00*%
%TF.ProjectId,FloppyDiskController,466c6f70-7079-4446-9973-6b436f6e7472,rev?*%
%TF.SameCoordinates,Original*%
%TF.FileFunction,Soldermask,Bot*%
%TF.FilePolarity,Negative*%
%FSLAX46Y46*%
G04 Gerber Fmt 4.6, Leading zero omitted, Abs format (unit mm)*
G04 Created by KiCad (PCBNEW (5.1.10)-1) date 2021-05-24 14:39:04*
%MOMM*%
%LPD*%
G01*
G04 APERTURE LIST*
%TA.AperFunction,Profile*%
%ADD10C,0.050000*%
%TD*%
%ADD11C,2.780000*%
%ADD12R,2.780000X2.780000*%
%ADD13C,1.600000*%
%ADD14R,1.600000X1.600000*%
%ADD15O,1.600000X1.600000*%
%ADD16C,1.422400*%
%ADD17R,1.422400X1.422400*%
%ADD18R,1.300000X1.300000*%
%ADD19C,1.300000*%
%ADD20O,1.700000X1.700000*%
%ADD21R,1.700000X1.700000*%
%ADD22C,1.550000*%
%ADD23C,2.850000*%
%ADD24C,1.800000*%
%ADD25R,1.800000X1.800000*%
G04 APERTURE END LIST*
D10*
X86360000Y-66040000D02*
X86360000Y-58928000D01*
X104140000Y-56388000D02*
X88900000Y-56388000D01*
X104140000Y-127000000D02*
X88900000Y-127000000D01*
X195580000Y-56388000D02*
X104140000Y-56388000D01*
X198120000Y-66294000D02*
X198120000Y-58928000D01*
X198120000Y-124460000D02*
G75*
G02*
X195580000Y-127000000I-2540000J0D01*
G01*
X195580000Y-56388000D02*
G75*
G02*
X198120000Y-58928000I0J-2540000D01*
G01*
X86360000Y-58928000D02*
G75*
G02*
X88900000Y-56388000I2540000J0D01*
G01*
X88900000Y-127000000D02*
G75*
G02*
X86360000Y-124460000I0J2540000D01*
G01*
X86360000Y-66040000D02*
X86360000Y-124460000D01*
X198120000Y-124460000D02*
X198120000Y-66294000D01*
X104140000Y-127000000D02*
X195580000Y-127000000D01*
D11*
%TO.C,J4*%
X112268000Y-66548000D03*
X107188000Y-66548000D03*
X102108000Y-66548000D03*
D12*
X97028000Y-66548000D03*
%TD*%
D13*
%TO.C,C8*%
X100330000Y-115062000D03*
D14*
X97830000Y-115062000D03*
%TD*%
D13*
%TO.C,C7*%
X122936000Y-65532000D03*
D14*
X120436000Y-65532000D03*
%TD*%
D13*
%TO.C,X1*%
X178308000Y-71882000D03*
X178308000Y-64262000D03*
X163068000Y-64262000D03*
D14*
X163068000Y-71882000D03*
%TD*%
D15*
%TO.C,U3*%
X132588000Y-78740000D03*
X180848000Y-93980000D03*
X135128000Y-78740000D03*
X178308000Y-93980000D03*
X137668000Y-78740000D03*
X175768000Y-93980000D03*
X140208000Y-78740000D03*
X173228000Y-93980000D03*
X142748000Y-78740000D03*
X170688000Y-93980000D03*
X145288000Y-78740000D03*
X168148000Y-93980000D03*
X147828000Y-78740000D03*
X165608000Y-93980000D03*
X150368000Y-78740000D03*
X163068000Y-93980000D03*
X152908000Y-78740000D03*
X160528000Y-93980000D03*
X155448000Y-78740000D03*
X157988000Y-93980000D03*
X157988000Y-78740000D03*
X155448000Y-93980000D03*
X160528000Y-78740000D03*
X152908000Y-93980000D03*
X163068000Y-78740000D03*
X150368000Y-93980000D03*
X165608000Y-78740000D03*
X147828000Y-93980000D03*
X168148000Y-78740000D03*
X145288000Y-93980000D03*
X170688000Y-78740000D03*
X142748000Y-93980000D03*
X173228000Y-78740000D03*
X140208000Y-93980000D03*
X175768000Y-78740000D03*
X137668000Y-93980000D03*
X178308000Y-78740000D03*
X135128000Y-93980000D03*
X180848000Y-78740000D03*
D14*
X132588000Y-93980000D03*
%TD*%
D16*
%TO.C,U2*%
X118618000Y-91948000D03*
X118618000Y-94488000D03*
X118618000Y-97028000D03*
X118618000Y-99568000D03*
X118618000Y-102108000D03*
X116078000Y-89408000D03*
X116078000Y-94488000D03*
X116078000Y-97028000D03*
X116078000Y-99568000D03*
X116078000Y-102108000D03*
X116078000Y-104648000D03*
X116078000Y-107188000D03*
X113538000Y-107188000D03*
X110998000Y-107188000D03*
X108458000Y-107188000D03*
X105918000Y-107188000D03*
X103378000Y-107188000D03*
X118618000Y-104648000D03*
X113538000Y-104648000D03*
X110998000Y-104648000D03*
X108458000Y-104648000D03*
X105918000Y-104648000D03*
X103378000Y-104648000D03*
X100838000Y-104648000D03*
X100838000Y-102108000D03*
X100838000Y-99568000D03*
X100838000Y-97028000D03*
X100838000Y-94488000D03*
X100838000Y-91948000D03*
X103378000Y-102108000D03*
X103378000Y-99568000D03*
X103378000Y-97028000D03*
X103378000Y-94488000D03*
X103378000Y-91948000D03*
X113538000Y-89408000D03*
X110998000Y-89408000D03*
X103378000Y-89408000D03*
X105918000Y-89408000D03*
X108458000Y-89408000D03*
X116078000Y-91948000D03*
X113538000Y-91948000D03*
X105918000Y-91948000D03*
X108458000Y-91948000D03*
D17*
X110998000Y-91948000D03*
%TD*%
D15*
%TO.C,U1*%
X132588000Y-99822000D03*
X147828000Y-107442000D03*
X135128000Y-99822000D03*
X145288000Y-107442000D03*
X137668000Y-99822000D03*
X142748000Y-107442000D03*
X140208000Y-99822000D03*
X140208000Y-107442000D03*
X142748000Y-99822000D03*
X137668000Y-107442000D03*
X145288000Y-99822000D03*
X135128000Y-107442000D03*
X147828000Y-99822000D03*
D14*
X132588000Y-107442000D03*
%TD*%
D15*
%TO.C,RN1*%
X152908000Y-72898000D03*
X150368000Y-72898000D03*
X147828000Y-72898000D03*
X145288000Y-72898000D03*
X142748000Y-72898000D03*
X140208000Y-72898000D03*
X137668000Y-72898000D03*
X135128000Y-72898000D03*
D14*
X132588000Y-72898000D03*
%TD*%
D15*
%TO.C,R2*%
X173736000Y-106934000D03*
D13*
X183896000Y-106934000D03*
%TD*%
D15*
%TO.C,R1*%
X183896000Y-110744000D03*
D13*
X173736000Y-110744000D03*
%TD*%
D18*
%TO.C,Q1*%
X181102000Y-102108000D03*
D19*
X183642000Y-102108000D03*
X182372000Y-100838000D03*
%TD*%
D20*
%TO.C,J3*%
X193040000Y-101600000D03*
X190500000Y-101600000D03*
X193040000Y-99060000D03*
X190500000Y-99060000D03*
X193040000Y-96520000D03*
X190500000Y-96520000D03*
X193040000Y-93980000D03*
X190500000Y-93980000D03*
X193040000Y-91440000D03*
X190500000Y-91440000D03*
X193040000Y-88900000D03*
X190500000Y-88900000D03*
X193040000Y-86360000D03*
X190500000Y-86360000D03*
X193040000Y-83820000D03*
X190500000Y-83820000D03*
X193040000Y-81280000D03*
X190500000Y-81280000D03*
X193040000Y-78740000D03*
X190500000Y-78740000D03*
X193040000Y-76200000D03*
X190500000Y-76200000D03*
X193040000Y-73660000D03*
X190500000Y-73660000D03*
X193040000Y-71120000D03*
X190500000Y-71120000D03*
X193040000Y-68580000D03*
X190500000Y-68580000D03*
X193040000Y-66040000D03*
X190500000Y-66040000D03*
X193040000Y-63500000D03*
X190500000Y-63500000D03*
X193040000Y-60960000D03*
D21*
X190500000Y-60960000D03*
%TD*%
D20*
%TO.C,J2*%
X92456000Y-108458000D03*
X89916000Y-108458000D03*
X92456000Y-105918000D03*
X89916000Y-105918000D03*
X92456000Y-103378000D03*
X89916000Y-103378000D03*
X92456000Y-100838000D03*
X89916000Y-100838000D03*
X92456000Y-98298000D03*
X89916000Y-98298000D03*
X92456000Y-95758000D03*
X89916000Y-95758000D03*
X92456000Y-93218000D03*
D21*
X89916000Y-93218000D03*
%TD*%
D22*
%TO.C,J1*%
X104902000Y-115062000D03*
X107442000Y-115062000D03*
X109982000Y-115062000D03*
X112522000Y-115062000D03*
X115062000Y-115062000D03*
X117602000Y-115062000D03*
X120142000Y-115062000D03*
X122682000Y-115062000D03*
X125222000Y-115062000D03*
X127762000Y-115062000D03*
X130302000Y-115062000D03*
X132842000Y-115062000D03*
X135382000Y-115062000D03*
X137922000Y-115062000D03*
X140462000Y-115062000D03*
X143002000Y-115062000D03*
X145542000Y-115062000D03*
X148082000Y-115062000D03*
X150622000Y-115062000D03*
X153162000Y-115062000D03*
X155702000Y-115062000D03*
X158242000Y-115062000D03*
X160782000Y-115062000D03*
X163322000Y-115062000D03*
X165862000Y-115062000D03*
X168402000Y-115062000D03*
X170942000Y-115062000D03*
X173482000Y-115062000D03*
X176022000Y-115062000D03*
X178562000Y-115062000D03*
X181102000Y-115062000D03*
X183642000Y-115062000D03*
X104902000Y-120142000D03*
X107442000Y-120142000D03*
X109982000Y-120142000D03*
X112522000Y-120142000D03*
X115062000Y-120142000D03*
X117602000Y-120142000D03*
X120142000Y-120142000D03*
X122682000Y-120142000D03*
X125222000Y-120142000D03*
X127762000Y-120142000D03*
X130302000Y-120142000D03*
X132842000Y-120142000D03*
X135382000Y-120142000D03*
X137922000Y-120142000D03*
X140462000Y-120142000D03*
X143002000Y-120142000D03*
X145542000Y-120142000D03*
X148082000Y-120142000D03*
X150622000Y-120142000D03*
X153162000Y-120142000D03*
X155702000Y-120142000D03*
X158242000Y-120142000D03*
X160782000Y-120142000D03*
X163322000Y-120142000D03*
X165862000Y-120142000D03*
X168402000Y-120142000D03*
X170942000Y-120142000D03*
X173482000Y-120142000D03*
X176022000Y-120142000D03*
X178562000Y-120142000D03*
X181102000Y-120142000D03*
G36*
G01*
X184417000Y-119616999D02*
X184417000Y-120667001D01*
G75*
G02*
X184167001Y-120917000I-249999J0D01*
G01*
X183116999Y-120917000D01*
G75*
G02*
X182867000Y-120667001I0J249999D01*
G01*
X182867000Y-119616999D01*
G75*
G02*
X183116999Y-119367000I249999J0D01*
G01*
X184167001Y-119367000D01*
G75*
G02*
X184417000Y-119616999I0J-249999D01*
G01*
G37*
D23*
X99822000Y-122682000D03*
X188722000Y-122682000D03*
%TD*%
D24*
%TO.C,D1*%
X193548000Y-114300000D03*
D25*
X191008000Y-114300000D03*
%TD*%
D13*
%TO.C,C6*%
X92456000Y-88392000D03*
X89956000Y-88392000D03*
%TD*%
%TO.C,C5*%
X130048000Y-76200000D03*
X127548000Y-76200000D03*
%TD*%
%TO.C,C4*%
X177546000Y-102108000D03*
X175046000Y-102108000D03*
%TD*%
%TO.C,C3*%
X193254000Y-106680000D03*
X190754000Y-106680000D03*
%TD*%
%TO.C,C2*%
X93726000Y-115062000D03*
X91226000Y-115062000D03*
%TD*%
%TO.C,C1*%
X100584000Y-84328000D03*
X98084000Y-84328000D03*
%TD*%
M02*
