M48
; DRILL file {KiCad (5.1.10)-1} date 05/24/21 14:39:58
; FORMAT={-:-/ absolute / inch / decimal}
; #@! TF.CreationDate,2021-05-24T14:39:58+01:00
; #@! TF.GenerationSoftware,Kicad,Pcbnew,(5.1.10)-1
FMAT,2
INCH
T1C0.0157
T2C0.0295
T3C0.0315
T4C0.0354
T5C0.0394
T6C0.0701
T7C0.1122
%
G90
G05
T1
X3.74Y-3.87
X3.74Y-4.12
X3.76Y-2.8
X3.77Y-4.64
X3.79Y-3.77
X3.79Y-4.07
X3.91Y-3.0
X4.01Y-4.37
X4.04Y-3.15
X4.07Y-4.46
X4.08Y-3.1
X4.12Y-2.89
X4.17Y-3.05
X4.17Y-4.42
X4.22Y-3.37
X4.22Y-3.92
X4.22Y-4.33
X4.23Y-4.64
X4.27Y-3.2
X4.28Y-4.6
X4.32Y-3.29
X4.32Y-4.38
X4.38Y-4.64
X4.42Y-2.8
X4.42Y-3.25
X4.42Y-3.87
X4.47Y-3.73
X4.48Y-4.83
X4.81Y-3.0
X4.81Y-3.57
X4.81Y-3.33
X4.88Y-3.05
X4.93Y-3.1
X4.98Y-3.15
X5.08Y-3.37
X5.13Y-3.2
X5.28Y-4.68
X5.32Y-2.6
X5.32Y-3.79
X5.34Y-3.37
X5.34Y-3.55
X5.42Y-3.55
X5.48Y-4.82
X5.52Y-2.54
X5.57Y-3.29
X5.62Y-2.33
X5.66Y-2.37
X5.67Y-4.09
X5.68Y-4.58
X5.72Y-2.44
X5.77Y-4.05
X5.82Y-3.0
X5.82Y-3.25
X5.83Y-4.64
X5.87Y-2.75
X5.88Y-4.42
X5.92Y-3.41
X5.93Y-4.6
X5.97Y-2.7
X5.97Y-3.77
X5.97Y-4.38
X5.98Y-4.46
X6.02Y-3.33
X6.02Y-4.4
X6.07Y-4.32
X6.12Y-3.45
X6.13Y-4.18
X6.17Y-2.65
X6.17Y-3.21
X6.18Y-4.44
X6.22Y-2.95
X6.22Y-3.5
X6.28Y-4.6
X6.32Y-3.25
X6.32Y-3.37
X6.32Y-3.95
X6.33Y-4.2
X6.42Y-3.59
X6.43Y-4.6
X6.47Y-3.95
X6.52Y-3.35
X6.52Y-3.63
X6.52Y-4.2
X6.53Y-4.44
X6.57Y-3.41
X6.58Y-4.4
X6.62Y-4.01
X6.62Y-3.45
X6.67Y-3.3
X6.72Y-3.3
X6.72Y-4.1
X6.82Y-3.9
X6.92Y-3.83
X7.02Y-3.77
X7.07Y-3.3
X7.07Y-3.85
X7.11Y-2.33
X7.16Y-2.7
X7.16Y-2.85
X7.21Y-2.6
X7.21Y-3.65
X7.32Y-2.44
X7.32Y-3.95
X7.37Y-3.21
X7.41Y-4.29
T2
X7.13Y-4.02
X7.18Y-3.97
X7.23Y-4.02
T3
X3.5416Y-3.48
X3.5916Y-4.53
X3.64Y-3.48
X3.69Y-4.53
X3.8516Y-4.53
X3.8616Y-3.32
X3.95Y-4.53
X3.96Y-3.32
X3.97Y-3.62
X3.97Y-3.72
X3.97Y-3.82
X3.97Y-3.92
X3.97Y-4.02
X3.97Y-4.12
X4.07Y-3.52
X4.07Y-3.62
X4.07Y-3.72
X4.07Y-3.82
X4.07Y-3.92
X4.07Y-4.02
X4.07Y-4.12
X4.07Y-4.22
X4.17Y-3.52
X4.17Y-3.62
X4.17Y-4.12
X4.17Y-4.22
X4.27Y-3.52
X4.27Y-3.62
X4.27Y-4.12
X4.27Y-4.22
X4.37Y-3.52
X4.37Y-3.62
X4.37Y-4.12
X4.37Y-4.22
X4.47Y-3.52
X4.47Y-3.62
X4.47Y-4.12
X4.47Y-4.22
X4.57Y-3.52
X4.57Y-3.62
X4.57Y-3.72
X4.57Y-3.82
X4.57Y-3.92
X4.57Y-4.02
X4.57Y-4.12
X4.57Y-4.22
X4.67Y-3.62
X4.67Y-3.72
X4.67Y-3.82
X4.67Y-3.92
X4.67Y-4.02
X4.67Y-4.12
X4.7416Y-2.58
X4.84Y-2.58
X5.0216Y-3.0
X5.12Y-3.0
X5.22Y-2.87
X5.22Y-3.1
X5.22Y-3.7
X5.22Y-3.93
X5.22Y-4.23
X5.32Y-2.87
X5.32Y-3.1
X5.32Y-3.7
X5.32Y-3.93
X5.32Y-4.23
X5.42Y-2.87
X5.42Y-3.1
X5.42Y-3.7
X5.42Y-3.93
X5.42Y-4.23
X5.52Y-2.87
X5.52Y-3.1
X5.52Y-3.7
X5.52Y-3.93
X5.52Y-4.23
X5.62Y-2.87
X5.62Y-3.1
X5.62Y-3.7
X5.62Y-3.93
X5.62Y-4.23
X5.72Y-2.87
X5.72Y-3.1
X5.72Y-3.7
X5.72Y-3.93
X5.72Y-4.23
X5.82Y-2.87
X5.82Y-3.1
X5.82Y-3.7
X5.82Y-3.93
X5.82Y-4.23
X5.92Y-2.87
X5.92Y-3.1
X5.92Y-3.7
X6.02Y-2.87
X6.02Y-3.1
X6.02Y-3.7
X6.12Y-3.1
X6.12Y-3.7
X6.22Y-3.1
X6.22Y-3.7
X6.32Y-3.1
X6.32Y-3.7
X6.42Y-2.53
X6.42Y-2.83
X6.42Y-3.1
X6.42Y-3.7
X6.52Y-3.1
X6.52Y-3.7
X6.62Y-3.1
X6.62Y-3.7
X6.72Y-3.1
X6.72Y-3.7
X6.82Y-3.1
X6.82Y-3.7
X6.84Y-4.21
X6.84Y-4.36
X6.8916Y-4.02
X6.92Y-3.1
X6.92Y-3.7
X6.99Y-4.02
X7.02Y-2.53
X7.02Y-2.83
X7.02Y-3.1
X7.02Y-3.7
X7.12Y-3.1
X7.12Y-3.7
X7.24Y-4.21
X7.24Y-4.36
X7.51Y-4.2
X7.6084Y-4.2
T4
X7.52Y-4.5
X7.62Y-4.5
T5
X3.54Y-3.67
X3.54Y-3.77
X3.54Y-3.87
X3.54Y-3.97
X3.54Y-4.07
X3.54Y-4.17
X3.54Y-4.27
X3.64Y-3.67
X3.64Y-3.77
X3.64Y-3.87
X3.64Y-3.97
X3.64Y-4.07
X3.64Y-4.17
X3.64Y-4.27
X4.13Y-4.53
X4.13Y-4.73
X4.23Y-4.53
X4.23Y-4.73
X4.33Y-4.53
X4.33Y-4.73
X4.43Y-4.53
X4.43Y-4.73
X4.53Y-4.53
X4.53Y-4.73
X4.63Y-4.53
X4.63Y-4.73
X4.73Y-4.53
X4.73Y-4.73
X4.83Y-4.53
X4.83Y-4.73
X4.93Y-4.53
X4.93Y-4.73
X5.03Y-4.53
X5.03Y-4.73
X5.13Y-4.53
X5.13Y-4.73
X5.23Y-4.53
X5.23Y-4.73
X5.33Y-4.53
X5.33Y-4.73
X5.43Y-4.53
X5.43Y-4.73
X5.53Y-4.53
X5.53Y-4.73
X5.63Y-4.53
X5.63Y-4.73
X5.73Y-4.53
X5.73Y-4.73
X5.83Y-4.53
X5.83Y-4.73
X5.93Y-4.53
X5.93Y-4.73
X6.03Y-4.53
X6.03Y-4.73
X6.13Y-4.53
X6.13Y-4.73
X6.23Y-4.53
X6.23Y-4.73
X6.33Y-4.53
X6.33Y-4.73
X6.43Y-4.53
X6.43Y-4.73
X6.53Y-4.53
X6.53Y-4.73
X6.63Y-4.53
X6.63Y-4.73
X6.73Y-4.53
X6.73Y-4.73
X6.83Y-4.53
X6.83Y-4.73
X6.93Y-4.53
X6.93Y-4.73
X7.03Y-4.53
X7.03Y-4.73
X7.13Y-4.53
X7.13Y-4.73
X7.23Y-4.53
X7.23Y-4.73
X7.5Y-2.4
X7.5Y-2.5
X7.5Y-2.6
X7.5Y-2.7
X7.5Y-2.8
X7.5Y-2.9
X7.5Y-3.0
X7.5Y-3.1
X7.5Y-3.2
X7.5Y-3.3
X7.5Y-3.4
X7.5Y-3.5
X7.5Y-3.6
X7.5Y-3.7
X7.5Y-3.8
X7.5Y-3.9
X7.5Y-4.0
X7.6Y-2.4
X7.6Y-2.5
X7.6Y-2.6
X7.6Y-2.7
X7.6Y-2.8
X7.6Y-2.9
X7.6Y-3.0
X7.6Y-3.1
X7.6Y-3.2
X7.6Y-3.3
X7.6Y-3.4
X7.6Y-3.5
X7.6Y-3.6
X7.6Y-3.7
X7.6Y-3.8
X7.6Y-3.9
X7.6Y-4.0
T6
X3.82Y-2.62
X4.02Y-2.62
X4.22Y-2.62
X4.42Y-2.62
T7
X3.93Y-4.83
X7.43Y-4.83
T0
M30
