M48
; DRILL file {KiCad (5.1.10)-1} date 12/01/21 13:22:27
; FORMAT={-:-/ absolute / inch / decimal}
; #@! TF.CreationDate,2021-12-01T13:22:27+00:00
; #@! TF.GenerationSoftware,Kicad,Pcbnew,(5.1.10)-1
; #@! TF.FileFunction,Plated,1,4,PTH
FMAT,2
INCH
T1C0.0157
T2C0.0295
T3C0.0300
T4C0.0315
T5C0.0320
T6C0.0354
T7C0.0394
T8C0.0433
T9C0.0550
T10C0.0591
T11C0.0906
T12C0.1000
T13C0.1180
T14C0.1260
%
G90
G05
T1
X2.48Y-5.9
X2.48Y-7.81
X2.48Y-8.8
X2.51Y-5.24
X2.51Y-5.59
X2.58Y-2.36
X2.58Y-7.06
X2.805Y-2.12
X2.81Y-5.64
X2.83Y-5.09
X2.875Y-3.515
X2.88Y-4.89
X2.88Y-5.09
X2.89Y-5.9
X2.93Y-8.55
X2.95Y-7.28
X2.95Y-7.76
X2.96Y-7.85
X2.985Y-6.84
X3.0Y-7.105
X3.0Y-8.22
X3.04Y-6.8
X3.04Y-8.26
X3.06Y-8.77
X3.07Y-2.36
X3.07Y-5.64
X3.08Y-4.69
X3.08Y-5.06
X3.08Y-7.97
X3.085Y-7.18
X3.125Y-6.0
X3.16Y-7.225
X3.21Y-7.06
X3.24Y-9.04
X3.28Y-3.49
X3.285Y-6.69
X3.31Y-7.225
X3.31Y-7.56
X3.32Y-8.42
X3.32Y-8.67
X3.32Y-8.82
X3.33Y-3.54
X3.385Y-3.59
X3.385Y-7.1
X3.39Y-7.94
X3.43Y-4.75
X3.43Y-4.99
X3.435Y-2.49
X3.435Y-4.69
X3.435Y-5.14
X3.435Y-5.925
X3.45Y-8.12
X3.485Y-3.64
X3.485Y-6.8
X3.49Y-7.28
X3.55Y-7.885
X3.57Y-8.57
X3.585Y-3.695
X3.61Y-8.87
X3.685Y-3.79
X3.685Y-7.275
X3.7Y-7.69
X3.7Y-8.03
X3.785Y-7.19
X3.785Y-3.84
X3.835Y-7.275
X3.835Y-7.69
X3.84Y-9.04
X3.87Y-9.725
X3.885Y-3.89
X3.885Y-7.19
X3.895Y-7.6
X3.94Y-7.94
X3.955Y-5.135
X3.955Y-5.89
X4.005Y-2.315
X4.01Y-5.04
X4.03Y-5.49
X4.04Y-7.34
X4.135Y-6.84
X4.14Y-9.725
X4.15Y-8.57
X4.15Y-9.04
X4.23Y-5.64
X4.235Y-7.12
X4.25Y-5.025
X4.25Y-7.85
X4.25Y-8.03
X4.26Y-2.36
X4.29Y-8.44
X4.32Y-9.14
X4.335Y-7.155
X4.435Y-7.205
X4.45Y-2.12
X4.45Y-2.54
X4.45Y-3.89
X4.49Y-7.64
X4.5Y-3.94
X4.535Y-6.77
X4.54Y-7.83
X4.54Y-9.7605
X4.54Y-9.88
X4.55Y-3.99
X4.585Y-6.195
X4.59Y-3.39
X4.59Y-5.14
X4.59Y-5.96
X4.59Y-7.76
X4.635Y-4.04
X4.635Y-6.73
X4.65Y-8.26
X4.685Y-5.04
X4.7Y-7.205
X4.7Y-7.53
X4.7Y-8.94
X4.7Y-9.25
X4.735Y-4.09
X4.735Y-6.805
X4.735Y-8.54
X4.74Y-7.95
X4.755Y-2.09
X4.76Y-8.94
X4.79Y-8.2
X4.79Y-6.77
X4.8Y-8.355
X4.835Y-4.175
X4.885Y-5.24
X4.885Y-6.5
X4.885Y-8.635
X4.935Y-4.24
X4.935Y-7.26
X4.94Y-8.02
X4.94Y-8.235
X4.95Y-2.04
X4.985Y-6.24
X5.035Y-4.29
X5.12Y-5.04
X5.12Y-6.335
X5.16Y-6.3
X5.175Y-6.77
X5.175Y-8.245
X5.19Y-2.59
X5.2Y-3.43
X5.2Y-3.49
X5.2Y-5.04
X5.21Y-5.585
X5.21Y-6.17
X5.215Y-7.985
X5.26Y-8.165
X5.26Y-8.74
X5.285Y-6.09
X5.285Y-6.84
X5.32Y-9.635
X5.385Y-7.05
X5.4Y-5.64
X5.41Y-6.0
X5.42Y-2.36
X5.485Y-7.3
X5.52Y-9.195
X5.535Y-5.8
X5.535Y-6.25
X5.535Y-6.985
X5.585Y-6.77
X5.585Y-8.345
X5.585Y-8.945
X5.61Y-4.29
X5.635Y-6.77
X5.66Y-4.34
X5.71Y-4.39
X5.735Y-6.54
X5.755Y-5.14
X5.785Y-7.225
X5.835Y-6.035
X5.835Y-6.205
X5.835Y-6.5
X5.855Y-9.37
X5.885Y-7.335
X5.89Y-2.535
X5.89Y-5.8
X5.89Y-9.115
X5.92Y-5.89
X5.92Y-6.01
X5.935Y-7.405
X5.985Y-7.015
X5.985Y-8.485
X6.035Y-7.87
X6.085Y-9.5547
X6.13Y-7.085
X6.235Y-8.345
X6.235Y-8.765
X6.25Y-2.225
X6.25Y-5.19
X6.3Y-2.495
X6.3Y-5.04
X6.305Y-5.195
X6.305Y-5.29
X6.31Y-6.805
X6.31Y-7.19
X6.345Y-6.73
X6.36Y-2.425
X6.38Y-4.89
X6.38Y-5.665
X6.385Y-8.235
X6.39Y-9.46
X6.395Y-2.32
X6.41Y-8.565
X6.425Y-6.27
X6.435Y-6.805
X6.445Y-8.09
X6.46Y-8.235
X6.485Y-6.27
X6.485Y-6.505
X6.485Y-6.725
X6.485Y-7.37
X6.485Y-7.95
X6.535Y-6.505
X6.535Y-7.05
X6.56Y-2.565
X6.56Y-3.625
X6.57Y-2.36
X6.575Y-4.415
X6.575Y-5.04
X6.575Y-5.09
X6.575Y-5.24
X6.58Y-5.62
X6.585Y-7.525
X6.635Y-6.725
X6.655Y-7.945
X6.685Y-7.56
X6.71Y-8.945
X6.71Y-9.46
X6.735Y-5.625
X6.735Y-6.77
X6.745Y-4.99
X6.745Y-5.39
X6.755Y-8.565
X6.7844Y-2.59
X6.785Y-2.34
X6.785Y-6.17
X6.785Y-6.54
X6.8Y-7.945
X6.82Y-8.565
X6.83Y-2.44
X6.83Y-2.64
X6.845Y-9.425
X6.845Y-9.61
X6.87Y-2.115
X6.87Y-4.235
X6.87Y-8.6
X6.885Y-6.69
X6.92Y-9.605
X6.935Y-7.225
X6.935Y-7.525
X6.95Y-7.91
X6.955Y-3.295
X6.955Y-3.705
X6.955Y-3.765
X6.955Y-4.62
X6.98Y-6.47
X6.98Y-6.76
X6.98Y-9.5547
X6.98Y-9.65
X6.995Y-4.135
X6.995Y-4.655
X7.02Y-8.3
X7.035Y-7.335
X7.035Y-8.165
X7.04Y-4.1
X7.04Y-4.59
X7.04Y-5.23
X7.05Y-2.1
X7.05Y-5.445
X7.07Y-8.99
X7.07Y-9.31
X7.085Y-6.05
X7.085Y-6.47
X7.085Y-7.985
X7.09Y-6.69
X7.11Y-2.54
X7.12Y-8.78
X7.12Y-9.045
X7.135Y-7.015
X7.15Y-2.05
X7.15Y-2.285
X7.16Y-2.64
X7.17Y-8.6
X7.185Y-7.87
X7.215Y-2.74
X7.235Y-7.085
X7.255Y-2.84
X7.275Y-8.565
X7.29Y-2.94
X7.3Y-7.68
X7.32Y-8.965
X7.32Y-9.385
X7.335Y-3.04
X7.335Y-7.56
X7.335Y-8.155
X7.37Y-7.8
X7.37Y-8.45
X7.385Y-1.975
X7.385Y-2.74
X7.385Y-4.935
X7.385Y-5.135
X7.385Y-5.43
X7.42Y-7.37
X7.42Y-8.2
X7.42Y-8.78
X7.42Y-9.55
X7.42Y-9.65
X7.445Y-8.54
X7.45Y-3.17
X7.45Y-5.14
X7.465Y-7.05
X7.47Y-9.08
X7.47Y-9.79
X7.49Y-4.835
X7.5Y-2.01
X7.5Y-2.93
X7.5Y-3.555
X7.515Y-5.085
X7.52Y-8.49
X7.52Y-9.0
X7.52Y-9.605
X7.53Y-6.015
X7.545Y-2.495
X7.57Y-9.27
X7.585Y-6.805
X7.6Y-7.335
X7.62Y-9.045
X7.635Y-6.725
X7.65Y-6.0
X7.65Y-6.335
X7.675Y-3.49
X7.675Y-4.335
X7.68Y-5.28
X7.68Y-5.53
X7.685Y-6.725
X7.695Y-6.24
X7.705Y-5.68
X7.705Y-5.89
X7.71Y-2.395
X7.71Y-4.535
X7.72Y-8.775
X7.72Y-9.085
X7.74Y-4.635
X7.745Y-2.29
X7.745Y-5.535
X7.76Y-8.45
X7.785Y-3.095
X7.785Y-7.05
X7.82Y-9.045
X7.83Y-3.125
X7.835Y-6.335
X7.87Y-8.81
X7.87Y-8.965
X7.885Y-7.5
X7.92Y-9.0
X7.935Y-6.255
X7.935Y-7.19
X7.935Y-7.4
X7.97Y-5.1
X7.97Y-7.945
X7.97Y-8.045
X7.98Y-4.29
X7.98Y-4.785
X7.985Y-7.45
X8.015Y-4.39
X8.015Y-5.63
X8.02Y-7.88
X8.02Y-8.0
X8.02Y-9.0
X8.035Y-5.7
X8.035Y-6.2
X8.055Y-3.205
X8.07Y-7.5
X8.09Y-3.25
X8.12Y-7.595
X8.12Y-8.81
X8.12Y-9.2
X8.135Y-5.58
X8.135Y-5.935
X8.135Y-6.265
X8.17Y-7.26
X8.175Y-3.765
X8.175Y-4.835
X8.215Y-4.43
X8.215Y-4.735
X8.22Y-9.045
X8.235Y-6.225
X8.245Y-3.25
X8.245Y-3.93
X8.27Y-7.19
X8.27Y-8.775
X8.275Y-6.76
X8.275Y-9.425
X8.275Y-9.645
X8.285Y-6.985
X8.3Y-2.645
X8.3Y-3.735
X8.32Y-7.155
X8.32Y-9.0
X8.35Y-3.3
X8.355Y-2.25
X8.37Y-7.45
X8.375Y-4.885
X8.385Y-6.0
X8.4Y-2.965
X8.4Y-3.15
X8.42Y-7.12
X8.42Y-9.0
X8.42Y-9.235
X8.42Y-9.42
X8.435Y-6.185
X8.435Y-6.985
X8.45Y-3.195
X8.465Y-2.2
X8.47Y-9.6
X8.485Y-5.95
X8.5Y-3.11
X8.5Y-3.25
X8.52Y-8.49
X8.52Y-8.965
X8.54Y-6.84
X8.545Y-3.34
X8.545Y-3.5
X8.57Y-9.55
X8.6Y-2.7
X8.6Y-3.3
X8.6Y-3.35
X8.62Y-9.0
X8.625Y-7.98
X8.65Y-2.2
X8.65Y-3.55
X8.67Y-7.225
X8.7Y-3.4
X8.7Y-3.45
X8.715Y-4.08
X8.715Y-5.045
X8.72Y-9.075
X8.72Y-9.46
X8.75Y-2.25
X8.75Y-3.11
X8.755Y-6.335
X8.795Y-4.1
X8.795Y-5.78
X8.82Y-8.085
X8.845Y-4.235
X8.85Y-3.5
X8.85Y-4.435
X8.85Y-5.235
X8.87Y-8.95
X8.87Y-9.2
X8.9Y-6.225
X8.905Y-8.155
X8.915Y-6.765
X8.945Y-3.775
X8.95Y-2.93
X8.95Y-3.505
X8.95Y-5.95
X8.95Y-6.65
X8.95Y-7.26
X8.96Y-8.085
X8.995Y-6.0
X9.0Y-3.735
X9.0Y-6.955
X9.05Y-3.45
X9.05Y-6.905
X9.05Y-2.965
X9.055Y-4.235
X9.075Y-9.27
X9.1Y-6.725
X9.1Y-7.98
X9.11Y-2.77
X9.12Y-9.495
X9.15Y-3.4
X9.15Y-7.05
X9.15Y-8.02
X9.17Y-8.745
X9.195Y-2.65
X9.195Y-4.01
X9.195Y-6.265
X9.195Y-7.405
X9.195Y-7.455
X9.22Y-9.8
X9.22Y-8.265
X9.24Y-6.76
X9.24Y-7.88
X9.25Y-2.7
X9.27Y-9.565
X9.27Y-8.8
X9.27Y-9.235
X9.295Y-6.225
X9.32Y-8.99
X9.37Y-7.015
X9.4Y-4.06
X9.4Y-6.145
X9.42Y-7.3
X9.42Y-9.235
X9.42Y-9.6
X9.45Y-4.335
X9.45Y-6.07
X9.47Y-7.015
X9.47Y-8.63
X9.49Y-4.015
X9.49Y-4.535
X9.5Y-5.89
X9.52Y-6.47
X9.52Y-8.055
X9.52Y-8.99
X9.54Y-4.06
X9.545Y-2.615
X9.55Y-4.535
X9.55Y-4.735
X9.55Y-6.4
X9.57Y-7.085
X9.57Y-9.385
X9.595Y-2.615
X9.595Y-4.145
X9.595Y-5.43
X9.6Y-3.55
X9.6Y-5.64
X9.6Y-6.25
X9.62Y-8.49
X9.62Y-9.27
X9.62Y-9.65
X9.645Y-2.25
X9.645Y-5.5
X9.645Y-6.32
X9.655Y-5.435
X9.7Y-4.065
X9.7Y-4.835
X9.7Y-6.35
X9.715Y-8.695
X9.75Y-3.755
X9.755Y-4.885
X9.755Y-5.5
X9.77Y-9.835
X9.79Y-6.105
X9.79Y-8.135
X9.8Y-3.505
X9.82Y-8.805
X9.82Y-9.835
X9.83Y-6.185
X9.85Y-2.615
X9.87Y-8.76
X9.87Y-9.65
X9.895Y-2.25
X9.9Y-7.19
X9.9Y-8.135
X9.9Y-6.245
X9.91Y-3.925
X9.91Y-5.095
X9.945Y-5.385
X9.95Y-4.385
X9.97Y-9.835
X9.975Y-2.645
X9.995Y-8.55
X10.045Y-4.145
X10.05Y-2.925
X10.05Y-3.725
X10.05Y-4.485
X10.08Y-7.5
X10.08Y-8.345
X10.09Y-4.285
X10.1Y-2.74
X10.1Y-3.925
X10.115Y-8.76
X10.14Y-4.14
X10.14Y-4.46
X10.14Y-4.5
X10.155Y-8.63
X10.19Y-4.295
X10.19Y-8.46
X10.2Y-3.5
X10.215Y-8.96
X10.215Y-9.075
X10.225Y-9.565
X10.225Y-9.76
X10.24Y-8.695
X10.255Y-8.745
X10.255Y-9.305
X10.29Y-6.905
X10.295Y-4.185
X10.295Y-4.5
X10.3Y-2.665
X10.31Y-9.8
X10.34Y-7.15
X10.34Y-7.455
X10.375Y-9.2
X10.385Y-2.56
X10.385Y-2.815
X10.39Y-4.46
X10.39Y-6.955
X10.39Y-7.1
X10.44Y-4.295
X10.44Y-6.29
X10.44Y-8.785
X10.44Y-9.0
X10.49Y-5.035
X10.49Y-5.955
X10.49Y-6.84
X10.5Y-2.955
X10.5Y-3.995
X10.54Y-7.015
X10.54Y-7.875
X10.59Y-6.07
X10.59Y-6.95
X10.59Y-8.64
X10.635Y-5.64
X10.64Y-7.565
X10.66Y-4.365
X10.69Y-4.58
X10.69Y-5.285
X10.69Y-7.0
X10.69Y-7.455
X10.74Y-7.53
X10.775Y-8.55
X10.785Y-6.505
X10.79Y-3.955
X10.82Y-3.195
X10.84Y-4.365
X10.84Y-7.875
X10.89Y-5.085
X10.89Y-6.76
X10.89Y-7.195
X10.89Y-7.565
X10.895Y-6.54
X10.92Y-3.15
X10.935Y-4.32
X10.94Y-5.535
X10.94Y-6.095
X10.94Y-7.455
X10.96Y-9.85
X10.97Y-2.64
X10.99Y-6.15
X10.99Y-7.235
X10.99Y-8.415
X11.005Y-9.315
X11.02Y-3.11
X11.04Y-7.0
X11.04Y-7.53
X11.04Y-8.865
X11.07Y-2.93
X11.085Y-6.76
X11.09Y-6.805
X11.09Y-8.92
X11.09Y-4.06
X11.12Y-3.25
X11.14Y-6.765
X11.14Y-7.25
X11.175Y-7.35
X11.195Y-6.2
X11.205Y-8.75
X11.21Y-7.495
X11.22Y-3.3
X11.24Y-2.45
X11.24Y-6.815
X11.3Y-5.85
X11.3Y-5.92
X11.32Y-2.4
X11.35Y-7.35
X11.355Y-7.25
X11.365Y-9.385
X11.37Y-3.35
X11.415Y-5.185
X11.42Y-8.3
X11.42Y-8.6
X11.42Y-3.4
X11.425Y-5.7653
X11.425Y-6.245
X11.47Y-2.3
X11.47Y-5.98
X11.47Y-7.4
X11.48Y-9.46
X11.52Y-2.25
X11.52Y-2.93
X11.52Y-3.45
X11.52Y-5.63
X11.52Y-6.86
X11.52Y-7.895
X11.52Y-8.345
X11.57Y-7.45
X11.575Y-4.05
X11.615Y-9.495
X11.62Y-2.64
X11.62Y-5.63
X11.62Y-5.7
X11.62Y-6.69
X11.62Y-7.845
X11.62Y-8.3
X11.625Y-3.765
X11.66Y-5.34
X11.66Y-6.35
X11.67Y-7.195
X11.67Y-7.6
X11.67Y-7.65
X11.675Y-5.05
X11.675Y-5.05
X11.72Y-2.45
X11.72Y-2.68
X11.72Y-2.965
X11.72Y-3.725
X11.72Y-6.725
X11.72Y-7.8
X11.72Y-8.25
X11.72Y-9.625
X11.77Y-3.82
X11.77Y-6.15
X11.77Y-7.705
X11.78Y-5.02
X11.785Y-6.095
X11.82Y-3.5
X11.82Y-7.75
X11.82Y-7.99
X11.82Y-8.175
X11.82Y-9.66
X11.85Y-5.63
X11.85Y-5.99
X11.87Y-6.2
X11.87Y-9.0
X11.87Y-9.35
X11.92Y-2.4
X11.92Y-7.185
X11.92Y-8.415
X11.92Y-9.315
X11.92Y-8.75
X11.95Y-3.995
X11.95Y-5.7
X11.95Y-5.765
X11.97Y-3.785
X11.97Y-6.725
X11.97Y-9.315
X12.0Y-4.785
X12.02Y-4.5
X12.02Y-6.475
X12.02Y-6.765
X12.02Y-8.175
X12.02Y-8.45
X12.02Y-8.5
X12.055Y-2.3
X12.07Y-2.965
X12.07Y-6.69
X12.07Y-8.92
X12.07Y-9.345
X12.09Y-4.685
X12.12Y-4.32
X12.12Y-6.815
X12.12Y-8.5
X12.135Y-5.085
X12.14Y-2.25
X12.145Y-8.38
X12.17Y-2.925
X12.17Y-5.57
X12.17Y-6.545
X12.17Y-6.695
X12.17Y-6.86
X12.17Y-8.6
X12.17Y-9.415
X12.185Y-4.72
X12.22Y-4.1
X12.22Y-4.37
X12.22Y-5.34
X12.22Y-7.6
X12.22Y-7.895
X12.22Y-9.0
X12.235Y-5.235
X12.27Y-2.63
X12.27Y-5.385
X12.27Y-7.3
X12.27Y-7.94
X12.27Y-8.485
X12.315Y-2.54
X12.32Y-4.905
X12.32Y-7.25
X12.32Y-7.845
X12.32Y-8.45
X12.32Y-9.5
X12.37Y-3.55
X12.37Y-4.32
X12.37Y-6.01
X12.37Y-6.245
X12.37Y-6.865
X12.37Y-7.8
X12.37Y-8.45
X12.42Y-4.68
X12.42Y-4.85
X12.42Y-7.185
X12.42Y-8.415
X12.42Y-9.55
X12.455Y-5.665
X12.47Y-7.25
X12.47Y-8.415
X12.475Y-7.75
X12.52Y-4.32
X12.52Y-6.865
X12.52Y-9.6
X12.55Y-4.5
X12.57Y-2.3
X12.57Y-4.08
X12.57Y-7.3
X12.57Y-9.075
X12.57Y-9.46
X12.57Y-9.815
X12.6Y-4.905
X12.62Y-2.68
X12.62Y-5.97
X12.62Y-6.695
X12.62Y-7.94
X12.62Y-8.945
X12.62Y-9.815
X12.675Y-5.44
X12.675Y-5.63
X12.7Y-4.85
X12.7Y-5.23
X12.71Y-4.11
X12.71Y-4.35
X12.71Y-4.43
X12.72Y-6.295
X12.72Y-7.25
X12.72Y-9.075
X12.72Y-9.675
X12.73Y-5.63
X12.75Y-4.925
X12.765Y-4.235
X12.77Y-4.56
X12.77Y-6.125
X12.77Y-9.2053
X12.77Y-9.635
X12.79Y-4.72
X12.8Y-5.44
X12.82Y-6.4
X12.82Y-7.3
X12.82Y-8.755
X12.82Y-8.14
X12.85Y-2.2
X12.85Y-4.885
X12.85Y-5.23
X12.87Y-6.09
X12.87Y-6.355
X12.875Y-5.79
X12.9Y-5.185
X12.9Y-5.63
X12.92Y-6.01
X12.92Y-6.36
X12.92Y-8.215
X12.92Y-9.015
X12.95Y-4.645
X12.97Y-5.54
X12.975Y-4.05
X13.02Y-6.28
X13.02Y-6.905
X13.05Y-4.68
X13.07Y-6.05
X13.07Y-9.38
X13.075Y-3.815
X13.115Y-7.75
X13.115Y-8.215
X13.125Y-2.845
X13.145Y-5.105
X13.15Y-4.275
X13.175Y-3.765
X13.175Y-3.995
X13.22Y-6.32
X13.22Y-7.15
X13.27Y-6.9
X13.275Y-3.725
X13.275Y-9.46
X13.295Y-4.645
X13.32Y-6.52
X13.32Y-7.1
X13.33Y-2.75
X13.34Y-5.83
X13.37Y-6.845
X13.37Y-8.98
X13.375Y-3.5
X13.4Y-4.885
X13.42Y-2.905
X13.42Y-7.05
X13.47Y-5.265
X13.47Y-6.795
X13.47Y-8.83
X13.475Y-2.72
X13.48Y-4.005
X13.5Y-4.925
X13.515Y-6.725
X13.515Y-7.3
X13.52Y-6.52
X13.52Y-7.615
X13.52Y-8.79
X13.52Y-9.05
X13.54Y-2.3
X13.545Y-4.58
X13.565Y-6.1
X13.57Y-6.745
X13.57Y-9.245
X13.575Y-2.8
X13.575Y-2.85
X13.595Y-2.35
X13.6Y-4.455
X13.62Y-7.68
X13.62Y-7.725
X13.65Y-2.4
X13.67Y-6.055
X13.67Y-6.705
X13.67Y-8.55
X13.67Y-9.28
X13.675Y-2.95
X13.705Y-2.72
X13.715Y-7.8
X13.72Y-6.475
X13.72Y-7.65
X13.72Y-7.99
X13.7578Y-2.4472
X13.77Y-4.245
X13.77Y-6.44
X13.77Y-7.3
X13.81Y-2.35
X13.82Y-8.865
X13.82Y-9.85
X13.825Y-2.75
X13.865Y-3.905
X13.8669Y-2.4981
X13.87Y-6.44
X13.87Y-7.85
X13.87Y-9.315
X13.92Y-5.76
X13.92Y-6.95
X13.92Y-7.4
X13.92Y-8.175
X13.925Y-2.75
X13.925Y-3.3
X13.925Y-4.005
X13.97Y-9.345
X13.975Y-2.55
X13.975Y-2.905
X14.02Y-5.5
X14.02Y-7.0
X14.02Y-7.35
X14.025Y-3.35
X14.025Y-3.865
X14.025Y-4.24
X14.045Y-8.38
X14.07Y-4.58
X14.07Y-9.415
X14.075Y-2.7
X14.085Y-2.595
X14.125Y-3.4
X14.125Y-3.815
X14.17Y-8.345
X14.17Y-8.485
X14.175Y-4.35
X14.175Y-5.5
X14.175Y-5.63
X14.22Y-6.7
X14.22Y-9.5
X14.225Y-3.45
X14.225Y-3.765
X14.27Y-8.3
X14.27Y-8.45
X14.275Y-4.54
X14.275Y-4.97
X14.275Y-6.32
X14.32Y-6.745
X14.32Y-9.55
X14.325Y-2.7
X14.325Y-3.725
X14.37Y-8.25
X14.37Y-8.415
X14.375Y-2.595
X14.375Y-3.55
X14.395Y-5.265
X14.42Y-2.95
X14.42Y-6.795
X14.42Y-7.8
X14.42Y-8.215
X14.42Y-9.6
X14.425Y-3.5
X14.47Y-7.685
X14.47Y-7.85
X14.475Y-2.55
X14.475Y-4.54
X14.52Y-7.725
X14.52Y-2.85
X14.52Y-4.235
X14.52Y-6.9
X14.52Y-8.755
X14.52Y-8.8
X14.52Y-8.945
X14.52Y-9.635
X14.545Y-3.945
X14.57Y-6.18
X14.57Y-7.815
X14.575Y-2.5
X14.575Y-3.75
X14.62Y-6.845
X14.62Y-7.615
X14.62Y-9.21
X14.62Y-9.675
X14.625Y-4.295
X14.67Y-8.8
X14.675Y-2.45
X14.72Y-4.235
X14.72Y-8.14
X14.72Y-9.815
X14.775Y-2.4
X14.775Y-3.905
X14.815Y-8.755
X14.82Y-9.015
X14.875Y-2.3
X14.875Y-3.45
X14.905Y-7.815
X14.905Y-8.265
X14.91Y-3.75
X14.91Y-5.195
X14.95Y-5.76
X14.95Y-9.05
X14.95Y-9.85
X14.975Y-2.8
X14.975Y-3.4
X15.005Y-7.37
X15.005Y-7.705
X15.075Y-3.195
X15.075Y-3.35
X15.125Y-7.66
X15.145Y-6.115
X15.165Y-8.78
X15.175Y-3.15
X15.175Y-3.3
X15.18Y-5.445
X15.22Y-8.96
X15.27Y-9.3
X15.275Y-3.11
X15.275Y-3.25
X15.29Y-7.705
X15.355Y-8.42
X15.355Y-9.355
X15.4Y-4.43
X15.4Y-4.93
X15.405Y-7.37
X15.46Y-7.66
X15.505Y-4.98
T2
X6.3606Y-8.3701
X6.4106Y-8.3701
X6.4606Y-8.3701
X10.775Y-2.425
X10.825Y-2.375
X10.875Y-2.425
X11.04Y-2.425
X11.09Y-2.375
X11.14Y-2.425
X14.68Y-4.74
X14.68Y-4.98
X14.73Y-4.69
X14.73Y-4.93
X14.78Y-4.74
X14.78Y-4.98
X15.045Y-7.22
X15.095Y-7.17
X15.145Y-7.22
X15.305Y-7.22
X15.305Y-7.54
X15.355Y-7.17
X15.355Y-7.49
X15.405Y-7.22
X15.405Y-7.54
T3
X11.235Y-2.0216
X11.235Y-2.12
X11.3177Y-2.0216
X11.42Y-2.0216
X11.5027Y-2.0216
X11.5027Y-2.12
X12.0573Y-2.0216
X12.0573Y-2.12
X12.14Y-2.0216
X12.2424Y-2.0216
X12.325Y-2.0216
X12.325Y-2.12
T4
X2.68Y-4.79
X2.68Y-4.89
X2.68Y-4.99
X2.68Y-5.09
X2.68Y-5.19
X2.68Y-5.29
X2.68Y-5.39
X2.68Y-5.49
X2.68Y-5.59
X2.7Y-2.8
X2.7Y-2.9
X2.7Y-3.0
X2.7Y-3.1
X2.7Y-3.2
X2.7Y-3.3
X2.7Y-3.4
X2.7Y-3.5
X2.7Y-3.6
X2.9616Y-6.435
X2.985Y-6.61
X2.985Y-6.91
X3.06Y-6.435
X3.08Y-9.23
X3.085Y-6.61
X3.085Y-6.91
X3.15Y-8.32
X3.15Y-8.42
X3.15Y-8.52
X3.15Y-8.62
X3.15Y-8.72
X3.15Y-8.82
X3.15Y-8.92
X3.1784Y-9.23
X3.185Y-6.11
X3.185Y-6.41
X3.185Y-6.61
X3.185Y-6.91
X3.24Y-7.76
X3.24Y-7.94
X3.24Y-8.12
X3.285Y-6.11
X3.285Y-6.41
X3.285Y-6.61
X3.285Y-6.91
X3.33Y-9.23
X3.3556Y-2.26
X3.385Y-6.11
X3.385Y-6.41
X3.385Y-6.61
X3.385Y-6.91
X3.42Y-9.46
X3.4284Y-9.23
X3.45Y-8.32
X3.45Y-8.42
X3.45Y-8.52
X3.45Y-8.62
X3.45Y-8.72
X3.45Y-8.82
X3.45Y-8.92
X3.454Y-2.26
X3.485Y-6.11
X3.485Y-6.41
X3.485Y-6.61
X3.485Y-6.91
X3.58Y-9.23
X3.585Y-6.11
X3.585Y-6.41
X3.585Y-6.61
X3.585Y-6.91
X3.64Y-7.76
X3.64Y-7.94
X3.64Y-8.12
X3.6784Y-9.23
X3.685Y-6.11
X3.685Y-6.41
X3.685Y-6.61
X3.685Y-6.91
X3.69Y-8.32
X3.69Y-8.42
X3.69Y-8.52
X3.69Y-8.62
X3.69Y-8.72
X3.69Y-8.82
X3.69Y-8.92
X3.78Y-7.76
X3.785Y-6.11
X3.785Y-6.41
X3.785Y-6.61
X3.785Y-6.91
X3.785Y-7.94
X3.785Y-8.12
X3.82Y-9.46
X3.84Y-9.23
X3.885Y-6.11
X3.885Y-6.41
X3.885Y-6.61
X3.885Y-6.91
X3.9384Y-9.23
X3.96Y-9.48
X3.96Y-9.88
X3.99Y-8.32
X3.99Y-8.42
X3.99Y-8.52
X3.99Y-8.62
X3.99Y-8.72
X3.99Y-8.82
X3.99Y-8.92
X4.0816Y-6.355
X4.1016Y-9.32
X4.1316Y-8.34
X4.135Y-6.61
X4.135Y-6.91
X4.14Y-9.48
X4.14Y-9.88
X4.15Y-8.76
X4.15Y-8.915
X4.18Y-6.355
X4.18Y-7.76
X4.185Y-7.94
X4.185Y-8.12
X4.2Y-9.32
X4.23Y-8.34
X4.235Y-6.61
X4.235Y-6.91
X4.32Y-7.76
X4.32Y-9.32
X4.335Y-6.11
X4.335Y-6.41
X4.335Y-6.61
X4.335Y-6.91
X4.34Y-8.12
X4.34Y-9.48
X4.34Y-9.88
X4.3416Y-7.94
X4.3516Y-8.34
X4.3516Y-8.54
X4.4184Y-9.32
X4.435Y-6.11
X4.435Y-6.41
X4.435Y-6.61
X4.435Y-6.91
X4.44Y-7.94
X4.44Y-8.12
X4.45Y-8.34
X4.45Y-8.54
X4.45Y-8.76
X4.45Y-8.915
X4.535Y-6.11
X4.535Y-6.41
X4.535Y-6.61
X4.535Y-6.91
X4.54Y-8.12
X4.54Y-9.36
X4.558Y-2.254
X4.58Y-8.36
X4.58Y-8.54
X4.62Y-8.74
X4.62Y-8.84
X4.62Y-8.94
X4.62Y-9.04
X4.635Y-6.11
X4.635Y-6.41
X4.635Y-6.61
X4.635Y-6.91
X4.6384Y-9.36
X4.64Y-8.12
X4.6564Y-2.254
X4.72Y-7.76
X4.735Y-6.11
X4.735Y-6.41
X4.735Y-6.61
X4.735Y-6.91
X4.74Y-8.12
X4.82Y-9.36
X4.835Y-6.11
X4.835Y-6.41
X4.835Y-6.61
X4.835Y-6.91
X4.84Y-8.12
X4.8916Y-7.64
X4.9184Y-9.36
X4.92Y-8.74
X4.92Y-8.84
X4.92Y-8.94
X4.92Y-9.04
X4.935Y-6.11
X4.935Y-6.41
X4.935Y-6.61
X4.935Y-6.91
X4.94Y-8.12
X4.98Y-8.36
X4.98Y-8.54
X4.99Y-7.64
X5.035Y-6.11
X5.035Y-6.41
X5.035Y-6.61
X5.035Y-6.91
X5.04Y-8.12
X5.12Y-8.34
X5.12Y-8.44
X5.12Y-8.54
X5.12Y-8.64
X5.12Y-8.74
X5.12Y-8.84
X5.12Y-8.94
X5.12Y-9.04
X5.12Y-9.28
X5.12Y-9.38
X5.12Y-9.48
X5.12Y-9.58
X5.12Y-9.68
X5.12Y-9.78
X5.12Y-9.88
X5.2066Y-6.41
X5.285Y-6.61
X5.285Y-6.91
X5.305Y-6.41
X5.385Y-6.61
X5.385Y-6.91
X5.42Y-8.34
X5.42Y-8.44
X5.42Y-8.54
X5.42Y-8.64
X5.42Y-8.74
X5.42Y-8.84
X5.42Y-8.94
X5.42Y-9.04
X5.42Y-9.28
X5.42Y-9.38
X5.42Y-9.48
X5.42Y-9.58
X5.42Y-9.68
X5.42Y-9.78
X5.42Y-9.88
X5.485Y-6.11
X5.485Y-6.41
X5.485Y-6.61
X5.485Y-6.91
X5.585Y-6.11
X5.585Y-6.41
X5.585Y-6.61
X5.585Y-6.91
X5.59Y-9.115
X5.59Y-9.28
X5.6Y-9.46
X5.685Y-6.11
X5.685Y-6.41
X5.685Y-6.61
X5.685Y-6.91
X5.7717Y-8.0984
X5.785Y-6.11
X5.785Y-6.41
X5.785Y-6.61
X5.785Y-6.91
X5.885Y-6.11
X5.885Y-6.41
X5.885Y-6.61
X5.885Y-6.91
X5.985Y-6.11
X5.985Y-6.41
X5.985Y-6.61
X5.985Y-6.91
X5.99Y-9.115
X5.99Y-9.28
X6.0Y-9.46
X6.085Y-6.11
X6.085Y-6.41
X6.085Y-6.61
X6.085Y-6.91
X6.1717Y-8.0984
X6.18Y-9.14
X6.18Y-9.72
X6.185Y-6.11
X6.185Y-6.41
X6.185Y-6.61
X6.185Y-6.91
X6.2784Y-9.14
X6.2784Y-9.72
X6.285Y-8.1
X6.3216Y-8.66
X6.3216Y-8.86
X6.3516Y-6.115
X6.42Y-8.66
X6.42Y-8.86
X6.435Y-6.61
X6.435Y-6.91
X6.45Y-6.115
X6.46Y-9.72
X6.4616Y-9.14
X6.485Y-7.46
X6.535Y-6.61
X6.535Y-6.91
X6.5416Y-8.86
X6.5584Y-9.72
X6.56Y-9.14
X6.585Y-7.46
X6.605Y-8.38
X6.635Y-6.11
X6.635Y-6.41
X6.635Y-6.61
X6.635Y-6.91
X6.64Y-8.86
X6.685Y-7.46
X6.685Y-8.1
X6.7034Y-8.38
X6.735Y-6.11
X6.735Y-6.41
X6.735Y-6.61
X6.735Y-6.91
X6.785Y-7.46
X6.82Y-8.1
X6.82Y-8.38
X6.82Y-8.68
X6.82Y-8.88
X6.835Y-6.11
X6.835Y-6.41
X6.835Y-6.61
X6.835Y-6.91
X6.885Y-7.46
X6.92Y-8.38
X6.92Y-8.68
X6.92Y-8.88
X6.935Y-6.11
X6.935Y-6.41
X6.935Y-6.61
X6.935Y-6.91
X6.94Y-4.735
X6.94Y-4.835
X6.94Y-4.935
X6.94Y-5.035
X6.94Y-5.135
X6.94Y-5.235
X6.94Y-5.335
X6.94Y-5.435
X6.94Y-5.535
X6.985Y-7.46
X7.02Y-2.24
X7.02Y-2.34
X7.02Y-2.44
X7.02Y-2.54
X7.02Y-2.64
X7.02Y-2.74
X7.02Y-2.84
X7.02Y-2.94
X7.02Y-3.04
X7.02Y-8.38
X7.02Y-8.68
X7.02Y-8.88
X7.035Y-6.11
X7.035Y-6.41
X7.035Y-6.61
X7.035Y-6.91
X7.085Y-7.46
X7.12Y-8.38
X7.12Y-8.68
X7.12Y-8.88
X7.135Y-6.11
X7.135Y-6.41
X7.135Y-6.61
X7.135Y-6.91
X7.185Y-7.46
X7.22Y-8.1
X7.22Y-8.38
X7.22Y-8.68
X7.22Y-8.88
X7.235Y-6.11
X7.235Y-6.41
X7.235Y-6.61
X7.235Y-6.91
X7.32Y-8.38
X7.32Y-8.68
X7.32Y-8.88
X7.335Y-6.11
X7.335Y-6.41
X7.335Y-6.61
X7.335Y-6.91
X7.42Y-8.38
X7.42Y-8.68
X7.42Y-8.88
X7.47Y-6.105
X7.47Y-6.405
X7.52Y-8.38
X7.52Y-8.68
X7.52Y-8.88
X7.5684Y-6.105
X7.5684Y-6.405
X7.585Y-6.61
X7.585Y-6.91
X7.6Y-4.035
X7.6Y-4.135
X7.6Y-4.235
X7.6Y-4.335
X7.6Y-4.435
X7.6Y-4.535
X7.6Y-4.635
X7.6Y-4.735
X7.6Y-4.835
X7.6Y-4.935
X7.6Y-5.18
X7.6Y-5.28
X7.6Y-5.38
X7.6Y-5.48
X7.6Y-5.58
X7.6Y-5.68
X7.6Y-5.78
X7.685Y-6.61
X7.685Y-6.91
X7.72Y-8.88
X7.785Y-6.11
X7.785Y-6.41
X7.785Y-6.61
X7.785Y-6.91
X7.82Y-8.38
X7.82Y-8.68
X7.82Y-8.88
X7.885Y-6.11
X7.885Y-6.41
X7.885Y-6.61
X7.885Y-6.91
X7.9Y-4.035
X7.9Y-4.135
X7.9Y-4.235
X7.9Y-4.335
X7.9Y-4.435
X7.9Y-4.535
X7.9Y-4.635
X7.9Y-4.735
X7.9Y-4.835
X7.9Y-4.935
X7.9Y-5.18
X7.9Y-5.28
X7.9Y-5.38
X7.9Y-5.48
X7.9Y-5.58
X7.9Y-5.68
X7.9Y-5.78
X7.9016Y-3.885
X7.92Y-8.38
X7.92Y-8.68
X7.92Y-8.88
X7.985Y-6.11
X7.985Y-6.41
X7.985Y-6.61
X7.985Y-6.91
X8.0Y-3.885
X8.02Y-8.38
X8.02Y-8.68
X8.02Y-8.88
X8.085Y-6.11
X8.085Y-6.41
X8.085Y-6.61
X8.085Y-6.91
X8.12Y-2.54
X8.12Y-2.6384
X8.12Y-3.04
X8.12Y-3.1384
X8.12Y-8.38
X8.12Y-8.68
X8.12Y-8.88
X8.185Y-6.11
X8.185Y-6.41
X8.185Y-6.61
X8.185Y-6.91
X8.22Y-8.38
X8.22Y-8.68
X8.22Y-8.88
X8.285Y-6.11
X8.285Y-6.41
X8.285Y-6.61
X8.285Y-6.91
X8.3Y-2.54
X8.3Y-2.84
X8.3Y-3.04
X8.3Y-3.64
X8.3Y-4.035
X8.3Y-4.135
X8.3Y-4.235
X8.3Y-4.335
X8.3Y-4.435
X8.3Y-4.535
X8.3Y-4.635
X8.3Y-4.735
X8.3Y-4.835
X8.3Y-4.935
X8.32Y-8.38
X8.32Y-8.68
X8.32Y-8.88
X8.385Y-6.11
X8.385Y-6.41
X8.385Y-6.61
X8.385Y-6.91
X8.4Y-2.35
X8.4Y-2.54
X8.4Y-2.84
X8.4Y-3.04
X8.4Y-3.64
X8.42Y-8.38
X8.42Y-8.68
X8.42Y-8.88
X8.485Y-6.11
X8.485Y-6.41
X8.485Y-6.61
X8.485Y-6.91
X8.4984Y-2.35
X8.5Y-2.54
X8.5Y-2.84
X8.5Y-3.04
X8.5Y-3.64
X8.52Y-8.38
X8.52Y-8.68
X8.6Y-2.35
X8.6Y-2.54
X8.6Y-2.84
X8.6Y-3.04
X8.6Y-3.64
X8.6Y-4.035
X8.6Y-4.135
X8.6Y-4.235
X8.6Y-4.335
X8.6Y-4.435
X8.6Y-4.535
X8.6Y-4.635
X8.6Y-4.735
X8.6Y-4.835
X8.6Y-4.935
X8.62Y-8.88
X8.6984Y-2.35
X8.7Y-2.54
X8.7Y-2.84
X8.7Y-3.04
X8.7Y-3.64
X8.72Y-8.88
X8.8Y-2.35
X8.8Y-2.54
X8.8Y-2.84
X8.8Y-3.04
X8.8Y-3.64
X8.82Y-8.88
X8.8984Y-2.35
X8.9Y-2.54
X8.9Y-2.84
X8.9Y-3.04
X8.9Y-3.64
X8.92Y-8.39
X8.92Y-8.69
X8.92Y-8.88
X9.0Y-2.35
X9.0Y-2.54
X9.0Y-2.84
X9.0Y-3.04
X9.0Y-3.64
X9.02Y-8.39
X9.02Y-8.69
X9.02Y-8.88
X9.0984Y-2.35
X9.1Y-3.04
X9.1Y-3.64
X9.12Y-8.39
X9.12Y-8.69
X9.12Y-8.88
X9.195Y-2.54
X9.195Y-2.84
X9.195Y-3.8316
X9.195Y-3.93
X9.2Y-3.04
X9.2Y-3.64
X9.22Y-8.39
X9.22Y-8.69
X9.22Y-8.88
X9.295Y-2.35
X9.295Y-2.54
X9.295Y-2.84
X9.3Y-3.04
X9.3Y-3.64
X9.32Y-8.39
X9.32Y-8.69
X9.32Y-8.88
X9.3934Y-2.35
X9.395Y-2.54
X9.395Y-2.84
X9.4Y-3.04
X9.4Y-3.64
X9.4Y-3.88
X9.42Y-8.39
X9.42Y-8.69
X9.47Y-8.88
X9.495Y-2.35
X9.495Y-2.54
X9.495Y-2.84
X9.5Y-3.04
X9.5Y-3.64
X9.52Y-8.39
X9.52Y-8.69
X9.57Y-8.88
X9.5929Y-3.88
X9.5934Y-2.35
X9.595Y-2.54
X9.595Y-2.84
X9.6Y-3.04
X9.6Y-3.64
X9.62Y-8.39
X9.62Y-8.69
X9.67Y-8.88
X9.695Y-2.54
X9.695Y-2.84
X9.6966Y-2.35
X9.7Y-3.04
X9.7Y-3.64
X9.77Y-8.88
X9.7816Y-8.38
X9.795Y-2.35
X9.795Y-2.54
X9.795Y-2.84
X9.8Y-3.04
X9.8Y-3.64
X9.8Y-3.8266
X9.8Y-3.925
X9.835Y-5.885
X9.835Y-5.9834
X9.87Y-8.88
X9.88Y-8.38
X9.895Y-2.35
X9.895Y-2.54
X9.895Y-2.84
X9.9Y-3.04
X9.9Y-3.64
X9.97Y-8.88
X9.99Y-3.83
X9.9934Y-2.35
X10.0Y-3.04
X10.0Y-3.64
X10.04Y-4.785
X10.04Y-4.885
X10.04Y-4.985
X10.04Y-5.085
X10.04Y-5.185
X10.04Y-5.285
X10.04Y-5.385
X10.04Y-5.485
X10.04Y-5.585
X10.04Y-5.685
X10.04Y-5.785
X10.07Y-8.88
X10.1Y-3.04
X10.1Y-3.64
X10.14Y-4.685
X10.14Y-4.785
X10.14Y-4.885
X10.14Y-4.985
X10.14Y-5.085
X10.14Y-5.185
X10.14Y-5.285
X10.14Y-5.385
X10.14Y-5.485
X10.14Y-5.585
X10.14Y-5.685
X10.14Y-5.785
X10.14Y-5.885
X10.17Y-8.88
X10.2Y-3.04
X10.2Y-3.64
X10.21Y-2.39
X10.21Y-2.56
X10.21Y-2.74
X10.21Y-2.89
X10.24Y-4.685
X10.24Y-4.785
X10.24Y-5.785
X10.24Y-5.885
X10.3016Y-7.94
X10.3316Y-3.64
X10.34Y-4.685
X10.34Y-4.785
X10.34Y-5.785
X10.34Y-5.885
X10.375Y-8.67
X10.375Y-8.865
X10.39Y-3.83
X10.4Y-7.94
X10.43Y-3.64
X10.44Y-4.685
X10.44Y-4.785
X10.44Y-5.785
X10.44Y-5.885
X10.54Y-4.685
X10.54Y-4.785
X10.54Y-5.785
X10.54Y-5.885
X10.54Y-7.64
X10.54Y-7.94
X10.61Y-2.39
X10.61Y-2.56
X10.61Y-2.74
X10.61Y-2.89
X10.64Y-4.685
X10.64Y-4.785
X10.64Y-5.785
X10.64Y-5.885
X10.64Y-7.64
X10.64Y-7.94
X10.72Y-3.04
X10.72Y-3.64
X10.74Y-4.685
X10.74Y-4.785
X10.74Y-5.785
X10.74Y-5.885
X10.74Y-7.64
X10.74Y-7.94
X10.775Y-8.67
X10.775Y-8.865
X10.78Y-9.14
X10.78Y-9.72
X10.7866Y-3.81
X10.82Y-3.04
X10.82Y-3.64
X10.84Y-4.685
X10.84Y-4.785
X10.84Y-5.785
X10.84Y-5.885
X10.84Y-7.64
X10.84Y-7.94
X10.8784Y-9.14
X10.8784Y-9.72
X10.885Y-3.81
X10.885Y-4.485
X10.92Y-3.04
X10.92Y-3.64
X10.94Y-4.685
X10.94Y-4.785
X10.94Y-5.785
X10.94Y-5.885
X10.94Y-7.64
X10.94Y-7.94
X10.9834Y-4.485
X11.02Y-3.04
X11.02Y-3.64
X11.04Y-4.685
X11.04Y-4.785
X11.04Y-5.785
X11.04Y-5.885
X11.04Y-7.64
X11.04Y-7.94
X11.12Y-3.04
X11.12Y-3.64
X11.12Y-9.72
X11.14Y-4.685
X11.14Y-4.785
X11.14Y-4.885
X11.14Y-4.985
X11.14Y-5.085
X11.14Y-5.185
X11.14Y-5.285
X11.14Y-5.385
X11.14Y-5.485
X11.14Y-5.585
X11.14Y-5.685
X11.14Y-5.785
X11.14Y-5.885
X11.14Y-7.64
X11.14Y-7.94
X11.1566Y-8.68
X11.1866Y-4.485
X11.2184Y-9.72
X11.22Y-3.04
X11.22Y-3.64
X11.24Y-4.785
X11.24Y-4.885
X11.24Y-4.985
X11.24Y-5.085
X11.24Y-5.185
X11.24Y-5.285
X11.24Y-5.385
X11.24Y-5.485
X11.24Y-5.585
X11.24Y-5.685
X11.24Y-5.785
X11.255Y-8.68
X11.285Y-4.485
X11.3016Y-7.51
X11.3066Y-6.49
X11.32Y-3.04
X11.32Y-3.64
X11.4Y-7.51
X11.405Y-6.49
X11.42Y-2.545
X11.42Y-2.845
X11.42Y-3.04
X11.42Y-3.64
X11.42Y-8.075
X11.42Y-8.675
X11.42Y-9.14
X11.42Y-9.74
X11.515Y-4.885
X11.515Y-5.485
X11.52Y-2.545
X11.52Y-2.845
X11.52Y-3.04
X11.52Y-3.64
X11.52Y-6.62
X11.52Y-7.52
X11.52Y-8.075
X11.52Y-8.675
X11.52Y-9.14
X11.52Y-9.74
X11.62Y-2.545
X11.62Y-2.845
X11.62Y-3.04
X11.62Y-3.64
X11.62Y-6.62
X11.62Y-7.52
X11.62Y-8.075
X11.62Y-8.675
X11.62Y-9.14
X11.62Y-9.74
X11.72Y-2.545
X11.72Y-2.845
X11.72Y-3.04
X11.72Y-3.64
X11.72Y-6.62
X11.72Y-7.52
X11.72Y-8.075
X11.72Y-8.675
X11.72Y-9.14
X11.72Y-9.74
X11.815Y-4.885
X11.815Y-5.485
X11.82Y-2.545
X11.82Y-2.845
X11.82Y-3.04
X11.82Y-3.64
X11.82Y-6.62
X11.82Y-7.52
X11.82Y-8.075
X11.82Y-8.675
X11.82Y-9.14
X11.82Y-9.74
X11.92Y-2.545
X11.92Y-2.845
X11.92Y-3.04
X11.92Y-3.64
X11.92Y-6.62
X11.92Y-7.52
X11.92Y-8.075
X11.92Y-8.675
X11.92Y-9.14
X11.92Y-9.74
X12.02Y-2.545
X12.02Y-2.845
X12.02Y-3.04
X12.02Y-3.64
X12.02Y-3.9
X12.02Y-4.2
X12.02Y-6.62
X12.02Y-7.52
X12.02Y-8.075
X12.02Y-8.675
X12.02Y-9.14
X12.02Y-9.74
X12.12Y-3.04
X12.12Y-3.64
X12.12Y-3.9
X12.12Y-4.2
X12.12Y-6.62
X12.12Y-7.52
X12.12Y-8.075
X12.12Y-8.675
X12.12Y-9.14
X12.12Y-9.74
X12.1566Y-2.435
X12.22Y-3.04
X12.22Y-3.64
X12.22Y-3.9
X12.22Y-4.2
X12.22Y-4.445
X12.22Y-6.62
X12.22Y-7.52
X12.22Y-8.075
X12.22Y-8.675
X12.22Y-9.14
X12.22Y-9.74
X12.255Y-2.435
X12.32Y-3.04
X12.32Y-3.64
X12.32Y-3.9
X12.32Y-4.2
X12.32Y-6.62
X12.32Y-7.52
X12.32Y-8.075
X12.32Y-8.675
X12.32Y-9.14
X12.32Y-9.74
X12.42Y-2.545
X12.42Y-2.845
X12.42Y-3.04
X12.42Y-3.64
X12.42Y-3.9
X12.42Y-4.2
X12.42Y-6.62
X12.42Y-7.52
X12.42Y-8.075
X12.42Y-8.675
X12.42Y-9.14
X12.42Y-9.74
X12.5Y-5.04
X12.5Y-5.34
X12.52Y-3.04
X12.52Y-3.64
X12.52Y-3.9
X12.52Y-4.2
X12.52Y-6.62
X12.52Y-7.52
X12.52Y-8.075
X12.52Y-8.675
X12.52Y-9.14
X12.52Y-9.74
X12.5616Y-5.72
X12.57Y-5.9
X12.57Y-6.2
X12.6Y-5.04
X12.6Y-5.34
X12.62Y-3.04
X12.62Y-3.64
X12.62Y-3.9
X12.62Y-4.2
X12.62Y-4.445
X12.62Y-6.62
X12.62Y-7.52
X12.62Y-8.075
X12.62Y-8.675
X12.62Y-9.14
X12.62Y-9.74
X12.66Y-5.72
X12.67Y-5.9
X12.67Y-6.2
X12.7Y-5.04
X12.7Y-5.34
X12.72Y-2.545
X12.72Y-2.845
X12.72Y-6.62
X12.72Y-7.52
X12.72Y-8.075
X12.72Y-8.675
X12.72Y-9.14
X12.72Y-9.74
X12.77Y-5.9
X12.77Y-6.2
X12.8Y-5.04
X12.8Y-5.34
X12.8Y-5.54
X12.8Y-5.72
X12.82Y-6.62
X12.82Y-7.52
X12.82Y-8.075
X12.82Y-8.675
X12.82Y-9.14
X12.82Y-9.74
X12.87Y-5.9
X12.87Y-6.2
X12.9Y-4.78
X12.9Y-5.04
X12.9Y-5.34
X12.92Y-6.62
X12.92Y-7.52
X12.92Y-8.075
X12.92Y-8.675
X12.92Y-9.14
X12.92Y-9.74
X12.93Y-2.495
X12.93Y-2.67
X12.93Y-2.845
X12.97Y-5.9
X12.97Y-6.2
X12.975Y-3.04
X12.975Y-3.64
X13.0Y-4.78
X13.0Y-5.04
X13.0Y-5.34
X13.02Y-6.62
X13.02Y-7.52
X13.07Y-5.9
X13.07Y-6.2
X13.075Y-3.04
X13.075Y-3.64
X13.1Y-4.78
X13.1Y-5.04
X13.1Y-5.34
X13.12Y-6.62
X13.12Y-7.52
X13.17Y-5.9
X13.17Y-6.2
X13.175Y-3.04
X13.175Y-3.64
X13.175Y-4.15
X13.2Y-4.78
X13.2Y-5.04
X13.2Y-5.34
X13.2Y-5.54
X13.2Y-5.72
X13.22Y-6.62
X13.22Y-7.52
X13.2216Y-4.54
X13.275Y-3.04
X13.275Y-3.64
X13.3Y-4.78
X13.32Y-4.54
X13.32Y-6.62
X13.32Y-7.52
X13.32Y-8.075
X13.32Y-8.675
X13.32Y-9.14
X13.32Y-9.74
X13.33Y-2.495
X13.33Y-2.67
X13.33Y-2.845
X13.375Y-3.04
X13.375Y-3.64
X13.4Y-4.78
X13.42Y-5.04
X13.42Y-5.34
X13.42Y-5.54
X13.42Y-5.72
X13.42Y-5.9
X13.42Y-6.2
X13.42Y-6.62
X13.42Y-7.52
X13.42Y-8.075
X13.42Y-8.675
X13.42Y-9.14
X13.42Y-9.74
X13.475Y-3.04
X13.475Y-3.64
X13.5Y-4.78
X13.52Y-5.04
X13.52Y-5.34
X13.52Y-5.9
X13.52Y-6.2
X13.52Y-6.62
X13.52Y-7.52
X13.52Y-8.075
X13.52Y-8.675
X13.52Y-9.14
X13.52Y-9.74
X13.575Y-3.04
X13.575Y-3.64
X13.575Y-4.15
X13.6Y-4.78
X13.62Y-5.04
X13.62Y-5.34
X13.62Y-5.9
X13.62Y-6.2
X13.62Y-6.62
X13.62Y-7.52
X13.62Y-8.075
X13.62Y-8.675
X13.62Y-9.14
X13.62Y-9.74
X13.675Y-3.04
X13.675Y-3.64
X13.7Y-4.78
X13.7116Y-4.15
X13.72Y-5.04
X13.72Y-5.34
X13.72Y-5.9
X13.72Y-6.2
X13.72Y-6.62
X13.72Y-7.52
X13.72Y-8.075
X13.72Y-8.675
X13.72Y-9.14
X13.72Y-9.74
X13.775Y-3.04
X13.775Y-3.64
X13.81Y-4.15
X13.82Y-5.04
X13.82Y-5.34
X13.82Y-5.54
X13.82Y-5.72
X13.82Y-5.9
X13.82Y-6.2
X13.82Y-6.62
X13.82Y-7.52
X13.82Y-8.075
X13.82Y-8.675
X13.82Y-9.14
X13.82Y-9.74
X13.875Y-3.04
X13.875Y-3.64
X13.92Y-5.04
X13.92Y-5.34
X13.92Y-5.9
X13.92Y-6.2
X13.92Y-6.62
X13.92Y-7.52
X13.92Y-8.075
X13.92Y-8.675
X13.92Y-9.14
X13.92Y-9.74
X13.925Y-4.145
X13.925Y-4.445
X13.975Y-3.04
X13.975Y-3.64
X14.02Y-5.04
X14.02Y-5.34
X14.02Y-5.9
X14.02Y-6.2
X14.02Y-6.62
X14.02Y-7.52
X14.02Y-8.075
X14.02Y-8.675
X14.02Y-9.14
X14.02Y-9.74
X14.025Y-4.145
X14.025Y-4.445
X14.075Y-3.04
X14.075Y-3.64
X14.12Y-6.62
X14.12Y-7.52
X14.12Y-8.075
X14.12Y-8.675
X14.12Y-9.14
X14.12Y-9.74
X14.125Y-4.145
X14.125Y-4.445
X14.175Y-3.04
X14.175Y-3.64
X14.22Y-6.62
X14.22Y-7.52
X14.22Y-8.075
X14.22Y-8.675
X14.22Y-9.14
X14.22Y-9.74
X14.225Y-4.145
X14.225Y-4.445
X14.275Y-3.04
X14.275Y-3.64
X14.32Y-6.62
X14.32Y-7.52
X14.32Y-8.075
X14.32Y-8.675
X14.32Y-9.14
X14.32Y-9.74
X14.325Y-4.145
X14.325Y-4.445
X14.375Y-3.04
X14.375Y-3.64
X14.42Y-6.18
X14.42Y-6.36
X14.42Y-6.62
X14.42Y-7.52
X14.42Y-8.075
X14.42Y-8.675
X14.42Y-9.14
X14.42Y-9.74
X14.425Y-4.145
X14.425Y-4.445
X14.44Y-4.74
X14.4416Y-5.0
X14.46Y-5.96
X14.475Y-3.04
X14.475Y-3.64
X14.52Y-6.62
X14.52Y-7.52
X14.52Y-8.075
X14.52Y-8.675
X14.52Y-9.14
X14.52Y-9.74
X14.525Y-4.145
X14.525Y-4.445
X14.5384Y-4.74
X14.54Y-5.0
X14.5584Y-5.96
X14.575Y-3.04
X14.575Y-3.64
X14.62Y-6.62
X14.62Y-7.52
X14.62Y-8.075
X14.62Y-8.675
X14.62Y-9.14
X14.62Y-9.74
X14.625Y-4.145
X14.625Y-4.445
X14.6276Y-4.0
X14.675Y-3.04
X14.675Y-3.64
X14.6824Y-5.96
X14.72Y-8.075
X14.72Y-8.675
X14.72Y-9.14
X14.72Y-9.74
X14.725Y-4.145
X14.725Y-4.445
X14.726Y-4.0
X14.7266Y-7.925
X14.7416Y-6.62
X14.775Y-3.04
X14.775Y-3.64
X14.7809Y-5.96
X14.82Y-6.18
X14.82Y-6.36
X14.82Y-8.075
X14.82Y-8.675
X14.82Y-9.14
X14.82Y-9.74
X14.825Y-7.925
X14.84Y-6.62
X14.875Y-3.04
X14.875Y-3.64
X14.975Y-3.04
X14.975Y-3.64
X15.035Y-9.7
X15.06Y-7.88
X15.06Y-8.06
X15.06Y-8.24
X15.06Y-8.42
X15.06Y-8.6
X15.06Y-8.78
X15.06Y-8.96
X15.075Y-3.04
X15.075Y-3.64
X15.105Y-4.255
X15.105Y-4.43
X15.105Y-4.605
X15.1334Y-9.7
X15.155Y-4.055
X15.1616Y-2.875
X15.175Y-3.04
X15.175Y-3.64
X15.26Y-2.875
X15.275Y-3.04
X15.275Y-3.64
X15.416Y-3.5696
X15.416Y-3.668
X15.455Y-4.055
X15.46Y-7.88
X15.46Y-8.06
X15.46Y-8.24
X15.46Y-8.42
X15.46Y-8.6
X15.46Y-8.78
X15.46Y-8.96
X15.505Y-4.255
X15.505Y-4.43
X15.505Y-4.605
T5
X7.22Y-9.14
X7.22Y-9.72
X7.32Y-9.14
X7.32Y-9.72
X7.42Y-9.14
X7.42Y-9.72
X7.52Y-9.14
X7.52Y-9.72
X7.62Y-9.14
X7.62Y-9.72
X7.72Y-9.14
X7.72Y-9.72
X7.82Y-9.14
X7.82Y-9.72
X7.92Y-9.14
X7.92Y-9.72
X8.02Y-9.14
X8.02Y-9.72
X8.12Y-9.14
X8.12Y-9.72
X8.22Y-9.14
X8.22Y-9.72
X8.32Y-9.14
X8.32Y-9.72
X8.42Y-9.14
X8.42Y-9.72
X8.52Y-9.14
X8.52Y-9.72
X8.62Y-9.14
X8.62Y-9.72
X8.72Y-9.14
X8.72Y-9.72
X8.82Y-9.14
X8.82Y-9.72
X8.92Y-9.14
X8.92Y-9.72
X9.02Y-9.14
X9.02Y-9.72
X9.12Y-9.14
X9.12Y-9.72
X9.22Y-9.14
X9.22Y-9.72
X9.32Y-9.14
X9.32Y-9.72
X9.42Y-9.14
X9.42Y-9.72
X9.52Y-9.14
X9.52Y-9.72
X9.62Y-9.14
X9.62Y-9.72
X9.72Y-9.14
X9.72Y-9.72
X9.82Y-9.14
X9.82Y-9.72
X9.92Y-9.14
X9.92Y-9.72
X10.02Y-9.14
X10.02Y-9.72
X10.12Y-9.14
X10.12Y-9.72
T6
X3.115Y-7.475
X3.215Y-7.475
X3.39Y-7.475
X3.49Y-7.475
X3.665Y-7.475
X3.765Y-7.475
X3.94Y-7.475
X4.04Y-7.475
X4.215Y-7.475
X4.315Y-7.475
X4.49Y-7.475
X4.59Y-7.475
X5.66Y-8.68
X5.76Y-8.68
X10.775Y-2.75
X10.875Y-2.75
X11.04Y-2.75
X11.14Y-2.75
X15.305Y-6.2
X15.305Y-6.52
X15.305Y-6.84
X15.405Y-6.2
X15.405Y-6.52
X15.405Y-6.84
T7
X2.97Y-2.44
X2.97Y-2.54
X2.97Y-2.64
X2.97Y-2.74
X2.97Y-2.84
X2.97Y-2.94
X2.97Y-3.04
X2.97Y-3.14
X2.97Y-3.24
X2.97Y-3.34
X2.97Y-3.44
X2.97Y-3.54
X2.97Y-3.64
X2.97Y-3.74
X2.97Y-3.84
X2.97Y-3.94
X2.97Y-4.04
X2.97Y-4.14
X2.97Y-4.24
X2.97Y-4.34
X2.97Y-4.44
X2.97Y-4.54
X2.97Y-4.64
X2.97Y-4.74
X2.97Y-4.84
X2.97Y-4.94
X2.97Y-5.04
X2.97Y-5.14
X2.97Y-5.24
X2.97Y-5.34
X2.97Y-5.44
X2.97Y-5.54
X3.17Y-2.44
X3.17Y-2.54
X3.17Y-2.64
X3.17Y-2.74
X3.17Y-2.84
X3.17Y-2.94
X3.17Y-3.04
X3.17Y-3.14
X3.17Y-3.24
X3.17Y-3.34
X3.17Y-3.44
X3.17Y-3.54
X3.17Y-3.64
X3.17Y-3.74
X3.17Y-3.84
X3.17Y-3.94
X3.17Y-4.04
X3.17Y-4.14
X3.17Y-4.24
X3.17Y-4.34
X3.17Y-4.44
X3.17Y-4.54
X3.17Y-4.64
X3.17Y-4.74
X3.17Y-4.84
X3.17Y-4.94
X3.17Y-5.04
X3.17Y-5.14
X3.17Y-5.24
X3.17Y-5.34
X3.17Y-5.44
X3.17Y-5.54
X3.56Y-9.68
X3.56Y-9.78
X3.76Y-9.68
X3.76Y-9.78
X4.14Y-2.44
X4.14Y-2.54
X4.14Y-2.64
X4.14Y-2.74
X4.14Y-2.84
X4.14Y-2.94
X4.14Y-3.04
X4.14Y-3.14
X4.14Y-3.24
X4.14Y-3.34
X4.14Y-3.44
X4.14Y-3.54
X4.14Y-3.64
X4.14Y-3.74
X4.14Y-3.84
X4.14Y-3.94
X4.14Y-4.04
X4.14Y-4.14
X4.14Y-4.24
X4.14Y-4.34
X4.14Y-4.44
X4.14Y-4.54
X4.14Y-4.64
X4.14Y-4.74
X4.14Y-4.84
X4.14Y-4.94
X4.14Y-5.04
X4.14Y-5.14
X4.14Y-5.24
X4.14Y-5.34
X4.14Y-5.44
X4.14Y-5.54
X4.34Y-2.44
X4.34Y-2.54
X4.34Y-2.64
X4.34Y-2.74
X4.34Y-2.84
X4.34Y-2.94
X4.34Y-3.04
X4.34Y-3.14
X4.34Y-3.24
X4.34Y-3.34
X4.34Y-3.44
X4.34Y-3.54
X4.34Y-3.64
X4.34Y-3.74
X4.34Y-3.84
X4.34Y-3.94
X4.34Y-4.04
X4.34Y-4.14
X4.34Y-4.24
X4.34Y-4.34
X4.34Y-4.44
X4.34Y-4.54
X4.34Y-4.64
X4.34Y-4.74
X4.34Y-4.84
X4.34Y-4.94
X4.34Y-5.04
X4.34Y-5.14
X4.34Y-5.24
X4.34Y-5.34
X4.34Y-5.44
X4.34Y-5.54
X5.285Y-7.7
X5.285Y-7.8
X5.3Y-2.44
X5.3Y-2.54
X5.3Y-2.64
X5.3Y-2.74
X5.3Y-2.84
X5.3Y-2.94
X5.3Y-3.04
X5.3Y-3.14
X5.3Y-3.24
X5.3Y-3.34
X5.3Y-3.44
X5.3Y-3.54
X5.3Y-3.64
X5.3Y-3.74
X5.3Y-3.84
X5.3Y-3.94
X5.3Y-4.04
X5.3Y-4.14
X5.3Y-4.24
X5.3Y-4.34
X5.3Y-4.44
X5.3Y-4.54
X5.3Y-4.64
X5.3Y-4.74
X5.3Y-4.84
X5.3Y-4.94
X5.3Y-5.04
X5.3Y-5.14
X5.3Y-5.24
X5.3Y-5.34
X5.3Y-5.44
X5.3Y-5.54
X5.385Y-7.7
X5.385Y-7.8
X5.485Y-7.7
X5.485Y-7.8
X5.5Y-2.44
X5.5Y-2.54
X5.5Y-2.64
X5.5Y-2.74
X5.5Y-2.84
X5.5Y-2.94
X5.5Y-3.04
X5.5Y-3.14
X5.5Y-3.24
X5.5Y-3.34
X5.5Y-3.44
X5.5Y-3.54
X5.5Y-3.64
X5.5Y-3.74
X5.5Y-3.84
X5.5Y-3.94
X5.5Y-4.04
X5.5Y-4.14
X5.5Y-4.24
X5.5Y-4.34
X5.5Y-4.44
X5.5Y-4.54
X5.5Y-4.64
X5.5Y-4.74
X5.5Y-4.84
X5.5Y-4.94
X5.5Y-5.04
X5.5Y-5.14
X5.5Y-5.24
X5.5Y-5.34
X5.5Y-5.44
X5.5Y-5.54
X5.585Y-7.7
X5.585Y-7.8
X5.685Y-7.7
X5.685Y-7.8
X5.74Y-9.7
X5.785Y-7.7
X5.785Y-7.8
X5.84Y-9.7
X5.885Y-7.7
X5.885Y-7.8
X5.97Y-8.63
X5.97Y-8.73
X5.985Y-7.7
X5.985Y-7.8
X6.085Y-7.465
X6.085Y-7.7
X6.085Y-7.8
X6.185Y-7.465
X6.185Y-7.7
X6.185Y-7.8
X6.285Y-7.7
X6.285Y-7.8
X6.385Y-7.7
X6.385Y-7.8
X6.47Y-2.44
X6.47Y-2.54
X6.47Y-2.64
X6.47Y-2.74
X6.47Y-2.84
X6.47Y-2.94
X6.47Y-3.04
X6.47Y-3.14
X6.47Y-3.24
X6.47Y-3.34
X6.47Y-3.44
X6.47Y-3.54
X6.47Y-3.64
X6.47Y-3.74
X6.47Y-3.84
X6.47Y-3.94
X6.47Y-4.04
X6.47Y-4.14
X6.47Y-4.24
X6.47Y-4.34
X6.47Y-4.44
X6.47Y-4.54
X6.47Y-4.64
X6.47Y-4.74
X6.47Y-4.84
X6.47Y-4.94
X6.47Y-5.04
X6.47Y-5.14
X6.47Y-5.24
X6.47Y-5.34
X6.47Y-5.44
X6.47Y-5.54
X6.485Y-7.7
X6.485Y-7.8
X6.585Y-7.7
X6.585Y-7.8
X6.67Y-2.44
X6.67Y-2.54
X6.67Y-2.64
X6.67Y-2.74
X6.67Y-2.84
X6.67Y-2.94
X6.67Y-3.04
X6.67Y-3.14
X6.67Y-3.24
X6.67Y-3.34
X6.67Y-3.44
X6.67Y-3.54
X6.67Y-3.64
X6.67Y-3.74
X6.67Y-3.84
X6.67Y-3.94
X6.67Y-4.04
X6.67Y-4.14
X6.67Y-4.24
X6.67Y-4.34
X6.67Y-4.44
X6.67Y-4.54
X6.67Y-4.64
X6.67Y-4.74
X6.67Y-4.84
X6.67Y-4.94
X6.67Y-5.04
X6.67Y-5.14
X6.67Y-5.24
X6.67Y-5.34
X6.67Y-5.44
X6.67Y-5.54
X6.685Y-7.7
X6.685Y-7.8
X6.785Y-7.7
X6.785Y-7.8
X6.885Y-7.7
X6.885Y-7.8
X6.985Y-7.7
X6.985Y-7.8
X7.085Y-7.7
X7.085Y-7.8
X7.185Y-7.7
X7.185Y-7.8
X8.1364Y-2.0918
X8.1909Y-1.98
X8.2455Y-2.0918
X8.3Y-1.98
X8.3545Y-2.0918
X8.4091Y-1.98
X8.4636Y-2.0918
X8.5181Y-1.98
X8.5726Y-2.0918
X9.5269Y-2.095
X9.5814Y-1.9832
X9.6359Y-2.095
X9.6905Y-1.9832
X9.745Y-2.095
X9.7995Y-1.9832
X9.8541Y-2.095
X9.9086Y-1.9832
X9.9631Y-2.095
X10.04Y-4.38
X10.14Y-4.38
X10.24Y-4.38
X10.34Y-4.38
X10.44Y-4.38
X10.54Y-4.38
X12.905Y-4.54
X13.005Y-4.54
X13.3216Y-2.175
X13.3761Y-2.0632
X13.4307Y-2.175
X13.4852Y-2.0632
X13.5397Y-2.175
X13.5943Y-2.0632
X13.6488Y-2.175
X13.7033Y-2.0632
X13.7578Y-2.175
X13.8124Y-2.0632
X13.8669Y-2.175
X13.9214Y-2.0632
X13.9759Y-2.175
X14.0305Y-2.0632
X14.085Y-2.175
X14.1395Y-2.0632
X14.1941Y-2.175
X14.2486Y-2.0632
X14.3031Y-2.175
X14.3576Y-2.0632
X14.4122Y-2.175
X14.4667Y-2.0632
X14.5212Y-2.175
X14.5757Y-2.0632
X14.6303Y-2.175
X15.1Y-9.32
X15.1Y-9.42
T8
X3.0741Y-9.59
X3.0741Y-9.7672
X3.33Y-9.59
X3.33Y-9.7672
X4.6441Y-9.5828
X4.6441Y-9.76
X4.9Y-9.5828
X4.9Y-9.76
T9
X2.5935Y-7.3965
X2.5935Y-7.5618
X2.5935Y-7.7272
X2.5935Y-7.8925
X2.5935Y-8.0579
X2.5935Y-8.2232
X2.5935Y-8.3886
X2.5935Y-8.5539
X2.5935Y-8.7193
X2.5935Y-8.8846
X2.5935Y-9.05
X2.5935Y-9.2154
X2.81Y-7.3965
X2.81Y-7.5618
X2.81Y-7.7272
X2.81Y-7.8925
X2.81Y-8.0579
X2.81Y-8.2232
X2.81Y-8.3886
X2.81Y-8.5539
X2.81Y-8.7193
X2.81Y-8.8846
X2.81Y-9.05
X2.81Y-9.2154
T10
X14.5583Y-5.445
X15.365Y-5.445
T11
X11.1031Y-1.9035
X11.3689Y-1.872
X11.6346Y-1.9035
X11.9254Y-1.9035
X12.1912Y-1.872
X12.4569Y-1.9035
T12
X6.82Y-9.14
X6.82Y-9.72
X10.52Y-9.14
X10.52Y-9.72
T13
X2.5975Y-7.2089
T14
X7.8624Y-2.08
X8.8467Y-2.08
X9.2529Y-2.0832
X10.2371Y-2.0832
X13.0488Y-2.1191
X14.9031Y-2.1191
T0
M30
