G04 #@! TF.GenerationSoftware,KiCad,Pcbnew,(5.1.10)-1*
G04 #@! TF.CreationDate,2021-09-08T15:57:07+01:00*
G04 #@! TF.ProjectId,yddraig,79646472-6169-4672-9e6b-696361645f70,rev?*
G04 #@! TF.SameCoordinates,Original*
G04 #@! TF.FileFunction,Paste,Top*
G04 #@! TF.FilePolarity,Positive*
%FSLAX46Y46*%
G04 Gerber Fmt 4.6, Leading zero omitted, Abs format (unit mm)*
G04 Created by KiCad (PCBNEW (5.1.10)-1) date 2021-09-08 15:57:07*
%MOMM*%
%LPD*%
G01*
G04 APERTURE LIST*
G04 APERTURE END LIST*
G36*
G01*
X94018000Y-217320000D02*
X94018000Y-217020000D01*
G75*
G02*
X94168000Y-216870000I150000J0D01*
G01*
X95818000Y-216870000D01*
G75*
G02*
X95968000Y-217020000I0J-150000D01*
G01*
X95968000Y-217320000D01*
G75*
G02*
X95818000Y-217470000I-150000J0D01*
G01*
X94168000Y-217470000D01*
G75*
G02*
X94018000Y-217320000I0J150000D01*
G01*
G37*
G36*
G01*
X94018000Y-218590000D02*
X94018000Y-218290000D01*
G75*
G02*
X94168000Y-218140000I150000J0D01*
G01*
X95818000Y-218140000D01*
G75*
G02*
X95968000Y-218290000I0J-150000D01*
G01*
X95968000Y-218590000D01*
G75*
G02*
X95818000Y-218740000I-150000J0D01*
G01*
X94168000Y-218740000D01*
G75*
G02*
X94018000Y-218590000I0J150000D01*
G01*
G37*
G36*
G01*
X94018000Y-219860000D02*
X94018000Y-219560000D01*
G75*
G02*
X94168000Y-219410000I150000J0D01*
G01*
X95818000Y-219410000D01*
G75*
G02*
X95968000Y-219560000I0J-150000D01*
G01*
X95968000Y-219860000D01*
G75*
G02*
X95818000Y-220010000I-150000J0D01*
G01*
X94168000Y-220010000D01*
G75*
G02*
X94018000Y-219860000I0J150000D01*
G01*
G37*
G36*
G01*
X94018000Y-221130000D02*
X94018000Y-220830000D01*
G75*
G02*
X94168000Y-220680000I150000J0D01*
G01*
X95818000Y-220680000D01*
G75*
G02*
X95968000Y-220830000I0J-150000D01*
G01*
X95968000Y-221130000D01*
G75*
G02*
X95818000Y-221280000I-150000J0D01*
G01*
X94168000Y-221280000D01*
G75*
G02*
X94018000Y-221130000I0J150000D01*
G01*
G37*
G36*
G01*
X94018000Y-222400000D02*
X94018000Y-222100000D01*
G75*
G02*
X94168000Y-221950000I150000J0D01*
G01*
X95818000Y-221950000D01*
G75*
G02*
X95968000Y-222100000I0J-150000D01*
G01*
X95968000Y-222400000D01*
G75*
G02*
X95818000Y-222550000I-150000J0D01*
G01*
X94168000Y-222550000D01*
G75*
G02*
X94018000Y-222400000I0J150000D01*
G01*
G37*
G36*
G01*
X94018000Y-223670000D02*
X94018000Y-223370000D01*
G75*
G02*
X94168000Y-223220000I150000J0D01*
G01*
X95818000Y-223220000D01*
G75*
G02*
X95968000Y-223370000I0J-150000D01*
G01*
X95968000Y-223670000D01*
G75*
G02*
X95818000Y-223820000I-150000J0D01*
G01*
X94168000Y-223820000D01*
G75*
G02*
X94018000Y-223670000I0J150000D01*
G01*
G37*
G36*
G01*
X94018000Y-224940000D02*
X94018000Y-224640000D01*
G75*
G02*
X94168000Y-224490000I150000J0D01*
G01*
X95818000Y-224490000D01*
G75*
G02*
X95968000Y-224640000I0J-150000D01*
G01*
X95968000Y-224940000D01*
G75*
G02*
X95818000Y-225090000I-150000J0D01*
G01*
X94168000Y-225090000D01*
G75*
G02*
X94018000Y-224940000I0J150000D01*
G01*
G37*
G36*
G01*
X89068000Y-224940000D02*
X89068000Y-224640000D01*
G75*
G02*
X89218000Y-224490000I150000J0D01*
G01*
X90868000Y-224490000D01*
G75*
G02*
X91018000Y-224640000I0J-150000D01*
G01*
X91018000Y-224940000D01*
G75*
G02*
X90868000Y-225090000I-150000J0D01*
G01*
X89218000Y-225090000D01*
G75*
G02*
X89068000Y-224940000I0J150000D01*
G01*
G37*
G36*
G01*
X89068000Y-223670000D02*
X89068000Y-223370000D01*
G75*
G02*
X89218000Y-223220000I150000J0D01*
G01*
X90868000Y-223220000D01*
G75*
G02*
X91018000Y-223370000I0J-150000D01*
G01*
X91018000Y-223670000D01*
G75*
G02*
X90868000Y-223820000I-150000J0D01*
G01*
X89218000Y-223820000D01*
G75*
G02*
X89068000Y-223670000I0J150000D01*
G01*
G37*
G36*
G01*
X89068000Y-222400000D02*
X89068000Y-222100000D01*
G75*
G02*
X89218000Y-221950000I150000J0D01*
G01*
X90868000Y-221950000D01*
G75*
G02*
X91018000Y-222100000I0J-150000D01*
G01*
X91018000Y-222400000D01*
G75*
G02*
X90868000Y-222550000I-150000J0D01*
G01*
X89218000Y-222550000D01*
G75*
G02*
X89068000Y-222400000I0J150000D01*
G01*
G37*
G36*
G01*
X89068000Y-221130000D02*
X89068000Y-220830000D01*
G75*
G02*
X89218000Y-220680000I150000J0D01*
G01*
X90868000Y-220680000D01*
G75*
G02*
X91018000Y-220830000I0J-150000D01*
G01*
X91018000Y-221130000D01*
G75*
G02*
X90868000Y-221280000I-150000J0D01*
G01*
X89218000Y-221280000D01*
G75*
G02*
X89068000Y-221130000I0J150000D01*
G01*
G37*
G36*
G01*
X89068000Y-219860000D02*
X89068000Y-219560000D01*
G75*
G02*
X89218000Y-219410000I150000J0D01*
G01*
X90868000Y-219410000D01*
G75*
G02*
X91018000Y-219560000I0J-150000D01*
G01*
X91018000Y-219860000D01*
G75*
G02*
X90868000Y-220010000I-150000J0D01*
G01*
X89218000Y-220010000D01*
G75*
G02*
X89068000Y-219860000I0J150000D01*
G01*
G37*
G36*
G01*
X89068000Y-218590000D02*
X89068000Y-218290000D01*
G75*
G02*
X89218000Y-218140000I150000J0D01*
G01*
X90868000Y-218140000D01*
G75*
G02*
X91018000Y-218290000I0J-150000D01*
G01*
X91018000Y-218590000D01*
G75*
G02*
X90868000Y-218740000I-150000J0D01*
G01*
X89218000Y-218740000D01*
G75*
G02*
X89068000Y-218590000I0J150000D01*
G01*
G37*
G36*
G01*
X89068000Y-217320000D02*
X89068000Y-217020000D01*
G75*
G02*
X89218000Y-216870000I150000J0D01*
G01*
X90868000Y-216870000D01*
G75*
G02*
X91018000Y-217020000I0J-150000D01*
G01*
X91018000Y-217320000D01*
G75*
G02*
X90868000Y-217470000I-150000J0D01*
G01*
X89218000Y-217470000D01*
G75*
G02*
X89068000Y-217320000I0J150000D01*
G01*
G37*
G36*
G01*
X82018000Y-217320000D02*
X82018000Y-217020000D01*
G75*
G02*
X82168000Y-216870000I150000J0D01*
G01*
X83818000Y-216870000D01*
G75*
G02*
X83968000Y-217020000I0J-150000D01*
G01*
X83968000Y-217320000D01*
G75*
G02*
X83818000Y-217470000I-150000J0D01*
G01*
X82168000Y-217470000D01*
G75*
G02*
X82018000Y-217320000I0J150000D01*
G01*
G37*
G36*
G01*
X82018000Y-218590000D02*
X82018000Y-218290000D01*
G75*
G02*
X82168000Y-218140000I150000J0D01*
G01*
X83818000Y-218140000D01*
G75*
G02*
X83968000Y-218290000I0J-150000D01*
G01*
X83968000Y-218590000D01*
G75*
G02*
X83818000Y-218740000I-150000J0D01*
G01*
X82168000Y-218740000D01*
G75*
G02*
X82018000Y-218590000I0J150000D01*
G01*
G37*
G36*
G01*
X82018000Y-219860000D02*
X82018000Y-219560000D01*
G75*
G02*
X82168000Y-219410000I150000J0D01*
G01*
X83818000Y-219410000D01*
G75*
G02*
X83968000Y-219560000I0J-150000D01*
G01*
X83968000Y-219860000D01*
G75*
G02*
X83818000Y-220010000I-150000J0D01*
G01*
X82168000Y-220010000D01*
G75*
G02*
X82018000Y-219860000I0J150000D01*
G01*
G37*
G36*
G01*
X82018000Y-221130000D02*
X82018000Y-220830000D01*
G75*
G02*
X82168000Y-220680000I150000J0D01*
G01*
X83818000Y-220680000D01*
G75*
G02*
X83968000Y-220830000I0J-150000D01*
G01*
X83968000Y-221130000D01*
G75*
G02*
X83818000Y-221280000I-150000J0D01*
G01*
X82168000Y-221280000D01*
G75*
G02*
X82018000Y-221130000I0J150000D01*
G01*
G37*
G36*
G01*
X82018000Y-222400000D02*
X82018000Y-222100000D01*
G75*
G02*
X82168000Y-221950000I150000J0D01*
G01*
X83818000Y-221950000D01*
G75*
G02*
X83968000Y-222100000I0J-150000D01*
G01*
X83968000Y-222400000D01*
G75*
G02*
X83818000Y-222550000I-150000J0D01*
G01*
X82168000Y-222550000D01*
G75*
G02*
X82018000Y-222400000I0J150000D01*
G01*
G37*
G36*
G01*
X82018000Y-223670000D02*
X82018000Y-223370000D01*
G75*
G02*
X82168000Y-223220000I150000J0D01*
G01*
X83818000Y-223220000D01*
G75*
G02*
X83968000Y-223370000I0J-150000D01*
G01*
X83968000Y-223670000D01*
G75*
G02*
X83818000Y-223820000I-150000J0D01*
G01*
X82168000Y-223820000D01*
G75*
G02*
X82018000Y-223670000I0J150000D01*
G01*
G37*
G36*
G01*
X82018000Y-224940000D02*
X82018000Y-224640000D01*
G75*
G02*
X82168000Y-224490000I150000J0D01*
G01*
X83818000Y-224490000D01*
G75*
G02*
X83968000Y-224640000I0J-150000D01*
G01*
X83968000Y-224940000D01*
G75*
G02*
X83818000Y-225090000I-150000J0D01*
G01*
X82168000Y-225090000D01*
G75*
G02*
X82018000Y-224940000I0J150000D01*
G01*
G37*
G36*
G01*
X77068000Y-224940000D02*
X77068000Y-224640000D01*
G75*
G02*
X77218000Y-224490000I150000J0D01*
G01*
X78868000Y-224490000D01*
G75*
G02*
X79018000Y-224640000I0J-150000D01*
G01*
X79018000Y-224940000D01*
G75*
G02*
X78868000Y-225090000I-150000J0D01*
G01*
X77218000Y-225090000D01*
G75*
G02*
X77068000Y-224940000I0J150000D01*
G01*
G37*
G36*
G01*
X77068000Y-223670000D02*
X77068000Y-223370000D01*
G75*
G02*
X77218000Y-223220000I150000J0D01*
G01*
X78868000Y-223220000D01*
G75*
G02*
X79018000Y-223370000I0J-150000D01*
G01*
X79018000Y-223670000D01*
G75*
G02*
X78868000Y-223820000I-150000J0D01*
G01*
X77218000Y-223820000D01*
G75*
G02*
X77068000Y-223670000I0J150000D01*
G01*
G37*
G36*
G01*
X77068000Y-222400000D02*
X77068000Y-222100000D01*
G75*
G02*
X77218000Y-221950000I150000J0D01*
G01*
X78868000Y-221950000D01*
G75*
G02*
X79018000Y-222100000I0J-150000D01*
G01*
X79018000Y-222400000D01*
G75*
G02*
X78868000Y-222550000I-150000J0D01*
G01*
X77218000Y-222550000D01*
G75*
G02*
X77068000Y-222400000I0J150000D01*
G01*
G37*
G36*
G01*
X77068000Y-221130000D02*
X77068000Y-220830000D01*
G75*
G02*
X77218000Y-220680000I150000J0D01*
G01*
X78868000Y-220680000D01*
G75*
G02*
X79018000Y-220830000I0J-150000D01*
G01*
X79018000Y-221130000D01*
G75*
G02*
X78868000Y-221280000I-150000J0D01*
G01*
X77218000Y-221280000D01*
G75*
G02*
X77068000Y-221130000I0J150000D01*
G01*
G37*
G36*
G01*
X77068000Y-219860000D02*
X77068000Y-219560000D01*
G75*
G02*
X77218000Y-219410000I150000J0D01*
G01*
X78868000Y-219410000D01*
G75*
G02*
X79018000Y-219560000I0J-150000D01*
G01*
X79018000Y-219860000D01*
G75*
G02*
X78868000Y-220010000I-150000J0D01*
G01*
X77218000Y-220010000D01*
G75*
G02*
X77068000Y-219860000I0J150000D01*
G01*
G37*
G36*
G01*
X77068000Y-218590000D02*
X77068000Y-218290000D01*
G75*
G02*
X77218000Y-218140000I150000J0D01*
G01*
X78868000Y-218140000D01*
G75*
G02*
X79018000Y-218290000I0J-150000D01*
G01*
X79018000Y-218590000D01*
G75*
G02*
X78868000Y-218740000I-150000J0D01*
G01*
X77218000Y-218740000D01*
G75*
G02*
X77068000Y-218590000I0J150000D01*
G01*
G37*
G36*
G01*
X77068000Y-217320000D02*
X77068000Y-217020000D01*
G75*
G02*
X77218000Y-216870000I150000J0D01*
G01*
X78868000Y-216870000D01*
G75*
G02*
X79018000Y-217020000I0J-150000D01*
G01*
X79018000Y-217320000D01*
G75*
G02*
X78868000Y-217470000I-150000J0D01*
G01*
X77218000Y-217470000D01*
G75*
G02*
X77068000Y-217320000I0J150000D01*
G01*
G37*
M02*
