G04 #@! TF.GenerationSoftware,KiCad,Pcbnew,(5.1.10)-1*
G04 #@! TF.CreationDate,2021-12-01T13:22:19+00:00*
G04 #@! TF.ProjectId,yddraig,79646472-6169-4672-9e6b-696361645f70,rev?*
G04 #@! TF.SameCoordinates,Original*
G04 #@! TF.FileFunction,Soldermask,Top*
G04 #@! TF.FilePolarity,Negative*
%FSLAX46Y46*%
G04 Gerber Fmt 4.6, Leading zero omitted, Abs format (unit mm)*
G04 Created by KiCad (PCBNEW (5.1.10)-1) date 2021-12-01 13:22:19*
%MOMM*%
%LPD*%
G01*
G04 APERTURE LIST*
%ADD10C,1.600000*%
%ADD11R,1.600000X1.600000*%
%ADD12O,1.600000X1.600000*%
%ADD13R,1.050000X1.500000*%
%ADD14O,1.050000X1.500000*%
%ADD15C,2.000000*%
%ADD16C,3.048000*%
%ADD17C,1.397000*%
%ADD18R,1.397000X1.397000*%
%ADD19C,4.300000*%
%ADD20R,3.000000X3.000000*%
%ADD21C,3.000000*%
%ADD22C,1.422400*%
%ADD23R,1.422400X1.422400*%
%ADD24C,2.850000*%
%ADD25C,1.550000*%
%ADD26C,1.500000*%
%ADD27R,1.300000X1.300000*%
%ADD28C,1.300000*%
%ADD29C,1.700000*%
%ADD30O,1.700000X1.700000*%
%ADD31R,1.700000X1.700000*%
%ADD32C,4.000000*%
%ADD33C,3.300000*%
%ADD34C,1.524000*%
%ADD35C,3.505200*%
%ADD36C,1.905000*%
%ADD37C,1.800000*%
%ADD38R,1.800000X1.800000*%
G04 APERTURE END LIST*
D10*
X80732000Y-234442000D03*
D11*
X78232000Y-234442000D03*
D10*
X112228000Y-236728000D03*
X109728000Y-236728000D03*
D12*
X101346000Y-211328000D03*
X93726000Y-226568000D03*
X101346000Y-213868000D03*
X93726000Y-224028000D03*
X101346000Y-216408000D03*
X93726000Y-221488000D03*
X101346000Y-218948000D03*
X93726000Y-218948000D03*
X101346000Y-221488000D03*
X93726000Y-216408000D03*
X101346000Y-224028000D03*
X93726000Y-213868000D03*
X101346000Y-226568000D03*
D11*
X93726000Y-211328000D03*
D12*
X87630000Y-211328000D03*
X80010000Y-226568000D03*
X87630000Y-213868000D03*
X80010000Y-224028000D03*
X87630000Y-216408000D03*
X80010000Y-221488000D03*
X87630000Y-218948000D03*
X80010000Y-218948000D03*
X87630000Y-221488000D03*
X80010000Y-216408000D03*
X87630000Y-224028000D03*
X80010000Y-213868000D03*
X87630000Y-226568000D03*
D11*
X80010000Y-211328000D03*
D12*
X156760000Y-205700000D03*
D10*
X146600000Y-205700000D03*
D13*
X161560000Y-212600000D03*
D14*
X164100000Y-212600000D03*
X162830000Y-212600000D03*
D15*
X124460000Y-243404000D03*
X124460000Y-247904000D03*
X117960000Y-243404000D03*
X117960000Y-247904000D03*
X84582000Y-243586000D03*
X84582000Y-248086000D03*
X78082000Y-243586000D03*
X78082000Y-248086000D03*
D12*
X387985000Y-92456000D03*
X329565000Y-77216000D03*
X385445000Y-92456000D03*
X332105000Y-77216000D03*
X382905000Y-92456000D03*
X334645000Y-77216000D03*
X380365000Y-92456000D03*
X337185000Y-77216000D03*
X377825000Y-92456000D03*
X339725000Y-77216000D03*
X375285000Y-92456000D03*
X342265000Y-77216000D03*
X372745000Y-92456000D03*
X344805000Y-77216000D03*
X370205000Y-92456000D03*
X347345000Y-77216000D03*
X367665000Y-92456000D03*
X349885000Y-77216000D03*
X365125000Y-92456000D03*
X352425000Y-77216000D03*
X362585000Y-92456000D03*
X354965000Y-77216000D03*
X360045000Y-92456000D03*
X357505000Y-77216000D03*
X357505000Y-92456000D03*
X360045000Y-77216000D03*
X354965000Y-92456000D03*
X362585000Y-77216000D03*
X352425000Y-92456000D03*
X365125000Y-77216000D03*
X349885000Y-92456000D03*
X367665000Y-77216000D03*
X347345000Y-92456000D03*
X370205000Y-77216000D03*
X344805000Y-92456000D03*
X372745000Y-77216000D03*
X342265000Y-92456000D03*
X375285000Y-77216000D03*
X339725000Y-92456000D03*
X377825000Y-77216000D03*
X337185000Y-92456000D03*
X380365000Y-77216000D03*
X334645000Y-92456000D03*
X382905000Y-77216000D03*
X332105000Y-92456000D03*
X385445000Y-77216000D03*
X329565000Y-92456000D03*
D11*
X387985000Y-77216000D03*
D16*
X173228000Y-232156000D03*
X267208000Y-232156000D03*
D17*
X257048000Y-232156000D03*
X254508000Y-232156000D03*
X251968000Y-232156000D03*
X249428000Y-232156000D03*
X246888000Y-232156000D03*
X244348000Y-232156000D03*
X241808000Y-232156000D03*
X239268000Y-232156000D03*
X236728000Y-232156000D03*
X234188000Y-232156000D03*
X231648000Y-232156000D03*
X229108000Y-232156000D03*
X226568000Y-232156000D03*
X224028000Y-232156000D03*
X221488000Y-232156000D03*
X218948000Y-232156000D03*
X216408000Y-232156000D03*
X213868000Y-232156000D03*
X211328000Y-232156000D03*
X208788000Y-232156000D03*
X206248000Y-232156000D03*
X203708000Y-232156000D03*
X201168000Y-232156000D03*
X198628000Y-232156000D03*
X196088000Y-232156000D03*
X193548000Y-232156000D03*
X191008000Y-232156000D03*
X188468000Y-232156000D03*
X185928000Y-232156000D03*
D18*
X183388000Y-232156000D03*
D10*
X375434000Y-151384000D03*
X372934000Y-151384000D03*
X369784000Y-151384000D03*
X367284000Y-151384000D03*
D12*
X183388000Y-205740000D03*
D10*
X173228000Y-205740000D03*
D12*
X191008000Y-225552000D03*
X188468000Y-225552000D03*
X185928000Y-225552000D03*
X183388000Y-225552000D03*
X180848000Y-225552000D03*
X178308000Y-225552000D03*
X175768000Y-225552000D03*
D11*
X173228000Y-225552000D03*
D12*
X258318000Y-225552000D03*
X255778000Y-225552000D03*
X253238000Y-225552000D03*
X250698000Y-225552000D03*
X248158000Y-225552000D03*
X245618000Y-225552000D03*
X243078000Y-225552000D03*
D11*
X240538000Y-225552000D03*
D12*
X213868000Y-225552000D03*
X211328000Y-225552000D03*
X208788000Y-225552000D03*
X206248000Y-225552000D03*
X203708000Y-225552000D03*
X201168000Y-225552000D03*
X198628000Y-225552000D03*
D11*
X196088000Y-225552000D03*
D12*
X236728000Y-225552000D03*
X234188000Y-225552000D03*
X231648000Y-225552000D03*
X229108000Y-225552000D03*
X226568000Y-225552000D03*
X224028000Y-225552000D03*
X221488000Y-225552000D03*
D11*
X218948000Y-225552000D03*
D12*
X110236000Y-206248000D03*
X112776000Y-206248000D03*
X115316000Y-206248000D03*
X117856000Y-206248000D03*
X120396000Y-206248000D03*
X122936000Y-206248000D03*
X125476000Y-206248000D03*
D11*
X128016000Y-206248000D03*
D12*
X182499000Y-189484000D03*
X179959000Y-189484000D03*
X177419000Y-189484000D03*
X174879000Y-189484000D03*
X172339000Y-189484000D03*
X169799000Y-189484000D03*
X167259000Y-189484000D03*
D11*
X164719000Y-189484000D03*
D10*
X246293000Y-59690000D03*
X248793000Y-59690000D03*
D19*
X153924000Y-51816000D03*
X154940000Y-146304000D03*
X388620000Y-51308000D03*
X390652000Y-244348000D03*
X66548000Y-245364000D03*
X65532000Y-51816000D03*
D12*
X356108000Y-157480000D03*
X340868000Y-149860000D03*
X353568000Y-157480000D03*
X343408000Y-149860000D03*
X351028000Y-157480000D03*
X345948000Y-149860000D03*
X348488000Y-157480000D03*
X348488000Y-149860000D03*
X345948000Y-157480000D03*
X351028000Y-149860000D03*
X343408000Y-157480000D03*
X353568000Y-149860000D03*
X340868000Y-157480000D03*
D11*
X356108000Y-149860000D03*
D12*
X334518000Y-157480000D03*
X319278000Y-149860000D03*
X331978000Y-157480000D03*
X321818000Y-149860000D03*
X329438000Y-157480000D03*
X324358000Y-149860000D03*
X326898000Y-157480000D03*
X326898000Y-149860000D03*
X324358000Y-157480000D03*
X329438000Y-149860000D03*
X321818000Y-157480000D03*
X331978000Y-149860000D03*
X319278000Y-157480000D03*
D11*
X334518000Y-149860000D03*
D12*
X320548000Y-106680000D03*
X305308000Y-99060000D03*
X318008000Y-106680000D03*
X307848000Y-99060000D03*
X315468000Y-106680000D03*
X310388000Y-99060000D03*
X312928000Y-106680000D03*
X312928000Y-99060000D03*
X310388000Y-106680000D03*
X315468000Y-99060000D03*
X307848000Y-106680000D03*
X318008000Y-99060000D03*
X305308000Y-106680000D03*
D11*
X320548000Y-99060000D03*
D12*
X169799000Y-205740000D03*
D10*
X159639000Y-205740000D03*
D20*
X369781000Y-138303000D03*
D21*
X390271000Y-138303000D03*
D12*
X273685000Y-225171000D03*
D10*
X263525000Y-225171000D03*
D22*
X280416000Y-149479000D03*
X277876000Y-149479000D03*
X275336000Y-149479000D03*
X272796000Y-149479000D03*
X270256000Y-149479000D03*
X267716000Y-149479000D03*
X265176000Y-149479000D03*
X262636000Y-149479000D03*
X260096000Y-149479000D03*
X257556000Y-149479000D03*
X280416000Y-146939000D03*
X277876000Y-146939000D03*
X275336000Y-146939000D03*
X272796000Y-146939000D03*
X270256000Y-146939000D03*
X267716000Y-146939000D03*
X265176000Y-146939000D03*
X262636000Y-146939000D03*
X260096000Y-146939000D03*
X257556000Y-146939000D03*
X255016000Y-146939000D03*
X255016000Y-144399000D03*
X255016000Y-141859000D03*
X255016000Y-139319000D03*
X255016000Y-136779000D03*
X255016000Y-134239000D03*
X255016000Y-131699000D03*
X255016000Y-129159000D03*
X255016000Y-126619000D03*
X255016000Y-124079000D03*
X255016000Y-121539000D03*
X257556000Y-144399000D03*
X257556000Y-141859000D03*
X257556000Y-139319000D03*
X257556000Y-136779000D03*
X257556000Y-134239000D03*
X257556000Y-131699000D03*
X257556000Y-129159000D03*
X257556000Y-126619000D03*
X257556000Y-124079000D03*
X257556000Y-121539000D03*
X257556000Y-118999000D03*
X260096000Y-118999000D03*
X262636000Y-118999000D03*
X265176000Y-118999000D03*
X267716000Y-118999000D03*
X270256000Y-118999000D03*
X272796000Y-118999000D03*
X275336000Y-118999000D03*
X277876000Y-118999000D03*
X280416000Y-118999000D03*
X282956000Y-118999000D03*
X260096000Y-121539000D03*
X262636000Y-121539000D03*
X265176000Y-121539000D03*
X267716000Y-121539000D03*
X270256000Y-121539000D03*
X272796000Y-121539000D03*
X275336000Y-121539000D03*
X277876000Y-121539000D03*
X280416000Y-121539000D03*
X282956000Y-121539000D03*
X285496000Y-146939000D03*
X285496000Y-144399000D03*
X285496000Y-141859000D03*
X285496000Y-139319000D03*
X285496000Y-136779000D03*
X285496000Y-121539000D03*
X285496000Y-124079000D03*
X285496000Y-126619000D03*
X285496000Y-129159000D03*
X285496000Y-131699000D03*
D23*
X285496000Y-134239000D03*
D22*
X282956000Y-149479000D03*
X282956000Y-146939000D03*
X282956000Y-144399000D03*
X282956000Y-141859000D03*
X282956000Y-139319000D03*
X282956000Y-136779000D03*
X282956000Y-124079000D03*
X282956000Y-126619000D03*
X282956000Y-129159000D03*
X282956000Y-131699000D03*
X282956000Y-134239000D03*
D12*
X320548000Y-92456000D03*
X272288000Y-77216000D03*
X318008000Y-92456000D03*
X274828000Y-77216000D03*
X315468000Y-92456000D03*
X277368000Y-77216000D03*
X312928000Y-92456000D03*
X279908000Y-77216000D03*
X310388000Y-92456000D03*
X282448000Y-77216000D03*
X307848000Y-92456000D03*
X284988000Y-77216000D03*
X305308000Y-92456000D03*
X287528000Y-77216000D03*
X302768000Y-92456000D03*
X290068000Y-77216000D03*
X300228000Y-92456000D03*
X292608000Y-77216000D03*
X297688000Y-92456000D03*
X295148000Y-77216000D03*
X295148000Y-92456000D03*
X297688000Y-77216000D03*
X292608000Y-92456000D03*
X300228000Y-77216000D03*
X290068000Y-92456000D03*
X302768000Y-77216000D03*
X287528000Y-92456000D03*
X305308000Y-77216000D03*
X284988000Y-92456000D03*
X307848000Y-77216000D03*
X282448000Y-92456000D03*
X310388000Y-77216000D03*
X279908000Y-92456000D03*
X312928000Y-77216000D03*
X277368000Y-92456000D03*
X315468000Y-77216000D03*
X274828000Y-92456000D03*
X318008000Y-77216000D03*
X272288000Y-92456000D03*
D11*
X320548000Y-77216000D03*
D24*
X166578000Y-146346000D03*
X166578000Y-56346000D03*
D25*
X169418000Y-140716000D03*
X169418000Y-138176000D03*
X169418000Y-135636000D03*
X169418000Y-133096000D03*
X169418000Y-130556000D03*
X169418000Y-128016000D03*
X169418000Y-125476000D03*
X169418000Y-122936000D03*
X169418000Y-120396000D03*
X169418000Y-117856000D03*
X169418000Y-115316000D03*
X169418000Y-112776000D03*
X169418000Y-110236000D03*
X169418000Y-107696000D03*
X169418000Y-105156000D03*
X169418000Y-102616000D03*
X169418000Y-100076000D03*
X169418000Y-97536000D03*
X169418000Y-94996000D03*
X169418000Y-92456000D03*
X169418000Y-89916000D03*
X169418000Y-87376000D03*
X169418000Y-84836000D03*
X169418000Y-82296000D03*
X169418000Y-79756000D03*
X169418000Y-77216000D03*
X169418000Y-74676000D03*
X169418000Y-72136000D03*
X169418000Y-69596000D03*
X169418000Y-67056000D03*
X169418000Y-64516000D03*
X169418000Y-61976000D03*
X164338000Y-140716000D03*
X164338000Y-138176000D03*
X164338000Y-135636000D03*
X164338000Y-133096000D03*
X164338000Y-130556000D03*
X164338000Y-128016000D03*
X164338000Y-125476000D03*
X164338000Y-122936000D03*
X164338000Y-120396000D03*
X164338000Y-117856000D03*
X164338000Y-115316000D03*
X164338000Y-112776000D03*
X164338000Y-110236000D03*
X164338000Y-107696000D03*
X164338000Y-105156000D03*
X164338000Y-102616000D03*
X164338000Y-100076000D03*
X164338000Y-97536000D03*
X164338000Y-94996000D03*
X164338000Y-92456000D03*
X164338000Y-89916000D03*
X164338000Y-87376000D03*
X164338000Y-84836000D03*
X164338000Y-82296000D03*
X164338000Y-79756000D03*
X164338000Y-77216000D03*
X164338000Y-74676000D03*
X164338000Y-72136000D03*
X164338000Y-69596000D03*
X164338000Y-67056000D03*
X164338000Y-64516000D03*
G36*
G01*
X163563000Y-62501002D02*
X163563000Y-61450998D01*
G75*
G02*
X163812998Y-61201000I249998J0D01*
G01*
X164863002Y-61201000D01*
G75*
G02*
X165113000Y-61450998I0J-249998D01*
G01*
X165113000Y-62501002D01*
G75*
G02*
X164863002Y-62751000I-249998J0D01*
G01*
X163812998Y-62751000D01*
G75*
G02*
X163563000Y-62501002I0J249998D01*
G01*
G37*
D12*
X328168000Y-247396000D03*
X290068000Y-232156000D03*
X325628000Y-247396000D03*
X292608000Y-232156000D03*
X323088000Y-247396000D03*
X295148000Y-232156000D03*
X320548000Y-247396000D03*
X297688000Y-232156000D03*
X318008000Y-247396000D03*
X300228000Y-232156000D03*
X315468000Y-247396000D03*
X302768000Y-232156000D03*
X312928000Y-247396000D03*
X305308000Y-232156000D03*
X310388000Y-247396000D03*
X307848000Y-232156000D03*
X307848000Y-247396000D03*
X310388000Y-232156000D03*
X305308000Y-247396000D03*
X312928000Y-232156000D03*
X302768000Y-247396000D03*
X315468000Y-232156000D03*
X300228000Y-247396000D03*
X318008000Y-232156000D03*
X297688000Y-247396000D03*
X320548000Y-232156000D03*
X295148000Y-247396000D03*
X323088000Y-232156000D03*
X292608000Y-247396000D03*
X325628000Y-232156000D03*
X290068000Y-247396000D03*
D11*
X328168000Y-232156000D03*
G36*
G01*
X133845000Y-62501002D02*
X133845000Y-61450998D01*
G75*
G02*
X134094998Y-61201000I249998J0D01*
G01*
X135145002Y-61201000D01*
G75*
G02*
X135395000Y-61450998I0J-249998D01*
G01*
X135395000Y-62501002D01*
G75*
G02*
X135145002Y-62751000I-249998J0D01*
G01*
X134094998Y-62751000D01*
G75*
G02*
X133845000Y-62501002I0J249998D01*
G01*
G37*
D25*
X134620000Y-64516000D03*
X134620000Y-67056000D03*
X134620000Y-69596000D03*
X134620000Y-72136000D03*
X134620000Y-74676000D03*
X134620000Y-77216000D03*
X134620000Y-79756000D03*
X134620000Y-82296000D03*
X134620000Y-84836000D03*
X134620000Y-87376000D03*
X134620000Y-89916000D03*
X134620000Y-92456000D03*
X134620000Y-94996000D03*
X134620000Y-97536000D03*
X134620000Y-100076000D03*
X134620000Y-102616000D03*
X134620000Y-105156000D03*
X134620000Y-107696000D03*
X134620000Y-110236000D03*
X134620000Y-112776000D03*
X134620000Y-115316000D03*
X134620000Y-117856000D03*
X134620000Y-120396000D03*
X134620000Y-122936000D03*
X134620000Y-125476000D03*
X134620000Y-128016000D03*
X134620000Y-130556000D03*
X134620000Y-133096000D03*
X134620000Y-135636000D03*
X134620000Y-138176000D03*
X134620000Y-140716000D03*
X139700000Y-61976000D03*
X139700000Y-64516000D03*
X139700000Y-67056000D03*
X139700000Y-69596000D03*
X139700000Y-72136000D03*
X139700000Y-74676000D03*
X139700000Y-77216000D03*
X139700000Y-79756000D03*
X139700000Y-82296000D03*
X139700000Y-84836000D03*
X139700000Y-87376000D03*
X139700000Y-89916000D03*
X139700000Y-92456000D03*
X139700000Y-94996000D03*
X139700000Y-97536000D03*
X139700000Y-100076000D03*
X139700000Y-102616000D03*
X139700000Y-105156000D03*
X139700000Y-107696000D03*
X139700000Y-110236000D03*
X139700000Y-112776000D03*
X139700000Y-115316000D03*
X139700000Y-117856000D03*
X139700000Y-120396000D03*
X139700000Y-122936000D03*
X139700000Y-125476000D03*
X139700000Y-128016000D03*
X139700000Y-130556000D03*
X139700000Y-133096000D03*
X139700000Y-135636000D03*
X139700000Y-138176000D03*
X139700000Y-140716000D03*
D24*
X136860000Y-56346000D03*
X136860000Y-146346000D03*
X107396000Y-146346000D03*
X107396000Y-56346000D03*
D25*
X110236000Y-140716000D03*
X110236000Y-138176000D03*
X110236000Y-135636000D03*
X110236000Y-133096000D03*
X110236000Y-130556000D03*
X110236000Y-128016000D03*
X110236000Y-125476000D03*
X110236000Y-122936000D03*
X110236000Y-120396000D03*
X110236000Y-117856000D03*
X110236000Y-115316000D03*
X110236000Y-112776000D03*
X110236000Y-110236000D03*
X110236000Y-107696000D03*
X110236000Y-105156000D03*
X110236000Y-102616000D03*
X110236000Y-100076000D03*
X110236000Y-97536000D03*
X110236000Y-94996000D03*
X110236000Y-92456000D03*
X110236000Y-89916000D03*
X110236000Y-87376000D03*
X110236000Y-84836000D03*
X110236000Y-82296000D03*
X110236000Y-79756000D03*
X110236000Y-77216000D03*
X110236000Y-74676000D03*
X110236000Y-72136000D03*
X110236000Y-69596000D03*
X110236000Y-67056000D03*
X110236000Y-64516000D03*
X110236000Y-61976000D03*
X105156000Y-140716000D03*
X105156000Y-138176000D03*
X105156000Y-135636000D03*
X105156000Y-133096000D03*
X105156000Y-130556000D03*
X105156000Y-128016000D03*
X105156000Y-125476000D03*
X105156000Y-122936000D03*
X105156000Y-120396000D03*
X105156000Y-117856000D03*
X105156000Y-115316000D03*
X105156000Y-112776000D03*
X105156000Y-110236000D03*
X105156000Y-107696000D03*
X105156000Y-105156000D03*
X105156000Y-102616000D03*
X105156000Y-100076000D03*
X105156000Y-97536000D03*
X105156000Y-94996000D03*
X105156000Y-92456000D03*
X105156000Y-89916000D03*
X105156000Y-87376000D03*
X105156000Y-84836000D03*
X105156000Y-82296000D03*
X105156000Y-79756000D03*
X105156000Y-77216000D03*
X105156000Y-74676000D03*
X105156000Y-72136000D03*
X105156000Y-69596000D03*
X105156000Y-67056000D03*
X105156000Y-64516000D03*
G36*
G01*
X104381000Y-62501002D02*
X104381000Y-61450998D01*
G75*
G02*
X104630998Y-61201000I249998J0D01*
G01*
X105681002Y-61201000D01*
G75*
G02*
X105931000Y-61450998I0J-249998D01*
G01*
X105931000Y-62501002D01*
G75*
G02*
X105681002Y-62751000I-249998J0D01*
G01*
X104630998Y-62751000D01*
G75*
G02*
X104381000Y-62501002I0J249998D01*
G01*
G37*
D12*
X376428000Y-220345000D03*
X338328000Y-205105000D03*
X373888000Y-220345000D03*
X340868000Y-205105000D03*
X371348000Y-220345000D03*
X343408000Y-205105000D03*
X368808000Y-220345000D03*
X345948000Y-205105000D03*
X366268000Y-220345000D03*
X348488000Y-205105000D03*
X363728000Y-220345000D03*
X351028000Y-205105000D03*
X361188000Y-220345000D03*
X353568000Y-205105000D03*
X358648000Y-220345000D03*
X356108000Y-205105000D03*
X356108000Y-220345000D03*
X358648000Y-205105000D03*
X353568000Y-220345000D03*
X361188000Y-205105000D03*
X351028000Y-220345000D03*
X363728000Y-205105000D03*
X348488000Y-220345000D03*
X366268000Y-205105000D03*
X345948000Y-220345000D03*
X368808000Y-205105000D03*
X343408000Y-220345000D03*
X371348000Y-205105000D03*
X340868000Y-220345000D03*
X373888000Y-205105000D03*
X338328000Y-220345000D03*
D11*
X376428000Y-205105000D03*
D12*
X200660000Y-131572000D03*
X193040000Y-146812000D03*
X200660000Y-134112000D03*
X193040000Y-144272000D03*
X200660000Y-136652000D03*
X193040000Y-141732000D03*
X200660000Y-139192000D03*
X193040000Y-139192000D03*
X200660000Y-141732000D03*
X193040000Y-136652000D03*
X200660000Y-144272000D03*
X193040000Y-134112000D03*
X200660000Y-146812000D03*
D11*
X193040000Y-131572000D03*
D26*
X238760000Y-98552000D03*
X243660000Y-98552000D03*
D10*
X315468000Y-64643000D03*
X315468000Y-72263000D03*
X323088000Y-72263000D03*
D11*
X323088000Y-64643000D03*
D10*
X300101000Y-124079000D03*
X292481000Y-124079000D03*
X292481000Y-139319000D03*
D11*
X300101000Y-139319000D03*
D12*
X200660000Y-102489000D03*
X193040000Y-125349000D03*
X200660000Y-105029000D03*
X193040000Y-122809000D03*
X200660000Y-107569000D03*
X193040000Y-120269000D03*
X200660000Y-110109000D03*
X193040000Y-117729000D03*
X200660000Y-112649000D03*
X193040000Y-115189000D03*
X200660000Y-115189000D03*
X193040000Y-112649000D03*
X200660000Y-117729000D03*
X193040000Y-110109000D03*
X200660000Y-120269000D03*
X193040000Y-107569000D03*
X200660000Y-122809000D03*
X193040000Y-105029000D03*
X200660000Y-125349000D03*
D11*
X193040000Y-102489000D03*
D12*
X192659000Y-167894000D03*
X215519000Y-175514000D03*
X195199000Y-167894000D03*
X212979000Y-175514000D03*
X197739000Y-167894000D03*
X210439000Y-175514000D03*
X200279000Y-167894000D03*
X207899000Y-175514000D03*
X202819000Y-167894000D03*
X205359000Y-175514000D03*
X205359000Y-167894000D03*
X202819000Y-175514000D03*
X207899000Y-167894000D03*
X200279000Y-175514000D03*
X210439000Y-167894000D03*
X197739000Y-175514000D03*
X212979000Y-167894000D03*
X195199000Y-175514000D03*
X215519000Y-167894000D03*
D11*
X192659000Y-175514000D03*
D12*
X163449000Y-167894000D03*
X186309000Y-175514000D03*
X165989000Y-167894000D03*
X183769000Y-175514000D03*
X168529000Y-167894000D03*
X181229000Y-175514000D03*
X171069000Y-167894000D03*
X178689000Y-175514000D03*
X173609000Y-167894000D03*
X176149000Y-175514000D03*
X176149000Y-167894000D03*
X173609000Y-175514000D03*
X178689000Y-167894000D03*
X171069000Y-175514000D03*
X181229000Y-167894000D03*
X168529000Y-175514000D03*
X183769000Y-167894000D03*
X165989000Y-175514000D03*
X186309000Y-167894000D03*
D11*
X163449000Y-175514000D03*
D12*
X218440000Y-102489000D03*
X210820000Y-125349000D03*
X218440000Y-105029000D03*
X210820000Y-122809000D03*
X218440000Y-107569000D03*
X210820000Y-120269000D03*
X218440000Y-110109000D03*
X210820000Y-117729000D03*
X218440000Y-112649000D03*
X210820000Y-115189000D03*
X218440000Y-115189000D03*
X210820000Y-112649000D03*
X218440000Y-117729000D03*
X210820000Y-110109000D03*
X218440000Y-120269000D03*
X210820000Y-107569000D03*
X218440000Y-122809000D03*
X210820000Y-105029000D03*
X218440000Y-125349000D03*
D11*
X210820000Y-102489000D03*
D12*
X134239000Y-167894000D03*
X157099000Y-175514000D03*
X136779000Y-167894000D03*
X154559000Y-175514000D03*
X139319000Y-167894000D03*
X152019000Y-175514000D03*
X141859000Y-167894000D03*
X149479000Y-175514000D03*
X144399000Y-167894000D03*
X146939000Y-175514000D03*
X146939000Y-167894000D03*
X144399000Y-175514000D03*
X149479000Y-167894000D03*
X141859000Y-175514000D03*
X152019000Y-167894000D03*
X139319000Y-175514000D03*
X154559000Y-167894000D03*
X136779000Y-175514000D03*
X157099000Y-167894000D03*
D11*
X134239000Y-175514000D03*
D12*
X105029000Y-167894000D03*
X127889000Y-175514000D03*
X107569000Y-167894000D03*
X125349000Y-175514000D03*
X110109000Y-167894000D03*
X122809000Y-175514000D03*
X112649000Y-167894000D03*
X120269000Y-175514000D03*
X115189000Y-167894000D03*
X117729000Y-175514000D03*
X117729000Y-167894000D03*
X115189000Y-175514000D03*
X120269000Y-167894000D03*
X112649000Y-175514000D03*
X122809000Y-167894000D03*
X110109000Y-175514000D03*
X125349000Y-167894000D03*
X107569000Y-175514000D03*
X127889000Y-167894000D03*
D11*
X105029000Y-175514000D03*
D12*
X75819000Y-167894000D03*
X98679000Y-175514000D03*
X78359000Y-167894000D03*
X96139000Y-175514000D03*
X80899000Y-167894000D03*
X93599000Y-175514000D03*
X83439000Y-167894000D03*
X91059000Y-175514000D03*
X85979000Y-167894000D03*
X88519000Y-175514000D03*
X88519000Y-167894000D03*
X85979000Y-175514000D03*
X91059000Y-167894000D03*
X83439000Y-175514000D03*
X93599000Y-167894000D03*
X80899000Y-175514000D03*
X96139000Y-167894000D03*
X78359000Y-175514000D03*
X98679000Y-167894000D03*
D11*
X75819000Y-175514000D03*
D12*
X244348000Y-220726000D03*
X226568000Y-213106000D03*
X241808000Y-220726000D03*
X229108000Y-213106000D03*
X239268000Y-220726000D03*
X231648000Y-213106000D03*
X236728000Y-220726000D03*
X234188000Y-213106000D03*
X234188000Y-220726000D03*
X236728000Y-213106000D03*
X231648000Y-220726000D03*
X239268000Y-213106000D03*
X229108000Y-220726000D03*
X241808000Y-213106000D03*
X226568000Y-220726000D03*
D11*
X244348000Y-213106000D03*
D12*
X216408000Y-220472000D03*
X198628000Y-212852000D03*
X213868000Y-220472000D03*
X201168000Y-212852000D03*
X211328000Y-220472000D03*
X203708000Y-212852000D03*
X208788000Y-220472000D03*
X206248000Y-212852000D03*
X206248000Y-220472000D03*
X208788000Y-212852000D03*
X203708000Y-220472000D03*
X211328000Y-212852000D03*
X201168000Y-220472000D03*
X213868000Y-212852000D03*
X198628000Y-220472000D03*
D11*
X216408000Y-212852000D03*
D12*
X191008000Y-220472000D03*
X173228000Y-212852000D03*
X188468000Y-220472000D03*
X175768000Y-212852000D03*
X185928000Y-220472000D03*
X178308000Y-212852000D03*
X183388000Y-220472000D03*
X180848000Y-212852000D03*
X180848000Y-220472000D03*
X183388000Y-212852000D03*
X178308000Y-220472000D03*
X185928000Y-212852000D03*
X175768000Y-220472000D03*
X188468000Y-212852000D03*
X173228000Y-220472000D03*
D11*
X191008000Y-212852000D03*
D12*
X137668000Y-211836000D03*
X130048000Y-229616000D03*
X137668000Y-214376000D03*
X130048000Y-227076000D03*
X137668000Y-216916000D03*
X130048000Y-224536000D03*
X137668000Y-219456000D03*
X130048000Y-221996000D03*
X137668000Y-221996000D03*
X130048000Y-219456000D03*
X137668000Y-224536000D03*
X130048000Y-216916000D03*
X137668000Y-227076000D03*
X130048000Y-214376000D03*
X137668000Y-229616000D03*
D11*
X130048000Y-211836000D03*
X374015000Y-105283000D03*
D12*
X353695000Y-112903000D03*
X371475000Y-105283000D03*
X356235000Y-112903000D03*
X368935000Y-105283000D03*
X358775000Y-112903000D03*
X366395000Y-105283000D03*
X361315000Y-112903000D03*
X363855000Y-105283000D03*
X363855000Y-112903000D03*
X361315000Y-105283000D03*
X366395000Y-112903000D03*
X358775000Y-105283000D03*
X368935000Y-112903000D03*
X356235000Y-105283000D03*
X371475000Y-112903000D03*
X353695000Y-105283000D03*
X374015000Y-112903000D03*
X251333000Y-72136000D03*
X233553000Y-64516000D03*
X248793000Y-72136000D03*
X236093000Y-64516000D03*
X246253000Y-72136000D03*
X238633000Y-64516000D03*
X243713000Y-72136000D03*
X241173000Y-64516000D03*
X241173000Y-72136000D03*
X243713000Y-64516000D03*
X238633000Y-72136000D03*
X246253000Y-64516000D03*
X236093000Y-72136000D03*
X248793000Y-64516000D03*
X233553000Y-72136000D03*
D11*
X251333000Y-64516000D03*
D12*
X228600000Y-72136000D03*
X210820000Y-64516000D03*
X226060000Y-72136000D03*
X213360000Y-64516000D03*
X223520000Y-72136000D03*
X215900000Y-64516000D03*
X220980000Y-72136000D03*
X218440000Y-64516000D03*
X218440000Y-72136000D03*
X220980000Y-64516000D03*
X215900000Y-72136000D03*
X223520000Y-64516000D03*
X213360000Y-72136000D03*
X226060000Y-64516000D03*
X210820000Y-72136000D03*
D11*
X228600000Y-64516000D03*
D12*
X305308000Y-72263000D03*
X290068000Y-64643000D03*
X302768000Y-72263000D03*
X292608000Y-64643000D03*
X300228000Y-72263000D03*
X295148000Y-64643000D03*
X297688000Y-72263000D03*
X297688000Y-64643000D03*
X295148000Y-72263000D03*
X300228000Y-64643000D03*
X292608000Y-72263000D03*
X302768000Y-64643000D03*
X290068000Y-72263000D03*
D11*
X305308000Y-64643000D03*
D12*
X259080000Y-92456000D03*
X210820000Y-77216000D03*
X256540000Y-92456000D03*
X213360000Y-77216000D03*
X254000000Y-92456000D03*
X215900000Y-77216000D03*
X251460000Y-92456000D03*
X218440000Y-77216000D03*
X248920000Y-92456000D03*
X220980000Y-77216000D03*
X246380000Y-92456000D03*
X223520000Y-77216000D03*
X243840000Y-92456000D03*
X226060000Y-77216000D03*
X241300000Y-92456000D03*
X228600000Y-77216000D03*
X238760000Y-92456000D03*
X231140000Y-77216000D03*
X236220000Y-92456000D03*
X233680000Y-77216000D03*
X233680000Y-92456000D03*
X236220000Y-77216000D03*
X231140000Y-92456000D03*
X238760000Y-77216000D03*
X228600000Y-92456000D03*
X241300000Y-77216000D03*
X226060000Y-92456000D03*
X243840000Y-77216000D03*
X223520000Y-92456000D03*
X246380000Y-77216000D03*
X220980000Y-92456000D03*
X248920000Y-77216000D03*
X218440000Y-92456000D03*
X251460000Y-77216000D03*
X215900000Y-92456000D03*
X254000000Y-77216000D03*
X213360000Y-92456000D03*
X256540000Y-77216000D03*
X210820000Y-92456000D03*
D11*
X259080000Y-77216000D03*
D12*
X335280000Y-135636000D03*
X317500000Y-128016000D03*
X332740000Y-135636000D03*
X320040000Y-128016000D03*
X330200000Y-135636000D03*
X322580000Y-128016000D03*
X327660000Y-135636000D03*
X325120000Y-128016000D03*
X325120000Y-135636000D03*
X327660000Y-128016000D03*
X322580000Y-135636000D03*
X330200000Y-128016000D03*
X320040000Y-135636000D03*
X332740000Y-128016000D03*
X317500000Y-135636000D03*
D11*
X335280000Y-128016000D03*
D12*
X356108000Y-135636000D03*
X340868000Y-128016000D03*
X353568000Y-135636000D03*
X343408000Y-128016000D03*
X351028000Y-135636000D03*
X345948000Y-128016000D03*
X348488000Y-135636000D03*
X348488000Y-128016000D03*
X345948000Y-135636000D03*
X351028000Y-128016000D03*
X343408000Y-135636000D03*
X353568000Y-128016000D03*
X340868000Y-135636000D03*
D11*
X356108000Y-128016000D03*
D12*
X328168000Y-220345000D03*
X290068000Y-205105000D03*
X325628000Y-220345000D03*
X292608000Y-205105000D03*
X323088000Y-220345000D03*
X295148000Y-205105000D03*
X320548000Y-220345000D03*
X297688000Y-205105000D03*
X318008000Y-220345000D03*
X300228000Y-205105000D03*
X315468000Y-220345000D03*
X302768000Y-205105000D03*
X312928000Y-220345000D03*
X305308000Y-205105000D03*
X310388000Y-220345000D03*
X307848000Y-205105000D03*
X307848000Y-220345000D03*
X310388000Y-205105000D03*
X305308000Y-220345000D03*
X312928000Y-205105000D03*
X302768000Y-220345000D03*
X315468000Y-205105000D03*
X300228000Y-220345000D03*
X318008000Y-205105000D03*
X297688000Y-220345000D03*
X320548000Y-205105000D03*
X295148000Y-220345000D03*
X323088000Y-205105000D03*
X292608000Y-220345000D03*
X325628000Y-205105000D03*
X290068000Y-220345000D03*
D11*
X328168000Y-205105000D03*
D12*
X376428000Y-247396000D03*
X338328000Y-232156000D03*
X373888000Y-247396000D03*
X340868000Y-232156000D03*
X371348000Y-247396000D03*
X343408000Y-232156000D03*
X368808000Y-247396000D03*
X345948000Y-232156000D03*
X366268000Y-247396000D03*
X348488000Y-232156000D03*
X363728000Y-247396000D03*
X351028000Y-232156000D03*
X361188000Y-247396000D03*
X353568000Y-232156000D03*
X358648000Y-247396000D03*
X356108000Y-232156000D03*
X356108000Y-247396000D03*
X358648000Y-232156000D03*
X353568000Y-247396000D03*
X361188000Y-232156000D03*
X351028000Y-247396000D03*
X363728000Y-232156000D03*
X348488000Y-247396000D03*
X366268000Y-232156000D03*
X345948000Y-247396000D03*
X368808000Y-232156000D03*
X343408000Y-247396000D03*
X371348000Y-232156000D03*
X340868000Y-247396000D03*
X373888000Y-232156000D03*
X338328000Y-247396000D03*
D11*
X376428000Y-232156000D03*
D12*
X267716000Y-194056000D03*
X282956000Y-201676000D03*
X270256000Y-194056000D03*
X280416000Y-201676000D03*
X272796000Y-194056000D03*
X277876000Y-201676000D03*
X275336000Y-194056000D03*
X275336000Y-201676000D03*
X277876000Y-194056000D03*
X272796000Y-201676000D03*
X280416000Y-194056000D03*
X270256000Y-201676000D03*
X282956000Y-194056000D03*
D11*
X267716000Y-201676000D03*
D12*
X371348000Y-191008000D03*
X292608000Y-168148000D03*
X368808000Y-191008000D03*
X295148000Y-168148000D03*
X366268000Y-191008000D03*
X297688000Y-168148000D03*
X363728000Y-191008000D03*
X300228000Y-168148000D03*
X361188000Y-191008000D03*
X302768000Y-168148000D03*
X358648000Y-191008000D03*
X305308000Y-168148000D03*
X356108000Y-191008000D03*
X307848000Y-168148000D03*
X353568000Y-191008000D03*
X310388000Y-168148000D03*
X351028000Y-191008000D03*
X312928000Y-168148000D03*
X348488000Y-191008000D03*
X315468000Y-168148000D03*
X345948000Y-191008000D03*
X318008000Y-168148000D03*
X343408000Y-191008000D03*
X320548000Y-168148000D03*
X340868000Y-191008000D03*
X323088000Y-168148000D03*
X338328000Y-191008000D03*
X325628000Y-168148000D03*
X335788000Y-191008000D03*
X328168000Y-168148000D03*
X333248000Y-191008000D03*
X330708000Y-168148000D03*
X330708000Y-191008000D03*
X333248000Y-168148000D03*
X328168000Y-191008000D03*
X335788000Y-168148000D03*
X325628000Y-191008000D03*
X338328000Y-168148000D03*
X323088000Y-191008000D03*
X340868000Y-168148000D03*
X320548000Y-191008000D03*
X343408000Y-168148000D03*
X318008000Y-191008000D03*
X345948000Y-168148000D03*
X315468000Y-191008000D03*
X348488000Y-168148000D03*
X312928000Y-191008000D03*
X351028000Y-168148000D03*
X310388000Y-191008000D03*
X353568000Y-168148000D03*
X307848000Y-191008000D03*
X356108000Y-168148000D03*
X305308000Y-191008000D03*
X358648000Y-168148000D03*
X302768000Y-191008000D03*
X361188000Y-168148000D03*
X300228000Y-191008000D03*
X363728000Y-168148000D03*
X297688000Y-191008000D03*
X366268000Y-168148000D03*
X295148000Y-191008000D03*
X368808000Y-168148000D03*
X292608000Y-191008000D03*
D11*
X371348000Y-168148000D03*
D12*
X124968000Y-221996000D03*
X117348000Y-229616000D03*
X124968000Y-224536000D03*
X117348000Y-227076000D03*
X124968000Y-227076000D03*
X117348000Y-224536000D03*
X124968000Y-229616000D03*
D11*
X117348000Y-221996000D03*
D12*
X137668000Y-235712000D03*
X130048000Y-250952000D03*
X137668000Y-238252000D03*
X130048000Y-248412000D03*
X137668000Y-240792000D03*
X130048000Y-245872000D03*
X137668000Y-243332000D03*
X130048000Y-243332000D03*
X137668000Y-245872000D03*
X130048000Y-240792000D03*
X137668000Y-248412000D03*
X130048000Y-238252000D03*
X137668000Y-250952000D03*
D11*
X130048000Y-235712000D03*
D12*
X68580000Y-91440000D03*
X68580000Y-88900000D03*
X68580000Y-86360000D03*
X68580000Y-83820000D03*
X68580000Y-81280000D03*
X68580000Y-78740000D03*
X68580000Y-76200000D03*
X68580000Y-73660000D03*
D11*
X68580000Y-71120000D03*
D12*
X178308000Y-77216000D03*
X178308000Y-74676000D03*
X178308000Y-72136000D03*
X178308000Y-69596000D03*
X178308000Y-67056000D03*
X178308000Y-64516000D03*
X178308000Y-61976000D03*
X178308000Y-59436000D03*
D11*
X178308000Y-56896000D03*
D12*
X197739000Y-155194000D03*
X215519000Y-162814000D03*
X200279000Y-155194000D03*
X212979000Y-162814000D03*
X202819000Y-155194000D03*
X210439000Y-162814000D03*
X205359000Y-155194000D03*
X207899000Y-162814000D03*
X207899000Y-155194000D03*
X205359000Y-162814000D03*
X210439000Y-155194000D03*
X202819000Y-162814000D03*
X212979000Y-155194000D03*
X200279000Y-162814000D03*
X215519000Y-155194000D03*
D11*
X197739000Y-162814000D03*
D12*
X168529000Y-155194000D03*
X186309000Y-162814000D03*
X171069000Y-155194000D03*
X183769000Y-162814000D03*
X173609000Y-155194000D03*
X181229000Y-162814000D03*
X176149000Y-155194000D03*
X178689000Y-162814000D03*
X178689000Y-155194000D03*
X176149000Y-162814000D03*
X181229000Y-155194000D03*
X173609000Y-162814000D03*
X183769000Y-155194000D03*
X171069000Y-162814000D03*
X186309000Y-155194000D03*
D11*
X168529000Y-162814000D03*
D12*
X139319000Y-155194000D03*
X157099000Y-162814000D03*
X141859000Y-155194000D03*
X154559000Y-162814000D03*
X144399000Y-155194000D03*
X152019000Y-162814000D03*
X146939000Y-155194000D03*
X149479000Y-162814000D03*
X149479000Y-155194000D03*
X146939000Y-162814000D03*
X152019000Y-155194000D03*
X144399000Y-162814000D03*
X154559000Y-155194000D03*
X141859000Y-162814000D03*
X157099000Y-155194000D03*
D11*
X139319000Y-162814000D03*
D12*
X110109000Y-155194000D03*
X127889000Y-162814000D03*
X112649000Y-155194000D03*
X125349000Y-162814000D03*
X115189000Y-155194000D03*
X122809000Y-162814000D03*
X117729000Y-155194000D03*
X120269000Y-162814000D03*
X120269000Y-155194000D03*
X117729000Y-162814000D03*
X122809000Y-155194000D03*
X115189000Y-162814000D03*
X125349000Y-155194000D03*
X112649000Y-162814000D03*
X127889000Y-155194000D03*
D11*
X110109000Y-162814000D03*
D12*
X80899000Y-155194000D03*
X98679000Y-162814000D03*
X83439000Y-155194000D03*
X96139000Y-162814000D03*
X85979000Y-155194000D03*
X93599000Y-162814000D03*
X88519000Y-155194000D03*
X91059000Y-162814000D03*
X91059000Y-155194000D03*
X88519000Y-162814000D03*
X93599000Y-155194000D03*
X85979000Y-162814000D03*
X96139000Y-155194000D03*
X83439000Y-162814000D03*
X98679000Y-155194000D03*
D11*
X80899000Y-162814000D03*
D12*
X176276000Y-140589000D03*
X176276000Y-138049000D03*
X176276000Y-135509000D03*
X176276000Y-132969000D03*
X176276000Y-130429000D03*
X176276000Y-127889000D03*
X176276000Y-125349000D03*
X176276000Y-122809000D03*
D11*
X176276000Y-120269000D03*
D12*
X68072000Y-141986000D03*
X68072000Y-139446000D03*
X68072000Y-136906000D03*
X68072000Y-134366000D03*
X68072000Y-131826000D03*
X68072000Y-129286000D03*
X68072000Y-126746000D03*
X68072000Y-124206000D03*
D11*
X68072000Y-121666000D03*
D12*
X327660000Y-121412000D03*
X330200000Y-121412000D03*
X332740000Y-121412000D03*
X335280000Y-121412000D03*
X337820000Y-121412000D03*
X340360000Y-121412000D03*
X342900000Y-121412000D03*
X345440000Y-121412000D03*
D11*
X347980000Y-121412000D03*
D12*
X273685000Y-220218000D03*
D10*
X263525000Y-220218000D03*
D12*
X152400000Y-240284000D03*
D10*
X142240000Y-240284000D03*
D12*
X152146000Y-235712000D03*
D10*
X141986000Y-235712000D03*
D12*
X152146000Y-231521000D03*
D10*
X141986000Y-231521000D03*
D12*
X393827000Y-116967000D03*
D10*
X383667000Y-116967000D03*
D12*
X393827000Y-108077000D03*
D10*
X383667000Y-108077000D03*
D12*
X393827000Y-112522000D03*
D10*
X383667000Y-112522000D03*
D12*
X338582000Y-63373000D03*
D10*
X328422000Y-63373000D03*
D12*
X259334000Y-69596000D03*
D10*
X269494000Y-69596000D03*
D12*
X259334000Y-60706000D03*
D10*
X269494000Y-60706000D03*
D12*
X259334000Y-73406000D03*
D10*
X269494000Y-73406000D03*
D12*
X259334000Y-65024000D03*
D10*
X269494000Y-65024000D03*
D12*
X338582000Y-72263000D03*
D10*
X328422000Y-72263000D03*
D12*
X338582000Y-67818000D03*
D10*
X328422000Y-67818000D03*
D12*
X253746000Y-97282000D03*
D10*
X263906000Y-97282000D03*
D12*
X320548000Y-112903000D03*
D10*
X310388000Y-112903000D03*
D12*
X392684000Y-218440000D03*
D10*
X382524000Y-218440000D03*
D12*
X392684000Y-223012000D03*
D10*
X382524000Y-223012000D03*
D12*
X392684000Y-227584000D03*
D10*
X382524000Y-227584000D03*
D12*
X392684000Y-209296000D03*
D10*
X382524000Y-209296000D03*
D12*
X392684000Y-213868000D03*
D10*
X382524000Y-213868000D03*
D12*
X392684000Y-204724000D03*
D10*
X382524000Y-204724000D03*
D12*
X392684000Y-200152000D03*
D10*
X382524000Y-200152000D03*
D12*
X344805000Y-105410000D03*
D10*
X334645000Y-105410000D03*
D12*
X126492000Y-216916000D03*
D10*
X116332000Y-216916000D03*
D12*
X116332000Y-212344000D03*
D10*
X126492000Y-212344000D03*
D12*
X366268000Y-161544000D03*
D10*
X376428000Y-161544000D03*
D12*
X110236000Y-250952000D03*
D10*
X110236000Y-240792000D03*
D12*
X366268000Y-156972000D03*
D10*
X376428000Y-156972000D03*
D12*
X335280000Y-145288000D03*
D10*
X325120000Y-145288000D03*
D12*
X340868000Y-145288000D03*
D10*
X351028000Y-145288000D03*
D12*
X325120000Y-140716000D03*
D10*
X335280000Y-140716000D03*
D12*
X340868000Y-140716000D03*
D10*
X351028000Y-140716000D03*
D12*
X100584000Y-240792000D03*
D10*
X100584000Y-250952000D03*
D12*
X119888000Y-197104000D03*
D10*
X109728000Y-197104000D03*
D12*
X96139000Y-206248000D03*
D10*
X106299000Y-206248000D03*
D12*
X106299000Y-201676000D03*
D10*
X96139000Y-201676000D03*
D12*
X106172000Y-197104000D03*
D10*
X96012000Y-197104000D03*
D12*
X92456000Y-206248000D03*
D10*
X82296000Y-206248000D03*
D12*
X92456000Y-201676000D03*
D10*
X82296000Y-201676000D03*
D12*
X92456000Y-197104000D03*
D10*
X82296000Y-197104000D03*
D12*
X105156000Y-250952000D03*
D10*
X105156000Y-240792000D03*
D12*
X97028000Y-240284000D03*
D10*
X86868000Y-240284000D03*
D27*
X372872000Y-120396000D03*
D28*
X375412000Y-120396000D03*
X374142000Y-119126000D03*
D27*
X372872000Y-126492000D03*
D28*
X375412000Y-126492000D03*
X374142000Y-125222000D03*
D27*
X273685000Y-61595000D03*
D28*
X276225000Y-61595000D03*
X274955000Y-60325000D03*
D27*
X280416000Y-61595000D03*
D28*
X282956000Y-61595000D03*
X281686000Y-60325000D03*
D27*
X388747000Y-183388000D03*
D28*
X391287000Y-183388000D03*
X390017000Y-182118000D03*
D27*
X388747000Y-191516000D03*
D28*
X391287000Y-191516000D03*
X390017000Y-190246000D03*
D27*
X382143000Y-183388000D03*
D28*
X384683000Y-183388000D03*
X383413000Y-182118000D03*
D16*
X173228000Y-246888000D03*
X267208000Y-246888000D03*
D17*
X257048000Y-246888000D03*
X254508000Y-246888000D03*
X251968000Y-246888000D03*
X249428000Y-246888000D03*
X246888000Y-246888000D03*
X244348000Y-246888000D03*
X241808000Y-246888000D03*
X239268000Y-246888000D03*
X236728000Y-246888000D03*
X234188000Y-246888000D03*
X231648000Y-246888000D03*
X229108000Y-246888000D03*
X226568000Y-246888000D03*
X224028000Y-246888000D03*
X221488000Y-246888000D03*
X218948000Y-246888000D03*
X216408000Y-246888000D03*
X213868000Y-246888000D03*
X211328000Y-246888000D03*
X208788000Y-246888000D03*
X206248000Y-246888000D03*
X203708000Y-246888000D03*
X201168000Y-246888000D03*
X198628000Y-246888000D03*
X196088000Y-246888000D03*
X193548000Y-246888000D03*
X191008000Y-246888000D03*
X188468000Y-246888000D03*
X185928000Y-246888000D03*
D18*
X183388000Y-246888000D03*
D29*
X182499000Y-195580000D03*
X179959000Y-195580000D03*
X177419000Y-195580000D03*
X174879000Y-195580000D03*
X172339000Y-195580000D03*
X169799000Y-195580000D03*
X167259000Y-195580000D03*
X164719000Y-195580000D03*
X162179000Y-195580000D03*
X159639000Y-195580000D03*
X157099000Y-195580000D03*
X154559000Y-195580000D03*
X152019000Y-195580000D03*
X149479000Y-195580000D03*
X146939000Y-195580000D03*
X144399000Y-195580000D03*
X141859000Y-195580000D03*
X139319000Y-195580000D03*
X136779000Y-195580000D03*
X134239000Y-195580000D03*
X182499000Y-198120000D03*
X179959000Y-198120000D03*
X177419000Y-198120000D03*
X174879000Y-198120000D03*
X172339000Y-198120000D03*
X169799000Y-198120000D03*
X167259000Y-198120000D03*
X164719000Y-198120000D03*
X162179000Y-198120000D03*
X159639000Y-198120000D03*
X157099000Y-198120000D03*
X154559000Y-198120000D03*
X152019000Y-198120000D03*
X149479000Y-198120000D03*
X146939000Y-198120000D03*
X144399000Y-198120000D03*
X141859000Y-198120000D03*
X139319000Y-198120000D03*
X136779000Y-198120000D03*
G36*
G01*
X134839000Y-198970000D02*
X133639000Y-198970000D01*
G75*
G02*
X133389000Y-198720000I0J250000D01*
G01*
X133389000Y-197520000D01*
G75*
G02*
X133639000Y-197270000I250000J0D01*
G01*
X134839000Y-197270000D01*
G75*
G02*
X135089000Y-197520000I0J-250000D01*
G01*
X135089000Y-198720000D01*
G75*
G02*
X134839000Y-198970000I-250000J0D01*
G01*
G37*
D30*
X154559000Y-189611000D03*
D31*
X157099000Y-189611000D03*
D30*
X151638000Y-221742000D03*
D31*
X151638000Y-219202000D03*
D32*
X331439000Y-53825000D03*
X378539000Y-53825000D03*
D10*
X370224000Y-52405000D03*
X367454000Y-52405000D03*
X364684000Y-52405000D03*
X361914000Y-52405000D03*
X359144000Y-52405000D03*
X356374000Y-52405000D03*
X353604000Y-52405000D03*
X350834000Y-52405000D03*
X348064000Y-52405000D03*
X345294000Y-52405000D03*
X342524000Y-52405000D03*
X339754000Y-52405000D03*
X371609000Y-55245000D03*
X368839000Y-55245000D03*
X366069000Y-55245000D03*
X363299000Y-55245000D03*
X360529000Y-55245000D03*
X357759000Y-55245000D03*
X354989000Y-55245000D03*
X352219000Y-55245000D03*
X349449000Y-55245000D03*
X346679000Y-55245000D03*
X343909000Y-55245000D03*
X341139000Y-55245000D03*
D11*
X338369000Y-55245000D03*
D32*
X235023000Y-52913000D03*
X260023000Y-52913000D03*
D10*
X243368000Y-50373000D03*
X246138000Y-50373000D03*
X248908000Y-50373000D03*
X251678000Y-50373000D03*
X241983000Y-53213000D03*
X244753000Y-53213000D03*
X247523000Y-53213000D03*
X250293000Y-53213000D03*
D11*
X253063000Y-53213000D03*
D32*
X199705000Y-52832000D03*
X224705000Y-52832000D03*
D10*
X208050000Y-50292000D03*
X210820000Y-50292000D03*
X213590000Y-50292000D03*
X216360000Y-50292000D03*
X206665000Y-53132000D03*
X209435000Y-53132000D03*
X212205000Y-53132000D03*
X214975000Y-53132000D03*
D11*
X217745000Y-53132000D03*
D33*
X309656000Y-47548000D03*
D34*
X308356000Y-51348000D03*
X310956000Y-51348000D03*
X306256000Y-53848000D03*
X306256000Y-51348000D03*
X313056000Y-53848000D03*
X313056000Y-51348000D03*
D33*
X316406000Y-48348000D03*
X302906000Y-48348000D03*
X288769000Y-47548000D03*
D34*
X287469000Y-51348000D03*
X290069000Y-51348000D03*
X285369000Y-53848000D03*
X285369000Y-51348000D03*
X292169000Y-53848000D03*
X292169000Y-51348000D03*
D33*
X295519000Y-48348000D03*
X282019000Y-48348000D03*
D30*
X255016000Y-111252000D03*
X257556000Y-111252000D03*
X260096000Y-111252000D03*
X262636000Y-111252000D03*
X265176000Y-111252000D03*
D31*
X267716000Y-111252000D03*
D30*
X383540000Y-239268000D03*
D31*
X383540000Y-236728000D03*
D30*
X327787000Y-115316000D03*
D31*
X330327000Y-115316000D03*
D30*
X148336000Y-246380000D03*
D31*
X145796000Y-246380000D03*
D30*
X95504000Y-248412000D03*
D31*
X95504000Y-245872000D03*
D30*
X90424000Y-248412000D03*
D31*
X90424000Y-245872000D03*
D35*
X65976500Y-183106505D03*
D36*
X65874001Y-234069999D03*
X65874001Y-229870000D03*
X65874001Y-225670001D03*
X65874001Y-221470002D03*
X65874001Y-217270002D03*
X65874001Y-213070003D03*
X65874001Y-208870004D03*
X65874001Y-204670005D03*
X65874001Y-200470005D03*
X65874001Y-196270006D03*
X65874001Y-192070007D03*
X65874001Y-187870008D03*
X71374000Y-234069999D03*
X71374000Y-229870000D03*
X71374000Y-225670001D03*
X71374000Y-221470002D03*
X71374000Y-217270002D03*
X71374000Y-213070003D03*
X71374000Y-208870004D03*
X71374000Y-204670005D03*
X71374000Y-200470005D03*
X71374000Y-196270006D03*
X71374000Y-192070007D03*
X71374000Y-187870008D03*
D24*
X77678000Y-146346000D03*
X77678000Y-56346000D03*
D25*
X80518000Y-140716000D03*
X80518000Y-138176000D03*
X80518000Y-135636000D03*
X80518000Y-133096000D03*
X80518000Y-130556000D03*
X80518000Y-128016000D03*
X80518000Y-125476000D03*
X80518000Y-122936000D03*
X80518000Y-120396000D03*
X80518000Y-117856000D03*
X80518000Y-115316000D03*
X80518000Y-112776000D03*
X80518000Y-110236000D03*
X80518000Y-107696000D03*
X80518000Y-105156000D03*
X80518000Y-102616000D03*
X80518000Y-100076000D03*
X80518000Y-97536000D03*
X80518000Y-94996000D03*
X80518000Y-92456000D03*
X80518000Y-89916000D03*
X80518000Y-87376000D03*
X80518000Y-84836000D03*
X80518000Y-82296000D03*
X80518000Y-79756000D03*
X80518000Y-77216000D03*
X80518000Y-74676000D03*
X80518000Y-72136000D03*
X80518000Y-69596000D03*
X80518000Y-67056000D03*
X80518000Y-64516000D03*
X80518000Y-61976000D03*
X75438000Y-140716000D03*
X75438000Y-138176000D03*
X75438000Y-135636000D03*
X75438000Y-133096000D03*
X75438000Y-130556000D03*
X75438000Y-128016000D03*
X75438000Y-125476000D03*
X75438000Y-122936000D03*
X75438000Y-120396000D03*
X75438000Y-117856000D03*
X75438000Y-115316000D03*
X75438000Y-112776000D03*
X75438000Y-110236000D03*
X75438000Y-107696000D03*
X75438000Y-105156000D03*
X75438000Y-102616000D03*
X75438000Y-100076000D03*
X75438000Y-97536000D03*
X75438000Y-94996000D03*
X75438000Y-92456000D03*
X75438000Y-89916000D03*
X75438000Y-87376000D03*
X75438000Y-84836000D03*
X75438000Y-82296000D03*
X75438000Y-79756000D03*
X75438000Y-77216000D03*
X75438000Y-74676000D03*
X75438000Y-72136000D03*
X75438000Y-69596000D03*
X75438000Y-67056000D03*
X75438000Y-64516000D03*
G36*
G01*
X74663000Y-62501002D02*
X74663000Y-61450998D01*
G75*
G02*
X74912998Y-61201000I249998J0D01*
G01*
X75963002Y-61201000D01*
G75*
G02*
X76213000Y-61450998I0J-249998D01*
G01*
X76213000Y-62501002D01*
G75*
G02*
X75963002Y-62751000I-249998J0D01*
G01*
X74912998Y-62751000D01*
G75*
G02*
X74663000Y-62501002I0J249998D01*
G01*
G37*
D12*
X392557000Y-102997000D03*
D11*
X384937000Y-102997000D03*
D37*
X146304000Y-220472000D03*
D38*
X143764000Y-220472000D03*
D37*
X276225000Y-69850000D03*
D38*
X273685000Y-69850000D03*
D37*
X282956000Y-69850000D03*
D38*
X280416000Y-69850000D03*
D37*
X391287000Y-173736000D03*
D38*
X388747000Y-173736000D03*
D37*
X391287000Y-165608000D03*
D38*
X388747000Y-165608000D03*
D37*
X391287000Y-157480000D03*
D38*
X388747000Y-157480000D03*
D37*
X116586000Y-189865000D03*
D38*
X114046000Y-189865000D03*
D37*
X109601000Y-189865000D03*
D38*
X107061000Y-189865000D03*
D37*
X102616000Y-189865000D03*
D38*
X100076000Y-189865000D03*
D12*
X105410000Y-222504000D03*
D11*
X113030000Y-222504000D03*
D37*
X95631000Y-189865000D03*
D38*
X93091000Y-189865000D03*
D37*
X88646000Y-189865000D03*
D38*
X86106000Y-189865000D03*
D12*
X105410000Y-226441000D03*
D11*
X113030000Y-226441000D03*
D37*
X81661000Y-189865000D03*
D38*
X79121000Y-189865000D03*
D10*
X264922000Y-92456000D03*
X262422000Y-92456000D03*
X192238000Y-155067000D03*
X189738000Y-155067000D03*
X163830000Y-155321000D03*
X161330000Y-155321000D03*
X106172000Y-161417000D03*
X103672000Y-161417000D03*
X134747000Y-162814000D03*
X132247000Y-162814000D03*
X77724000Y-163449000D03*
X75224000Y-163449000D03*
X278979000Y-113919000D03*
X276479000Y-113919000D03*
X87731600Y-57404000D03*
X85231600Y-57404000D03*
X118273200Y-57251600D03*
X115773200Y-57251600D03*
X168656000Y-225044000D03*
X166156000Y-225044000D03*
X160568000Y-219964000D03*
X163068000Y-219964000D03*
X166584000Y-246888000D03*
D11*
X164084000Y-246888000D03*
D10*
X160568000Y-225044000D03*
X163068000Y-225044000D03*
X276312000Y-232156000D03*
D11*
X273812000Y-232156000D03*
D10*
X170267000Y-212852000D03*
X167767000Y-212852000D03*
X159472000Y-232156000D03*
D11*
X156972000Y-232156000D03*
D10*
X166624000Y-232156000D03*
D11*
X164124000Y-232156000D03*
D10*
X250952000Y-212852000D03*
X248452000Y-212852000D03*
X159472000Y-246888000D03*
D11*
X156972000Y-246888000D03*
D10*
X276312000Y-246888000D03*
D11*
X273812000Y-246888000D03*
D10*
X374040400Y-101600000D03*
X371540400Y-101600000D03*
X113030000Y-216916000D03*
X110530000Y-216916000D03*
X350774000Y-105410000D03*
X348274000Y-105410000D03*
X112776000Y-201676000D03*
X110276000Y-201676000D03*
X369276000Y-120396000D03*
D11*
X366776000Y-120396000D03*
D10*
X241173000Y-59690000D03*
X243673000Y-59690000D03*
X236093000Y-59690000D03*
X238593000Y-59690000D03*
X251333000Y-59690000D03*
X253833000Y-59690000D03*
X228600000Y-59690000D03*
X231100000Y-59690000D03*
X218440000Y-59690000D03*
X220940000Y-59690000D03*
X213360000Y-59690000D03*
X215860000Y-59690000D03*
X223520000Y-59690000D03*
X226020000Y-59690000D03*
X273979000Y-96774000D03*
X276479000Y-96774000D03*
X311277000Y-61849000D03*
X308777000Y-61849000D03*
X206248000Y-77216000D03*
X206248000Y-79716000D03*
X387604000Y-73025000D03*
X385104000Y-73025000D03*
X391566400Y-93167200D03*
X391566400Y-90667200D03*
X206248000Y-64516000D03*
X206248000Y-67016000D03*
X233553000Y-97322000D03*
X233553000Y-99822000D03*
X248920000Y-99695000D03*
X248920000Y-97195000D03*
X285877000Y-220472000D03*
X283377000Y-220472000D03*
X284948000Y-246888000D03*
X282448000Y-246888000D03*
X384389000Y-246380000D03*
X381889000Y-246380000D03*
X203200000Y-98679000D03*
X200700000Y-98679000D03*
X338328000Y-115316000D03*
X335828000Y-115316000D03*
X192238000Y-162687000D03*
X189738000Y-162687000D03*
X249809000Y-149479000D03*
X249809000Y-151979000D03*
X376936000Y-168148000D03*
X374436000Y-168148000D03*
X289560000Y-190754000D03*
X287060000Y-190754000D03*
X289687000Y-164846000D03*
X287187000Y-164846000D03*
X376555000Y-201295000D03*
X374055000Y-201295000D03*
X369316000Y-127000000D03*
X366816000Y-127000000D03*
X264160000Y-201676000D03*
X261660000Y-201676000D03*
X321564000Y-145288000D03*
X319064000Y-145288000D03*
X286639000Y-113919000D03*
X284139000Y-113919000D03*
X124928000Y-237744000D03*
D11*
X122428000Y-237744000D03*
D10*
X117816000Y-237744000D03*
D11*
X115316000Y-237744000D03*
D10*
X93432000Y-234442000D03*
D11*
X90932000Y-234442000D03*
D10*
X100036000Y-234442000D03*
D11*
X97536000Y-234442000D03*
D10*
X124246000Y-194056000D03*
X126746000Y-194056000D03*
X106680000Y-236728000D03*
X104180000Y-236728000D03*
X113030000Y-211836000D03*
X110530000Y-211836000D03*
X87082000Y-234442000D03*
D11*
X84582000Y-234442000D03*
D10*
X107442000Y-211836000D03*
X104942000Y-211836000D03*
M02*
