M48
; DRILL file {KiCad (5.1.10)-1} date 07/30/21 10:25:08
; FORMAT={-:-/ absolute / metric / decimal}
; #@! TF.CreationDate,2021-07-30T10:25:08+01:00
; #@! TF.GenerationSoftware,Kicad,Pcbnew,(5.1.10)-1
; #@! TF.FileFunction,Plated,1,4,PTH
FMAT,2
METRIC
T1C0.400
T2C0.700
T3C0.800
T4C0.900
T5C1.000
T6C1.300
%
G90
G05
T1
X106.477Y-76.352
X108.204Y-84.328
X112.268Y-74.93
X112.268Y-120.904
X117.348Y-122.682
X117.602Y-75.184
X119.888Y-108.204
X119.888Y-128.016
X123.698Y-88.9
X123.738Y-84.368
X124.968Y-109.474
X124.968Y-128.016
X126.238Y-96.52
X127.254Y-136.398
X128.524Y-76.352
X128.524Y-135.382
X128.778Y-95.504
X128.778Y-112.014
X130.302Y-134.62
X132.588Y-86.868
X132.588Y-110.998
X132.588Y-121.666
X133.604Y-133.858
X133.858Y-95.504
X134.874Y-132.207
X134.874Y-141.732
X135.128Y-113.03
X135.128Y-128.016
X135.128Y-130.302
X138.786Y-63.754
X138.938Y-109.474
X139.446Y-123.19
X139.446Y-128.016
X143.002Y-75.184
X143.002Y-125.984
X143.002Y-130.302
X144.018Y-113.03
X144.78Y-125.222
X144.78Y-129.032
X146.71Y-63.754
X149.352Y-108.204
X149.352Y-127.254
X150.368Y-84.328
X150.368Y-88.9
X150.622Y-120.142
X150.622Y-126.238
X152.654Y-102.362
X152.654Y-115.316
X155.448Y-118.872
X156.972Y-115.316
X156.972Y-118.872
X157.988Y-112.014
X158.242Y-103.378
X159.258Y-63.805
X159.766Y-114.808
X160.782Y-104.14
X160.782Y-130.81
X162.433Y-110.998
X162.56Y-119.126
X163.322Y-105.156
X163.576Y-113.284
X164.45Y-127.112
X164.592Y-102.362
X165.1Y-125.222
X165.862Y-103.378
X165.862Y-122.428
X167.132Y-95.504
X168.402Y-109.855
X168.402Y-113.284
X168.402Y-126.238
X168.402Y-128.524
X170.18Y-118.364
X170.434Y-137.16
X170.434Y-142.367
X170.688Y-133.096
X170.942Y-102.362
X171.45Y-126.746
X171.704Y-119.888
X172.212Y-105.156
X172.72Y-128.016
X172.974Y-123.19
X172.974Y-125.476
X173.228Y-134.874
X175.006Y-103.886
X175.006Y-113.03
X176.022Y-130.302
X177.8Y-117.094
X178.181Y-124.079
X179.578Y-94.488
X180.086Y-122.936
X181.483Y-96.774
X185.547Y-137.16
X192.024Y-122.936
T3
X103.378Y-84.328
X103.378Y-88.9
X105.156Y-123.952
X105.156Y-134.112
X106.172Y-64.524
X106.172Y-67.024
X110.236Y-58.388
X110.236Y-73.628
X110.784Y-78.994
X110.998Y-125.476
X110.998Y-133.096
X111.506Y-62.198
X111.506Y-69.818
X112.014Y-102.87
X112.014Y-105.37
X112.014Y-115.57
X112.014Y-118.07
X113.284Y-78.994
X113.538Y-84.328
X113.538Y-88.9
X113.538Y-125.476
X113.538Y-133.096
X114.046Y-62.198
X114.046Y-69.818
X116.078Y-102.616
X116.078Y-117.856
X116.078Y-125.476
X116.078Y-133.096
X116.586Y-62.198
X116.586Y-69.818
X116.586Y-84.328
X116.586Y-88.9
X117.388Y-78.994
X118.618Y-102.616
X118.618Y-117.856
X118.618Y-125.476
X118.618Y-133.096
X119.126Y-62.198
X119.126Y-69.818
X119.888Y-78.994
X120.396Y-58.388
X120.396Y-73.628
X121.158Y-102.616
X121.158Y-117.856
X121.158Y-125.476
X121.158Y-133.096
X123.698Y-102.616
X123.698Y-117.856
X123.698Y-125.476
X123.698Y-133.096
X123.738Y-78.994
X126.238Y-78.994
X126.238Y-102.616
X126.238Y-117.856
X126.238Y-125.476
X126.238Y-133.096
X126.746Y-84.328
X126.746Y-88.9
X128.778Y-102.616
X128.778Y-117.856
X130.048Y-84.328
X130.048Y-88.9
X130.596Y-78.994
X131.318Y-102.616
X131.318Y-117.856
X131.358Y-71.374
X131.572Y-123.698
X131.572Y-126.198
X131.572Y-129.834
X131.572Y-132.334
X131.826Y-61.254
X131.826Y-63.754
X133.096Y-78.994
X133.858Y-71.374
X133.858Y-102.616
X133.858Y-117.856
X136.398Y-58.674
X136.398Y-66.294
X136.398Y-102.616
X136.398Y-117.856
X137.414Y-71.628
X137.708Y-79.248
X138.938Y-58.674
X138.938Y-66.294
X138.938Y-102.616
X138.938Y-117.856
X138.978Y-54.356
X139.914Y-71.628
X140.208Y-79.248
X140.208Y-84.328
X140.208Y-88.9
X141.478Y-54.356
X141.478Y-58.674
X141.478Y-66.294
X141.478Y-102.616
X141.478Y-117.856
X143.256Y-84.328
X143.256Y-88.9
X143.51Y-71.628
X144.018Y-58.674
X144.018Y-66.294
X144.018Y-79.248
X144.018Y-102.616
X144.018Y-117.856
X146.01Y-71.628
X146.518Y-79.248
X146.558Y-58.674
X146.558Y-66.294
X147.868Y-102.616
X149.098Y-58.674
X149.098Y-66.294
X149.606Y-71.628
X150.368Y-79.248
X150.368Y-102.616
X151.638Y-58.674
X151.638Y-66.294
X152.106Y-71.628
X152.868Y-79.248
X153.416Y-84.328
X153.416Y-88.9
X154.178Y-58.674
X154.178Y-66.294
X154.218Y-54.356
X155.702Y-71.628
X155.702Y-100.33
X155.702Y-107.95
X156.718Y-54.356
X156.718Y-58.674
X156.718Y-66.294
X158.202Y-71.628
X158.242Y-100.33
X158.242Y-107.95
X159.258Y-58.674
X159.258Y-66.294
X159.258Y-92.202
X159.552Y-87.63
X159.766Y-81.788
X159.806Y-76.962
X160.782Y-100.33
X160.782Y-107.95
X162.052Y-87.63
X162.266Y-81.788
X162.306Y-76.962
X163.322Y-100.33
X163.322Y-107.95
X165.862Y-100.33
X165.862Y-107.95
X166.116Y-54.356
X166.37Y-87.63
X166.41Y-81.788
X168.402Y-100.33
X168.402Y-107.95
X168.616Y-54.356
X168.87Y-87.63
X168.91Y-81.788
X169.418Y-92.202
X170.942Y-100.33
X170.942Y-107.95
X171.704Y-54.356
X171.958Y-81.788
X172.212Y-87.63
X172.212Y-92.202
X173.482Y-100.33
X173.482Y-107.95
X177.038Y-62.23
X177.038Y-73.406
X177.332Y-114.3
X178.308Y-99.568
X178.308Y-102.068
X178.308Y-106.72
X178.308Y-109.22
X179.832Y-114.3
X181.864Y-54.356
X182.038Y-62.23
X182.038Y-73.406
X182.118Y-81.788
X182.372Y-87.63
X182.372Y-92.202
X186.944Y-135.128
X187.452Y-125.73
X187.452Y-130.302
X189.444Y-135.128
X197.612Y-125.73
X197.612Y-130.302
T4
X194.056Y-136.906
X196.596Y-136.906
T5
X110.744Y-139.192
X110.744Y-144.272
X113.284Y-139.192
X113.284Y-144.272
X115.824Y-139.192
X115.824Y-144.272
X118.364Y-139.192
X118.364Y-144.272
X120.904Y-139.192
X120.904Y-144.272
X123.444Y-139.192
X123.444Y-144.272
X125.984Y-139.192
X125.984Y-144.272
X128.524Y-139.192
X128.524Y-144.272
X131.064Y-139.192
X131.064Y-144.272
X133.604Y-139.192
X133.604Y-144.272
X136.144Y-139.192
X136.144Y-144.272
X138.684Y-139.192
X138.684Y-144.272
X141.224Y-139.192
X141.224Y-144.272
X143.764Y-139.192
X143.764Y-144.272
X146.304Y-139.192
X146.304Y-144.272
X148.844Y-139.192
X148.844Y-144.272
X151.384Y-139.192
X151.384Y-144.272
X153.924Y-139.192
X153.924Y-144.272
X156.464Y-139.192
X156.464Y-144.272
X159.004Y-139.192
X159.004Y-144.272
X161.544Y-139.192
X161.544Y-144.272
X164.084Y-139.192
X164.084Y-144.272
X166.624Y-139.192
X166.624Y-144.272
X169.164Y-139.192
X169.164Y-144.272
X171.704Y-139.192
X171.704Y-144.272
X174.244Y-139.192
X174.244Y-144.272
X176.784Y-139.192
X176.784Y-144.272
X179.324Y-139.192
X179.324Y-144.272
X181.864Y-139.192
X181.864Y-144.272
X184.404Y-139.192
X184.404Y-144.272
X186.944Y-105.664
X186.944Y-108.204
X186.944Y-110.744
X186.944Y-113.284
X186.944Y-115.824
X186.944Y-118.364
X186.944Y-139.192
X186.944Y-144.272
X189.484Y-139.192
X189.484Y-144.272
T6
X109.474Y-93.298
X109.474Y-98.298
X121.666Y-93.298
X121.666Y-98.298
X166.704Y-62.23
X166.958Y-73.406
X171.704Y-62.23
X171.958Y-73.406
X190.0Y-60.0
X190.0Y-65.0
X190.0Y-70.0
X195.0Y-60.0
X195.0Y-65.0
X195.0Y-70.0
T2
X191.014Y-78.566G85X190.114Y-78.566
G05
X191.014Y-88.566G85X190.114Y-88.566
G05
X195.564Y-84.016G85X195.564Y-83.116
G05
T0
M30
