G04 #@! TF.GenerationSoftware,KiCad,Pcbnew,(5.1.10)-1*
G04 #@! TF.CreationDate,2021-07-30T10:24:52+01:00*
G04 #@! TF.ProjectId,AudioYM2612,41756469-6f59-44d3-9236-31322e6b6963,rev?*
G04 #@! TF.SameCoordinates,Original*
G04 #@! TF.FileFunction,Soldermask,Top*
G04 #@! TF.FilePolarity,Negative*
%FSLAX46Y46*%
G04 Gerber Fmt 4.6, Leading zero omitted, Abs format (unit mm)*
G04 Created by KiCad (PCBNEW (5.1.10)-1) date 2021-07-30 10:24:52*
%MOMM*%
%LPD*%
G01*
G04 APERTURE LIST*
%ADD10C,0.854000*%
%ADD11O,1.700000X1.700000*%
%ADD12R,1.700000X1.700000*%
%ADD13C,1.200000*%
%ADD14O,2.416000X1.208000*%
%ADD15O,1.208000X2.416000*%
%ADD16R,1.397000X0.431800*%
%ADD17O,1.600000X1.600000*%
%ADD18R,1.600000X1.600000*%
%ADD19C,2.340000*%
%ADD20C,1.600000*%
%ADD21C,2.600000*%
%ADD22C,1.550000*%
%ADD23C,2.850000*%
%ADD24C,1.800000*%
%ADD25R,1.800000X1.800000*%
G04 APERTURE END LIST*
D10*
X190991000Y-83566000D02*
G75*
G03*
X190991000Y-83566000I-427000J0D01*
G01*
X195991000Y-88566000D02*
G75*
G03*
X195991000Y-88566000I-427000J0D01*
G01*
X198491000Y-88566000D02*
G75*
G03*
X198491000Y-88566000I-427000J0D01*
G01*
X195991000Y-78566000D02*
G75*
G03*
X195991000Y-78566000I-427000J0D01*
G01*
X198491000Y-78566000D02*
G75*
G03*
X198491000Y-78566000I-427000J0D01*
G01*
D11*
X186944000Y-118364000D03*
X186944000Y-115824000D03*
X186944000Y-113284000D03*
X186944000Y-110744000D03*
X186944000Y-108204000D03*
D12*
X186944000Y-105664000D03*
D13*
X198064000Y-88566000D03*
X198064000Y-78566000D03*
X195564000Y-78566000D03*
X195564000Y-88566000D03*
X190564000Y-83566000D03*
D14*
X190564000Y-88566000D03*
X190564000Y-78566000D03*
D15*
X195564000Y-83566000D03*
D16*
X136677400Y-129743200D03*
X136677400Y-129108200D03*
X136677400Y-128447800D03*
X136677400Y-127812800D03*
X141198600Y-127812800D03*
X141198600Y-128447800D03*
X141198600Y-129108200D03*
X141198600Y-129743200D03*
X136702800Y-125425200D03*
X136702800Y-124790200D03*
X136702800Y-124129800D03*
X136702800Y-123494800D03*
X141224000Y-123494800D03*
X141224000Y-124129800D03*
X141224000Y-124790200D03*
X141224000Y-125425200D03*
D17*
X136398000Y-58674000D03*
X159258000Y-66294000D03*
X138938000Y-58674000D03*
X156718000Y-66294000D03*
X141478000Y-58674000D03*
X154178000Y-66294000D03*
X144018000Y-58674000D03*
X151638000Y-66294000D03*
X146558000Y-58674000D03*
X149098000Y-66294000D03*
X149098000Y-58674000D03*
X146558000Y-66294000D03*
X151638000Y-58674000D03*
X144018000Y-66294000D03*
X154178000Y-58674000D03*
X141478000Y-66294000D03*
X156718000Y-58674000D03*
X138938000Y-66294000D03*
X159258000Y-58674000D03*
D18*
X136398000Y-66294000D03*
D17*
X119126000Y-69818000D03*
X111506000Y-62198000D03*
X116586000Y-69818000D03*
X114046000Y-62198000D03*
X114046000Y-69818000D03*
X116586000Y-62198000D03*
X111506000Y-69818000D03*
D18*
X119126000Y-62198000D03*
D17*
X173482000Y-107950000D03*
X155702000Y-100330000D03*
X170942000Y-107950000D03*
X158242000Y-100330000D03*
X168402000Y-107950000D03*
X160782000Y-100330000D03*
X165862000Y-107950000D03*
X163322000Y-100330000D03*
X163322000Y-107950000D03*
X165862000Y-100330000D03*
X160782000Y-107950000D03*
X168402000Y-100330000D03*
X158242000Y-107950000D03*
X170942000Y-100330000D03*
X155702000Y-107950000D03*
D18*
X173482000Y-100330000D03*
D17*
X144018000Y-117856000D03*
X116078000Y-102616000D03*
X141478000Y-117856000D03*
X118618000Y-102616000D03*
X138938000Y-117856000D03*
X121158000Y-102616000D03*
X136398000Y-117856000D03*
X123698000Y-102616000D03*
X133858000Y-117856000D03*
X126238000Y-102616000D03*
X131318000Y-117856000D03*
X128778000Y-102616000D03*
X128778000Y-117856000D03*
X131318000Y-102616000D03*
X126238000Y-117856000D03*
X133858000Y-102616000D03*
X123698000Y-117856000D03*
X136398000Y-102616000D03*
X121158000Y-117856000D03*
X138938000Y-102616000D03*
X118618000Y-117856000D03*
X141478000Y-102616000D03*
X116078000Y-117856000D03*
D18*
X144018000Y-102616000D03*
G36*
G01*
X161800000Y-115893500D02*
X161800000Y-114568500D01*
G75*
G02*
X161875000Y-114493500I75000J0D01*
G01*
X162025000Y-114493500D01*
G75*
G02*
X162100000Y-114568500I0J-75000D01*
G01*
X162100000Y-115893500D01*
G75*
G02*
X162025000Y-115968500I-75000J0D01*
G01*
X161875000Y-115968500D01*
G75*
G02*
X161800000Y-115893500I0J75000D01*
G01*
G37*
G36*
G01*
X162300000Y-115893500D02*
X162300000Y-114568500D01*
G75*
G02*
X162375000Y-114493500I75000J0D01*
G01*
X162525000Y-114493500D01*
G75*
G02*
X162600000Y-114568500I0J-75000D01*
G01*
X162600000Y-115893500D01*
G75*
G02*
X162525000Y-115968500I-75000J0D01*
G01*
X162375000Y-115968500D01*
G75*
G02*
X162300000Y-115893500I0J75000D01*
G01*
G37*
G36*
G01*
X162800000Y-115893500D02*
X162800000Y-114568500D01*
G75*
G02*
X162875000Y-114493500I75000J0D01*
G01*
X163025000Y-114493500D01*
G75*
G02*
X163100000Y-114568500I0J-75000D01*
G01*
X163100000Y-115893500D01*
G75*
G02*
X163025000Y-115968500I-75000J0D01*
G01*
X162875000Y-115968500D01*
G75*
G02*
X162800000Y-115893500I0J75000D01*
G01*
G37*
G36*
G01*
X163300000Y-115893500D02*
X163300000Y-114568500D01*
G75*
G02*
X163375000Y-114493500I75000J0D01*
G01*
X163525000Y-114493500D01*
G75*
G02*
X163600000Y-114568500I0J-75000D01*
G01*
X163600000Y-115893500D01*
G75*
G02*
X163525000Y-115968500I-75000J0D01*
G01*
X163375000Y-115968500D01*
G75*
G02*
X163300000Y-115893500I0J75000D01*
G01*
G37*
G36*
G01*
X163800000Y-115893500D02*
X163800000Y-114568500D01*
G75*
G02*
X163875000Y-114493500I75000J0D01*
G01*
X164025000Y-114493500D01*
G75*
G02*
X164100000Y-114568500I0J-75000D01*
G01*
X164100000Y-115893500D01*
G75*
G02*
X164025000Y-115968500I-75000J0D01*
G01*
X163875000Y-115968500D01*
G75*
G02*
X163800000Y-115893500I0J75000D01*
G01*
G37*
G36*
G01*
X164300000Y-115893500D02*
X164300000Y-114568500D01*
G75*
G02*
X164375000Y-114493500I75000J0D01*
G01*
X164525000Y-114493500D01*
G75*
G02*
X164600000Y-114568500I0J-75000D01*
G01*
X164600000Y-115893500D01*
G75*
G02*
X164525000Y-115968500I-75000J0D01*
G01*
X164375000Y-115968500D01*
G75*
G02*
X164300000Y-115893500I0J75000D01*
G01*
G37*
G36*
G01*
X164800000Y-115893500D02*
X164800000Y-114568500D01*
G75*
G02*
X164875000Y-114493500I75000J0D01*
G01*
X165025000Y-114493500D01*
G75*
G02*
X165100000Y-114568500I0J-75000D01*
G01*
X165100000Y-115893500D01*
G75*
G02*
X165025000Y-115968500I-75000J0D01*
G01*
X164875000Y-115968500D01*
G75*
G02*
X164800000Y-115893500I0J75000D01*
G01*
G37*
G36*
G01*
X165300000Y-115893500D02*
X165300000Y-114568500D01*
G75*
G02*
X165375000Y-114493500I75000J0D01*
G01*
X165525000Y-114493500D01*
G75*
G02*
X165600000Y-114568500I0J-75000D01*
G01*
X165600000Y-115893500D01*
G75*
G02*
X165525000Y-115968500I-75000J0D01*
G01*
X165375000Y-115968500D01*
G75*
G02*
X165300000Y-115893500I0J75000D01*
G01*
G37*
G36*
G01*
X165800000Y-115893500D02*
X165800000Y-114568500D01*
G75*
G02*
X165875000Y-114493500I75000J0D01*
G01*
X166025000Y-114493500D01*
G75*
G02*
X166100000Y-114568500I0J-75000D01*
G01*
X166100000Y-115893500D01*
G75*
G02*
X166025000Y-115968500I-75000J0D01*
G01*
X165875000Y-115968500D01*
G75*
G02*
X165800000Y-115893500I0J75000D01*
G01*
G37*
G36*
G01*
X166300000Y-115893500D02*
X166300000Y-114568500D01*
G75*
G02*
X166375000Y-114493500I75000J0D01*
G01*
X166525000Y-114493500D01*
G75*
G02*
X166600000Y-114568500I0J-75000D01*
G01*
X166600000Y-115893500D01*
G75*
G02*
X166525000Y-115968500I-75000J0D01*
G01*
X166375000Y-115968500D01*
G75*
G02*
X166300000Y-115893500I0J75000D01*
G01*
G37*
G36*
G01*
X166800000Y-115893500D02*
X166800000Y-114568500D01*
G75*
G02*
X166875000Y-114493500I75000J0D01*
G01*
X167025000Y-114493500D01*
G75*
G02*
X167100000Y-114568500I0J-75000D01*
G01*
X167100000Y-115893500D01*
G75*
G02*
X167025000Y-115968500I-75000J0D01*
G01*
X166875000Y-115968500D01*
G75*
G02*
X166800000Y-115893500I0J75000D01*
G01*
G37*
G36*
G01*
X167300000Y-115893500D02*
X167300000Y-114568500D01*
G75*
G02*
X167375000Y-114493500I75000J0D01*
G01*
X167525000Y-114493500D01*
G75*
G02*
X167600000Y-114568500I0J-75000D01*
G01*
X167600000Y-115893500D01*
G75*
G02*
X167525000Y-115968500I-75000J0D01*
G01*
X167375000Y-115968500D01*
G75*
G02*
X167300000Y-115893500I0J75000D01*
G01*
G37*
G36*
G01*
X167800000Y-115893500D02*
X167800000Y-114568500D01*
G75*
G02*
X167875000Y-114493500I75000J0D01*
G01*
X168025000Y-114493500D01*
G75*
G02*
X168100000Y-114568500I0J-75000D01*
G01*
X168100000Y-115893500D01*
G75*
G02*
X168025000Y-115968500I-75000J0D01*
G01*
X167875000Y-115968500D01*
G75*
G02*
X167800000Y-115893500I0J75000D01*
G01*
G37*
G36*
G01*
X168300000Y-115893500D02*
X168300000Y-114568500D01*
G75*
G02*
X168375000Y-114493500I75000J0D01*
G01*
X168525000Y-114493500D01*
G75*
G02*
X168600000Y-114568500I0J-75000D01*
G01*
X168600000Y-115893500D01*
G75*
G02*
X168525000Y-115968500I-75000J0D01*
G01*
X168375000Y-115968500D01*
G75*
G02*
X168300000Y-115893500I0J75000D01*
G01*
G37*
G36*
G01*
X168800000Y-115893500D02*
X168800000Y-114568500D01*
G75*
G02*
X168875000Y-114493500I75000J0D01*
G01*
X169025000Y-114493500D01*
G75*
G02*
X169100000Y-114568500I0J-75000D01*
G01*
X169100000Y-115893500D01*
G75*
G02*
X169025000Y-115968500I-75000J0D01*
G01*
X168875000Y-115968500D01*
G75*
G02*
X168800000Y-115893500I0J75000D01*
G01*
G37*
G36*
G01*
X169300000Y-115893500D02*
X169300000Y-114568500D01*
G75*
G02*
X169375000Y-114493500I75000J0D01*
G01*
X169525000Y-114493500D01*
G75*
G02*
X169600000Y-114568500I0J-75000D01*
G01*
X169600000Y-115893500D01*
G75*
G02*
X169525000Y-115968500I-75000J0D01*
G01*
X169375000Y-115968500D01*
G75*
G02*
X169300000Y-115893500I0J75000D01*
G01*
G37*
G36*
G01*
X169800000Y-115893500D02*
X169800000Y-114568500D01*
G75*
G02*
X169875000Y-114493500I75000J0D01*
G01*
X170025000Y-114493500D01*
G75*
G02*
X170100000Y-114568500I0J-75000D01*
G01*
X170100000Y-115893500D01*
G75*
G02*
X170025000Y-115968500I-75000J0D01*
G01*
X169875000Y-115968500D01*
G75*
G02*
X169800000Y-115893500I0J75000D01*
G01*
G37*
G36*
G01*
X170300000Y-115893500D02*
X170300000Y-114568500D01*
G75*
G02*
X170375000Y-114493500I75000J0D01*
G01*
X170525000Y-114493500D01*
G75*
G02*
X170600000Y-114568500I0J-75000D01*
G01*
X170600000Y-115893500D01*
G75*
G02*
X170525000Y-115968500I-75000J0D01*
G01*
X170375000Y-115968500D01*
G75*
G02*
X170300000Y-115893500I0J75000D01*
G01*
G37*
G36*
G01*
X170800000Y-115893500D02*
X170800000Y-114568500D01*
G75*
G02*
X170875000Y-114493500I75000J0D01*
G01*
X171025000Y-114493500D01*
G75*
G02*
X171100000Y-114568500I0J-75000D01*
G01*
X171100000Y-115893500D01*
G75*
G02*
X171025000Y-115968500I-75000J0D01*
G01*
X170875000Y-115968500D01*
G75*
G02*
X170800000Y-115893500I0J75000D01*
G01*
G37*
G36*
G01*
X171300000Y-115893500D02*
X171300000Y-114568500D01*
G75*
G02*
X171375000Y-114493500I75000J0D01*
G01*
X171525000Y-114493500D01*
G75*
G02*
X171600000Y-114568500I0J-75000D01*
G01*
X171600000Y-115893500D01*
G75*
G02*
X171525000Y-115968500I-75000J0D01*
G01*
X171375000Y-115968500D01*
G75*
G02*
X171300000Y-115893500I0J75000D01*
G01*
G37*
G36*
G01*
X171800000Y-115893500D02*
X171800000Y-114568500D01*
G75*
G02*
X171875000Y-114493500I75000J0D01*
G01*
X172025000Y-114493500D01*
G75*
G02*
X172100000Y-114568500I0J-75000D01*
G01*
X172100000Y-115893500D01*
G75*
G02*
X172025000Y-115968500I-75000J0D01*
G01*
X171875000Y-115968500D01*
G75*
G02*
X171800000Y-115893500I0J75000D01*
G01*
G37*
G36*
G01*
X172300000Y-115893500D02*
X172300000Y-114568500D01*
G75*
G02*
X172375000Y-114493500I75000J0D01*
G01*
X172525000Y-114493500D01*
G75*
G02*
X172600000Y-114568500I0J-75000D01*
G01*
X172600000Y-115893500D01*
G75*
G02*
X172525000Y-115968500I-75000J0D01*
G01*
X172375000Y-115968500D01*
G75*
G02*
X172300000Y-115893500I0J75000D01*
G01*
G37*
G36*
G01*
X172800000Y-115893500D02*
X172800000Y-114568500D01*
G75*
G02*
X172875000Y-114493500I75000J0D01*
G01*
X173025000Y-114493500D01*
G75*
G02*
X173100000Y-114568500I0J-75000D01*
G01*
X173100000Y-115893500D01*
G75*
G02*
X173025000Y-115968500I-75000J0D01*
G01*
X172875000Y-115968500D01*
G75*
G02*
X172800000Y-115893500I0J75000D01*
G01*
G37*
G36*
G01*
X173300000Y-115893500D02*
X173300000Y-114568500D01*
G75*
G02*
X173375000Y-114493500I75000J0D01*
G01*
X173525000Y-114493500D01*
G75*
G02*
X173600000Y-114568500I0J-75000D01*
G01*
X173600000Y-115893500D01*
G75*
G02*
X173525000Y-115968500I-75000J0D01*
G01*
X173375000Y-115968500D01*
G75*
G02*
X173300000Y-115893500I0J75000D01*
G01*
G37*
G36*
G01*
X173800000Y-115893500D02*
X173800000Y-114568500D01*
G75*
G02*
X173875000Y-114493500I75000J0D01*
G01*
X174025000Y-114493500D01*
G75*
G02*
X174100000Y-114568500I0J-75000D01*
G01*
X174100000Y-115893500D01*
G75*
G02*
X174025000Y-115968500I-75000J0D01*
G01*
X173875000Y-115968500D01*
G75*
G02*
X173800000Y-115893500I0J75000D01*
G01*
G37*
G36*
G01*
X174875000Y-116968500D02*
X174875000Y-116818500D01*
G75*
G02*
X174950000Y-116743500I75000J0D01*
G01*
X176275000Y-116743500D01*
G75*
G02*
X176350000Y-116818500I0J-75000D01*
G01*
X176350000Y-116968500D01*
G75*
G02*
X176275000Y-117043500I-75000J0D01*
G01*
X174950000Y-117043500D01*
G75*
G02*
X174875000Y-116968500I0J75000D01*
G01*
G37*
G36*
G01*
X174875000Y-117468500D02*
X174875000Y-117318500D01*
G75*
G02*
X174950000Y-117243500I75000J0D01*
G01*
X176275000Y-117243500D01*
G75*
G02*
X176350000Y-117318500I0J-75000D01*
G01*
X176350000Y-117468500D01*
G75*
G02*
X176275000Y-117543500I-75000J0D01*
G01*
X174950000Y-117543500D01*
G75*
G02*
X174875000Y-117468500I0J75000D01*
G01*
G37*
G36*
G01*
X174875000Y-117968500D02*
X174875000Y-117818500D01*
G75*
G02*
X174950000Y-117743500I75000J0D01*
G01*
X176275000Y-117743500D01*
G75*
G02*
X176350000Y-117818500I0J-75000D01*
G01*
X176350000Y-117968500D01*
G75*
G02*
X176275000Y-118043500I-75000J0D01*
G01*
X174950000Y-118043500D01*
G75*
G02*
X174875000Y-117968500I0J75000D01*
G01*
G37*
G36*
G01*
X174875000Y-118468500D02*
X174875000Y-118318500D01*
G75*
G02*
X174950000Y-118243500I75000J0D01*
G01*
X176275000Y-118243500D01*
G75*
G02*
X176350000Y-118318500I0J-75000D01*
G01*
X176350000Y-118468500D01*
G75*
G02*
X176275000Y-118543500I-75000J0D01*
G01*
X174950000Y-118543500D01*
G75*
G02*
X174875000Y-118468500I0J75000D01*
G01*
G37*
G36*
G01*
X174875000Y-118968500D02*
X174875000Y-118818500D01*
G75*
G02*
X174950000Y-118743500I75000J0D01*
G01*
X176275000Y-118743500D01*
G75*
G02*
X176350000Y-118818500I0J-75000D01*
G01*
X176350000Y-118968500D01*
G75*
G02*
X176275000Y-119043500I-75000J0D01*
G01*
X174950000Y-119043500D01*
G75*
G02*
X174875000Y-118968500I0J75000D01*
G01*
G37*
G36*
G01*
X174875000Y-119468500D02*
X174875000Y-119318500D01*
G75*
G02*
X174950000Y-119243500I75000J0D01*
G01*
X176275000Y-119243500D01*
G75*
G02*
X176350000Y-119318500I0J-75000D01*
G01*
X176350000Y-119468500D01*
G75*
G02*
X176275000Y-119543500I-75000J0D01*
G01*
X174950000Y-119543500D01*
G75*
G02*
X174875000Y-119468500I0J75000D01*
G01*
G37*
G36*
G01*
X174875000Y-119968500D02*
X174875000Y-119818500D01*
G75*
G02*
X174950000Y-119743500I75000J0D01*
G01*
X176275000Y-119743500D01*
G75*
G02*
X176350000Y-119818500I0J-75000D01*
G01*
X176350000Y-119968500D01*
G75*
G02*
X176275000Y-120043500I-75000J0D01*
G01*
X174950000Y-120043500D01*
G75*
G02*
X174875000Y-119968500I0J75000D01*
G01*
G37*
G36*
G01*
X174875000Y-120468500D02*
X174875000Y-120318500D01*
G75*
G02*
X174950000Y-120243500I75000J0D01*
G01*
X176275000Y-120243500D01*
G75*
G02*
X176350000Y-120318500I0J-75000D01*
G01*
X176350000Y-120468500D01*
G75*
G02*
X176275000Y-120543500I-75000J0D01*
G01*
X174950000Y-120543500D01*
G75*
G02*
X174875000Y-120468500I0J75000D01*
G01*
G37*
G36*
G01*
X174875000Y-120968500D02*
X174875000Y-120818500D01*
G75*
G02*
X174950000Y-120743500I75000J0D01*
G01*
X176275000Y-120743500D01*
G75*
G02*
X176350000Y-120818500I0J-75000D01*
G01*
X176350000Y-120968500D01*
G75*
G02*
X176275000Y-121043500I-75000J0D01*
G01*
X174950000Y-121043500D01*
G75*
G02*
X174875000Y-120968500I0J75000D01*
G01*
G37*
G36*
G01*
X174875000Y-121468500D02*
X174875000Y-121318500D01*
G75*
G02*
X174950000Y-121243500I75000J0D01*
G01*
X176275000Y-121243500D01*
G75*
G02*
X176350000Y-121318500I0J-75000D01*
G01*
X176350000Y-121468500D01*
G75*
G02*
X176275000Y-121543500I-75000J0D01*
G01*
X174950000Y-121543500D01*
G75*
G02*
X174875000Y-121468500I0J75000D01*
G01*
G37*
G36*
G01*
X174875000Y-121968500D02*
X174875000Y-121818500D01*
G75*
G02*
X174950000Y-121743500I75000J0D01*
G01*
X176275000Y-121743500D01*
G75*
G02*
X176350000Y-121818500I0J-75000D01*
G01*
X176350000Y-121968500D01*
G75*
G02*
X176275000Y-122043500I-75000J0D01*
G01*
X174950000Y-122043500D01*
G75*
G02*
X174875000Y-121968500I0J75000D01*
G01*
G37*
G36*
G01*
X174875000Y-122468500D02*
X174875000Y-122318500D01*
G75*
G02*
X174950000Y-122243500I75000J0D01*
G01*
X176275000Y-122243500D01*
G75*
G02*
X176350000Y-122318500I0J-75000D01*
G01*
X176350000Y-122468500D01*
G75*
G02*
X176275000Y-122543500I-75000J0D01*
G01*
X174950000Y-122543500D01*
G75*
G02*
X174875000Y-122468500I0J75000D01*
G01*
G37*
G36*
G01*
X174875000Y-122968500D02*
X174875000Y-122818500D01*
G75*
G02*
X174950000Y-122743500I75000J0D01*
G01*
X176275000Y-122743500D01*
G75*
G02*
X176350000Y-122818500I0J-75000D01*
G01*
X176350000Y-122968500D01*
G75*
G02*
X176275000Y-123043500I-75000J0D01*
G01*
X174950000Y-123043500D01*
G75*
G02*
X174875000Y-122968500I0J75000D01*
G01*
G37*
G36*
G01*
X174875000Y-123468500D02*
X174875000Y-123318500D01*
G75*
G02*
X174950000Y-123243500I75000J0D01*
G01*
X176275000Y-123243500D01*
G75*
G02*
X176350000Y-123318500I0J-75000D01*
G01*
X176350000Y-123468500D01*
G75*
G02*
X176275000Y-123543500I-75000J0D01*
G01*
X174950000Y-123543500D01*
G75*
G02*
X174875000Y-123468500I0J75000D01*
G01*
G37*
G36*
G01*
X174875000Y-123968500D02*
X174875000Y-123818500D01*
G75*
G02*
X174950000Y-123743500I75000J0D01*
G01*
X176275000Y-123743500D01*
G75*
G02*
X176350000Y-123818500I0J-75000D01*
G01*
X176350000Y-123968500D01*
G75*
G02*
X176275000Y-124043500I-75000J0D01*
G01*
X174950000Y-124043500D01*
G75*
G02*
X174875000Y-123968500I0J75000D01*
G01*
G37*
G36*
G01*
X174875000Y-124468500D02*
X174875000Y-124318500D01*
G75*
G02*
X174950000Y-124243500I75000J0D01*
G01*
X176275000Y-124243500D01*
G75*
G02*
X176350000Y-124318500I0J-75000D01*
G01*
X176350000Y-124468500D01*
G75*
G02*
X176275000Y-124543500I-75000J0D01*
G01*
X174950000Y-124543500D01*
G75*
G02*
X174875000Y-124468500I0J75000D01*
G01*
G37*
G36*
G01*
X174875000Y-124968500D02*
X174875000Y-124818500D01*
G75*
G02*
X174950000Y-124743500I75000J0D01*
G01*
X176275000Y-124743500D01*
G75*
G02*
X176350000Y-124818500I0J-75000D01*
G01*
X176350000Y-124968500D01*
G75*
G02*
X176275000Y-125043500I-75000J0D01*
G01*
X174950000Y-125043500D01*
G75*
G02*
X174875000Y-124968500I0J75000D01*
G01*
G37*
G36*
G01*
X174875000Y-125468500D02*
X174875000Y-125318500D01*
G75*
G02*
X174950000Y-125243500I75000J0D01*
G01*
X176275000Y-125243500D01*
G75*
G02*
X176350000Y-125318500I0J-75000D01*
G01*
X176350000Y-125468500D01*
G75*
G02*
X176275000Y-125543500I-75000J0D01*
G01*
X174950000Y-125543500D01*
G75*
G02*
X174875000Y-125468500I0J75000D01*
G01*
G37*
G36*
G01*
X174875000Y-125968500D02*
X174875000Y-125818500D01*
G75*
G02*
X174950000Y-125743500I75000J0D01*
G01*
X176275000Y-125743500D01*
G75*
G02*
X176350000Y-125818500I0J-75000D01*
G01*
X176350000Y-125968500D01*
G75*
G02*
X176275000Y-126043500I-75000J0D01*
G01*
X174950000Y-126043500D01*
G75*
G02*
X174875000Y-125968500I0J75000D01*
G01*
G37*
G36*
G01*
X174875000Y-126468500D02*
X174875000Y-126318500D01*
G75*
G02*
X174950000Y-126243500I75000J0D01*
G01*
X176275000Y-126243500D01*
G75*
G02*
X176350000Y-126318500I0J-75000D01*
G01*
X176350000Y-126468500D01*
G75*
G02*
X176275000Y-126543500I-75000J0D01*
G01*
X174950000Y-126543500D01*
G75*
G02*
X174875000Y-126468500I0J75000D01*
G01*
G37*
G36*
G01*
X174875000Y-126968500D02*
X174875000Y-126818500D01*
G75*
G02*
X174950000Y-126743500I75000J0D01*
G01*
X176275000Y-126743500D01*
G75*
G02*
X176350000Y-126818500I0J-75000D01*
G01*
X176350000Y-126968500D01*
G75*
G02*
X176275000Y-127043500I-75000J0D01*
G01*
X174950000Y-127043500D01*
G75*
G02*
X174875000Y-126968500I0J75000D01*
G01*
G37*
G36*
G01*
X174875000Y-127468500D02*
X174875000Y-127318500D01*
G75*
G02*
X174950000Y-127243500I75000J0D01*
G01*
X176275000Y-127243500D01*
G75*
G02*
X176350000Y-127318500I0J-75000D01*
G01*
X176350000Y-127468500D01*
G75*
G02*
X176275000Y-127543500I-75000J0D01*
G01*
X174950000Y-127543500D01*
G75*
G02*
X174875000Y-127468500I0J75000D01*
G01*
G37*
G36*
G01*
X174875000Y-127968500D02*
X174875000Y-127818500D01*
G75*
G02*
X174950000Y-127743500I75000J0D01*
G01*
X176275000Y-127743500D01*
G75*
G02*
X176350000Y-127818500I0J-75000D01*
G01*
X176350000Y-127968500D01*
G75*
G02*
X176275000Y-128043500I-75000J0D01*
G01*
X174950000Y-128043500D01*
G75*
G02*
X174875000Y-127968500I0J75000D01*
G01*
G37*
G36*
G01*
X174875000Y-128468500D02*
X174875000Y-128318500D01*
G75*
G02*
X174950000Y-128243500I75000J0D01*
G01*
X176275000Y-128243500D01*
G75*
G02*
X176350000Y-128318500I0J-75000D01*
G01*
X176350000Y-128468500D01*
G75*
G02*
X176275000Y-128543500I-75000J0D01*
G01*
X174950000Y-128543500D01*
G75*
G02*
X174875000Y-128468500I0J75000D01*
G01*
G37*
G36*
G01*
X174875000Y-128968500D02*
X174875000Y-128818500D01*
G75*
G02*
X174950000Y-128743500I75000J0D01*
G01*
X176275000Y-128743500D01*
G75*
G02*
X176350000Y-128818500I0J-75000D01*
G01*
X176350000Y-128968500D01*
G75*
G02*
X176275000Y-129043500I-75000J0D01*
G01*
X174950000Y-129043500D01*
G75*
G02*
X174875000Y-128968500I0J75000D01*
G01*
G37*
G36*
G01*
X173800000Y-131218500D02*
X173800000Y-129893500D01*
G75*
G02*
X173875000Y-129818500I75000J0D01*
G01*
X174025000Y-129818500D01*
G75*
G02*
X174100000Y-129893500I0J-75000D01*
G01*
X174100000Y-131218500D01*
G75*
G02*
X174025000Y-131293500I-75000J0D01*
G01*
X173875000Y-131293500D01*
G75*
G02*
X173800000Y-131218500I0J75000D01*
G01*
G37*
G36*
G01*
X173300000Y-131218500D02*
X173300000Y-129893500D01*
G75*
G02*
X173375000Y-129818500I75000J0D01*
G01*
X173525000Y-129818500D01*
G75*
G02*
X173600000Y-129893500I0J-75000D01*
G01*
X173600000Y-131218500D01*
G75*
G02*
X173525000Y-131293500I-75000J0D01*
G01*
X173375000Y-131293500D01*
G75*
G02*
X173300000Y-131218500I0J75000D01*
G01*
G37*
G36*
G01*
X172800000Y-131218500D02*
X172800000Y-129893500D01*
G75*
G02*
X172875000Y-129818500I75000J0D01*
G01*
X173025000Y-129818500D01*
G75*
G02*
X173100000Y-129893500I0J-75000D01*
G01*
X173100000Y-131218500D01*
G75*
G02*
X173025000Y-131293500I-75000J0D01*
G01*
X172875000Y-131293500D01*
G75*
G02*
X172800000Y-131218500I0J75000D01*
G01*
G37*
G36*
G01*
X172300000Y-131218500D02*
X172300000Y-129893500D01*
G75*
G02*
X172375000Y-129818500I75000J0D01*
G01*
X172525000Y-129818500D01*
G75*
G02*
X172600000Y-129893500I0J-75000D01*
G01*
X172600000Y-131218500D01*
G75*
G02*
X172525000Y-131293500I-75000J0D01*
G01*
X172375000Y-131293500D01*
G75*
G02*
X172300000Y-131218500I0J75000D01*
G01*
G37*
G36*
G01*
X171800000Y-131218500D02*
X171800000Y-129893500D01*
G75*
G02*
X171875000Y-129818500I75000J0D01*
G01*
X172025000Y-129818500D01*
G75*
G02*
X172100000Y-129893500I0J-75000D01*
G01*
X172100000Y-131218500D01*
G75*
G02*
X172025000Y-131293500I-75000J0D01*
G01*
X171875000Y-131293500D01*
G75*
G02*
X171800000Y-131218500I0J75000D01*
G01*
G37*
G36*
G01*
X171300000Y-131218500D02*
X171300000Y-129893500D01*
G75*
G02*
X171375000Y-129818500I75000J0D01*
G01*
X171525000Y-129818500D01*
G75*
G02*
X171600000Y-129893500I0J-75000D01*
G01*
X171600000Y-131218500D01*
G75*
G02*
X171525000Y-131293500I-75000J0D01*
G01*
X171375000Y-131293500D01*
G75*
G02*
X171300000Y-131218500I0J75000D01*
G01*
G37*
G36*
G01*
X170800000Y-131218500D02*
X170800000Y-129893500D01*
G75*
G02*
X170875000Y-129818500I75000J0D01*
G01*
X171025000Y-129818500D01*
G75*
G02*
X171100000Y-129893500I0J-75000D01*
G01*
X171100000Y-131218500D01*
G75*
G02*
X171025000Y-131293500I-75000J0D01*
G01*
X170875000Y-131293500D01*
G75*
G02*
X170800000Y-131218500I0J75000D01*
G01*
G37*
G36*
G01*
X170300000Y-131218500D02*
X170300000Y-129893500D01*
G75*
G02*
X170375000Y-129818500I75000J0D01*
G01*
X170525000Y-129818500D01*
G75*
G02*
X170600000Y-129893500I0J-75000D01*
G01*
X170600000Y-131218500D01*
G75*
G02*
X170525000Y-131293500I-75000J0D01*
G01*
X170375000Y-131293500D01*
G75*
G02*
X170300000Y-131218500I0J75000D01*
G01*
G37*
G36*
G01*
X169800000Y-131218500D02*
X169800000Y-129893500D01*
G75*
G02*
X169875000Y-129818500I75000J0D01*
G01*
X170025000Y-129818500D01*
G75*
G02*
X170100000Y-129893500I0J-75000D01*
G01*
X170100000Y-131218500D01*
G75*
G02*
X170025000Y-131293500I-75000J0D01*
G01*
X169875000Y-131293500D01*
G75*
G02*
X169800000Y-131218500I0J75000D01*
G01*
G37*
G36*
G01*
X169300000Y-131218500D02*
X169300000Y-129893500D01*
G75*
G02*
X169375000Y-129818500I75000J0D01*
G01*
X169525000Y-129818500D01*
G75*
G02*
X169600000Y-129893500I0J-75000D01*
G01*
X169600000Y-131218500D01*
G75*
G02*
X169525000Y-131293500I-75000J0D01*
G01*
X169375000Y-131293500D01*
G75*
G02*
X169300000Y-131218500I0J75000D01*
G01*
G37*
G36*
G01*
X168800000Y-131218500D02*
X168800000Y-129893500D01*
G75*
G02*
X168875000Y-129818500I75000J0D01*
G01*
X169025000Y-129818500D01*
G75*
G02*
X169100000Y-129893500I0J-75000D01*
G01*
X169100000Y-131218500D01*
G75*
G02*
X169025000Y-131293500I-75000J0D01*
G01*
X168875000Y-131293500D01*
G75*
G02*
X168800000Y-131218500I0J75000D01*
G01*
G37*
G36*
G01*
X168300000Y-131218500D02*
X168300000Y-129893500D01*
G75*
G02*
X168375000Y-129818500I75000J0D01*
G01*
X168525000Y-129818500D01*
G75*
G02*
X168600000Y-129893500I0J-75000D01*
G01*
X168600000Y-131218500D01*
G75*
G02*
X168525000Y-131293500I-75000J0D01*
G01*
X168375000Y-131293500D01*
G75*
G02*
X168300000Y-131218500I0J75000D01*
G01*
G37*
G36*
G01*
X167800000Y-131218500D02*
X167800000Y-129893500D01*
G75*
G02*
X167875000Y-129818500I75000J0D01*
G01*
X168025000Y-129818500D01*
G75*
G02*
X168100000Y-129893500I0J-75000D01*
G01*
X168100000Y-131218500D01*
G75*
G02*
X168025000Y-131293500I-75000J0D01*
G01*
X167875000Y-131293500D01*
G75*
G02*
X167800000Y-131218500I0J75000D01*
G01*
G37*
G36*
G01*
X167300000Y-131218500D02*
X167300000Y-129893500D01*
G75*
G02*
X167375000Y-129818500I75000J0D01*
G01*
X167525000Y-129818500D01*
G75*
G02*
X167600000Y-129893500I0J-75000D01*
G01*
X167600000Y-131218500D01*
G75*
G02*
X167525000Y-131293500I-75000J0D01*
G01*
X167375000Y-131293500D01*
G75*
G02*
X167300000Y-131218500I0J75000D01*
G01*
G37*
G36*
G01*
X166800000Y-131218500D02*
X166800000Y-129893500D01*
G75*
G02*
X166875000Y-129818500I75000J0D01*
G01*
X167025000Y-129818500D01*
G75*
G02*
X167100000Y-129893500I0J-75000D01*
G01*
X167100000Y-131218500D01*
G75*
G02*
X167025000Y-131293500I-75000J0D01*
G01*
X166875000Y-131293500D01*
G75*
G02*
X166800000Y-131218500I0J75000D01*
G01*
G37*
G36*
G01*
X166300000Y-131218500D02*
X166300000Y-129893500D01*
G75*
G02*
X166375000Y-129818500I75000J0D01*
G01*
X166525000Y-129818500D01*
G75*
G02*
X166600000Y-129893500I0J-75000D01*
G01*
X166600000Y-131218500D01*
G75*
G02*
X166525000Y-131293500I-75000J0D01*
G01*
X166375000Y-131293500D01*
G75*
G02*
X166300000Y-131218500I0J75000D01*
G01*
G37*
G36*
G01*
X165800000Y-131218500D02*
X165800000Y-129893500D01*
G75*
G02*
X165875000Y-129818500I75000J0D01*
G01*
X166025000Y-129818500D01*
G75*
G02*
X166100000Y-129893500I0J-75000D01*
G01*
X166100000Y-131218500D01*
G75*
G02*
X166025000Y-131293500I-75000J0D01*
G01*
X165875000Y-131293500D01*
G75*
G02*
X165800000Y-131218500I0J75000D01*
G01*
G37*
G36*
G01*
X165300000Y-131218500D02*
X165300000Y-129893500D01*
G75*
G02*
X165375000Y-129818500I75000J0D01*
G01*
X165525000Y-129818500D01*
G75*
G02*
X165600000Y-129893500I0J-75000D01*
G01*
X165600000Y-131218500D01*
G75*
G02*
X165525000Y-131293500I-75000J0D01*
G01*
X165375000Y-131293500D01*
G75*
G02*
X165300000Y-131218500I0J75000D01*
G01*
G37*
G36*
G01*
X164800000Y-131218500D02*
X164800000Y-129893500D01*
G75*
G02*
X164875000Y-129818500I75000J0D01*
G01*
X165025000Y-129818500D01*
G75*
G02*
X165100000Y-129893500I0J-75000D01*
G01*
X165100000Y-131218500D01*
G75*
G02*
X165025000Y-131293500I-75000J0D01*
G01*
X164875000Y-131293500D01*
G75*
G02*
X164800000Y-131218500I0J75000D01*
G01*
G37*
G36*
G01*
X164300000Y-131218500D02*
X164300000Y-129893500D01*
G75*
G02*
X164375000Y-129818500I75000J0D01*
G01*
X164525000Y-129818500D01*
G75*
G02*
X164600000Y-129893500I0J-75000D01*
G01*
X164600000Y-131218500D01*
G75*
G02*
X164525000Y-131293500I-75000J0D01*
G01*
X164375000Y-131293500D01*
G75*
G02*
X164300000Y-131218500I0J75000D01*
G01*
G37*
G36*
G01*
X163800000Y-131218500D02*
X163800000Y-129893500D01*
G75*
G02*
X163875000Y-129818500I75000J0D01*
G01*
X164025000Y-129818500D01*
G75*
G02*
X164100000Y-129893500I0J-75000D01*
G01*
X164100000Y-131218500D01*
G75*
G02*
X164025000Y-131293500I-75000J0D01*
G01*
X163875000Y-131293500D01*
G75*
G02*
X163800000Y-131218500I0J75000D01*
G01*
G37*
G36*
G01*
X163300000Y-131218500D02*
X163300000Y-129893500D01*
G75*
G02*
X163375000Y-129818500I75000J0D01*
G01*
X163525000Y-129818500D01*
G75*
G02*
X163600000Y-129893500I0J-75000D01*
G01*
X163600000Y-131218500D01*
G75*
G02*
X163525000Y-131293500I-75000J0D01*
G01*
X163375000Y-131293500D01*
G75*
G02*
X163300000Y-131218500I0J75000D01*
G01*
G37*
G36*
G01*
X162800000Y-131218500D02*
X162800000Y-129893500D01*
G75*
G02*
X162875000Y-129818500I75000J0D01*
G01*
X163025000Y-129818500D01*
G75*
G02*
X163100000Y-129893500I0J-75000D01*
G01*
X163100000Y-131218500D01*
G75*
G02*
X163025000Y-131293500I-75000J0D01*
G01*
X162875000Y-131293500D01*
G75*
G02*
X162800000Y-131218500I0J75000D01*
G01*
G37*
G36*
G01*
X162300000Y-131218500D02*
X162300000Y-129893500D01*
G75*
G02*
X162375000Y-129818500I75000J0D01*
G01*
X162525000Y-129818500D01*
G75*
G02*
X162600000Y-129893500I0J-75000D01*
G01*
X162600000Y-131218500D01*
G75*
G02*
X162525000Y-131293500I-75000J0D01*
G01*
X162375000Y-131293500D01*
G75*
G02*
X162300000Y-131218500I0J75000D01*
G01*
G37*
G36*
G01*
X161800000Y-131218500D02*
X161800000Y-129893500D01*
G75*
G02*
X161875000Y-129818500I75000J0D01*
G01*
X162025000Y-129818500D01*
G75*
G02*
X162100000Y-129893500I0J-75000D01*
G01*
X162100000Y-131218500D01*
G75*
G02*
X162025000Y-131293500I-75000J0D01*
G01*
X161875000Y-131293500D01*
G75*
G02*
X161800000Y-131218500I0J75000D01*
G01*
G37*
G36*
G01*
X159550000Y-128968500D02*
X159550000Y-128818500D01*
G75*
G02*
X159625000Y-128743500I75000J0D01*
G01*
X160950000Y-128743500D01*
G75*
G02*
X161025000Y-128818500I0J-75000D01*
G01*
X161025000Y-128968500D01*
G75*
G02*
X160950000Y-129043500I-75000J0D01*
G01*
X159625000Y-129043500D01*
G75*
G02*
X159550000Y-128968500I0J75000D01*
G01*
G37*
G36*
G01*
X159550000Y-128468500D02*
X159550000Y-128318500D01*
G75*
G02*
X159625000Y-128243500I75000J0D01*
G01*
X160950000Y-128243500D01*
G75*
G02*
X161025000Y-128318500I0J-75000D01*
G01*
X161025000Y-128468500D01*
G75*
G02*
X160950000Y-128543500I-75000J0D01*
G01*
X159625000Y-128543500D01*
G75*
G02*
X159550000Y-128468500I0J75000D01*
G01*
G37*
G36*
G01*
X159550000Y-127968500D02*
X159550000Y-127818500D01*
G75*
G02*
X159625000Y-127743500I75000J0D01*
G01*
X160950000Y-127743500D01*
G75*
G02*
X161025000Y-127818500I0J-75000D01*
G01*
X161025000Y-127968500D01*
G75*
G02*
X160950000Y-128043500I-75000J0D01*
G01*
X159625000Y-128043500D01*
G75*
G02*
X159550000Y-127968500I0J75000D01*
G01*
G37*
G36*
G01*
X159550000Y-127468500D02*
X159550000Y-127318500D01*
G75*
G02*
X159625000Y-127243500I75000J0D01*
G01*
X160950000Y-127243500D01*
G75*
G02*
X161025000Y-127318500I0J-75000D01*
G01*
X161025000Y-127468500D01*
G75*
G02*
X160950000Y-127543500I-75000J0D01*
G01*
X159625000Y-127543500D01*
G75*
G02*
X159550000Y-127468500I0J75000D01*
G01*
G37*
G36*
G01*
X159550000Y-126968500D02*
X159550000Y-126818500D01*
G75*
G02*
X159625000Y-126743500I75000J0D01*
G01*
X160950000Y-126743500D01*
G75*
G02*
X161025000Y-126818500I0J-75000D01*
G01*
X161025000Y-126968500D01*
G75*
G02*
X160950000Y-127043500I-75000J0D01*
G01*
X159625000Y-127043500D01*
G75*
G02*
X159550000Y-126968500I0J75000D01*
G01*
G37*
G36*
G01*
X159550000Y-126468500D02*
X159550000Y-126318500D01*
G75*
G02*
X159625000Y-126243500I75000J0D01*
G01*
X160950000Y-126243500D01*
G75*
G02*
X161025000Y-126318500I0J-75000D01*
G01*
X161025000Y-126468500D01*
G75*
G02*
X160950000Y-126543500I-75000J0D01*
G01*
X159625000Y-126543500D01*
G75*
G02*
X159550000Y-126468500I0J75000D01*
G01*
G37*
G36*
G01*
X159550000Y-125968500D02*
X159550000Y-125818500D01*
G75*
G02*
X159625000Y-125743500I75000J0D01*
G01*
X160950000Y-125743500D01*
G75*
G02*
X161025000Y-125818500I0J-75000D01*
G01*
X161025000Y-125968500D01*
G75*
G02*
X160950000Y-126043500I-75000J0D01*
G01*
X159625000Y-126043500D01*
G75*
G02*
X159550000Y-125968500I0J75000D01*
G01*
G37*
G36*
G01*
X159550000Y-125468500D02*
X159550000Y-125318500D01*
G75*
G02*
X159625000Y-125243500I75000J0D01*
G01*
X160950000Y-125243500D01*
G75*
G02*
X161025000Y-125318500I0J-75000D01*
G01*
X161025000Y-125468500D01*
G75*
G02*
X160950000Y-125543500I-75000J0D01*
G01*
X159625000Y-125543500D01*
G75*
G02*
X159550000Y-125468500I0J75000D01*
G01*
G37*
G36*
G01*
X159550000Y-124968500D02*
X159550000Y-124818500D01*
G75*
G02*
X159625000Y-124743500I75000J0D01*
G01*
X160950000Y-124743500D01*
G75*
G02*
X161025000Y-124818500I0J-75000D01*
G01*
X161025000Y-124968500D01*
G75*
G02*
X160950000Y-125043500I-75000J0D01*
G01*
X159625000Y-125043500D01*
G75*
G02*
X159550000Y-124968500I0J75000D01*
G01*
G37*
G36*
G01*
X159550000Y-124468500D02*
X159550000Y-124318500D01*
G75*
G02*
X159625000Y-124243500I75000J0D01*
G01*
X160950000Y-124243500D01*
G75*
G02*
X161025000Y-124318500I0J-75000D01*
G01*
X161025000Y-124468500D01*
G75*
G02*
X160950000Y-124543500I-75000J0D01*
G01*
X159625000Y-124543500D01*
G75*
G02*
X159550000Y-124468500I0J75000D01*
G01*
G37*
G36*
G01*
X159550000Y-123968500D02*
X159550000Y-123818500D01*
G75*
G02*
X159625000Y-123743500I75000J0D01*
G01*
X160950000Y-123743500D01*
G75*
G02*
X161025000Y-123818500I0J-75000D01*
G01*
X161025000Y-123968500D01*
G75*
G02*
X160950000Y-124043500I-75000J0D01*
G01*
X159625000Y-124043500D01*
G75*
G02*
X159550000Y-123968500I0J75000D01*
G01*
G37*
G36*
G01*
X159550000Y-123468500D02*
X159550000Y-123318500D01*
G75*
G02*
X159625000Y-123243500I75000J0D01*
G01*
X160950000Y-123243500D01*
G75*
G02*
X161025000Y-123318500I0J-75000D01*
G01*
X161025000Y-123468500D01*
G75*
G02*
X160950000Y-123543500I-75000J0D01*
G01*
X159625000Y-123543500D01*
G75*
G02*
X159550000Y-123468500I0J75000D01*
G01*
G37*
G36*
G01*
X159550000Y-122968500D02*
X159550000Y-122818500D01*
G75*
G02*
X159625000Y-122743500I75000J0D01*
G01*
X160950000Y-122743500D01*
G75*
G02*
X161025000Y-122818500I0J-75000D01*
G01*
X161025000Y-122968500D01*
G75*
G02*
X160950000Y-123043500I-75000J0D01*
G01*
X159625000Y-123043500D01*
G75*
G02*
X159550000Y-122968500I0J75000D01*
G01*
G37*
G36*
G01*
X159550000Y-122468500D02*
X159550000Y-122318500D01*
G75*
G02*
X159625000Y-122243500I75000J0D01*
G01*
X160950000Y-122243500D01*
G75*
G02*
X161025000Y-122318500I0J-75000D01*
G01*
X161025000Y-122468500D01*
G75*
G02*
X160950000Y-122543500I-75000J0D01*
G01*
X159625000Y-122543500D01*
G75*
G02*
X159550000Y-122468500I0J75000D01*
G01*
G37*
G36*
G01*
X159550000Y-121968500D02*
X159550000Y-121818500D01*
G75*
G02*
X159625000Y-121743500I75000J0D01*
G01*
X160950000Y-121743500D01*
G75*
G02*
X161025000Y-121818500I0J-75000D01*
G01*
X161025000Y-121968500D01*
G75*
G02*
X160950000Y-122043500I-75000J0D01*
G01*
X159625000Y-122043500D01*
G75*
G02*
X159550000Y-121968500I0J75000D01*
G01*
G37*
G36*
G01*
X159550000Y-121468500D02*
X159550000Y-121318500D01*
G75*
G02*
X159625000Y-121243500I75000J0D01*
G01*
X160950000Y-121243500D01*
G75*
G02*
X161025000Y-121318500I0J-75000D01*
G01*
X161025000Y-121468500D01*
G75*
G02*
X160950000Y-121543500I-75000J0D01*
G01*
X159625000Y-121543500D01*
G75*
G02*
X159550000Y-121468500I0J75000D01*
G01*
G37*
G36*
G01*
X159550000Y-120968500D02*
X159550000Y-120818500D01*
G75*
G02*
X159625000Y-120743500I75000J0D01*
G01*
X160950000Y-120743500D01*
G75*
G02*
X161025000Y-120818500I0J-75000D01*
G01*
X161025000Y-120968500D01*
G75*
G02*
X160950000Y-121043500I-75000J0D01*
G01*
X159625000Y-121043500D01*
G75*
G02*
X159550000Y-120968500I0J75000D01*
G01*
G37*
G36*
G01*
X159550000Y-120468500D02*
X159550000Y-120318500D01*
G75*
G02*
X159625000Y-120243500I75000J0D01*
G01*
X160950000Y-120243500D01*
G75*
G02*
X161025000Y-120318500I0J-75000D01*
G01*
X161025000Y-120468500D01*
G75*
G02*
X160950000Y-120543500I-75000J0D01*
G01*
X159625000Y-120543500D01*
G75*
G02*
X159550000Y-120468500I0J75000D01*
G01*
G37*
G36*
G01*
X159550000Y-119968500D02*
X159550000Y-119818500D01*
G75*
G02*
X159625000Y-119743500I75000J0D01*
G01*
X160950000Y-119743500D01*
G75*
G02*
X161025000Y-119818500I0J-75000D01*
G01*
X161025000Y-119968500D01*
G75*
G02*
X160950000Y-120043500I-75000J0D01*
G01*
X159625000Y-120043500D01*
G75*
G02*
X159550000Y-119968500I0J75000D01*
G01*
G37*
G36*
G01*
X159550000Y-119468500D02*
X159550000Y-119318500D01*
G75*
G02*
X159625000Y-119243500I75000J0D01*
G01*
X160950000Y-119243500D01*
G75*
G02*
X161025000Y-119318500I0J-75000D01*
G01*
X161025000Y-119468500D01*
G75*
G02*
X160950000Y-119543500I-75000J0D01*
G01*
X159625000Y-119543500D01*
G75*
G02*
X159550000Y-119468500I0J75000D01*
G01*
G37*
G36*
G01*
X159550000Y-118968500D02*
X159550000Y-118818500D01*
G75*
G02*
X159625000Y-118743500I75000J0D01*
G01*
X160950000Y-118743500D01*
G75*
G02*
X161025000Y-118818500I0J-75000D01*
G01*
X161025000Y-118968500D01*
G75*
G02*
X160950000Y-119043500I-75000J0D01*
G01*
X159625000Y-119043500D01*
G75*
G02*
X159550000Y-118968500I0J75000D01*
G01*
G37*
G36*
G01*
X159550000Y-118468500D02*
X159550000Y-118318500D01*
G75*
G02*
X159625000Y-118243500I75000J0D01*
G01*
X160950000Y-118243500D01*
G75*
G02*
X161025000Y-118318500I0J-75000D01*
G01*
X161025000Y-118468500D01*
G75*
G02*
X160950000Y-118543500I-75000J0D01*
G01*
X159625000Y-118543500D01*
G75*
G02*
X159550000Y-118468500I0J75000D01*
G01*
G37*
G36*
G01*
X159550000Y-117968500D02*
X159550000Y-117818500D01*
G75*
G02*
X159625000Y-117743500I75000J0D01*
G01*
X160950000Y-117743500D01*
G75*
G02*
X161025000Y-117818500I0J-75000D01*
G01*
X161025000Y-117968500D01*
G75*
G02*
X160950000Y-118043500I-75000J0D01*
G01*
X159625000Y-118043500D01*
G75*
G02*
X159550000Y-117968500I0J75000D01*
G01*
G37*
G36*
G01*
X159550000Y-117468500D02*
X159550000Y-117318500D01*
G75*
G02*
X159625000Y-117243500I75000J0D01*
G01*
X160950000Y-117243500D01*
G75*
G02*
X161025000Y-117318500I0J-75000D01*
G01*
X161025000Y-117468500D01*
G75*
G02*
X160950000Y-117543500I-75000J0D01*
G01*
X159625000Y-117543500D01*
G75*
G02*
X159550000Y-117468500I0J75000D01*
G01*
G37*
G36*
G01*
X159550000Y-116968500D02*
X159550000Y-116818500D01*
G75*
G02*
X159625000Y-116743500I75000J0D01*
G01*
X160950000Y-116743500D01*
G75*
G02*
X161025000Y-116818500I0J-75000D01*
G01*
X161025000Y-116968500D01*
G75*
G02*
X160950000Y-117043500I-75000J0D01*
G01*
X159625000Y-117043500D01*
G75*
G02*
X159550000Y-116968500I0J75000D01*
G01*
G37*
D17*
X110998000Y-125476000D03*
X126238000Y-133096000D03*
X113538000Y-125476000D03*
X123698000Y-133096000D03*
X116078000Y-125476000D03*
X121158000Y-133096000D03*
X118618000Y-125476000D03*
X118618000Y-133096000D03*
X121158000Y-125476000D03*
X116078000Y-133096000D03*
X123698000Y-125476000D03*
X113538000Y-133096000D03*
X126238000Y-125476000D03*
D18*
X110998000Y-133096000D03*
D19*
X190000000Y-70000000D03*
X190000000Y-65000000D03*
X190000000Y-60000000D03*
X195000000Y-70000000D03*
X195000000Y-65000000D03*
X195000000Y-60000000D03*
D17*
X182118000Y-81788000D03*
D20*
X171958000Y-81788000D03*
D17*
X181864000Y-54356000D03*
D20*
X171704000Y-54356000D03*
D17*
X110236000Y-73628000D03*
D20*
X120396000Y-73628000D03*
D17*
X110236000Y-58388000D03*
D20*
X120396000Y-58388000D03*
D17*
X153416000Y-84328000D03*
D20*
X143256000Y-84328000D03*
D17*
X126746000Y-84328000D03*
D20*
X116586000Y-84328000D03*
D17*
X153416000Y-88900000D03*
D20*
X143256000Y-88900000D03*
D17*
X126746000Y-88900000D03*
D20*
X116586000Y-88900000D03*
D17*
X140208000Y-84328000D03*
D20*
X130048000Y-84328000D03*
D17*
X113538000Y-84328000D03*
D20*
X103378000Y-84328000D03*
D17*
X182372000Y-92202000D03*
D20*
X172212000Y-92202000D03*
D17*
X182372000Y-87630000D03*
D20*
X172212000Y-87630000D03*
D17*
X140208000Y-88900000D03*
D20*
X130048000Y-88900000D03*
D17*
X113538000Y-88900000D03*
D20*
X103378000Y-88900000D03*
D17*
X169418000Y-92202000D03*
D20*
X159258000Y-92202000D03*
D17*
X105156000Y-123952000D03*
D20*
X105156000Y-134112000D03*
D17*
X187452000Y-125730000D03*
D20*
X197612000Y-125730000D03*
D17*
X187452000Y-130302000D03*
D20*
X197612000Y-130302000D03*
D21*
X171704000Y-62230000D03*
X166704000Y-62230000D03*
X171958000Y-73406000D03*
X166958000Y-73406000D03*
X109474000Y-93298000D03*
X109474000Y-98298000D03*
X121666000Y-93298000D03*
X121666000Y-98298000D03*
D22*
X110744000Y-139192000D03*
X113284000Y-139192000D03*
X115824000Y-139192000D03*
X118364000Y-139192000D03*
X120904000Y-139192000D03*
X123444000Y-139192000D03*
X125984000Y-139192000D03*
X128524000Y-139192000D03*
X131064000Y-139192000D03*
X133604000Y-139192000D03*
X136144000Y-139192000D03*
X138684000Y-139192000D03*
X141224000Y-139192000D03*
X143764000Y-139192000D03*
X146304000Y-139192000D03*
X148844000Y-139192000D03*
X151384000Y-139192000D03*
X153924000Y-139192000D03*
X156464000Y-139192000D03*
X159004000Y-139192000D03*
X161544000Y-139192000D03*
X164084000Y-139192000D03*
X166624000Y-139192000D03*
X169164000Y-139192000D03*
X171704000Y-139192000D03*
X174244000Y-139192000D03*
X176784000Y-139192000D03*
X179324000Y-139192000D03*
X181864000Y-139192000D03*
X184404000Y-139192000D03*
X186944000Y-139192000D03*
X189484000Y-139192000D03*
X110744000Y-144272000D03*
X113284000Y-144272000D03*
X115824000Y-144272000D03*
X118364000Y-144272000D03*
X120904000Y-144272000D03*
X123444000Y-144272000D03*
X125984000Y-144272000D03*
X128524000Y-144272000D03*
X131064000Y-144272000D03*
X133604000Y-144272000D03*
X136144000Y-144272000D03*
X138684000Y-144272000D03*
X141224000Y-144272000D03*
X143764000Y-144272000D03*
X146304000Y-144272000D03*
X148844000Y-144272000D03*
X151384000Y-144272000D03*
X153924000Y-144272000D03*
X156464000Y-144272000D03*
X159004000Y-144272000D03*
X161544000Y-144272000D03*
X164084000Y-144272000D03*
X166624000Y-144272000D03*
X169164000Y-144272000D03*
X171704000Y-144272000D03*
X174244000Y-144272000D03*
X176784000Y-144272000D03*
X179324000Y-144272000D03*
X181864000Y-144272000D03*
X184404000Y-144272000D03*
X186944000Y-144272000D03*
G36*
G01*
X190259000Y-143746998D02*
X190259000Y-144797002D01*
G75*
G02*
X190009002Y-145047000I-249998J0D01*
G01*
X188958998Y-145047000D01*
G75*
G02*
X188709000Y-144797002I0J249998D01*
G01*
X188709000Y-143746998D01*
G75*
G02*
X188958998Y-143497000I249998J0D01*
G01*
X190009002Y-143497000D01*
G75*
G02*
X190259000Y-143746998I0J-249998D01*
G01*
G37*
D23*
X105664000Y-146812000D03*
X194564000Y-146812000D03*
D24*
X194056000Y-136906000D03*
D25*
X196596000Y-136906000D03*
D20*
X182038000Y-73406000D03*
D18*
X177038000Y-73406000D03*
D20*
X182038000Y-62230000D03*
D18*
X177038000Y-62230000D03*
D20*
X168910000Y-81788000D03*
X166410000Y-81788000D03*
X168616000Y-54356000D03*
X166116000Y-54356000D03*
X141478000Y-54356000D03*
X138978000Y-54356000D03*
X156718000Y-54356000D03*
X154218000Y-54356000D03*
X158202000Y-71628000D03*
D18*
X155702000Y-71628000D03*
D20*
X152106000Y-71628000D03*
D18*
X149606000Y-71628000D03*
D20*
X139914000Y-71628000D03*
D18*
X137414000Y-71628000D03*
D20*
X146010000Y-71628000D03*
D18*
X143510000Y-71628000D03*
D20*
X162306000Y-76962000D03*
X159806000Y-76962000D03*
X162266000Y-81788000D03*
X159766000Y-81788000D03*
X131826000Y-61254000D03*
X131826000Y-63754000D03*
X106172000Y-64524000D03*
D18*
X106172000Y-67024000D03*
D20*
X131572000Y-123698000D03*
X131572000Y-126198000D03*
X112014000Y-102870000D03*
X112014000Y-105370000D03*
X112014000Y-115570000D03*
X112014000Y-118070000D03*
X152868000Y-79248000D03*
X150368000Y-79248000D03*
X126238000Y-78994000D03*
X123738000Y-78994000D03*
X178308000Y-99568000D03*
X178308000Y-102068000D03*
X146518000Y-79248000D03*
X144018000Y-79248000D03*
X119888000Y-78994000D03*
X117388000Y-78994000D03*
X131572000Y-129834000D03*
X131572000Y-132334000D03*
X150368000Y-102616000D03*
X147868000Y-102616000D03*
X168870000Y-87630000D03*
X166370000Y-87630000D03*
X162052000Y-87630000D03*
X159552000Y-87630000D03*
X131358000Y-71374000D03*
D18*
X133858000Y-71374000D03*
D20*
X133096000Y-78994000D03*
X130596000Y-78994000D03*
X186944000Y-135128000D03*
X189444000Y-135128000D03*
X177332000Y-114300000D03*
X179832000Y-114300000D03*
X178308000Y-106720000D03*
X178308000Y-109220000D03*
X140208000Y-79248000D03*
X137708000Y-79248000D03*
X113284000Y-78994000D03*
X110784000Y-78994000D03*
M02*
