G04 #@! TF.GenerationSoftware,KiCad,Pcbnew,(5.1.10)-1*
G04 #@! TF.CreationDate,2021-07-30T10:28:04+01:00*
G04 #@! TF.ProjectId,Eth8019,45746838-3031-4392-9e6b-696361645f70,rev?*
G04 #@! TF.SameCoordinates,Original*
G04 #@! TF.FileFunction,Soldermask,Bot*
G04 #@! TF.FilePolarity,Negative*
%FSLAX46Y46*%
G04 Gerber Fmt 4.6, Leading zero omitted, Abs format (unit mm)*
G04 Created by KiCad (PCBNEW (5.1.10)-1) date 2021-07-30 10:28:04*
%MOMM*%
%LPD*%
G01*
G04 APERTURE LIST*
%ADD10C,3.250000*%
%ADD11C,2.600000*%
%ADD12C,1.890000*%
%ADD13C,1.900000*%
%ADD14R,1.900000X1.900000*%
%ADD15O,1.700000X1.700000*%
%ADD16R,1.700000X1.700000*%
%ADD17C,1.550000*%
%ADD18C,2.850000*%
G04 APERTURE END LIST*
D10*
X188898000Y-99212000D03*
X188898000Y-110642000D03*
D11*
X185848000Y-97152000D03*
X185848000Y-112702000D03*
D12*
X193798000Y-111252000D03*
X192278000Y-108712000D03*
X193798000Y-101142000D03*
X192278000Y-98602000D03*
D13*
X180018000Y-100482000D03*
X182558000Y-101752000D03*
X180018000Y-103022000D03*
X182558000Y-104292000D03*
X180018000Y-105562000D03*
X182558000Y-106832000D03*
X180018000Y-108102000D03*
D14*
X182558000Y-109372000D03*
D15*
X108458000Y-100711000D03*
X108458000Y-103251000D03*
X108458000Y-105791000D03*
X108458000Y-108331000D03*
X108458000Y-110871000D03*
D16*
X108458000Y-113411000D03*
D17*
X110688000Y-139708000D03*
X113228000Y-139708000D03*
X115768000Y-139708000D03*
X118308000Y-139708000D03*
X120848000Y-139708000D03*
X123388000Y-139708000D03*
X125928000Y-139708000D03*
X128468000Y-139708000D03*
X131008000Y-139708000D03*
X133548000Y-139708000D03*
X136088000Y-139708000D03*
X138628000Y-139708000D03*
X141168000Y-139708000D03*
X143708000Y-139708000D03*
X146248000Y-139708000D03*
X148788000Y-139708000D03*
X151328000Y-139708000D03*
X153868000Y-139708000D03*
X156408000Y-139708000D03*
X158948000Y-139708000D03*
X161488000Y-139708000D03*
X164028000Y-139708000D03*
X166568000Y-139708000D03*
X169108000Y-139708000D03*
X171648000Y-139708000D03*
X174188000Y-139708000D03*
X176728000Y-139708000D03*
X179268000Y-139708000D03*
X181808000Y-139708000D03*
X184348000Y-139708000D03*
X186888000Y-139708000D03*
X189428000Y-139708000D03*
X110688000Y-144788000D03*
X113228000Y-144788000D03*
X115768000Y-144788000D03*
X118308000Y-144788000D03*
X120848000Y-144788000D03*
X123388000Y-144788000D03*
X125928000Y-144788000D03*
X128468000Y-144788000D03*
X131008000Y-144788000D03*
X133548000Y-144788000D03*
X136088000Y-144788000D03*
X138628000Y-144788000D03*
X141168000Y-144788000D03*
X143708000Y-144788000D03*
X146248000Y-144788000D03*
X148788000Y-144788000D03*
X151328000Y-144788000D03*
X153868000Y-144788000D03*
X156408000Y-144788000D03*
X158948000Y-144788000D03*
X161488000Y-144788000D03*
X164028000Y-144788000D03*
X166568000Y-144788000D03*
X169108000Y-144788000D03*
X171648000Y-144788000D03*
X174188000Y-144788000D03*
X176728000Y-144788000D03*
X179268000Y-144788000D03*
X181808000Y-144788000D03*
X184348000Y-144788000D03*
X186888000Y-144788000D03*
G36*
G01*
X190203000Y-144262998D02*
X190203000Y-145313002D01*
G75*
G02*
X189953002Y-145563000I-249998J0D01*
G01*
X188902998Y-145563000D01*
G75*
G02*
X188653000Y-145313002I0J249998D01*
G01*
X188653000Y-144262998D01*
G75*
G02*
X188902998Y-144013000I249998J0D01*
G01*
X189953002Y-144013000D01*
G75*
G02*
X190203000Y-144262998I0J-249998D01*
G01*
G37*
D18*
X105608000Y-147328000D03*
X194508000Y-147328000D03*
M02*
