M48
; DRILL file {KiCad (5.1.10)-1} date 07/30/21 10:28:11
; FORMAT={-:-/ absolute / metric / decimal}
; #@! TF.CreationDate,2021-07-30T10:28:11+01:00
; #@! TF.GenerationSoftware,Kicad,Pcbnew,(5.1.10)-1
; #@! TF.FileFunction,Plated,1,4,PTH
FMAT,2
METRIC
T1C0.400
T2C0.890
T3C0.900
T4C1.000
T5C1.600
%
G90
G05
T1
X104.965Y-90.932
X105.6Y-124.4
X105.75Y-128.75
X105.75Y-131.5
X108.5Y-135.25
X109.6Y-123.6
X112.2Y-128.2
X112.8Y-114.8
X113.0Y-105.8
X113.5Y-135.25
X114.0Y-119.0
X115.0Y-107.0
X115.0Y-109.75
X116.5Y-123.75
X116.5Y-128.75
X120.2Y-136.652
X120.2Y-106.4
X120.75Y-123.0
X121.793Y-104.457
X122.2Y-142.2
X122.4Y-115.2
X122.428Y-135.636
X124.714Y-108.712
X125.73Y-104.902
X125.928Y-134.31
X126.0Y-142.2
X126.746Y-105.855
X127.2Y-136.598
X127.698Y-103.95
X127.8Y-99.4
X127.889Y-97.091
X128.524Y-135.636
X129.984Y-112.078
X131.064Y-110.807
X131.191Y-114.617
X133.858Y-119.38
X134.6Y-101.2
X135.128Y-104.394
X135.5Y-109.529
X135.8Y-106.8
X135.8Y-108.2
X137.795Y-109.029
X137.922Y-113.03
X137.922Y-119.38
X138.2Y-101.2
X138.938Y-117.602
X139.129Y-122.555
X139.446Y-113.792
X140.8Y-106.6
X140.8Y-107.8
X140.97Y-128.778
X141.2Y-116.6
X141.5Y-102.0
X141.8Y-104.8
X142.24Y-129.794
X143.4Y-130.8
X143.764Y-122.936
X144.194Y-94.6
X144.75Y-103.5
X145.2Y-99.2
X145.542Y-93.98
X147.2Y-99.2
X147.637Y-108.902
X147.75Y-117.0
X149.6Y-116.8
X149.987Y-113.347
X150.0Y-115.4
X150.25Y-123.0
X153.6Y-100.2
X153.8Y-123.2
X155.6Y-100.2
X156.0Y-123.2
X156.8Y-91.1
X157.4Y-100.2
X158.5Y-124.5
X159.4Y-94.8
X159.4Y-113.8
X160.6Y-94.0
X160.6Y-117.2
X161.3Y-91.1
X161.4Y-111.4
X161.4Y-113.0
X161.5Y-125.75
X161.8Y-115.6
X162.0Y-106.0
X163.4Y-107.2
X163.449Y-94.361
X163.83Y-112.522
X163.83Y-114.808
X163.83Y-116.459
X165.354Y-129.794
X166.25Y-124.75
X166.6Y-130.8
X167.64Y-103.632
X169.05Y-91.1
X169.164Y-128.778
X170.434Y-102.108
X172.0Y-107.0
X176.022Y-96.012
X177.032Y-118.364
X182.0Y-120.2
X184.398Y-116.198
X184.75Y-125.5
X189.5Y-116.5
X192.25Y-125.5
X193.5Y-116.5
X194.8Y-92.6
X195.643Y-141.668
X196.5Y-131.75
T2
X192.278Y-98.602
X192.278Y-108.712
X193.798Y-101.142
X193.798Y-111.252
T3
X180.018Y-100.482
X180.018Y-103.022
X180.018Y-105.562
X180.018Y-108.102
X182.558Y-101.752
X182.558Y-104.292
X182.558Y-106.832
X182.558Y-109.372
T4
X108.458Y-100.711
X108.458Y-103.251
X108.458Y-105.791
X108.458Y-108.331
X108.458Y-110.871
X108.458Y-113.411
X110.688Y-139.708
X110.688Y-144.788
X113.228Y-139.708
X113.228Y-144.788
X115.768Y-139.708
X115.768Y-144.788
X118.308Y-139.708
X118.308Y-144.788
X120.848Y-139.708
X120.848Y-144.788
X123.388Y-139.708
X123.388Y-144.788
X125.928Y-139.708
X125.928Y-144.788
X128.468Y-139.708
X128.468Y-144.788
X131.008Y-139.708
X131.008Y-144.788
X133.548Y-139.708
X133.548Y-144.788
X136.088Y-139.708
X136.088Y-144.788
X138.628Y-139.708
X138.628Y-144.788
X141.168Y-139.708
X141.168Y-144.788
X143.708Y-139.708
X143.708Y-144.788
X146.248Y-139.708
X146.248Y-144.788
X148.788Y-139.708
X148.788Y-144.788
X151.328Y-139.708
X151.328Y-144.788
X153.868Y-139.708
X153.868Y-144.788
X156.408Y-139.708
X156.408Y-144.788
X158.948Y-139.708
X158.948Y-144.788
X161.488Y-139.708
X161.488Y-144.788
X164.028Y-139.708
X164.028Y-144.788
X166.568Y-139.708
X166.568Y-144.788
X169.108Y-139.708
X169.108Y-144.788
X171.648Y-139.708
X171.648Y-144.788
X174.188Y-139.708
X174.188Y-144.788
X176.728Y-139.708
X176.728Y-144.788
X179.268Y-139.708
X179.268Y-144.788
X181.808Y-139.708
X181.808Y-144.788
X184.348Y-139.708
X184.348Y-144.788
X186.888Y-139.708
X186.888Y-144.788
X189.428Y-139.708
X189.428Y-144.788
T5
X185.848Y-97.152
X185.848Y-112.702
T0
M30
