G04 #@! TF.GenerationSoftware,KiCad,Pcbnew,(5.1.10)-1*
G04 #@! TF.CreationDate,2021-07-30T10:28:04+01:00*
G04 #@! TF.ProjectId,Eth8019,45746838-3031-4392-9e6b-696361645f70,rev?*
G04 #@! TF.SameCoordinates,Original*
G04 #@! TF.FileFunction,Copper,L4,Bot*
G04 #@! TF.FilePolarity,Positive*
%FSLAX46Y46*%
G04 Gerber Fmt 4.6, Leading zero omitted, Abs format (unit mm)*
G04 Created by KiCad (PCBNEW (5.1.10)-1) date 2021-07-30 10:28:04*
%MOMM*%
%LPD*%
G01*
G04 APERTURE LIST*
G04 #@! TA.AperFunction,NonConductor*
%ADD10C,0.300000*%
G04 #@! TD*
G04 #@! TA.AperFunction,ComponentPad*
%ADD11C,2.600000*%
G04 #@! TD*
G04 #@! TA.AperFunction,ComponentPad*
%ADD12C,1.890000*%
G04 #@! TD*
G04 #@! TA.AperFunction,ComponentPad*
%ADD13C,1.900000*%
G04 #@! TD*
G04 #@! TA.AperFunction,ComponentPad*
%ADD14R,1.900000X1.900000*%
G04 #@! TD*
G04 #@! TA.AperFunction,ComponentPad*
%ADD15O,1.700000X1.700000*%
G04 #@! TD*
G04 #@! TA.AperFunction,ComponentPad*
%ADD16R,1.700000X1.700000*%
G04 #@! TD*
G04 #@! TA.AperFunction,ComponentPad*
%ADD17C,1.550000*%
G04 #@! TD*
G04 #@! TA.AperFunction,ViaPad*
%ADD18C,0.800000*%
G04 #@! TD*
G04 #@! TA.AperFunction,Conductor*
%ADD19C,0.210000*%
G04 #@! TD*
G04 APERTURE END LIST*
D10*
X191792285Y-93261714D02*
X191935142Y-93190285D01*
X192220857Y-93190285D01*
X192363714Y-93261714D01*
X192506571Y-93404571D01*
X192578000Y-93547428D01*
X192578000Y-93833142D01*
X192506571Y-93976000D01*
X192363714Y-94118857D01*
X192220857Y-94190285D01*
X191935142Y-94190285D01*
X191792285Y-94118857D01*
X192078000Y-92690285D02*
X192435142Y-92761714D01*
X192792285Y-92976000D01*
X193006571Y-93333142D01*
X193078000Y-93690285D01*
X193006571Y-94047428D01*
X192792285Y-94404571D01*
X192435142Y-94618857D01*
X192078000Y-94690285D01*
X191720857Y-94618857D01*
X191363714Y-94404571D01*
X191149428Y-94047428D01*
X191078000Y-93690285D01*
X191149428Y-93333142D01*
X191363714Y-92976000D01*
X191720857Y-92761714D01*
X192078000Y-92690285D01*
X189363714Y-93047428D02*
X189292285Y-92976000D01*
X189149428Y-92904571D01*
X188792285Y-92904571D01*
X188649428Y-92976000D01*
X188578000Y-93047428D01*
X188506571Y-93190285D01*
X188506571Y-93333142D01*
X188578000Y-93547428D01*
X189435142Y-94404571D01*
X188506571Y-94404571D01*
X187578000Y-92904571D02*
X187435142Y-92904571D01*
X187292285Y-92976000D01*
X187220857Y-93047428D01*
X187149428Y-93190285D01*
X187078000Y-93476000D01*
X187078000Y-93833142D01*
X187149428Y-94118857D01*
X187220857Y-94261714D01*
X187292285Y-94333142D01*
X187435142Y-94404571D01*
X187578000Y-94404571D01*
X187720857Y-94333142D01*
X187792285Y-94261714D01*
X187863714Y-94118857D01*
X187935142Y-93833142D01*
X187935142Y-93476000D01*
X187863714Y-93190285D01*
X187792285Y-93047428D01*
X187720857Y-92976000D01*
X187578000Y-92904571D01*
X186506571Y-93047428D02*
X186435142Y-92976000D01*
X186292285Y-92904571D01*
X185935142Y-92904571D01*
X185792285Y-92976000D01*
X185720857Y-93047428D01*
X185649428Y-93190285D01*
X185649428Y-93333142D01*
X185720857Y-93547428D01*
X186578000Y-94404571D01*
X185649428Y-94404571D01*
X184220857Y-94404571D02*
X185078000Y-94404571D01*
X184649428Y-94404571D02*
X184649428Y-92904571D01*
X184792285Y-93118857D01*
X184935142Y-93261714D01*
X185078000Y-93333142D01*
X182506571Y-94333142D02*
X182292285Y-94404571D01*
X181935142Y-94404571D01*
X181792285Y-94333142D01*
X181720857Y-94261714D01*
X181649428Y-94118857D01*
X181649428Y-93976000D01*
X181720857Y-93833142D01*
X181792285Y-93761714D01*
X181935142Y-93690285D01*
X182220857Y-93618857D01*
X182363714Y-93547428D01*
X182435142Y-93476000D01*
X182506571Y-93333142D01*
X182506571Y-93190285D01*
X182435142Y-93047428D01*
X182363714Y-92976000D01*
X182220857Y-92904571D01*
X181863714Y-92904571D01*
X181649428Y-92976000D01*
X181220857Y-93404571D02*
X180649428Y-93404571D01*
X181006571Y-92904571D02*
X181006571Y-94190285D01*
X180935142Y-94333142D01*
X180792285Y-94404571D01*
X180649428Y-94404571D01*
X179578000Y-94333142D02*
X179720857Y-94404571D01*
X180006571Y-94404571D01*
X180149428Y-94333142D01*
X180220857Y-94190285D01*
X180220857Y-93618857D01*
X180149428Y-93476000D01*
X180006571Y-93404571D01*
X179720857Y-93404571D01*
X179578000Y-93476000D01*
X179506571Y-93618857D01*
X179506571Y-93761714D01*
X180220857Y-93904571D01*
X178863714Y-93404571D02*
X178863714Y-94904571D01*
X178863714Y-93476000D02*
X178720857Y-93404571D01*
X178435142Y-93404571D01*
X178292285Y-93476000D01*
X178220857Y-93547428D01*
X178149428Y-93690285D01*
X178149428Y-94118857D01*
X178220857Y-94261714D01*
X178292285Y-94333142D01*
X178435142Y-94404571D01*
X178720857Y-94404571D01*
X178863714Y-94333142D01*
X177506571Y-94404571D02*
X177506571Y-92904571D01*
X176863714Y-94404571D02*
X176863714Y-93618857D01*
X176935142Y-93476000D01*
X177078000Y-93404571D01*
X177292285Y-93404571D01*
X177435142Y-93476000D01*
X177506571Y-93547428D01*
X175578000Y-94333142D02*
X175720857Y-94404571D01*
X176006571Y-94404571D01*
X176149428Y-94333142D01*
X176220857Y-94190285D01*
X176220857Y-93618857D01*
X176149428Y-93476000D01*
X176006571Y-93404571D01*
X175720857Y-93404571D01*
X175578000Y-93476000D01*
X175506571Y-93618857D01*
X175506571Y-93761714D01*
X176220857Y-93904571D01*
X174863714Y-93404571D02*
X174863714Y-94404571D01*
X174863714Y-93547428D02*
X174792285Y-93476000D01*
X174649428Y-93404571D01*
X174435142Y-93404571D01*
X174292285Y-93476000D01*
X174220857Y-93618857D01*
X174220857Y-94404571D01*
X172363714Y-94404571D02*
X172363714Y-92904571D01*
X171863714Y-93976000D01*
X171363714Y-92904571D01*
X171363714Y-94404571D01*
X170435142Y-94404571D02*
X170578000Y-94333142D01*
X170649428Y-94261714D01*
X170720857Y-94118857D01*
X170720857Y-93690285D01*
X170649428Y-93547428D01*
X170578000Y-93476000D01*
X170435142Y-93404571D01*
X170220857Y-93404571D01*
X170078000Y-93476000D01*
X170006571Y-93547428D01*
X169935142Y-93690285D01*
X169935142Y-94118857D01*
X170006571Y-94261714D01*
X170078000Y-94333142D01*
X170220857Y-94404571D01*
X170435142Y-94404571D01*
X169078000Y-94404571D02*
X169220857Y-94333142D01*
X169292285Y-94261714D01*
X169363714Y-94118857D01*
X169363714Y-93690285D01*
X169292285Y-93547428D01*
X169220857Y-93476000D01*
X169078000Y-93404571D01*
X168863714Y-93404571D01*
X168720857Y-93476000D01*
X168649428Y-93547428D01*
X168578000Y-93690285D01*
X168578000Y-94118857D01*
X168649428Y-94261714D01*
X168720857Y-94333142D01*
X168863714Y-94404571D01*
X169078000Y-94404571D01*
X167292285Y-94404571D02*
X167292285Y-92904571D01*
X167292285Y-94333142D02*
X167435142Y-94404571D01*
X167720857Y-94404571D01*
X167863714Y-94333142D01*
X167935142Y-94261714D01*
X168006571Y-94118857D01*
X168006571Y-93690285D01*
X167935142Y-93547428D01*
X167863714Y-93476000D01*
X167720857Y-93404571D01*
X167435142Y-93404571D01*
X167292285Y-93476000D01*
X166720857Y-93404571D02*
X166363714Y-94404571D01*
X166006571Y-93404571D02*
X166363714Y-94404571D01*
X166506571Y-94761714D01*
X166578000Y-94833142D01*
X166720857Y-94904571D01*
D11*
X185848000Y-97152000D03*
X185848000Y-112702000D03*
D12*
X193798000Y-111252000D03*
X192278000Y-108712000D03*
X193798000Y-101142000D03*
X192278000Y-98602000D03*
D13*
X180018000Y-100482000D03*
X182558000Y-101752000D03*
X180018000Y-103022000D03*
X182558000Y-104292000D03*
X180018000Y-105562000D03*
X182558000Y-106832000D03*
X180018000Y-108102000D03*
D14*
X182558000Y-109372000D03*
D15*
X108458000Y-100711000D03*
X108458000Y-103251000D03*
X108458000Y-105791000D03*
X108458000Y-108331000D03*
X108458000Y-110871000D03*
D16*
X108458000Y-113411000D03*
D17*
X110688000Y-139708000D03*
X113228000Y-139708000D03*
X115768000Y-139708000D03*
X118308000Y-139708000D03*
X120848000Y-139708000D03*
X123388000Y-139708000D03*
X125928000Y-139708000D03*
X128468000Y-139708000D03*
X131008000Y-139708000D03*
X133548000Y-139708000D03*
X136088000Y-139708000D03*
X138628000Y-139708000D03*
X141168000Y-139708000D03*
X143708000Y-139708000D03*
X146248000Y-139708000D03*
X148788000Y-139708000D03*
X151328000Y-139708000D03*
X153868000Y-139708000D03*
X156408000Y-139708000D03*
X158948000Y-139708000D03*
X161488000Y-139708000D03*
X164028000Y-139708000D03*
X166568000Y-139708000D03*
X169108000Y-139708000D03*
X171648000Y-139708000D03*
X174188000Y-139708000D03*
X176728000Y-139708000D03*
X179268000Y-139708000D03*
X181808000Y-139708000D03*
X184348000Y-139708000D03*
X186888000Y-139708000D03*
X189428000Y-139708000D03*
X110688000Y-144788000D03*
X113228000Y-144788000D03*
X115768000Y-144788000D03*
X118308000Y-144788000D03*
X120848000Y-144788000D03*
X123388000Y-144788000D03*
X125928000Y-144788000D03*
X128468000Y-144788000D03*
X131008000Y-144788000D03*
X133548000Y-144788000D03*
X136088000Y-144788000D03*
X138628000Y-144788000D03*
X141168000Y-144788000D03*
X143708000Y-144788000D03*
X146248000Y-144788000D03*
X148788000Y-144788000D03*
X151328000Y-144788000D03*
X153868000Y-144788000D03*
X156408000Y-144788000D03*
X158948000Y-144788000D03*
X161488000Y-144788000D03*
X164028000Y-144788000D03*
X166568000Y-144788000D03*
X169108000Y-144788000D03*
X171648000Y-144788000D03*
X174188000Y-144788000D03*
X176728000Y-144788000D03*
X179268000Y-144788000D03*
X181808000Y-144788000D03*
X184348000Y-144788000D03*
X186888000Y-144788000D03*
G04 #@! TA.AperFunction,ComponentPad*
G36*
G01*
X190203000Y-144262998D02*
X190203000Y-145313002D01*
G75*
G02*
X189953002Y-145563000I-249998J0D01*
G01*
X188902998Y-145563000D01*
G75*
G02*
X188653000Y-145313002I0J249998D01*
G01*
X188653000Y-144262998D01*
G75*
G02*
X188902998Y-144013000I249998J0D01*
G01*
X189953002Y-144013000D01*
G75*
G02*
X190203000Y-144262998I0J-249998D01*
G01*
G37*
G04 #@! TD.AperFunction*
D18*
X177032000Y-118364000D03*
X163830000Y-114808000D03*
X163830000Y-116458998D03*
X170434000Y-102108000D03*
X176022000Y-96012000D03*
X192250000Y-125500000D03*
X108500000Y-135250000D03*
X105750000Y-131500000D03*
X105750000Y-128750000D03*
X120750000Y-123000000D03*
X144750000Y-103500000D03*
X169050000Y-91100000D03*
X115000000Y-109750000D03*
X166250000Y-124750000D03*
X161500000Y-125750000D03*
X147750000Y-117000000D03*
X153800000Y-123200000D03*
X127800000Y-99400000D03*
X138200000Y-101200000D03*
X153600000Y-100200000D03*
X157400000Y-100200000D03*
X105600000Y-124400000D03*
X149987000Y-113347500D03*
X163830000Y-112522000D03*
X167640000Y-103632000D03*
X193500000Y-116500000D03*
X189500000Y-116500000D03*
X184750000Y-125500000D03*
X196500000Y-131750000D03*
X113500000Y-135250000D03*
X116500000Y-128750000D03*
X116500000Y-123750000D03*
X141500000Y-102000000D03*
X156800000Y-91100000D03*
X161300000Y-91100000D03*
X115000000Y-107000000D03*
X158500000Y-124500000D03*
X150250000Y-123000000D03*
X156000000Y-123200004D03*
X141200000Y-116600000D03*
X122400000Y-115200000D03*
X134600000Y-101200000D03*
X155600000Y-100200000D03*
X162000000Y-106000000D03*
X141800000Y-104800000D03*
X131191000Y-114617500D03*
X104965500Y-90932000D03*
X195643500Y-141668500D03*
X159400000Y-94800000D03*
X159400000Y-113799994D03*
X160600000Y-94000000D03*
X160600000Y-117200000D03*
X114000000Y-119000000D03*
X125928000Y-134310000D03*
X128524000Y-135636000D03*
X122428000Y-135636000D03*
X133858000Y-119380000D03*
X135128000Y-104394000D03*
X126746000Y-105854500D03*
X127889000Y-97091500D03*
X143400000Y-130800000D03*
X166600000Y-130800000D03*
X137922000Y-113030000D03*
X137922000Y-119380000D03*
X140970000Y-128778000D03*
X169163906Y-128778000D03*
X131064000Y-110807500D03*
X137795000Y-109029500D03*
X122200000Y-142200000D03*
X126000000Y-142200000D03*
X120199994Y-136652000D03*
X127200000Y-136597998D03*
X124714000Y-108712000D03*
X125730000Y-104902000D03*
X127698500Y-103949500D03*
X139446000Y-113792000D03*
X138938000Y-117602000D03*
X142240000Y-129794000D03*
X165354000Y-129793994D03*
X129984500Y-112077500D03*
X135500500Y-109529000D03*
X147637500Y-108902500D03*
X120200000Y-106400000D03*
X161800000Y-115599996D03*
X172000000Y-107000000D03*
X194800000Y-92600000D03*
X163400000Y-107200000D03*
X161400000Y-111399996D03*
X161400000Y-113000000D03*
X149600000Y-116800000D03*
X182000000Y-120200000D03*
X150000000Y-115400000D03*
X184398000Y-116198000D03*
X163449000Y-94361000D03*
X121793000Y-104457500D03*
X143764000Y-122936000D03*
X139128500Y-122555000D03*
X112800000Y-114800000D03*
X112200000Y-128200000D03*
X113000000Y-105800000D03*
X109600000Y-123600000D03*
X147200000Y-99200000D03*
X145542000Y-93980000D03*
X145200000Y-99200000D03*
X144193500Y-94600000D03*
X135800000Y-108200000D03*
X140800000Y-107800000D03*
X135800000Y-106800000D03*
X140800000Y-106600000D03*
D19*
X104965500Y-90932000D02*
X144018000Y-90932000D01*
X144018000Y-90932000D02*
X145351500Y-89598500D01*
X168084500Y-89598500D02*
X168148000Y-89662000D01*
X145351500Y-89598500D02*
X168084500Y-89598500D01*
X168148000Y-89662000D02*
X195326000Y-89662000D01*
X195326000Y-89662000D02*
X197104000Y-91440000D01*
X197104000Y-91440000D02*
X197104000Y-126746000D01*
X195643500Y-128206500D02*
X195643500Y-141668500D01*
X197104000Y-126746000D02*
X195643500Y-128206500D01*
X159400000Y-94800000D02*
X159400000Y-113799994D01*
X160600000Y-94000000D02*
X160600000Y-117200000D01*
X125928000Y-134310000D02*
X115514000Y-134310000D01*
X114000000Y-132796000D02*
X114000000Y-119000000D01*
X115514000Y-134310000D02*
X114000000Y-132796000D01*
X128524000Y-135636000D02*
X122428000Y-135636000D01*
X133858000Y-119380000D02*
X133858000Y-106426000D01*
X133858000Y-106426000D02*
X133858000Y-106172000D01*
X135128000Y-104902000D02*
X135128000Y-104394000D01*
X133858000Y-106172000D02*
X135128000Y-104902000D01*
X131572000Y-133096000D02*
X126746000Y-128270000D01*
X131572000Y-135636000D02*
X131572000Y-133096000D01*
X126746000Y-128270000D02*
X126746000Y-105854500D01*
X133604000Y-137668000D02*
X131572000Y-135636000D01*
X157988000Y-137668000D02*
X133604000Y-137668000D01*
X158948000Y-138628000D02*
X157988000Y-137668000D01*
X158948000Y-139708000D02*
X158948000Y-138628000D01*
X129095500Y-98298000D02*
X127889000Y-97091500D01*
X129095500Y-101155500D02*
X129095500Y-98298000D01*
X128778000Y-127190500D02*
X128778000Y-101473000D01*
X133477000Y-131889500D02*
X128778000Y-127190500D01*
X133477000Y-134874000D02*
X133477000Y-131889500D01*
X134493000Y-135890000D02*
X133477000Y-134874000D01*
X128778000Y-101473000D02*
X129095500Y-101155500D01*
X161488000Y-137548500D02*
X159829500Y-135890000D01*
X161488000Y-139708000D02*
X161488000Y-137548500D01*
X138112500Y-135890000D02*
X134683500Y-135890000D01*
X134683500Y-135890000D02*
X134493000Y-135890000D01*
X136461500Y-135890000D02*
X134683500Y-135890000D01*
X159829500Y-135890000D02*
X138112500Y-135890000D01*
X143400000Y-130800000D02*
X166600000Y-130800000D01*
X137922000Y-113030000D02*
X137922000Y-119380000D01*
X140970000Y-128778000D02*
X169163906Y-128778000D01*
X132715000Y-112458500D02*
X131064000Y-110807500D01*
X132715000Y-127889000D02*
X132715000Y-112458500D01*
X135890000Y-131064000D02*
X132715000Y-127889000D01*
X135890000Y-133731000D02*
X135890000Y-131064000D01*
X136525000Y-134366000D02*
X135890000Y-133731000D01*
X167449500Y-134366000D02*
X136525000Y-134366000D01*
X171648000Y-138564500D02*
X167449500Y-134366000D01*
X171648000Y-139708000D02*
X171648000Y-138564500D01*
X174188000Y-139708000D02*
X174188000Y-138374000D01*
X174188000Y-138374000D02*
X168656000Y-132842000D01*
X168656000Y-132842000D02*
X140843000Y-132842000D01*
X140843000Y-132842000D02*
X136652000Y-128651000D01*
X136652000Y-110172500D02*
X137795000Y-109029500D01*
X136652000Y-128651000D02*
X136652000Y-110172500D01*
X122200000Y-142200000D02*
X126000000Y-142200000D01*
X120199994Y-136652000D02*
X127145998Y-136652000D01*
X127145998Y-136652000D02*
X127200000Y-136597998D01*
X156408000Y-144788000D02*
X156408000Y-143454000D01*
X156408000Y-143454000D02*
X155702000Y-142748000D01*
X155702000Y-142748000D02*
X130556000Y-142748000D01*
X130556000Y-142748000D02*
X129794000Y-141986000D01*
X129794000Y-134620000D02*
X129794000Y-134112000D01*
X129794000Y-141986000D02*
X129794000Y-134620000D01*
X124714000Y-129032000D02*
X124714000Y-108712000D01*
X129794000Y-134112000D02*
X124714000Y-129032000D01*
X132088001Y-137676001D02*
X130810000Y-136398000D01*
X130810000Y-136398000D02*
X130810000Y-133858000D01*
X132088001Y-141232001D02*
X132088001Y-137676001D01*
X132842000Y-141986000D02*
X132088001Y-141232001D01*
X125730000Y-128778000D02*
X125730000Y-104902000D01*
X158115000Y-141986000D02*
X132842000Y-141986000D01*
X158940500Y-142811500D02*
X158115000Y-141986000D01*
X158940500Y-144780500D02*
X158940500Y-142811500D01*
X130810000Y-133858000D02*
X125730000Y-128778000D01*
X158948000Y-144788000D02*
X158940500Y-144780500D01*
X127698500Y-127762000D02*
X127698500Y-103949500D01*
X132334000Y-132397500D02*
X127698500Y-127762000D01*
X132334000Y-134937500D02*
X132334000Y-132397500D01*
X134048500Y-136652000D02*
X132334000Y-134937500D01*
X160274000Y-137985500D02*
X158940500Y-136652000D01*
X158940500Y-136652000D02*
X134048500Y-136652000D01*
X160274000Y-141732000D02*
X160274000Y-137985500D01*
X161488000Y-142946000D02*
X160274000Y-141732000D01*
X161488000Y-144788000D02*
X161488000Y-142946000D01*
X139446000Y-117094000D02*
X138938000Y-117602000D01*
X139446000Y-113792000D02*
X139446000Y-117094000D01*
X142240000Y-129794000D02*
X165100000Y-129794000D01*
X165100000Y-129794000D02*
X165353994Y-129794000D01*
X165353994Y-129794000D02*
X165354000Y-129793994D01*
X134524750Y-131159250D02*
X129984500Y-126619000D01*
X134524750Y-134143750D02*
X134524750Y-131159250D01*
X135509000Y-135128000D02*
X134524750Y-134143750D01*
X160909000Y-135128000D02*
X135509000Y-135128000D01*
X129984500Y-126619000D02*
X129984500Y-112077500D01*
X162814000Y-141224000D02*
X162814000Y-137033000D01*
X163703000Y-142113000D02*
X162814000Y-141224000D01*
X168021000Y-142113000D02*
X163703000Y-142113000D01*
X169108000Y-143200000D02*
X168021000Y-142113000D01*
X162814000Y-137033000D02*
X160909000Y-135128000D01*
X169108000Y-144788000D02*
X169108000Y-143200000D01*
X135509000Y-109537500D02*
X135500500Y-109529000D01*
X135509000Y-128968500D02*
X135509000Y-109537500D01*
X140144500Y-133604000D02*
X135509000Y-128968500D01*
X168148000Y-133604000D02*
X140144500Y-133604000D01*
X172910500Y-138366500D02*
X168148000Y-133604000D01*
X172910500Y-141478000D02*
X172910500Y-138366500D01*
X171648000Y-142740500D02*
X172910500Y-141478000D01*
X171648000Y-144788000D02*
X171648000Y-142740500D01*
X174188000Y-144788000D02*
X174188000Y-143248500D01*
X174188000Y-143248500D02*
X175450500Y-141986000D01*
X175450500Y-141986000D02*
X175450500Y-138049000D01*
X175450500Y-138049000D02*
X169291000Y-131889500D01*
X169291000Y-131889500D02*
X141541500Y-131889500D01*
X141541500Y-131889500D02*
X138430000Y-128778000D01*
X138430000Y-124841000D02*
X138430000Y-124396500D01*
X138430000Y-128778000D02*
X138430000Y-124841000D01*
X138430000Y-124841000D02*
X138430000Y-124523500D01*
X138430000Y-124396500D02*
X138176000Y-124142500D01*
X138176000Y-124142500D02*
X138176000Y-122047000D01*
X147637500Y-112585500D02*
X147637500Y-108902500D01*
X138176000Y-122047000D02*
X147637500Y-112585500D01*
X109809000Y-105791000D02*
X108458000Y-105791000D01*
X111000000Y-104600000D02*
X109809000Y-105791000D01*
X114000000Y-104600000D02*
X111000000Y-104600000D01*
X115800000Y-106400000D02*
X114000000Y-104600000D01*
X120200000Y-106400000D02*
X115800000Y-106400000D01*
X175800004Y-115599996D02*
X161800000Y-115599996D01*
X192278000Y-108712000D02*
X192278000Y-113722000D01*
X192278000Y-113722000D02*
X190800000Y-115200000D01*
X190800000Y-115200000D02*
X176200000Y-115200000D01*
X176200000Y-115200000D02*
X175800004Y-115599996D01*
X194800000Y-100140000D02*
X193798000Y-101142000D01*
X194800000Y-92600000D02*
X194800000Y-100140000D01*
X165400000Y-107000000D02*
X170200000Y-107000000D01*
X170200000Y-107000000D02*
X172000000Y-107000000D01*
X165200000Y-107200000D02*
X165400000Y-107000000D01*
X163400000Y-107200000D02*
X165200000Y-107200000D01*
X171640004Y-111399996D02*
X161400000Y-111399996D01*
X176220000Y-106820000D02*
X176220000Y-104580000D01*
X176220000Y-106820000D02*
X171640004Y-111399996D01*
X177778000Y-103022000D02*
X180018000Y-103022000D01*
X176220000Y-104580000D02*
X177778000Y-103022000D01*
X162800000Y-113600000D02*
X172800000Y-113600000D01*
X162200000Y-113000000D02*
X162800000Y-113600000D01*
X161400000Y-113000000D02*
X162200000Y-113000000D01*
X175600000Y-110800000D02*
X179600000Y-110800000D01*
X172800000Y-113600000D02*
X175600000Y-110800000D01*
X179600000Y-110800000D02*
X180200000Y-111400000D01*
X180200000Y-111400000D02*
X183800000Y-111400000D01*
X183800000Y-111400000D02*
X184800000Y-110400000D01*
X184800000Y-110400000D02*
X184800000Y-107000000D01*
X184632000Y-106832000D02*
X182558000Y-106832000D01*
X184800000Y-107000000D02*
X184632000Y-106832000D01*
X154200000Y-116800000D02*
X149600000Y-116800000D01*
X156400000Y-119000000D02*
X154200000Y-116800000D01*
X175400000Y-119000000D02*
X156400000Y-119000000D01*
X176600000Y-120200000D02*
X175400000Y-119000000D01*
X182000000Y-120200000D02*
X176600000Y-120200000D01*
X176602000Y-116198000D02*
X184398000Y-116198000D01*
X174800000Y-118000000D02*
X176602000Y-116198000D01*
X156400000Y-118000000D02*
X174800000Y-118000000D01*
X154600000Y-116200000D02*
X156400000Y-118000000D01*
X152400000Y-116200000D02*
X154600000Y-116200000D01*
X151600000Y-115400000D02*
X152400000Y-116200000D01*
X150000000Y-115400000D02*
X151600000Y-115400000D01*
X163449000Y-94361000D02*
X162814000Y-94361000D01*
X162814000Y-94361000D02*
X161353500Y-92900500D01*
X161353500Y-92900500D02*
X122999500Y-92900500D01*
X121793000Y-94107000D02*
X121793000Y-104457500D01*
X122999500Y-92900500D02*
X121793000Y-94107000D01*
X143383000Y-122555000D02*
X143764000Y-122936000D01*
X139128500Y-122555000D02*
X143383000Y-122555000D01*
X112200000Y-115400000D02*
X112200000Y-128200000D01*
X112800000Y-114800000D02*
X112200000Y-115400000D01*
X113000000Y-105800000D02*
X112600000Y-106200000D01*
X112600000Y-106200000D02*
X112600000Y-113200000D01*
X112600000Y-113200000D02*
X109600000Y-116200000D01*
X109600000Y-116200000D02*
X109600000Y-123600000D01*
X147200000Y-97338500D02*
X147200000Y-95511000D01*
X147200000Y-97338500D02*
X147200000Y-99200000D01*
X145669000Y-93980000D02*
X145542000Y-93980000D01*
X147200000Y-95511000D02*
X145669000Y-93980000D01*
X145200000Y-95606500D02*
X144193500Y-94600000D01*
X145200000Y-96036500D02*
X145200000Y-95606500D01*
X145200000Y-96036500D02*
X145200000Y-99200000D01*
X135800000Y-108200000D02*
X136200000Y-107800000D01*
X136200000Y-107800000D02*
X140800000Y-107800000D01*
X135800000Y-106800000D02*
X140400000Y-106800000D01*
X140600000Y-106800000D02*
X140800000Y-106600000D01*
X140400000Y-106800000D02*
X140600000Y-106800000D01*
M02*
