M48
; DRILL file {KiCad 8.0.2} date 2024-06-03T14:24:19+0100
; FORMAT={-:-/ absolute / metric / decimal}
; #@! TF.CreationDate,2024-06-03T14:24:19+01:00
; #@! TF.GenerationSoftware,Kicad,Pcbnew,8.0.2
; #@! TF.FileFunction,Plated,1,4,PTH
FMAT,2
METRIC
; #@! TA.AperFunction,Plated,PTH,ViaDrill
T1C0.200
; #@! TA.AperFunction,Plated,PTH,ViaDrill
T2C0.400
; #@! TA.AperFunction,Plated,PTH,ComponentDrill
T3C1.000
; #@! TA.AperFunction,Plated,PTH,ComponentDrill
T4C3.200
%
G90
G05
T1
X140.9Y-88.315
X141.0Y-85.315
X141.4Y-81.815
X142.1Y-94.3
X145.8Y-108.6
X147.3Y-107.7
X149.3Y-108.2
X149.8Y-86.0
X149.8Y-101.5
X149.9Y-108.6
X150.7Y-94.2
X150.7Y-96.2
X150.8Y-92.2
X150.8Y-98.5
X151.4Y-88.9
X152.1Y-99.6
X152.6Y-89.7
X152.6Y-90.7
X152.7Y-94.6
X152.8Y-88.9
X152.8Y-97.6
X153.1Y-86.8
X153.1Y-99.9
X153.3Y-95.0
X153.4Y-92.5
X153.7Y-97.6
X153.8Y-94.5
X154.4Y-89.9
X154.7Y-91.7
X154.7Y-97.7
X154.8Y-92.9
X155.1Y-99.8
X155.4Y-95.9
X155.7Y-89.6
X155.8Y-93.5
X155.8Y-97.9
X156.1Y-86.8
X156.4Y-92.5
X156.4Y-93.9
X156.4Y-94.9
X156.8Y-90.9
X156.8Y-92.9
X156.8Y-95.5
X157.1Y-99.9
X157.4Y-91.9
X157.4Y-94.5
X157.4Y-96.9
X157.6Y-97.7
X157.8Y-90.5
X157.8Y-92.9
X157.8Y-95.5
X158.1Y-87.6
X158.4Y-92.5
X158.4Y-93.9
X158.4Y-96.5
X158.8Y-91.9
X158.8Y-93.5
X158.8Y-94.9
X158.8Y-97.9
X159.1Y-99.8
X159.4Y-89.5
X159.4Y-94.5
X159.8Y-87.5
X159.8Y-91.5
X161.4Y-92.9
X161.8Y-87.5
X161.8Y-88.9
X162.1Y-99.8
X162.3Y-98.6
X162.4Y-92.5
X162.4Y-94.9
X162.9Y-90.0
X163.5Y-88.3
X163.5Y-99.0
X163.7Y-89.2
X163.7Y-94.2
X163.8Y-91.9
X163.8Y-96.5
X165.5Y-101.6
X165.6Y-86.2
X168.0Y-86.1
X169.8Y-79.1
X170.3Y-78.3
X170.7Y-104.4
X172.7Y-81.815
T2
X102.7Y-103.3
X103.3Y-122.2
X104.99Y-135.59
X105.944Y-108.827
X106.3Y-140.8
X106.5Y-113.7
X106.5Y-116.6
X106.544Y-106.327
X107.05Y-130.75
X107.9Y-118.7
X108.844Y-111.827
X111.144Y-113.727
X111.144Y-116.927
X111.34Y-130.44
X111.444Y-108.827
X111.644Y-105.227
X112.0Y-121.1
X112.744Y-78.027
X112.744Y-79.527
X112.744Y-82.427
X113.8Y-93.4
X115.644Y-66.827
X116.244Y-62.927
X116.244Y-64.327
X116.444Y-109.827
X118.9Y-129.9
X119.0Y-132.7
X120.25Y-123.2
X122.15Y-109.3
X123.2Y-122.2
X124.3Y-129.9
X124.4Y-121.1
X125.5Y-132.4
X126.0Y-108.0
X127.95Y-112.95
X128.9Y-109.55
X130.2Y-117.7
X130.4Y-115.75
X131.2Y-129.8
X131.3Y-132.4
X131.95Y-112.5
X132.044Y-78.527
X132.044Y-80.127
X133.15Y-109.65
X134.1Y-123.15
X135.15Y-109.75
X136.344Y-62.727
X136.344Y-64.127
X136.4Y-117.6
X136.625Y-113.475
X137.9Y-132.4
X138.0Y-129.8
X141.2Y-116.05
X141.6Y-76.7
X142.4Y-114.75
X143.244Y-75.0
X143.45Y-129.8
X143.5Y-132.4
X144.444Y-70.327
X144.75Y-114.4
X147.8Y-114.4
X148.8Y-130.1
X150.1Y-132.4
X155.0Y-132.4
X155.1Y-129.9
X157.2Y-74.1
X160.9Y-130.0
X161.9Y-132.3
X163.95Y-124.55
X165.3Y-135.9
X166.8Y-129.8
X167.0Y-132.5
X173.4Y-129.9
X173.7Y-132.5
X178.1Y-135.9
X178.744Y-80.527
X179.344Y-95.727
X179.8Y-132.5
X180.344Y-89.527
X180.5Y-129.9
X181.844Y-90.027
X181.844Y-93.427
X182.6Y-110.6
X182.744Y-80.627
X183.694Y-91.677
X185.444Y-90.427
X185.444Y-92.027
X186.3Y-132.0
X186.9Y-129.8
X186.944Y-80.927
X188.4Y-119.5
X188.844Y-94.827
X189.7Y-110.6
X190.625Y-131.775
X191.3Y-101.9
X193.6Y-133.6
X197.2Y-111.7
X197.35Y-122.0
T3
X110.236Y-139.7
X110.236Y-144.78
X112.776Y-139.7
X112.776Y-144.78
X115.316Y-139.7
X115.316Y-144.78
X117.856Y-139.7
X117.856Y-144.78
X120.396Y-139.7
X120.396Y-144.78
X122.936Y-139.7
X122.936Y-144.78
X125.476Y-139.7
X125.476Y-144.78
X128.016Y-139.7
X128.016Y-144.78
X130.556Y-139.7
X130.556Y-144.78
X133.096Y-139.7
X133.096Y-144.78
X135.636Y-139.7
X135.636Y-144.78
X138.176Y-139.7
X138.176Y-144.78
X140.716Y-139.7
X140.716Y-144.78
X143.256Y-139.7
X143.256Y-144.78
X145.796Y-139.7
X145.796Y-144.78
X148.336Y-139.7
X148.336Y-144.78
X150.876Y-139.7
X150.876Y-144.78
X153.416Y-139.7
X153.416Y-144.78
X155.956Y-139.7
X155.956Y-144.78
X158.496Y-139.7
X158.496Y-144.78
X161.036Y-139.7
X161.036Y-144.78
X163.576Y-139.7
X163.576Y-144.78
X166.116Y-139.7
X166.116Y-144.78
X168.656Y-139.7
X168.656Y-144.78
X171.196Y-139.7
X171.196Y-144.78
X173.544Y-71.727
X173.736Y-139.7
X173.736Y-144.78
X176.084Y-71.727
X176.276Y-139.7
X176.276Y-144.78
X178.624Y-71.727
X178.816Y-139.7
X178.816Y-144.78
X181.164Y-71.727
X181.356Y-139.7
X181.356Y-144.78
X183.704Y-71.727
X183.896Y-139.7
X183.896Y-144.78
X186.244Y-71.727
X186.436Y-139.7
X186.436Y-144.78
X188.976Y-139.7
X188.976Y-144.78
X192.42Y-88.445
X192.42Y-90.735
X192.42Y-93.025
X192.42Y-95.315
X192.42Y-97.605
X194.4Y-87.3
X194.4Y-89.59
X194.4Y-91.88
X194.4Y-94.17
X194.4Y-96.46
X196.38Y-88.445
X196.38Y-90.735
X196.38Y-93.025
X196.38Y-95.315
X196.38Y-97.605
T4
X194.47Y-80.26
X194.47Y-105.26
M30
