%TF.GenerationSoftware,KiCad,Pcbnew,8.0.2*%
%TF.CreationDate,2024-06-03T14:24:13+01:00*%
%TF.ProjectId,GfxFPGAV2,47667846-5047-4415-9632-2e6b69636164,rev?*%
%TF.SameCoordinates,Original*%
%TF.FileFunction,Soldermask,Top*%
%TF.FilePolarity,Negative*%
%FSLAX46Y46*%
G04 Gerber Fmt 4.6, Leading zero omitted, Abs format (unit mm)*
G04 Created by KiCad (PCBNEW 8.0.2) date 2024-06-03 14:24:13*
%MOMM*%
%LPD*%
G01*
G04 APERTURE LIST*
G04 Aperture macros list*
%AMRoundRect*
0 Rectangle with rounded corners*
0 $1 Rounding radius*
0 $2 $3 $4 $5 $6 $7 $8 $9 X,Y pos of 4 corners*
0 Add a 4 corners polygon primitive as box body*
4,1,4,$2,$3,$4,$5,$6,$7,$8,$9,$2,$3,0*
0 Add four circle primitives for the rounded corners*
1,1,$1+$1,$2,$3*
1,1,$1+$1,$4,$5*
1,1,$1+$1,$6,$7*
1,1,$1+$1,$8,$9*
0 Add four rect primitives between the rounded corners*
20,1,$1+$1,$2,$3,$4,$5,0*
20,1,$1+$1,$4,$5,$6,$7,0*
20,1,$1+$1,$6,$7,$8,$9,0*
20,1,$1+$1,$8,$9,$2,$3,0*%
G04 Aperture macros list end*
%ADD10RoundRect,0.250000X0.250000X0.475000X-0.250000X0.475000X-0.250000X-0.475000X0.250000X-0.475000X0*%
%ADD11RoundRect,0.250000X-0.250000X-0.475000X0.250000X-0.475000X0.250000X0.475000X-0.250000X0.475000X0*%
%ADD12RoundRect,0.250000X-0.550000X1.050000X-0.550000X-1.050000X0.550000X-1.050000X0.550000X1.050000X0*%
%ADD13C,2.850000*%
%ADD14RoundRect,0.249999X0.525001X0.525001X-0.525001X0.525001X-0.525001X-0.525001X0.525001X-0.525001X0*%
%ADD15C,1.550000*%
%ADD16C,4.000000*%
%ADD17R,1.600000X1.600000*%
%ADD18C,1.600000*%
%ADD19RoundRect,0.250000X-0.262500X-0.450000X0.262500X-0.450000X0.262500X0.450000X-0.262500X0.450000X0*%
%ADD20RoundRect,0.150000X0.150000X-0.825000X0.150000X0.825000X-0.150000X0.825000X-0.150000X-0.825000X0*%
%ADD21R,1.500000X2.000000*%
%ADD22R,3.800000X2.000000*%
%ADD23R,1.610000X0.580000*%
%ADD24R,1.475000X0.300000*%
%ADD25R,0.300000X1.475000*%
%ADD26R,0.410000X1.570000*%
%ADD27R,1.300000X0.300000*%
%ADD28R,1.400000X1.200000*%
%ADD29RoundRect,0.250000X-1.050000X-0.550000X1.050000X-0.550000X1.050000X0.550000X-1.050000X0.550000X0*%
%ADD30RoundRect,0.250000X0.375000X0.625000X-0.375000X0.625000X-0.375000X-0.625000X0.375000X-0.625000X0*%
%ADD31R,1.700000X1.700000*%
%ADD32O,1.700000X1.700000*%
%ADD33RoundRect,0.250000X0.450000X-0.262500X0.450000X0.262500X-0.450000X0.262500X-0.450000X-0.262500X0*%
%ADD34C,0.500000*%
G04 APERTURE END LIST*
D10*
%TO.C,C101*%
X111094000Y-118727000D03*
X109194000Y-118727000D03*
%TD*%
D11*
%TO.C,C102*%
X104450000Y-139600000D03*
X106350000Y-139600000D03*
%TD*%
%TO.C,C104*%
X104700000Y-125400000D03*
X106600000Y-125400000D03*
%TD*%
D12*
%TO.C,C105*%
X116444000Y-104527000D03*
X116444000Y-108127000D03*
%TD*%
D11*
%TO.C,C501*%
X186944000Y-79027000D03*
X188844000Y-79027000D03*
%TD*%
%TO.C,C502*%
X186944000Y-82827000D03*
X188844000Y-82827000D03*
%TD*%
D13*
%TO.C,J101*%
X194056000Y-147320000D03*
X105156000Y-147320000D03*
D14*
X188976000Y-144780000D03*
D15*
X186436000Y-144780000D03*
X183896000Y-144780000D03*
X181356000Y-144780000D03*
X178816000Y-144780000D03*
X176276000Y-144780000D03*
X173736000Y-144780000D03*
X171196000Y-144780000D03*
X168656000Y-144780000D03*
X166116000Y-144780000D03*
X163576000Y-144780000D03*
X161036000Y-144780000D03*
X158496000Y-144780000D03*
X155956000Y-144780000D03*
X153416000Y-144780000D03*
X150876000Y-144780000D03*
X148336000Y-144780000D03*
X145796000Y-144780000D03*
X143256000Y-144780000D03*
X140716000Y-144780000D03*
X138176000Y-144780000D03*
X135636000Y-144780000D03*
X133096000Y-144780000D03*
X130556000Y-144780000D03*
X128016000Y-144780000D03*
X125476000Y-144780000D03*
X122936000Y-144780000D03*
X120396000Y-144780000D03*
X117856000Y-144780000D03*
X115316000Y-144780000D03*
X112776000Y-144780000D03*
X110236000Y-144780000D03*
X188976000Y-139700000D03*
X186436000Y-139700000D03*
X183896000Y-139700000D03*
X181356000Y-139700000D03*
X178816000Y-139700000D03*
X176276000Y-139700000D03*
X173736000Y-139700000D03*
X171196000Y-139700000D03*
X168656000Y-139700000D03*
X166116000Y-139700000D03*
X163576000Y-139700000D03*
X161036000Y-139700000D03*
X158496000Y-139700000D03*
X155956000Y-139700000D03*
X153416000Y-139700000D03*
X150876000Y-139700000D03*
X148336000Y-139700000D03*
X145796000Y-139700000D03*
X143256000Y-139700000D03*
X140716000Y-139700000D03*
X138176000Y-139700000D03*
X135636000Y-139700000D03*
X133096000Y-139700000D03*
X130556000Y-139700000D03*
X128016000Y-139700000D03*
X125476000Y-139700000D03*
X122936000Y-139700000D03*
X120396000Y-139700000D03*
X117856000Y-139700000D03*
X115316000Y-139700000D03*
X112776000Y-139700000D03*
X110236000Y-139700000D03*
%TD*%
D16*
%TO.C,J501*%
X194470000Y-105260000D03*
X194470000Y-80260000D03*
D17*
X192420000Y-88445000D03*
D18*
X192420000Y-90735000D03*
X192420000Y-93025000D03*
X192420000Y-95315000D03*
X192420000Y-97605000D03*
X194400000Y-87300000D03*
X194400000Y-89590000D03*
X194400000Y-91880000D03*
X194400000Y-94170000D03*
X194400000Y-96460000D03*
X196380000Y-88445000D03*
X196380000Y-90735000D03*
X196380000Y-93025000D03*
X196380000Y-95315000D03*
X196380000Y-97605000D03*
%TD*%
D19*
%TO.C,R101*%
X104681500Y-105327000D03*
X106506500Y-105327000D03*
%TD*%
%TO.C,R501*%
X182719000Y-79027000D03*
X184544000Y-79027000D03*
%TD*%
%TO.C,R502*%
X178756500Y-79027000D03*
X180581500Y-79027000D03*
%TD*%
%TO.C,R503*%
X186544000Y-104027000D03*
X188369000Y-104027000D03*
%TD*%
%TO.C,R504*%
X186544000Y-100627000D03*
X188369000Y-100627000D03*
%TD*%
D20*
%TO.C,U101*%
X104990000Y-133475000D03*
X106260000Y-133475000D03*
X107530000Y-133475000D03*
X108800000Y-133475000D03*
X110070000Y-133475000D03*
X111340000Y-133475000D03*
X112610000Y-133475000D03*
X112610000Y-128525000D03*
X111340000Y-128525000D03*
X110070000Y-128525000D03*
X108800000Y-128525000D03*
X107530000Y-128525000D03*
X106260000Y-128525000D03*
X104990000Y-128525000D03*
%TD*%
D21*
%TO.C,U102*%
X106544000Y-115127000D03*
X108844000Y-115127000D03*
D22*
X108844000Y-108827000D03*
D21*
X111144000Y-115127000D03*
%TD*%
D23*
%TO.C,U302*%
X131960000Y-113490000D03*
X131960000Y-114760000D03*
X131960000Y-116030000D03*
X131960000Y-117300000D03*
X139170000Y-117300000D03*
X139170000Y-116030000D03*
X139170000Y-114760000D03*
X139170000Y-113490000D03*
%TD*%
D24*
%TO.C,U501*%
X178844000Y-89075000D03*
X178844000Y-89575000D03*
X178844000Y-90075000D03*
X178844000Y-90575000D03*
X178844000Y-91075000D03*
X178844000Y-91575000D03*
X178844000Y-92075000D03*
X178844000Y-92575000D03*
X178844000Y-93075000D03*
X178844000Y-93575000D03*
X178844000Y-94075000D03*
X178844000Y-94575000D03*
D25*
X180332000Y-96063000D03*
X180832000Y-96063000D03*
X181332000Y-96063000D03*
X181832000Y-96063000D03*
X182332000Y-96063000D03*
X182832000Y-96063000D03*
X183332000Y-96063000D03*
X183832000Y-96063000D03*
X184332000Y-96063000D03*
X184832000Y-96063000D03*
X185332000Y-96063000D03*
X185832000Y-96063000D03*
D24*
X187320000Y-94575000D03*
X187320000Y-94075000D03*
X187320000Y-93575000D03*
X187320000Y-93075000D03*
X187320000Y-92575000D03*
X187320000Y-92075000D03*
X187320000Y-91575000D03*
X187320000Y-91075000D03*
X187320000Y-90575000D03*
X187320000Y-90075000D03*
X187320000Y-89575000D03*
X187320000Y-89075000D03*
D25*
X185832000Y-87587000D03*
X185332000Y-87587000D03*
X184832000Y-87587000D03*
X184332000Y-87587000D03*
X183832000Y-87587000D03*
X183332000Y-87587000D03*
X182832000Y-87587000D03*
X182332000Y-87587000D03*
X181832000Y-87587000D03*
X181332000Y-87587000D03*
X180832000Y-87587000D03*
X180332000Y-87587000D03*
%TD*%
D26*
%TO.C,U201*%
X154825000Y-133870000D03*
X155475000Y-133870000D03*
X156125000Y-133870000D03*
X156775000Y-133870000D03*
X157425000Y-133870000D03*
X158075000Y-133870000D03*
X158725000Y-133870000D03*
X159375000Y-133870000D03*
X160025000Y-133870000D03*
X160675000Y-133870000D03*
X161325000Y-133870000D03*
X161975000Y-133870000D03*
X161975000Y-128130000D03*
X161325000Y-128130000D03*
X160675000Y-128130000D03*
X160025000Y-128130000D03*
X159375000Y-128130000D03*
X158725000Y-128130000D03*
X158075000Y-128130000D03*
X157425000Y-128130000D03*
X156775000Y-128130000D03*
X156125000Y-128130000D03*
X155475000Y-128130000D03*
X154825000Y-128130000D03*
%TD*%
%TO.C,U202*%
X143225000Y-133870000D03*
X143875000Y-133870000D03*
X144525000Y-133870000D03*
X145175000Y-133870000D03*
X145825000Y-133870000D03*
X146475000Y-133870000D03*
X147125000Y-133870000D03*
X147775000Y-133870000D03*
X148425000Y-133870000D03*
X149075000Y-133870000D03*
X149725000Y-133870000D03*
X150375000Y-133870000D03*
X150375000Y-128130000D03*
X149725000Y-128130000D03*
X149075000Y-128130000D03*
X148425000Y-128130000D03*
X147775000Y-128130000D03*
X147125000Y-128130000D03*
X146475000Y-128130000D03*
X145825000Y-128130000D03*
X145175000Y-128130000D03*
X144525000Y-128130000D03*
X143875000Y-128130000D03*
X143225000Y-128130000D03*
%TD*%
%TO.C,U204*%
X118625000Y-133870000D03*
X119275000Y-133870000D03*
X119925000Y-133870000D03*
X120575000Y-133870000D03*
X121225000Y-133870000D03*
X121875000Y-133870000D03*
X122525000Y-133870000D03*
X123175000Y-133870000D03*
X123825000Y-133870000D03*
X124475000Y-133870000D03*
X125125000Y-133870000D03*
X125775000Y-133870000D03*
X125775000Y-128130000D03*
X125125000Y-128130000D03*
X124475000Y-128130000D03*
X123825000Y-128130000D03*
X123175000Y-128130000D03*
X122525000Y-128130000D03*
X121875000Y-128130000D03*
X121225000Y-128130000D03*
X120575000Y-128130000D03*
X119925000Y-128130000D03*
X119275000Y-128130000D03*
X118625000Y-128130000D03*
%TD*%
%TO.C,U205*%
X179825000Y-133870000D03*
X180475000Y-133870000D03*
X181125000Y-133870000D03*
X181775000Y-133870000D03*
X182425000Y-133870000D03*
X183075000Y-133870000D03*
X183725000Y-133870000D03*
X184375000Y-133870000D03*
X185025000Y-133870000D03*
X185675000Y-133870000D03*
X186325000Y-133870000D03*
X186975000Y-133870000D03*
X186975000Y-128130000D03*
X186325000Y-128130000D03*
X185675000Y-128130000D03*
X185025000Y-128130000D03*
X184375000Y-128130000D03*
X183725000Y-128130000D03*
X183075000Y-128130000D03*
X182425000Y-128130000D03*
X181775000Y-128130000D03*
X181125000Y-128130000D03*
X180475000Y-128130000D03*
X179825000Y-128130000D03*
%TD*%
%TO.C,U206*%
X166960000Y-133870000D03*
X167610000Y-133870000D03*
X168260000Y-133870000D03*
X168910000Y-133870000D03*
X169560000Y-133870000D03*
X170210000Y-133870000D03*
X170860000Y-133870000D03*
X171510000Y-133870000D03*
X172160000Y-133870000D03*
X172810000Y-133870000D03*
X173460000Y-133870000D03*
X174110000Y-133870000D03*
X174110000Y-128130000D03*
X173460000Y-128130000D03*
X172810000Y-128130000D03*
X172160000Y-128130000D03*
X171510000Y-128130000D03*
X170860000Y-128130000D03*
X170210000Y-128130000D03*
X169560000Y-128130000D03*
X168910000Y-128130000D03*
X168260000Y-128130000D03*
X167610000Y-128130000D03*
X166960000Y-128130000D03*
%TD*%
%TO.C,U203*%
X131025000Y-133870000D03*
X131675000Y-133870000D03*
X132325000Y-133870000D03*
X132975000Y-133870000D03*
X133625000Y-133870000D03*
X134275000Y-133870000D03*
X134925000Y-133870000D03*
X135575000Y-133870000D03*
X136225000Y-133870000D03*
X136875000Y-133870000D03*
X137525000Y-133870000D03*
X138175000Y-133870000D03*
X138175000Y-128130000D03*
X137525000Y-128130000D03*
X136875000Y-128130000D03*
X136225000Y-128130000D03*
X135575000Y-128130000D03*
X134925000Y-128130000D03*
X134275000Y-128130000D03*
X133625000Y-128130000D03*
X132975000Y-128130000D03*
X132325000Y-128130000D03*
X131675000Y-128130000D03*
X131025000Y-128130000D03*
%TD*%
D11*
%TO.C,C106*%
X108794000Y-105327000D03*
X110694000Y-105327000D03*
%TD*%
D27*
%TO.C,U402*%
X138594000Y-69277000D03*
X138594000Y-68777000D03*
X138594000Y-68277000D03*
X138594000Y-67777000D03*
X138594000Y-67277000D03*
X138594000Y-66777000D03*
X138594000Y-66277000D03*
X138594000Y-65777000D03*
X138594000Y-65277000D03*
X138594000Y-64777000D03*
X138594000Y-64277000D03*
X138594000Y-63777000D03*
X138594000Y-63277000D03*
X138594000Y-62777000D03*
X138594000Y-62277000D03*
X138594000Y-61777000D03*
X138594000Y-61277000D03*
X138594000Y-60777000D03*
X138594000Y-60277000D03*
X138594000Y-59777000D03*
X138594000Y-59277000D03*
X138594000Y-58777000D03*
X138594000Y-58277000D03*
X138594000Y-57777000D03*
X118894000Y-57777000D03*
X118894000Y-58277000D03*
X118894000Y-58777000D03*
X118894000Y-59277000D03*
X118894000Y-59777000D03*
X118894000Y-60277000D03*
X118894000Y-60777000D03*
X118894000Y-61277000D03*
X118894000Y-61777000D03*
X118894000Y-62277000D03*
X118894000Y-62777000D03*
X118894000Y-63277000D03*
X118894000Y-63777000D03*
X118894000Y-64277000D03*
X118894000Y-64777000D03*
X118894000Y-65277000D03*
X118894000Y-65777000D03*
X118894000Y-66277000D03*
X118894000Y-66777000D03*
X118894000Y-67277000D03*
X118894000Y-67777000D03*
X118894000Y-68277000D03*
X118894000Y-68777000D03*
X118894000Y-69277000D03*
%TD*%
%TO.C,U401*%
X129944000Y-85027000D03*
X129944000Y-84527000D03*
X129944000Y-84027000D03*
X129944000Y-83527000D03*
X129944000Y-83027000D03*
X129944000Y-82527000D03*
X129944000Y-82027000D03*
X129944000Y-81527000D03*
X129944000Y-81027000D03*
X129944000Y-80527000D03*
X129944000Y-80027000D03*
X129944000Y-79527000D03*
X129944000Y-79027000D03*
X129944000Y-78527000D03*
X129944000Y-78027000D03*
X129944000Y-77527000D03*
X129944000Y-77027000D03*
X129944000Y-76527000D03*
X129944000Y-76027000D03*
X129944000Y-75527000D03*
X129944000Y-75027000D03*
X129944000Y-74527000D03*
X129944000Y-74027000D03*
X129944000Y-73527000D03*
X110244000Y-73527000D03*
X110244000Y-74027000D03*
X110244000Y-74527000D03*
X110244000Y-75027000D03*
X110244000Y-75527000D03*
X110244000Y-76027000D03*
X110244000Y-76527000D03*
X110244000Y-77027000D03*
X110244000Y-77527000D03*
X110244000Y-78027000D03*
X110244000Y-78527000D03*
X110244000Y-79027000D03*
X110244000Y-79527000D03*
X110244000Y-80027000D03*
X110244000Y-80527000D03*
X110244000Y-81027000D03*
X110244000Y-81527000D03*
X110244000Y-82027000D03*
X110244000Y-82527000D03*
X110244000Y-83027000D03*
X110244000Y-83527000D03*
X110244000Y-84027000D03*
X110244000Y-84527000D03*
X110244000Y-85027000D03*
%TD*%
D19*
%TO.C,R6*%
X220907500Y-58750000D03*
X222732500Y-58750000D03*
%TD*%
D11*
%TO.C,C305*%
X225300000Y-59020000D03*
X227200000Y-59020000D03*
%TD*%
%TO.C,C303*%
X225300000Y-53000000D03*
X227200000Y-53000000D03*
%TD*%
D28*
%TO.C,Y1*%
X226455000Y-64100000D03*
X228995000Y-64100000D03*
X228995000Y-61900000D03*
X226455000Y-61900000D03*
%TD*%
D11*
%TO.C,C310*%
X229750000Y-59020000D03*
X231650000Y-59020000D03*
%TD*%
%TO.C,C304*%
X225300000Y-56010000D03*
X227200000Y-56010000D03*
%TD*%
%TO.C,C307*%
X229750000Y-49990000D03*
X231650000Y-49990000D03*
%TD*%
D29*
%TO.C,C1*%
X139644000Y-73327000D03*
X143244000Y-73327000D03*
%TD*%
D30*
%TO.C,D2*%
X197200000Y-119500000D03*
X194400000Y-119500000D03*
%TD*%
D31*
%TO.C,J1*%
X173544000Y-71727000D03*
D32*
X176084000Y-71727000D03*
X178624000Y-71727000D03*
X181164000Y-71727000D03*
X183704000Y-71727000D03*
X186244000Y-71727000D03*
%TD*%
D11*
%TO.C,C309*%
X229750000Y-56010000D03*
X231650000Y-56010000D03*
%TD*%
D30*
%TO.C,D1*%
X197200000Y-113500000D03*
X194400000Y-113500000D03*
%TD*%
D10*
%TO.C,C103*%
X117000000Y-125800000D03*
X115100000Y-125800000D03*
%TD*%
D11*
%TO.C,C308*%
X229750000Y-53000000D03*
X231650000Y-53000000D03*
%TD*%
D19*
%TO.C,R12*%
X189575000Y-119500000D03*
X191400000Y-119500000D03*
%TD*%
%TO.C,R5*%
X220907500Y-55800000D03*
X222732500Y-55800000D03*
%TD*%
D11*
%TO.C,C301*%
X225300000Y-46980000D03*
X227200000Y-46980000D03*
%TD*%
%TO.C,C401*%
X236200000Y-46980000D03*
X238100000Y-46980000D03*
%TD*%
D19*
%TO.C,R7*%
X141675000Y-124900000D03*
X143500000Y-124900000D03*
%TD*%
D11*
%TO.C,C306*%
X229750000Y-46980000D03*
X231650000Y-46980000D03*
%TD*%
D19*
%TO.C,R2*%
X189675000Y-113500000D03*
X191500000Y-113500000D03*
%TD*%
%TO.C,R4*%
X220907500Y-52850000D03*
X222732500Y-52850000D03*
%TD*%
D33*
%TO.C,R8*%
X192500000Y-133600000D03*
X192500000Y-131775000D03*
%TD*%
D11*
%TO.C,C302*%
X225300000Y-49990000D03*
X227200000Y-49990000D03*
%TD*%
%TO.C,C402*%
X236200000Y-49990000D03*
X238100000Y-49990000D03*
%TD*%
D19*
%TO.C,R1*%
X220907500Y-46950000D03*
X222732500Y-46950000D03*
%TD*%
D11*
%TO.C,C404*%
X236200000Y-53000000D03*
X238100000Y-53000000D03*
%TD*%
D34*
%TO.C,U2*%
X150100000Y-86200000D03*
X151100000Y-86200000D03*
X152100000Y-86200000D03*
X153100000Y-86200000D03*
X154100000Y-86200000D03*
X155100000Y-86200000D03*
X156100000Y-86200000D03*
X157100000Y-86200000D03*
X158100000Y-86200000D03*
X159100000Y-86200000D03*
X160100000Y-86200000D03*
X161100000Y-86200000D03*
X162100000Y-86200000D03*
X163100000Y-86200000D03*
X164100000Y-86200000D03*
X165100000Y-86200000D03*
X150100000Y-87200000D03*
X151100000Y-87200000D03*
X152100000Y-87200000D03*
X153100000Y-87200000D03*
X154100000Y-87200000D03*
X155100000Y-87200000D03*
X156100000Y-87200000D03*
X157100000Y-87200000D03*
X158100000Y-87200000D03*
X159100000Y-87200000D03*
X160100000Y-87200000D03*
X161100000Y-87200000D03*
X162100000Y-87200000D03*
X163100000Y-87200000D03*
X164100000Y-87200000D03*
X165100000Y-87200000D03*
X150100000Y-88200000D03*
X151100000Y-88200000D03*
X152100000Y-88200000D03*
X153100000Y-88200000D03*
X154100000Y-88200000D03*
X155100000Y-88200000D03*
X156100000Y-88200000D03*
X157100000Y-88200000D03*
X158100000Y-88200000D03*
X159100000Y-88200000D03*
X160100000Y-88200000D03*
X161100000Y-88200000D03*
X162100000Y-88200000D03*
X163100000Y-88200000D03*
X164100000Y-88200000D03*
X165100000Y-88200000D03*
X150100000Y-89200000D03*
X151100000Y-89200000D03*
X152100000Y-89200000D03*
X153100000Y-89200000D03*
X154100000Y-89200000D03*
X155100000Y-89200000D03*
X156100000Y-89200000D03*
X157100000Y-89200000D03*
X158100000Y-89200000D03*
X159100000Y-89200000D03*
X160100000Y-89200000D03*
X161100000Y-89200000D03*
X162100000Y-89200000D03*
X163100000Y-89200000D03*
X164100000Y-89200000D03*
X165100000Y-89200000D03*
X150100000Y-90200000D03*
X151100000Y-90200000D03*
X152100000Y-90200000D03*
X153100000Y-90200000D03*
X154100000Y-90200000D03*
X155100000Y-90200000D03*
X156100000Y-90200000D03*
X157100000Y-90200000D03*
X158100000Y-90200000D03*
X159100000Y-90200000D03*
X160100000Y-90200000D03*
X161100000Y-90200000D03*
X162100000Y-90200000D03*
X163100000Y-90200000D03*
X164100000Y-90200000D03*
X165100000Y-90200000D03*
X150100000Y-91200000D03*
X151100000Y-91200000D03*
X152100000Y-91200000D03*
X153100000Y-91200000D03*
X154100000Y-91200000D03*
X155100000Y-91200000D03*
X156100000Y-91200000D03*
X157100000Y-91200000D03*
X158100000Y-91200000D03*
X159100000Y-91200000D03*
X160100000Y-91200000D03*
X161100000Y-91200000D03*
X162100000Y-91200000D03*
X163100000Y-91200000D03*
X164100000Y-91200000D03*
X165100000Y-91200000D03*
X150100000Y-92200000D03*
X151100000Y-92200000D03*
X152100000Y-92200000D03*
X153100000Y-92200000D03*
X154100000Y-92200000D03*
X155100000Y-92200000D03*
X156100000Y-92200000D03*
X157100000Y-92200000D03*
X158100000Y-92200000D03*
X159100000Y-92200000D03*
X160100000Y-92200000D03*
X161100000Y-92200000D03*
X162100000Y-92200000D03*
X163100000Y-92200000D03*
X164100000Y-92200000D03*
X165100000Y-92200000D03*
X150100000Y-93200000D03*
X151100000Y-93200000D03*
X152100000Y-93200000D03*
X153100000Y-93200000D03*
X154100000Y-93200000D03*
X155100000Y-93200000D03*
X156100000Y-93200000D03*
X157100000Y-93200000D03*
X158100000Y-93200000D03*
X159100000Y-93200000D03*
X160100000Y-93200000D03*
X161100000Y-93200000D03*
X162100000Y-93200000D03*
X163100000Y-93200000D03*
X164100000Y-93200000D03*
X165100000Y-93200000D03*
X150100000Y-94200000D03*
X151100000Y-94200000D03*
X152100000Y-94200000D03*
X153100000Y-94200000D03*
X154100000Y-94200000D03*
X155100000Y-94200000D03*
X156100000Y-94200000D03*
X157100000Y-94200000D03*
X158100000Y-94200000D03*
X159100000Y-94200000D03*
X160100000Y-94200000D03*
X161100000Y-94200000D03*
X162100000Y-94200000D03*
X163100000Y-94200000D03*
X164100000Y-94200000D03*
X165100000Y-94200000D03*
X150100000Y-95200000D03*
X151100000Y-95200000D03*
X152100000Y-95200000D03*
X153100000Y-95200000D03*
X154100000Y-95200000D03*
X155100000Y-95200000D03*
X156100000Y-95200000D03*
X157100000Y-95200000D03*
X158100000Y-95200000D03*
X159100000Y-95200000D03*
X160100000Y-95200000D03*
X161100000Y-95200000D03*
X162100000Y-95200000D03*
X163100000Y-95200000D03*
X164100000Y-95200000D03*
X165100000Y-95200000D03*
X150100000Y-96200000D03*
X151100000Y-96200000D03*
X152100000Y-96200000D03*
X153100000Y-96200000D03*
X154100000Y-96200000D03*
X155100000Y-96200000D03*
X156100000Y-96200000D03*
X157100000Y-96200000D03*
X158100000Y-96200000D03*
X159100000Y-96200000D03*
X160100000Y-96200000D03*
X161100000Y-96200000D03*
X162100000Y-96200000D03*
X163100000Y-96200000D03*
X164100000Y-96200000D03*
X165100000Y-96200000D03*
X150100000Y-97200000D03*
X151100000Y-97200000D03*
X152100000Y-97200000D03*
X153100000Y-97200000D03*
X154100000Y-97200000D03*
X155100000Y-97200000D03*
X156100000Y-97200000D03*
X157100000Y-97200000D03*
X158100000Y-97200000D03*
X159100000Y-97200000D03*
X160100000Y-97200000D03*
X161100000Y-97200000D03*
X162100000Y-97200000D03*
X163100000Y-97200000D03*
X164100000Y-97200000D03*
X165100000Y-97200000D03*
X150100000Y-98200000D03*
X151100000Y-98200000D03*
X152100000Y-98200000D03*
X153100000Y-98200000D03*
X154100000Y-98200000D03*
X155100000Y-98200000D03*
X156100000Y-98200000D03*
X157100000Y-98200000D03*
X158100000Y-98200000D03*
X159100000Y-98200000D03*
X160100000Y-98200000D03*
X161100000Y-98200000D03*
X162100000Y-98200000D03*
X163100000Y-98200000D03*
X164100000Y-98200000D03*
X165100000Y-98200000D03*
X150100000Y-99200000D03*
X151100000Y-99200000D03*
X152100000Y-99200000D03*
X153100000Y-99200000D03*
X154100000Y-99200000D03*
X155100000Y-99200000D03*
X156100000Y-99200000D03*
X157100000Y-99200000D03*
X158100000Y-99200000D03*
X159100000Y-99200000D03*
X160100000Y-99200000D03*
X161100000Y-99200000D03*
X162100000Y-99200000D03*
X163100000Y-99200000D03*
X164100000Y-99200000D03*
X165100000Y-99200000D03*
X150100000Y-100200000D03*
X151100000Y-100200000D03*
X152100000Y-100200000D03*
X153100000Y-100200000D03*
X154100000Y-100200000D03*
X155100000Y-100200000D03*
X156100000Y-100200000D03*
X157100000Y-100200000D03*
X158100000Y-100200000D03*
X159100000Y-100200000D03*
X160100000Y-100200000D03*
X161100000Y-100200000D03*
X162100000Y-100200000D03*
X163100000Y-100200000D03*
X164100000Y-100200000D03*
X165100000Y-100200000D03*
X150100000Y-101200000D03*
X151100000Y-101200000D03*
X152100000Y-101200000D03*
X153100000Y-101200000D03*
X154100000Y-101200000D03*
X155100000Y-101200000D03*
X156100000Y-101200000D03*
X157100000Y-101200000D03*
X158100000Y-101200000D03*
X159100000Y-101200000D03*
X160100000Y-101200000D03*
X161100000Y-101200000D03*
X162100000Y-101200000D03*
X163100000Y-101200000D03*
X164100000Y-101200000D03*
X165100000Y-101200000D03*
%TD*%
M02*
