%TF.GenerationSoftware,KiCad,Pcbnew,8.0.2*%
%TF.CreationDate,2024-06-03T14:24:12+01:00*%
%TF.ProjectId,GfxFPGAV2,47667846-5047-4415-9632-2e6b69636164,rev?*%
%TF.SameCoordinates,Original*%
%TF.FileFunction,Copper,L1,Top*%
%TF.FilePolarity,Positive*%
%FSLAX46Y46*%
G04 Gerber Fmt 4.6, Leading zero omitted, Abs format (unit mm)*
G04 Created by KiCad (PCBNEW 8.0.2) date 2024-06-03 14:24:12*
%MOMM*%
%LPD*%
G01*
G04 APERTURE LIST*
G04 Aperture macros list*
%AMRoundRect*
0 Rectangle with rounded corners*
0 $1 Rounding radius*
0 $2 $3 $4 $5 $6 $7 $8 $9 X,Y pos of 4 corners*
0 Add a 4 corners polygon primitive as box body*
4,1,4,$2,$3,$4,$5,$6,$7,$8,$9,$2,$3,0*
0 Add four circle primitives for the rounded corners*
1,1,$1+$1,$2,$3*
1,1,$1+$1,$4,$5*
1,1,$1+$1,$6,$7*
1,1,$1+$1,$8,$9*
0 Add four rect primitives between the rounded corners*
20,1,$1+$1,$2,$3,$4,$5,0*
20,1,$1+$1,$4,$5,$6,$7,0*
20,1,$1+$1,$6,$7,$8,$9,0*
20,1,$1+$1,$8,$9,$2,$3,0*%
G04 Aperture macros list end*
%TA.AperFunction,SMDPad,CuDef*%
%ADD10RoundRect,0.250000X0.250000X0.475000X-0.250000X0.475000X-0.250000X-0.475000X0.250000X-0.475000X0*%
%TD*%
%TA.AperFunction,SMDPad,CuDef*%
%ADD11RoundRect,0.250000X-0.250000X-0.475000X0.250000X-0.475000X0.250000X0.475000X-0.250000X0.475000X0*%
%TD*%
%TA.AperFunction,SMDPad,CuDef*%
%ADD12RoundRect,0.250000X-0.550000X1.050000X-0.550000X-1.050000X0.550000X-1.050000X0.550000X1.050000X0*%
%TD*%
%TA.AperFunction,ComponentPad*%
%ADD13RoundRect,0.249999X0.525001X0.525001X-0.525001X0.525001X-0.525001X-0.525001X0.525001X-0.525001X0*%
%TD*%
%TA.AperFunction,ComponentPad*%
%ADD14C,1.550000*%
%TD*%
%TA.AperFunction,ComponentPad*%
%ADD15C,4.000000*%
%TD*%
%TA.AperFunction,ComponentPad*%
%ADD16R,1.600000X1.600000*%
%TD*%
%TA.AperFunction,ComponentPad*%
%ADD17C,1.600000*%
%TD*%
%TA.AperFunction,SMDPad,CuDef*%
%ADD18RoundRect,0.250000X-0.262500X-0.450000X0.262500X-0.450000X0.262500X0.450000X-0.262500X0.450000X0*%
%TD*%
%TA.AperFunction,SMDPad,CuDef*%
%ADD19RoundRect,0.150000X0.150000X-0.825000X0.150000X0.825000X-0.150000X0.825000X-0.150000X-0.825000X0*%
%TD*%
%TA.AperFunction,SMDPad,CuDef*%
%ADD20R,1.500000X2.000000*%
%TD*%
%TA.AperFunction,SMDPad,CuDef*%
%ADD21R,3.800000X2.000000*%
%TD*%
%TA.AperFunction,SMDPad,CuDef*%
%ADD22R,1.610000X0.580000*%
%TD*%
%TA.AperFunction,SMDPad,CuDef*%
%ADD23R,1.475000X0.300000*%
%TD*%
%TA.AperFunction,SMDPad,CuDef*%
%ADD24R,0.300000X1.475000*%
%TD*%
%TA.AperFunction,SMDPad,CuDef*%
%ADD25R,0.410000X1.570000*%
%TD*%
%TA.AperFunction,SMDPad,CuDef*%
%ADD26R,1.300000X0.300000*%
%TD*%
%TA.AperFunction,SMDPad,CuDef*%
%ADD27R,1.400000X1.200000*%
%TD*%
%TA.AperFunction,SMDPad,CuDef*%
%ADD28RoundRect,0.250000X-1.050000X-0.550000X1.050000X-0.550000X1.050000X0.550000X-1.050000X0.550000X0*%
%TD*%
%TA.AperFunction,SMDPad,CuDef*%
%ADD29RoundRect,0.250000X0.375000X0.625000X-0.375000X0.625000X-0.375000X-0.625000X0.375000X-0.625000X0*%
%TD*%
%TA.AperFunction,ComponentPad*%
%ADD30R,1.700000X1.700000*%
%TD*%
%TA.AperFunction,ComponentPad*%
%ADD31O,1.700000X1.700000*%
%TD*%
%TA.AperFunction,SMDPad,CuDef*%
%ADD32RoundRect,0.250000X0.450000X-0.262500X0.450000X0.262500X-0.450000X0.262500X-0.450000X-0.262500X0*%
%TD*%
%TA.AperFunction,BGAPad,CuDef*%
%ADD33C,0.400000*%
%TD*%
%TA.AperFunction,ViaPad*%
%ADD34C,0.800000*%
%TD*%
%TA.AperFunction,ViaPad*%
%ADD35C,0.250000*%
%TD*%
%TA.AperFunction,ViaPad*%
%ADD36C,0.300000*%
%TD*%
%TA.AperFunction,Conductor*%
%ADD37C,0.210000*%
%TD*%
%TA.AperFunction,Conductor*%
%ADD38C,0.500000*%
%TD*%
%TA.AperFunction,Conductor*%
%ADD39C,0.101600*%
%TD*%
%TA.AperFunction,Conductor*%
%ADD40C,0.250000*%
%TD*%
%TA.AperFunction,Conductor*%
%ADD41C,0.090000*%
%TD*%
%TA.AperFunction,Conductor*%
%ADD42C,0.102000*%
%TD*%
G04 APERTURE END LIST*
D10*
%TO.P,C101,1*%
%TO.N,+3V3*%
X111094000Y-118727000D03*
%TO.P,C101,2*%
%TO.N,GND*%
X109194000Y-118727000D03*
%TD*%
D11*
%TO.P,C102,1*%
%TO.N,+5V*%
X104450000Y-139600000D03*
%TO.P,C102,2*%
%TO.N,GND*%
X106350000Y-139600000D03*
%TD*%
%TO.P,C104,1*%
%TO.N,+5V*%
X104700000Y-125400000D03*
%TO.P,C104,2*%
%TO.N,GND*%
X106600000Y-125400000D03*
%TD*%
D12*
%TO.P,C105,1*%
%TO.N,+1V2*%
X116444000Y-104527000D03*
%TO.P,C105,2*%
%TO.N,GND*%
X116444000Y-108127000D03*
%TD*%
D11*
%TO.P,C501,1*%
%TO.N,+3V3*%
X186944000Y-79027000D03*
%TO.P,C501,2*%
%TO.N,Net-(U501-COMP)*%
X188844000Y-79027000D03*
%TD*%
%TO.P,C502,1*%
%TO.N,+3V3*%
X186944000Y-82827000D03*
%TO.P,C502,2*%
%TO.N,Net-(U501-VREF)*%
X188844000Y-82827000D03*
%TD*%
D13*
%TO.P,J101,A1,+5V*%
%TO.N,+5V*%
X188976000Y-144780000D03*
D14*
%TO.P,J101,A2,GND*%
%TO.N,GND*%
X186436000Y-144780000D03*
%TO.P,J101,A3,D0*%
%TO.N,/CPU_D0*%
X183896000Y-144780000D03*
%TO.P,J101,A4,D2*%
%TO.N,/CPU_D2*%
X181356000Y-144780000D03*
%TO.P,J101,A5,D4*%
%TO.N,/CPU_D4*%
X178816000Y-144780000D03*
%TO.P,J101,A6,D6*%
%TO.N,/CPU_D6*%
X176276000Y-144780000D03*
%TO.P,J101,A7,D8*%
%TO.N,/CPU_D8*%
X173736000Y-144780000D03*
%TO.P,J101,A8,D10*%
%TO.N,/CPU_D10*%
X171196000Y-144780000D03*
%TO.P,J101,A9,D12*%
%TO.N,/CPU_D12*%
X168656000Y-144780000D03*
%TO.P,J101,A10,D14*%
%TO.N,/CPU_D14*%
X166116000Y-144780000D03*
%TO.P,J101,A11,GND*%
%TO.N,GND*%
X163576000Y-144780000D03*
%TO.P,J101,A12,A1*%
%TO.N,/CPU_A1*%
X161036000Y-144780000D03*
%TO.P,J101,A13,A3*%
%TO.N,/CPU_A3*%
X158496000Y-144780000D03*
%TO.P,J101,A14,A5*%
%TO.N,/CPU_A5*%
X155956000Y-144780000D03*
%TO.P,J101,A15,A7*%
%TO.N,/CPU_A7*%
X153416000Y-144780000D03*
%TO.P,J101,A16,A9*%
%TO.N,/CPU_A9*%
X150876000Y-144780000D03*
%TO.P,J101,A17,A11*%
%TO.N,/CPU_A11*%
X148336000Y-144780000D03*
%TO.P,J101,A18,A13*%
%TO.N,/CPU_A13*%
X145796000Y-144780000D03*
%TO.P,J101,A19,A15*%
%TO.N,/CPU_A15*%
X143256000Y-144780000D03*
%TO.P,J101,A20,A17*%
%TO.N,/CPU_A17*%
X140716000Y-144780000D03*
%TO.P,J101,A21,A19*%
%TO.N,/CPU_A19*%
X138176000Y-144780000D03*
%TO.P,J101,A22,~{AS}*%
%TO.N,/~{CPU_AS}*%
X135636000Y-144780000D03*
%TO.P,J101,A23,~{VPA}*%
%TO.N,unconnected-(J101-~{VPA}-PadA23)*%
X133096000Y-144780000D03*
%TO.P,J101,A24,+5V*%
%TO.N,+5V*%
X130556000Y-144780000D03*
%TO.P,J101,A25,~{LDS}*%
%TO.N,/~{CPU_LDS}*%
X128016000Y-144780000D03*
%TO.P,J101,A26,R/~{W}*%
%TO.N,/CPU_R~{W}*%
X125476000Y-144780000D03*
%TO.P,J101,A27,~{ID}*%
%TO.N,/~{CPU_REGCS}*%
X122936000Y-144780000D03*
%TO.P,J101,A28,~{IRQ}*%
%TO.N,Net-(J101-~{IRQ})*%
X120396000Y-144780000D03*
%TO.P,J101,A29,~{BERR}*%
%TO.N,unconnected-(J101-~{BERR}-PadA29)*%
X117856000Y-144780000D03*
%TO.P,J101,A30,-12V*%
%TO.N,unconnected-(J101--12V-PadA30)*%
X115316000Y-144780000D03*
%TO.P,J101,A31,+12V*%
%TO.N,unconnected-(J101-+12V-PadA31)*%
X112776000Y-144780000D03*
%TO.P,J101,A32,GND*%
%TO.N,GND*%
X110236000Y-144780000D03*
%TO.P,J101,C1,+5V*%
%TO.N,+5V*%
X188976000Y-139700000D03*
%TO.P,J101,C2,5V_STANDBY*%
%TO.N,unconnected-(J101-5V_STANDBY-PadC2)*%
X186436000Y-139700000D03*
%TO.P,J101,C3,D1*%
%TO.N,/CPU_D1*%
X183896000Y-139700000D03*
%TO.P,J101,C4,D3*%
%TO.N,/CPU_D3*%
X181356000Y-139700000D03*
%TO.P,J101,C5,D5*%
%TO.N,/CPU_D5*%
X178816000Y-139700000D03*
%TO.P,J101,C6,D7*%
%TO.N,/CPU_D7*%
X176276000Y-139700000D03*
%TO.P,J101,C7,D9*%
%TO.N,/CPU_D9*%
X173736000Y-139700000D03*
%TO.P,J101,C8,D11*%
%TO.N,/CPU_D11*%
X171196000Y-139700000D03*
%TO.P,J101,C9,D13*%
%TO.N,/CPU_D13*%
X168656000Y-139700000D03*
%TO.P,J101,C10,D15*%
%TO.N,/CPU_D15*%
X166116000Y-139700000D03*
%TO.P,J101,C11,GND*%
%TO.N,GND*%
X163576000Y-139700000D03*
%TO.P,J101,C12,A2*%
%TO.N,/CPU_A2*%
X161036000Y-139700000D03*
%TO.P,J101,C13,A4*%
%TO.N,/CPU_A4*%
X158496000Y-139700000D03*
%TO.P,J101,C14,A6*%
%TO.N,/CPU_A6*%
X155956000Y-139700000D03*
%TO.P,J101,C15,A8*%
%TO.N,/CPU_A8*%
X153416000Y-139700000D03*
%TO.P,J101,C16,A10*%
%TO.N,/CPU_A10*%
X150876000Y-139700000D03*
%TO.P,J101,C17,A12*%
%TO.N,/CPU_A12*%
X148336000Y-139700000D03*
%TO.P,J101,C18,A14*%
%TO.N,/CPU_A14*%
X145796000Y-139700000D03*
%TO.P,J101,C19,A16*%
%TO.N,/CPU_A16*%
X143256000Y-139700000D03*
%TO.P,J101,C20,A18*%
%TO.N,/CPU_A18*%
X140716000Y-139700000D03*
%TO.P,J101,C21,E*%
%TO.N,unconnected-(J101-E-PadC21)*%
X138176000Y-139700000D03*
%TO.P,J101,C22,~{VMA}*%
%TO.N,unconnected-(J101-~{VMA}-PadC22)*%
X135636000Y-139700000D03*
%TO.P,J101,C23,SYS_CLK*%
%TO.N,/CPU_CLK*%
X133096000Y-139700000D03*
%TO.P,J101,C24,GND*%
%TO.N,GND*%
X130556000Y-139700000D03*
%TO.P,J101,C25,~{UDS}*%
%TO.N,/~{CPU_UDS}*%
X128016000Y-139700000D03*
%TO.P,J101,C26,~{RESET}*%
%TO.N,/~{CPU_RESET}*%
X125476000Y-139700000D03*
%TO.P,J101,C27,~{CS}*%
%TO.N,/~{CPU_DATACS}*%
X122936000Y-139700000D03*
%TO.P,J101,C28,~{ACK}*%
%TO.N,Net-(J101-~{ACK})*%
X120396000Y-139700000D03*
%TO.P,J101,C29,~{PRD}*%
%TO.N,GND*%
X117856000Y-139700000D03*
%TO.P,J101,C30,+3.3V*%
%TO.N,+3V3*%
X115316000Y-139700000D03*
%TO.P,J101,C31,+12V*%
%TO.N,unconnected-(J101-+12V-PadC31)*%
X112776000Y-139700000D03*
%TO.P,J101,C32,GND*%
%TO.N,GND*%
X110236000Y-139700000D03*
%TD*%
D15*
%TO.P,J501,0*%
%TO.N,GND*%
X194470000Y-105260000D03*
X194470000Y-80260000D03*
D16*
%TO.P,J501,1*%
%TO.N,Net-(U501-IOR)*%
X192420000Y-88445000D03*
D17*
%TO.P,J501,2*%
%TO.N,Net-(U501-IOG)*%
X192420000Y-90735000D03*
%TO.P,J501,3*%
%TO.N,Net-(U501-IOB)*%
X192420000Y-93025000D03*
%TO.P,J501,4*%
%TO.N,unconnected-(J501-Pad4)*%
X192420000Y-95315000D03*
%TO.P,J501,5*%
%TO.N,GND*%
X192420000Y-97605000D03*
%TO.P,J501,6*%
X194400000Y-87300000D03*
%TO.P,J501,7*%
X194400000Y-89590000D03*
%TO.P,J501,8*%
X194400000Y-91880000D03*
%TO.P,J501,9*%
%TO.N,unconnected-(J501-Pad9)*%
X194400000Y-94170000D03*
%TO.P,J501,10*%
%TO.N,GND*%
X194400000Y-96460000D03*
%TO.P,J501,11*%
%TO.N,unconnected-(J501-Pad11)*%
X196380000Y-88445000D03*
%TO.P,J501,12*%
%TO.N,unconnected-(J501-Pad12)*%
X196380000Y-90735000D03*
%TO.P,J501,13*%
%TO.N,Net-(J501-Pad13)*%
X196380000Y-93025000D03*
%TO.P,J501,14*%
%TO.N,Net-(J501-Pad14)*%
X196380000Y-95315000D03*
%TO.P,J501,15*%
%TO.N,unconnected-(J501-Pad15)*%
X196380000Y-97605000D03*
%TD*%
D18*
%TO.P,R101,1*%
%TO.N,+1V2*%
X104681500Y-105327000D03*
%TO.P,R101,2*%
%TO.N,GND*%
X106506500Y-105327000D03*
%TD*%
%TO.P,R501,1*%
%TO.N,GND*%
X182719000Y-79027000D03*
%TO.P,R501,2*%
%TO.N,Net-(U501-RSET)*%
X184544000Y-79027000D03*
%TD*%
%TO.P,R502,1*%
%TO.N,+3V3*%
X178756500Y-79027000D03*
%TO.P,R502,2*%
%TO.N,Net-(U501-~{PSAVE})*%
X180581500Y-79027000D03*
%TD*%
%TO.P,R503,1*%
%TO.N,/FPGA/HSYNC*%
X186544000Y-104027000D03*
%TO.P,R503,2*%
%TO.N,Net-(J501-Pad13)*%
X188369000Y-104027000D03*
%TD*%
%TO.P,R504,1*%
%TO.N,/FPGA/VSYNC*%
X186544000Y-100627000D03*
%TO.P,R504,2*%
%TO.N,Net-(J501-Pad14)*%
X188369000Y-100627000D03*
%TD*%
D19*
%TO.P,U101,1*%
%TO.N,+5V*%
X104990000Y-133475000D03*
%TO.P,U101,2*%
%TO.N,GND*%
X106260000Y-133475000D03*
%TO.P,U101,3*%
%TO.N,unconnected-(U101-Pad3)*%
X107530000Y-133475000D03*
%TO.P,U101,4*%
%TO.N,/~{CPU_IRQ}*%
X108800000Y-133475000D03*
%TO.P,U101,5*%
%TO.N,GND*%
X110070000Y-133475000D03*
%TO.P,U101,6*%
%TO.N,Net-(J101-~{IRQ})*%
X111340000Y-133475000D03*
%TO.P,U101,7,GND*%
%TO.N,GND*%
X112610000Y-133475000D03*
%TO.P,U101,8*%
%TO.N,Net-(J101-~{ACK})*%
X112610000Y-128525000D03*
%TO.P,U101,9*%
%TO.N,GND*%
X111340000Y-128525000D03*
%TO.P,U101,10*%
%TO.N,/~{CPU_DTACK}*%
X110070000Y-128525000D03*
%TO.P,U101,11*%
%TO.N,unconnected-(U101-Pad11)*%
X108800000Y-128525000D03*
%TO.P,U101,12*%
%TO.N,GND*%
X107530000Y-128525000D03*
%TO.P,U101,13*%
%TO.N,+5V*%
X106260000Y-128525000D03*
%TO.P,U101,14,VCC*%
X104990000Y-128525000D03*
%TD*%
D20*
%TO.P,U102,1,GND*%
%TO.N,GND*%
X106544000Y-115127000D03*
%TO.P,U102,2,VO*%
%TO.N,+1V2*%
X108844000Y-115127000D03*
D21*
X108844000Y-108827000D03*
D20*
%TO.P,U102,3,VI*%
%TO.N,+3V3*%
X111144000Y-115127000D03*
%TD*%
D22*
%TO.P,U302,1,~{CS}*%
%TO.N,/FPGA/~{FLASH_CS}*%
X131960000Y-113490000D03*
%TO.P,U302,2,DO/IO1*%
%TO.N,/FPGA/FLASH_DO*%
X131960000Y-114760000D03*
%TO.P,U302,3,WP/IO2*%
%TO.N,Net-(U302-WP{slash}IO2)*%
X131960000Y-116030000D03*
%TO.P,U302,4,GND*%
%TO.N,GND*%
X131960000Y-117300000D03*
%TO.P,U302,5,DI/IO0*%
%TO.N,/FPGA/FLASH_DI*%
X139170000Y-117300000D03*
%TO.P,U302,6,CLK*%
%TO.N,/FPGA/FLASH_CLK*%
X139170000Y-116030000D03*
%TO.P,U302,7,HOLD/IO3*%
%TO.N,Net-(U302-HOLD{slash}IO3)*%
X139170000Y-114760000D03*
%TO.P,U302,8,VCC*%
%TO.N,+3V3*%
X139170000Y-113490000D03*
%TD*%
D23*
%TO.P,U501,1,G0*%
%TO.N,GND*%
X178844000Y-89075000D03*
%TO.P,U501,2,G1*%
X178844000Y-89575000D03*
%TO.P,U501,3,G2*%
%TO.N,/FPGA/G0*%
X178844000Y-90075000D03*
%TO.P,U501,4,G3*%
%TO.N,/FPGA/G1*%
X178844000Y-90575000D03*
%TO.P,U501,5,G4*%
%TO.N,/FPGA/G2*%
X178844000Y-91075000D03*
%TO.P,U501,6,G5*%
%TO.N,/FPGA/G3*%
X178844000Y-91575000D03*
%TO.P,U501,7,G6*%
%TO.N,/FPGA/G4*%
X178844000Y-92075000D03*
%TO.P,U501,8,G7*%
%TO.N,/FPGA/G5*%
X178844000Y-92575000D03*
%TO.P,U501,9,G8*%
%TO.N,/FPGA/G6*%
X178844000Y-93075000D03*
%TO.P,U501,10,G9*%
%TO.N,/FPGA/G7*%
X178844000Y-93575000D03*
%TO.P,U501,11,~{BLANK}*%
%TO.N,/FPGA/~{BLANK}*%
X178844000Y-94075000D03*
%TO.P,U501,12,~{SYNC}*%
%TO.N,GND*%
X178844000Y-94575000D03*
D24*
%TO.P,U501,13,VAA*%
%TO.N,+3V3*%
X180332000Y-96063000D03*
%TO.P,U501,14,B0*%
%TO.N,GND*%
X180832000Y-96063000D03*
%TO.P,U501,15,B1*%
X181332000Y-96063000D03*
%TO.P,U501,16,B2*%
%TO.N,/FPGA/B0*%
X181832000Y-96063000D03*
%TO.P,U501,17,B3*%
%TO.N,/FPGA/B1*%
X182332000Y-96063000D03*
%TO.P,U501,18,B4*%
%TO.N,/FPGA/B2*%
X182832000Y-96063000D03*
%TO.P,U501,19,B5*%
%TO.N,/FPGA/B3*%
X183332000Y-96063000D03*
%TO.P,U501,20,B6*%
%TO.N,/FPGA/B4*%
X183832000Y-96063000D03*
%TO.P,U501,21,B7*%
%TO.N,/FPGA/B5*%
X184332000Y-96063000D03*
%TO.P,U501,22,B8*%
%TO.N,/FPGA/B6*%
X184832000Y-96063000D03*
%TO.P,U501,23,B9*%
%TO.N,/FPGA/B7*%
X185332000Y-96063000D03*
%TO.P,U501,24,CLOCK*%
%TO.N,/FPGA/PIXELCLOCK*%
X185832000Y-96063000D03*
D23*
%TO.P,U501,25,GND*%
%TO.N,GND*%
X187320000Y-94575000D03*
%TO.P,U501,26,GND*%
X187320000Y-94075000D03*
%TO.P,U501,27,~{IOB}*%
X187320000Y-93575000D03*
%TO.P,U501,28,IOB*%
%TO.N,Net-(U501-IOB)*%
X187320000Y-93075000D03*
%TO.P,U501,29,VAA*%
%TO.N,+3V3*%
X187320000Y-92575000D03*
%TO.P,U501,30,VAA*%
X187320000Y-92075000D03*
%TO.P,U501,31,~{IOG}*%
%TO.N,GND*%
X187320000Y-91575000D03*
%TO.P,U501,32,IOG*%
%TO.N,Net-(U501-IOG)*%
X187320000Y-91075000D03*
%TO.P,U501,33,~{IOR}*%
%TO.N,GND*%
X187320000Y-90575000D03*
%TO.P,U501,34,IOR*%
%TO.N,Net-(U501-IOR)*%
X187320000Y-90075000D03*
%TO.P,U501,35,COMP*%
%TO.N,Net-(U501-COMP)*%
X187320000Y-89575000D03*
%TO.P,U501,36,VREF*%
%TO.N,Net-(U501-VREF)*%
X187320000Y-89075000D03*
D24*
%TO.P,U501,37,RSET*%
%TO.N,Net-(U501-RSET)*%
X185832000Y-87587000D03*
%TO.P,U501,38,~{PSAVE}*%
%TO.N,Net-(U501-~{PSAVE})*%
X185332000Y-87587000D03*
%TO.P,U501,39,R0*%
%TO.N,GND*%
X184832000Y-87587000D03*
%TO.P,U501,40,R1*%
X184332000Y-87587000D03*
%TO.P,U501,41,R2*%
%TO.N,/FPGA/R0*%
X183832000Y-87587000D03*
%TO.P,U501,42,R3*%
%TO.N,/FPGA/R1*%
X183332000Y-87587000D03*
%TO.P,U501,43,R4*%
%TO.N,/FPGA/R2*%
X182832000Y-87587000D03*
%TO.P,U501,44,R5*%
%TO.N,/FPGA/R3*%
X182332000Y-87587000D03*
%TO.P,U501,45,R6*%
%TO.N,/FPGA/R4*%
X181832000Y-87587000D03*
%TO.P,U501,46,R7*%
%TO.N,/FPGA/R5*%
X181332000Y-87587000D03*
%TO.P,U501,47,R8*%
%TO.N,/FPGA/R6*%
X180832000Y-87587000D03*
%TO.P,U501,48,R9*%
%TO.N,/FPGA/R7*%
X180332000Y-87587000D03*
%TD*%
D25*
%TO.P,U201,1,VCCA*%
%TO.N,+5V*%
X154825000Y-133870000D03*
%TO.P,U201,2,DIR*%
X155475000Y-133870000D03*
%TO.P,U201,3,A1*%
%TO.N,/CPU_A8*%
X156125000Y-133870000D03*
%TO.P,U201,4,A2*%
%TO.N,/CPU_A7*%
X156775000Y-133870000D03*
%TO.P,U201,5,A3*%
%TO.N,/CPU_A6*%
X157425000Y-133870000D03*
%TO.P,U201,6,A4*%
%TO.N,/CPU_A5*%
X158075000Y-133870000D03*
%TO.P,U201,7,A5*%
%TO.N,/CPU_A4*%
X158725000Y-133870000D03*
%TO.P,U201,8,A6*%
%TO.N,/CPU_A3*%
X159375000Y-133870000D03*
%TO.P,U201,9,A7*%
%TO.N,/CPU_A2*%
X160025000Y-133870000D03*
%TO.P,U201,10,A8*%
%TO.N,/CPU_A1*%
X160675000Y-133870000D03*
%TO.P,U201,11,GND*%
%TO.N,GND*%
X161325000Y-133870000D03*
%TO.P,U201,12,GND*%
X161975000Y-133870000D03*
%TO.P,U201,13,GND*%
X161975000Y-128130000D03*
%TO.P,U201,14,B8*%
%TO.N,/FPGA/A1*%
X161325000Y-128130000D03*
%TO.P,U201,15,B7*%
%TO.N,/FPGA/A2*%
X160675000Y-128130000D03*
%TO.P,U201,16,B6*%
%TO.N,/FPGA/A3*%
X160025000Y-128130000D03*
%TO.P,U201,17,B5*%
%TO.N,/FPGA/A4*%
X159375000Y-128130000D03*
%TO.P,U201,18,B4*%
%TO.N,/FPGA/A5*%
X158725000Y-128130000D03*
%TO.P,U201,19,B3*%
%TO.N,/FPGA/A6*%
X158075000Y-128130000D03*
%TO.P,U201,20,B2*%
%TO.N,/FPGA/A7*%
X157425000Y-128130000D03*
%TO.P,U201,21,B1*%
%TO.N,/FPGA/A8*%
X156775000Y-128130000D03*
%TO.P,U201,22,~{OE}*%
%TO.N,/FPGA/~{BUSEN}*%
X156125000Y-128130000D03*
%TO.P,U201,23,VCCB*%
%TO.N,+3V3*%
X155475000Y-128130000D03*
%TO.P,U201,24,VCCB*%
X154825000Y-128130000D03*
%TD*%
%TO.P,U202,1,VCCA*%
%TO.N,+5V*%
X143225000Y-133870000D03*
%TO.P,U202,2,DIR*%
X143875000Y-133870000D03*
%TO.P,U202,3,A1*%
%TO.N,/CPU_A16*%
X144525000Y-133870000D03*
%TO.P,U202,4,A2*%
%TO.N,/CPU_A15*%
X145175000Y-133870000D03*
%TO.P,U202,5,A3*%
%TO.N,/CPU_A14*%
X145825000Y-133870000D03*
%TO.P,U202,6,A4*%
%TO.N,/CPU_A13*%
X146475000Y-133870000D03*
%TO.P,U202,7,A5*%
%TO.N,/CPU_A12*%
X147125000Y-133870000D03*
%TO.P,U202,8,A6*%
%TO.N,/CPU_A11*%
X147775000Y-133870000D03*
%TO.P,U202,9,A7*%
%TO.N,/CPU_A10*%
X148425000Y-133870000D03*
%TO.P,U202,10,A8*%
%TO.N,/CPU_A9*%
X149075000Y-133870000D03*
%TO.P,U202,11,GND*%
%TO.N,GND*%
X149725000Y-133870000D03*
%TO.P,U202,12,GND*%
X150375000Y-133870000D03*
%TO.P,U202,13,GND*%
X150375000Y-128130000D03*
%TO.P,U202,14,B8*%
%TO.N,/FPGA/A9*%
X149725000Y-128130000D03*
%TO.P,U202,15,B7*%
%TO.N,/FPGA/A10*%
X149075000Y-128130000D03*
%TO.P,U202,16,B6*%
%TO.N,/FPGA/A11*%
X148425000Y-128130000D03*
%TO.P,U202,17,B5*%
%TO.N,/FPGA/A12*%
X147775000Y-128130000D03*
%TO.P,U202,18,B4*%
%TO.N,/FPGA/A13*%
X147125000Y-128130000D03*
%TO.P,U202,19,B3*%
%TO.N,/FPGA/A14*%
X146475000Y-128130000D03*
%TO.P,U202,20,B2*%
%TO.N,/FPGA/A15*%
X145825000Y-128130000D03*
%TO.P,U202,21,B1*%
%TO.N,/FPGA/A16*%
X145175000Y-128130000D03*
%TO.P,U202,22,~{OE}*%
%TO.N,/FPGA/~{BUSEN}*%
X144525000Y-128130000D03*
%TO.P,U202,23,VCCB*%
%TO.N,+3V3*%
X143875000Y-128130000D03*
%TO.P,U202,24,VCCB*%
X143225000Y-128130000D03*
%TD*%
%TO.P,U204,1,VCCA*%
%TO.N,+5V*%
X118625000Y-133870000D03*
%TO.P,U204,2,DIR*%
X119275000Y-133870000D03*
%TO.P,U204,3,A1*%
%TO.N,/~{CPU_REGCS}*%
X119925000Y-133870000D03*
%TO.P,U204,4,A2*%
%TO.N,/~{CPU_DATACS}*%
X120575000Y-133870000D03*
%TO.P,U204,5,A3*%
%TO.N,/CPU_R~{W}*%
X121225000Y-133870000D03*
%TO.P,U204,6,A4*%
%TO.N,/~{CPU_RESET}*%
X121875000Y-133870000D03*
%TO.P,U204,7,A5*%
%TO.N,/~{CPU_LDS}*%
X122525000Y-133870000D03*
%TO.P,U204,8,A6*%
%TO.N,/~{CPU_UDS}*%
X123175000Y-133870000D03*
%TO.P,U204,9,A7*%
%TO.N,/~{CPU_AS}*%
X123825000Y-133870000D03*
%TO.P,U204,10,A8*%
%TO.N,unconnected-(U204-A8-Pad10)*%
X124475000Y-133870000D03*
%TO.P,U204,11,GND*%
%TO.N,GND*%
X125125000Y-133870000D03*
%TO.P,U204,12,GND*%
X125775000Y-133870000D03*
%TO.P,U204,13,GND*%
X125775000Y-128130000D03*
%TO.P,U204,14,B8*%
%TO.N,unconnected-(U204-B8-Pad14)*%
X125125000Y-128130000D03*
%TO.P,U204,15,B7*%
%TO.N,/FPGA/~{AS}*%
X124475000Y-128130000D03*
%TO.P,U204,16,B6*%
%TO.N,/FPGA/~{UDS}*%
X123825000Y-128130000D03*
%TO.P,U204,17,B5*%
%TO.N,/FPGA/~{LDS}*%
X123175000Y-128130000D03*
%TO.P,U204,18,B4*%
%TO.N,/FPGA/~{RESET}*%
X122525000Y-128130000D03*
%TO.P,U204,19,B3*%
%TO.N,/FPGA/R~{W}*%
X121875000Y-128130000D03*
%TO.P,U204,20,B2*%
%TO.N,/FPGA/~{DATACS}*%
X121225000Y-128130000D03*
%TO.P,U204,21,B1*%
%TO.N,/FPGA/~{REGCS}*%
X120575000Y-128130000D03*
%TO.P,U204,22,~{OE}*%
%TO.N,/FPGA/~{BUSEN}*%
X119925000Y-128130000D03*
%TO.P,U204,23,VCCB*%
%TO.N,+3V3*%
X119275000Y-128130000D03*
%TO.P,U204,24,VCCB*%
X118625000Y-128130000D03*
%TD*%
%TO.P,U205,1,VCCA*%
%TO.N,+5V*%
X179825000Y-133870000D03*
%TO.P,U205,2,DIR*%
%TO.N,/FPGA/DATA_DIR*%
X180475000Y-133870000D03*
%TO.P,U205,3,A1*%
%TO.N,/CPU_D7*%
X181125000Y-133870000D03*
%TO.P,U205,4,A2*%
%TO.N,/CPU_D6*%
X181775000Y-133870000D03*
%TO.P,U205,5,A3*%
%TO.N,/CPU_D5*%
X182425000Y-133870000D03*
%TO.P,U205,6,A4*%
%TO.N,/CPU_D4*%
X183075000Y-133870000D03*
%TO.P,U205,7,A5*%
%TO.N,/CPU_D3*%
X183725000Y-133870000D03*
%TO.P,U205,8,A6*%
%TO.N,/CPU_D2*%
X184375000Y-133870000D03*
%TO.P,U205,9,A7*%
%TO.N,/CPU_D1*%
X185025000Y-133870000D03*
%TO.P,U205,10,A8*%
%TO.N,/CPU_D0*%
X185675000Y-133870000D03*
%TO.P,U205,11,GND*%
%TO.N,GND*%
X186325000Y-133870000D03*
%TO.P,U205,12,GND*%
X186975000Y-133870000D03*
%TO.P,U205,13,GND*%
X186975000Y-128130000D03*
%TO.P,U205,14,B8*%
%TO.N,/FPGA/D0*%
X186325000Y-128130000D03*
%TO.P,U205,15,B7*%
%TO.N,/FPGA/D1*%
X185675000Y-128130000D03*
%TO.P,U205,16,B6*%
%TO.N,/FPGA/D2*%
X185025000Y-128130000D03*
%TO.P,U205,17,B5*%
%TO.N,/FPGA/D3*%
X184375000Y-128130000D03*
%TO.P,U205,18,B4*%
%TO.N,/FPGA/D4*%
X183725000Y-128130000D03*
%TO.P,U205,19,B3*%
%TO.N,/FPGA/D5*%
X183075000Y-128130000D03*
%TO.P,U205,20,B2*%
%TO.N,/FPGA/D6*%
X182425000Y-128130000D03*
%TO.P,U205,21,B1*%
%TO.N,/FPGA/D7*%
X181775000Y-128130000D03*
%TO.P,U205,22,~{OE}*%
%TO.N,/FPGA/~{CPU_DATAEN}*%
X181125000Y-128130000D03*
%TO.P,U205,23,VCCB*%
%TO.N,+3V3*%
X180475000Y-128130000D03*
%TO.P,U205,24,VCCB*%
X179825000Y-128130000D03*
%TD*%
%TO.P,U206,1,VCCA*%
%TO.N,+5V*%
X166960000Y-133870000D03*
%TO.P,U206,2,DIR*%
%TO.N,/FPGA/DATA_DIR*%
X167610000Y-133870000D03*
%TO.P,U206,3,A1*%
%TO.N,/CPU_D15*%
X168260000Y-133870000D03*
%TO.P,U206,4,A2*%
%TO.N,/CPU_D14*%
X168910000Y-133870000D03*
%TO.P,U206,5,A3*%
%TO.N,/CPU_D13*%
X169560000Y-133870000D03*
%TO.P,U206,6,A4*%
%TO.N,/CPU_D12*%
X170210000Y-133870000D03*
%TO.P,U206,7,A5*%
%TO.N,/CPU_D11*%
X170860000Y-133870000D03*
%TO.P,U206,8,A6*%
%TO.N,/CPU_D10*%
X171510000Y-133870000D03*
%TO.P,U206,9,A7*%
%TO.N,/CPU_D9*%
X172160000Y-133870000D03*
%TO.P,U206,10,A8*%
%TO.N,/CPU_D8*%
X172810000Y-133870000D03*
%TO.P,U206,11,GND*%
%TO.N,GND*%
X173460000Y-133870000D03*
%TO.P,U206,12,GND*%
X174110000Y-133870000D03*
%TO.P,U206,13,GND*%
X174110000Y-128130000D03*
%TO.P,U206,14,B8*%
%TO.N,/FPGA/D8*%
X173460000Y-128130000D03*
%TO.P,U206,15,B7*%
%TO.N,/FPGA/D9*%
X172810000Y-128130000D03*
%TO.P,U206,16,B6*%
%TO.N,/FPGA/D10*%
X172160000Y-128130000D03*
%TO.P,U206,17,B5*%
%TO.N,/FPGA/D11*%
X171510000Y-128130000D03*
%TO.P,U206,18,B4*%
%TO.N,/FPGA/D12*%
X170860000Y-128130000D03*
%TO.P,U206,19,B3*%
%TO.N,/FPGA/D13*%
X170210000Y-128130000D03*
%TO.P,U206,20,B2*%
%TO.N,/FPGA/D14*%
X169560000Y-128130000D03*
%TO.P,U206,21,B1*%
%TO.N,/FPGA/D15*%
X168910000Y-128130000D03*
%TO.P,U206,22,~{OE}*%
%TO.N,/FPGA/~{CPU_DATAEN}*%
X168260000Y-128130000D03*
%TO.P,U206,23,VCCB*%
%TO.N,+3V3*%
X167610000Y-128130000D03*
%TO.P,U206,24,VCCB*%
X166960000Y-128130000D03*
%TD*%
%TO.P,U203,1,VCCA*%
%TO.N,+5V*%
X131025000Y-133870000D03*
%TO.P,U203,2,DIR*%
X131675000Y-133870000D03*
%TO.P,U203,3,A1*%
%TO.N,/CPU_CLK*%
X132325000Y-133870000D03*
%TO.P,U203,4,A2*%
%TO.N,unconnected-(U203-A2-Pad4)*%
X132975000Y-133870000D03*
%TO.P,U203,5,A3*%
%TO.N,unconnected-(U203-A3-Pad5)*%
X133625000Y-133870000D03*
%TO.P,U203,6,A4*%
%TO.N,unconnected-(U203-A4-Pad6)*%
X134275000Y-133870000D03*
%TO.P,U203,7,A5*%
%TO.N,unconnected-(U203-A5-Pad7)*%
X134925000Y-133870000D03*
%TO.P,U203,8,A6*%
%TO.N,/CPU_A19*%
X135575000Y-133870000D03*
%TO.P,U203,9,A7*%
%TO.N,/CPU_A17*%
X136225000Y-133870000D03*
%TO.P,U203,10,A8*%
%TO.N,/CPU_A18*%
X136875000Y-133870000D03*
%TO.P,U203,11,GND*%
%TO.N,GND*%
X137525000Y-133870000D03*
%TO.P,U203,12,GND*%
X138175000Y-133870000D03*
%TO.P,U203,13,GND*%
X138175000Y-128130000D03*
%TO.P,U203,14,B8*%
%TO.N,/FPGA/A18*%
X137525000Y-128130000D03*
%TO.P,U203,15,B7*%
%TO.N,/FPGA/A17*%
X136875000Y-128130000D03*
%TO.P,U203,16,B6*%
%TO.N,/FPGA/A19*%
X136225000Y-128130000D03*
%TO.P,U203,17,B5*%
%TO.N,unconnected-(U203-B5-Pad17)*%
X135575000Y-128130000D03*
%TO.P,U203,18,B4*%
%TO.N,unconnected-(U203-B4-Pad18)*%
X134925000Y-128130000D03*
%TO.P,U203,19,B3*%
%TO.N,unconnected-(U203-B3-Pad19)*%
X134275000Y-128130000D03*
%TO.P,U203,20,B2*%
%TO.N,unconnected-(U203-B2-Pad20)*%
X133625000Y-128130000D03*
%TO.P,U203,21,B1*%
%TO.N,/FPGA/HOST_CLK*%
X132975000Y-128130000D03*
%TO.P,U203,22,~{OE}*%
%TO.N,/FPGA/~{BUSEN}*%
X132325000Y-128130000D03*
%TO.P,U203,23,VCCB*%
%TO.N,+3V3*%
X131675000Y-128130000D03*
%TO.P,U203,24,VCCB*%
X131025000Y-128130000D03*
%TD*%
D11*
%TO.P,C106,1*%
%TO.N,+1V2*%
X108794000Y-105327000D03*
%TO.P,C106,2*%
%TO.N,GND*%
X110694000Y-105327000D03*
%TD*%
D26*
%TO.P,U402,1,A4*%
%TO.N,/FPGA/SRAM_A4*%
X138594000Y-69277000D03*
%TO.P,U402,2,A3*%
%TO.N,/FPGA/SRAM_A3*%
X138594000Y-68777000D03*
%TO.P,U402,3,A2*%
%TO.N,/FPGA/SRAM_A2*%
X138594000Y-68277000D03*
%TO.P,U402,4,A1*%
%TO.N,/FPGA/SRAM_A1*%
X138594000Y-67777000D03*
%TO.P,U402,5,A0*%
%TO.N,/FPGA/SRAM_A0*%
X138594000Y-67277000D03*
%TO.P,U402,6,NC_1*%
%TO.N,unconnected-(U402-NC_1-Pad6)*%
X138594000Y-66777000D03*
%TO.P,U402,7,~{CS}*%
%TO.N,/FPGA/~{SRAM_CS}*%
X138594000Y-66277000D03*
%TO.P,U402,8,I/O0*%
%TO.N,/FPGA/SRAM_D16*%
X138594000Y-65777000D03*
%TO.P,U402,9,I/O1*%
%TO.N,/FPGA/SRAM_D17*%
X138594000Y-65277000D03*
%TO.P,U402,10,I/O2*%
%TO.N,/FPGA/SRAM_D18*%
X138594000Y-64777000D03*
%TO.P,U402,11,I/O3*%
%TO.N,/FPGA/SRAM_D19*%
X138594000Y-64277000D03*
%TO.P,U402,12,VDD*%
%TO.N,+3V3*%
X138594000Y-63777000D03*
%TO.P,U402,13,VSS*%
%TO.N,GND*%
X138594000Y-63277000D03*
%TO.P,U402,14,I/O4*%
%TO.N,/FPGA/SRAM_D20*%
X138594000Y-62777000D03*
%TO.P,U402,15,I/O5*%
%TO.N,/FPGA/SRAM_D21*%
X138594000Y-62277000D03*
%TO.P,U402,16,I/O6*%
%TO.N,/FPGA/SRAM_D22*%
X138594000Y-61777000D03*
%TO.P,U402,17,I/O7*%
%TO.N,/FPGA/SRAM_D23*%
X138594000Y-61277000D03*
%TO.P,U402,18,~{WE}*%
%TO.N,/FPGA/~{SRAM_WE}*%
X138594000Y-60777000D03*
%TO.P,U402,19,NC_2*%
%TO.N,unconnected-(U402-NC_2-Pad19)*%
X138594000Y-60277000D03*
%TO.P,U402,20,A19*%
%TO.N,/FPGA/SRAM_A19*%
X138594000Y-59777000D03*
%TO.P,U402,21,A18*%
%TO.N,/FPGA/SRAM_A18*%
X138594000Y-59277000D03*
%TO.P,U402,22,A17*%
%TO.N,/FPGA/SRAM_A17*%
X138594000Y-58777000D03*
%TO.P,U402,23,A16*%
%TO.N,/FPGA/SRAM_A16*%
X138594000Y-58277000D03*
%TO.P,U402,24,A15*%
%TO.N,/FPGA/SRAM_A15*%
X138594000Y-57777000D03*
%TO.P,U402,25,A14*%
%TO.N,/FPGA/SRAM_A14*%
X118894000Y-57777000D03*
%TO.P,U402,26,A13*%
%TO.N,/FPGA/SRAM_A13*%
X118894000Y-58277000D03*
%TO.P,U402,27,A12*%
%TO.N,/FPGA/SRAM_A12*%
X118894000Y-58777000D03*
%TO.P,U402,28,A11*%
%TO.N,/FPGA/SRAM_A11*%
X118894000Y-59277000D03*
%TO.P,U402,29,A10*%
%TO.N,/FPGA/SRAM_A10*%
X118894000Y-59777000D03*
%TO.P,U402,30,A9*%
%TO.N,/FPGA/SRAM_A9*%
X118894000Y-60277000D03*
%TO.P,U402,31,NC_3*%
%TO.N,unconnected-(U402-NC_3-Pad31)*%
X118894000Y-60777000D03*
%TO.P,U402,32,I/O8*%
%TO.N,/FPGA/SRAM_D24*%
X118894000Y-61277000D03*
%TO.P,U402,33,I/O9*%
%TO.N,/FPGA/SRAM_D25*%
X118894000Y-61777000D03*
%TO.P,U402,34,I/O10*%
%TO.N,/FPGA/SRAM_D26*%
X118894000Y-62277000D03*
%TO.P,U402,35,I/O11*%
%TO.N,/FPGA/SRAM_D27*%
X118894000Y-62777000D03*
%TO.P,U402,36,VDD*%
%TO.N,+3V3*%
X118894000Y-63277000D03*
%TO.P,U402,37,VSS*%
%TO.N,GND*%
X118894000Y-63777000D03*
%TO.P,U402,38,I/O12*%
%TO.N,/FPGA/SRAM_D28*%
X118894000Y-64277000D03*
%TO.P,U402,39,I/O13*%
%TO.N,/FPGA/SRAM_D29*%
X118894000Y-64777000D03*
%TO.P,U402,40,I/O14*%
%TO.N,/FPGA/SRAM_D30*%
X118894000Y-65277000D03*
%TO.P,U402,41,I/O15*%
%TO.N,/FPGA/SRAM_D31*%
X118894000Y-65777000D03*
%TO.P,U402,42,~{LB}*%
%TO.N,/FPGA/~{SRAM_LB1}*%
X118894000Y-66277000D03*
%TO.P,U402,43,~{UB}*%
%TO.N,/FPGA/~{SRAM_UB1}*%
X118894000Y-66777000D03*
%TO.P,U402,44,~{OE}*%
%TO.N,GND*%
X118894000Y-67277000D03*
%TO.P,U402,45,A8*%
%TO.N,/FPGA/SRAM_A8*%
X118894000Y-67777000D03*
%TO.P,U402,46,A7*%
%TO.N,/FPGA/SRAM_A7*%
X118894000Y-68277000D03*
%TO.P,U402,47,A6*%
%TO.N,/FPGA/SRAM_A6*%
X118894000Y-68777000D03*
%TO.P,U402,48,A5*%
%TO.N,/FPGA/SRAM_A5*%
X118894000Y-69277000D03*
%TD*%
%TO.P,U401,1,A4*%
%TO.N,/FPGA/SRAM_A4*%
X129944000Y-85027000D03*
%TO.P,U401,2,A3*%
%TO.N,/FPGA/SRAM_A3*%
X129944000Y-84527000D03*
%TO.P,U401,3,A2*%
%TO.N,/FPGA/SRAM_A2*%
X129944000Y-84027000D03*
%TO.P,U401,4,A1*%
%TO.N,/FPGA/SRAM_A1*%
X129944000Y-83527000D03*
%TO.P,U401,5,A0*%
%TO.N,/FPGA/SRAM_A0*%
X129944000Y-83027000D03*
%TO.P,U401,6,NC_1*%
%TO.N,unconnected-(U401-NC_1-Pad6)*%
X129944000Y-82527000D03*
%TO.P,U401,7,~{CS}*%
%TO.N,/FPGA/~{SRAM_CS}*%
X129944000Y-82027000D03*
%TO.P,U401,8,I/O0*%
%TO.N,/FPGA/SRAM_D0*%
X129944000Y-81527000D03*
%TO.P,U401,9,I/O1*%
%TO.N,/FPGA/SRAM_D1*%
X129944000Y-81027000D03*
%TO.P,U401,10,I/O2*%
%TO.N,/FPGA/SRAM_D2*%
X129944000Y-80527000D03*
%TO.P,U401,11,I/O3*%
%TO.N,/FPGA/SRAM_D3*%
X129944000Y-80027000D03*
%TO.P,U401,12,VDD*%
%TO.N,+3V3*%
X129944000Y-79527000D03*
%TO.P,U401,13,VSS*%
%TO.N,GND*%
X129944000Y-79027000D03*
%TO.P,U401,14,I/O4*%
%TO.N,/FPGA/SRAM_D4*%
X129944000Y-78527000D03*
%TO.P,U401,15,I/O5*%
%TO.N,/FPGA/SRAM_D5*%
X129944000Y-78027000D03*
%TO.P,U401,16,I/O6*%
%TO.N,/FPGA/SRAM_D6*%
X129944000Y-77527000D03*
%TO.P,U401,17,I/O7*%
%TO.N,/FPGA/SRAM_D7*%
X129944000Y-77027000D03*
%TO.P,U401,18,~{WE}*%
%TO.N,/FPGA/~{SRAM_WE}*%
X129944000Y-76527000D03*
%TO.P,U401,19,NC_2*%
%TO.N,unconnected-(U401-NC_2-Pad19)*%
X129944000Y-76027000D03*
%TO.P,U401,20,A19*%
%TO.N,/FPGA/SRAM_A19*%
X129944000Y-75527000D03*
%TO.P,U401,21,A18*%
%TO.N,/FPGA/SRAM_A18*%
X129944000Y-75027000D03*
%TO.P,U401,22,A17*%
%TO.N,/FPGA/SRAM_A17*%
X129944000Y-74527000D03*
%TO.P,U401,23,A16*%
%TO.N,/FPGA/SRAM_A16*%
X129944000Y-74027000D03*
%TO.P,U401,24,A15*%
%TO.N,/FPGA/SRAM_A15*%
X129944000Y-73527000D03*
%TO.P,U401,25,A14*%
%TO.N,/FPGA/SRAM_A14*%
X110244000Y-73527000D03*
%TO.P,U401,26,A13*%
%TO.N,/FPGA/SRAM_A13*%
X110244000Y-74027000D03*
%TO.P,U401,27,A12*%
%TO.N,/FPGA/SRAM_A12*%
X110244000Y-74527000D03*
%TO.P,U401,28,A11*%
%TO.N,/FPGA/SRAM_A11*%
X110244000Y-75027000D03*
%TO.P,U401,29,A10*%
%TO.N,/FPGA/SRAM_A10*%
X110244000Y-75527000D03*
%TO.P,U401,30,A9*%
%TO.N,/FPGA/SRAM_A9*%
X110244000Y-76027000D03*
%TO.P,U401,31,NC_3*%
%TO.N,unconnected-(U401-NC_3-Pad31)*%
X110244000Y-76527000D03*
%TO.P,U401,32,I/O8*%
%TO.N,/FPGA/SRAM_D8*%
X110244000Y-77027000D03*
%TO.P,U401,33,I/O9*%
%TO.N,/FPGA/SRAM_D9*%
X110244000Y-77527000D03*
%TO.P,U401,34,I/O10*%
%TO.N,/FPGA/SRAM_D10*%
X110244000Y-78027000D03*
%TO.P,U401,35,I/O11*%
%TO.N,/FPGA/SRAM_D11*%
X110244000Y-78527000D03*
%TO.P,U401,36,VDD*%
%TO.N,+3V3*%
X110244000Y-79027000D03*
%TO.P,U401,37,VSS*%
%TO.N,GND*%
X110244000Y-79527000D03*
%TO.P,U401,38,I/O12*%
%TO.N,/FPGA/SRAM_D12*%
X110244000Y-80027000D03*
%TO.P,U401,39,I/O13*%
%TO.N,/FPGA/SRAM_D13*%
X110244000Y-80527000D03*
%TO.P,U401,40,I/O14*%
%TO.N,/FPGA/SRAM_D14*%
X110244000Y-81027000D03*
%TO.P,U401,41,I/O15*%
%TO.N,/FPGA/SRAM_D15*%
X110244000Y-81527000D03*
%TO.P,U401,42,~{LB}*%
%TO.N,/FPGA/~{SRAM_LB0}*%
X110244000Y-82027000D03*
%TO.P,U401,43,~{UB}*%
%TO.N,/FPGA/~{SRAM_UB0}*%
X110244000Y-82527000D03*
%TO.P,U401,44,~{OE}*%
%TO.N,GND*%
X110244000Y-83027000D03*
%TO.P,U401,45,A8*%
%TO.N,/FPGA/SRAM_A8*%
X110244000Y-83527000D03*
%TO.P,U401,46,A7*%
%TO.N,/FPGA/SRAM_A7*%
X110244000Y-84027000D03*
%TO.P,U401,47,A6*%
%TO.N,/FPGA/SRAM_A6*%
X110244000Y-84527000D03*
%TO.P,U401,48,A5*%
%TO.N,/FPGA/SRAM_A5*%
X110244000Y-85027000D03*
%TD*%
D18*
%TO.P,R6,1*%
%TO.N,+3V3*%
X220907500Y-58750000D03*
%TO.P,R6,2*%
%TO.N,/FPGA/FPGA_PROGB*%
X222732500Y-58750000D03*
%TD*%
D11*
%TO.P,C305,1*%
%TO.N,+3V3*%
X225300000Y-59020000D03*
%TO.P,C305,2*%
%TO.N,GND*%
X227200000Y-59020000D03*
%TD*%
%TO.P,C303,1*%
%TO.N,+3V3*%
X225300000Y-53000000D03*
%TO.P,C303,2*%
%TO.N,GND*%
X227200000Y-53000000D03*
%TD*%
D27*
%TO.P,Y1,1,EN*%
%TO.N,+3V3*%
X226455000Y-64100000D03*
%TO.P,Y1,2,GND*%
%TO.N,GND*%
X228995000Y-64100000D03*
%TO.P,Y1,3,O/P*%
%TO.N,/FPGA/CLK_50MHZ*%
X228995000Y-61900000D03*
%TO.P,Y1,4,VDD*%
%TO.N,+3V3*%
X226455000Y-61900000D03*
%TD*%
D11*
%TO.P,C310,1*%
%TO.N,+1V2*%
X229750000Y-59020000D03*
%TO.P,C310,2*%
%TO.N,GND*%
X231650000Y-59020000D03*
%TD*%
%TO.P,C304,1*%
%TO.N,+3V3*%
X225300000Y-56010000D03*
%TO.P,C304,2*%
%TO.N,GND*%
X227200000Y-56010000D03*
%TD*%
%TO.P,C307,1*%
%TO.N,+1V2*%
X229750000Y-49990000D03*
%TO.P,C307,2*%
%TO.N,GND*%
X231650000Y-49990000D03*
%TD*%
D28*
%TO.P,C1,1*%
%TO.N,/FPGA/FPGA_PROGB*%
X139644000Y-73327000D03*
%TO.P,C1,2*%
%TO.N,GND*%
X143244000Y-73327000D03*
%TD*%
D29*
%TO.P,D2,1,K*%
%TO.N,/FPGA/~{ACCESS_LED}*%
X197200000Y-119500000D03*
%TO.P,D2,2,A*%
%TO.N,Net-(D2-A)*%
X194400000Y-119500000D03*
%TD*%
D30*
%TO.P,J1,1,Pin_1*%
%TO.N,+3V3*%
X173544000Y-71727000D03*
D31*
%TO.P,J1,2,Pin_2*%
%TO.N,/FPGA/TCK*%
X176084000Y-71727000D03*
%TO.P,J1,3,Pin_3*%
%TO.N,/FPGA/TDI*%
X178624000Y-71727000D03*
%TO.P,J1,4,Pin_4*%
%TO.N,/FPGA/TDO*%
X181164000Y-71727000D03*
%TO.P,J1,5,Pin_5*%
%TO.N,/FPGA/TMS*%
X183704000Y-71727000D03*
%TO.P,J1,6,Pin_6*%
%TO.N,GND*%
X186244000Y-71727000D03*
%TD*%
D11*
%TO.P,C309,1*%
%TO.N,+1V2*%
X229750000Y-56010000D03*
%TO.P,C309,2*%
%TO.N,GND*%
X231650000Y-56010000D03*
%TD*%
D29*
%TO.P,D1,1,K*%
%TO.N,GND*%
X197200000Y-113500000D03*
%TO.P,D1,2,A*%
%TO.N,Net-(D1-A)*%
X194400000Y-113500000D03*
%TD*%
D10*
%TO.P,C103,1*%
%TO.N,+5V*%
X117000000Y-125800000D03*
%TO.P,C103,2*%
%TO.N,GND*%
X115100000Y-125800000D03*
%TD*%
D11*
%TO.P,C308,1*%
%TO.N,+1V2*%
X229750000Y-53000000D03*
%TO.P,C308,2*%
%TO.N,GND*%
X231650000Y-53000000D03*
%TD*%
D18*
%TO.P,R12,1*%
%TO.N,+3V3*%
X189575000Y-119500000D03*
%TO.P,R12,2*%
%TO.N,Net-(D2-A)*%
X191400000Y-119500000D03*
%TD*%
%TO.P,R5,1*%
%TO.N,+3V3*%
X220907500Y-55800000D03*
%TO.P,R5,2*%
%TO.N,/FPGA/FPGA_INITB*%
X222732500Y-55800000D03*
%TD*%
D11*
%TO.P,C301,1*%
%TO.N,+3V3*%
X225300000Y-46980000D03*
%TO.P,C301,2*%
%TO.N,GND*%
X227200000Y-46980000D03*
%TD*%
%TO.P,C401,1*%
%TO.N,+3V3*%
X236200000Y-46980000D03*
%TO.P,C401,2*%
%TO.N,GND*%
X238100000Y-46980000D03*
%TD*%
D18*
%TO.P,R7,1*%
%TO.N,+3V3*%
X141675000Y-124900000D03*
%TO.P,R7,2*%
%TO.N,/FPGA/~{BUSEN}*%
X143500000Y-124900000D03*
%TD*%
D11*
%TO.P,C306,1*%
%TO.N,+3V3*%
X229750000Y-46980000D03*
%TO.P,C306,2*%
%TO.N,GND*%
X231650000Y-46980000D03*
%TD*%
D18*
%TO.P,R2,1*%
%TO.N,/FPGA/FPGA_DONE*%
X189675000Y-113500000D03*
%TO.P,R2,2*%
%TO.N,Net-(D1-A)*%
X191500000Y-113500000D03*
%TD*%
%TO.P,R4,1*%
%TO.N,+3V3*%
X220907500Y-52850000D03*
%TO.P,R4,2*%
%TO.N,/FPGA/D11*%
X222732500Y-52850000D03*
%TD*%
D32*
%TO.P,R8,1*%
%TO.N,+3V3*%
X192500000Y-133600000D03*
%TO.P,R8,2*%
%TO.N,/FPGA/~{CPU_DATAEN}*%
X192500000Y-131775000D03*
%TD*%
D11*
%TO.P,C302,1*%
%TO.N,+3V3*%
X225300000Y-49990000D03*
%TO.P,C302,2*%
%TO.N,GND*%
X227200000Y-49990000D03*
%TD*%
%TO.P,C402,1*%
%TO.N,+3V3*%
X236200000Y-49990000D03*
%TO.P,C402,2*%
%TO.N,GND*%
X238100000Y-49990000D03*
%TD*%
D18*
%TO.P,R1,1*%
%TO.N,/FPGA/D10*%
X220907500Y-46950000D03*
%TO.P,R1,2*%
%TO.N,GND*%
X222732500Y-46950000D03*
%TD*%
D11*
%TO.P,C404,1*%
%TO.N,+3V3*%
X236200000Y-53000000D03*
%TO.P,C404,2*%
%TO.N,GND*%
X238100000Y-53000000D03*
%TD*%
D33*
%TO.P,U2,A1,GND*%
%TO.N,GND*%
X150100000Y-86200000D03*
%TO.P,U2,A2,IO_L52N_M3A9_3*%
%TO.N,/FPGA/SRAM_A1*%
X151100000Y-86200000D03*
%TO.P,U2,A3,IO_L83N_VREF_3*%
%TO.N,/FPGA/~{SRAM_CS}*%
X152100000Y-86200000D03*
%TO.P,U2,A4,IO_L1N_VREF_0*%
%TO.N,/FPGA/SRAM_D17*%
X153100000Y-86200000D03*
%TO.P,U2,A5,IO_L2N_0*%
%TO.N,/FPGA/SRAM_D20*%
X154100000Y-86200000D03*
%TO.P,U2,A6,IO_L4N_0*%
%TO.N,/FPGA/SRAM_D23*%
X155100000Y-86200000D03*
%TO.P,U2,A7,IO_L6N_0*%
%TO.N,/FPGA/~{DATACS}*%
X156100000Y-86200000D03*
%TO.P,U2,A8,IO_L33N_0*%
%TO.N,/FPGA/SRAM_A17*%
X157100000Y-86200000D03*
%TO.P,U2,A9,IO_L34N_GCLK18_0*%
%TO.N,/FPGA/SRAM_D27*%
X158100000Y-86200000D03*
%TO.P,U2,A10,IO_L35N_GCLK16_0*%
%TO.N,/FPGA/SRAM_D25*%
X159100000Y-86200000D03*
%TO.P,U2,A11,IO_L39N_0*%
%TO.N,/FPGA/SRAM_A9*%
X160100000Y-86200000D03*
%TO.P,U2,A12,IO_L62N_VREF_0*%
%TO.N,/FPGA/SRAM_A12*%
X161100000Y-86200000D03*
%TO.P,U2,A13,IO_L63N_SCP6_0*%
%TO.N,/FPGA/SRAM_A14*%
X162100000Y-86200000D03*
%TO.P,U2,A14,IO_L65N_SCP2_0*%
%TO.N,/FPGA/R0*%
X163100000Y-86200000D03*
%TO.P,U2,A15,TMS*%
%TO.N,/FPGA/TMS*%
X164100000Y-86200000D03*
%TO.P,U2,A16,GND*%
%TO.N,GND*%
X165100000Y-86200000D03*
%TO.P,U2,B1,IO_L50N_M3BA2_3*%
%TO.N,/FPGA/~{REGCS}*%
X150100000Y-87200000D03*
%TO.P,U2,B2,IO_L52P_M3A8_3*%
%TO.N,/FPGA/SRAM_A3*%
X151100000Y-87200000D03*
%TO.P,U2,B3,IO_L83P_3*%
%TO.N,/FPGA/SRAM_A0*%
X152100000Y-87200000D03*
%TO.P,U2,B4,VCCO_0*%
%TO.N,+3V3*%
X153100000Y-87200000D03*
%TO.P,U2,B5,IO_L2P_0*%
%TO.N,/FPGA/SRAM_D21*%
X154100000Y-87200000D03*
%TO.P,U2,B6,IO_L4P_0*%
%TO.N,unconnected-(U2A-IO_L4P_0-PadB6)*%
X155100000Y-87200000D03*
%TO.P,U2,B7,GND*%
%TO.N,GND*%
X156100000Y-87200000D03*
%TO.P,U2,B8,IO_L33P_0*%
%TO.N,/FPGA/SRAM_A16*%
X157100000Y-87200000D03*
%TO.P,U2,B9,VCCO_0*%
%TO.N,+3V3*%
X158100000Y-87200000D03*
%TO.P,U2,B10,IO_L35P_GCLK17_0*%
%TO.N,/FPGA/SRAM_D24*%
X159100000Y-87200000D03*
%TO.P,U2,B11,GND*%
%TO.N,GND*%
X160100000Y-87200000D03*
%TO.P,U2,B12,IO_L62P_0*%
%TO.N,/FPGA/SRAM_A13*%
X161100000Y-87200000D03*
%TO.P,U2,B13,VCCO_0*%
%TO.N,+3V3*%
X162100000Y-87200000D03*
%TO.P,U2,B14,IO_L65P_SCP3_0*%
%TO.N,/FPGA/R1*%
X163100000Y-87200000D03*
%TO.P,U2,B15,IO_L29P_A23_M1A13_1*%
%TO.N,/FPGA/R3*%
X164100000Y-87200000D03*
%TO.P,U2,B16,IO_L29N_A22_M1A14_1*%
%TO.N,/FPGA/R2*%
X165100000Y-87200000D03*
%TO.P,U2,C1,IO_L50P_M3WE_3*%
%TO.N,unconnected-(U2B-IO_L50P_M3WE_3-PadC1)*%
X150100000Y-88200000D03*
%TO.P,U2,C2,IO_L48N_M3BA1_3*%
%TO.N,/FPGA/SRAM_A4*%
X151100000Y-88200000D03*
%TO.P,U2,C3,IO_L48P_M3BA0_3*%
%TO.N,/FPGA/SRAM_A2*%
X152100000Y-88200000D03*
%TO.P,U2,C4,IO_L1P_HSWAPEN_0*%
%TO.N,/FPGA/SRAM_D16*%
X153100000Y-88200000D03*
%TO.P,U2,C5,IO_L3N_0*%
%TO.N,/FPGA/SRAM_D19*%
X154100000Y-88200000D03*
%TO.P,U2,C6,IO_L7N_0*%
%TO.N,unconnected-(U2A-IO_L7N_0-PadC6)*%
X155100000Y-88200000D03*
%TO.P,U2,C7,IO_L6P_0*%
%TO.N,/FPGA/~{SRAM_WE}*%
X156100000Y-88200000D03*
%TO.P,U2,C8,IO_L38N_VREF_0*%
%TO.N,/FPGA/SRAM_A18*%
X157100000Y-88200000D03*
%TO.P,U2,C9,IO_L34P_GCLK19_0*%
%TO.N,unconnected-(U2A-IO_L34P_GCLK19_0-PadC9)*%
X158100000Y-88200000D03*
%TO.P,U2,C10,IO_L37N_GCLK12_0*%
%TO.N,/FPGA/SRAM_D26*%
X159100000Y-88200000D03*
%TO.P,U2,C11,IO_L39P_0*%
%TO.N,/FPGA/SRAM_A10*%
X160100000Y-88200000D03*
%TO.P,U2,C12,TDI*%
%TO.N,/FPGA/TDI*%
X161100000Y-88200000D03*
%TO.P,U2,C13,IO_L63P_SCP7_0*%
%TO.N,/FPGA/R4*%
X162100000Y-88200000D03*
%TO.P,U2,C14,TCK*%
%TO.N,/FPGA/TCK*%
X163100000Y-88200000D03*
%TO.P,U2,C15,IO_L33P_A15_M1A10_1*%
%TO.N,/FPGA/R6*%
X164100000Y-88200000D03*
%TO.P,U2,C16,IO_L33N_A14_M1A4_1*%
%TO.N,/FPGA/R5*%
X165100000Y-88200000D03*
%TO.P,U2,D1,IO_L49N_M3A2_3*%
%TO.N,unconnected-(U2B-IO_L49N_M3A2_3-PadD1)*%
X150100000Y-89200000D03*
%TO.P,U2,D2,VCCO_3*%
%TO.N,+3V3*%
X151100000Y-89200000D03*
%TO.P,U2,D3,IO_L49P_M3A7_3*%
%TO.N,unconnected-(U2B-IO_L49P_M3A7_3-PadD3)*%
X152100000Y-89200000D03*
%TO.P,U2,D4,GND*%
%TO.N,GND*%
X153100000Y-89200000D03*
%TO.P,U2,D5,IO_L3P_0*%
%TO.N,/FPGA/SRAM_D18*%
X154100000Y-89200000D03*
%TO.P,U2,D6,IO_L7P_0*%
%TO.N,/FPGA/SRAM_D22*%
X155100000Y-89200000D03*
%TO.P,U2,D7,VCCO_0*%
%TO.N,+3V3*%
X156100000Y-89200000D03*
%TO.P,U2,D8,IO_L38P_0*%
%TO.N,/FPGA/SRAM_A19*%
X157100000Y-89200000D03*
%TO.P,U2,D9,IO_L40N_0*%
%TO.N,/FPGA/SRAM_A15*%
X158100000Y-89200000D03*
%TO.P,U2,D10,VCCO_0*%
%TO.N,+3V3*%
X159100000Y-89200000D03*
%TO.P,U2,D11,IO_L66P_SCP1_0*%
%TO.N,/FPGA/SRAM_A11*%
X160100000Y-89200000D03*
%TO.P,U2,D12,IO_L66N_SCP0_0*%
%TO.N,unconnected-(U2A-IO_L66N_SCP0_0-PadD12)*%
X161100000Y-89200000D03*
%TO.P,U2,D13,GND*%
%TO.N,GND*%
X162100000Y-89200000D03*
%TO.P,U2,D14,IO_L31P_A19_M1CKE_1*%
%TO.N,/FPGA/R7*%
X163100000Y-89200000D03*
%TO.P,U2,D15,VCCO_1*%
%TO.N,+3V3*%
X164100000Y-89200000D03*
%TO.P,U2,D16,IO_L31N_A18_M1A12_1*%
%TO.N,/FPGA/G0*%
X165100000Y-89200000D03*
%TO.P,U2,E1,IO_L46N_M3CLKN_3*%
%TO.N,/FPGA/SRAM_D3*%
X150100000Y-90200000D03*
%TO.P,U2,E2,IO_L46P_M3CLK_3*%
%TO.N,/FPGA/SRAM_D2*%
X151100000Y-90200000D03*
%TO.P,U2,E3,IO_L54N_M3A11_3*%
%TO.N,/FPGA/SRAM_D1*%
X152100000Y-90200000D03*
%TO.P,U2,E4,IO_L54P_M3RESET_3*%
%TO.N,/FPGA/SRAM_D0*%
X153100000Y-90200000D03*
%TO.P,U2,E5,VCCAUX*%
%TO.N,+3V3*%
X154100000Y-90200000D03*
%TO.P,U2,E6,IO_L5N_0*%
%TO.N,unconnected-(U2A-IO_L5N_0-PadE6)*%
X155100000Y-90200000D03*
%TO.P,U2,E7,IO_L36P_GCLK15_0*%
%TO.N,unconnected-(U2A-IO_L36P_GCLK15_0-PadE7)*%
X156100000Y-90200000D03*
%TO.P,U2,E8,IO_L36N_GCLK14_0*%
%TO.N,unconnected-(U2A-IO_L36N_GCLK14_0-PadE8)*%
X157100000Y-90200000D03*
%TO.P,U2,E9,GND*%
%TO.N,GND*%
X158100000Y-90200000D03*
%TO.P,U2,E10,IO_L37P_GCLK13_0*%
%TO.N,unconnected-(U2A-IO_L37P_GCLK13_0-PadE10)*%
X159100000Y-90200000D03*
%TO.P,U2,E11,IO_L64N_SCP4_0*%
%TO.N,unconnected-(U2A-IO_L64N_SCP4_0-PadE11)*%
X160100000Y-90200000D03*
%TO.P,U2,E12,IO_L1N_A24_VREF_1*%
%TO.N,unconnected-(U2A-IO_L1N_A24_VREF_1-PadE12)*%
X161100000Y-90200000D03*
%TO.P,U2,E13,IO_L1P_A25_1*%
%TO.N,/FPGA/G1*%
X162100000Y-90200000D03*
%TO.P,U2,E14,TDO*%
%TO.N,/FPGA/TDO*%
X163100000Y-90200000D03*
%TO.P,U2,E15,IO_L34P_A13_M1WE_1*%
%TO.N,/FPGA/G2*%
X164100000Y-90200000D03*
%TO.P,U2,E16,IO_L34N_A12_M1BA2_1*%
%TO.N,/FPGA/G3*%
X165100000Y-90200000D03*
%TO.P,U2,F1,IO_L41N_GCLK26_M3DQ5_3*%
%TO.N,/FPGA/SRAM_D7*%
X150100000Y-91200000D03*
%TO.P,U2,F2,IO_L41P_GCLK27_M3DQ4_3*%
%TO.N,/FPGA/SRAM_D6*%
X151100000Y-91200000D03*
%TO.P,U2,F3,IO_L53N_M3A12_3*%
%TO.N,/FPGA/SRAM_D4*%
X152100000Y-91200000D03*
%TO.P,U2,F4,IO_L53P_M3CKE_3*%
%TO.N,/FPGA/SRAM_D5*%
X153100000Y-91200000D03*
%TO.P,U2,F5,IO_L55N_M3A14_3*%
%TO.N,unconnected-(U2B-IO_L55N_M3A14_3-PadF5)*%
X154100000Y-91200000D03*
%TO.P,U2,F6,IO_L55P_M3A13_3*%
%TO.N,unconnected-(U2B-IO_L55P_M3A13_3-PadF6)*%
X155100000Y-91200000D03*
%TO.P,U2,F7,IO_L5P_0*%
%TO.N,unconnected-(U2A-IO_L5P_0-PadF7)*%
X156100000Y-91200000D03*
%TO.P,U2,F8,VCCAUX*%
%TO.N,+3V3*%
X157100000Y-91200000D03*
%TO.P,U2,F9,IO_L40P_0*%
%TO.N,unconnected-(U2A-IO_L40P_0-PadF9)*%
X158100000Y-91200000D03*
%TO.P,U2,F10,IO_L64P_SCP5_0*%
%TO.N,unconnected-(U2A-IO_L64P_SCP5_0-PadF10)*%
X159100000Y-91200000D03*
%TO.P,U2,F11,VCCAUX*%
%TO.N,+3V3*%
X160100000Y-91200000D03*
%TO.P,U2,F12,IO_L30P_A21_M1RESET_1*%
%TO.N,unconnected-(U2A-IO_L30P_A21_M1RESET_1-PadF12)*%
X161100000Y-91200000D03*
%TO.P,U2,F13,IO_L32P_A17_M1A8_1*%
%TO.N,/FPGA/G4*%
X162100000Y-91200000D03*
%TO.P,U2,F14,IO_L32N_A16_M1A9_1*%
%TO.N,/FPGA/G5*%
X163100000Y-91200000D03*
%TO.P,U2,F15,IO_L35P_A11_M1A7_1*%
%TO.N,/FPGA/G7*%
X164100000Y-91200000D03*
%TO.P,U2,F16,IO_L35N_A10_M1A2_1*%
%TO.N,/FPGA/G6*%
X165100000Y-91200000D03*
%TO.P,U2,G1,IO_L40N_M3DQ7_3*%
%TO.N,/FPGA/SRAM_D31*%
X150100000Y-92200000D03*
%TO.P,U2,G2,GND*%
%TO.N,GND*%
X151100000Y-92200000D03*
%TO.P,U2,G3,IO_L40P_M3DQ6_3*%
%TO.N,/FPGA/SRAM_D30*%
X152100000Y-92200000D03*
%TO.P,U2,G4,VCCO_3*%
%TO.N,+3V3*%
X153100000Y-92200000D03*
%TO.P,U2,G5,IO_L51N_M3A4_3*%
%TO.N,/FPGA/SRAM_D29*%
X154100000Y-92200000D03*
%TO.P,U2,G6,IO_L51P_M3A10_3*%
%TO.N,/FPGA/SRAM_D28*%
X155100000Y-92200000D03*
%TO.P,U2,G7,VCCINT*%
%TO.N,+1V2*%
X156100000Y-92200000D03*
%TO.P,U2,G8,GND*%
%TO.N,GND*%
X157100000Y-92200000D03*
%TO.P,U2,G9,VCCINT*%
%TO.N,+1V2*%
X158100000Y-92200000D03*
%TO.P,U2,G10,VCCAUX*%
%TO.N,+3V3*%
X159100000Y-92200000D03*
%TO.P,U2,G11,IO_L30N_A20_M1A11_1*%
%TO.N,unconnected-(U2A-IO_L30N_A20_M1A11_1-PadG11)*%
X160100000Y-92200000D03*
%TO.P,U2,G12,IO_L38P_A5_M1CLK_1*%
%TO.N,unconnected-(U2A-IO_L38P_A5_M1CLK_1-PadG12)*%
X161100000Y-92200000D03*
%TO.P,U2,G13,VCCO_1*%
%TO.N,+3V3*%
X162100000Y-92200000D03*
%TO.P,U2,G14,IO_L36P_A9_M1BA0_1*%
%TO.N,unconnected-(U2A-IO_L36P_A9_M1BA0_1-PadG14)*%
X163100000Y-92200000D03*
%TO.P,U2,G15,GND*%
%TO.N,GND*%
X164100000Y-92200000D03*
%TO.P,U2,G16,IO_L36N_A8_M1BA1_1*%
%TO.N,/FPGA/~{BLANK}*%
X165100000Y-92200000D03*
%TO.P,U2,H1,IO_L39N_M3LDQSN_3*%
%TO.N,/FPGA/SRAM_A5*%
X150100000Y-93200000D03*
%TO.P,U2,H2,IO_L39P_M3LDQS_3*%
%TO.N,/FPGA/~{SRAM_UB1}*%
X151100000Y-93200000D03*
%TO.P,U2,H3,IO_L44N_GCLK20_M3A6_3*%
%TO.N,/FPGA/~{SRAM_LB1}*%
X152100000Y-93200000D03*
%TO.P,U2,H4,IO_L44P_GCLK21_M3A5_3*%
%TO.N,unconnected-(U2B-IO_L44P_GCLK21_M3A5_3-PadH4)*%
X153100000Y-93200000D03*
%TO.P,U2,H5,IO_L43N_GCLK22_IRDY2_M3CASN_3*%
%TO.N,/FPGA/SRAM_A6*%
X154100000Y-93200000D03*
%TO.P,U2,H6,VCCAUX*%
%TO.N,+3V3*%
X155100000Y-93200000D03*
%TO.P,U2,H7,GND*%
%TO.N,GND*%
X156100000Y-93200000D03*
%TO.P,U2,H8,VCCINT*%
%TO.N,+1V2*%
X157100000Y-93200000D03*
%TO.P,U2,H9,GND*%
%TO.N,GND*%
X158100000Y-93200000D03*
%TO.P,U2,H10,VCCINT*%
%TO.N,+1V2*%
X159100000Y-93200000D03*
%TO.P,U2,H11,IO_L38N_A4_M1CLKN_1*%
%TO.N,unconnected-(U2A-IO_L38N_A4_M1CLKN_1-PadH11)*%
X160100000Y-93200000D03*
%TO.P,U2,H12,GND*%
%TO.N,GND*%
X161100000Y-93200000D03*
%TO.P,U2,H13,IO_L39P_M1A3_1*%
%TO.N,unconnected-(U2A-IO_L39P_M1A3_1-PadH13)*%
X162100000Y-93200000D03*
%TO.P,U2,H14,IO_L39N_M1ODT_1*%
%TO.N,unconnected-(U2A-IO_L39N_M1ODT_1-PadH14)*%
X163100000Y-93200000D03*
%TO.P,U2,H15,IO_L37P_A7_M1A0_1*%
%TO.N,/FPGA/B0*%
X164100000Y-93200000D03*
%TO.P,U2,H16,IO_L37N_A6_M1A1_1*%
%TO.N,/FPGA/B1*%
X165100000Y-93200000D03*
%TO.P,U2,J1,IO_L38N_M3DQ3_3*%
%TO.N,/FPGA/SRAM_A8*%
X150100000Y-94200000D03*
%TO.P,U2,J2,VCCO_3*%
%TO.N,+3V3*%
X151100000Y-94200000D03*
%TO.P,U2,J3,IO_L38P_M3DQ2_3*%
%TO.N,/FPGA/SRAM_A7*%
X152100000Y-94200000D03*
%TO.P,U2,J4,IO_L42N_GCLK24_M3LDM_3*%
%TO.N,/FPGA/~{RESET}*%
X153100000Y-94200000D03*
%TO.P,U2,J5,GND*%
%TO.N,GND*%
X154100000Y-94200000D03*
%TO.P,U2,J6,IO_L43P_GCLK23_M3RASN_3*%
%TO.N,unconnected-(U2B-IO_L43P_GCLK23_M3RASN_3-PadJ6)*%
X155100000Y-94200000D03*
%TO.P,U2,J7,VCCINT*%
%TO.N,+1V2*%
X156100000Y-94200000D03*
%TO.P,U2,J8,GND*%
%TO.N,GND*%
X157100000Y-94200000D03*
%TO.P,U2,J9,VCCINT*%
%TO.N,+1V2*%
X158100000Y-94200000D03*
%TO.P,U2,J10,VCCAUX*%
%TO.N,+3V3*%
X159100000Y-94200000D03*
%TO.P,U2,J11,IO_L40P_GCLK11_M1A5_1*%
%TO.N,unconnected-(U2A-IO_L40P_GCLK11_M1A5_1-PadJ11)*%
X160100000Y-94200000D03*
%TO.P,U2,J12,IO_L40N_GCLK10_M1A6_1*%
%TO.N,unconnected-(U2A-IO_L40N_GCLK10_M1A6_1-PadJ12)*%
X161100000Y-94200000D03*
%TO.P,U2,J13,IO_L41P_GCLK9_IRDY1_M1RASN_1*%
%TO.N,unconnected-(U2A-IO_L41P_GCLK9_IRDY1_M1RASN_1-PadJ13)*%
X162100000Y-94200000D03*
%TO.P,U2,J14,IO_L43P_GCLK5_M1DQ4_1*%
%TO.N,/FPGA/B2*%
X163100000Y-94200000D03*
%TO.P,U2,J15,VCCO_1*%
%TO.N,+3V3*%
X164100000Y-94200000D03*
%TO.P,U2,J16,IO_L43N_GCLK4_M1DQ5_1*%
%TO.N,/FPGA/B3*%
X165100000Y-94200000D03*
%TO.P,U2,K1,IO_L37N_M3DQ1_3*%
%TO.N,/FPGA/SRAM_D15*%
X150100000Y-95200000D03*
%TO.P,U2,K2,IO_L37P_M3DQ0_3*%
%TO.N,/FPGA/~{SRAM_LB0}*%
X151100000Y-95200000D03*
%TO.P,U2,K3,IO_L42P_GCLK25_TRDY2_M3UDM_3*%
%TO.N,/FPGA/~{SRAM_UB0}*%
X152100000Y-95200000D03*
%TO.P,U2,K4,VCCO_3*%
%TO.N,+3V3*%
X153100000Y-95200000D03*
%TO.P,U2,K5,IO_L47P_M3A0_3*%
%TO.N,/FPGA/SRAM_D14*%
X154100000Y-95200000D03*
%TO.P,U2,K6,IO_L47N_M3A1_3*%
%TO.N,unconnected-(U2B-IO_L47N_M3A1_3-PadK6)*%
X155100000Y-95200000D03*
%TO.P,U2,K7,GND*%
%TO.N,GND*%
X156100000Y-95200000D03*
%TO.P,U2,K8,VCCINT*%
%TO.N,+1V2*%
X157100000Y-95200000D03*
%TO.P,U2,K9,GND*%
%TO.N,GND*%
X158100000Y-95200000D03*
%TO.P,U2,K10,VCCINT*%
%TO.N,+1V2*%
X159100000Y-95200000D03*
%TO.P,U2,K11,IO_L42N_GCLK6_TRDY1_M1LDM_1*%
%TO.N,unconnected-(U2A-IO_L42N_GCLK6_TRDY1_M1LDM_1-PadK11)*%
X160100000Y-95200000D03*
%TO.P,U2,K12,IO_L42P_GCLK7_M1UDM_1*%
%TO.N,unconnected-(U2A-IO_L42P_GCLK7_M1UDM_1-PadK12)*%
X161100000Y-95200000D03*
%TO.P,U2,K13,VCCO_1*%
%TO.N,+3V3*%
X162100000Y-95200000D03*
%TO.P,U2,K14,IO_L41N_GCLK8_M1CASN_1*%
%TO.N,/FPGA/B4*%
X163100000Y-95200000D03*
%TO.P,U2,K15,IO_L44P_A3_M1DQ6_1*%
%TO.N,/FPGA/B5*%
X164100000Y-95200000D03*
%TO.P,U2,K16,IO_L44N_A2_M1DQ7_1*%
%TO.N,/FPGA/B6*%
X165100000Y-95200000D03*
%TO.P,U2,L1,IO_L36N_M3DQ9_3*%
%TO.N,/FPGA/SRAM_D12*%
X150100000Y-96200000D03*
%TO.P,U2,L2,GND*%
%TO.N,GND*%
X151100000Y-96200000D03*
%TO.P,U2,L3,IO_L36P_M3DQ8_3*%
%TO.N,/FPGA/SRAM_D13*%
X152100000Y-96200000D03*
%TO.P,U2,L4,IO_L45P_M3A3_3*%
%TO.N,/FPGA/SRAM_D11*%
X153100000Y-96200000D03*
%TO.P,U2,L5,IO_L45N_M3ODT_3*%
%TO.N,/FPGA/SRAM_D10*%
X154100000Y-96200000D03*
%TO.P,U2,L6,VCCAUX*%
%TO.N,+3V3*%
X155100000Y-96200000D03*
%TO.P,U2,L7,IO_L62N_D6_2*%
%TO.N,unconnected-(U2B-IO_L62N_D6_2-PadL7)*%
X156100000Y-96200000D03*
%TO.P,U2,L8,IO_L62P_D5_2*%
%TO.N,unconnected-(U2B-IO_L62P_D5_2-PadL8)*%
X157100000Y-96200000D03*
%TO.P,U2,L9,VCCAUX*%
%TO.N,+3V3*%
X158100000Y-96200000D03*
%TO.P,U2,L10,IO_L16P_2*%
%TO.N,unconnected-(U2B-IO_L16P_2-PadL10)*%
X159100000Y-96200000D03*
%TO.P,U2,L11,CMPCS_B_2*%
%TO.N,unconnected-(U2C-CMPCS_B_2-PadL11)*%
X160100000Y-96200000D03*
%TO.P,U2,L12,IO_L53P_1*%
%TO.N,unconnected-(U2A-IO_L53P_1-PadL12)*%
X161100000Y-96200000D03*
%TO.P,U2,L13,IO_L53N_VREF_1*%
%TO.N,unconnected-(U2A-IO_L53N_VREF_1-PadL13)*%
X162100000Y-96200000D03*
%TO.P,U2,L14,IO_L47P_FWE_B_M1DQ0_1*%
%TO.N,/FPGA/B7*%
X163100000Y-96200000D03*
%TO.P,U2,L15,GND*%
%TO.N,GND*%
X164100000Y-96200000D03*
%TO.P,U2,L16,IO_L47N_LDC_M1DQ1_1*%
%TO.N,unconnected-(U2A-IO_L47N_LDC_M1DQ1_1-PadL16)*%
X165100000Y-96200000D03*
%TO.P,U2,M1,IO_L35N_M3DQ11_3*%
%TO.N,/FPGA/SRAM_D9*%
X150100000Y-97200000D03*
%TO.P,U2,M2,IO_L35P_M3DQ10_3*%
%TO.N,/FPGA/SRAM_D8*%
X151100000Y-97200000D03*
%TO.P,U2,M3,IO_L1N_VREF_3*%
%TO.N,/FPGA/~{LDS}*%
X152100000Y-97200000D03*
%TO.P,U2,M4,IO_L1P_3*%
%TO.N,/FPGA/~{UDS}*%
X153100000Y-97200000D03*
%TO.P,U2,M5,IO_L2P_3*%
%TO.N,/FPGA/A19*%
X154100000Y-97200000D03*
%TO.P,U2,M6,IO_L64P_D8_2*%
%TO.N,/FPGA/A18*%
X155100000Y-97200000D03*
%TO.P,U2,M7,IO_L31N_GCLK30_D15_2*%
%TO.N,/FPGA/HOST_CLK*%
X156100000Y-97200000D03*
%TO.P,U2,M8,GND*%
%TO.N,GND*%
X157100000Y-97200000D03*
%TO.P,U2,M9,IO_L29P_GCLK3_2*%
%TO.N,/FPGA/DATA_DIR*%
X158100000Y-97200000D03*
%TO.P,U2,M10,IO_L16N_VREF_2*%
%TO.N,/FPGA/D12*%
X159100000Y-97200000D03*
%TO.P,U2,M11,IO_L2N_CMPMOSI_2*%
%TO.N,/FPGA/D8*%
X160100000Y-97200000D03*
%TO.P,U2,M12,IO_L2P_CMPCLK_2*%
%TO.N,/FPGA/D6*%
X161100000Y-97200000D03*
%TO.P,U2,M13,IO_L74P_AWAKE_1*%
%TO.N,/FPGA/HSYNC*%
X162100000Y-97200000D03*
%TO.P,U2,M14,IO_L74N_DOUT_BUSY_1*%
%TO.N,/FPGA/VSYNC*%
X163100000Y-97200000D03*
%TO.P,U2,M15,IO_L46P_FCS_B_M1DQ2_1*%
%TO.N,/FPGA/PIXELCLOCK*%
X164100000Y-97200000D03*
%TO.P,U2,M16,IO_L46N_FOE_B_M1DQ3_1*%
%TO.N,unconnected-(U2A-IO_L46N_FOE_B_M1DQ3_1-PadM16)*%
X165100000Y-97200000D03*
%TO.P,U2,N1,IO_L34N_M3UDQSN_3*%
%TO.N,/~{CPU_IRQ}*%
X150100000Y-98200000D03*
%TO.P,U2,N2,VCCO_3*%
%TO.N,+3V3*%
X151100000Y-98200000D03*
%TO.P,U2,N3,IO_L34P_M3UDQS_3*%
%TO.N,/FPGA/A17*%
X152100000Y-98200000D03*
%TO.P,U2,N4,IO_L2N_3*%
%TO.N,/FPGA/A16*%
X153100000Y-98200000D03*
%TO.P,U2,N5,IO_L49P_D3_2*%
%TO.N,/FPGA/A13*%
X154100000Y-98200000D03*
%TO.P,U2,N6,IO_L64N_D9_2*%
%TO.N,/FPGA/A9*%
X155100000Y-98200000D03*
%TO.P,U2,N7,VCCO_2*%
%TO.N,+3V3*%
X156100000Y-98200000D03*
%TO.P,U2,N8,IO_L29N_GCLK2_2*%
%TO.N,/FPGA/A3*%
X157100000Y-98200000D03*
%TO.P,U2,N9,IO_L14P_D11_2*%
%TO.N,/FPGA/D13*%
X158100000Y-98200000D03*
%TO.P,U2,N10,VCCO_2*%
%TO.N,+3V3*%
X159100000Y-98200000D03*
%TO.P,U2,N11,IO_L13P_M1_2*%
%TO.N,/FPGA/D10*%
X160100000Y-98200000D03*
%TO.P,U2,N12,IO_L12P_D1_MISO2_2*%
%TO.N,/FPGA/D7*%
X161100000Y-98200000D03*
%TO.P,U2,N13,GND*%
%TO.N,GND*%
X162100000Y-98200000D03*
%TO.P,U2,N14,IO_L45P_A1_M1LDQS_1*%
%TO.N,/FPGA/D0*%
X163100000Y-98200000D03*
%TO.P,U2,N15,VCCO_1*%
%TO.N,+3V3*%
X164100000Y-98200000D03*
%TO.P,U2,N16,IO_L45N_A0_M1LDQSN_1*%
%TO.N,unconnected-(U2A-IO_L45N_A0_M1LDQSN_1-PadN16)*%
X165100000Y-98200000D03*
%TO.P,U2,P1,IO_L33N_M3DQ13_3*%
%TO.N,/~{CPU_DTACK}*%
X150100000Y-99200000D03*
%TO.P,U2,P2,IO_L33P_M3DQ12_3*%
%TO.N,/FPGA/R~{W}*%
X151100000Y-99200000D03*
%TO.P,U2,P3,GND*%
%TO.N,GND*%
X152100000Y-99200000D03*
%TO.P,U2,P4,IO_L63P_2*%
%TO.N,/FPGA/A15*%
X153100000Y-99200000D03*
%TO.P,U2,P5,IO_L49N_D4_2*%
%TO.N,/FPGA/A10*%
X154100000Y-99200000D03*
%TO.P,U2,P6,IO_L47P_2*%
%TO.N,/FPGA/A7*%
X155100000Y-99200000D03*
%TO.P,U2,P7,IO_L31P_GCLK31_D14_2*%
%TO.N,/FPGA/A6*%
X156100000Y-99200000D03*
%TO.P,U2,P8,IO_L30P_GCLK1_D13_2*%
%TO.N,/FPGA/A2*%
X157100000Y-99200000D03*
%TO.P,U2,P9,IO_L14N_D12_2*%
%TO.N,/FPGA/A1*%
X158100000Y-99200000D03*
%TO.P,U2,P10,IO_L3P_D0_DIN_MISO_MISO1_2*%
%TO.N,/FPGA/FLASH_DO*%
X159100000Y-99200000D03*
%TO.P,U2,P11,IO_L13N_D10_2*%
%TO.N,/FPGA/D9*%
X160100000Y-99200000D03*
%TO.P,U2,P12,IO_L12N_D2_MISO3_2*%
%TO.N,unconnected-(U2B-IO_L12N_D2_MISO3_2-PadP12)*%
X161100000Y-99200000D03*
%TO.P,U2,P13,DONE_2*%
%TO.N,/FPGA/FPGA_DONE*%
X162100000Y-99200000D03*
%TO.P,U2,P14,SUSPEND*%
%TO.N,GND*%
X163100000Y-99200000D03*
%TO.P,U2,P15,IO_L48P_HDC_M1DQ8_1*%
%TO.N,/FPGA/D1*%
X164100000Y-99200000D03*
%TO.P,U2,P16,IO_L48N_M1DQ9_1*%
%TO.N,/FPGA/~{CPU_DATAEN}*%
X165100000Y-99200000D03*
%TO.P,U2,R1,IO_L32N_M3DQ15_3*%
%TO.N,/FPGA/~{ACCESS_LED}*%
X150100000Y-100200000D03*
%TO.P,U2,R2,IO_L32P_M3DQ14_3*%
%TO.N,/FPGA/~{AS}*%
X151100000Y-100200000D03*
%TO.P,U2,R3,IO_L65P_INIT_B_2*%
%TO.N,/FPGA/FPGA_INITB*%
X152100000Y-100200000D03*
%TO.P,U2,R4,VCCO_2*%
%TO.N,+3V3*%
X153100000Y-100200000D03*
%TO.P,U2,R5,IO_L48P_D7_2*%
%TO.N,/FPGA/A12*%
X154100000Y-100200000D03*
%TO.P,U2,R6,GND*%
%TO.N,GND*%
X155100000Y-100200000D03*
%TO.P,U2,R7,IO_L32P_GCLK29_2*%
%TO.N,/FPGA/A4*%
X156100000Y-100200000D03*
%TO.P,U2,R8,VCCO_2*%
%TO.N,+3V3*%
X157100000Y-100200000D03*
%TO.P,U2,R9,IO_L23P_2*%
%TO.N,/FPGA/D14*%
X158100000Y-100200000D03*
%TO.P,U2,R10,GND*%
%TO.N,GND*%
X159100000Y-100200000D03*
%TO.P,U2,R11,IO_L1P_CCLK_2*%
%TO.N,/FPGA/FLASH_CLK*%
X160100000Y-100200000D03*
%TO.P,U2,R12,IO_L52P_M1DQ14_1*%
%TO.N,unconnected-(U2A-IO_L52P_M1DQ14_1-PadR12)*%
X161100000Y-100200000D03*
%TO.P,U2,R13,VCCO_1*%
%TO.N,+3V3*%
X162100000Y-100200000D03*
%TO.P,U2,R14,IO_L50P_M1UDQS_1*%
%TO.N,/FPGA/D4*%
X163100000Y-100200000D03*
%TO.P,U2,R15,IO_L49P_M1DQ10_1*%
%TO.N,/FPGA/D3*%
X164100000Y-100200000D03*
%TO.P,U2,R16,IO_L49N_M1DQ11_1*%
%TO.N,/FPGA/D2*%
X165100000Y-100200000D03*
%TO.P,U2,T1,GND*%
%TO.N,GND*%
X150100000Y-101200000D03*
%TO.P,U2,T2,PROGRAM_B_2*%
%TO.N,/FPGA/FPGA_PROGB*%
X151100000Y-101200000D03*
%TO.P,U2,T3,IO_L65N_CSO_B_2*%
%TO.N,/FPGA/~{FLASH_CS}*%
X152100000Y-101200000D03*
%TO.P,U2,T4,IO_L63N_2*%
%TO.N,/FPGA/A14*%
X153100000Y-101200000D03*
%TO.P,U2,T5,IO_L48N_RDWR_B_VREF_2*%
%TO.N,/FPGA/A11*%
X154100000Y-101200000D03*
%TO.P,U2,T6,IO_L47N_2*%
%TO.N,/FPGA/A8*%
X155100000Y-101200000D03*
%TO.P,U2,T7,IO_L32N_GCLK28_2*%
%TO.N,/FPGA/A5*%
X156100000Y-101200000D03*
%TO.P,U2,T8,IO_L30N_GCLK0_USERCCLK_2*%
%TO.N,/FPGA/CLK_50MHZ*%
X157100000Y-101200000D03*
%TO.P,U2,T9,IO_L23N_2*%
%TO.N,/FPGA/D15*%
X158100000Y-101200000D03*
%TO.P,U2,T10,IO_L3N_MOSI_CSI_B_MISO0_2*%
%TO.N,/FPGA/FLASH_DI*%
X159100000Y-101200000D03*
%TO.P,U2,T11,IO_L1N_M0_CMPMISO_2*%
%TO.N,/FPGA/D11*%
X160100000Y-101200000D03*
%TO.P,U2,T12,IO_L52N_M1DQ15_1*%
%TO.N,unconnected-(U2A-IO_L52N_M1DQ15_1-PadT12)*%
X161100000Y-101200000D03*
%TO.P,U2,T13,IO_L51N_M1DQ13_1*%
%TO.N,unconnected-(U2A-IO_L51N_M1DQ13_1-PadT13)*%
X162100000Y-101200000D03*
%TO.P,U2,T14,IO_L51P_M1DQ12_1*%
%TO.N,/FPGA/~{BUSEN}*%
X163100000Y-101200000D03*
%TO.P,U2,T15,IO_L50N_M1UDQSN_1*%
%TO.N,/FPGA/D5*%
X164100000Y-101200000D03*
%TO.P,U2,T16,GND*%
%TO.N,GND*%
X165100000Y-101200000D03*
%TD*%
D34*
%TO.N,+5V*%
X167000000Y-132500000D03*
X131300000Y-132400000D03*
X143500000Y-132400000D03*
X119000000Y-132700000D03*
X179800000Y-132500000D03*
X104990000Y-135590000D03*
X155000000Y-132400000D03*
D35*
%TO.N,+1V2*%
X158400000Y-93900000D03*
X158400000Y-92500000D03*
D34*
X108844000Y-111827000D03*
D35*
X158800000Y-94900000D03*
D34*
X111444000Y-108827000D03*
D35*
X156400000Y-92500000D03*
X156800000Y-92900000D03*
D34*
X105944000Y-108827000D03*
D35*
X158800000Y-93500000D03*
X156400000Y-93900000D03*
X156800000Y-95500000D03*
%TO.N,/FPGA/TCK*%
X169800000Y-79100000D03*
X163500000Y-88300000D03*
%TO.N,/FPGA/TDO*%
X162900000Y-90000000D03*
X170300000Y-78300000D03*
D34*
%TO.N,/FPGA/TDI*%
X144444000Y-70327000D03*
D35*
%TO.N,/FPGA/TMS*%
X172700000Y-81815000D03*
X168000000Y-86100000D03*
D34*
%TO.N,Net-(J501-Pad13)*%
X191300000Y-101900000D03*
%TO.N,/FPGA/~{FLASH_CS}*%
X131950000Y-112500000D03*
D35*
X145800000Y-108600000D03*
X149900000Y-108600000D03*
%TO.N,/FPGA/~{CPU_DATAEN}*%
X170700000Y-104400000D03*
D34*
X190625000Y-131775000D03*
%TO.N,/FPGA/HOST_CLK*%
X127950000Y-112950000D03*
%TO.N,/FPGA/~{LDS}*%
X112000000Y-121100000D03*
X124400000Y-121100000D03*
%TO.N,/FPGA/~{UDS}*%
X128900000Y-109550000D03*
D35*
X152800000Y-97600000D03*
%TO.N,/FPGA/~{RESET}*%
X142100000Y-94300000D03*
D34*
X123200000Y-122200000D03*
D35*
X152700000Y-94600000D03*
D34*
X103300000Y-122200000D03*
X113800000Y-93400000D03*
X102700000Y-103300000D03*
%TO.N,/FPGA/~{REGCS}*%
X141600000Y-76700000D03*
X122150000Y-109300000D03*
%TO.N,/FPGA/~{DATACS}*%
X126000000Y-108000000D03*
X157200000Y-74100000D03*
%TO.N,Net-(U302-WP{slash}IO2)*%
X130400000Y-115750000D03*
%TO.N,Net-(U302-HOLD{slash}IO3)*%
X142400000Y-114750000D03*
D35*
%TO.N,/FPGA/DATA_DIR*%
X157600000Y-97700000D03*
D34*
X178100000Y-135900000D03*
X165300000Y-135900000D03*
%TO.N,/FPGA/~{ACCESS_LED}*%
X197350000Y-122000000D03*
X120250000Y-123200000D03*
%TO.N,/FPGA/FPGA_DONE*%
X189700000Y-110600000D03*
X182600000Y-110600000D03*
%TO.N,/FPGA/FLASH_DI*%
X144750000Y-114400000D03*
X147800000Y-114400000D03*
%TO.N,/FPGA/FLASH_CLK*%
X141200000Y-116050000D03*
D35*
%TO.N,/FPGA/SRAM_D5*%
X152600000Y-90700000D03*
X141000000Y-85315000D03*
%TO.N,/FPGA/SRAM_D0*%
X141400000Y-81815000D03*
X152600000Y-89700000D03*
%TO.N,/FPGA/SRAM_D28*%
X140900000Y-88315000D03*
X154700000Y-91700000D03*
%TO.N,/FPGA/A19*%
X147300000Y-107700000D03*
X153700000Y-97600000D03*
%TO.N,/FPGA/A18*%
X149300000Y-108200000D03*
X154700000Y-97700000D03*
D34*
%TO.N,/FPGA/D14*%
X134100000Y-123150000D03*
X163950000Y-124550000D03*
D35*
%TO.N,GND*%
X149800000Y-101500000D03*
D34*
X106500000Y-113700000D03*
X161900000Y-132300000D03*
X115644000Y-66827000D03*
D35*
X161800000Y-88900000D03*
D34*
X132044000Y-78527000D03*
D35*
X156400000Y-94900000D03*
D34*
X107050000Y-130750000D03*
D35*
X157400000Y-91900000D03*
X156100000Y-86800000D03*
D34*
X112744000Y-82427000D03*
X138000000Y-129800000D03*
D35*
X165600000Y-86200000D03*
D34*
X106500000Y-116600000D03*
D35*
X161400000Y-92900000D03*
X159800000Y-87500000D03*
D34*
X148800000Y-130100000D03*
X111340000Y-130440000D03*
X188844000Y-94827000D03*
X180344000Y-89527000D03*
D35*
X163500000Y-99000000D03*
D34*
X185444000Y-90427000D03*
X186300000Y-132000000D03*
X125500000Y-132400000D03*
D35*
X157400000Y-96900000D03*
X157400000Y-94500000D03*
X149800000Y-86000000D03*
D34*
X160900000Y-130000000D03*
X135150000Y-109750000D03*
D35*
X152800000Y-88900000D03*
D34*
X106544000Y-106327000D03*
X116444000Y-109827000D03*
X173700000Y-132500000D03*
D35*
X165500000Y-101600000D03*
D34*
X182744000Y-80627000D03*
D35*
X153800000Y-94500000D03*
X163800000Y-91900000D03*
D34*
X111644000Y-105227000D03*
X136344000Y-62727000D03*
X181844000Y-93427000D03*
X112744000Y-79527000D03*
D35*
X162300000Y-98600000D03*
X157800000Y-90500000D03*
D34*
X130200000Y-117700000D03*
X150100000Y-132400000D03*
X107900000Y-118700000D03*
D35*
X163800000Y-96500000D03*
X155100000Y-99800000D03*
X150700000Y-96200000D03*
D34*
X173400000Y-129900000D03*
D35*
X157800000Y-95500000D03*
X150800000Y-92200000D03*
X155800000Y-93500000D03*
D34*
X124300000Y-129900000D03*
D35*
X152100000Y-99600000D03*
X159100000Y-99800000D03*
D34*
X137900000Y-132400000D03*
X106300000Y-140800000D03*
X181844000Y-90027000D03*
X197200000Y-111700000D03*
X143244000Y-75000000D03*
X116244000Y-64327000D03*
D35*
X157800000Y-92900000D03*
D34*
X186900000Y-129800000D03*
%TO.N,+3V3*%
X155100000Y-129900000D03*
X136400000Y-117600000D03*
X188400000Y-119500000D03*
D35*
X162100000Y-99800000D03*
D34*
X143450000Y-129800000D03*
D35*
X162400000Y-92500000D03*
X158400000Y-96500000D03*
X157100000Y-99900000D03*
D34*
X179344000Y-95727000D03*
D35*
X159400000Y-94500000D03*
X155400000Y-95900000D03*
D34*
X132044000Y-80127000D03*
X116244000Y-62927000D03*
X183694000Y-91677000D03*
D35*
X154800000Y-92900000D03*
D34*
X111144000Y-113727000D03*
X136344000Y-64127000D03*
D35*
X159800000Y-91500000D03*
D34*
X131200000Y-129800000D03*
D35*
X163700000Y-94200000D03*
D34*
X185444000Y-92027000D03*
D35*
X154400000Y-89900000D03*
X153400000Y-92500000D03*
X151400000Y-88900000D03*
D34*
X136625000Y-113475000D03*
X111144000Y-116927000D03*
D35*
X158800000Y-91900000D03*
D34*
X133150000Y-109650000D03*
D35*
X155700000Y-89600000D03*
X156800000Y-90900000D03*
X162400000Y-94900000D03*
D34*
X166800000Y-129800000D03*
D35*
X161800000Y-87500000D03*
D34*
X186944000Y-80927000D03*
X193600000Y-133600000D03*
D35*
X158800000Y-97900000D03*
X153300000Y-95000000D03*
D34*
X112744000Y-78027000D03*
D35*
X159400000Y-89500000D03*
X153100000Y-99900000D03*
D34*
X180500000Y-129900000D03*
D35*
X163700000Y-89200000D03*
D36*
X150700000Y-94200000D03*
D35*
X158100000Y-87600000D03*
X155800000Y-97900000D03*
X153100000Y-86800000D03*
D34*
X118900000Y-129900000D03*
D35*
X150800000Y-98500000D03*
D34*
X178744000Y-80527000D03*
%TD*%
D37*
%TO.N,+5V*%
X155475000Y-132525000D02*
X155475000Y-133870000D01*
X166960000Y-132740000D02*
X166960000Y-133870000D01*
X119275000Y-132975000D02*
X119275000Y-133870000D01*
X104990000Y-133475000D02*
X104990000Y-128525000D01*
X154825000Y-132575000D02*
X155000000Y-132400000D01*
X104990000Y-133475000D02*
X104990000Y-135590000D01*
X167000000Y-132500000D02*
X167000000Y-132700000D01*
X131675000Y-132725000D02*
X131675000Y-133870000D01*
X179800000Y-132500000D02*
X179825000Y-132525000D01*
X104700000Y-126500000D02*
X105100000Y-126900000D01*
X143225000Y-133870000D02*
X143875000Y-133870000D01*
X104700000Y-125400000D02*
X104700000Y-126500000D01*
X104990000Y-136960000D02*
X104990000Y-135590000D01*
X104450000Y-137500000D02*
X104990000Y-136960000D01*
X117000000Y-125800000D02*
X117000000Y-131300000D01*
X179825000Y-132525000D02*
X179825000Y-133870000D01*
X143875000Y-132775000D02*
X143875000Y-133870000D01*
X117000000Y-131300000D02*
X118400000Y-132700000D01*
X155000000Y-132400000D02*
X155350000Y-132400000D01*
X104450000Y-139600000D02*
X104450000Y-137500000D01*
X131025000Y-133870000D02*
X131675000Y-133870000D01*
X167000000Y-132700000D02*
X166960000Y-132740000D01*
X131300000Y-132400000D02*
X131350000Y-132400000D01*
X155350000Y-132400000D02*
X155475000Y-132525000D01*
X119275000Y-133870000D02*
X118625000Y-133870000D01*
X143500000Y-132400000D02*
X143875000Y-132775000D01*
X118400000Y-132700000D02*
X119000000Y-132700000D01*
X106260000Y-128525000D02*
X104990000Y-128525000D01*
X105100000Y-128415000D02*
X104990000Y-128525000D01*
X105100000Y-126900000D02*
X105100000Y-128415000D01*
X119000000Y-132700000D02*
X119275000Y-132975000D01*
X154825000Y-133870000D02*
X154825000Y-132575000D01*
X131350000Y-132400000D02*
X131675000Y-132725000D01*
D38*
%TO.N,+1V2*%
X108844000Y-105377000D02*
X108844000Y-107227000D01*
X113344000Y-106927000D02*
X113344000Y-105427000D01*
D39*
X158100000Y-94200000D02*
X158400000Y-93900000D01*
D38*
X105944000Y-108827000D02*
X108844000Y-108827000D01*
D39*
X159100000Y-93200000D02*
X158800000Y-93500000D01*
D37*
X108794000Y-105327000D02*
X108844000Y-105377000D01*
D38*
X108844000Y-115127000D02*
X108844000Y-111827000D01*
X104681500Y-105327000D02*
X104681500Y-107564500D01*
D39*
X159100000Y-95200000D02*
X158800000Y-94900000D01*
D38*
X108844000Y-107227000D02*
X108844000Y-108827000D01*
D39*
X156100000Y-92200000D02*
X156400000Y-92500000D01*
D38*
X111444000Y-108827000D02*
X113344000Y-106927000D01*
X108844000Y-111827000D02*
X108844000Y-108827000D01*
D39*
X157100000Y-95200000D02*
X156800000Y-95500000D01*
D38*
X114244000Y-104527000D02*
X116444000Y-104527000D01*
D39*
X156100000Y-94200000D02*
X156400000Y-93900000D01*
D38*
X108844000Y-108827000D02*
X111444000Y-108827000D01*
D39*
X158100000Y-92200000D02*
X158400000Y-92500000D01*
D38*
X104681500Y-107564500D02*
X105944000Y-108827000D01*
X113344000Y-105427000D02*
X114244000Y-104527000D01*
D39*
X157100000Y-93200000D02*
X156800000Y-92900000D01*
D37*
%TO.N,Net-(U501-COMP)*%
X187320000Y-89575000D02*
X188596000Y-89575000D01*
X190000000Y-80183000D02*
X188844000Y-79027000D01*
X190000000Y-88171000D02*
X190000000Y-80183000D01*
X188596000Y-89575000D02*
X190000000Y-88171000D01*
%TO.N,Net-(U501-VREF)*%
X188844000Y-88527000D02*
X188844000Y-82827000D01*
X187320000Y-89075000D02*
X188296000Y-89075000D01*
X188296000Y-89075000D02*
X188844000Y-88527000D01*
D40*
%TO.N,Net-(D1-A)*%
X194400000Y-113500000D02*
X191500000Y-113500000D01*
%TO.N,Net-(D2-A)*%
X191400000Y-119500000D02*
X194400000Y-119500000D01*
D37*
%TO.N,/~{CPU_DATACS}*%
X122936000Y-139700000D02*
X122936000Y-138744000D01*
X122936000Y-138744000D02*
X120575000Y-136383000D01*
X120575000Y-136383000D02*
X120575000Y-133870000D01*
%TO.N,/~{CPU_RESET}*%
X124882520Y-136880520D02*
X122850520Y-136880520D01*
X125476000Y-137474000D02*
X124882520Y-136880520D01*
X121875000Y-135905000D02*
X121875000Y-133870000D01*
X122850520Y-136880520D02*
X121875000Y-135905000D01*
X125476000Y-139700000D02*
X125476000Y-137474000D01*
%TO.N,/~{CPU_UDS}*%
X128016000Y-139700000D02*
X128016000Y-136839000D01*
X123175000Y-135427000D02*
X123175000Y-133870000D01*
X123786000Y-136038000D02*
X123175000Y-135427000D01*
X127215000Y-136038000D02*
X123786000Y-136038000D01*
X128016000Y-136839000D02*
X127215000Y-136038000D01*
%TO.N,/CPU_CLK*%
X132325000Y-133870000D02*
X132325000Y-135306000D01*
X132325000Y-135306000D02*
X133096000Y-136077000D01*
X133096000Y-136077000D02*
X133096000Y-139700000D01*
D40*
%TO.N,/FPGA/TCK*%
X170544000Y-74527000D02*
X175744000Y-74527000D01*
D41*
X163400000Y-88200000D02*
X163500000Y-88300000D01*
D40*
X176084000Y-74187000D02*
X176084000Y-71727000D01*
X175744000Y-74527000D02*
X176084000Y-74187000D01*
X169800000Y-75271000D02*
X170544000Y-74527000D01*
D41*
X163100000Y-88200000D02*
X163400000Y-88200000D01*
D40*
X169800000Y-79100000D02*
X169800000Y-75271000D01*
%TO.N,/FPGA/TDO*%
X180644000Y-75227000D02*
X181164000Y-74707000D01*
X181164000Y-74707000D02*
X181164000Y-71727000D01*
X170300000Y-75971000D02*
X171044000Y-75227000D01*
X170300000Y-78300000D02*
X170300000Y-75971000D01*
D41*
X163100000Y-90200000D02*
X162900000Y-90000000D01*
D40*
X171044000Y-75227000D02*
X180644000Y-75227000D01*
D37*
%TO.N,/CPU_A18*%
X136875000Y-134776000D02*
X140716000Y-138617000D01*
X140716000Y-138617000D02*
X140716000Y-139700000D01*
X136875000Y-133870000D02*
X136875000Y-134776000D01*
%TO.N,/CPU_A16*%
X144525000Y-136127000D02*
X143256000Y-137396000D01*
X143256000Y-137396000D02*
X143256000Y-139700000D01*
X144525000Y-133870000D02*
X144525000Y-136127000D01*
%TO.N,/CPU_A14*%
X145825000Y-133870000D02*
X145825000Y-139671000D01*
X145825000Y-139671000D02*
X145796000Y-139700000D01*
%TO.N,/CPU_A12*%
X147125000Y-133870000D02*
X147125000Y-136263000D01*
X148336000Y-137474000D02*
X148336000Y-139700000D01*
X147125000Y-136263000D02*
X148336000Y-137474000D01*
%TO.N,/CPU_A10*%
X148425000Y-135404000D02*
X150876000Y-137855000D01*
X150876000Y-137855000D02*
X150876000Y-139700000D01*
X148425000Y-133870000D02*
X148425000Y-135404000D01*
%TO.N,/CPU_A8*%
X153416000Y-137884000D02*
X153416000Y-139700000D01*
X156125000Y-133870000D02*
X156125000Y-135175000D01*
X156125000Y-135175000D02*
X153416000Y-137884000D01*
%TO.N,/CPU_A6*%
X155956000Y-138158000D02*
X155956000Y-139700000D01*
X157425000Y-136689000D02*
X155956000Y-138158000D01*
X157425000Y-133870000D02*
X157425000Y-136689000D01*
%TO.N,/CPU_A4*%
X158725000Y-138183000D02*
X158496000Y-138412000D01*
X158725000Y-133870000D02*
X158725000Y-138183000D01*
X158496000Y-138412000D02*
X158496000Y-139700000D01*
%TO.N,/CPU_A2*%
X160025000Y-136463000D02*
X161036000Y-137474000D01*
X161036000Y-137474000D02*
X161036000Y-139700000D01*
X160025000Y-133870000D02*
X160025000Y-136463000D01*
%TO.N,/CPU_D15*%
X166116000Y-137650000D02*
X166116000Y-139700000D01*
X168260000Y-133870000D02*
X168260000Y-135506000D01*
X168260000Y-135506000D02*
X166116000Y-137650000D01*
%TO.N,/CPU_D13*%
X168656000Y-138412000D02*
X168656000Y-139700000D01*
X169560000Y-137508000D02*
X168656000Y-138412000D01*
X169560000Y-133870000D02*
X169560000Y-137508000D01*
%TO.N,/CPU_D11*%
X171196000Y-139700000D02*
X171196000Y-137220000D01*
X170860000Y-136884000D02*
X170860000Y-133870000D01*
X171196000Y-137220000D02*
X170860000Y-136884000D01*
%TO.N,/CPU_D9*%
X173736000Y-136966000D02*
X173736000Y-139700000D01*
X172160000Y-133870000D02*
X172160000Y-135390000D01*
X172160000Y-135390000D02*
X173736000Y-136966000D01*
%TO.N,/CPU_D7*%
X176276000Y-137904000D02*
X176872000Y-137308000D01*
X181125000Y-135275000D02*
X181125000Y-133870000D01*
X176276000Y-139700000D02*
X176276000Y-137904000D01*
X176872000Y-137308000D02*
X179092000Y-137308000D01*
X179092000Y-137308000D02*
X181125000Y-135275000D01*
%TO.N,/CPU_D5*%
X178816000Y-139284000D02*
X182425000Y-135675000D01*
X178816000Y-139700000D02*
X178816000Y-139284000D01*
X182425000Y-135675000D02*
X182425000Y-133870000D01*
%TO.N,/CPU_D3*%
X183725000Y-136575000D02*
X181356000Y-138944000D01*
X181356000Y-138944000D02*
X181356000Y-139700000D01*
X183725000Y-133870000D02*
X183725000Y-136575000D01*
%TO.N,/CPU_D1*%
X183896000Y-138158000D02*
X183896000Y-139700000D01*
X185025000Y-133870000D02*
X185025000Y-137029000D01*
X185025000Y-137029000D02*
X183896000Y-138158000D01*
D40*
%TO.N,/FPGA/TDI*%
X145300000Y-71183000D02*
X144444000Y-70327000D01*
X145300000Y-79100000D02*
X145300000Y-71183000D01*
D41*
%TO.N,/FPGA/TMS*%
X164100000Y-86200000D02*
X164600000Y-85700000D01*
X164600000Y-85700000D02*
X164800000Y-85700000D01*
D40*
X174456000Y-81815000D02*
X175144000Y-81127000D01*
X183244000Y-75927000D02*
X183704000Y-75467000D01*
X175844000Y-75927000D02*
X183244000Y-75927000D01*
X175144000Y-76627000D02*
X175844000Y-75927000D01*
X183704000Y-75467000D02*
X183704000Y-71727000D01*
D41*
X164100000Y-86200000D02*
X164100000Y-86290122D01*
X166500000Y-85700000D02*
X166900000Y-86100000D01*
D40*
X172515000Y-81815000D02*
X172700000Y-81815000D01*
X175144000Y-81127000D02*
X175144000Y-76627000D01*
D41*
X164800000Y-85700000D02*
X166500000Y-85700000D01*
X166900000Y-86100000D02*
X168000000Y-86100000D01*
D40*
X172700000Y-81815000D02*
X174456000Y-81815000D01*
D37*
%TO.N,Net-(J101-~{IRQ})*%
X111340000Y-136740000D02*
X112100000Y-137500000D01*
X111340000Y-133475000D02*
X111340000Y-136740000D01*
X119087000Y-142007000D02*
X120396000Y-143316000D01*
X118263000Y-137500000D02*
X119087000Y-138324000D01*
X120396000Y-143316000D02*
X120396000Y-144780000D01*
X112100000Y-137500000D02*
X118263000Y-137500000D01*
X119087000Y-138324000D02*
X119087000Y-142007000D01*
%TO.N,/~{CPU_REGCS}*%
X121627000Y-138705000D02*
X121627000Y-141880000D01*
X119925000Y-137003000D02*
X121627000Y-138705000D01*
X119925000Y-133870000D02*
X119925000Y-137003000D01*
X121627000Y-141880000D02*
X122936000Y-143189000D01*
X122936000Y-143189000D02*
X122936000Y-144780000D01*
%TO.N,/CPU_R~{W}*%
X125476000Y-143189000D02*
X125476000Y-144780000D01*
X121225000Y-133870000D02*
X121225000Y-136144000D01*
X122516000Y-137435000D02*
X123532000Y-137435000D01*
X124167000Y-138070000D02*
X124167000Y-141880000D01*
X124167000Y-141880000D02*
X125476000Y-143189000D01*
X123532000Y-137435000D02*
X124167000Y-138070000D01*
X121225000Y-136144000D02*
X122516000Y-137435000D01*
%TO.N,/~{CPU_LDS}*%
X126199000Y-136546000D02*
X126707000Y-137054000D01*
X122525000Y-135666000D02*
X123405000Y-136546000D01*
X126707000Y-141499000D02*
X128016000Y-142808000D01*
X128016000Y-142808000D02*
X128016000Y-144780000D01*
X126707000Y-137054000D02*
X126707000Y-141499000D01*
X123405000Y-136546000D02*
X126199000Y-136546000D01*
X122525000Y-133870000D02*
X122525000Y-135666000D01*
%TO.N,/~{CPU_AS}*%
X132295000Y-142261000D02*
X134962000Y-142261000D01*
X123825000Y-133870000D02*
X123825000Y-134934000D01*
X124421000Y-135530000D02*
X130644000Y-135530000D01*
X134962000Y-142261000D02*
X135636000Y-142935000D01*
X130644000Y-135530000D02*
X131787000Y-136673000D01*
X131787000Y-136673000D02*
X131787000Y-141753000D01*
X135636000Y-142935000D02*
X135636000Y-144780000D01*
X123825000Y-134934000D02*
X124421000Y-135530000D01*
X131787000Y-141753000D02*
X132295000Y-142261000D01*
%TO.N,/CPU_A19*%
X135575000Y-136143000D02*
X136867000Y-137435000D01*
X135575000Y-133870000D02*
X135575000Y-136143000D01*
X138176000Y-142808000D02*
X138176000Y-144780000D01*
X136867000Y-141499000D02*
X138176000Y-142808000D01*
X136867000Y-137435000D02*
X136867000Y-141499000D01*
%TO.N,/CPU_A17*%
X140716000Y-142554000D02*
X140716000Y-144780000D01*
X139407000Y-141245000D02*
X140716000Y-142554000D01*
X136225000Y-133870000D02*
X136225000Y-135142000D01*
X136225000Y-135142000D02*
X139407000Y-138324000D01*
X139407000Y-138324000D02*
X139407000Y-141245000D01*
%TO.N,/CPU_A15*%
X144614000Y-141245000D02*
X143256000Y-142603000D01*
X145175000Y-133870000D02*
X145175000Y-136239000D01*
X143256000Y-142603000D02*
X143256000Y-144780000D01*
X145175000Y-136239000D02*
X144614000Y-136800000D01*
X144614000Y-136800000D02*
X144614000Y-141245000D01*
%TO.N,/CPU_A13*%
X147154000Y-137562000D02*
X147154000Y-141245000D01*
X147154000Y-141245000D02*
X145796000Y-142603000D01*
X146475000Y-136883000D02*
X147154000Y-137562000D01*
X145796000Y-142603000D02*
X145796000Y-144780000D01*
X146475000Y-133870000D02*
X146475000Y-136883000D01*
%TO.N,/CPU_A11*%
X147775000Y-135897000D02*
X149340511Y-137462511D01*
X149340511Y-141979489D02*
X148336000Y-142984000D01*
X149340511Y-137462511D02*
X149340511Y-141979489D01*
X147775000Y-133870000D02*
X147775000Y-135897000D01*
X148336000Y-142984000D02*
X148336000Y-144780000D01*
%TO.N,/CPU_A9*%
X152107000Y-137943000D02*
X149075000Y-134911000D01*
X152107000Y-141245000D02*
X152107000Y-137943000D01*
X150876000Y-144780000D02*
X150876000Y-142476000D01*
X150876000Y-142476000D02*
X152107000Y-141245000D01*
X149075000Y-134911000D02*
X149075000Y-133870000D01*
%TO.N,/CPU_A7*%
X154700000Y-141200000D02*
X153416000Y-142484000D01*
X154700000Y-138000000D02*
X154700000Y-141200000D01*
X153416000Y-142484000D02*
X153416000Y-144780000D01*
X156775000Y-133870000D02*
X156775000Y-135925000D01*
X156775000Y-135925000D02*
X154700000Y-138000000D01*
%TO.N,/CPU_A5*%
X158075000Y-137055000D02*
X157314000Y-137816000D01*
X157314000Y-141626000D02*
X155956000Y-142984000D01*
X155956000Y-142984000D02*
X155956000Y-144780000D01*
X158075000Y-133870000D02*
X158075000Y-137055000D01*
X157314000Y-137816000D02*
X157314000Y-141626000D01*
%TO.N,/CPU_A3*%
X159854000Y-140864000D02*
X158496000Y-142222000D01*
X159375000Y-133870000D02*
X159375000Y-137845000D01*
X159375000Y-137845000D02*
X159854000Y-138324000D01*
X158496000Y-142222000D02*
X158496000Y-144780000D01*
X159854000Y-138324000D02*
X159854000Y-140864000D01*
%TO.N,/CPU_A1*%
X162394000Y-141118000D02*
X161036000Y-142476000D01*
X161036000Y-142476000D02*
X161036000Y-144780000D01*
X162394000Y-137562000D02*
X162394000Y-141118000D01*
X160675000Y-133870000D02*
X160675000Y-135843000D01*
X160675000Y-135843000D02*
X162394000Y-137562000D01*
%TO.N,/CPU_D14*%
X167474000Y-138070000D02*
X167474000Y-141880000D01*
X168910000Y-136634000D02*
X167474000Y-138070000D01*
X166116000Y-143238000D02*
X167474000Y-141880000D01*
X166116000Y-144780000D02*
X166116000Y-143238000D01*
X168910000Y-133870000D02*
X168910000Y-136634000D01*
%TO.N,/CPU_D12*%
X170268000Y-138324000D02*
X169760000Y-138832000D01*
X170210000Y-133870000D02*
X170210000Y-137758000D01*
X170210000Y-137758000D02*
X170268000Y-137816000D01*
X169760000Y-142134000D02*
X168656000Y-143238000D01*
X169760000Y-138832000D02*
X169760000Y-142134000D01*
X168656000Y-143238000D02*
X168656000Y-144780000D01*
X170268000Y-137816000D02*
X170268000Y-138324000D01*
%TO.N,/CPU_D10*%
X172554000Y-137054000D02*
X172554000Y-141626000D01*
X171510000Y-136010000D02*
X172554000Y-137054000D01*
X171510000Y-133870000D02*
X171510000Y-136010000D01*
X171196000Y-142984000D02*
X171196000Y-144780000D01*
X172554000Y-141626000D02*
X171196000Y-142984000D01*
%TO.N,/CPU_D8*%
X172810000Y-135278000D02*
X172810000Y-133870000D01*
X175094000Y-137562000D02*
X172810000Y-135278000D01*
X175094000Y-140610000D02*
X175094000Y-137562000D01*
X173736000Y-144780000D02*
X173736000Y-141968000D01*
X173736000Y-141968000D02*
X175094000Y-140610000D01*
%TO.N,/CPU_D6*%
X176276000Y-142730000D02*
X176276000Y-144780000D01*
X181775000Y-135525000D02*
X179400000Y-137900000D01*
X179400000Y-137900000D02*
X178500000Y-137900000D01*
X178500000Y-137900000D02*
X177634000Y-138766000D01*
X177634000Y-138766000D02*
X177634000Y-141372000D01*
X177634000Y-141372000D02*
X176276000Y-142730000D01*
X181775000Y-133870000D02*
X181775000Y-135525000D01*
%TO.N,/CPU_D4*%
X180047000Y-140737000D02*
X178816000Y-141968000D01*
X178816000Y-141968000D02*
X178816000Y-144780000D01*
X183075000Y-136125000D02*
X180047000Y-139153000D01*
X183075000Y-133870000D02*
X183075000Y-136125000D01*
X180047000Y-139153000D02*
X180047000Y-140737000D01*
%TO.N,/CPU_D2*%
X184375000Y-136825000D02*
X182587000Y-138613000D01*
X182587000Y-141499000D02*
X181356000Y-142730000D01*
X181356000Y-142730000D02*
X181356000Y-144780000D01*
X184375000Y-133870000D02*
X184375000Y-136825000D01*
X182587000Y-138613000D02*
X182587000Y-141499000D01*
%TO.N,/CPU_D0*%
X185127000Y-138070000D02*
X185127000Y-141499000D01*
X183896000Y-142730000D02*
X183896000Y-144780000D01*
X185127000Y-141499000D02*
X183896000Y-142730000D01*
X185675000Y-133870000D02*
X185675000Y-137522000D01*
X185675000Y-137522000D02*
X185127000Y-138070000D01*
%TO.N,Net-(J501-Pad14)*%
X197815000Y-95315000D02*
X196380000Y-95315000D01*
X197173000Y-100627000D02*
X198200000Y-99600000D01*
X188369000Y-100627000D02*
X197173000Y-100627000D01*
X198200000Y-95700000D02*
X197815000Y-95315000D01*
X198200000Y-99600000D02*
X198200000Y-95700000D01*
%TO.N,Net-(J501-Pad13)*%
X191000000Y-101900000D02*
X191300000Y-101900000D01*
X190000000Y-102900000D02*
X191000000Y-101900000D01*
X188873000Y-104027000D02*
X190000000Y-102900000D01*
X188369000Y-104027000D02*
X188873000Y-104027000D01*
D40*
%TO.N,/FPGA/~{FLASH_CS}*%
X133740000Y-113490000D02*
X131960000Y-113490000D01*
X135400000Y-111850000D02*
X133750000Y-113500000D01*
D41*
X149900000Y-107500000D02*
X149900000Y-108600000D01*
X152100000Y-101200000D02*
X152100000Y-104000000D01*
D40*
X145800000Y-109030000D02*
X145800000Y-109200000D01*
X145800000Y-110807433D02*
X144757433Y-111850000D01*
X131950000Y-113480000D02*
X131960000Y-113490000D01*
X145800000Y-109200000D02*
X145800000Y-110807433D01*
X144757433Y-111850000D02*
X135400000Y-111850000D01*
X133750000Y-113500000D02*
X133740000Y-113490000D01*
D41*
X149900000Y-106200000D02*
X149900000Y-107500000D01*
X152100000Y-104000000D02*
X151700000Y-104400000D01*
X151700000Y-104400000D02*
X149900000Y-106200000D01*
D40*
X131950000Y-112500000D02*
X131950000Y-113480000D01*
D41*
X145800000Y-108600000D02*
X145800000Y-109200000D01*
D37*
%TO.N,Net-(J101-~{ACK})*%
X114100000Y-131300000D02*
X112610000Y-129810000D01*
X120396000Y-139700000D02*
X120396000Y-138477959D01*
X112610000Y-129810000D02*
X112610000Y-128525000D01*
X114100000Y-136600000D02*
X114100000Y-131300000D01*
X118718041Y-136800000D02*
X114300000Y-136800000D01*
X114300000Y-136800000D02*
X114100000Y-136600000D01*
X120396000Y-138477959D02*
X118718041Y-136800000D01*
D42*
%TO.N,/FPGA/HSYNC*%
X171015000Y-103315000D02*
X173100000Y-103315000D01*
X165500000Y-97800000D02*
X171015000Y-103315000D01*
X162700000Y-97800000D02*
X165500000Y-97800000D01*
D37*
X183732000Y-103315000D02*
X184444000Y-104027000D01*
X184444000Y-104027000D02*
X186544000Y-104027000D01*
X173100000Y-103315000D02*
X183732000Y-103315000D01*
D42*
X162100000Y-97200000D02*
X162700000Y-97800000D01*
D37*
X172515000Y-103315000D02*
X173100000Y-103315000D01*
D42*
%TO.N,/FPGA/VSYNC*%
X163100000Y-97200000D02*
X163496000Y-97596000D01*
D37*
X183256000Y-102815000D02*
X185444000Y-100627000D01*
X173100000Y-102815000D02*
X183256000Y-102815000D01*
D42*
X171115000Y-102815000D02*
X173100000Y-102815000D01*
X165896000Y-97596000D02*
X171115000Y-102815000D01*
D37*
X172515000Y-102815000D02*
X173100000Y-102815000D01*
D42*
X163496000Y-97596000D02*
X165896000Y-97596000D01*
D37*
X185444000Y-100627000D02*
X186544000Y-100627000D01*
%TO.N,/~{CPU_DTACK}*%
X121000000Y-110600000D02*
X116900000Y-114700000D01*
X116900000Y-119500000D02*
X110070000Y-126330000D01*
X121835000Y-104815000D02*
X121000000Y-105650000D01*
X110070000Y-126330000D02*
X110070000Y-128525000D01*
X142585000Y-104815000D02*
X142300000Y-104815000D01*
D39*
X147085000Y-104815000D02*
X142300000Y-104815000D01*
D37*
X116900000Y-114700000D02*
X116900000Y-119500000D01*
D39*
X150100000Y-99200000D02*
X149700000Y-99200000D01*
D37*
X142300000Y-104815000D02*
X121835000Y-104815000D01*
D39*
X148200000Y-100700000D02*
X148200000Y-103700000D01*
D37*
X121000000Y-105650000D02*
X121000000Y-110600000D01*
D39*
X149700000Y-99200000D02*
X148200000Y-100700000D01*
X148200000Y-103700000D02*
X147085000Y-104815000D01*
%TO.N,/~{CPU_IRQ}*%
X147600000Y-100700000D02*
X147600000Y-102400000D01*
D37*
X116100000Y-114600000D02*
X116100000Y-118700000D01*
D39*
X150100000Y-98200000D02*
X147600000Y-100700000D01*
D37*
X142585000Y-104315000D02*
X120885000Y-104315000D01*
X109500000Y-130400000D02*
X108800000Y-131100000D01*
D39*
X147600000Y-102400000D02*
X145685000Y-104315000D01*
D37*
X116100000Y-118700000D02*
X109500000Y-125300000D01*
X108800000Y-131100000D02*
X108800000Y-133475000D01*
D39*
X145685000Y-104315000D02*
X142585000Y-104315000D01*
D37*
X120125000Y-105075000D02*
X120125000Y-110575000D01*
X109500000Y-125300000D02*
X109500000Y-130400000D01*
X120885000Y-104315000D02*
X120125000Y-105075000D01*
X120125000Y-110575000D02*
X116100000Y-114600000D01*
D40*
%TO.N,/FPGA/~{CPU_DATAEN}*%
X181800000Y-129950000D02*
X181800000Y-130800000D01*
D41*
X165100000Y-99200000D02*
X165500000Y-99200000D01*
D40*
X168260000Y-130090000D02*
X168260000Y-128130000D01*
X168950000Y-130800000D02*
X168250000Y-130100000D01*
X192500000Y-131775000D02*
X190625000Y-131775000D01*
X181125000Y-129275000D02*
X181800000Y-129950000D01*
X190625000Y-131775000D02*
X189825000Y-131775000D01*
X181800000Y-130800000D02*
X168950000Y-130800000D01*
D41*
X165500000Y-99200000D02*
X166300000Y-100000000D01*
D40*
X189825000Y-131775000D02*
X188850000Y-130800000D01*
D41*
X166300000Y-100000000D02*
X170700000Y-104400000D01*
D40*
X188850000Y-130800000D02*
X181800000Y-130800000D01*
X168250000Y-130100000D02*
X168260000Y-130090000D01*
X181125000Y-128130000D02*
X181125000Y-129275000D01*
%TO.N,/FPGA/~{BUSEN}*%
X156125000Y-128130000D02*
X156125000Y-130475000D01*
X144525000Y-124975000D02*
X144525000Y-128130000D01*
X156125000Y-130475000D02*
X155500000Y-131100000D01*
X132500000Y-131100000D02*
X120600000Y-131100000D01*
X144525000Y-131075000D02*
X144500000Y-131100000D01*
X119925000Y-130425000D02*
X120600000Y-131100000D01*
X132500000Y-129340000D02*
X132500000Y-131100000D01*
D41*
X163600000Y-101700000D02*
X163600000Y-101900000D01*
D40*
X132325000Y-129165000D02*
X132500000Y-129340000D01*
X144500000Y-131100000D02*
X132500000Y-131100000D01*
X155500000Y-131100000D02*
X144500000Y-131100000D01*
X132325000Y-128130000D02*
X132325000Y-129165000D01*
X119925000Y-128130000D02*
X119925000Y-130425000D01*
X143500000Y-124900000D02*
X144450000Y-124900000D01*
X144450000Y-124900000D02*
X144525000Y-124975000D01*
X144525000Y-128130000D02*
X144525000Y-131075000D01*
D41*
X163100000Y-101200000D02*
X163600000Y-101700000D01*
D37*
%TO.N,Net-(U501-IOR)*%
X189425000Y-90075000D02*
X191055000Y-88445000D01*
X187320000Y-90075000D02*
X189425000Y-90075000D01*
X191055000Y-88445000D02*
X192420000Y-88445000D01*
%TO.N,/FPGA/HOST_CLK*%
X132975000Y-126675000D02*
X132975000Y-128130000D01*
X127950000Y-121650000D02*
X132975000Y-126675000D01*
X127950000Y-112950000D02*
X127950000Y-121650000D01*
%TO.N,Net-(U501-IOG)*%
X187320000Y-91075000D02*
X190425000Y-91075000D01*
X190765000Y-90735000D02*
X192420000Y-90735000D01*
X190425000Y-91075000D02*
X190765000Y-90735000D01*
%TO.N,Net-(U501-IOB)*%
X190025000Y-93075000D02*
X187320000Y-93075000D01*
X192420000Y-93025000D02*
X190075000Y-93025000D01*
X190075000Y-93025000D02*
X190025000Y-93075000D01*
%TO.N,/FPGA/~{LDS}*%
X112000000Y-121100000D02*
X115000000Y-118100000D01*
D39*
X152100000Y-97200000D02*
X151475800Y-97824200D01*
D37*
X142500000Y-102315000D02*
X142585000Y-102315000D01*
X119475000Y-110325000D02*
X119475000Y-104625000D01*
X123175000Y-128130000D02*
X123175000Y-123575000D01*
X119475000Y-104625000D02*
X120500000Y-103600000D01*
X115000000Y-118100000D02*
X115000000Y-114800000D01*
X136735000Y-102315000D02*
X142500000Y-102315000D01*
X120500000Y-103600000D02*
X135450000Y-103600000D01*
X135450000Y-103600000D02*
X136735000Y-102315000D01*
X123175000Y-123575000D02*
X124400000Y-122350000D01*
D39*
X145185000Y-102315000D02*
X142500000Y-102315000D01*
D37*
X115000000Y-114800000D02*
X119475000Y-110325000D01*
D39*
X149675800Y-97824200D02*
X145185000Y-102315000D01*
D37*
X124400000Y-122350000D02*
X124400000Y-121100000D01*
D39*
X151475800Y-97824200D02*
X149675800Y-97824200D01*
D42*
%TO.N,/FPGA/~{UDS}*%
X153100000Y-97200000D02*
X153100000Y-97300000D01*
D37*
X128900000Y-109550000D02*
X128100000Y-109550000D01*
X125800000Y-111850000D02*
X125800000Y-122100000D01*
D42*
X153100000Y-97300000D02*
X152800000Y-97600000D01*
D37*
X125800000Y-122100000D02*
X123825000Y-124075000D01*
X128100000Y-109550000D02*
X125800000Y-111850000D01*
X123825000Y-124075000D02*
X123825000Y-128130000D01*
%TO.N,/FPGA/R~{W}*%
X139700000Y-107300000D02*
X142500000Y-107300000D01*
D42*
X150100000Y-103800000D02*
X149700000Y-103800000D01*
D37*
X142500000Y-107300000D02*
X142700000Y-107300000D01*
X129350000Y-107300000D02*
X121875000Y-114775000D01*
D42*
X146200000Y-107300000D02*
X142500000Y-107300000D01*
X151100000Y-99200000D02*
X150700000Y-99600000D01*
X150700000Y-99600000D02*
X150700000Y-103200000D01*
D37*
X121875000Y-114775000D02*
X121875000Y-128130000D01*
D42*
X149700000Y-103800000D02*
X146200000Y-107300000D01*
X150700000Y-103200000D02*
X150100000Y-103800000D01*
D37*
X139700000Y-107300000D02*
X129350000Y-107300000D01*
%TO.N,/FPGA/~{AS}*%
X145300000Y-109300000D02*
X145300000Y-110700000D01*
X145300000Y-109030000D02*
X145300000Y-109300000D01*
D42*
X151100000Y-100200000D02*
X151500000Y-100600000D01*
X145300000Y-108553424D02*
X145300000Y-109300000D01*
D37*
X126700000Y-112000000D02*
X126700000Y-122350000D01*
X127600000Y-111100000D02*
X126700000Y-112000000D01*
D42*
X149253424Y-104600000D02*
X145300000Y-108553424D01*
D37*
X144900000Y-111100000D02*
X127600000Y-111100000D01*
D42*
X151500000Y-103300000D02*
X150200000Y-104600000D01*
X150200000Y-104600000D02*
X149253424Y-104600000D01*
D37*
X124475000Y-124575000D02*
X124475000Y-128130000D01*
D42*
X151500000Y-100600000D02*
X151500000Y-103300000D01*
D37*
X145300000Y-110700000D02*
X144900000Y-111100000D01*
X126700000Y-122350000D02*
X124475000Y-124575000D01*
%TO.N,/FPGA/~{RESET}*%
X141800000Y-93815000D02*
X115515000Y-93815000D01*
X122525000Y-126675000D02*
X122525000Y-128130000D01*
X122525000Y-122875000D02*
X123200000Y-122200000D01*
X115100000Y-93400000D02*
X113800000Y-93400000D01*
D39*
X142100000Y-94115000D02*
X141800000Y-93815000D01*
D37*
X103300000Y-122200000D02*
X103300000Y-107000000D01*
X115515000Y-93815000D02*
X115100000Y-93400000D01*
D39*
X153100000Y-94200000D02*
X152700000Y-94600000D01*
D37*
X122525000Y-126675000D02*
X122525000Y-122875000D01*
X102800000Y-106500000D02*
X102700000Y-106400000D01*
X102700000Y-106400000D02*
X102700000Y-103300000D01*
D39*
X142100000Y-94300000D02*
X142100000Y-94115000D01*
D37*
X103300000Y-107000000D02*
X102800000Y-106500000D01*
%TO.N,/FPGA/~{REGCS}*%
X122200000Y-110750000D02*
X119100000Y-113850000D01*
X141600000Y-78100000D02*
X144050000Y-80550000D01*
X119100000Y-117300000D02*
X119100000Y-123500000D01*
X122200000Y-109350000D02*
X122200000Y-110750000D01*
D42*
X149200000Y-87200000D02*
X147700000Y-85700000D01*
X147700000Y-85700000D02*
X147700000Y-84200000D01*
X150100000Y-87200000D02*
X149200000Y-87200000D01*
D37*
X122150000Y-109300000D02*
X122200000Y-109350000D01*
X119100000Y-123500000D02*
X120575000Y-124975000D01*
D42*
X147700000Y-84200000D02*
X144050000Y-80550000D01*
D37*
X119100000Y-113850000D02*
X119100000Y-117300000D01*
X120575000Y-128130000D02*
X120575000Y-124975000D01*
X141600000Y-76700000D02*
X141600000Y-78100000D01*
X144050000Y-80550000D02*
X144100000Y-80600000D01*
%TO.N,/FPGA/~{DATACS}*%
X156800000Y-76800000D02*
X156800000Y-79000000D01*
D42*
X156100000Y-82650000D02*
X156800000Y-81950000D01*
D37*
X157200000Y-74100000D02*
X157200000Y-76400000D01*
D42*
X156100000Y-86200000D02*
X156100000Y-82650000D01*
X156800000Y-81950000D02*
X156800000Y-79000000D01*
D37*
X156800000Y-79000000D02*
X156800000Y-79100000D01*
X157200000Y-76400000D02*
X156800000Y-76800000D01*
X121225000Y-114525000D02*
X121225000Y-128130000D01*
X126000000Y-109750000D02*
X121225000Y-114525000D01*
X126000000Y-108000000D02*
X126000000Y-109750000D01*
%TO.N,Net-(U302-WP{slash}IO2)*%
X130680000Y-116030000D02*
X130400000Y-115750000D01*
X131960000Y-116030000D02*
X130680000Y-116030000D01*
%TO.N,Net-(U302-HOLD{slash}IO3)*%
X139170000Y-114760000D02*
X142390000Y-114760000D01*
X142390000Y-114760000D02*
X142400000Y-114750000D01*
D42*
%TO.N,/FPGA/A1*%
X157704000Y-102704000D02*
X160300000Y-105300000D01*
D37*
X160300000Y-109400000D02*
X160300000Y-109030000D01*
D42*
X157704000Y-99596000D02*
X157704000Y-102704000D01*
X158100000Y-99200000D02*
X157704000Y-99596000D01*
D37*
X161325000Y-120225000D02*
X160300000Y-119200000D01*
X161325000Y-128130000D02*
X161325000Y-120225000D01*
X160300000Y-119200000D02*
X160300000Y-109400000D01*
D42*
X160300000Y-105300000D02*
X160300000Y-109400000D01*
D37*
%TO.N,/FPGA/A2*%
X160675000Y-128130000D02*
X160675000Y-120775000D01*
X159800000Y-119900000D02*
X159800000Y-109100000D01*
X159800000Y-109100000D02*
X159800000Y-109030000D01*
X160675000Y-120775000D02*
X159800000Y-119900000D01*
D42*
X157500000Y-103000000D02*
X159800000Y-105300000D01*
X157100000Y-99200000D02*
X157500000Y-99600000D01*
X159800000Y-105300000D02*
X159800000Y-109100000D01*
X157500000Y-99600000D02*
X157500000Y-103000000D01*
%TO.N,/FPGA/A3*%
X159300000Y-105500000D02*
X159300000Y-109100000D01*
X156700000Y-98600000D02*
X156700000Y-102900000D01*
D37*
X159300000Y-109030000D02*
X159300000Y-109100000D01*
D42*
X157100000Y-98200000D02*
X156700000Y-98600000D01*
D37*
X159300000Y-109100000D02*
X159300000Y-120400000D01*
X159300000Y-120400000D02*
X160025000Y-121125000D01*
D42*
X156700000Y-102900000D02*
X159300000Y-105500000D01*
D37*
X160025000Y-121125000D02*
X160025000Y-128130000D01*
D42*
%TO.N,/FPGA/A4*%
X156453000Y-103353000D02*
X158800000Y-105700000D01*
D37*
X159375000Y-128130000D02*
X159375000Y-121575000D01*
D42*
X156100000Y-100200000D02*
X156453000Y-100553000D01*
D37*
X158800000Y-109500000D02*
X158800000Y-109030000D01*
D42*
X158800000Y-105700000D02*
X158800000Y-109500000D01*
X156453000Y-100553000D02*
X156453000Y-103353000D01*
D37*
X159375000Y-121575000D02*
X158800000Y-121000000D01*
X158800000Y-121000000D02*
X158800000Y-109500000D01*
%TO.N,/FPGA/A5*%
X158300000Y-109300000D02*
X158300000Y-108668400D01*
D42*
X158300000Y-105900000D02*
X158300000Y-109300000D01*
D37*
X158725000Y-123225000D02*
X158300000Y-122800000D01*
X158300000Y-122800000D02*
X158300000Y-122580400D01*
X158725000Y-128130000D02*
X158725000Y-123225000D01*
X158300000Y-122580400D02*
X158300000Y-109300000D01*
D42*
X156100000Y-101200000D02*
X156100000Y-103700000D01*
X156100000Y-103700000D02*
X158300000Y-105900000D01*
%TO.N,/FPGA/A6*%
X155704000Y-99596000D02*
X155704000Y-104004000D01*
D37*
X157300000Y-123500000D02*
X158075000Y-124275000D01*
X157300000Y-109200000D02*
X157300000Y-123500000D01*
X158075000Y-124275000D02*
X158075000Y-128130000D01*
D42*
X156100000Y-99200000D02*
X155704000Y-99596000D01*
X157300000Y-105600000D02*
X157300000Y-109200000D01*
D37*
X157300000Y-109030000D02*
X157300000Y-109200000D01*
D42*
X155704000Y-104004000D02*
X157300000Y-105600000D01*
%TO.N,/FPGA/A7*%
X156800000Y-109030000D02*
X156800000Y-105600000D01*
D37*
X157425000Y-128130000D02*
X157425000Y-124425000D01*
X156800000Y-123800000D02*
X156800000Y-109030000D01*
D42*
X155500000Y-104300000D02*
X155500000Y-99600000D01*
X155500000Y-99600000D02*
X155100000Y-99200000D01*
X156800000Y-105600000D02*
X155500000Y-104300000D01*
D37*
X157425000Y-124425000D02*
X156800000Y-123800000D01*
D40*
%TO.N,/FPGA/DATA_DIR*%
X165300000Y-135900000D02*
X166800000Y-135900000D01*
X180300000Y-135200000D02*
X179600000Y-135900000D01*
D41*
X158100000Y-97200000D02*
X157600000Y-97700000D01*
D40*
X180475000Y-135025000D02*
X180300000Y-135200000D01*
X179600000Y-135900000D02*
X178400000Y-135900000D01*
X166800000Y-135900000D02*
X167610000Y-135090000D01*
X167610000Y-135090000D02*
X167610000Y-133870000D01*
X178400000Y-135900000D02*
X178100000Y-135900000D01*
X180475000Y-133870000D02*
X180475000Y-135025000D01*
D37*
%TO.N,/FPGA/A8*%
X156775000Y-124775000D02*
X156300000Y-124300000D01*
D42*
X155100000Y-101200000D02*
X155100000Y-104600000D01*
D37*
X156775000Y-128130000D02*
X156775000Y-124775000D01*
D42*
X156300000Y-105800000D02*
X156300000Y-109030000D01*
D37*
X156300000Y-124300000D02*
X156300000Y-109030000D01*
D42*
X155100000Y-104600000D02*
X156300000Y-105800000D01*
D37*
%TO.N,/FPGA/A9*%
X149725000Y-124375000D02*
X149725000Y-128130000D01*
D42*
X154698000Y-98802000D02*
X154698000Y-104798000D01*
X155800000Y-105900000D02*
X155800000Y-109600000D01*
D37*
X155800000Y-109600000D02*
X155800000Y-118300000D01*
D42*
X154700000Y-98600000D02*
X154700000Y-98800000D01*
D37*
X155800000Y-109030000D02*
X155800000Y-109600000D01*
X155800000Y-118300000D02*
X149725000Y-124375000D01*
D42*
X155100000Y-98200000D02*
X154700000Y-98600000D01*
X154700000Y-98800000D02*
X154698000Y-98802000D01*
X154698000Y-104798000D02*
X155800000Y-105900000D01*
D37*
%TO.N,/FPGA/A10*%
X155300000Y-109700000D02*
X155300000Y-117800000D01*
D42*
X154494000Y-105194000D02*
X155300000Y-106000000D01*
D37*
X155300000Y-109030000D02*
X155300000Y-109700000D01*
X155300000Y-117800000D02*
X149075000Y-124025000D01*
X149075000Y-124025000D02*
X149075000Y-128130000D01*
D42*
X154494000Y-99594000D02*
X154494000Y-105194000D01*
X155300000Y-106000000D02*
X155300000Y-109700000D01*
X154100000Y-99200000D02*
X154494000Y-99594000D01*
%TO.N,/FPGA/A11*%
X154289999Y-101389999D02*
X154289999Y-109689999D01*
D37*
X154300000Y-109400000D02*
X154300000Y-109700000D01*
X148425000Y-123575000D02*
X148425000Y-128130000D01*
X154300000Y-117700000D02*
X148425000Y-123575000D01*
X154300000Y-109700000D02*
X154300000Y-117700000D01*
D42*
X154289999Y-109689999D02*
X154300000Y-109700000D01*
X154100000Y-101200000D02*
X154289999Y-101389999D01*
D37*
X154300000Y-109400000D02*
X154300000Y-106100000D01*
X154300000Y-109030000D02*
X154300000Y-109400000D01*
%TO.N,/FPGA/A12*%
X153800000Y-116900000D02*
X147775000Y-122925000D01*
D42*
X154100000Y-100200000D02*
X153704000Y-100596000D01*
X153704000Y-107804000D02*
X153800000Y-107900000D01*
D37*
X153800000Y-109030000D02*
X153800000Y-110100000D01*
D42*
X153800000Y-107900000D02*
X153800000Y-110100000D01*
D37*
X153800000Y-110100000D02*
X153800000Y-116900000D01*
X147775000Y-122925000D02*
X147775000Y-128130000D01*
D42*
X153704000Y-100596000D02*
X153704000Y-107804000D01*
D37*
%TO.N,/FPGA/A13*%
X152800000Y-109030000D02*
X152800000Y-116700000D01*
D42*
X152800000Y-106000000D02*
X152800000Y-109030000D01*
D37*
X152800000Y-116700000D02*
X147125000Y-122375000D01*
X147125000Y-122375000D02*
X147125000Y-128130000D01*
D42*
X153500000Y-98800000D02*
X153500000Y-105300000D01*
X154100000Y-98200000D02*
X153500000Y-98800000D01*
X153500000Y-105300000D02*
X152800000Y-106000000D01*
%TO.N,/FPGA/A14*%
X153100000Y-105000000D02*
X152300000Y-105800000D01*
D37*
X152300000Y-109030000D02*
X152300000Y-109500000D01*
D42*
X153100000Y-101200000D02*
X153100000Y-105000000D01*
D37*
X146475000Y-121925000D02*
X146475000Y-128130000D01*
X152300000Y-109500000D02*
X152300000Y-116100000D01*
X152300000Y-116100000D02*
X146475000Y-121925000D01*
D42*
X152300000Y-105800000D02*
X152300000Y-109500000D01*
D37*
%TO.N,/FPGA/A15*%
X150800000Y-116500000D02*
X145825000Y-121475000D01*
X145825000Y-121475000D02*
X145825000Y-128130000D01*
X150800000Y-109030000D02*
X150800000Y-109100000D01*
D42*
X150800000Y-109100000D02*
X150800000Y-106200000D01*
X152700000Y-104300000D02*
X152700000Y-99600000D01*
X152700000Y-99600000D02*
X153100000Y-99200000D01*
X150800000Y-106200000D02*
X152700000Y-104300000D01*
D37*
X150800000Y-109100000D02*
X150800000Y-116500000D01*
%TO.N,Net-(U501-RSET)*%
X185832000Y-84415000D02*
X184544000Y-83127000D01*
X185832000Y-87587000D02*
X185832000Y-84415000D01*
X184544000Y-83127000D02*
X184544000Y-79027000D01*
%TO.N,Net-(U501-~{PSAVE})*%
X180581500Y-81864500D02*
X180581500Y-79027000D01*
X182944000Y-82327000D02*
X181044000Y-82327000D01*
X185332000Y-84715000D02*
X182944000Y-82327000D01*
X185332000Y-87587000D02*
X185332000Y-84715000D01*
X181044000Y-82327000D02*
X180581500Y-81864500D01*
D40*
%TO.N,/FPGA/FPGA_PROGB*%
X142585000Y-81315000D02*
X141232000Y-81315000D01*
X139644000Y-79727000D02*
X139644000Y-73327000D01*
X144100000Y-81315000D02*
X144100000Y-81700000D01*
X141232000Y-81315000D02*
X139644000Y-79727000D01*
X142585000Y-81315000D02*
X144100000Y-81315000D01*
X144100000Y-81700000D02*
X144000000Y-81800000D01*
%TO.N,/FPGA/~{ACCESS_LED}*%
X124100000Y-106250000D02*
X123950000Y-106400000D01*
D41*
X150500000Y-100600000D02*
X150500000Y-102500000D01*
D40*
X122150000Y-112250000D02*
X120250000Y-114150000D01*
X197350000Y-122000000D02*
X197350000Y-119650000D01*
X123950000Y-106400000D02*
X123950000Y-109450000D01*
X142500000Y-105815000D02*
X124535000Y-105815000D01*
D41*
X150100000Y-100200000D02*
X150500000Y-100600000D01*
D40*
X123950000Y-109450000D02*
X123950000Y-110450000D01*
X197350000Y-119650000D02*
X197200000Y-119500000D01*
X120250000Y-114150000D02*
X120250000Y-123200000D01*
X124535000Y-105815000D02*
X124100000Y-106250000D01*
X142585000Y-105815000D02*
X142500000Y-105815000D01*
D41*
X147185000Y-105815000D02*
X142500000Y-105815000D01*
X150500000Y-102500000D02*
X147185000Y-105815000D01*
D40*
X123950000Y-110450000D02*
X122150000Y-112250000D01*
%TO.N,/FPGA/FPGA_DONE*%
X170300000Y-109030000D02*
X170300000Y-110000000D01*
X189700000Y-110600000D02*
X189700000Y-113475000D01*
X170600000Y-110300000D02*
X170900000Y-110600000D01*
X189700000Y-113475000D02*
X189675000Y-113500000D01*
X170300000Y-110000000D02*
X170600000Y-110300000D01*
X170900000Y-110600000D02*
X182600000Y-110600000D01*
%TO.N,/FPGA/FLASH_DI*%
X148800000Y-113400000D02*
X147800000Y-114400000D01*
X142550000Y-117300000D02*
X139170000Y-117300000D01*
X144750000Y-115100000D02*
X142550000Y-117300000D01*
X148800000Y-109030000D02*
X148800000Y-113400000D01*
X144750000Y-114400000D02*
X144750000Y-115100000D01*
D37*
%TO.N,/FPGA/FLASH_CLK*%
X139170000Y-116030000D02*
X141180000Y-116030000D01*
X141180000Y-116030000D02*
X141200000Y-116050000D01*
%TO.N,/FPGA/SRAM_A5*%
X117494000Y-69277000D02*
X118894000Y-69277000D01*
X117144000Y-69627000D02*
X117494000Y-69277000D01*
X117144000Y-78027000D02*
X117144000Y-85027000D01*
X117144000Y-78027000D02*
X117144000Y-69627000D01*
D39*
X144415000Y-92815000D02*
X142585000Y-92815000D01*
D37*
X114244000Y-85027000D02*
X112944000Y-85027000D01*
D39*
X150100000Y-93200000D02*
X144800000Y-93200000D01*
D37*
X117532000Y-92815000D02*
X121932000Y-92815000D01*
X117144000Y-85027000D02*
X117144000Y-92427000D01*
D39*
X144800000Y-93200000D02*
X144415000Y-92815000D01*
D37*
X117144000Y-92427000D02*
X117532000Y-92815000D01*
X114244000Y-85027000D02*
X117144000Y-85027000D01*
X142585000Y-92815000D02*
X121932000Y-92815000D01*
X110244000Y-85027000D02*
X112944000Y-85027000D01*
%TO.N,/FPGA/SRAM_A6*%
X116715000Y-93315000D02*
X116300000Y-92900000D01*
X116300000Y-92900000D02*
X116300000Y-86900000D01*
X108644000Y-85944000D02*
X108644000Y-84827000D01*
D39*
X153700000Y-93600000D02*
X143300000Y-93600000D01*
D37*
X109000000Y-86300000D02*
X108644000Y-85944000D01*
D39*
X154100000Y-93200000D02*
X153700000Y-93600000D01*
X143300000Y-93600000D02*
X143015000Y-93315000D01*
D37*
X116300000Y-86900000D02*
X115700000Y-86300000D01*
X116344000Y-83527000D02*
X116344000Y-69627000D01*
X116344000Y-69627000D02*
X117194000Y-68777000D01*
X115700000Y-86300000D02*
X109000000Y-86300000D01*
X108644000Y-84827000D02*
X108944000Y-84527000D01*
X108944000Y-84527000D02*
X110244000Y-84527000D01*
X142400000Y-93315000D02*
X116715000Y-93315000D01*
X110244000Y-84527000D02*
X115344000Y-84527000D01*
D39*
X143015000Y-93315000D02*
X142400000Y-93315000D01*
D37*
X115344000Y-84527000D02*
X116344000Y-83527000D01*
X117194000Y-68777000D02*
X118894000Y-68777000D01*
X142585000Y-93315000D02*
X142400000Y-93315000D01*
%TO.N,/FPGA/SRAM_A7*%
X108844000Y-84027000D02*
X110244000Y-84027000D01*
X115644000Y-83127000D02*
X115644000Y-69527000D01*
X108144000Y-94127000D02*
X108144000Y-84427000D01*
X108544000Y-84027000D02*
X108844000Y-84027000D01*
D39*
X146475800Y-93824200D02*
X145485000Y-94815000D01*
X151724200Y-93824200D02*
X146475800Y-93824200D01*
D37*
X108744000Y-84027000D02*
X108844000Y-84027000D01*
X114744000Y-84027000D02*
X115644000Y-83127000D01*
X115644000Y-69527000D02*
X116894000Y-68277000D01*
X116894000Y-68277000D02*
X118894000Y-68277000D01*
D39*
X145485000Y-94815000D02*
X142585000Y-94815000D01*
D37*
X108832000Y-94815000D02*
X108144000Y-94127000D01*
D39*
X152100000Y-94200000D02*
X151724200Y-93824200D01*
D37*
X108144000Y-84427000D02*
X108544000Y-84027000D01*
X110244000Y-84027000D02*
X114744000Y-84027000D01*
X142585000Y-94815000D02*
X108832000Y-94815000D01*
%TO.N,/FPGA/SRAM_A8*%
X115044000Y-69327000D02*
X116594000Y-67777000D01*
D39*
X147400000Y-94200000D02*
X146285000Y-95315000D01*
D37*
X142585000Y-95315000D02*
X108232000Y-95315000D01*
X116594000Y-67777000D02*
X118894000Y-67777000D01*
X114244000Y-83527000D02*
X115044000Y-82727000D01*
X107544000Y-84327000D02*
X108344000Y-83527000D01*
X108232000Y-95315000D02*
X107544000Y-94627000D01*
D39*
X146285000Y-95315000D02*
X142585000Y-95315000D01*
D37*
X115044000Y-82727000D02*
X115044000Y-69327000D01*
X107544000Y-94627000D02*
X107544000Y-84327000D01*
X108344000Y-83527000D02*
X110244000Y-83527000D01*
X110244000Y-83527000D02*
X114244000Y-83527000D01*
D39*
X150100000Y-94200000D02*
X147400000Y-94200000D01*
D37*
%TO.N,/FPGA/~{SRAM_UB0}*%
X107044000Y-95127000D02*
X107044000Y-83627000D01*
X107732000Y-95815000D02*
X107044000Y-95127000D01*
D39*
X146185000Y-95815000D02*
X147356400Y-94643600D01*
D37*
X108144000Y-82527000D02*
X110244000Y-82527000D01*
D39*
X142585000Y-95815000D02*
X146185000Y-95815000D01*
X147356400Y-94643600D02*
X151543600Y-94643600D01*
X151543600Y-94643600D02*
X152100000Y-95200000D01*
D37*
X142585000Y-95815000D02*
X107732000Y-95815000D01*
X107044000Y-83627000D02*
X108144000Y-82527000D01*
%TO.N,/FPGA/~{SRAM_LB0}*%
X107744000Y-82027000D02*
X110244000Y-82027000D01*
X142585000Y-96315000D02*
X107132000Y-96315000D01*
D39*
X142585000Y-96315000D02*
X146385000Y-96315000D01*
X147852800Y-94847200D02*
X150747200Y-94847200D01*
D37*
X106444000Y-83327000D02*
X107744000Y-82027000D01*
D39*
X146385000Y-96315000D02*
X147852800Y-94847200D01*
X150747200Y-94847200D02*
X151100000Y-95200000D01*
D37*
X106444000Y-95627000D02*
X106444000Y-83327000D01*
X107132000Y-96315000D02*
X106444000Y-95627000D01*
%TO.N,/FPGA/SRAM_A9*%
X126544000Y-59227000D02*
X126544000Y-55627000D01*
X113544000Y-62727000D02*
X115994000Y-60277000D01*
X156644000Y-54827000D02*
X166300000Y-64483000D01*
D42*
X166200000Y-78900000D02*
X166300000Y-78900000D01*
D37*
X110244000Y-76027000D02*
X112944000Y-76027000D01*
D42*
X160100000Y-85000000D02*
X166200000Y-78900000D01*
D37*
X118894000Y-60277000D02*
X125494000Y-60277000D01*
X125494000Y-60277000D02*
X126544000Y-59227000D01*
X112944000Y-76027000D02*
X113544000Y-75427000D01*
X126544000Y-55627000D02*
X127344000Y-54827000D01*
X113544000Y-75427000D02*
X113544000Y-62727000D01*
X166300000Y-64483000D02*
X166300000Y-78900000D01*
D42*
X160100000Y-86200000D02*
X160100000Y-85000000D01*
D37*
X115994000Y-60277000D02*
X118894000Y-60277000D01*
X127344000Y-54827000D02*
X156644000Y-54827000D01*
D42*
%TO.N,/FPGA/SRAM_A10*%
X160496000Y-87804000D02*
X160496000Y-85204000D01*
D37*
X112244000Y-75527000D02*
X112944000Y-74827000D01*
X126644000Y-54327000D02*
X157044000Y-54327000D01*
X115394000Y-59777000D02*
X118894000Y-59777000D01*
X125944000Y-58727000D02*
X125944000Y-55027000D01*
X166800000Y-64083000D02*
X166800000Y-79100000D01*
D42*
X160100000Y-88200000D02*
X160496000Y-87804000D01*
D37*
X110244000Y-75527000D02*
X112244000Y-75527000D01*
D42*
X160496000Y-85204000D02*
X166600000Y-79100000D01*
D37*
X124894000Y-59777000D02*
X125944000Y-58727000D01*
D42*
X166600000Y-79100000D02*
X166800000Y-79100000D01*
D37*
X112944000Y-62227000D02*
X115394000Y-59777000D01*
X125944000Y-55027000D02*
X126644000Y-54327000D01*
X112944000Y-74827000D02*
X112944000Y-62227000D01*
X118894000Y-59777000D02*
X124894000Y-59777000D01*
X157044000Y-54327000D02*
X166800000Y-64083000D01*
%TO.N,/FPGA/SRAM_A11*%
X125244000Y-58327000D02*
X125244000Y-54527000D01*
D42*
X160700000Y-85600000D02*
X167200000Y-79100000D01*
D37*
X114894000Y-59277000D02*
X118894000Y-59277000D01*
D42*
X160100000Y-89200000D02*
X160700000Y-88600000D01*
D37*
X124294000Y-59277000D02*
X125244000Y-58327000D01*
D42*
X160700000Y-88600000D02*
X160700000Y-85600000D01*
D37*
X118894000Y-59277000D02*
X124294000Y-59277000D01*
X157444000Y-53827000D02*
X167300000Y-63683000D01*
X167300000Y-63683000D02*
X167300000Y-79100000D01*
X112444000Y-74527000D02*
X112444000Y-61727000D01*
X125944000Y-53827000D02*
X157444000Y-53827000D01*
D42*
X167200000Y-79100000D02*
X167300000Y-79100000D01*
D37*
X110244000Y-75027000D02*
X111944000Y-75027000D01*
X112444000Y-61727000D02*
X114894000Y-59277000D01*
X111944000Y-75027000D02*
X112444000Y-74527000D01*
X125244000Y-54527000D02*
X125944000Y-53827000D01*
%TO.N,/FPGA/SRAM_A12*%
X123944000Y-58777000D02*
X118894000Y-58777000D01*
X167800000Y-63383000D02*
X157744000Y-53327000D01*
X114294000Y-58777000D02*
X118894000Y-58777000D01*
X124544000Y-53927000D02*
X124544000Y-58177000D01*
X110244000Y-74527000D02*
X111544000Y-74527000D01*
X111944000Y-74127000D02*
X111944000Y-61127000D01*
X111944000Y-61127000D02*
X114294000Y-58777000D01*
D42*
X161100000Y-86200000D02*
X161100000Y-85800000D01*
X161100000Y-85800000D02*
X167800000Y-79100000D01*
D37*
X124544000Y-58177000D02*
X123944000Y-58777000D01*
X125144000Y-53327000D02*
X124544000Y-53927000D01*
X167800000Y-79100000D02*
X167800000Y-63383000D01*
X111544000Y-74527000D02*
X111944000Y-74127000D01*
X157744000Y-53327000D02*
X125144000Y-53327000D01*
%TO.N,/FPGA/SRAM_A13*%
X124044000Y-57827000D02*
X123594000Y-58277000D01*
X111444000Y-73727000D02*
X111444000Y-60627000D01*
X111444000Y-60627000D02*
X113794000Y-58277000D01*
D42*
X161500000Y-86100000D02*
X161500000Y-86800000D01*
D37*
X124717082Y-52827000D02*
X124044000Y-53500082D01*
X110244000Y-74027000D02*
X111144000Y-74027000D01*
D42*
X168300000Y-79300000D02*
X161500000Y-86100000D01*
D37*
X111144000Y-74027000D02*
X111444000Y-73727000D01*
X124044000Y-53500082D02*
X124044000Y-57827000D01*
X113794000Y-58277000D02*
X118894000Y-58277000D01*
X168300000Y-79000000D02*
X168300000Y-63183000D01*
X168300000Y-79100000D02*
X168300000Y-79000000D01*
D42*
X161500000Y-86800000D02*
X161100000Y-87200000D01*
D37*
X168300000Y-63183000D02*
X157944000Y-52827000D01*
X157944000Y-52827000D02*
X124717082Y-52827000D01*
D42*
X168300000Y-79000000D02*
X168300000Y-79300000D01*
D37*
X123594000Y-58277000D02*
X118894000Y-58277000D01*
%TO.N,/FPGA/SRAM_A14*%
X123444000Y-57527000D02*
X123194000Y-57777000D01*
X158144000Y-52327000D02*
X124444000Y-52327000D01*
X123194000Y-57777000D02*
X118894000Y-57777000D01*
X108444000Y-60327000D02*
X110994000Y-57777000D01*
X123444000Y-53327000D02*
X123444000Y-57527000D01*
X110244000Y-73527000D02*
X108844000Y-73527000D01*
D42*
X162100000Y-86200000D02*
X168800000Y-79500000D01*
D37*
X168800000Y-62983000D02*
X158144000Y-52327000D01*
X108444000Y-73127000D02*
X108444000Y-60327000D01*
X168800000Y-79100000D02*
X168800000Y-79000000D01*
X110994000Y-57777000D02*
X118894000Y-57777000D01*
X108844000Y-73527000D02*
X108444000Y-73127000D01*
X124444000Y-52327000D02*
X123444000Y-53327000D01*
D42*
X168800000Y-79500000D02*
X168800000Y-79000000D01*
D37*
X168800000Y-79000000D02*
X168800000Y-62983000D01*
%TO.N,/FPGA/SRAM_A15*%
X131044000Y-73327000D02*
X131044000Y-60527000D01*
D42*
X157704000Y-84096000D02*
X160300000Y-81500000D01*
D37*
X130844000Y-73527000D02*
X131044000Y-73327000D01*
X131044000Y-60527000D02*
X133794000Y-57777000D01*
X129944000Y-73527000D02*
X130844000Y-73527000D01*
X138594000Y-57777000D02*
X154894000Y-57777000D01*
X133794000Y-57777000D02*
X138594000Y-57777000D01*
X160300000Y-63183000D02*
X160300000Y-79000000D01*
D42*
X157704000Y-88496000D02*
X157704000Y-84096000D01*
D37*
X160300000Y-79000000D02*
X160300000Y-79100000D01*
X154894000Y-57777000D02*
X160300000Y-63183000D01*
D42*
X160300000Y-81500000D02*
X160300000Y-79000000D01*
X157700000Y-88800000D02*
X157700000Y-88500000D01*
X157700000Y-88500000D02*
X157704000Y-88496000D01*
X158100000Y-89200000D02*
X157700000Y-88800000D01*
D37*
%TO.N,/FPGA/SRAM_A16*%
X131044000Y-74027000D02*
X131544000Y-73527000D01*
X129944000Y-74027000D02*
X131044000Y-74027000D01*
D42*
X159800000Y-81500000D02*
X159800000Y-79100000D01*
D37*
X131544000Y-73527000D02*
X131544000Y-60727000D01*
D42*
X157500000Y-83800000D02*
X159800000Y-81500000D01*
D37*
X138594000Y-58277000D02*
X154494000Y-58277000D01*
X154494000Y-58277000D02*
X159800000Y-63583000D01*
X159800000Y-63583000D02*
X159800000Y-79100000D01*
X133994000Y-58277000D02*
X138594000Y-58277000D01*
D42*
X157100000Y-86900000D02*
X157500000Y-86500000D01*
X157500000Y-86500000D02*
X157500000Y-83800000D01*
X157100000Y-87200000D02*
X157100000Y-86900000D01*
D37*
X131544000Y-60727000D02*
X133994000Y-58277000D01*
%TO.N,/FPGA/SRAM_A17*%
X159300000Y-64183000D02*
X159300000Y-79100000D01*
X134494000Y-58777000D02*
X138594000Y-58777000D01*
X153894000Y-58777000D02*
X159300000Y-64183000D01*
X132044000Y-73727000D02*
X132044000Y-61227000D01*
D42*
X157100000Y-86200000D02*
X157100000Y-83600000D01*
D37*
X138594000Y-58777000D02*
X153894000Y-58777000D01*
D42*
X159300000Y-81400000D02*
X159300000Y-79100000D01*
D37*
X132044000Y-61227000D02*
X134494000Y-58777000D01*
X129944000Y-74527000D02*
X131244000Y-74527000D01*
X131244000Y-74527000D02*
X132044000Y-73727000D01*
D42*
X157100000Y-83600000D02*
X159300000Y-81400000D01*
%TO.N,/FPGA/SRAM_A18*%
X156704000Y-83396000D02*
X158800000Y-81300000D01*
D37*
X132544000Y-61627000D02*
X134894000Y-59277000D01*
D42*
X157100000Y-88200000D02*
X156704000Y-87804000D01*
D37*
X158800000Y-64583000D02*
X158800000Y-79100000D01*
X134894000Y-59277000D02*
X138594000Y-59277000D01*
X132544000Y-74327000D02*
X132544000Y-61627000D01*
D42*
X158800000Y-81300000D02*
X158800000Y-79100000D01*
D37*
X131844000Y-75027000D02*
X132544000Y-74327000D01*
D42*
X156704000Y-87804000D02*
X156704000Y-83396000D01*
D37*
X153494000Y-59277000D02*
X158800000Y-64583000D01*
X138594000Y-59277000D02*
X153494000Y-59277000D01*
X129944000Y-75027000D02*
X131844000Y-75027000D01*
%TO.N,/FPGA/SRAM_A19*%
X129944000Y-75527000D02*
X132444000Y-75527000D01*
X152994000Y-59777000D02*
X158300000Y-65083000D01*
D42*
X156500000Y-82800000D02*
X158300000Y-81000000D01*
D37*
X132444000Y-75527000D02*
X133144000Y-74827000D01*
X133144000Y-74827000D02*
X133144000Y-61927000D01*
X135294000Y-59777000D02*
X138594000Y-59777000D01*
D42*
X156500000Y-88600000D02*
X156500000Y-82800000D01*
D37*
X138594000Y-59777000D02*
X152994000Y-59777000D01*
D42*
X158300000Y-81000000D02*
X158300000Y-79100000D01*
X157100000Y-89200000D02*
X156500000Y-88600000D01*
D37*
X158300000Y-65083000D02*
X158300000Y-79100000D01*
X133144000Y-61927000D02*
X135294000Y-59777000D01*
%TO.N,/FPGA/~{SRAM_CS}*%
X135894000Y-66277000D02*
X138594000Y-66277000D01*
X129944000Y-82027000D02*
X132444000Y-82027000D01*
X134344000Y-67827000D02*
X135894000Y-66277000D01*
X132444000Y-82027000D02*
X134344000Y-80127000D01*
X134344000Y-80127000D02*
X134344000Y-67827000D01*
D42*
X152100000Y-86200000D02*
X152100000Y-84900000D01*
D37*
X149300000Y-78900000D02*
X149300000Y-79100000D01*
X148394000Y-66277000D02*
X149300000Y-67183000D01*
X138594000Y-66277000D02*
X148394000Y-66277000D01*
D42*
X149300000Y-82100000D02*
X149300000Y-78900000D01*
D37*
X149300000Y-67183000D02*
X149300000Y-78900000D01*
D42*
X152100000Y-84900000D02*
X149300000Y-82100000D01*
D37*
%TO.N,/FPGA/SRAM_A0*%
X132244000Y-83027000D02*
X134944000Y-80327000D01*
X135894000Y-67277000D02*
X138594000Y-67277000D01*
X129944000Y-83027000D02*
X132244000Y-83027000D01*
X134944000Y-80327000D02*
X134944000Y-68227000D01*
X134944000Y-68227000D02*
X135894000Y-67277000D01*
X148094000Y-67277000D02*
X138594000Y-67277000D01*
D42*
X148800000Y-82200000D02*
X148800000Y-79000000D01*
D37*
X148800000Y-79000000D02*
X148800000Y-67983000D01*
X148800000Y-67983000D02*
X148094000Y-67277000D01*
D42*
X151500000Y-84900000D02*
X148800000Y-82200000D01*
X151500000Y-86300000D02*
X151500000Y-84900000D01*
X152100000Y-86900000D02*
X151500000Y-86300000D01*
D37*
X148800000Y-79100000D02*
X148800000Y-79000000D01*
D42*
X152100000Y-87200000D02*
X152100000Y-86900000D01*
D37*
%TO.N,/FPGA/SRAM_A1*%
X129944000Y-83527000D02*
X132644000Y-83527000D01*
X132644000Y-83527000D02*
X135544000Y-80627000D01*
X135544000Y-80627000D02*
X135544000Y-68527000D01*
X135544000Y-68527000D02*
X136294000Y-67777000D01*
X136294000Y-67777000D02*
X138594000Y-67777000D01*
X138594000Y-67777000D02*
X147194000Y-67777000D01*
X147194000Y-67777000D02*
X147800000Y-68383000D01*
D42*
X151100000Y-85200000D02*
X147800000Y-81900000D01*
D37*
X147800000Y-68383000D02*
X147800000Y-79100000D01*
D42*
X151100000Y-86200000D02*
X151100000Y-85200000D01*
X147800000Y-81900000D02*
X147800000Y-79100000D01*
D37*
%TO.N,/FPGA/SRAM_A2*%
X133044000Y-84027000D02*
X136144000Y-80927000D01*
X136144000Y-80927000D02*
X136144000Y-68927000D01*
X129944000Y-84027000D02*
X133044000Y-84027000D01*
X136144000Y-68927000D02*
X136794000Y-68277000D01*
X136794000Y-68277000D02*
X138594000Y-68277000D01*
D42*
X152100000Y-88200000D02*
X151600000Y-87700000D01*
D37*
X147300000Y-68783000D02*
X147300000Y-79100000D01*
X138594000Y-68277000D02*
X146794000Y-68277000D01*
D42*
X147300000Y-82200000D02*
X147300000Y-79100000D01*
X151400000Y-86600000D02*
X150900000Y-86600000D01*
D37*
X146794000Y-68277000D02*
X147300000Y-68783000D01*
D42*
X150700000Y-85600000D02*
X147300000Y-82200000D01*
X151600000Y-86800000D02*
X151400000Y-86600000D01*
X150900000Y-86600000D02*
X150700000Y-86400000D01*
X151600000Y-87700000D02*
X151600000Y-86800000D01*
X150700000Y-86400000D02*
X150700000Y-85600000D01*
D37*
%TO.N,/FPGA/SRAM_A3*%
X133444000Y-84527000D02*
X136644000Y-81327000D01*
X137094000Y-68777000D02*
X138594000Y-68777000D01*
X136644000Y-69227000D02*
X137094000Y-68777000D01*
X129944000Y-84527000D02*
X133444000Y-84527000D01*
X136644000Y-81327000D02*
X136644000Y-69227000D01*
D42*
X150496000Y-85796000D02*
X146300000Y-81600000D01*
X151100000Y-87200000D02*
X150496000Y-86596000D01*
X150496000Y-86596000D02*
X150496000Y-85796000D01*
D37*
X146300000Y-79100000D02*
X146300000Y-79000000D01*
X145894000Y-68777000D02*
X138594000Y-68777000D01*
X146300000Y-69183000D02*
X145894000Y-68777000D01*
D42*
X146300000Y-81600000D02*
X146300000Y-79000000D01*
D37*
X146300000Y-79000000D02*
X146300000Y-69183000D01*
%TO.N,/FPGA/SRAM_A4*%
X129944000Y-85027000D02*
X133944000Y-85027000D01*
X133944000Y-85027000D02*
X137144000Y-81827000D01*
X137144000Y-81827000D02*
X137144000Y-69527000D01*
X137394000Y-69277000D02*
X138594000Y-69277000D01*
X137144000Y-69527000D02*
X137394000Y-69277000D01*
D42*
X151100000Y-88200000D02*
X150700000Y-87800000D01*
X148200000Y-85600000D02*
X148200000Y-83989849D01*
D37*
X145194000Y-69277000D02*
X138594000Y-69277000D01*
D42*
X150200000Y-86700000D02*
X149300000Y-86700000D01*
X150700000Y-87800000D02*
X150700000Y-87200000D01*
D37*
X145800000Y-69883000D02*
X145194000Y-69277000D01*
D42*
X149300000Y-86700000D02*
X148200000Y-85600000D01*
D37*
X145800000Y-78600000D02*
X145800000Y-69883000D01*
D42*
X145800000Y-81589849D02*
X145800000Y-78600000D01*
X150700000Y-87200000D02*
X150200000Y-86700000D01*
X148200000Y-83989849D02*
X145800000Y-81589849D01*
D37*
X145800000Y-79100000D02*
X145800000Y-78600000D01*
D39*
%TO.N,/FPGA/~{SRAM_UB1}*%
X145100000Y-92800000D02*
X144615000Y-92315000D01*
X144615000Y-92315000D02*
X142585000Y-92315000D01*
D37*
X121544000Y-90727000D02*
X123132000Y-92315000D01*
X118894000Y-66777000D02*
X120694000Y-66777000D01*
X142585000Y-92315000D02*
X124956000Y-92315000D01*
X123132000Y-92315000D02*
X124956000Y-92315000D01*
D39*
X151100000Y-93200000D02*
X150700000Y-92800000D01*
D37*
X121544000Y-67627000D02*
X121544000Y-90727000D01*
X120694000Y-66777000D02*
X121544000Y-67627000D01*
D39*
X150700000Y-92800000D02*
X145100000Y-92800000D01*
%TO.N,/FPGA/~{SRAM_LB1}*%
X145184334Y-92596400D02*
X144402934Y-91815000D01*
D37*
X122144000Y-67427000D02*
X122144000Y-90427000D01*
X120994000Y-66277000D02*
X122144000Y-67427000D01*
D39*
X151496400Y-92596400D02*
X145184334Y-92596400D01*
X144402934Y-91815000D02*
X142585000Y-91815000D01*
D37*
X118894000Y-66277000D02*
X120994000Y-66277000D01*
D39*
X152100000Y-93200000D02*
X151496400Y-92596400D01*
D37*
X122144000Y-90427000D02*
X123532000Y-91815000D01*
X123532000Y-91815000D02*
X142585000Y-91815000D01*
%TO.N,/FPGA/R7*%
X179744000Y-86527000D02*
X178956000Y-87315000D01*
D42*
X163100000Y-89200000D02*
X163476000Y-88824000D01*
X163476000Y-88824000D02*
X171006000Y-88824000D01*
D37*
X178956000Y-87315000D02*
X172515000Y-87315000D01*
X180144000Y-86527000D02*
X179744000Y-86527000D01*
D42*
X171006000Y-88824000D02*
X172515000Y-87315000D01*
D37*
X180332000Y-86715000D02*
X180144000Y-86527000D01*
X180332000Y-87587000D02*
X180332000Y-86715000D01*
%TO.N,/FPGA/R6*%
X178556000Y-86815000D02*
X179244000Y-86127000D01*
D42*
X171485000Y-86815000D02*
X169747000Y-88553000D01*
D37*
X172900000Y-86815000D02*
X178556000Y-86815000D01*
X180444000Y-86127000D02*
X180832000Y-86515000D01*
X179244000Y-86127000D02*
X180444000Y-86127000D01*
D42*
X169747000Y-88553000D02*
X164453000Y-88553000D01*
D37*
X180832000Y-86515000D02*
X180832000Y-87587000D01*
X172515000Y-86815000D02*
X172900000Y-86815000D01*
D42*
X172900000Y-86815000D02*
X171485000Y-86815000D01*
X164453000Y-88553000D02*
X164100000Y-88200000D01*
D37*
%TO.N,/FPGA/R5*%
X181332000Y-86215000D02*
X181332000Y-87587000D01*
X172900000Y-86315000D02*
X178256000Y-86315000D01*
X178944000Y-85627000D02*
X180744000Y-85627000D01*
D42*
X171085000Y-86315000D02*
X172900000Y-86315000D01*
X169200000Y-88200000D02*
X171085000Y-86315000D01*
X165100000Y-88200000D02*
X169200000Y-88200000D01*
D37*
X180744000Y-85627000D02*
X181332000Y-86215000D01*
X172515000Y-86315000D02*
X172900000Y-86315000D01*
X178256000Y-86315000D02*
X178944000Y-85627000D01*
%TO.N,/FPGA/R4*%
X172515000Y-85815000D02*
X177556000Y-85815000D01*
X178078520Y-85292480D02*
X181109480Y-85292480D01*
D42*
X162100000Y-88200000D02*
X162453000Y-87847000D01*
X169053000Y-87847000D02*
X171085000Y-85815000D01*
X171085000Y-85815000D02*
X172515000Y-85815000D01*
D37*
X177556000Y-85815000D02*
X178078520Y-85292480D01*
X181832000Y-86015000D02*
X181832000Y-87587000D01*
D42*
X162453000Y-87847000D02*
X169053000Y-87847000D01*
D37*
X181109480Y-85292480D02*
X181832000Y-86015000D01*
D42*
%TO.N,/FPGA/R3*%
X164100000Y-87200000D02*
X164500000Y-87600000D01*
X164500000Y-87600000D02*
X168600000Y-87600000D01*
X168600000Y-87600000D02*
X171885000Y-84315000D01*
D37*
X182332000Y-85715000D02*
X182332000Y-87587000D01*
D42*
X171885000Y-84315000D02*
X173800000Y-84315000D01*
D37*
X173800000Y-84315000D02*
X180932000Y-84315000D01*
X172700000Y-84315000D02*
X173800000Y-84315000D01*
X172515000Y-84315000D02*
X172700000Y-84315000D01*
X180932000Y-84315000D02*
X182332000Y-85715000D01*
%TO.N,/FPGA/R2*%
X172700000Y-83815000D02*
X173000000Y-83815000D01*
D42*
X171785000Y-83815000D02*
X173000000Y-83815000D01*
X165100000Y-87200000D02*
X168400000Y-87200000D01*
D37*
X172515000Y-83815000D02*
X172700000Y-83815000D01*
D42*
X168400000Y-87200000D02*
X171785000Y-83815000D01*
D37*
X173000000Y-83815000D02*
X181232000Y-83815000D01*
X182832000Y-85415000D02*
X182832000Y-87587000D01*
X181232000Y-83815000D02*
X182832000Y-85415000D01*
D42*
%TO.N,/FPGA/R1*%
X171996500Y-83315000D02*
X173200000Y-83315000D01*
D37*
X172515000Y-83315000D02*
X181632000Y-83315000D01*
D42*
X163100000Y-87200000D02*
X163500000Y-86800000D01*
X168511500Y-86800000D02*
X171996500Y-83315000D01*
X163500000Y-86800000D02*
X168511500Y-86800000D01*
D37*
X181632000Y-83315000D02*
X183332000Y-85015000D01*
X183332000Y-85015000D02*
X183332000Y-87587000D01*
D42*
%TO.N,/FPGA/R0*%
X171585000Y-82815000D02*
X172600000Y-82815000D01*
D37*
X183832000Y-84815000D02*
X183832000Y-87587000D01*
D42*
X169000000Y-85400000D02*
X171585000Y-82815000D01*
D37*
X172600000Y-82815000D02*
X172900000Y-82815000D01*
D42*
X163900000Y-85400000D02*
X169000000Y-85400000D01*
X163100000Y-86200000D02*
X163900000Y-85400000D01*
D37*
X172900000Y-82815000D02*
X181832000Y-82815000D01*
X172515000Y-82815000D02*
X172600000Y-82815000D01*
X181832000Y-82815000D02*
X183832000Y-84815000D01*
%TO.N,/FPGA/PIXELCLOCK*%
X172515000Y-101815000D02*
X173100000Y-101815000D01*
D42*
X164100000Y-97200000D02*
X164600000Y-96700000D01*
D37*
X173100000Y-101815000D02*
X182856000Y-101815000D01*
X182856000Y-101815000D02*
X185832000Y-98839000D01*
D42*
X164600000Y-96700000D02*
X166400000Y-96700000D01*
X171515000Y-101815000D02*
X173100000Y-101815000D01*
D37*
X185832000Y-98839000D02*
X185832000Y-96063000D01*
D42*
X166400000Y-96700000D02*
X171515000Y-101815000D01*
D37*
%TO.N,/FPGA/B7*%
X182856000Y-101315000D02*
X185332000Y-98839000D01*
D42*
X166400000Y-95700000D02*
X172015000Y-101315000D01*
D37*
X172515000Y-101315000D02*
X174000000Y-101315000D01*
D42*
X163100000Y-96200000D02*
X163600000Y-95700000D01*
D37*
X174000000Y-101315000D02*
X182856000Y-101315000D01*
X185332000Y-98839000D02*
X185332000Y-96063000D01*
D42*
X163600000Y-95700000D02*
X166400000Y-95700000D01*
X172015000Y-101315000D02*
X174000000Y-101315000D01*
D37*
%TO.N,/FPGA/B6*%
X182544000Y-99827000D02*
X183617082Y-99827000D01*
X173000000Y-99815000D02*
X182532000Y-99815000D01*
D42*
X170915000Y-99815000D02*
X173000000Y-99815000D01*
D37*
X183617082Y-99827000D02*
X184832000Y-98612082D01*
D42*
X165100000Y-95200000D02*
X166300000Y-95200000D01*
X166300000Y-95200000D02*
X170915000Y-99815000D01*
D37*
X172515000Y-99815000D02*
X173000000Y-99815000D01*
X182532000Y-99815000D02*
X182544000Y-99827000D01*
X184832000Y-98612082D02*
X184832000Y-96063000D01*
%TO.N,/FPGA/B5*%
X172515000Y-99315000D02*
X172700000Y-99315000D01*
D42*
X164500000Y-94800000D02*
X166400000Y-94800000D01*
X170915000Y-99315000D02*
X172700000Y-99315000D01*
D37*
X172700000Y-99315000D02*
X183656000Y-99315000D01*
D42*
X166400000Y-94800000D02*
X170915000Y-99315000D01*
D37*
X183656000Y-99315000D02*
X184332000Y-98639000D01*
D42*
X164100000Y-95200000D02*
X164500000Y-94800000D01*
D37*
X184332000Y-98639000D02*
X184332000Y-96063000D01*
D42*
%TO.N,/FPGA/B4*%
X163100000Y-95200000D02*
X163724000Y-94576000D01*
D37*
X183044000Y-98927000D02*
X178244000Y-98927000D01*
X183832000Y-96063000D02*
X183832000Y-98139000D01*
X178244000Y-98927000D02*
X177632000Y-98315000D01*
X177632000Y-98315000D02*
X173100000Y-98315000D01*
X173100000Y-98315000D02*
X172515000Y-98315000D01*
X183832000Y-98139000D02*
X183044000Y-98927000D01*
D42*
X163724000Y-94576000D02*
X166776000Y-94576000D01*
X166776000Y-94576000D02*
X170515000Y-98315000D01*
X170515000Y-98315000D02*
X173100000Y-98315000D01*
D37*
%TO.N,/FPGA/B3*%
X178644000Y-98527000D02*
X177932000Y-97815000D01*
X182644000Y-98527000D02*
X178644000Y-98527000D01*
D42*
X165100000Y-94200000D02*
X167400000Y-94200000D01*
D37*
X172900000Y-97815000D02*
X172515000Y-97815000D01*
D42*
X167400000Y-94200000D02*
X171015000Y-97815000D01*
D37*
X183332000Y-96063000D02*
X183332000Y-97839000D01*
D42*
X171015000Y-97815000D02*
X172900000Y-97815000D01*
D37*
X177932000Y-97815000D02*
X172900000Y-97815000D01*
X183332000Y-97839000D02*
X182644000Y-98527000D01*
D42*
%TO.N,/FPGA/B2*%
X167600000Y-93800000D02*
X170115000Y-96315000D01*
D37*
X182544000Y-98127000D02*
X179044000Y-98127000D01*
X179044000Y-98127000D02*
X177232000Y-96315000D01*
D42*
X163100000Y-94200000D02*
X163500000Y-93800000D01*
D37*
X177232000Y-96315000D02*
X172515000Y-96315000D01*
D42*
X163500000Y-93800000D02*
X167600000Y-93800000D01*
D37*
X182832000Y-97839000D02*
X182544000Y-98127000D01*
X182832000Y-96063000D02*
X182832000Y-97839000D01*
D42*
X170115000Y-96315000D02*
X172515000Y-96315000D01*
D37*
%TO.N,/FPGA/B1*%
X177332000Y-95815000D02*
X179244000Y-97727000D01*
D42*
X168300000Y-93200000D02*
X165100000Y-93200000D01*
D37*
X179244000Y-97727000D02*
X182044000Y-97727000D01*
X182044000Y-97727000D02*
X182332000Y-97439000D01*
X172515000Y-95815000D02*
X173300000Y-95815000D01*
X182332000Y-97439000D02*
X182332000Y-96063000D01*
D42*
X173300000Y-95815000D02*
X170915000Y-95815000D01*
D37*
X173300000Y-95815000D02*
X177332000Y-95815000D01*
D42*
X170915000Y-95815000D02*
X168300000Y-93200000D01*
D37*
%TO.N,/FPGA/B0*%
X172800000Y-95315000D02*
X172515000Y-95315000D01*
D42*
X168500000Y-92700000D02*
X171115000Y-95315000D01*
D37*
X181832000Y-96939000D02*
X181544000Y-97227000D01*
D42*
X164100000Y-93200000D02*
X164400000Y-93200000D01*
D37*
X181544000Y-97227000D02*
X179344000Y-97227000D01*
X179344000Y-97227000D02*
X177432000Y-95315000D01*
D42*
X164900000Y-92700000D02*
X168500000Y-92700000D01*
D37*
X181832000Y-96063000D02*
X181832000Y-96939000D01*
D42*
X171115000Y-95315000D02*
X172800000Y-95315000D01*
X164400000Y-93200000D02*
X164900000Y-92700000D01*
D37*
X177432000Y-95315000D02*
X172800000Y-95315000D01*
D42*
%TO.N,/FPGA/~{BLANK}*%
X168600000Y-92200000D02*
X169150000Y-92750000D01*
X165100000Y-92200000D02*
X168600000Y-92200000D01*
D37*
X174696000Y-94075000D02*
X175100000Y-94075000D01*
D42*
X169150000Y-92750000D02*
X169000000Y-92600000D01*
X175100000Y-94075000D02*
X170475000Y-94075000D01*
D37*
X175100000Y-94075000D02*
X178844000Y-94075000D01*
D42*
X170475000Y-94075000D02*
X169150000Y-92750000D01*
%TO.N,/FPGA/G7*%
X170815000Y-93315000D02*
X172900000Y-93315000D01*
D37*
X172900000Y-93315000D02*
X172515000Y-93315000D01*
D42*
X164100000Y-91200000D02*
X164500000Y-91600000D01*
X164500000Y-91600000D02*
X169100000Y-91600000D01*
D37*
X175792000Y-93575000D02*
X175532000Y-93315000D01*
D42*
X169100000Y-91600000D02*
X170815000Y-93315000D01*
D37*
X175532000Y-93315000D02*
X172900000Y-93315000D01*
X178844000Y-93575000D02*
X175792000Y-93575000D01*
%TO.N,/FPGA/G6*%
X172515000Y-92815000D02*
X172800000Y-92815000D01*
D42*
X170915000Y-92815000D02*
X172800000Y-92815000D01*
D37*
X175892000Y-93075000D02*
X178844000Y-93075000D01*
D42*
X169300000Y-91200000D02*
X170915000Y-92815000D01*
D37*
X175632000Y-92815000D02*
X175892000Y-93075000D01*
D42*
X165100000Y-91200000D02*
X169300000Y-91200000D01*
D37*
X172800000Y-92815000D02*
X175632000Y-92815000D01*
D42*
%TO.N,/FPGA/G5*%
X163496000Y-90804000D02*
X169604000Y-90804000D01*
D37*
X175732000Y-92315000D02*
X172900000Y-92315000D01*
X172900000Y-92315000D02*
X172515000Y-92315000D01*
X178844000Y-92575000D02*
X175992000Y-92575000D01*
X175992000Y-92575000D02*
X175732000Y-92315000D01*
D42*
X163100000Y-91200000D02*
X163496000Y-90804000D01*
X169604000Y-90804000D02*
X171115000Y-92315000D01*
X171115000Y-92315000D02*
X172900000Y-92315000D01*
%TO.N,/FPGA/G4*%
X172115000Y-91815000D02*
X173400000Y-91815000D01*
X162100000Y-91200000D02*
X162700000Y-90600000D01*
D37*
X173400000Y-91815000D02*
X175732000Y-91815000D01*
X172515000Y-91815000D02*
X173400000Y-91815000D01*
D42*
X170900000Y-90600000D02*
X172115000Y-91815000D01*
D37*
X175732000Y-91815000D02*
X175992000Y-92075000D01*
X175992000Y-92075000D02*
X178844000Y-92075000D01*
D42*
X162700000Y-90600000D02*
X170900000Y-90600000D01*
D37*
%TO.N,/FPGA/G3*%
X172600000Y-90815000D02*
X172515000Y-90815000D01*
X176092000Y-91575000D02*
X175332000Y-90815000D01*
X175332000Y-90815000D02*
X172600000Y-90815000D01*
D42*
X171500000Y-90200000D02*
X172115000Y-90815000D01*
X172115000Y-90815000D02*
X172600000Y-90815000D01*
D37*
X178844000Y-91575000D02*
X176092000Y-91575000D01*
D42*
X165100000Y-90200000D02*
X171500000Y-90200000D01*
D37*
%TO.N,/FPGA/G2*%
X175432000Y-90315000D02*
X173100000Y-90315000D01*
D42*
X172200000Y-90315000D02*
X173100000Y-90315000D01*
X164453000Y-89847000D02*
X171732000Y-89847000D01*
X164100000Y-90200000D02*
X164453000Y-89847000D01*
X171732000Y-89847000D02*
X172200000Y-90315000D01*
D37*
X178844000Y-91075000D02*
X176192000Y-91075000D01*
X176192000Y-91075000D02*
X175432000Y-90315000D01*
X173100000Y-90315000D02*
X172515000Y-90315000D01*
%TO.N,/FPGA/G1*%
X175532000Y-89815000D02*
X176292000Y-90575000D01*
X176292000Y-90575000D02*
X178844000Y-90575000D01*
D42*
X172885000Y-89600000D02*
X173100000Y-89815000D01*
D37*
X173100000Y-89815000D02*
X175532000Y-89815000D01*
D42*
X162100000Y-90200000D02*
X162700000Y-89600000D01*
X162700000Y-89600000D02*
X172885000Y-89600000D01*
%TO.N,/FPGA/G0*%
X165100000Y-89200000D02*
X175617000Y-89200000D01*
D37*
X176258500Y-89841500D02*
X175732000Y-89315000D01*
D42*
X175617000Y-89200000D02*
X176258500Y-89841500D01*
D37*
X176492000Y-90075000D02*
X176258500Y-89841500D01*
X178844000Y-90075000D02*
X176492000Y-90075000D01*
%TO.N,/FPGA/SRAM_D15*%
X132850000Y-98700000D02*
X123100000Y-98700000D01*
D39*
X146385000Y-97315000D02*
X142585000Y-97315000D01*
D37*
X106732000Y-97315000D02*
X105944000Y-96527000D01*
X107244000Y-81527000D02*
X110244000Y-81527000D01*
X123100000Y-98700000D02*
X121715000Y-97315000D01*
X134235000Y-97315000D02*
X132850000Y-98700000D01*
X142585000Y-97315000D02*
X134235000Y-97315000D01*
X121715000Y-97315000D02*
X106732000Y-97315000D01*
X105944000Y-82827000D02*
X107244000Y-81527000D01*
D39*
X148500000Y-95200000D02*
X146385000Y-97315000D01*
D37*
X105944000Y-96527000D02*
X105944000Y-82827000D01*
D39*
X150100000Y-95200000D02*
X148500000Y-95200000D01*
D37*
%TO.N,/FPGA/SRAM_D14*%
X122570000Y-99400000D02*
X120985000Y-97815000D01*
D39*
X146285000Y-97815000D02*
X148479400Y-95620600D01*
D37*
X142585000Y-97815000D02*
X142400000Y-97815000D01*
X133050000Y-99400000D02*
X122570000Y-99400000D01*
X106032000Y-97815000D02*
X105444000Y-97227000D01*
X134635000Y-97815000D02*
X133050000Y-99400000D01*
X105444000Y-82127000D02*
X106544000Y-81027000D01*
X105444000Y-97227000D02*
X105444000Y-82127000D01*
X106544000Y-81027000D02*
X110244000Y-81027000D01*
D39*
X142400000Y-97815000D02*
X146285000Y-97815000D01*
D37*
X120985000Y-97815000D02*
X106032000Y-97815000D01*
X142400000Y-97815000D02*
X134635000Y-97815000D01*
D39*
X153679400Y-95620600D02*
X154100000Y-95200000D01*
X148479400Y-95620600D02*
X153679400Y-95620600D01*
D37*
%TO.N,/FPGA/SRAM_D13*%
X133400000Y-100000000D02*
X121900000Y-100000000D01*
D39*
X146085000Y-98315000D02*
X148575800Y-95824200D01*
D37*
X135085000Y-98315000D02*
X133400000Y-100000000D01*
X104844000Y-97627000D02*
X104844000Y-81827000D01*
D39*
X151724200Y-95824200D02*
X152100000Y-96200000D01*
D37*
X142500000Y-98315000D02*
X135085000Y-98315000D01*
X120215000Y-98315000D02*
X105532000Y-98315000D01*
D39*
X148575800Y-95824200D02*
X151724200Y-95824200D01*
D37*
X104844000Y-81827000D02*
X106144000Y-80527000D01*
X142585000Y-98315000D02*
X142500000Y-98315000D01*
X106144000Y-80527000D02*
X110244000Y-80527000D01*
D39*
X142500000Y-98315000D02*
X146085000Y-98315000D01*
D37*
X105532000Y-98315000D02*
X104844000Y-97627000D01*
X121900000Y-100000000D02*
X120215000Y-98315000D01*
%TO.N,/FPGA/SRAM_D12*%
X121570000Y-100700000D02*
X119685000Y-98815000D01*
X119685000Y-98815000D02*
X105132000Y-98815000D01*
X133650000Y-100700000D02*
X121570000Y-100700000D01*
D39*
X142585000Y-98815000D02*
X146685000Y-98815000D01*
D37*
X135535000Y-98815000D02*
X133650000Y-100700000D01*
D39*
X146685000Y-98815000D02*
X149300000Y-96200000D01*
D37*
X142585000Y-98815000D02*
X135535000Y-98815000D01*
X104244000Y-81427000D02*
X105644000Y-80027000D01*
X104244000Y-97927000D02*
X104244000Y-81427000D01*
X105644000Y-80027000D02*
X110244000Y-80027000D01*
D39*
X149300000Y-96200000D02*
X150100000Y-96200000D01*
D37*
X105132000Y-98815000D02*
X104244000Y-97927000D01*
D39*
%TO.N,/FPGA/SRAM_D11*%
X153100000Y-96200000D02*
X152796400Y-96200000D01*
D37*
X119985000Y-100315000D02*
X104932000Y-100315000D01*
D39*
X149303600Y-96596400D02*
X145585000Y-100315000D01*
D37*
X104932000Y-100315000D02*
X103644000Y-99027000D01*
X120970000Y-101300000D02*
X119985000Y-100315000D01*
X105144000Y-78527000D02*
X110244000Y-78527000D01*
X142585000Y-100315000D02*
X142400000Y-100315000D01*
X135135000Y-100315000D02*
X134150000Y-101300000D01*
X142400000Y-100315000D02*
X135135000Y-100315000D01*
D39*
X152796400Y-96200000D02*
X152400000Y-96596400D01*
D37*
X103644000Y-80027000D02*
X105144000Y-78527000D01*
X134150000Y-101300000D02*
X120970000Y-101300000D01*
D39*
X152400000Y-96596400D02*
X149303600Y-96596400D01*
D37*
X103644000Y-99027000D02*
X103644000Y-80027000D01*
D39*
X145585000Y-100315000D02*
X142400000Y-100315000D01*
%TO.N,/FPGA/SRAM_D10*%
X153500000Y-96800000D02*
X149600000Y-96800000D01*
D37*
X103044000Y-99627000D02*
X103044000Y-79427000D01*
X135535000Y-100815000D02*
X134450000Y-101900000D01*
X103044000Y-79427000D02*
X104444000Y-78027000D01*
X119373000Y-100827000D02*
X104244000Y-100827000D01*
X120446000Y-101900000D02*
X119373000Y-100827000D01*
D39*
X149600000Y-96800000D02*
X145585000Y-100815000D01*
D37*
X134450000Y-101900000D02*
X120446000Y-101900000D01*
X104244000Y-100827000D02*
X103044000Y-99627000D01*
D39*
X145585000Y-100815000D02*
X142585000Y-100815000D01*
X154100000Y-96200000D02*
X153500000Y-96800000D01*
D37*
X104444000Y-78027000D02*
X110244000Y-78027000D01*
X142585000Y-100815000D02*
X135535000Y-100815000D01*
D39*
%TO.N,/FPGA/SRAM_D9*%
X145597066Y-101315000D02*
X142585000Y-101315000D01*
D37*
X103844000Y-77527000D02*
X110244000Y-77527000D01*
X142585000Y-101315000D02*
X136035000Y-101315000D01*
X134850000Y-102500000D02*
X119770000Y-102500000D01*
X119770000Y-102500000D02*
X118585000Y-101315000D01*
X136035000Y-101315000D02*
X134850000Y-102500000D01*
X102444000Y-100027000D02*
X102444000Y-78927000D01*
D39*
X150100000Y-97200000D02*
X149712066Y-97200000D01*
D37*
X102444000Y-78927000D02*
X103844000Y-77527000D01*
D39*
X149712066Y-97200000D02*
X145597066Y-101315000D01*
D37*
X118585000Y-101315000D02*
X103732000Y-101315000D01*
X103732000Y-101315000D02*
X102444000Y-100027000D01*
%TO.N,/FPGA/SRAM_D8*%
X103344000Y-77027000D02*
X110244000Y-77027000D01*
D39*
X149600000Y-97600000D02*
X145385000Y-101815000D01*
X151100000Y-97200000D02*
X150700000Y-97600000D01*
X150700000Y-97600000D02*
X149600000Y-97600000D01*
D37*
X118285000Y-101815000D02*
X103132000Y-101815000D01*
X119470000Y-103000000D02*
X118285000Y-101815000D01*
D39*
X145385000Y-101815000D02*
X142585000Y-101815000D01*
D37*
X101844000Y-78527000D02*
X103344000Y-77027000D01*
X135250000Y-103000000D02*
X119470000Y-103000000D01*
X142585000Y-101815000D02*
X136435000Y-101815000D01*
X103132000Y-101815000D02*
X101844000Y-100527000D01*
X101844000Y-100527000D02*
X101844000Y-78527000D01*
X136435000Y-101815000D02*
X135250000Y-103000000D01*
D39*
%TO.N,/FPGA/SRAM_D7*%
X148100000Y-91200000D02*
X143715000Y-86815000D01*
X143715000Y-86815000D02*
X142585000Y-86815000D01*
D37*
X136344000Y-89327000D02*
X138856000Y-86815000D01*
X138856000Y-86815000D02*
X142585000Y-86815000D01*
X125044000Y-78927000D02*
X125044000Y-87827000D01*
X126944000Y-77027000D02*
X125044000Y-78927000D01*
X129944000Y-77027000D02*
X126944000Y-77027000D01*
X125044000Y-87827000D02*
X126544000Y-89327000D01*
X126544000Y-89327000D02*
X136344000Y-89327000D01*
D39*
X150100000Y-91200000D02*
X148100000Y-91200000D01*
D37*
%TO.N,/FPGA/SRAM_D6*%
X138656000Y-86315000D02*
X136144000Y-88827000D01*
X125544000Y-79127000D02*
X127144000Y-77527000D01*
X127044000Y-88827000D02*
X125544000Y-87327000D01*
X142585000Y-86315000D02*
X138656000Y-86315000D01*
D39*
X150700000Y-90800000D02*
X148500000Y-90800000D01*
D37*
X125544000Y-87327000D02*
X125544000Y-79127000D01*
D39*
X144015000Y-86315000D02*
X142585000Y-86315000D01*
D37*
X136144000Y-88827000D02*
X127044000Y-88827000D01*
D39*
X151100000Y-91200000D02*
X150700000Y-90800000D01*
X148500000Y-90800000D02*
X144015000Y-86315000D01*
D37*
X127144000Y-77527000D02*
X129944000Y-77527000D01*
%TO.N,/FPGA/SRAM_D5*%
X135844000Y-88327000D02*
X127444000Y-88327000D01*
X127444000Y-88327000D02*
X126044000Y-86927000D01*
D42*
X153100000Y-91200000D02*
X152600000Y-90700000D01*
D37*
X138856000Y-85315000D02*
X135844000Y-88327000D01*
X141000000Y-85315000D02*
X138856000Y-85315000D01*
X126044000Y-86927000D02*
X126044000Y-79327000D01*
X126044000Y-79327000D02*
X127344000Y-78027000D01*
X127344000Y-78027000D02*
X129944000Y-78027000D01*
D39*
%TO.N,/FPGA/SRAM_D4*%
X143115000Y-84815000D02*
X142585000Y-84815000D01*
X151500000Y-90600000D02*
X151400000Y-90600000D01*
D37*
X135544000Y-87827000D02*
X127744000Y-87827000D01*
X127744000Y-87827000D02*
X126544000Y-86627000D01*
X142585000Y-84815000D02*
X138556000Y-84815000D01*
D39*
X148896400Y-90596400D02*
X143115000Y-84815000D01*
X152100000Y-91200000D02*
X151500000Y-90600000D01*
D37*
X126544000Y-86627000D02*
X126544000Y-79527000D01*
D39*
X151400000Y-90600000D02*
X151396400Y-90596400D01*
D37*
X126544000Y-79527000D02*
X127544000Y-78527000D01*
D39*
X151396400Y-90596400D02*
X148896400Y-90596400D01*
D37*
X138556000Y-84815000D02*
X135544000Y-87827000D01*
X127544000Y-78527000D02*
X129944000Y-78527000D01*
%TO.N,/FPGA/SRAM_D3*%
X142000000Y-83315000D02*
X139156000Y-83315000D01*
X128094000Y-87327000D02*
X127008990Y-86241990D01*
X139156000Y-83315000D02*
X135144000Y-87327000D01*
X135144000Y-87327000D02*
X128094000Y-87327000D01*
D42*
X142215000Y-83315000D02*
X142000000Y-83315000D01*
D37*
X127008990Y-86241990D02*
X127008990Y-80462010D01*
D42*
X149100000Y-90200000D02*
X142215000Y-83315000D01*
X150100000Y-90200000D02*
X149100000Y-90200000D01*
D37*
X127444000Y-80027000D02*
X129944000Y-80027000D01*
X127008990Y-80462010D02*
X127444000Y-80027000D01*
%TO.N,/FPGA/SRAM_D2*%
X127844000Y-80527000D02*
X129944000Y-80527000D01*
X128244000Y-86827000D02*
X127444000Y-86027000D01*
X127444000Y-86027000D02*
X127444000Y-80927000D01*
D42*
X151100000Y-90200000D02*
X150700000Y-89800000D01*
D37*
X127444000Y-80927000D02*
X127844000Y-80527000D01*
X142400000Y-82815000D02*
X138856000Y-82815000D01*
X138856000Y-82815000D02*
X134844000Y-86827000D01*
D42*
X150700000Y-89800000D02*
X149400000Y-89800000D01*
X142415000Y-82815000D02*
X142400000Y-82815000D01*
D37*
X134844000Y-86827000D02*
X128244000Y-86827000D01*
D42*
X149400000Y-89800000D02*
X142415000Y-82815000D01*
D37*
%TO.N,/FPGA/SRAM_D1*%
X128244000Y-81027000D02*
X127944000Y-81327000D01*
X134544000Y-86327000D02*
X138556000Y-82315000D01*
D42*
X152100000Y-90200000D02*
X151476000Y-89576000D01*
X143500000Y-83400000D02*
X143400000Y-83300000D01*
X149676000Y-89576000D02*
X143500000Y-83400000D01*
X151476000Y-89576000D02*
X149676000Y-89576000D01*
D37*
X127944000Y-81327000D02*
X127944000Y-85727000D01*
X128544000Y-86327000D02*
X134544000Y-86327000D01*
X142300000Y-82315000D02*
X142400000Y-82315000D01*
X129944000Y-81027000D02*
X128244000Y-81027000D01*
X138556000Y-82315000D02*
X142300000Y-82315000D01*
D42*
X143450000Y-83350000D02*
X143435000Y-83350000D01*
X143435000Y-83350000D02*
X142400000Y-82315000D01*
X143500000Y-83400000D02*
X143450000Y-83350000D01*
D37*
X127944000Y-85727000D02*
X128544000Y-86327000D01*
%TO.N,/FPGA/SRAM_D0*%
X134144000Y-85927000D02*
X128744000Y-85927000D01*
X128444000Y-81727000D02*
X128644000Y-81527000D01*
D42*
X153100000Y-90200000D02*
X152600000Y-89700000D01*
D37*
X138256000Y-81815000D02*
X134144000Y-85927000D01*
X128744000Y-85927000D02*
X128444000Y-85627000D01*
X128644000Y-81527000D02*
X129944000Y-81527000D01*
X128444000Y-85627000D02*
X128444000Y-81727000D01*
X141400000Y-81815000D02*
X138256000Y-81815000D01*
%TO.N,/FPGA/SRAM_D31*%
X121594000Y-65777000D02*
X122644000Y-66827000D01*
X138144000Y-91327000D02*
X139156000Y-90315000D01*
X118894000Y-65777000D02*
X121594000Y-65777000D01*
D39*
X150100000Y-92200000D02*
X147000000Y-92200000D01*
X145115000Y-90315000D02*
X142585000Y-90315000D01*
D37*
X122644000Y-89927000D02*
X124044000Y-91327000D01*
X122644000Y-66827000D02*
X122644000Y-89927000D01*
X139156000Y-90315000D02*
X142585000Y-90315000D01*
X124044000Y-91327000D02*
X138144000Y-91327000D01*
D39*
X147000000Y-92200000D02*
X145115000Y-90315000D01*
D37*
%TO.N,/FPGA/SRAM_D30*%
X123244000Y-89127000D02*
X123244000Y-66674000D01*
X124944000Y-90827000D02*
X123244000Y-89127000D01*
D39*
X151700000Y-91800000D02*
X147500000Y-91800000D01*
D37*
X142585000Y-89815000D02*
X138705000Y-89815000D01*
X138705000Y-89815000D02*
X137693000Y-90827000D01*
X123244000Y-66674000D02*
X121847000Y-65277000D01*
X137693000Y-90827000D02*
X124944000Y-90827000D01*
D39*
X152100000Y-92200000D02*
X151700000Y-91800000D01*
D37*
X121847000Y-65277000D02*
X118894000Y-65277000D01*
D39*
X147500000Y-91800000D02*
X145515000Y-89815000D01*
X145515000Y-89815000D02*
X142585000Y-89815000D01*
D37*
%TO.N,/FPGA/SRAM_D29*%
X142585000Y-88815000D02*
X138943000Y-88815000D01*
D39*
X144915000Y-88815000D02*
X147696400Y-91596400D01*
D37*
X123844000Y-66385000D02*
X122236000Y-64777000D01*
X125444000Y-90327000D02*
X123844000Y-88727000D01*
X138943000Y-88815000D02*
X137431000Y-90327000D01*
X122236000Y-64777000D02*
X118894000Y-64777000D01*
X123844000Y-88727000D02*
X123844000Y-66385000D01*
D39*
X153496400Y-91596400D02*
X154100000Y-92200000D01*
X147696400Y-91596400D02*
X153496400Y-91596400D01*
X142585000Y-88815000D02*
X144915000Y-88815000D01*
D37*
X137431000Y-90327000D02*
X125444000Y-90327000D01*
%TO.N,/FPGA/SRAM_D28*%
X124444000Y-88327000D02*
X125944000Y-89827000D01*
X125944000Y-89827000D02*
X137042000Y-89827000D01*
X118894000Y-64277000D02*
X122694000Y-64277000D01*
X138554000Y-88315000D02*
X140900000Y-88315000D01*
X137042000Y-89827000D02*
X138554000Y-88315000D01*
D39*
X155100000Y-92200000D02*
X155100000Y-92100000D01*
D37*
X124444000Y-66027000D02*
X124444000Y-88327000D01*
X122694000Y-64277000D02*
X124444000Y-66027000D01*
D39*
X155100000Y-92100000D02*
X154700000Y-91700000D01*
D37*
%TO.N,/FPGA/SRAM_D27*%
X129044000Y-60627000D02*
X129044000Y-57827000D01*
X129044000Y-57827000D02*
X129944000Y-56927000D01*
X155044000Y-56927000D02*
X162800000Y-64683000D01*
X162800000Y-64683000D02*
X162800000Y-79100000D01*
X118894000Y-62777000D02*
X126894000Y-62777000D01*
D42*
X158600000Y-84100000D02*
X162800000Y-79900000D01*
X158100000Y-86200000D02*
X158100000Y-84600000D01*
X158100000Y-84600000D02*
X158600000Y-84100000D01*
D37*
X126894000Y-62777000D02*
X129044000Y-60627000D01*
D42*
X162800000Y-79900000D02*
X162800000Y-79100000D01*
D37*
X129944000Y-56927000D02*
X155044000Y-56927000D01*
D42*
X158500000Y-84200000D02*
X158600000Y-84100000D01*
%TO.N,/FPGA/SRAM_D26*%
X159100000Y-88200000D02*
X158704000Y-87804000D01*
X158704000Y-84696000D02*
X163300000Y-80100000D01*
D37*
X128444000Y-57327000D02*
X129344000Y-56427000D01*
X129344000Y-56427000D02*
X155344000Y-56427000D01*
X163300000Y-64383000D02*
X163300000Y-78200000D01*
D42*
X163300000Y-80100000D02*
X163300000Y-78200000D01*
X158704000Y-87804000D02*
X158704000Y-84696000D01*
D37*
X155344000Y-56427000D02*
X163300000Y-64383000D01*
X126394000Y-62277000D02*
X128444000Y-60227000D01*
X118894000Y-62277000D02*
X126394000Y-62277000D01*
X163300000Y-78200000D02*
X163300000Y-79100000D01*
X128444000Y-60227000D02*
X128444000Y-57327000D01*
D41*
%TO.N,/FPGA/SRAM_D25*%
X159100000Y-84900000D02*
X164800000Y-79200000D01*
D37*
X164800000Y-64783000D02*
X164800000Y-79000000D01*
X155844000Y-55827000D02*
X164800000Y-64783000D01*
X127844000Y-59827000D02*
X127844000Y-56727000D01*
X127844000Y-56727000D02*
X128744000Y-55827000D01*
X128744000Y-55827000D02*
X155844000Y-55827000D01*
X118894000Y-61777000D02*
X125894000Y-61777000D01*
X125894000Y-61777000D02*
X127844000Y-59827000D01*
X164800000Y-79000000D02*
X164800000Y-79100000D01*
D41*
X164800000Y-79200000D02*
X164800000Y-79000000D01*
X159100000Y-86200000D02*
X159100000Y-84900000D01*
D42*
%TO.N,/FPGA/SRAM_D24*%
X165300000Y-79200000D02*
X165300000Y-79100000D01*
D37*
X118894000Y-61277000D02*
X125494000Y-61277000D01*
D42*
X159100000Y-87200000D02*
X159500000Y-86800000D01*
D37*
X127944000Y-55327000D02*
X156244000Y-55327000D01*
X125494000Y-61277000D02*
X127244000Y-59527000D01*
X127244000Y-56027000D02*
X127944000Y-55327000D01*
D42*
X159500000Y-85000000D02*
X165300000Y-79200000D01*
D37*
X165300000Y-64383000D02*
X165300000Y-79100000D01*
X156244000Y-55327000D02*
X165300000Y-64383000D01*
X127244000Y-59527000D02*
X127244000Y-56027000D01*
D42*
X159500000Y-86800000D02*
X159500000Y-85000000D01*
D37*
%TO.N,/FPGA/SRAM_D23*%
X155800000Y-78700000D02*
X155800000Y-64783000D01*
X155800000Y-64783000D02*
X152294000Y-61277000D01*
X152294000Y-61277000D02*
X138594000Y-61277000D01*
D42*
X155100000Y-86200000D02*
X155100000Y-82400000D01*
X155100000Y-82400000D02*
X155800000Y-81700000D01*
X155800000Y-81700000D02*
X155800000Y-78700000D01*
D37*
X155800000Y-79100000D02*
X155800000Y-78700000D01*
D42*
%TO.N,/FPGA/SRAM_D22*%
X154704001Y-82295999D02*
X155300000Y-81700000D01*
D37*
X155300000Y-79100000D02*
X155300000Y-79000000D01*
D42*
X154704001Y-88395999D02*
X154704001Y-82295999D01*
X155300000Y-81700000D02*
X155300000Y-79000000D01*
X154700000Y-88800000D02*
X154700000Y-88400000D01*
D37*
X151694000Y-61777000D02*
X138594000Y-61777000D01*
D42*
X155100000Y-89200000D02*
X154700000Y-88800000D01*
X154700000Y-88400000D02*
X154704001Y-88395999D01*
D37*
X155300000Y-65383000D02*
X151694000Y-61777000D01*
X155300000Y-79000000D02*
X155300000Y-65383000D01*
D42*
%TO.N,/FPGA/SRAM_D21*%
X154300000Y-83300000D02*
X154300000Y-78900000D01*
D37*
X151194000Y-62277000D02*
X154300000Y-65383000D01*
D42*
X154500000Y-86800000D02*
X154500000Y-83500000D01*
X154100000Y-87200000D02*
X154500000Y-86800000D01*
X154500000Y-83500000D02*
X154300000Y-83300000D01*
D37*
X154300000Y-78900000D02*
X154300000Y-79100000D01*
X138594000Y-62277000D02*
X151194000Y-62277000D01*
X154300000Y-65383000D02*
X154300000Y-78900000D01*
%TO.N,/FPGA/SRAM_D20*%
X153800000Y-79100000D02*
X153800000Y-65983000D01*
D42*
X153800000Y-83500000D02*
X153800000Y-79100000D01*
X154100000Y-83800000D02*
X153800000Y-83500000D01*
X154100000Y-86200000D02*
X154100000Y-83800000D01*
D37*
X150594000Y-62777000D02*
X138594000Y-62777000D01*
X153800000Y-65983000D02*
X150594000Y-62777000D01*
%TO.N,/FPGA/SRAM_D19*%
X152800000Y-66483000D02*
X152800000Y-78600000D01*
X152800000Y-78600000D02*
X152800000Y-79100000D01*
D42*
X153704000Y-83904000D02*
X152800000Y-83000000D01*
X154100000Y-88200000D02*
X153704000Y-87804000D01*
D37*
X150594000Y-64277000D02*
X152800000Y-66483000D01*
X138594000Y-64277000D02*
X150594000Y-64277000D01*
D42*
X153704000Y-87804000D02*
X153704000Y-83904000D01*
X152800000Y-83000000D02*
X152800000Y-78600000D01*
%TO.N,/FPGA/SRAM_D18*%
X153500000Y-88600000D02*
X153500000Y-84400000D01*
D37*
X152300000Y-67083000D02*
X149994000Y-64777000D01*
X152300000Y-79100000D02*
X152300000Y-67083000D01*
D42*
X154100000Y-89200000D02*
X153500000Y-88600000D01*
X152300000Y-83200000D02*
X152300000Y-79100000D01*
X153500000Y-84400000D02*
X152300000Y-83200000D01*
D37*
X149994000Y-64777000D02*
X138594000Y-64777000D01*
%TO.N,/FPGA/SRAM_D17*%
X149394000Y-65277000D02*
X150800000Y-66683000D01*
D42*
X153100000Y-84600000D02*
X150800000Y-82300000D01*
X150800000Y-82300000D02*
X150800000Y-79000000D01*
D37*
X138594000Y-65277000D02*
X149394000Y-65277000D01*
X150800000Y-79000000D02*
X150800000Y-79100000D01*
X150800000Y-66683000D02*
X150800000Y-79000000D01*
D42*
X153100000Y-86200000D02*
X153100000Y-84600000D01*
D37*
%TO.N,/FPGA/SRAM_D16*%
X150300000Y-67083000D02*
X148994000Y-65777000D01*
X150300000Y-78800000D02*
X150300000Y-67083000D01*
X148994000Y-65777000D02*
X138594000Y-65777000D01*
D42*
X150300000Y-82500000D02*
X150300000Y-78800000D01*
X152500000Y-84700000D02*
X150300000Y-82500000D01*
X153100000Y-88200000D02*
X152500000Y-87600000D01*
D37*
X150300000Y-79100000D02*
X150300000Y-78800000D01*
D42*
X152500000Y-87600000D02*
X152500000Y-84700000D01*
D37*
%TO.N,/FPGA/~{SRAM_WE}*%
X138594000Y-60777000D02*
X152894000Y-60777000D01*
X135194000Y-60777000D02*
X138594000Y-60777000D01*
D41*
X155600000Y-82550000D02*
X156300000Y-81850000D01*
D37*
X152894000Y-60777000D02*
X156300000Y-64183000D01*
D41*
X156100000Y-88200000D02*
X155600000Y-87700000D01*
D37*
X156300000Y-78900000D02*
X156300000Y-79100000D01*
X132344000Y-76527000D02*
X133744000Y-75127000D01*
X133744000Y-62227000D02*
X135194000Y-60777000D01*
D41*
X156300000Y-81850000D02*
X156300000Y-78900000D01*
D37*
X133744000Y-75127000D02*
X133744000Y-62227000D01*
D41*
X155600000Y-87700000D02*
X155600000Y-82550000D01*
D37*
X129944000Y-76527000D02*
X132344000Y-76527000D01*
X156300000Y-64183000D02*
X156300000Y-78900000D01*
D41*
%TO.N,/FPGA/D0*%
X163500000Y-98600000D02*
X165700000Y-98600000D01*
X163100000Y-98200000D02*
X163500000Y-98600000D01*
D40*
X183015000Y-104815000D02*
X173200000Y-104815000D01*
X173200000Y-104815000D02*
X172515000Y-104815000D01*
X186325000Y-128130000D02*
X186325000Y-108125000D01*
D41*
X171915000Y-104815000D02*
X173200000Y-104815000D01*
X165700000Y-98600000D02*
X171915000Y-104815000D01*
D40*
X186325000Y-108125000D02*
X183015000Y-104815000D01*
D41*
%TO.N,/FPGA/A16*%
X150300000Y-106300000D02*
X150300000Y-109030000D01*
X152500000Y-98800000D02*
X152500000Y-104100000D01*
D40*
X150300000Y-109030000D02*
X150300000Y-116200000D01*
D41*
X152500000Y-104100000D02*
X150300000Y-106300000D01*
D40*
X145175000Y-121325000D02*
X145175000Y-128130000D01*
D41*
X153100000Y-98200000D02*
X152500000Y-98800000D01*
D40*
X150300000Y-116200000D02*
X145175000Y-121325000D01*
%TO.N,/FPGA/A19*%
X145975000Y-115525000D02*
X145975000Y-113425000D01*
X147300000Y-112100000D02*
X147300000Y-109300000D01*
D41*
X154100000Y-97200000D02*
X153700000Y-97600000D01*
D40*
X138500000Y-120900000D02*
X140600000Y-120900000D01*
X145975000Y-113425000D02*
X147300000Y-112100000D01*
X136225000Y-123175000D02*
X138500000Y-120900000D01*
X147300000Y-109300000D02*
X147300000Y-109030000D01*
X136225000Y-128130000D02*
X136225000Y-123175000D01*
D41*
X147300000Y-107700000D02*
X147300000Y-109300000D01*
D40*
X140600000Y-120900000D02*
X145975000Y-115525000D01*
%TO.N,/FPGA/A17*%
X136875000Y-123625000D02*
X138500000Y-122000000D01*
X148264511Y-112235489D02*
X148264511Y-109035489D01*
X148264511Y-109035489D02*
X148270000Y-109030000D01*
D41*
X151700000Y-98600000D02*
X151700000Y-103900000D01*
X152100000Y-98200000D02*
X151700000Y-98600000D01*
D40*
X138500000Y-122000000D02*
X140700000Y-122000000D01*
D41*
X151700000Y-103900000D02*
X148270000Y-107330000D01*
D40*
X140700000Y-122000000D02*
X146675000Y-116025000D01*
X146675000Y-116025000D02*
X146675000Y-113825000D01*
X146675000Y-113825000D02*
X148264511Y-112235489D01*
D41*
X148270000Y-107330000D02*
X148270000Y-109030000D01*
D40*
X136875000Y-128130000D02*
X136875000Y-123625000D01*
X148270000Y-109030000D02*
X148300000Y-109030000D01*
%TO.N,/FPGA/A18*%
X149300000Y-114600000D02*
X141000000Y-122900000D01*
X149300000Y-109030000D02*
X149300000Y-109300000D01*
X141000000Y-122900000D02*
X139200000Y-122900000D01*
D41*
X154700000Y-97600000D02*
X154700000Y-97700000D01*
D40*
X149300000Y-109300000D02*
X149300000Y-114600000D01*
D41*
X155100000Y-97200000D02*
X154700000Y-97600000D01*
D40*
X137525000Y-124575000D02*
X137525000Y-128130000D01*
D41*
X149300000Y-108200000D02*
X149300000Y-109300000D01*
D40*
X139200000Y-122900000D02*
X137525000Y-124575000D01*
%TO.N,/FPGA/D7*%
X174950000Y-124150000D02*
X174950000Y-121450000D01*
X167300000Y-109300000D02*
X167300000Y-109030000D01*
X181775000Y-126275000D02*
X181000000Y-125500000D01*
X181775000Y-128130000D02*
X181775000Y-126275000D01*
D41*
X167300000Y-107300000D02*
X167300000Y-109300000D01*
D40*
X176300000Y-125500000D02*
X174950000Y-124150000D01*
X167300000Y-113800000D02*
X167300000Y-109300000D01*
D41*
X161700000Y-98800000D02*
X161700000Y-101700000D01*
D40*
X181000000Y-125500000D02*
X176300000Y-125500000D01*
X174950000Y-121450000D02*
X167300000Y-113800000D01*
D41*
X161100000Y-98200000D02*
X161700000Y-98800000D01*
X161700000Y-101700000D02*
X167300000Y-107300000D01*
D40*
%TO.N,/FPGA/D6*%
X167800000Y-109030000D02*
X167800000Y-107500000D01*
D41*
X167800000Y-107000000D02*
X167800000Y-107500000D01*
X162730000Y-101930000D02*
X167800000Y-107000000D01*
D40*
X182425000Y-125925000D02*
X181300000Y-124800000D01*
D41*
X161100000Y-97200000D02*
X161600000Y-97700000D01*
X161600000Y-97700000D02*
X162123260Y-97700000D01*
D40*
X176700000Y-124800000D02*
X175800000Y-123900000D01*
X167800000Y-113300000D02*
X167800000Y-109030000D01*
D41*
X162123260Y-97700000D02*
X162730000Y-98306740D01*
D40*
X175800000Y-123900000D02*
X175800000Y-121300000D01*
X181300000Y-124800000D02*
X176700000Y-124800000D01*
X175800000Y-121300000D02*
X167800000Y-113300000D01*
D41*
X162730000Y-98306740D02*
X162730000Y-101930000D01*
D40*
X182425000Y-128130000D02*
X182425000Y-125925000D01*
D41*
%TO.N,/FPGA/D5*%
X164100000Y-101200000D02*
X164100000Y-102300000D01*
D40*
X183075000Y-125375000D02*
X183075000Y-128130000D01*
X177700000Y-124100000D02*
X181800000Y-124100000D01*
X176800000Y-121400000D02*
X176800000Y-123200000D01*
X176800000Y-123200000D02*
X177700000Y-124100000D01*
D41*
X164100000Y-102300000D02*
X168300000Y-106500000D01*
D40*
X168300000Y-112900000D02*
X176800000Y-121400000D01*
X168300000Y-109030000D02*
X168300000Y-112900000D01*
X181800000Y-124100000D02*
X183075000Y-125375000D01*
X168300000Y-109030000D02*
X168300000Y-107600000D01*
D41*
X168300000Y-106500000D02*
X168300000Y-107600000D01*
D40*
X168300000Y-107600000D02*
X168300000Y-107200000D01*
D41*
%TO.N,/FPGA/D4*%
X164650000Y-101050000D02*
X164650000Y-102150000D01*
X169300000Y-106800000D02*
X169300000Y-109030000D01*
X164650000Y-102150000D02*
X169300000Y-106800000D01*
X164300000Y-100700000D02*
X164650000Y-101050000D01*
X163100000Y-100200000D02*
X163400000Y-100200000D01*
D40*
X183725000Y-124925000D02*
X183725000Y-128130000D01*
X178200000Y-123300000D02*
X182100000Y-123300000D01*
X182100000Y-123300000D02*
X183725000Y-124925000D01*
X169300000Y-112600000D02*
X177800000Y-121100000D01*
X177800000Y-122900000D02*
X178200000Y-123300000D01*
X169300000Y-109030000D02*
X169300000Y-112600000D01*
D41*
X163400000Y-100200000D02*
X163900000Y-100700000D01*
D40*
X177800000Y-121100000D02*
X177800000Y-122900000D01*
D41*
X163900000Y-100700000D02*
X164300000Y-100700000D01*
D40*
%TO.N,/FPGA/D3*%
X173100000Y-106315000D02*
X181415000Y-106315000D01*
D41*
X171015000Y-106315000D02*
X173100000Y-106315000D01*
D40*
X172515000Y-106315000D02*
X173100000Y-106315000D01*
X184375000Y-109275000D02*
X184375000Y-128130000D01*
D41*
X164100000Y-100200000D02*
X164600000Y-100700000D01*
D40*
X181415000Y-106315000D02*
X184375000Y-109275000D01*
D41*
X165400000Y-100700000D02*
X171015000Y-106315000D01*
X164600000Y-100700000D02*
X165400000Y-100700000D01*
%TO.N,/FPGA/D2*%
X165100000Y-100200000D02*
X165400000Y-100200000D01*
X165400000Y-100200000D02*
X171015000Y-105815000D01*
D40*
X185025000Y-108925000D02*
X181915000Y-105815000D01*
X172700000Y-105815000D02*
X172515000Y-105815000D01*
X185025000Y-128130000D02*
X185025000Y-108925000D01*
D41*
X171015000Y-105815000D02*
X172700000Y-105815000D01*
D40*
X181915000Y-105815000D02*
X172700000Y-105815000D01*
%TO.N,/FPGA/D1*%
X185675000Y-108475000D02*
X185675000Y-128130000D01*
X182515000Y-105315000D02*
X185675000Y-108475000D01*
D41*
X164900000Y-99800000D02*
X165400000Y-99800000D01*
X170915000Y-105315000D02*
X172800000Y-105315000D01*
D40*
X172800000Y-105315000D02*
X182515000Y-105315000D01*
D41*
X165400000Y-99800000D02*
X170915000Y-105315000D01*
X164700000Y-99800000D02*
X164900000Y-99800000D01*
X164100000Y-99200000D02*
X164700000Y-99800000D01*
D40*
X172515000Y-105315000D02*
X172800000Y-105315000D01*
D41*
%TO.N,/FPGA/D15*%
X158100000Y-102600000D02*
X161300000Y-105800000D01*
D40*
X162200000Y-120000000D02*
X162200000Y-125150000D01*
X161300000Y-119100000D02*
X162200000Y-120000000D01*
X161300000Y-109300000D02*
X161300000Y-119100000D01*
X168910000Y-126660000D02*
X168910000Y-128130000D01*
X168350000Y-126100000D02*
X168910000Y-126660000D01*
X163150000Y-126100000D02*
X168350000Y-126100000D01*
D41*
X158100000Y-101200000D02*
X158100000Y-102600000D01*
D40*
X162200000Y-125150000D02*
X163150000Y-126100000D01*
X161300000Y-109030000D02*
X161300000Y-109300000D01*
D41*
X161300000Y-105800000D02*
X161300000Y-109300000D01*
D40*
%TO.N,/FPGA/D14*%
X163100000Y-123700000D02*
X163950000Y-124550000D01*
X164800000Y-125400000D02*
X168850000Y-125400000D01*
X133610000Y-114760000D02*
X134100000Y-115250000D01*
X134100000Y-115250000D02*
X134100000Y-123150000D01*
X168850000Y-125400000D02*
X169560000Y-126110000D01*
X169560000Y-126110000D02*
X169560000Y-128130000D01*
X131960000Y-114760000D02*
X133610000Y-114760000D01*
D41*
X158100000Y-100200000D02*
X158500000Y-100600000D01*
X161800000Y-105700000D02*
X161800000Y-109030000D01*
D40*
X163950000Y-124550000D02*
X164800000Y-125400000D01*
X161800000Y-118400000D02*
X163100000Y-119700000D01*
X163100000Y-119700000D02*
X163100000Y-123700000D01*
D41*
X158500000Y-102400000D02*
X161800000Y-105700000D01*
X158500000Y-100600000D02*
X158500000Y-102400000D01*
D40*
X161800000Y-109030000D02*
X161800000Y-118400000D01*
%TO.N,/FPGA/D13*%
X162800000Y-109030000D02*
X162800000Y-109600000D01*
D41*
X162800000Y-106300000D02*
X162800000Y-109600000D01*
X158100000Y-98200000D02*
X158700000Y-98800000D01*
D40*
X164000000Y-123200000D02*
X164500000Y-123700000D01*
X164500000Y-123700000D02*
X168900000Y-123700000D01*
X168900000Y-123700000D02*
X170210000Y-125010000D01*
X164000000Y-119500000D02*
X164000000Y-123200000D01*
D41*
X158700000Y-98800000D02*
X158700000Y-102200000D01*
X158700000Y-102200000D02*
X162800000Y-106300000D01*
D40*
X170210000Y-125010000D02*
X170210000Y-128130000D01*
X162800000Y-118300000D02*
X164000000Y-119500000D01*
X162800000Y-109600000D02*
X162800000Y-118300000D01*
D41*
%TO.N,/FPGA/D12*%
X159100000Y-97200000D02*
X159500000Y-97600000D01*
D40*
X165300000Y-123000000D02*
X164800000Y-122500000D01*
X163300000Y-117700000D02*
X163300000Y-109200000D01*
X164800000Y-119200000D02*
X163300000Y-117700000D01*
X170860000Y-124660000D02*
X169200000Y-123000000D01*
X163300000Y-109200000D02*
X163300000Y-109030000D01*
D41*
X163300000Y-106100000D02*
X163300000Y-109200000D01*
D40*
X164800000Y-122500000D02*
X164800000Y-119200000D01*
X169200000Y-123000000D02*
X165300000Y-123000000D01*
X170860000Y-128130000D02*
X170860000Y-124660000D01*
D41*
X159500000Y-97600000D02*
X159500000Y-102300000D01*
X159500000Y-102300000D02*
X163300000Y-106100000D01*
%TO.N,/FPGA/D11*%
X160100000Y-102300000D02*
X164800000Y-107000000D01*
D40*
X171510000Y-122710000D02*
X164800000Y-116000000D01*
D41*
X160100000Y-101200000D02*
X160100000Y-102300000D01*
D40*
X171510000Y-128130000D02*
X171510000Y-122710000D01*
D41*
X164800000Y-107000000D02*
X164800000Y-109030000D01*
D40*
X164800000Y-116000000D02*
X164800000Y-109030000D01*
%TO.N,/FPGA/D10*%
X172160000Y-121860000D02*
X172160000Y-128130000D01*
D41*
X165300000Y-106900000D02*
X165300000Y-109900000D01*
X160200000Y-100700000D02*
X160500000Y-101000000D01*
X159700000Y-98600000D02*
X159700000Y-100600000D01*
D40*
X165300000Y-109030000D02*
X165300000Y-109900000D01*
D41*
X159800000Y-100700000D02*
X160200000Y-100700000D01*
D40*
X165300000Y-109900000D02*
X165300000Y-115000000D01*
D41*
X160500000Y-101000000D02*
X160500000Y-102100000D01*
X160100000Y-98200000D02*
X159700000Y-98600000D01*
D40*
X165300000Y-115000000D02*
X172160000Y-121860000D01*
D41*
X160500000Y-102100000D02*
X165300000Y-106900000D01*
X159700000Y-100600000D02*
X159800000Y-100700000D01*
D40*
%TO.N,/FPGA/D9*%
X166300000Y-114800000D02*
X172810000Y-121310000D01*
D41*
X160100000Y-99200000D02*
X160700000Y-99800000D01*
X166300000Y-107500000D02*
X166300000Y-109400000D01*
D40*
X166300000Y-109400000D02*
X166300000Y-114800000D01*
D41*
X160700000Y-101900000D02*
X166300000Y-107500000D01*
D40*
X166300000Y-109030000D02*
X166300000Y-109400000D01*
X172810000Y-121310000D02*
X172810000Y-128130000D01*
D41*
X160700000Y-99800000D02*
X160700000Y-101900000D01*
D40*
%TO.N,/FPGA/D8*%
X166800000Y-109100000D02*
X166800000Y-114300000D01*
X173460000Y-120960000D02*
X173460000Y-128130000D01*
X166800000Y-109030000D02*
X166800000Y-109100000D01*
D41*
X161520000Y-102020000D02*
X161520000Y-98920000D01*
X161300000Y-98700000D02*
X160800000Y-98700000D01*
X166800000Y-109100000D02*
X166800000Y-107300000D01*
D40*
X166800000Y-114300000D02*
X173460000Y-120960000D01*
D41*
X160600000Y-98500000D02*
X160600000Y-97700000D01*
X161520000Y-98920000D02*
X161300000Y-98700000D01*
X160800000Y-98700000D02*
X160600000Y-98500000D01*
X166800000Y-107300000D02*
X161520000Y-102020000D01*
X160600000Y-97700000D02*
X160100000Y-97200000D01*
D37*
%TO.N,GND*%
X111340000Y-130940000D02*
X111340000Y-130440000D01*
X138175000Y-129325000D02*
X138175000Y-128130000D01*
X150100000Y-132400000D02*
X149850000Y-132400000D01*
X131544000Y-79027000D02*
X132044000Y-78527000D01*
X184344000Y-89027000D02*
X183844000Y-89027000D01*
X138000000Y-129800000D02*
X138000000Y-129500000D01*
X111340000Y-126760000D02*
X112300000Y-125800000D01*
X174110000Y-129190000D02*
X174110000Y-128130000D01*
D39*
X150100000Y-101200000D02*
X149800000Y-101500000D01*
D37*
X143244000Y-75000000D02*
X143244000Y-73327000D01*
X186192000Y-91575000D02*
X185444000Y-90827000D01*
X106600000Y-126000000D02*
X106600000Y-125400000D01*
X186325000Y-133870000D02*
X186325000Y-132025000D01*
X173700000Y-132500000D02*
X173460000Y-132740000D01*
X186900000Y-129800000D02*
X186900000Y-129500000D01*
X186900000Y-129500000D02*
X187000000Y-129400000D01*
X187320000Y-94575000D02*
X188592000Y-94575000D01*
X181332000Y-94439000D02*
X181360500Y-94410500D01*
X149850000Y-132400000D02*
X149725000Y-132525000D01*
X110244000Y-79527000D02*
X112744000Y-79527000D01*
X106350000Y-140750000D02*
X106300000Y-140800000D01*
X106350000Y-139600000D02*
X106350000Y-140750000D01*
D39*
X156100000Y-87200000D02*
X156100000Y-86800000D01*
X164100000Y-92200000D02*
X163800000Y-91900000D01*
X156100000Y-95200000D02*
X156400000Y-94900000D01*
D37*
X187320000Y-90575000D02*
X185592000Y-90575000D01*
X161325000Y-132725000D02*
X161325000Y-133870000D01*
X138594000Y-63277000D02*
X136894000Y-63277000D01*
X150375000Y-129325000D02*
X150100000Y-129600000D01*
X184832000Y-88539000D02*
X184344000Y-89027000D01*
X182719000Y-79027000D02*
X182719000Y-80602000D01*
X184832000Y-87587000D02*
X184832000Y-88539000D01*
X187320000Y-94575000D02*
X187320000Y-93575000D01*
X186975000Y-133870000D02*
X186325000Y-133870000D01*
X106544000Y-116556000D02*
X106500000Y-116600000D01*
X111340000Y-130260000D02*
X111340000Y-130140000D01*
X107530000Y-130270000D02*
X107530000Y-128525000D01*
X161975000Y-133870000D02*
X161325000Y-133870000D01*
X110244000Y-83027000D02*
X112144000Y-83027000D01*
X106260000Y-131540000D02*
X107050000Y-130750000D01*
D39*
X162100000Y-98400000D02*
X162300000Y-98600000D01*
D37*
X188592000Y-94575000D02*
X188844000Y-94827000D01*
X149600000Y-130100000D02*
X148800000Y-130100000D01*
D39*
X150000000Y-86200000D02*
X149800000Y-86000000D01*
X150100000Y-86200000D02*
X150000000Y-86200000D01*
D37*
X112610000Y-133475000D02*
X112610000Y-132210000D01*
X183844000Y-89027000D02*
X183841750Y-89024750D01*
D39*
X165100000Y-86200000D02*
X165600000Y-86200000D01*
D37*
X110070000Y-133475000D02*
X110070000Y-131530000D01*
X130600000Y-117300000D02*
X130200000Y-117700000D01*
D39*
X152100000Y-99200000D02*
X152100000Y-99600000D01*
D37*
X116094000Y-67277000D02*
X115644000Y-66827000D01*
X106544000Y-115127000D02*
X106544000Y-116556000D01*
D39*
X161100000Y-93200000D02*
X161400000Y-92900000D01*
D37*
X183841750Y-89024750D02*
X182839500Y-90027000D01*
X118894000Y-63777000D02*
X116794000Y-63777000D01*
D39*
X157100000Y-92200000D02*
X157400000Y-91900000D01*
D37*
X197200000Y-113500000D02*
X197200000Y-111700000D01*
X160900000Y-130000000D02*
X161300000Y-130000000D01*
D39*
X163100000Y-99200000D02*
X163300000Y-99200000D01*
D37*
X186325000Y-132025000D02*
X186300000Y-132000000D01*
X187000000Y-129400000D02*
X186975000Y-129375000D01*
X116794000Y-63777000D02*
X116244000Y-64327000D01*
X111544000Y-105327000D02*
X111644000Y-105227000D01*
X110694000Y-105327000D02*
X111544000Y-105327000D01*
D39*
X151100000Y-92200000D02*
X150800000Y-92200000D01*
D37*
X129944000Y-79027000D02*
X131544000Y-79027000D01*
X173400000Y-129900000D02*
X174110000Y-129190000D01*
X111340000Y-129960000D02*
X111340000Y-130440000D01*
X112610000Y-132210000D02*
X111340000Y-130940000D01*
X125775000Y-128130000D02*
X125775000Y-129225000D01*
D39*
X159100000Y-100200000D02*
X159100000Y-99800000D01*
D37*
X179892000Y-89075000D02*
X180344000Y-89527000D01*
D39*
X165100000Y-101200000D02*
X165500000Y-101600000D01*
D37*
X180296000Y-89575000D02*
X180344000Y-89527000D01*
X125775000Y-129225000D02*
X125400000Y-129600000D01*
D39*
X153100000Y-89200000D02*
X152800000Y-88900000D01*
D37*
X125250000Y-132400000D02*
X125125000Y-132525000D01*
X181332000Y-96063000D02*
X181332000Y-94439000D01*
D39*
X156100000Y-93200000D02*
X155800000Y-93500000D01*
D37*
X106506500Y-106289500D02*
X106544000Y-106327000D01*
X112300000Y-125800000D02*
X115100000Y-125800000D01*
X185592000Y-90575000D02*
X185444000Y-90427000D01*
X125125000Y-132525000D02*
X125125000Y-133870000D01*
X150375000Y-133870000D02*
X149725000Y-133870000D01*
X107530000Y-126930000D02*
X106600000Y-126000000D01*
D39*
X155100000Y-100200000D02*
X155100000Y-99800000D01*
X158100000Y-93200000D02*
X157800000Y-92900000D01*
D37*
X182719000Y-80602000D02*
X182744000Y-80627000D01*
X125400000Y-129600000D02*
X125100000Y-129900000D01*
D39*
X158100000Y-90200000D02*
X157800000Y-90500000D01*
D37*
X106544000Y-115127000D02*
X106544000Y-113744000D01*
D39*
X157100000Y-97200000D02*
X157400000Y-96900000D01*
X162100000Y-98200000D02*
X162100000Y-98400000D01*
D37*
X111340000Y-130140000D02*
X111340000Y-129960000D01*
X138000000Y-129500000D02*
X138175000Y-129325000D01*
X184332000Y-87587000D02*
X184332000Y-88534500D01*
D39*
X151100000Y-96200000D02*
X150700000Y-96200000D01*
X160100000Y-87200000D02*
X159800000Y-87500000D01*
D37*
X181844000Y-93927000D02*
X181844000Y-93427000D01*
X184332000Y-88534500D02*
X183841750Y-89024750D01*
X178844000Y-94575000D02*
X179996000Y-94575000D01*
X125100000Y-129900000D02*
X124300000Y-129900000D01*
X178844000Y-89575000D02*
X180296000Y-89575000D01*
X111340000Y-129960000D02*
X111340000Y-128525000D01*
X161975000Y-129325000D02*
X161975000Y-128130000D01*
D39*
X164100000Y-96200000D02*
X163800000Y-96500000D01*
D37*
X186975000Y-129375000D02*
X186975000Y-128130000D01*
X181144000Y-93427000D02*
X181844000Y-93427000D01*
X107530000Y-128525000D02*
X107530000Y-126930000D01*
D39*
X157100000Y-94200000D02*
X157400000Y-94500000D01*
D37*
X112144000Y-83027000D02*
X112744000Y-82427000D01*
X106544000Y-113744000D02*
X106500000Y-113700000D01*
X150375000Y-128130000D02*
X150375000Y-129325000D01*
X131960000Y-117300000D02*
X130600000Y-117300000D01*
X107050000Y-130750000D02*
X107530000Y-130270000D01*
X137525000Y-133870000D02*
X138175000Y-133870000D01*
X106506500Y-105327000D02*
X106506500Y-106289500D01*
X150100000Y-129600000D02*
X149600000Y-130100000D01*
X187320000Y-91575000D02*
X186192000Y-91575000D01*
X161750000Y-132300000D02*
X161325000Y-132725000D01*
X125500000Y-132400000D02*
X125250000Y-132400000D01*
X137900000Y-132400000D02*
X137525000Y-132775000D01*
X118894000Y-67277000D02*
X116094000Y-67277000D01*
X149725000Y-132525000D02*
X149725000Y-133870000D01*
X107927000Y-118727000D02*
X107900000Y-118700000D01*
D39*
X154100000Y-94200000D02*
X153800000Y-94500000D01*
D37*
X173460000Y-133870000D02*
X174110000Y-133870000D01*
X179996000Y-94575000D02*
X181144000Y-93427000D01*
X180832000Y-96063000D02*
X180832000Y-94939000D01*
D39*
X163300000Y-99200000D02*
X163500000Y-99000000D01*
D37*
X181360500Y-94410500D02*
X181844000Y-93927000D01*
X109194000Y-118727000D02*
X107927000Y-118727000D01*
D39*
X158100000Y-95200000D02*
X157800000Y-95500000D01*
D37*
X178844000Y-89075000D02*
X179892000Y-89075000D01*
X136894000Y-63277000D02*
X136344000Y-62727000D01*
X182839500Y-90027000D02*
X181844000Y-90027000D01*
X185444000Y-90827000D02*
X185444000Y-90427000D01*
X180832000Y-94939000D02*
X181360500Y-94410500D01*
X116444000Y-108127000D02*
X116444000Y-109827000D01*
X173460000Y-132740000D02*
X173460000Y-133870000D01*
X137525000Y-132775000D02*
X137525000Y-133870000D01*
X161300000Y-130000000D02*
X161975000Y-129325000D01*
X125775000Y-133870000D02*
X125125000Y-133870000D01*
D39*
X162100000Y-89200000D02*
X161800000Y-88900000D01*
D37*
X161900000Y-132300000D02*
X161750000Y-132300000D01*
X111340000Y-130440000D02*
X111340000Y-130140000D01*
X111340000Y-128525000D02*
X111340000Y-126760000D01*
X106260000Y-133475000D02*
X106260000Y-131540000D01*
X110070000Y-131530000D02*
X111340000Y-130260000D01*
D39*
%TO.N,+3V3*%
X153100000Y-95200000D02*
X153300000Y-95000000D01*
X155100000Y-96200000D02*
X155400000Y-95900000D01*
D37*
X178756500Y-79027000D02*
X178756500Y-80514500D01*
D38*
X111094000Y-118727000D02*
X111094000Y-116977000D01*
D37*
X187320000Y-92575000D02*
X185992000Y-92575000D01*
D39*
X162100000Y-87200000D02*
X161800000Y-87500000D01*
D37*
X116594000Y-63277000D02*
X116244000Y-62927000D01*
X143550000Y-129800000D02*
X143875000Y-129475000D01*
D39*
X151100000Y-94200000D02*
X150700000Y-94200000D01*
D37*
X187320000Y-92075000D02*
X185492000Y-92075000D01*
X129944000Y-79527000D02*
X131444000Y-79527000D01*
X180475000Y-128130000D02*
X179825000Y-128130000D01*
D39*
X164100000Y-89200000D02*
X163700000Y-89200000D01*
D37*
X110244000Y-79027000D02*
X111744000Y-79027000D01*
X136640000Y-113490000D02*
X136625000Y-113475000D01*
X143225000Y-128130000D02*
X143875000Y-128130000D01*
D39*
X162100000Y-92200000D02*
X162400000Y-92500000D01*
D37*
X136694000Y-63777000D02*
X136344000Y-64127000D01*
X185992000Y-92575000D02*
X185444000Y-92027000D01*
X118625000Y-128130000D02*
X119275000Y-128130000D01*
X166800000Y-129800000D02*
X167420000Y-129800000D01*
D39*
X159100000Y-89200000D02*
X159400000Y-89500000D01*
X154100000Y-90200000D02*
X154400000Y-89900000D01*
X157100000Y-100200000D02*
X157100000Y-99900000D01*
D37*
X155100000Y-129900000D02*
X155100000Y-129750000D01*
D39*
X162100000Y-95200000D02*
X162400000Y-94900000D01*
D37*
X186944000Y-80927000D02*
X186944000Y-79027000D01*
X180332000Y-96063000D02*
X179680000Y-96063000D01*
X131675000Y-129325000D02*
X131675000Y-128130000D01*
D39*
X155100000Y-93200000D02*
X154800000Y-92900000D01*
X153100000Y-87200000D02*
X153100000Y-86800000D01*
X151100000Y-89200000D02*
X151400000Y-88900000D01*
X160100000Y-91200000D02*
X159800000Y-91500000D01*
D37*
X118900000Y-129900000D02*
X118900000Y-129400000D01*
X111944000Y-78827000D02*
X112744000Y-78027000D01*
D39*
X159100000Y-98200000D02*
X158800000Y-97900000D01*
D37*
X143875000Y-129475000D02*
X143875000Y-128130000D01*
D39*
X156100000Y-98200000D02*
X155800000Y-97900000D01*
D37*
X167610000Y-129610000D02*
X167610000Y-128130000D01*
D38*
X111144000Y-116927000D02*
X111144000Y-115127000D01*
D37*
X118894000Y-63277000D02*
X116594000Y-63277000D01*
X185492000Y-92075000D02*
X185444000Y-92027000D01*
X154825000Y-128130000D02*
X155475000Y-128130000D01*
X138594000Y-63777000D02*
X136694000Y-63777000D01*
X139170000Y-113490000D02*
X136640000Y-113490000D01*
X143225000Y-128130000D02*
X143225000Y-127075000D01*
D39*
X158100000Y-96200000D02*
X158400000Y-96500000D01*
X159100000Y-92200000D02*
X158800000Y-91900000D01*
D37*
X143450000Y-129800000D02*
X143550000Y-129800000D01*
D39*
X162100000Y-100200000D02*
X162100000Y-99800000D01*
D37*
X131200000Y-129800000D02*
X131675000Y-129325000D01*
X180475000Y-129875000D02*
X180475000Y-128130000D01*
X118900000Y-129400000D02*
X119275000Y-129025000D01*
D39*
X158100000Y-87200000D02*
X158100000Y-87600000D01*
D37*
X166960000Y-128130000D02*
X167610000Y-128130000D01*
X178756500Y-80514500D02*
X178744000Y-80527000D01*
X131444000Y-79527000D02*
X132044000Y-80127000D01*
D38*
X111144000Y-115127000D02*
X111144000Y-113727000D01*
D37*
X155100000Y-129750000D02*
X155475000Y-129375000D01*
X141675000Y-125525000D02*
X141675000Y-124900000D01*
D39*
X164100000Y-94200000D02*
X163700000Y-94200000D01*
D37*
X189575000Y-119500000D02*
X188400000Y-119500000D01*
X143225000Y-127075000D02*
X141675000Y-125525000D01*
D39*
X151100000Y-98200000D02*
X150800000Y-98500000D01*
X159100000Y-94200000D02*
X159400000Y-94500000D01*
D37*
X179680000Y-96063000D02*
X179344000Y-95727000D01*
X119275000Y-129025000D02*
X119275000Y-128130000D01*
X167420000Y-129800000D02*
X167610000Y-129610000D01*
X111094000Y-116977000D02*
X111144000Y-116927000D01*
D39*
X153100000Y-100200000D02*
X153100000Y-99900000D01*
D37*
X180500000Y-129900000D02*
X180475000Y-129875000D01*
X111744000Y-79027000D02*
X111944000Y-78827000D01*
X155475000Y-129375000D02*
X155475000Y-128130000D01*
D39*
X153100000Y-92200000D02*
X153400000Y-92500000D01*
X156100000Y-89200000D02*
X155700000Y-89600000D01*
X157100000Y-91200000D02*
X156800000Y-90900000D01*
D37*
X131025000Y-128130000D02*
X131675000Y-128130000D01*
X192500000Y-133600000D02*
X193600000Y-133600000D01*
X186944000Y-82827000D02*
X186944000Y-80927000D01*
%TD*%
M02*
