%TF.GenerationSoftware,KiCad,Pcbnew,8.0.2*%
%TF.CreationDate,2024-06-03T14:24:21+01:00*%
%TF.ProjectId,GfxFPGAV2,47667846-5047-4415-9632-2e6b69636164,rev?*%
%TF.SameCoordinates,Original*%
%TF.FileFunction,Drillmap*%
%TF.FilePolarity,Positive*%
%FSLAX45Y45*%
G04 Gerber Fmt 4.5, Leading zero omitted, Abs format (unit mm)*
G04 Created by KiCad (PCBNEW 8.0.2) date 2024-06-03 14:24:21*
%MOMM*%
%LPD*%
G01*
G04 APERTURE LIST*
%ADD10C,0.050000*%
%ADD11C,0.200000*%
%ADD12C,0.100000*%
%ADD13C,0.320000*%
G04 APERTURE END LIST*
D10*
X19750000Y-5000000D02*
X10250000Y-5000000D01*
X10000000Y-5250000D02*
X10000000Y-14750000D01*
X10250000Y-15000000D02*
X19750000Y-15000000D01*
X20000000Y-14750000D02*
X20000000Y-5250000D01*
X20000000Y-14750000D02*
G75*
G02*
X19750000Y-15000000I-250000J0D01*
G01*
X19750000Y-5000000D02*
G75*
G02*
X20000000Y-5250000I0J-250000D01*
G01*
X10250000Y-15000000D02*
G75*
G02*
X10000000Y-14750000I0J250000D01*
G01*
X10000000Y-5250000D02*
G75*
G02*
X10250000Y-5000000I250000J0D01*
G01*
D11*
D12*
X14080000Y-8821500D02*
X14100000Y-8841500D01*
X14100000Y-8821500D02*
X14080000Y-8841500D01*
X14090000Y-8521500D02*
X14110000Y-8541500D01*
X14110000Y-8521500D02*
X14090000Y-8541500D01*
X14130000Y-8171500D02*
X14150000Y-8191500D01*
X14150000Y-8171500D02*
X14130000Y-8191500D01*
X14200000Y-9420000D02*
X14220000Y-9440000D01*
X14220000Y-9420000D02*
X14200000Y-9440000D01*
X14570000Y-10850000D02*
X14590000Y-10870000D01*
X14590000Y-10850000D02*
X14570000Y-10870000D01*
X14720000Y-10760000D02*
X14740000Y-10780000D01*
X14740000Y-10760000D02*
X14720000Y-10780000D01*
X14920000Y-10810000D02*
X14940000Y-10830000D01*
X14940000Y-10810000D02*
X14920000Y-10830000D01*
X14970000Y-8590000D02*
X14990000Y-8610000D01*
X14990000Y-8590000D02*
X14970000Y-8610000D01*
X14970000Y-10140000D02*
X14990000Y-10160000D01*
X14990000Y-10140000D02*
X14970000Y-10160000D01*
X14980000Y-10850000D02*
X15000000Y-10870000D01*
X15000000Y-10850000D02*
X14980000Y-10870000D01*
X15060000Y-9410000D02*
X15080000Y-9430000D01*
X15080000Y-9410000D02*
X15060000Y-9430000D01*
X15060000Y-9610000D02*
X15080000Y-9630000D01*
X15080000Y-9610000D02*
X15060000Y-9630000D01*
X15070000Y-9210000D02*
X15090000Y-9230000D01*
X15090000Y-9210000D02*
X15070000Y-9230000D01*
X15070000Y-9840000D02*
X15090000Y-9860000D01*
X15090000Y-9840000D02*
X15070000Y-9860000D01*
X15130000Y-8880000D02*
X15150000Y-8900000D01*
X15150000Y-8880000D02*
X15130000Y-8900000D01*
X15200000Y-9950000D02*
X15220000Y-9970000D01*
X15220000Y-9950000D02*
X15200000Y-9970000D01*
X15250000Y-8960000D02*
X15270000Y-8980000D01*
X15270000Y-8960000D02*
X15250000Y-8980000D01*
X15250000Y-9060000D02*
X15270000Y-9080000D01*
X15270000Y-9060000D02*
X15250000Y-9080000D01*
X15260000Y-9450000D02*
X15280000Y-9470000D01*
X15280000Y-9450000D02*
X15260000Y-9470000D01*
X15270000Y-8880000D02*
X15290000Y-8900000D01*
X15290000Y-8880000D02*
X15270000Y-8900000D01*
X15270000Y-9750000D02*
X15290000Y-9770000D01*
X15290000Y-9750000D02*
X15270000Y-9770000D01*
X15300000Y-8670000D02*
X15320000Y-8690000D01*
X15320000Y-8670000D02*
X15300000Y-8690000D01*
X15300000Y-9980000D02*
X15320000Y-10000000D01*
X15320000Y-9980000D02*
X15300000Y-10000000D01*
X15320000Y-9490000D02*
X15340000Y-9510000D01*
X15340000Y-9490000D02*
X15320000Y-9510000D01*
X15330000Y-9240000D02*
X15350000Y-9260000D01*
X15350000Y-9240000D02*
X15330000Y-9260000D01*
X15360000Y-9750000D02*
X15380000Y-9770000D01*
X15380000Y-9750000D02*
X15360000Y-9770000D01*
X15370000Y-9440000D02*
X15390000Y-9460000D01*
X15390000Y-9440000D02*
X15370000Y-9460000D01*
X15430000Y-8980000D02*
X15450000Y-9000000D01*
X15450000Y-8980000D02*
X15430000Y-9000000D01*
X15460000Y-9160000D02*
X15480000Y-9180000D01*
X15480000Y-9160000D02*
X15460000Y-9180000D01*
X15460000Y-9760000D02*
X15480000Y-9780000D01*
X15480000Y-9760000D02*
X15460000Y-9780000D01*
X15470000Y-9280000D02*
X15490000Y-9300000D01*
X15490000Y-9280000D02*
X15470000Y-9300000D01*
X15500000Y-9970000D02*
X15520000Y-9990000D01*
X15520000Y-9970000D02*
X15500000Y-9990000D01*
X15530000Y-9580000D02*
X15550000Y-9600000D01*
X15550000Y-9580000D02*
X15530000Y-9600000D01*
X15560000Y-8950000D02*
X15580000Y-8970000D01*
X15580000Y-8950000D02*
X15560000Y-8970000D01*
X15570000Y-9340000D02*
X15590000Y-9360000D01*
X15590000Y-9340000D02*
X15570000Y-9360000D01*
X15570000Y-9780000D02*
X15590000Y-9800000D01*
X15590000Y-9780000D02*
X15570000Y-9800000D01*
X15600000Y-8670000D02*
X15620000Y-8690000D01*
X15620000Y-8670000D02*
X15600000Y-8690000D01*
X15630000Y-9240000D02*
X15650000Y-9260000D01*
X15650000Y-9240000D02*
X15630000Y-9260000D01*
X15630000Y-9380000D02*
X15650000Y-9400000D01*
X15650000Y-9380000D02*
X15630000Y-9400000D01*
X15630000Y-9480000D02*
X15650000Y-9500000D01*
X15650000Y-9480000D02*
X15630000Y-9500000D01*
X15670000Y-9080000D02*
X15690000Y-9100000D01*
X15690000Y-9080000D02*
X15670000Y-9100000D01*
X15670000Y-9280000D02*
X15690000Y-9300000D01*
X15690000Y-9280000D02*
X15670000Y-9300000D01*
X15670000Y-9540000D02*
X15690000Y-9560000D01*
X15690000Y-9540000D02*
X15670000Y-9560000D01*
X15700000Y-9980000D02*
X15720000Y-10000000D01*
X15720000Y-9980000D02*
X15700000Y-10000000D01*
X15730000Y-9180000D02*
X15750000Y-9200000D01*
X15750000Y-9180000D02*
X15730000Y-9200000D01*
X15730000Y-9440000D02*
X15750000Y-9460000D01*
X15750000Y-9440000D02*
X15730000Y-9460000D01*
X15730000Y-9680000D02*
X15750000Y-9700000D01*
X15750000Y-9680000D02*
X15730000Y-9700000D01*
X15750000Y-9760000D02*
X15770000Y-9780000D01*
X15770000Y-9760000D02*
X15750000Y-9780000D01*
X15770000Y-9040000D02*
X15790000Y-9060000D01*
X15790000Y-9040000D02*
X15770000Y-9060000D01*
X15770000Y-9280000D02*
X15790000Y-9300000D01*
X15790000Y-9280000D02*
X15770000Y-9300000D01*
X15770000Y-9540000D02*
X15790000Y-9560000D01*
X15790000Y-9540000D02*
X15770000Y-9560000D01*
X15800000Y-8750000D02*
X15820000Y-8770000D01*
X15820000Y-8750000D02*
X15800000Y-8770000D01*
X15830000Y-9240000D02*
X15850000Y-9260000D01*
X15850000Y-9240000D02*
X15830000Y-9260000D01*
X15830000Y-9380000D02*
X15850000Y-9400000D01*
X15850000Y-9380000D02*
X15830000Y-9400000D01*
X15830000Y-9640000D02*
X15850000Y-9660000D01*
X15850000Y-9640000D02*
X15830000Y-9660000D01*
X15870000Y-9180000D02*
X15890000Y-9200000D01*
X15890000Y-9180000D02*
X15870000Y-9200000D01*
X15870000Y-9340000D02*
X15890000Y-9360000D01*
X15890000Y-9340000D02*
X15870000Y-9360000D01*
X15870000Y-9480000D02*
X15890000Y-9500000D01*
X15890000Y-9480000D02*
X15870000Y-9500000D01*
X15870000Y-9780000D02*
X15890000Y-9800000D01*
X15890000Y-9780000D02*
X15870000Y-9800000D01*
X15900000Y-9970000D02*
X15920000Y-9990000D01*
X15920000Y-9970000D02*
X15900000Y-9990000D01*
X15930000Y-8940000D02*
X15950000Y-8960000D01*
X15950000Y-8940000D02*
X15930000Y-8960000D01*
X15930000Y-9440000D02*
X15950000Y-9460000D01*
X15950000Y-9440000D02*
X15930000Y-9460000D01*
X15970000Y-8740000D02*
X15990000Y-8760000D01*
X15990000Y-8740000D02*
X15970000Y-8760000D01*
X15970000Y-9140000D02*
X15990000Y-9160000D01*
X15990000Y-9140000D02*
X15970000Y-9160000D01*
X16130000Y-9280000D02*
X16150000Y-9300000D01*
X16150000Y-9280000D02*
X16130000Y-9300000D01*
X16170000Y-8740000D02*
X16190000Y-8760000D01*
X16190000Y-8740000D02*
X16170000Y-8760000D01*
X16170000Y-8880000D02*
X16190000Y-8900000D01*
X16190000Y-8880000D02*
X16170000Y-8900000D01*
X16200000Y-9970000D02*
X16220000Y-9990000D01*
X16220000Y-9970000D02*
X16200000Y-9990000D01*
X16220000Y-9850000D02*
X16240000Y-9870000D01*
X16240000Y-9850000D02*
X16220000Y-9870000D01*
X16230000Y-9240000D02*
X16250000Y-9260000D01*
X16250000Y-9240000D02*
X16230000Y-9260000D01*
X16230000Y-9480000D02*
X16250000Y-9500000D01*
X16250000Y-9480000D02*
X16230000Y-9500000D01*
X16280000Y-8990000D02*
X16300000Y-9010000D01*
X16300000Y-8990000D02*
X16280000Y-9010000D01*
X16340000Y-8820000D02*
X16360000Y-8840000D01*
X16360000Y-8820000D02*
X16340000Y-8840000D01*
X16340000Y-9890000D02*
X16360000Y-9910000D01*
X16360000Y-9890000D02*
X16340000Y-9910000D01*
X16360000Y-8910000D02*
X16380000Y-8930000D01*
X16380000Y-8910000D02*
X16360000Y-8930000D01*
X16360000Y-9410000D02*
X16380000Y-9430000D01*
X16380000Y-9410000D02*
X16360000Y-9430000D01*
X16370000Y-9180000D02*
X16390000Y-9200000D01*
X16390000Y-9180000D02*
X16370000Y-9200000D01*
X16370000Y-9640000D02*
X16390000Y-9660000D01*
X16390000Y-9640000D02*
X16370000Y-9660000D01*
X16540000Y-10150000D02*
X16560000Y-10170000D01*
X16560000Y-10150000D02*
X16540000Y-10170000D01*
X16550000Y-8610000D02*
X16570000Y-8630000D01*
X16570000Y-8610000D02*
X16550000Y-8630000D01*
X16790000Y-8600000D02*
X16810000Y-8620000D01*
X16810000Y-8600000D02*
X16790000Y-8620000D01*
X16970000Y-7900000D02*
X16990000Y-7920000D01*
X16990000Y-7900000D02*
X16970000Y-7920000D01*
X17020000Y-7820000D02*
X17040000Y-7840000D01*
X17040000Y-7820000D02*
X17020000Y-7840000D01*
X17060000Y-10430000D02*
X17080000Y-10450000D01*
X17080000Y-10430000D02*
X17060000Y-10450000D01*
X17260000Y-8171500D02*
X17280000Y-8191500D01*
X17280000Y-8171500D02*
X17260000Y-8191500D01*
X10290000Y-10330000D02*
G75*
G02*
X10250000Y-10330000I-20000J0D01*
G01*
X10250000Y-10330000D02*
G75*
G02*
X10290000Y-10330000I20000J0D01*
G01*
X10350000Y-12220000D02*
G75*
G02*
X10310000Y-12220000I-20000J0D01*
G01*
X10310000Y-12220000D02*
G75*
G02*
X10350000Y-12220000I20000J0D01*
G01*
X10519000Y-13559000D02*
G75*
G02*
X10479000Y-13559000I-20000J0D01*
G01*
X10479000Y-13559000D02*
G75*
G02*
X10519000Y-13559000I20000J0D01*
G01*
X10614400Y-10882700D02*
G75*
G02*
X10574400Y-10882700I-20000J0D01*
G01*
X10574400Y-10882700D02*
G75*
G02*
X10614400Y-10882700I20000J0D01*
G01*
X10650000Y-14080000D02*
G75*
G02*
X10610000Y-14080000I-20000J0D01*
G01*
X10610000Y-14080000D02*
G75*
G02*
X10650000Y-14080000I20000J0D01*
G01*
X10670000Y-11370000D02*
G75*
G02*
X10630000Y-11370000I-20000J0D01*
G01*
X10630000Y-11370000D02*
G75*
G02*
X10670000Y-11370000I20000J0D01*
G01*
X10670000Y-11660000D02*
G75*
G02*
X10630000Y-11660000I-20000J0D01*
G01*
X10630000Y-11660000D02*
G75*
G02*
X10670000Y-11660000I20000J0D01*
G01*
X10674400Y-10632700D02*
G75*
G02*
X10634400Y-10632700I-20000J0D01*
G01*
X10634400Y-10632700D02*
G75*
G02*
X10674400Y-10632700I20000J0D01*
G01*
X10725000Y-13075000D02*
G75*
G02*
X10685000Y-13075000I-20000J0D01*
G01*
X10685000Y-13075000D02*
G75*
G02*
X10725000Y-13075000I20000J0D01*
G01*
X10810000Y-11870000D02*
G75*
G02*
X10770000Y-11870000I-20000J0D01*
G01*
X10770000Y-11870000D02*
G75*
G02*
X10810000Y-11870000I20000J0D01*
G01*
X10904400Y-11182700D02*
G75*
G02*
X10864400Y-11182700I-20000J0D01*
G01*
X10864400Y-11182700D02*
G75*
G02*
X10904400Y-11182700I20000J0D01*
G01*
X11134400Y-11372700D02*
G75*
G02*
X11094400Y-11372700I-20000J0D01*
G01*
X11094400Y-11372700D02*
G75*
G02*
X11134400Y-11372700I20000J0D01*
G01*
X11134400Y-11692700D02*
G75*
G02*
X11094400Y-11692700I-20000J0D01*
G01*
X11094400Y-11692700D02*
G75*
G02*
X11134400Y-11692700I20000J0D01*
G01*
X11154000Y-13044000D02*
G75*
G02*
X11114000Y-13044000I-20000J0D01*
G01*
X11114000Y-13044000D02*
G75*
G02*
X11154000Y-13044000I20000J0D01*
G01*
X11164400Y-10882700D02*
G75*
G02*
X11124400Y-10882700I-20000J0D01*
G01*
X11124400Y-10882700D02*
G75*
G02*
X11164400Y-10882700I20000J0D01*
G01*
X11184400Y-10522700D02*
G75*
G02*
X11144400Y-10522700I-20000J0D01*
G01*
X11144400Y-10522700D02*
G75*
G02*
X11184400Y-10522700I20000J0D01*
G01*
X11220000Y-12110000D02*
G75*
G02*
X11180000Y-12110000I-20000J0D01*
G01*
X11180000Y-12110000D02*
G75*
G02*
X11220000Y-12110000I20000J0D01*
G01*
X11294400Y-7802700D02*
G75*
G02*
X11254400Y-7802700I-20000J0D01*
G01*
X11254400Y-7802700D02*
G75*
G02*
X11294400Y-7802700I20000J0D01*
G01*
X11294400Y-7952700D02*
G75*
G02*
X11254400Y-7952700I-20000J0D01*
G01*
X11254400Y-7952700D02*
G75*
G02*
X11294400Y-7952700I20000J0D01*
G01*
X11294400Y-8242700D02*
G75*
G02*
X11254400Y-8242700I-20000J0D01*
G01*
X11254400Y-8242700D02*
G75*
G02*
X11294400Y-8242700I20000J0D01*
G01*
X11400000Y-9340000D02*
G75*
G02*
X11360000Y-9340000I-20000J0D01*
G01*
X11360000Y-9340000D02*
G75*
G02*
X11400000Y-9340000I20000J0D01*
G01*
X11584400Y-6682700D02*
G75*
G02*
X11544400Y-6682700I-20000J0D01*
G01*
X11544400Y-6682700D02*
G75*
G02*
X11584400Y-6682700I20000J0D01*
G01*
X11644400Y-6292700D02*
G75*
G02*
X11604400Y-6292700I-20000J0D01*
G01*
X11604400Y-6292700D02*
G75*
G02*
X11644400Y-6292700I20000J0D01*
G01*
X11644400Y-6432700D02*
G75*
G02*
X11604400Y-6432700I-20000J0D01*
G01*
X11604400Y-6432700D02*
G75*
G02*
X11644400Y-6432700I20000J0D01*
G01*
X11664400Y-10982700D02*
G75*
G02*
X11624400Y-10982700I-20000J0D01*
G01*
X11624400Y-10982700D02*
G75*
G02*
X11664400Y-10982700I20000J0D01*
G01*
X11910000Y-12990000D02*
G75*
G02*
X11870000Y-12990000I-20000J0D01*
G01*
X11870000Y-12990000D02*
G75*
G02*
X11910000Y-12990000I20000J0D01*
G01*
X11920000Y-13270000D02*
G75*
G02*
X11880000Y-13270000I-20000J0D01*
G01*
X11880000Y-13270000D02*
G75*
G02*
X11920000Y-13270000I20000J0D01*
G01*
X12045000Y-12320000D02*
G75*
G02*
X12005000Y-12320000I-20000J0D01*
G01*
X12005000Y-12320000D02*
G75*
G02*
X12045000Y-12320000I20000J0D01*
G01*
X12235000Y-10930000D02*
G75*
G02*
X12195000Y-10930000I-20000J0D01*
G01*
X12195000Y-10930000D02*
G75*
G02*
X12235000Y-10930000I20000J0D01*
G01*
X12340000Y-12220000D02*
G75*
G02*
X12300000Y-12220000I-20000J0D01*
G01*
X12300000Y-12220000D02*
G75*
G02*
X12340000Y-12220000I20000J0D01*
G01*
X12450000Y-12990000D02*
G75*
G02*
X12410000Y-12990000I-20000J0D01*
G01*
X12410000Y-12990000D02*
G75*
G02*
X12450000Y-12990000I20000J0D01*
G01*
X12460000Y-12110000D02*
G75*
G02*
X12420000Y-12110000I-20000J0D01*
G01*
X12420000Y-12110000D02*
G75*
G02*
X12460000Y-12110000I20000J0D01*
G01*
X12570000Y-13240000D02*
G75*
G02*
X12530000Y-13240000I-20000J0D01*
G01*
X12530000Y-13240000D02*
G75*
G02*
X12570000Y-13240000I20000J0D01*
G01*
X12620000Y-10800000D02*
G75*
G02*
X12580000Y-10800000I-20000J0D01*
G01*
X12580000Y-10800000D02*
G75*
G02*
X12620000Y-10800000I20000J0D01*
G01*
X12815000Y-11295000D02*
G75*
G02*
X12775000Y-11295000I-20000J0D01*
G01*
X12775000Y-11295000D02*
G75*
G02*
X12815000Y-11295000I20000J0D01*
G01*
X12910000Y-10955000D02*
G75*
G02*
X12870000Y-10955000I-20000J0D01*
G01*
X12870000Y-10955000D02*
G75*
G02*
X12910000Y-10955000I20000J0D01*
G01*
X13040000Y-11770000D02*
G75*
G02*
X13000000Y-11770000I-20000J0D01*
G01*
X13000000Y-11770000D02*
G75*
G02*
X13040000Y-11770000I20000J0D01*
G01*
X13060000Y-11575000D02*
G75*
G02*
X13020000Y-11575000I-20000J0D01*
G01*
X13020000Y-11575000D02*
G75*
G02*
X13060000Y-11575000I20000J0D01*
G01*
X13140000Y-12980000D02*
G75*
G02*
X13100000Y-12980000I-20000J0D01*
G01*
X13100000Y-12980000D02*
G75*
G02*
X13140000Y-12980000I20000J0D01*
G01*
X13150000Y-13240000D02*
G75*
G02*
X13110000Y-13240000I-20000J0D01*
G01*
X13110000Y-13240000D02*
G75*
G02*
X13150000Y-13240000I20000J0D01*
G01*
X13215000Y-11250000D02*
G75*
G02*
X13175000Y-11250000I-20000J0D01*
G01*
X13175000Y-11250000D02*
G75*
G02*
X13215000Y-11250000I20000J0D01*
G01*
X13224400Y-7852700D02*
G75*
G02*
X13184400Y-7852700I-20000J0D01*
G01*
X13184400Y-7852700D02*
G75*
G02*
X13224400Y-7852700I20000J0D01*
G01*
X13224400Y-8012700D02*
G75*
G02*
X13184400Y-8012700I-20000J0D01*
G01*
X13184400Y-8012700D02*
G75*
G02*
X13224400Y-8012700I20000J0D01*
G01*
X13335000Y-10965000D02*
G75*
G02*
X13295000Y-10965000I-20000J0D01*
G01*
X13295000Y-10965000D02*
G75*
G02*
X13335000Y-10965000I20000J0D01*
G01*
X13430000Y-12315000D02*
G75*
G02*
X13390000Y-12315000I-20000J0D01*
G01*
X13390000Y-12315000D02*
G75*
G02*
X13430000Y-12315000I20000J0D01*
G01*
X13535000Y-10975000D02*
G75*
G02*
X13495000Y-10975000I-20000J0D01*
G01*
X13495000Y-10975000D02*
G75*
G02*
X13535000Y-10975000I20000J0D01*
G01*
X13654400Y-6272700D02*
G75*
G02*
X13614400Y-6272700I-20000J0D01*
G01*
X13614400Y-6272700D02*
G75*
G02*
X13654400Y-6272700I20000J0D01*
G01*
X13654400Y-6412700D02*
G75*
G02*
X13614400Y-6412700I-20000J0D01*
G01*
X13614400Y-6412700D02*
G75*
G02*
X13654400Y-6412700I20000J0D01*
G01*
X13660000Y-11760000D02*
G75*
G02*
X13620000Y-11760000I-20000J0D01*
G01*
X13620000Y-11760000D02*
G75*
G02*
X13660000Y-11760000I20000J0D01*
G01*
X13682500Y-11347500D02*
G75*
G02*
X13642500Y-11347500I-20000J0D01*
G01*
X13642500Y-11347500D02*
G75*
G02*
X13682500Y-11347500I20000J0D01*
G01*
X13810000Y-13240000D02*
G75*
G02*
X13770000Y-13240000I-20000J0D01*
G01*
X13770000Y-13240000D02*
G75*
G02*
X13810000Y-13240000I20000J0D01*
G01*
X13820000Y-12980000D02*
G75*
G02*
X13780000Y-12980000I-20000J0D01*
G01*
X13780000Y-12980000D02*
G75*
G02*
X13820000Y-12980000I20000J0D01*
G01*
X14140000Y-11605000D02*
G75*
G02*
X14100000Y-11605000I-20000J0D01*
G01*
X14100000Y-11605000D02*
G75*
G02*
X14140000Y-11605000I20000J0D01*
G01*
X14180000Y-7670000D02*
G75*
G02*
X14140000Y-7670000I-20000J0D01*
G01*
X14140000Y-7670000D02*
G75*
G02*
X14180000Y-7670000I20000J0D01*
G01*
X14260000Y-11475000D02*
G75*
G02*
X14220000Y-11475000I-20000J0D01*
G01*
X14220000Y-11475000D02*
G75*
G02*
X14260000Y-11475000I20000J0D01*
G01*
X14344400Y-7500000D02*
G75*
G02*
X14304400Y-7500000I-20000J0D01*
G01*
X14304400Y-7500000D02*
G75*
G02*
X14344400Y-7500000I20000J0D01*
G01*
X14365000Y-12980000D02*
G75*
G02*
X14325000Y-12980000I-20000J0D01*
G01*
X14325000Y-12980000D02*
G75*
G02*
X14365000Y-12980000I20000J0D01*
G01*
X14370000Y-13240000D02*
G75*
G02*
X14330000Y-13240000I-20000J0D01*
G01*
X14330000Y-13240000D02*
G75*
G02*
X14370000Y-13240000I20000J0D01*
G01*
X14464400Y-7032700D02*
G75*
G02*
X14424400Y-7032700I-20000J0D01*
G01*
X14424400Y-7032700D02*
G75*
G02*
X14464400Y-7032700I20000J0D01*
G01*
X14495000Y-11440000D02*
G75*
G02*
X14455000Y-11440000I-20000J0D01*
G01*
X14455000Y-11440000D02*
G75*
G02*
X14495000Y-11440000I20000J0D01*
G01*
X14800000Y-11440000D02*
G75*
G02*
X14760000Y-11440000I-20000J0D01*
G01*
X14760000Y-11440000D02*
G75*
G02*
X14800000Y-11440000I20000J0D01*
G01*
X14900000Y-13010000D02*
G75*
G02*
X14860000Y-13010000I-20000J0D01*
G01*
X14860000Y-13010000D02*
G75*
G02*
X14900000Y-13010000I20000J0D01*
G01*
X15030000Y-13240000D02*
G75*
G02*
X14990000Y-13240000I-20000J0D01*
G01*
X14990000Y-13240000D02*
G75*
G02*
X15030000Y-13240000I20000J0D01*
G01*
X15520000Y-13240000D02*
G75*
G02*
X15480000Y-13240000I-20000J0D01*
G01*
X15480000Y-13240000D02*
G75*
G02*
X15520000Y-13240000I20000J0D01*
G01*
X15530000Y-12990000D02*
G75*
G02*
X15490000Y-12990000I-20000J0D01*
G01*
X15490000Y-12990000D02*
G75*
G02*
X15530000Y-12990000I20000J0D01*
G01*
X15740000Y-7410000D02*
G75*
G02*
X15700000Y-7410000I-20000J0D01*
G01*
X15700000Y-7410000D02*
G75*
G02*
X15740000Y-7410000I20000J0D01*
G01*
X16110000Y-13000000D02*
G75*
G02*
X16070000Y-13000000I-20000J0D01*
G01*
X16070000Y-13000000D02*
G75*
G02*
X16110000Y-13000000I20000J0D01*
G01*
X16210000Y-13230000D02*
G75*
G02*
X16170000Y-13230000I-20000J0D01*
G01*
X16170000Y-13230000D02*
G75*
G02*
X16210000Y-13230000I20000J0D01*
G01*
X16415000Y-12455000D02*
G75*
G02*
X16375000Y-12455000I-20000J0D01*
G01*
X16375000Y-12455000D02*
G75*
G02*
X16415000Y-12455000I20000J0D01*
G01*
X16550000Y-13590000D02*
G75*
G02*
X16510000Y-13590000I-20000J0D01*
G01*
X16510000Y-13590000D02*
G75*
G02*
X16550000Y-13590000I20000J0D01*
G01*
X16700000Y-12980000D02*
G75*
G02*
X16660000Y-12980000I-20000J0D01*
G01*
X16660000Y-12980000D02*
G75*
G02*
X16700000Y-12980000I20000J0D01*
G01*
X16720000Y-13250000D02*
G75*
G02*
X16680000Y-13250000I-20000J0D01*
G01*
X16680000Y-13250000D02*
G75*
G02*
X16720000Y-13250000I20000J0D01*
G01*
X17360000Y-12990000D02*
G75*
G02*
X17320000Y-12990000I-20000J0D01*
G01*
X17320000Y-12990000D02*
G75*
G02*
X17360000Y-12990000I20000J0D01*
G01*
X17390000Y-13250000D02*
G75*
G02*
X17350000Y-13250000I-20000J0D01*
G01*
X17350000Y-13250000D02*
G75*
G02*
X17390000Y-13250000I20000J0D01*
G01*
X17830000Y-13590000D02*
G75*
G02*
X17790000Y-13590000I-20000J0D01*
G01*
X17790000Y-13590000D02*
G75*
G02*
X17830000Y-13590000I20000J0D01*
G01*
X17894400Y-8052700D02*
G75*
G02*
X17854400Y-8052700I-20000J0D01*
G01*
X17854400Y-8052700D02*
G75*
G02*
X17894400Y-8052700I20000J0D01*
G01*
X17954400Y-9572700D02*
G75*
G02*
X17914400Y-9572700I-20000J0D01*
G01*
X17914400Y-9572700D02*
G75*
G02*
X17954400Y-9572700I20000J0D01*
G01*
X18000000Y-13250000D02*
G75*
G02*
X17960000Y-13250000I-20000J0D01*
G01*
X17960000Y-13250000D02*
G75*
G02*
X18000000Y-13250000I20000J0D01*
G01*
X18054400Y-8952700D02*
G75*
G02*
X18014400Y-8952700I-20000J0D01*
G01*
X18014400Y-8952700D02*
G75*
G02*
X18054400Y-8952700I20000J0D01*
G01*
X18070000Y-12990000D02*
G75*
G02*
X18030000Y-12990000I-20000J0D01*
G01*
X18030000Y-12990000D02*
G75*
G02*
X18070000Y-12990000I20000J0D01*
G01*
X18204400Y-9002700D02*
G75*
G02*
X18164400Y-9002700I-20000J0D01*
G01*
X18164400Y-9002700D02*
G75*
G02*
X18204400Y-9002700I20000J0D01*
G01*
X18204400Y-9342700D02*
G75*
G02*
X18164400Y-9342700I-20000J0D01*
G01*
X18164400Y-9342700D02*
G75*
G02*
X18204400Y-9342700I20000J0D01*
G01*
X18280000Y-11060000D02*
G75*
G02*
X18240000Y-11060000I-20000J0D01*
G01*
X18240000Y-11060000D02*
G75*
G02*
X18280000Y-11060000I20000J0D01*
G01*
X18294400Y-8062700D02*
G75*
G02*
X18254400Y-8062700I-20000J0D01*
G01*
X18254400Y-8062700D02*
G75*
G02*
X18294400Y-8062700I20000J0D01*
G01*
X18389400Y-9167700D02*
G75*
G02*
X18349400Y-9167700I-20000J0D01*
G01*
X18349400Y-9167700D02*
G75*
G02*
X18389400Y-9167700I20000J0D01*
G01*
X18564400Y-9042700D02*
G75*
G02*
X18524400Y-9042700I-20000J0D01*
G01*
X18524400Y-9042700D02*
G75*
G02*
X18564400Y-9042700I20000J0D01*
G01*
X18564400Y-9202700D02*
G75*
G02*
X18524400Y-9202700I-20000J0D01*
G01*
X18524400Y-9202700D02*
G75*
G02*
X18564400Y-9202700I20000J0D01*
G01*
X18650000Y-13200000D02*
G75*
G02*
X18610000Y-13200000I-20000J0D01*
G01*
X18610000Y-13200000D02*
G75*
G02*
X18650000Y-13200000I20000J0D01*
G01*
X18710000Y-12980000D02*
G75*
G02*
X18670000Y-12980000I-20000J0D01*
G01*
X18670000Y-12980000D02*
G75*
G02*
X18710000Y-12980000I20000J0D01*
G01*
X18714400Y-8092700D02*
G75*
G02*
X18674400Y-8092700I-20000J0D01*
G01*
X18674400Y-8092700D02*
G75*
G02*
X18714400Y-8092700I20000J0D01*
G01*
X18860000Y-11950000D02*
G75*
G02*
X18820000Y-11950000I-20000J0D01*
G01*
X18820000Y-11950000D02*
G75*
G02*
X18860000Y-11950000I20000J0D01*
G01*
X18904400Y-9482700D02*
G75*
G02*
X18864400Y-9482700I-20000J0D01*
G01*
X18864400Y-9482700D02*
G75*
G02*
X18904400Y-9482700I20000J0D01*
G01*
X18990000Y-11060000D02*
G75*
G02*
X18950000Y-11060000I-20000J0D01*
G01*
X18950000Y-11060000D02*
G75*
G02*
X18990000Y-11060000I20000J0D01*
G01*
X19082500Y-13177500D02*
G75*
G02*
X19042500Y-13177500I-20000J0D01*
G01*
X19042500Y-13177500D02*
G75*
G02*
X19082500Y-13177500I20000J0D01*
G01*
X19150000Y-10190000D02*
G75*
G02*
X19110000Y-10190000I-20000J0D01*
G01*
X19110000Y-10190000D02*
G75*
G02*
X19150000Y-10190000I20000J0D01*
G01*
X19380000Y-13360000D02*
G75*
G02*
X19340000Y-13360000I-20000J0D01*
G01*
X19340000Y-13360000D02*
G75*
G02*
X19380000Y-13360000I20000J0D01*
G01*
X19740000Y-11170000D02*
G75*
G02*
X19700000Y-11170000I-20000J0D01*
G01*
X19700000Y-11170000D02*
G75*
G02*
X19740000Y-11170000I20000J0D01*
G01*
X19755000Y-12200000D02*
G75*
G02*
X19715000Y-12200000I-20000J0D01*
G01*
X19715000Y-12200000D02*
G75*
G02*
X19755000Y-12200000I20000J0D01*
G01*
X11023600Y-13920000D02*
X11023600Y-14020000D01*
X10973600Y-13970000D02*
X11073600Y-13970000D01*
X11023600Y-14428000D02*
X11023600Y-14528000D01*
X10973600Y-14478000D02*
X11073600Y-14478000D01*
X11277600Y-13920000D02*
X11277600Y-14020000D01*
X11227600Y-13970000D02*
X11327600Y-13970000D01*
X11277600Y-14428000D02*
X11277600Y-14528000D01*
X11227600Y-14478000D02*
X11327600Y-14478000D01*
X11531600Y-13920000D02*
X11531600Y-14020000D01*
X11481600Y-13970000D02*
X11581600Y-13970000D01*
X11531600Y-14428000D02*
X11531600Y-14528000D01*
X11481600Y-14478000D02*
X11581600Y-14478000D01*
X11785600Y-13920000D02*
X11785600Y-14020000D01*
X11735600Y-13970000D02*
X11835600Y-13970000D01*
X11785600Y-14428000D02*
X11785600Y-14528000D01*
X11735600Y-14478000D02*
X11835600Y-14478000D01*
X12039600Y-13920000D02*
X12039600Y-14020000D01*
X11989600Y-13970000D02*
X12089600Y-13970000D01*
X12039600Y-14428000D02*
X12039600Y-14528000D01*
X11989600Y-14478000D02*
X12089600Y-14478000D01*
X12293600Y-13920000D02*
X12293600Y-14020000D01*
X12243600Y-13970000D02*
X12343600Y-13970000D01*
X12293600Y-14428000D02*
X12293600Y-14528000D01*
X12243600Y-14478000D02*
X12343600Y-14478000D01*
X12547600Y-13920000D02*
X12547600Y-14020000D01*
X12497600Y-13970000D02*
X12597600Y-13970000D01*
X12547600Y-14428000D02*
X12547600Y-14528000D01*
X12497600Y-14478000D02*
X12597600Y-14478000D01*
X12801600Y-13920000D02*
X12801600Y-14020000D01*
X12751600Y-13970000D02*
X12851600Y-13970000D01*
X12801600Y-14428000D02*
X12801600Y-14528000D01*
X12751600Y-14478000D02*
X12851600Y-14478000D01*
X13055600Y-13920000D02*
X13055600Y-14020000D01*
X13005600Y-13970000D02*
X13105600Y-13970000D01*
X13055600Y-14428000D02*
X13055600Y-14528000D01*
X13005600Y-14478000D02*
X13105600Y-14478000D01*
X13309600Y-13920000D02*
X13309600Y-14020000D01*
X13259600Y-13970000D02*
X13359600Y-13970000D01*
X13309600Y-14428000D02*
X13309600Y-14528000D01*
X13259600Y-14478000D02*
X13359600Y-14478000D01*
X13563600Y-13920000D02*
X13563600Y-14020000D01*
X13513600Y-13970000D02*
X13613600Y-13970000D01*
X13563600Y-14428000D02*
X13563600Y-14528000D01*
X13513600Y-14478000D02*
X13613600Y-14478000D01*
X13817600Y-13920000D02*
X13817600Y-14020000D01*
X13767600Y-13970000D02*
X13867600Y-13970000D01*
X13817600Y-14428000D02*
X13817600Y-14528000D01*
X13767600Y-14478000D02*
X13867600Y-14478000D01*
X14071600Y-13920000D02*
X14071600Y-14020000D01*
X14021600Y-13970000D02*
X14121600Y-13970000D01*
X14071600Y-14428000D02*
X14071600Y-14528000D01*
X14021600Y-14478000D02*
X14121600Y-14478000D01*
X14325600Y-13920000D02*
X14325600Y-14020000D01*
X14275600Y-13970000D02*
X14375600Y-13970000D01*
X14325600Y-14428000D02*
X14325600Y-14528000D01*
X14275600Y-14478000D02*
X14375600Y-14478000D01*
X14579600Y-13920000D02*
X14579600Y-14020000D01*
X14529600Y-13970000D02*
X14629600Y-13970000D01*
X14579600Y-14428000D02*
X14579600Y-14528000D01*
X14529600Y-14478000D02*
X14629600Y-14478000D01*
X14833600Y-13920000D02*
X14833600Y-14020000D01*
X14783600Y-13970000D02*
X14883600Y-13970000D01*
X14833600Y-14428000D02*
X14833600Y-14528000D01*
X14783600Y-14478000D02*
X14883600Y-14478000D01*
X15087600Y-13920000D02*
X15087600Y-14020000D01*
X15037600Y-13970000D02*
X15137600Y-13970000D01*
X15087600Y-14428000D02*
X15087600Y-14528000D01*
X15037600Y-14478000D02*
X15137600Y-14478000D01*
X15341600Y-13920000D02*
X15341600Y-14020000D01*
X15291600Y-13970000D02*
X15391600Y-13970000D01*
X15341600Y-14428000D02*
X15341600Y-14528000D01*
X15291600Y-14478000D02*
X15391600Y-14478000D01*
X15595600Y-13920000D02*
X15595600Y-14020000D01*
X15545600Y-13970000D02*
X15645600Y-13970000D01*
X15595600Y-14428000D02*
X15595600Y-14528000D01*
X15545600Y-14478000D02*
X15645600Y-14478000D01*
X15849600Y-13920000D02*
X15849600Y-14020000D01*
X15799600Y-13970000D02*
X15899600Y-13970000D01*
X15849600Y-14428000D02*
X15849600Y-14528000D01*
X15799600Y-14478000D02*
X15899600Y-14478000D01*
X16103600Y-13920000D02*
X16103600Y-14020000D01*
X16053600Y-13970000D02*
X16153600Y-13970000D01*
X16103600Y-14428000D02*
X16103600Y-14528000D01*
X16053600Y-14478000D02*
X16153600Y-14478000D01*
X16357600Y-13920000D02*
X16357600Y-14020000D01*
X16307600Y-13970000D02*
X16407600Y-13970000D01*
X16357600Y-14428000D02*
X16357600Y-14528000D01*
X16307600Y-14478000D02*
X16407600Y-14478000D01*
X16611600Y-13920000D02*
X16611600Y-14020000D01*
X16561600Y-13970000D02*
X16661600Y-13970000D01*
X16611600Y-14428000D02*
X16611600Y-14528000D01*
X16561600Y-14478000D02*
X16661600Y-14478000D01*
X16865600Y-13920000D02*
X16865600Y-14020000D01*
X16815600Y-13970000D02*
X16915600Y-13970000D01*
X16865600Y-14428000D02*
X16865600Y-14528000D01*
X16815600Y-14478000D02*
X16915600Y-14478000D01*
X17119600Y-13920000D02*
X17119600Y-14020000D01*
X17069600Y-13970000D02*
X17169600Y-13970000D01*
X17119600Y-14428000D02*
X17119600Y-14528000D01*
X17069600Y-14478000D02*
X17169600Y-14478000D01*
X17354400Y-7122700D02*
X17354400Y-7222700D01*
X17304400Y-7172700D02*
X17404400Y-7172700D01*
X17373600Y-13920000D02*
X17373600Y-14020000D01*
X17323600Y-13970000D02*
X17423600Y-13970000D01*
X17373600Y-14428000D02*
X17373600Y-14528000D01*
X17323600Y-14478000D02*
X17423600Y-14478000D01*
X17608400Y-7122700D02*
X17608400Y-7222700D01*
X17558400Y-7172700D02*
X17658400Y-7172700D01*
X17627600Y-13920000D02*
X17627600Y-14020000D01*
X17577600Y-13970000D02*
X17677600Y-13970000D01*
X17627600Y-14428000D02*
X17627600Y-14528000D01*
X17577600Y-14478000D02*
X17677600Y-14478000D01*
X17862400Y-7122700D02*
X17862400Y-7222700D01*
X17812400Y-7172700D02*
X17912400Y-7172700D01*
X17881600Y-13920000D02*
X17881600Y-14020000D01*
X17831600Y-13970000D02*
X17931600Y-13970000D01*
X17881600Y-14428000D02*
X17881600Y-14528000D01*
X17831600Y-14478000D02*
X17931600Y-14478000D01*
X18116400Y-7122700D02*
X18116400Y-7222700D01*
X18066400Y-7172700D02*
X18166400Y-7172700D01*
X18135600Y-13920000D02*
X18135600Y-14020000D01*
X18085600Y-13970000D02*
X18185600Y-13970000D01*
X18135600Y-14428000D02*
X18135600Y-14528000D01*
X18085600Y-14478000D02*
X18185600Y-14478000D01*
X18370400Y-7122700D02*
X18370400Y-7222700D01*
X18320400Y-7172700D02*
X18420400Y-7172700D01*
X18389600Y-13920000D02*
X18389600Y-14020000D01*
X18339600Y-13970000D02*
X18439600Y-13970000D01*
X18389600Y-14428000D02*
X18389600Y-14528000D01*
X18339600Y-14478000D02*
X18439600Y-14478000D01*
X18624400Y-7122700D02*
X18624400Y-7222700D01*
X18574400Y-7172700D02*
X18674400Y-7172700D01*
X18643600Y-13920000D02*
X18643600Y-14020000D01*
X18593600Y-13970000D02*
X18693600Y-13970000D01*
X18643600Y-14428000D02*
X18643600Y-14528000D01*
X18593600Y-14478000D02*
X18693600Y-14478000D01*
X18897600Y-13920000D02*
X18897600Y-14020000D01*
X18847600Y-13970000D02*
X18947600Y-13970000D01*
X18897600Y-14428000D02*
X18897600Y-14528000D01*
X18847600Y-14478000D02*
X18947600Y-14478000D01*
X19242000Y-8794500D02*
X19242000Y-8894500D01*
X19192000Y-8844500D02*
X19292000Y-8844500D01*
X19242000Y-9023500D02*
X19242000Y-9123500D01*
X19192000Y-9073500D02*
X19292000Y-9073500D01*
X19242000Y-9252500D02*
X19242000Y-9352500D01*
X19192000Y-9302500D02*
X19292000Y-9302500D01*
X19242000Y-9481500D02*
X19242000Y-9581500D01*
X19192000Y-9531500D02*
X19292000Y-9531500D01*
X19242000Y-9710500D02*
X19242000Y-9810500D01*
X19192000Y-9760500D02*
X19292000Y-9760500D01*
X19440000Y-8680000D02*
X19440000Y-8780000D01*
X19390000Y-8730000D02*
X19490000Y-8730000D01*
X19440000Y-8909000D02*
X19440000Y-9009000D01*
X19390000Y-8959000D02*
X19490000Y-8959000D01*
X19440000Y-9138000D02*
X19440000Y-9238000D01*
X19390000Y-9188000D02*
X19490000Y-9188000D01*
X19440000Y-9367000D02*
X19440000Y-9467000D01*
X19390000Y-9417000D02*
X19490000Y-9417000D01*
X19440000Y-9596000D02*
X19440000Y-9696000D01*
X19390000Y-9646000D02*
X19490000Y-9646000D01*
X19638000Y-8794500D02*
X19638000Y-8894500D01*
X19588000Y-8844500D02*
X19688000Y-8844500D01*
X19638000Y-9023500D02*
X19638000Y-9123500D01*
X19588000Y-9073500D02*
X19688000Y-9073500D01*
X19638000Y-9252500D02*
X19638000Y-9352500D01*
X19588000Y-9302500D02*
X19688000Y-9302500D01*
X19638000Y-9481500D02*
X19638000Y-9581500D01*
X19588000Y-9531500D02*
X19688000Y-9531500D01*
X19638000Y-9710500D02*
X19638000Y-9810500D01*
X19588000Y-9760500D02*
X19688000Y-9760500D01*
D13*
X19560138Y-8139138D02*
X19560138Y-7912862D01*
X19333862Y-7912862D01*
X19333862Y-8139138D01*
X19560138Y-8139138D01*
X19560138Y-10639138D02*
X19560138Y-10412862D01*
X19333862Y-10412862D01*
X19333862Y-10639138D01*
X19560138Y-10639138D01*
D11*
X10258277Y-15313984D02*
X10258277Y-15113984D01*
X10258277Y-15113984D02*
X10305896Y-15113984D01*
X10305896Y-15113984D02*
X10334467Y-15123508D01*
X10334467Y-15123508D02*
X10353515Y-15142555D01*
X10353515Y-15142555D02*
X10363039Y-15161603D01*
X10363039Y-15161603D02*
X10372563Y-15199698D01*
X10372563Y-15199698D02*
X10372563Y-15228269D01*
X10372563Y-15228269D02*
X10363039Y-15266365D01*
X10363039Y-15266365D02*
X10353515Y-15285412D01*
X10353515Y-15285412D02*
X10334467Y-15304460D01*
X10334467Y-15304460D02*
X10305896Y-15313984D01*
X10305896Y-15313984D02*
X10258277Y-15313984D01*
X10458277Y-15313984D02*
X10458277Y-15180650D01*
X10458277Y-15218746D02*
X10467801Y-15199698D01*
X10467801Y-15199698D02*
X10477324Y-15190174D01*
X10477324Y-15190174D02*
X10496372Y-15180650D01*
X10496372Y-15180650D02*
X10515420Y-15180650D01*
X10582086Y-15313984D02*
X10582086Y-15180650D01*
X10582086Y-15113984D02*
X10572563Y-15123508D01*
X10572563Y-15123508D02*
X10582086Y-15133031D01*
X10582086Y-15133031D02*
X10591610Y-15123508D01*
X10591610Y-15123508D02*
X10582086Y-15113984D01*
X10582086Y-15113984D02*
X10582086Y-15133031D01*
X10705896Y-15313984D02*
X10686848Y-15304460D01*
X10686848Y-15304460D02*
X10677324Y-15285412D01*
X10677324Y-15285412D02*
X10677324Y-15113984D01*
X10810658Y-15313984D02*
X10791610Y-15304460D01*
X10791610Y-15304460D02*
X10782086Y-15285412D01*
X10782086Y-15285412D02*
X10782086Y-15113984D01*
X11039229Y-15313984D02*
X11039229Y-15113984D01*
X11039229Y-15113984D02*
X11105896Y-15256841D01*
X11105896Y-15256841D02*
X11172563Y-15113984D01*
X11172563Y-15113984D02*
X11172563Y-15313984D01*
X11353515Y-15313984D02*
X11353515Y-15209222D01*
X11353515Y-15209222D02*
X11343991Y-15190174D01*
X11343991Y-15190174D02*
X11324943Y-15180650D01*
X11324943Y-15180650D02*
X11286848Y-15180650D01*
X11286848Y-15180650D02*
X11267801Y-15190174D01*
X11353515Y-15304460D02*
X11334467Y-15313984D01*
X11334467Y-15313984D02*
X11286848Y-15313984D01*
X11286848Y-15313984D02*
X11267801Y-15304460D01*
X11267801Y-15304460D02*
X11258277Y-15285412D01*
X11258277Y-15285412D02*
X11258277Y-15266365D01*
X11258277Y-15266365D02*
X11267801Y-15247317D01*
X11267801Y-15247317D02*
X11286848Y-15237793D01*
X11286848Y-15237793D02*
X11334467Y-15237793D01*
X11334467Y-15237793D02*
X11353515Y-15228269D01*
X11448753Y-15180650D02*
X11448753Y-15380650D01*
X11448753Y-15190174D02*
X11467801Y-15180650D01*
X11467801Y-15180650D02*
X11505896Y-15180650D01*
X11505896Y-15180650D02*
X11524943Y-15190174D01*
X11524943Y-15190174D02*
X11534467Y-15199698D01*
X11534467Y-15199698D02*
X11543991Y-15218746D01*
X11543991Y-15218746D02*
X11543991Y-15275888D01*
X11543991Y-15275888D02*
X11534467Y-15294936D01*
X11534467Y-15294936D02*
X11524943Y-15304460D01*
X11524943Y-15304460D02*
X11505896Y-15313984D01*
X11505896Y-15313984D02*
X11467801Y-15313984D01*
X11467801Y-15313984D02*
X11448753Y-15304460D01*
X11629705Y-15294936D02*
X11639229Y-15304460D01*
X11639229Y-15304460D02*
X11629705Y-15313984D01*
X11629705Y-15313984D02*
X11620182Y-15304460D01*
X11620182Y-15304460D02*
X11629705Y-15294936D01*
X11629705Y-15294936D02*
X11629705Y-15313984D01*
X11629705Y-15190174D02*
X11639229Y-15199698D01*
X11639229Y-15199698D02*
X11629705Y-15209222D01*
X11629705Y-15209222D02*
X11620182Y-15199698D01*
X11620182Y-15199698D02*
X11629705Y-15190174D01*
X11629705Y-15190174D02*
X11629705Y-15209222D01*
D12*
X9977500Y-15632500D02*
X9997500Y-15652500D01*
X9997500Y-15632500D02*
X9977500Y-15652500D01*
D11*
X10296372Y-15533984D02*
X10315420Y-15533984D01*
X10315420Y-15533984D02*
X10334467Y-15543508D01*
X10334467Y-15543508D02*
X10343991Y-15553031D01*
X10343991Y-15553031D02*
X10353515Y-15572079D01*
X10353515Y-15572079D02*
X10363039Y-15610174D01*
X10363039Y-15610174D02*
X10363039Y-15657793D01*
X10363039Y-15657793D02*
X10353515Y-15695888D01*
X10353515Y-15695888D02*
X10343991Y-15714936D01*
X10343991Y-15714936D02*
X10334467Y-15724460D01*
X10334467Y-15724460D02*
X10315420Y-15733984D01*
X10315420Y-15733984D02*
X10296372Y-15733984D01*
X10296372Y-15733984D02*
X10277324Y-15724460D01*
X10277324Y-15724460D02*
X10267801Y-15714936D01*
X10267801Y-15714936D02*
X10258277Y-15695888D01*
X10258277Y-15695888D02*
X10248753Y-15657793D01*
X10248753Y-15657793D02*
X10248753Y-15610174D01*
X10248753Y-15610174D02*
X10258277Y-15572079D01*
X10258277Y-15572079D02*
X10267801Y-15553031D01*
X10267801Y-15553031D02*
X10277324Y-15543508D01*
X10277324Y-15543508D02*
X10296372Y-15533984D01*
X10448753Y-15714936D02*
X10458277Y-15724460D01*
X10458277Y-15724460D02*
X10448753Y-15733984D01*
X10448753Y-15733984D02*
X10439229Y-15724460D01*
X10439229Y-15724460D02*
X10448753Y-15714936D01*
X10448753Y-15714936D02*
X10448753Y-15733984D01*
X10534467Y-15553031D02*
X10543991Y-15543508D01*
X10543991Y-15543508D02*
X10563039Y-15533984D01*
X10563039Y-15533984D02*
X10610658Y-15533984D01*
X10610658Y-15533984D02*
X10629705Y-15543508D01*
X10629705Y-15543508D02*
X10639229Y-15553031D01*
X10639229Y-15553031D02*
X10648753Y-15572079D01*
X10648753Y-15572079D02*
X10648753Y-15591127D01*
X10648753Y-15591127D02*
X10639229Y-15619698D01*
X10639229Y-15619698D02*
X10524944Y-15733984D01*
X10524944Y-15733984D02*
X10648753Y-15733984D01*
X10772563Y-15533984D02*
X10791610Y-15533984D01*
X10791610Y-15533984D02*
X10810658Y-15543508D01*
X10810658Y-15543508D02*
X10820182Y-15553031D01*
X10820182Y-15553031D02*
X10829705Y-15572079D01*
X10829705Y-15572079D02*
X10839229Y-15610174D01*
X10839229Y-15610174D02*
X10839229Y-15657793D01*
X10839229Y-15657793D02*
X10829705Y-15695888D01*
X10829705Y-15695888D02*
X10820182Y-15714936D01*
X10820182Y-15714936D02*
X10810658Y-15724460D01*
X10810658Y-15724460D02*
X10791610Y-15733984D01*
X10791610Y-15733984D02*
X10772563Y-15733984D01*
X10772563Y-15733984D02*
X10753515Y-15724460D01*
X10753515Y-15724460D02*
X10743991Y-15714936D01*
X10743991Y-15714936D02*
X10734467Y-15695888D01*
X10734467Y-15695888D02*
X10724944Y-15657793D01*
X10724944Y-15657793D02*
X10724944Y-15610174D01*
X10724944Y-15610174D02*
X10734467Y-15572079D01*
X10734467Y-15572079D02*
X10743991Y-15553031D01*
X10743991Y-15553031D02*
X10753515Y-15543508D01*
X10753515Y-15543508D02*
X10772563Y-15533984D01*
X10963039Y-15533984D02*
X10982086Y-15533984D01*
X10982086Y-15533984D02*
X11001134Y-15543508D01*
X11001134Y-15543508D02*
X11010658Y-15553031D01*
X11010658Y-15553031D02*
X11020182Y-15572079D01*
X11020182Y-15572079D02*
X11029705Y-15610174D01*
X11029705Y-15610174D02*
X11029705Y-15657793D01*
X11029705Y-15657793D02*
X11020182Y-15695888D01*
X11020182Y-15695888D02*
X11010658Y-15714936D01*
X11010658Y-15714936D02*
X11001134Y-15724460D01*
X11001134Y-15724460D02*
X10982086Y-15733984D01*
X10982086Y-15733984D02*
X10963039Y-15733984D01*
X10963039Y-15733984D02*
X10943991Y-15724460D01*
X10943991Y-15724460D02*
X10934467Y-15714936D01*
X10934467Y-15714936D02*
X10924944Y-15695888D01*
X10924944Y-15695888D02*
X10915420Y-15657793D01*
X10915420Y-15657793D02*
X10915420Y-15610174D01*
X10915420Y-15610174D02*
X10924944Y-15572079D01*
X10924944Y-15572079D02*
X10934467Y-15553031D01*
X10934467Y-15553031D02*
X10943991Y-15543508D01*
X10943991Y-15543508D02*
X10963039Y-15533984D01*
X11115420Y-15733984D02*
X11115420Y-15600650D01*
X11115420Y-15619698D02*
X11124944Y-15610174D01*
X11124944Y-15610174D02*
X11143991Y-15600650D01*
X11143991Y-15600650D02*
X11172563Y-15600650D01*
X11172563Y-15600650D02*
X11191610Y-15610174D01*
X11191610Y-15610174D02*
X11201134Y-15629222D01*
X11201134Y-15629222D02*
X11201134Y-15733984D01*
X11201134Y-15629222D02*
X11210658Y-15610174D01*
X11210658Y-15610174D02*
X11229705Y-15600650D01*
X11229705Y-15600650D02*
X11258277Y-15600650D01*
X11258277Y-15600650D02*
X11277324Y-15610174D01*
X11277324Y-15610174D02*
X11286848Y-15629222D01*
X11286848Y-15629222D02*
X11286848Y-15733984D01*
X11382086Y-15733984D02*
X11382086Y-15600650D01*
X11382086Y-15619698D02*
X11391610Y-15610174D01*
X11391610Y-15610174D02*
X11410658Y-15600650D01*
X11410658Y-15600650D02*
X11439229Y-15600650D01*
X11439229Y-15600650D02*
X11458277Y-15610174D01*
X11458277Y-15610174D02*
X11467801Y-15629222D01*
X11467801Y-15629222D02*
X11467801Y-15733984D01*
X11467801Y-15629222D02*
X11477324Y-15610174D01*
X11477324Y-15610174D02*
X11496372Y-15600650D01*
X11496372Y-15600650D02*
X11524943Y-15600650D01*
X11524943Y-15600650D02*
X11543991Y-15610174D01*
X11543991Y-15610174D02*
X11553515Y-15629222D01*
X11553515Y-15629222D02*
X11553515Y-15733984D01*
X11943991Y-15524460D02*
X11772563Y-15781603D01*
X12201134Y-15533984D02*
X12220182Y-15533984D01*
X12220182Y-15533984D02*
X12239229Y-15543508D01*
X12239229Y-15543508D02*
X12248753Y-15553031D01*
X12248753Y-15553031D02*
X12258277Y-15572079D01*
X12258277Y-15572079D02*
X12267801Y-15610174D01*
X12267801Y-15610174D02*
X12267801Y-15657793D01*
X12267801Y-15657793D02*
X12258277Y-15695888D01*
X12258277Y-15695888D02*
X12248753Y-15714936D01*
X12248753Y-15714936D02*
X12239229Y-15724460D01*
X12239229Y-15724460D02*
X12220182Y-15733984D01*
X12220182Y-15733984D02*
X12201134Y-15733984D01*
X12201134Y-15733984D02*
X12182086Y-15724460D01*
X12182086Y-15724460D02*
X12172563Y-15714936D01*
X12172563Y-15714936D02*
X12163039Y-15695888D01*
X12163039Y-15695888D02*
X12153515Y-15657793D01*
X12153515Y-15657793D02*
X12153515Y-15610174D01*
X12153515Y-15610174D02*
X12163039Y-15572079D01*
X12163039Y-15572079D02*
X12172563Y-15553031D01*
X12172563Y-15553031D02*
X12182086Y-15543508D01*
X12182086Y-15543508D02*
X12201134Y-15533984D01*
X12353515Y-15714936D02*
X12363039Y-15724460D01*
X12363039Y-15724460D02*
X12353515Y-15733984D01*
X12353515Y-15733984D02*
X12343991Y-15724460D01*
X12343991Y-15724460D02*
X12353515Y-15714936D01*
X12353515Y-15714936D02*
X12353515Y-15733984D01*
X12486848Y-15533984D02*
X12505896Y-15533984D01*
X12505896Y-15533984D02*
X12524944Y-15543508D01*
X12524944Y-15543508D02*
X12534467Y-15553031D01*
X12534467Y-15553031D02*
X12543991Y-15572079D01*
X12543991Y-15572079D02*
X12553515Y-15610174D01*
X12553515Y-15610174D02*
X12553515Y-15657793D01*
X12553515Y-15657793D02*
X12543991Y-15695888D01*
X12543991Y-15695888D02*
X12534467Y-15714936D01*
X12534467Y-15714936D02*
X12524944Y-15724460D01*
X12524944Y-15724460D02*
X12505896Y-15733984D01*
X12505896Y-15733984D02*
X12486848Y-15733984D01*
X12486848Y-15733984D02*
X12467801Y-15724460D01*
X12467801Y-15724460D02*
X12458277Y-15714936D01*
X12458277Y-15714936D02*
X12448753Y-15695888D01*
X12448753Y-15695888D02*
X12439229Y-15657793D01*
X12439229Y-15657793D02*
X12439229Y-15610174D01*
X12439229Y-15610174D02*
X12448753Y-15572079D01*
X12448753Y-15572079D02*
X12458277Y-15553031D01*
X12458277Y-15553031D02*
X12467801Y-15543508D01*
X12467801Y-15543508D02*
X12486848Y-15533984D01*
X12677325Y-15533984D02*
X12696372Y-15533984D01*
X12696372Y-15533984D02*
X12715420Y-15543508D01*
X12715420Y-15543508D02*
X12724944Y-15553031D01*
X12724944Y-15553031D02*
X12734467Y-15572079D01*
X12734467Y-15572079D02*
X12743991Y-15610174D01*
X12743991Y-15610174D02*
X12743991Y-15657793D01*
X12743991Y-15657793D02*
X12734467Y-15695888D01*
X12734467Y-15695888D02*
X12724944Y-15714936D01*
X12724944Y-15714936D02*
X12715420Y-15724460D01*
X12715420Y-15724460D02*
X12696372Y-15733984D01*
X12696372Y-15733984D02*
X12677325Y-15733984D01*
X12677325Y-15733984D02*
X12658277Y-15724460D01*
X12658277Y-15724460D02*
X12648753Y-15714936D01*
X12648753Y-15714936D02*
X12639229Y-15695888D01*
X12639229Y-15695888D02*
X12629706Y-15657793D01*
X12629706Y-15657793D02*
X12629706Y-15610174D01*
X12629706Y-15610174D02*
X12639229Y-15572079D01*
X12639229Y-15572079D02*
X12648753Y-15553031D01*
X12648753Y-15553031D02*
X12658277Y-15543508D01*
X12658277Y-15543508D02*
X12677325Y-15533984D01*
X12810658Y-15533984D02*
X12943991Y-15533984D01*
X12943991Y-15533984D02*
X12858277Y-15733984D01*
X13029706Y-15733984D02*
X13067801Y-15733984D01*
X13067801Y-15733984D02*
X13086848Y-15724460D01*
X13086848Y-15724460D02*
X13096372Y-15714936D01*
X13096372Y-15714936D02*
X13115420Y-15686365D01*
X13115420Y-15686365D02*
X13124944Y-15648269D01*
X13124944Y-15648269D02*
X13124944Y-15572079D01*
X13124944Y-15572079D02*
X13115420Y-15553031D01*
X13115420Y-15553031D02*
X13105896Y-15543508D01*
X13105896Y-15543508D02*
X13086848Y-15533984D01*
X13086848Y-15533984D02*
X13048753Y-15533984D01*
X13048753Y-15533984D02*
X13029706Y-15543508D01*
X13029706Y-15543508D02*
X13020182Y-15553031D01*
X13020182Y-15553031D02*
X13010658Y-15572079D01*
X13010658Y-15572079D02*
X13010658Y-15619698D01*
X13010658Y-15619698D02*
X13020182Y-15638746D01*
X13020182Y-15638746D02*
X13029706Y-15648269D01*
X13029706Y-15648269D02*
X13048753Y-15657793D01*
X13048753Y-15657793D02*
X13086848Y-15657793D01*
X13086848Y-15657793D02*
X13105896Y-15648269D01*
X13105896Y-15648269D02*
X13115420Y-15638746D01*
X13115420Y-15638746D02*
X13124944Y-15619698D01*
X13201134Y-15533984D02*
X13201134Y-15572079D01*
X13277325Y-15533984D02*
X13277325Y-15572079D01*
X13572563Y-15810174D02*
X13563039Y-15800650D01*
X13563039Y-15800650D02*
X13543991Y-15772079D01*
X13543991Y-15772079D02*
X13534468Y-15753031D01*
X13534468Y-15753031D02*
X13524944Y-15724460D01*
X13524944Y-15724460D02*
X13515420Y-15676841D01*
X13515420Y-15676841D02*
X13515420Y-15638746D01*
X13515420Y-15638746D02*
X13524944Y-15591127D01*
X13524944Y-15591127D02*
X13534468Y-15562555D01*
X13534468Y-15562555D02*
X13543991Y-15543508D01*
X13543991Y-15543508D02*
X13563039Y-15514936D01*
X13563039Y-15514936D02*
X13572563Y-15505412D01*
X13677325Y-15619698D02*
X13658277Y-15610174D01*
X13658277Y-15610174D02*
X13648753Y-15600650D01*
X13648753Y-15600650D02*
X13639229Y-15581603D01*
X13639229Y-15581603D02*
X13639229Y-15572079D01*
X13639229Y-15572079D02*
X13648753Y-15553031D01*
X13648753Y-15553031D02*
X13658277Y-15543508D01*
X13658277Y-15543508D02*
X13677325Y-15533984D01*
X13677325Y-15533984D02*
X13715420Y-15533984D01*
X13715420Y-15533984D02*
X13734468Y-15543508D01*
X13734468Y-15543508D02*
X13743991Y-15553031D01*
X13743991Y-15553031D02*
X13753515Y-15572079D01*
X13753515Y-15572079D02*
X13753515Y-15581603D01*
X13753515Y-15581603D02*
X13743991Y-15600650D01*
X13743991Y-15600650D02*
X13734468Y-15610174D01*
X13734468Y-15610174D02*
X13715420Y-15619698D01*
X13715420Y-15619698D02*
X13677325Y-15619698D01*
X13677325Y-15619698D02*
X13658277Y-15629222D01*
X13658277Y-15629222D02*
X13648753Y-15638746D01*
X13648753Y-15638746D02*
X13639229Y-15657793D01*
X13639229Y-15657793D02*
X13639229Y-15695888D01*
X13639229Y-15695888D02*
X13648753Y-15714936D01*
X13648753Y-15714936D02*
X13658277Y-15724460D01*
X13658277Y-15724460D02*
X13677325Y-15733984D01*
X13677325Y-15733984D02*
X13715420Y-15733984D01*
X13715420Y-15733984D02*
X13734468Y-15724460D01*
X13734468Y-15724460D02*
X13743991Y-15714936D01*
X13743991Y-15714936D02*
X13753515Y-15695888D01*
X13753515Y-15695888D02*
X13753515Y-15657793D01*
X13753515Y-15657793D02*
X13743991Y-15638746D01*
X13743991Y-15638746D02*
X13734468Y-15629222D01*
X13734468Y-15629222D02*
X13715420Y-15619698D01*
X13934468Y-15533984D02*
X13839229Y-15533984D01*
X13839229Y-15533984D02*
X13829706Y-15629222D01*
X13829706Y-15629222D02*
X13839229Y-15619698D01*
X13839229Y-15619698D02*
X13858277Y-15610174D01*
X13858277Y-15610174D02*
X13905896Y-15610174D01*
X13905896Y-15610174D02*
X13924944Y-15619698D01*
X13924944Y-15619698D02*
X13934468Y-15629222D01*
X13934468Y-15629222D02*
X13943991Y-15648269D01*
X13943991Y-15648269D02*
X13943991Y-15695888D01*
X13943991Y-15695888D02*
X13934468Y-15714936D01*
X13934468Y-15714936D02*
X13924944Y-15724460D01*
X13924944Y-15724460D02*
X13905896Y-15733984D01*
X13905896Y-15733984D02*
X13858277Y-15733984D01*
X13858277Y-15733984D02*
X13839229Y-15724460D01*
X13839229Y-15724460D02*
X13829706Y-15714936D01*
X14182087Y-15733984D02*
X14182087Y-15533984D01*
X14267801Y-15733984D02*
X14267801Y-15629222D01*
X14267801Y-15629222D02*
X14258277Y-15610174D01*
X14258277Y-15610174D02*
X14239230Y-15600650D01*
X14239230Y-15600650D02*
X14210658Y-15600650D01*
X14210658Y-15600650D02*
X14191610Y-15610174D01*
X14191610Y-15610174D02*
X14182087Y-15619698D01*
X14391610Y-15733984D02*
X14372563Y-15724460D01*
X14372563Y-15724460D02*
X14363039Y-15714936D01*
X14363039Y-15714936D02*
X14353515Y-15695888D01*
X14353515Y-15695888D02*
X14353515Y-15638746D01*
X14353515Y-15638746D02*
X14363039Y-15619698D01*
X14363039Y-15619698D02*
X14372563Y-15610174D01*
X14372563Y-15610174D02*
X14391610Y-15600650D01*
X14391610Y-15600650D02*
X14420182Y-15600650D01*
X14420182Y-15600650D02*
X14439230Y-15610174D01*
X14439230Y-15610174D02*
X14448753Y-15619698D01*
X14448753Y-15619698D02*
X14458277Y-15638746D01*
X14458277Y-15638746D02*
X14458277Y-15695888D01*
X14458277Y-15695888D02*
X14448753Y-15714936D01*
X14448753Y-15714936D02*
X14439230Y-15724460D01*
X14439230Y-15724460D02*
X14420182Y-15733984D01*
X14420182Y-15733984D02*
X14391610Y-15733984D01*
X14572563Y-15733984D02*
X14553515Y-15724460D01*
X14553515Y-15724460D02*
X14543991Y-15705412D01*
X14543991Y-15705412D02*
X14543991Y-15533984D01*
X14724944Y-15724460D02*
X14705896Y-15733984D01*
X14705896Y-15733984D02*
X14667801Y-15733984D01*
X14667801Y-15733984D02*
X14648753Y-15724460D01*
X14648753Y-15724460D02*
X14639230Y-15705412D01*
X14639230Y-15705412D02*
X14639230Y-15629222D01*
X14639230Y-15629222D02*
X14648753Y-15610174D01*
X14648753Y-15610174D02*
X14667801Y-15600650D01*
X14667801Y-15600650D02*
X14705896Y-15600650D01*
X14705896Y-15600650D02*
X14724944Y-15610174D01*
X14724944Y-15610174D02*
X14734468Y-15629222D01*
X14734468Y-15629222D02*
X14734468Y-15648269D01*
X14734468Y-15648269D02*
X14639230Y-15667317D01*
X14810658Y-15724460D02*
X14829706Y-15733984D01*
X14829706Y-15733984D02*
X14867801Y-15733984D01*
X14867801Y-15733984D02*
X14886849Y-15724460D01*
X14886849Y-15724460D02*
X14896372Y-15705412D01*
X14896372Y-15705412D02*
X14896372Y-15695888D01*
X14896372Y-15695888D02*
X14886849Y-15676841D01*
X14886849Y-15676841D02*
X14867801Y-15667317D01*
X14867801Y-15667317D02*
X14839230Y-15667317D01*
X14839230Y-15667317D02*
X14820182Y-15657793D01*
X14820182Y-15657793D02*
X14810658Y-15638746D01*
X14810658Y-15638746D02*
X14810658Y-15629222D01*
X14810658Y-15629222D02*
X14820182Y-15610174D01*
X14820182Y-15610174D02*
X14839230Y-15600650D01*
X14839230Y-15600650D02*
X14867801Y-15600650D01*
X14867801Y-15600650D02*
X14886849Y-15610174D01*
X14963039Y-15810174D02*
X14972563Y-15800650D01*
X14972563Y-15800650D02*
X14991611Y-15772079D01*
X14991611Y-15772079D02*
X15001134Y-15753031D01*
X15001134Y-15753031D02*
X15010658Y-15724460D01*
X15010658Y-15724460D02*
X15020182Y-15676841D01*
X15020182Y-15676841D02*
X15020182Y-15638746D01*
X15020182Y-15638746D02*
X15010658Y-15591127D01*
X15010658Y-15591127D02*
X15001134Y-15562555D01*
X15001134Y-15562555D02*
X14991611Y-15543508D01*
X14991611Y-15543508D02*
X14972563Y-15514936D01*
X14972563Y-15514936D02*
X14963039Y-15505412D01*
D12*
X9997500Y-15906500D02*
G75*
G02*
X9957500Y-15906500I-20000J0D01*
G01*
X9957500Y-15906500D02*
G75*
G02*
X9997500Y-15906500I20000J0D01*
G01*
D11*
X10296372Y-15797984D02*
X10315420Y-15797984D01*
X10315420Y-15797984D02*
X10334467Y-15807508D01*
X10334467Y-15807508D02*
X10343991Y-15817031D01*
X10343991Y-15817031D02*
X10353515Y-15836079D01*
X10353515Y-15836079D02*
X10363039Y-15874174D01*
X10363039Y-15874174D02*
X10363039Y-15921793D01*
X10363039Y-15921793D02*
X10353515Y-15959888D01*
X10353515Y-15959888D02*
X10343991Y-15978936D01*
X10343991Y-15978936D02*
X10334467Y-15988460D01*
X10334467Y-15988460D02*
X10315420Y-15997984D01*
X10315420Y-15997984D02*
X10296372Y-15997984D01*
X10296372Y-15997984D02*
X10277324Y-15988460D01*
X10277324Y-15988460D02*
X10267801Y-15978936D01*
X10267801Y-15978936D02*
X10258277Y-15959888D01*
X10258277Y-15959888D02*
X10248753Y-15921793D01*
X10248753Y-15921793D02*
X10248753Y-15874174D01*
X10248753Y-15874174D02*
X10258277Y-15836079D01*
X10258277Y-15836079D02*
X10267801Y-15817031D01*
X10267801Y-15817031D02*
X10277324Y-15807508D01*
X10277324Y-15807508D02*
X10296372Y-15797984D01*
X10448753Y-15978936D02*
X10458277Y-15988460D01*
X10458277Y-15988460D02*
X10448753Y-15997984D01*
X10448753Y-15997984D02*
X10439229Y-15988460D01*
X10439229Y-15988460D02*
X10448753Y-15978936D01*
X10448753Y-15978936D02*
X10448753Y-15997984D01*
X10629705Y-15864650D02*
X10629705Y-15997984D01*
X10582086Y-15788460D02*
X10534467Y-15931317D01*
X10534467Y-15931317D02*
X10658277Y-15931317D01*
X10772563Y-15797984D02*
X10791610Y-15797984D01*
X10791610Y-15797984D02*
X10810658Y-15807508D01*
X10810658Y-15807508D02*
X10820182Y-15817031D01*
X10820182Y-15817031D02*
X10829705Y-15836079D01*
X10829705Y-15836079D02*
X10839229Y-15874174D01*
X10839229Y-15874174D02*
X10839229Y-15921793D01*
X10839229Y-15921793D02*
X10829705Y-15959888D01*
X10829705Y-15959888D02*
X10820182Y-15978936D01*
X10820182Y-15978936D02*
X10810658Y-15988460D01*
X10810658Y-15988460D02*
X10791610Y-15997984D01*
X10791610Y-15997984D02*
X10772563Y-15997984D01*
X10772563Y-15997984D02*
X10753515Y-15988460D01*
X10753515Y-15988460D02*
X10743991Y-15978936D01*
X10743991Y-15978936D02*
X10734467Y-15959888D01*
X10734467Y-15959888D02*
X10724944Y-15921793D01*
X10724944Y-15921793D02*
X10724944Y-15874174D01*
X10724944Y-15874174D02*
X10734467Y-15836079D01*
X10734467Y-15836079D02*
X10743991Y-15817031D01*
X10743991Y-15817031D02*
X10753515Y-15807508D01*
X10753515Y-15807508D02*
X10772563Y-15797984D01*
X10963039Y-15797984D02*
X10982086Y-15797984D01*
X10982086Y-15797984D02*
X11001134Y-15807508D01*
X11001134Y-15807508D02*
X11010658Y-15817031D01*
X11010658Y-15817031D02*
X11020182Y-15836079D01*
X11020182Y-15836079D02*
X11029705Y-15874174D01*
X11029705Y-15874174D02*
X11029705Y-15921793D01*
X11029705Y-15921793D02*
X11020182Y-15959888D01*
X11020182Y-15959888D02*
X11010658Y-15978936D01*
X11010658Y-15978936D02*
X11001134Y-15988460D01*
X11001134Y-15988460D02*
X10982086Y-15997984D01*
X10982086Y-15997984D02*
X10963039Y-15997984D01*
X10963039Y-15997984D02*
X10943991Y-15988460D01*
X10943991Y-15988460D02*
X10934467Y-15978936D01*
X10934467Y-15978936D02*
X10924944Y-15959888D01*
X10924944Y-15959888D02*
X10915420Y-15921793D01*
X10915420Y-15921793D02*
X10915420Y-15874174D01*
X10915420Y-15874174D02*
X10924944Y-15836079D01*
X10924944Y-15836079D02*
X10934467Y-15817031D01*
X10934467Y-15817031D02*
X10943991Y-15807508D01*
X10943991Y-15807508D02*
X10963039Y-15797984D01*
X11115420Y-15997984D02*
X11115420Y-15864650D01*
X11115420Y-15883698D02*
X11124944Y-15874174D01*
X11124944Y-15874174D02*
X11143991Y-15864650D01*
X11143991Y-15864650D02*
X11172563Y-15864650D01*
X11172563Y-15864650D02*
X11191610Y-15874174D01*
X11191610Y-15874174D02*
X11201134Y-15893222D01*
X11201134Y-15893222D02*
X11201134Y-15997984D01*
X11201134Y-15893222D02*
X11210658Y-15874174D01*
X11210658Y-15874174D02*
X11229705Y-15864650D01*
X11229705Y-15864650D02*
X11258277Y-15864650D01*
X11258277Y-15864650D02*
X11277324Y-15874174D01*
X11277324Y-15874174D02*
X11286848Y-15893222D01*
X11286848Y-15893222D02*
X11286848Y-15997984D01*
X11382086Y-15997984D02*
X11382086Y-15864650D01*
X11382086Y-15883698D02*
X11391610Y-15874174D01*
X11391610Y-15874174D02*
X11410658Y-15864650D01*
X11410658Y-15864650D02*
X11439229Y-15864650D01*
X11439229Y-15864650D02*
X11458277Y-15874174D01*
X11458277Y-15874174D02*
X11467801Y-15893222D01*
X11467801Y-15893222D02*
X11467801Y-15997984D01*
X11467801Y-15893222D02*
X11477324Y-15874174D01*
X11477324Y-15874174D02*
X11496372Y-15864650D01*
X11496372Y-15864650D02*
X11524943Y-15864650D01*
X11524943Y-15864650D02*
X11543991Y-15874174D01*
X11543991Y-15874174D02*
X11553515Y-15893222D01*
X11553515Y-15893222D02*
X11553515Y-15997984D01*
X11943991Y-15788460D02*
X11772563Y-16045603D01*
X12201134Y-15797984D02*
X12220182Y-15797984D01*
X12220182Y-15797984D02*
X12239229Y-15807508D01*
X12239229Y-15807508D02*
X12248753Y-15817031D01*
X12248753Y-15817031D02*
X12258277Y-15836079D01*
X12258277Y-15836079D02*
X12267801Y-15874174D01*
X12267801Y-15874174D02*
X12267801Y-15921793D01*
X12267801Y-15921793D02*
X12258277Y-15959888D01*
X12258277Y-15959888D02*
X12248753Y-15978936D01*
X12248753Y-15978936D02*
X12239229Y-15988460D01*
X12239229Y-15988460D02*
X12220182Y-15997984D01*
X12220182Y-15997984D02*
X12201134Y-15997984D01*
X12201134Y-15997984D02*
X12182086Y-15988460D01*
X12182086Y-15988460D02*
X12172563Y-15978936D01*
X12172563Y-15978936D02*
X12163039Y-15959888D01*
X12163039Y-15959888D02*
X12153515Y-15921793D01*
X12153515Y-15921793D02*
X12153515Y-15874174D01*
X12153515Y-15874174D02*
X12163039Y-15836079D01*
X12163039Y-15836079D02*
X12172563Y-15817031D01*
X12172563Y-15817031D02*
X12182086Y-15807508D01*
X12182086Y-15807508D02*
X12201134Y-15797984D01*
X12353515Y-15978936D02*
X12363039Y-15988460D01*
X12363039Y-15988460D02*
X12353515Y-15997984D01*
X12353515Y-15997984D02*
X12343991Y-15988460D01*
X12343991Y-15988460D02*
X12353515Y-15978936D01*
X12353515Y-15978936D02*
X12353515Y-15997984D01*
X12486848Y-15797984D02*
X12505896Y-15797984D01*
X12505896Y-15797984D02*
X12524944Y-15807508D01*
X12524944Y-15807508D02*
X12534467Y-15817031D01*
X12534467Y-15817031D02*
X12543991Y-15836079D01*
X12543991Y-15836079D02*
X12553515Y-15874174D01*
X12553515Y-15874174D02*
X12553515Y-15921793D01*
X12553515Y-15921793D02*
X12543991Y-15959888D01*
X12543991Y-15959888D02*
X12534467Y-15978936D01*
X12534467Y-15978936D02*
X12524944Y-15988460D01*
X12524944Y-15988460D02*
X12505896Y-15997984D01*
X12505896Y-15997984D02*
X12486848Y-15997984D01*
X12486848Y-15997984D02*
X12467801Y-15988460D01*
X12467801Y-15988460D02*
X12458277Y-15978936D01*
X12458277Y-15978936D02*
X12448753Y-15959888D01*
X12448753Y-15959888D02*
X12439229Y-15921793D01*
X12439229Y-15921793D02*
X12439229Y-15874174D01*
X12439229Y-15874174D02*
X12448753Y-15836079D01*
X12448753Y-15836079D02*
X12458277Y-15817031D01*
X12458277Y-15817031D02*
X12467801Y-15807508D01*
X12467801Y-15807508D02*
X12486848Y-15797984D01*
X12743991Y-15997984D02*
X12629706Y-15997984D01*
X12686848Y-15997984D02*
X12686848Y-15797984D01*
X12686848Y-15797984D02*
X12667801Y-15826555D01*
X12667801Y-15826555D02*
X12648753Y-15845603D01*
X12648753Y-15845603D02*
X12629706Y-15855127D01*
X12924944Y-15797984D02*
X12829706Y-15797984D01*
X12829706Y-15797984D02*
X12820182Y-15893222D01*
X12820182Y-15893222D02*
X12829706Y-15883698D01*
X12829706Y-15883698D02*
X12848753Y-15874174D01*
X12848753Y-15874174D02*
X12896372Y-15874174D01*
X12896372Y-15874174D02*
X12915420Y-15883698D01*
X12915420Y-15883698D02*
X12924944Y-15893222D01*
X12924944Y-15893222D02*
X12934467Y-15912269D01*
X12934467Y-15912269D02*
X12934467Y-15959888D01*
X12934467Y-15959888D02*
X12924944Y-15978936D01*
X12924944Y-15978936D02*
X12915420Y-15988460D01*
X12915420Y-15988460D02*
X12896372Y-15997984D01*
X12896372Y-15997984D02*
X12848753Y-15997984D01*
X12848753Y-15997984D02*
X12829706Y-15988460D01*
X12829706Y-15988460D02*
X12820182Y-15978936D01*
X13001134Y-15797984D02*
X13134467Y-15797984D01*
X13134467Y-15797984D02*
X13048753Y-15997984D01*
X13201134Y-15797984D02*
X13201134Y-15836079D01*
X13277325Y-15797984D02*
X13277325Y-15836079D01*
X13572563Y-16074174D02*
X13563039Y-16064650D01*
X13563039Y-16064650D02*
X13543991Y-16036079D01*
X13543991Y-16036079D02*
X13534468Y-16017031D01*
X13534468Y-16017031D02*
X13524944Y-15988460D01*
X13524944Y-15988460D02*
X13515420Y-15940841D01*
X13515420Y-15940841D02*
X13515420Y-15902746D01*
X13515420Y-15902746D02*
X13524944Y-15855127D01*
X13524944Y-15855127D02*
X13534468Y-15826555D01*
X13534468Y-15826555D02*
X13543991Y-15807508D01*
X13543991Y-15807508D02*
X13563039Y-15778936D01*
X13563039Y-15778936D02*
X13572563Y-15769412D01*
X13658277Y-15997984D02*
X13696372Y-15997984D01*
X13696372Y-15997984D02*
X13715420Y-15988460D01*
X13715420Y-15988460D02*
X13724944Y-15978936D01*
X13724944Y-15978936D02*
X13743991Y-15950365D01*
X13743991Y-15950365D02*
X13753515Y-15912269D01*
X13753515Y-15912269D02*
X13753515Y-15836079D01*
X13753515Y-15836079D02*
X13743991Y-15817031D01*
X13743991Y-15817031D02*
X13734468Y-15807508D01*
X13734468Y-15807508D02*
X13715420Y-15797984D01*
X13715420Y-15797984D02*
X13677325Y-15797984D01*
X13677325Y-15797984D02*
X13658277Y-15807508D01*
X13658277Y-15807508D02*
X13648753Y-15817031D01*
X13648753Y-15817031D02*
X13639229Y-15836079D01*
X13639229Y-15836079D02*
X13639229Y-15883698D01*
X13639229Y-15883698D02*
X13648753Y-15902746D01*
X13648753Y-15902746D02*
X13658277Y-15912269D01*
X13658277Y-15912269D02*
X13677325Y-15921793D01*
X13677325Y-15921793D02*
X13715420Y-15921793D01*
X13715420Y-15921793D02*
X13734468Y-15912269D01*
X13734468Y-15912269D02*
X13743991Y-15902746D01*
X13743991Y-15902746D02*
X13753515Y-15883698D01*
X13867801Y-15883698D02*
X13848753Y-15874174D01*
X13848753Y-15874174D02*
X13839229Y-15864650D01*
X13839229Y-15864650D02*
X13829706Y-15845603D01*
X13829706Y-15845603D02*
X13829706Y-15836079D01*
X13829706Y-15836079D02*
X13839229Y-15817031D01*
X13839229Y-15817031D02*
X13848753Y-15807508D01*
X13848753Y-15807508D02*
X13867801Y-15797984D01*
X13867801Y-15797984D02*
X13905896Y-15797984D01*
X13905896Y-15797984D02*
X13924944Y-15807508D01*
X13924944Y-15807508D02*
X13934468Y-15817031D01*
X13934468Y-15817031D02*
X13943991Y-15836079D01*
X13943991Y-15836079D02*
X13943991Y-15845603D01*
X13943991Y-15845603D02*
X13934468Y-15864650D01*
X13934468Y-15864650D02*
X13924944Y-15874174D01*
X13924944Y-15874174D02*
X13905896Y-15883698D01*
X13905896Y-15883698D02*
X13867801Y-15883698D01*
X13867801Y-15883698D02*
X13848753Y-15893222D01*
X13848753Y-15893222D02*
X13839229Y-15902746D01*
X13839229Y-15902746D02*
X13829706Y-15921793D01*
X13829706Y-15921793D02*
X13829706Y-15959888D01*
X13829706Y-15959888D02*
X13839229Y-15978936D01*
X13839229Y-15978936D02*
X13848753Y-15988460D01*
X13848753Y-15988460D02*
X13867801Y-15997984D01*
X13867801Y-15997984D02*
X13905896Y-15997984D01*
X13905896Y-15997984D02*
X13924944Y-15988460D01*
X13924944Y-15988460D02*
X13934468Y-15978936D01*
X13934468Y-15978936D02*
X13943991Y-15959888D01*
X13943991Y-15959888D02*
X13943991Y-15921793D01*
X13943991Y-15921793D02*
X13934468Y-15902746D01*
X13934468Y-15902746D02*
X13924944Y-15893222D01*
X13924944Y-15893222D02*
X13905896Y-15883698D01*
X14182087Y-15997984D02*
X14182087Y-15797984D01*
X14267801Y-15997984D02*
X14267801Y-15893222D01*
X14267801Y-15893222D02*
X14258277Y-15874174D01*
X14258277Y-15874174D02*
X14239230Y-15864650D01*
X14239230Y-15864650D02*
X14210658Y-15864650D01*
X14210658Y-15864650D02*
X14191610Y-15874174D01*
X14191610Y-15874174D02*
X14182087Y-15883698D01*
X14391610Y-15997984D02*
X14372563Y-15988460D01*
X14372563Y-15988460D02*
X14363039Y-15978936D01*
X14363039Y-15978936D02*
X14353515Y-15959888D01*
X14353515Y-15959888D02*
X14353515Y-15902746D01*
X14353515Y-15902746D02*
X14363039Y-15883698D01*
X14363039Y-15883698D02*
X14372563Y-15874174D01*
X14372563Y-15874174D02*
X14391610Y-15864650D01*
X14391610Y-15864650D02*
X14420182Y-15864650D01*
X14420182Y-15864650D02*
X14439230Y-15874174D01*
X14439230Y-15874174D02*
X14448753Y-15883698D01*
X14448753Y-15883698D02*
X14458277Y-15902746D01*
X14458277Y-15902746D02*
X14458277Y-15959888D01*
X14458277Y-15959888D02*
X14448753Y-15978936D01*
X14448753Y-15978936D02*
X14439230Y-15988460D01*
X14439230Y-15988460D02*
X14420182Y-15997984D01*
X14420182Y-15997984D02*
X14391610Y-15997984D01*
X14572563Y-15997984D02*
X14553515Y-15988460D01*
X14553515Y-15988460D02*
X14543991Y-15969412D01*
X14543991Y-15969412D02*
X14543991Y-15797984D01*
X14724944Y-15988460D02*
X14705896Y-15997984D01*
X14705896Y-15997984D02*
X14667801Y-15997984D01*
X14667801Y-15997984D02*
X14648753Y-15988460D01*
X14648753Y-15988460D02*
X14639230Y-15969412D01*
X14639230Y-15969412D02*
X14639230Y-15893222D01*
X14639230Y-15893222D02*
X14648753Y-15874174D01*
X14648753Y-15874174D02*
X14667801Y-15864650D01*
X14667801Y-15864650D02*
X14705896Y-15864650D01*
X14705896Y-15864650D02*
X14724944Y-15874174D01*
X14724944Y-15874174D02*
X14734468Y-15893222D01*
X14734468Y-15893222D02*
X14734468Y-15912269D01*
X14734468Y-15912269D02*
X14639230Y-15931317D01*
X14810658Y-15988460D02*
X14829706Y-15997984D01*
X14829706Y-15997984D02*
X14867801Y-15997984D01*
X14867801Y-15997984D02*
X14886849Y-15988460D01*
X14886849Y-15988460D02*
X14896372Y-15969412D01*
X14896372Y-15969412D02*
X14896372Y-15959888D01*
X14896372Y-15959888D02*
X14886849Y-15940841D01*
X14886849Y-15940841D02*
X14867801Y-15931317D01*
X14867801Y-15931317D02*
X14839230Y-15931317D01*
X14839230Y-15931317D02*
X14820182Y-15921793D01*
X14820182Y-15921793D02*
X14810658Y-15902746D01*
X14810658Y-15902746D02*
X14810658Y-15893222D01*
X14810658Y-15893222D02*
X14820182Y-15874174D01*
X14820182Y-15874174D02*
X14839230Y-15864650D01*
X14839230Y-15864650D02*
X14867801Y-15864650D01*
X14867801Y-15864650D02*
X14886849Y-15874174D01*
X14963039Y-16074174D02*
X14972563Y-16064650D01*
X14972563Y-16064650D02*
X14991611Y-16036079D01*
X14991611Y-16036079D02*
X15001134Y-16017031D01*
X15001134Y-16017031D02*
X15010658Y-15988460D01*
X15010658Y-15988460D02*
X15020182Y-15940841D01*
X15020182Y-15940841D02*
X15020182Y-15902746D01*
X15020182Y-15902746D02*
X15010658Y-15855127D01*
X15010658Y-15855127D02*
X15001134Y-15826555D01*
X15001134Y-15826555D02*
X14991611Y-15807508D01*
X14991611Y-15807508D02*
X14972563Y-15778936D01*
X14972563Y-15778936D02*
X14963039Y-15769412D01*
D12*
X9947500Y-16120500D02*
X9947500Y-16220500D01*
X9897500Y-16170500D02*
X9997500Y-16170500D01*
D11*
X10363039Y-16261984D02*
X10248753Y-16261984D01*
X10305896Y-16261984D02*
X10305896Y-16061984D01*
X10305896Y-16061984D02*
X10286848Y-16090555D01*
X10286848Y-16090555D02*
X10267801Y-16109603D01*
X10267801Y-16109603D02*
X10248753Y-16119127D01*
X10448753Y-16242936D02*
X10458277Y-16252460D01*
X10458277Y-16252460D02*
X10448753Y-16261984D01*
X10448753Y-16261984D02*
X10439229Y-16252460D01*
X10439229Y-16252460D02*
X10448753Y-16242936D01*
X10448753Y-16242936D02*
X10448753Y-16261984D01*
X10582086Y-16061984D02*
X10601134Y-16061984D01*
X10601134Y-16061984D02*
X10620182Y-16071508D01*
X10620182Y-16071508D02*
X10629705Y-16081031D01*
X10629705Y-16081031D02*
X10639229Y-16100079D01*
X10639229Y-16100079D02*
X10648753Y-16138174D01*
X10648753Y-16138174D02*
X10648753Y-16185793D01*
X10648753Y-16185793D02*
X10639229Y-16223888D01*
X10639229Y-16223888D02*
X10629705Y-16242936D01*
X10629705Y-16242936D02*
X10620182Y-16252460D01*
X10620182Y-16252460D02*
X10601134Y-16261984D01*
X10601134Y-16261984D02*
X10582086Y-16261984D01*
X10582086Y-16261984D02*
X10563039Y-16252460D01*
X10563039Y-16252460D02*
X10553515Y-16242936D01*
X10553515Y-16242936D02*
X10543991Y-16223888D01*
X10543991Y-16223888D02*
X10534467Y-16185793D01*
X10534467Y-16185793D02*
X10534467Y-16138174D01*
X10534467Y-16138174D02*
X10543991Y-16100079D01*
X10543991Y-16100079D02*
X10553515Y-16081031D01*
X10553515Y-16081031D02*
X10563039Y-16071508D01*
X10563039Y-16071508D02*
X10582086Y-16061984D01*
X10772563Y-16061984D02*
X10791610Y-16061984D01*
X10791610Y-16061984D02*
X10810658Y-16071508D01*
X10810658Y-16071508D02*
X10820182Y-16081031D01*
X10820182Y-16081031D02*
X10829705Y-16100079D01*
X10829705Y-16100079D02*
X10839229Y-16138174D01*
X10839229Y-16138174D02*
X10839229Y-16185793D01*
X10839229Y-16185793D02*
X10829705Y-16223888D01*
X10829705Y-16223888D02*
X10820182Y-16242936D01*
X10820182Y-16242936D02*
X10810658Y-16252460D01*
X10810658Y-16252460D02*
X10791610Y-16261984D01*
X10791610Y-16261984D02*
X10772563Y-16261984D01*
X10772563Y-16261984D02*
X10753515Y-16252460D01*
X10753515Y-16252460D02*
X10743991Y-16242936D01*
X10743991Y-16242936D02*
X10734467Y-16223888D01*
X10734467Y-16223888D02*
X10724944Y-16185793D01*
X10724944Y-16185793D02*
X10724944Y-16138174D01*
X10724944Y-16138174D02*
X10734467Y-16100079D01*
X10734467Y-16100079D02*
X10743991Y-16081031D01*
X10743991Y-16081031D02*
X10753515Y-16071508D01*
X10753515Y-16071508D02*
X10772563Y-16061984D01*
X10963039Y-16061984D02*
X10982086Y-16061984D01*
X10982086Y-16061984D02*
X11001134Y-16071508D01*
X11001134Y-16071508D02*
X11010658Y-16081031D01*
X11010658Y-16081031D02*
X11020182Y-16100079D01*
X11020182Y-16100079D02*
X11029705Y-16138174D01*
X11029705Y-16138174D02*
X11029705Y-16185793D01*
X11029705Y-16185793D02*
X11020182Y-16223888D01*
X11020182Y-16223888D02*
X11010658Y-16242936D01*
X11010658Y-16242936D02*
X11001134Y-16252460D01*
X11001134Y-16252460D02*
X10982086Y-16261984D01*
X10982086Y-16261984D02*
X10963039Y-16261984D01*
X10963039Y-16261984D02*
X10943991Y-16252460D01*
X10943991Y-16252460D02*
X10934467Y-16242936D01*
X10934467Y-16242936D02*
X10924944Y-16223888D01*
X10924944Y-16223888D02*
X10915420Y-16185793D01*
X10915420Y-16185793D02*
X10915420Y-16138174D01*
X10915420Y-16138174D02*
X10924944Y-16100079D01*
X10924944Y-16100079D02*
X10934467Y-16081031D01*
X10934467Y-16081031D02*
X10943991Y-16071508D01*
X10943991Y-16071508D02*
X10963039Y-16061984D01*
X11115420Y-16261984D02*
X11115420Y-16128650D01*
X11115420Y-16147698D02*
X11124944Y-16138174D01*
X11124944Y-16138174D02*
X11143991Y-16128650D01*
X11143991Y-16128650D02*
X11172563Y-16128650D01*
X11172563Y-16128650D02*
X11191610Y-16138174D01*
X11191610Y-16138174D02*
X11201134Y-16157222D01*
X11201134Y-16157222D02*
X11201134Y-16261984D01*
X11201134Y-16157222D02*
X11210658Y-16138174D01*
X11210658Y-16138174D02*
X11229705Y-16128650D01*
X11229705Y-16128650D02*
X11258277Y-16128650D01*
X11258277Y-16128650D02*
X11277324Y-16138174D01*
X11277324Y-16138174D02*
X11286848Y-16157222D01*
X11286848Y-16157222D02*
X11286848Y-16261984D01*
X11382086Y-16261984D02*
X11382086Y-16128650D01*
X11382086Y-16147698D02*
X11391610Y-16138174D01*
X11391610Y-16138174D02*
X11410658Y-16128650D01*
X11410658Y-16128650D02*
X11439229Y-16128650D01*
X11439229Y-16128650D02*
X11458277Y-16138174D01*
X11458277Y-16138174D02*
X11467801Y-16157222D01*
X11467801Y-16157222D02*
X11467801Y-16261984D01*
X11467801Y-16157222D02*
X11477324Y-16138174D01*
X11477324Y-16138174D02*
X11496372Y-16128650D01*
X11496372Y-16128650D02*
X11524943Y-16128650D01*
X11524943Y-16128650D02*
X11543991Y-16138174D01*
X11543991Y-16138174D02*
X11553515Y-16157222D01*
X11553515Y-16157222D02*
X11553515Y-16261984D01*
X11943991Y-16052460D02*
X11772563Y-16309603D01*
X12201134Y-16061984D02*
X12220182Y-16061984D01*
X12220182Y-16061984D02*
X12239229Y-16071508D01*
X12239229Y-16071508D02*
X12248753Y-16081031D01*
X12248753Y-16081031D02*
X12258277Y-16100079D01*
X12258277Y-16100079D02*
X12267801Y-16138174D01*
X12267801Y-16138174D02*
X12267801Y-16185793D01*
X12267801Y-16185793D02*
X12258277Y-16223888D01*
X12258277Y-16223888D02*
X12248753Y-16242936D01*
X12248753Y-16242936D02*
X12239229Y-16252460D01*
X12239229Y-16252460D02*
X12220182Y-16261984D01*
X12220182Y-16261984D02*
X12201134Y-16261984D01*
X12201134Y-16261984D02*
X12182086Y-16252460D01*
X12182086Y-16252460D02*
X12172563Y-16242936D01*
X12172563Y-16242936D02*
X12163039Y-16223888D01*
X12163039Y-16223888D02*
X12153515Y-16185793D01*
X12153515Y-16185793D02*
X12153515Y-16138174D01*
X12153515Y-16138174D02*
X12163039Y-16100079D01*
X12163039Y-16100079D02*
X12172563Y-16081031D01*
X12172563Y-16081031D02*
X12182086Y-16071508D01*
X12182086Y-16071508D02*
X12201134Y-16061984D01*
X12353515Y-16242936D02*
X12363039Y-16252460D01*
X12363039Y-16252460D02*
X12353515Y-16261984D01*
X12353515Y-16261984D02*
X12343991Y-16252460D01*
X12343991Y-16252460D02*
X12353515Y-16242936D01*
X12353515Y-16242936D02*
X12353515Y-16261984D01*
X12486848Y-16061984D02*
X12505896Y-16061984D01*
X12505896Y-16061984D02*
X12524944Y-16071508D01*
X12524944Y-16071508D02*
X12534467Y-16081031D01*
X12534467Y-16081031D02*
X12543991Y-16100079D01*
X12543991Y-16100079D02*
X12553515Y-16138174D01*
X12553515Y-16138174D02*
X12553515Y-16185793D01*
X12553515Y-16185793D02*
X12543991Y-16223888D01*
X12543991Y-16223888D02*
X12534467Y-16242936D01*
X12534467Y-16242936D02*
X12524944Y-16252460D01*
X12524944Y-16252460D02*
X12505896Y-16261984D01*
X12505896Y-16261984D02*
X12486848Y-16261984D01*
X12486848Y-16261984D02*
X12467801Y-16252460D01*
X12467801Y-16252460D02*
X12458277Y-16242936D01*
X12458277Y-16242936D02*
X12448753Y-16223888D01*
X12448753Y-16223888D02*
X12439229Y-16185793D01*
X12439229Y-16185793D02*
X12439229Y-16138174D01*
X12439229Y-16138174D02*
X12448753Y-16100079D01*
X12448753Y-16100079D02*
X12458277Y-16081031D01*
X12458277Y-16081031D02*
X12467801Y-16071508D01*
X12467801Y-16071508D02*
X12486848Y-16061984D01*
X12620182Y-16061984D02*
X12743991Y-16061984D01*
X12743991Y-16061984D02*
X12677325Y-16138174D01*
X12677325Y-16138174D02*
X12705896Y-16138174D01*
X12705896Y-16138174D02*
X12724944Y-16147698D01*
X12724944Y-16147698D02*
X12734467Y-16157222D01*
X12734467Y-16157222D02*
X12743991Y-16176269D01*
X12743991Y-16176269D02*
X12743991Y-16223888D01*
X12743991Y-16223888D02*
X12734467Y-16242936D01*
X12734467Y-16242936D02*
X12724944Y-16252460D01*
X12724944Y-16252460D02*
X12705896Y-16261984D01*
X12705896Y-16261984D02*
X12648753Y-16261984D01*
X12648753Y-16261984D02*
X12629706Y-16252460D01*
X12629706Y-16252460D02*
X12620182Y-16242936D01*
X12839229Y-16261984D02*
X12877325Y-16261984D01*
X12877325Y-16261984D02*
X12896372Y-16252460D01*
X12896372Y-16252460D02*
X12905896Y-16242936D01*
X12905896Y-16242936D02*
X12924944Y-16214365D01*
X12924944Y-16214365D02*
X12934467Y-16176269D01*
X12934467Y-16176269D02*
X12934467Y-16100079D01*
X12934467Y-16100079D02*
X12924944Y-16081031D01*
X12924944Y-16081031D02*
X12915420Y-16071508D01*
X12915420Y-16071508D02*
X12896372Y-16061984D01*
X12896372Y-16061984D02*
X12858277Y-16061984D01*
X12858277Y-16061984D02*
X12839229Y-16071508D01*
X12839229Y-16071508D02*
X12829706Y-16081031D01*
X12829706Y-16081031D02*
X12820182Y-16100079D01*
X12820182Y-16100079D02*
X12820182Y-16147698D01*
X12820182Y-16147698D02*
X12829706Y-16166746D01*
X12829706Y-16166746D02*
X12839229Y-16176269D01*
X12839229Y-16176269D02*
X12858277Y-16185793D01*
X12858277Y-16185793D02*
X12896372Y-16185793D01*
X12896372Y-16185793D02*
X12915420Y-16176269D01*
X12915420Y-16176269D02*
X12924944Y-16166746D01*
X12924944Y-16166746D02*
X12934467Y-16147698D01*
X13105896Y-16128650D02*
X13105896Y-16261984D01*
X13058277Y-16052460D02*
X13010658Y-16195317D01*
X13010658Y-16195317D02*
X13134467Y-16195317D01*
X13201134Y-16061984D02*
X13201134Y-16100079D01*
X13277325Y-16061984D02*
X13277325Y-16100079D01*
X13572563Y-16338174D02*
X13563039Y-16328650D01*
X13563039Y-16328650D02*
X13543991Y-16300079D01*
X13543991Y-16300079D02*
X13534468Y-16281031D01*
X13534468Y-16281031D02*
X13524944Y-16252460D01*
X13524944Y-16252460D02*
X13515420Y-16204841D01*
X13515420Y-16204841D02*
X13515420Y-16166746D01*
X13515420Y-16166746D02*
X13524944Y-16119127D01*
X13524944Y-16119127D02*
X13534468Y-16090555D01*
X13534468Y-16090555D02*
X13543991Y-16071508D01*
X13543991Y-16071508D02*
X13563039Y-16042936D01*
X13563039Y-16042936D02*
X13572563Y-16033412D01*
X13677325Y-16147698D02*
X13658277Y-16138174D01*
X13658277Y-16138174D02*
X13648753Y-16128650D01*
X13648753Y-16128650D02*
X13639229Y-16109603D01*
X13639229Y-16109603D02*
X13639229Y-16100079D01*
X13639229Y-16100079D02*
X13648753Y-16081031D01*
X13648753Y-16081031D02*
X13658277Y-16071508D01*
X13658277Y-16071508D02*
X13677325Y-16061984D01*
X13677325Y-16061984D02*
X13715420Y-16061984D01*
X13715420Y-16061984D02*
X13734468Y-16071508D01*
X13734468Y-16071508D02*
X13743991Y-16081031D01*
X13743991Y-16081031D02*
X13753515Y-16100079D01*
X13753515Y-16100079D02*
X13753515Y-16109603D01*
X13753515Y-16109603D02*
X13743991Y-16128650D01*
X13743991Y-16128650D02*
X13734468Y-16138174D01*
X13734468Y-16138174D02*
X13715420Y-16147698D01*
X13715420Y-16147698D02*
X13677325Y-16147698D01*
X13677325Y-16147698D02*
X13658277Y-16157222D01*
X13658277Y-16157222D02*
X13648753Y-16166746D01*
X13648753Y-16166746D02*
X13639229Y-16185793D01*
X13639229Y-16185793D02*
X13639229Y-16223888D01*
X13639229Y-16223888D02*
X13648753Y-16242936D01*
X13648753Y-16242936D02*
X13658277Y-16252460D01*
X13658277Y-16252460D02*
X13677325Y-16261984D01*
X13677325Y-16261984D02*
X13715420Y-16261984D01*
X13715420Y-16261984D02*
X13734468Y-16252460D01*
X13734468Y-16252460D02*
X13743991Y-16242936D01*
X13743991Y-16242936D02*
X13753515Y-16223888D01*
X13753515Y-16223888D02*
X13753515Y-16185793D01*
X13753515Y-16185793D02*
X13743991Y-16166746D01*
X13743991Y-16166746D02*
X13734468Y-16157222D01*
X13734468Y-16157222D02*
X13715420Y-16147698D01*
X13934468Y-16061984D02*
X13839229Y-16061984D01*
X13839229Y-16061984D02*
X13829706Y-16157222D01*
X13829706Y-16157222D02*
X13839229Y-16147698D01*
X13839229Y-16147698D02*
X13858277Y-16138174D01*
X13858277Y-16138174D02*
X13905896Y-16138174D01*
X13905896Y-16138174D02*
X13924944Y-16147698D01*
X13924944Y-16147698D02*
X13934468Y-16157222D01*
X13934468Y-16157222D02*
X13943991Y-16176269D01*
X13943991Y-16176269D02*
X13943991Y-16223888D01*
X13943991Y-16223888D02*
X13934468Y-16242936D01*
X13934468Y-16242936D02*
X13924944Y-16252460D01*
X13924944Y-16252460D02*
X13905896Y-16261984D01*
X13905896Y-16261984D02*
X13858277Y-16261984D01*
X13858277Y-16261984D02*
X13839229Y-16252460D01*
X13839229Y-16252460D02*
X13829706Y-16242936D01*
X14182087Y-16261984D02*
X14182087Y-16061984D01*
X14267801Y-16261984D02*
X14267801Y-16157222D01*
X14267801Y-16157222D02*
X14258277Y-16138174D01*
X14258277Y-16138174D02*
X14239230Y-16128650D01*
X14239230Y-16128650D02*
X14210658Y-16128650D01*
X14210658Y-16128650D02*
X14191610Y-16138174D01*
X14191610Y-16138174D02*
X14182087Y-16147698D01*
X14391610Y-16261984D02*
X14372563Y-16252460D01*
X14372563Y-16252460D02*
X14363039Y-16242936D01*
X14363039Y-16242936D02*
X14353515Y-16223888D01*
X14353515Y-16223888D02*
X14353515Y-16166746D01*
X14353515Y-16166746D02*
X14363039Y-16147698D01*
X14363039Y-16147698D02*
X14372563Y-16138174D01*
X14372563Y-16138174D02*
X14391610Y-16128650D01*
X14391610Y-16128650D02*
X14420182Y-16128650D01*
X14420182Y-16128650D02*
X14439230Y-16138174D01*
X14439230Y-16138174D02*
X14448753Y-16147698D01*
X14448753Y-16147698D02*
X14458277Y-16166746D01*
X14458277Y-16166746D02*
X14458277Y-16223888D01*
X14458277Y-16223888D02*
X14448753Y-16242936D01*
X14448753Y-16242936D02*
X14439230Y-16252460D01*
X14439230Y-16252460D02*
X14420182Y-16261984D01*
X14420182Y-16261984D02*
X14391610Y-16261984D01*
X14572563Y-16261984D02*
X14553515Y-16252460D01*
X14553515Y-16252460D02*
X14543991Y-16233412D01*
X14543991Y-16233412D02*
X14543991Y-16061984D01*
X14724944Y-16252460D02*
X14705896Y-16261984D01*
X14705896Y-16261984D02*
X14667801Y-16261984D01*
X14667801Y-16261984D02*
X14648753Y-16252460D01*
X14648753Y-16252460D02*
X14639230Y-16233412D01*
X14639230Y-16233412D02*
X14639230Y-16157222D01*
X14639230Y-16157222D02*
X14648753Y-16138174D01*
X14648753Y-16138174D02*
X14667801Y-16128650D01*
X14667801Y-16128650D02*
X14705896Y-16128650D01*
X14705896Y-16128650D02*
X14724944Y-16138174D01*
X14724944Y-16138174D02*
X14734468Y-16157222D01*
X14734468Y-16157222D02*
X14734468Y-16176269D01*
X14734468Y-16176269D02*
X14639230Y-16195317D01*
X14810658Y-16252460D02*
X14829706Y-16261984D01*
X14829706Y-16261984D02*
X14867801Y-16261984D01*
X14867801Y-16261984D02*
X14886849Y-16252460D01*
X14886849Y-16252460D02*
X14896372Y-16233412D01*
X14896372Y-16233412D02*
X14896372Y-16223888D01*
X14896372Y-16223888D02*
X14886849Y-16204841D01*
X14886849Y-16204841D02*
X14867801Y-16195317D01*
X14867801Y-16195317D02*
X14839230Y-16195317D01*
X14839230Y-16195317D02*
X14820182Y-16185793D01*
X14820182Y-16185793D02*
X14810658Y-16166746D01*
X14810658Y-16166746D02*
X14810658Y-16157222D01*
X14810658Y-16157222D02*
X14820182Y-16138174D01*
X14820182Y-16138174D02*
X14839230Y-16128650D01*
X14839230Y-16128650D02*
X14867801Y-16128650D01*
X14867801Y-16128650D02*
X14886849Y-16138174D01*
X14963039Y-16338174D02*
X14972563Y-16328650D01*
X14972563Y-16328650D02*
X14991611Y-16300079D01*
X14991611Y-16300079D02*
X15001134Y-16281031D01*
X15001134Y-16281031D02*
X15010658Y-16252460D01*
X15010658Y-16252460D02*
X15020182Y-16204841D01*
X15020182Y-16204841D02*
X15020182Y-16166746D01*
X15020182Y-16166746D02*
X15010658Y-16119127D01*
X15010658Y-16119127D02*
X15001134Y-16090555D01*
X15001134Y-16090555D02*
X14991611Y-16071508D01*
X14991611Y-16071508D02*
X14972563Y-16042936D01*
X14972563Y-16042936D02*
X14963039Y-16033412D01*
X9968211Y-16505211D02*
X9968211Y-16363789D01*
X9826789Y-16363789D01*
X9826789Y-16505211D01*
X9968211Y-16505211D01*
X10239229Y-16325984D02*
X10363039Y-16325984D01*
X10363039Y-16325984D02*
X10296372Y-16402174D01*
X10296372Y-16402174D02*
X10324944Y-16402174D01*
X10324944Y-16402174D02*
X10343991Y-16411698D01*
X10343991Y-16411698D02*
X10353515Y-16421222D01*
X10353515Y-16421222D02*
X10363039Y-16440269D01*
X10363039Y-16440269D02*
X10363039Y-16487888D01*
X10363039Y-16487888D02*
X10353515Y-16506936D01*
X10353515Y-16506936D02*
X10343991Y-16516460D01*
X10343991Y-16516460D02*
X10324944Y-16525984D01*
X10324944Y-16525984D02*
X10267801Y-16525984D01*
X10267801Y-16525984D02*
X10248753Y-16516460D01*
X10248753Y-16516460D02*
X10239229Y-16506936D01*
X10448753Y-16506936D02*
X10458277Y-16516460D01*
X10458277Y-16516460D02*
X10448753Y-16525984D01*
X10448753Y-16525984D02*
X10439229Y-16516460D01*
X10439229Y-16516460D02*
X10448753Y-16506936D01*
X10448753Y-16506936D02*
X10448753Y-16525984D01*
X10534467Y-16345031D02*
X10543991Y-16335508D01*
X10543991Y-16335508D02*
X10563039Y-16325984D01*
X10563039Y-16325984D02*
X10610658Y-16325984D01*
X10610658Y-16325984D02*
X10629705Y-16335508D01*
X10629705Y-16335508D02*
X10639229Y-16345031D01*
X10639229Y-16345031D02*
X10648753Y-16364079D01*
X10648753Y-16364079D02*
X10648753Y-16383127D01*
X10648753Y-16383127D02*
X10639229Y-16411698D01*
X10639229Y-16411698D02*
X10524944Y-16525984D01*
X10524944Y-16525984D02*
X10648753Y-16525984D01*
X10772563Y-16325984D02*
X10791610Y-16325984D01*
X10791610Y-16325984D02*
X10810658Y-16335508D01*
X10810658Y-16335508D02*
X10820182Y-16345031D01*
X10820182Y-16345031D02*
X10829705Y-16364079D01*
X10829705Y-16364079D02*
X10839229Y-16402174D01*
X10839229Y-16402174D02*
X10839229Y-16449793D01*
X10839229Y-16449793D02*
X10829705Y-16487888D01*
X10829705Y-16487888D02*
X10820182Y-16506936D01*
X10820182Y-16506936D02*
X10810658Y-16516460D01*
X10810658Y-16516460D02*
X10791610Y-16525984D01*
X10791610Y-16525984D02*
X10772563Y-16525984D01*
X10772563Y-16525984D02*
X10753515Y-16516460D01*
X10753515Y-16516460D02*
X10743991Y-16506936D01*
X10743991Y-16506936D02*
X10734467Y-16487888D01*
X10734467Y-16487888D02*
X10724944Y-16449793D01*
X10724944Y-16449793D02*
X10724944Y-16402174D01*
X10724944Y-16402174D02*
X10734467Y-16364079D01*
X10734467Y-16364079D02*
X10743991Y-16345031D01*
X10743991Y-16345031D02*
X10753515Y-16335508D01*
X10753515Y-16335508D02*
X10772563Y-16325984D01*
X10963039Y-16325984D02*
X10982086Y-16325984D01*
X10982086Y-16325984D02*
X11001134Y-16335508D01*
X11001134Y-16335508D02*
X11010658Y-16345031D01*
X11010658Y-16345031D02*
X11020182Y-16364079D01*
X11020182Y-16364079D02*
X11029705Y-16402174D01*
X11029705Y-16402174D02*
X11029705Y-16449793D01*
X11029705Y-16449793D02*
X11020182Y-16487888D01*
X11020182Y-16487888D02*
X11010658Y-16506936D01*
X11010658Y-16506936D02*
X11001134Y-16516460D01*
X11001134Y-16516460D02*
X10982086Y-16525984D01*
X10982086Y-16525984D02*
X10963039Y-16525984D01*
X10963039Y-16525984D02*
X10943991Y-16516460D01*
X10943991Y-16516460D02*
X10934467Y-16506936D01*
X10934467Y-16506936D02*
X10924944Y-16487888D01*
X10924944Y-16487888D02*
X10915420Y-16449793D01*
X10915420Y-16449793D02*
X10915420Y-16402174D01*
X10915420Y-16402174D02*
X10924944Y-16364079D01*
X10924944Y-16364079D02*
X10934467Y-16345031D01*
X10934467Y-16345031D02*
X10943991Y-16335508D01*
X10943991Y-16335508D02*
X10963039Y-16325984D01*
X11115420Y-16525984D02*
X11115420Y-16392650D01*
X11115420Y-16411698D02*
X11124944Y-16402174D01*
X11124944Y-16402174D02*
X11143991Y-16392650D01*
X11143991Y-16392650D02*
X11172563Y-16392650D01*
X11172563Y-16392650D02*
X11191610Y-16402174D01*
X11191610Y-16402174D02*
X11201134Y-16421222D01*
X11201134Y-16421222D02*
X11201134Y-16525984D01*
X11201134Y-16421222D02*
X11210658Y-16402174D01*
X11210658Y-16402174D02*
X11229705Y-16392650D01*
X11229705Y-16392650D02*
X11258277Y-16392650D01*
X11258277Y-16392650D02*
X11277324Y-16402174D01*
X11277324Y-16402174D02*
X11286848Y-16421222D01*
X11286848Y-16421222D02*
X11286848Y-16525984D01*
X11382086Y-16525984D02*
X11382086Y-16392650D01*
X11382086Y-16411698D02*
X11391610Y-16402174D01*
X11391610Y-16402174D02*
X11410658Y-16392650D01*
X11410658Y-16392650D02*
X11439229Y-16392650D01*
X11439229Y-16392650D02*
X11458277Y-16402174D01*
X11458277Y-16402174D02*
X11467801Y-16421222D01*
X11467801Y-16421222D02*
X11467801Y-16525984D01*
X11467801Y-16421222D02*
X11477324Y-16402174D01*
X11477324Y-16402174D02*
X11496372Y-16392650D01*
X11496372Y-16392650D02*
X11524943Y-16392650D01*
X11524943Y-16392650D02*
X11543991Y-16402174D01*
X11543991Y-16402174D02*
X11553515Y-16421222D01*
X11553515Y-16421222D02*
X11553515Y-16525984D01*
X11943991Y-16316460D02*
X11772563Y-16573603D01*
X12201134Y-16325984D02*
X12220182Y-16325984D01*
X12220182Y-16325984D02*
X12239229Y-16335508D01*
X12239229Y-16335508D02*
X12248753Y-16345031D01*
X12248753Y-16345031D02*
X12258277Y-16364079D01*
X12258277Y-16364079D02*
X12267801Y-16402174D01*
X12267801Y-16402174D02*
X12267801Y-16449793D01*
X12267801Y-16449793D02*
X12258277Y-16487888D01*
X12258277Y-16487888D02*
X12248753Y-16506936D01*
X12248753Y-16506936D02*
X12239229Y-16516460D01*
X12239229Y-16516460D02*
X12220182Y-16525984D01*
X12220182Y-16525984D02*
X12201134Y-16525984D01*
X12201134Y-16525984D02*
X12182086Y-16516460D01*
X12182086Y-16516460D02*
X12172563Y-16506936D01*
X12172563Y-16506936D02*
X12163039Y-16487888D01*
X12163039Y-16487888D02*
X12153515Y-16449793D01*
X12153515Y-16449793D02*
X12153515Y-16402174D01*
X12153515Y-16402174D02*
X12163039Y-16364079D01*
X12163039Y-16364079D02*
X12172563Y-16345031D01*
X12172563Y-16345031D02*
X12182086Y-16335508D01*
X12182086Y-16335508D02*
X12201134Y-16325984D01*
X12353515Y-16506936D02*
X12363039Y-16516460D01*
X12363039Y-16516460D02*
X12353515Y-16525984D01*
X12353515Y-16525984D02*
X12343991Y-16516460D01*
X12343991Y-16516460D02*
X12353515Y-16506936D01*
X12353515Y-16506936D02*
X12353515Y-16525984D01*
X12553515Y-16525984D02*
X12439229Y-16525984D01*
X12496372Y-16525984D02*
X12496372Y-16325984D01*
X12496372Y-16325984D02*
X12477325Y-16354555D01*
X12477325Y-16354555D02*
X12458277Y-16373603D01*
X12458277Y-16373603D02*
X12439229Y-16383127D01*
X12629706Y-16345031D02*
X12639229Y-16335508D01*
X12639229Y-16335508D02*
X12658277Y-16325984D01*
X12658277Y-16325984D02*
X12705896Y-16325984D01*
X12705896Y-16325984D02*
X12724944Y-16335508D01*
X12724944Y-16335508D02*
X12734467Y-16345031D01*
X12734467Y-16345031D02*
X12743991Y-16364079D01*
X12743991Y-16364079D02*
X12743991Y-16383127D01*
X12743991Y-16383127D02*
X12734467Y-16411698D01*
X12734467Y-16411698D02*
X12620182Y-16525984D01*
X12620182Y-16525984D02*
X12743991Y-16525984D01*
X12915420Y-16325984D02*
X12877325Y-16325984D01*
X12877325Y-16325984D02*
X12858277Y-16335508D01*
X12858277Y-16335508D02*
X12848753Y-16345031D01*
X12848753Y-16345031D02*
X12829706Y-16373603D01*
X12829706Y-16373603D02*
X12820182Y-16411698D01*
X12820182Y-16411698D02*
X12820182Y-16487888D01*
X12820182Y-16487888D02*
X12829706Y-16506936D01*
X12829706Y-16506936D02*
X12839229Y-16516460D01*
X12839229Y-16516460D02*
X12858277Y-16525984D01*
X12858277Y-16525984D02*
X12896372Y-16525984D01*
X12896372Y-16525984D02*
X12915420Y-16516460D01*
X12915420Y-16516460D02*
X12924944Y-16506936D01*
X12924944Y-16506936D02*
X12934467Y-16487888D01*
X12934467Y-16487888D02*
X12934467Y-16440269D01*
X12934467Y-16440269D02*
X12924944Y-16421222D01*
X12924944Y-16421222D02*
X12915420Y-16411698D01*
X12915420Y-16411698D02*
X12896372Y-16402174D01*
X12896372Y-16402174D02*
X12858277Y-16402174D01*
X12858277Y-16402174D02*
X12839229Y-16411698D01*
X12839229Y-16411698D02*
X12829706Y-16421222D01*
X12829706Y-16421222D02*
X12820182Y-16440269D01*
X13058277Y-16325984D02*
X13077325Y-16325984D01*
X13077325Y-16325984D02*
X13096372Y-16335508D01*
X13096372Y-16335508D02*
X13105896Y-16345031D01*
X13105896Y-16345031D02*
X13115420Y-16364079D01*
X13115420Y-16364079D02*
X13124944Y-16402174D01*
X13124944Y-16402174D02*
X13124944Y-16449793D01*
X13124944Y-16449793D02*
X13115420Y-16487888D01*
X13115420Y-16487888D02*
X13105896Y-16506936D01*
X13105896Y-16506936D02*
X13096372Y-16516460D01*
X13096372Y-16516460D02*
X13077325Y-16525984D01*
X13077325Y-16525984D02*
X13058277Y-16525984D01*
X13058277Y-16525984D02*
X13039229Y-16516460D01*
X13039229Y-16516460D02*
X13029706Y-16506936D01*
X13029706Y-16506936D02*
X13020182Y-16487888D01*
X13020182Y-16487888D02*
X13010658Y-16449793D01*
X13010658Y-16449793D02*
X13010658Y-16402174D01*
X13010658Y-16402174D02*
X13020182Y-16364079D01*
X13020182Y-16364079D02*
X13029706Y-16345031D01*
X13029706Y-16345031D02*
X13039229Y-16335508D01*
X13039229Y-16335508D02*
X13058277Y-16325984D01*
X13201134Y-16325984D02*
X13201134Y-16364079D01*
X13277325Y-16325984D02*
X13277325Y-16364079D01*
X13572563Y-16602174D02*
X13563039Y-16592650D01*
X13563039Y-16592650D02*
X13543991Y-16564079D01*
X13543991Y-16564079D02*
X13534468Y-16545031D01*
X13534468Y-16545031D02*
X13524944Y-16516460D01*
X13524944Y-16516460D02*
X13515420Y-16468841D01*
X13515420Y-16468841D02*
X13515420Y-16430746D01*
X13515420Y-16430746D02*
X13524944Y-16383127D01*
X13524944Y-16383127D02*
X13534468Y-16354555D01*
X13534468Y-16354555D02*
X13543991Y-16335508D01*
X13543991Y-16335508D02*
X13563039Y-16306936D01*
X13563039Y-16306936D02*
X13572563Y-16297412D01*
X13639229Y-16345031D02*
X13648753Y-16335508D01*
X13648753Y-16335508D02*
X13667801Y-16325984D01*
X13667801Y-16325984D02*
X13715420Y-16325984D01*
X13715420Y-16325984D02*
X13734468Y-16335508D01*
X13734468Y-16335508D02*
X13743991Y-16345031D01*
X13743991Y-16345031D02*
X13753515Y-16364079D01*
X13753515Y-16364079D02*
X13753515Y-16383127D01*
X13753515Y-16383127D02*
X13743991Y-16411698D01*
X13743991Y-16411698D02*
X13629706Y-16525984D01*
X13629706Y-16525984D02*
X13753515Y-16525984D01*
X13991610Y-16525984D02*
X13991610Y-16325984D01*
X14077325Y-16525984D02*
X14077325Y-16421222D01*
X14077325Y-16421222D02*
X14067801Y-16402174D01*
X14067801Y-16402174D02*
X14048753Y-16392650D01*
X14048753Y-16392650D02*
X14020182Y-16392650D01*
X14020182Y-16392650D02*
X14001134Y-16402174D01*
X14001134Y-16402174D02*
X13991610Y-16411698D01*
X14201134Y-16525984D02*
X14182087Y-16516460D01*
X14182087Y-16516460D02*
X14172563Y-16506936D01*
X14172563Y-16506936D02*
X14163039Y-16487888D01*
X14163039Y-16487888D02*
X14163039Y-16430746D01*
X14163039Y-16430746D02*
X14172563Y-16411698D01*
X14172563Y-16411698D02*
X14182087Y-16402174D01*
X14182087Y-16402174D02*
X14201134Y-16392650D01*
X14201134Y-16392650D02*
X14229706Y-16392650D01*
X14229706Y-16392650D02*
X14248753Y-16402174D01*
X14248753Y-16402174D02*
X14258277Y-16411698D01*
X14258277Y-16411698D02*
X14267801Y-16430746D01*
X14267801Y-16430746D02*
X14267801Y-16487888D01*
X14267801Y-16487888D02*
X14258277Y-16506936D01*
X14258277Y-16506936D02*
X14248753Y-16516460D01*
X14248753Y-16516460D02*
X14229706Y-16525984D01*
X14229706Y-16525984D02*
X14201134Y-16525984D01*
X14382087Y-16525984D02*
X14363039Y-16516460D01*
X14363039Y-16516460D02*
X14353515Y-16497412D01*
X14353515Y-16497412D02*
X14353515Y-16325984D01*
X14534468Y-16516460D02*
X14515420Y-16525984D01*
X14515420Y-16525984D02*
X14477325Y-16525984D01*
X14477325Y-16525984D02*
X14458277Y-16516460D01*
X14458277Y-16516460D02*
X14448753Y-16497412D01*
X14448753Y-16497412D02*
X14448753Y-16421222D01*
X14448753Y-16421222D02*
X14458277Y-16402174D01*
X14458277Y-16402174D02*
X14477325Y-16392650D01*
X14477325Y-16392650D02*
X14515420Y-16392650D01*
X14515420Y-16392650D02*
X14534468Y-16402174D01*
X14534468Y-16402174D02*
X14543991Y-16421222D01*
X14543991Y-16421222D02*
X14543991Y-16440269D01*
X14543991Y-16440269D02*
X14448753Y-16459317D01*
X14620182Y-16516460D02*
X14639230Y-16525984D01*
X14639230Y-16525984D02*
X14677325Y-16525984D01*
X14677325Y-16525984D02*
X14696372Y-16516460D01*
X14696372Y-16516460D02*
X14705896Y-16497412D01*
X14705896Y-16497412D02*
X14705896Y-16487888D01*
X14705896Y-16487888D02*
X14696372Y-16468841D01*
X14696372Y-16468841D02*
X14677325Y-16459317D01*
X14677325Y-16459317D02*
X14648753Y-16459317D01*
X14648753Y-16459317D02*
X14629706Y-16449793D01*
X14629706Y-16449793D02*
X14620182Y-16430746D01*
X14620182Y-16430746D02*
X14620182Y-16421222D01*
X14620182Y-16421222D02*
X14629706Y-16402174D01*
X14629706Y-16402174D02*
X14648753Y-16392650D01*
X14648753Y-16392650D02*
X14677325Y-16392650D01*
X14677325Y-16392650D02*
X14696372Y-16402174D01*
X14772563Y-16602174D02*
X14782087Y-16592650D01*
X14782087Y-16592650D02*
X14801134Y-16564079D01*
X14801134Y-16564079D02*
X14810658Y-16545031D01*
X14810658Y-16545031D02*
X14820182Y-16516460D01*
X14820182Y-16516460D02*
X14829706Y-16468841D01*
X14829706Y-16468841D02*
X14829706Y-16430746D01*
X14829706Y-16430746D02*
X14820182Y-16383127D01*
X14820182Y-16383127D02*
X14810658Y-16354555D01*
X14810658Y-16354555D02*
X14801134Y-16335508D01*
X14801134Y-16335508D02*
X14782087Y-16306936D01*
X14782087Y-16306936D02*
X14772563Y-16297412D01*
M02*
