%TF.GenerationSoftware,KiCad,Pcbnew,8.0.2*%
%TF.CreationDate,2024-06-03T14:24:13+01:00*%
%TF.ProjectId,GfxFPGAV2,47667846-5047-4415-9632-2e6b69636164,rev?*%
%TF.SameCoordinates,Original*%
%TF.FileFunction,Legend,Bot*%
%TF.FilePolarity,Positive*%
%FSLAX46Y46*%
G04 Gerber Fmt 4.6, Leading zero omitted, Abs format (unit mm)*
G04 Created by KiCad (PCBNEW 8.0.2) date 2024-06-03 14:24:13*
%MOMM*%
%LPD*%
G01*
G04 APERTURE LIST*
%ADD10C,0.150000*%
%ADD11C,0.120000*%
G04 APERTURE END LIST*
D10*
X184469047Y-134939580D02*
X184516666Y-134987200D01*
X184516666Y-134987200D02*
X184659523Y-135034819D01*
X184659523Y-135034819D02*
X184754761Y-135034819D01*
X184754761Y-135034819D02*
X184897618Y-134987200D01*
X184897618Y-134987200D02*
X184992856Y-134891961D01*
X184992856Y-134891961D02*
X185040475Y-134796723D01*
X185040475Y-134796723D02*
X185088094Y-134606247D01*
X185088094Y-134606247D02*
X185088094Y-134463390D01*
X185088094Y-134463390D02*
X185040475Y-134272914D01*
X185040475Y-134272914D02*
X184992856Y-134177676D01*
X184992856Y-134177676D02*
X184897618Y-134082438D01*
X184897618Y-134082438D02*
X184754761Y-134034819D01*
X184754761Y-134034819D02*
X184659523Y-134034819D01*
X184659523Y-134034819D02*
X184516666Y-134082438D01*
X184516666Y-134082438D02*
X184469047Y-134130057D01*
X184088094Y-134130057D02*
X184040475Y-134082438D01*
X184040475Y-134082438D02*
X183945237Y-134034819D01*
X183945237Y-134034819D02*
X183707142Y-134034819D01*
X183707142Y-134034819D02*
X183611904Y-134082438D01*
X183611904Y-134082438D02*
X183564285Y-134130057D01*
X183564285Y-134130057D02*
X183516666Y-134225295D01*
X183516666Y-134225295D02*
X183516666Y-134320533D01*
X183516666Y-134320533D02*
X183564285Y-134463390D01*
X183564285Y-134463390D02*
X184135713Y-135034819D01*
X184135713Y-135034819D02*
X183516666Y-135034819D01*
X182897618Y-134034819D02*
X182802380Y-134034819D01*
X182802380Y-134034819D02*
X182707142Y-134082438D01*
X182707142Y-134082438D02*
X182659523Y-134130057D01*
X182659523Y-134130057D02*
X182611904Y-134225295D01*
X182611904Y-134225295D02*
X182564285Y-134415771D01*
X182564285Y-134415771D02*
X182564285Y-134653866D01*
X182564285Y-134653866D02*
X182611904Y-134844342D01*
X182611904Y-134844342D02*
X182659523Y-134939580D01*
X182659523Y-134939580D02*
X182707142Y-134987200D01*
X182707142Y-134987200D02*
X182802380Y-135034819D01*
X182802380Y-135034819D02*
X182897618Y-135034819D01*
X182897618Y-135034819D02*
X182992856Y-134987200D01*
X182992856Y-134987200D02*
X183040475Y-134939580D01*
X183040475Y-134939580D02*
X183088094Y-134844342D01*
X183088094Y-134844342D02*
X183135713Y-134653866D01*
X183135713Y-134653866D02*
X183135713Y-134415771D01*
X183135713Y-134415771D02*
X183088094Y-134225295D01*
X183088094Y-134225295D02*
X183040475Y-134130057D01*
X183040475Y-134130057D02*
X182992856Y-134082438D01*
X182992856Y-134082438D02*
X182897618Y-134034819D01*
X181611904Y-135034819D02*
X182183332Y-135034819D01*
X181897618Y-135034819D02*
X181897618Y-134034819D01*
X181897618Y-134034819D02*
X181992856Y-134177676D01*
X181992856Y-134177676D02*
X182088094Y-134272914D01*
X182088094Y-134272914D02*
X182183332Y-134320533D01*
X171669047Y-134839580D02*
X171716666Y-134887200D01*
X171716666Y-134887200D02*
X171859523Y-134934819D01*
X171859523Y-134934819D02*
X171954761Y-134934819D01*
X171954761Y-134934819D02*
X172097618Y-134887200D01*
X172097618Y-134887200D02*
X172192856Y-134791961D01*
X172192856Y-134791961D02*
X172240475Y-134696723D01*
X172240475Y-134696723D02*
X172288094Y-134506247D01*
X172288094Y-134506247D02*
X172288094Y-134363390D01*
X172288094Y-134363390D02*
X172240475Y-134172914D01*
X172240475Y-134172914D02*
X172192856Y-134077676D01*
X172192856Y-134077676D02*
X172097618Y-133982438D01*
X172097618Y-133982438D02*
X171954761Y-133934819D01*
X171954761Y-133934819D02*
X171859523Y-133934819D01*
X171859523Y-133934819D02*
X171716666Y-133982438D01*
X171716666Y-133982438D02*
X171669047Y-134030057D01*
X171288094Y-134030057D02*
X171240475Y-133982438D01*
X171240475Y-133982438D02*
X171145237Y-133934819D01*
X171145237Y-133934819D02*
X170907142Y-133934819D01*
X170907142Y-133934819D02*
X170811904Y-133982438D01*
X170811904Y-133982438D02*
X170764285Y-134030057D01*
X170764285Y-134030057D02*
X170716666Y-134125295D01*
X170716666Y-134125295D02*
X170716666Y-134220533D01*
X170716666Y-134220533D02*
X170764285Y-134363390D01*
X170764285Y-134363390D02*
X171335713Y-134934819D01*
X171335713Y-134934819D02*
X170716666Y-134934819D01*
X170097618Y-133934819D02*
X170002380Y-133934819D01*
X170002380Y-133934819D02*
X169907142Y-133982438D01*
X169907142Y-133982438D02*
X169859523Y-134030057D01*
X169859523Y-134030057D02*
X169811904Y-134125295D01*
X169811904Y-134125295D02*
X169764285Y-134315771D01*
X169764285Y-134315771D02*
X169764285Y-134553866D01*
X169764285Y-134553866D02*
X169811904Y-134744342D01*
X169811904Y-134744342D02*
X169859523Y-134839580D01*
X169859523Y-134839580D02*
X169907142Y-134887200D01*
X169907142Y-134887200D02*
X170002380Y-134934819D01*
X170002380Y-134934819D02*
X170097618Y-134934819D01*
X170097618Y-134934819D02*
X170192856Y-134887200D01*
X170192856Y-134887200D02*
X170240475Y-134839580D01*
X170240475Y-134839580D02*
X170288094Y-134744342D01*
X170288094Y-134744342D02*
X170335713Y-134553866D01*
X170335713Y-134553866D02*
X170335713Y-134315771D01*
X170335713Y-134315771D02*
X170288094Y-134125295D01*
X170288094Y-134125295D02*
X170240475Y-134030057D01*
X170240475Y-134030057D02*
X170192856Y-133982438D01*
X170192856Y-133982438D02*
X170097618Y-133934819D01*
X169383332Y-134030057D02*
X169335713Y-133982438D01*
X169335713Y-133982438D02*
X169240475Y-133934819D01*
X169240475Y-133934819D02*
X169002380Y-133934819D01*
X169002380Y-133934819D02*
X168907142Y-133982438D01*
X168907142Y-133982438D02*
X168859523Y-134030057D01*
X168859523Y-134030057D02*
X168811904Y-134125295D01*
X168811904Y-134125295D02*
X168811904Y-134220533D01*
X168811904Y-134220533D02*
X168859523Y-134363390D01*
X168859523Y-134363390D02*
X169430951Y-134934819D01*
X169430951Y-134934819D02*
X168811904Y-134934819D01*
X159519047Y-134839580D02*
X159566666Y-134887200D01*
X159566666Y-134887200D02*
X159709523Y-134934819D01*
X159709523Y-134934819D02*
X159804761Y-134934819D01*
X159804761Y-134934819D02*
X159947618Y-134887200D01*
X159947618Y-134887200D02*
X160042856Y-134791961D01*
X160042856Y-134791961D02*
X160090475Y-134696723D01*
X160090475Y-134696723D02*
X160138094Y-134506247D01*
X160138094Y-134506247D02*
X160138094Y-134363390D01*
X160138094Y-134363390D02*
X160090475Y-134172914D01*
X160090475Y-134172914D02*
X160042856Y-134077676D01*
X160042856Y-134077676D02*
X159947618Y-133982438D01*
X159947618Y-133982438D02*
X159804761Y-133934819D01*
X159804761Y-133934819D02*
X159709523Y-133934819D01*
X159709523Y-133934819D02*
X159566666Y-133982438D01*
X159566666Y-133982438D02*
X159519047Y-134030057D01*
X159138094Y-134030057D02*
X159090475Y-133982438D01*
X159090475Y-133982438D02*
X158995237Y-133934819D01*
X158995237Y-133934819D02*
X158757142Y-133934819D01*
X158757142Y-133934819D02*
X158661904Y-133982438D01*
X158661904Y-133982438D02*
X158614285Y-134030057D01*
X158614285Y-134030057D02*
X158566666Y-134125295D01*
X158566666Y-134125295D02*
X158566666Y-134220533D01*
X158566666Y-134220533D02*
X158614285Y-134363390D01*
X158614285Y-134363390D02*
X159185713Y-134934819D01*
X159185713Y-134934819D02*
X158566666Y-134934819D01*
X157947618Y-133934819D02*
X157852380Y-133934819D01*
X157852380Y-133934819D02*
X157757142Y-133982438D01*
X157757142Y-133982438D02*
X157709523Y-134030057D01*
X157709523Y-134030057D02*
X157661904Y-134125295D01*
X157661904Y-134125295D02*
X157614285Y-134315771D01*
X157614285Y-134315771D02*
X157614285Y-134553866D01*
X157614285Y-134553866D02*
X157661904Y-134744342D01*
X157661904Y-134744342D02*
X157709523Y-134839580D01*
X157709523Y-134839580D02*
X157757142Y-134887200D01*
X157757142Y-134887200D02*
X157852380Y-134934819D01*
X157852380Y-134934819D02*
X157947618Y-134934819D01*
X157947618Y-134934819D02*
X158042856Y-134887200D01*
X158042856Y-134887200D02*
X158090475Y-134839580D01*
X158090475Y-134839580D02*
X158138094Y-134744342D01*
X158138094Y-134744342D02*
X158185713Y-134553866D01*
X158185713Y-134553866D02*
X158185713Y-134315771D01*
X158185713Y-134315771D02*
X158138094Y-134125295D01*
X158138094Y-134125295D02*
X158090475Y-134030057D01*
X158090475Y-134030057D02*
X158042856Y-133982438D01*
X158042856Y-133982438D02*
X157947618Y-133934819D01*
X157280951Y-133934819D02*
X156661904Y-133934819D01*
X156661904Y-133934819D02*
X156995237Y-134315771D01*
X156995237Y-134315771D02*
X156852380Y-134315771D01*
X156852380Y-134315771D02*
X156757142Y-134363390D01*
X156757142Y-134363390D02*
X156709523Y-134411009D01*
X156709523Y-134411009D02*
X156661904Y-134506247D01*
X156661904Y-134506247D02*
X156661904Y-134744342D01*
X156661904Y-134744342D02*
X156709523Y-134839580D01*
X156709523Y-134839580D02*
X156757142Y-134887200D01*
X156757142Y-134887200D02*
X156852380Y-134934819D01*
X156852380Y-134934819D02*
X157138094Y-134934819D01*
X157138094Y-134934819D02*
X157233332Y-134887200D01*
X157233332Y-134887200D02*
X157280951Y-134839580D01*
X147969047Y-134939580D02*
X148016666Y-134987200D01*
X148016666Y-134987200D02*
X148159523Y-135034819D01*
X148159523Y-135034819D02*
X148254761Y-135034819D01*
X148254761Y-135034819D02*
X148397618Y-134987200D01*
X148397618Y-134987200D02*
X148492856Y-134891961D01*
X148492856Y-134891961D02*
X148540475Y-134796723D01*
X148540475Y-134796723D02*
X148588094Y-134606247D01*
X148588094Y-134606247D02*
X148588094Y-134463390D01*
X148588094Y-134463390D02*
X148540475Y-134272914D01*
X148540475Y-134272914D02*
X148492856Y-134177676D01*
X148492856Y-134177676D02*
X148397618Y-134082438D01*
X148397618Y-134082438D02*
X148254761Y-134034819D01*
X148254761Y-134034819D02*
X148159523Y-134034819D01*
X148159523Y-134034819D02*
X148016666Y-134082438D01*
X148016666Y-134082438D02*
X147969047Y-134130057D01*
X147588094Y-134130057D02*
X147540475Y-134082438D01*
X147540475Y-134082438D02*
X147445237Y-134034819D01*
X147445237Y-134034819D02*
X147207142Y-134034819D01*
X147207142Y-134034819D02*
X147111904Y-134082438D01*
X147111904Y-134082438D02*
X147064285Y-134130057D01*
X147064285Y-134130057D02*
X147016666Y-134225295D01*
X147016666Y-134225295D02*
X147016666Y-134320533D01*
X147016666Y-134320533D02*
X147064285Y-134463390D01*
X147064285Y-134463390D02*
X147635713Y-135034819D01*
X147635713Y-135034819D02*
X147016666Y-135034819D01*
X146397618Y-134034819D02*
X146302380Y-134034819D01*
X146302380Y-134034819D02*
X146207142Y-134082438D01*
X146207142Y-134082438D02*
X146159523Y-134130057D01*
X146159523Y-134130057D02*
X146111904Y-134225295D01*
X146111904Y-134225295D02*
X146064285Y-134415771D01*
X146064285Y-134415771D02*
X146064285Y-134653866D01*
X146064285Y-134653866D02*
X146111904Y-134844342D01*
X146111904Y-134844342D02*
X146159523Y-134939580D01*
X146159523Y-134939580D02*
X146207142Y-134987200D01*
X146207142Y-134987200D02*
X146302380Y-135034819D01*
X146302380Y-135034819D02*
X146397618Y-135034819D01*
X146397618Y-135034819D02*
X146492856Y-134987200D01*
X146492856Y-134987200D02*
X146540475Y-134939580D01*
X146540475Y-134939580D02*
X146588094Y-134844342D01*
X146588094Y-134844342D02*
X146635713Y-134653866D01*
X146635713Y-134653866D02*
X146635713Y-134415771D01*
X146635713Y-134415771D02*
X146588094Y-134225295D01*
X146588094Y-134225295D02*
X146540475Y-134130057D01*
X146540475Y-134130057D02*
X146492856Y-134082438D01*
X146492856Y-134082438D02*
X146397618Y-134034819D01*
X145207142Y-134368152D02*
X145207142Y-135034819D01*
X145445237Y-133987200D02*
X145683332Y-134701485D01*
X145683332Y-134701485D02*
X145064285Y-134701485D01*
X135769047Y-134939580D02*
X135816666Y-134987200D01*
X135816666Y-134987200D02*
X135959523Y-135034819D01*
X135959523Y-135034819D02*
X136054761Y-135034819D01*
X136054761Y-135034819D02*
X136197618Y-134987200D01*
X136197618Y-134987200D02*
X136292856Y-134891961D01*
X136292856Y-134891961D02*
X136340475Y-134796723D01*
X136340475Y-134796723D02*
X136388094Y-134606247D01*
X136388094Y-134606247D02*
X136388094Y-134463390D01*
X136388094Y-134463390D02*
X136340475Y-134272914D01*
X136340475Y-134272914D02*
X136292856Y-134177676D01*
X136292856Y-134177676D02*
X136197618Y-134082438D01*
X136197618Y-134082438D02*
X136054761Y-134034819D01*
X136054761Y-134034819D02*
X135959523Y-134034819D01*
X135959523Y-134034819D02*
X135816666Y-134082438D01*
X135816666Y-134082438D02*
X135769047Y-134130057D01*
X135388094Y-134130057D02*
X135340475Y-134082438D01*
X135340475Y-134082438D02*
X135245237Y-134034819D01*
X135245237Y-134034819D02*
X135007142Y-134034819D01*
X135007142Y-134034819D02*
X134911904Y-134082438D01*
X134911904Y-134082438D02*
X134864285Y-134130057D01*
X134864285Y-134130057D02*
X134816666Y-134225295D01*
X134816666Y-134225295D02*
X134816666Y-134320533D01*
X134816666Y-134320533D02*
X134864285Y-134463390D01*
X134864285Y-134463390D02*
X135435713Y-135034819D01*
X135435713Y-135034819D02*
X134816666Y-135034819D01*
X134197618Y-134034819D02*
X134102380Y-134034819D01*
X134102380Y-134034819D02*
X134007142Y-134082438D01*
X134007142Y-134082438D02*
X133959523Y-134130057D01*
X133959523Y-134130057D02*
X133911904Y-134225295D01*
X133911904Y-134225295D02*
X133864285Y-134415771D01*
X133864285Y-134415771D02*
X133864285Y-134653866D01*
X133864285Y-134653866D02*
X133911904Y-134844342D01*
X133911904Y-134844342D02*
X133959523Y-134939580D01*
X133959523Y-134939580D02*
X134007142Y-134987200D01*
X134007142Y-134987200D02*
X134102380Y-135034819D01*
X134102380Y-135034819D02*
X134197618Y-135034819D01*
X134197618Y-135034819D02*
X134292856Y-134987200D01*
X134292856Y-134987200D02*
X134340475Y-134939580D01*
X134340475Y-134939580D02*
X134388094Y-134844342D01*
X134388094Y-134844342D02*
X134435713Y-134653866D01*
X134435713Y-134653866D02*
X134435713Y-134415771D01*
X134435713Y-134415771D02*
X134388094Y-134225295D01*
X134388094Y-134225295D02*
X134340475Y-134130057D01*
X134340475Y-134130057D02*
X134292856Y-134082438D01*
X134292856Y-134082438D02*
X134197618Y-134034819D01*
X132959523Y-134034819D02*
X133435713Y-134034819D01*
X133435713Y-134034819D02*
X133483332Y-134511009D01*
X133483332Y-134511009D02*
X133435713Y-134463390D01*
X133435713Y-134463390D02*
X133340475Y-134415771D01*
X133340475Y-134415771D02*
X133102380Y-134415771D01*
X133102380Y-134415771D02*
X133007142Y-134463390D01*
X133007142Y-134463390D02*
X132959523Y-134511009D01*
X132959523Y-134511009D02*
X132911904Y-134606247D01*
X132911904Y-134606247D02*
X132911904Y-134844342D01*
X132911904Y-134844342D02*
X132959523Y-134939580D01*
X132959523Y-134939580D02*
X133007142Y-134987200D01*
X133007142Y-134987200D02*
X133102380Y-135034819D01*
X133102380Y-135034819D02*
X133340475Y-135034819D01*
X133340475Y-135034819D02*
X133435713Y-134987200D01*
X133435713Y-134987200D02*
X133483332Y-134939580D01*
X123319047Y-135239580D02*
X123366666Y-135287200D01*
X123366666Y-135287200D02*
X123509523Y-135334819D01*
X123509523Y-135334819D02*
X123604761Y-135334819D01*
X123604761Y-135334819D02*
X123747618Y-135287200D01*
X123747618Y-135287200D02*
X123842856Y-135191961D01*
X123842856Y-135191961D02*
X123890475Y-135096723D01*
X123890475Y-135096723D02*
X123938094Y-134906247D01*
X123938094Y-134906247D02*
X123938094Y-134763390D01*
X123938094Y-134763390D02*
X123890475Y-134572914D01*
X123890475Y-134572914D02*
X123842856Y-134477676D01*
X123842856Y-134477676D02*
X123747618Y-134382438D01*
X123747618Y-134382438D02*
X123604761Y-134334819D01*
X123604761Y-134334819D02*
X123509523Y-134334819D01*
X123509523Y-134334819D02*
X123366666Y-134382438D01*
X123366666Y-134382438D02*
X123319047Y-134430057D01*
X122938094Y-134430057D02*
X122890475Y-134382438D01*
X122890475Y-134382438D02*
X122795237Y-134334819D01*
X122795237Y-134334819D02*
X122557142Y-134334819D01*
X122557142Y-134334819D02*
X122461904Y-134382438D01*
X122461904Y-134382438D02*
X122414285Y-134430057D01*
X122414285Y-134430057D02*
X122366666Y-134525295D01*
X122366666Y-134525295D02*
X122366666Y-134620533D01*
X122366666Y-134620533D02*
X122414285Y-134763390D01*
X122414285Y-134763390D02*
X122985713Y-135334819D01*
X122985713Y-135334819D02*
X122366666Y-135334819D01*
X121747618Y-134334819D02*
X121652380Y-134334819D01*
X121652380Y-134334819D02*
X121557142Y-134382438D01*
X121557142Y-134382438D02*
X121509523Y-134430057D01*
X121509523Y-134430057D02*
X121461904Y-134525295D01*
X121461904Y-134525295D02*
X121414285Y-134715771D01*
X121414285Y-134715771D02*
X121414285Y-134953866D01*
X121414285Y-134953866D02*
X121461904Y-135144342D01*
X121461904Y-135144342D02*
X121509523Y-135239580D01*
X121509523Y-135239580D02*
X121557142Y-135287200D01*
X121557142Y-135287200D02*
X121652380Y-135334819D01*
X121652380Y-135334819D02*
X121747618Y-135334819D01*
X121747618Y-135334819D02*
X121842856Y-135287200D01*
X121842856Y-135287200D02*
X121890475Y-135239580D01*
X121890475Y-135239580D02*
X121938094Y-135144342D01*
X121938094Y-135144342D02*
X121985713Y-134953866D01*
X121985713Y-134953866D02*
X121985713Y-134715771D01*
X121985713Y-134715771D02*
X121938094Y-134525295D01*
X121938094Y-134525295D02*
X121890475Y-134430057D01*
X121890475Y-134430057D02*
X121842856Y-134382438D01*
X121842856Y-134382438D02*
X121747618Y-134334819D01*
X120557142Y-134334819D02*
X120747618Y-134334819D01*
X120747618Y-134334819D02*
X120842856Y-134382438D01*
X120842856Y-134382438D02*
X120890475Y-134430057D01*
X120890475Y-134430057D02*
X120985713Y-134572914D01*
X120985713Y-134572914D02*
X121033332Y-134763390D01*
X121033332Y-134763390D02*
X121033332Y-135144342D01*
X121033332Y-135144342D02*
X120985713Y-135239580D01*
X120985713Y-135239580D02*
X120938094Y-135287200D01*
X120938094Y-135287200D02*
X120842856Y-135334819D01*
X120842856Y-135334819D02*
X120652380Y-135334819D01*
X120652380Y-135334819D02*
X120557142Y-135287200D01*
X120557142Y-135287200D02*
X120509523Y-135239580D01*
X120509523Y-135239580D02*
X120461904Y-135144342D01*
X120461904Y-135144342D02*
X120461904Y-134906247D01*
X120461904Y-134906247D02*
X120509523Y-134811009D01*
X120509523Y-134811009D02*
X120557142Y-134763390D01*
X120557142Y-134763390D02*
X120652380Y-134715771D01*
X120652380Y-134715771D02*
X120842856Y-134715771D01*
X120842856Y-134715771D02*
X120938094Y-134763390D01*
X120938094Y-134763390D02*
X120985713Y-134811009D01*
X120985713Y-134811009D02*
X121033332Y-134906247D01*
X184469047Y-131039580D02*
X184516666Y-131087200D01*
X184516666Y-131087200D02*
X184659523Y-131134819D01*
X184659523Y-131134819D02*
X184754761Y-131134819D01*
X184754761Y-131134819D02*
X184897618Y-131087200D01*
X184897618Y-131087200D02*
X184992856Y-130991961D01*
X184992856Y-130991961D02*
X185040475Y-130896723D01*
X185040475Y-130896723D02*
X185088094Y-130706247D01*
X185088094Y-130706247D02*
X185088094Y-130563390D01*
X185088094Y-130563390D02*
X185040475Y-130372914D01*
X185040475Y-130372914D02*
X184992856Y-130277676D01*
X184992856Y-130277676D02*
X184897618Y-130182438D01*
X184897618Y-130182438D02*
X184754761Y-130134819D01*
X184754761Y-130134819D02*
X184659523Y-130134819D01*
X184659523Y-130134819D02*
X184516666Y-130182438D01*
X184516666Y-130182438D02*
X184469047Y-130230057D01*
X184088094Y-130230057D02*
X184040475Y-130182438D01*
X184040475Y-130182438D02*
X183945237Y-130134819D01*
X183945237Y-130134819D02*
X183707142Y-130134819D01*
X183707142Y-130134819D02*
X183611904Y-130182438D01*
X183611904Y-130182438D02*
X183564285Y-130230057D01*
X183564285Y-130230057D02*
X183516666Y-130325295D01*
X183516666Y-130325295D02*
X183516666Y-130420533D01*
X183516666Y-130420533D02*
X183564285Y-130563390D01*
X183564285Y-130563390D02*
X184135713Y-131134819D01*
X184135713Y-131134819D02*
X183516666Y-131134819D01*
X182897618Y-130134819D02*
X182802380Y-130134819D01*
X182802380Y-130134819D02*
X182707142Y-130182438D01*
X182707142Y-130182438D02*
X182659523Y-130230057D01*
X182659523Y-130230057D02*
X182611904Y-130325295D01*
X182611904Y-130325295D02*
X182564285Y-130515771D01*
X182564285Y-130515771D02*
X182564285Y-130753866D01*
X182564285Y-130753866D02*
X182611904Y-130944342D01*
X182611904Y-130944342D02*
X182659523Y-131039580D01*
X182659523Y-131039580D02*
X182707142Y-131087200D01*
X182707142Y-131087200D02*
X182802380Y-131134819D01*
X182802380Y-131134819D02*
X182897618Y-131134819D01*
X182897618Y-131134819D02*
X182992856Y-131087200D01*
X182992856Y-131087200D02*
X183040475Y-131039580D01*
X183040475Y-131039580D02*
X183088094Y-130944342D01*
X183088094Y-130944342D02*
X183135713Y-130753866D01*
X183135713Y-130753866D02*
X183135713Y-130515771D01*
X183135713Y-130515771D02*
X183088094Y-130325295D01*
X183088094Y-130325295D02*
X183040475Y-130230057D01*
X183040475Y-130230057D02*
X182992856Y-130182438D01*
X182992856Y-130182438D02*
X182897618Y-130134819D01*
X182230951Y-130134819D02*
X181564285Y-130134819D01*
X181564285Y-130134819D02*
X181992856Y-131134819D01*
X171669047Y-131139580D02*
X171716666Y-131187200D01*
X171716666Y-131187200D02*
X171859523Y-131234819D01*
X171859523Y-131234819D02*
X171954761Y-131234819D01*
X171954761Y-131234819D02*
X172097618Y-131187200D01*
X172097618Y-131187200D02*
X172192856Y-131091961D01*
X172192856Y-131091961D02*
X172240475Y-130996723D01*
X172240475Y-130996723D02*
X172288094Y-130806247D01*
X172288094Y-130806247D02*
X172288094Y-130663390D01*
X172288094Y-130663390D02*
X172240475Y-130472914D01*
X172240475Y-130472914D02*
X172192856Y-130377676D01*
X172192856Y-130377676D02*
X172097618Y-130282438D01*
X172097618Y-130282438D02*
X171954761Y-130234819D01*
X171954761Y-130234819D02*
X171859523Y-130234819D01*
X171859523Y-130234819D02*
X171716666Y-130282438D01*
X171716666Y-130282438D02*
X171669047Y-130330057D01*
X171288094Y-130330057D02*
X171240475Y-130282438D01*
X171240475Y-130282438D02*
X171145237Y-130234819D01*
X171145237Y-130234819D02*
X170907142Y-130234819D01*
X170907142Y-130234819D02*
X170811904Y-130282438D01*
X170811904Y-130282438D02*
X170764285Y-130330057D01*
X170764285Y-130330057D02*
X170716666Y-130425295D01*
X170716666Y-130425295D02*
X170716666Y-130520533D01*
X170716666Y-130520533D02*
X170764285Y-130663390D01*
X170764285Y-130663390D02*
X171335713Y-131234819D01*
X171335713Y-131234819D02*
X170716666Y-131234819D01*
X170097618Y-130234819D02*
X170002380Y-130234819D01*
X170002380Y-130234819D02*
X169907142Y-130282438D01*
X169907142Y-130282438D02*
X169859523Y-130330057D01*
X169859523Y-130330057D02*
X169811904Y-130425295D01*
X169811904Y-130425295D02*
X169764285Y-130615771D01*
X169764285Y-130615771D02*
X169764285Y-130853866D01*
X169764285Y-130853866D02*
X169811904Y-131044342D01*
X169811904Y-131044342D02*
X169859523Y-131139580D01*
X169859523Y-131139580D02*
X169907142Y-131187200D01*
X169907142Y-131187200D02*
X170002380Y-131234819D01*
X170002380Y-131234819D02*
X170097618Y-131234819D01*
X170097618Y-131234819D02*
X170192856Y-131187200D01*
X170192856Y-131187200D02*
X170240475Y-131139580D01*
X170240475Y-131139580D02*
X170288094Y-131044342D01*
X170288094Y-131044342D02*
X170335713Y-130853866D01*
X170335713Y-130853866D02*
X170335713Y-130615771D01*
X170335713Y-130615771D02*
X170288094Y-130425295D01*
X170288094Y-130425295D02*
X170240475Y-130330057D01*
X170240475Y-130330057D02*
X170192856Y-130282438D01*
X170192856Y-130282438D02*
X170097618Y-130234819D01*
X169192856Y-130663390D02*
X169288094Y-130615771D01*
X169288094Y-130615771D02*
X169335713Y-130568152D01*
X169335713Y-130568152D02*
X169383332Y-130472914D01*
X169383332Y-130472914D02*
X169383332Y-130425295D01*
X169383332Y-130425295D02*
X169335713Y-130330057D01*
X169335713Y-130330057D02*
X169288094Y-130282438D01*
X169288094Y-130282438D02*
X169192856Y-130234819D01*
X169192856Y-130234819D02*
X169002380Y-130234819D01*
X169002380Y-130234819D02*
X168907142Y-130282438D01*
X168907142Y-130282438D02*
X168859523Y-130330057D01*
X168859523Y-130330057D02*
X168811904Y-130425295D01*
X168811904Y-130425295D02*
X168811904Y-130472914D01*
X168811904Y-130472914D02*
X168859523Y-130568152D01*
X168859523Y-130568152D02*
X168907142Y-130615771D01*
X168907142Y-130615771D02*
X169002380Y-130663390D01*
X169002380Y-130663390D02*
X169192856Y-130663390D01*
X169192856Y-130663390D02*
X169288094Y-130711009D01*
X169288094Y-130711009D02*
X169335713Y-130758628D01*
X169335713Y-130758628D02*
X169383332Y-130853866D01*
X169383332Y-130853866D02*
X169383332Y-131044342D01*
X169383332Y-131044342D02*
X169335713Y-131139580D01*
X169335713Y-131139580D02*
X169288094Y-131187200D01*
X169288094Y-131187200D02*
X169192856Y-131234819D01*
X169192856Y-131234819D02*
X169002380Y-131234819D01*
X169002380Y-131234819D02*
X168907142Y-131187200D01*
X168907142Y-131187200D02*
X168859523Y-131139580D01*
X168859523Y-131139580D02*
X168811904Y-131044342D01*
X168811904Y-131044342D02*
X168811904Y-130853866D01*
X168811904Y-130853866D02*
X168859523Y-130758628D01*
X168859523Y-130758628D02*
X168907142Y-130711009D01*
X168907142Y-130711009D02*
X169002380Y-130663390D01*
X159469047Y-131139580D02*
X159516666Y-131187200D01*
X159516666Y-131187200D02*
X159659523Y-131234819D01*
X159659523Y-131234819D02*
X159754761Y-131234819D01*
X159754761Y-131234819D02*
X159897618Y-131187200D01*
X159897618Y-131187200D02*
X159992856Y-131091961D01*
X159992856Y-131091961D02*
X160040475Y-130996723D01*
X160040475Y-130996723D02*
X160088094Y-130806247D01*
X160088094Y-130806247D02*
X160088094Y-130663390D01*
X160088094Y-130663390D02*
X160040475Y-130472914D01*
X160040475Y-130472914D02*
X159992856Y-130377676D01*
X159992856Y-130377676D02*
X159897618Y-130282438D01*
X159897618Y-130282438D02*
X159754761Y-130234819D01*
X159754761Y-130234819D02*
X159659523Y-130234819D01*
X159659523Y-130234819D02*
X159516666Y-130282438D01*
X159516666Y-130282438D02*
X159469047Y-130330057D01*
X159088094Y-130330057D02*
X159040475Y-130282438D01*
X159040475Y-130282438D02*
X158945237Y-130234819D01*
X158945237Y-130234819D02*
X158707142Y-130234819D01*
X158707142Y-130234819D02*
X158611904Y-130282438D01*
X158611904Y-130282438D02*
X158564285Y-130330057D01*
X158564285Y-130330057D02*
X158516666Y-130425295D01*
X158516666Y-130425295D02*
X158516666Y-130520533D01*
X158516666Y-130520533D02*
X158564285Y-130663390D01*
X158564285Y-130663390D02*
X159135713Y-131234819D01*
X159135713Y-131234819D02*
X158516666Y-131234819D01*
X157897618Y-130234819D02*
X157802380Y-130234819D01*
X157802380Y-130234819D02*
X157707142Y-130282438D01*
X157707142Y-130282438D02*
X157659523Y-130330057D01*
X157659523Y-130330057D02*
X157611904Y-130425295D01*
X157611904Y-130425295D02*
X157564285Y-130615771D01*
X157564285Y-130615771D02*
X157564285Y-130853866D01*
X157564285Y-130853866D02*
X157611904Y-131044342D01*
X157611904Y-131044342D02*
X157659523Y-131139580D01*
X157659523Y-131139580D02*
X157707142Y-131187200D01*
X157707142Y-131187200D02*
X157802380Y-131234819D01*
X157802380Y-131234819D02*
X157897618Y-131234819D01*
X157897618Y-131234819D02*
X157992856Y-131187200D01*
X157992856Y-131187200D02*
X158040475Y-131139580D01*
X158040475Y-131139580D02*
X158088094Y-131044342D01*
X158088094Y-131044342D02*
X158135713Y-130853866D01*
X158135713Y-130853866D02*
X158135713Y-130615771D01*
X158135713Y-130615771D02*
X158088094Y-130425295D01*
X158088094Y-130425295D02*
X158040475Y-130330057D01*
X158040475Y-130330057D02*
X157992856Y-130282438D01*
X157992856Y-130282438D02*
X157897618Y-130234819D01*
X157088094Y-131234819D02*
X156897618Y-131234819D01*
X156897618Y-131234819D02*
X156802380Y-131187200D01*
X156802380Y-131187200D02*
X156754761Y-131139580D01*
X156754761Y-131139580D02*
X156659523Y-130996723D01*
X156659523Y-130996723D02*
X156611904Y-130806247D01*
X156611904Y-130806247D02*
X156611904Y-130425295D01*
X156611904Y-130425295D02*
X156659523Y-130330057D01*
X156659523Y-130330057D02*
X156707142Y-130282438D01*
X156707142Y-130282438D02*
X156802380Y-130234819D01*
X156802380Y-130234819D02*
X156992856Y-130234819D01*
X156992856Y-130234819D02*
X157088094Y-130282438D01*
X157088094Y-130282438D02*
X157135713Y-130330057D01*
X157135713Y-130330057D02*
X157183332Y-130425295D01*
X157183332Y-130425295D02*
X157183332Y-130663390D01*
X157183332Y-130663390D02*
X157135713Y-130758628D01*
X157135713Y-130758628D02*
X157088094Y-130806247D01*
X157088094Y-130806247D02*
X156992856Y-130853866D01*
X156992856Y-130853866D02*
X156802380Y-130853866D01*
X156802380Y-130853866D02*
X156707142Y-130806247D01*
X156707142Y-130806247D02*
X156659523Y-130758628D01*
X156659523Y-130758628D02*
X156611904Y-130663390D01*
X147919047Y-131139580D02*
X147966666Y-131187200D01*
X147966666Y-131187200D02*
X148109523Y-131234819D01*
X148109523Y-131234819D02*
X148204761Y-131234819D01*
X148204761Y-131234819D02*
X148347618Y-131187200D01*
X148347618Y-131187200D02*
X148442856Y-131091961D01*
X148442856Y-131091961D02*
X148490475Y-130996723D01*
X148490475Y-130996723D02*
X148538094Y-130806247D01*
X148538094Y-130806247D02*
X148538094Y-130663390D01*
X148538094Y-130663390D02*
X148490475Y-130472914D01*
X148490475Y-130472914D02*
X148442856Y-130377676D01*
X148442856Y-130377676D02*
X148347618Y-130282438D01*
X148347618Y-130282438D02*
X148204761Y-130234819D01*
X148204761Y-130234819D02*
X148109523Y-130234819D01*
X148109523Y-130234819D02*
X147966666Y-130282438D01*
X147966666Y-130282438D02*
X147919047Y-130330057D01*
X147538094Y-130330057D02*
X147490475Y-130282438D01*
X147490475Y-130282438D02*
X147395237Y-130234819D01*
X147395237Y-130234819D02*
X147157142Y-130234819D01*
X147157142Y-130234819D02*
X147061904Y-130282438D01*
X147061904Y-130282438D02*
X147014285Y-130330057D01*
X147014285Y-130330057D02*
X146966666Y-130425295D01*
X146966666Y-130425295D02*
X146966666Y-130520533D01*
X146966666Y-130520533D02*
X147014285Y-130663390D01*
X147014285Y-130663390D02*
X147585713Y-131234819D01*
X147585713Y-131234819D02*
X146966666Y-131234819D01*
X146014285Y-131234819D02*
X146585713Y-131234819D01*
X146299999Y-131234819D02*
X146299999Y-130234819D01*
X146299999Y-130234819D02*
X146395237Y-130377676D01*
X146395237Y-130377676D02*
X146490475Y-130472914D01*
X146490475Y-130472914D02*
X146585713Y-130520533D01*
X145395237Y-130234819D02*
X145299999Y-130234819D01*
X145299999Y-130234819D02*
X145204761Y-130282438D01*
X145204761Y-130282438D02*
X145157142Y-130330057D01*
X145157142Y-130330057D02*
X145109523Y-130425295D01*
X145109523Y-130425295D02*
X145061904Y-130615771D01*
X145061904Y-130615771D02*
X145061904Y-130853866D01*
X145061904Y-130853866D02*
X145109523Y-131044342D01*
X145109523Y-131044342D02*
X145157142Y-131139580D01*
X145157142Y-131139580D02*
X145204761Y-131187200D01*
X145204761Y-131187200D02*
X145299999Y-131234819D01*
X145299999Y-131234819D02*
X145395237Y-131234819D01*
X145395237Y-131234819D02*
X145490475Y-131187200D01*
X145490475Y-131187200D02*
X145538094Y-131139580D01*
X145538094Y-131139580D02*
X145585713Y-131044342D01*
X145585713Y-131044342D02*
X145633332Y-130853866D01*
X145633332Y-130853866D02*
X145633332Y-130615771D01*
X145633332Y-130615771D02*
X145585713Y-130425295D01*
X145585713Y-130425295D02*
X145538094Y-130330057D01*
X145538094Y-130330057D02*
X145490475Y-130282438D01*
X145490475Y-130282438D02*
X145395237Y-130234819D01*
X135719047Y-131139580D02*
X135766666Y-131187200D01*
X135766666Y-131187200D02*
X135909523Y-131234819D01*
X135909523Y-131234819D02*
X136004761Y-131234819D01*
X136004761Y-131234819D02*
X136147618Y-131187200D01*
X136147618Y-131187200D02*
X136242856Y-131091961D01*
X136242856Y-131091961D02*
X136290475Y-130996723D01*
X136290475Y-130996723D02*
X136338094Y-130806247D01*
X136338094Y-130806247D02*
X136338094Y-130663390D01*
X136338094Y-130663390D02*
X136290475Y-130472914D01*
X136290475Y-130472914D02*
X136242856Y-130377676D01*
X136242856Y-130377676D02*
X136147618Y-130282438D01*
X136147618Y-130282438D02*
X136004761Y-130234819D01*
X136004761Y-130234819D02*
X135909523Y-130234819D01*
X135909523Y-130234819D02*
X135766666Y-130282438D01*
X135766666Y-130282438D02*
X135719047Y-130330057D01*
X135338094Y-130330057D02*
X135290475Y-130282438D01*
X135290475Y-130282438D02*
X135195237Y-130234819D01*
X135195237Y-130234819D02*
X134957142Y-130234819D01*
X134957142Y-130234819D02*
X134861904Y-130282438D01*
X134861904Y-130282438D02*
X134814285Y-130330057D01*
X134814285Y-130330057D02*
X134766666Y-130425295D01*
X134766666Y-130425295D02*
X134766666Y-130520533D01*
X134766666Y-130520533D02*
X134814285Y-130663390D01*
X134814285Y-130663390D02*
X135385713Y-131234819D01*
X135385713Y-131234819D02*
X134766666Y-131234819D01*
X133814285Y-131234819D02*
X134385713Y-131234819D01*
X134099999Y-131234819D02*
X134099999Y-130234819D01*
X134099999Y-130234819D02*
X134195237Y-130377676D01*
X134195237Y-130377676D02*
X134290475Y-130472914D01*
X134290475Y-130472914D02*
X134385713Y-130520533D01*
X132861904Y-131234819D02*
X133433332Y-131234819D01*
X133147618Y-131234819D02*
X133147618Y-130234819D01*
X133147618Y-130234819D02*
X133242856Y-130377676D01*
X133242856Y-130377676D02*
X133338094Y-130472914D01*
X133338094Y-130472914D02*
X133433332Y-130520533D01*
X123319047Y-131139580D02*
X123366666Y-131187200D01*
X123366666Y-131187200D02*
X123509523Y-131234819D01*
X123509523Y-131234819D02*
X123604761Y-131234819D01*
X123604761Y-131234819D02*
X123747618Y-131187200D01*
X123747618Y-131187200D02*
X123842856Y-131091961D01*
X123842856Y-131091961D02*
X123890475Y-130996723D01*
X123890475Y-130996723D02*
X123938094Y-130806247D01*
X123938094Y-130806247D02*
X123938094Y-130663390D01*
X123938094Y-130663390D02*
X123890475Y-130472914D01*
X123890475Y-130472914D02*
X123842856Y-130377676D01*
X123842856Y-130377676D02*
X123747618Y-130282438D01*
X123747618Y-130282438D02*
X123604761Y-130234819D01*
X123604761Y-130234819D02*
X123509523Y-130234819D01*
X123509523Y-130234819D02*
X123366666Y-130282438D01*
X123366666Y-130282438D02*
X123319047Y-130330057D01*
X122938094Y-130330057D02*
X122890475Y-130282438D01*
X122890475Y-130282438D02*
X122795237Y-130234819D01*
X122795237Y-130234819D02*
X122557142Y-130234819D01*
X122557142Y-130234819D02*
X122461904Y-130282438D01*
X122461904Y-130282438D02*
X122414285Y-130330057D01*
X122414285Y-130330057D02*
X122366666Y-130425295D01*
X122366666Y-130425295D02*
X122366666Y-130520533D01*
X122366666Y-130520533D02*
X122414285Y-130663390D01*
X122414285Y-130663390D02*
X122985713Y-131234819D01*
X122985713Y-131234819D02*
X122366666Y-131234819D01*
X121414285Y-131234819D02*
X121985713Y-131234819D01*
X121699999Y-131234819D02*
X121699999Y-130234819D01*
X121699999Y-130234819D02*
X121795237Y-130377676D01*
X121795237Y-130377676D02*
X121890475Y-130472914D01*
X121890475Y-130472914D02*
X121985713Y-130520533D01*
X121033332Y-130330057D02*
X120985713Y-130282438D01*
X120985713Y-130282438D02*
X120890475Y-130234819D01*
X120890475Y-130234819D02*
X120652380Y-130234819D01*
X120652380Y-130234819D02*
X120557142Y-130282438D01*
X120557142Y-130282438D02*
X120509523Y-130330057D01*
X120509523Y-130330057D02*
X120461904Y-130425295D01*
X120461904Y-130425295D02*
X120461904Y-130520533D01*
X120461904Y-130520533D02*
X120509523Y-130663390D01*
X120509523Y-130663390D02*
X121080951Y-131234819D01*
X121080951Y-131234819D02*
X120461904Y-131234819D01*
X137189580Y-111530952D02*
X137237200Y-111483333D01*
X137237200Y-111483333D02*
X137284819Y-111340476D01*
X137284819Y-111340476D02*
X137284819Y-111245238D01*
X137284819Y-111245238D02*
X137237200Y-111102381D01*
X137237200Y-111102381D02*
X137141961Y-111007143D01*
X137141961Y-111007143D02*
X137046723Y-110959524D01*
X137046723Y-110959524D02*
X136856247Y-110911905D01*
X136856247Y-110911905D02*
X136713390Y-110911905D01*
X136713390Y-110911905D02*
X136522914Y-110959524D01*
X136522914Y-110959524D02*
X136427676Y-111007143D01*
X136427676Y-111007143D02*
X136332438Y-111102381D01*
X136332438Y-111102381D02*
X136284819Y-111245238D01*
X136284819Y-111245238D02*
X136284819Y-111340476D01*
X136284819Y-111340476D02*
X136332438Y-111483333D01*
X136332438Y-111483333D02*
X136380057Y-111530952D01*
X136618152Y-112388095D02*
X137284819Y-112388095D01*
X136237200Y-112150000D02*
X136951485Y-111911905D01*
X136951485Y-111911905D02*
X136951485Y-112530952D01*
X136284819Y-113102381D02*
X136284819Y-113197619D01*
X136284819Y-113197619D02*
X136332438Y-113292857D01*
X136332438Y-113292857D02*
X136380057Y-113340476D01*
X136380057Y-113340476D02*
X136475295Y-113388095D01*
X136475295Y-113388095D02*
X136665771Y-113435714D01*
X136665771Y-113435714D02*
X136903866Y-113435714D01*
X136903866Y-113435714D02*
X137094342Y-113388095D01*
X137094342Y-113388095D02*
X137189580Y-113340476D01*
X137189580Y-113340476D02*
X137237200Y-113292857D01*
X137237200Y-113292857D02*
X137284819Y-113197619D01*
X137284819Y-113197619D02*
X137284819Y-113102381D01*
X137284819Y-113102381D02*
X137237200Y-113007143D01*
X137237200Y-113007143D02*
X137189580Y-112959524D01*
X137189580Y-112959524D02*
X137094342Y-112911905D01*
X137094342Y-112911905D02*
X136903866Y-112864286D01*
X136903866Y-112864286D02*
X136665771Y-112864286D01*
X136665771Y-112864286D02*
X136475295Y-112911905D01*
X136475295Y-112911905D02*
X136380057Y-112959524D01*
X136380057Y-112959524D02*
X136332438Y-113007143D01*
X136332438Y-113007143D02*
X136284819Y-113102381D01*
X136284819Y-113769048D02*
X136284819Y-114388095D01*
X136284819Y-114388095D02*
X136665771Y-114054762D01*
X136665771Y-114054762D02*
X136665771Y-114197619D01*
X136665771Y-114197619D02*
X136713390Y-114292857D01*
X136713390Y-114292857D02*
X136761009Y-114340476D01*
X136761009Y-114340476D02*
X136856247Y-114388095D01*
X136856247Y-114388095D02*
X137094342Y-114388095D01*
X137094342Y-114388095D02*
X137189580Y-114340476D01*
X137189580Y-114340476D02*
X137237200Y-114292857D01*
X137237200Y-114292857D02*
X137284819Y-114197619D01*
X137284819Y-114197619D02*
X137284819Y-113911905D01*
X137284819Y-113911905D02*
X137237200Y-113816667D01*
X137237200Y-113816667D02*
X137189580Y-113769048D01*
X183863047Y-88716580D02*
X183910666Y-88764200D01*
X183910666Y-88764200D02*
X184053523Y-88811819D01*
X184053523Y-88811819D02*
X184148761Y-88811819D01*
X184148761Y-88811819D02*
X184291618Y-88764200D01*
X184291618Y-88764200D02*
X184386856Y-88668961D01*
X184386856Y-88668961D02*
X184434475Y-88573723D01*
X184434475Y-88573723D02*
X184482094Y-88383247D01*
X184482094Y-88383247D02*
X184482094Y-88240390D01*
X184482094Y-88240390D02*
X184434475Y-88049914D01*
X184434475Y-88049914D02*
X184386856Y-87954676D01*
X184386856Y-87954676D02*
X184291618Y-87859438D01*
X184291618Y-87859438D02*
X184148761Y-87811819D01*
X184148761Y-87811819D02*
X184053523Y-87811819D01*
X184053523Y-87811819D02*
X183910666Y-87859438D01*
X183910666Y-87859438D02*
X183863047Y-87907057D01*
X182958285Y-87811819D02*
X183434475Y-87811819D01*
X183434475Y-87811819D02*
X183482094Y-88288009D01*
X183482094Y-88288009D02*
X183434475Y-88240390D01*
X183434475Y-88240390D02*
X183339237Y-88192771D01*
X183339237Y-88192771D02*
X183101142Y-88192771D01*
X183101142Y-88192771D02*
X183005904Y-88240390D01*
X183005904Y-88240390D02*
X182958285Y-88288009D01*
X182958285Y-88288009D02*
X182910666Y-88383247D01*
X182910666Y-88383247D02*
X182910666Y-88621342D01*
X182910666Y-88621342D02*
X182958285Y-88716580D01*
X182958285Y-88716580D02*
X183005904Y-88764200D01*
X183005904Y-88764200D02*
X183101142Y-88811819D01*
X183101142Y-88811819D02*
X183339237Y-88811819D01*
X183339237Y-88811819D02*
X183434475Y-88764200D01*
X183434475Y-88764200D02*
X183482094Y-88716580D01*
X182291618Y-87811819D02*
X182196380Y-87811819D01*
X182196380Y-87811819D02*
X182101142Y-87859438D01*
X182101142Y-87859438D02*
X182053523Y-87907057D01*
X182053523Y-87907057D02*
X182005904Y-88002295D01*
X182005904Y-88002295D02*
X181958285Y-88192771D01*
X181958285Y-88192771D02*
X181958285Y-88430866D01*
X181958285Y-88430866D02*
X182005904Y-88621342D01*
X182005904Y-88621342D02*
X182053523Y-88716580D01*
X182053523Y-88716580D02*
X182101142Y-88764200D01*
X182101142Y-88764200D02*
X182196380Y-88811819D01*
X182196380Y-88811819D02*
X182291618Y-88811819D01*
X182291618Y-88811819D02*
X182386856Y-88764200D01*
X182386856Y-88764200D02*
X182434475Y-88716580D01*
X182434475Y-88716580D02*
X182482094Y-88621342D01*
X182482094Y-88621342D02*
X182529713Y-88430866D01*
X182529713Y-88430866D02*
X182529713Y-88192771D01*
X182529713Y-88192771D02*
X182482094Y-88002295D01*
X182482094Y-88002295D02*
X182434475Y-87907057D01*
X182434475Y-87907057D02*
X182386856Y-87859438D01*
X182386856Y-87859438D02*
X182291618Y-87811819D01*
X181624951Y-87811819D02*
X181005904Y-87811819D01*
X181005904Y-87811819D02*
X181339237Y-88192771D01*
X181339237Y-88192771D02*
X181196380Y-88192771D01*
X181196380Y-88192771D02*
X181101142Y-88240390D01*
X181101142Y-88240390D02*
X181053523Y-88288009D01*
X181053523Y-88288009D02*
X181005904Y-88383247D01*
X181005904Y-88383247D02*
X181005904Y-88621342D01*
X181005904Y-88621342D02*
X181053523Y-88716580D01*
X181053523Y-88716580D02*
X181101142Y-88764200D01*
X181101142Y-88764200D02*
X181196380Y-88811819D01*
X181196380Y-88811819D02*
X181482094Y-88811819D01*
X181482094Y-88811819D02*
X181577332Y-88764200D01*
X181577332Y-88764200D02*
X181624951Y-88716580D01*
X183913047Y-92106580D02*
X183960666Y-92154200D01*
X183960666Y-92154200D02*
X184103523Y-92201819D01*
X184103523Y-92201819D02*
X184198761Y-92201819D01*
X184198761Y-92201819D02*
X184341618Y-92154200D01*
X184341618Y-92154200D02*
X184436856Y-92058961D01*
X184436856Y-92058961D02*
X184484475Y-91963723D01*
X184484475Y-91963723D02*
X184532094Y-91773247D01*
X184532094Y-91773247D02*
X184532094Y-91630390D01*
X184532094Y-91630390D02*
X184484475Y-91439914D01*
X184484475Y-91439914D02*
X184436856Y-91344676D01*
X184436856Y-91344676D02*
X184341618Y-91249438D01*
X184341618Y-91249438D02*
X184198761Y-91201819D01*
X184198761Y-91201819D02*
X184103523Y-91201819D01*
X184103523Y-91201819D02*
X183960666Y-91249438D01*
X183960666Y-91249438D02*
X183913047Y-91297057D01*
X183008285Y-91201819D02*
X183484475Y-91201819D01*
X183484475Y-91201819D02*
X183532094Y-91678009D01*
X183532094Y-91678009D02*
X183484475Y-91630390D01*
X183484475Y-91630390D02*
X183389237Y-91582771D01*
X183389237Y-91582771D02*
X183151142Y-91582771D01*
X183151142Y-91582771D02*
X183055904Y-91630390D01*
X183055904Y-91630390D02*
X183008285Y-91678009D01*
X183008285Y-91678009D02*
X182960666Y-91773247D01*
X182960666Y-91773247D02*
X182960666Y-92011342D01*
X182960666Y-92011342D02*
X183008285Y-92106580D01*
X183008285Y-92106580D02*
X183055904Y-92154200D01*
X183055904Y-92154200D02*
X183151142Y-92201819D01*
X183151142Y-92201819D02*
X183389237Y-92201819D01*
X183389237Y-92201819D02*
X183484475Y-92154200D01*
X183484475Y-92154200D02*
X183532094Y-92106580D01*
X182341618Y-91201819D02*
X182246380Y-91201819D01*
X182246380Y-91201819D02*
X182151142Y-91249438D01*
X182151142Y-91249438D02*
X182103523Y-91297057D01*
X182103523Y-91297057D02*
X182055904Y-91392295D01*
X182055904Y-91392295D02*
X182008285Y-91582771D01*
X182008285Y-91582771D02*
X182008285Y-91820866D01*
X182008285Y-91820866D02*
X182055904Y-92011342D01*
X182055904Y-92011342D02*
X182103523Y-92106580D01*
X182103523Y-92106580D02*
X182151142Y-92154200D01*
X182151142Y-92154200D02*
X182246380Y-92201819D01*
X182246380Y-92201819D02*
X182341618Y-92201819D01*
X182341618Y-92201819D02*
X182436856Y-92154200D01*
X182436856Y-92154200D02*
X182484475Y-92106580D01*
X182484475Y-92106580D02*
X182532094Y-92011342D01*
X182532094Y-92011342D02*
X182579713Y-91820866D01*
X182579713Y-91820866D02*
X182579713Y-91582771D01*
X182579713Y-91582771D02*
X182532094Y-91392295D01*
X182532094Y-91392295D02*
X182484475Y-91297057D01*
X182484475Y-91297057D02*
X182436856Y-91249438D01*
X182436856Y-91249438D02*
X182341618Y-91201819D01*
X181151142Y-91535152D02*
X181151142Y-92201819D01*
X181389237Y-91154200D02*
X181627332Y-91868485D01*
X181627332Y-91868485D02*
X181008285Y-91868485D01*
X137254819Y-115568452D02*
X136778628Y-115235119D01*
X137254819Y-114997024D02*
X136254819Y-114997024D01*
X136254819Y-114997024D02*
X136254819Y-115377976D01*
X136254819Y-115377976D02*
X136302438Y-115473214D01*
X136302438Y-115473214D02*
X136350057Y-115520833D01*
X136350057Y-115520833D02*
X136445295Y-115568452D01*
X136445295Y-115568452D02*
X136588152Y-115568452D01*
X136588152Y-115568452D02*
X136683390Y-115520833D01*
X136683390Y-115520833D02*
X136731009Y-115473214D01*
X136731009Y-115473214D02*
X136778628Y-115377976D01*
X136778628Y-115377976D02*
X136778628Y-114997024D01*
X136254819Y-115901786D02*
X136254819Y-116520833D01*
X136254819Y-116520833D02*
X136635771Y-116187500D01*
X136635771Y-116187500D02*
X136635771Y-116330357D01*
X136635771Y-116330357D02*
X136683390Y-116425595D01*
X136683390Y-116425595D02*
X136731009Y-116473214D01*
X136731009Y-116473214D02*
X136826247Y-116520833D01*
X136826247Y-116520833D02*
X137064342Y-116520833D01*
X137064342Y-116520833D02*
X137159580Y-116473214D01*
X137159580Y-116473214D02*
X137207200Y-116425595D01*
X137207200Y-116425595D02*
X137254819Y-116330357D01*
X137254819Y-116330357D02*
X137254819Y-116044643D01*
X137254819Y-116044643D02*
X137207200Y-115949405D01*
X137207200Y-115949405D02*
X137159580Y-115901786D01*
X136254819Y-117139881D02*
X136254819Y-117235119D01*
X136254819Y-117235119D02*
X136302438Y-117330357D01*
X136302438Y-117330357D02*
X136350057Y-117377976D01*
X136350057Y-117377976D02*
X136445295Y-117425595D01*
X136445295Y-117425595D02*
X136635771Y-117473214D01*
X136635771Y-117473214D02*
X136873866Y-117473214D01*
X136873866Y-117473214D02*
X137064342Y-117425595D01*
X137064342Y-117425595D02*
X137159580Y-117377976D01*
X137159580Y-117377976D02*
X137207200Y-117330357D01*
X137207200Y-117330357D02*
X137254819Y-117235119D01*
X137254819Y-117235119D02*
X137254819Y-117139881D01*
X137254819Y-117139881D02*
X137207200Y-117044643D01*
X137207200Y-117044643D02*
X137159580Y-116997024D01*
X137159580Y-116997024D02*
X137064342Y-116949405D01*
X137064342Y-116949405D02*
X136873866Y-116901786D01*
X136873866Y-116901786D02*
X136635771Y-116901786D01*
X136635771Y-116901786D02*
X136445295Y-116949405D01*
X136445295Y-116949405D02*
X136350057Y-116997024D01*
X136350057Y-116997024D02*
X136302438Y-117044643D01*
X136302438Y-117044643D02*
X136254819Y-117139881D01*
X137254819Y-118425595D02*
X137254819Y-117854167D01*
X137254819Y-118139881D02*
X136254819Y-118139881D01*
X136254819Y-118139881D02*
X136397676Y-118044643D01*
X136397676Y-118044643D02*
X136492914Y-117949405D01*
X136492914Y-117949405D02*
X136540533Y-117854167D01*
X130754819Y-109443452D02*
X130278628Y-109110119D01*
X130754819Y-108872024D02*
X129754819Y-108872024D01*
X129754819Y-108872024D02*
X129754819Y-109252976D01*
X129754819Y-109252976D02*
X129802438Y-109348214D01*
X129802438Y-109348214D02*
X129850057Y-109395833D01*
X129850057Y-109395833D02*
X129945295Y-109443452D01*
X129945295Y-109443452D02*
X130088152Y-109443452D01*
X130088152Y-109443452D02*
X130183390Y-109395833D01*
X130183390Y-109395833D02*
X130231009Y-109348214D01*
X130231009Y-109348214D02*
X130278628Y-109252976D01*
X130278628Y-109252976D02*
X130278628Y-108872024D01*
X129754819Y-109776786D02*
X129754819Y-110395833D01*
X129754819Y-110395833D02*
X130135771Y-110062500D01*
X130135771Y-110062500D02*
X130135771Y-110205357D01*
X130135771Y-110205357D02*
X130183390Y-110300595D01*
X130183390Y-110300595D02*
X130231009Y-110348214D01*
X130231009Y-110348214D02*
X130326247Y-110395833D01*
X130326247Y-110395833D02*
X130564342Y-110395833D01*
X130564342Y-110395833D02*
X130659580Y-110348214D01*
X130659580Y-110348214D02*
X130707200Y-110300595D01*
X130707200Y-110300595D02*
X130754819Y-110205357D01*
X130754819Y-110205357D02*
X130754819Y-109919643D01*
X130754819Y-109919643D02*
X130707200Y-109824405D01*
X130707200Y-109824405D02*
X130659580Y-109776786D01*
X129754819Y-111014881D02*
X129754819Y-111110119D01*
X129754819Y-111110119D02*
X129802438Y-111205357D01*
X129802438Y-111205357D02*
X129850057Y-111252976D01*
X129850057Y-111252976D02*
X129945295Y-111300595D01*
X129945295Y-111300595D02*
X130135771Y-111348214D01*
X130135771Y-111348214D02*
X130373866Y-111348214D01*
X130373866Y-111348214D02*
X130564342Y-111300595D01*
X130564342Y-111300595D02*
X130659580Y-111252976D01*
X130659580Y-111252976D02*
X130707200Y-111205357D01*
X130707200Y-111205357D02*
X130754819Y-111110119D01*
X130754819Y-111110119D02*
X130754819Y-111014881D01*
X130754819Y-111014881D02*
X130707200Y-110919643D01*
X130707200Y-110919643D02*
X130659580Y-110872024D01*
X130659580Y-110872024D02*
X130564342Y-110824405D01*
X130564342Y-110824405D02*
X130373866Y-110776786D01*
X130373866Y-110776786D02*
X130135771Y-110776786D01*
X130135771Y-110776786D02*
X129945295Y-110824405D01*
X129945295Y-110824405D02*
X129850057Y-110872024D01*
X129850057Y-110872024D02*
X129802438Y-110919643D01*
X129802438Y-110919643D02*
X129754819Y-111014881D01*
X129850057Y-111729167D02*
X129802438Y-111776786D01*
X129802438Y-111776786D02*
X129754819Y-111872024D01*
X129754819Y-111872024D02*
X129754819Y-112110119D01*
X129754819Y-112110119D02*
X129802438Y-112205357D01*
X129802438Y-112205357D02*
X129850057Y-112252976D01*
X129850057Y-112252976D02*
X129945295Y-112300595D01*
X129945295Y-112300595D02*
X130040533Y-112300595D01*
X130040533Y-112300595D02*
X130183390Y-112252976D01*
X130183390Y-112252976D02*
X130754819Y-111681548D01*
X130754819Y-111681548D02*
X130754819Y-112300595D01*
X140204819Y-112518452D02*
X139728628Y-112185119D01*
X140204819Y-111947024D02*
X139204819Y-111947024D01*
X139204819Y-111947024D02*
X139204819Y-112327976D01*
X139204819Y-112327976D02*
X139252438Y-112423214D01*
X139252438Y-112423214D02*
X139300057Y-112470833D01*
X139300057Y-112470833D02*
X139395295Y-112518452D01*
X139395295Y-112518452D02*
X139538152Y-112518452D01*
X139538152Y-112518452D02*
X139633390Y-112470833D01*
X139633390Y-112470833D02*
X139681009Y-112423214D01*
X139681009Y-112423214D02*
X139728628Y-112327976D01*
X139728628Y-112327976D02*
X139728628Y-111947024D01*
X139204819Y-112851786D02*
X139204819Y-113470833D01*
X139204819Y-113470833D02*
X139585771Y-113137500D01*
X139585771Y-113137500D02*
X139585771Y-113280357D01*
X139585771Y-113280357D02*
X139633390Y-113375595D01*
X139633390Y-113375595D02*
X139681009Y-113423214D01*
X139681009Y-113423214D02*
X139776247Y-113470833D01*
X139776247Y-113470833D02*
X140014342Y-113470833D01*
X140014342Y-113470833D02*
X140109580Y-113423214D01*
X140109580Y-113423214D02*
X140157200Y-113375595D01*
X140157200Y-113375595D02*
X140204819Y-113280357D01*
X140204819Y-113280357D02*
X140204819Y-112994643D01*
X140204819Y-112994643D02*
X140157200Y-112899405D01*
X140157200Y-112899405D02*
X140109580Y-112851786D01*
X139204819Y-114089881D02*
X139204819Y-114185119D01*
X139204819Y-114185119D02*
X139252438Y-114280357D01*
X139252438Y-114280357D02*
X139300057Y-114327976D01*
X139300057Y-114327976D02*
X139395295Y-114375595D01*
X139395295Y-114375595D02*
X139585771Y-114423214D01*
X139585771Y-114423214D02*
X139823866Y-114423214D01*
X139823866Y-114423214D02*
X140014342Y-114375595D01*
X140014342Y-114375595D02*
X140109580Y-114327976D01*
X140109580Y-114327976D02*
X140157200Y-114280357D01*
X140157200Y-114280357D02*
X140204819Y-114185119D01*
X140204819Y-114185119D02*
X140204819Y-114089881D01*
X140204819Y-114089881D02*
X140157200Y-113994643D01*
X140157200Y-113994643D02*
X140109580Y-113947024D01*
X140109580Y-113947024D02*
X140014342Y-113899405D01*
X140014342Y-113899405D02*
X139823866Y-113851786D01*
X139823866Y-113851786D02*
X139585771Y-113851786D01*
X139585771Y-113851786D02*
X139395295Y-113899405D01*
X139395295Y-113899405D02*
X139300057Y-113947024D01*
X139300057Y-113947024D02*
X139252438Y-113994643D01*
X139252438Y-113994643D02*
X139204819Y-114089881D01*
X139204819Y-114756548D02*
X139204819Y-115375595D01*
X139204819Y-115375595D02*
X139585771Y-115042262D01*
X139585771Y-115042262D02*
X139585771Y-115185119D01*
X139585771Y-115185119D02*
X139633390Y-115280357D01*
X139633390Y-115280357D02*
X139681009Y-115327976D01*
X139681009Y-115327976D02*
X139776247Y-115375595D01*
X139776247Y-115375595D02*
X140014342Y-115375595D01*
X140014342Y-115375595D02*
X140109580Y-115327976D01*
X140109580Y-115327976D02*
X140157200Y-115280357D01*
X140157200Y-115280357D02*
X140204819Y-115185119D01*
X140204819Y-115185119D02*
X140204819Y-114899405D01*
X140204819Y-114899405D02*
X140157200Y-114804167D01*
X140157200Y-114804167D02*
X140109580Y-114756548D01*
D11*
%TO.C,C201*%
X183088748Y-132165000D02*
X183611252Y-132165000D01*
X183088748Y-133635000D02*
X183611252Y-133635000D01*
%TO.C,C202*%
X170288748Y-132065000D02*
X170811252Y-132065000D01*
X170288748Y-133535000D02*
X170811252Y-133535000D01*
%TO.C,C203*%
X158138748Y-132065000D02*
X158661252Y-132065000D01*
X158138748Y-133535000D02*
X158661252Y-133535000D01*
%TO.C,C204*%
X146588748Y-132165000D02*
X147111252Y-132165000D01*
X146588748Y-133635000D02*
X147111252Y-133635000D01*
%TO.C,C205*%
X134388748Y-132165000D02*
X134911252Y-132165000D01*
X134388748Y-133635000D02*
X134911252Y-133635000D01*
%TO.C,C206*%
X121938748Y-132465000D02*
X122461252Y-132465000D01*
X121938748Y-133935000D02*
X122461252Y-133935000D01*
%TO.C,C207*%
X183088748Y-128265000D02*
X183611252Y-128265000D01*
X183088748Y-129735000D02*
X183611252Y-129735000D01*
%TO.C,C208*%
X170288748Y-128365000D02*
X170811252Y-128365000D01*
X170288748Y-129835000D02*
X170811252Y-129835000D01*
%TO.C,C209*%
X158088748Y-128365000D02*
X158611252Y-128365000D01*
X158088748Y-129835000D02*
X158611252Y-129835000D01*
%TO.C,C210*%
X146538748Y-128365000D02*
X147061252Y-128365000D01*
X146538748Y-129835000D02*
X147061252Y-129835000D01*
%TO.C,C211*%
X134338748Y-128365000D02*
X134861252Y-128365000D01*
X134338748Y-129835000D02*
X134861252Y-129835000D01*
%TO.C,C212*%
X121938748Y-128365000D02*
X122461252Y-128365000D01*
X121938748Y-129835000D02*
X122461252Y-129835000D01*
%TO.C,C403*%
X134415000Y-112911252D02*
X134415000Y-112388748D01*
X135885000Y-112911252D02*
X135885000Y-112388748D01*
%TO.C,C503*%
X183005252Y-89302000D02*
X182482748Y-89302000D01*
X183005252Y-90772000D02*
X182482748Y-90772000D01*
%TO.C,C504*%
X183055252Y-92692000D02*
X182532748Y-92692000D01*
X183055252Y-94162000D02*
X182532748Y-94162000D01*
%TO.C,R301*%
X134415000Y-116914564D02*
X134415000Y-116460436D01*
X135885000Y-116914564D02*
X135885000Y-116460436D01*
%TO.C,R302*%
X131215000Y-110335436D02*
X131215000Y-110789564D01*
X132685000Y-110335436D02*
X132685000Y-110789564D01*
%TO.C,R303*%
X140665000Y-113410436D02*
X140665000Y-113864564D01*
X142135000Y-113410436D02*
X142135000Y-113864564D01*
%TD*%
M02*
