%TF.GenerationSoftware,KiCad,Pcbnew,8.0.2*%
%TF.CreationDate,2024-06-03T14:24:13+01:00*%
%TF.ProjectId,GfxFPGAV2,47667846-5047-4415-9632-2e6b69636164,rev?*%
%TF.SameCoordinates,Original*%
%TF.FileFunction,Legend,Top*%
%TF.FilePolarity,Positive*%
%FSLAX46Y46*%
G04 Gerber Fmt 4.6, Leading zero omitted, Abs format (unit mm)*
G04 Created by KiCad (PCBNEW 8.0.2) date 2024-06-03 14:24:13*
%MOMM*%
%LPD*%
G01*
G04 APERTURE LIST*
%ADD10C,0.150000*%
%ADD11C,0.400000*%
%ADD12C,0.254000*%
%ADD13C,0.120293*%
%ADD14C,0.120000*%
%ADD15C,0.127000*%
%ADD16C,0.200000*%
%ADD17C,0.250000*%
G04 APERTURE END LIST*
D10*
X175654819Y-68806077D02*
X175654819Y-68234649D01*
X176654819Y-68520363D02*
X175654819Y-68520363D01*
X176559580Y-67329887D02*
X176607200Y-67377506D01*
X176607200Y-67377506D02*
X176654819Y-67520363D01*
X176654819Y-67520363D02*
X176654819Y-67615601D01*
X176654819Y-67615601D02*
X176607200Y-67758458D01*
X176607200Y-67758458D02*
X176511961Y-67853696D01*
X176511961Y-67853696D02*
X176416723Y-67901315D01*
X176416723Y-67901315D02*
X176226247Y-67948934D01*
X176226247Y-67948934D02*
X176083390Y-67948934D01*
X176083390Y-67948934D02*
X175892914Y-67901315D01*
X175892914Y-67901315D02*
X175797676Y-67853696D01*
X175797676Y-67853696D02*
X175702438Y-67758458D01*
X175702438Y-67758458D02*
X175654819Y-67615601D01*
X175654819Y-67615601D02*
X175654819Y-67520363D01*
X175654819Y-67520363D02*
X175702438Y-67377506D01*
X175702438Y-67377506D02*
X175750057Y-67329887D01*
X176654819Y-66901315D02*
X175654819Y-66901315D01*
X176654819Y-66329887D02*
X176083390Y-66758458D01*
X175654819Y-66329887D02*
X176226247Y-66901315D01*
D11*
X103904438Y-73666666D02*
X105904438Y-73000000D01*
X105904438Y-73000000D02*
X103904438Y-72333333D01*
X105904438Y-71666666D02*
X103904438Y-71666666D01*
X103904438Y-71666666D02*
X103904438Y-71190476D01*
X103904438Y-71190476D02*
X103999676Y-70904761D01*
X103999676Y-70904761D02*
X104190152Y-70714285D01*
X104190152Y-70714285D02*
X104380628Y-70619047D01*
X104380628Y-70619047D02*
X104761580Y-70523809D01*
X104761580Y-70523809D02*
X105047295Y-70523809D01*
X105047295Y-70523809D02*
X105428247Y-70619047D01*
X105428247Y-70619047D02*
X105618723Y-70714285D01*
X105618723Y-70714285D02*
X105809200Y-70904761D01*
X105809200Y-70904761D02*
X105904438Y-71190476D01*
X105904438Y-71190476D02*
X105904438Y-71666666D01*
X105904438Y-69666666D02*
X103904438Y-69666666D01*
X103904438Y-69666666D02*
X103904438Y-68904761D01*
X103904438Y-68904761D02*
X103999676Y-68714285D01*
X103999676Y-68714285D02*
X104094914Y-68619047D01*
X104094914Y-68619047D02*
X104285390Y-68523809D01*
X104285390Y-68523809D02*
X104571104Y-68523809D01*
X104571104Y-68523809D02*
X104761580Y-68619047D01*
X104761580Y-68619047D02*
X104856819Y-68714285D01*
X104856819Y-68714285D02*
X104952057Y-68904761D01*
X104952057Y-68904761D02*
X104952057Y-69666666D01*
X105142533Y-67666666D02*
X105142533Y-66142857D01*
X104856819Y-64523809D02*
X104856819Y-65190476D01*
X105904438Y-65190476D02*
X103904438Y-65190476D01*
X103904438Y-65190476D02*
X103904438Y-64238095D01*
X105904438Y-63476190D02*
X103904438Y-63476190D01*
X103904438Y-63476190D02*
X103904438Y-62714285D01*
X103904438Y-62714285D02*
X103999676Y-62523809D01*
X103999676Y-62523809D02*
X104094914Y-62428571D01*
X104094914Y-62428571D02*
X104285390Y-62333333D01*
X104285390Y-62333333D02*
X104571104Y-62333333D01*
X104571104Y-62333333D02*
X104761580Y-62428571D01*
X104761580Y-62428571D02*
X104856819Y-62523809D01*
X104856819Y-62523809D02*
X104952057Y-62714285D01*
X104952057Y-62714285D02*
X104952057Y-63476190D01*
X103999676Y-60428571D02*
X103904438Y-60619047D01*
X103904438Y-60619047D02*
X103904438Y-60904761D01*
X103904438Y-60904761D02*
X103999676Y-61190476D01*
X103999676Y-61190476D02*
X104190152Y-61380952D01*
X104190152Y-61380952D02*
X104380628Y-61476190D01*
X104380628Y-61476190D02*
X104761580Y-61571428D01*
X104761580Y-61571428D02*
X105047295Y-61571428D01*
X105047295Y-61571428D02*
X105428247Y-61476190D01*
X105428247Y-61476190D02*
X105618723Y-61380952D01*
X105618723Y-61380952D02*
X105809200Y-61190476D01*
X105809200Y-61190476D02*
X105904438Y-60904761D01*
X105904438Y-60904761D02*
X105904438Y-60714285D01*
X105904438Y-60714285D02*
X105809200Y-60428571D01*
X105809200Y-60428571D02*
X105713961Y-60333333D01*
X105713961Y-60333333D02*
X105047295Y-60333333D01*
X105047295Y-60333333D02*
X105047295Y-60714285D01*
X105333009Y-59571428D02*
X105333009Y-58619047D01*
X105904438Y-59761904D02*
X103904438Y-59095238D01*
X103904438Y-59095238D02*
X105904438Y-58428571D01*
X105142533Y-57761904D02*
X105142533Y-56238095D01*
X103904438Y-55571428D02*
X105904438Y-54904762D01*
X105904438Y-54904762D02*
X103904438Y-54238095D01*
X104094914Y-53666666D02*
X103999676Y-53571428D01*
X103999676Y-53571428D02*
X103904438Y-53380952D01*
X103904438Y-53380952D02*
X103904438Y-52904761D01*
X103904438Y-52904761D02*
X103999676Y-52714285D01*
X103999676Y-52714285D02*
X104094914Y-52619047D01*
X104094914Y-52619047D02*
X104285390Y-52523809D01*
X104285390Y-52523809D02*
X104475866Y-52523809D01*
X104475866Y-52523809D02*
X104761580Y-52619047D01*
X104761580Y-52619047D02*
X105904438Y-53761904D01*
X105904438Y-53761904D02*
X105904438Y-52523809D01*
D10*
X180454819Y-68806077D02*
X180454819Y-68234649D01*
X181454819Y-68520363D02*
X180454819Y-68520363D01*
X181454819Y-67901315D02*
X180454819Y-67901315D01*
X180454819Y-67901315D02*
X180454819Y-67663220D01*
X180454819Y-67663220D02*
X180502438Y-67520363D01*
X180502438Y-67520363D02*
X180597676Y-67425125D01*
X180597676Y-67425125D02*
X180692914Y-67377506D01*
X180692914Y-67377506D02*
X180883390Y-67329887D01*
X180883390Y-67329887D02*
X181026247Y-67329887D01*
X181026247Y-67329887D02*
X181216723Y-67377506D01*
X181216723Y-67377506D02*
X181311961Y-67425125D01*
X181311961Y-67425125D02*
X181407200Y-67520363D01*
X181407200Y-67520363D02*
X181454819Y-67663220D01*
X181454819Y-67663220D02*
X181454819Y-67901315D01*
X180454819Y-66710839D02*
X180454819Y-66520363D01*
X180454819Y-66520363D02*
X180502438Y-66425125D01*
X180502438Y-66425125D02*
X180597676Y-66329887D01*
X180597676Y-66329887D02*
X180788152Y-66282268D01*
X180788152Y-66282268D02*
X181121485Y-66282268D01*
X181121485Y-66282268D02*
X181311961Y-66329887D01*
X181311961Y-66329887D02*
X181407200Y-66425125D01*
X181407200Y-66425125D02*
X181454819Y-66520363D01*
X181454819Y-66520363D02*
X181454819Y-66710839D01*
X181454819Y-66710839D02*
X181407200Y-66806077D01*
X181407200Y-66806077D02*
X181311961Y-66901315D01*
X181311961Y-66901315D02*
X181121485Y-66948934D01*
X181121485Y-66948934D02*
X180788152Y-66948934D01*
X180788152Y-66948934D02*
X180597676Y-66901315D01*
X180597676Y-66901315D02*
X180502438Y-66806077D01*
X180502438Y-66806077D02*
X180454819Y-66710839D01*
X172954819Y-68758458D02*
X172954819Y-68139411D01*
X172954819Y-68139411D02*
X173335771Y-68472744D01*
X173335771Y-68472744D02*
X173335771Y-68329887D01*
X173335771Y-68329887D02*
X173383390Y-68234649D01*
X173383390Y-68234649D02*
X173431009Y-68187030D01*
X173431009Y-68187030D02*
X173526247Y-68139411D01*
X173526247Y-68139411D02*
X173764342Y-68139411D01*
X173764342Y-68139411D02*
X173859580Y-68187030D01*
X173859580Y-68187030D02*
X173907200Y-68234649D01*
X173907200Y-68234649D02*
X173954819Y-68329887D01*
X173954819Y-68329887D02*
X173954819Y-68615601D01*
X173954819Y-68615601D02*
X173907200Y-68710839D01*
X173907200Y-68710839D02*
X173859580Y-68758458D01*
X172954819Y-67853696D02*
X173954819Y-67520363D01*
X173954819Y-67520363D02*
X172954819Y-67187030D01*
X172954819Y-66948934D02*
X172954819Y-66329887D01*
X172954819Y-66329887D02*
X173335771Y-66663220D01*
X173335771Y-66663220D02*
X173335771Y-66520363D01*
X173335771Y-66520363D02*
X173383390Y-66425125D01*
X173383390Y-66425125D02*
X173431009Y-66377506D01*
X173431009Y-66377506D02*
X173526247Y-66329887D01*
X173526247Y-66329887D02*
X173764342Y-66329887D01*
X173764342Y-66329887D02*
X173859580Y-66377506D01*
X173859580Y-66377506D02*
X173907200Y-66425125D01*
X173907200Y-66425125D02*
X173954819Y-66520363D01*
X173954819Y-66520363D02*
X173954819Y-66806077D01*
X173954819Y-66806077D02*
X173907200Y-66901315D01*
X173907200Y-66901315D02*
X173859580Y-66948934D01*
X177954819Y-68806077D02*
X177954819Y-68234649D01*
X178954819Y-68520363D02*
X177954819Y-68520363D01*
X178954819Y-67901315D02*
X177954819Y-67901315D01*
X177954819Y-67901315D02*
X177954819Y-67663220D01*
X177954819Y-67663220D02*
X178002438Y-67520363D01*
X178002438Y-67520363D02*
X178097676Y-67425125D01*
X178097676Y-67425125D02*
X178192914Y-67377506D01*
X178192914Y-67377506D02*
X178383390Y-67329887D01*
X178383390Y-67329887D02*
X178526247Y-67329887D01*
X178526247Y-67329887D02*
X178716723Y-67377506D01*
X178716723Y-67377506D02*
X178811961Y-67425125D01*
X178811961Y-67425125D02*
X178907200Y-67520363D01*
X178907200Y-67520363D02*
X178954819Y-67663220D01*
X178954819Y-67663220D02*
X178954819Y-67901315D01*
X178954819Y-66901315D02*
X177954819Y-66901315D01*
X186002438Y-68139411D02*
X185954819Y-68234649D01*
X185954819Y-68234649D02*
X185954819Y-68377506D01*
X185954819Y-68377506D02*
X186002438Y-68520363D01*
X186002438Y-68520363D02*
X186097676Y-68615601D01*
X186097676Y-68615601D02*
X186192914Y-68663220D01*
X186192914Y-68663220D02*
X186383390Y-68710839D01*
X186383390Y-68710839D02*
X186526247Y-68710839D01*
X186526247Y-68710839D02*
X186716723Y-68663220D01*
X186716723Y-68663220D02*
X186811961Y-68615601D01*
X186811961Y-68615601D02*
X186907200Y-68520363D01*
X186907200Y-68520363D02*
X186954819Y-68377506D01*
X186954819Y-68377506D02*
X186954819Y-68282268D01*
X186954819Y-68282268D02*
X186907200Y-68139411D01*
X186907200Y-68139411D02*
X186859580Y-68091792D01*
X186859580Y-68091792D02*
X186526247Y-68091792D01*
X186526247Y-68091792D02*
X186526247Y-68282268D01*
X186954819Y-67663220D02*
X185954819Y-67663220D01*
X185954819Y-67663220D02*
X186954819Y-67091792D01*
X186954819Y-67091792D02*
X185954819Y-67091792D01*
X186954819Y-66615601D02*
X185954819Y-66615601D01*
X185954819Y-66615601D02*
X185954819Y-66377506D01*
X185954819Y-66377506D02*
X186002438Y-66234649D01*
X186002438Y-66234649D02*
X186097676Y-66139411D01*
X186097676Y-66139411D02*
X186192914Y-66091792D01*
X186192914Y-66091792D02*
X186383390Y-66044173D01*
X186383390Y-66044173D02*
X186526247Y-66044173D01*
X186526247Y-66044173D02*
X186716723Y-66091792D01*
X186716723Y-66091792D02*
X186811961Y-66139411D01*
X186811961Y-66139411D02*
X186907200Y-66234649D01*
X186907200Y-66234649D02*
X186954819Y-66377506D01*
X186954819Y-66377506D02*
X186954819Y-66615601D01*
X182954819Y-68806077D02*
X182954819Y-68234649D01*
X183954819Y-68520363D02*
X182954819Y-68520363D01*
X183954819Y-67901315D02*
X182954819Y-67901315D01*
X182954819Y-67901315D02*
X183669104Y-67567982D01*
X183669104Y-67567982D02*
X182954819Y-67234649D01*
X182954819Y-67234649D02*
X183954819Y-67234649D01*
X183907200Y-66806077D02*
X183954819Y-66663220D01*
X183954819Y-66663220D02*
X183954819Y-66425125D01*
X183954819Y-66425125D02*
X183907200Y-66329887D01*
X183907200Y-66329887D02*
X183859580Y-66282268D01*
X183859580Y-66282268D02*
X183764342Y-66234649D01*
X183764342Y-66234649D02*
X183669104Y-66234649D01*
X183669104Y-66234649D02*
X183573866Y-66282268D01*
X183573866Y-66282268D02*
X183526247Y-66329887D01*
X183526247Y-66329887D02*
X183478628Y-66425125D01*
X183478628Y-66425125D02*
X183431009Y-66615601D01*
X183431009Y-66615601D02*
X183383390Y-66710839D01*
X183383390Y-66710839D02*
X183335771Y-66758458D01*
X183335771Y-66758458D02*
X183240533Y-66806077D01*
X183240533Y-66806077D02*
X183145295Y-66806077D01*
X183145295Y-66806077D02*
X183050057Y-66758458D01*
X183050057Y-66758458D02*
X183002438Y-66710839D01*
X183002438Y-66710839D02*
X182954819Y-66615601D01*
X182954819Y-66615601D02*
X182954819Y-66377506D01*
X182954819Y-66377506D02*
X183002438Y-66234649D01*
X109024952Y-120766580D02*
X108977333Y-120814200D01*
X108977333Y-120814200D02*
X108834476Y-120861819D01*
X108834476Y-120861819D02*
X108739238Y-120861819D01*
X108739238Y-120861819D02*
X108596381Y-120814200D01*
X108596381Y-120814200D02*
X108501143Y-120718961D01*
X108501143Y-120718961D02*
X108453524Y-120623723D01*
X108453524Y-120623723D02*
X108405905Y-120433247D01*
X108405905Y-120433247D02*
X108405905Y-120290390D01*
X108405905Y-120290390D02*
X108453524Y-120099914D01*
X108453524Y-120099914D02*
X108501143Y-120004676D01*
X108501143Y-120004676D02*
X108596381Y-119909438D01*
X108596381Y-119909438D02*
X108739238Y-119861819D01*
X108739238Y-119861819D02*
X108834476Y-119861819D01*
X108834476Y-119861819D02*
X108977333Y-119909438D01*
X108977333Y-119909438D02*
X109024952Y-119957057D01*
X109977333Y-120861819D02*
X109405905Y-120861819D01*
X109691619Y-120861819D02*
X109691619Y-119861819D01*
X109691619Y-119861819D02*
X109596381Y-120004676D01*
X109596381Y-120004676D02*
X109501143Y-120099914D01*
X109501143Y-120099914D02*
X109405905Y-120147533D01*
X110596381Y-119861819D02*
X110691619Y-119861819D01*
X110691619Y-119861819D02*
X110786857Y-119909438D01*
X110786857Y-119909438D02*
X110834476Y-119957057D01*
X110834476Y-119957057D02*
X110882095Y-120052295D01*
X110882095Y-120052295D02*
X110929714Y-120242771D01*
X110929714Y-120242771D02*
X110929714Y-120480866D01*
X110929714Y-120480866D02*
X110882095Y-120671342D01*
X110882095Y-120671342D02*
X110834476Y-120766580D01*
X110834476Y-120766580D02*
X110786857Y-120814200D01*
X110786857Y-120814200D02*
X110691619Y-120861819D01*
X110691619Y-120861819D02*
X110596381Y-120861819D01*
X110596381Y-120861819D02*
X110501143Y-120814200D01*
X110501143Y-120814200D02*
X110453524Y-120766580D01*
X110453524Y-120766580D02*
X110405905Y-120671342D01*
X110405905Y-120671342D02*
X110358286Y-120480866D01*
X110358286Y-120480866D02*
X110358286Y-120242771D01*
X110358286Y-120242771D02*
X110405905Y-120052295D01*
X110405905Y-120052295D02*
X110453524Y-119957057D01*
X110453524Y-119957057D02*
X110501143Y-119909438D01*
X110501143Y-119909438D02*
X110596381Y-119861819D01*
X111882095Y-120861819D02*
X111310667Y-120861819D01*
X111596381Y-120861819D02*
X111596381Y-119861819D01*
X111596381Y-119861819D02*
X111501143Y-120004676D01*
X111501143Y-120004676D02*
X111405905Y-120099914D01*
X111405905Y-120099914D02*
X111310667Y-120147533D01*
X104280952Y-138279580D02*
X104233333Y-138327200D01*
X104233333Y-138327200D02*
X104090476Y-138374819D01*
X104090476Y-138374819D02*
X103995238Y-138374819D01*
X103995238Y-138374819D02*
X103852381Y-138327200D01*
X103852381Y-138327200D02*
X103757143Y-138231961D01*
X103757143Y-138231961D02*
X103709524Y-138136723D01*
X103709524Y-138136723D02*
X103661905Y-137946247D01*
X103661905Y-137946247D02*
X103661905Y-137803390D01*
X103661905Y-137803390D02*
X103709524Y-137612914D01*
X103709524Y-137612914D02*
X103757143Y-137517676D01*
X103757143Y-137517676D02*
X103852381Y-137422438D01*
X103852381Y-137422438D02*
X103995238Y-137374819D01*
X103995238Y-137374819D02*
X104090476Y-137374819D01*
X104090476Y-137374819D02*
X104233333Y-137422438D01*
X104233333Y-137422438D02*
X104280952Y-137470057D01*
X105233333Y-138374819D02*
X104661905Y-138374819D01*
X104947619Y-138374819D02*
X104947619Y-137374819D01*
X104947619Y-137374819D02*
X104852381Y-137517676D01*
X104852381Y-137517676D02*
X104757143Y-137612914D01*
X104757143Y-137612914D02*
X104661905Y-137660533D01*
X105852381Y-137374819D02*
X105947619Y-137374819D01*
X105947619Y-137374819D02*
X106042857Y-137422438D01*
X106042857Y-137422438D02*
X106090476Y-137470057D01*
X106090476Y-137470057D02*
X106138095Y-137565295D01*
X106138095Y-137565295D02*
X106185714Y-137755771D01*
X106185714Y-137755771D02*
X106185714Y-137993866D01*
X106185714Y-137993866D02*
X106138095Y-138184342D01*
X106138095Y-138184342D02*
X106090476Y-138279580D01*
X106090476Y-138279580D02*
X106042857Y-138327200D01*
X106042857Y-138327200D02*
X105947619Y-138374819D01*
X105947619Y-138374819D02*
X105852381Y-138374819D01*
X105852381Y-138374819D02*
X105757143Y-138327200D01*
X105757143Y-138327200D02*
X105709524Y-138279580D01*
X105709524Y-138279580D02*
X105661905Y-138184342D01*
X105661905Y-138184342D02*
X105614286Y-137993866D01*
X105614286Y-137993866D02*
X105614286Y-137755771D01*
X105614286Y-137755771D02*
X105661905Y-137565295D01*
X105661905Y-137565295D02*
X105709524Y-137470057D01*
X105709524Y-137470057D02*
X105757143Y-137422438D01*
X105757143Y-137422438D02*
X105852381Y-137374819D01*
X106566667Y-137470057D02*
X106614286Y-137422438D01*
X106614286Y-137422438D02*
X106709524Y-137374819D01*
X106709524Y-137374819D02*
X106947619Y-137374819D01*
X106947619Y-137374819D02*
X107042857Y-137422438D01*
X107042857Y-137422438D02*
X107090476Y-137470057D01*
X107090476Y-137470057D02*
X107138095Y-137565295D01*
X107138095Y-137565295D02*
X107138095Y-137660533D01*
X107138095Y-137660533D02*
X107090476Y-137803390D01*
X107090476Y-137803390D02*
X106519048Y-138374819D01*
X106519048Y-138374819D02*
X107138095Y-138374819D01*
X104530952Y-124079580D02*
X104483333Y-124127200D01*
X104483333Y-124127200D02*
X104340476Y-124174819D01*
X104340476Y-124174819D02*
X104245238Y-124174819D01*
X104245238Y-124174819D02*
X104102381Y-124127200D01*
X104102381Y-124127200D02*
X104007143Y-124031961D01*
X104007143Y-124031961D02*
X103959524Y-123936723D01*
X103959524Y-123936723D02*
X103911905Y-123746247D01*
X103911905Y-123746247D02*
X103911905Y-123603390D01*
X103911905Y-123603390D02*
X103959524Y-123412914D01*
X103959524Y-123412914D02*
X104007143Y-123317676D01*
X104007143Y-123317676D02*
X104102381Y-123222438D01*
X104102381Y-123222438D02*
X104245238Y-123174819D01*
X104245238Y-123174819D02*
X104340476Y-123174819D01*
X104340476Y-123174819D02*
X104483333Y-123222438D01*
X104483333Y-123222438D02*
X104530952Y-123270057D01*
X105483333Y-124174819D02*
X104911905Y-124174819D01*
X105197619Y-124174819D02*
X105197619Y-123174819D01*
X105197619Y-123174819D02*
X105102381Y-123317676D01*
X105102381Y-123317676D02*
X105007143Y-123412914D01*
X105007143Y-123412914D02*
X104911905Y-123460533D01*
X106102381Y-123174819D02*
X106197619Y-123174819D01*
X106197619Y-123174819D02*
X106292857Y-123222438D01*
X106292857Y-123222438D02*
X106340476Y-123270057D01*
X106340476Y-123270057D02*
X106388095Y-123365295D01*
X106388095Y-123365295D02*
X106435714Y-123555771D01*
X106435714Y-123555771D02*
X106435714Y-123793866D01*
X106435714Y-123793866D02*
X106388095Y-123984342D01*
X106388095Y-123984342D02*
X106340476Y-124079580D01*
X106340476Y-124079580D02*
X106292857Y-124127200D01*
X106292857Y-124127200D02*
X106197619Y-124174819D01*
X106197619Y-124174819D02*
X106102381Y-124174819D01*
X106102381Y-124174819D02*
X106007143Y-124127200D01*
X106007143Y-124127200D02*
X105959524Y-124079580D01*
X105959524Y-124079580D02*
X105911905Y-123984342D01*
X105911905Y-123984342D02*
X105864286Y-123793866D01*
X105864286Y-123793866D02*
X105864286Y-123555771D01*
X105864286Y-123555771D02*
X105911905Y-123365295D01*
X105911905Y-123365295D02*
X105959524Y-123270057D01*
X105959524Y-123270057D02*
X106007143Y-123222438D01*
X106007143Y-123222438D02*
X106102381Y-123174819D01*
X107292857Y-123508152D02*
X107292857Y-124174819D01*
X107054762Y-123127200D02*
X106816667Y-123841485D01*
X106816667Y-123841485D02*
X107435714Y-123841485D01*
X120003580Y-107446047D02*
X120051200Y-107493666D01*
X120051200Y-107493666D02*
X120098819Y-107636523D01*
X120098819Y-107636523D02*
X120098819Y-107731761D01*
X120098819Y-107731761D02*
X120051200Y-107874618D01*
X120051200Y-107874618D02*
X119955961Y-107969856D01*
X119955961Y-107969856D02*
X119860723Y-108017475D01*
X119860723Y-108017475D02*
X119670247Y-108065094D01*
X119670247Y-108065094D02*
X119527390Y-108065094D01*
X119527390Y-108065094D02*
X119336914Y-108017475D01*
X119336914Y-108017475D02*
X119241676Y-107969856D01*
X119241676Y-107969856D02*
X119146438Y-107874618D01*
X119146438Y-107874618D02*
X119098819Y-107731761D01*
X119098819Y-107731761D02*
X119098819Y-107636523D01*
X119098819Y-107636523D02*
X119146438Y-107493666D01*
X119146438Y-107493666D02*
X119194057Y-107446047D01*
X120098819Y-106493666D02*
X120098819Y-107065094D01*
X120098819Y-106779380D02*
X119098819Y-106779380D01*
X119098819Y-106779380D02*
X119241676Y-106874618D01*
X119241676Y-106874618D02*
X119336914Y-106969856D01*
X119336914Y-106969856D02*
X119384533Y-107065094D01*
X119098819Y-105874618D02*
X119098819Y-105779380D01*
X119098819Y-105779380D02*
X119146438Y-105684142D01*
X119146438Y-105684142D02*
X119194057Y-105636523D01*
X119194057Y-105636523D02*
X119289295Y-105588904D01*
X119289295Y-105588904D02*
X119479771Y-105541285D01*
X119479771Y-105541285D02*
X119717866Y-105541285D01*
X119717866Y-105541285D02*
X119908342Y-105588904D01*
X119908342Y-105588904D02*
X120003580Y-105636523D01*
X120003580Y-105636523D02*
X120051200Y-105684142D01*
X120051200Y-105684142D02*
X120098819Y-105779380D01*
X120098819Y-105779380D02*
X120098819Y-105874618D01*
X120098819Y-105874618D02*
X120051200Y-105969856D01*
X120051200Y-105969856D02*
X120003580Y-106017475D01*
X120003580Y-106017475D02*
X119908342Y-106065094D01*
X119908342Y-106065094D02*
X119717866Y-106112713D01*
X119717866Y-106112713D02*
X119479771Y-106112713D01*
X119479771Y-106112713D02*
X119289295Y-106065094D01*
X119289295Y-106065094D02*
X119194057Y-106017475D01*
X119194057Y-106017475D02*
X119146438Y-105969856D01*
X119146438Y-105969856D02*
X119098819Y-105874618D01*
X119098819Y-104636523D02*
X119098819Y-105112713D01*
X119098819Y-105112713D02*
X119575009Y-105160332D01*
X119575009Y-105160332D02*
X119527390Y-105112713D01*
X119527390Y-105112713D02*
X119479771Y-105017475D01*
X119479771Y-105017475D02*
X119479771Y-104779380D01*
X119479771Y-104779380D02*
X119527390Y-104684142D01*
X119527390Y-104684142D02*
X119575009Y-104636523D01*
X119575009Y-104636523D02*
X119670247Y-104588904D01*
X119670247Y-104588904D02*
X119908342Y-104588904D01*
X119908342Y-104588904D02*
X120003580Y-104636523D01*
X120003580Y-104636523D02*
X120051200Y-104684142D01*
X120051200Y-104684142D02*
X120098819Y-104779380D01*
X120098819Y-104779380D02*
X120098819Y-105017475D01*
X120098819Y-105017475D02*
X120051200Y-105112713D01*
X120051200Y-105112713D02*
X120003580Y-105160332D01*
X186774952Y-77706580D02*
X186727333Y-77754200D01*
X186727333Y-77754200D02*
X186584476Y-77801819D01*
X186584476Y-77801819D02*
X186489238Y-77801819D01*
X186489238Y-77801819D02*
X186346381Y-77754200D01*
X186346381Y-77754200D02*
X186251143Y-77658961D01*
X186251143Y-77658961D02*
X186203524Y-77563723D01*
X186203524Y-77563723D02*
X186155905Y-77373247D01*
X186155905Y-77373247D02*
X186155905Y-77230390D01*
X186155905Y-77230390D02*
X186203524Y-77039914D01*
X186203524Y-77039914D02*
X186251143Y-76944676D01*
X186251143Y-76944676D02*
X186346381Y-76849438D01*
X186346381Y-76849438D02*
X186489238Y-76801819D01*
X186489238Y-76801819D02*
X186584476Y-76801819D01*
X186584476Y-76801819D02*
X186727333Y-76849438D01*
X186727333Y-76849438D02*
X186774952Y-76897057D01*
X187679714Y-76801819D02*
X187203524Y-76801819D01*
X187203524Y-76801819D02*
X187155905Y-77278009D01*
X187155905Y-77278009D02*
X187203524Y-77230390D01*
X187203524Y-77230390D02*
X187298762Y-77182771D01*
X187298762Y-77182771D02*
X187536857Y-77182771D01*
X187536857Y-77182771D02*
X187632095Y-77230390D01*
X187632095Y-77230390D02*
X187679714Y-77278009D01*
X187679714Y-77278009D02*
X187727333Y-77373247D01*
X187727333Y-77373247D02*
X187727333Y-77611342D01*
X187727333Y-77611342D02*
X187679714Y-77706580D01*
X187679714Y-77706580D02*
X187632095Y-77754200D01*
X187632095Y-77754200D02*
X187536857Y-77801819D01*
X187536857Y-77801819D02*
X187298762Y-77801819D01*
X187298762Y-77801819D02*
X187203524Y-77754200D01*
X187203524Y-77754200D02*
X187155905Y-77706580D01*
X188346381Y-76801819D02*
X188441619Y-76801819D01*
X188441619Y-76801819D02*
X188536857Y-76849438D01*
X188536857Y-76849438D02*
X188584476Y-76897057D01*
X188584476Y-76897057D02*
X188632095Y-76992295D01*
X188632095Y-76992295D02*
X188679714Y-77182771D01*
X188679714Y-77182771D02*
X188679714Y-77420866D01*
X188679714Y-77420866D02*
X188632095Y-77611342D01*
X188632095Y-77611342D02*
X188584476Y-77706580D01*
X188584476Y-77706580D02*
X188536857Y-77754200D01*
X188536857Y-77754200D02*
X188441619Y-77801819D01*
X188441619Y-77801819D02*
X188346381Y-77801819D01*
X188346381Y-77801819D02*
X188251143Y-77754200D01*
X188251143Y-77754200D02*
X188203524Y-77706580D01*
X188203524Y-77706580D02*
X188155905Y-77611342D01*
X188155905Y-77611342D02*
X188108286Y-77420866D01*
X188108286Y-77420866D02*
X188108286Y-77182771D01*
X188108286Y-77182771D02*
X188155905Y-76992295D01*
X188155905Y-76992295D02*
X188203524Y-76897057D01*
X188203524Y-76897057D02*
X188251143Y-76849438D01*
X188251143Y-76849438D02*
X188346381Y-76801819D01*
X189632095Y-77801819D02*
X189060667Y-77801819D01*
X189346381Y-77801819D02*
X189346381Y-76801819D01*
X189346381Y-76801819D02*
X189251143Y-76944676D01*
X189251143Y-76944676D02*
X189155905Y-77039914D01*
X189155905Y-77039914D02*
X189060667Y-77087533D01*
X186774952Y-81506580D02*
X186727333Y-81554200D01*
X186727333Y-81554200D02*
X186584476Y-81601819D01*
X186584476Y-81601819D02*
X186489238Y-81601819D01*
X186489238Y-81601819D02*
X186346381Y-81554200D01*
X186346381Y-81554200D02*
X186251143Y-81458961D01*
X186251143Y-81458961D02*
X186203524Y-81363723D01*
X186203524Y-81363723D02*
X186155905Y-81173247D01*
X186155905Y-81173247D02*
X186155905Y-81030390D01*
X186155905Y-81030390D02*
X186203524Y-80839914D01*
X186203524Y-80839914D02*
X186251143Y-80744676D01*
X186251143Y-80744676D02*
X186346381Y-80649438D01*
X186346381Y-80649438D02*
X186489238Y-80601819D01*
X186489238Y-80601819D02*
X186584476Y-80601819D01*
X186584476Y-80601819D02*
X186727333Y-80649438D01*
X186727333Y-80649438D02*
X186774952Y-80697057D01*
X187679714Y-80601819D02*
X187203524Y-80601819D01*
X187203524Y-80601819D02*
X187155905Y-81078009D01*
X187155905Y-81078009D02*
X187203524Y-81030390D01*
X187203524Y-81030390D02*
X187298762Y-80982771D01*
X187298762Y-80982771D02*
X187536857Y-80982771D01*
X187536857Y-80982771D02*
X187632095Y-81030390D01*
X187632095Y-81030390D02*
X187679714Y-81078009D01*
X187679714Y-81078009D02*
X187727333Y-81173247D01*
X187727333Y-81173247D02*
X187727333Y-81411342D01*
X187727333Y-81411342D02*
X187679714Y-81506580D01*
X187679714Y-81506580D02*
X187632095Y-81554200D01*
X187632095Y-81554200D02*
X187536857Y-81601819D01*
X187536857Y-81601819D02*
X187298762Y-81601819D01*
X187298762Y-81601819D02*
X187203524Y-81554200D01*
X187203524Y-81554200D02*
X187155905Y-81506580D01*
X188346381Y-80601819D02*
X188441619Y-80601819D01*
X188441619Y-80601819D02*
X188536857Y-80649438D01*
X188536857Y-80649438D02*
X188584476Y-80697057D01*
X188584476Y-80697057D02*
X188632095Y-80792295D01*
X188632095Y-80792295D02*
X188679714Y-80982771D01*
X188679714Y-80982771D02*
X188679714Y-81220866D01*
X188679714Y-81220866D02*
X188632095Y-81411342D01*
X188632095Y-81411342D02*
X188584476Y-81506580D01*
X188584476Y-81506580D02*
X188536857Y-81554200D01*
X188536857Y-81554200D02*
X188441619Y-81601819D01*
X188441619Y-81601819D02*
X188346381Y-81601819D01*
X188346381Y-81601819D02*
X188251143Y-81554200D01*
X188251143Y-81554200D02*
X188203524Y-81506580D01*
X188203524Y-81506580D02*
X188155905Y-81411342D01*
X188155905Y-81411342D02*
X188108286Y-81220866D01*
X188108286Y-81220866D02*
X188108286Y-80982771D01*
X188108286Y-80982771D02*
X188155905Y-80792295D01*
X188155905Y-80792295D02*
X188203524Y-80697057D01*
X188203524Y-80697057D02*
X188251143Y-80649438D01*
X188251143Y-80649438D02*
X188346381Y-80601819D01*
X189060667Y-80697057D02*
X189108286Y-80649438D01*
X189108286Y-80649438D02*
X189203524Y-80601819D01*
X189203524Y-80601819D02*
X189441619Y-80601819D01*
X189441619Y-80601819D02*
X189536857Y-80649438D01*
X189536857Y-80649438D02*
X189584476Y-80697057D01*
X189584476Y-80697057D02*
X189632095Y-80792295D01*
X189632095Y-80792295D02*
X189632095Y-80887533D01*
X189632095Y-80887533D02*
X189584476Y-81030390D01*
X189584476Y-81030390D02*
X189013048Y-81601819D01*
X189013048Y-81601819D02*
X189632095Y-81601819D01*
X192770285Y-143234819D02*
X192770285Y-143949104D01*
X192770285Y-143949104D02*
X192722666Y-144091961D01*
X192722666Y-144091961D02*
X192627428Y-144187200D01*
X192627428Y-144187200D02*
X192484571Y-144234819D01*
X192484571Y-144234819D02*
X192389333Y-144234819D01*
X193770285Y-144234819D02*
X193198857Y-144234819D01*
X193484571Y-144234819D02*
X193484571Y-143234819D01*
X193484571Y-143234819D02*
X193389333Y-143377676D01*
X193389333Y-143377676D02*
X193294095Y-143472914D01*
X193294095Y-143472914D02*
X193198857Y-143520533D01*
X194389333Y-143234819D02*
X194484571Y-143234819D01*
X194484571Y-143234819D02*
X194579809Y-143282438D01*
X194579809Y-143282438D02*
X194627428Y-143330057D01*
X194627428Y-143330057D02*
X194675047Y-143425295D01*
X194675047Y-143425295D02*
X194722666Y-143615771D01*
X194722666Y-143615771D02*
X194722666Y-143853866D01*
X194722666Y-143853866D02*
X194675047Y-144044342D01*
X194675047Y-144044342D02*
X194627428Y-144139580D01*
X194627428Y-144139580D02*
X194579809Y-144187200D01*
X194579809Y-144187200D02*
X194484571Y-144234819D01*
X194484571Y-144234819D02*
X194389333Y-144234819D01*
X194389333Y-144234819D02*
X194294095Y-144187200D01*
X194294095Y-144187200D02*
X194246476Y-144139580D01*
X194246476Y-144139580D02*
X194198857Y-144044342D01*
X194198857Y-144044342D02*
X194151238Y-143853866D01*
X194151238Y-143853866D02*
X194151238Y-143615771D01*
X194151238Y-143615771D02*
X194198857Y-143425295D01*
X194198857Y-143425295D02*
X194246476Y-143330057D01*
X194246476Y-143330057D02*
X194294095Y-143282438D01*
X194294095Y-143282438D02*
X194389333Y-143234819D01*
X195675047Y-144234819D02*
X195103619Y-144234819D01*
X195389333Y-144234819D02*
X195389333Y-143234819D01*
X195389333Y-143234819D02*
X195294095Y-143377676D01*
X195294095Y-143377676D02*
X195198857Y-143472914D01*
X195198857Y-143472914D02*
X195103619Y-143520533D01*
X189454819Y-93585714D02*
X190169104Y-93585714D01*
X190169104Y-93585714D02*
X190311961Y-93633333D01*
X190311961Y-93633333D02*
X190407200Y-93728571D01*
X190407200Y-93728571D02*
X190454819Y-93871428D01*
X190454819Y-93871428D02*
X190454819Y-93966666D01*
X189454819Y-92633333D02*
X189454819Y-93109523D01*
X189454819Y-93109523D02*
X189931009Y-93157142D01*
X189931009Y-93157142D02*
X189883390Y-93109523D01*
X189883390Y-93109523D02*
X189835771Y-93014285D01*
X189835771Y-93014285D02*
X189835771Y-92776190D01*
X189835771Y-92776190D02*
X189883390Y-92680952D01*
X189883390Y-92680952D02*
X189931009Y-92633333D01*
X189931009Y-92633333D02*
X190026247Y-92585714D01*
X190026247Y-92585714D02*
X190264342Y-92585714D01*
X190264342Y-92585714D02*
X190359580Y-92633333D01*
X190359580Y-92633333D02*
X190407200Y-92680952D01*
X190407200Y-92680952D02*
X190454819Y-92776190D01*
X190454819Y-92776190D02*
X190454819Y-93014285D01*
X190454819Y-93014285D02*
X190407200Y-93109523D01*
X190407200Y-93109523D02*
X190359580Y-93157142D01*
X189454819Y-91966666D02*
X189454819Y-91871428D01*
X189454819Y-91871428D02*
X189502438Y-91776190D01*
X189502438Y-91776190D02*
X189550057Y-91728571D01*
X189550057Y-91728571D02*
X189645295Y-91680952D01*
X189645295Y-91680952D02*
X189835771Y-91633333D01*
X189835771Y-91633333D02*
X190073866Y-91633333D01*
X190073866Y-91633333D02*
X190264342Y-91680952D01*
X190264342Y-91680952D02*
X190359580Y-91728571D01*
X190359580Y-91728571D02*
X190407200Y-91776190D01*
X190407200Y-91776190D02*
X190454819Y-91871428D01*
X190454819Y-91871428D02*
X190454819Y-91966666D01*
X190454819Y-91966666D02*
X190407200Y-92061904D01*
X190407200Y-92061904D02*
X190359580Y-92109523D01*
X190359580Y-92109523D02*
X190264342Y-92157142D01*
X190264342Y-92157142D02*
X190073866Y-92204761D01*
X190073866Y-92204761D02*
X189835771Y-92204761D01*
X189835771Y-92204761D02*
X189645295Y-92157142D01*
X189645295Y-92157142D02*
X189550057Y-92109523D01*
X189550057Y-92109523D02*
X189502438Y-92061904D01*
X189502438Y-92061904D02*
X189454819Y-91966666D01*
X190454819Y-90680952D02*
X190454819Y-91252380D01*
X190454819Y-90966666D02*
X189454819Y-90966666D01*
X189454819Y-90966666D02*
X189597676Y-91061904D01*
X189597676Y-91061904D02*
X189692914Y-91157142D01*
X189692914Y-91157142D02*
X189740533Y-91252380D01*
X104474952Y-104131819D02*
X104141619Y-103655628D01*
X103903524Y-104131819D02*
X103903524Y-103131819D01*
X103903524Y-103131819D02*
X104284476Y-103131819D01*
X104284476Y-103131819D02*
X104379714Y-103179438D01*
X104379714Y-103179438D02*
X104427333Y-103227057D01*
X104427333Y-103227057D02*
X104474952Y-103322295D01*
X104474952Y-103322295D02*
X104474952Y-103465152D01*
X104474952Y-103465152D02*
X104427333Y-103560390D01*
X104427333Y-103560390D02*
X104379714Y-103608009D01*
X104379714Y-103608009D02*
X104284476Y-103655628D01*
X104284476Y-103655628D02*
X103903524Y-103655628D01*
X105427333Y-104131819D02*
X104855905Y-104131819D01*
X105141619Y-104131819D02*
X105141619Y-103131819D01*
X105141619Y-103131819D02*
X105046381Y-103274676D01*
X105046381Y-103274676D02*
X104951143Y-103369914D01*
X104951143Y-103369914D02*
X104855905Y-103417533D01*
X106046381Y-103131819D02*
X106141619Y-103131819D01*
X106141619Y-103131819D02*
X106236857Y-103179438D01*
X106236857Y-103179438D02*
X106284476Y-103227057D01*
X106284476Y-103227057D02*
X106332095Y-103322295D01*
X106332095Y-103322295D02*
X106379714Y-103512771D01*
X106379714Y-103512771D02*
X106379714Y-103750866D01*
X106379714Y-103750866D02*
X106332095Y-103941342D01*
X106332095Y-103941342D02*
X106284476Y-104036580D01*
X106284476Y-104036580D02*
X106236857Y-104084200D01*
X106236857Y-104084200D02*
X106141619Y-104131819D01*
X106141619Y-104131819D02*
X106046381Y-104131819D01*
X106046381Y-104131819D02*
X105951143Y-104084200D01*
X105951143Y-104084200D02*
X105903524Y-104036580D01*
X105903524Y-104036580D02*
X105855905Y-103941342D01*
X105855905Y-103941342D02*
X105808286Y-103750866D01*
X105808286Y-103750866D02*
X105808286Y-103512771D01*
X105808286Y-103512771D02*
X105855905Y-103322295D01*
X105855905Y-103322295D02*
X105903524Y-103227057D01*
X105903524Y-103227057D02*
X105951143Y-103179438D01*
X105951143Y-103179438D02*
X106046381Y-103131819D01*
X107332095Y-104131819D02*
X106760667Y-104131819D01*
X107046381Y-104131819D02*
X107046381Y-103131819D01*
X107046381Y-103131819D02*
X106951143Y-103274676D01*
X106951143Y-103274676D02*
X106855905Y-103369914D01*
X106855905Y-103369914D02*
X106760667Y-103417533D01*
X182512452Y-77831819D02*
X182179119Y-77355628D01*
X181941024Y-77831819D02*
X181941024Y-76831819D01*
X181941024Y-76831819D02*
X182321976Y-76831819D01*
X182321976Y-76831819D02*
X182417214Y-76879438D01*
X182417214Y-76879438D02*
X182464833Y-76927057D01*
X182464833Y-76927057D02*
X182512452Y-77022295D01*
X182512452Y-77022295D02*
X182512452Y-77165152D01*
X182512452Y-77165152D02*
X182464833Y-77260390D01*
X182464833Y-77260390D02*
X182417214Y-77308009D01*
X182417214Y-77308009D02*
X182321976Y-77355628D01*
X182321976Y-77355628D02*
X181941024Y-77355628D01*
X183417214Y-76831819D02*
X182941024Y-76831819D01*
X182941024Y-76831819D02*
X182893405Y-77308009D01*
X182893405Y-77308009D02*
X182941024Y-77260390D01*
X182941024Y-77260390D02*
X183036262Y-77212771D01*
X183036262Y-77212771D02*
X183274357Y-77212771D01*
X183274357Y-77212771D02*
X183369595Y-77260390D01*
X183369595Y-77260390D02*
X183417214Y-77308009D01*
X183417214Y-77308009D02*
X183464833Y-77403247D01*
X183464833Y-77403247D02*
X183464833Y-77641342D01*
X183464833Y-77641342D02*
X183417214Y-77736580D01*
X183417214Y-77736580D02*
X183369595Y-77784200D01*
X183369595Y-77784200D02*
X183274357Y-77831819D01*
X183274357Y-77831819D02*
X183036262Y-77831819D01*
X183036262Y-77831819D02*
X182941024Y-77784200D01*
X182941024Y-77784200D02*
X182893405Y-77736580D01*
X184083881Y-76831819D02*
X184179119Y-76831819D01*
X184179119Y-76831819D02*
X184274357Y-76879438D01*
X184274357Y-76879438D02*
X184321976Y-76927057D01*
X184321976Y-76927057D02*
X184369595Y-77022295D01*
X184369595Y-77022295D02*
X184417214Y-77212771D01*
X184417214Y-77212771D02*
X184417214Y-77450866D01*
X184417214Y-77450866D02*
X184369595Y-77641342D01*
X184369595Y-77641342D02*
X184321976Y-77736580D01*
X184321976Y-77736580D02*
X184274357Y-77784200D01*
X184274357Y-77784200D02*
X184179119Y-77831819D01*
X184179119Y-77831819D02*
X184083881Y-77831819D01*
X184083881Y-77831819D02*
X183988643Y-77784200D01*
X183988643Y-77784200D02*
X183941024Y-77736580D01*
X183941024Y-77736580D02*
X183893405Y-77641342D01*
X183893405Y-77641342D02*
X183845786Y-77450866D01*
X183845786Y-77450866D02*
X183845786Y-77212771D01*
X183845786Y-77212771D02*
X183893405Y-77022295D01*
X183893405Y-77022295D02*
X183941024Y-76927057D01*
X183941024Y-76927057D02*
X183988643Y-76879438D01*
X183988643Y-76879438D02*
X184083881Y-76831819D01*
X185369595Y-77831819D02*
X184798167Y-77831819D01*
X185083881Y-77831819D02*
X185083881Y-76831819D01*
X185083881Y-76831819D02*
X184988643Y-76974676D01*
X184988643Y-76974676D02*
X184893405Y-77069914D01*
X184893405Y-77069914D02*
X184798167Y-77117533D01*
X178549952Y-77831819D02*
X178216619Y-77355628D01*
X177978524Y-77831819D02*
X177978524Y-76831819D01*
X177978524Y-76831819D02*
X178359476Y-76831819D01*
X178359476Y-76831819D02*
X178454714Y-76879438D01*
X178454714Y-76879438D02*
X178502333Y-76927057D01*
X178502333Y-76927057D02*
X178549952Y-77022295D01*
X178549952Y-77022295D02*
X178549952Y-77165152D01*
X178549952Y-77165152D02*
X178502333Y-77260390D01*
X178502333Y-77260390D02*
X178454714Y-77308009D01*
X178454714Y-77308009D02*
X178359476Y-77355628D01*
X178359476Y-77355628D02*
X177978524Y-77355628D01*
X179454714Y-76831819D02*
X178978524Y-76831819D01*
X178978524Y-76831819D02*
X178930905Y-77308009D01*
X178930905Y-77308009D02*
X178978524Y-77260390D01*
X178978524Y-77260390D02*
X179073762Y-77212771D01*
X179073762Y-77212771D02*
X179311857Y-77212771D01*
X179311857Y-77212771D02*
X179407095Y-77260390D01*
X179407095Y-77260390D02*
X179454714Y-77308009D01*
X179454714Y-77308009D02*
X179502333Y-77403247D01*
X179502333Y-77403247D02*
X179502333Y-77641342D01*
X179502333Y-77641342D02*
X179454714Y-77736580D01*
X179454714Y-77736580D02*
X179407095Y-77784200D01*
X179407095Y-77784200D02*
X179311857Y-77831819D01*
X179311857Y-77831819D02*
X179073762Y-77831819D01*
X179073762Y-77831819D02*
X178978524Y-77784200D01*
X178978524Y-77784200D02*
X178930905Y-77736580D01*
X180121381Y-76831819D02*
X180216619Y-76831819D01*
X180216619Y-76831819D02*
X180311857Y-76879438D01*
X180311857Y-76879438D02*
X180359476Y-76927057D01*
X180359476Y-76927057D02*
X180407095Y-77022295D01*
X180407095Y-77022295D02*
X180454714Y-77212771D01*
X180454714Y-77212771D02*
X180454714Y-77450866D01*
X180454714Y-77450866D02*
X180407095Y-77641342D01*
X180407095Y-77641342D02*
X180359476Y-77736580D01*
X180359476Y-77736580D02*
X180311857Y-77784200D01*
X180311857Y-77784200D02*
X180216619Y-77831819D01*
X180216619Y-77831819D02*
X180121381Y-77831819D01*
X180121381Y-77831819D02*
X180026143Y-77784200D01*
X180026143Y-77784200D02*
X179978524Y-77736580D01*
X179978524Y-77736580D02*
X179930905Y-77641342D01*
X179930905Y-77641342D02*
X179883286Y-77450866D01*
X179883286Y-77450866D02*
X179883286Y-77212771D01*
X179883286Y-77212771D02*
X179930905Y-77022295D01*
X179930905Y-77022295D02*
X179978524Y-76927057D01*
X179978524Y-76927057D02*
X180026143Y-76879438D01*
X180026143Y-76879438D02*
X180121381Y-76831819D01*
X180835667Y-76927057D02*
X180883286Y-76879438D01*
X180883286Y-76879438D02*
X180978524Y-76831819D01*
X180978524Y-76831819D02*
X181216619Y-76831819D01*
X181216619Y-76831819D02*
X181311857Y-76879438D01*
X181311857Y-76879438D02*
X181359476Y-76927057D01*
X181359476Y-76927057D02*
X181407095Y-77022295D01*
X181407095Y-77022295D02*
X181407095Y-77117533D01*
X181407095Y-77117533D02*
X181359476Y-77260390D01*
X181359476Y-77260390D02*
X180788048Y-77831819D01*
X180788048Y-77831819D02*
X181407095Y-77831819D01*
X186337452Y-102831819D02*
X186004119Y-102355628D01*
X185766024Y-102831819D02*
X185766024Y-101831819D01*
X185766024Y-101831819D02*
X186146976Y-101831819D01*
X186146976Y-101831819D02*
X186242214Y-101879438D01*
X186242214Y-101879438D02*
X186289833Y-101927057D01*
X186289833Y-101927057D02*
X186337452Y-102022295D01*
X186337452Y-102022295D02*
X186337452Y-102165152D01*
X186337452Y-102165152D02*
X186289833Y-102260390D01*
X186289833Y-102260390D02*
X186242214Y-102308009D01*
X186242214Y-102308009D02*
X186146976Y-102355628D01*
X186146976Y-102355628D02*
X185766024Y-102355628D01*
X187242214Y-101831819D02*
X186766024Y-101831819D01*
X186766024Y-101831819D02*
X186718405Y-102308009D01*
X186718405Y-102308009D02*
X186766024Y-102260390D01*
X186766024Y-102260390D02*
X186861262Y-102212771D01*
X186861262Y-102212771D02*
X187099357Y-102212771D01*
X187099357Y-102212771D02*
X187194595Y-102260390D01*
X187194595Y-102260390D02*
X187242214Y-102308009D01*
X187242214Y-102308009D02*
X187289833Y-102403247D01*
X187289833Y-102403247D02*
X187289833Y-102641342D01*
X187289833Y-102641342D02*
X187242214Y-102736580D01*
X187242214Y-102736580D02*
X187194595Y-102784200D01*
X187194595Y-102784200D02*
X187099357Y-102831819D01*
X187099357Y-102831819D02*
X186861262Y-102831819D01*
X186861262Y-102831819D02*
X186766024Y-102784200D01*
X186766024Y-102784200D02*
X186718405Y-102736580D01*
X187908881Y-101831819D02*
X188004119Y-101831819D01*
X188004119Y-101831819D02*
X188099357Y-101879438D01*
X188099357Y-101879438D02*
X188146976Y-101927057D01*
X188146976Y-101927057D02*
X188194595Y-102022295D01*
X188194595Y-102022295D02*
X188242214Y-102212771D01*
X188242214Y-102212771D02*
X188242214Y-102450866D01*
X188242214Y-102450866D02*
X188194595Y-102641342D01*
X188194595Y-102641342D02*
X188146976Y-102736580D01*
X188146976Y-102736580D02*
X188099357Y-102784200D01*
X188099357Y-102784200D02*
X188004119Y-102831819D01*
X188004119Y-102831819D02*
X187908881Y-102831819D01*
X187908881Y-102831819D02*
X187813643Y-102784200D01*
X187813643Y-102784200D02*
X187766024Y-102736580D01*
X187766024Y-102736580D02*
X187718405Y-102641342D01*
X187718405Y-102641342D02*
X187670786Y-102450866D01*
X187670786Y-102450866D02*
X187670786Y-102212771D01*
X187670786Y-102212771D02*
X187718405Y-102022295D01*
X187718405Y-102022295D02*
X187766024Y-101927057D01*
X187766024Y-101927057D02*
X187813643Y-101879438D01*
X187813643Y-101879438D02*
X187908881Y-101831819D01*
X188575548Y-101831819D02*
X189194595Y-101831819D01*
X189194595Y-101831819D02*
X188861262Y-102212771D01*
X188861262Y-102212771D02*
X189004119Y-102212771D01*
X189004119Y-102212771D02*
X189099357Y-102260390D01*
X189099357Y-102260390D02*
X189146976Y-102308009D01*
X189146976Y-102308009D02*
X189194595Y-102403247D01*
X189194595Y-102403247D02*
X189194595Y-102641342D01*
X189194595Y-102641342D02*
X189146976Y-102736580D01*
X189146976Y-102736580D02*
X189099357Y-102784200D01*
X189099357Y-102784200D02*
X189004119Y-102831819D01*
X189004119Y-102831819D02*
X188718405Y-102831819D01*
X188718405Y-102831819D02*
X188623167Y-102784200D01*
X188623167Y-102784200D02*
X188575548Y-102736580D01*
X186337452Y-99431819D02*
X186004119Y-98955628D01*
X185766024Y-99431819D02*
X185766024Y-98431819D01*
X185766024Y-98431819D02*
X186146976Y-98431819D01*
X186146976Y-98431819D02*
X186242214Y-98479438D01*
X186242214Y-98479438D02*
X186289833Y-98527057D01*
X186289833Y-98527057D02*
X186337452Y-98622295D01*
X186337452Y-98622295D02*
X186337452Y-98765152D01*
X186337452Y-98765152D02*
X186289833Y-98860390D01*
X186289833Y-98860390D02*
X186242214Y-98908009D01*
X186242214Y-98908009D02*
X186146976Y-98955628D01*
X186146976Y-98955628D02*
X185766024Y-98955628D01*
X187242214Y-98431819D02*
X186766024Y-98431819D01*
X186766024Y-98431819D02*
X186718405Y-98908009D01*
X186718405Y-98908009D02*
X186766024Y-98860390D01*
X186766024Y-98860390D02*
X186861262Y-98812771D01*
X186861262Y-98812771D02*
X187099357Y-98812771D01*
X187099357Y-98812771D02*
X187194595Y-98860390D01*
X187194595Y-98860390D02*
X187242214Y-98908009D01*
X187242214Y-98908009D02*
X187289833Y-99003247D01*
X187289833Y-99003247D02*
X187289833Y-99241342D01*
X187289833Y-99241342D02*
X187242214Y-99336580D01*
X187242214Y-99336580D02*
X187194595Y-99384200D01*
X187194595Y-99384200D02*
X187099357Y-99431819D01*
X187099357Y-99431819D02*
X186861262Y-99431819D01*
X186861262Y-99431819D02*
X186766024Y-99384200D01*
X186766024Y-99384200D02*
X186718405Y-99336580D01*
X187908881Y-98431819D02*
X188004119Y-98431819D01*
X188004119Y-98431819D02*
X188099357Y-98479438D01*
X188099357Y-98479438D02*
X188146976Y-98527057D01*
X188146976Y-98527057D02*
X188194595Y-98622295D01*
X188194595Y-98622295D02*
X188242214Y-98812771D01*
X188242214Y-98812771D02*
X188242214Y-99050866D01*
X188242214Y-99050866D02*
X188194595Y-99241342D01*
X188194595Y-99241342D02*
X188146976Y-99336580D01*
X188146976Y-99336580D02*
X188099357Y-99384200D01*
X188099357Y-99384200D02*
X188004119Y-99431819D01*
X188004119Y-99431819D02*
X187908881Y-99431819D01*
X187908881Y-99431819D02*
X187813643Y-99384200D01*
X187813643Y-99384200D02*
X187766024Y-99336580D01*
X187766024Y-99336580D02*
X187718405Y-99241342D01*
X187718405Y-99241342D02*
X187670786Y-99050866D01*
X187670786Y-99050866D02*
X187670786Y-98812771D01*
X187670786Y-98812771D02*
X187718405Y-98622295D01*
X187718405Y-98622295D02*
X187766024Y-98527057D01*
X187766024Y-98527057D02*
X187813643Y-98479438D01*
X187813643Y-98479438D02*
X187908881Y-98431819D01*
X189099357Y-98765152D02*
X189099357Y-99431819D01*
X188861262Y-98384200D02*
X188623167Y-99098485D01*
X188623167Y-99098485D02*
X189242214Y-99098485D01*
X102974819Y-132714285D02*
X103784342Y-132714285D01*
X103784342Y-132714285D02*
X103879580Y-132666666D01*
X103879580Y-132666666D02*
X103927200Y-132619047D01*
X103927200Y-132619047D02*
X103974819Y-132523809D01*
X103974819Y-132523809D02*
X103974819Y-132333333D01*
X103974819Y-132333333D02*
X103927200Y-132238095D01*
X103927200Y-132238095D02*
X103879580Y-132190476D01*
X103879580Y-132190476D02*
X103784342Y-132142857D01*
X103784342Y-132142857D02*
X102974819Y-132142857D01*
X103974819Y-131142857D02*
X103974819Y-131714285D01*
X103974819Y-131428571D02*
X102974819Y-131428571D01*
X102974819Y-131428571D02*
X103117676Y-131523809D01*
X103117676Y-131523809D02*
X103212914Y-131619047D01*
X103212914Y-131619047D02*
X103260533Y-131714285D01*
X102974819Y-130523809D02*
X102974819Y-130428571D01*
X102974819Y-130428571D02*
X103022438Y-130333333D01*
X103022438Y-130333333D02*
X103070057Y-130285714D01*
X103070057Y-130285714D02*
X103165295Y-130238095D01*
X103165295Y-130238095D02*
X103355771Y-130190476D01*
X103355771Y-130190476D02*
X103593866Y-130190476D01*
X103593866Y-130190476D02*
X103784342Y-130238095D01*
X103784342Y-130238095D02*
X103879580Y-130285714D01*
X103879580Y-130285714D02*
X103927200Y-130333333D01*
X103927200Y-130333333D02*
X103974819Y-130428571D01*
X103974819Y-130428571D02*
X103974819Y-130523809D01*
X103974819Y-130523809D02*
X103927200Y-130619047D01*
X103927200Y-130619047D02*
X103879580Y-130666666D01*
X103879580Y-130666666D02*
X103784342Y-130714285D01*
X103784342Y-130714285D02*
X103593866Y-130761904D01*
X103593866Y-130761904D02*
X103355771Y-130761904D01*
X103355771Y-130761904D02*
X103165295Y-130714285D01*
X103165295Y-130714285D02*
X103070057Y-130666666D01*
X103070057Y-130666666D02*
X103022438Y-130619047D01*
X103022438Y-130619047D02*
X102974819Y-130523809D01*
X103974819Y-129238095D02*
X103974819Y-129809523D01*
X103974819Y-129523809D02*
X102974819Y-129523809D01*
X102974819Y-129523809D02*
X103117676Y-129619047D01*
X103117676Y-129619047D02*
X103212914Y-129714285D01*
X103212914Y-129714285D02*
X103260533Y-129809523D01*
X103798819Y-113691285D02*
X104608342Y-113691285D01*
X104608342Y-113691285D02*
X104703580Y-113643666D01*
X104703580Y-113643666D02*
X104751200Y-113596047D01*
X104751200Y-113596047D02*
X104798819Y-113500809D01*
X104798819Y-113500809D02*
X104798819Y-113310333D01*
X104798819Y-113310333D02*
X104751200Y-113215095D01*
X104751200Y-113215095D02*
X104703580Y-113167476D01*
X104703580Y-113167476D02*
X104608342Y-113119857D01*
X104608342Y-113119857D02*
X103798819Y-113119857D01*
X104798819Y-112119857D02*
X104798819Y-112691285D01*
X104798819Y-112405571D02*
X103798819Y-112405571D01*
X103798819Y-112405571D02*
X103941676Y-112500809D01*
X103941676Y-112500809D02*
X104036914Y-112596047D01*
X104036914Y-112596047D02*
X104084533Y-112691285D01*
X103798819Y-111500809D02*
X103798819Y-111405571D01*
X103798819Y-111405571D02*
X103846438Y-111310333D01*
X103846438Y-111310333D02*
X103894057Y-111262714D01*
X103894057Y-111262714D02*
X103989295Y-111215095D01*
X103989295Y-111215095D02*
X104179771Y-111167476D01*
X104179771Y-111167476D02*
X104417866Y-111167476D01*
X104417866Y-111167476D02*
X104608342Y-111215095D01*
X104608342Y-111215095D02*
X104703580Y-111262714D01*
X104703580Y-111262714D02*
X104751200Y-111310333D01*
X104751200Y-111310333D02*
X104798819Y-111405571D01*
X104798819Y-111405571D02*
X104798819Y-111500809D01*
X104798819Y-111500809D02*
X104751200Y-111596047D01*
X104751200Y-111596047D02*
X104703580Y-111643666D01*
X104703580Y-111643666D02*
X104608342Y-111691285D01*
X104608342Y-111691285D02*
X104417866Y-111738904D01*
X104417866Y-111738904D02*
X104179771Y-111738904D01*
X104179771Y-111738904D02*
X103989295Y-111691285D01*
X103989295Y-111691285D02*
X103894057Y-111643666D01*
X103894057Y-111643666D02*
X103846438Y-111596047D01*
X103846438Y-111596047D02*
X103798819Y-111500809D01*
X103894057Y-110786523D02*
X103846438Y-110738904D01*
X103846438Y-110738904D02*
X103798819Y-110643666D01*
X103798819Y-110643666D02*
X103798819Y-110405571D01*
X103798819Y-110405571D02*
X103846438Y-110310333D01*
X103846438Y-110310333D02*
X103894057Y-110262714D01*
X103894057Y-110262714D02*
X103989295Y-110215095D01*
X103989295Y-110215095D02*
X104084533Y-110215095D01*
X104084533Y-110215095D02*
X104227390Y-110262714D01*
X104227390Y-110262714D02*
X104798819Y-110834142D01*
X104798819Y-110834142D02*
X104798819Y-110215095D01*
X132750714Y-111347819D02*
X132750714Y-112157342D01*
X132750714Y-112157342D02*
X132798333Y-112252580D01*
X132798333Y-112252580D02*
X132845952Y-112300200D01*
X132845952Y-112300200D02*
X132941190Y-112347819D01*
X132941190Y-112347819D02*
X133131666Y-112347819D01*
X133131666Y-112347819D02*
X133226904Y-112300200D01*
X133226904Y-112300200D02*
X133274523Y-112252580D01*
X133274523Y-112252580D02*
X133322142Y-112157342D01*
X133322142Y-112157342D02*
X133322142Y-111347819D01*
X133703095Y-111347819D02*
X134322142Y-111347819D01*
X134322142Y-111347819D02*
X133988809Y-111728771D01*
X133988809Y-111728771D02*
X134131666Y-111728771D01*
X134131666Y-111728771D02*
X134226904Y-111776390D01*
X134226904Y-111776390D02*
X134274523Y-111824009D01*
X134274523Y-111824009D02*
X134322142Y-111919247D01*
X134322142Y-111919247D02*
X134322142Y-112157342D01*
X134322142Y-112157342D02*
X134274523Y-112252580D01*
X134274523Y-112252580D02*
X134226904Y-112300200D01*
X134226904Y-112300200D02*
X134131666Y-112347819D01*
X134131666Y-112347819D02*
X133845952Y-112347819D01*
X133845952Y-112347819D02*
X133750714Y-112300200D01*
X133750714Y-112300200D02*
X133703095Y-112252580D01*
X134941190Y-111347819D02*
X135036428Y-111347819D01*
X135036428Y-111347819D02*
X135131666Y-111395438D01*
X135131666Y-111395438D02*
X135179285Y-111443057D01*
X135179285Y-111443057D02*
X135226904Y-111538295D01*
X135226904Y-111538295D02*
X135274523Y-111728771D01*
X135274523Y-111728771D02*
X135274523Y-111966866D01*
X135274523Y-111966866D02*
X135226904Y-112157342D01*
X135226904Y-112157342D02*
X135179285Y-112252580D01*
X135179285Y-112252580D02*
X135131666Y-112300200D01*
X135131666Y-112300200D02*
X135036428Y-112347819D01*
X135036428Y-112347819D02*
X134941190Y-112347819D01*
X134941190Y-112347819D02*
X134845952Y-112300200D01*
X134845952Y-112300200D02*
X134798333Y-112252580D01*
X134798333Y-112252580D02*
X134750714Y-112157342D01*
X134750714Y-112157342D02*
X134703095Y-111966866D01*
X134703095Y-111966866D02*
X134703095Y-111728771D01*
X134703095Y-111728771D02*
X134750714Y-111538295D01*
X134750714Y-111538295D02*
X134798333Y-111443057D01*
X134798333Y-111443057D02*
X134845952Y-111395438D01*
X134845952Y-111395438D02*
X134941190Y-111347819D01*
X135655476Y-111443057D02*
X135703095Y-111395438D01*
X135703095Y-111395438D02*
X135798333Y-111347819D01*
X135798333Y-111347819D02*
X136036428Y-111347819D01*
X136036428Y-111347819D02*
X136131666Y-111395438D01*
X136131666Y-111395438D02*
X136179285Y-111443057D01*
X136179285Y-111443057D02*
X136226904Y-111538295D01*
X136226904Y-111538295D02*
X136226904Y-111633533D01*
X136226904Y-111633533D02*
X136179285Y-111776390D01*
X136179285Y-111776390D02*
X135607857Y-112347819D01*
X135607857Y-112347819D02*
X136226904Y-112347819D01*
D12*
X184436856Y-85025318D02*
X184436856Y-86053413D01*
X184436856Y-86053413D02*
X184497333Y-86174365D01*
X184497333Y-86174365D02*
X184557809Y-86234842D01*
X184557809Y-86234842D02*
X184678761Y-86295318D01*
X184678761Y-86295318D02*
X184920666Y-86295318D01*
X184920666Y-86295318D02*
X185041618Y-86234842D01*
X185041618Y-86234842D02*
X185102095Y-86174365D01*
X185102095Y-86174365D02*
X185162571Y-86053413D01*
X185162571Y-86053413D02*
X185162571Y-85025318D01*
X186372094Y-85025318D02*
X185767332Y-85025318D01*
X185767332Y-85025318D02*
X185706856Y-85630080D01*
X185706856Y-85630080D02*
X185767332Y-85569603D01*
X185767332Y-85569603D02*
X185888285Y-85509127D01*
X185888285Y-85509127D02*
X186190666Y-85509127D01*
X186190666Y-85509127D02*
X186311618Y-85569603D01*
X186311618Y-85569603D02*
X186372094Y-85630080D01*
X186372094Y-85630080D02*
X186432571Y-85751032D01*
X186432571Y-85751032D02*
X186432571Y-86053413D01*
X186432571Y-86053413D02*
X186372094Y-86174365D01*
X186372094Y-86174365D02*
X186311618Y-86234842D01*
X186311618Y-86234842D02*
X186190666Y-86295318D01*
X186190666Y-86295318D02*
X185888285Y-86295318D01*
X185888285Y-86295318D02*
X185767332Y-86234842D01*
X185767332Y-86234842D02*
X185706856Y-86174365D01*
X187218761Y-85025318D02*
X187339714Y-85025318D01*
X187339714Y-85025318D02*
X187460666Y-85085794D01*
X187460666Y-85085794D02*
X187521142Y-85146270D01*
X187521142Y-85146270D02*
X187581618Y-85267222D01*
X187581618Y-85267222D02*
X187642095Y-85509127D01*
X187642095Y-85509127D02*
X187642095Y-85811508D01*
X187642095Y-85811508D02*
X187581618Y-86053413D01*
X187581618Y-86053413D02*
X187521142Y-86174365D01*
X187521142Y-86174365D02*
X187460666Y-86234842D01*
X187460666Y-86234842D02*
X187339714Y-86295318D01*
X187339714Y-86295318D02*
X187218761Y-86295318D01*
X187218761Y-86295318D02*
X187097809Y-86234842D01*
X187097809Y-86234842D02*
X187037333Y-86174365D01*
X187037333Y-86174365D02*
X186976856Y-86053413D01*
X186976856Y-86053413D02*
X186916380Y-85811508D01*
X186916380Y-85811508D02*
X186916380Y-85509127D01*
X186916380Y-85509127D02*
X186976856Y-85267222D01*
X186976856Y-85267222D02*
X187037333Y-85146270D01*
X187037333Y-85146270D02*
X187097809Y-85085794D01*
X187097809Y-85085794D02*
X187218761Y-85025318D01*
X188851619Y-86295318D02*
X188125904Y-86295318D01*
X188488761Y-86295318D02*
X188488761Y-85025318D01*
X188488761Y-85025318D02*
X188367809Y-85206746D01*
X188367809Y-85206746D02*
X188246857Y-85327699D01*
X188246857Y-85327699D02*
X188125904Y-85388175D01*
D10*
X152942819Y-133359285D02*
X153752342Y-133359285D01*
X153752342Y-133359285D02*
X153847580Y-133311666D01*
X153847580Y-133311666D02*
X153895200Y-133264047D01*
X153895200Y-133264047D02*
X153942819Y-133168809D01*
X153942819Y-133168809D02*
X153942819Y-132978333D01*
X153942819Y-132978333D02*
X153895200Y-132883095D01*
X153895200Y-132883095D02*
X153847580Y-132835476D01*
X153847580Y-132835476D02*
X153752342Y-132787857D01*
X153752342Y-132787857D02*
X152942819Y-132787857D01*
X153038057Y-132359285D02*
X152990438Y-132311666D01*
X152990438Y-132311666D02*
X152942819Y-132216428D01*
X152942819Y-132216428D02*
X152942819Y-131978333D01*
X152942819Y-131978333D02*
X152990438Y-131883095D01*
X152990438Y-131883095D02*
X153038057Y-131835476D01*
X153038057Y-131835476D02*
X153133295Y-131787857D01*
X153133295Y-131787857D02*
X153228533Y-131787857D01*
X153228533Y-131787857D02*
X153371390Y-131835476D01*
X153371390Y-131835476D02*
X153942819Y-132406904D01*
X153942819Y-132406904D02*
X153942819Y-131787857D01*
X152942819Y-131168809D02*
X152942819Y-131073571D01*
X152942819Y-131073571D02*
X152990438Y-130978333D01*
X152990438Y-130978333D02*
X153038057Y-130930714D01*
X153038057Y-130930714D02*
X153133295Y-130883095D01*
X153133295Y-130883095D02*
X153323771Y-130835476D01*
X153323771Y-130835476D02*
X153561866Y-130835476D01*
X153561866Y-130835476D02*
X153752342Y-130883095D01*
X153752342Y-130883095D02*
X153847580Y-130930714D01*
X153847580Y-130930714D02*
X153895200Y-130978333D01*
X153895200Y-130978333D02*
X153942819Y-131073571D01*
X153942819Y-131073571D02*
X153942819Y-131168809D01*
X153942819Y-131168809D02*
X153895200Y-131264047D01*
X153895200Y-131264047D02*
X153847580Y-131311666D01*
X153847580Y-131311666D02*
X153752342Y-131359285D01*
X153752342Y-131359285D02*
X153561866Y-131406904D01*
X153561866Y-131406904D02*
X153323771Y-131406904D01*
X153323771Y-131406904D02*
X153133295Y-131359285D01*
X153133295Y-131359285D02*
X153038057Y-131311666D01*
X153038057Y-131311666D02*
X152990438Y-131264047D01*
X152990438Y-131264047D02*
X152942819Y-131168809D01*
X153942819Y-129883095D02*
X153942819Y-130454523D01*
X153942819Y-130168809D02*
X152942819Y-130168809D01*
X152942819Y-130168809D02*
X153085676Y-130264047D01*
X153085676Y-130264047D02*
X153180914Y-130359285D01*
X153180914Y-130359285D02*
X153228533Y-130454523D01*
X141342819Y-133359285D02*
X142152342Y-133359285D01*
X142152342Y-133359285D02*
X142247580Y-133311666D01*
X142247580Y-133311666D02*
X142295200Y-133264047D01*
X142295200Y-133264047D02*
X142342819Y-133168809D01*
X142342819Y-133168809D02*
X142342819Y-132978333D01*
X142342819Y-132978333D02*
X142295200Y-132883095D01*
X142295200Y-132883095D02*
X142247580Y-132835476D01*
X142247580Y-132835476D02*
X142152342Y-132787857D01*
X142152342Y-132787857D02*
X141342819Y-132787857D01*
X141438057Y-132359285D02*
X141390438Y-132311666D01*
X141390438Y-132311666D02*
X141342819Y-132216428D01*
X141342819Y-132216428D02*
X141342819Y-131978333D01*
X141342819Y-131978333D02*
X141390438Y-131883095D01*
X141390438Y-131883095D02*
X141438057Y-131835476D01*
X141438057Y-131835476D02*
X141533295Y-131787857D01*
X141533295Y-131787857D02*
X141628533Y-131787857D01*
X141628533Y-131787857D02*
X141771390Y-131835476D01*
X141771390Y-131835476D02*
X142342819Y-132406904D01*
X142342819Y-132406904D02*
X142342819Y-131787857D01*
X141342819Y-131168809D02*
X141342819Y-131073571D01*
X141342819Y-131073571D02*
X141390438Y-130978333D01*
X141390438Y-130978333D02*
X141438057Y-130930714D01*
X141438057Y-130930714D02*
X141533295Y-130883095D01*
X141533295Y-130883095D02*
X141723771Y-130835476D01*
X141723771Y-130835476D02*
X141961866Y-130835476D01*
X141961866Y-130835476D02*
X142152342Y-130883095D01*
X142152342Y-130883095D02*
X142247580Y-130930714D01*
X142247580Y-130930714D02*
X142295200Y-130978333D01*
X142295200Y-130978333D02*
X142342819Y-131073571D01*
X142342819Y-131073571D02*
X142342819Y-131168809D01*
X142342819Y-131168809D02*
X142295200Y-131264047D01*
X142295200Y-131264047D02*
X142247580Y-131311666D01*
X142247580Y-131311666D02*
X142152342Y-131359285D01*
X142152342Y-131359285D02*
X141961866Y-131406904D01*
X141961866Y-131406904D02*
X141723771Y-131406904D01*
X141723771Y-131406904D02*
X141533295Y-131359285D01*
X141533295Y-131359285D02*
X141438057Y-131311666D01*
X141438057Y-131311666D02*
X141390438Y-131264047D01*
X141390438Y-131264047D02*
X141342819Y-131168809D01*
X141438057Y-130454523D02*
X141390438Y-130406904D01*
X141390438Y-130406904D02*
X141342819Y-130311666D01*
X141342819Y-130311666D02*
X141342819Y-130073571D01*
X141342819Y-130073571D02*
X141390438Y-129978333D01*
X141390438Y-129978333D02*
X141438057Y-129930714D01*
X141438057Y-129930714D02*
X141533295Y-129883095D01*
X141533295Y-129883095D02*
X141628533Y-129883095D01*
X141628533Y-129883095D02*
X141771390Y-129930714D01*
X141771390Y-129930714D02*
X142342819Y-130502142D01*
X142342819Y-130502142D02*
X142342819Y-129883095D01*
X116742819Y-133359285D02*
X117552342Y-133359285D01*
X117552342Y-133359285D02*
X117647580Y-133311666D01*
X117647580Y-133311666D02*
X117695200Y-133264047D01*
X117695200Y-133264047D02*
X117742819Y-133168809D01*
X117742819Y-133168809D02*
X117742819Y-132978333D01*
X117742819Y-132978333D02*
X117695200Y-132883095D01*
X117695200Y-132883095D02*
X117647580Y-132835476D01*
X117647580Y-132835476D02*
X117552342Y-132787857D01*
X117552342Y-132787857D02*
X116742819Y-132787857D01*
X116838057Y-132359285D02*
X116790438Y-132311666D01*
X116790438Y-132311666D02*
X116742819Y-132216428D01*
X116742819Y-132216428D02*
X116742819Y-131978333D01*
X116742819Y-131978333D02*
X116790438Y-131883095D01*
X116790438Y-131883095D02*
X116838057Y-131835476D01*
X116838057Y-131835476D02*
X116933295Y-131787857D01*
X116933295Y-131787857D02*
X117028533Y-131787857D01*
X117028533Y-131787857D02*
X117171390Y-131835476D01*
X117171390Y-131835476D02*
X117742819Y-132406904D01*
X117742819Y-132406904D02*
X117742819Y-131787857D01*
X116742819Y-131168809D02*
X116742819Y-131073571D01*
X116742819Y-131073571D02*
X116790438Y-130978333D01*
X116790438Y-130978333D02*
X116838057Y-130930714D01*
X116838057Y-130930714D02*
X116933295Y-130883095D01*
X116933295Y-130883095D02*
X117123771Y-130835476D01*
X117123771Y-130835476D02*
X117361866Y-130835476D01*
X117361866Y-130835476D02*
X117552342Y-130883095D01*
X117552342Y-130883095D02*
X117647580Y-130930714D01*
X117647580Y-130930714D02*
X117695200Y-130978333D01*
X117695200Y-130978333D02*
X117742819Y-131073571D01*
X117742819Y-131073571D02*
X117742819Y-131168809D01*
X117742819Y-131168809D02*
X117695200Y-131264047D01*
X117695200Y-131264047D02*
X117647580Y-131311666D01*
X117647580Y-131311666D02*
X117552342Y-131359285D01*
X117552342Y-131359285D02*
X117361866Y-131406904D01*
X117361866Y-131406904D02*
X117123771Y-131406904D01*
X117123771Y-131406904D02*
X116933295Y-131359285D01*
X116933295Y-131359285D02*
X116838057Y-131311666D01*
X116838057Y-131311666D02*
X116790438Y-131264047D01*
X116790438Y-131264047D02*
X116742819Y-131168809D01*
X117076152Y-129978333D02*
X117742819Y-129978333D01*
X116695200Y-130216428D02*
X117409485Y-130454523D01*
X117409485Y-130454523D02*
X117409485Y-129835476D01*
X177942819Y-133359285D02*
X178752342Y-133359285D01*
X178752342Y-133359285D02*
X178847580Y-133311666D01*
X178847580Y-133311666D02*
X178895200Y-133264047D01*
X178895200Y-133264047D02*
X178942819Y-133168809D01*
X178942819Y-133168809D02*
X178942819Y-132978333D01*
X178942819Y-132978333D02*
X178895200Y-132883095D01*
X178895200Y-132883095D02*
X178847580Y-132835476D01*
X178847580Y-132835476D02*
X178752342Y-132787857D01*
X178752342Y-132787857D02*
X177942819Y-132787857D01*
X178038057Y-132359285D02*
X177990438Y-132311666D01*
X177990438Y-132311666D02*
X177942819Y-132216428D01*
X177942819Y-132216428D02*
X177942819Y-131978333D01*
X177942819Y-131978333D02*
X177990438Y-131883095D01*
X177990438Y-131883095D02*
X178038057Y-131835476D01*
X178038057Y-131835476D02*
X178133295Y-131787857D01*
X178133295Y-131787857D02*
X178228533Y-131787857D01*
X178228533Y-131787857D02*
X178371390Y-131835476D01*
X178371390Y-131835476D02*
X178942819Y-132406904D01*
X178942819Y-132406904D02*
X178942819Y-131787857D01*
X177942819Y-131168809D02*
X177942819Y-131073571D01*
X177942819Y-131073571D02*
X177990438Y-130978333D01*
X177990438Y-130978333D02*
X178038057Y-130930714D01*
X178038057Y-130930714D02*
X178133295Y-130883095D01*
X178133295Y-130883095D02*
X178323771Y-130835476D01*
X178323771Y-130835476D02*
X178561866Y-130835476D01*
X178561866Y-130835476D02*
X178752342Y-130883095D01*
X178752342Y-130883095D02*
X178847580Y-130930714D01*
X178847580Y-130930714D02*
X178895200Y-130978333D01*
X178895200Y-130978333D02*
X178942819Y-131073571D01*
X178942819Y-131073571D02*
X178942819Y-131168809D01*
X178942819Y-131168809D02*
X178895200Y-131264047D01*
X178895200Y-131264047D02*
X178847580Y-131311666D01*
X178847580Y-131311666D02*
X178752342Y-131359285D01*
X178752342Y-131359285D02*
X178561866Y-131406904D01*
X178561866Y-131406904D02*
X178323771Y-131406904D01*
X178323771Y-131406904D02*
X178133295Y-131359285D01*
X178133295Y-131359285D02*
X178038057Y-131311666D01*
X178038057Y-131311666D02*
X177990438Y-131264047D01*
X177990438Y-131264047D02*
X177942819Y-131168809D01*
X177942819Y-129930714D02*
X177942819Y-130406904D01*
X177942819Y-130406904D02*
X178419009Y-130454523D01*
X178419009Y-130454523D02*
X178371390Y-130406904D01*
X178371390Y-130406904D02*
X178323771Y-130311666D01*
X178323771Y-130311666D02*
X178323771Y-130073571D01*
X178323771Y-130073571D02*
X178371390Y-129978333D01*
X178371390Y-129978333D02*
X178419009Y-129930714D01*
X178419009Y-129930714D02*
X178514247Y-129883095D01*
X178514247Y-129883095D02*
X178752342Y-129883095D01*
X178752342Y-129883095D02*
X178847580Y-129930714D01*
X178847580Y-129930714D02*
X178895200Y-129978333D01*
X178895200Y-129978333D02*
X178942819Y-130073571D01*
X178942819Y-130073571D02*
X178942819Y-130311666D01*
X178942819Y-130311666D02*
X178895200Y-130406904D01*
X178895200Y-130406904D02*
X178847580Y-130454523D01*
X165077819Y-133359285D02*
X165887342Y-133359285D01*
X165887342Y-133359285D02*
X165982580Y-133311666D01*
X165982580Y-133311666D02*
X166030200Y-133264047D01*
X166030200Y-133264047D02*
X166077819Y-133168809D01*
X166077819Y-133168809D02*
X166077819Y-132978333D01*
X166077819Y-132978333D02*
X166030200Y-132883095D01*
X166030200Y-132883095D02*
X165982580Y-132835476D01*
X165982580Y-132835476D02*
X165887342Y-132787857D01*
X165887342Y-132787857D02*
X165077819Y-132787857D01*
X165173057Y-132359285D02*
X165125438Y-132311666D01*
X165125438Y-132311666D02*
X165077819Y-132216428D01*
X165077819Y-132216428D02*
X165077819Y-131978333D01*
X165077819Y-131978333D02*
X165125438Y-131883095D01*
X165125438Y-131883095D02*
X165173057Y-131835476D01*
X165173057Y-131835476D02*
X165268295Y-131787857D01*
X165268295Y-131787857D02*
X165363533Y-131787857D01*
X165363533Y-131787857D02*
X165506390Y-131835476D01*
X165506390Y-131835476D02*
X166077819Y-132406904D01*
X166077819Y-132406904D02*
X166077819Y-131787857D01*
X165077819Y-131168809D02*
X165077819Y-131073571D01*
X165077819Y-131073571D02*
X165125438Y-130978333D01*
X165125438Y-130978333D02*
X165173057Y-130930714D01*
X165173057Y-130930714D02*
X165268295Y-130883095D01*
X165268295Y-130883095D02*
X165458771Y-130835476D01*
X165458771Y-130835476D02*
X165696866Y-130835476D01*
X165696866Y-130835476D02*
X165887342Y-130883095D01*
X165887342Y-130883095D02*
X165982580Y-130930714D01*
X165982580Y-130930714D02*
X166030200Y-130978333D01*
X166030200Y-130978333D02*
X166077819Y-131073571D01*
X166077819Y-131073571D02*
X166077819Y-131168809D01*
X166077819Y-131168809D02*
X166030200Y-131264047D01*
X166030200Y-131264047D02*
X165982580Y-131311666D01*
X165982580Y-131311666D02*
X165887342Y-131359285D01*
X165887342Y-131359285D02*
X165696866Y-131406904D01*
X165696866Y-131406904D02*
X165458771Y-131406904D01*
X165458771Y-131406904D02*
X165268295Y-131359285D01*
X165268295Y-131359285D02*
X165173057Y-131311666D01*
X165173057Y-131311666D02*
X165125438Y-131264047D01*
X165125438Y-131264047D02*
X165077819Y-131168809D01*
X165077819Y-129978333D02*
X165077819Y-130168809D01*
X165077819Y-130168809D02*
X165125438Y-130264047D01*
X165125438Y-130264047D02*
X165173057Y-130311666D01*
X165173057Y-130311666D02*
X165315914Y-130406904D01*
X165315914Y-130406904D02*
X165506390Y-130454523D01*
X165506390Y-130454523D02*
X165887342Y-130454523D01*
X165887342Y-130454523D02*
X165982580Y-130406904D01*
X165982580Y-130406904D02*
X166030200Y-130359285D01*
X166030200Y-130359285D02*
X166077819Y-130264047D01*
X166077819Y-130264047D02*
X166077819Y-130073571D01*
X166077819Y-130073571D02*
X166030200Y-129978333D01*
X166030200Y-129978333D02*
X165982580Y-129930714D01*
X165982580Y-129930714D02*
X165887342Y-129883095D01*
X165887342Y-129883095D02*
X165649247Y-129883095D01*
X165649247Y-129883095D02*
X165554009Y-129930714D01*
X165554009Y-129930714D02*
X165506390Y-129978333D01*
X165506390Y-129978333D02*
X165458771Y-130073571D01*
X165458771Y-130073571D02*
X165458771Y-130264047D01*
X165458771Y-130264047D02*
X165506390Y-130359285D01*
X165506390Y-130359285D02*
X165554009Y-130406904D01*
X165554009Y-130406904D02*
X165649247Y-130454523D01*
X129142819Y-133359285D02*
X129952342Y-133359285D01*
X129952342Y-133359285D02*
X130047580Y-133311666D01*
X130047580Y-133311666D02*
X130095200Y-133264047D01*
X130095200Y-133264047D02*
X130142819Y-133168809D01*
X130142819Y-133168809D02*
X130142819Y-132978333D01*
X130142819Y-132978333D02*
X130095200Y-132883095D01*
X130095200Y-132883095D02*
X130047580Y-132835476D01*
X130047580Y-132835476D02*
X129952342Y-132787857D01*
X129952342Y-132787857D02*
X129142819Y-132787857D01*
X129238057Y-132359285D02*
X129190438Y-132311666D01*
X129190438Y-132311666D02*
X129142819Y-132216428D01*
X129142819Y-132216428D02*
X129142819Y-131978333D01*
X129142819Y-131978333D02*
X129190438Y-131883095D01*
X129190438Y-131883095D02*
X129238057Y-131835476D01*
X129238057Y-131835476D02*
X129333295Y-131787857D01*
X129333295Y-131787857D02*
X129428533Y-131787857D01*
X129428533Y-131787857D02*
X129571390Y-131835476D01*
X129571390Y-131835476D02*
X130142819Y-132406904D01*
X130142819Y-132406904D02*
X130142819Y-131787857D01*
X129142819Y-131168809D02*
X129142819Y-131073571D01*
X129142819Y-131073571D02*
X129190438Y-130978333D01*
X129190438Y-130978333D02*
X129238057Y-130930714D01*
X129238057Y-130930714D02*
X129333295Y-130883095D01*
X129333295Y-130883095D02*
X129523771Y-130835476D01*
X129523771Y-130835476D02*
X129761866Y-130835476D01*
X129761866Y-130835476D02*
X129952342Y-130883095D01*
X129952342Y-130883095D02*
X130047580Y-130930714D01*
X130047580Y-130930714D02*
X130095200Y-130978333D01*
X130095200Y-130978333D02*
X130142819Y-131073571D01*
X130142819Y-131073571D02*
X130142819Y-131168809D01*
X130142819Y-131168809D02*
X130095200Y-131264047D01*
X130095200Y-131264047D02*
X130047580Y-131311666D01*
X130047580Y-131311666D02*
X129952342Y-131359285D01*
X129952342Y-131359285D02*
X129761866Y-131406904D01*
X129761866Y-131406904D02*
X129523771Y-131406904D01*
X129523771Y-131406904D02*
X129333295Y-131359285D01*
X129333295Y-131359285D02*
X129238057Y-131311666D01*
X129238057Y-131311666D02*
X129190438Y-131264047D01*
X129190438Y-131264047D02*
X129142819Y-131168809D01*
X129142819Y-130502142D02*
X129142819Y-129883095D01*
X129142819Y-129883095D02*
X129523771Y-130216428D01*
X129523771Y-130216428D02*
X129523771Y-130073571D01*
X129523771Y-130073571D02*
X129571390Y-129978333D01*
X129571390Y-129978333D02*
X129619009Y-129930714D01*
X129619009Y-129930714D02*
X129714247Y-129883095D01*
X129714247Y-129883095D02*
X129952342Y-129883095D01*
X129952342Y-129883095D02*
X130047580Y-129930714D01*
X130047580Y-129930714D02*
X130095200Y-129978333D01*
X130095200Y-129978333D02*
X130142819Y-130073571D01*
X130142819Y-130073571D02*
X130142819Y-130359285D01*
X130142819Y-130359285D02*
X130095200Y-130454523D01*
X130095200Y-130454523D02*
X130047580Y-130502142D01*
X108624952Y-104006580D02*
X108577333Y-104054200D01*
X108577333Y-104054200D02*
X108434476Y-104101819D01*
X108434476Y-104101819D02*
X108339238Y-104101819D01*
X108339238Y-104101819D02*
X108196381Y-104054200D01*
X108196381Y-104054200D02*
X108101143Y-103958961D01*
X108101143Y-103958961D02*
X108053524Y-103863723D01*
X108053524Y-103863723D02*
X108005905Y-103673247D01*
X108005905Y-103673247D02*
X108005905Y-103530390D01*
X108005905Y-103530390D02*
X108053524Y-103339914D01*
X108053524Y-103339914D02*
X108101143Y-103244676D01*
X108101143Y-103244676D02*
X108196381Y-103149438D01*
X108196381Y-103149438D02*
X108339238Y-103101819D01*
X108339238Y-103101819D02*
X108434476Y-103101819D01*
X108434476Y-103101819D02*
X108577333Y-103149438D01*
X108577333Y-103149438D02*
X108624952Y-103197057D01*
X109577333Y-104101819D02*
X109005905Y-104101819D01*
X109291619Y-104101819D02*
X109291619Y-103101819D01*
X109291619Y-103101819D02*
X109196381Y-103244676D01*
X109196381Y-103244676D02*
X109101143Y-103339914D01*
X109101143Y-103339914D02*
X109005905Y-103387533D01*
X110196381Y-103101819D02*
X110291619Y-103101819D01*
X110291619Y-103101819D02*
X110386857Y-103149438D01*
X110386857Y-103149438D02*
X110434476Y-103197057D01*
X110434476Y-103197057D02*
X110482095Y-103292295D01*
X110482095Y-103292295D02*
X110529714Y-103482771D01*
X110529714Y-103482771D02*
X110529714Y-103720866D01*
X110529714Y-103720866D02*
X110482095Y-103911342D01*
X110482095Y-103911342D02*
X110434476Y-104006580D01*
X110434476Y-104006580D02*
X110386857Y-104054200D01*
X110386857Y-104054200D02*
X110291619Y-104101819D01*
X110291619Y-104101819D02*
X110196381Y-104101819D01*
X110196381Y-104101819D02*
X110101143Y-104054200D01*
X110101143Y-104054200D02*
X110053524Y-104006580D01*
X110053524Y-104006580D02*
X110005905Y-103911342D01*
X110005905Y-103911342D02*
X109958286Y-103720866D01*
X109958286Y-103720866D02*
X109958286Y-103482771D01*
X109958286Y-103482771D02*
X110005905Y-103292295D01*
X110005905Y-103292295D02*
X110053524Y-103197057D01*
X110053524Y-103197057D02*
X110101143Y-103149438D01*
X110101143Y-103149438D02*
X110196381Y-103101819D01*
X111386857Y-103101819D02*
X111196381Y-103101819D01*
X111196381Y-103101819D02*
X111101143Y-103149438D01*
X111101143Y-103149438D02*
X111053524Y-103197057D01*
X111053524Y-103197057D02*
X110958286Y-103339914D01*
X110958286Y-103339914D02*
X110910667Y-103530390D01*
X110910667Y-103530390D02*
X110910667Y-103911342D01*
X110910667Y-103911342D02*
X110958286Y-104006580D01*
X110958286Y-104006580D02*
X111005905Y-104054200D01*
X111005905Y-104054200D02*
X111101143Y-104101819D01*
X111101143Y-104101819D02*
X111291619Y-104101819D01*
X111291619Y-104101819D02*
X111386857Y-104054200D01*
X111386857Y-104054200D02*
X111434476Y-104006580D01*
X111434476Y-104006580D02*
X111482095Y-103911342D01*
X111482095Y-103911342D02*
X111482095Y-103673247D01*
X111482095Y-103673247D02*
X111434476Y-103578009D01*
X111434476Y-103578009D02*
X111386857Y-103530390D01*
X111386857Y-103530390D02*
X111291619Y-103482771D01*
X111291619Y-103482771D02*
X111101143Y-103482771D01*
X111101143Y-103482771D02*
X111005905Y-103530390D01*
X111005905Y-103530390D02*
X110958286Y-103578009D01*
X110958286Y-103578009D02*
X110910667Y-103673247D01*
D12*
X120086856Y-55667318D02*
X120086856Y-56695413D01*
X120086856Y-56695413D02*
X120147333Y-56816365D01*
X120147333Y-56816365D02*
X120207809Y-56876842D01*
X120207809Y-56876842D02*
X120328761Y-56937318D01*
X120328761Y-56937318D02*
X120570666Y-56937318D01*
X120570666Y-56937318D02*
X120691618Y-56876842D01*
X120691618Y-56876842D02*
X120752095Y-56816365D01*
X120752095Y-56816365D02*
X120812571Y-56695413D01*
X120812571Y-56695413D02*
X120812571Y-55667318D01*
X121961618Y-56090651D02*
X121961618Y-56937318D01*
X121659237Y-55606842D02*
X121356856Y-56513984D01*
X121356856Y-56513984D02*
X122143047Y-56513984D01*
X122868761Y-55667318D02*
X122989714Y-55667318D01*
X122989714Y-55667318D02*
X123110666Y-55727794D01*
X123110666Y-55727794D02*
X123171142Y-55788270D01*
X123171142Y-55788270D02*
X123231618Y-55909222D01*
X123231618Y-55909222D02*
X123292095Y-56151127D01*
X123292095Y-56151127D02*
X123292095Y-56453508D01*
X123292095Y-56453508D02*
X123231618Y-56695413D01*
X123231618Y-56695413D02*
X123171142Y-56816365D01*
X123171142Y-56816365D02*
X123110666Y-56876842D01*
X123110666Y-56876842D02*
X122989714Y-56937318D01*
X122989714Y-56937318D02*
X122868761Y-56937318D01*
X122868761Y-56937318D02*
X122747809Y-56876842D01*
X122747809Y-56876842D02*
X122687333Y-56816365D01*
X122687333Y-56816365D02*
X122626856Y-56695413D01*
X122626856Y-56695413D02*
X122566380Y-56453508D01*
X122566380Y-56453508D02*
X122566380Y-56151127D01*
X122566380Y-56151127D02*
X122626856Y-55909222D01*
X122626856Y-55909222D02*
X122687333Y-55788270D01*
X122687333Y-55788270D02*
X122747809Y-55727794D01*
X122747809Y-55727794D02*
X122868761Y-55667318D01*
X123775904Y-55788270D02*
X123836380Y-55727794D01*
X123836380Y-55727794D02*
X123957333Y-55667318D01*
X123957333Y-55667318D02*
X124259714Y-55667318D01*
X124259714Y-55667318D02*
X124380666Y-55727794D01*
X124380666Y-55727794D02*
X124441142Y-55788270D01*
X124441142Y-55788270D02*
X124501619Y-55909222D01*
X124501619Y-55909222D02*
X124501619Y-56030175D01*
X124501619Y-56030175D02*
X124441142Y-56211603D01*
X124441142Y-56211603D02*
X123715428Y-56937318D01*
X123715428Y-56937318D02*
X124501619Y-56937318D01*
X111450856Y-71415318D02*
X111450856Y-72443413D01*
X111450856Y-72443413D02*
X111511333Y-72564365D01*
X111511333Y-72564365D02*
X111571809Y-72624842D01*
X111571809Y-72624842D02*
X111692761Y-72685318D01*
X111692761Y-72685318D02*
X111934666Y-72685318D01*
X111934666Y-72685318D02*
X112055618Y-72624842D01*
X112055618Y-72624842D02*
X112116095Y-72564365D01*
X112116095Y-72564365D02*
X112176571Y-72443413D01*
X112176571Y-72443413D02*
X112176571Y-71415318D01*
X113325618Y-71838651D02*
X113325618Y-72685318D01*
X113023237Y-71354842D02*
X112720856Y-72261984D01*
X112720856Y-72261984D02*
X113507047Y-72261984D01*
X114232761Y-71415318D02*
X114353714Y-71415318D01*
X114353714Y-71415318D02*
X114474666Y-71475794D01*
X114474666Y-71475794D02*
X114535142Y-71536270D01*
X114535142Y-71536270D02*
X114595618Y-71657222D01*
X114595618Y-71657222D02*
X114656095Y-71899127D01*
X114656095Y-71899127D02*
X114656095Y-72201508D01*
X114656095Y-72201508D02*
X114595618Y-72443413D01*
X114595618Y-72443413D02*
X114535142Y-72564365D01*
X114535142Y-72564365D02*
X114474666Y-72624842D01*
X114474666Y-72624842D02*
X114353714Y-72685318D01*
X114353714Y-72685318D02*
X114232761Y-72685318D01*
X114232761Y-72685318D02*
X114111809Y-72624842D01*
X114111809Y-72624842D02*
X114051333Y-72564365D01*
X114051333Y-72564365D02*
X113990856Y-72443413D01*
X113990856Y-72443413D02*
X113930380Y-72201508D01*
X113930380Y-72201508D02*
X113930380Y-71899127D01*
X113930380Y-71899127D02*
X113990856Y-71657222D01*
X113990856Y-71657222D02*
X114051333Y-71536270D01*
X114051333Y-71536270D02*
X114111809Y-71475794D01*
X114111809Y-71475794D02*
X114232761Y-71415318D01*
X115865619Y-72685318D02*
X115139904Y-72685318D01*
X115502761Y-72685318D02*
X115502761Y-71415318D01*
X115502761Y-71415318D02*
X115381809Y-71596746D01*
X115381809Y-71596746D02*
X115260857Y-71717699D01*
X115260857Y-71717699D02*
X115139904Y-71778175D01*
D10*
X221653333Y-57554819D02*
X221320000Y-57078628D01*
X221081905Y-57554819D02*
X221081905Y-56554819D01*
X221081905Y-56554819D02*
X221462857Y-56554819D01*
X221462857Y-56554819D02*
X221558095Y-56602438D01*
X221558095Y-56602438D02*
X221605714Y-56650057D01*
X221605714Y-56650057D02*
X221653333Y-56745295D01*
X221653333Y-56745295D02*
X221653333Y-56888152D01*
X221653333Y-56888152D02*
X221605714Y-56983390D01*
X221605714Y-56983390D02*
X221558095Y-57031009D01*
X221558095Y-57031009D02*
X221462857Y-57078628D01*
X221462857Y-57078628D02*
X221081905Y-57078628D01*
X222510476Y-56554819D02*
X222320000Y-56554819D01*
X222320000Y-56554819D02*
X222224762Y-56602438D01*
X222224762Y-56602438D02*
X222177143Y-56650057D01*
X222177143Y-56650057D02*
X222081905Y-56792914D01*
X222081905Y-56792914D02*
X222034286Y-56983390D01*
X222034286Y-56983390D02*
X222034286Y-57364342D01*
X222034286Y-57364342D02*
X222081905Y-57459580D01*
X222081905Y-57459580D02*
X222129524Y-57507200D01*
X222129524Y-57507200D02*
X222224762Y-57554819D01*
X222224762Y-57554819D02*
X222415238Y-57554819D01*
X222415238Y-57554819D02*
X222510476Y-57507200D01*
X222510476Y-57507200D02*
X222558095Y-57459580D01*
X222558095Y-57459580D02*
X222605714Y-57364342D01*
X222605714Y-57364342D02*
X222605714Y-57126247D01*
X222605714Y-57126247D02*
X222558095Y-57031009D01*
X222558095Y-57031009D02*
X222510476Y-56983390D01*
X222510476Y-56983390D02*
X222415238Y-56935771D01*
X222415238Y-56935771D02*
X222224762Y-56935771D01*
X222224762Y-56935771D02*
X222129524Y-56983390D01*
X222129524Y-56983390D02*
X222081905Y-57031009D01*
X222081905Y-57031009D02*
X222034286Y-57126247D01*
X225130952Y-57699580D02*
X225083333Y-57747200D01*
X225083333Y-57747200D02*
X224940476Y-57794819D01*
X224940476Y-57794819D02*
X224845238Y-57794819D01*
X224845238Y-57794819D02*
X224702381Y-57747200D01*
X224702381Y-57747200D02*
X224607143Y-57651961D01*
X224607143Y-57651961D02*
X224559524Y-57556723D01*
X224559524Y-57556723D02*
X224511905Y-57366247D01*
X224511905Y-57366247D02*
X224511905Y-57223390D01*
X224511905Y-57223390D02*
X224559524Y-57032914D01*
X224559524Y-57032914D02*
X224607143Y-56937676D01*
X224607143Y-56937676D02*
X224702381Y-56842438D01*
X224702381Y-56842438D02*
X224845238Y-56794819D01*
X224845238Y-56794819D02*
X224940476Y-56794819D01*
X224940476Y-56794819D02*
X225083333Y-56842438D01*
X225083333Y-56842438D02*
X225130952Y-56890057D01*
X225464286Y-56794819D02*
X226083333Y-56794819D01*
X226083333Y-56794819D02*
X225750000Y-57175771D01*
X225750000Y-57175771D02*
X225892857Y-57175771D01*
X225892857Y-57175771D02*
X225988095Y-57223390D01*
X225988095Y-57223390D02*
X226035714Y-57271009D01*
X226035714Y-57271009D02*
X226083333Y-57366247D01*
X226083333Y-57366247D02*
X226083333Y-57604342D01*
X226083333Y-57604342D02*
X226035714Y-57699580D01*
X226035714Y-57699580D02*
X225988095Y-57747200D01*
X225988095Y-57747200D02*
X225892857Y-57794819D01*
X225892857Y-57794819D02*
X225607143Y-57794819D01*
X225607143Y-57794819D02*
X225511905Y-57747200D01*
X225511905Y-57747200D02*
X225464286Y-57699580D01*
X226702381Y-56794819D02*
X226797619Y-56794819D01*
X226797619Y-56794819D02*
X226892857Y-56842438D01*
X226892857Y-56842438D02*
X226940476Y-56890057D01*
X226940476Y-56890057D02*
X226988095Y-56985295D01*
X226988095Y-56985295D02*
X227035714Y-57175771D01*
X227035714Y-57175771D02*
X227035714Y-57413866D01*
X227035714Y-57413866D02*
X226988095Y-57604342D01*
X226988095Y-57604342D02*
X226940476Y-57699580D01*
X226940476Y-57699580D02*
X226892857Y-57747200D01*
X226892857Y-57747200D02*
X226797619Y-57794819D01*
X226797619Y-57794819D02*
X226702381Y-57794819D01*
X226702381Y-57794819D02*
X226607143Y-57747200D01*
X226607143Y-57747200D02*
X226559524Y-57699580D01*
X226559524Y-57699580D02*
X226511905Y-57604342D01*
X226511905Y-57604342D02*
X226464286Y-57413866D01*
X226464286Y-57413866D02*
X226464286Y-57175771D01*
X226464286Y-57175771D02*
X226511905Y-56985295D01*
X226511905Y-56985295D02*
X226559524Y-56890057D01*
X226559524Y-56890057D02*
X226607143Y-56842438D01*
X226607143Y-56842438D02*
X226702381Y-56794819D01*
X227940476Y-56794819D02*
X227464286Y-56794819D01*
X227464286Y-56794819D02*
X227416667Y-57271009D01*
X227416667Y-57271009D02*
X227464286Y-57223390D01*
X227464286Y-57223390D02*
X227559524Y-57175771D01*
X227559524Y-57175771D02*
X227797619Y-57175771D01*
X227797619Y-57175771D02*
X227892857Y-57223390D01*
X227892857Y-57223390D02*
X227940476Y-57271009D01*
X227940476Y-57271009D02*
X227988095Y-57366247D01*
X227988095Y-57366247D02*
X227988095Y-57604342D01*
X227988095Y-57604342D02*
X227940476Y-57699580D01*
X227940476Y-57699580D02*
X227892857Y-57747200D01*
X227892857Y-57747200D02*
X227797619Y-57794819D01*
X227797619Y-57794819D02*
X227559524Y-57794819D01*
X227559524Y-57794819D02*
X227464286Y-57747200D01*
X227464286Y-57747200D02*
X227416667Y-57699580D01*
X225130952Y-51679580D02*
X225083333Y-51727200D01*
X225083333Y-51727200D02*
X224940476Y-51774819D01*
X224940476Y-51774819D02*
X224845238Y-51774819D01*
X224845238Y-51774819D02*
X224702381Y-51727200D01*
X224702381Y-51727200D02*
X224607143Y-51631961D01*
X224607143Y-51631961D02*
X224559524Y-51536723D01*
X224559524Y-51536723D02*
X224511905Y-51346247D01*
X224511905Y-51346247D02*
X224511905Y-51203390D01*
X224511905Y-51203390D02*
X224559524Y-51012914D01*
X224559524Y-51012914D02*
X224607143Y-50917676D01*
X224607143Y-50917676D02*
X224702381Y-50822438D01*
X224702381Y-50822438D02*
X224845238Y-50774819D01*
X224845238Y-50774819D02*
X224940476Y-50774819D01*
X224940476Y-50774819D02*
X225083333Y-50822438D01*
X225083333Y-50822438D02*
X225130952Y-50870057D01*
X225464286Y-50774819D02*
X226083333Y-50774819D01*
X226083333Y-50774819D02*
X225750000Y-51155771D01*
X225750000Y-51155771D02*
X225892857Y-51155771D01*
X225892857Y-51155771D02*
X225988095Y-51203390D01*
X225988095Y-51203390D02*
X226035714Y-51251009D01*
X226035714Y-51251009D02*
X226083333Y-51346247D01*
X226083333Y-51346247D02*
X226083333Y-51584342D01*
X226083333Y-51584342D02*
X226035714Y-51679580D01*
X226035714Y-51679580D02*
X225988095Y-51727200D01*
X225988095Y-51727200D02*
X225892857Y-51774819D01*
X225892857Y-51774819D02*
X225607143Y-51774819D01*
X225607143Y-51774819D02*
X225511905Y-51727200D01*
X225511905Y-51727200D02*
X225464286Y-51679580D01*
X226702381Y-50774819D02*
X226797619Y-50774819D01*
X226797619Y-50774819D02*
X226892857Y-50822438D01*
X226892857Y-50822438D02*
X226940476Y-50870057D01*
X226940476Y-50870057D02*
X226988095Y-50965295D01*
X226988095Y-50965295D02*
X227035714Y-51155771D01*
X227035714Y-51155771D02*
X227035714Y-51393866D01*
X227035714Y-51393866D02*
X226988095Y-51584342D01*
X226988095Y-51584342D02*
X226940476Y-51679580D01*
X226940476Y-51679580D02*
X226892857Y-51727200D01*
X226892857Y-51727200D02*
X226797619Y-51774819D01*
X226797619Y-51774819D02*
X226702381Y-51774819D01*
X226702381Y-51774819D02*
X226607143Y-51727200D01*
X226607143Y-51727200D02*
X226559524Y-51679580D01*
X226559524Y-51679580D02*
X226511905Y-51584342D01*
X226511905Y-51584342D02*
X226464286Y-51393866D01*
X226464286Y-51393866D02*
X226464286Y-51155771D01*
X226464286Y-51155771D02*
X226511905Y-50965295D01*
X226511905Y-50965295D02*
X226559524Y-50870057D01*
X226559524Y-50870057D02*
X226607143Y-50822438D01*
X226607143Y-50822438D02*
X226702381Y-50774819D01*
X227369048Y-50774819D02*
X227988095Y-50774819D01*
X227988095Y-50774819D02*
X227654762Y-51155771D01*
X227654762Y-51155771D02*
X227797619Y-51155771D01*
X227797619Y-51155771D02*
X227892857Y-51203390D01*
X227892857Y-51203390D02*
X227940476Y-51251009D01*
X227940476Y-51251009D02*
X227988095Y-51346247D01*
X227988095Y-51346247D02*
X227988095Y-51584342D01*
X227988095Y-51584342D02*
X227940476Y-51679580D01*
X227940476Y-51679580D02*
X227892857Y-51727200D01*
X227892857Y-51727200D02*
X227797619Y-51774819D01*
X227797619Y-51774819D02*
X227511905Y-51774819D01*
X227511905Y-51774819D02*
X227416667Y-51727200D01*
X227416667Y-51727200D02*
X227369048Y-51679580D01*
D13*
X226407215Y-60518389D02*
X226407215Y-60747519D01*
X226246824Y-60266346D02*
X226407215Y-60518389D01*
X226407215Y-60518389D02*
X226567606Y-60266346D01*
X226980040Y-60747519D02*
X226705084Y-60747519D01*
X226842562Y-60747519D02*
X226842562Y-60266346D01*
X226842562Y-60266346D02*
X226796736Y-60335085D01*
X226796736Y-60335085D02*
X226750910Y-60380911D01*
X226750910Y-60380911D02*
X226705084Y-60403824D01*
D10*
X229580952Y-57699580D02*
X229533333Y-57747200D01*
X229533333Y-57747200D02*
X229390476Y-57794819D01*
X229390476Y-57794819D02*
X229295238Y-57794819D01*
X229295238Y-57794819D02*
X229152381Y-57747200D01*
X229152381Y-57747200D02*
X229057143Y-57651961D01*
X229057143Y-57651961D02*
X229009524Y-57556723D01*
X229009524Y-57556723D02*
X228961905Y-57366247D01*
X228961905Y-57366247D02*
X228961905Y-57223390D01*
X228961905Y-57223390D02*
X229009524Y-57032914D01*
X229009524Y-57032914D02*
X229057143Y-56937676D01*
X229057143Y-56937676D02*
X229152381Y-56842438D01*
X229152381Y-56842438D02*
X229295238Y-56794819D01*
X229295238Y-56794819D02*
X229390476Y-56794819D01*
X229390476Y-56794819D02*
X229533333Y-56842438D01*
X229533333Y-56842438D02*
X229580952Y-56890057D01*
X229914286Y-56794819D02*
X230533333Y-56794819D01*
X230533333Y-56794819D02*
X230200000Y-57175771D01*
X230200000Y-57175771D02*
X230342857Y-57175771D01*
X230342857Y-57175771D02*
X230438095Y-57223390D01*
X230438095Y-57223390D02*
X230485714Y-57271009D01*
X230485714Y-57271009D02*
X230533333Y-57366247D01*
X230533333Y-57366247D02*
X230533333Y-57604342D01*
X230533333Y-57604342D02*
X230485714Y-57699580D01*
X230485714Y-57699580D02*
X230438095Y-57747200D01*
X230438095Y-57747200D02*
X230342857Y-57794819D01*
X230342857Y-57794819D02*
X230057143Y-57794819D01*
X230057143Y-57794819D02*
X229961905Y-57747200D01*
X229961905Y-57747200D02*
X229914286Y-57699580D01*
X231485714Y-57794819D02*
X230914286Y-57794819D01*
X231200000Y-57794819D02*
X231200000Y-56794819D01*
X231200000Y-56794819D02*
X231104762Y-56937676D01*
X231104762Y-56937676D02*
X231009524Y-57032914D01*
X231009524Y-57032914D02*
X230914286Y-57080533D01*
X232104762Y-56794819D02*
X232200000Y-56794819D01*
X232200000Y-56794819D02*
X232295238Y-56842438D01*
X232295238Y-56842438D02*
X232342857Y-56890057D01*
X232342857Y-56890057D02*
X232390476Y-56985295D01*
X232390476Y-56985295D02*
X232438095Y-57175771D01*
X232438095Y-57175771D02*
X232438095Y-57413866D01*
X232438095Y-57413866D02*
X232390476Y-57604342D01*
X232390476Y-57604342D02*
X232342857Y-57699580D01*
X232342857Y-57699580D02*
X232295238Y-57747200D01*
X232295238Y-57747200D02*
X232200000Y-57794819D01*
X232200000Y-57794819D02*
X232104762Y-57794819D01*
X232104762Y-57794819D02*
X232009524Y-57747200D01*
X232009524Y-57747200D02*
X231961905Y-57699580D01*
X231961905Y-57699580D02*
X231914286Y-57604342D01*
X231914286Y-57604342D02*
X231866667Y-57413866D01*
X231866667Y-57413866D02*
X231866667Y-57175771D01*
X231866667Y-57175771D02*
X231914286Y-56985295D01*
X231914286Y-56985295D02*
X231961905Y-56890057D01*
X231961905Y-56890057D02*
X232009524Y-56842438D01*
X232009524Y-56842438D02*
X232104762Y-56794819D01*
X225130952Y-54689580D02*
X225083333Y-54737200D01*
X225083333Y-54737200D02*
X224940476Y-54784819D01*
X224940476Y-54784819D02*
X224845238Y-54784819D01*
X224845238Y-54784819D02*
X224702381Y-54737200D01*
X224702381Y-54737200D02*
X224607143Y-54641961D01*
X224607143Y-54641961D02*
X224559524Y-54546723D01*
X224559524Y-54546723D02*
X224511905Y-54356247D01*
X224511905Y-54356247D02*
X224511905Y-54213390D01*
X224511905Y-54213390D02*
X224559524Y-54022914D01*
X224559524Y-54022914D02*
X224607143Y-53927676D01*
X224607143Y-53927676D02*
X224702381Y-53832438D01*
X224702381Y-53832438D02*
X224845238Y-53784819D01*
X224845238Y-53784819D02*
X224940476Y-53784819D01*
X224940476Y-53784819D02*
X225083333Y-53832438D01*
X225083333Y-53832438D02*
X225130952Y-53880057D01*
X225464286Y-53784819D02*
X226083333Y-53784819D01*
X226083333Y-53784819D02*
X225750000Y-54165771D01*
X225750000Y-54165771D02*
X225892857Y-54165771D01*
X225892857Y-54165771D02*
X225988095Y-54213390D01*
X225988095Y-54213390D02*
X226035714Y-54261009D01*
X226035714Y-54261009D02*
X226083333Y-54356247D01*
X226083333Y-54356247D02*
X226083333Y-54594342D01*
X226083333Y-54594342D02*
X226035714Y-54689580D01*
X226035714Y-54689580D02*
X225988095Y-54737200D01*
X225988095Y-54737200D02*
X225892857Y-54784819D01*
X225892857Y-54784819D02*
X225607143Y-54784819D01*
X225607143Y-54784819D02*
X225511905Y-54737200D01*
X225511905Y-54737200D02*
X225464286Y-54689580D01*
X226702381Y-53784819D02*
X226797619Y-53784819D01*
X226797619Y-53784819D02*
X226892857Y-53832438D01*
X226892857Y-53832438D02*
X226940476Y-53880057D01*
X226940476Y-53880057D02*
X226988095Y-53975295D01*
X226988095Y-53975295D02*
X227035714Y-54165771D01*
X227035714Y-54165771D02*
X227035714Y-54403866D01*
X227035714Y-54403866D02*
X226988095Y-54594342D01*
X226988095Y-54594342D02*
X226940476Y-54689580D01*
X226940476Y-54689580D02*
X226892857Y-54737200D01*
X226892857Y-54737200D02*
X226797619Y-54784819D01*
X226797619Y-54784819D02*
X226702381Y-54784819D01*
X226702381Y-54784819D02*
X226607143Y-54737200D01*
X226607143Y-54737200D02*
X226559524Y-54689580D01*
X226559524Y-54689580D02*
X226511905Y-54594342D01*
X226511905Y-54594342D02*
X226464286Y-54403866D01*
X226464286Y-54403866D02*
X226464286Y-54165771D01*
X226464286Y-54165771D02*
X226511905Y-53975295D01*
X226511905Y-53975295D02*
X226559524Y-53880057D01*
X226559524Y-53880057D02*
X226607143Y-53832438D01*
X226607143Y-53832438D02*
X226702381Y-53784819D01*
X227892857Y-54118152D02*
X227892857Y-54784819D01*
X227654762Y-53737200D02*
X227416667Y-54451485D01*
X227416667Y-54451485D02*
X228035714Y-54451485D01*
X229580952Y-48669580D02*
X229533333Y-48717200D01*
X229533333Y-48717200D02*
X229390476Y-48764819D01*
X229390476Y-48764819D02*
X229295238Y-48764819D01*
X229295238Y-48764819D02*
X229152381Y-48717200D01*
X229152381Y-48717200D02*
X229057143Y-48621961D01*
X229057143Y-48621961D02*
X229009524Y-48526723D01*
X229009524Y-48526723D02*
X228961905Y-48336247D01*
X228961905Y-48336247D02*
X228961905Y-48193390D01*
X228961905Y-48193390D02*
X229009524Y-48002914D01*
X229009524Y-48002914D02*
X229057143Y-47907676D01*
X229057143Y-47907676D02*
X229152381Y-47812438D01*
X229152381Y-47812438D02*
X229295238Y-47764819D01*
X229295238Y-47764819D02*
X229390476Y-47764819D01*
X229390476Y-47764819D02*
X229533333Y-47812438D01*
X229533333Y-47812438D02*
X229580952Y-47860057D01*
X229914286Y-47764819D02*
X230533333Y-47764819D01*
X230533333Y-47764819D02*
X230200000Y-48145771D01*
X230200000Y-48145771D02*
X230342857Y-48145771D01*
X230342857Y-48145771D02*
X230438095Y-48193390D01*
X230438095Y-48193390D02*
X230485714Y-48241009D01*
X230485714Y-48241009D02*
X230533333Y-48336247D01*
X230533333Y-48336247D02*
X230533333Y-48574342D01*
X230533333Y-48574342D02*
X230485714Y-48669580D01*
X230485714Y-48669580D02*
X230438095Y-48717200D01*
X230438095Y-48717200D02*
X230342857Y-48764819D01*
X230342857Y-48764819D02*
X230057143Y-48764819D01*
X230057143Y-48764819D02*
X229961905Y-48717200D01*
X229961905Y-48717200D02*
X229914286Y-48669580D01*
X231152381Y-47764819D02*
X231247619Y-47764819D01*
X231247619Y-47764819D02*
X231342857Y-47812438D01*
X231342857Y-47812438D02*
X231390476Y-47860057D01*
X231390476Y-47860057D02*
X231438095Y-47955295D01*
X231438095Y-47955295D02*
X231485714Y-48145771D01*
X231485714Y-48145771D02*
X231485714Y-48383866D01*
X231485714Y-48383866D02*
X231438095Y-48574342D01*
X231438095Y-48574342D02*
X231390476Y-48669580D01*
X231390476Y-48669580D02*
X231342857Y-48717200D01*
X231342857Y-48717200D02*
X231247619Y-48764819D01*
X231247619Y-48764819D02*
X231152381Y-48764819D01*
X231152381Y-48764819D02*
X231057143Y-48717200D01*
X231057143Y-48717200D02*
X231009524Y-48669580D01*
X231009524Y-48669580D02*
X230961905Y-48574342D01*
X230961905Y-48574342D02*
X230914286Y-48383866D01*
X230914286Y-48383866D02*
X230914286Y-48145771D01*
X230914286Y-48145771D02*
X230961905Y-47955295D01*
X230961905Y-47955295D02*
X231009524Y-47860057D01*
X231009524Y-47860057D02*
X231057143Y-47812438D01*
X231057143Y-47812438D02*
X231152381Y-47764819D01*
X231819048Y-47764819D02*
X232485714Y-47764819D01*
X232485714Y-47764819D02*
X232057143Y-48764819D01*
X141277333Y-70486580D02*
X141229714Y-70534200D01*
X141229714Y-70534200D02*
X141086857Y-70581819D01*
X141086857Y-70581819D02*
X140991619Y-70581819D01*
X140991619Y-70581819D02*
X140848762Y-70534200D01*
X140848762Y-70534200D02*
X140753524Y-70438961D01*
X140753524Y-70438961D02*
X140705905Y-70343723D01*
X140705905Y-70343723D02*
X140658286Y-70153247D01*
X140658286Y-70153247D02*
X140658286Y-70010390D01*
X140658286Y-70010390D02*
X140705905Y-69819914D01*
X140705905Y-69819914D02*
X140753524Y-69724676D01*
X140753524Y-69724676D02*
X140848762Y-69629438D01*
X140848762Y-69629438D02*
X140991619Y-69581819D01*
X140991619Y-69581819D02*
X141086857Y-69581819D01*
X141086857Y-69581819D02*
X141229714Y-69629438D01*
X141229714Y-69629438D02*
X141277333Y-69677057D01*
X142229714Y-70581819D02*
X141658286Y-70581819D01*
X141944000Y-70581819D02*
X141944000Y-69581819D01*
X141944000Y-69581819D02*
X141848762Y-69724676D01*
X141848762Y-69724676D02*
X141753524Y-69819914D01*
X141753524Y-69819914D02*
X141658286Y-69867533D01*
X195061905Y-121774819D02*
X195061905Y-120774819D01*
X195061905Y-120774819D02*
X195300000Y-120774819D01*
X195300000Y-120774819D02*
X195442857Y-120822438D01*
X195442857Y-120822438D02*
X195538095Y-120917676D01*
X195538095Y-120917676D02*
X195585714Y-121012914D01*
X195585714Y-121012914D02*
X195633333Y-121203390D01*
X195633333Y-121203390D02*
X195633333Y-121346247D01*
X195633333Y-121346247D02*
X195585714Y-121536723D01*
X195585714Y-121536723D02*
X195538095Y-121631961D01*
X195538095Y-121631961D02*
X195442857Y-121727200D01*
X195442857Y-121727200D02*
X195300000Y-121774819D01*
X195300000Y-121774819D02*
X195061905Y-121774819D01*
X196014286Y-120870057D02*
X196061905Y-120822438D01*
X196061905Y-120822438D02*
X196157143Y-120774819D01*
X196157143Y-120774819D02*
X196395238Y-120774819D01*
X196395238Y-120774819D02*
X196490476Y-120822438D01*
X196490476Y-120822438D02*
X196538095Y-120870057D01*
X196538095Y-120870057D02*
X196585714Y-120965295D01*
X196585714Y-120965295D02*
X196585714Y-121060533D01*
X196585714Y-121060533D02*
X196538095Y-121203390D01*
X196538095Y-121203390D02*
X195966667Y-121774819D01*
X195966667Y-121774819D02*
X196585714Y-121774819D01*
X170668819Y-72060333D02*
X171383104Y-72060333D01*
X171383104Y-72060333D02*
X171525961Y-72107952D01*
X171525961Y-72107952D02*
X171621200Y-72203190D01*
X171621200Y-72203190D02*
X171668819Y-72346047D01*
X171668819Y-72346047D02*
X171668819Y-72441285D01*
X171668819Y-71060333D02*
X171668819Y-71631761D01*
X171668819Y-71346047D02*
X170668819Y-71346047D01*
X170668819Y-71346047D02*
X170811676Y-71441285D01*
X170811676Y-71441285D02*
X170906914Y-71536523D01*
X170906914Y-71536523D02*
X170954533Y-71631761D01*
X229580952Y-54689580D02*
X229533333Y-54737200D01*
X229533333Y-54737200D02*
X229390476Y-54784819D01*
X229390476Y-54784819D02*
X229295238Y-54784819D01*
X229295238Y-54784819D02*
X229152381Y-54737200D01*
X229152381Y-54737200D02*
X229057143Y-54641961D01*
X229057143Y-54641961D02*
X229009524Y-54546723D01*
X229009524Y-54546723D02*
X228961905Y-54356247D01*
X228961905Y-54356247D02*
X228961905Y-54213390D01*
X228961905Y-54213390D02*
X229009524Y-54022914D01*
X229009524Y-54022914D02*
X229057143Y-53927676D01*
X229057143Y-53927676D02*
X229152381Y-53832438D01*
X229152381Y-53832438D02*
X229295238Y-53784819D01*
X229295238Y-53784819D02*
X229390476Y-53784819D01*
X229390476Y-53784819D02*
X229533333Y-53832438D01*
X229533333Y-53832438D02*
X229580952Y-53880057D01*
X229914286Y-53784819D02*
X230533333Y-53784819D01*
X230533333Y-53784819D02*
X230200000Y-54165771D01*
X230200000Y-54165771D02*
X230342857Y-54165771D01*
X230342857Y-54165771D02*
X230438095Y-54213390D01*
X230438095Y-54213390D02*
X230485714Y-54261009D01*
X230485714Y-54261009D02*
X230533333Y-54356247D01*
X230533333Y-54356247D02*
X230533333Y-54594342D01*
X230533333Y-54594342D02*
X230485714Y-54689580D01*
X230485714Y-54689580D02*
X230438095Y-54737200D01*
X230438095Y-54737200D02*
X230342857Y-54784819D01*
X230342857Y-54784819D02*
X230057143Y-54784819D01*
X230057143Y-54784819D02*
X229961905Y-54737200D01*
X229961905Y-54737200D02*
X229914286Y-54689580D01*
X231152381Y-53784819D02*
X231247619Y-53784819D01*
X231247619Y-53784819D02*
X231342857Y-53832438D01*
X231342857Y-53832438D02*
X231390476Y-53880057D01*
X231390476Y-53880057D02*
X231438095Y-53975295D01*
X231438095Y-53975295D02*
X231485714Y-54165771D01*
X231485714Y-54165771D02*
X231485714Y-54403866D01*
X231485714Y-54403866D02*
X231438095Y-54594342D01*
X231438095Y-54594342D02*
X231390476Y-54689580D01*
X231390476Y-54689580D02*
X231342857Y-54737200D01*
X231342857Y-54737200D02*
X231247619Y-54784819D01*
X231247619Y-54784819D02*
X231152381Y-54784819D01*
X231152381Y-54784819D02*
X231057143Y-54737200D01*
X231057143Y-54737200D02*
X231009524Y-54689580D01*
X231009524Y-54689580D02*
X230961905Y-54594342D01*
X230961905Y-54594342D02*
X230914286Y-54403866D01*
X230914286Y-54403866D02*
X230914286Y-54165771D01*
X230914286Y-54165771D02*
X230961905Y-53975295D01*
X230961905Y-53975295D02*
X231009524Y-53880057D01*
X231009524Y-53880057D02*
X231057143Y-53832438D01*
X231057143Y-53832438D02*
X231152381Y-53784819D01*
X231961905Y-54784819D02*
X232152381Y-54784819D01*
X232152381Y-54784819D02*
X232247619Y-54737200D01*
X232247619Y-54737200D02*
X232295238Y-54689580D01*
X232295238Y-54689580D02*
X232390476Y-54546723D01*
X232390476Y-54546723D02*
X232438095Y-54356247D01*
X232438095Y-54356247D02*
X232438095Y-53975295D01*
X232438095Y-53975295D02*
X232390476Y-53880057D01*
X232390476Y-53880057D02*
X232342857Y-53832438D01*
X232342857Y-53832438D02*
X232247619Y-53784819D01*
X232247619Y-53784819D02*
X232057143Y-53784819D01*
X232057143Y-53784819D02*
X231961905Y-53832438D01*
X231961905Y-53832438D02*
X231914286Y-53880057D01*
X231914286Y-53880057D02*
X231866667Y-53975295D01*
X231866667Y-53975295D02*
X231866667Y-54213390D01*
X231866667Y-54213390D02*
X231914286Y-54308628D01*
X231914286Y-54308628D02*
X231961905Y-54356247D01*
X231961905Y-54356247D02*
X232057143Y-54403866D01*
X232057143Y-54403866D02*
X232247619Y-54403866D01*
X232247619Y-54403866D02*
X232342857Y-54356247D01*
X232342857Y-54356247D02*
X232390476Y-54308628D01*
X232390476Y-54308628D02*
X232438095Y-54213390D01*
X195061905Y-115774819D02*
X195061905Y-114774819D01*
X195061905Y-114774819D02*
X195300000Y-114774819D01*
X195300000Y-114774819D02*
X195442857Y-114822438D01*
X195442857Y-114822438D02*
X195538095Y-114917676D01*
X195538095Y-114917676D02*
X195585714Y-115012914D01*
X195585714Y-115012914D02*
X195633333Y-115203390D01*
X195633333Y-115203390D02*
X195633333Y-115346247D01*
X195633333Y-115346247D02*
X195585714Y-115536723D01*
X195585714Y-115536723D02*
X195538095Y-115631961D01*
X195538095Y-115631961D02*
X195442857Y-115727200D01*
X195442857Y-115727200D02*
X195300000Y-115774819D01*
X195300000Y-115774819D02*
X195061905Y-115774819D01*
X196585714Y-115774819D02*
X196014286Y-115774819D01*
X196300000Y-115774819D02*
X196300000Y-114774819D01*
X196300000Y-114774819D02*
X196204762Y-114917676D01*
X196204762Y-114917676D02*
X196109524Y-115012914D01*
X196109524Y-115012914D02*
X196014286Y-115060533D01*
X114930952Y-127839580D02*
X114883333Y-127887200D01*
X114883333Y-127887200D02*
X114740476Y-127934819D01*
X114740476Y-127934819D02*
X114645238Y-127934819D01*
X114645238Y-127934819D02*
X114502381Y-127887200D01*
X114502381Y-127887200D02*
X114407143Y-127791961D01*
X114407143Y-127791961D02*
X114359524Y-127696723D01*
X114359524Y-127696723D02*
X114311905Y-127506247D01*
X114311905Y-127506247D02*
X114311905Y-127363390D01*
X114311905Y-127363390D02*
X114359524Y-127172914D01*
X114359524Y-127172914D02*
X114407143Y-127077676D01*
X114407143Y-127077676D02*
X114502381Y-126982438D01*
X114502381Y-126982438D02*
X114645238Y-126934819D01*
X114645238Y-126934819D02*
X114740476Y-126934819D01*
X114740476Y-126934819D02*
X114883333Y-126982438D01*
X114883333Y-126982438D02*
X114930952Y-127030057D01*
X115883333Y-127934819D02*
X115311905Y-127934819D01*
X115597619Y-127934819D02*
X115597619Y-126934819D01*
X115597619Y-126934819D02*
X115502381Y-127077676D01*
X115502381Y-127077676D02*
X115407143Y-127172914D01*
X115407143Y-127172914D02*
X115311905Y-127220533D01*
X116502381Y-126934819D02*
X116597619Y-126934819D01*
X116597619Y-126934819D02*
X116692857Y-126982438D01*
X116692857Y-126982438D02*
X116740476Y-127030057D01*
X116740476Y-127030057D02*
X116788095Y-127125295D01*
X116788095Y-127125295D02*
X116835714Y-127315771D01*
X116835714Y-127315771D02*
X116835714Y-127553866D01*
X116835714Y-127553866D02*
X116788095Y-127744342D01*
X116788095Y-127744342D02*
X116740476Y-127839580D01*
X116740476Y-127839580D02*
X116692857Y-127887200D01*
X116692857Y-127887200D02*
X116597619Y-127934819D01*
X116597619Y-127934819D02*
X116502381Y-127934819D01*
X116502381Y-127934819D02*
X116407143Y-127887200D01*
X116407143Y-127887200D02*
X116359524Y-127839580D01*
X116359524Y-127839580D02*
X116311905Y-127744342D01*
X116311905Y-127744342D02*
X116264286Y-127553866D01*
X116264286Y-127553866D02*
X116264286Y-127315771D01*
X116264286Y-127315771D02*
X116311905Y-127125295D01*
X116311905Y-127125295D02*
X116359524Y-127030057D01*
X116359524Y-127030057D02*
X116407143Y-126982438D01*
X116407143Y-126982438D02*
X116502381Y-126934819D01*
X117169048Y-126934819D02*
X117788095Y-126934819D01*
X117788095Y-126934819D02*
X117454762Y-127315771D01*
X117454762Y-127315771D02*
X117597619Y-127315771D01*
X117597619Y-127315771D02*
X117692857Y-127363390D01*
X117692857Y-127363390D02*
X117740476Y-127411009D01*
X117740476Y-127411009D02*
X117788095Y-127506247D01*
X117788095Y-127506247D02*
X117788095Y-127744342D01*
X117788095Y-127744342D02*
X117740476Y-127839580D01*
X117740476Y-127839580D02*
X117692857Y-127887200D01*
X117692857Y-127887200D02*
X117597619Y-127934819D01*
X117597619Y-127934819D02*
X117311905Y-127934819D01*
X117311905Y-127934819D02*
X117216667Y-127887200D01*
X117216667Y-127887200D02*
X117169048Y-127839580D01*
X229580952Y-51679580D02*
X229533333Y-51727200D01*
X229533333Y-51727200D02*
X229390476Y-51774819D01*
X229390476Y-51774819D02*
X229295238Y-51774819D01*
X229295238Y-51774819D02*
X229152381Y-51727200D01*
X229152381Y-51727200D02*
X229057143Y-51631961D01*
X229057143Y-51631961D02*
X229009524Y-51536723D01*
X229009524Y-51536723D02*
X228961905Y-51346247D01*
X228961905Y-51346247D02*
X228961905Y-51203390D01*
X228961905Y-51203390D02*
X229009524Y-51012914D01*
X229009524Y-51012914D02*
X229057143Y-50917676D01*
X229057143Y-50917676D02*
X229152381Y-50822438D01*
X229152381Y-50822438D02*
X229295238Y-50774819D01*
X229295238Y-50774819D02*
X229390476Y-50774819D01*
X229390476Y-50774819D02*
X229533333Y-50822438D01*
X229533333Y-50822438D02*
X229580952Y-50870057D01*
X229914286Y-50774819D02*
X230533333Y-50774819D01*
X230533333Y-50774819D02*
X230200000Y-51155771D01*
X230200000Y-51155771D02*
X230342857Y-51155771D01*
X230342857Y-51155771D02*
X230438095Y-51203390D01*
X230438095Y-51203390D02*
X230485714Y-51251009D01*
X230485714Y-51251009D02*
X230533333Y-51346247D01*
X230533333Y-51346247D02*
X230533333Y-51584342D01*
X230533333Y-51584342D02*
X230485714Y-51679580D01*
X230485714Y-51679580D02*
X230438095Y-51727200D01*
X230438095Y-51727200D02*
X230342857Y-51774819D01*
X230342857Y-51774819D02*
X230057143Y-51774819D01*
X230057143Y-51774819D02*
X229961905Y-51727200D01*
X229961905Y-51727200D02*
X229914286Y-51679580D01*
X231152381Y-50774819D02*
X231247619Y-50774819D01*
X231247619Y-50774819D02*
X231342857Y-50822438D01*
X231342857Y-50822438D02*
X231390476Y-50870057D01*
X231390476Y-50870057D02*
X231438095Y-50965295D01*
X231438095Y-50965295D02*
X231485714Y-51155771D01*
X231485714Y-51155771D02*
X231485714Y-51393866D01*
X231485714Y-51393866D02*
X231438095Y-51584342D01*
X231438095Y-51584342D02*
X231390476Y-51679580D01*
X231390476Y-51679580D02*
X231342857Y-51727200D01*
X231342857Y-51727200D02*
X231247619Y-51774819D01*
X231247619Y-51774819D02*
X231152381Y-51774819D01*
X231152381Y-51774819D02*
X231057143Y-51727200D01*
X231057143Y-51727200D02*
X231009524Y-51679580D01*
X231009524Y-51679580D02*
X230961905Y-51584342D01*
X230961905Y-51584342D02*
X230914286Y-51393866D01*
X230914286Y-51393866D02*
X230914286Y-51155771D01*
X230914286Y-51155771D02*
X230961905Y-50965295D01*
X230961905Y-50965295D02*
X231009524Y-50870057D01*
X231009524Y-50870057D02*
X231057143Y-50822438D01*
X231057143Y-50822438D02*
X231152381Y-50774819D01*
X232057143Y-51203390D02*
X231961905Y-51155771D01*
X231961905Y-51155771D02*
X231914286Y-51108152D01*
X231914286Y-51108152D02*
X231866667Y-51012914D01*
X231866667Y-51012914D02*
X231866667Y-50965295D01*
X231866667Y-50965295D02*
X231914286Y-50870057D01*
X231914286Y-50870057D02*
X231961905Y-50822438D01*
X231961905Y-50822438D02*
X232057143Y-50774819D01*
X232057143Y-50774819D02*
X232247619Y-50774819D01*
X232247619Y-50774819D02*
X232342857Y-50822438D01*
X232342857Y-50822438D02*
X232390476Y-50870057D01*
X232390476Y-50870057D02*
X232438095Y-50965295D01*
X232438095Y-50965295D02*
X232438095Y-51012914D01*
X232438095Y-51012914D02*
X232390476Y-51108152D01*
X232390476Y-51108152D02*
X232342857Y-51155771D01*
X232342857Y-51155771D02*
X232247619Y-51203390D01*
X232247619Y-51203390D02*
X232057143Y-51203390D01*
X232057143Y-51203390D02*
X231961905Y-51251009D01*
X231961905Y-51251009D02*
X231914286Y-51298628D01*
X231914286Y-51298628D02*
X231866667Y-51393866D01*
X231866667Y-51393866D02*
X231866667Y-51584342D01*
X231866667Y-51584342D02*
X231914286Y-51679580D01*
X231914286Y-51679580D02*
X231961905Y-51727200D01*
X231961905Y-51727200D02*
X232057143Y-51774819D01*
X232057143Y-51774819D02*
X232247619Y-51774819D01*
X232247619Y-51774819D02*
X232342857Y-51727200D01*
X232342857Y-51727200D02*
X232390476Y-51679580D01*
X232390476Y-51679580D02*
X232438095Y-51584342D01*
X232438095Y-51584342D02*
X232438095Y-51393866D01*
X232438095Y-51393866D02*
X232390476Y-51298628D01*
X232390476Y-51298628D02*
X232342857Y-51251009D01*
X232342857Y-51251009D02*
X232247619Y-51203390D01*
X189844642Y-118304819D02*
X189511309Y-117828628D01*
X189273214Y-118304819D02*
X189273214Y-117304819D01*
X189273214Y-117304819D02*
X189654166Y-117304819D01*
X189654166Y-117304819D02*
X189749404Y-117352438D01*
X189749404Y-117352438D02*
X189797023Y-117400057D01*
X189797023Y-117400057D02*
X189844642Y-117495295D01*
X189844642Y-117495295D02*
X189844642Y-117638152D01*
X189844642Y-117638152D02*
X189797023Y-117733390D01*
X189797023Y-117733390D02*
X189749404Y-117781009D01*
X189749404Y-117781009D02*
X189654166Y-117828628D01*
X189654166Y-117828628D02*
X189273214Y-117828628D01*
X190797023Y-118304819D02*
X190225595Y-118304819D01*
X190511309Y-118304819D02*
X190511309Y-117304819D01*
X190511309Y-117304819D02*
X190416071Y-117447676D01*
X190416071Y-117447676D02*
X190320833Y-117542914D01*
X190320833Y-117542914D02*
X190225595Y-117590533D01*
X191177976Y-117400057D02*
X191225595Y-117352438D01*
X191225595Y-117352438D02*
X191320833Y-117304819D01*
X191320833Y-117304819D02*
X191558928Y-117304819D01*
X191558928Y-117304819D02*
X191654166Y-117352438D01*
X191654166Y-117352438D02*
X191701785Y-117400057D01*
X191701785Y-117400057D02*
X191749404Y-117495295D01*
X191749404Y-117495295D02*
X191749404Y-117590533D01*
X191749404Y-117590533D02*
X191701785Y-117733390D01*
X191701785Y-117733390D02*
X191130357Y-118304819D01*
X191130357Y-118304819D02*
X191749404Y-118304819D01*
X221653333Y-54604819D02*
X221320000Y-54128628D01*
X221081905Y-54604819D02*
X221081905Y-53604819D01*
X221081905Y-53604819D02*
X221462857Y-53604819D01*
X221462857Y-53604819D02*
X221558095Y-53652438D01*
X221558095Y-53652438D02*
X221605714Y-53700057D01*
X221605714Y-53700057D02*
X221653333Y-53795295D01*
X221653333Y-53795295D02*
X221653333Y-53938152D01*
X221653333Y-53938152D02*
X221605714Y-54033390D01*
X221605714Y-54033390D02*
X221558095Y-54081009D01*
X221558095Y-54081009D02*
X221462857Y-54128628D01*
X221462857Y-54128628D02*
X221081905Y-54128628D01*
X222558095Y-53604819D02*
X222081905Y-53604819D01*
X222081905Y-53604819D02*
X222034286Y-54081009D01*
X222034286Y-54081009D02*
X222081905Y-54033390D01*
X222081905Y-54033390D02*
X222177143Y-53985771D01*
X222177143Y-53985771D02*
X222415238Y-53985771D01*
X222415238Y-53985771D02*
X222510476Y-54033390D01*
X222510476Y-54033390D02*
X222558095Y-54081009D01*
X222558095Y-54081009D02*
X222605714Y-54176247D01*
X222605714Y-54176247D02*
X222605714Y-54414342D01*
X222605714Y-54414342D02*
X222558095Y-54509580D01*
X222558095Y-54509580D02*
X222510476Y-54557200D01*
X222510476Y-54557200D02*
X222415238Y-54604819D01*
X222415238Y-54604819D02*
X222177143Y-54604819D01*
X222177143Y-54604819D02*
X222081905Y-54557200D01*
X222081905Y-54557200D02*
X222034286Y-54509580D01*
X225130952Y-45659580D02*
X225083333Y-45707200D01*
X225083333Y-45707200D02*
X224940476Y-45754819D01*
X224940476Y-45754819D02*
X224845238Y-45754819D01*
X224845238Y-45754819D02*
X224702381Y-45707200D01*
X224702381Y-45707200D02*
X224607143Y-45611961D01*
X224607143Y-45611961D02*
X224559524Y-45516723D01*
X224559524Y-45516723D02*
X224511905Y-45326247D01*
X224511905Y-45326247D02*
X224511905Y-45183390D01*
X224511905Y-45183390D02*
X224559524Y-44992914D01*
X224559524Y-44992914D02*
X224607143Y-44897676D01*
X224607143Y-44897676D02*
X224702381Y-44802438D01*
X224702381Y-44802438D02*
X224845238Y-44754819D01*
X224845238Y-44754819D02*
X224940476Y-44754819D01*
X224940476Y-44754819D02*
X225083333Y-44802438D01*
X225083333Y-44802438D02*
X225130952Y-44850057D01*
X225464286Y-44754819D02*
X226083333Y-44754819D01*
X226083333Y-44754819D02*
X225750000Y-45135771D01*
X225750000Y-45135771D02*
X225892857Y-45135771D01*
X225892857Y-45135771D02*
X225988095Y-45183390D01*
X225988095Y-45183390D02*
X226035714Y-45231009D01*
X226035714Y-45231009D02*
X226083333Y-45326247D01*
X226083333Y-45326247D02*
X226083333Y-45564342D01*
X226083333Y-45564342D02*
X226035714Y-45659580D01*
X226035714Y-45659580D02*
X225988095Y-45707200D01*
X225988095Y-45707200D02*
X225892857Y-45754819D01*
X225892857Y-45754819D02*
X225607143Y-45754819D01*
X225607143Y-45754819D02*
X225511905Y-45707200D01*
X225511905Y-45707200D02*
X225464286Y-45659580D01*
X226702381Y-44754819D02*
X226797619Y-44754819D01*
X226797619Y-44754819D02*
X226892857Y-44802438D01*
X226892857Y-44802438D02*
X226940476Y-44850057D01*
X226940476Y-44850057D02*
X226988095Y-44945295D01*
X226988095Y-44945295D02*
X227035714Y-45135771D01*
X227035714Y-45135771D02*
X227035714Y-45373866D01*
X227035714Y-45373866D02*
X226988095Y-45564342D01*
X226988095Y-45564342D02*
X226940476Y-45659580D01*
X226940476Y-45659580D02*
X226892857Y-45707200D01*
X226892857Y-45707200D02*
X226797619Y-45754819D01*
X226797619Y-45754819D02*
X226702381Y-45754819D01*
X226702381Y-45754819D02*
X226607143Y-45707200D01*
X226607143Y-45707200D02*
X226559524Y-45659580D01*
X226559524Y-45659580D02*
X226511905Y-45564342D01*
X226511905Y-45564342D02*
X226464286Y-45373866D01*
X226464286Y-45373866D02*
X226464286Y-45135771D01*
X226464286Y-45135771D02*
X226511905Y-44945295D01*
X226511905Y-44945295D02*
X226559524Y-44850057D01*
X226559524Y-44850057D02*
X226607143Y-44802438D01*
X226607143Y-44802438D02*
X226702381Y-44754819D01*
X227988095Y-45754819D02*
X227416667Y-45754819D01*
X227702381Y-45754819D02*
X227702381Y-44754819D01*
X227702381Y-44754819D02*
X227607143Y-44897676D01*
X227607143Y-44897676D02*
X227511905Y-44992914D01*
X227511905Y-44992914D02*
X227416667Y-45040533D01*
X236030952Y-45659580D02*
X235983333Y-45707200D01*
X235983333Y-45707200D02*
X235840476Y-45754819D01*
X235840476Y-45754819D02*
X235745238Y-45754819D01*
X235745238Y-45754819D02*
X235602381Y-45707200D01*
X235602381Y-45707200D02*
X235507143Y-45611961D01*
X235507143Y-45611961D02*
X235459524Y-45516723D01*
X235459524Y-45516723D02*
X235411905Y-45326247D01*
X235411905Y-45326247D02*
X235411905Y-45183390D01*
X235411905Y-45183390D02*
X235459524Y-44992914D01*
X235459524Y-44992914D02*
X235507143Y-44897676D01*
X235507143Y-44897676D02*
X235602381Y-44802438D01*
X235602381Y-44802438D02*
X235745238Y-44754819D01*
X235745238Y-44754819D02*
X235840476Y-44754819D01*
X235840476Y-44754819D02*
X235983333Y-44802438D01*
X235983333Y-44802438D02*
X236030952Y-44850057D01*
X236888095Y-45088152D02*
X236888095Y-45754819D01*
X236650000Y-44707200D02*
X236411905Y-45421485D01*
X236411905Y-45421485D02*
X237030952Y-45421485D01*
X237602381Y-44754819D02*
X237697619Y-44754819D01*
X237697619Y-44754819D02*
X237792857Y-44802438D01*
X237792857Y-44802438D02*
X237840476Y-44850057D01*
X237840476Y-44850057D02*
X237888095Y-44945295D01*
X237888095Y-44945295D02*
X237935714Y-45135771D01*
X237935714Y-45135771D02*
X237935714Y-45373866D01*
X237935714Y-45373866D02*
X237888095Y-45564342D01*
X237888095Y-45564342D02*
X237840476Y-45659580D01*
X237840476Y-45659580D02*
X237792857Y-45707200D01*
X237792857Y-45707200D02*
X237697619Y-45754819D01*
X237697619Y-45754819D02*
X237602381Y-45754819D01*
X237602381Y-45754819D02*
X237507143Y-45707200D01*
X237507143Y-45707200D02*
X237459524Y-45659580D01*
X237459524Y-45659580D02*
X237411905Y-45564342D01*
X237411905Y-45564342D02*
X237364286Y-45373866D01*
X237364286Y-45373866D02*
X237364286Y-45135771D01*
X237364286Y-45135771D02*
X237411905Y-44945295D01*
X237411905Y-44945295D02*
X237459524Y-44850057D01*
X237459524Y-44850057D02*
X237507143Y-44802438D01*
X237507143Y-44802438D02*
X237602381Y-44754819D01*
X238888095Y-45754819D02*
X238316667Y-45754819D01*
X238602381Y-45754819D02*
X238602381Y-44754819D01*
X238602381Y-44754819D02*
X238507143Y-44897676D01*
X238507143Y-44897676D02*
X238411905Y-44992914D01*
X238411905Y-44992914D02*
X238316667Y-45040533D01*
X142764833Y-120631819D02*
X142431500Y-120155628D01*
X142193405Y-120631819D02*
X142193405Y-119631819D01*
X142193405Y-119631819D02*
X142574357Y-119631819D01*
X142574357Y-119631819D02*
X142669595Y-119679438D01*
X142669595Y-119679438D02*
X142717214Y-119727057D01*
X142717214Y-119727057D02*
X142764833Y-119822295D01*
X142764833Y-119822295D02*
X142764833Y-119965152D01*
X142764833Y-119965152D02*
X142717214Y-120060390D01*
X142717214Y-120060390D02*
X142669595Y-120108009D01*
X142669595Y-120108009D02*
X142574357Y-120155628D01*
X142574357Y-120155628D02*
X142193405Y-120155628D01*
X143098167Y-119631819D02*
X143764833Y-119631819D01*
X143764833Y-119631819D02*
X143336262Y-120631819D01*
X229580952Y-45659580D02*
X229533333Y-45707200D01*
X229533333Y-45707200D02*
X229390476Y-45754819D01*
X229390476Y-45754819D02*
X229295238Y-45754819D01*
X229295238Y-45754819D02*
X229152381Y-45707200D01*
X229152381Y-45707200D02*
X229057143Y-45611961D01*
X229057143Y-45611961D02*
X229009524Y-45516723D01*
X229009524Y-45516723D02*
X228961905Y-45326247D01*
X228961905Y-45326247D02*
X228961905Y-45183390D01*
X228961905Y-45183390D02*
X229009524Y-44992914D01*
X229009524Y-44992914D02*
X229057143Y-44897676D01*
X229057143Y-44897676D02*
X229152381Y-44802438D01*
X229152381Y-44802438D02*
X229295238Y-44754819D01*
X229295238Y-44754819D02*
X229390476Y-44754819D01*
X229390476Y-44754819D02*
X229533333Y-44802438D01*
X229533333Y-44802438D02*
X229580952Y-44850057D01*
X229914286Y-44754819D02*
X230533333Y-44754819D01*
X230533333Y-44754819D02*
X230200000Y-45135771D01*
X230200000Y-45135771D02*
X230342857Y-45135771D01*
X230342857Y-45135771D02*
X230438095Y-45183390D01*
X230438095Y-45183390D02*
X230485714Y-45231009D01*
X230485714Y-45231009D02*
X230533333Y-45326247D01*
X230533333Y-45326247D02*
X230533333Y-45564342D01*
X230533333Y-45564342D02*
X230485714Y-45659580D01*
X230485714Y-45659580D02*
X230438095Y-45707200D01*
X230438095Y-45707200D02*
X230342857Y-45754819D01*
X230342857Y-45754819D02*
X230057143Y-45754819D01*
X230057143Y-45754819D02*
X229961905Y-45707200D01*
X229961905Y-45707200D02*
X229914286Y-45659580D01*
X231152381Y-44754819D02*
X231247619Y-44754819D01*
X231247619Y-44754819D02*
X231342857Y-44802438D01*
X231342857Y-44802438D02*
X231390476Y-44850057D01*
X231390476Y-44850057D02*
X231438095Y-44945295D01*
X231438095Y-44945295D02*
X231485714Y-45135771D01*
X231485714Y-45135771D02*
X231485714Y-45373866D01*
X231485714Y-45373866D02*
X231438095Y-45564342D01*
X231438095Y-45564342D02*
X231390476Y-45659580D01*
X231390476Y-45659580D02*
X231342857Y-45707200D01*
X231342857Y-45707200D02*
X231247619Y-45754819D01*
X231247619Y-45754819D02*
X231152381Y-45754819D01*
X231152381Y-45754819D02*
X231057143Y-45707200D01*
X231057143Y-45707200D02*
X231009524Y-45659580D01*
X231009524Y-45659580D02*
X230961905Y-45564342D01*
X230961905Y-45564342D02*
X230914286Y-45373866D01*
X230914286Y-45373866D02*
X230914286Y-45135771D01*
X230914286Y-45135771D02*
X230961905Y-44945295D01*
X230961905Y-44945295D02*
X231009524Y-44850057D01*
X231009524Y-44850057D02*
X231057143Y-44802438D01*
X231057143Y-44802438D02*
X231152381Y-44754819D01*
X232342857Y-44754819D02*
X232152381Y-44754819D01*
X232152381Y-44754819D02*
X232057143Y-44802438D01*
X232057143Y-44802438D02*
X232009524Y-44850057D01*
X232009524Y-44850057D02*
X231914286Y-44992914D01*
X231914286Y-44992914D02*
X231866667Y-45183390D01*
X231866667Y-45183390D02*
X231866667Y-45564342D01*
X231866667Y-45564342D02*
X231914286Y-45659580D01*
X231914286Y-45659580D02*
X231961905Y-45707200D01*
X231961905Y-45707200D02*
X232057143Y-45754819D01*
X232057143Y-45754819D02*
X232247619Y-45754819D01*
X232247619Y-45754819D02*
X232342857Y-45707200D01*
X232342857Y-45707200D02*
X232390476Y-45659580D01*
X232390476Y-45659580D02*
X232438095Y-45564342D01*
X232438095Y-45564342D02*
X232438095Y-45326247D01*
X232438095Y-45326247D02*
X232390476Y-45231009D01*
X232390476Y-45231009D02*
X232342857Y-45183390D01*
X232342857Y-45183390D02*
X232247619Y-45135771D01*
X232247619Y-45135771D02*
X232057143Y-45135771D01*
X232057143Y-45135771D02*
X231961905Y-45183390D01*
X231961905Y-45183390D02*
X231914286Y-45231009D01*
X231914286Y-45231009D02*
X231866667Y-45326247D01*
X190420833Y-112304819D02*
X190087500Y-111828628D01*
X189849405Y-112304819D02*
X189849405Y-111304819D01*
X189849405Y-111304819D02*
X190230357Y-111304819D01*
X190230357Y-111304819D02*
X190325595Y-111352438D01*
X190325595Y-111352438D02*
X190373214Y-111400057D01*
X190373214Y-111400057D02*
X190420833Y-111495295D01*
X190420833Y-111495295D02*
X190420833Y-111638152D01*
X190420833Y-111638152D02*
X190373214Y-111733390D01*
X190373214Y-111733390D02*
X190325595Y-111781009D01*
X190325595Y-111781009D02*
X190230357Y-111828628D01*
X190230357Y-111828628D02*
X189849405Y-111828628D01*
X190801786Y-111400057D02*
X190849405Y-111352438D01*
X190849405Y-111352438D02*
X190944643Y-111304819D01*
X190944643Y-111304819D02*
X191182738Y-111304819D01*
X191182738Y-111304819D02*
X191277976Y-111352438D01*
X191277976Y-111352438D02*
X191325595Y-111400057D01*
X191325595Y-111400057D02*
X191373214Y-111495295D01*
X191373214Y-111495295D02*
X191373214Y-111590533D01*
X191373214Y-111590533D02*
X191325595Y-111733390D01*
X191325595Y-111733390D02*
X190754167Y-112304819D01*
X190754167Y-112304819D02*
X191373214Y-112304819D01*
X221653333Y-51654819D02*
X221320000Y-51178628D01*
X221081905Y-51654819D02*
X221081905Y-50654819D01*
X221081905Y-50654819D02*
X221462857Y-50654819D01*
X221462857Y-50654819D02*
X221558095Y-50702438D01*
X221558095Y-50702438D02*
X221605714Y-50750057D01*
X221605714Y-50750057D02*
X221653333Y-50845295D01*
X221653333Y-50845295D02*
X221653333Y-50988152D01*
X221653333Y-50988152D02*
X221605714Y-51083390D01*
X221605714Y-51083390D02*
X221558095Y-51131009D01*
X221558095Y-51131009D02*
X221462857Y-51178628D01*
X221462857Y-51178628D02*
X221081905Y-51178628D01*
X222510476Y-50988152D02*
X222510476Y-51654819D01*
X222272381Y-50607200D02*
X222034286Y-51321485D01*
X222034286Y-51321485D02*
X222653333Y-51321485D01*
X191304819Y-132854166D02*
X190828628Y-133187499D01*
X191304819Y-133425594D02*
X190304819Y-133425594D01*
X190304819Y-133425594D02*
X190304819Y-133044642D01*
X190304819Y-133044642D02*
X190352438Y-132949404D01*
X190352438Y-132949404D02*
X190400057Y-132901785D01*
X190400057Y-132901785D02*
X190495295Y-132854166D01*
X190495295Y-132854166D02*
X190638152Y-132854166D01*
X190638152Y-132854166D02*
X190733390Y-132901785D01*
X190733390Y-132901785D02*
X190781009Y-132949404D01*
X190781009Y-132949404D02*
X190828628Y-133044642D01*
X190828628Y-133044642D02*
X190828628Y-133425594D01*
X190733390Y-132282737D02*
X190685771Y-132377975D01*
X190685771Y-132377975D02*
X190638152Y-132425594D01*
X190638152Y-132425594D02*
X190542914Y-132473213D01*
X190542914Y-132473213D02*
X190495295Y-132473213D01*
X190495295Y-132473213D02*
X190400057Y-132425594D01*
X190400057Y-132425594D02*
X190352438Y-132377975D01*
X190352438Y-132377975D02*
X190304819Y-132282737D01*
X190304819Y-132282737D02*
X190304819Y-132092261D01*
X190304819Y-132092261D02*
X190352438Y-131997023D01*
X190352438Y-131997023D02*
X190400057Y-131949404D01*
X190400057Y-131949404D02*
X190495295Y-131901785D01*
X190495295Y-131901785D02*
X190542914Y-131901785D01*
X190542914Y-131901785D02*
X190638152Y-131949404D01*
X190638152Y-131949404D02*
X190685771Y-131997023D01*
X190685771Y-131997023D02*
X190733390Y-132092261D01*
X190733390Y-132092261D02*
X190733390Y-132282737D01*
X190733390Y-132282737D02*
X190781009Y-132377975D01*
X190781009Y-132377975D02*
X190828628Y-132425594D01*
X190828628Y-132425594D02*
X190923866Y-132473213D01*
X190923866Y-132473213D02*
X191114342Y-132473213D01*
X191114342Y-132473213D02*
X191209580Y-132425594D01*
X191209580Y-132425594D02*
X191257200Y-132377975D01*
X191257200Y-132377975D02*
X191304819Y-132282737D01*
X191304819Y-132282737D02*
X191304819Y-132092261D01*
X191304819Y-132092261D02*
X191257200Y-131997023D01*
X191257200Y-131997023D02*
X191209580Y-131949404D01*
X191209580Y-131949404D02*
X191114342Y-131901785D01*
X191114342Y-131901785D02*
X190923866Y-131901785D01*
X190923866Y-131901785D02*
X190828628Y-131949404D01*
X190828628Y-131949404D02*
X190781009Y-131997023D01*
X190781009Y-131997023D02*
X190733390Y-132092261D01*
X225130952Y-48669580D02*
X225083333Y-48717200D01*
X225083333Y-48717200D02*
X224940476Y-48764819D01*
X224940476Y-48764819D02*
X224845238Y-48764819D01*
X224845238Y-48764819D02*
X224702381Y-48717200D01*
X224702381Y-48717200D02*
X224607143Y-48621961D01*
X224607143Y-48621961D02*
X224559524Y-48526723D01*
X224559524Y-48526723D02*
X224511905Y-48336247D01*
X224511905Y-48336247D02*
X224511905Y-48193390D01*
X224511905Y-48193390D02*
X224559524Y-48002914D01*
X224559524Y-48002914D02*
X224607143Y-47907676D01*
X224607143Y-47907676D02*
X224702381Y-47812438D01*
X224702381Y-47812438D02*
X224845238Y-47764819D01*
X224845238Y-47764819D02*
X224940476Y-47764819D01*
X224940476Y-47764819D02*
X225083333Y-47812438D01*
X225083333Y-47812438D02*
X225130952Y-47860057D01*
X225464286Y-47764819D02*
X226083333Y-47764819D01*
X226083333Y-47764819D02*
X225750000Y-48145771D01*
X225750000Y-48145771D02*
X225892857Y-48145771D01*
X225892857Y-48145771D02*
X225988095Y-48193390D01*
X225988095Y-48193390D02*
X226035714Y-48241009D01*
X226035714Y-48241009D02*
X226083333Y-48336247D01*
X226083333Y-48336247D02*
X226083333Y-48574342D01*
X226083333Y-48574342D02*
X226035714Y-48669580D01*
X226035714Y-48669580D02*
X225988095Y-48717200D01*
X225988095Y-48717200D02*
X225892857Y-48764819D01*
X225892857Y-48764819D02*
X225607143Y-48764819D01*
X225607143Y-48764819D02*
X225511905Y-48717200D01*
X225511905Y-48717200D02*
X225464286Y-48669580D01*
X226702381Y-47764819D02*
X226797619Y-47764819D01*
X226797619Y-47764819D02*
X226892857Y-47812438D01*
X226892857Y-47812438D02*
X226940476Y-47860057D01*
X226940476Y-47860057D02*
X226988095Y-47955295D01*
X226988095Y-47955295D02*
X227035714Y-48145771D01*
X227035714Y-48145771D02*
X227035714Y-48383866D01*
X227035714Y-48383866D02*
X226988095Y-48574342D01*
X226988095Y-48574342D02*
X226940476Y-48669580D01*
X226940476Y-48669580D02*
X226892857Y-48717200D01*
X226892857Y-48717200D02*
X226797619Y-48764819D01*
X226797619Y-48764819D02*
X226702381Y-48764819D01*
X226702381Y-48764819D02*
X226607143Y-48717200D01*
X226607143Y-48717200D02*
X226559524Y-48669580D01*
X226559524Y-48669580D02*
X226511905Y-48574342D01*
X226511905Y-48574342D02*
X226464286Y-48383866D01*
X226464286Y-48383866D02*
X226464286Y-48145771D01*
X226464286Y-48145771D02*
X226511905Y-47955295D01*
X226511905Y-47955295D02*
X226559524Y-47860057D01*
X226559524Y-47860057D02*
X226607143Y-47812438D01*
X226607143Y-47812438D02*
X226702381Y-47764819D01*
X227416667Y-47860057D02*
X227464286Y-47812438D01*
X227464286Y-47812438D02*
X227559524Y-47764819D01*
X227559524Y-47764819D02*
X227797619Y-47764819D01*
X227797619Y-47764819D02*
X227892857Y-47812438D01*
X227892857Y-47812438D02*
X227940476Y-47860057D01*
X227940476Y-47860057D02*
X227988095Y-47955295D01*
X227988095Y-47955295D02*
X227988095Y-48050533D01*
X227988095Y-48050533D02*
X227940476Y-48193390D01*
X227940476Y-48193390D02*
X227369048Y-48764819D01*
X227369048Y-48764819D02*
X227988095Y-48764819D01*
X236030952Y-48669580D02*
X235983333Y-48717200D01*
X235983333Y-48717200D02*
X235840476Y-48764819D01*
X235840476Y-48764819D02*
X235745238Y-48764819D01*
X235745238Y-48764819D02*
X235602381Y-48717200D01*
X235602381Y-48717200D02*
X235507143Y-48621961D01*
X235507143Y-48621961D02*
X235459524Y-48526723D01*
X235459524Y-48526723D02*
X235411905Y-48336247D01*
X235411905Y-48336247D02*
X235411905Y-48193390D01*
X235411905Y-48193390D02*
X235459524Y-48002914D01*
X235459524Y-48002914D02*
X235507143Y-47907676D01*
X235507143Y-47907676D02*
X235602381Y-47812438D01*
X235602381Y-47812438D02*
X235745238Y-47764819D01*
X235745238Y-47764819D02*
X235840476Y-47764819D01*
X235840476Y-47764819D02*
X235983333Y-47812438D01*
X235983333Y-47812438D02*
X236030952Y-47860057D01*
X236888095Y-48098152D02*
X236888095Y-48764819D01*
X236650000Y-47717200D02*
X236411905Y-48431485D01*
X236411905Y-48431485D02*
X237030952Y-48431485D01*
X237602381Y-47764819D02*
X237697619Y-47764819D01*
X237697619Y-47764819D02*
X237792857Y-47812438D01*
X237792857Y-47812438D02*
X237840476Y-47860057D01*
X237840476Y-47860057D02*
X237888095Y-47955295D01*
X237888095Y-47955295D02*
X237935714Y-48145771D01*
X237935714Y-48145771D02*
X237935714Y-48383866D01*
X237935714Y-48383866D02*
X237888095Y-48574342D01*
X237888095Y-48574342D02*
X237840476Y-48669580D01*
X237840476Y-48669580D02*
X237792857Y-48717200D01*
X237792857Y-48717200D02*
X237697619Y-48764819D01*
X237697619Y-48764819D02*
X237602381Y-48764819D01*
X237602381Y-48764819D02*
X237507143Y-48717200D01*
X237507143Y-48717200D02*
X237459524Y-48669580D01*
X237459524Y-48669580D02*
X237411905Y-48574342D01*
X237411905Y-48574342D02*
X237364286Y-48383866D01*
X237364286Y-48383866D02*
X237364286Y-48145771D01*
X237364286Y-48145771D02*
X237411905Y-47955295D01*
X237411905Y-47955295D02*
X237459524Y-47860057D01*
X237459524Y-47860057D02*
X237507143Y-47812438D01*
X237507143Y-47812438D02*
X237602381Y-47764819D01*
X238316667Y-47860057D02*
X238364286Y-47812438D01*
X238364286Y-47812438D02*
X238459524Y-47764819D01*
X238459524Y-47764819D02*
X238697619Y-47764819D01*
X238697619Y-47764819D02*
X238792857Y-47812438D01*
X238792857Y-47812438D02*
X238840476Y-47860057D01*
X238840476Y-47860057D02*
X238888095Y-47955295D01*
X238888095Y-47955295D02*
X238888095Y-48050533D01*
X238888095Y-48050533D02*
X238840476Y-48193390D01*
X238840476Y-48193390D02*
X238269048Y-48764819D01*
X238269048Y-48764819D02*
X238888095Y-48764819D01*
X221653333Y-45754819D02*
X221320000Y-45278628D01*
X221081905Y-45754819D02*
X221081905Y-44754819D01*
X221081905Y-44754819D02*
X221462857Y-44754819D01*
X221462857Y-44754819D02*
X221558095Y-44802438D01*
X221558095Y-44802438D02*
X221605714Y-44850057D01*
X221605714Y-44850057D02*
X221653333Y-44945295D01*
X221653333Y-44945295D02*
X221653333Y-45088152D01*
X221653333Y-45088152D02*
X221605714Y-45183390D01*
X221605714Y-45183390D02*
X221558095Y-45231009D01*
X221558095Y-45231009D02*
X221462857Y-45278628D01*
X221462857Y-45278628D02*
X221081905Y-45278628D01*
X222605714Y-45754819D02*
X222034286Y-45754819D01*
X222320000Y-45754819D02*
X222320000Y-44754819D01*
X222320000Y-44754819D02*
X222224762Y-44897676D01*
X222224762Y-44897676D02*
X222129524Y-44992914D01*
X222129524Y-44992914D02*
X222034286Y-45040533D01*
X236030952Y-51679580D02*
X235983333Y-51727200D01*
X235983333Y-51727200D02*
X235840476Y-51774819D01*
X235840476Y-51774819D02*
X235745238Y-51774819D01*
X235745238Y-51774819D02*
X235602381Y-51727200D01*
X235602381Y-51727200D02*
X235507143Y-51631961D01*
X235507143Y-51631961D02*
X235459524Y-51536723D01*
X235459524Y-51536723D02*
X235411905Y-51346247D01*
X235411905Y-51346247D02*
X235411905Y-51203390D01*
X235411905Y-51203390D02*
X235459524Y-51012914D01*
X235459524Y-51012914D02*
X235507143Y-50917676D01*
X235507143Y-50917676D02*
X235602381Y-50822438D01*
X235602381Y-50822438D02*
X235745238Y-50774819D01*
X235745238Y-50774819D02*
X235840476Y-50774819D01*
X235840476Y-50774819D02*
X235983333Y-50822438D01*
X235983333Y-50822438D02*
X236030952Y-50870057D01*
X236888095Y-51108152D02*
X236888095Y-51774819D01*
X236650000Y-50727200D02*
X236411905Y-51441485D01*
X236411905Y-51441485D02*
X237030952Y-51441485D01*
X237602381Y-50774819D02*
X237697619Y-50774819D01*
X237697619Y-50774819D02*
X237792857Y-50822438D01*
X237792857Y-50822438D02*
X237840476Y-50870057D01*
X237840476Y-50870057D02*
X237888095Y-50965295D01*
X237888095Y-50965295D02*
X237935714Y-51155771D01*
X237935714Y-51155771D02*
X237935714Y-51393866D01*
X237935714Y-51393866D02*
X237888095Y-51584342D01*
X237888095Y-51584342D02*
X237840476Y-51679580D01*
X237840476Y-51679580D02*
X237792857Y-51727200D01*
X237792857Y-51727200D02*
X237697619Y-51774819D01*
X237697619Y-51774819D02*
X237602381Y-51774819D01*
X237602381Y-51774819D02*
X237507143Y-51727200D01*
X237507143Y-51727200D02*
X237459524Y-51679580D01*
X237459524Y-51679580D02*
X237411905Y-51584342D01*
X237411905Y-51584342D02*
X237364286Y-51393866D01*
X237364286Y-51393866D02*
X237364286Y-51155771D01*
X237364286Y-51155771D02*
X237411905Y-50965295D01*
X237411905Y-50965295D02*
X237459524Y-50870057D01*
X237459524Y-50870057D02*
X237507143Y-50822438D01*
X237507143Y-50822438D02*
X237602381Y-50774819D01*
X238792857Y-51108152D02*
X238792857Y-51774819D01*
X238554762Y-50727200D02*
X238316667Y-51441485D01*
X238316667Y-51441485D02*
X238935714Y-51441485D01*
X156838095Y-83654819D02*
X156838095Y-84464342D01*
X156838095Y-84464342D02*
X156885714Y-84559580D01*
X156885714Y-84559580D02*
X156933333Y-84607200D01*
X156933333Y-84607200D02*
X157028571Y-84654819D01*
X157028571Y-84654819D02*
X157219047Y-84654819D01*
X157219047Y-84654819D02*
X157314285Y-84607200D01*
X157314285Y-84607200D02*
X157361904Y-84559580D01*
X157361904Y-84559580D02*
X157409523Y-84464342D01*
X157409523Y-84464342D02*
X157409523Y-83654819D01*
X157838095Y-83750057D02*
X157885714Y-83702438D01*
X157885714Y-83702438D02*
X157980952Y-83654819D01*
X157980952Y-83654819D02*
X158219047Y-83654819D01*
X158219047Y-83654819D02*
X158314285Y-83702438D01*
X158314285Y-83702438D02*
X158361904Y-83750057D01*
X158361904Y-83750057D02*
X158409523Y-83845295D01*
X158409523Y-83845295D02*
X158409523Y-83940533D01*
X158409523Y-83940533D02*
X158361904Y-84083390D01*
X158361904Y-84083390D02*
X157790476Y-84654819D01*
X157790476Y-84654819D02*
X158409523Y-84654819D01*
D14*
%TO.C,C101*%
X110405252Y-117992000D02*
X109882748Y-117992000D01*
X110405252Y-119462000D02*
X109882748Y-119462000D01*
%TO.C,C102*%
X105138748Y-138865000D02*
X105661252Y-138865000D01*
X105138748Y-140335000D02*
X105661252Y-140335000D01*
%TO.C,C104*%
X105388748Y-124665000D02*
X105911252Y-124665000D01*
X105388748Y-126135000D02*
X105911252Y-126135000D01*
%TO.C,C105*%
X114184000Y-105131437D02*
X114184000Y-108587000D01*
X114184000Y-108587000D02*
X115384000Y-108587000D01*
X115248437Y-104067000D02*
X114184000Y-105131437D01*
X115248437Y-104067000D02*
X115384000Y-104067000D01*
X117639563Y-104067000D02*
X117504000Y-104067000D01*
X117639563Y-104067000D02*
X118704000Y-105131437D01*
X118004000Y-103327000D02*
X118004000Y-103827000D01*
X118254000Y-103577000D02*
X117754000Y-103577000D01*
X118704000Y-105131437D02*
X118704000Y-108587000D01*
X118704000Y-108587000D02*
X117504000Y-108587000D01*
%TO.C,C501*%
X187632748Y-78292000D02*
X188155252Y-78292000D01*
X187632748Y-79762000D02*
X188155252Y-79762000D01*
%TO.C,C502*%
X187632748Y-82092000D02*
X188155252Y-82092000D01*
X187632748Y-83562000D02*
X188155252Y-83562000D01*
%TO.C,J101*%
X102346000Y-144520000D02*
X107866000Y-144520000D01*
X102346000Y-150080000D02*
X102346000Y-144520000D01*
X107866000Y-144520000D02*
X107866000Y-145520000D01*
X109366000Y-145520000D02*
X107866000Y-145520000D01*
X111906000Y-145520000D02*
X111105000Y-145520000D01*
X114446000Y-145520000D02*
X113645000Y-145520000D01*
X116986000Y-145520000D02*
X116185000Y-145520000D01*
X119526000Y-145520000D02*
X118725000Y-145520000D01*
X122066000Y-145520000D02*
X121265000Y-145520000D01*
X124606000Y-145520000D02*
X123805000Y-145520000D01*
X127146000Y-145520000D02*
X126345000Y-145520000D01*
X129686000Y-145520000D02*
X128885000Y-145520000D01*
X132226000Y-145520000D02*
X131425000Y-145520000D01*
X134766000Y-145520000D02*
X133965000Y-145520000D01*
X137306000Y-145520000D02*
X136505000Y-145520000D01*
X139846000Y-145520000D02*
X139045000Y-145520000D01*
X142386000Y-145520000D02*
X141585000Y-145520000D01*
X144926000Y-145520000D02*
X144125000Y-145520000D01*
X147466000Y-145520000D02*
X146665000Y-145520000D01*
X150006000Y-145520000D02*
X149205000Y-145520000D01*
X152546000Y-145520000D02*
X151745000Y-145520000D01*
X155086000Y-145520000D02*
X154285000Y-145520000D01*
X157626000Y-145520000D02*
X156825000Y-145520000D01*
X160166000Y-145520000D02*
X159365000Y-145520000D01*
X162706000Y-145520000D02*
X161905000Y-145520000D01*
X165246000Y-145520000D02*
X164445000Y-145520000D01*
X167786000Y-145520000D02*
X166985000Y-145520000D01*
X170326000Y-145520000D02*
X169525000Y-145520000D01*
X172866000Y-145520000D02*
X172065000Y-145520000D01*
X175406000Y-145520000D02*
X174605000Y-145520000D01*
X177946000Y-145520000D02*
X177145000Y-145520000D01*
X180486000Y-145520000D02*
X179685000Y-145520000D01*
X183026000Y-145520000D02*
X182225000Y-145520000D01*
X185566000Y-145520000D02*
X184765000Y-145520000D01*
X187881000Y-145520000D02*
X187305000Y-145520000D01*
X190071000Y-144780000D02*
X190671000Y-145080000D01*
X190671000Y-144480000D02*
X190071000Y-144780000D01*
X190671000Y-145080000D02*
X190671000Y-144480000D01*
X191346000Y-144520000D02*
X191346000Y-145520000D01*
X191347000Y-145520000D02*
X190071000Y-145520000D01*
X196866000Y-144520000D02*
X191346000Y-144520000D01*
X196866000Y-150080000D02*
X196866000Y-144520000D01*
%TO.C,J501*%
X189855662Y-88195000D02*
X190288675Y-88445000D01*
X189855662Y-88695000D02*
X189855662Y-88195000D01*
X190288675Y-88445000D02*
X189855662Y-88695000D01*
X190750000Y-77275000D02*
X199350000Y-77275000D01*
X190750000Y-108245000D02*
X190750000Y-77275000D01*
X199350000Y-108245000D02*
X190750000Y-108245000D01*
%TO.C,R101*%
X105366936Y-104592000D02*
X105821064Y-104592000D01*
X105366936Y-106062000D02*
X105821064Y-106062000D01*
%TO.C,R501*%
X183404436Y-78292000D02*
X183858564Y-78292000D01*
X183404436Y-79762000D02*
X183858564Y-79762000D01*
%TO.C,R502*%
X179441936Y-78292000D02*
X179896064Y-78292000D01*
X179441936Y-79762000D02*
X179896064Y-79762000D01*
%TO.C,R503*%
X187229436Y-103292000D02*
X187683564Y-103292000D01*
X187229436Y-104762000D02*
X187683564Y-104762000D01*
%TO.C,R504*%
X187229436Y-99892000D02*
X187683564Y-99892000D01*
X187229436Y-101362000D02*
X187683564Y-101362000D01*
%TO.C,U101*%
X104365000Y-131000000D02*
X104365000Y-129050000D01*
X104365000Y-131000000D02*
X104365000Y-134450000D01*
X113235000Y-131000000D02*
X113235000Y-129050000D01*
X113235000Y-131000000D02*
X113235000Y-132950000D01*
%TO.C,U102*%
X105434000Y-110067000D02*
X106694000Y-110067000D01*
X105434000Y-116077000D02*
X105434000Y-110067000D01*
X112254000Y-110067000D02*
X110994000Y-110067000D01*
X112254000Y-113827000D02*
X112254000Y-110067000D01*
D15*
%TO.C,U302*%
X132950000Y-112755000D02*
X138180000Y-112755000D01*
X132950000Y-118035000D02*
X138180000Y-118035000D01*
D16*
X130450000Y-112910000D02*
G75*
G02*
X130250000Y-112910000I-100000J0D01*
G01*
X130250000Y-112910000D02*
G75*
G02*
X130450000Y-112910000I100000J0D01*
G01*
%TO.C,U501*%
X179932000Y-88675000D02*
X186232000Y-88675000D01*
X179932000Y-94975000D02*
X179932000Y-88675000D01*
X186232000Y-88675000D02*
X186232000Y-94975000D01*
X186232000Y-94975000D02*
X179932000Y-94975000D01*
D17*
X178482000Y-88325000D02*
G75*
G02*
X178232000Y-88325000I-125000J0D01*
G01*
X178232000Y-88325000D02*
G75*
G02*
X178482000Y-88325000I125000J0D01*
G01*
D15*
%TO.C,U201*%
X154300000Y-133200000D02*
X154300000Y-128800000D01*
X162500000Y-133200000D02*
X162500000Y-128800000D01*
D16*
X154515000Y-135440000D02*
G75*
G02*
X154315000Y-135440000I-100000J0D01*
G01*
X154315000Y-135440000D02*
G75*
G02*
X154515000Y-135440000I100000J0D01*
G01*
D15*
%TO.C,U202*%
X142700000Y-133200000D02*
X142700000Y-128800000D01*
X150900000Y-133200000D02*
X150900000Y-128800000D01*
D16*
X142915000Y-135440000D02*
G75*
G02*
X142715000Y-135440000I-100000J0D01*
G01*
X142715000Y-135440000D02*
G75*
G02*
X142915000Y-135440000I100000J0D01*
G01*
D15*
%TO.C,U204*%
X118100000Y-133200000D02*
X118100000Y-128800000D01*
X126300000Y-133200000D02*
X126300000Y-128800000D01*
D16*
X118315000Y-135440000D02*
G75*
G02*
X118115000Y-135440000I-100000J0D01*
G01*
X118115000Y-135440000D02*
G75*
G02*
X118315000Y-135440000I100000J0D01*
G01*
D15*
%TO.C,U205*%
X179300000Y-133200000D02*
X179300000Y-128800000D01*
X187500000Y-133200000D02*
X187500000Y-128800000D01*
D16*
X179515000Y-135440000D02*
G75*
G02*
X179315000Y-135440000I-100000J0D01*
G01*
X179315000Y-135440000D02*
G75*
G02*
X179515000Y-135440000I100000J0D01*
G01*
D15*
%TO.C,U206*%
X166435000Y-133200000D02*
X166435000Y-128800000D01*
X174635000Y-133200000D02*
X174635000Y-128800000D01*
D16*
X166650000Y-135440000D02*
G75*
G02*
X166450000Y-135440000I-100000J0D01*
G01*
X166450000Y-135440000D02*
G75*
G02*
X166650000Y-135440000I100000J0D01*
G01*
D15*
%TO.C,U203*%
X130500000Y-133200000D02*
X130500000Y-128800000D01*
X138700000Y-133200000D02*
X138700000Y-128800000D01*
D16*
X130715000Y-135440000D02*
G75*
G02*
X130515000Y-135440000I-100000J0D01*
G01*
X130515000Y-135440000D02*
G75*
G02*
X130715000Y-135440000I100000J0D01*
G01*
D14*
%TO.C,C106*%
X109482748Y-104592000D02*
X110005252Y-104592000D01*
X109482748Y-106062000D02*
X110005252Y-106062000D01*
D16*
%TO.C,U402*%
X119894000Y-57527000D02*
X137594000Y-57527000D01*
X119894000Y-69527000D02*
X119894000Y-57527000D01*
X137594000Y-57527000D02*
X137594000Y-69527000D01*
X137594000Y-69527000D02*
X119894000Y-69527000D01*
X139244000Y-69777000D02*
X137944000Y-69777000D01*
%TO.C,U401*%
X111244000Y-73277000D02*
X128944000Y-73277000D01*
X111244000Y-85277000D02*
X111244000Y-73277000D01*
X128944000Y-73277000D02*
X128944000Y-85277000D01*
X128944000Y-85277000D02*
X111244000Y-85277000D01*
X130594000Y-85527000D02*
X129294000Y-85527000D01*
D14*
%TO.C,R6*%
X221592936Y-58015000D02*
X222047064Y-58015000D01*
X221592936Y-59485000D02*
X222047064Y-59485000D01*
%TO.C,C305*%
X225988748Y-58285000D02*
X226511252Y-58285000D01*
X225988748Y-59755000D02*
X226511252Y-59755000D01*
%TO.C,C303*%
X225988748Y-52265000D02*
X226511252Y-52265000D01*
X225988748Y-53735000D02*
X226511252Y-53735000D01*
D15*
%TO.C,Y1*%
X225225000Y-64600000D02*
X225225000Y-61400000D01*
X225501000Y-61400000D02*
X225225000Y-61400000D01*
X225501000Y-64600000D02*
X225225000Y-64600000D01*
X230225000Y-61400000D02*
X229949000Y-61400000D01*
X230225000Y-61400000D02*
X230225000Y-64600000D01*
X230225000Y-64600000D02*
X229949000Y-64600000D01*
D16*
X224825000Y-64200000D02*
G75*
G02*
X224625000Y-64200000I-100000J0D01*
G01*
X224625000Y-64200000D02*
G75*
G02*
X224825000Y-64200000I100000J0D01*
G01*
D14*
%TO.C,C310*%
X230438748Y-58285000D02*
X230961252Y-58285000D01*
X230438748Y-59755000D02*
X230961252Y-59755000D01*
%TO.C,C304*%
X225988748Y-55275000D02*
X226511252Y-55275000D01*
X225988748Y-56745000D02*
X226511252Y-56745000D01*
%TO.C,C307*%
X230438748Y-49255000D02*
X230961252Y-49255000D01*
X230438748Y-50725000D02*
X230961252Y-50725000D01*
%TO.C,C1*%
X138444000Y-71767000D02*
X138944000Y-71767000D01*
X138694000Y-71517000D02*
X138694000Y-72017000D01*
X139184000Y-72131437D02*
X139184000Y-72267000D01*
X139184000Y-72131437D02*
X140248437Y-71067000D01*
X139184000Y-74522563D02*
X139184000Y-74387000D01*
X139184000Y-74522563D02*
X140248437Y-75587000D01*
X140248437Y-71067000D02*
X143704000Y-71067000D01*
X140248437Y-75587000D02*
X143704000Y-75587000D01*
X143704000Y-71067000D02*
X143704000Y-72267000D01*
X143704000Y-75587000D02*
X143704000Y-74387000D01*
%TO.C,D2*%
X194200000Y-120635000D02*
X198085000Y-120635000D01*
X198085000Y-118365000D02*
X194200000Y-118365000D01*
X198085000Y-120635000D02*
X198085000Y-118365000D01*
%TO.C,J1*%
X172214000Y-73057000D02*
X172214000Y-71727000D01*
X173544000Y-73057000D02*
X172214000Y-73057000D01*
X174814000Y-70397000D02*
X187574000Y-70397000D01*
X174814000Y-73057000D02*
X174814000Y-70397000D01*
X174814000Y-73057000D02*
X187574000Y-73057000D01*
X187574000Y-73057000D02*
X187574000Y-70397000D01*
%TO.C,C309*%
X230438748Y-55275000D02*
X230961252Y-55275000D01*
X230438748Y-56745000D02*
X230961252Y-56745000D01*
%TO.C,D1*%
X194200000Y-114635000D02*
X198085000Y-114635000D01*
X198085000Y-112365000D02*
X194200000Y-112365000D01*
X198085000Y-114635000D02*
X198085000Y-112365000D01*
%TO.C,C103*%
X116311252Y-125065000D02*
X115788748Y-125065000D01*
X116311252Y-126535000D02*
X115788748Y-126535000D01*
%TO.C,C308*%
X230438748Y-52265000D02*
X230961252Y-52265000D01*
X230438748Y-53735000D02*
X230961252Y-53735000D01*
%TO.C,R12*%
X190260436Y-118765000D02*
X190714564Y-118765000D01*
X190260436Y-120235000D02*
X190714564Y-120235000D01*
%TO.C,R5*%
X221592936Y-55065000D02*
X222047064Y-55065000D01*
X221592936Y-56535000D02*
X222047064Y-56535000D01*
%TO.C,C301*%
X225988748Y-46245000D02*
X226511252Y-46245000D01*
X225988748Y-47715000D02*
X226511252Y-47715000D01*
%TO.C,C401*%
X236888748Y-46245000D02*
X237411252Y-46245000D01*
X236888748Y-47715000D02*
X237411252Y-47715000D01*
%TO.C,R7*%
X142360436Y-124165000D02*
X142814564Y-124165000D01*
X142360436Y-125635000D02*
X142814564Y-125635000D01*
%TO.C,C306*%
X230438748Y-46245000D02*
X230961252Y-46245000D01*
X230438748Y-47715000D02*
X230961252Y-47715000D01*
%TO.C,R2*%
X190360436Y-112765000D02*
X190814564Y-112765000D01*
X190360436Y-114235000D02*
X190814564Y-114235000D01*
%TO.C,R4*%
X221592936Y-52115000D02*
X222047064Y-52115000D01*
X221592936Y-53585000D02*
X222047064Y-53585000D01*
%TO.C,R8*%
X191765000Y-132914564D02*
X191765000Y-132460436D01*
X193235000Y-132914564D02*
X193235000Y-132460436D01*
%TO.C,C302*%
X225988748Y-49255000D02*
X226511252Y-49255000D01*
X225988748Y-50725000D02*
X226511252Y-50725000D01*
%TO.C,C402*%
X236888748Y-49255000D02*
X237411252Y-49255000D01*
X236888748Y-50725000D02*
X237411252Y-50725000D01*
%TO.C,R1*%
X221592936Y-46215000D02*
X222047064Y-46215000D01*
X221592936Y-47685000D02*
X222047064Y-47685000D01*
%TO.C,C404*%
X236888748Y-52265000D02*
X237411252Y-52265000D01*
X236888748Y-53735000D02*
X237411252Y-53735000D01*
%TO.C,U2*%
X148990000Y-102310000D02*
X148990000Y-86090000D01*
X149990000Y-85090000D02*
X166210000Y-85090000D01*
X166210000Y-85090000D02*
X166210000Y-102310000D01*
X166210000Y-102310000D02*
X148990000Y-102310000D01*
X148990000Y-85090000D02*
X148490000Y-85090000D01*
X148990000Y-84590000D01*
X148990000Y-85090000D01*
G36*
X148990000Y-85090000D02*
G01*
X148490000Y-85090000D01*
X148990000Y-84590000D01*
X148990000Y-85090000D01*
G37*
%TD*%
M02*
