%TF.GenerationSoftware,KiCad,Pcbnew,8.0.2*%
%TF.CreationDate,2024-06-03T14:24:13+01:00*%
%TF.ProjectId,GfxFPGAV2,47667846-5047-4415-9632-2e6b69636164,rev?*%
%TF.SameCoordinates,Original*%
%TF.FileFunction,Copper,L4,Bot*%
%TF.FilePolarity,Positive*%
%FSLAX46Y46*%
G04 Gerber Fmt 4.6, Leading zero omitted, Abs format (unit mm)*
G04 Created by KiCad (PCBNEW 8.0.2) date 2024-06-03 14:24:13*
%MOMM*%
%LPD*%
G01*
G04 APERTURE LIST*
G04 Aperture macros list*
%AMRoundRect*
0 Rectangle with rounded corners*
0 $1 Rounding radius*
0 $2 $3 $4 $5 $6 $7 $8 $9 X,Y pos of 4 corners*
0 Add a 4 corners polygon primitive as box body*
4,1,4,$2,$3,$4,$5,$6,$7,$8,$9,$2,$3,0*
0 Add four circle primitives for the rounded corners*
1,1,$1+$1,$2,$3*
1,1,$1+$1,$4,$5*
1,1,$1+$1,$6,$7*
1,1,$1+$1,$8,$9*
0 Add four rect primitives between the rounded corners*
20,1,$1+$1,$2,$3,$4,$5,0*
20,1,$1+$1,$4,$5,$6,$7,0*
20,1,$1+$1,$6,$7,$8,$9,0*
20,1,$1+$1,$8,$9,$2,$3,0*%
G04 Aperture macros list end*
%TA.AperFunction,ComponentPad*%
%ADD10RoundRect,0.249999X0.525001X0.525001X-0.525001X0.525001X-0.525001X-0.525001X0.525001X-0.525001X0*%
%TD*%
%TA.AperFunction,ComponentPad*%
%ADD11C,1.550000*%
%TD*%
%TA.AperFunction,ComponentPad*%
%ADD12C,4.000000*%
%TD*%
%TA.AperFunction,ComponentPad*%
%ADD13R,1.600000X1.600000*%
%TD*%
%TA.AperFunction,ComponentPad*%
%ADD14C,1.600000*%
%TD*%
%TA.AperFunction,ComponentPad*%
%ADD15R,1.700000X1.700000*%
%TD*%
%TA.AperFunction,ComponentPad*%
%ADD16O,1.700000X1.700000*%
%TD*%
%TA.AperFunction,SMDPad,CuDef*%
%ADD17RoundRect,0.250000X-0.250000X-0.475000X0.250000X-0.475000X0.250000X0.475000X-0.250000X0.475000X0*%
%TD*%
%TA.AperFunction,SMDPad,CuDef*%
%ADD18RoundRect,0.250000X0.475000X-0.250000X0.475000X0.250000X-0.475000X0.250000X-0.475000X-0.250000X0*%
%TD*%
%TA.AperFunction,SMDPad,CuDef*%
%ADD19RoundRect,0.250000X0.250000X0.475000X-0.250000X0.475000X-0.250000X-0.475000X0.250000X-0.475000X0*%
%TD*%
%TA.AperFunction,SMDPad,CuDef*%
%ADD20RoundRect,0.250000X0.450000X-0.262500X0.450000X0.262500X-0.450000X0.262500X-0.450000X-0.262500X0*%
%TD*%
%TA.AperFunction,SMDPad,CuDef*%
%ADD21RoundRect,0.250000X-0.450000X0.262500X-0.450000X-0.262500X0.450000X-0.262500X0.450000X0.262500X0*%
%TD*%
%TA.AperFunction,ViaPad*%
%ADD22C,0.800000*%
%TD*%
%TA.AperFunction,ViaPad*%
%ADD23C,0.250000*%
%TD*%
%TA.AperFunction,ViaPad*%
%ADD24C,0.300000*%
%TD*%
%TA.AperFunction,Conductor*%
%ADD25C,0.210000*%
%TD*%
%TA.AperFunction,Conductor*%
%ADD26C,0.350000*%
%TD*%
%TA.AperFunction,Conductor*%
%ADD27C,0.090000*%
%TD*%
%TA.AperFunction,Conductor*%
%ADD28C,0.250000*%
%TD*%
%TA.AperFunction,Conductor*%
%ADD29C,0.102000*%
%TD*%
%TA.AperFunction,Conductor*%
%ADD30C,0.101600*%
%TD*%
%TA.AperFunction,Conductor*%
%ADD31C,0.500000*%
%TD*%
G04 APERTURE END LIST*
D10*
%TO.P,J101,A1,+5V*%
%TO.N,+5V*%
X188976000Y-144780000D03*
D11*
%TO.P,J101,A2,GND*%
%TO.N,GND*%
X186436000Y-144780000D03*
%TO.P,J101,A3,D0*%
%TO.N,/CPU_D0*%
X183896000Y-144780000D03*
%TO.P,J101,A4,D2*%
%TO.N,/CPU_D2*%
X181356000Y-144780000D03*
%TO.P,J101,A5,D4*%
%TO.N,/CPU_D4*%
X178816000Y-144780000D03*
%TO.P,J101,A6,D6*%
%TO.N,/CPU_D6*%
X176276000Y-144780000D03*
%TO.P,J101,A7,D8*%
%TO.N,/CPU_D8*%
X173736000Y-144780000D03*
%TO.P,J101,A8,D10*%
%TO.N,/CPU_D10*%
X171196000Y-144780000D03*
%TO.P,J101,A9,D12*%
%TO.N,/CPU_D12*%
X168656000Y-144780000D03*
%TO.P,J101,A10,D14*%
%TO.N,/CPU_D14*%
X166116000Y-144780000D03*
%TO.P,J101,A11,GND*%
%TO.N,GND*%
X163576000Y-144780000D03*
%TO.P,J101,A12,A1*%
%TO.N,/CPU_A1*%
X161036000Y-144780000D03*
%TO.P,J101,A13,A3*%
%TO.N,/CPU_A3*%
X158496000Y-144780000D03*
%TO.P,J101,A14,A5*%
%TO.N,/CPU_A5*%
X155956000Y-144780000D03*
%TO.P,J101,A15,A7*%
%TO.N,/CPU_A7*%
X153416000Y-144780000D03*
%TO.P,J101,A16,A9*%
%TO.N,/CPU_A9*%
X150876000Y-144780000D03*
%TO.P,J101,A17,A11*%
%TO.N,/CPU_A11*%
X148336000Y-144780000D03*
%TO.P,J101,A18,A13*%
%TO.N,/CPU_A13*%
X145796000Y-144780000D03*
%TO.P,J101,A19,A15*%
%TO.N,/CPU_A15*%
X143256000Y-144780000D03*
%TO.P,J101,A20,A17*%
%TO.N,/CPU_A17*%
X140716000Y-144780000D03*
%TO.P,J101,A21,A19*%
%TO.N,/CPU_A19*%
X138176000Y-144780000D03*
%TO.P,J101,A22,~{AS}*%
%TO.N,/~{CPU_AS}*%
X135636000Y-144780000D03*
%TO.P,J101,A23,~{VPA}*%
%TO.N,unconnected-(J101-~{VPA}-PadA23)*%
X133096000Y-144780000D03*
%TO.P,J101,A24,+5V*%
%TO.N,+5V*%
X130556000Y-144780000D03*
%TO.P,J101,A25,~{LDS}*%
%TO.N,/~{CPU_LDS}*%
X128016000Y-144780000D03*
%TO.P,J101,A26,R/~{W}*%
%TO.N,/CPU_R~{W}*%
X125476000Y-144780000D03*
%TO.P,J101,A27,~{ID}*%
%TO.N,/~{CPU_REGCS}*%
X122936000Y-144780000D03*
%TO.P,J101,A28,~{IRQ}*%
%TO.N,Net-(J101-~{IRQ})*%
X120396000Y-144780000D03*
%TO.P,J101,A29,~{BERR}*%
%TO.N,unconnected-(J101-~{BERR}-PadA29)*%
X117856000Y-144780000D03*
%TO.P,J101,A30,-12V*%
%TO.N,unconnected-(J101--12V-PadA30)*%
X115316000Y-144780000D03*
%TO.P,J101,A31,+12V*%
%TO.N,unconnected-(J101-+12V-PadA31)*%
X112776000Y-144780000D03*
%TO.P,J101,A32,GND*%
%TO.N,GND*%
X110236000Y-144780000D03*
%TO.P,J101,C1,+5V*%
%TO.N,+5V*%
X188976000Y-139700000D03*
%TO.P,J101,C2,5V_STANDBY*%
%TO.N,unconnected-(J101-5V_STANDBY-PadC2)*%
X186436000Y-139700000D03*
%TO.P,J101,C3,D1*%
%TO.N,/CPU_D1*%
X183896000Y-139700000D03*
%TO.P,J101,C4,D3*%
%TO.N,/CPU_D3*%
X181356000Y-139700000D03*
%TO.P,J101,C5,D5*%
%TO.N,/CPU_D5*%
X178816000Y-139700000D03*
%TO.P,J101,C6,D7*%
%TO.N,/CPU_D7*%
X176276000Y-139700000D03*
%TO.P,J101,C7,D9*%
%TO.N,/CPU_D9*%
X173736000Y-139700000D03*
%TO.P,J101,C8,D11*%
%TO.N,/CPU_D11*%
X171196000Y-139700000D03*
%TO.P,J101,C9,D13*%
%TO.N,/CPU_D13*%
X168656000Y-139700000D03*
%TO.P,J101,C10,D15*%
%TO.N,/CPU_D15*%
X166116000Y-139700000D03*
%TO.P,J101,C11,GND*%
%TO.N,GND*%
X163576000Y-139700000D03*
%TO.P,J101,C12,A2*%
%TO.N,/CPU_A2*%
X161036000Y-139700000D03*
%TO.P,J101,C13,A4*%
%TO.N,/CPU_A4*%
X158496000Y-139700000D03*
%TO.P,J101,C14,A6*%
%TO.N,/CPU_A6*%
X155956000Y-139700000D03*
%TO.P,J101,C15,A8*%
%TO.N,/CPU_A8*%
X153416000Y-139700000D03*
%TO.P,J101,C16,A10*%
%TO.N,/CPU_A10*%
X150876000Y-139700000D03*
%TO.P,J101,C17,A12*%
%TO.N,/CPU_A12*%
X148336000Y-139700000D03*
%TO.P,J101,C18,A14*%
%TO.N,/CPU_A14*%
X145796000Y-139700000D03*
%TO.P,J101,C19,A16*%
%TO.N,/CPU_A16*%
X143256000Y-139700000D03*
%TO.P,J101,C20,A18*%
%TO.N,/CPU_A18*%
X140716000Y-139700000D03*
%TO.P,J101,C21,E*%
%TO.N,unconnected-(J101-E-PadC21)*%
X138176000Y-139700000D03*
%TO.P,J101,C22,~{VMA}*%
%TO.N,unconnected-(J101-~{VMA}-PadC22)*%
X135636000Y-139700000D03*
%TO.P,J101,C23,SYS_CLK*%
%TO.N,/CPU_CLK*%
X133096000Y-139700000D03*
%TO.P,J101,C24,GND*%
%TO.N,GND*%
X130556000Y-139700000D03*
%TO.P,J101,C25,~{UDS}*%
%TO.N,/~{CPU_UDS}*%
X128016000Y-139700000D03*
%TO.P,J101,C26,~{RESET}*%
%TO.N,/~{CPU_RESET}*%
X125476000Y-139700000D03*
%TO.P,J101,C27,~{CS}*%
%TO.N,/~{CPU_DATACS}*%
X122936000Y-139700000D03*
%TO.P,J101,C28,~{ACK}*%
%TO.N,Net-(J101-~{ACK})*%
X120396000Y-139700000D03*
%TO.P,J101,C29,~{PRD}*%
%TO.N,GND*%
X117856000Y-139700000D03*
%TO.P,J101,C30,+3.3V*%
%TO.N,+3V3*%
X115316000Y-139700000D03*
%TO.P,J101,C31,+12V*%
%TO.N,unconnected-(J101-+12V-PadC31)*%
X112776000Y-139700000D03*
%TO.P,J101,C32,GND*%
%TO.N,GND*%
X110236000Y-139700000D03*
%TD*%
D12*
%TO.P,J501,0*%
%TO.N,GND*%
X194470000Y-105260000D03*
X194470000Y-80260000D03*
D13*
%TO.P,J501,1*%
%TO.N,Net-(U501-IOR)*%
X192420000Y-88445000D03*
D14*
%TO.P,J501,2*%
%TO.N,Net-(U501-IOG)*%
X192420000Y-90735000D03*
%TO.P,J501,3*%
%TO.N,Net-(U501-IOB)*%
X192420000Y-93025000D03*
%TO.P,J501,4*%
%TO.N,unconnected-(J501-Pad4)*%
X192420000Y-95315000D03*
%TO.P,J501,5*%
%TO.N,GND*%
X192420000Y-97605000D03*
%TO.P,J501,6*%
X194400000Y-87300000D03*
%TO.P,J501,7*%
X194400000Y-89590000D03*
%TO.P,J501,8*%
X194400000Y-91880000D03*
%TO.P,J501,9*%
%TO.N,unconnected-(J501-Pad9)*%
X194400000Y-94170000D03*
%TO.P,J501,10*%
%TO.N,GND*%
X194400000Y-96460000D03*
%TO.P,J501,11*%
%TO.N,unconnected-(J501-Pad11)*%
X196380000Y-88445000D03*
%TO.P,J501,12*%
%TO.N,unconnected-(J501-Pad12)*%
X196380000Y-90735000D03*
%TO.P,J501,13*%
%TO.N,Net-(J501-Pad13)*%
X196380000Y-93025000D03*
%TO.P,J501,14*%
%TO.N,Net-(J501-Pad14)*%
X196380000Y-95315000D03*
%TO.P,J501,15*%
%TO.N,unconnected-(J501-Pad15)*%
X196380000Y-97605000D03*
%TD*%
D15*
%TO.P,J1,1,Pin_1*%
%TO.N,+3V3*%
X173544000Y-71727000D03*
D16*
%TO.P,J1,2,Pin_2*%
%TO.N,/FPGA/TCK*%
X176084000Y-71727000D03*
%TO.P,J1,3,Pin_3*%
%TO.N,/FPGA/TDI*%
X178624000Y-71727000D03*
%TO.P,J1,4,Pin_4*%
%TO.N,/FPGA/TDO*%
X181164000Y-71727000D03*
%TO.P,J1,5,Pin_5*%
%TO.N,/FPGA/TMS*%
X183704000Y-71727000D03*
%TO.P,J1,6,Pin_6*%
%TO.N,GND*%
X186244000Y-71727000D03*
%TD*%
D17*
%TO.P,C201,1*%
%TO.N,+5V*%
X182400000Y-132900000D03*
%TO.P,C201,2*%
%TO.N,GND*%
X184300000Y-132900000D03*
%TD*%
%TO.P,C202,1*%
%TO.N,+5V*%
X169600000Y-132800000D03*
%TO.P,C202,2*%
%TO.N,GND*%
X171500000Y-132800000D03*
%TD*%
%TO.P,C203,1*%
%TO.N,+5V*%
X157450000Y-132800000D03*
%TO.P,C203,2*%
%TO.N,GND*%
X159350000Y-132800000D03*
%TD*%
%TO.P,C204,1*%
%TO.N,+5V*%
X145900000Y-132900000D03*
%TO.P,C204,2*%
%TO.N,GND*%
X147800000Y-132900000D03*
%TD*%
%TO.P,C205,1*%
%TO.N,+5V*%
X133700000Y-132900000D03*
%TO.P,C205,2*%
%TO.N,GND*%
X135600000Y-132900000D03*
%TD*%
%TO.P,C206,1*%
%TO.N,+5V*%
X121250000Y-133200000D03*
%TO.P,C206,2*%
%TO.N,GND*%
X123150000Y-133200000D03*
%TD*%
%TO.P,C207,1*%
%TO.N,+3V3*%
X182400000Y-129000000D03*
%TO.P,C207,2*%
%TO.N,GND*%
X184300000Y-129000000D03*
%TD*%
%TO.P,C208,1*%
%TO.N,+3V3*%
X169600000Y-129100000D03*
%TO.P,C208,2*%
%TO.N,GND*%
X171500000Y-129100000D03*
%TD*%
%TO.P,C209,1*%
%TO.N,+3V3*%
X157400000Y-129100000D03*
%TO.P,C209,2*%
%TO.N,GND*%
X159300000Y-129100000D03*
%TD*%
%TO.P,C210,1*%
%TO.N,+3V3*%
X145850000Y-129100000D03*
%TO.P,C210,2*%
%TO.N,GND*%
X147750000Y-129100000D03*
%TD*%
%TO.P,C211,1*%
%TO.N,+3V3*%
X133650000Y-129100000D03*
%TO.P,C211,2*%
%TO.N,GND*%
X135550000Y-129100000D03*
%TD*%
%TO.P,C212,1*%
%TO.N,+3V3*%
X121250000Y-129100000D03*
%TO.P,C212,2*%
%TO.N,GND*%
X123150000Y-129100000D03*
%TD*%
D18*
%TO.P,C403,1*%
%TO.N,+3V3*%
X135150000Y-113600000D03*
%TO.P,C403,2*%
%TO.N,GND*%
X135150000Y-111700000D03*
%TD*%
D19*
%TO.P,C503,1*%
%TO.N,+3V3*%
X183694000Y-90037000D03*
%TO.P,C503,2*%
%TO.N,GND*%
X181794000Y-90037000D03*
%TD*%
%TO.P,C504,1*%
%TO.N,+3V3*%
X183744000Y-93427000D03*
%TO.P,C504,2*%
%TO.N,GND*%
X181844000Y-93427000D03*
%TD*%
D20*
%TO.P,R301,1*%
%TO.N,+3V3*%
X135150000Y-117600000D03*
%TO.P,R301,2*%
%TO.N,Net-(U302-WP{slash}IO2)*%
X135150000Y-115775000D03*
%TD*%
D21*
%TO.P,R302,1*%
%TO.N,+3V3*%
X131950000Y-109650000D03*
%TO.P,R302,2*%
%TO.N,/FPGA/~{FLASH_CS}*%
X131950000Y-111475000D03*
%TD*%
%TO.P,R303,1*%
%TO.N,+3V3*%
X141400000Y-112725000D03*
%TO.P,R303,2*%
%TO.N,Net-(U302-HOLD{slash}IO3)*%
X141400000Y-114550000D03*
%TD*%
D22*
%TO.N,+5V*%
X167000000Y-132500000D03*
X131300000Y-132400000D03*
X143500000Y-132400000D03*
X119000000Y-132700000D03*
X179800000Y-132500000D03*
X104990000Y-135590000D03*
X155000000Y-132400000D03*
D23*
%TO.N,+1V2*%
X158400000Y-93900000D03*
X158400000Y-92500000D03*
D22*
X108844000Y-111827000D03*
D23*
X158800000Y-94900000D03*
D22*
X111444000Y-108827000D03*
D23*
X156400000Y-92500000D03*
X156800000Y-92900000D03*
D22*
X105944000Y-108827000D03*
D23*
X158800000Y-93500000D03*
X156400000Y-93900000D03*
X156800000Y-95500000D03*
%TO.N,/FPGA/TCK*%
X169800000Y-79100000D03*
X163500000Y-88300000D03*
%TO.N,/FPGA/TDO*%
X162900000Y-90000000D03*
X170300000Y-78300000D03*
D22*
%TO.N,/FPGA/TDI*%
X144444000Y-70327000D03*
D23*
%TO.N,/FPGA/TMS*%
X172700000Y-81815000D03*
X168000000Y-86100000D03*
D22*
%TO.N,Net-(J501-Pad13)*%
X191300000Y-101900000D03*
%TO.N,/FPGA/~{FLASH_CS}*%
X131950000Y-112500000D03*
D23*
X145800000Y-108600000D03*
X149900000Y-108600000D03*
%TO.N,/FPGA/~{CPU_DATAEN}*%
X170700000Y-104400000D03*
D22*
X190625000Y-131775000D03*
%TO.N,/FPGA/HOST_CLK*%
X127950000Y-112950000D03*
%TO.N,/FPGA/~{LDS}*%
X112000000Y-121100000D03*
X124400000Y-121100000D03*
%TO.N,/FPGA/~{UDS}*%
X128900000Y-109550000D03*
D23*
X152800000Y-97600000D03*
%TO.N,/FPGA/~{RESET}*%
X142100000Y-94300000D03*
D22*
X123200000Y-122200000D03*
D23*
X152700000Y-94600000D03*
D22*
X103300000Y-122200000D03*
X113800000Y-93400000D03*
X102700000Y-103300000D03*
%TO.N,/FPGA/~{REGCS}*%
X141600000Y-76700000D03*
X122150000Y-109300000D03*
%TO.N,/FPGA/~{DATACS}*%
X126000000Y-108000000D03*
X157200000Y-74100000D03*
%TO.N,Net-(U302-WP{slash}IO2)*%
X130400000Y-115750000D03*
%TO.N,Net-(U302-HOLD{slash}IO3)*%
X142400000Y-114750000D03*
D23*
%TO.N,/FPGA/DATA_DIR*%
X157600000Y-97700000D03*
D22*
X178100000Y-135900000D03*
X165300000Y-135900000D03*
%TO.N,/FPGA/~{ACCESS_LED}*%
X197350000Y-122000000D03*
X120250000Y-123200000D03*
%TO.N,/FPGA/FPGA_DONE*%
X189700000Y-110600000D03*
X182600000Y-110600000D03*
%TO.N,/FPGA/FLASH_DI*%
X144750000Y-114400000D03*
X147800000Y-114400000D03*
%TO.N,/FPGA/FLASH_CLK*%
X141200000Y-116050000D03*
D23*
%TO.N,/FPGA/SRAM_D5*%
X152600000Y-90700000D03*
X141000000Y-85315000D03*
%TO.N,/FPGA/SRAM_D0*%
X141400000Y-81815000D03*
X152600000Y-89700000D03*
%TO.N,/FPGA/SRAM_D28*%
X140900000Y-88315000D03*
X154700000Y-91700000D03*
%TO.N,/FPGA/A19*%
X147300000Y-107700000D03*
X153700000Y-97600000D03*
%TO.N,/FPGA/A18*%
X149300000Y-108200000D03*
X154700000Y-97700000D03*
D22*
%TO.N,/FPGA/D14*%
X134100000Y-123150000D03*
X163950000Y-124550000D03*
D23*
%TO.N,GND*%
X149800000Y-101500000D03*
D22*
X106500000Y-113700000D03*
X161900000Y-132300000D03*
X115644000Y-66827000D03*
D23*
X161800000Y-88900000D03*
D22*
X132044000Y-78527000D03*
D23*
X156400000Y-94900000D03*
D22*
X107050000Y-130750000D03*
D23*
X157400000Y-91900000D03*
X156100000Y-86800000D03*
D22*
X112744000Y-82427000D03*
X138000000Y-129800000D03*
D23*
X165600000Y-86200000D03*
D22*
X106500000Y-116600000D03*
D23*
X161400000Y-92900000D03*
X159800000Y-87500000D03*
D22*
X148800000Y-130100000D03*
X111340000Y-130440000D03*
X188844000Y-94827000D03*
X180344000Y-89527000D03*
D23*
X163500000Y-99000000D03*
D22*
X185444000Y-90427000D03*
X186300000Y-132000000D03*
X125500000Y-132400000D03*
D23*
X157400000Y-96900000D03*
X157400000Y-94500000D03*
X149800000Y-86000000D03*
D22*
X160900000Y-130000000D03*
X135150000Y-109750000D03*
D23*
X152800000Y-88900000D03*
D22*
X106544000Y-106327000D03*
X116444000Y-109827000D03*
X173700000Y-132500000D03*
D23*
X165500000Y-101600000D03*
D22*
X182744000Y-80627000D03*
D23*
X153800000Y-94500000D03*
X163800000Y-91900000D03*
D22*
X111644000Y-105227000D03*
X136344000Y-62727000D03*
X181844000Y-93427000D03*
X112744000Y-79527000D03*
D23*
X162300000Y-98600000D03*
X157800000Y-90500000D03*
D22*
X130200000Y-117700000D03*
X150100000Y-132400000D03*
X107900000Y-118700000D03*
D23*
X163800000Y-96500000D03*
X155100000Y-99800000D03*
X150700000Y-96200000D03*
D22*
X173400000Y-129900000D03*
D23*
X157800000Y-95500000D03*
X150800000Y-92200000D03*
X155800000Y-93500000D03*
D22*
X124300000Y-129900000D03*
D23*
X152100000Y-99600000D03*
X159100000Y-99800000D03*
D22*
X137900000Y-132400000D03*
X106300000Y-140800000D03*
X181844000Y-90027000D03*
X197200000Y-111700000D03*
X143244000Y-75000000D03*
X116244000Y-64327000D03*
D23*
X157800000Y-92900000D03*
D22*
X186900000Y-129800000D03*
%TO.N,+3V3*%
X155100000Y-129900000D03*
X136400000Y-117600000D03*
X188400000Y-119500000D03*
D23*
X162100000Y-99800000D03*
D22*
X143450000Y-129800000D03*
D23*
X162400000Y-92500000D03*
X158400000Y-96500000D03*
X157100000Y-99900000D03*
D22*
X179344000Y-95727000D03*
D23*
X159400000Y-94500000D03*
X155400000Y-95900000D03*
D22*
X132044000Y-80127000D03*
X116244000Y-62927000D03*
X183694000Y-91677000D03*
D23*
X154800000Y-92900000D03*
D22*
X111144000Y-113727000D03*
X136344000Y-64127000D03*
D23*
X159800000Y-91500000D03*
D22*
X131200000Y-129800000D03*
D23*
X163700000Y-94200000D03*
D22*
X185444000Y-92027000D03*
D23*
X154400000Y-89900000D03*
X153400000Y-92500000D03*
X151400000Y-88900000D03*
D22*
X136625000Y-113475000D03*
X111144000Y-116927000D03*
D23*
X158800000Y-91900000D03*
D22*
X133150000Y-109650000D03*
D23*
X155700000Y-89600000D03*
X156800000Y-90900000D03*
X162400000Y-94900000D03*
D22*
X166800000Y-129800000D03*
D23*
X161800000Y-87500000D03*
D22*
X186944000Y-80927000D03*
X193600000Y-133600000D03*
D23*
X158800000Y-97900000D03*
X153300000Y-95000000D03*
D22*
X112744000Y-78027000D03*
D23*
X159400000Y-89500000D03*
X153100000Y-99900000D03*
D22*
X180500000Y-129900000D03*
D23*
X163700000Y-89200000D03*
D24*
X150700000Y-94200000D03*
D23*
X158100000Y-87600000D03*
X155800000Y-97900000D03*
X153100000Y-86800000D03*
D22*
X118900000Y-129900000D03*
D23*
X150800000Y-98500000D03*
D22*
X178744000Y-80527000D03*
%TD*%
D25*
%TO.N,+5V*%
X143500000Y-132400000D02*
X144000000Y-132900000D01*
X156500000Y-132400000D02*
X157400000Y-132400000D01*
X144000000Y-132900000D02*
X145900000Y-132900000D01*
X119500000Y-133200000D02*
X121250000Y-133200000D01*
X131300000Y-132400000D02*
X131800000Y-132900000D01*
X131800000Y-132900000D02*
X133700000Y-132900000D01*
X179800000Y-132500000D02*
X182000000Y-132500000D01*
D26*
X157400000Y-132400000D02*
X157450000Y-132450000D01*
D25*
X119000000Y-132700000D02*
X119500000Y-133200000D01*
X167300000Y-132800000D02*
X169600000Y-132800000D01*
X167000000Y-132500000D02*
X167300000Y-132800000D01*
D26*
X157450000Y-132450000D02*
X157450000Y-132800000D01*
D25*
X182000000Y-132500000D02*
X182400000Y-132900000D01*
X155000000Y-132400000D02*
X156500000Y-132400000D01*
D27*
%TO.N,/FPGA/TCK*%
X169800000Y-79500000D02*
X169800000Y-79100000D01*
X163600000Y-85700000D02*
X169800000Y-79500000D01*
X163600000Y-88000000D02*
X163600000Y-85700000D01*
X163500000Y-88100000D02*
X163600000Y-88000000D01*
X163500000Y-88300000D02*
X163500000Y-88100000D01*
%TO.N,/FPGA/TDO*%
X169300000Y-78900000D02*
X169900000Y-78300000D01*
X169300000Y-79400000D02*
X169300000Y-78900000D01*
X162600000Y-89700000D02*
X162600000Y-86100000D01*
X169900000Y-78300000D02*
X170300000Y-78300000D01*
X162600000Y-86100000D02*
X169300000Y-79400000D01*
X162900000Y-90000000D02*
X162600000Y-89700000D01*
D28*
%TO.N,/FPGA/TDI*%
X169644000Y-70327000D02*
X170444000Y-69527000D01*
X144444000Y-70327000D02*
X169644000Y-70327000D01*
X178624000Y-70307000D02*
X178624000Y-71727000D01*
X170444000Y-69527000D02*
X177844000Y-69527000D01*
X177844000Y-69527000D02*
X178624000Y-70307000D01*
D27*
%TO.N,/FPGA/TMS*%
X168000000Y-86100000D02*
X172285000Y-81815000D01*
X172285000Y-81815000D02*
X172700000Y-81815000D01*
D25*
%TO.N,Net-(J501-Pad13)*%
X191300000Y-101900000D02*
X196600000Y-101900000D01*
X197525000Y-93025000D02*
X196380000Y-93025000D01*
X198200000Y-100300000D02*
X198200000Y-93700000D01*
X196600000Y-101900000D02*
X198200000Y-100300000D01*
X198200000Y-93700000D02*
X197525000Y-93025000D01*
D28*
%TO.N,/FPGA/~{FLASH_CS}*%
X131950000Y-111475000D02*
X131950000Y-112500000D01*
D27*
X149900000Y-108600000D02*
X145800000Y-108600000D01*
D28*
%TO.N,/FPGA/~{CPU_DATAEN}*%
X190625000Y-131775000D02*
X190600000Y-131750000D01*
X190600000Y-117450000D02*
X189500000Y-116350000D01*
X190600000Y-131750000D02*
X190600000Y-117450000D01*
D27*
X170700000Y-107600000D02*
X177900000Y-114800000D01*
D28*
X179450000Y-116350000D02*
X177900000Y-114800000D01*
X177900000Y-114800000D02*
X176800000Y-113700000D01*
X189500000Y-116350000D02*
X179450000Y-116350000D01*
D27*
X170700000Y-104400000D02*
X170700000Y-107600000D01*
%TO.N,/FPGA/~{BUSEN}*%
X163600000Y-120300000D02*
X165300000Y-122000000D01*
D25*
%TO.N,/FPGA/HOST_CLK*%
X149100000Y-79100000D02*
X149800000Y-78400000D01*
X127950000Y-112950000D02*
X127450000Y-112450000D01*
X156200000Y-78400000D02*
X156600000Y-78800000D01*
X128800000Y-81300000D02*
X135300000Y-81300000D01*
X127450000Y-82650000D02*
X128800000Y-81300000D01*
X135300000Y-81300000D02*
X137500000Y-79100000D01*
X149800000Y-78400000D02*
X156200000Y-78400000D01*
X127450000Y-112450000D02*
X127450000Y-82650000D01*
X137500000Y-79100000D02*
X149100000Y-79100000D01*
%TO.N,/FPGA/~{LDS}*%
X124400000Y-121100000D02*
X112000000Y-121100000D01*
D29*
%TO.N,/FPGA/~{UDS}*%
X129350000Y-107050000D02*
X129100000Y-107300000D01*
X129800000Y-106600000D02*
X129350000Y-107050000D01*
X129350000Y-107050000D02*
X128900000Y-107500000D01*
X152600000Y-105400000D02*
X151500000Y-106500000D01*
X151300000Y-106500000D02*
X151200000Y-106600000D01*
X152800000Y-97600000D02*
X152600000Y-97800000D01*
X151500000Y-106500000D02*
X151300000Y-106500000D01*
D25*
X128900000Y-109550000D02*
X128900000Y-107500000D01*
D29*
X151200000Y-106600000D02*
X129800000Y-106600000D01*
X152600000Y-97800000D02*
X152600000Y-105400000D01*
D25*
%TO.N,/FPGA/~{RESET}*%
X123200000Y-122200000D02*
X103300000Y-122200000D01*
X113800000Y-93400000D02*
X113800000Y-103000000D01*
X113500000Y-103300000D02*
X113800000Y-103000000D01*
D30*
X142800000Y-94600000D02*
X142400000Y-94600000D01*
X142400000Y-94600000D02*
X142100000Y-94300000D01*
X152700000Y-94600000D02*
X142800000Y-94600000D01*
D25*
X102700000Y-103300000D02*
X113500000Y-103300000D01*
%TO.N,/FPGA/~{REGCS}*%
X140600000Y-75700000D02*
X141600000Y-76700000D01*
X122200000Y-78400000D02*
X124900000Y-75700000D01*
X122150000Y-109300000D02*
X122200000Y-109250000D01*
X124900000Y-75700000D02*
X140600000Y-75700000D01*
X122200000Y-109250000D02*
X122200000Y-78400000D01*
%TO.N,/FPGA/~{DATACS}*%
X146700000Y-74800000D02*
X147400000Y-74100000D01*
X146200000Y-78100000D02*
X146700000Y-77600000D01*
X126000000Y-77800000D02*
X126900000Y-76900000D01*
X139900000Y-78100000D02*
X146200000Y-78100000D01*
X126900000Y-76900000D02*
X138700000Y-76900000D01*
X147400000Y-74100000D02*
X157200000Y-74100000D01*
X126000000Y-108000000D02*
X126000000Y-77800000D01*
X146700000Y-77600000D02*
X146700000Y-74800000D01*
X138700000Y-76900000D02*
X139900000Y-78100000D01*
%TO.N,Net-(U302-WP{slash}IO2)*%
X135125000Y-115750000D02*
X135150000Y-115775000D01*
X130400000Y-115750000D02*
X135125000Y-115750000D01*
%TO.N,Net-(U302-HOLD{slash}IO3)*%
X142400000Y-114750000D02*
X141600000Y-114750000D01*
X141600000Y-114750000D02*
X141400000Y-114550000D01*
D27*
%TO.N,/FPGA/DATA_DIR*%
X157600000Y-97700000D02*
X157600000Y-120300000D01*
X177300000Y-122900000D02*
X178100000Y-123700000D01*
X177200000Y-122900000D02*
X177300000Y-122900000D01*
D28*
X178100000Y-127100000D02*
X178100000Y-135900000D01*
D27*
X159200000Y-121700000D02*
X160300000Y-122800000D01*
X177100000Y-122800000D02*
X177200000Y-122900000D01*
X178100000Y-123700000D02*
X178100000Y-127100000D01*
X159000000Y-121700000D02*
X159200000Y-121700000D01*
X160300000Y-122800000D02*
X177100000Y-122800000D01*
D28*
X178100000Y-125950000D02*
X178100000Y-127100000D01*
X178100000Y-135900000D02*
X165300000Y-135900000D01*
D27*
X157600000Y-120300000D02*
X159000000Y-121700000D01*
D28*
%TO.N,/FPGA/~{ACCESS_LED}*%
X163050000Y-127200000D02*
X163050000Y-136150000D01*
X197350000Y-135800000D02*
X197350000Y-122000000D01*
X164350000Y-137450000D02*
X195700000Y-137450000D01*
X130750000Y-123200000D02*
X133650000Y-126100000D01*
X163050000Y-136150000D02*
X164350000Y-137450000D01*
X195700000Y-137450000D02*
X197350000Y-135800000D01*
X161950000Y-126100000D02*
X163050000Y-127200000D01*
X133650000Y-126100000D02*
X161950000Y-126100000D01*
X120250000Y-123200000D02*
X130750000Y-123200000D01*
%TO.N,/FPGA/FPGA_DONE*%
X182600000Y-110600000D02*
X189700000Y-110600000D01*
%TO.N,/FPGA/FLASH_DI*%
X147800000Y-114400000D02*
X144750000Y-114400000D01*
D29*
%TO.N,/FPGA/SRAM_D5*%
X141000000Y-87400000D02*
X141000000Y-85315000D01*
X152600000Y-90700000D02*
X144300000Y-90700000D01*
X144300000Y-90700000D02*
X141000000Y-87400000D01*
%TO.N,/FPGA/SRAM_D0*%
X144300000Y-89700000D02*
X141400000Y-86800000D01*
X141400000Y-86800000D02*
X141400000Y-81815000D01*
X152600000Y-89700000D02*
X144300000Y-89700000D01*
D30*
%TO.N,/FPGA/SRAM_D28*%
X140900000Y-88315000D02*
X144285000Y-91700000D01*
X144285000Y-91700000D02*
X154700000Y-91700000D01*
D27*
%TO.N,/FPGA/A19*%
X153700000Y-106700000D02*
X152700000Y-107700000D01*
X153700000Y-99400000D02*
X153700000Y-106700000D01*
X152700000Y-107700000D02*
X147300000Y-107700000D01*
X153700000Y-97600000D02*
X153700000Y-99400000D01*
%TO.N,/FPGA/A18*%
X153300000Y-108200000D02*
X149300000Y-108200000D01*
X154700000Y-97700000D02*
X154700000Y-106800000D01*
X154700000Y-106800000D02*
X153300000Y-108200000D01*
D28*
%TO.N,/FPGA/D14*%
X154600000Y-123150000D02*
X156950000Y-123150000D01*
X156950000Y-123150000D02*
X158350000Y-124550000D01*
X158350000Y-124550000D02*
X163950000Y-124550000D01*
X134100000Y-123150000D02*
X154600000Y-123150000D01*
D25*
%TO.N,GND*%
X185100000Y-129800000D02*
X186900000Y-129800000D01*
X185400000Y-132900000D02*
X184300000Y-132900000D01*
X161400000Y-132800000D02*
X159350000Y-132800000D01*
X186300000Y-132000000D02*
X185400000Y-132900000D01*
X135150000Y-111700000D02*
X135150000Y-109750000D01*
X173400000Y-129900000D02*
X171700000Y-129900000D01*
X161900000Y-132300000D02*
X161400000Y-132800000D01*
X147900000Y-130100000D02*
X147750000Y-129950000D01*
X171700000Y-129900000D02*
X171500000Y-129700000D01*
D31*
X194400000Y-87300000D02*
X194400000Y-91880000D01*
X192420000Y-97605000D02*
X193565000Y-96460000D01*
D25*
X150100000Y-132400000D02*
X149600000Y-132900000D01*
X184300000Y-129000000D02*
X185100000Y-129800000D01*
X159300000Y-129900000D02*
X159300000Y-129100000D01*
X123950000Y-129900000D02*
X123150000Y-129100000D01*
X173700000Y-132500000D02*
X171800000Y-132500000D01*
X124300000Y-129900000D02*
X123950000Y-129900000D01*
X136250000Y-129800000D02*
X135550000Y-129100000D01*
X125500000Y-132400000D02*
X124700000Y-133200000D01*
X138000000Y-129800000D02*
X136250000Y-129800000D01*
X149600000Y-132900000D02*
X147800000Y-132900000D01*
D31*
X193565000Y-96460000D02*
X194400000Y-96460000D01*
D25*
X124700000Y-133200000D02*
X123150000Y-133200000D01*
X147750000Y-129950000D02*
X147750000Y-129100000D01*
X159400000Y-130000000D02*
X159300000Y-129900000D01*
X171800000Y-132500000D02*
X171500000Y-132800000D01*
X148800000Y-130100000D02*
X147900000Y-130100000D01*
X160900000Y-130000000D02*
X159400000Y-130000000D01*
X171500000Y-129700000D02*
X171500000Y-129100000D01*
X137400000Y-132900000D02*
X135600000Y-132900000D01*
X137900000Y-132400000D02*
X137400000Y-132900000D01*
%TO.N,+3V3*%
X182400000Y-129800000D02*
X182400000Y-129000000D01*
X180500000Y-129900000D02*
X182300000Y-129900000D01*
X121100000Y-129900000D02*
X121250000Y-129750000D01*
X182300000Y-129900000D02*
X182400000Y-129800000D01*
X135150000Y-117600000D02*
X136400000Y-117600000D01*
X183694000Y-93377000D02*
X183694000Y-91677000D01*
X131200000Y-129800000D02*
X132950000Y-129800000D01*
X131950000Y-109650000D02*
X133150000Y-109650000D01*
X157400000Y-129800000D02*
X157400000Y-129100000D01*
X157300000Y-129900000D02*
X157400000Y-129800000D01*
X166800000Y-129800000D02*
X167500000Y-129100000D01*
X144150000Y-129100000D02*
X145850000Y-129100000D01*
X183694000Y-90037000D02*
X183694000Y-91677000D01*
X121250000Y-129750000D02*
X121250000Y-129100000D01*
X135150000Y-113600000D02*
X136500000Y-113600000D01*
X183744000Y-93427000D02*
X183694000Y-93377000D01*
X136500000Y-113600000D02*
X136625000Y-113475000D01*
X136625000Y-113475000D02*
X137375000Y-112725000D01*
X137375000Y-112725000D02*
X141400000Y-112725000D01*
X132950000Y-129800000D02*
X133650000Y-129100000D01*
X167500000Y-129100000D02*
X169600000Y-129100000D01*
X143450000Y-129800000D02*
X144150000Y-129100000D01*
X118900000Y-129900000D02*
X121100000Y-129900000D01*
X155100000Y-129900000D02*
X157300000Y-129900000D01*
%TD*%
%TA.AperFunction,Conductor*%
%TO.N,+1V2*%
G36*
X157077475Y-75002753D02*
G01*
X157084043Y-75004149D01*
X157104513Y-75008500D01*
X157104515Y-75008500D01*
X157295485Y-75008500D01*
X157295487Y-75008500D01*
X157315956Y-75004149D01*
X157322525Y-75002753D01*
X157348720Y-75000000D01*
X199848500Y-75000000D01*
X199916621Y-75020002D01*
X199963114Y-75073658D01*
X199974500Y-75126000D01*
X199974500Y-119874000D01*
X199954498Y-119942121D01*
X199900842Y-119988614D01*
X199848500Y-120000000D01*
X191359500Y-120000000D01*
X191291379Y-119979998D01*
X191244886Y-119926342D01*
X191233500Y-119874000D01*
X191233500Y-117387607D01*
X191233499Y-117387603D01*
X191209155Y-117265215D01*
X191161400Y-117149925D01*
X191092071Y-117046167D01*
X191003833Y-116957929D01*
X189903833Y-115857929D01*
X189800075Y-115788600D01*
X189684785Y-115740845D01*
X189611086Y-115726185D01*
X189562396Y-115716500D01*
X189562394Y-115716500D01*
X179764594Y-115716500D01*
X179696473Y-115696498D01*
X179675499Y-115679595D01*
X177203835Y-113207931D01*
X177203833Y-113207929D01*
X177100075Y-113138600D01*
X176988865Y-113092535D01*
X176947988Y-113065221D01*
X175582767Y-111700000D01*
X196286496Y-111700000D01*
X196306457Y-111889927D01*
X196323798Y-111943295D01*
X196365473Y-112071556D01*
X196381390Y-112099125D01*
X196460958Y-112236941D01*
X196460965Y-112236951D01*
X196588744Y-112378864D01*
X196588747Y-112378866D01*
X196743248Y-112491118D01*
X196917712Y-112568794D01*
X197104513Y-112608500D01*
X197295487Y-112608500D01*
X197482288Y-112568794D01*
X197656752Y-112491118D01*
X197811253Y-112378866D01*
X197836171Y-112351192D01*
X197939034Y-112236951D01*
X197939035Y-112236949D01*
X197939040Y-112236944D01*
X198034527Y-112071556D01*
X198093542Y-111889928D01*
X198113504Y-111700000D01*
X198093542Y-111510072D01*
X198034527Y-111328444D01*
X197939040Y-111163056D01*
X197939038Y-111163054D01*
X197939034Y-111163048D01*
X197811255Y-111021135D01*
X197656752Y-110908882D01*
X197482288Y-110831206D01*
X197295487Y-110791500D01*
X197104513Y-110791500D01*
X196917711Y-110831206D01*
X196743247Y-110908882D01*
X196588744Y-111021135D01*
X196460965Y-111163048D01*
X196460958Y-111163058D01*
X196365476Y-111328438D01*
X196365473Y-111328445D01*
X196306457Y-111510072D01*
X196286496Y-111700000D01*
X175582767Y-111700000D01*
X174482767Y-110600000D01*
X181686496Y-110600000D01*
X181706457Y-110789927D01*
X181736526Y-110882470D01*
X181765473Y-110971556D01*
X181765476Y-110971561D01*
X181860958Y-111136941D01*
X181860965Y-111136951D01*
X181988744Y-111278864D01*
X181988747Y-111278866D01*
X182143248Y-111391118D01*
X182317712Y-111468794D01*
X182504513Y-111508500D01*
X182695487Y-111508500D01*
X182882288Y-111468794D01*
X183056752Y-111391118D01*
X183211253Y-111278866D01*
X183214563Y-111275190D01*
X183275009Y-111237950D01*
X183308200Y-111233500D01*
X188991800Y-111233500D01*
X189059921Y-111253502D01*
X189085437Y-111275190D01*
X189088747Y-111278866D01*
X189243248Y-111391118D01*
X189417712Y-111468794D01*
X189604513Y-111508500D01*
X189795487Y-111508500D01*
X189982288Y-111468794D01*
X190156752Y-111391118D01*
X190311253Y-111278866D01*
X190439040Y-111136944D01*
X190534527Y-110971556D01*
X190593542Y-110789928D01*
X190613504Y-110600000D01*
X190593542Y-110410072D01*
X190534527Y-110228444D01*
X190439040Y-110063056D01*
X190439038Y-110063054D01*
X190439034Y-110063048D01*
X190311255Y-109921135D01*
X190156752Y-109808882D01*
X189982288Y-109731206D01*
X189795487Y-109691500D01*
X189604513Y-109691500D01*
X189417711Y-109731206D01*
X189243247Y-109808882D01*
X189088747Y-109921133D01*
X189085437Y-109924810D01*
X189024991Y-109962050D01*
X188991800Y-109966500D01*
X183308200Y-109966500D01*
X183240079Y-109946498D01*
X183214563Y-109924810D01*
X183211252Y-109921133D01*
X183056752Y-109808882D01*
X182882288Y-109731206D01*
X182695487Y-109691500D01*
X182504513Y-109691500D01*
X182317711Y-109731206D01*
X182143247Y-109808882D01*
X181988744Y-109921135D01*
X181860965Y-110063048D01*
X181860958Y-110063058D01*
X181765476Y-110228438D01*
X181765473Y-110228444D01*
X181750999Y-110272986D01*
X181706457Y-110410072D01*
X181686496Y-110600000D01*
X174482767Y-110600000D01*
X171290405Y-107407638D01*
X171256379Y-107345326D01*
X171253500Y-107318543D01*
X171253500Y-104749638D01*
X171264614Y-104704547D01*
X171262353Y-104703690D01*
X171267524Y-104690056D01*
X171319609Y-104552720D01*
X171338153Y-104400000D01*
X171330229Y-104334745D01*
X171319609Y-104247282D01*
X171319609Y-104247280D01*
X171265056Y-104103436D01*
X171177664Y-103976826D01*
X171062512Y-103874810D01*
X170926291Y-103803316D01*
X170776922Y-103766500D01*
X170776921Y-103766500D01*
X170623079Y-103766500D01*
X170623077Y-103766500D01*
X170473708Y-103803316D01*
X170337487Y-103874810D01*
X170222334Y-103976828D01*
X170134945Y-104103434D01*
X170080390Y-104247282D01*
X170061847Y-104399997D01*
X170061847Y-104400002D01*
X170080390Y-104552717D01*
X170080390Y-104552719D01*
X170080391Y-104552720D01*
X170111568Y-104634928D01*
X170137647Y-104703690D01*
X170135385Y-104704547D01*
X170146500Y-104749638D01*
X170146500Y-107672873D01*
X170158045Y-107715957D01*
X170158045Y-107715959D01*
X170158046Y-107715959D01*
X170184219Y-107813640D01*
X170184222Y-107813647D01*
X170257087Y-107939853D01*
X170257095Y-107939863D01*
X176165221Y-113847988D01*
X176192535Y-113888865D01*
X176238600Y-114000075D01*
X176307929Y-114103833D01*
X177407929Y-115203833D01*
X178957929Y-116753833D01*
X179046167Y-116842071D01*
X179149925Y-116911400D01*
X179265215Y-116959155D01*
X179387606Y-116983500D01*
X189185406Y-116983500D01*
X189253527Y-117003502D01*
X189274501Y-117020405D01*
X189929595Y-117675499D01*
X189963621Y-117737811D01*
X189966500Y-117764594D01*
X189966500Y-119874000D01*
X189946498Y-119942121D01*
X189892842Y-119988614D01*
X189840500Y-120000000D01*
X189366217Y-120000000D01*
X189298096Y-119979998D01*
X189251603Y-119926342D01*
X189241499Y-119856068D01*
X189246384Y-119835063D01*
X189262904Y-119784222D01*
X189293542Y-119689928D01*
X189313504Y-119500000D01*
X189293542Y-119310072D01*
X189234527Y-119128444D01*
X189139040Y-118963056D01*
X189139038Y-118963054D01*
X189139034Y-118963048D01*
X189011255Y-118821135D01*
X188856752Y-118708882D01*
X188682288Y-118631206D01*
X188495487Y-118591500D01*
X188304513Y-118591500D01*
X188117711Y-118631206D01*
X187943247Y-118708882D01*
X187788744Y-118821135D01*
X187660965Y-118963048D01*
X187660958Y-118963058D01*
X187565476Y-119128438D01*
X187565473Y-119128445D01*
X187506457Y-119310072D01*
X187486496Y-119500000D01*
X187506457Y-119689927D01*
X187553616Y-119835063D01*
X187555644Y-119906031D01*
X187518982Y-119966829D01*
X187455270Y-119998154D01*
X187433783Y-120000000D01*
X164134957Y-120000000D01*
X164066836Y-119979998D01*
X164045866Y-119963099D01*
X163939857Y-119857090D01*
X163939856Y-119857089D01*
X163939853Y-119857087D01*
X163813647Y-119784222D01*
X163813644Y-119784221D01*
X163813643Y-119784220D01*
X163813641Y-119784219D01*
X163813640Y-119784219D01*
X163775918Y-119774111D01*
X163672869Y-119746500D01*
X163527131Y-119746500D01*
X163451693Y-119766713D01*
X163386359Y-119784219D01*
X163386352Y-119784222D01*
X163260146Y-119857087D01*
X163260136Y-119857095D01*
X163154137Y-119963095D01*
X163091825Y-119997121D01*
X163065042Y-120000000D01*
X158279500Y-120000000D01*
X158211379Y-119979998D01*
X158164886Y-119926342D01*
X158153500Y-119874000D01*
X158153500Y-101599997D01*
X164861847Y-101599997D01*
X164861847Y-101600002D01*
X164880390Y-101752717D01*
X164880390Y-101752719D01*
X164880391Y-101752720D01*
X164934944Y-101896564D01*
X165022336Y-102023174D01*
X165137488Y-102125190D01*
X165273708Y-102196683D01*
X165423079Y-102233500D01*
X165423080Y-102233500D01*
X165576920Y-102233500D01*
X165576921Y-102233500D01*
X165726292Y-102196683D01*
X165862512Y-102125190D01*
X165977664Y-102023174D01*
X166062684Y-101900000D01*
X190386496Y-101900000D01*
X190406457Y-102089927D01*
X190436526Y-102182470D01*
X190465473Y-102271556D01*
X190465476Y-102271561D01*
X190560958Y-102436941D01*
X190560965Y-102436951D01*
X190688744Y-102578864D01*
X190688747Y-102578866D01*
X190843248Y-102691118D01*
X191017712Y-102768794D01*
X191204513Y-102808500D01*
X191395487Y-102808500D01*
X191582288Y-102768794D01*
X191756752Y-102691118D01*
X191911253Y-102578866D01*
X191911255Y-102578864D01*
X191932572Y-102555190D01*
X191993017Y-102517950D01*
X192026208Y-102513500D01*
X194193428Y-102513500D01*
X194261549Y-102533502D01*
X194308042Y-102587158D01*
X194318146Y-102657432D01*
X194288652Y-102722012D01*
X194228926Y-102760396D01*
X194209220Y-102764506D01*
X193999033Y-102791058D01*
X193693301Y-102869556D01*
X193399821Y-102985753D01*
X193123218Y-103137817D01*
X192867861Y-103323345D01*
X192867860Y-103323345D01*
X192637763Y-103539421D01*
X192436562Y-103782631D01*
X192267443Y-104049121D01*
X192267436Y-104049135D01*
X192133044Y-104334732D01*
X192133039Y-104334745D01*
X192035507Y-104634919D01*
X192035504Y-104634932D01*
X191976359Y-104944975D01*
X191976357Y-104944992D01*
X191956540Y-105259993D01*
X191956540Y-105260006D01*
X191976357Y-105575007D01*
X191976359Y-105575024D01*
X192035504Y-105885067D01*
X192035507Y-105885080D01*
X192133039Y-106185254D01*
X192133044Y-106185266D01*
X192267438Y-106470869D01*
X192267440Y-106470872D01*
X192267443Y-106470878D01*
X192436562Y-106737368D01*
X192637763Y-106980578D01*
X192637766Y-106980580D01*
X192637767Y-106980582D01*
X192828295Y-107159500D01*
X192867860Y-107196654D01*
X193088662Y-107357076D01*
X193123221Y-107382184D01*
X193399821Y-107534247D01*
X193693298Y-107650443D01*
X193999025Y-107728940D01*
X193999033Y-107728941D01*
X193999032Y-107728941D01*
X194163129Y-107749670D01*
X194312179Y-107768500D01*
X194312183Y-107768500D01*
X194627817Y-107768500D01*
X194627821Y-107768500D01*
X194940975Y-107728940D01*
X195246702Y-107650443D01*
X195540179Y-107534247D01*
X195816779Y-107382184D01*
X196072140Y-107196654D01*
X196302233Y-106980582D01*
X196503432Y-106737375D01*
X196503434Y-106737370D01*
X196503437Y-106737368D01*
X196643332Y-106516928D01*
X196672562Y-106470869D01*
X196806956Y-106185266D01*
X196904495Y-105885072D01*
X196963641Y-105575020D01*
X196963642Y-105575007D01*
X196983460Y-105260006D01*
X196983460Y-105259993D01*
X196963642Y-104944992D01*
X196963640Y-104944975D01*
X196919446Y-104713305D01*
X196904495Y-104634928D01*
X196828163Y-104400002D01*
X196806960Y-104334745D01*
X196806955Y-104334732D01*
X196747555Y-104208500D01*
X196672562Y-104049131D01*
X196672556Y-104049121D01*
X196503437Y-103782631D01*
X196302236Y-103539421D01*
X196249531Y-103489928D01*
X196072140Y-103323346D01*
X196040007Y-103300000D01*
X195816781Y-103137817D01*
X195676004Y-103060424D01*
X195540179Y-102985753D01*
X195246702Y-102869557D01*
X194940975Y-102791060D01*
X194940970Y-102791059D01*
X194940965Y-102791058D01*
X194940967Y-102791058D01*
X194730780Y-102764506D01*
X194665703Y-102736124D01*
X194626302Y-102677065D01*
X194625085Y-102606078D01*
X194662440Y-102545703D01*
X194726506Y-102515108D01*
X194746572Y-102513500D01*
X196660419Y-102513500D01*
X196660424Y-102513500D01*
X196778951Y-102489923D01*
X196890601Y-102443676D01*
X196909264Y-102431206D01*
X196991084Y-102376536D01*
X198676536Y-100691084D01*
X198743676Y-100590601D01*
X198789923Y-100478951D01*
X198807052Y-100392838D01*
X198813500Y-100360424D01*
X198813500Y-93639576D01*
X198789923Y-93521049D01*
X198743676Y-93409399D01*
X198715063Y-93366576D01*
X198676536Y-93308916D01*
X197916084Y-92548464D01*
X197815601Y-92481324D01*
X197745195Y-92452161D01*
X197703954Y-92435078D01*
X197703951Y-92435077D01*
X197591332Y-92412675D01*
X197528425Y-92379768D01*
X197512703Y-92361368D01*
X197506826Y-92352975D01*
X197386198Y-92180700D01*
X197224300Y-92018802D01*
X197173472Y-91983212D01*
X197129145Y-91927757D01*
X197121836Y-91857137D01*
X197153866Y-91793777D01*
X197173468Y-91776790D01*
X197224300Y-91741198D01*
X197386198Y-91579300D01*
X197517523Y-91391749D01*
X197614284Y-91184243D01*
X197673543Y-90963087D01*
X197693498Y-90735000D01*
X197673543Y-90506913D01*
X197614284Y-90285757D01*
X197517523Y-90078251D01*
X197386198Y-89890700D01*
X197224300Y-89728802D01*
X197173472Y-89693212D01*
X197129145Y-89637757D01*
X197121836Y-89567137D01*
X197153866Y-89503777D01*
X197173468Y-89486790D01*
X197224300Y-89451198D01*
X197386198Y-89289300D01*
X197517523Y-89101749D01*
X197614284Y-88894243D01*
X197673543Y-88673087D01*
X197693498Y-88445000D01*
X197673543Y-88216913D01*
X197614284Y-87995757D01*
X197517523Y-87788251D01*
X197386198Y-87600700D01*
X197224300Y-87438802D01*
X197036749Y-87307477D01*
X197020714Y-87300000D01*
X196829246Y-87210717D01*
X196829240Y-87210715D01*
X196702772Y-87176828D01*
X196608087Y-87151457D01*
X196380000Y-87131502D01*
X196151913Y-87151457D01*
X195930759Y-87210715D01*
X195930748Y-87210719D01*
X195877594Y-87235505D01*
X195807402Y-87246166D01*
X195742589Y-87217185D01*
X195703734Y-87157765D01*
X195698826Y-87132302D01*
X195693543Y-87071913D01*
X195634284Y-86850757D01*
X195537523Y-86643251D01*
X195406198Y-86455700D01*
X195244300Y-86293802D01*
X195056749Y-86162477D01*
X195035825Y-86152720D01*
X194849246Y-86065717D01*
X194849240Y-86065715D01*
X194755771Y-86040670D01*
X194628087Y-86006457D01*
X194400000Y-85986502D01*
X194171913Y-86006457D01*
X193950759Y-86065715D01*
X193950753Y-86065717D01*
X193743250Y-86162477D01*
X193555703Y-86293799D01*
X193555697Y-86293804D01*
X193393804Y-86455697D01*
X193393799Y-86455703D01*
X193262477Y-86643250D01*
X193165717Y-86850753D01*
X193165715Y-86850759D01*
X193151633Y-86903316D01*
X193124838Y-87003317D01*
X193114175Y-87043111D01*
X193077223Y-87103734D01*
X193013363Y-87134755D01*
X192992468Y-87136500D01*
X191571350Y-87136500D01*
X191510803Y-87143009D01*
X191510795Y-87143011D01*
X191373797Y-87194110D01*
X191373792Y-87194112D01*
X191256738Y-87281738D01*
X191169112Y-87398792D01*
X191169110Y-87398797D01*
X191118011Y-87535795D01*
X191118009Y-87535803D01*
X191111500Y-87596350D01*
X191111500Y-89293649D01*
X191118009Y-89354196D01*
X191118011Y-89354204D01*
X191169110Y-89491202D01*
X191169112Y-89491207D01*
X191256738Y-89608261D01*
X191373795Y-89695889D01*
X191378306Y-89698352D01*
X191428510Y-89748552D01*
X191443603Y-89817926D01*
X191418794Y-89884447D01*
X191414449Y-89889928D01*
X191413804Y-89890695D01*
X191282477Y-90078250D01*
X191185717Y-90285753D01*
X191185715Y-90285759D01*
X191145592Y-90435500D01*
X191126457Y-90506913D01*
X191106502Y-90735000D01*
X191126457Y-90963087D01*
X191156934Y-91076828D01*
X191185715Y-91184240D01*
X191185717Y-91184246D01*
X191253187Y-91328936D01*
X191282477Y-91391749D01*
X191413802Y-91579300D01*
X191575700Y-91741198D01*
X191575703Y-91741200D01*
X191626526Y-91776787D01*
X191670854Y-91832244D01*
X191678163Y-91902864D01*
X191646132Y-91966224D01*
X191626526Y-91983213D01*
X191575703Y-92018799D01*
X191575697Y-92018804D01*
X191413804Y-92180697D01*
X191413799Y-92180703D01*
X191282477Y-92368250D01*
X191185717Y-92575753D01*
X191185715Y-92575759D01*
X191145675Y-92725190D01*
X191126457Y-92796913D01*
X191106502Y-93025000D01*
X191126457Y-93253087D01*
X191141417Y-93308917D01*
X191185715Y-93474240D01*
X191185717Y-93474246D01*
X191282477Y-93681749D01*
X191362871Y-93796564D01*
X191413802Y-93869300D01*
X191575700Y-94031198D01*
X191588879Y-94040426D01*
X191626526Y-94066787D01*
X191670854Y-94122244D01*
X191678163Y-94192864D01*
X191646132Y-94256224D01*
X191626526Y-94273213D01*
X191575703Y-94308799D01*
X191575697Y-94308804D01*
X191413804Y-94470697D01*
X191413799Y-94470703D01*
X191282477Y-94658250D01*
X191185717Y-94865753D01*
X191185715Y-94865759D01*
X191136848Y-95048134D01*
X191126457Y-95086913D01*
X191106502Y-95315000D01*
X191126457Y-95543087D01*
X191155833Y-95652720D01*
X191185715Y-95764240D01*
X191185717Y-95764246D01*
X191282477Y-95971749D01*
X191395736Y-96133500D01*
X191413802Y-96159300D01*
X191575700Y-96321198D01*
X191575703Y-96321200D01*
X191626526Y-96356787D01*
X191670854Y-96412244D01*
X191678163Y-96482864D01*
X191646132Y-96546224D01*
X191626526Y-96563213D01*
X191575703Y-96598799D01*
X191575697Y-96598804D01*
X191413804Y-96760697D01*
X191413799Y-96760703D01*
X191282477Y-96948250D01*
X191185717Y-97155753D01*
X191185715Y-97155759D01*
X191127020Y-97374811D01*
X191126457Y-97376913D01*
X191106502Y-97605000D01*
X191126457Y-97833087D01*
X191144387Y-97900002D01*
X191185715Y-98054240D01*
X191185717Y-98054246D01*
X191282477Y-98261749D01*
X191412387Y-98447280D01*
X191413802Y-98449300D01*
X191575700Y-98611198D01*
X191763251Y-98742523D01*
X191970757Y-98839284D01*
X192191913Y-98898543D01*
X192420000Y-98918498D01*
X192648087Y-98898543D01*
X192869243Y-98839284D01*
X193076749Y-98742523D01*
X193264300Y-98611198D01*
X193426198Y-98449300D01*
X193557523Y-98261749D01*
X193654284Y-98054243D01*
X193713543Y-97833087D01*
X193718825Y-97772704D01*
X193744686Y-97706591D01*
X193802189Y-97664950D01*
X193873076Y-97661008D01*
X193897592Y-97669493D01*
X193950757Y-97694284D01*
X194171913Y-97753543D01*
X194400000Y-97773498D01*
X194628087Y-97753543D01*
X194849243Y-97694284D01*
X194902403Y-97669494D01*
X194972595Y-97658833D01*
X195037408Y-97687812D01*
X195076264Y-97747232D01*
X195081173Y-97772701D01*
X195086457Y-97833087D01*
X195104387Y-97900002D01*
X195145715Y-98054240D01*
X195145717Y-98054246D01*
X195242477Y-98261749D01*
X195372387Y-98447280D01*
X195373802Y-98449300D01*
X195535700Y-98611198D01*
X195723251Y-98742523D01*
X195930757Y-98839284D01*
X196151913Y-98898543D01*
X196380000Y-98918498D01*
X196608087Y-98898543D01*
X196829243Y-98839284D01*
X197036749Y-98742523D01*
X197224300Y-98611198D01*
X197371405Y-98464093D01*
X197433717Y-98430067D01*
X197504532Y-98435132D01*
X197561368Y-98477679D01*
X197586179Y-98544199D01*
X197586500Y-98553188D01*
X197586500Y-99993690D01*
X197566498Y-100061811D01*
X197549595Y-100082785D01*
X196382785Y-101249595D01*
X196320473Y-101283621D01*
X196293690Y-101286500D01*
X192026208Y-101286500D01*
X191958087Y-101266498D01*
X191932572Y-101244810D01*
X191911255Y-101221135D01*
X191756752Y-101108882D01*
X191582288Y-101031206D01*
X191395487Y-100991500D01*
X191204513Y-100991500D01*
X191017711Y-101031206D01*
X190843247Y-101108882D01*
X190688744Y-101221135D01*
X190560965Y-101363048D01*
X190560958Y-101363058D01*
X190465476Y-101528438D01*
X190465473Y-101528445D01*
X190406457Y-101710072D01*
X190386496Y-101900000D01*
X166062684Y-101900000D01*
X166065056Y-101896564D01*
X166119609Y-101752720D01*
X166130735Y-101661088D01*
X166138153Y-101600002D01*
X166138153Y-101599997D01*
X166126011Y-101500002D01*
X166119609Y-101447280D01*
X166065056Y-101303436D01*
X165977664Y-101176826D01*
X165862512Y-101074810D01*
X165779431Y-101031206D01*
X165726291Y-101003316D01*
X165576922Y-100966500D01*
X165576921Y-100966500D01*
X165423079Y-100966500D01*
X165423077Y-100966500D01*
X165273708Y-101003316D01*
X165137487Y-101074810D01*
X165022334Y-101176828D01*
X164934945Y-101303434D01*
X164880390Y-101447282D01*
X164861847Y-101599997D01*
X158153500Y-101599997D01*
X158153500Y-99799997D01*
X158461847Y-99799997D01*
X158461847Y-99800002D01*
X158480390Y-99952717D01*
X158480390Y-99952719D01*
X158480391Y-99952720D01*
X158534944Y-100096564D01*
X158622336Y-100223174D01*
X158737488Y-100325190D01*
X158873708Y-100396683D01*
X159023079Y-100433500D01*
X159023080Y-100433500D01*
X159176920Y-100433500D01*
X159176921Y-100433500D01*
X159326292Y-100396683D01*
X159462512Y-100325190D01*
X159577664Y-100223174D01*
X159665056Y-100096564D01*
X159719609Y-99952720D01*
X159738153Y-99800000D01*
X159738153Y-99799997D01*
X161461847Y-99799997D01*
X161461847Y-99800002D01*
X161480390Y-99952717D01*
X161480390Y-99952719D01*
X161480391Y-99952720D01*
X161534944Y-100096564D01*
X161622336Y-100223174D01*
X161737488Y-100325190D01*
X161873708Y-100396683D01*
X162023079Y-100433500D01*
X162023080Y-100433500D01*
X162176920Y-100433500D01*
X162176921Y-100433500D01*
X162326292Y-100396683D01*
X162462512Y-100325190D01*
X162577664Y-100223174D01*
X162665056Y-100096564D01*
X162719609Y-99952720D01*
X162738153Y-99800000D01*
X162731751Y-99747280D01*
X162719609Y-99647282D01*
X162719609Y-99647280D01*
X162665056Y-99503436D01*
X162609656Y-99423174D01*
X162577666Y-99376828D01*
X162575388Y-99374810D01*
X162567493Y-99367815D01*
X162529769Y-99307674D01*
X162530549Y-99236681D01*
X162569586Y-99177380D01*
X162592492Y-99161938D01*
X162626748Y-99143959D01*
X162662507Y-99125193D01*
X162662508Y-99125192D01*
X162662512Y-99125190D01*
X162681147Y-99108680D01*
X162745394Y-99078481D01*
X162815775Y-99087810D01*
X162869940Y-99133709D01*
X162882511Y-99158312D01*
X162934944Y-99296565D01*
X162984127Y-99367818D01*
X163022336Y-99423174D01*
X163137488Y-99525190D01*
X163273708Y-99596683D01*
X163423079Y-99633500D01*
X163423080Y-99633500D01*
X163576920Y-99633500D01*
X163576921Y-99633500D01*
X163726292Y-99596683D01*
X163862512Y-99525190D01*
X163977664Y-99423174D01*
X164065056Y-99296564D01*
X164119609Y-99152720D01*
X164130735Y-99061088D01*
X164138153Y-99000002D01*
X164138153Y-98999997D01*
X164119609Y-98847282D01*
X164119609Y-98847280D01*
X164065056Y-98703436D01*
X163977664Y-98576826D01*
X163862512Y-98474810D01*
X163842092Y-98464093D01*
X163726291Y-98403316D01*
X163576922Y-98366500D01*
X163576921Y-98366500D01*
X163423079Y-98366500D01*
X163423077Y-98366500D01*
X163273708Y-98403316D01*
X163137484Y-98474811D01*
X163118852Y-98491319D01*
X163054599Y-98521519D01*
X162984219Y-98512187D01*
X162930056Y-98466286D01*
X162917488Y-98441687D01*
X162902936Y-98403317D01*
X162865056Y-98303436D01*
X162777664Y-98176826D01*
X162662512Y-98074810D01*
X162623330Y-98054246D01*
X162526291Y-98003316D01*
X162376922Y-97966500D01*
X162376921Y-97966500D01*
X162223079Y-97966500D01*
X162223077Y-97966500D01*
X162073708Y-98003316D01*
X161937487Y-98074810D01*
X161822334Y-98176828D01*
X161790156Y-98223447D01*
X161734944Y-98303436D01*
X161725310Y-98328840D01*
X161680390Y-98447282D01*
X161661847Y-98599997D01*
X161661847Y-98600002D01*
X161680390Y-98752717D01*
X161680390Y-98752719D01*
X161680391Y-98752720D01*
X161734944Y-98896564D01*
X161736310Y-98898543D01*
X161822333Y-99023171D01*
X161822335Y-99023173D01*
X161822336Y-99023174D01*
X161832505Y-99032183D01*
X161870229Y-99092325D01*
X161869450Y-99163317D01*
X161830413Y-99222618D01*
X161807506Y-99238061D01*
X161737490Y-99274808D01*
X161622334Y-99376828D01*
X161534945Y-99503434D01*
X161480390Y-99647282D01*
X161461847Y-99799997D01*
X159738153Y-99799997D01*
X159731751Y-99747280D01*
X159719609Y-99647282D01*
X159719609Y-99647280D01*
X159665056Y-99503436D01*
X159577664Y-99376826D01*
X159462512Y-99274810D01*
X159462508Y-99274808D01*
X159326291Y-99203316D01*
X159176922Y-99166500D01*
X159176921Y-99166500D01*
X159023079Y-99166500D01*
X159023077Y-99166500D01*
X158873708Y-99203316D01*
X158737487Y-99274810D01*
X158622334Y-99376828D01*
X158534945Y-99503434D01*
X158480390Y-99647282D01*
X158461847Y-99799997D01*
X158153500Y-99799997D01*
X158153500Y-98453558D01*
X158173502Y-98385437D01*
X158227158Y-98338944D01*
X158297432Y-98328840D01*
X158362012Y-98358334D01*
X158362952Y-98359157D01*
X158437488Y-98425190D01*
X158573708Y-98496683D01*
X158723079Y-98533500D01*
X158723080Y-98533500D01*
X158876920Y-98533500D01*
X158876921Y-98533500D01*
X159026292Y-98496683D01*
X159162512Y-98425190D01*
X159277664Y-98323174D01*
X159365056Y-98196564D01*
X159419609Y-98052720D01*
X159437750Y-97903317D01*
X159438153Y-97900002D01*
X159438153Y-97899997D01*
X159427026Y-97808368D01*
X159419609Y-97747280D01*
X159365056Y-97603436D01*
X159277664Y-97476826D01*
X159162512Y-97374810D01*
X159134978Y-97360359D01*
X159026291Y-97303316D01*
X158876922Y-97266500D01*
X158876921Y-97266500D01*
X158813936Y-97266500D01*
X158745815Y-97246498D01*
X158699322Y-97192842D01*
X158689218Y-97122568D01*
X158718712Y-97057988D01*
X158755383Y-97028932D01*
X158758522Y-97027283D01*
X158762512Y-97025190D01*
X158877664Y-96923174D01*
X158965056Y-96796564D01*
X159019609Y-96652720D01*
X159038153Y-96500000D01*
X159038153Y-96499997D01*
X163161847Y-96499997D01*
X163161847Y-96500002D01*
X163180390Y-96652717D01*
X163180390Y-96652719D01*
X163180391Y-96652720D01*
X163234944Y-96796564D01*
X163322336Y-96923174D01*
X163437488Y-97025190D01*
X163573708Y-97096683D01*
X163723079Y-97133500D01*
X163723080Y-97133500D01*
X163876920Y-97133500D01*
X163876921Y-97133500D01*
X164026292Y-97096683D01*
X164162512Y-97025190D01*
X164277664Y-96923174D01*
X164365056Y-96796564D01*
X164419609Y-96652720D01*
X164438153Y-96500000D01*
X164437750Y-96496683D01*
X164420763Y-96356786D01*
X164419609Y-96347280D01*
X164365056Y-96203436D01*
X164277664Y-96076826D01*
X164162512Y-95974810D01*
X164064127Y-95923174D01*
X164026291Y-95903316D01*
X163876922Y-95866500D01*
X163876921Y-95866500D01*
X163723079Y-95866500D01*
X163723077Y-95866500D01*
X163573708Y-95903316D01*
X163437487Y-95974810D01*
X163322334Y-96076828D01*
X163237314Y-96200002D01*
X163234944Y-96203436D01*
X163212283Y-96263188D01*
X163180390Y-96347282D01*
X163161847Y-96499997D01*
X159038153Y-96499997D01*
X159037750Y-96496683D01*
X159020763Y-96356786D01*
X159019609Y-96347280D01*
X158965056Y-96203436D01*
X158877664Y-96076826D01*
X158762512Y-95974810D01*
X158626292Y-95903317D01*
X158626291Y-95903316D01*
X158626288Y-95903315D01*
X158488453Y-95869341D01*
X158427099Y-95833618D01*
X158394798Y-95770395D01*
X158398622Y-95727000D01*
X178430496Y-95727000D01*
X178450457Y-95916927D01*
X178469265Y-95974810D01*
X178509473Y-96098556D01*
X178509476Y-96098561D01*
X178604958Y-96263941D01*
X178604965Y-96263951D01*
X178732744Y-96405864D01*
X178759343Y-96425189D01*
X178887248Y-96518118D01*
X179061712Y-96595794D01*
X179248513Y-96635500D01*
X179439487Y-96635500D01*
X179626288Y-96595794D01*
X179800752Y-96518118D01*
X179955253Y-96405866D01*
X180031487Y-96321200D01*
X180083034Y-96263951D01*
X180083035Y-96263949D01*
X180083040Y-96263944D01*
X180178527Y-96098556D01*
X180237542Y-95916928D01*
X180257504Y-95727000D01*
X180237542Y-95537072D01*
X180178527Y-95355444D01*
X180083040Y-95190056D01*
X180083038Y-95190054D01*
X180083034Y-95190048D01*
X179955255Y-95048135D01*
X179800752Y-94935882D01*
X179626288Y-94858206D01*
X179479476Y-94827000D01*
X187930496Y-94827000D01*
X187950457Y-95016927D01*
X187969920Y-95076826D01*
X188009473Y-95198556D01*
X188014803Y-95207787D01*
X188104958Y-95363941D01*
X188104965Y-95363951D01*
X188232744Y-95505864D01*
X188259343Y-95525189D01*
X188387248Y-95618118D01*
X188561712Y-95695794D01*
X188748513Y-95735500D01*
X188939487Y-95735500D01*
X189126288Y-95695794D01*
X189300752Y-95618118D01*
X189455253Y-95505866D01*
X189460535Y-95500000D01*
X189583034Y-95363951D01*
X189583035Y-95363949D01*
X189583040Y-95363944D01*
X189678527Y-95198556D01*
X189737542Y-95016928D01*
X189757504Y-94827000D01*
X189737542Y-94637072D01*
X189678527Y-94455444D01*
X189583040Y-94290056D01*
X189583038Y-94290054D01*
X189583034Y-94290048D01*
X189455255Y-94148135D01*
X189300752Y-94035882D01*
X189126288Y-93958206D01*
X188939487Y-93918500D01*
X188748513Y-93918500D01*
X188561711Y-93958206D01*
X188387247Y-94035882D01*
X188232744Y-94148135D01*
X188104965Y-94290048D01*
X188104958Y-94290058D01*
X188009476Y-94455438D01*
X188009473Y-94455445D01*
X187950457Y-94637072D01*
X187930496Y-94827000D01*
X179479476Y-94827000D01*
X179439487Y-94818500D01*
X179248513Y-94818500D01*
X179061711Y-94858206D01*
X178887247Y-94935882D01*
X178732744Y-95048135D01*
X178604965Y-95190048D01*
X178604958Y-95190058D01*
X178509476Y-95355438D01*
X178509473Y-95355445D01*
X178450457Y-95537072D01*
X178430496Y-95727000D01*
X158398622Y-95727000D01*
X158400796Y-95702323D01*
X158419609Y-95652720D01*
X158435094Y-95525190D01*
X158438153Y-95500002D01*
X158438153Y-95499997D01*
X158420600Y-95355444D01*
X158419609Y-95347280D01*
X158365056Y-95203436D01*
X158277664Y-95076826D01*
X158162512Y-94974810D01*
X158040295Y-94910666D01*
X157989274Y-94861299D01*
X157973041Y-94792183D01*
X157981037Y-94754423D01*
X158019609Y-94652720D01*
X158038153Y-94500000D01*
X158038153Y-94499997D01*
X158761847Y-94499997D01*
X158761847Y-94500002D01*
X158780390Y-94652717D01*
X158780390Y-94652719D01*
X158780391Y-94652720D01*
X158834944Y-94796564D01*
X158922336Y-94923174D01*
X159037488Y-95025190D01*
X159173708Y-95096683D01*
X159323079Y-95133500D01*
X159323080Y-95133500D01*
X159476920Y-95133500D01*
X159476921Y-95133500D01*
X159626292Y-95096683D01*
X159762512Y-95025190D01*
X159877664Y-94923174D01*
X159893662Y-94899997D01*
X161761847Y-94899997D01*
X161761847Y-94900002D01*
X161780390Y-95052717D01*
X161780390Y-95052719D01*
X161780391Y-95052720D01*
X161834944Y-95196564D01*
X161922336Y-95323174D01*
X162037488Y-95425190D01*
X162173708Y-95496683D01*
X162323079Y-95533500D01*
X162323080Y-95533500D01*
X162476920Y-95533500D01*
X162476921Y-95533500D01*
X162626292Y-95496683D01*
X162762512Y-95425190D01*
X162877664Y-95323174D01*
X162965056Y-95196564D01*
X163019609Y-95052720D01*
X163035339Y-94923174D01*
X163038153Y-94900002D01*
X163038153Y-94899997D01*
X163018691Y-94739714D01*
X163021135Y-94739417D01*
X163023716Y-94680427D01*
X163064672Y-94622435D01*
X163130480Y-94595792D01*
X163200246Y-94608957D01*
X163226498Y-94626861D01*
X163337488Y-94725190D01*
X163473708Y-94796683D01*
X163623079Y-94833500D01*
X163623080Y-94833500D01*
X163776920Y-94833500D01*
X163776921Y-94833500D01*
X163926292Y-94796683D01*
X164062512Y-94725190D01*
X164177664Y-94623174D01*
X164265056Y-94496564D01*
X164319609Y-94352720D01*
X164338153Y-94200000D01*
X164334510Y-94170000D01*
X164323197Y-94076828D01*
X164319609Y-94047280D01*
X164265056Y-93903436D01*
X164177664Y-93776826D01*
X164062512Y-93674810D01*
X163926291Y-93603316D01*
X163776922Y-93566500D01*
X163776921Y-93566500D01*
X163623079Y-93566500D01*
X163623077Y-93566500D01*
X163473708Y-93603316D01*
X163337487Y-93674810D01*
X163222334Y-93776828D01*
X163135026Y-93903317D01*
X163134944Y-93903436D01*
X163122236Y-93936944D01*
X163080390Y-94047282D01*
X163061847Y-94199997D01*
X163061847Y-94200002D01*
X163081309Y-94360286D01*
X163078868Y-94360582D01*
X163076275Y-94419598D01*
X163035306Y-94477581D01*
X162969492Y-94504210D01*
X162899730Y-94491030D01*
X162873501Y-94473137D01*
X162762515Y-94374811D01*
X162626291Y-94303316D01*
X162476922Y-94266500D01*
X162476921Y-94266500D01*
X162323079Y-94266500D01*
X162323077Y-94266500D01*
X162173708Y-94303316D01*
X162037487Y-94374810D01*
X161969623Y-94434933D01*
X161929248Y-94470703D01*
X161922334Y-94476828D01*
X161834945Y-94603434D01*
X161834944Y-94603436D01*
X161826060Y-94626862D01*
X161780390Y-94747282D01*
X161761847Y-94899997D01*
X159893662Y-94899997D01*
X159965056Y-94796564D01*
X160019609Y-94652720D01*
X160038153Y-94500000D01*
X160035339Y-94476828D01*
X160022952Y-94374810D01*
X160019609Y-94347280D01*
X159965056Y-94203436D01*
X159877664Y-94076826D01*
X159762512Y-93974810D01*
X159747711Y-93967042D01*
X159626291Y-93903316D01*
X159476922Y-93866500D01*
X159476921Y-93866500D01*
X159323079Y-93866500D01*
X159323077Y-93866500D01*
X159173708Y-93903316D01*
X159037487Y-93974810D01*
X158922334Y-94076828D01*
X158834945Y-94203434D01*
X158780390Y-94347282D01*
X158761847Y-94499997D01*
X158038153Y-94499997D01*
X158035339Y-94476828D01*
X158022952Y-94374810D01*
X158019609Y-94347280D01*
X157965056Y-94203436D01*
X157877664Y-94076826D01*
X157762512Y-93974810D01*
X157747711Y-93967042D01*
X157626291Y-93903316D01*
X157476922Y-93866500D01*
X157476921Y-93866500D01*
X157323079Y-93866500D01*
X157323077Y-93866500D01*
X157173708Y-93903316D01*
X157037487Y-93974810D01*
X156922334Y-94076828D01*
X156834944Y-94203434D01*
X156819149Y-94245084D01*
X156776290Y-94301685D01*
X156709634Y-94326130D01*
X156642785Y-94311972D01*
X156626294Y-94303317D01*
X156476922Y-94266500D01*
X156476921Y-94266500D01*
X156323079Y-94266500D01*
X156323077Y-94266500D01*
X156173699Y-94303319D01*
X156170667Y-94304469D01*
X156168292Y-94304651D01*
X156166308Y-94305141D01*
X156166226Y-94304810D01*
X156156143Y-94305586D01*
X156150071Y-94313793D01*
X156132559Y-94324912D01*
X156037490Y-94374808D01*
X156036535Y-94375654D01*
X155929248Y-94470703D01*
X155922334Y-94476828D01*
X155834945Y-94603434D01*
X155834944Y-94603436D01*
X155826060Y-94626862D01*
X155780390Y-94747282D01*
X155761847Y-94899997D01*
X155761847Y-94900002D01*
X155780390Y-95052717D01*
X155780390Y-95052719D01*
X155780391Y-95052720D01*
X155799870Y-95104083D01*
X155819531Y-95155923D01*
X155824985Y-95226710D01*
X155791303Y-95289209D01*
X155729178Y-95323575D01*
X155658336Y-95318900D01*
X155643165Y-95312172D01*
X155626293Y-95303317D01*
X155476922Y-95266500D01*
X155476921Y-95266500D01*
X155323079Y-95266500D01*
X155323077Y-95266500D01*
X155173708Y-95303316D01*
X155037487Y-95374810D01*
X154922334Y-95476828D01*
X154834945Y-95603434D01*
X154780390Y-95747282D01*
X154761847Y-95899997D01*
X154761847Y-95900002D01*
X154780390Y-96052717D01*
X154780390Y-96052719D01*
X154780391Y-96052720D01*
X154834944Y-96196564D01*
X154922336Y-96323174D01*
X155037488Y-96425190D01*
X155173708Y-96496683D01*
X155323079Y-96533500D01*
X155323080Y-96533500D01*
X155476920Y-96533500D01*
X155476921Y-96533500D01*
X155626292Y-96496683D01*
X155762512Y-96425190D01*
X155877664Y-96323174D01*
X155965056Y-96196564D01*
X156019609Y-96052720D01*
X156035339Y-95923174D01*
X156038153Y-95900002D01*
X156038153Y-95899997D01*
X156023197Y-95776828D01*
X156019609Y-95747280D01*
X155980467Y-95644073D01*
X155975014Y-95573289D01*
X156008696Y-95510791D01*
X156070820Y-95476424D01*
X156141663Y-95481099D01*
X156156836Y-95487828D01*
X156173708Y-95496683D01*
X156323079Y-95533500D01*
X156323080Y-95533500D01*
X156476920Y-95533500D01*
X156476921Y-95533500D01*
X156626292Y-95496683D01*
X156762512Y-95425190D01*
X156877664Y-95323174D01*
X156965056Y-95196564D01*
X156980851Y-95154914D01*
X157023706Y-95098316D01*
X157090362Y-95073870D01*
X157157191Y-95088015D01*
X157159677Y-95089319D01*
X157210711Y-95138675D01*
X157226960Y-95207787D01*
X157218960Y-95245580D01*
X157180390Y-95347280D01*
X157161847Y-95499997D01*
X157161847Y-95500002D01*
X157180390Y-95652717D01*
X157180390Y-95652719D01*
X157180391Y-95652720D01*
X157234944Y-95796564D01*
X157322336Y-95923174D01*
X157437488Y-96025190D01*
X157437490Y-96025191D01*
X157444617Y-96028932D01*
X157495641Y-96078299D01*
X157511874Y-96147415D01*
X157488164Y-96214335D01*
X157432037Y-96257813D01*
X157386064Y-96266500D01*
X157323077Y-96266500D01*
X157173708Y-96303316D01*
X157037487Y-96374810D01*
X156958531Y-96444760D01*
X156924128Y-96475239D01*
X156922334Y-96476828D01*
X156838141Y-96598804D01*
X156834944Y-96603436D01*
X156822784Y-96635500D01*
X156780390Y-96747282D01*
X156761847Y-96899997D01*
X156761847Y-96900002D01*
X156780390Y-97052717D01*
X156780390Y-97052719D01*
X156780391Y-97052720D01*
X156834944Y-97196564D01*
X156834945Y-97196565D01*
X156922334Y-97323172D01*
X156922340Y-97323179D01*
X156964308Y-97360359D01*
X157002034Y-97420503D01*
X157001254Y-97491495D01*
X156998567Y-97499350D01*
X156980390Y-97547278D01*
X156980390Y-97547279D01*
X156961847Y-97699997D01*
X156961847Y-97700002D01*
X156980390Y-97852717D01*
X156980390Y-97852719D01*
X156980391Y-97852720D01*
X157023542Y-97966500D01*
X157037647Y-98003690D01*
X157035385Y-98004547D01*
X157046500Y-98049638D01*
X157046500Y-99162012D01*
X157026498Y-99230133D01*
X156972842Y-99276626D01*
X156950655Y-99284350D01*
X156873711Y-99303315D01*
X156737487Y-99374810D01*
X156622334Y-99476828D01*
X156534945Y-99603434D01*
X156480390Y-99747282D01*
X156461847Y-99899997D01*
X156461847Y-99900002D01*
X156480390Y-100052717D01*
X156480390Y-100052719D01*
X156480391Y-100052720D01*
X156534944Y-100196564D01*
X156622336Y-100323174D01*
X156737488Y-100425190D01*
X156873708Y-100496683D01*
X156950654Y-100515648D01*
X157012008Y-100551371D01*
X157044309Y-100614594D01*
X157046500Y-100637987D01*
X157046500Y-119874000D01*
X157026498Y-119942121D01*
X156972842Y-119988614D01*
X156920500Y-120000000D01*
X100151500Y-120000000D01*
X100083379Y-119979998D01*
X100036886Y-119926342D01*
X100025500Y-119874000D01*
X100025500Y-118700000D01*
X106986496Y-118700000D01*
X107006457Y-118889927D01*
X107036526Y-118982470D01*
X107065473Y-119071556D01*
X107065476Y-119071561D01*
X107160958Y-119236941D01*
X107160965Y-119236951D01*
X107288744Y-119378864D01*
X107288747Y-119378866D01*
X107443248Y-119491118D01*
X107617712Y-119568794D01*
X107804513Y-119608500D01*
X107995487Y-119608500D01*
X108182288Y-119568794D01*
X108356752Y-119491118D01*
X108511253Y-119378866D01*
X108511255Y-119378864D01*
X108639034Y-119236951D01*
X108639035Y-119236949D01*
X108639040Y-119236944D01*
X108734527Y-119071556D01*
X108793542Y-118889928D01*
X108813504Y-118700000D01*
X108793542Y-118510072D01*
X108734527Y-118328444D01*
X108639040Y-118163056D01*
X108639038Y-118163054D01*
X108639034Y-118163048D01*
X108511255Y-118021135D01*
X108356752Y-117908882D01*
X108182288Y-117831206D01*
X107995487Y-117791500D01*
X107804513Y-117791500D01*
X107617711Y-117831206D01*
X107443247Y-117908882D01*
X107288744Y-118021135D01*
X107160965Y-118163048D01*
X107160958Y-118163058D01*
X107065476Y-118328438D01*
X107065473Y-118328444D01*
X107062967Y-118336158D01*
X107006457Y-118510072D01*
X106986496Y-118700000D01*
X100025500Y-118700000D01*
X100025500Y-116600000D01*
X105586496Y-116600000D01*
X105606457Y-116789927D01*
X105623399Y-116842068D01*
X105665473Y-116971556D01*
X105665476Y-116971561D01*
X105760958Y-117136941D01*
X105760965Y-117136951D01*
X105888744Y-117278864D01*
X105915845Y-117298554D01*
X106043248Y-117391118D01*
X106217712Y-117468794D01*
X106404513Y-117508500D01*
X106595487Y-117508500D01*
X106782288Y-117468794D01*
X106956752Y-117391118D01*
X107111253Y-117278866D01*
X107111255Y-117278864D01*
X107239034Y-117136951D01*
X107239035Y-117136949D01*
X107239040Y-117136944D01*
X107334527Y-116971556D01*
X107349004Y-116927000D01*
X110230496Y-116927000D01*
X110250457Y-117116927D01*
X110271950Y-117183074D01*
X110309473Y-117298556D01*
X110337841Y-117347691D01*
X110404958Y-117463941D01*
X110404965Y-117463951D01*
X110532744Y-117605864D01*
X110532747Y-117605866D01*
X110687248Y-117718118D01*
X110861712Y-117795794D01*
X111048513Y-117835500D01*
X111239487Y-117835500D01*
X111426288Y-117795794D01*
X111600752Y-117718118D01*
X111625689Y-117700000D01*
X129286496Y-117700000D01*
X129306457Y-117889927D01*
X129332980Y-117971554D01*
X129365473Y-118071556D01*
X129365476Y-118071561D01*
X129460958Y-118236941D01*
X129460965Y-118236951D01*
X129588744Y-118378864D01*
X129588747Y-118378866D01*
X129743248Y-118491118D01*
X129917712Y-118568794D01*
X130104513Y-118608500D01*
X130295487Y-118608500D01*
X130482288Y-118568794D01*
X130656752Y-118491118D01*
X130811253Y-118378866D01*
X130811255Y-118378864D01*
X130939034Y-118236951D01*
X130939035Y-118236949D01*
X130939040Y-118236944D01*
X131034527Y-118071556D01*
X131093542Y-117889928D01*
X131113504Y-117700000D01*
X131093542Y-117510072D01*
X131034527Y-117328444D01*
X130939040Y-117163056D01*
X130939038Y-117163054D01*
X130939034Y-117163048D01*
X130811255Y-117021135D01*
X130656752Y-116908882D01*
X130578259Y-116873935D01*
X130524163Y-116827955D01*
X130503514Y-116760027D01*
X130522866Y-116691719D01*
X130576077Y-116644718D01*
X130603309Y-116635581D01*
X130682288Y-116618794D01*
X130856752Y-116541118D01*
X131011253Y-116428866D01*
X131016217Y-116423353D01*
X131032572Y-116405190D01*
X131093017Y-116367950D01*
X131126208Y-116363500D01*
X133939574Y-116363500D01*
X134007695Y-116383502D01*
X134046815Y-116423353D01*
X134100970Y-116511152D01*
X134100975Y-116511158D01*
X134188222Y-116598405D01*
X134222248Y-116660717D01*
X134217183Y-116731532D01*
X134188222Y-116776595D01*
X134100975Y-116863841D01*
X134100970Y-116863847D01*
X134007885Y-117014762D01*
X133952113Y-117183072D01*
X133952112Y-117183079D01*
X133941500Y-117286946D01*
X133941500Y-117913044D01*
X133952112Y-118016925D01*
X134007885Y-118185238D01*
X134100970Y-118336152D01*
X134100975Y-118336158D01*
X134226341Y-118461524D01*
X134226347Y-118461529D01*
X134226348Y-118461530D01*
X134377262Y-118554615D01*
X134545574Y-118610387D01*
X134649455Y-118621000D01*
X135650544Y-118620999D01*
X135754426Y-118610387D01*
X135922738Y-118554615D01*
X136033220Y-118486468D01*
X136101698Y-118467731D01*
X136125564Y-118470463D01*
X136304509Y-118508500D01*
X136304513Y-118508500D01*
X136495487Y-118508500D01*
X136682288Y-118468794D01*
X136856752Y-118391118D01*
X137011253Y-118278866D01*
X137011255Y-118278864D01*
X137139034Y-118136951D01*
X137139035Y-118136949D01*
X137139040Y-118136944D01*
X137234527Y-117971556D01*
X137293542Y-117789928D01*
X137313504Y-117600000D01*
X137293542Y-117410072D01*
X137234527Y-117228444D01*
X137139040Y-117063056D01*
X137139038Y-117063054D01*
X137139034Y-117063048D01*
X137011255Y-116921135D01*
X136856752Y-116808882D01*
X136682288Y-116731206D01*
X136495487Y-116691500D01*
X136313548Y-116691500D01*
X136245427Y-116671498D01*
X136198934Y-116617842D01*
X136188830Y-116547568D01*
X136206305Y-116499355D01*
X136292115Y-116360238D01*
X136347887Y-116191926D01*
X136358500Y-116088045D01*
X136358499Y-115461956D01*
X136347887Y-115358074D01*
X136292115Y-115189762D01*
X136199030Y-115038848D01*
X136199029Y-115038847D01*
X136199024Y-115038841D01*
X136073658Y-114913475D01*
X136073652Y-114913470D01*
X136021344Y-114881206D01*
X135922738Y-114820385D01*
X135876296Y-114804996D01*
X135817926Y-114764583D01*
X135790670Y-114699027D01*
X135803183Y-114629142D01*
X135851492Y-114577115D01*
X135876294Y-114565788D01*
X135947738Y-114542115D01*
X136098652Y-114449030D01*
X136185423Y-114362258D01*
X136247733Y-114328235D01*
X136318549Y-114333299D01*
X136325740Y-114336237D01*
X136342712Y-114343794D01*
X136529513Y-114383500D01*
X136720487Y-114383500D01*
X136907288Y-114343794D01*
X137081752Y-114266118D01*
X137236253Y-114153866D01*
X137281303Y-114103833D01*
X137364034Y-114011951D01*
X137364035Y-114011949D01*
X137364040Y-114011944D01*
X137459527Y-113846556D01*
X137518542Y-113664928D01*
X137538504Y-113475000D01*
X137538503Y-113474999D01*
X137539194Y-113468433D01*
X137542191Y-113468748D01*
X137558506Y-113413185D01*
X137575411Y-113392208D01*
X137592218Y-113375402D01*
X137654531Y-113341379D01*
X137681311Y-113338500D01*
X140204994Y-113338500D01*
X140273115Y-113358502D01*
X140312234Y-113398352D01*
X140350968Y-113461150D01*
X140350975Y-113461158D01*
X140438222Y-113548405D01*
X140472248Y-113610717D01*
X140467183Y-113681532D01*
X140438222Y-113726595D01*
X140350975Y-113813841D01*
X140350970Y-113813847D01*
X140257885Y-113964762D01*
X140202113Y-114133072D01*
X140202112Y-114133079D01*
X140191500Y-114236946D01*
X140191500Y-114863044D01*
X140202112Y-114966925D01*
X140257885Y-115135238D01*
X140350970Y-115286152D01*
X140350975Y-115286158D01*
X140435387Y-115370570D01*
X140469413Y-115432882D01*
X140464348Y-115503697D01*
X140455411Y-115522665D01*
X140365476Y-115678438D01*
X140365473Y-115678445D01*
X140306457Y-115860072D01*
X140286496Y-116050000D01*
X140306457Y-116239927D01*
X140336526Y-116332470D01*
X140365473Y-116421556D01*
X140393841Y-116470691D01*
X140460958Y-116586941D01*
X140460965Y-116586951D01*
X140588744Y-116728864D01*
X140623111Y-116753833D01*
X140743248Y-116841118D01*
X140917712Y-116918794D01*
X141104513Y-116958500D01*
X141295487Y-116958500D01*
X141482288Y-116918794D01*
X141656752Y-116841118D01*
X141811253Y-116728866D01*
X141844700Y-116691719D01*
X141939034Y-116586951D01*
X141939035Y-116586949D01*
X141939040Y-116586944D01*
X142034527Y-116421556D01*
X142093542Y-116239928D01*
X142113504Y-116050000D01*
X142093542Y-115860072D01*
X142074975Y-115802931D01*
X142072948Y-115731967D01*
X142109610Y-115671169D01*
X142173322Y-115639843D01*
X142221006Y-115640750D01*
X142304513Y-115658500D01*
X142495487Y-115658500D01*
X142682288Y-115618794D01*
X142856752Y-115541118D01*
X143011253Y-115428866D01*
X143011255Y-115428864D01*
X143139034Y-115286951D01*
X143139035Y-115286949D01*
X143139040Y-115286944D01*
X143234527Y-115121556D01*
X143293542Y-114939928D01*
X143313504Y-114750000D01*
X143293542Y-114560072D01*
X143241531Y-114400000D01*
X143836496Y-114400000D01*
X143856457Y-114589927D01*
X143871265Y-114635500D01*
X143915473Y-114771556D01*
X143915476Y-114771561D01*
X144010958Y-114936941D01*
X144010965Y-114936951D01*
X144138744Y-115078864D01*
X144197511Y-115121561D01*
X144293248Y-115191118D01*
X144467712Y-115268794D01*
X144654513Y-115308500D01*
X144845487Y-115308500D01*
X145032288Y-115268794D01*
X145206752Y-115191118D01*
X145361253Y-115078866D01*
X145364563Y-115075190D01*
X145425009Y-115037950D01*
X145458200Y-115033500D01*
X147091800Y-115033500D01*
X147159921Y-115053502D01*
X147185437Y-115075190D01*
X147188747Y-115078866D01*
X147343248Y-115191118D01*
X147517712Y-115268794D01*
X147704513Y-115308500D01*
X147895487Y-115308500D01*
X148082288Y-115268794D01*
X148256752Y-115191118D01*
X148411253Y-115078866D01*
X148447284Y-115038850D01*
X148539034Y-114936951D01*
X148539035Y-114936949D01*
X148539040Y-114936944D01*
X148634527Y-114771556D01*
X148693542Y-114589928D01*
X148713504Y-114400000D01*
X148693542Y-114210072D01*
X148634527Y-114028444D01*
X148539040Y-113863056D01*
X148539038Y-113863054D01*
X148539034Y-113863048D01*
X148411255Y-113721135D01*
X148256752Y-113608882D01*
X148082288Y-113531206D01*
X147895487Y-113491500D01*
X147704513Y-113491500D01*
X147517711Y-113531206D01*
X147343247Y-113608882D01*
X147188747Y-113721133D01*
X147185437Y-113724810D01*
X147124991Y-113762050D01*
X147091800Y-113766500D01*
X145458200Y-113766500D01*
X145390079Y-113746498D01*
X145364563Y-113724810D01*
X145361252Y-113721133D01*
X145206752Y-113608882D01*
X145032288Y-113531206D01*
X144845487Y-113491500D01*
X144654513Y-113491500D01*
X144467711Y-113531206D01*
X144293247Y-113608882D01*
X144138744Y-113721135D01*
X144010965Y-113863048D01*
X144010958Y-113863058D01*
X143915476Y-114028438D01*
X143915473Y-114028445D01*
X143856457Y-114210072D01*
X143836496Y-114400000D01*
X143241531Y-114400000D01*
X143234527Y-114378444D01*
X143139040Y-114213056D01*
X143139038Y-114213054D01*
X143139034Y-114213048D01*
X143011255Y-114071135D01*
X142856752Y-113958882D01*
X142701878Y-113889928D01*
X142682288Y-113881206D01*
X142682287Y-113881205D01*
X142682283Y-113881204D01*
X142508112Y-113844182D01*
X142445638Y-113810454D01*
X142445214Y-113810031D01*
X142361778Y-113726595D01*
X142327752Y-113664283D01*
X142332817Y-113593468D01*
X142361778Y-113548405D01*
X142449024Y-113461158D01*
X142449030Y-113461152D01*
X142542115Y-113310238D01*
X142597887Y-113141926D01*
X142608500Y-113038045D01*
X142608499Y-112411956D01*
X142597887Y-112308074D01*
X142542115Y-112139762D01*
X142449030Y-111988848D01*
X142449029Y-111988847D01*
X142449024Y-111988841D01*
X142323658Y-111863475D01*
X142323652Y-111863470D01*
X142172738Y-111770385D01*
X142088582Y-111742499D01*
X142004427Y-111714613D01*
X142004420Y-111714612D01*
X141900553Y-111704000D01*
X140899455Y-111704000D01*
X140795574Y-111714612D01*
X140627261Y-111770385D01*
X140476347Y-111863470D01*
X140476341Y-111863475D01*
X140350975Y-111988841D01*
X140350968Y-111988849D01*
X140312234Y-112051648D01*
X140259448Y-112099125D01*
X140204994Y-112111500D01*
X137314576Y-112111500D01*
X137255312Y-112123288D01*
X137196048Y-112135077D01*
X137196045Y-112135078D01*
X137084399Y-112181324D01*
X136983914Y-112248465D01*
X136983913Y-112248466D01*
X136913617Y-112318763D01*
X136702783Y-112529596D01*
X136640473Y-112563620D01*
X136613690Y-112566500D01*
X136529513Y-112566500D01*
X136364549Y-112601564D01*
X136293758Y-112596162D01*
X136237125Y-112553345D01*
X136212632Y-112486707D01*
X136228053Y-112417406D01*
X136231089Y-112412206D01*
X136317115Y-112272738D01*
X136372887Y-112104426D01*
X136383500Y-112000545D01*
X136383499Y-111399456D01*
X136372887Y-111295574D01*
X136317115Y-111127262D01*
X136224030Y-110976348D01*
X136224029Y-110976347D01*
X136224024Y-110976341D01*
X136098658Y-110850975D01*
X136098652Y-110850970D01*
X135947738Y-110757885D01*
X135947734Y-110757883D01*
X135947735Y-110757883D01*
X135849867Y-110725453D01*
X135791495Y-110685039D01*
X135764240Y-110619483D01*
X135763500Y-110605849D01*
X135763500Y-110474737D01*
X135783502Y-110406616D01*
X135795864Y-110390426D01*
X135799707Y-110386158D01*
X135889040Y-110286944D01*
X135984527Y-110121556D01*
X136043542Y-109939928D01*
X136063504Y-109750000D01*
X136043542Y-109560072D01*
X135984527Y-109378444D01*
X135889040Y-109213056D01*
X135889038Y-109213054D01*
X135889034Y-109213048D01*
X135761255Y-109071135D01*
X135606752Y-108958882D01*
X135432288Y-108881206D01*
X135245487Y-108841500D01*
X135054513Y-108841500D01*
X134867711Y-108881206D01*
X134693247Y-108958882D01*
X134538744Y-109071135D01*
X134410965Y-109213048D01*
X134410958Y-109213058D01*
X134315476Y-109378438D01*
X134315474Y-109378442D01*
X134285905Y-109469443D01*
X134245830Y-109528048D01*
X134180433Y-109555684D01*
X134110477Y-109543576D01*
X134058171Y-109495570D01*
X134046519Y-109466048D01*
X134045583Y-109466353D01*
X134038908Y-109445812D01*
X133984527Y-109278444D01*
X133889040Y-109113056D01*
X133889038Y-109113054D01*
X133889034Y-109113048D01*
X133761255Y-108971135D01*
X133606752Y-108858882D01*
X133432288Y-108781206D01*
X133245487Y-108741500D01*
X133054513Y-108741500D01*
X132912749Y-108771633D01*
X132841958Y-108766231D01*
X132820407Y-108755628D01*
X132722738Y-108695385D01*
X132638582Y-108667499D01*
X132554427Y-108639613D01*
X132554420Y-108639612D01*
X132450553Y-108629000D01*
X131449455Y-108629000D01*
X131345574Y-108639612D01*
X131177261Y-108695385D01*
X131026347Y-108788470D01*
X131026341Y-108788475D01*
X130900975Y-108913841D01*
X130900970Y-108913847D01*
X130807885Y-109064762D01*
X130752113Y-109233072D01*
X130752112Y-109233079D01*
X130741500Y-109336946D01*
X130741500Y-109963044D01*
X130752112Y-110066925D01*
X130807885Y-110235238D01*
X130900970Y-110386152D01*
X130900975Y-110386158D01*
X130988222Y-110473405D01*
X131022248Y-110535717D01*
X131017183Y-110606532D01*
X130988222Y-110651595D01*
X130900975Y-110738841D01*
X130900970Y-110738847D01*
X130807885Y-110889762D01*
X130752113Y-111058072D01*
X130752112Y-111058079D01*
X130741500Y-111161946D01*
X130741500Y-111788044D01*
X130752112Y-111891925D01*
X130807885Y-112060238D01*
X130900970Y-112211152D01*
X130900975Y-112211158D01*
X131008580Y-112318763D01*
X131042606Y-112381075D01*
X131044795Y-112421026D01*
X131036496Y-112499998D01*
X131036496Y-112500000D01*
X131037592Y-112510424D01*
X131056457Y-112689927D01*
X131079249Y-112760072D01*
X131115473Y-112871556D01*
X131115476Y-112871561D01*
X131210958Y-113036941D01*
X131210965Y-113036951D01*
X131338744Y-113178864D01*
X131354151Y-113190058D01*
X131493248Y-113291118D01*
X131667712Y-113368794D01*
X131854513Y-113408500D01*
X132045487Y-113408500D01*
X132232288Y-113368794D01*
X132406752Y-113291118D01*
X132561253Y-113178866D01*
X132575487Y-113163058D01*
X132689034Y-113036951D01*
X132689035Y-113036949D01*
X132689040Y-113036944D01*
X132784527Y-112871556D01*
X132843542Y-112689928D01*
X132863504Y-112500000D01*
X132855203Y-112421028D01*
X132867975Y-112351192D01*
X132891415Y-112318766D01*
X132999030Y-112211152D01*
X133092115Y-112060238D01*
X133147887Y-111891926D01*
X133158500Y-111788045D01*
X133158499Y-111161956D01*
X133147887Y-111058074D01*
X133092115Y-110889762D01*
X133006306Y-110750644D01*
X132987570Y-110682168D01*
X133008829Y-110614429D01*
X133063336Y-110568937D01*
X133113548Y-110558500D01*
X133245487Y-110558500D01*
X133432288Y-110518794D01*
X133606752Y-110441118D01*
X133761253Y-110328866D01*
X133799000Y-110286944D01*
X133889034Y-110186951D01*
X133889035Y-110186949D01*
X133889040Y-110186944D01*
X133984527Y-110021556D01*
X134014094Y-109930557D01*
X134054168Y-109871952D01*
X134119564Y-109844315D01*
X134189521Y-109856422D01*
X134241827Y-109904428D01*
X134253484Y-109933950D01*
X134254417Y-109933647D01*
X134256458Y-109939927D01*
X134256458Y-109939928D01*
X134315473Y-110121556D01*
X134315476Y-110121561D01*
X134377428Y-110228866D01*
X134410960Y-110286944D01*
X134500293Y-110386158D01*
X134504136Y-110390426D01*
X134534853Y-110454434D01*
X134536500Y-110474737D01*
X134536500Y-110605850D01*
X134516498Y-110673971D01*
X134462842Y-110720464D01*
X134450136Y-110725453D01*
X134409716Y-110738847D01*
X134352262Y-110757885D01*
X134201347Y-110850970D01*
X134201341Y-110850975D01*
X134075975Y-110976341D01*
X134075970Y-110976347D01*
X133982885Y-111127262D01*
X133927113Y-111295572D01*
X133927112Y-111295579D01*
X133916500Y-111399446D01*
X133916500Y-112000544D01*
X133927112Y-112104425D01*
X133982885Y-112272738D01*
X134075970Y-112423652D01*
X134075975Y-112423658D01*
X134201344Y-112549027D01*
X134204049Y-112551166D01*
X134205421Y-112553104D01*
X134206537Y-112554220D01*
X134206346Y-112554410D01*
X134245076Y-112609108D01*
X134248264Y-112680033D01*
X134212602Y-112741423D01*
X134204049Y-112748834D01*
X134201344Y-112750972D01*
X134075975Y-112876341D01*
X134075970Y-112876347D01*
X133982885Y-113027262D01*
X133927113Y-113195572D01*
X133927112Y-113195579D01*
X133916500Y-113299446D01*
X133916500Y-113900544D01*
X133927112Y-114004425D01*
X133982885Y-114172738D01*
X134075970Y-114323652D01*
X134075975Y-114323658D01*
X134201341Y-114449024D01*
X134201347Y-114449029D01*
X134201348Y-114449030D01*
X134352262Y-114542115D01*
X134423702Y-114565787D01*
X134482072Y-114606199D01*
X134509329Y-114671755D01*
X134496816Y-114741641D01*
X134448507Y-114793667D01*
X134423704Y-114804995D01*
X134377263Y-114820384D01*
X134226347Y-114913470D01*
X134226341Y-114913475D01*
X134100975Y-115038841D01*
X134100968Y-115038850D01*
X134077654Y-115076648D01*
X134024868Y-115124126D01*
X133970414Y-115136500D01*
X131126208Y-115136500D01*
X131058087Y-115116498D01*
X131032572Y-115094810D01*
X131011255Y-115071135D01*
X130856752Y-114958882D01*
X130682288Y-114881206D01*
X130495487Y-114841500D01*
X130304513Y-114841500D01*
X130117711Y-114881206D01*
X129943247Y-114958882D01*
X129788744Y-115071135D01*
X129660965Y-115213048D01*
X129660958Y-115213058D01*
X129565476Y-115378438D01*
X129565473Y-115378445D01*
X129506457Y-115560072D01*
X129486496Y-115750000D01*
X129506457Y-115939927D01*
X129531988Y-116018500D01*
X129565473Y-116121556D01*
X129565476Y-116121561D01*
X129660958Y-116286941D01*
X129660965Y-116286951D01*
X129788744Y-116428864D01*
X129788747Y-116428866D01*
X129943248Y-116541118D01*
X130021739Y-116576064D01*
X130075835Y-116622044D01*
X130096485Y-116689971D01*
X130077133Y-116758279D01*
X130023923Y-116805281D01*
X129996690Y-116814417D01*
X129917714Y-116831204D01*
X129743247Y-116908882D01*
X129588744Y-117021135D01*
X129460965Y-117163048D01*
X129460958Y-117163058D01*
X129365476Y-117328438D01*
X129365473Y-117328445D01*
X129306457Y-117510072D01*
X129286496Y-117700000D01*
X111625689Y-117700000D01*
X111755253Y-117605866D01*
X111883040Y-117463944D01*
X111978527Y-117298556D01*
X112037542Y-117116928D01*
X112057504Y-116927000D01*
X112037542Y-116737072D01*
X111978527Y-116555444D01*
X111883040Y-116390056D01*
X111883038Y-116390054D01*
X111883034Y-116390048D01*
X111755255Y-116248135D01*
X111600752Y-116135882D01*
X111426288Y-116058206D01*
X111239487Y-116018500D01*
X111048513Y-116018500D01*
X110861711Y-116058206D01*
X110687247Y-116135882D01*
X110532744Y-116248135D01*
X110404965Y-116390048D01*
X110404958Y-116390058D01*
X110309476Y-116555438D01*
X110309473Y-116555445D01*
X110250457Y-116737072D01*
X110230496Y-116927000D01*
X107349004Y-116927000D01*
X107393542Y-116789928D01*
X107413504Y-116600000D01*
X107393542Y-116410072D01*
X107334527Y-116228444D01*
X107239040Y-116063056D01*
X107239038Y-116063054D01*
X107239034Y-116063048D01*
X107111255Y-115921135D01*
X106956752Y-115808882D01*
X106782288Y-115731206D01*
X106595487Y-115691500D01*
X106404513Y-115691500D01*
X106217711Y-115731206D01*
X106043247Y-115808882D01*
X105888744Y-115921135D01*
X105760965Y-116063048D01*
X105760958Y-116063058D01*
X105665476Y-116228438D01*
X105665473Y-116228445D01*
X105606457Y-116410072D01*
X105586496Y-116600000D01*
X100025500Y-116600000D01*
X100025500Y-113700000D01*
X105586496Y-113700000D01*
X105606457Y-113889927D01*
X105628863Y-113958882D01*
X105665473Y-114071556D01*
X105681064Y-114098561D01*
X105760958Y-114236941D01*
X105760965Y-114236951D01*
X105888744Y-114378864D01*
X105888747Y-114378866D01*
X106043248Y-114491118D01*
X106217712Y-114568794D01*
X106404513Y-114608500D01*
X106595487Y-114608500D01*
X106782288Y-114568794D01*
X106956752Y-114491118D01*
X107111253Y-114378866D01*
X107111633Y-114378444D01*
X107239034Y-114236951D01*
X107239038Y-114236946D01*
X107239040Y-114236944D01*
X107334527Y-114071556D01*
X107393542Y-113889928D01*
X107410666Y-113727000D01*
X110230496Y-113727000D01*
X110250457Y-113916927D01*
X110266000Y-113964762D01*
X110309473Y-114098556D01*
X110309476Y-114098561D01*
X110404958Y-114263941D01*
X110404965Y-114263951D01*
X110532744Y-114405864D01*
X110532747Y-114405866D01*
X110687248Y-114518118D01*
X110861712Y-114595794D01*
X111048513Y-114635500D01*
X111239487Y-114635500D01*
X111426288Y-114595794D01*
X111600752Y-114518118D01*
X111755253Y-114405866D01*
X111760535Y-114400000D01*
X111883034Y-114263951D01*
X111883035Y-114263949D01*
X111883040Y-114263944D01*
X111978527Y-114098556D01*
X112037542Y-113916928D01*
X112057504Y-113727000D01*
X112037542Y-113537072D01*
X111978527Y-113355444D01*
X111883040Y-113190056D01*
X111883038Y-113190054D01*
X111883034Y-113190048D01*
X111755255Y-113048135D01*
X111600752Y-112935882D01*
X111426288Y-112858206D01*
X111239487Y-112818500D01*
X111048513Y-112818500D01*
X110861711Y-112858206D01*
X110687247Y-112935882D01*
X110532744Y-113048135D01*
X110404965Y-113190048D01*
X110404958Y-113190058D01*
X110317593Y-113341379D01*
X110309473Y-113355444D01*
X110302988Y-113375402D01*
X110250457Y-113537072D01*
X110230496Y-113727000D01*
X107410666Y-113727000D01*
X107413504Y-113700000D01*
X107393542Y-113510072D01*
X107334527Y-113328444D01*
X107239040Y-113163056D01*
X107239038Y-113163054D01*
X107239034Y-113163048D01*
X107111255Y-113021135D01*
X106956752Y-112908882D01*
X106782288Y-112831206D01*
X106595487Y-112791500D01*
X106404513Y-112791500D01*
X106217711Y-112831206D01*
X106043247Y-112908882D01*
X105888744Y-113021135D01*
X105760965Y-113163048D01*
X105760958Y-113163058D01*
X105665476Y-113328438D01*
X105665473Y-113328444D01*
X105652363Y-113368793D01*
X105606457Y-113510072D01*
X105586496Y-113700000D01*
X100025500Y-113700000D01*
X100025500Y-109827000D01*
X115530496Y-109827000D01*
X115550457Y-110016927D01*
X115566703Y-110066925D01*
X115609473Y-110198556D01*
X115626971Y-110228864D01*
X115704958Y-110363941D01*
X115704965Y-110363951D01*
X115832744Y-110505864D01*
X115832747Y-110505866D01*
X115987248Y-110618118D01*
X116161712Y-110695794D01*
X116348513Y-110735500D01*
X116539487Y-110735500D01*
X116726288Y-110695794D01*
X116900752Y-110618118D01*
X117055253Y-110505866D01*
X117084481Y-110473405D01*
X117183034Y-110363951D01*
X117183035Y-110363949D01*
X117183040Y-110363944D01*
X117278527Y-110198556D01*
X117337542Y-110016928D01*
X117357504Y-109827000D01*
X117337542Y-109637072D01*
X117278527Y-109455444D01*
X117183040Y-109290056D01*
X117183038Y-109290054D01*
X117183034Y-109290048D01*
X117055255Y-109148135D01*
X116900752Y-109035882D01*
X116726288Y-108958206D01*
X116539487Y-108918500D01*
X116348513Y-108918500D01*
X116161711Y-108958206D01*
X115987247Y-109035882D01*
X115832744Y-109148135D01*
X115704965Y-109290048D01*
X115704958Y-109290058D01*
X115653928Y-109378445D01*
X115609473Y-109455444D01*
X115598269Y-109489927D01*
X115550457Y-109637072D01*
X115530496Y-109827000D01*
X100025500Y-109827000D01*
X100025500Y-107626000D01*
X100045502Y-107557879D01*
X100099158Y-107511386D01*
X100151500Y-107500000D01*
X121460500Y-107500000D01*
X121528621Y-107520002D01*
X121575114Y-107573658D01*
X121586500Y-107626000D01*
X121586500Y-108522239D01*
X121566498Y-108590360D01*
X121542653Y-108615612D01*
X121543650Y-108616719D01*
X121538743Y-108621136D01*
X121410965Y-108763048D01*
X121410958Y-108763058D01*
X121315476Y-108928438D01*
X121315473Y-108928445D01*
X121256457Y-109110072D01*
X121236496Y-109300000D01*
X121256457Y-109489927D01*
X121279249Y-109560072D01*
X121315473Y-109671556D01*
X121315476Y-109671561D01*
X121410958Y-109836941D01*
X121410965Y-109836951D01*
X121538744Y-109978864D01*
X121597511Y-110021561D01*
X121693248Y-110091118D01*
X121867712Y-110168794D01*
X122054513Y-110208500D01*
X122245487Y-110208500D01*
X122432288Y-110168794D01*
X122606752Y-110091118D01*
X122761253Y-109978866D01*
X122761255Y-109978864D01*
X122889034Y-109836951D01*
X122889035Y-109836949D01*
X122889040Y-109836944D01*
X122984527Y-109671556D01*
X123043542Y-109489928D01*
X123063504Y-109300000D01*
X123043542Y-109110072D01*
X122984527Y-108928444D01*
X122889040Y-108763056D01*
X122845862Y-108715102D01*
X122815146Y-108651095D01*
X122813500Y-108630793D01*
X122813500Y-107626000D01*
X122833502Y-107557879D01*
X122887158Y-107511386D01*
X122939500Y-107500000D01*
X125033783Y-107500000D01*
X125101904Y-107520002D01*
X125148397Y-107573658D01*
X125158501Y-107643932D01*
X125153616Y-107664932D01*
X125142224Y-107699997D01*
X125106457Y-107810072D01*
X125086496Y-108000000D01*
X125106457Y-108189927D01*
X125136526Y-108282470D01*
X125165473Y-108371556D01*
X125165476Y-108371561D01*
X125260958Y-108536941D01*
X125260965Y-108536951D01*
X125388744Y-108678864D01*
X125411483Y-108695385D01*
X125543248Y-108791118D01*
X125717712Y-108868794D01*
X125904513Y-108908500D01*
X126095487Y-108908500D01*
X126282288Y-108868794D01*
X126456752Y-108791118D01*
X126611253Y-108678866D01*
X126616862Y-108672636D01*
X126677306Y-108635396D01*
X126748290Y-108636746D01*
X126807276Y-108676258D01*
X126835536Y-108741387D01*
X126836500Y-108756945D01*
X126836500Y-112510424D01*
X126844990Y-112553104D01*
X126855553Y-112606206D01*
X126855553Y-112606209D01*
X126860074Y-112628944D01*
X126860077Y-112628951D01*
X126906324Y-112740601D01*
X126973464Y-112841084D01*
X126999591Y-112867211D01*
X127033616Y-112929521D01*
X127035119Y-112943506D01*
X127035806Y-112943434D01*
X127056457Y-113139927D01*
X127074540Y-113195579D01*
X127115473Y-113321556D01*
X127115476Y-113321561D01*
X127210958Y-113486941D01*
X127210965Y-113486951D01*
X127338744Y-113628864D01*
X127388382Y-113664928D01*
X127493248Y-113741118D01*
X127667712Y-113818794D01*
X127854513Y-113858500D01*
X128045487Y-113858500D01*
X128232288Y-113818794D01*
X128406752Y-113741118D01*
X128561253Y-113628866D01*
X128561255Y-113628864D01*
X128689034Y-113486951D01*
X128689035Y-113486949D01*
X128689040Y-113486944D01*
X128784527Y-113321556D01*
X128843542Y-113139928D01*
X128863504Y-112950000D01*
X128843542Y-112760072D01*
X128784527Y-112578444D01*
X128689040Y-112413056D01*
X128689038Y-112413054D01*
X128689034Y-112413048D01*
X128561255Y-112271135D01*
X128406752Y-112158882D01*
X128232284Y-112081204D01*
X128163302Y-112066541D01*
X128100829Y-112032813D01*
X128066508Y-111970663D01*
X128063500Y-111943295D01*
X128063500Y-110306945D01*
X128083502Y-110238824D01*
X128137158Y-110192331D01*
X128207432Y-110182227D01*
X128272012Y-110211721D01*
X128283133Y-110222631D01*
X128288747Y-110228866D01*
X128443248Y-110341118D01*
X128617712Y-110418794D01*
X128804513Y-110458500D01*
X128995487Y-110458500D01*
X129182288Y-110418794D01*
X129356752Y-110341118D01*
X129511253Y-110228866D01*
X129511633Y-110228444D01*
X129639034Y-110086951D01*
X129639035Y-110086949D01*
X129639040Y-110086944D01*
X129734527Y-109921556D01*
X129793542Y-109739928D01*
X129813504Y-109550000D01*
X129793542Y-109360072D01*
X129734527Y-109178444D01*
X129639040Y-109013056D01*
X129545862Y-108909571D01*
X129515146Y-108845564D01*
X129513500Y-108825262D01*
X129513500Y-107729943D01*
X129533502Y-107661822D01*
X129550405Y-107640848D01*
X129654348Y-107536905D01*
X129716660Y-107502879D01*
X129743443Y-107500000D01*
X135000000Y-107500000D01*
X135000000Y-107285500D01*
X135020002Y-107217379D01*
X135073658Y-107170886D01*
X135126000Y-107159500D01*
X146663248Y-107159500D01*
X146731369Y-107179502D01*
X146777862Y-107233158D01*
X146787966Y-107303432D01*
X146766944Y-107357075D01*
X146734944Y-107403436D01*
X146721238Y-107439576D01*
X146680390Y-107547282D01*
X146661847Y-107699997D01*
X146661847Y-107700002D01*
X146680390Y-107852719D01*
X146689151Y-107875820D01*
X146694605Y-107946607D01*
X146660922Y-108009105D01*
X146598797Y-108043472D01*
X146571339Y-108046500D01*
X146139627Y-108046500D01*
X146081073Y-108032068D01*
X146026290Y-108003316D01*
X145876922Y-107966500D01*
X145876921Y-107966500D01*
X145723079Y-107966500D01*
X145723077Y-107966500D01*
X145573708Y-108003316D01*
X145437487Y-108074810D01*
X145322334Y-108176828D01*
X145234945Y-108303434D01*
X145180390Y-108447282D01*
X145161847Y-108599997D01*
X145161847Y-108600002D01*
X145180390Y-108752717D01*
X145180390Y-108752719D01*
X145180391Y-108752720D01*
X145234944Y-108896564D01*
X145322336Y-109023174D01*
X145437488Y-109125190D01*
X145573708Y-109196683D01*
X145723079Y-109233500D01*
X145723080Y-109233500D01*
X145876920Y-109233500D01*
X145876921Y-109233500D01*
X146026292Y-109196683D01*
X146081073Y-109167932D01*
X146139627Y-109153500D01*
X149560373Y-109153500D01*
X149618927Y-109167932D01*
X149673708Y-109196683D01*
X149823079Y-109233500D01*
X149823080Y-109233500D01*
X149976920Y-109233500D01*
X149976921Y-109233500D01*
X150126292Y-109196683D01*
X150262512Y-109125190D01*
X150377664Y-109023174D01*
X150465056Y-108896564D01*
X150488472Y-108834818D01*
X150531330Y-108778219D01*
X150597986Y-108753774D01*
X150606284Y-108753500D01*
X153372868Y-108753500D01*
X153372869Y-108753500D01*
X153372870Y-108753500D01*
X153513643Y-108715780D01*
X153639857Y-108642910D01*
X153742910Y-108539857D01*
X155142910Y-107139857D01*
X155215780Y-107013643D01*
X155231102Y-106956459D01*
X155253500Y-106872870D01*
X155253500Y-100511057D01*
X155273502Y-100442936D01*
X155320945Y-100399489D01*
X155326290Y-100396683D01*
X155326292Y-100396683D01*
X155462512Y-100325190D01*
X155577664Y-100223174D01*
X155665056Y-100096564D01*
X155719609Y-99952720D01*
X155738153Y-99800000D01*
X155731751Y-99747280D01*
X155719609Y-99647282D01*
X155719609Y-99647280D01*
X155665056Y-99503436D01*
X155577664Y-99376826D01*
X155462512Y-99274810D01*
X155326292Y-99203317D01*
X155326290Y-99203316D01*
X155320945Y-99200511D01*
X155269923Y-99151143D01*
X155253500Y-99088943D01*
X155253500Y-98537055D01*
X155273502Y-98468934D01*
X155327158Y-98422441D01*
X155397432Y-98412337D01*
X155438052Y-98425486D01*
X155573708Y-98496683D01*
X155723079Y-98533500D01*
X155723080Y-98533500D01*
X155876920Y-98533500D01*
X155876921Y-98533500D01*
X156026292Y-98496683D01*
X156162512Y-98425190D01*
X156277664Y-98323174D01*
X156365056Y-98196564D01*
X156419609Y-98052720D01*
X156437750Y-97903317D01*
X156438153Y-97900002D01*
X156438153Y-97899997D01*
X156427026Y-97808368D01*
X156419609Y-97747280D01*
X156365056Y-97603436D01*
X156277664Y-97476826D01*
X156162512Y-97374810D01*
X156134978Y-97360359D01*
X156026291Y-97303316D01*
X155876922Y-97266500D01*
X155876921Y-97266500D01*
X155723079Y-97266500D01*
X155723077Y-97266500D01*
X155573708Y-97303316D01*
X155437485Y-97374811D01*
X155424678Y-97386157D01*
X155360424Y-97416355D01*
X155290044Y-97407020D01*
X155237433Y-97363417D01*
X155209659Y-97323179D01*
X155177664Y-97276826D01*
X155062512Y-97174810D01*
X154983800Y-97133499D01*
X154926291Y-97103316D01*
X154776922Y-97066500D01*
X154776921Y-97066500D01*
X154623079Y-97066500D01*
X154623077Y-97066500D01*
X154473708Y-97103316D01*
X154337486Y-97174811D01*
X154331215Y-97179140D01*
X154329953Y-97177312D01*
X154275723Y-97202794D01*
X154205343Y-97193454D01*
X154172885Y-97172591D01*
X154062515Y-97074812D01*
X154062513Y-97074811D01*
X154062512Y-97074810D01*
X153967966Y-97025189D01*
X153926291Y-97003316D01*
X153776922Y-96966500D01*
X153776921Y-96966500D01*
X153623079Y-96966500D01*
X153623077Y-96966500D01*
X153473708Y-97003316D01*
X153337487Y-97074810D01*
X153333552Y-97078297D01*
X153269298Y-97108496D01*
X153198918Y-97099164D01*
X153166448Y-97078297D01*
X153162512Y-97074810D01*
X153026291Y-97003316D01*
X152876922Y-96966500D01*
X152876921Y-96966500D01*
X152723079Y-96966500D01*
X152723077Y-96966500D01*
X152573708Y-97003316D01*
X152437487Y-97074810D01*
X152405311Y-97103316D01*
X152324611Y-97174811D01*
X152322334Y-97176828D01*
X152234945Y-97303433D01*
X152201541Y-97391507D01*
X152172829Y-97435916D01*
X152152289Y-97456457D01*
X152078630Y-97584036D01*
X152058588Y-97658833D01*
X152049090Y-97694284D01*
X152040500Y-97726341D01*
X152040500Y-98863491D01*
X152020498Y-98931612D01*
X151966842Y-98978105D01*
X151944654Y-98985830D01*
X151873708Y-99003316D01*
X151737487Y-99074810D01*
X151680617Y-99125193D01*
X151637585Y-99163317D01*
X151622334Y-99176828D01*
X151534945Y-99303434D01*
X151480390Y-99447282D01*
X151461847Y-99599997D01*
X151461847Y-99600002D01*
X151480390Y-99752717D01*
X151480390Y-99752719D01*
X151480391Y-99752720D01*
X151534944Y-99896564D01*
X151622336Y-100023174D01*
X151737488Y-100125190D01*
X151873708Y-100196683D01*
X151944654Y-100214169D01*
X152006008Y-100249892D01*
X152038309Y-100313115D01*
X152040500Y-100336508D01*
X152040500Y-105116057D01*
X152020498Y-105184178D01*
X152003599Y-105205147D01*
X151633740Y-105575007D01*
X151304844Y-105903903D01*
X151242532Y-105937928D01*
X151232197Y-105939729D01*
X151226341Y-105940499D01*
X151084043Y-105978628D01*
X151084036Y-105978631D01*
X151006116Y-106023619D01*
X150943116Y-106040500D01*
X135126000Y-106040500D01*
X135057879Y-106020498D01*
X135011386Y-105966842D01*
X135000000Y-105914500D01*
X135000000Y-101499997D01*
X149161847Y-101499997D01*
X149161847Y-101500002D01*
X149180390Y-101652717D01*
X149180390Y-101652719D01*
X149180391Y-101652720D01*
X149234944Y-101796564D01*
X149322336Y-101923174D01*
X149437488Y-102025190D01*
X149573708Y-102096683D01*
X149723079Y-102133500D01*
X149723080Y-102133500D01*
X149876920Y-102133500D01*
X149876921Y-102133500D01*
X150026292Y-102096683D01*
X150162512Y-102025190D01*
X150277664Y-101923174D01*
X150365056Y-101796564D01*
X150419609Y-101652720D01*
X150438153Y-101500000D01*
X150431751Y-101447280D01*
X150421525Y-101363058D01*
X150419609Y-101347280D01*
X150365056Y-101203436D01*
X150277664Y-101076826D01*
X150162512Y-100974810D01*
X150026291Y-100903316D01*
X149876922Y-100866500D01*
X149876921Y-100866500D01*
X149723079Y-100866500D01*
X149723077Y-100866500D01*
X149573708Y-100903316D01*
X149437487Y-100974810D01*
X149322334Y-101076828D01*
X149234945Y-101203434D01*
X149180390Y-101347282D01*
X149161847Y-101499997D01*
X135000000Y-101499997D01*
X135000000Y-98499997D01*
X150161847Y-98499997D01*
X150161847Y-98500002D01*
X150180390Y-98652717D01*
X150180390Y-98652719D01*
X150180391Y-98652720D01*
X150234944Y-98796564D01*
X150322336Y-98923174D01*
X150437488Y-99025190D01*
X150573708Y-99096683D01*
X150723079Y-99133500D01*
X150723080Y-99133500D01*
X150876920Y-99133500D01*
X150876921Y-99133500D01*
X151026292Y-99096683D01*
X151162512Y-99025190D01*
X151277664Y-98923174D01*
X151365056Y-98796564D01*
X151419609Y-98652720D01*
X151438153Y-98500000D01*
X151437750Y-98496683D01*
X151419609Y-98347282D01*
X151419609Y-98347280D01*
X151365056Y-98203436D01*
X151277664Y-98076826D01*
X151162512Y-97974810D01*
X151026291Y-97903316D01*
X150876922Y-97866500D01*
X150876921Y-97866500D01*
X150723079Y-97866500D01*
X150723077Y-97866500D01*
X150573708Y-97903316D01*
X150437487Y-97974810D01*
X150322334Y-98076828D01*
X150234945Y-98203434D01*
X150180390Y-98347282D01*
X150161847Y-98499997D01*
X135000000Y-98499997D01*
X135000000Y-96199997D01*
X150061847Y-96199997D01*
X150061847Y-96200002D01*
X150080390Y-96352717D01*
X150080390Y-96352719D01*
X150080391Y-96352720D01*
X150134944Y-96496564D01*
X150222336Y-96623174D01*
X150337488Y-96725190D01*
X150473708Y-96796683D01*
X150623079Y-96833500D01*
X150623080Y-96833500D01*
X150776920Y-96833500D01*
X150776921Y-96833500D01*
X150926292Y-96796683D01*
X151062512Y-96725190D01*
X151177664Y-96623174D01*
X151265056Y-96496564D01*
X151319609Y-96352720D01*
X151331572Y-96254199D01*
X151338153Y-96200002D01*
X151338153Y-96199997D01*
X151323197Y-96076828D01*
X151319609Y-96047280D01*
X151265056Y-95903436D01*
X151177664Y-95776826D01*
X151062512Y-95674810D01*
X150983800Y-95633499D01*
X150926291Y-95603316D01*
X150776922Y-95566500D01*
X150776921Y-95566500D01*
X150623079Y-95566500D01*
X150623077Y-95566500D01*
X150473708Y-95603316D01*
X150337487Y-95674810D01*
X150222334Y-95776828D01*
X150135026Y-95903317D01*
X150134944Y-95903436D01*
X150109036Y-95971749D01*
X150080390Y-96047282D01*
X150061847Y-96199997D01*
X135000000Y-96199997D01*
X135000000Y-94299997D01*
X141461847Y-94299997D01*
X141461847Y-94300002D01*
X141480390Y-94452717D01*
X141480390Y-94452719D01*
X141480391Y-94452720D01*
X141534944Y-94596564D01*
X141622336Y-94723174D01*
X141737488Y-94825190D01*
X141814783Y-94865757D01*
X141873708Y-94896683D01*
X141882078Y-94898746D01*
X141941021Y-94931990D01*
X141952449Y-94943418D01*
X142056582Y-95047551D01*
X142056583Y-95047552D01*
X142056585Y-95047553D01*
X142065535Y-95052720D01*
X142184118Y-95121184D01*
X142326367Y-95159300D01*
X142726367Y-95159300D01*
X152371424Y-95159300D01*
X152429978Y-95173732D01*
X152473708Y-95196683D01*
X152623079Y-95233500D01*
X152625676Y-95233500D01*
X152627505Y-95234037D01*
X152630642Y-95234418D01*
X152630578Y-95234939D01*
X152693797Y-95253502D01*
X152728695Y-95291615D01*
X152730614Y-95290291D01*
X152739605Y-95303317D01*
X152822336Y-95423174D01*
X152937488Y-95525190D01*
X153073708Y-95596683D01*
X153223079Y-95633500D01*
X153223080Y-95633500D01*
X153376920Y-95633500D01*
X153376921Y-95633500D01*
X153526292Y-95596683D01*
X153662512Y-95525190D01*
X153777664Y-95423174D01*
X153865056Y-95296564D01*
X153908602Y-95181740D01*
X153951459Y-95125142D01*
X153996257Y-95104085D01*
X154026292Y-95096683D01*
X154162512Y-95025190D01*
X154277664Y-94923174D01*
X154365056Y-94796564D01*
X154419609Y-94652720D01*
X154438153Y-94500000D01*
X154435339Y-94476828D01*
X154422952Y-94374810D01*
X154419609Y-94347280D01*
X154365056Y-94203436D01*
X154277664Y-94076826D01*
X154162512Y-93974810D01*
X154147711Y-93967042D01*
X154026291Y-93903316D01*
X153876922Y-93866500D01*
X153876921Y-93866500D01*
X153723079Y-93866500D01*
X153723077Y-93866500D01*
X153573708Y-93903316D01*
X153437487Y-93974810D01*
X153322334Y-94076828D01*
X153322332Y-94076830D01*
X153305397Y-94101365D01*
X153250239Y-94146064D01*
X153179670Y-94153847D01*
X153118149Y-94124100D01*
X153062512Y-94074810D01*
X153027482Y-94056425D01*
X152926291Y-94003316D01*
X152776922Y-93966500D01*
X152776921Y-93966500D01*
X152623079Y-93966500D01*
X152623077Y-93966500D01*
X152473709Y-94003316D01*
X152429978Y-94026268D01*
X152371424Y-94040700D01*
X151430822Y-94040700D01*
X151362701Y-94020698D01*
X151316208Y-93967042D01*
X151313010Y-93959380D01*
X151312565Y-93958206D01*
X151287355Y-93891732D01*
X151196514Y-93760127D01*
X151076818Y-93654085D01*
X151076817Y-93654084D01*
X151076813Y-93654082D01*
X150935220Y-93579769D01*
X150779957Y-93541500D01*
X150779956Y-93541500D01*
X150620044Y-93541500D01*
X150620042Y-93541500D01*
X150464779Y-93579769D01*
X150323186Y-93654082D01*
X150323182Y-93654084D01*
X150203484Y-93760128D01*
X150112647Y-93891728D01*
X150112643Y-93891736D01*
X150102493Y-93918500D01*
X150088985Y-93954120D01*
X150086990Y-93959380D01*
X150044132Y-94015981D01*
X149977477Y-94040426D01*
X149969178Y-94040700D01*
X142756907Y-94040700D01*
X142688786Y-94020698D01*
X142653211Y-93986275D01*
X142577668Y-93876831D01*
X142577665Y-93876828D01*
X142577664Y-93876826D01*
X142462512Y-93774810D01*
X142456312Y-93771556D01*
X142326291Y-93703316D01*
X142176922Y-93666500D01*
X142176921Y-93666500D01*
X142023079Y-93666500D01*
X142023077Y-93666500D01*
X141873708Y-93703316D01*
X141737487Y-93774810D01*
X141622334Y-93876828D01*
X141535026Y-94003317D01*
X141534944Y-94003436D01*
X141514847Y-94056427D01*
X141480390Y-94147282D01*
X141461847Y-94299997D01*
X135000000Y-94299997D01*
X135000000Y-88314997D01*
X140261847Y-88314997D01*
X140261847Y-88315002D01*
X140280390Y-88467717D01*
X140280390Y-88467719D01*
X140280391Y-88467720D01*
X140334944Y-88611564D01*
X140422336Y-88738174D01*
X140537488Y-88840190D01*
X140670326Y-88909908D01*
X140673708Y-88911683D01*
X140682078Y-88913746D01*
X140741021Y-88946990D01*
X143837449Y-92043418D01*
X143941582Y-92147551D01*
X144069118Y-92221184D01*
X144211367Y-92259300D01*
X150058650Y-92259300D01*
X150126771Y-92279302D01*
X150173264Y-92332958D01*
X150177665Y-92345601D01*
X150177688Y-92345593D01*
X150180391Y-92352720D01*
X150234944Y-92496564D01*
X150322336Y-92623174D01*
X150437488Y-92725190D01*
X150573708Y-92796683D01*
X150723079Y-92833500D01*
X150723080Y-92833500D01*
X150876920Y-92833500D01*
X150876921Y-92833500D01*
X151026292Y-92796683D01*
X151162512Y-92725190D01*
X151277664Y-92623174D01*
X151365056Y-92496564D01*
X151419609Y-92352720D01*
X151419609Y-92352719D01*
X151422312Y-92345593D01*
X151424164Y-92346295D01*
X151454735Y-92293791D01*
X151517958Y-92261490D01*
X151541350Y-92259300D01*
X152648849Y-92259300D01*
X152716970Y-92279302D01*
X152763463Y-92332958D01*
X152773930Y-92400488D01*
X152761847Y-92499997D01*
X152761847Y-92500002D01*
X152780390Y-92652717D01*
X152780390Y-92652719D01*
X152780391Y-92652720D01*
X152834944Y-92796564D01*
X152922336Y-92923174D01*
X153037488Y-93025190D01*
X153173708Y-93096683D01*
X153323079Y-93133500D01*
X153323080Y-93133500D01*
X153476920Y-93133500D01*
X153476921Y-93133500D01*
X153626292Y-93096683D01*
X153762512Y-93025190D01*
X153877664Y-92923174D01*
X153932997Y-92843008D01*
X153988153Y-92798311D01*
X154058722Y-92790527D01*
X154122296Y-92822131D01*
X154158692Y-92883089D01*
X154161773Y-92899398D01*
X154180389Y-93052717D01*
X154211027Y-93133500D01*
X154234944Y-93196564D01*
X154322336Y-93323174D01*
X154437488Y-93425190D01*
X154573708Y-93496683D01*
X154723079Y-93533500D01*
X154723080Y-93533500D01*
X154876920Y-93533500D01*
X154876921Y-93533500D01*
X155019423Y-93498376D01*
X155090351Y-93501493D01*
X155148334Y-93542463D01*
X155174659Y-93605524D01*
X155180390Y-93652718D01*
X155185617Y-93666500D01*
X155234944Y-93796564D01*
X155322336Y-93923174D01*
X155437488Y-94025190D01*
X155573708Y-94096683D01*
X155723079Y-94133500D01*
X155723080Y-94133500D01*
X155876920Y-94133500D01*
X155876921Y-94133500D01*
X156026292Y-94096683D01*
X156026297Y-94096680D01*
X156029318Y-94095535D01*
X156031691Y-94095351D01*
X156033692Y-94094859D01*
X156033773Y-94095191D01*
X156043857Y-94094414D01*
X156049940Y-94086197D01*
X156067435Y-94075089D01*
X156162512Y-94025190D01*
X156277664Y-93923174D01*
X156365056Y-93796564D01*
X156419609Y-93652720D01*
X156438153Y-93500000D01*
X156437750Y-93496683D01*
X156427026Y-93408368D01*
X156419609Y-93347280D01*
X156365056Y-93203436D01*
X156277664Y-93076826D01*
X156162512Y-92974810D01*
X156026291Y-92903316D01*
X155876922Y-92866500D01*
X155876921Y-92866500D01*
X155723079Y-92866500D01*
X155723077Y-92866500D01*
X155580575Y-92901624D01*
X155509647Y-92898505D01*
X155451664Y-92857535D01*
X155425340Y-92794473D01*
X155419609Y-92747282D01*
X155419609Y-92747280D01*
X155365056Y-92603436D01*
X155277664Y-92476826D01*
X155175636Y-92386437D01*
X155162510Y-92374808D01*
X155155288Y-92371018D01*
X155104267Y-92321648D01*
X155088036Y-92252532D01*
X155111749Y-92185612D01*
X155130288Y-92165145D01*
X155177664Y-92123174D01*
X155265056Y-91996564D01*
X155319609Y-91852720D01*
X155336431Y-91714182D01*
X155338153Y-91700002D01*
X155338153Y-91699997D01*
X155323497Y-91579300D01*
X155319609Y-91547280D01*
X155265056Y-91403436D01*
X155177664Y-91276826D01*
X155062512Y-91174810D01*
X154926291Y-91103316D01*
X154776922Y-91066500D01*
X154776921Y-91066500D01*
X154623079Y-91066500D01*
X154623077Y-91066500D01*
X154473709Y-91103316D01*
X154429978Y-91126268D01*
X154371424Y-91140700D01*
X153292935Y-91140700D01*
X153224814Y-91120698D01*
X153178321Y-91067042D01*
X153168217Y-90996768D01*
X153175123Y-90970019D01*
X153201679Y-90899997D01*
X156161847Y-90899997D01*
X156161847Y-90900002D01*
X156180390Y-91052717D01*
X156180390Y-91052719D01*
X156180391Y-91052720D01*
X156234944Y-91196564D01*
X156322336Y-91323174D01*
X156437488Y-91425190D01*
X156573708Y-91496683D01*
X156587165Y-91500000D01*
X156711545Y-91530657D01*
X156772899Y-91566381D01*
X156805201Y-91629604D01*
X156799203Y-91697676D01*
X156780390Y-91747280D01*
X156761847Y-91899997D01*
X156761847Y-91900002D01*
X156780390Y-92052717D01*
X156780390Y-92052719D01*
X156780391Y-92052720D01*
X156834944Y-92196564D01*
X156922336Y-92323174D01*
X157037488Y-92425190D01*
X157148294Y-92483345D01*
X157159702Y-92489332D01*
X157210725Y-92538700D01*
X157226958Y-92607816D01*
X157218960Y-92645580D01*
X157180390Y-92747280D01*
X157161847Y-92899997D01*
X157161847Y-92900002D01*
X157180390Y-93052717D01*
X157180390Y-93052719D01*
X157180391Y-93052720D01*
X157234944Y-93196564D01*
X157322336Y-93323174D01*
X157437488Y-93425190D01*
X157573708Y-93496683D01*
X157723079Y-93533500D01*
X157723080Y-93533500D01*
X157876920Y-93533500D01*
X157876921Y-93533500D01*
X158026292Y-93496683D01*
X158162512Y-93425190D01*
X158277664Y-93323174D01*
X158365056Y-93196564D01*
X158419609Y-93052720D01*
X158430735Y-92961088D01*
X158438153Y-92900002D01*
X158438153Y-92899997D01*
X160761847Y-92899997D01*
X160761847Y-92900002D01*
X160780390Y-93052717D01*
X160780390Y-93052719D01*
X160780391Y-93052720D01*
X160834944Y-93196564D01*
X160922336Y-93323174D01*
X161037488Y-93425190D01*
X161173708Y-93496683D01*
X161323079Y-93533500D01*
X161323080Y-93533500D01*
X161476920Y-93533500D01*
X161476921Y-93533500D01*
X161626292Y-93496683D01*
X161762512Y-93425190D01*
X161877664Y-93323174D01*
X161965056Y-93196564D01*
X161980851Y-93154914D01*
X162023706Y-93098316D01*
X162090362Y-93073870D01*
X162157216Y-93088028D01*
X162173706Y-93096682D01*
X162173708Y-93096683D01*
X162323079Y-93133500D01*
X162323080Y-93133500D01*
X162476920Y-93133500D01*
X162476921Y-93133500D01*
X162626292Y-93096683D01*
X162762512Y-93025190D01*
X162877664Y-92923174D01*
X162965056Y-92796564D01*
X163019609Y-92652720D01*
X163035105Y-92525103D01*
X163038153Y-92500002D01*
X163038153Y-92499997D01*
X163022952Y-92374810D01*
X163019609Y-92347280D01*
X162965056Y-92203436D01*
X162877664Y-92076826D01*
X162762512Y-91974810D01*
X162746153Y-91966224D01*
X162626291Y-91903316D01*
X162612825Y-91899997D01*
X163161847Y-91899997D01*
X163161847Y-91900002D01*
X163180390Y-92052717D01*
X163180390Y-92052719D01*
X163180391Y-92052720D01*
X163234944Y-92196564D01*
X163322336Y-92323174D01*
X163437488Y-92425190D01*
X163573708Y-92496683D01*
X163723079Y-92533500D01*
X163723080Y-92533500D01*
X163876920Y-92533500D01*
X163876921Y-92533500D01*
X164026292Y-92496683D01*
X164162512Y-92425190D01*
X164277664Y-92323174D01*
X164365056Y-92196564D01*
X164419609Y-92052720D01*
X164435339Y-91923174D01*
X164438153Y-91900002D01*
X164438153Y-91899997D01*
X164419609Y-91747282D01*
X164419609Y-91747280D01*
X164365056Y-91603436D01*
X164277664Y-91476826D01*
X164162512Y-91374810D01*
X164155382Y-91371068D01*
X164026291Y-91303316D01*
X163876922Y-91266500D01*
X163876921Y-91266500D01*
X163723079Y-91266500D01*
X163723077Y-91266500D01*
X163573708Y-91303316D01*
X163437487Y-91374810D01*
X163322334Y-91476828D01*
X163234945Y-91603434D01*
X163180390Y-91747282D01*
X163161847Y-91899997D01*
X162612825Y-91899997D01*
X162476922Y-91866500D01*
X162476921Y-91866500D01*
X162323079Y-91866500D01*
X162323077Y-91866500D01*
X162173708Y-91903316D01*
X162037487Y-91974810D01*
X161922334Y-92076828D01*
X161834944Y-92203434D01*
X161819149Y-92245084D01*
X161776290Y-92301685D01*
X161709634Y-92326130D01*
X161642785Y-92311972D01*
X161626294Y-92303317D01*
X161476922Y-92266500D01*
X161476921Y-92266500D01*
X161323079Y-92266500D01*
X161323077Y-92266500D01*
X161173708Y-92303316D01*
X161037487Y-92374810D01*
X160922334Y-92476828D01*
X160834945Y-92603434D01*
X160834944Y-92603436D01*
X160819531Y-92644076D01*
X160780390Y-92747282D01*
X160761847Y-92899997D01*
X158438153Y-92899997D01*
X158419609Y-92747282D01*
X158419609Y-92747280D01*
X158380467Y-92644073D01*
X158375014Y-92573289D01*
X158408696Y-92510791D01*
X158470820Y-92476424D01*
X158541663Y-92481099D01*
X158556836Y-92487828D01*
X158563832Y-92491500D01*
X158573708Y-92496683D01*
X158723079Y-92533500D01*
X158723080Y-92533500D01*
X158876920Y-92533500D01*
X158876921Y-92533500D01*
X159026292Y-92496683D01*
X159162512Y-92425190D01*
X159277664Y-92323174D01*
X159365056Y-92196564D01*
X159380851Y-92154914D01*
X159423706Y-92098316D01*
X159490362Y-92073870D01*
X159557216Y-92088028D01*
X159573706Y-92096682D01*
X159573708Y-92096683D01*
X159723079Y-92133500D01*
X159723080Y-92133500D01*
X159876920Y-92133500D01*
X159876921Y-92133500D01*
X160026292Y-92096683D01*
X160162512Y-92025190D01*
X160277664Y-91923174D01*
X160365056Y-91796564D01*
X160419609Y-91652720D01*
X160434312Y-91531630D01*
X160438153Y-91500002D01*
X160438153Y-91499997D01*
X160422952Y-91374810D01*
X160419609Y-91347280D01*
X160365056Y-91203436D01*
X160277664Y-91076826D01*
X160162512Y-90974810D01*
X160141803Y-90963941D01*
X160026291Y-90903316D01*
X159876922Y-90866500D01*
X159876921Y-90866500D01*
X159723079Y-90866500D01*
X159723077Y-90866500D01*
X159573708Y-90903316D01*
X159437487Y-90974810D01*
X159322334Y-91076828D01*
X159234944Y-91203434D01*
X159219149Y-91245084D01*
X159176290Y-91301685D01*
X159109634Y-91326130D01*
X159042785Y-91311972D01*
X159026294Y-91303317D01*
X158876922Y-91266500D01*
X158876921Y-91266500D01*
X158723079Y-91266500D01*
X158723077Y-91266500D01*
X158573708Y-91303316D01*
X158437487Y-91374810D01*
X158322334Y-91476828D01*
X158234944Y-91603434D01*
X158217812Y-91648609D01*
X158174953Y-91705210D01*
X158108297Y-91729655D01*
X158039007Y-91714182D01*
X157989082Y-91663704D01*
X157982188Y-91648609D01*
X157965055Y-91603434D01*
X157893660Y-91500000D01*
X157877664Y-91476826D01*
X157762512Y-91374810D01*
X157762510Y-91374809D01*
X157762509Y-91374808D01*
X157755383Y-91371068D01*
X157704359Y-91321701D01*
X157688126Y-91252585D01*
X157711836Y-91185665D01*
X157767963Y-91142187D01*
X157813936Y-91133500D01*
X157876920Y-91133500D01*
X157876921Y-91133500D01*
X158026292Y-91096683D01*
X158162512Y-91025190D01*
X158277664Y-90923174D01*
X158365056Y-90796564D01*
X158419609Y-90652720D01*
X158435094Y-90525190D01*
X158438153Y-90500002D01*
X158438153Y-90499997D01*
X158419609Y-90347282D01*
X158419609Y-90347280D01*
X158365056Y-90203436D01*
X158277664Y-90076826D01*
X158162512Y-89974810D01*
X158064127Y-89923174D01*
X158026291Y-89903316D01*
X157876922Y-89866500D01*
X157876921Y-89866500D01*
X157723079Y-89866500D01*
X157723077Y-89866500D01*
X157573708Y-89903316D01*
X157437487Y-89974810D01*
X157322334Y-90076828D01*
X157234944Y-90203434D01*
X157219149Y-90245084D01*
X157176290Y-90301685D01*
X157109634Y-90326130D01*
X157042785Y-90311972D01*
X157026294Y-90303317D01*
X156876922Y-90266500D01*
X156876921Y-90266500D01*
X156723079Y-90266500D01*
X156723077Y-90266500D01*
X156573708Y-90303316D01*
X156437487Y-90374810D01*
X156322334Y-90476828D01*
X156234945Y-90603434D01*
X156180390Y-90747282D01*
X156161847Y-90899997D01*
X153201679Y-90899997D01*
X153219609Y-90852720D01*
X153238153Y-90700000D01*
X153234076Y-90666426D01*
X153219609Y-90547282D01*
X153219609Y-90547280D01*
X153165056Y-90403436D01*
X153077664Y-90276826D01*
X153077663Y-90276825D01*
X153074040Y-90271576D01*
X153051804Y-90204151D01*
X153069551Y-90135408D01*
X153074040Y-90128424D01*
X153095949Y-90096683D01*
X153165056Y-89996564D01*
X153201679Y-89899997D01*
X153761847Y-89899997D01*
X153761847Y-89900002D01*
X153780390Y-90052717D01*
X153780390Y-90052719D01*
X153780391Y-90052720D01*
X153834944Y-90196564D01*
X153922336Y-90323174D01*
X154037488Y-90425190D01*
X154173708Y-90496683D01*
X154323079Y-90533500D01*
X154323080Y-90533500D01*
X154476920Y-90533500D01*
X154476921Y-90533500D01*
X154626292Y-90496683D01*
X154762512Y-90425190D01*
X154877664Y-90323174D01*
X154965056Y-90196564D01*
X155014315Y-90066678D01*
X155057173Y-90010078D01*
X155123829Y-89985633D01*
X155193119Y-90001105D01*
X155215687Y-90019186D01*
X155216632Y-90018120D01*
X155222334Y-90023172D01*
X155222336Y-90023174D01*
X155337488Y-90125190D01*
X155473708Y-90196683D01*
X155623079Y-90233500D01*
X155623080Y-90233500D01*
X155776920Y-90233500D01*
X155776921Y-90233500D01*
X155926292Y-90196683D01*
X156062512Y-90125190D01*
X156177664Y-90023174D01*
X156265056Y-89896564D01*
X156319609Y-89752720D01*
X156331563Y-89654275D01*
X156338153Y-89600002D01*
X156338153Y-89599997D01*
X156326011Y-89500002D01*
X156326010Y-89499997D01*
X158761847Y-89499997D01*
X158761847Y-89500002D01*
X158780390Y-89652717D01*
X158780390Y-89652719D01*
X158780391Y-89652720D01*
X158834944Y-89796564D01*
X158922336Y-89923174D01*
X159037488Y-90025190D01*
X159173708Y-90096683D01*
X159323079Y-90133500D01*
X159323080Y-90133500D01*
X159476920Y-90133500D01*
X159476921Y-90133500D01*
X159626292Y-90096683D01*
X159762512Y-90025190D01*
X159877664Y-89923174D01*
X159965056Y-89796564D01*
X160019609Y-89652720D01*
X160035907Y-89518500D01*
X160038153Y-89500002D01*
X160038153Y-89499997D01*
X160020449Y-89354196D01*
X160019609Y-89347280D01*
X159965056Y-89203436D01*
X159877664Y-89076826D01*
X159762512Y-88974810D01*
X159751678Y-88969124D01*
X159626291Y-88903316D01*
X159476922Y-88866500D01*
X159476921Y-88866500D01*
X159323079Y-88866500D01*
X159323077Y-88866500D01*
X159173708Y-88903316D01*
X159037487Y-88974810D01*
X158922334Y-89076828D01*
X158834945Y-89203434D01*
X158780390Y-89347282D01*
X158761847Y-89499997D01*
X156326010Y-89499997D01*
X156319609Y-89447280D01*
X156265056Y-89303436D01*
X156177664Y-89176826D01*
X156062512Y-89074810D01*
X156020417Y-89052717D01*
X155926291Y-89003316D01*
X155776922Y-88966500D01*
X155776921Y-88966500D01*
X155623079Y-88966500D01*
X155623077Y-88966500D01*
X155473708Y-89003316D01*
X155337487Y-89074810D01*
X155222334Y-89176828D01*
X155134944Y-89303434D01*
X155085684Y-89433321D01*
X155042825Y-89489922D01*
X154976169Y-89514367D01*
X154906879Y-89498894D01*
X154884312Y-89480813D01*
X154883368Y-89481880D01*
X154877665Y-89476827D01*
X154877664Y-89476826D01*
X154762512Y-89374810D01*
X154626291Y-89303316D01*
X154476922Y-89266500D01*
X154476921Y-89266500D01*
X154323079Y-89266500D01*
X154323077Y-89266500D01*
X154173708Y-89303316D01*
X154037487Y-89374810D01*
X153922334Y-89476828D01*
X153837314Y-89600002D01*
X153834944Y-89603436D01*
X153822638Y-89635884D01*
X153780390Y-89747282D01*
X153761847Y-89899997D01*
X153201679Y-89899997D01*
X153219609Y-89852720D01*
X153230735Y-89761088D01*
X153238153Y-89700002D01*
X153238153Y-89699997D01*
X153226011Y-89600002D01*
X153219609Y-89547280D01*
X153201431Y-89499351D01*
X153195978Y-89428565D01*
X153229660Y-89366067D01*
X153235691Y-89360359D01*
X153261976Y-89337072D01*
X153277664Y-89323174D01*
X153365056Y-89196564D01*
X153419609Y-89052720D01*
X153432447Y-88946990D01*
X153438153Y-88900002D01*
X153438153Y-88899997D01*
X153426436Y-88803501D01*
X153419609Y-88747280D01*
X153365056Y-88603436D01*
X153277664Y-88476826D01*
X153162512Y-88374810D01*
X153026291Y-88303316D01*
X152876922Y-88266500D01*
X152876921Y-88266500D01*
X152723079Y-88266500D01*
X152723077Y-88266500D01*
X152573708Y-88303316D01*
X152437487Y-88374810D01*
X152322334Y-88476828D01*
X152234944Y-88603434D01*
X152217812Y-88648609D01*
X152174953Y-88705210D01*
X152108297Y-88729655D01*
X152039007Y-88714182D01*
X151989082Y-88663704D01*
X151982188Y-88648609D01*
X151968139Y-88611565D01*
X151965056Y-88603436D01*
X151877664Y-88476826D01*
X151762512Y-88374810D01*
X151626291Y-88303316D01*
X151476922Y-88266500D01*
X151476921Y-88266500D01*
X151323079Y-88266500D01*
X151323077Y-88266500D01*
X151173708Y-88303316D01*
X151037487Y-88374810D01*
X150922334Y-88476828D01*
X150839687Y-88596564D01*
X150834944Y-88603436D01*
X150831861Y-88611565D01*
X150780390Y-88747282D01*
X150761847Y-88899997D01*
X150761847Y-88900003D01*
X150773905Y-88999313D01*
X150762260Y-89069348D01*
X150714599Y-89121969D01*
X150648824Y-89140500D01*
X144583942Y-89140500D01*
X144515821Y-89120498D01*
X144494847Y-89103595D01*
X142991250Y-87599997D01*
X157461847Y-87599997D01*
X157461847Y-87600002D01*
X157480390Y-87752717D01*
X157480390Y-87752719D01*
X157480391Y-87752720D01*
X157534944Y-87896564D01*
X157622336Y-88023174D01*
X157737488Y-88125190D01*
X157873708Y-88196683D01*
X158023079Y-88233500D01*
X158023080Y-88233500D01*
X158176920Y-88233500D01*
X158176921Y-88233500D01*
X158326292Y-88196683D01*
X158462512Y-88125190D01*
X158577664Y-88023174D01*
X158665056Y-87896564D01*
X158719609Y-87752720D01*
X158730735Y-87661088D01*
X158738153Y-87600002D01*
X158738153Y-87599997D01*
X158726011Y-87500002D01*
X158726010Y-87499997D01*
X159161847Y-87499997D01*
X159161847Y-87500002D01*
X159180390Y-87652717D01*
X159180390Y-87652719D01*
X159180391Y-87652720D01*
X159234944Y-87796564D01*
X159322336Y-87923174D01*
X159437488Y-88025190D01*
X159573708Y-88096683D01*
X159723079Y-88133500D01*
X159723080Y-88133500D01*
X159876920Y-88133500D01*
X159876921Y-88133500D01*
X160026292Y-88096683D01*
X160162512Y-88025190D01*
X160277664Y-87923174D01*
X160365056Y-87796564D01*
X160419609Y-87652720D01*
X160438153Y-87500000D01*
X160438153Y-87499997D01*
X161161847Y-87499997D01*
X161161847Y-87500002D01*
X161180390Y-87652717D01*
X161180390Y-87652719D01*
X161180391Y-87652720D01*
X161234944Y-87796564D01*
X161322336Y-87923174D01*
X161437488Y-88025190D01*
X161553500Y-88086077D01*
X161557987Y-88088432D01*
X161609009Y-88137801D01*
X161625242Y-88206917D01*
X161601531Y-88273837D01*
X161557987Y-88311568D01*
X161437487Y-88374810D01*
X161322334Y-88476828D01*
X161239687Y-88596564D01*
X161234944Y-88603436D01*
X161231861Y-88611565D01*
X161180390Y-88747282D01*
X161161847Y-88899997D01*
X161161847Y-88900002D01*
X161180390Y-89052717D01*
X161180390Y-89052719D01*
X161180391Y-89052720D01*
X161234944Y-89196564D01*
X161322336Y-89323174D01*
X161437488Y-89425190D01*
X161573708Y-89496683D01*
X161723079Y-89533500D01*
X161723080Y-89533500D01*
X161876920Y-89533500D01*
X161876921Y-89533500D01*
X161890346Y-89530191D01*
X161961274Y-89533310D01*
X162019256Y-89574279D01*
X162045885Y-89640093D01*
X162046500Y-89652530D01*
X162046500Y-89772868D01*
X162046499Y-89772868D01*
X162076880Y-89886249D01*
X162076879Y-89886249D01*
X162084217Y-89913635D01*
X162084222Y-89913647D01*
X162157087Y-90039853D01*
X162157095Y-90039863D01*
X162267641Y-90150409D01*
X162296358Y-90194823D01*
X162334945Y-90296567D01*
X162408712Y-90403436D01*
X162422336Y-90423174D01*
X162537488Y-90525190D01*
X162673708Y-90596683D01*
X162823079Y-90633500D01*
X162823080Y-90633500D01*
X162976920Y-90633500D01*
X162976921Y-90633500D01*
X163126292Y-90596683D01*
X163262512Y-90525190D01*
X163377664Y-90423174D01*
X163465056Y-90296564D01*
X163519609Y-90152720D01*
X163531421Y-90055438D01*
X163538153Y-90000002D01*
X163538153Y-89999996D01*
X163535080Y-89974687D01*
X163546725Y-89904652D01*
X163594386Y-89852031D01*
X163660161Y-89833500D01*
X163776920Y-89833500D01*
X163776921Y-89833500D01*
X163926292Y-89796683D01*
X164062512Y-89725190D01*
X164177664Y-89623174D01*
X164244048Y-89527000D01*
X179430496Y-89527000D01*
X179450457Y-89716927D01*
X179476334Y-89796565D01*
X179509473Y-89898556D01*
X179509476Y-89898561D01*
X179604958Y-90063941D01*
X179604965Y-90063951D01*
X179732744Y-90205864D01*
X179732747Y-90205866D01*
X179887248Y-90318118D01*
X180061712Y-90395794D01*
X180248513Y-90435500D01*
X180439487Y-90435500D01*
X180590335Y-90403436D01*
X180626288Y-90395794D01*
X180626288Y-90395793D01*
X180632747Y-90394421D01*
X180633359Y-90397301D01*
X180691463Y-90395609D01*
X180752282Y-90432237D01*
X180783643Y-90495932D01*
X180785500Y-90517484D01*
X180785500Y-90562543D01*
X180796112Y-90666425D01*
X180851885Y-90834738D01*
X180944970Y-90985652D01*
X180944975Y-90985658D01*
X181070341Y-91111024D01*
X181070347Y-91111029D01*
X181070348Y-91111030D01*
X181221262Y-91204115D01*
X181389574Y-91259887D01*
X181493455Y-91270500D01*
X182094544Y-91270499D01*
X182198426Y-91259887D01*
X182366738Y-91204115D01*
X182517652Y-91111030D01*
X182643030Y-90985652D01*
X182643031Y-90985649D01*
X182645162Y-90982956D01*
X182647098Y-90981584D01*
X182648220Y-90980463D01*
X182648411Y-90980654D01*
X182703101Y-90941925D01*
X182774026Y-90938733D01*
X182835418Y-90974392D01*
X182842838Y-90982956D01*
X182844971Y-90985654D01*
X182902850Y-91043533D01*
X182936876Y-91105845D01*
X182931811Y-91176660D01*
X182922875Y-91195627D01*
X182859474Y-91305441D01*
X182859473Y-91305445D01*
X182800457Y-91487072D01*
X182780496Y-91677000D01*
X182800457Y-91866927D01*
X182830526Y-91959470D01*
X182859473Y-92048556D01*
X182859476Y-92048561D01*
X182954958Y-92213941D01*
X182954961Y-92213945D01*
X182971803Y-92232650D01*
X183002520Y-92296658D01*
X182993755Y-92367111D01*
X182967262Y-92406055D01*
X182894969Y-92478348D01*
X182892834Y-92481049D01*
X182890898Y-92482419D01*
X182889781Y-92483537D01*
X182889589Y-92483345D01*
X182834892Y-92522076D01*
X182763967Y-92525264D01*
X182702577Y-92489602D01*
X182695166Y-92481049D01*
X182693027Y-92478344D01*
X182567658Y-92352975D01*
X182567652Y-92352970D01*
X182555692Y-92345593D01*
X182416738Y-92259885D01*
X182332582Y-92231999D01*
X182248427Y-92204113D01*
X182248420Y-92204112D01*
X182144553Y-92193500D01*
X181543455Y-92193500D01*
X181439574Y-92204112D01*
X181271261Y-92259885D01*
X181120347Y-92352970D01*
X181120341Y-92352975D01*
X180994975Y-92478341D01*
X180994970Y-92478347D01*
X180901885Y-92629262D01*
X180846113Y-92797572D01*
X180846112Y-92797579D01*
X180835500Y-92901446D01*
X180835500Y-93952544D01*
X180846112Y-94056425D01*
X180901885Y-94224738D01*
X180994970Y-94375652D01*
X180994975Y-94375658D01*
X181120341Y-94501024D01*
X181120347Y-94501029D01*
X181120348Y-94501030D01*
X181271262Y-94594115D01*
X181439574Y-94649887D01*
X181543455Y-94660500D01*
X182144544Y-94660499D01*
X182248426Y-94649887D01*
X182416738Y-94594115D01*
X182567652Y-94501030D01*
X182693030Y-94375652D01*
X182693031Y-94375649D01*
X182695162Y-94372956D01*
X182697098Y-94371584D01*
X182698220Y-94370463D01*
X182698411Y-94370654D01*
X182753101Y-94331925D01*
X182824026Y-94328733D01*
X182885418Y-94364392D01*
X182892838Y-94372956D01*
X182894971Y-94375654D01*
X183020341Y-94501024D01*
X183020347Y-94501029D01*
X183020348Y-94501030D01*
X183171262Y-94594115D01*
X183339574Y-94649887D01*
X183443455Y-94660500D01*
X184044544Y-94660499D01*
X184148426Y-94649887D01*
X184316738Y-94594115D01*
X184467652Y-94501030D01*
X184593030Y-94375652D01*
X184686115Y-94224738D01*
X184741887Y-94056426D01*
X184752500Y-93952545D01*
X184752499Y-92901456D01*
X184752498Y-92901446D01*
X184752483Y-92901143D01*
X184752499Y-92901076D01*
X184752499Y-92898248D01*
X184753175Y-92898248D01*
X184768987Y-92832091D01*
X184820203Y-92782924D01*
X184889871Y-92769252D01*
X184952379Y-92792785D01*
X184987243Y-92818115D01*
X184987244Y-92818115D01*
X184987248Y-92818118D01*
X185161712Y-92895794D01*
X185348513Y-92935500D01*
X185539487Y-92935500D01*
X185726288Y-92895794D01*
X185900752Y-92818118D01*
X186055253Y-92705866D01*
X186055255Y-92705864D01*
X186183034Y-92563951D01*
X186183035Y-92563949D01*
X186183040Y-92563944D01*
X186278527Y-92398556D01*
X186337542Y-92216928D01*
X186357504Y-92027000D01*
X186337542Y-91837072D01*
X186278527Y-91655444D01*
X186183040Y-91490056D01*
X186183038Y-91490054D01*
X186183034Y-91490048D01*
X186055256Y-91348136D01*
X186048379Y-91343139D01*
X186028829Y-91328935D01*
X185985475Y-91272715D01*
X185979399Y-91201978D01*
X186012531Y-91139187D01*
X186028829Y-91125064D01*
X186055253Y-91105866D01*
X186057549Y-91103316D01*
X186183034Y-90963951D01*
X186183035Y-90963949D01*
X186183040Y-90963944D01*
X186278527Y-90798556D01*
X186337542Y-90616928D01*
X186357504Y-90427000D01*
X186337542Y-90237072D01*
X186278527Y-90055444D01*
X186183040Y-89890056D01*
X186183038Y-89890054D01*
X186183034Y-89890048D01*
X186055255Y-89748135D01*
X185900752Y-89635882D01*
X185726288Y-89558206D01*
X185539487Y-89518500D01*
X185348513Y-89518500D01*
X185161711Y-89558206D01*
X184987246Y-89635883D01*
X184987243Y-89635884D01*
X184902559Y-89697411D01*
X184835692Y-89721270D01*
X184766540Y-89705189D01*
X184717060Y-89654275D01*
X184702499Y-89595475D01*
X184702499Y-89511455D01*
X184691887Y-89407574D01*
X184674201Y-89354201D01*
X184636115Y-89239262D01*
X184543030Y-89088348D01*
X184543029Y-89088347D01*
X184543024Y-89088341D01*
X184417658Y-88962975D01*
X184417652Y-88962970D01*
X184366093Y-88931168D01*
X184266738Y-88869885D01*
X184157214Y-88833593D01*
X184098427Y-88814113D01*
X184098420Y-88814112D01*
X183994553Y-88803500D01*
X183393455Y-88803500D01*
X183289574Y-88814112D01*
X183121261Y-88869885D01*
X182970347Y-88962970D01*
X182970341Y-88962975D01*
X182844972Y-89088344D01*
X182842834Y-89091049D01*
X182840895Y-89092421D01*
X182839780Y-89093537D01*
X182839589Y-89093346D01*
X182784892Y-89132076D01*
X182713967Y-89135264D01*
X182652577Y-89099602D01*
X182645166Y-89091049D01*
X182643027Y-89088344D01*
X182517658Y-88962975D01*
X182517652Y-88962970D01*
X182466093Y-88931168D01*
X182366738Y-88869885D01*
X182257214Y-88833593D01*
X182198427Y-88814113D01*
X182198420Y-88814112D01*
X182094553Y-88803500D01*
X181493455Y-88803500D01*
X181389574Y-88814112D01*
X181221262Y-88869885D01*
X181152282Y-88912432D01*
X181083802Y-88931168D01*
X181016063Y-88909908D01*
X180992499Y-88889500D01*
X180955252Y-88848133D01*
X180800752Y-88735882D01*
X180626288Y-88658206D01*
X180439487Y-88618500D01*
X180248513Y-88618500D01*
X180061711Y-88658206D01*
X179887247Y-88735882D01*
X179732744Y-88848135D01*
X179604965Y-88990048D01*
X179604958Y-88990058D01*
X179509476Y-89155438D01*
X179509473Y-89155445D01*
X179450457Y-89337072D01*
X179430496Y-89527000D01*
X164244048Y-89527000D01*
X164265056Y-89496564D01*
X164319609Y-89352720D01*
X164338153Y-89200000D01*
X164335339Y-89176828D01*
X164325226Y-89093537D01*
X164319609Y-89047280D01*
X164265056Y-88903436D01*
X164177664Y-88776826D01*
X164107301Y-88714490D01*
X164069577Y-88654347D01*
X164070357Y-88583355D01*
X164073032Y-88575533D01*
X164119609Y-88452720D01*
X164119609Y-88452719D01*
X164119610Y-88452717D01*
X164138153Y-88300002D01*
X164138153Y-88299999D01*
X164130078Y-88233500D01*
X164126901Y-88207337D01*
X164130276Y-88159541D01*
X164136102Y-88137801D01*
X164153500Y-88072870D01*
X164153500Y-87927131D01*
X164153500Y-86199997D01*
X164961847Y-86199997D01*
X164961847Y-86200002D01*
X164980390Y-86352717D01*
X164980390Y-86352719D01*
X164980391Y-86352720D01*
X165034944Y-86496564D01*
X165122336Y-86623174D01*
X165237488Y-86725190D01*
X165373708Y-86796683D01*
X165523079Y-86833500D01*
X165523080Y-86833500D01*
X165676920Y-86833500D01*
X165676921Y-86833500D01*
X165826292Y-86796683D01*
X165962512Y-86725190D01*
X166077664Y-86623174D01*
X166165056Y-86496564D01*
X166219609Y-86352720D01*
X166230735Y-86261088D01*
X166238153Y-86200002D01*
X166238153Y-86199997D01*
X166226011Y-86100002D01*
X166226010Y-86099997D01*
X167361847Y-86099997D01*
X167361847Y-86100002D01*
X167380390Y-86252717D01*
X167380390Y-86252719D01*
X167380391Y-86252720D01*
X167434944Y-86396564D01*
X167522336Y-86523174D01*
X167637488Y-86625190D01*
X167773708Y-86696683D01*
X167923079Y-86733500D01*
X167923080Y-86733500D01*
X168076920Y-86733500D01*
X168076921Y-86733500D01*
X168226292Y-86696683D01*
X168362512Y-86625190D01*
X168477664Y-86523174D01*
X168565056Y-86396564D01*
X168603642Y-86294819D01*
X168632355Y-86250410D01*
X172421353Y-82461412D01*
X172483663Y-82427388D01*
X172540601Y-82428171D01*
X172623071Y-82448499D01*
X172623078Y-82448499D01*
X172623079Y-82448500D01*
X172623080Y-82448500D01*
X172776920Y-82448500D01*
X172776921Y-82448500D01*
X172926292Y-82411683D01*
X173062512Y-82340190D01*
X173177664Y-82238174D01*
X173265056Y-82111564D01*
X173319609Y-81967720D01*
X173338153Y-81815000D01*
X173319609Y-81662280D01*
X173265056Y-81518436D01*
X173177664Y-81391826D01*
X173062512Y-81289810D01*
X172926291Y-81218316D01*
X172776922Y-81181500D01*
X172776921Y-81181500D01*
X172623079Y-81181500D01*
X172623077Y-81181500D01*
X172473709Y-81218316D01*
X172418927Y-81247068D01*
X172360373Y-81261500D01*
X172357869Y-81261500D01*
X172212130Y-81261500D01*
X172136692Y-81281713D01*
X172071359Y-81299219D01*
X172071352Y-81299222D01*
X171945146Y-81372087D01*
X171945136Y-81372095D01*
X167851904Y-85465327D01*
X167792967Y-85498569D01*
X167773708Y-85503317D01*
X167637487Y-85574810D01*
X167522334Y-85676828D01*
X167434945Y-85803434D01*
X167380390Y-85947282D01*
X167361847Y-86099997D01*
X166226010Y-86099997D01*
X166219609Y-86047280D01*
X166165056Y-85903436D01*
X166077664Y-85776826D01*
X165962512Y-85674810D01*
X165842006Y-85611564D01*
X165826291Y-85603316D01*
X165676922Y-85566500D01*
X165676921Y-85566500D01*
X165523079Y-85566500D01*
X165523077Y-85566500D01*
X165373708Y-85603316D01*
X165237487Y-85674810D01*
X165122334Y-85776828D01*
X165034945Y-85903434D01*
X165034944Y-85903436D01*
X165025148Y-85929267D01*
X164980390Y-86047282D01*
X164961847Y-86199997D01*
X164153500Y-86199997D01*
X164153500Y-85981457D01*
X164173502Y-85913336D01*
X164190405Y-85892362D01*
X169555767Y-80527000D01*
X177830496Y-80527000D01*
X177850457Y-80716927D01*
X177880526Y-80809470D01*
X177909473Y-80898556D01*
X177909476Y-80898561D01*
X178004958Y-81063941D01*
X178004965Y-81063951D01*
X178132744Y-81205864D01*
X178132747Y-81205866D01*
X178287248Y-81318118D01*
X178461712Y-81395794D01*
X178648513Y-81435500D01*
X178839487Y-81435500D01*
X179026288Y-81395794D01*
X179200752Y-81318118D01*
X179355253Y-81205866D01*
X179355255Y-81205864D01*
X179483034Y-81063951D01*
X179483035Y-81063949D01*
X179483040Y-81063944D01*
X179578527Y-80898556D01*
X179637542Y-80716928D01*
X179646994Y-80627000D01*
X181830496Y-80627000D01*
X181850457Y-80816927D01*
X181872602Y-80885080D01*
X181909473Y-80998556D01*
X181909476Y-80998561D01*
X182004958Y-81163941D01*
X182004965Y-81163951D01*
X182132744Y-81305864D01*
X182132747Y-81305866D01*
X182287248Y-81418118D01*
X182461712Y-81495794D01*
X182648513Y-81535500D01*
X182839487Y-81535500D01*
X183026288Y-81495794D01*
X183200752Y-81418118D01*
X183355253Y-81305866D01*
X183361238Y-81299219D01*
X183483034Y-81163951D01*
X183483035Y-81163949D01*
X183483040Y-81163944D01*
X183578527Y-80998556D01*
X183601777Y-80927000D01*
X186030496Y-80927000D01*
X186050457Y-81116927D01*
X186072663Y-81185267D01*
X186109473Y-81298556D01*
X186120767Y-81318117D01*
X186204958Y-81463941D01*
X186204965Y-81463951D01*
X186332744Y-81605864D01*
X186332747Y-81605866D01*
X186487248Y-81718118D01*
X186661712Y-81795794D01*
X186848513Y-81835500D01*
X187039487Y-81835500D01*
X187226288Y-81795794D01*
X187400752Y-81718118D01*
X187555253Y-81605866D01*
X187633918Y-81518500D01*
X187683034Y-81463951D01*
X187683035Y-81463949D01*
X187683040Y-81463944D01*
X187778527Y-81298556D01*
X187837542Y-81116928D01*
X187857504Y-80927000D01*
X187837542Y-80737072D01*
X187778527Y-80555444D01*
X187683040Y-80390056D01*
X187683038Y-80390054D01*
X187683034Y-80390048D01*
X187565932Y-80259993D01*
X191956540Y-80259993D01*
X191956540Y-80260006D01*
X191976357Y-80575007D01*
X191976359Y-80575024D01*
X192035504Y-80885067D01*
X192035507Y-80885080D01*
X192133039Y-81185254D01*
X192133044Y-81185267D01*
X192168917Y-81261500D01*
X192267438Y-81470869D01*
X192267440Y-81470872D01*
X192267443Y-81470878D01*
X192436562Y-81737368D01*
X192637763Y-81980578D01*
X192637766Y-81980580D01*
X192637767Y-81980582D01*
X192777250Y-82111565D01*
X192867860Y-82196654D01*
X193065419Y-82340189D01*
X193123221Y-82382184D01*
X193399821Y-82534247D01*
X193693298Y-82650443D01*
X193999025Y-82728940D01*
X193999033Y-82728941D01*
X193999032Y-82728941D01*
X194163129Y-82749670D01*
X194312179Y-82768500D01*
X194312183Y-82768500D01*
X194627817Y-82768500D01*
X194627821Y-82768500D01*
X194940975Y-82728940D01*
X195246702Y-82650443D01*
X195540179Y-82534247D01*
X195816779Y-82382184D01*
X196072140Y-82196654D01*
X196302233Y-81980582D01*
X196503432Y-81737375D01*
X196503434Y-81737370D01*
X196503437Y-81737368D01*
X196672556Y-81470878D01*
X196672562Y-81470869D01*
X196806956Y-81185266D01*
X196904495Y-80885072D01*
X196963641Y-80575020D01*
X196965133Y-80551310D01*
X196983460Y-80260006D01*
X196983460Y-80259993D01*
X196963642Y-79944992D01*
X196963640Y-79944975D01*
X196954785Y-79898556D01*
X196904495Y-79634928D01*
X196836978Y-79427131D01*
X196806960Y-79334745D01*
X196806955Y-79334732D01*
X196747149Y-79207637D01*
X196672562Y-79049131D01*
X196628028Y-78978956D01*
X196503437Y-78782631D01*
X196302236Y-78539421D01*
X196072139Y-78323345D01*
X195816781Y-78137817D01*
X195638082Y-78039576D01*
X195540179Y-77985753D01*
X195246702Y-77869557D01*
X194940975Y-77791060D01*
X194940970Y-77791059D01*
X194940965Y-77791058D01*
X194940967Y-77791058D01*
X194627835Y-77751501D01*
X194627824Y-77751500D01*
X194627821Y-77751500D01*
X194312179Y-77751500D01*
X194312176Y-77751500D01*
X194312164Y-77751501D01*
X193999033Y-77791058D01*
X193693301Y-77869556D01*
X193399821Y-77985753D01*
X193123218Y-78137817D01*
X192867861Y-78323345D01*
X192867860Y-78323345D01*
X192637763Y-78539421D01*
X192436562Y-78782631D01*
X192267443Y-79049121D01*
X192267436Y-79049135D01*
X192133044Y-79334732D01*
X192133039Y-79334745D01*
X192035507Y-79634919D01*
X192035504Y-79634932D01*
X191976359Y-79944975D01*
X191976357Y-79944992D01*
X191956540Y-80259993D01*
X187565932Y-80259993D01*
X187555255Y-80248135D01*
X187400752Y-80135882D01*
X187226288Y-80058206D01*
X187039487Y-80018500D01*
X186848513Y-80018500D01*
X186661711Y-80058206D01*
X186487247Y-80135882D01*
X186332744Y-80248135D01*
X186204965Y-80390048D01*
X186204958Y-80390058D01*
X186109476Y-80555438D01*
X186109473Y-80555444D01*
X186103111Y-80575024D01*
X186050457Y-80737072D01*
X186030496Y-80927000D01*
X183601777Y-80927000D01*
X183637542Y-80816928D01*
X183657504Y-80627000D01*
X183637542Y-80437072D01*
X183578527Y-80255444D01*
X183483040Y-80090056D01*
X183483038Y-80090054D01*
X183483034Y-80090048D01*
X183355255Y-79948135D01*
X183200752Y-79835882D01*
X183026288Y-79758206D01*
X182839487Y-79718500D01*
X182648513Y-79718500D01*
X182461711Y-79758206D01*
X182287247Y-79835882D01*
X182132744Y-79948135D01*
X182004965Y-80090048D01*
X182004958Y-80090058D01*
X181909476Y-80255438D01*
X181909473Y-80255445D01*
X181850457Y-80437072D01*
X181830496Y-80627000D01*
X179646994Y-80627000D01*
X179657504Y-80527000D01*
X179637542Y-80337072D01*
X179578527Y-80155444D01*
X179483040Y-79990056D01*
X179483038Y-79990054D01*
X179483034Y-79990048D01*
X179355255Y-79848135D01*
X179200752Y-79735882D01*
X179026288Y-79658206D01*
X178839487Y-79618500D01*
X178648513Y-79618500D01*
X178461711Y-79658206D01*
X178287247Y-79735882D01*
X178132744Y-79848135D01*
X178004965Y-79990048D01*
X178004958Y-79990058D01*
X177909476Y-80155438D01*
X177909473Y-80155445D01*
X177850457Y-80337072D01*
X177830496Y-80527000D01*
X169555767Y-80527000D01*
X170242904Y-79839863D01*
X170242910Y-79839857D01*
X170315780Y-79713643D01*
X170353500Y-79572870D01*
X170353500Y-79449638D01*
X170364614Y-79404547D01*
X170362353Y-79403690D01*
X170365056Y-79396564D01*
X170419609Y-79252720D01*
X170438153Y-79100000D01*
X170430199Y-79034495D01*
X170441843Y-78964462D01*
X170489503Y-78911840D01*
X170519192Y-78899448D01*
X170519168Y-78899385D01*
X170521105Y-78898650D01*
X170525136Y-78896967D01*
X170526292Y-78896683D01*
X170662512Y-78825190D01*
X170777664Y-78723174D01*
X170865056Y-78596564D01*
X170919609Y-78452720D01*
X170932984Y-78342568D01*
X170938153Y-78300002D01*
X170938153Y-78299997D01*
X170919609Y-78147282D01*
X170919609Y-78147280D01*
X170865056Y-78003436D01*
X170777664Y-77876826D01*
X170662512Y-77774810D01*
X170618098Y-77751500D01*
X170526291Y-77703316D01*
X170376922Y-77666500D01*
X170376921Y-77666500D01*
X170223079Y-77666500D01*
X170223077Y-77666500D01*
X170073709Y-77703316D01*
X170018927Y-77732068D01*
X169960373Y-77746500D01*
X169827130Y-77746500D01*
X169751692Y-77766713D01*
X169686359Y-77784219D01*
X169686352Y-77784222D01*
X169560146Y-77857087D01*
X169560140Y-77857092D01*
X169408317Y-78008916D01*
X168960143Y-78457090D01*
X168933613Y-78483620D01*
X168857091Y-78560141D01*
X168857087Y-78560146D01*
X168784222Y-78686352D01*
X168784219Y-78686359D01*
X168774355Y-78723174D01*
X168758424Y-78782631D01*
X168746500Y-78827131D01*
X168746500Y-79118542D01*
X168726498Y-79186663D01*
X168709595Y-79207637D01*
X165468734Y-82448499D01*
X162260143Y-85657090D01*
X162213799Y-85703434D01*
X162157091Y-85760141D01*
X162157087Y-85760146D01*
X162084222Y-85886352D01*
X162084219Y-85886359D01*
X162076991Y-85913336D01*
X162053770Y-86000000D01*
X162046500Y-86027131D01*
X162046500Y-86747469D01*
X162026498Y-86815590D01*
X161972842Y-86862083D01*
X161902568Y-86872187D01*
X161890351Y-86869809D01*
X161876927Y-86866500D01*
X161876921Y-86866500D01*
X161723079Y-86866500D01*
X161723077Y-86866500D01*
X161573708Y-86903316D01*
X161437487Y-86974810D01*
X161322334Y-87076828D01*
X161234945Y-87203434D01*
X161234944Y-87203436D01*
X161222782Y-87235505D01*
X161180390Y-87347282D01*
X161161847Y-87499997D01*
X160438153Y-87499997D01*
X160434954Y-87473658D01*
X160419609Y-87347282D01*
X160419609Y-87347280D01*
X160365056Y-87203436D01*
X160277664Y-87076826D01*
X160162512Y-86974810D01*
X160026291Y-86903316D01*
X159876922Y-86866500D01*
X159876921Y-86866500D01*
X159723079Y-86866500D01*
X159723077Y-86866500D01*
X159573708Y-86903316D01*
X159437487Y-86974810D01*
X159322334Y-87076828D01*
X159234945Y-87203434D01*
X159234944Y-87203436D01*
X159222782Y-87235505D01*
X159180390Y-87347282D01*
X159161847Y-87499997D01*
X158726010Y-87499997D01*
X158719609Y-87447280D01*
X158665056Y-87303436D01*
X158577664Y-87176826D01*
X158462512Y-87074810D01*
X158402114Y-87043111D01*
X158326291Y-87003316D01*
X158176922Y-86966500D01*
X158176921Y-86966500D01*
X158023079Y-86966500D01*
X158023077Y-86966500D01*
X157873708Y-87003316D01*
X157737487Y-87074810D01*
X157622334Y-87176828D01*
X157534945Y-87303434D01*
X157534944Y-87303436D01*
X157530468Y-87315239D01*
X157480390Y-87447282D01*
X157461847Y-87599997D01*
X142991250Y-87599997D01*
X142191250Y-86799997D01*
X152461847Y-86799997D01*
X152461847Y-86800002D01*
X152480390Y-86952717D01*
X152480390Y-86952719D01*
X152480391Y-86952720D01*
X152534944Y-87096564D01*
X152622336Y-87223174D01*
X152737488Y-87325190D01*
X152873708Y-87396683D01*
X153023079Y-87433500D01*
X153023080Y-87433500D01*
X153176920Y-87433500D01*
X153176921Y-87433500D01*
X153326292Y-87396683D01*
X153462512Y-87325190D01*
X153577664Y-87223174D01*
X153665056Y-87096564D01*
X153719609Y-86952720D01*
X153738153Y-86800000D01*
X153738153Y-86799997D01*
X155461847Y-86799997D01*
X155461847Y-86800002D01*
X155480390Y-86952717D01*
X155480390Y-86952719D01*
X155480391Y-86952720D01*
X155534944Y-87096564D01*
X155622336Y-87223174D01*
X155737488Y-87325190D01*
X155873708Y-87396683D01*
X156023079Y-87433500D01*
X156023080Y-87433500D01*
X156176920Y-87433500D01*
X156176921Y-87433500D01*
X156326292Y-87396683D01*
X156462512Y-87325190D01*
X156577664Y-87223174D01*
X156665056Y-87096564D01*
X156719609Y-86952720D01*
X156738153Y-86800000D01*
X156737750Y-86796683D01*
X156719609Y-86647282D01*
X156719609Y-86647280D01*
X156665056Y-86503436D01*
X156577664Y-86376826D01*
X156462512Y-86274810D01*
X156420417Y-86252717D01*
X156326291Y-86203316D01*
X156176922Y-86166500D01*
X156176921Y-86166500D01*
X156023079Y-86166500D01*
X156023077Y-86166500D01*
X155873708Y-86203316D01*
X155737487Y-86274810D01*
X155622334Y-86376828D01*
X155534945Y-86503434D01*
X155534944Y-86503436D01*
X155526694Y-86525189D01*
X155480390Y-86647282D01*
X155461847Y-86799997D01*
X153738153Y-86799997D01*
X153737750Y-86796683D01*
X153719609Y-86647282D01*
X153719609Y-86647280D01*
X153665056Y-86503436D01*
X153577664Y-86376826D01*
X153462512Y-86274810D01*
X153420417Y-86252717D01*
X153326291Y-86203316D01*
X153176922Y-86166500D01*
X153176921Y-86166500D01*
X153023079Y-86166500D01*
X153023077Y-86166500D01*
X152873708Y-86203316D01*
X152737487Y-86274810D01*
X152622334Y-86376828D01*
X152534945Y-86503434D01*
X152534944Y-86503436D01*
X152526694Y-86525189D01*
X152480390Y-86647282D01*
X152461847Y-86799997D01*
X142191250Y-86799997D01*
X141996405Y-86605152D01*
X141962379Y-86542840D01*
X141959500Y-86516057D01*
X141959500Y-85999997D01*
X149161847Y-85999997D01*
X149161847Y-86000002D01*
X149180390Y-86152717D01*
X149180390Y-86152719D01*
X149180391Y-86152720D01*
X149234944Y-86296564D01*
X149322336Y-86423174D01*
X149437488Y-86525190D01*
X149573708Y-86596683D01*
X149723079Y-86633500D01*
X149723080Y-86633500D01*
X149876920Y-86633500D01*
X149876921Y-86633500D01*
X150026292Y-86596683D01*
X150162512Y-86525190D01*
X150277664Y-86423174D01*
X150365056Y-86296564D01*
X150419609Y-86152720D01*
X150438153Y-86000000D01*
X150435901Y-85981457D01*
X150419609Y-85847282D01*
X150419609Y-85847280D01*
X150365056Y-85703436D01*
X150277664Y-85576826D01*
X150162512Y-85474810D01*
X150148997Y-85467717D01*
X150026291Y-85403316D01*
X149876922Y-85366500D01*
X149876921Y-85366500D01*
X149723079Y-85366500D01*
X149723077Y-85366500D01*
X149573708Y-85403316D01*
X149437487Y-85474810D01*
X149322334Y-85576828D01*
X149234945Y-85703434D01*
X149180390Y-85847282D01*
X149161847Y-85999997D01*
X141959500Y-85999997D01*
X141959500Y-82149303D01*
X141967687Y-82104625D01*
X142019609Y-81967720D01*
X142038153Y-81815000D01*
X142019609Y-81662280D01*
X141965056Y-81518436D01*
X141877664Y-81391826D01*
X141762512Y-81289810D01*
X141626291Y-81218316D01*
X141476922Y-81181500D01*
X141476921Y-81181500D01*
X141323079Y-81181500D01*
X141323077Y-81181500D01*
X141173708Y-81218316D01*
X141037487Y-81289810D01*
X140922334Y-81391828D01*
X140834945Y-81518434D01*
X140834944Y-81518436D01*
X140819861Y-81558206D01*
X140780390Y-81662282D01*
X140761847Y-81814997D01*
X140761847Y-81814999D01*
X140780390Y-81967717D01*
X140780390Y-81967719D01*
X140780391Y-81967720D01*
X140832312Y-82104625D01*
X140840500Y-82149303D01*
X140840500Y-84607091D01*
X140820498Y-84675212D01*
X140773055Y-84718658D01*
X140637490Y-84789808D01*
X140522334Y-84891828D01*
X140434945Y-85018434D01*
X140380390Y-85162282D01*
X140361847Y-85314997D01*
X140361847Y-85315002D01*
X140380390Y-85467717D01*
X140380390Y-85467719D01*
X140380391Y-85467720D01*
X140432312Y-85604625D01*
X140440500Y-85649303D01*
X140440500Y-87326340D01*
X140440500Y-87473660D01*
X140457149Y-87535795D01*
X140478630Y-87615963D01*
X140513515Y-87676385D01*
X140530253Y-87745381D01*
X140507032Y-87812472D01*
X140487950Y-87833697D01*
X140422334Y-87891828D01*
X140334945Y-88018434D01*
X140280390Y-88162282D01*
X140261847Y-88314997D01*
X135000000Y-88314997D01*
X135000000Y-82039500D01*
X135020002Y-81971379D01*
X135073658Y-81924886D01*
X135126000Y-81913500D01*
X135360419Y-81913500D01*
X135360424Y-81913500D01*
X135478951Y-81889923D01*
X135590601Y-81843676D01*
X135633518Y-81815000D01*
X135691084Y-81776536D01*
X137717215Y-79750405D01*
X137779527Y-79716380D01*
X137806310Y-79713500D01*
X149160419Y-79713500D01*
X149160424Y-79713500D01*
X149278951Y-79689923D01*
X149390601Y-79643676D01*
X149435549Y-79613643D01*
X149491084Y-79576536D01*
X150017216Y-79050403D01*
X150079527Y-79016380D01*
X150106310Y-79013500D01*
X155893690Y-79013500D01*
X155961811Y-79033502D01*
X155982780Y-79050400D01*
X156208916Y-79276536D01*
X156309399Y-79343676D01*
X156421049Y-79389923D01*
X156539575Y-79413499D01*
X156539576Y-79413499D01*
X156660423Y-79413499D01*
X156660424Y-79413499D01*
X156778951Y-79389923D01*
X156890601Y-79343676D01*
X156991083Y-79276536D01*
X157076536Y-79191083D01*
X157143676Y-79090601D01*
X157189923Y-78978951D01*
X157213499Y-78860424D01*
X157213499Y-78739575D01*
X157189923Y-78621049D01*
X157143676Y-78509399D01*
X157076536Y-78408916D01*
X157076534Y-78408914D01*
X157076529Y-78408908D01*
X156591091Y-77923470D01*
X156591085Y-77923465D01*
X156591084Y-77923464D01*
X156490601Y-77856324D01*
X156420195Y-77827161D01*
X156378954Y-77810078D01*
X156378951Y-77810077D01*
X156260424Y-77786500D01*
X149739576Y-77786500D01*
X149716662Y-77791058D01*
X149621048Y-77810077D01*
X149621045Y-77810078D01*
X149509399Y-77856324D01*
X149408914Y-77923465D01*
X149408913Y-77923466D01*
X149222981Y-78109399D01*
X148882783Y-78449596D01*
X148820473Y-78483620D01*
X148793690Y-78486500D01*
X146985310Y-78486500D01*
X146917189Y-78466498D01*
X146870696Y-78412842D01*
X146860592Y-78342568D01*
X146890086Y-78277988D01*
X146896201Y-78271418D01*
X147176536Y-77991084D01*
X147243676Y-77890601D01*
X147289923Y-77778951D01*
X147298490Y-77735882D01*
X147313500Y-77660424D01*
X147313500Y-75126000D01*
X147333502Y-75057879D01*
X147387158Y-75011386D01*
X147439500Y-75000000D01*
X157051280Y-75000000D01*
X157077475Y-75002753D01*
G37*
%TD.AperFunction*%
%TD*%
M02*
