%TF.GenerationSoftware,KiCad,Pcbnew,(6.0.11)*%
%TF.CreationDate,2023-02-04T12:37:28+00:00*%
%TF.ProjectId,yddraig030,79646472-6169-4673-9033-302e6b696361,rev?*%
%TF.SameCoordinates,Original*%
%TF.FileFunction,Drillmap*%
%TF.FilePolarity,Positive*%
%FSLAX45Y45*%
G04 Gerber Fmt 4.5, Leading zero omitted, Abs format (unit mm)*
G04 Created by KiCad (PCBNEW (6.0.11)) date 2023-02-04 12:37:28*
%MOMM*%
%LPD*%
G01*
G04 APERTURE LIST*
%ADD10C,0.050000*%
%ADD11C,0.200000*%
%ADD12C,0.166000*%
%ADD13C,0.244000*%
%ADD14C,0.285000*%
%ADD15C,0.325000*%
%ADD16C,0.430000*%
G04 APERTURE END LIST*
D10*
X3250000Y-3000000D02*
G75*
G03*
X3000000Y-3250000I0J-250000D01*
G01*
X35750000Y-25000000D02*
G75*
G03*
X36000000Y-24750000I0J250000D01*
G01*
X3000000Y-3250000D02*
X3000000Y-24750000D01*
X3000000Y-24750000D02*
G75*
G03*
X3250000Y-25000000I250000J0D01*
G01*
X35750000Y-3000000D02*
X3250000Y-3000000D01*
X36000000Y-3250000D02*
G75*
G03*
X35750000Y-3000000I-250000J0D01*
G01*
X3250000Y-25000000D02*
X35750000Y-25000000D01*
X36000000Y-24750000D02*
X36000000Y-3250000D01*
D11*
D12*
X12299500Y-22142000D02*
X12465500Y-22308000D01*
X12465500Y-22142000D02*
X12299500Y-22308000D01*
X12299500Y-23920000D02*
X12465500Y-24086000D01*
X12465500Y-23920000D02*
X12299500Y-24086000D01*
X17887500Y-22142000D02*
X18053500Y-22308000D01*
X18053500Y-22142000D02*
X17887500Y-22308000D01*
X17887500Y-23920000D02*
X18053500Y-24086000D01*
X18053500Y-23920000D02*
X17887500Y-24086000D01*
D13*
X23680500Y-22225000D02*
G75*
G03*
X23680500Y-22225000I-122000J0D01*
G01*
X23680500Y-24003000D02*
G75*
G03*
X23680500Y-24003000I-122000J0D01*
G01*
D14*
X4796000Y-4374500D02*
X4796000Y-4659500D01*
X4653500Y-4517000D02*
X4938500Y-4517000D01*
X4796000Y-13374500D02*
X4796000Y-13659500D01*
X4653500Y-13517000D02*
X4938500Y-13517000D01*
X7844000Y-4374500D02*
X7844000Y-4659500D01*
X7701500Y-4517000D02*
X7986500Y-4517000D01*
X7844000Y-13374500D02*
X7844000Y-13659500D01*
X7701500Y-13517000D02*
X7986500Y-13517000D01*
X10892000Y-4374500D02*
X10892000Y-4659500D01*
X10749500Y-4517000D02*
X11034500Y-4517000D01*
X10892000Y-13374500D02*
X10892000Y-13659500D01*
X10749500Y-13517000D02*
X11034500Y-13517000D01*
X13940000Y-4374500D02*
X13940000Y-4659500D01*
X13797500Y-4517000D02*
X14082500Y-4517000D01*
X13940000Y-13374500D02*
X13940000Y-13659500D01*
X13797500Y-13517000D02*
X14082500Y-13517000D01*
D15*
X19514906Y-4064906D02*
X19514906Y-3835094D01*
X19285094Y-3835094D01*
X19285094Y-4064906D01*
X19514906Y-4064906D01*
X20657906Y-4064906D02*
X20657906Y-3835094D01*
X20428094Y-3835094D01*
X20428094Y-4064906D01*
X20657906Y-4064906D01*
D16*
X3750000Y-24465000D02*
X3965000Y-24250000D01*
X3750000Y-24035000D01*
X3535000Y-24250000D01*
X3750000Y-24465000D01*
X3810000Y-4015000D02*
X4025000Y-3800000D01*
X3810000Y-3585000D01*
X3595000Y-3800000D01*
X3810000Y-4015000D01*
X4064000Y-16979000D02*
X4279000Y-16764000D01*
X4064000Y-16549000D01*
X3849000Y-16764000D01*
X4064000Y-16979000D01*
X9400000Y-4025000D02*
X9615000Y-3810000D01*
X9400000Y-3595000D01*
X9185000Y-3810000D01*
X9400000Y-4025000D01*
X17272000Y-4025000D02*
X17487000Y-3810000D01*
X17272000Y-3595000D01*
X17057000Y-3810000D01*
X17272000Y-4025000D01*
X19815000Y-15410000D02*
X20030000Y-15195000D01*
X19815000Y-14980000D01*
X19600000Y-15195000D01*
X19815000Y-15410000D01*
X35200000Y-24365000D02*
X35415000Y-24150000D01*
X35200000Y-23935000D01*
X34985000Y-24150000D01*
X35200000Y-24365000D01*
X35350000Y-5265000D02*
X35565000Y-5050000D01*
X35350000Y-4835000D01*
X35135000Y-5050000D01*
X35350000Y-5265000D01*
D11*
X3255119Y-25312976D02*
X3255119Y-25112976D01*
X3302738Y-25112976D01*
X3331309Y-25122500D01*
X3350357Y-25141548D01*
X3359881Y-25160595D01*
X3369405Y-25198690D01*
X3369405Y-25227262D01*
X3359881Y-25265357D01*
X3350357Y-25284405D01*
X3331309Y-25303452D01*
X3302738Y-25312976D01*
X3255119Y-25312976D01*
X3455119Y-25312976D02*
X3455119Y-25179643D01*
X3455119Y-25217738D02*
X3464643Y-25198690D01*
X3474167Y-25189167D01*
X3493214Y-25179643D01*
X3512262Y-25179643D01*
X3578928Y-25312976D02*
X3578928Y-25179643D01*
X3578928Y-25112976D02*
X3569405Y-25122500D01*
X3578928Y-25132024D01*
X3588452Y-25122500D01*
X3578928Y-25112976D01*
X3578928Y-25132024D01*
X3702738Y-25312976D02*
X3683690Y-25303452D01*
X3674167Y-25284405D01*
X3674167Y-25112976D01*
X3807500Y-25312976D02*
X3788452Y-25303452D01*
X3778928Y-25284405D01*
X3778928Y-25112976D01*
X4036071Y-25312976D02*
X4036071Y-25112976D01*
X4102738Y-25255833D01*
X4169405Y-25112976D01*
X4169405Y-25312976D01*
X4350357Y-25312976D02*
X4350357Y-25208214D01*
X4340833Y-25189167D01*
X4321786Y-25179643D01*
X4283690Y-25179643D01*
X4264643Y-25189167D01*
X4350357Y-25303452D02*
X4331310Y-25312976D01*
X4283690Y-25312976D01*
X4264643Y-25303452D01*
X4255119Y-25284405D01*
X4255119Y-25265357D01*
X4264643Y-25246309D01*
X4283690Y-25236786D01*
X4331310Y-25236786D01*
X4350357Y-25227262D01*
X4445595Y-25179643D02*
X4445595Y-25379643D01*
X4445595Y-25189167D02*
X4464643Y-25179643D01*
X4502738Y-25179643D01*
X4521786Y-25189167D01*
X4531310Y-25198690D01*
X4540833Y-25217738D01*
X4540833Y-25274881D01*
X4531310Y-25293928D01*
X4521786Y-25303452D01*
X4502738Y-25312976D01*
X4464643Y-25312976D01*
X4445595Y-25303452D01*
X4626548Y-25293928D02*
X4636071Y-25303452D01*
X4626548Y-25312976D01*
X4617024Y-25303452D01*
X4626548Y-25293928D01*
X4626548Y-25312976D01*
X4626548Y-25189167D02*
X4636071Y-25198690D01*
X4626548Y-25208214D01*
X4617024Y-25198690D01*
X4626548Y-25189167D01*
X4626548Y-25208214D01*
D12*
X2831500Y-25559500D02*
X2997500Y-25725500D01*
X2997500Y-25559500D02*
X2831500Y-25725500D01*
D11*
X3359881Y-25732976D02*
X3245595Y-25732976D01*
X3302738Y-25732976D02*
X3302738Y-25532976D01*
X3283690Y-25561548D01*
X3264643Y-25580595D01*
X3245595Y-25590119D01*
X3445595Y-25713928D02*
X3455119Y-25723452D01*
X3445595Y-25732976D01*
X3436071Y-25723452D01*
X3445595Y-25713928D01*
X3445595Y-25732976D01*
X3626548Y-25532976D02*
X3588452Y-25532976D01*
X3569405Y-25542500D01*
X3559881Y-25552024D01*
X3540833Y-25580595D01*
X3531309Y-25618690D01*
X3531309Y-25694881D01*
X3540833Y-25713928D01*
X3550357Y-25723452D01*
X3569405Y-25732976D01*
X3607500Y-25732976D01*
X3626548Y-25723452D01*
X3636071Y-25713928D01*
X3645595Y-25694881D01*
X3645595Y-25647262D01*
X3636071Y-25628214D01*
X3626548Y-25618690D01*
X3607500Y-25609167D01*
X3569405Y-25609167D01*
X3550357Y-25618690D01*
X3540833Y-25628214D01*
X3531309Y-25647262D01*
X3817024Y-25532976D02*
X3778928Y-25532976D01*
X3759881Y-25542500D01*
X3750357Y-25552024D01*
X3731309Y-25580595D01*
X3721786Y-25618690D01*
X3721786Y-25694881D01*
X3731309Y-25713928D01*
X3740833Y-25723452D01*
X3759881Y-25732976D01*
X3797976Y-25732976D01*
X3817024Y-25723452D01*
X3826548Y-25713928D01*
X3836071Y-25694881D01*
X3836071Y-25647262D01*
X3826548Y-25628214D01*
X3817024Y-25618690D01*
X3797976Y-25609167D01*
X3759881Y-25609167D01*
X3740833Y-25618690D01*
X3731309Y-25628214D01*
X3721786Y-25647262D01*
X3959881Y-25532976D02*
X3978928Y-25532976D01*
X3997976Y-25542500D01*
X4007500Y-25552024D01*
X4017024Y-25571071D01*
X4026548Y-25609167D01*
X4026548Y-25656786D01*
X4017024Y-25694881D01*
X4007500Y-25713928D01*
X3997976Y-25723452D01*
X3978928Y-25732976D01*
X3959881Y-25732976D01*
X3940833Y-25723452D01*
X3931309Y-25713928D01*
X3921786Y-25694881D01*
X3912262Y-25656786D01*
X3912262Y-25609167D01*
X3921786Y-25571071D01*
X3931309Y-25552024D01*
X3940833Y-25542500D01*
X3959881Y-25532976D01*
X4112262Y-25732976D02*
X4112262Y-25599643D01*
X4112262Y-25618690D02*
X4121786Y-25609167D01*
X4140833Y-25599643D01*
X4169405Y-25599643D01*
X4188452Y-25609167D01*
X4197976Y-25628214D01*
X4197976Y-25732976D01*
X4197976Y-25628214D02*
X4207500Y-25609167D01*
X4226548Y-25599643D01*
X4255119Y-25599643D01*
X4274167Y-25609167D01*
X4283690Y-25628214D01*
X4283690Y-25732976D01*
X4378929Y-25732976D02*
X4378929Y-25599643D01*
X4378929Y-25618690D02*
X4388452Y-25609167D01*
X4407500Y-25599643D01*
X4436071Y-25599643D01*
X4455119Y-25609167D01*
X4464643Y-25628214D01*
X4464643Y-25732976D01*
X4464643Y-25628214D02*
X4474167Y-25609167D01*
X4493214Y-25599643D01*
X4521786Y-25599643D01*
X4540833Y-25609167D01*
X4550357Y-25628214D01*
X4550357Y-25732976D01*
X4940833Y-25523452D02*
X4769405Y-25780595D01*
X5197976Y-25532976D02*
X5217024Y-25532976D01*
X5236071Y-25542500D01*
X5245595Y-25552024D01*
X5255119Y-25571071D01*
X5264643Y-25609167D01*
X5264643Y-25656786D01*
X5255119Y-25694881D01*
X5245595Y-25713928D01*
X5236071Y-25723452D01*
X5217024Y-25732976D01*
X5197976Y-25732976D01*
X5178929Y-25723452D01*
X5169405Y-25713928D01*
X5159881Y-25694881D01*
X5150357Y-25656786D01*
X5150357Y-25609167D01*
X5159881Y-25571071D01*
X5169405Y-25552024D01*
X5178929Y-25542500D01*
X5197976Y-25532976D01*
X5350357Y-25713928D02*
X5359881Y-25723452D01*
X5350357Y-25732976D01*
X5340833Y-25723452D01*
X5350357Y-25713928D01*
X5350357Y-25732976D01*
X5483690Y-25532976D02*
X5502738Y-25532976D01*
X5521786Y-25542500D01*
X5531310Y-25552024D01*
X5540833Y-25571071D01*
X5550357Y-25609167D01*
X5550357Y-25656786D01*
X5540833Y-25694881D01*
X5531310Y-25713928D01*
X5521786Y-25723452D01*
X5502738Y-25732976D01*
X5483690Y-25732976D01*
X5464643Y-25723452D01*
X5455119Y-25713928D01*
X5445595Y-25694881D01*
X5436071Y-25656786D01*
X5436071Y-25609167D01*
X5445595Y-25571071D01*
X5455119Y-25552024D01*
X5464643Y-25542500D01*
X5483690Y-25532976D01*
X5721786Y-25532976D02*
X5683690Y-25532976D01*
X5664643Y-25542500D01*
X5655119Y-25552024D01*
X5636071Y-25580595D01*
X5626548Y-25618690D01*
X5626548Y-25694881D01*
X5636071Y-25713928D01*
X5645595Y-25723452D01*
X5664643Y-25732976D01*
X5702738Y-25732976D01*
X5721786Y-25723452D01*
X5731309Y-25713928D01*
X5740833Y-25694881D01*
X5740833Y-25647262D01*
X5731309Y-25628214D01*
X5721786Y-25618690D01*
X5702738Y-25609167D01*
X5664643Y-25609167D01*
X5645595Y-25618690D01*
X5636071Y-25628214D01*
X5626548Y-25647262D01*
X5921786Y-25532976D02*
X5826548Y-25532976D01*
X5817024Y-25628214D01*
X5826548Y-25618690D01*
X5845595Y-25609167D01*
X5893214Y-25609167D01*
X5912262Y-25618690D01*
X5921786Y-25628214D01*
X5931309Y-25647262D01*
X5931309Y-25694881D01*
X5921786Y-25713928D01*
X5912262Y-25723452D01*
X5893214Y-25732976D01*
X5845595Y-25732976D01*
X5826548Y-25723452D01*
X5817024Y-25713928D01*
X6102738Y-25599643D02*
X6102738Y-25732976D01*
X6055119Y-25523452D02*
X6007500Y-25666309D01*
X6131309Y-25666309D01*
X6197976Y-25532976D02*
X6197976Y-25571071D01*
X6274167Y-25532976D02*
X6274167Y-25571071D01*
X6569405Y-25809167D02*
X6559881Y-25799643D01*
X6540833Y-25771071D01*
X6531309Y-25752024D01*
X6521786Y-25723452D01*
X6512262Y-25675833D01*
X6512262Y-25637738D01*
X6521786Y-25590119D01*
X6531309Y-25561548D01*
X6540833Y-25542500D01*
X6559881Y-25513928D01*
X6569405Y-25504405D01*
X6731309Y-25599643D02*
X6731309Y-25732976D01*
X6683690Y-25523452D02*
X6636071Y-25666309D01*
X6759881Y-25666309D01*
X6988452Y-25732976D02*
X6988452Y-25532976D01*
X7074167Y-25732976D02*
X7074167Y-25628214D01*
X7064643Y-25609167D01*
X7045595Y-25599643D01*
X7017024Y-25599643D01*
X6997976Y-25609167D01*
X6988452Y-25618690D01*
X7197976Y-25732976D02*
X7178928Y-25723452D01*
X7169405Y-25713928D01*
X7159881Y-25694881D01*
X7159881Y-25637738D01*
X7169405Y-25618690D01*
X7178928Y-25609167D01*
X7197976Y-25599643D01*
X7226548Y-25599643D01*
X7245595Y-25609167D01*
X7255119Y-25618690D01*
X7264643Y-25637738D01*
X7264643Y-25694881D01*
X7255119Y-25713928D01*
X7245595Y-25723452D01*
X7226548Y-25732976D01*
X7197976Y-25732976D01*
X7378928Y-25732976D02*
X7359881Y-25723452D01*
X7350357Y-25704405D01*
X7350357Y-25532976D01*
X7531309Y-25723452D02*
X7512262Y-25732976D01*
X7474167Y-25732976D01*
X7455119Y-25723452D01*
X7445595Y-25704405D01*
X7445595Y-25628214D01*
X7455119Y-25609167D01*
X7474167Y-25599643D01*
X7512262Y-25599643D01*
X7531309Y-25609167D01*
X7540833Y-25628214D01*
X7540833Y-25647262D01*
X7445595Y-25666309D01*
X7617024Y-25723452D02*
X7636071Y-25732976D01*
X7674167Y-25732976D01*
X7693214Y-25723452D01*
X7702738Y-25704405D01*
X7702738Y-25694881D01*
X7693214Y-25675833D01*
X7674167Y-25666309D01*
X7645595Y-25666309D01*
X7626548Y-25656786D01*
X7617024Y-25637738D01*
X7617024Y-25628214D01*
X7626548Y-25609167D01*
X7645595Y-25599643D01*
X7674167Y-25599643D01*
X7693214Y-25609167D01*
X7769405Y-25809167D02*
X7778928Y-25799643D01*
X7797976Y-25771071D01*
X7807500Y-25752024D01*
X7817024Y-25723452D01*
X7826548Y-25675833D01*
X7826548Y-25637738D01*
X7817024Y-25590119D01*
X7807500Y-25561548D01*
X7797976Y-25542500D01*
X7778928Y-25513928D01*
X7769405Y-25504405D01*
X8131309Y-25809167D02*
X8121786Y-25799643D01*
X8102738Y-25771071D01*
X8093214Y-25752024D01*
X8083690Y-25723452D01*
X8074167Y-25675833D01*
X8074167Y-25637738D01*
X8083690Y-25590119D01*
X8093214Y-25561548D01*
X8102738Y-25542500D01*
X8121786Y-25513928D01*
X8131309Y-25504405D01*
X8207500Y-25599643D02*
X8207500Y-25732976D01*
X8207500Y-25618690D02*
X8217024Y-25609167D01*
X8236071Y-25599643D01*
X8264643Y-25599643D01*
X8283690Y-25609167D01*
X8293214Y-25628214D01*
X8293214Y-25732976D01*
X8417024Y-25732976D02*
X8397976Y-25723452D01*
X8388452Y-25713928D01*
X8378928Y-25694881D01*
X8378928Y-25637738D01*
X8388452Y-25618690D01*
X8397976Y-25609167D01*
X8417024Y-25599643D01*
X8445595Y-25599643D01*
X8464643Y-25609167D01*
X8474167Y-25618690D01*
X8483690Y-25637738D01*
X8483690Y-25694881D01*
X8474167Y-25713928D01*
X8464643Y-25723452D01*
X8445595Y-25732976D01*
X8417024Y-25732976D01*
X8540833Y-25599643D02*
X8617024Y-25599643D01*
X8569405Y-25532976D02*
X8569405Y-25704405D01*
X8578929Y-25723452D01*
X8597976Y-25732976D01*
X8617024Y-25732976D01*
X8836071Y-25599643D02*
X8836071Y-25799643D01*
X8836071Y-25609167D02*
X8855119Y-25599643D01*
X8893214Y-25599643D01*
X8912262Y-25609167D01*
X8921786Y-25618690D01*
X8931310Y-25637738D01*
X8931310Y-25694881D01*
X8921786Y-25713928D01*
X8912262Y-25723452D01*
X8893214Y-25732976D01*
X8855119Y-25732976D01*
X8836071Y-25723452D01*
X9045595Y-25732976D02*
X9026548Y-25723452D01*
X9017024Y-25704405D01*
X9017024Y-25532976D01*
X9207500Y-25732976D02*
X9207500Y-25628214D01*
X9197976Y-25609167D01*
X9178929Y-25599643D01*
X9140833Y-25599643D01*
X9121786Y-25609167D01*
X9207500Y-25723452D02*
X9188452Y-25732976D01*
X9140833Y-25732976D01*
X9121786Y-25723452D01*
X9112262Y-25704405D01*
X9112262Y-25685357D01*
X9121786Y-25666309D01*
X9140833Y-25656786D01*
X9188452Y-25656786D01*
X9207500Y-25647262D01*
X9274167Y-25599643D02*
X9350357Y-25599643D01*
X9302738Y-25532976D02*
X9302738Y-25704405D01*
X9312262Y-25723452D01*
X9331310Y-25732976D01*
X9350357Y-25732976D01*
X9493214Y-25723452D02*
X9474167Y-25732976D01*
X9436071Y-25732976D01*
X9417024Y-25723452D01*
X9407500Y-25704405D01*
X9407500Y-25628214D01*
X9417024Y-25609167D01*
X9436071Y-25599643D01*
X9474167Y-25599643D01*
X9493214Y-25609167D01*
X9502738Y-25628214D01*
X9502738Y-25647262D01*
X9407500Y-25666309D01*
X9674167Y-25732976D02*
X9674167Y-25532976D01*
X9674167Y-25723452D02*
X9655119Y-25732976D01*
X9617024Y-25732976D01*
X9597976Y-25723452D01*
X9588452Y-25713928D01*
X9578929Y-25694881D01*
X9578929Y-25637738D01*
X9588452Y-25618690D01*
X9597976Y-25609167D01*
X9617024Y-25599643D01*
X9655119Y-25599643D01*
X9674167Y-25609167D01*
X9750357Y-25809167D02*
X9759881Y-25799643D01*
X9778929Y-25771071D01*
X9788452Y-25752024D01*
X9797976Y-25723452D01*
X9807500Y-25675833D01*
X9807500Y-25637738D01*
X9797976Y-25590119D01*
X9788452Y-25561548D01*
X9778929Y-25542500D01*
X9759881Y-25513928D01*
X9750357Y-25504405D01*
X2997500Y-25928500D02*
G75*
G03*
X2997500Y-25928500I-100000J0D01*
G01*
X3245595Y-25838024D02*
X3255119Y-25828500D01*
X3274167Y-25818976D01*
X3321786Y-25818976D01*
X3340833Y-25828500D01*
X3350357Y-25838024D01*
X3359881Y-25857071D01*
X3359881Y-25876119D01*
X3350357Y-25904690D01*
X3236071Y-26018976D01*
X3359881Y-26018976D01*
X3445595Y-25999928D02*
X3455119Y-26009452D01*
X3445595Y-26018976D01*
X3436071Y-26009452D01*
X3445595Y-25999928D01*
X3445595Y-26018976D01*
X3626548Y-25885643D02*
X3626548Y-26018976D01*
X3578928Y-25809452D02*
X3531309Y-25952309D01*
X3655119Y-25952309D01*
X3817024Y-25885643D02*
X3817024Y-26018976D01*
X3769405Y-25809452D02*
X3721786Y-25952309D01*
X3845595Y-25952309D01*
X3959881Y-25818976D02*
X3978928Y-25818976D01*
X3997976Y-25828500D01*
X4007500Y-25838024D01*
X4017024Y-25857071D01*
X4026548Y-25895167D01*
X4026548Y-25942786D01*
X4017024Y-25980881D01*
X4007500Y-25999928D01*
X3997976Y-26009452D01*
X3978928Y-26018976D01*
X3959881Y-26018976D01*
X3940833Y-26009452D01*
X3931309Y-25999928D01*
X3921786Y-25980881D01*
X3912262Y-25942786D01*
X3912262Y-25895167D01*
X3921786Y-25857071D01*
X3931309Y-25838024D01*
X3940833Y-25828500D01*
X3959881Y-25818976D01*
X4112262Y-26018976D02*
X4112262Y-25885643D01*
X4112262Y-25904690D02*
X4121786Y-25895167D01*
X4140833Y-25885643D01*
X4169405Y-25885643D01*
X4188452Y-25895167D01*
X4197976Y-25914214D01*
X4197976Y-26018976D01*
X4197976Y-25914214D02*
X4207500Y-25895167D01*
X4226548Y-25885643D01*
X4255119Y-25885643D01*
X4274167Y-25895167D01*
X4283690Y-25914214D01*
X4283690Y-26018976D01*
X4378929Y-26018976D02*
X4378929Y-25885643D01*
X4378929Y-25904690D02*
X4388452Y-25895167D01*
X4407500Y-25885643D01*
X4436071Y-25885643D01*
X4455119Y-25895167D01*
X4464643Y-25914214D01*
X4464643Y-26018976D01*
X4464643Y-25914214D02*
X4474167Y-25895167D01*
X4493214Y-25885643D01*
X4521786Y-25885643D01*
X4540833Y-25895167D01*
X4550357Y-25914214D01*
X4550357Y-26018976D01*
X4940833Y-25809452D02*
X4769405Y-26066595D01*
X5197976Y-25818976D02*
X5217024Y-25818976D01*
X5236071Y-25828500D01*
X5245595Y-25838024D01*
X5255119Y-25857071D01*
X5264643Y-25895167D01*
X5264643Y-25942786D01*
X5255119Y-25980881D01*
X5245595Y-25999928D01*
X5236071Y-26009452D01*
X5217024Y-26018976D01*
X5197976Y-26018976D01*
X5178929Y-26009452D01*
X5169405Y-25999928D01*
X5159881Y-25980881D01*
X5150357Y-25942786D01*
X5150357Y-25895167D01*
X5159881Y-25857071D01*
X5169405Y-25838024D01*
X5178929Y-25828500D01*
X5197976Y-25818976D01*
X5350357Y-25999928D02*
X5359881Y-26009452D01*
X5350357Y-26018976D01*
X5340833Y-26009452D01*
X5350357Y-25999928D01*
X5350357Y-26018976D01*
X5483690Y-25818976D02*
X5502738Y-25818976D01*
X5521786Y-25828500D01*
X5531310Y-25838024D01*
X5540833Y-25857071D01*
X5550357Y-25895167D01*
X5550357Y-25942786D01*
X5540833Y-25980881D01*
X5531310Y-25999928D01*
X5521786Y-26009452D01*
X5502738Y-26018976D01*
X5483690Y-26018976D01*
X5464643Y-26009452D01*
X5455119Y-25999928D01*
X5445595Y-25980881D01*
X5436071Y-25942786D01*
X5436071Y-25895167D01*
X5445595Y-25857071D01*
X5455119Y-25838024D01*
X5464643Y-25828500D01*
X5483690Y-25818976D01*
X5645595Y-26018976D02*
X5683690Y-26018976D01*
X5702738Y-26009452D01*
X5712262Y-25999928D01*
X5731309Y-25971357D01*
X5740833Y-25933262D01*
X5740833Y-25857071D01*
X5731309Y-25838024D01*
X5721786Y-25828500D01*
X5702738Y-25818976D01*
X5664643Y-25818976D01*
X5645595Y-25828500D01*
X5636071Y-25838024D01*
X5626548Y-25857071D01*
X5626548Y-25904690D01*
X5636071Y-25923738D01*
X5645595Y-25933262D01*
X5664643Y-25942786D01*
X5702738Y-25942786D01*
X5721786Y-25933262D01*
X5731309Y-25923738D01*
X5740833Y-25904690D01*
X5912262Y-25818976D02*
X5874167Y-25818976D01*
X5855119Y-25828500D01*
X5845595Y-25838024D01*
X5826548Y-25866595D01*
X5817024Y-25904690D01*
X5817024Y-25980881D01*
X5826548Y-25999928D01*
X5836071Y-26009452D01*
X5855119Y-26018976D01*
X5893214Y-26018976D01*
X5912262Y-26009452D01*
X5921786Y-25999928D01*
X5931309Y-25980881D01*
X5931309Y-25933262D01*
X5921786Y-25914214D01*
X5912262Y-25904690D01*
X5893214Y-25895167D01*
X5855119Y-25895167D01*
X5836071Y-25904690D01*
X5826548Y-25914214D01*
X5817024Y-25933262D01*
X6121786Y-26018976D02*
X6007500Y-26018976D01*
X6064643Y-26018976D02*
X6064643Y-25818976D01*
X6045595Y-25847548D01*
X6026548Y-25866595D01*
X6007500Y-25876119D01*
X6197976Y-25818976D02*
X6197976Y-25857071D01*
X6274167Y-25818976D02*
X6274167Y-25857071D01*
X6569405Y-26095167D02*
X6559881Y-26085643D01*
X6540833Y-26057071D01*
X6531309Y-26038024D01*
X6521786Y-26009452D01*
X6512262Y-25961833D01*
X6512262Y-25923738D01*
X6521786Y-25876119D01*
X6531309Y-25847548D01*
X6540833Y-25828500D01*
X6559881Y-25799928D01*
X6569405Y-25790405D01*
X6636071Y-25838024D02*
X6645595Y-25828500D01*
X6664643Y-25818976D01*
X6712262Y-25818976D01*
X6731309Y-25828500D01*
X6740833Y-25838024D01*
X6750357Y-25857071D01*
X6750357Y-25876119D01*
X6740833Y-25904690D01*
X6626548Y-26018976D01*
X6750357Y-26018976D01*
X6988452Y-26018976D02*
X6988452Y-25818976D01*
X7074167Y-26018976D02*
X7074167Y-25914214D01*
X7064643Y-25895167D01*
X7045595Y-25885643D01*
X7017024Y-25885643D01*
X6997976Y-25895167D01*
X6988452Y-25904690D01*
X7197976Y-26018976D02*
X7178928Y-26009452D01*
X7169405Y-25999928D01*
X7159881Y-25980881D01*
X7159881Y-25923738D01*
X7169405Y-25904690D01*
X7178928Y-25895167D01*
X7197976Y-25885643D01*
X7226548Y-25885643D01*
X7245595Y-25895167D01*
X7255119Y-25904690D01*
X7264643Y-25923738D01*
X7264643Y-25980881D01*
X7255119Y-25999928D01*
X7245595Y-26009452D01*
X7226548Y-26018976D01*
X7197976Y-26018976D01*
X7378928Y-26018976D02*
X7359881Y-26009452D01*
X7350357Y-25990405D01*
X7350357Y-25818976D01*
X7531309Y-26009452D02*
X7512262Y-26018976D01*
X7474167Y-26018976D01*
X7455119Y-26009452D01*
X7445595Y-25990405D01*
X7445595Y-25914214D01*
X7455119Y-25895167D01*
X7474167Y-25885643D01*
X7512262Y-25885643D01*
X7531309Y-25895167D01*
X7540833Y-25914214D01*
X7540833Y-25933262D01*
X7445595Y-25952309D01*
X7617024Y-26009452D02*
X7636071Y-26018976D01*
X7674167Y-26018976D01*
X7693214Y-26009452D01*
X7702738Y-25990405D01*
X7702738Y-25980881D01*
X7693214Y-25961833D01*
X7674167Y-25952309D01*
X7645595Y-25952309D01*
X7626548Y-25942786D01*
X7617024Y-25923738D01*
X7617024Y-25914214D01*
X7626548Y-25895167D01*
X7645595Y-25885643D01*
X7674167Y-25885643D01*
X7693214Y-25895167D01*
X7769405Y-26095167D02*
X7778928Y-26085643D01*
X7797976Y-26057071D01*
X7807500Y-26038024D01*
X7817024Y-26009452D01*
X7826548Y-25961833D01*
X7826548Y-25923738D01*
X7817024Y-25876119D01*
X7807500Y-25847548D01*
X7797976Y-25828500D01*
X7778928Y-25799928D01*
X7769405Y-25790405D01*
X8131309Y-26095167D02*
X8121786Y-26085643D01*
X8102738Y-26057071D01*
X8093214Y-26038024D01*
X8083690Y-26009452D01*
X8074167Y-25961833D01*
X8074167Y-25923738D01*
X8083690Y-25876119D01*
X8093214Y-25847548D01*
X8102738Y-25828500D01*
X8121786Y-25799928D01*
X8131309Y-25790405D01*
X8207500Y-25885643D02*
X8207500Y-26018976D01*
X8207500Y-25904690D02*
X8217024Y-25895167D01*
X8236071Y-25885643D01*
X8264643Y-25885643D01*
X8283690Y-25895167D01*
X8293214Y-25914214D01*
X8293214Y-26018976D01*
X8417024Y-26018976D02*
X8397976Y-26009452D01*
X8388452Y-25999928D01*
X8378928Y-25980881D01*
X8378928Y-25923738D01*
X8388452Y-25904690D01*
X8397976Y-25895167D01*
X8417024Y-25885643D01*
X8445595Y-25885643D01*
X8464643Y-25895167D01*
X8474167Y-25904690D01*
X8483690Y-25923738D01*
X8483690Y-25980881D01*
X8474167Y-25999928D01*
X8464643Y-26009452D01*
X8445595Y-26018976D01*
X8417024Y-26018976D01*
X8540833Y-25885643D02*
X8617024Y-25885643D01*
X8569405Y-25818976D02*
X8569405Y-25990405D01*
X8578929Y-26009452D01*
X8597976Y-26018976D01*
X8617024Y-26018976D01*
X8836071Y-25885643D02*
X8836071Y-26085643D01*
X8836071Y-25895167D02*
X8855119Y-25885643D01*
X8893214Y-25885643D01*
X8912262Y-25895167D01*
X8921786Y-25904690D01*
X8931310Y-25923738D01*
X8931310Y-25980881D01*
X8921786Y-25999928D01*
X8912262Y-26009452D01*
X8893214Y-26018976D01*
X8855119Y-26018976D01*
X8836071Y-26009452D01*
X9045595Y-26018976D02*
X9026548Y-26009452D01*
X9017024Y-25990405D01*
X9017024Y-25818976D01*
X9207500Y-26018976D02*
X9207500Y-25914214D01*
X9197976Y-25895167D01*
X9178929Y-25885643D01*
X9140833Y-25885643D01*
X9121786Y-25895167D01*
X9207500Y-26009452D02*
X9188452Y-26018976D01*
X9140833Y-26018976D01*
X9121786Y-26009452D01*
X9112262Y-25990405D01*
X9112262Y-25971357D01*
X9121786Y-25952309D01*
X9140833Y-25942786D01*
X9188452Y-25942786D01*
X9207500Y-25933262D01*
X9274167Y-25885643D02*
X9350357Y-25885643D01*
X9302738Y-25818976D02*
X9302738Y-25990405D01*
X9312262Y-26009452D01*
X9331310Y-26018976D01*
X9350357Y-26018976D01*
X9493214Y-26009452D02*
X9474167Y-26018976D01*
X9436071Y-26018976D01*
X9417024Y-26009452D01*
X9407500Y-25990405D01*
X9407500Y-25914214D01*
X9417024Y-25895167D01*
X9436071Y-25885643D01*
X9474167Y-25885643D01*
X9493214Y-25895167D01*
X9502738Y-25914214D01*
X9502738Y-25933262D01*
X9407500Y-25952309D01*
X9674167Y-26018976D02*
X9674167Y-25818976D01*
X9674167Y-26009452D02*
X9655119Y-26018976D01*
X9617024Y-26018976D01*
X9597976Y-26009452D01*
X9588452Y-25999928D01*
X9578929Y-25980881D01*
X9578929Y-25923738D01*
X9588452Y-25904690D01*
X9597976Y-25895167D01*
X9617024Y-25885643D01*
X9655119Y-25885643D01*
X9674167Y-25895167D01*
X9750357Y-26095167D02*
X9759881Y-26085643D01*
X9778929Y-26057071D01*
X9788452Y-26038024D01*
X9797976Y-26009452D01*
X9807500Y-25961833D01*
X9807500Y-25923738D01*
X9797976Y-25876119D01*
X9788452Y-25847548D01*
X9778929Y-25828500D01*
X9759881Y-25799928D01*
X9750357Y-25790405D01*
X2897500Y-26148500D02*
X2897500Y-26348500D01*
X2797500Y-26248500D02*
X2997500Y-26248500D01*
X3245595Y-26158024D02*
X3255119Y-26148500D01*
X3274167Y-26138976D01*
X3321786Y-26138976D01*
X3340833Y-26148500D01*
X3350357Y-26158024D01*
X3359881Y-26177071D01*
X3359881Y-26196119D01*
X3350357Y-26224690D01*
X3236071Y-26338976D01*
X3359881Y-26338976D01*
X3445595Y-26319928D02*
X3455119Y-26329452D01*
X3445595Y-26338976D01*
X3436071Y-26329452D01*
X3445595Y-26319928D01*
X3445595Y-26338976D01*
X3569405Y-26224690D02*
X3550357Y-26215167D01*
X3540833Y-26205643D01*
X3531309Y-26186595D01*
X3531309Y-26177071D01*
X3540833Y-26158024D01*
X3550357Y-26148500D01*
X3569405Y-26138976D01*
X3607500Y-26138976D01*
X3626548Y-26148500D01*
X3636071Y-26158024D01*
X3645595Y-26177071D01*
X3645595Y-26186595D01*
X3636071Y-26205643D01*
X3626548Y-26215167D01*
X3607500Y-26224690D01*
X3569405Y-26224690D01*
X3550357Y-26234214D01*
X3540833Y-26243738D01*
X3531309Y-26262786D01*
X3531309Y-26300881D01*
X3540833Y-26319928D01*
X3550357Y-26329452D01*
X3569405Y-26338976D01*
X3607500Y-26338976D01*
X3626548Y-26329452D01*
X3636071Y-26319928D01*
X3645595Y-26300881D01*
X3645595Y-26262786D01*
X3636071Y-26243738D01*
X3626548Y-26234214D01*
X3607500Y-26224690D01*
X3826548Y-26138976D02*
X3731309Y-26138976D01*
X3721786Y-26234214D01*
X3731309Y-26224690D01*
X3750357Y-26215167D01*
X3797976Y-26215167D01*
X3817024Y-26224690D01*
X3826548Y-26234214D01*
X3836071Y-26253262D01*
X3836071Y-26300881D01*
X3826548Y-26319928D01*
X3817024Y-26329452D01*
X3797976Y-26338976D01*
X3750357Y-26338976D01*
X3731309Y-26329452D01*
X3721786Y-26319928D01*
X3959881Y-26138976D02*
X3978928Y-26138976D01*
X3997976Y-26148500D01*
X4007500Y-26158024D01*
X4017024Y-26177071D01*
X4026548Y-26215167D01*
X4026548Y-26262786D01*
X4017024Y-26300881D01*
X4007500Y-26319928D01*
X3997976Y-26329452D01*
X3978928Y-26338976D01*
X3959881Y-26338976D01*
X3940833Y-26329452D01*
X3931309Y-26319928D01*
X3921786Y-26300881D01*
X3912262Y-26262786D01*
X3912262Y-26215167D01*
X3921786Y-26177071D01*
X3931309Y-26158024D01*
X3940833Y-26148500D01*
X3959881Y-26138976D01*
X4112262Y-26338976D02*
X4112262Y-26205643D01*
X4112262Y-26224690D02*
X4121786Y-26215167D01*
X4140833Y-26205643D01*
X4169405Y-26205643D01*
X4188452Y-26215167D01*
X4197976Y-26234214D01*
X4197976Y-26338976D01*
X4197976Y-26234214D02*
X4207500Y-26215167D01*
X4226548Y-26205643D01*
X4255119Y-26205643D01*
X4274167Y-26215167D01*
X4283690Y-26234214D01*
X4283690Y-26338976D01*
X4378929Y-26338976D02*
X4378929Y-26205643D01*
X4378929Y-26224690D02*
X4388452Y-26215167D01*
X4407500Y-26205643D01*
X4436071Y-26205643D01*
X4455119Y-26215167D01*
X4464643Y-26234214D01*
X4464643Y-26338976D01*
X4464643Y-26234214D02*
X4474167Y-26215167D01*
X4493214Y-26205643D01*
X4521786Y-26205643D01*
X4540833Y-26215167D01*
X4550357Y-26234214D01*
X4550357Y-26338976D01*
X4940833Y-26129452D02*
X4769405Y-26386595D01*
X5197976Y-26138976D02*
X5217024Y-26138976D01*
X5236071Y-26148500D01*
X5245595Y-26158024D01*
X5255119Y-26177071D01*
X5264643Y-26215167D01*
X5264643Y-26262786D01*
X5255119Y-26300881D01*
X5245595Y-26319928D01*
X5236071Y-26329452D01*
X5217024Y-26338976D01*
X5197976Y-26338976D01*
X5178929Y-26329452D01*
X5169405Y-26319928D01*
X5159881Y-26300881D01*
X5150357Y-26262786D01*
X5150357Y-26215167D01*
X5159881Y-26177071D01*
X5169405Y-26158024D01*
X5178929Y-26148500D01*
X5197976Y-26138976D01*
X5350357Y-26319928D02*
X5359881Y-26329452D01*
X5350357Y-26338976D01*
X5340833Y-26329452D01*
X5350357Y-26319928D01*
X5350357Y-26338976D01*
X5550357Y-26338976D02*
X5436071Y-26338976D01*
X5493214Y-26338976D02*
X5493214Y-26138976D01*
X5474167Y-26167548D01*
X5455119Y-26186595D01*
X5436071Y-26196119D01*
X5740833Y-26338976D02*
X5626548Y-26338976D01*
X5683690Y-26338976D02*
X5683690Y-26138976D01*
X5664643Y-26167548D01*
X5645595Y-26186595D01*
X5626548Y-26196119D01*
X5817024Y-26158024D02*
X5826548Y-26148500D01*
X5845595Y-26138976D01*
X5893214Y-26138976D01*
X5912262Y-26148500D01*
X5921786Y-26158024D01*
X5931309Y-26177071D01*
X5931309Y-26196119D01*
X5921786Y-26224690D01*
X5807500Y-26338976D01*
X5931309Y-26338976D01*
X6007500Y-26158024D02*
X6017024Y-26148500D01*
X6036071Y-26138976D01*
X6083690Y-26138976D01*
X6102738Y-26148500D01*
X6112262Y-26158024D01*
X6121786Y-26177071D01*
X6121786Y-26196119D01*
X6112262Y-26224690D01*
X5997976Y-26338976D01*
X6121786Y-26338976D01*
X6197976Y-26138976D02*
X6197976Y-26177071D01*
X6274167Y-26138976D02*
X6274167Y-26177071D01*
X6569405Y-26415167D02*
X6559881Y-26405643D01*
X6540833Y-26377071D01*
X6531309Y-26358024D01*
X6521786Y-26329452D01*
X6512262Y-26281833D01*
X6512262Y-26243738D01*
X6521786Y-26196119D01*
X6531309Y-26167548D01*
X6540833Y-26148500D01*
X6559881Y-26119928D01*
X6569405Y-26110405D01*
X6674167Y-26224690D02*
X6655119Y-26215167D01*
X6645595Y-26205643D01*
X6636071Y-26186595D01*
X6636071Y-26177071D01*
X6645595Y-26158024D01*
X6655119Y-26148500D01*
X6674167Y-26138976D01*
X6712262Y-26138976D01*
X6731309Y-26148500D01*
X6740833Y-26158024D01*
X6750357Y-26177071D01*
X6750357Y-26186595D01*
X6740833Y-26205643D01*
X6731309Y-26215167D01*
X6712262Y-26224690D01*
X6674167Y-26224690D01*
X6655119Y-26234214D01*
X6645595Y-26243738D01*
X6636071Y-26262786D01*
X6636071Y-26300881D01*
X6645595Y-26319928D01*
X6655119Y-26329452D01*
X6674167Y-26338976D01*
X6712262Y-26338976D01*
X6731309Y-26329452D01*
X6740833Y-26319928D01*
X6750357Y-26300881D01*
X6750357Y-26262786D01*
X6740833Y-26243738D01*
X6731309Y-26234214D01*
X6712262Y-26224690D01*
X6988452Y-26338976D02*
X6988452Y-26138976D01*
X7074167Y-26338976D02*
X7074167Y-26234214D01*
X7064643Y-26215167D01*
X7045595Y-26205643D01*
X7017024Y-26205643D01*
X6997976Y-26215167D01*
X6988452Y-26224690D01*
X7197976Y-26338976D02*
X7178928Y-26329452D01*
X7169405Y-26319928D01*
X7159881Y-26300881D01*
X7159881Y-26243738D01*
X7169405Y-26224690D01*
X7178928Y-26215167D01*
X7197976Y-26205643D01*
X7226548Y-26205643D01*
X7245595Y-26215167D01*
X7255119Y-26224690D01*
X7264643Y-26243738D01*
X7264643Y-26300881D01*
X7255119Y-26319928D01*
X7245595Y-26329452D01*
X7226548Y-26338976D01*
X7197976Y-26338976D01*
X7378928Y-26338976D02*
X7359881Y-26329452D01*
X7350357Y-26310405D01*
X7350357Y-26138976D01*
X7531309Y-26329452D02*
X7512262Y-26338976D01*
X7474167Y-26338976D01*
X7455119Y-26329452D01*
X7445595Y-26310405D01*
X7445595Y-26234214D01*
X7455119Y-26215167D01*
X7474167Y-26205643D01*
X7512262Y-26205643D01*
X7531309Y-26215167D01*
X7540833Y-26234214D01*
X7540833Y-26253262D01*
X7445595Y-26272309D01*
X7617024Y-26329452D02*
X7636071Y-26338976D01*
X7674167Y-26338976D01*
X7693214Y-26329452D01*
X7702738Y-26310405D01*
X7702738Y-26300881D01*
X7693214Y-26281833D01*
X7674167Y-26272309D01*
X7645595Y-26272309D01*
X7626548Y-26262786D01*
X7617024Y-26243738D01*
X7617024Y-26234214D01*
X7626548Y-26215167D01*
X7645595Y-26205643D01*
X7674167Y-26205643D01*
X7693214Y-26215167D01*
X7769405Y-26415167D02*
X7778928Y-26405643D01*
X7797976Y-26377071D01*
X7807500Y-26358024D01*
X7817024Y-26329452D01*
X7826548Y-26281833D01*
X7826548Y-26243738D01*
X7817024Y-26196119D01*
X7807500Y-26167548D01*
X7797976Y-26148500D01*
X7778928Y-26119928D01*
X7769405Y-26110405D01*
X8131309Y-26415167D02*
X8121786Y-26405643D01*
X8102738Y-26377071D01*
X8093214Y-26358024D01*
X8083690Y-26329452D01*
X8074167Y-26281833D01*
X8074167Y-26243738D01*
X8083690Y-26196119D01*
X8093214Y-26167548D01*
X8102738Y-26148500D01*
X8121786Y-26119928D01*
X8131309Y-26110405D01*
X8207500Y-26205643D02*
X8207500Y-26338976D01*
X8207500Y-26224690D02*
X8217024Y-26215167D01*
X8236071Y-26205643D01*
X8264643Y-26205643D01*
X8283690Y-26215167D01*
X8293214Y-26234214D01*
X8293214Y-26338976D01*
X8417024Y-26338976D02*
X8397976Y-26329452D01*
X8388452Y-26319928D01*
X8378928Y-26300881D01*
X8378928Y-26243738D01*
X8388452Y-26224690D01*
X8397976Y-26215167D01*
X8417024Y-26205643D01*
X8445595Y-26205643D01*
X8464643Y-26215167D01*
X8474167Y-26224690D01*
X8483690Y-26243738D01*
X8483690Y-26300881D01*
X8474167Y-26319928D01*
X8464643Y-26329452D01*
X8445595Y-26338976D01*
X8417024Y-26338976D01*
X8540833Y-26205643D02*
X8617024Y-26205643D01*
X8569405Y-26138976D02*
X8569405Y-26310405D01*
X8578929Y-26329452D01*
X8597976Y-26338976D01*
X8617024Y-26338976D01*
X8836071Y-26205643D02*
X8836071Y-26405643D01*
X8836071Y-26215167D02*
X8855119Y-26205643D01*
X8893214Y-26205643D01*
X8912262Y-26215167D01*
X8921786Y-26224690D01*
X8931310Y-26243738D01*
X8931310Y-26300881D01*
X8921786Y-26319928D01*
X8912262Y-26329452D01*
X8893214Y-26338976D01*
X8855119Y-26338976D01*
X8836071Y-26329452D01*
X9045595Y-26338976D02*
X9026548Y-26329452D01*
X9017024Y-26310405D01*
X9017024Y-26138976D01*
X9207500Y-26338976D02*
X9207500Y-26234214D01*
X9197976Y-26215167D01*
X9178929Y-26205643D01*
X9140833Y-26205643D01*
X9121786Y-26215167D01*
X9207500Y-26329452D02*
X9188452Y-26338976D01*
X9140833Y-26338976D01*
X9121786Y-26329452D01*
X9112262Y-26310405D01*
X9112262Y-26291357D01*
X9121786Y-26272309D01*
X9140833Y-26262786D01*
X9188452Y-26262786D01*
X9207500Y-26253262D01*
X9274167Y-26205643D02*
X9350357Y-26205643D01*
X9302738Y-26138976D02*
X9302738Y-26310405D01*
X9312262Y-26329452D01*
X9331310Y-26338976D01*
X9350357Y-26338976D01*
X9493214Y-26329452D02*
X9474167Y-26338976D01*
X9436071Y-26338976D01*
X9417024Y-26329452D01*
X9407500Y-26310405D01*
X9407500Y-26234214D01*
X9417024Y-26215167D01*
X9436071Y-26205643D01*
X9474167Y-26205643D01*
X9493214Y-26215167D01*
X9502738Y-26234214D01*
X9502738Y-26253262D01*
X9407500Y-26272309D01*
X9674167Y-26338976D02*
X9674167Y-26138976D01*
X9674167Y-26329452D02*
X9655119Y-26338976D01*
X9617024Y-26338976D01*
X9597976Y-26329452D01*
X9588452Y-26319928D01*
X9578929Y-26300881D01*
X9578929Y-26243738D01*
X9588452Y-26224690D01*
X9597976Y-26215167D01*
X9617024Y-26205643D01*
X9655119Y-26205643D01*
X9674167Y-26215167D01*
X9750357Y-26415167D02*
X9759881Y-26405643D01*
X9778929Y-26377071D01*
X9788452Y-26358024D01*
X9797976Y-26329452D01*
X9807500Y-26281833D01*
X9807500Y-26243738D01*
X9797976Y-26196119D01*
X9788452Y-26167548D01*
X9778929Y-26148500D01*
X9759881Y-26119928D01*
X9750357Y-26110405D01*
X2968211Y-26639211D02*
X2968211Y-26497789D01*
X2826789Y-26497789D01*
X2826789Y-26639211D01*
X2968211Y-26639211D01*
X3236071Y-26458976D02*
X3359881Y-26458976D01*
X3293214Y-26535167D01*
X3321786Y-26535167D01*
X3340833Y-26544690D01*
X3350357Y-26554214D01*
X3359881Y-26573262D01*
X3359881Y-26620881D01*
X3350357Y-26639928D01*
X3340833Y-26649452D01*
X3321786Y-26658976D01*
X3264643Y-26658976D01*
X3245595Y-26649452D01*
X3236071Y-26639928D01*
X3445595Y-26639928D02*
X3455119Y-26649452D01*
X3445595Y-26658976D01*
X3436071Y-26649452D01*
X3445595Y-26639928D01*
X3445595Y-26658976D01*
X3531309Y-26478024D02*
X3540833Y-26468500D01*
X3559881Y-26458976D01*
X3607500Y-26458976D01*
X3626548Y-26468500D01*
X3636071Y-26478024D01*
X3645595Y-26497071D01*
X3645595Y-26516119D01*
X3636071Y-26544690D01*
X3521786Y-26658976D01*
X3645595Y-26658976D01*
X3826548Y-26458976D02*
X3731309Y-26458976D01*
X3721786Y-26554214D01*
X3731309Y-26544690D01*
X3750357Y-26535167D01*
X3797976Y-26535167D01*
X3817024Y-26544690D01*
X3826548Y-26554214D01*
X3836071Y-26573262D01*
X3836071Y-26620881D01*
X3826548Y-26639928D01*
X3817024Y-26649452D01*
X3797976Y-26658976D01*
X3750357Y-26658976D01*
X3731309Y-26649452D01*
X3721786Y-26639928D01*
X3959881Y-26458976D02*
X3978928Y-26458976D01*
X3997976Y-26468500D01*
X4007500Y-26478024D01*
X4017024Y-26497071D01*
X4026548Y-26535167D01*
X4026548Y-26582786D01*
X4017024Y-26620881D01*
X4007500Y-26639928D01*
X3997976Y-26649452D01*
X3978928Y-26658976D01*
X3959881Y-26658976D01*
X3940833Y-26649452D01*
X3931309Y-26639928D01*
X3921786Y-26620881D01*
X3912262Y-26582786D01*
X3912262Y-26535167D01*
X3921786Y-26497071D01*
X3931309Y-26478024D01*
X3940833Y-26468500D01*
X3959881Y-26458976D01*
X4112262Y-26658976D02*
X4112262Y-26525643D01*
X4112262Y-26544690D02*
X4121786Y-26535167D01*
X4140833Y-26525643D01*
X4169405Y-26525643D01*
X4188452Y-26535167D01*
X4197976Y-26554214D01*
X4197976Y-26658976D01*
X4197976Y-26554214D02*
X4207500Y-26535167D01*
X4226548Y-26525643D01*
X4255119Y-26525643D01*
X4274167Y-26535167D01*
X4283690Y-26554214D01*
X4283690Y-26658976D01*
X4378929Y-26658976D02*
X4378929Y-26525643D01*
X4378929Y-26544690D02*
X4388452Y-26535167D01*
X4407500Y-26525643D01*
X4436071Y-26525643D01*
X4455119Y-26535167D01*
X4464643Y-26554214D01*
X4464643Y-26658976D01*
X4464643Y-26554214D02*
X4474167Y-26535167D01*
X4493214Y-26525643D01*
X4521786Y-26525643D01*
X4540833Y-26535167D01*
X4550357Y-26554214D01*
X4550357Y-26658976D01*
X4940833Y-26449452D02*
X4769405Y-26706595D01*
X5197976Y-26458976D02*
X5217024Y-26458976D01*
X5236071Y-26468500D01*
X5245595Y-26478024D01*
X5255119Y-26497071D01*
X5264643Y-26535167D01*
X5264643Y-26582786D01*
X5255119Y-26620881D01*
X5245595Y-26639928D01*
X5236071Y-26649452D01*
X5217024Y-26658976D01*
X5197976Y-26658976D01*
X5178929Y-26649452D01*
X5169405Y-26639928D01*
X5159881Y-26620881D01*
X5150357Y-26582786D01*
X5150357Y-26535167D01*
X5159881Y-26497071D01*
X5169405Y-26478024D01*
X5178929Y-26468500D01*
X5197976Y-26458976D01*
X5350357Y-26639928D02*
X5359881Y-26649452D01*
X5350357Y-26658976D01*
X5340833Y-26649452D01*
X5350357Y-26639928D01*
X5350357Y-26658976D01*
X5550357Y-26658976D02*
X5436071Y-26658976D01*
X5493214Y-26658976D02*
X5493214Y-26458976D01*
X5474167Y-26487548D01*
X5455119Y-26506595D01*
X5436071Y-26516119D01*
X5626548Y-26478024D02*
X5636071Y-26468500D01*
X5655119Y-26458976D01*
X5702738Y-26458976D01*
X5721786Y-26468500D01*
X5731309Y-26478024D01*
X5740833Y-26497071D01*
X5740833Y-26516119D01*
X5731309Y-26544690D01*
X5617024Y-26658976D01*
X5740833Y-26658976D01*
X5855119Y-26544690D02*
X5836071Y-26535167D01*
X5826548Y-26525643D01*
X5817024Y-26506595D01*
X5817024Y-26497071D01*
X5826548Y-26478024D01*
X5836071Y-26468500D01*
X5855119Y-26458976D01*
X5893214Y-26458976D01*
X5912262Y-26468500D01*
X5921786Y-26478024D01*
X5931309Y-26497071D01*
X5931309Y-26506595D01*
X5921786Y-26525643D01*
X5912262Y-26535167D01*
X5893214Y-26544690D01*
X5855119Y-26544690D01*
X5836071Y-26554214D01*
X5826548Y-26563738D01*
X5817024Y-26582786D01*
X5817024Y-26620881D01*
X5826548Y-26639928D01*
X5836071Y-26649452D01*
X5855119Y-26658976D01*
X5893214Y-26658976D01*
X5912262Y-26649452D01*
X5921786Y-26639928D01*
X5931309Y-26620881D01*
X5931309Y-26582786D01*
X5921786Y-26563738D01*
X5912262Y-26554214D01*
X5893214Y-26544690D01*
X6055119Y-26458976D02*
X6074167Y-26458976D01*
X6093214Y-26468500D01*
X6102738Y-26478024D01*
X6112262Y-26497071D01*
X6121786Y-26535167D01*
X6121786Y-26582786D01*
X6112262Y-26620881D01*
X6102738Y-26639928D01*
X6093214Y-26649452D01*
X6074167Y-26658976D01*
X6055119Y-26658976D01*
X6036071Y-26649452D01*
X6026548Y-26639928D01*
X6017024Y-26620881D01*
X6007500Y-26582786D01*
X6007500Y-26535167D01*
X6017024Y-26497071D01*
X6026548Y-26478024D01*
X6036071Y-26468500D01*
X6055119Y-26458976D01*
X6197976Y-26458976D02*
X6197976Y-26497071D01*
X6274167Y-26458976D02*
X6274167Y-26497071D01*
X6569405Y-26735167D02*
X6559881Y-26725643D01*
X6540833Y-26697071D01*
X6531309Y-26678024D01*
X6521786Y-26649452D01*
X6512262Y-26601833D01*
X6512262Y-26563738D01*
X6521786Y-26516119D01*
X6531309Y-26487548D01*
X6540833Y-26468500D01*
X6559881Y-26439928D01*
X6569405Y-26430405D01*
X6636071Y-26478024D02*
X6645595Y-26468500D01*
X6664643Y-26458976D01*
X6712262Y-26458976D01*
X6731309Y-26468500D01*
X6740833Y-26478024D01*
X6750357Y-26497071D01*
X6750357Y-26516119D01*
X6740833Y-26544690D01*
X6626548Y-26658976D01*
X6750357Y-26658976D01*
X6988452Y-26658976D02*
X6988452Y-26458976D01*
X7074167Y-26658976D02*
X7074167Y-26554214D01*
X7064643Y-26535167D01*
X7045595Y-26525643D01*
X7017024Y-26525643D01*
X6997976Y-26535167D01*
X6988452Y-26544690D01*
X7197976Y-26658976D02*
X7178928Y-26649452D01*
X7169405Y-26639928D01*
X7159881Y-26620881D01*
X7159881Y-26563738D01*
X7169405Y-26544690D01*
X7178928Y-26535167D01*
X7197976Y-26525643D01*
X7226548Y-26525643D01*
X7245595Y-26535167D01*
X7255119Y-26544690D01*
X7264643Y-26563738D01*
X7264643Y-26620881D01*
X7255119Y-26639928D01*
X7245595Y-26649452D01*
X7226548Y-26658976D01*
X7197976Y-26658976D01*
X7378928Y-26658976D02*
X7359881Y-26649452D01*
X7350357Y-26630405D01*
X7350357Y-26458976D01*
X7531309Y-26649452D02*
X7512262Y-26658976D01*
X7474167Y-26658976D01*
X7455119Y-26649452D01*
X7445595Y-26630405D01*
X7445595Y-26554214D01*
X7455119Y-26535167D01*
X7474167Y-26525643D01*
X7512262Y-26525643D01*
X7531309Y-26535167D01*
X7540833Y-26554214D01*
X7540833Y-26573262D01*
X7445595Y-26592309D01*
X7617024Y-26649452D02*
X7636071Y-26658976D01*
X7674167Y-26658976D01*
X7693214Y-26649452D01*
X7702738Y-26630405D01*
X7702738Y-26620881D01*
X7693214Y-26601833D01*
X7674167Y-26592309D01*
X7645595Y-26592309D01*
X7626548Y-26582786D01*
X7617024Y-26563738D01*
X7617024Y-26554214D01*
X7626548Y-26535167D01*
X7645595Y-26525643D01*
X7674167Y-26525643D01*
X7693214Y-26535167D01*
X7769405Y-26735167D02*
X7778928Y-26725643D01*
X7797976Y-26697071D01*
X7807500Y-26678024D01*
X7817024Y-26649452D01*
X7826548Y-26601833D01*
X7826548Y-26563738D01*
X7817024Y-26516119D01*
X7807500Y-26487548D01*
X7797976Y-26468500D01*
X7778928Y-26439928D01*
X7769405Y-26430405D01*
X8131309Y-26735167D02*
X8121786Y-26725643D01*
X8102738Y-26697071D01*
X8093214Y-26678024D01*
X8083690Y-26649452D01*
X8074167Y-26601833D01*
X8074167Y-26563738D01*
X8083690Y-26516119D01*
X8093214Y-26487548D01*
X8102738Y-26468500D01*
X8121786Y-26439928D01*
X8131309Y-26430405D01*
X8207500Y-26525643D02*
X8207500Y-26658976D01*
X8207500Y-26544690D02*
X8217024Y-26535167D01*
X8236071Y-26525643D01*
X8264643Y-26525643D01*
X8283690Y-26535167D01*
X8293214Y-26554214D01*
X8293214Y-26658976D01*
X8417024Y-26658976D02*
X8397976Y-26649452D01*
X8388452Y-26639928D01*
X8378928Y-26620881D01*
X8378928Y-26563738D01*
X8388452Y-26544690D01*
X8397976Y-26535167D01*
X8417024Y-26525643D01*
X8445595Y-26525643D01*
X8464643Y-26535167D01*
X8474167Y-26544690D01*
X8483690Y-26563738D01*
X8483690Y-26620881D01*
X8474167Y-26639928D01*
X8464643Y-26649452D01*
X8445595Y-26658976D01*
X8417024Y-26658976D01*
X8540833Y-26525643D02*
X8617024Y-26525643D01*
X8569405Y-26458976D02*
X8569405Y-26630405D01*
X8578929Y-26649452D01*
X8597976Y-26658976D01*
X8617024Y-26658976D01*
X8836071Y-26525643D02*
X8836071Y-26725643D01*
X8836071Y-26535167D02*
X8855119Y-26525643D01*
X8893214Y-26525643D01*
X8912262Y-26535167D01*
X8921786Y-26544690D01*
X8931310Y-26563738D01*
X8931310Y-26620881D01*
X8921786Y-26639928D01*
X8912262Y-26649452D01*
X8893214Y-26658976D01*
X8855119Y-26658976D01*
X8836071Y-26649452D01*
X9045595Y-26658976D02*
X9026548Y-26649452D01*
X9017024Y-26630405D01*
X9017024Y-26458976D01*
X9207500Y-26658976D02*
X9207500Y-26554214D01*
X9197976Y-26535167D01*
X9178929Y-26525643D01*
X9140833Y-26525643D01*
X9121786Y-26535167D01*
X9207500Y-26649452D02*
X9188452Y-26658976D01*
X9140833Y-26658976D01*
X9121786Y-26649452D01*
X9112262Y-26630405D01*
X9112262Y-26611357D01*
X9121786Y-26592309D01*
X9140833Y-26582786D01*
X9188452Y-26582786D01*
X9207500Y-26573262D01*
X9274167Y-26525643D02*
X9350357Y-26525643D01*
X9302738Y-26458976D02*
X9302738Y-26630405D01*
X9312262Y-26649452D01*
X9331310Y-26658976D01*
X9350357Y-26658976D01*
X9493214Y-26649452D02*
X9474167Y-26658976D01*
X9436071Y-26658976D01*
X9417024Y-26649452D01*
X9407500Y-26630405D01*
X9407500Y-26554214D01*
X9417024Y-26535167D01*
X9436071Y-26525643D01*
X9474167Y-26525643D01*
X9493214Y-26535167D01*
X9502738Y-26554214D01*
X9502738Y-26573262D01*
X9407500Y-26592309D01*
X9674167Y-26658976D02*
X9674167Y-26458976D01*
X9674167Y-26649452D02*
X9655119Y-26658976D01*
X9617024Y-26658976D01*
X9597976Y-26649452D01*
X9588452Y-26639928D01*
X9578929Y-26620881D01*
X9578929Y-26563738D01*
X9588452Y-26544690D01*
X9597976Y-26535167D01*
X9617024Y-26525643D01*
X9655119Y-26525643D01*
X9674167Y-26535167D01*
X9750357Y-26735167D02*
X9759881Y-26725643D01*
X9778929Y-26697071D01*
X9788452Y-26678024D01*
X9797976Y-26649452D01*
X9807500Y-26601833D01*
X9807500Y-26563738D01*
X9797976Y-26516119D01*
X9788452Y-26487548D01*
X9778929Y-26468500D01*
X9759881Y-26439928D01*
X9750357Y-26430405D01*
X2897500Y-26988500D02*
X2997500Y-26888500D01*
X2897500Y-26788500D01*
X2797500Y-26888500D01*
X2897500Y-26988500D01*
X3340833Y-26845643D02*
X3340833Y-26978976D01*
X3293214Y-26769452D02*
X3245595Y-26912309D01*
X3369405Y-26912309D01*
X3445595Y-26959928D02*
X3455119Y-26969452D01*
X3445595Y-26978976D01*
X3436071Y-26969452D01*
X3445595Y-26959928D01*
X3445595Y-26978976D01*
X3521786Y-26778976D02*
X3645595Y-26778976D01*
X3578928Y-26855167D01*
X3607500Y-26855167D01*
X3626548Y-26864690D01*
X3636071Y-26874214D01*
X3645595Y-26893262D01*
X3645595Y-26940881D01*
X3636071Y-26959928D01*
X3626548Y-26969452D01*
X3607500Y-26978976D01*
X3550357Y-26978976D01*
X3531309Y-26969452D01*
X3521786Y-26959928D01*
X3769405Y-26778976D02*
X3788452Y-26778976D01*
X3807500Y-26788500D01*
X3817024Y-26798024D01*
X3826548Y-26817071D01*
X3836071Y-26855167D01*
X3836071Y-26902786D01*
X3826548Y-26940881D01*
X3817024Y-26959928D01*
X3807500Y-26969452D01*
X3788452Y-26978976D01*
X3769405Y-26978976D01*
X3750357Y-26969452D01*
X3740833Y-26959928D01*
X3731309Y-26940881D01*
X3721786Y-26902786D01*
X3721786Y-26855167D01*
X3731309Y-26817071D01*
X3740833Y-26798024D01*
X3750357Y-26788500D01*
X3769405Y-26778976D01*
X3959881Y-26778976D02*
X3978928Y-26778976D01*
X3997976Y-26788500D01*
X4007500Y-26798024D01*
X4017024Y-26817071D01*
X4026548Y-26855167D01*
X4026548Y-26902786D01*
X4017024Y-26940881D01*
X4007500Y-26959928D01*
X3997976Y-26969452D01*
X3978928Y-26978976D01*
X3959881Y-26978976D01*
X3940833Y-26969452D01*
X3931309Y-26959928D01*
X3921786Y-26940881D01*
X3912262Y-26902786D01*
X3912262Y-26855167D01*
X3921786Y-26817071D01*
X3931309Y-26798024D01*
X3940833Y-26788500D01*
X3959881Y-26778976D01*
X4112262Y-26978976D02*
X4112262Y-26845643D01*
X4112262Y-26864690D02*
X4121786Y-26855167D01*
X4140833Y-26845643D01*
X4169405Y-26845643D01*
X4188452Y-26855167D01*
X4197976Y-26874214D01*
X4197976Y-26978976D01*
X4197976Y-26874214D02*
X4207500Y-26855167D01*
X4226548Y-26845643D01*
X4255119Y-26845643D01*
X4274167Y-26855167D01*
X4283690Y-26874214D01*
X4283690Y-26978976D01*
X4378929Y-26978976D02*
X4378929Y-26845643D01*
X4378929Y-26864690D02*
X4388452Y-26855167D01*
X4407500Y-26845643D01*
X4436071Y-26845643D01*
X4455119Y-26855167D01*
X4464643Y-26874214D01*
X4464643Y-26978976D01*
X4464643Y-26874214D02*
X4474167Y-26855167D01*
X4493214Y-26845643D01*
X4521786Y-26845643D01*
X4540833Y-26855167D01*
X4550357Y-26874214D01*
X4550357Y-26978976D01*
X4940833Y-26769452D02*
X4769405Y-27026595D01*
X5197976Y-26778976D02*
X5217024Y-26778976D01*
X5236071Y-26788500D01*
X5245595Y-26798024D01*
X5255119Y-26817071D01*
X5264643Y-26855167D01*
X5264643Y-26902786D01*
X5255119Y-26940881D01*
X5245595Y-26959928D01*
X5236071Y-26969452D01*
X5217024Y-26978976D01*
X5197976Y-26978976D01*
X5178929Y-26969452D01*
X5169405Y-26959928D01*
X5159881Y-26940881D01*
X5150357Y-26902786D01*
X5150357Y-26855167D01*
X5159881Y-26817071D01*
X5169405Y-26798024D01*
X5178929Y-26788500D01*
X5197976Y-26778976D01*
X5350357Y-26959928D02*
X5359881Y-26969452D01*
X5350357Y-26978976D01*
X5340833Y-26969452D01*
X5350357Y-26959928D01*
X5350357Y-26978976D01*
X5550357Y-26978976D02*
X5436071Y-26978976D01*
X5493214Y-26978976D02*
X5493214Y-26778976D01*
X5474167Y-26807548D01*
X5455119Y-26826595D01*
X5436071Y-26836119D01*
X5721786Y-26778976D02*
X5683690Y-26778976D01*
X5664643Y-26788500D01*
X5655119Y-26798024D01*
X5636071Y-26826595D01*
X5626548Y-26864690D01*
X5626548Y-26940881D01*
X5636071Y-26959928D01*
X5645595Y-26969452D01*
X5664643Y-26978976D01*
X5702738Y-26978976D01*
X5721786Y-26969452D01*
X5731309Y-26959928D01*
X5740833Y-26940881D01*
X5740833Y-26893262D01*
X5731309Y-26874214D01*
X5721786Y-26864690D01*
X5702738Y-26855167D01*
X5664643Y-26855167D01*
X5645595Y-26864690D01*
X5636071Y-26874214D01*
X5626548Y-26893262D01*
X5836071Y-26978976D02*
X5874167Y-26978976D01*
X5893214Y-26969452D01*
X5902738Y-26959928D01*
X5921786Y-26931357D01*
X5931309Y-26893262D01*
X5931309Y-26817071D01*
X5921786Y-26798024D01*
X5912262Y-26788500D01*
X5893214Y-26778976D01*
X5855119Y-26778976D01*
X5836071Y-26788500D01*
X5826548Y-26798024D01*
X5817024Y-26817071D01*
X5817024Y-26864690D01*
X5826548Y-26883738D01*
X5836071Y-26893262D01*
X5855119Y-26902786D01*
X5893214Y-26902786D01*
X5912262Y-26893262D01*
X5921786Y-26883738D01*
X5931309Y-26864690D01*
X5997976Y-26778976D02*
X6121786Y-26778976D01*
X6055119Y-26855167D01*
X6083690Y-26855167D01*
X6102738Y-26864690D01*
X6112262Y-26874214D01*
X6121786Y-26893262D01*
X6121786Y-26940881D01*
X6112262Y-26959928D01*
X6102738Y-26969452D01*
X6083690Y-26978976D01*
X6026548Y-26978976D01*
X6007500Y-26969452D01*
X5997976Y-26959928D01*
X6197976Y-26778976D02*
X6197976Y-26817071D01*
X6274167Y-26778976D02*
X6274167Y-26817071D01*
X6569405Y-27055167D02*
X6559881Y-27045643D01*
X6540833Y-27017071D01*
X6531309Y-26998024D01*
X6521786Y-26969452D01*
X6512262Y-26921833D01*
X6512262Y-26883738D01*
X6521786Y-26836119D01*
X6531309Y-26807548D01*
X6540833Y-26788500D01*
X6559881Y-26759928D01*
X6569405Y-26750405D01*
X6674167Y-26864690D02*
X6655119Y-26855167D01*
X6645595Y-26845643D01*
X6636071Y-26826595D01*
X6636071Y-26817071D01*
X6645595Y-26798024D01*
X6655119Y-26788500D01*
X6674167Y-26778976D01*
X6712262Y-26778976D01*
X6731309Y-26788500D01*
X6740833Y-26798024D01*
X6750357Y-26817071D01*
X6750357Y-26826595D01*
X6740833Y-26845643D01*
X6731309Y-26855167D01*
X6712262Y-26864690D01*
X6674167Y-26864690D01*
X6655119Y-26874214D01*
X6645595Y-26883738D01*
X6636071Y-26902786D01*
X6636071Y-26940881D01*
X6645595Y-26959928D01*
X6655119Y-26969452D01*
X6674167Y-26978976D01*
X6712262Y-26978976D01*
X6731309Y-26969452D01*
X6740833Y-26959928D01*
X6750357Y-26940881D01*
X6750357Y-26902786D01*
X6740833Y-26883738D01*
X6731309Y-26874214D01*
X6712262Y-26864690D01*
X6988452Y-26978976D02*
X6988452Y-26778976D01*
X7074167Y-26978976D02*
X7074167Y-26874214D01*
X7064643Y-26855167D01*
X7045595Y-26845643D01*
X7017024Y-26845643D01*
X6997976Y-26855167D01*
X6988452Y-26864690D01*
X7197976Y-26978976D02*
X7178928Y-26969452D01*
X7169405Y-26959928D01*
X7159881Y-26940881D01*
X7159881Y-26883738D01*
X7169405Y-26864690D01*
X7178928Y-26855167D01*
X7197976Y-26845643D01*
X7226548Y-26845643D01*
X7245595Y-26855167D01*
X7255119Y-26864690D01*
X7264643Y-26883738D01*
X7264643Y-26940881D01*
X7255119Y-26959928D01*
X7245595Y-26969452D01*
X7226548Y-26978976D01*
X7197976Y-26978976D01*
X7378928Y-26978976D02*
X7359881Y-26969452D01*
X7350357Y-26950405D01*
X7350357Y-26778976D01*
X7531309Y-26969452D02*
X7512262Y-26978976D01*
X7474167Y-26978976D01*
X7455119Y-26969452D01*
X7445595Y-26950405D01*
X7445595Y-26874214D01*
X7455119Y-26855167D01*
X7474167Y-26845643D01*
X7512262Y-26845643D01*
X7531309Y-26855167D01*
X7540833Y-26874214D01*
X7540833Y-26893262D01*
X7445595Y-26912309D01*
X7617024Y-26969452D02*
X7636071Y-26978976D01*
X7674167Y-26978976D01*
X7693214Y-26969452D01*
X7702738Y-26950405D01*
X7702738Y-26940881D01*
X7693214Y-26921833D01*
X7674167Y-26912309D01*
X7645595Y-26912309D01*
X7626548Y-26902786D01*
X7617024Y-26883738D01*
X7617024Y-26874214D01*
X7626548Y-26855167D01*
X7645595Y-26845643D01*
X7674167Y-26845643D01*
X7693214Y-26855167D01*
X7769405Y-27055167D02*
X7778928Y-27045643D01*
X7797976Y-27017071D01*
X7807500Y-26998024D01*
X7817024Y-26969452D01*
X7826548Y-26921833D01*
X7826548Y-26883738D01*
X7817024Y-26836119D01*
X7807500Y-26807548D01*
X7797976Y-26788500D01*
X7778928Y-26759928D01*
X7769405Y-26750405D01*
X8131309Y-27055167D02*
X8121786Y-27045643D01*
X8102738Y-27017071D01*
X8093214Y-26998024D01*
X8083690Y-26969452D01*
X8074167Y-26921833D01*
X8074167Y-26883738D01*
X8083690Y-26836119D01*
X8093214Y-26807548D01*
X8102738Y-26788500D01*
X8121786Y-26759928D01*
X8131309Y-26750405D01*
X8207500Y-26845643D02*
X8207500Y-26978976D01*
X8207500Y-26864690D02*
X8217024Y-26855167D01*
X8236071Y-26845643D01*
X8264643Y-26845643D01*
X8283690Y-26855167D01*
X8293214Y-26874214D01*
X8293214Y-26978976D01*
X8417024Y-26978976D02*
X8397976Y-26969452D01*
X8388452Y-26959928D01*
X8378928Y-26940881D01*
X8378928Y-26883738D01*
X8388452Y-26864690D01*
X8397976Y-26855167D01*
X8417024Y-26845643D01*
X8445595Y-26845643D01*
X8464643Y-26855167D01*
X8474167Y-26864690D01*
X8483690Y-26883738D01*
X8483690Y-26940881D01*
X8474167Y-26959928D01*
X8464643Y-26969452D01*
X8445595Y-26978976D01*
X8417024Y-26978976D01*
X8540833Y-26845643D02*
X8617024Y-26845643D01*
X8569405Y-26778976D02*
X8569405Y-26950405D01*
X8578929Y-26969452D01*
X8597976Y-26978976D01*
X8617024Y-26978976D01*
X8836071Y-26845643D02*
X8836071Y-27045643D01*
X8836071Y-26855167D02*
X8855119Y-26845643D01*
X8893214Y-26845643D01*
X8912262Y-26855167D01*
X8921786Y-26864690D01*
X8931310Y-26883738D01*
X8931310Y-26940881D01*
X8921786Y-26959928D01*
X8912262Y-26969452D01*
X8893214Y-26978976D01*
X8855119Y-26978976D01*
X8836071Y-26969452D01*
X9045595Y-26978976D02*
X9026548Y-26969452D01*
X9017024Y-26950405D01*
X9017024Y-26778976D01*
X9207500Y-26978976D02*
X9207500Y-26874214D01*
X9197976Y-26855167D01*
X9178929Y-26845643D01*
X9140833Y-26845643D01*
X9121786Y-26855167D01*
X9207500Y-26969452D02*
X9188452Y-26978976D01*
X9140833Y-26978976D01*
X9121786Y-26969452D01*
X9112262Y-26950405D01*
X9112262Y-26931357D01*
X9121786Y-26912309D01*
X9140833Y-26902786D01*
X9188452Y-26902786D01*
X9207500Y-26893262D01*
X9274167Y-26845643D02*
X9350357Y-26845643D01*
X9302738Y-26778976D02*
X9302738Y-26950405D01*
X9312262Y-26969452D01*
X9331310Y-26978976D01*
X9350357Y-26978976D01*
X9493214Y-26969452D02*
X9474167Y-26978976D01*
X9436071Y-26978976D01*
X9417024Y-26969452D01*
X9407500Y-26950405D01*
X9407500Y-26874214D01*
X9417024Y-26855167D01*
X9436071Y-26845643D01*
X9474167Y-26845643D01*
X9493214Y-26855167D01*
X9502738Y-26874214D01*
X9502738Y-26893262D01*
X9407500Y-26912309D01*
X9674167Y-26978976D02*
X9674167Y-26778976D01*
X9674167Y-26969452D02*
X9655119Y-26978976D01*
X9617024Y-26978976D01*
X9597976Y-26969452D01*
X9588452Y-26959928D01*
X9578929Y-26940881D01*
X9578929Y-26883738D01*
X9588452Y-26864690D01*
X9597976Y-26855167D01*
X9617024Y-26845643D01*
X9655119Y-26845643D01*
X9674167Y-26855167D01*
X9750357Y-27055167D02*
X9759881Y-27045643D01*
X9778929Y-27017071D01*
X9788452Y-26998024D01*
X9797976Y-26969452D01*
X9807500Y-26921833D01*
X9807500Y-26883738D01*
X9797976Y-26836119D01*
X9788452Y-26807548D01*
X9778929Y-26788500D01*
X9759881Y-26759928D01*
X9750357Y-26750405D01*
M02*
