M48
; DRILL file {KiCad (6.0.8)} date Sat Oct 29 13:34:57 2022
; FORMAT={-:-/ absolute / inch / decimal}
; #@! TF.CreationDate,2022-10-29T13:34:57+01:00
; #@! TF.GenerationSoftware,Kicad,Pcbnew,(6.0.8)
; #@! TF.FileFunction,Plated,1,4,PTH
FMAT,2
INCH
; #@! TA.AperFunction,Plated,PTH,ViaDrill
T1C0.0098
; #@! TA.AperFunction,Plated,PTH,ComponentDrill
T2C0.0276
; #@! TA.AperFunction,Plated,PTH,ComponentDrill
T3C0.0295
; #@! TA.AperFunction,Plated,PTH,ComponentDrill
T4C0.0300
; #@! TA.AperFunction,Plated,PTH,ComponentDrill
T5C0.0315
; #@! TA.AperFunction,Plated,PTH,ComponentDrill
T6C0.0350
; #@! TA.AperFunction,Plated,PTH,ComponentDrill
T7C0.0354
; #@! TA.AperFunction,Plated,PTH,ComponentDrill
T8C0.0394
; #@! TA.AperFunction,Plated,PTH,ComponentDrill
T9C0.0433
; #@! TA.AperFunction,Plated,PTH,ComponentDrill
T10C0.0550
; #@! TA.AperFunction,Plated,PTH,ComponentDrill
T11C0.0591
; #@! TA.AperFunction,Plated,PTH,ComponentDrill
T12C0.0630
; #@! TA.AperFunction,Plated,PTH,ComponentDrill
T13C0.0906
; #@! TA.AperFunction,Plated,PTH,ComponentDrill
T14C0.1180
; #@! TA.AperFunction,Plated,PTH,ComponentDrill
T15C0.1260
%
G90
G05
T1
X1.3327Y-5.2067
X1.378Y-7.4882
X1.4075Y-1.8189
X1.4449Y-7.7303
X1.4449Y-8.8937
X1.4646Y-4.7008
X1.4685Y-9.065
X1.502Y-5.2067
X1.5354Y-4.6634
X1.5374Y-5.5472
X1.5374Y-5.8268
X1.6535Y-5.1614
X1.6831Y-8.5591
X1.7352Y-5.6506
X1.7638Y-5.2205
X1.8051Y-5.9783
X1.815Y-5.5866
X1.8563Y-5.7815
X1.9488Y-4.9488
X1.9508Y-5.1732
X1.9528Y-6.8524
X1.9547Y-6.0846
X2.0016Y-6.772
X2.002Y-7.2047
X2.0039Y-6.0846
X2.0236Y-8.6457
X2.0335Y-9.5197
X2.0512Y-8.0689
X2.0531Y-6.0846
X2.0531Y-6.8307
X2.065Y-5.2205
X2.065Y-7.6772
X2.0791Y-4.315
X2.0984Y-1.8957
X2.0984Y-8.7205
X2.1024Y-5.4311
X2.1043Y-6.0846
X2.1063Y-6.811
X2.1535Y-3.9843
X2.1535Y-5.4331
X2.1555Y-6.0827
X2.1555Y-6.8898
X2.185Y-9.185
X2.1988Y-3.9154
X2.1988Y-5.4331
X2.2047Y-6.0827
X2.2067Y-6.8701
X2.2146Y-9.2913
X2.2146Y-8.6457
X2.2441Y-4.0827
X2.2441Y-5.4311
X2.2559Y-5.9764
X2.2618Y-7.2047
X2.2913Y-5.4311
X2.3291Y-8.8657
X2.3346Y-5.4311
X2.3386Y-9.0138
X2.3504Y-9.2913
X2.3543Y-3.8366
X2.3543Y-3.9724
X2.3799Y-5.4311
X2.4232Y-4.0236
X2.4232Y-5.4311
X2.4272Y-5.8307
X2.4429Y-8.4646
X2.4449Y-7.874
X2.4469Y-7.6772
X2.4469Y-8.0709
X2.4469Y-8.2677
X2.4508Y-7.4803
X2.4665Y-1.622
X2.4685Y-4.8996
X2.4685Y-4.998
X2.502Y-5.6299
X2.5079Y-8.6457
X2.5098Y-3.7224
X2.5197Y-9.2894
X2.5315Y-6.1614
X2.5453Y-3.8839
X2.5591Y-8.6319
X2.5591Y-8.7047
X2.5886Y-5.9783
X2.6043Y-9.0217
X2.6063Y-3.4173
X2.6063Y-5.437
X2.6063Y-5.5591
X2.6122Y-9.2165
X2.6122Y-9.4173
X2.6378Y-6.0807
X2.6378Y-6.5748
X2.6457Y-8.8484
X2.6575Y-3.5768
X2.6575Y-5.4331
X2.6909Y-6.0807
X2.6909Y-6.6732
X2.7067Y-3.5157
X2.7067Y-5.4331
X2.7402Y-6.0827
X2.7402Y-6.4764
X2.7559Y-3.6831
X2.7559Y-5.4331
X2.7638Y-9.2913
X2.7717Y-8.6457
X2.7815Y-9.1654
X2.7894Y-6.0827
X2.7894Y-6.7539
X2.8071Y-3.6102
X2.8071Y-5.4331
X2.8327Y-9.2126
X2.8366Y-8.0138
X2.8366Y-8.1299
X2.8386Y-6.0827
X2.8386Y-6.6535
X2.8543Y-5.4331
X2.8563Y-2.2874
X2.872Y-2.3819
X2.876Y-8.8524
X2.876Y-8.9213
X2.876Y-9.0295
X2.876Y-9.1201
X2.8878Y-4.315
X2.8878Y-8.1299
X2.8898Y-6.0827
X2.8901Y-6.5548
X2.9016Y-2.2264
X2.9055Y-2.3268
X2.9094Y-3.3819
X2.9094Y-4.5827
X2.9094Y-9.2913
X2.9114Y-3.4862
X2.9114Y-3.5846
X2.9114Y-3.7854
X2.9114Y-3.8839
X2.9114Y-3.9843
X2.9114Y-4.0827
X2.9114Y-4.1831
X2.9114Y-4.4843
X2.9134Y-2.4823
X2.9134Y-2.5827
X2.9134Y-2.6831
X2.9134Y-2.7835
X2.9134Y-2.8858
X2.9134Y-2.9862
X2.9134Y-3.1791
X2.9134Y-3.2835
X2.9134Y-3.6831
X2.9134Y-4.2815
X2.9193Y-6.4961
X2.9331Y-7.8701
X2.937Y-8.0157
X2.937Y-8.2185
X2.939Y-5.1732
X2.9409Y-6.0827
X2.9409Y-6.7323
X2.9488Y-5.4449
X2.9902Y-5.5177
X2.9902Y-6.0827
X2.9902Y-6.6339
X3.002Y-9.2913
X3.0394Y-5.4823
X3.0394Y-5.9744
X3.1024Y-8.5039
X3.1535Y-5.1732
X3.1693Y-6.9882
X3.187Y-8.2165
X3.2205Y-7.5197
X3.2446Y-9.2574
X3.2559Y-5.5571
X3.2697Y-5.2205
X3.2736Y-3.6299
X3.2756Y-1.8957
X3.2872Y-3.549
X3.2984Y-3.95
X3.2998Y-3.849
X3.3012Y-8.2343
X3.3018Y-8.0774
X3.3023Y-4.448
X3.3043Y-2.55
X3.3045Y-4.149
X3.305Y-3.7502
X3.3055Y-2.85
X3.3063Y-2.95
X3.3083Y-4.548
X3.312Y-2.749
X3.3156Y-2.649
X3.3171Y-3.451
X3.3189Y-6.5354
X3.3248Y-3.252
X3.336Y-3.349
X3.3366Y-2.4272
X3.3386Y-9.2913
X3.3406Y-4.6555
X3.3602Y-9.0157
X3.3701Y-8.5039
X3.3701Y-8.7598
X3.376Y-5.9744
X3.3937Y-5.5551
X3.4014Y-4.76
X3.4193Y-7.4843
X3.4252Y-9.628
X3.4272Y-6.0827
X3.4272Y-7.0925
X3.4449Y-9.3406
X3.4508Y-1.8307
X3.4508Y-4.8898
X3.4764Y-6.0827
X3.4764Y-6.9882
X3.4941Y-3.6299
X3.4941Y-5.5512
X3.498Y-7.9134
X3.5177Y-8.8012
X3.5197Y-9.0531
X3.5197Y-9.5276
X3.5217Y-7.5197
X3.5276Y-6.0827
X3.5276Y-6.5354
X3.5512Y-3.1811
X3.5512Y-5.5512
X3.563Y-8.5531
X3.5768Y-6.0827
X3.5768Y-6.6142
X3.5906Y-8.6024
X3.6004Y-3.1004
X3.6004Y-5.5512
X3.626Y-6.0827
X3.626Y-6.5157
X3.6339Y-7.9134
X3.6555Y-3.2835
X3.6555Y-5.5512
X3.6772Y-6.0827
X3.6772Y-6.5945
X3.6886Y-8.4524
X3.7047Y-1.7795
X3.7047Y-7.9134
X3.7087Y-3.2126
X3.7087Y-5.5512
X3.7264Y-9.0157
X3.7283Y-6.0827
X3.7283Y-6.6929
X3.7559Y-3.3839
X3.7559Y-5.5512
X3.7677Y-7.0709
X3.7717Y-7.8051
X3.7776Y-6.0827
X3.7776Y-6.4961
X3.7894Y-2.5
X3.8091Y-3.315
X3.8091Y-5.5512
X3.8169Y-2.313
X3.8228Y-2.5807
X3.8287Y-5.9764
X3.8386Y-7.9134
X3.8484Y-8.7972
X3.8583Y-3.4843
X3.8583Y-5.5512
X3.8681Y-8.4528
X3.8917Y-4.8996
X3.9035Y-7.9154
X3.9114Y-8.7992
X3.9134Y-6.2008
X3.9587Y-4.2205
X3.9724Y-7.5059
X3.9764Y-2.4173
X3.9764Y-4.372
X3.9764Y-6.9488
X4.0098Y-2.187
X4.0098Y-2.2539
X4.0102Y-2.1
X4.0236Y-2.313
X4.0236Y-2.3839
X4.0236Y-7.4016
X4.0413Y-7.9154
X4.0492Y-4.6142
X4.0492Y-5.4902
X4.0728Y-6.9488
X4.0728Y-8.0295
X4.0807Y-9.0157
X4.1053Y-7.9154
X4.1102Y-2.4823
X4.1102Y-2.7835
X4.1102Y-3.1791
X4.1102Y-3.2854
X4.1122Y-2.6909
X4.1122Y-2.8858
X4.1122Y-2.9843
X4.1122Y-3.3839
X4.1122Y-3.4843
X4.1122Y-3.5866
X4.1122Y-3.6811
X4.1122Y-3.7854
X4.1122Y-3.8839
X4.1122Y-3.9843
X4.1122Y-4.0807
X4.1122Y-4.4823
X4.1142Y-2.5866
X4.1142Y-4.1831
X4.1142Y-4.2835
X4.1142Y-4.5846
X4.1417Y-5.1732
X4.1457Y-9.2126
X4.1614Y-5.4665
X4.1673Y-5.5925
X4.1929Y-9.7421
X4.2146Y-8.685
X4.2205Y-6.9488
X4.2421Y-5.7283
X4.2461Y-6.122
X4.2461Y-7.187
X4.2756Y-6.2992
X4.2756Y-7.5315
X4.2874Y-5.9783
X4.2874Y-8.5669
X4.2913Y-5.5669
X4.2953Y-9.2087
X4.3012Y-7.126
X4.3012Y-7.4862
X4.3366Y-6.9094
X4.3386Y-6.0787
X4.3484Y-5.1732
X4.3622Y-6.3189
X4.3866Y-5.6193
X4.3878Y-6.0787
X4.3878Y-6.9291
X4.4114Y-8.685
X4.4213Y-7.4862
X4.4213Y-8.3071
X4.4366Y-5.6205
X4.437Y-5.4134
X4.437Y-6.0787
X4.437Y-6.9469
X4.4705Y-5.2205
X4.4724Y-6.3386
X4.4783Y-1.8957
X4.4862Y-4.7717
X4.4862Y-6.0787
X4.4866Y-5.6165
X4.4921Y-4.2835
X4.4941Y-9.2087
X4.502Y-4.874
X4.502Y-7.1457
X4.5197Y-2.4488
X4.5217Y-8.3268
X4.5256Y-3.752
X4.5256Y-4.4488
X4.5276Y-2.5492
X4.5276Y-3.5492
X4.5276Y-3.8504
X4.5276Y-3.9488
X4.5276Y-4.1496
X4.5276Y-4.5472
X4.5295Y-2.3386
X4.5295Y-2.6496
X4.5295Y-2.8504
X4.5295Y-3.3504
X4.5295Y-3.4528
X4.5295Y-3.6496
X4.5315Y-2.9508
X4.5315Y-3.248
X4.5335Y-3.1457
X4.5374Y-2.748
X4.5374Y-5.6181
X4.5394Y-2.2382
X4.565Y-6.2795
X4.5709Y-7.8504
X4.5709Y-8.6024
X4.5866Y-5.6161
X4.5866Y-9.252
X4.624Y-8.3504
X4.628Y-6.3583
X4.6378Y-4.2205
X4.6378Y-5.6161
X4.6634Y-6.2598
X4.6654Y-4.9626
X4.6752Y-8.0295
X4.687Y-6.0787
X4.689Y-9.1929
X4.6909Y-4.3425
X4.6949Y-7.0256
X4.7205Y-8.3681
X4.7264Y-6.378
X4.7287Y-4.648
X4.7362Y-5.9764
X4.752Y-9.0945
X4.7539Y-4.7717
X4.7854Y-6.2402
X4.7972Y-5.0512
X4.7972Y-5.5571
X4.8114Y-6.3973
X4.8209Y-8.2795
X4.8425Y-6.122
X4.8425Y-7.2638
X4.8602Y-1.565
X4.874Y-6.4154
X4.8937Y-9.0945
X4.9016Y-1.5945
X4.9016Y-6.1614
X4.9213Y-7.3051
X4.9262Y-8.2579
X4.9705Y-4.748
X4.9705Y-5.4213
X4.9724Y-6.437
X4.9862Y-9.0945
X5.0207Y-8.2362
X5.0728Y-6.4547
X5.0886Y-9.1535
X5.1004Y-2.7697
X5.123Y-8.2126
X5.1319Y-9.0945
X5.1752Y-5.7776
X5.1752Y-9.0748
X5.1772Y-4.6713
X5.1772Y-4.7323
X5.1811Y-4.9016
X5.1811Y-5.002
X5.2047Y-2.4488
X5.2047Y-9.0551
X5.2106Y-2.3484
X5.2106Y-2.5492
X5.2146Y-2.6496
X5.2146Y-5.939
X5.2185Y-4.6181
X5.2185Y-5.4213
X5.2224Y-7.3898
X5.2382Y-5.6791
X5.2579Y-4.9016
X5.2598Y-1.6299
X5.2756Y-5.8228
X5.2894Y-7.9528
X5.2915Y-5.5021
X5.2953Y-7.126
X5.2953Y-7.6378
X5.3002Y-8.2146
X5.3091Y-4.4823
X5.311Y-3.3819
X5.311Y-3.9803
X5.311Y-4.5807
X5.313Y-2.9783
X5.313Y-3.2835
X5.313Y-3.4843
X5.313Y-3.5748
X5.313Y-3.8819
X5.313Y-4.2835
X5.315Y-3.1772
X5.315Y-3.6772
X5.315Y-3.7835
X5.315Y-4.0787
X5.315Y-4.1791
X5.315Y-7.1457
X5.315Y-7.6909
X5.3169Y-2.8799
X5.3189Y-2.7756
X5.3209Y-2.2539
X5.3209Y-2.376
X5.3209Y-4.9685
X5.3228Y-2.4732
X5.3228Y-2.5807
X5.3228Y-2.6791
X5.3307Y-5.1732
X5.3425Y-7.3051
X5.3425Y-7.8504
X5.374Y-7.0925
X5.374Y-7.4882
X5.3915Y-5.5219
X5.3976Y-5.7815
X5.3986Y-8.2382
X5.4272Y-7.9528
X5.4469Y-5.7815
X5.4508Y-6.0728
X5.498Y-5.7815
X5.499Y-8.2579
X5.5138Y-6.2008
X5.5433Y-6.2205
X5.5472Y-5.7815
X5.5492Y-5.1732
X5.5709Y-6.1614
X5.5787Y-5.6791
X5.5906Y-6.1811
X5.5974Y-8.2776
X5.5984Y-5.7815
X5.5984Y-5.8858
X5.5984Y-6.0689
X5.6476Y-1.8819
X5.6476Y-5.7815
X5.6476Y-5.9862
X5.6516Y-6.1417
X5.6772Y-5.2205
X5.685Y-8.5039
X5.689Y-4.0472
X5.689Y-4.1378
X5.6909Y-5.5453
X5.7008Y-8.9331
X5.7205Y-8.5374
X5.7264Y-6.0827
X5.7362Y-4.5728
X5.7421Y-5.315
X5.748Y-6.122
X5.75Y-8.4154
X5.7677Y-6.1024
X5.7736Y-4.9311
X5.7736Y-5.374
X5.7854Y-5.7087
X5.7933Y-5.4193
X5.8346Y-7.0256
X5.8346Y-7.8858
X5.8425Y-4.1535
X5.8425Y-4.7067
X5.8642Y-5.8209
X5.8898Y-4.2047
X5.8898Y-4.7657
X5.8915Y-5.7089
X5.9193Y-4.8898
X5.935Y-7.0709
X5.9429Y-4.813
X5.9567Y-5.5197
X5.9665Y-5.6201
X5.9803Y-1.565
X5.9803Y-2.3799
X5.9803Y-4.4783
X5.9823Y-4.3602
X5.9843Y-4.9272
X5.9941Y-4.1732
X6.0118Y-2.4921
X6.0118Y-2.5433
X6.0118Y-2.5945
X6.0118Y-2.6437
X6.0118Y-2.6929
X6.0118Y-2.7421
X6.0118Y-2.7933
X6.0118Y-2.8445
X6.0157Y-4.6614
X6.0217Y-3.1909
X6.0217Y-3.2421
X6.0217Y-3.2913
X6.0217Y-3.3406
X6.0217Y-3.3917
X6.0217Y-3.4409
X6.0217Y-3.4921
X6.0236Y-3.1417
X6.0236Y-7.9626
X6.0236Y-8.0984
X6.0433Y-7.0177
X6.0433Y-7.1535
X6.0728Y-5.4941
X6.0748Y-1.7323
X6.0827Y-4.3307
X6.1083Y-5.5709
X6.1102Y-2.3031
X6.1161Y-2.9429
X6.1181Y-5.7874
X6.1181Y-5.8701
X6.1201Y-6.9882
X6.124Y-4.2224
X6.126Y-3.5906
X6.126Y-4.8602
X6.1299Y-4.3976
X6.1331Y-5.2213
X6.1339Y-5.7598
X6.1417Y-6.6142
X6.1535Y-2.252
X6.1535Y-2.8937
X6.1535Y-3.5413
X6.1535Y-4.1713
X6.1772Y-6.5945
X6.189Y-4.7087
X6.2028Y-6.6929
X6.2106Y-4.5098
X6.2126Y-1.7323
X6.25Y-6.5728
X6.25Y-8.9331
X6.2539Y-1.6654
X6.2697Y-6.5354
X6.2795Y-5.374
X6.2795Y-5.6319
X6.2953Y-1.7323
X6.3071Y-6.5157
X6.3386Y-2.3031
X6.3386Y-2.9429
X6.3386Y-3.5906
X6.3406Y-4.2205
X6.3406Y-4.2933
X6.3504Y-6.6732
X6.378Y-1.8543
X6.378Y-2.4961
X6.3858Y-5.7795
X6.3917Y-3.7717
X6.3917Y-4.4587
X6.3937Y-3.1417
X6.4016Y-6.4961
X6.4291Y-1.7323
X6.4508Y-6.4764
X6.4547Y-5.6516
X6.4724Y-8.3701
X6.4843Y-5.0
X6.4843Y-5.3524
X6.4941Y-8.3504
X6.5Y-6.5157
X6.5Y-7.3366
X6.5177Y-4.3957
X6.5177Y-5.7795
X6.5217Y-8.3268
X6.523Y-2.435
X6.5276Y-4.5846
X6.5276Y-5.2283
X6.5374Y-3.7096
X6.5407Y-3.0984
X6.5472Y-8.3071
X6.5512Y-6.6535
X6.5945Y-4.2126
X6.5978Y-2.435
X6.6004Y-6.7539
X6.6339Y-4.2697
X6.6339Y-4.7047
X6.6339Y-6.0236
X6.645Y-3.1299
X6.6457Y-3.747
X6.6496Y-6.7323
X6.6634Y-4.6791
X6.6634Y-6.0433
X6.6929Y-3.622
X6.6929Y-5.1949
X6.7008Y-6.5551
X6.7244Y-4.5256
X6.7244Y-4.8996
X6.7244Y-5.252
X6.75Y-6.7913
X6.7894Y-3.6024
X6.7894Y-4.6319
X6.8012Y-6.6358
X6.811Y-3.5413
X6.811Y-4.7244
X6.8307Y-3.4902
X6.8307Y-5.0
X6.8504Y-3.4409
X6.8504Y-5.0197
X6.8661Y-5.1575
X6.8701Y-3.3917
X6.8701Y-5.0394
X6.8898Y-3.3425
X6.8898Y-5.1181
X6.8976Y-6.7126
X6.8996Y-8.0433
X6.9094Y-3.2913
X6.9094Y-5.0591
X6.9094Y-9.3228
X6.9291Y-3.2421
X6.9291Y-5.0787
X6.9488Y-3.1909
X6.9488Y-5.0984
X6.9508Y-6.7717
X6.9685Y-2.8937
X6.9685Y-5.6693
X6.9685Y-6.0827
X6.9882Y-2.8445
X6.9882Y-5.6102
X6.9882Y-6.1024
X7.0Y-6.8524
X7.0039Y-8.8957
X7.0079Y-2.7953
X7.0079Y-5.6299
X7.0079Y-6.122
X7.0256Y-8.9646
X7.0276Y-2.7441
X7.0276Y-5.5906
X7.0276Y-6.1417
X7.0472Y-2.6929
X7.0472Y-5.6496
X7.0472Y-6.1614
X7.0531Y-8.6024
X7.0669Y-2.6437
X7.0669Y-5.5512
X7.0669Y-6.1811
X7.0866Y-2.5945
X7.0866Y-5.5315
X7.0866Y-6.2008
X7.1004Y-6.8307
X7.1004Y-7.9902
X7.1063Y-2.5433
X7.1063Y-5.5709
X7.1063Y-6.2205
X7.126Y-1.9055
X7.126Y-3.1929
X7.126Y-6.4547
X7.1398Y-9.0177
X7.1457Y-1.9547
X7.1457Y-3.1673
X7.1457Y-6.437
X7.1496Y-6.811
X7.1654Y-2.0059
X7.1654Y-3.1437
X7.1654Y-6.4154
X7.1693Y-7.2205
X7.1693Y-7.6378
X7.185Y-2.0531
X7.185Y-3.1161
X7.185Y-6.3976
X7.1978Y-7.6152
X7.1988Y-7.1949
X7.2047Y-2.1043
X7.2047Y-3.0906
X7.2047Y-6.378
X7.2244Y-2.1535
X7.2244Y-3.0669
X7.2244Y-6.3583
X7.2441Y-2.2028
X7.2441Y-3.0157
X7.2441Y-6.3386
X7.25Y-8.3445
X7.25Y-8.6024
X7.252Y-6.8701
X7.2657Y-2.2539
X7.2657Y-2.9902
X7.2677Y-6.3228
X7.2835Y-5.3031
X7.2835Y-6.2992
X7.2837Y-3.8386
X7.2933Y-6.8917
X7.2992Y-9.3091
X7.3031Y-3.435
X7.3031Y-3.8583
X7.3031Y-5.3524
X7.3031Y-6.2795
X7.3051Y-2.7618
X7.3209Y-6.9094
X7.3228Y-3.878
X7.3228Y-5.3799
X7.3228Y-6.2598
X7.3425Y-3.8976
X7.3425Y-5.4331
X7.3425Y-6.2402
X7.3504Y-6.9291
X7.3504Y-8.8976
X7.3622Y-3.9173
X7.3622Y-5.4528
X7.3701Y-2.4075
X7.3819Y-1.498
X7.3819Y-1.6949
X7.3819Y-3.937
X7.3819Y-5.4724
X7.3976Y-6.9685
X7.4016Y-3.9567
X7.4016Y-5.4921
X7.4016Y-5.8701
X7.4114Y-2.7244
X7.4213Y-3.9764
X7.4213Y-5.5118
X7.4262Y-7.0089
X7.4272Y-8.4311
X7.4488Y-6.5354
X7.4488Y-8.9646
X7.4508Y-6.9469
X7.4528Y-3.6417
X7.4803Y-6.6142
X7.5059Y-6.5157
X7.5118Y-7.0276
X7.5118Y-7.3878
X7.5217Y-3.0394
X7.5335Y-2.8858
X7.5335Y-2.9646
X7.5374Y-6.5945
X7.5394Y-7.0472
X7.5394Y-7.5
X7.5394Y-7.5768
X7.5394Y-7.7953
X7.5472Y-7.937
X7.5787Y-4.3701
X7.5984Y-7.2815
X7.5984Y-7.5374
X7.6004Y-3.4823
X7.6004Y-7.8386
X7.6122Y-2.1772
X7.626Y-3.3386
X7.6358Y-2.4094
X7.6358Y-7.8307
X7.6496Y-3.4843
X7.6555Y-8.2244
X7.6555Y-8.2992
X7.6614Y-7.0669
X7.6614Y-7.2598
X7.6772Y-3.4843
X7.6909Y-2.0866
X7.6909Y-6.9882
X7.6909Y-7.2185
X7.6909Y-7.2539
X7.6909Y-7.7657
X7.6949Y-2.6083
X7.7008Y-3.5
X7.7165Y-7.1063
X7.7165Y-7.437
X7.7283Y-3.4862
X7.7539Y-2.6535
X7.7539Y-5.4528
X7.7795Y-3.4941
X7.8012Y-8.5433
X7.8248Y-2.3524
X7.8504Y-8.4449
X7.8563Y-7.2264
X7.8563Y-7.689
X7.8602Y-2.0846
X7.8701Y-2.313
X7.8799Y-3.4921
X7.8819Y-2.6535
X7.8917Y-2.8346
X7.8996Y-8.6417
X7.935Y-2.2323
X7.9488Y-8.4213
X7.9764Y-7.4843
X7.9764Y-7.9469
X7.9764Y-8.2283
X8.0Y-8.622
X8.0079Y-2.187
X8.0236Y-5.5118
X8.0276Y-7.9469
X8.0276Y-8.248
X8.0492Y-5.4921
X8.0512Y-8.3839
X8.061Y-3.4921
X8.0768Y-7.9469
X8.0768Y-8.2677
X8.0807Y-2.2638
X8.0886Y-5.4724
X8.0965Y-2.6378
X8.1004Y-8.6024
X8.1122Y-8.2087
X8.122Y-5.435
X8.128Y-7.9469
X8.1437Y-2.3957
X8.1437Y-2.9272
X8.15Y-8.5102
X8.1634Y-4.9587
X8.1772Y-7.9469
X8.1791Y-2.9783
X8.1909Y-2.3957
X8.1929Y-2.6378
X8.2008Y-8.5827
X8.2028Y-3.0197
X8.2124Y-3.5827
X8.2126Y-3.4843
X8.2165Y-2.8878
X8.2264Y-7.6181
X8.2264Y-7.9469
X8.2264Y-8.3858
X8.2323Y-2.3524
X8.2402Y-3.4843
X8.2402Y-3.6024
X8.2461Y-2.5295
X8.25Y-9.1929
X8.2717Y-1.6319
X8.2776Y-7.9469
X8.2776Y-8.2874
X8.2776Y-8.4193
X8.2953Y-3.435
X8.3012Y-7.313
X8.3012Y-8.4449
X8.3209Y-1.7165
X8.3248Y-8.2087
X8.3268Y-7.9469
X8.3445Y-2.752
X8.35Y-9.1551
X8.3504Y-8.2677
X8.3524Y-6.2992
X8.3789Y-7.8445
X8.3996Y-4.6555
X8.4016Y-8.563
X8.4055Y-1.4449
X8.4094Y-3.3091
X8.4213Y-2.752
X8.4232Y-3.4331
X8.4252Y-7.5787
X8.4449Y-4.8228
X8.4449Y-4.9941
X8.4488Y-8.248
X8.45Y-9.0736
X8.4744Y-4.311
X8.4852Y-7.998
X8.5Y-5.4035
X8.5079Y-2.5276
X8.5256Y-8.0079
X8.5433Y-1.4429
X8.5492Y-5.3799
X8.5492Y-7.6161
X8.5492Y-7.9685
X8.5492Y-8.2283
X8.55Y-9.0543
X8.5748Y-3.563
X8.5748Y-7.0866
X8.6012Y-7.4713
X8.6181Y-3.4311
X8.6417Y-7.622
X8.6516Y-7.8346
X8.6614Y-3.8386
X8.6624Y-3.1939
X8.6811Y-3.1693
X8.6811Y-3.8583
X8.7008Y-3.1427
X8.7008Y-3.878
X8.7165Y-7.6201
X8.7195Y-3.1171
X8.7205Y-3.8976
X8.7382Y-8.4862
X8.7392Y-3.0915
X8.7402Y-3.9173
X8.7559Y-5.0
X8.7598Y-3.937
X8.7608Y-3.0659
X8.7785Y-3.0404
X8.7795Y-3.9567
X8.7933Y-5.0787
X8.7992Y-3.9764
X8.8002Y-3.0148
X8.8189Y-7.313
X8.8386Y-3.6417
X8.8465Y-4.1732
X8.8504Y-7.8346
X8.8524Y-7.6378
X8.8524Y-8.4646
X8.8661Y-3.4764
X8.8661Y-3.622
X8.8898Y-6.9882
X8.9016Y-7.6378
X8.9016Y-7.8346
X8.9055Y-7.2815
X8.9055Y-7.5315
X8.9134Y-4.8622
X8.9134Y-6.9685
X8.9232Y-3.9409
X8.9272Y-3.7323
X8.935Y-4.8425
X8.935Y-6.9469
X8.935Y-7.2539
X8.935Y-7.3898
X8.9423Y-2.7821
X8.9528Y-7.9272
X8.9567Y-4.8228
X8.9567Y-6.9291
X8.9626Y-3.5256
X8.9724Y-3.8425
X8.9764Y-2.5925
X8.9764Y-4.8031
X8.9764Y-6.9094
X8.9783Y-4.1516
X8.9961Y-4.7835
X8.9961Y-6.8917
X9.002Y-3.6398
X9.0059Y-9.1437
X9.0157Y-4.7638
X9.0157Y-6.8701
X9.0217Y-3.9409
X9.0236Y-3.8425
X9.0354Y-4.7441
X9.0354Y-6.811
X9.0551Y-4.7244
X9.0551Y-6.8307
X9.0551Y-7.0079
X9.0551Y-8.1693
X9.0728Y-3.4469
X9.0728Y-3.75
X9.0748Y-6.5354
X9.0748Y-8.1496
X9.0787Y-4.2756
X9.0866Y-2.2047
X9.0866Y-6.2795
X9.0965Y-6.6142
X9.0965Y-8.1299
X9.1004Y-8.4862
X9.1142Y-7.5079
X9.1142Y-7.7539
X9.124Y-2.439
X9.124Y-3.2441
X9.124Y-3.75
X9.124Y-3.939
X9.1319Y-1.752
X9.1358Y-6.5157
X9.1358Y-7.5591
X9.1437Y-9.1437
X9.1535Y-6.5945
X9.1535Y-7.5787
X9.1732Y-3.6024
X9.1732Y-3.75
X9.1732Y-6.6929
X9.1732Y-7.5984
X9.1811Y-8.8858
X9.1929Y-6.4961
X9.1929Y-7.6181
X9.2126Y-6.5728
X9.2126Y-7.6378
X9.2224Y-2.2047
X9.2244Y-3.5827
X9.2244Y-3.75
X9.2244Y-3.939
X9.2323Y-6.5551
X9.2323Y-7.6575
X9.2421Y-9.1437
X9.252Y-4.7047
X9.252Y-6.6358
X9.252Y-7.6772
X9.2717Y-1.7165
X9.2717Y-4.6654
X9.2717Y-6.7126
X9.2717Y-7.6969
X9.2913Y-4.685
X9.2913Y-6.7717
X9.2913Y-7.7165
X9.2992Y-8.4646
X9.311Y-6.7539
X9.311Y-8.1102
X9.3307Y-6.6535
X9.3307Y-7.9547
X9.3307Y-8.0906
X9.3504Y-6.4764
X9.3504Y-7.9744
X9.3504Y-8.0709
X9.3701Y-6.6732
X9.3701Y-7.9921
X9.374Y-2.122
X9.374Y-2.8661
X9.374Y-4.5256
X9.3858Y-9.1437
X9.3898Y-6.7323
X9.3898Y-8.0512
X9.4016Y-8.8602
X9.4094Y-6.7913
X9.4094Y-8.0315
X9.4173Y-4.0079
X9.4252Y-3.2441
X9.4291Y-6.8524
X9.4291Y-7.7579
X9.4311Y-8.0118
X9.4488Y-4.2717
X9.4488Y-7.1063
X9.4744Y-1.8327
X9.4744Y-2.5157
X9.5413Y-1.8445
X9.5591Y-1.9114
X9.561Y-2.6398
X9.5669Y-5.1378
X9.5669Y-8.6024
X9.5728Y-2.4685
X9.5866Y-5.1969
X9.5866Y-8.622
X9.6063Y-5.1772
X9.6063Y-8.6417
X9.6161Y-1.565
X9.6161Y-2.1024
X9.6161Y-4.0551
X9.626Y-5.0984
X9.626Y-8.5827
X9.628Y-2.5571
X9.6457Y-5.1181
X9.6457Y-8.563
X9.6654Y-5.1575
X9.6654Y-8.5433
X9.685Y-5.5512
X9.685Y-7.7362
X9.689Y-8.3071
X9.689Y-9.5886
X9.6988Y-1.75
X9.7047Y-4.9606
X9.7047Y-7.0276
X9.7106Y-8.3268
X9.7106Y-9.6122
X9.7205Y-3.4508
X9.7283Y-2.0945
X9.7362Y-1.8445
X9.7539Y-4.0551
X9.754Y-7.8825
X9.7717Y-3.5433
X9.776Y-8.8963
X9.811Y-2.2087
X9.8228Y-3.7402
X9.8602Y-1.9094
X9.8602Y-2.1083
X9.8681Y-4.0551
X9.872Y-2.6181
X9.876Y-4.4843
X9.8898Y-7.8825
X9.9098Y-8.8982
X9.9213Y-3.2441
X9.9213Y-4.6457
X9.9232Y-2.811
X9.9311Y-7.7165
X9.9409Y-4.6102
X9.9409Y-5.4134
X9.9449Y-6.0
X9.9606Y-4.5591
X9.9606Y-5.4331
X9.9744Y-5.7008
X9.9783Y-3.563
X9.9803Y-1.9941
X9.9823Y-2.1319
X9.9882Y-3.2165
X10.0Y-9.4291
X10.0039Y-1.7165
X10.0098Y-4.5512
X10.0118Y-7.2087
X10.0236Y-2.7323
X10.0413Y-4.626
X10.0423Y-3.1939
X10.0551Y-7.6969
X10.063Y-7.2835
X10.0669Y-4.6063
X10.1Y-9.4091
X10.1004Y-8.0315
X10.1004Y-8.7244
X10.1102Y-3.8189
X10.1122Y-5.7008
X10.1201Y-3.3937
X10.1378Y-4.8819
X10.1378Y-7.2815
X10.1457Y-7.6772
X10.1772Y-3.1693
X10.1772Y-4.5866
X10.1772Y-8.8071
X10.1988Y-7.7579
X10.2Y-8.013
X10.2Y-9.389
X10.21Y-7.1903
X10.2362Y-3.3937
X10.2421Y-4.5669
X10.2539Y-7.6575
X10.2598Y-7.3307
X10.2717Y-2.687
X10.2972Y-3.7008
X10.2992Y-7.7953
X10.3Y-9.3689
X10.3012Y-8.8071
X10.3031Y-8.7264
X10.31Y-3.1427
X10.311Y-7.311
X10.3213Y-3.5429
X10.3268Y-3.9587
X10.3484Y-7.6378
X10.3583Y-7.25
X10.3602Y-6.9488
X10.3681Y-4.5059
X10.372Y-3.5512
X10.374Y-2.7067
X10.3996Y-8.0512
X10.4Y-9.3469
X10.4016Y-6.6496
X10.4094Y-7.8268
X10.4213Y-3.2165
X10.4331Y-4.5276
X10.437Y-3.1181
X10.4488Y-7.6181
X10.4547Y-6.3996
X10.4665Y-3.9567
X10.4744Y-1.7854
X10.4744Y-2.7815
X10.4902Y-3.8957
X10.4902Y-4.2126
X10.5Y-7.9921
X10.5Y-9.3228
X10.5098Y-5.7638
X10.5098Y-7.2894
X10.5197Y-3.2815
X10.5236Y-5.7106
X10.5413Y-4.2717
X10.5433Y-2.2047
X10.5433Y-3.6614
X10.5472Y-7.5984
X10.563Y-4.1909
X10.5728Y-3.9154
X10.5748Y-1.8445
X10.5748Y-2.4193
X10.5807Y-7.2697
X10.5945Y-4.311
X10.5965Y-7.7559
X10.6Y-7.974
X10.6Y-8.0705
X10.6Y-9.2957
X10.6102Y-7.2283
X10.6181Y-3.9331
X10.623Y-3.0915
X10.6378Y-4.0866
X10.6476Y-7.2303
X10.6496Y-7.5787
X10.6614Y-5.7106
X10.6772Y-7.7953
X10.6811Y-2.2047
X10.685Y-5.6339
X10.689Y-4.0866
X10.689Y-4.3425
X10.6987Y-3.7637
X10.7Y-7.9535
X10.7Y-8.0898
X10.7Y-9.2705
X10.7008Y-7.5079
X10.7008Y-7.6378
X10.7224Y-1.9587
X10.7244Y-3.0669
X10.7382Y-4.0866
X10.7382Y-4.2047
X10.75Y-7.5591
X10.7539Y-7.3858
X10.7559Y-3.9331
X10.7598Y-4.315
X10.7638Y-5.315
X10.7638Y-5.8406
X10.7638Y-5.9488
X10.7829Y-9.2329
X10.7874Y-4.0866
X10.7874Y-4.2028
X10.7913Y-7.5315
X10.8Y-8.1898
X10.8012Y-9.2028
X10.8228Y-2.065
X10.8228Y-2.7559
X10.8228Y-3.0394
X10.8346Y-1.3051
X10.8386Y-4.0866
X10.8386Y-4.1437
X10.8386Y-4.2067
X10.8406Y-1.7106
X10.8524Y-9.2028
X10.8661Y-8.1299
X10.8681Y-5.2953
X10.872Y-2.7815
X10.8878Y-4.0846
X10.9Y-8.1106
X10.9094Y-7.5846
X10.91Y-5.2565
X10.91Y-5.8183
X10.9173Y-2.2047
X10.9232Y-2.7815
X10.9252Y-3.0138
X10.939Y-4.0846
X10.9488Y-7.3543
X10.95Y-9.1724
X10.9508Y-5.3346
X10.9606Y-6.3543
X10.9606Y-7.1693
X10.9764Y-2.4193
X10.9843Y-5.3543
X10.9882Y-3.9961
X10.9882Y-4.2913
X11.0Y-8.1496
X11.0098Y-5.374
X11.0098Y-7.5039
X11.0098Y-7.6063
X11.01Y-5.7876
X11.0413Y-5.7028
X11.0453Y-1.7106
X11.05Y-9.1508
X11.0551Y-2.2047
X11.0591Y-7.2303
X11.0591Y-7.3307
X11.0807Y-8.1693
X11.0846Y-5.1969
X11.0906Y-1.3051
X11.1Y-8.1295
X11.1083Y-4.1535
X11.1083Y-4.2185
X11.1102Y-5.2756
X11.1102Y-7.3563
X11.1181Y-2.4409
X11.1457Y-5.3937
X11.1535Y-7.7165
X11.1594Y-7.2087
X11.1791Y-5.7008
X11.248Y-7.7165
X11.2717Y-4.1437
X11.2815Y-5.0787
X11.2815Y-5.7126
X11.2854Y-6.5768
X11.3Y-8.5819
X11.3071Y-5.6142
X11.3083Y-6.3
X11.3327Y-5.8957
X11.3327Y-6.3543
X11.3346Y-7.0512
X11.3346Y-7.1201
X11.3465Y-4.1201
X11.35Y-8.3067
X11.3602Y-7.2323
X11.3957Y-4.0433
X11.3976Y-5.5709
X11.3976Y-6.4429
X11.4173Y-5.5512
X11.4173Y-6.5
X11.437Y-3.9291
X11.437Y-4.5276
X11.437Y-5.5315
X11.437Y-6.5413
X11.4567Y-4.4193
X11.4567Y-4.5866
X11.4567Y-5.5118
X11.4571Y-6.6
X11.4587Y-7.5315
X11.4764Y-4.2717
X11.4764Y-4.6063
X11.4764Y-5.4921
X11.4774Y-6.5778
X11.4961Y-4.1693
X11.4961Y-4.626
X11.4961Y-5.4724
X11.4972Y-6.7
X11.5157Y-4.3189
X11.5157Y-4.6457
X11.5157Y-5.0
X11.5157Y-6.3976
X11.5335Y-4.6654
X11.5354Y-4.1142
X11.5354Y-6.6496
X11.5492Y-4.998
X11.5551Y-3.9705
X11.5551Y-4.685
X11.5591Y-5.7638
X11.5591Y-7.5315
X11.5748Y-4.2126
X11.5748Y-4.7047
X11.586Y-6.4619
X11.586Y-7.023
X11.5945Y-3.8189
X11.5945Y-4.7244
X11.5945Y-5.1181
X11.5949Y-6.1
X11.6102Y-6.5217
X11.6142Y-3.8701
X11.6142Y-4.7441
X11.6142Y-5.8189
X11.6161Y-2.6614
X11.6161Y-2.8386
X11.6339Y-3.7992
X11.6339Y-4.7638
X11.6339Y-5.7874
X11.6358Y-2.0472
X11.6409Y-6.7
X11.6437Y-6.5984
X11.6535Y-3.7697
X11.6535Y-4.7835
X11.6575Y-7.5846
X11.6732Y-4.8031
X11.6752Y-3.7244
X11.6752Y-6.5
X11.6929Y-3.7008
X11.6929Y-4.8228
X11.6929Y-6.6575
X11.6949Y-8.1299
X11.6969Y-5.9449
X11.7028Y-5.7756
X11.7126Y-2.4075
X11.7126Y-2.8465
X11.7126Y-2.9823
X11.7126Y-3.6811
X11.7126Y-4.8425
X11.7126Y-5.4528
X11.7205Y-5.9803
X11.7323Y-4.8622
X11.7323Y-8.3071
X11.7343Y-4.0098
X11.7421Y-5.3937
X11.7539Y-7.0236
X11.7539Y-8.5807
X11.7598Y-3.8425
X11.7598Y-4.1417
X11.7677Y-5.4331
X11.7677Y-5.6102
X11.7717Y-4.3524
X11.7815Y-5.7756
X11.7835Y-1.7618
X11.7913Y-5.4134
X11.7913Y-5.6811
X11.7992Y-5.8642
X11.8091Y-5.1575
X11.811Y-4.4429
X11.811Y-4.6142
X11.815Y-7.4035
X11.8307Y-5.1772
X11.8327Y-1.7618
X11.8386Y-5.9232
X11.8406Y-2.8622
X11.8583Y-5.2756
X11.8898Y-5.1378
X11.9075Y-8.813
X11.9094Y-7.7953
X11.9193Y-7.4409
X11.9429Y-4.7126
X11.9429Y-4.9409
X11.9587Y-7.8268
X11.9589Y-5.4956
X11.9609Y-5.3578
X11.99Y-5.9447
X12.0Y-9.4291
X12.002Y-5.0984
X12.0059Y-3.5591
X12.0079Y-4.9016
X12.0335Y-1.7598
X12.0335Y-1.8937
X12.0354Y-5.1102
X12.0413Y-2.687
X12.0413Y-7.7559
X12.0591Y-2.1969
X12.063Y-5.374
X12.063Y-5.4744
X12.0728Y-5.0748
X12.0768Y-5.748
X12.0827Y-2.0571
X12.0886Y-5.2283
X12.1Y-9.4098
X12.1004Y-5.1555
X12.1004Y-8.0315
X12.1004Y-8.813
X12.1339Y-1.9626
X12.1398Y-3.5591
X12.1398Y-6.7894
X12.1488Y-8.2078
X12.1634Y-5.374
X12.1634Y-5.4764
X12.189Y-1.6654
X12.19Y-5.7116
X12.2Y-8.013
X12.2Y-9.3886
X12.2126Y-5.374
X12.2224Y-3.3228
X12.2303Y-5.9508
X12.2382Y-6.4488
X12.2411Y-6.6594
X12.2421Y-1.9764
X12.2441Y-1.8425
X12.248Y-5.1575
X12.2559Y-5.8701
X12.2618Y-3.0433
X12.2638Y-5.4764
X12.2638Y-5.6319
X12.2638Y-5.811
X12.2874Y-2.6398
X12.2992Y-7.2047
X12.2992Y-8.248
X12.3Y-7.7945
X12.3Y-8.7547
X12.3Y-9.3701
X12.3031Y-2.0571
X12.315Y-5.3898
X12.3406Y-2.7087
X12.3445Y-2.498
X12.3484Y-4.124
X12.3484Y-4.5591
X12.3504Y-8.4508
X12.374Y-3.3228
X12.3819Y-5.5217
X12.3898Y-1.7362
X12.39Y-7.1026
X12.3996Y-9.3465
X12.4Y-8.0516
X12.4035Y-5.811
X12.4193Y-3.5039
X12.439Y-7.061
X12.4429Y-5.5906
X12.4449Y-3.9764
X12.4626Y-3.0157
X12.4902Y-3.2972
X12.4921Y-5.9449
X12.5Y-7.9921
X12.5Y-9.3228
X12.5394Y-2.7323
X12.5413Y-4.8071
X12.5768Y-5.4528
X12.5768Y-5.5236
X12.5768Y-5.748
X12.5807Y-6.5492
X12.5866Y-2.8622
X12.5925Y-4.0098
X12.5925Y-5.1654
X12.6Y-7.9728
X12.6Y-8.0713
X12.6Y-9.2976
X12.6122Y-5.4252
X12.6122Y-5.565
X12.6142Y-5.2657
X12.622Y-6.752
X12.6339Y-4.7697
X12.6476Y-6.5492
X12.6909Y-2.5945
X12.6969Y-7.9528
X12.7Y-8.0894
X12.7Y-9.2689
X12.7146Y-3.5039
X12.7264Y-5.3937
X12.7323Y-7.2441
X12.7362Y-3.3228
X12.7402Y-2.6339
X12.75Y-5.7087
X12.7579Y-5.3228
X12.7638Y-1.8031
X12.7776Y-5.5906
X12.7894Y-2.6752
X12.7933Y-4.6929
X12.7953Y-5.2579
X12.8Y-8.1898
X12.8Y-9.2335
X12.8189Y-5.7382
X12.8287Y-5.4882
X12.8406Y-2.6752
X12.8425Y-1.9114
X12.8425Y-3.9764
X12.8543Y-5.7717
X12.8543Y-5.8701
X12.8543Y-6.748
X12.8642Y-6.9587
X12.8642Y-7.2047
X12.8701Y-7.6378
X12.8799Y-5.4902
X12.8898Y-2.4705
X12.8996Y-7.2894
X12.9Y-8.1106
X12.9Y-9.2031
X12.9094Y-5.7559
X12.9134Y-1.6969
X12.9252Y-6.7008
X12.9272Y-5.3248
X12.9311Y-2.189
X12.9409Y-2.7283
X12.9429Y-5.8406
X12.9469Y-5.9449
X12.9606Y-3.3957
X12.9626Y-1.8602
X12.9709Y-9.1709
X12.9783Y-5.4902
X12.9783Y-7.7756
X12.9921Y-2.498
X12.9921Y-3.3465
X12.9941Y-6.8189
X12.9961Y-6.6812
X13.0Y-7.0118
X13.0Y-7.1417
X13.0059Y-5.9252
X13.0098Y-8.002
X13.0118Y-7.5059
X13.0118Y-7.7756
X13.0453Y-5.7559
X13.05Y-9.15
X13.0551Y-6.8524
X13.0709Y-6.5354
X13.08Y-5.41
X13.0807Y-5.561
X13.0866Y-1.6614
X13.0906Y-2.5591
X13.0925Y-1.7717
X13.1024Y-4.3189
X13.1024Y-4.6693
X13.1024Y-7.1909
X13.1102Y-5.87
X13.1374Y-6.6
X13.1388Y-8.2274
X13.1417Y-3.372
X13.1437Y-1.7717
X13.1594Y-6.2618
X13.189Y-2.6378
X13.189Y-6.3622
X13.1929Y-5.1102
X13.1988Y-5.1969
X13.2106Y-6.5
X13.2362Y-5.5315
X13.2362Y-6.253
X13.2402Y-2.5157
X13.2402Y-3.6614
X13.2402Y-7.5059
X13.248Y-8.248
X13.2559Y-5.3386
X13.2874Y-2.6752
X13.2874Y-5.5728
X13.2874Y-5.811
X13.2894Y-7.3819
X13.2894Y-7.6142
X13.2913Y-3.1437
X13.2933Y-1.8661
X13.3Y-8.2866
X13.3386Y-8.0
X13.339Y-7.7024
X13.3406Y-3.2559
X13.3406Y-9.6457
X13.3425Y-1.8661
X13.3445Y-3.626
X13.3504Y-8.2677
X13.3563Y-4.9783
X13.3799Y-3.0217
X13.3839Y-4.9291
X13.3858Y-3.8799
X13.3858Y-4.3189
X13.3878Y-7.3563
X13.389Y-7.424
X13.3898Y-2.7264
X13.3937Y-1.8661
X13.3957Y-2.1949
X13.3996Y-8.4331
X13.4061Y-8.2061
X13.4075Y-5.4744
X13.439Y-7.5453
X13.439Y-7.6122
X13.4409Y-3.1161
X13.4488Y-7.9764
X13.4567Y-4.372
X13.4567Y-4.5177
X13.4587Y-1.6614
X13.47Y-5.41
X13.4764Y-9.6457
X13.4823Y-4.1732
X13.4823Y-4.6201
X13.4882Y-4.811
X13.4882Y-4.9469
X13.4882Y-7.6122
X13.4921Y-2.2618
X13.4921Y-3.2776
X13.4921Y-3.4232
X13.5039Y-4.7283
X13.5059Y-5.7126
X13.5118Y-7.374
X13.5374Y-7.6102
X13.5394Y-7.5079
X13.5413Y-3.065
X13.5433Y-1.8583
X13.5433Y-1.9961
X13.5457Y-6.4
X13.55Y-8.6228
X13.5551Y-5.7126
X13.5728Y-8.9626
X13.5764Y-3.4341
X13.5886Y-3.0925
X13.6043Y-5.5315
X13.6043Y-5.6083
X13.61Y-7.1
X13.61Y-7.7222
X13.6102Y-6.5335
X13.6142Y-8.622
X13.6142Y-9.5531
X13.6161Y-5.7618
X13.6201Y-8.5512
X13.6319Y-3.0807
X13.6398Y-2.7559
X13.6398Y-2.7835
X13.6417Y-8.6398
X13.6417Y-9.5866
X13.6496Y-3.9252
X13.6555Y-5.3425
X13.6555Y-5.5709
X13.6614Y-7.4823
X13.6614Y-7.6201
X13.6709Y-3.686
X13.6713Y-4.1201
X13.6732Y-6.3622
X13.6791Y-5.1969
X13.6811Y-6.4409
X13.685Y-8.4331
X13.6949Y-8.5492
X13.6969Y-3.2106
X13.7067Y-5.1654
X13.7067Y-5.3425
X13.7205Y-3.2559
X13.7244Y-7.1673
X13.7244Y-9.0157
X13.7441Y-3.2776
X13.7441Y-5.7598
X13.7559Y-6.187
X13.7568Y-7.8158
X13.7657Y-3.9764
X13.7677Y-3.0807
X13.7854Y-4.6693
X13.7854Y-7.311
X13.8091Y-3.8799
X13.8169Y-4.4232
X13.8169Y-7.7559
X13.8209Y-5.2165
X13.8386Y-5.3976
X13.8386Y-7.5531
X13.8406Y-3.9488
X13.8622Y-7.7756
X13.8756Y-3.6329
X13.876Y-3.435
X13.8839Y-5.4744
X13.8839Y-7.7264
X13.8878Y-2.7008
X13.9094Y-8.622
X13.935Y-5.3976
X13.9429Y-8.6398
X13.9547Y-6.1024
X13.9642Y-3.4301
X13.9642Y-3.564
X13.998Y-4.7283
X14.0217Y-4.6457
X14.0827Y-6.1024
T2
X10.01Y-5.9
X10.01Y-6.0
X10.01Y-6.1
X10.01Y-6.2
X10.01Y-6.3
X10.01Y-6.4
X10.01Y-6.5
X10.01Y-6.6
X10.01Y-6.7
X10.01Y-6.8
X10.01Y-6.9
X10.01Y-7.0
X10.01Y-7.1
X10.11Y-5.9
X10.11Y-6.0
X10.11Y-6.1
X10.11Y-6.2
X10.11Y-6.3
X10.11Y-6.4
X10.11Y-6.5
X10.11Y-6.6
X10.11Y-6.7
X10.11Y-6.8
X10.11Y-6.9
X10.11Y-7.0
X10.11Y-7.1
X10.21Y-5.9
X10.21Y-6.0
X10.21Y-6.1
X10.21Y-6.2
X10.21Y-6.3
X10.21Y-6.4
X10.21Y-6.5
X10.21Y-6.6
X10.21Y-6.7
X10.21Y-6.8
X10.21Y-6.9
X10.21Y-7.0
X10.21Y-7.1
X10.31Y-5.9
X10.31Y-6.0
X10.31Y-6.9
X10.31Y-7.0
X10.31Y-7.1
X10.41Y-5.9
X10.41Y-6.0
X10.41Y-6.1
X10.41Y-6.9
X10.41Y-7.0
X10.41Y-7.1
X10.51Y-5.9
X10.51Y-6.0
X10.51Y-6.1
X10.51Y-6.2
X10.51Y-6.9
X10.51Y-7.0
X10.51Y-7.1
X10.61Y-5.9
X10.61Y-6.0
X10.61Y-6.1
X10.61Y-6.9
X10.61Y-7.0
X10.61Y-7.1
X10.71Y-5.9
X10.71Y-6.0
X10.71Y-6.1
X10.71Y-6.9
X10.71Y-7.0
X10.71Y-7.1
X10.81Y-5.9
X10.81Y-6.0
X10.81Y-6.1
X10.81Y-6.9
X10.81Y-7.0
X10.81Y-7.1
X10.91Y-5.9
X10.91Y-6.0
X10.91Y-6.2
X10.91Y-6.7
X10.91Y-6.9
X10.91Y-7.0
X10.91Y-7.1
X11.01Y-5.9
X11.01Y-6.0
X11.01Y-6.1
X11.01Y-6.2
X11.01Y-6.3
X11.01Y-6.4
X11.01Y-6.5
X11.01Y-6.6
X11.01Y-6.7
X11.01Y-6.8
X11.01Y-6.9
X11.01Y-7.0
X11.01Y-7.1
X11.11Y-5.9
X11.11Y-6.0
X11.11Y-6.1
X11.11Y-6.2
X11.11Y-6.3
X11.11Y-6.4
X11.11Y-6.5
X11.11Y-6.6
X11.11Y-6.7
X11.11Y-6.8
X11.11Y-6.9
X11.11Y-7.0
X11.11Y-7.1
X11.21Y-5.9
X11.21Y-6.0
X11.21Y-6.1
X11.21Y-6.2
X11.21Y-6.3
X11.21Y-6.4
X11.21Y-6.5
X11.21Y-6.6
X11.21Y-6.7
X11.21Y-6.8
X11.21Y-6.9
X11.21Y-7.0
X11.21Y-7.1
T3
X9.626Y-3.8386
X9.676Y-3.8886
X9.726Y-3.8386
X9.9016Y-3.8386
X9.9516Y-3.8886
X10.0016Y-3.8386
T4
X9.128Y-1.5157
X9.128Y-1.6142
X9.2106Y-1.5157
X9.313Y-1.5157
X9.3957Y-1.5157
X9.3957Y-1.6142
X10.0039Y-1.5157
X10.0039Y-1.6142
X10.0866Y-1.5157
X10.189Y-1.5157
X10.2717Y-1.5157
X10.2717Y-1.6142
X10.31Y-6.1
X10.31Y-6.2
X10.31Y-6.7
X10.31Y-6.8
X10.51Y-6.8
X10.91Y-6.1
X10.91Y-6.8
T5
X1.5Y-2.2
X1.5Y-2.3
X1.5Y-2.4
X1.5Y-2.5
X1.5Y-2.6
X1.5Y-2.7
X1.5Y-2.8
X1.5Y-2.9
X1.5Y-3.0
X2.3Y-2.7
X2.3Y-2.8
X2.3Y-2.9
X2.3Y-3.0
X2.3Y-3.1
X2.3Y-3.2
X2.3Y-3.3
X2.3Y-3.4
X2.3Y-3.5
X3.1189Y-7.3189
X3.2189Y-7.3189
X3.3189Y-7.3189
X3.4189Y-7.3189
X3.5189Y-7.3189
X3.6189Y-7.3189
X3.7189Y-7.3189
X3.8189Y-7.3189
X3.9Y-2.0
X3.9Y-2.1
X3.9Y-2.2
X3.9Y-2.3
X3.9Y-2.4
X3.9Y-2.5
X3.9Y-2.6
X3.9Y-2.7
X3.9Y-2.8
X4.0205Y-7.3228
X4.1205Y-7.3228
X4.2205Y-7.3228
X4.3205Y-7.3228
X4.4205Y-7.3228
X4.5205Y-7.3228
X4.6205Y-7.3228
X4.7205Y-7.3228
X5.0915Y-5.6299
X5.1Y-1.8994
X5.1Y-1.9994
X5.1Y-2.0994
X5.1Y-2.1994
X5.1Y-2.2994
X5.1Y-2.3994
X5.1Y-2.4994
X5.1Y-2.5994
X5.1Y-2.6994
X5.1915Y-5.6299
X5.2915Y-5.6299
X5.3915Y-5.6299
X5.4915Y-5.6299
X5.5915Y-5.6299
X5.6915Y-5.6299
X5.7915Y-5.6299
X5.8915Y-5.6299
X6.1988Y-5.1213
X6.1988Y-5.2213
X6.1988Y-5.3213
X6.1988Y-5.4213
X6.1988Y-5.5213
X6.1988Y-5.6213
X6.1988Y-5.7213
X6.1988Y-5.8213
X6.1988Y-5.9213
X6.2504Y-7.1378
X6.2504Y-7.2378
X6.2504Y-7.3378
X6.2504Y-7.4378
X6.2504Y-7.5378
X6.2504Y-7.6378
X6.2504Y-7.7378
X6.2504Y-7.8378
X6.2504Y-7.9378
X6.2504Y-8.0378
X6.2504Y-8.1378
X6.3504Y-7.0378
X6.3504Y-7.1378
X6.3504Y-7.2378
X6.3504Y-7.3378
X6.3504Y-7.4378
X6.3504Y-7.5378
X6.3504Y-7.6378
X6.3504Y-7.7378
X6.3504Y-7.8378
X6.3504Y-7.9378
X6.3504Y-8.0378
X6.3504Y-8.1378
X6.3504Y-8.2378
X6.4504Y-7.0378
X6.4504Y-7.1378
X6.4504Y-8.1378
X6.4504Y-8.2378
X6.5504Y-7.0378
X6.5504Y-7.1378
X6.5504Y-8.1378
X6.5504Y-8.2378
X6.6504Y-7.0378
X6.6504Y-7.1378
X6.6504Y-8.1378
X6.6504Y-8.2378
X6.7504Y-7.0378
X6.7504Y-7.1378
X6.7504Y-8.1378
X6.7504Y-8.2378
X6.8504Y-7.0378
X6.8504Y-7.1378
X6.8504Y-8.1378
X6.8504Y-8.2378
X6.9504Y-7.0378
X6.9504Y-7.1378
X6.9504Y-8.1378
X6.9504Y-8.2378
X7.0504Y-7.0378
X7.0504Y-7.1378
X7.0504Y-8.1378
X7.0504Y-8.2378
X7.1504Y-7.0378
X7.1504Y-7.1378
X7.1504Y-8.1378
X7.1504Y-8.2378
X7.2504Y-7.0378
X7.2504Y-7.1378
X7.2504Y-8.1378
X7.2504Y-8.2378
X7.3504Y-7.0378
X7.3504Y-7.1378
X7.3504Y-7.2378
X7.3504Y-7.3378
X7.3504Y-7.4378
X7.3504Y-7.5378
X7.3504Y-7.6378
X7.3504Y-7.7378
X7.3504Y-7.8378
X7.3504Y-7.9378
X7.3504Y-8.0378
X7.3504Y-8.1378
X7.3504Y-8.2378
X7.4504Y-7.1378
X7.4504Y-7.2378
X7.4504Y-7.3378
X7.4504Y-7.4378
X7.4504Y-7.5378
X7.4504Y-7.6378
X7.4504Y-7.7378
X7.4504Y-7.8378
X7.4504Y-7.9378
X7.4504Y-8.0378
X7.4504Y-8.1378
X7.8012Y-7.3799
X7.9012Y-7.3799
X8.0012Y-7.3799
X8.1012Y-7.3799
X8.2012Y-7.3799
X8.3012Y-7.3799
X8.4012Y-7.3799
X8.5012Y-7.3799
X8.5839Y-1.8909
X8.5839Y-2.1909
X8.6012Y-7.3799
X8.7Y-8.4
X8.7032Y-2.6988
X8.7032Y-2.8917
X8.8Y-8.4
X8.8839Y-1.8909
X8.8839Y-2.1909
X8.9Y-8.4
X9.0Y-8.4
X9.1Y-8.4
X9.1236Y-2.3425
X9.1236Y-2.9425
X9.2Y-8.4
X9.2236Y-2.3425
X9.2236Y-2.9425
X9.3Y-8.4
X9.3236Y-2.3425
X9.3236Y-2.9425
X9.4Y-8.4
X9.4236Y-2.3425
X9.4236Y-2.9425
X9.5Y-8.4
X9.5236Y-2.3425
X9.5236Y-2.9425
X9.6213Y-3.3268
X9.6213Y-3.6268
X9.6236Y-2.3425
X9.6236Y-2.9425
X9.7213Y-3.3268
X9.7213Y-3.6268
X9.7236Y-2.3425
X9.7236Y-2.9425
X9.8213Y-3.3268
X9.8213Y-3.6268
X9.8236Y-2.3425
X9.8236Y-2.9425
X9.9213Y-3.3268
X9.9213Y-3.6268
X9.9236Y-2.3425
X9.9236Y-2.9425
X10.0Y-7.89
X10.0Y-8.49
X10.0Y-8.9
X10.0Y-9.5
X10.0213Y-3.3268
X10.0213Y-3.6268
X10.0236Y-2.3425
X10.0236Y-2.9425
X10.1Y-7.89
X10.1Y-8.49
X10.1Y-8.9
X10.1Y-9.5
X10.1213Y-3.3268
X10.1213Y-3.6268
X10.1236Y-2.3425
X10.1236Y-2.9425
X10.2Y-7.89
X10.2Y-8.49
X10.2Y-8.9
X10.2Y-9.5
X10.2213Y-3.3268
X10.2213Y-3.6268
X10.2236Y-2.3425
X10.2236Y-2.9425
X10.3Y-7.89
X10.3Y-8.49
X10.3Y-8.9
X10.3Y-9.5
X10.3213Y-3.3268
X10.3213Y-3.6268
X10.3236Y-2.3425
X10.3236Y-2.9425
X10.4Y-7.89
X10.4Y-8.49
X10.4Y-8.9
X10.4Y-9.5
X10.4213Y-3.3268
X10.4213Y-3.6268
X10.4236Y-2.3425
X10.4236Y-2.9425
X10.4638Y-4.4173
X10.5Y-7.89
X10.5Y-8.49
X10.5Y-8.9
X10.5Y-9.5
X10.5236Y-2.3425
X10.5236Y-2.9425
X10.5638Y-4.4173
X10.6Y-7.89
X10.6Y-8.49
X10.6Y-8.9
X10.6Y-9.5
X10.6236Y-2.3425
X10.6236Y-2.9425
X10.6638Y-4.4173
X10.7Y-7.89
X10.7Y-8.49
X10.7Y-8.9
X10.7Y-9.5
X10.7236Y-2.3425
X10.7236Y-2.9425
X10.7638Y-4.4173
X10.8Y-7.89
X10.8Y-8.49
X10.8Y-8.9
X10.8Y-9.5
X10.8236Y-2.3425
X10.8236Y-2.9425
X10.8593Y-7.4409
X10.8638Y-4.4173
X10.9Y-7.89
X10.9Y-8.49
X10.9Y-8.9
X10.9Y-9.5
X10.9236Y-2.3425
X10.9236Y-2.9425
X10.9593Y-7.4409
X10.9638Y-4.4173
X11.0Y-7.89
X11.0Y-8.49
X11.0Y-8.9
X11.0Y-9.5
X11.0236Y-2.3425
X11.0236Y-2.9425
X11.0593Y-7.4409
X11.0638Y-4.4173
X11.1Y-7.89
X11.1Y-8.49
X11.1Y-8.9
X11.1Y-9.5
X11.1593Y-7.4409
X11.1638Y-4.4173
X11.2Y-7.89
X11.2Y-8.49
X11.2Y-8.9
X11.2Y-9.5
X11.2593Y-7.4409
X11.2638Y-4.4173
X11.3Y-7.89
X11.3Y-8.49
X11.3Y-8.9
X11.3Y-9.5
X11.3593Y-7.4409
X11.4Y-7.89
X11.4Y-8.49
X11.4Y-8.9
X11.4Y-9.5
X11.4593Y-7.4409
X11.5Y-7.89
X11.5Y-8.49
X11.5Y-8.9
X11.5Y-9.5
X11.5593Y-7.4409
X11.6593Y-7.4409
X11.79Y-6.1
X11.79Y-6.2
X11.79Y-6.3
X11.79Y-6.4
X11.79Y-6.5
X11.79Y-6.6
X11.79Y-6.7
X11.79Y-6.8
X11.79Y-6.9
X11.8406Y-2.3429
X11.8406Y-2.9429
X11.89Y-6.0
X11.89Y-6.1
X11.89Y-6.2
X11.89Y-6.3
X11.89Y-6.4
X11.89Y-6.5
X11.89Y-6.6
X11.89Y-6.7
X11.89Y-6.8
X11.89Y-6.9
X11.89Y-7.0
X11.9406Y-2.3429
X11.9406Y-2.9429
X11.99Y-6.0
X11.99Y-6.1
X11.99Y-6.9
X11.99Y-7.0
X12.0Y-7.9
X12.0Y-8.5
X12.0Y-8.9
X12.0Y-9.5
X12.0406Y-2.3429
X12.0406Y-2.9429
X12.09Y-6.0
X12.09Y-6.1
X12.09Y-6.9
X12.09Y-7.0
X12.0929Y-3.8693
X12.0929Y-3.9693
X12.0929Y-4.0693
X12.0929Y-4.1693
X12.0929Y-4.2693
X12.0929Y-4.3693
X12.0929Y-4.4693
X12.0929Y-4.5693
X12.0929Y-4.6693
X12.0929Y-4.7693
X12.0929Y-4.8693
X12.1Y-7.9
X12.1Y-8.5
X12.1Y-8.9
X12.1Y-9.5
X12.1406Y-2.3429
X12.1406Y-2.9429
X12.19Y-6.0
X12.19Y-6.1
X12.19Y-6.9
X12.19Y-7.0
X12.1929Y-3.7693
X12.1929Y-3.8693
X12.1929Y-3.9693
X12.1929Y-4.0693
X12.1929Y-4.1693
X12.1929Y-4.2693
X12.1929Y-4.3693
X12.1929Y-4.4693
X12.1929Y-4.5693
X12.1929Y-4.6693
X12.1929Y-4.7693
X12.1929Y-4.8693
X12.1929Y-4.9693
X12.2Y-7.9
X12.2Y-8.5
X12.2Y-8.9
X12.2Y-9.5
X12.2406Y-2.3429
X12.2406Y-2.9429
X12.29Y-6.0
X12.29Y-6.1
X12.29Y-6.9
X12.29Y-7.0
X12.2917Y-3.2008
X12.2917Y-3.5008
X12.2929Y-3.7693
X12.2929Y-3.8693
X12.2929Y-4.8693
X12.2929Y-4.9693
X12.3Y-7.9
X12.3Y-8.5
X12.3Y-8.9
X12.3Y-9.5
X12.3406Y-2.3429
X12.3406Y-2.9429
X12.39Y-6.0
X12.39Y-6.1
X12.39Y-6.9
X12.39Y-7.0
X12.3929Y-3.7693
X12.3929Y-3.8693
X12.3929Y-4.8693
X12.3929Y-4.9693
X12.4Y-7.9
X12.4Y-8.5
X12.4Y-8.9
X12.4Y-9.5
X12.4406Y-2.3429
X12.4406Y-2.9429
X12.49Y-6.0
X12.49Y-6.1
X12.49Y-6.9
X12.49Y-7.0
X12.4929Y-3.7693
X12.4929Y-3.8693
X12.4929Y-4.8693
X12.4929Y-4.9693
X12.4941Y-2.1358
X12.5Y-7.9
X12.5Y-8.5
X12.5Y-8.9
X12.5Y-9.5
X12.5406Y-2.3429
X12.5406Y-2.9429
X12.59Y-6.0
X12.59Y-6.1
X12.59Y-6.9
X12.59Y-7.0
X12.5929Y-3.7693
X12.5929Y-3.8693
X12.5929Y-4.8693
X12.5929Y-4.9693
X12.6Y-7.9
X12.6Y-8.5
X12.6Y-8.9
X12.6Y-9.5
X12.6406Y-2.3429
X12.6406Y-2.9429
X12.687Y-2.1358
X12.69Y-6.0
X12.69Y-6.1
X12.69Y-6.2
X12.69Y-6.3
X12.69Y-6.4
X12.69Y-6.5
X12.69Y-6.6
X12.69Y-6.7
X12.69Y-6.8
X12.69Y-6.9
X12.69Y-7.0
X12.6929Y-3.7693
X12.6929Y-3.8693
X12.6929Y-4.8693
X12.6929Y-4.9693
X12.7Y-7.9
X12.7Y-8.5
X12.7Y-8.9
X12.7Y-9.5
X12.7406Y-2.3429
X12.7406Y-2.9429
X12.79Y-6.1
X12.79Y-6.2
X12.79Y-6.3
X12.79Y-6.4
X12.79Y-6.5
X12.79Y-6.6
X12.79Y-6.7
X12.79Y-6.8
X12.79Y-6.9
X12.7929Y-3.7693
X12.7929Y-3.8693
X12.7929Y-4.8693
X12.7929Y-4.9693
X12.8Y-7.9
X12.8Y-8.5
X12.8Y-8.9
X12.8Y-9.5
X12.8406Y-2.3429
X12.8406Y-2.9429
X12.8917Y-3.2008
X12.8917Y-3.5008
X12.8929Y-3.7693
X12.8929Y-3.8693
X12.8929Y-4.8693
X12.8929Y-4.9693
X12.9Y-7.9
X12.9Y-8.5
X12.9Y-8.9
X12.9Y-9.5
X12.9406Y-2.3429
X12.9406Y-2.9429
X12.9929Y-3.7693
X12.9929Y-3.8693
X12.9929Y-4.8693
X12.9929Y-4.9693
X13.0Y-7.9
X13.0Y-8.5
X13.0Y-8.9
X13.0Y-9.5
X13.0406Y-2.3429
X13.0406Y-2.9429
X13.0929Y-3.7693
X13.0929Y-3.8693
X13.0929Y-4.8693
X13.0929Y-4.9693
X13.1Y-7.9
X13.1Y-8.5
X13.1Y-8.9
X13.1Y-9.5
X13.1406Y-2.3429
X13.1406Y-2.9429
X13.1929Y-3.7693
X13.1929Y-3.8693
X13.1929Y-3.9693
X13.1929Y-4.0693
X13.1929Y-4.1693
X13.1929Y-4.2693
X13.1929Y-4.3693
X13.1929Y-4.4693
X13.1929Y-4.5693
X13.1929Y-4.6693
X13.1929Y-4.7693
X13.1929Y-4.8693
X13.1929Y-4.9693
X13.2Y-7.9
X13.2Y-8.5
X13.2Y-8.9
X13.2Y-9.5
X13.2406Y-2.3429
X13.2406Y-2.9429
X13.2929Y-3.8693
X13.2929Y-3.9693
X13.2929Y-4.0693
X13.2929Y-4.1693
X13.2929Y-4.2693
X13.2929Y-4.3693
X13.2929Y-4.4693
X13.2929Y-4.5693
X13.2929Y-4.6693
X13.2929Y-4.7693
X13.2929Y-4.8693
X13.3Y-7.9
X13.3Y-8.5
X13.3Y-8.9
X13.3Y-9.5
X13.3406Y-2.3429
X13.3406Y-2.9429
X13.3791Y-6.3057
X13.3791Y-6.6057
X13.3791Y-6.8667
X13.3791Y-7.1667
X13.4Y-7.9
X13.4Y-8.5
X13.4Y-8.9
X13.4Y-9.5
X13.4406Y-2.3429
X13.4406Y-2.9429
X13.5Y-7.9
X13.5Y-8.5
X13.5Y-8.9
X13.5Y-9.5
X13.5406Y-2.3429
X13.5406Y-2.9429
X13.6406Y-2.3429
X13.6406Y-2.9429
X13.7406Y-2.3429
X13.7406Y-2.9429
X13.9791Y-6.3057
X13.9791Y-6.6057
X13.9791Y-6.8667
X13.9791Y-7.1667
T6
X7.6138Y-1.422
X7.7138Y-1.3622
X8.0118Y-1.422
X8.1118Y-1.3622
T7
X7.6878Y-1.9047
X7.7378Y-1.8047
X7.7878Y-1.9047
X7.8378Y-1.8047
X7.8878Y-1.9047
X7.9378Y-1.8047
X7.9878Y-1.9047
X8.0378Y-1.8047
T8
X1.8Y-2.0
X1.8Y-2.1
X1.8Y-2.2
X1.8Y-2.3
X1.8Y-2.4
X1.8Y-2.5
X1.8Y-2.6
X1.8Y-2.7
X1.8Y-2.8
X1.8Y-2.9
X1.8Y-3.0
X1.8Y-3.1
X1.8Y-3.2
X1.8Y-3.3
X1.8Y-3.4
X1.8Y-3.5
X1.8Y-3.6
X1.8Y-3.7
X1.8Y-3.8
X1.8Y-3.9
X1.8Y-4.0
X1.8Y-4.1
X1.8Y-4.2
X1.8Y-4.3
X1.8Y-4.4
X1.8Y-4.5
X1.8Y-4.6
X1.8Y-4.7
X1.8Y-4.8
X1.8Y-4.9
X1.8Y-5.0
X1.8Y-5.1
X1.9Y-2.0
X1.9Y-2.1
X1.9Y-2.2
X1.9Y-2.3
X1.9Y-2.4
X1.9Y-2.5
X1.9Y-2.6
X1.9Y-2.7
X1.9Y-2.8
X1.9Y-2.9
X1.9Y-3.0
X1.9Y-3.1
X1.9Y-3.2
X1.9Y-3.3
X1.9Y-3.4
X1.9Y-3.5
X1.9Y-3.6
X1.9Y-3.7
X1.9Y-3.8
X1.9Y-3.9
X1.9Y-4.0
X1.9Y-4.1
X1.9Y-4.2
X1.9Y-4.3
X1.9Y-4.4
X1.9Y-4.5
X1.9Y-4.6
X1.9Y-4.7
X1.9Y-4.8
X1.9Y-4.9
X1.9Y-5.0
X1.9Y-5.1
X2.0Y-2.0
X2.0Y-2.1
X2.0Y-2.2
X2.0Y-2.3
X2.0Y-2.4
X2.0Y-2.5
X2.0Y-2.6
X2.0Y-2.7
X2.0Y-2.8
X2.0Y-2.9
X2.0Y-3.0
X2.0Y-3.1
X2.0Y-3.2
X2.0Y-3.3
X2.0Y-3.4
X2.0Y-3.5
X2.0Y-3.6
X2.0Y-3.7
X2.0Y-3.8
X2.0Y-3.9
X2.0Y-4.0
X2.0Y-4.1
X2.0Y-4.2
X2.0Y-4.3
X2.0Y-4.4
X2.0Y-4.5
X2.0Y-4.6
X2.0Y-4.7
X2.0Y-4.8
X2.0Y-4.9
X2.0Y-5.0
X2.0Y-5.1
X2.2Y-9.5276
X2.2Y-9.6276
X2.4Y-9.5276
X2.4Y-9.6276
X2.6Y-9.5276
X2.6Y-9.6276
X2.8Y-9.5276
X2.8Y-9.6276
X3.0Y-2.0
X3.0Y-2.1
X3.0Y-2.2
X3.0Y-2.3
X3.0Y-2.4
X3.0Y-2.5
X3.0Y-2.6
X3.0Y-2.7
X3.0Y-2.8
X3.0Y-2.9
X3.0Y-3.0
X3.0Y-3.1
X3.0Y-3.2
X3.0Y-3.3
X3.0Y-3.4
X3.0Y-3.5
X3.0Y-3.6
X3.0Y-3.7
X3.0Y-3.8
X3.0Y-3.9
X3.0Y-4.0
X3.0Y-4.1
X3.0Y-4.2
X3.0Y-4.3
X3.0Y-4.4
X3.0Y-4.5
X3.0Y-4.6
X3.0Y-4.7
X3.0Y-4.8
X3.0Y-4.9
X3.0Y-5.0
X3.0Y-5.1
X3.0Y-9.5276
X3.0Y-9.6276
X3.1Y-2.0
X3.1Y-2.1
X3.1Y-2.2
X3.1Y-2.3
X3.1Y-2.4
X3.1Y-2.5
X3.1Y-2.6
X3.1Y-2.7
X3.1Y-2.8
X3.1Y-2.9
X3.1Y-3.0
X3.1Y-3.1
X3.1Y-3.2
X3.1Y-3.3
X3.1Y-3.4
X3.1Y-3.5
X3.1Y-3.6
X3.1Y-3.7
X3.1Y-3.8
X3.1Y-3.9
X3.1Y-4.0
X3.1Y-4.1
X3.1Y-4.2
X3.1Y-4.3
X3.1Y-4.4
X3.1Y-4.5
X3.1Y-4.6
X3.1Y-4.7
X3.1Y-4.8
X3.1Y-4.9
X3.1Y-5.0
X3.1Y-5.1
X3.2Y-2.0
X3.2Y-2.1
X3.2Y-2.2
X3.2Y-2.3
X3.2Y-2.4
X3.2Y-2.5
X3.2Y-2.6
X3.2Y-2.7
X3.2Y-2.8
X3.2Y-2.9
X3.2Y-3.0
X3.2Y-3.1
X3.2Y-3.2
X3.2Y-3.3
X3.2Y-3.4
X3.2Y-3.5
X3.2Y-3.6
X3.2Y-3.7
X3.2Y-3.8
X3.2Y-3.9
X3.2Y-4.0
X3.2Y-4.1
X3.2Y-4.2
X3.2Y-4.3
X3.2Y-4.4
X3.2Y-4.5
X3.2Y-4.6
X3.2Y-4.7
X3.2Y-4.8
X3.2Y-4.9
X3.2Y-5.0
X3.2Y-5.1
X3.2Y-9.5276
X3.2Y-9.6276
X3.3217Y-7.5885
X3.3217Y-7.6885
X3.4217Y-7.5885
X3.4217Y-7.6885
X3.5217Y-7.5885
X3.5217Y-7.6885
X3.6217Y-7.5885
X3.6217Y-7.6885
X3.7217Y-7.5885
X3.7217Y-7.6885
X3.8217Y-7.5885
X3.8217Y-7.6885
X3.9217Y-7.5885
X3.9217Y-7.6885
X4.0217Y-7.5885
X4.0217Y-7.6885
X4.1217Y-7.5885
X4.1217Y-7.6885
X4.2Y-2.0
X4.2Y-2.1
X4.2Y-2.2
X4.2Y-2.3
X4.2Y-2.4
X4.2Y-2.5
X4.2Y-2.6
X4.2Y-2.7
X4.2Y-2.8
X4.2Y-2.9
X4.2Y-3.0
X4.2Y-3.1
X4.2Y-3.2
X4.2Y-3.3
X4.2Y-3.4
X4.2Y-3.5
X4.2Y-3.6
X4.2Y-3.7
X4.2Y-3.8
X4.2Y-3.9
X4.2Y-4.0
X4.2Y-4.1
X4.2Y-4.2
X4.2Y-4.3
X4.2Y-4.4
X4.2Y-4.5
X4.2Y-4.6
X4.2Y-4.7
X4.2Y-4.8
X4.2Y-4.9
X4.2Y-5.0
X4.2Y-5.1
X4.2217Y-7.5885
X4.2217Y-7.6885
X4.3Y-2.0
X4.3Y-2.1
X4.3Y-2.2
X4.3Y-2.3
X4.3Y-2.4
X4.3Y-2.5
X4.3Y-2.6
X4.3Y-2.7
X4.3Y-2.8
X4.3Y-2.9
X4.3Y-3.0
X4.3Y-3.1
X4.3Y-3.2
X4.3Y-3.3
X4.3Y-3.4
X4.3Y-3.5
X4.3Y-3.6
X4.3Y-3.7
X4.3Y-3.8
X4.3Y-3.9
X4.3Y-4.0
X4.3Y-4.1
X4.3Y-4.2
X4.3Y-4.3
X4.3Y-4.4
X4.3Y-4.5
X4.3Y-4.6
X4.3Y-4.7
X4.3Y-4.8
X4.3Y-4.9
X4.3Y-5.0
X4.3Y-5.1
X4.3217Y-7.5885
X4.3217Y-7.6885
X4.4Y-2.0
X4.4Y-2.1
X4.4Y-2.2
X4.4Y-2.3
X4.4Y-2.4
X4.4Y-2.5
X4.4Y-2.6
X4.4Y-2.7
X4.4Y-2.8
X4.4Y-2.9
X4.4Y-3.0
X4.4Y-3.1
X4.4Y-3.2
X4.4Y-3.3
X4.4Y-3.4
X4.4Y-3.5
X4.4Y-3.6
X4.4Y-3.7
X4.4Y-3.8
X4.4Y-3.9
X4.4Y-4.0
X4.4Y-4.1
X4.4Y-4.2
X4.4Y-4.3
X4.4Y-4.4
X4.4Y-4.5
X4.4Y-4.6
X4.4Y-4.7
X4.4Y-4.8
X4.4Y-4.9
X4.4Y-5.0
X4.4Y-5.1
X4.4217Y-7.5885
X4.4217Y-7.6885
X4.5217Y-7.5885
X4.5217Y-7.6885
X4.6217Y-7.5885
X4.6217Y-7.6885
X4.7217Y-7.5885
X4.7217Y-7.6885
X4.8217Y-7.5885
X4.8217Y-7.6885
X4.9217Y-7.5885
X4.9217Y-7.6885
X5.0217Y-7.5885
X5.0217Y-7.6885
X5.1217Y-7.5885
X5.1217Y-7.6885
X5.2217Y-7.5885
X5.2217Y-7.6885
X5.4Y-2.0
X5.4Y-2.1
X5.4Y-2.2
X5.4Y-2.3
X5.4Y-2.4
X5.4Y-2.5
X5.4Y-2.6
X5.4Y-2.7
X5.4Y-2.8
X5.4Y-2.9
X5.4Y-3.0
X5.4Y-3.1
X5.4Y-3.2
X5.4Y-3.3
X5.4Y-3.4
X5.4Y-3.5
X5.4Y-3.6
X5.4Y-3.7
X5.4Y-3.8
X5.4Y-3.9
X5.4Y-4.0
X5.4Y-4.1
X5.4Y-4.2
X5.4Y-4.3
X5.4Y-4.4
X5.4Y-4.5
X5.4Y-4.6
X5.4Y-4.7
X5.4Y-4.8
X5.4Y-4.9
X5.4Y-5.0
X5.4Y-5.1
X5.5Y-2.0
X5.5Y-2.1
X5.5Y-2.2
X5.5Y-2.3
X5.5Y-2.4
X5.5Y-2.5
X5.5Y-2.6
X5.5Y-2.7
X5.5Y-2.8
X5.5Y-2.9
X5.5Y-3.0
X5.5Y-3.1
X5.5Y-3.2
X5.5Y-3.3
X5.5Y-3.4
X5.5Y-3.5
X5.5Y-3.6
X5.5Y-3.7
X5.5Y-3.8
X5.5Y-3.9
X5.5Y-4.0
X5.5Y-4.1
X5.5Y-4.2
X5.5Y-4.3
X5.5Y-4.4
X5.5Y-4.5
X5.5Y-4.6
X5.5Y-4.7
X5.5Y-4.8
X5.5Y-4.9
X5.5Y-5.0
X5.5Y-5.1
X5.6Y-2.0
X5.6Y-2.1
X5.6Y-2.2
X5.6Y-2.3
X5.6Y-2.4
X5.6Y-2.5
X5.6Y-2.6
X5.6Y-2.7
X5.6Y-2.8
X5.6Y-2.9
X5.6Y-3.0
X5.6Y-3.1
X5.6Y-3.2
X5.6Y-3.3
X5.6Y-3.4
X5.6Y-3.5
X5.6Y-3.6
X5.6Y-3.7
X5.6Y-3.8
X5.6Y-3.9
X5.6Y-4.0
X5.6Y-4.1
X5.6Y-4.2
X5.6Y-4.3
X5.6Y-4.4
X5.6Y-4.5
X5.6Y-4.6
X5.6Y-4.7
X5.6Y-4.8
X5.6Y-4.9
X5.6Y-5.0
X5.6Y-5.1
X11.6815Y-1.498
X11.736Y-1.3862
X11.7906Y-1.498
X11.8451Y-1.3862
X11.8996Y-1.498
X11.9541Y-1.3862
X12.0087Y-1.498
X12.0632Y-1.3862
X12.1177Y-1.498
X13.0594Y-1.498
X13.114Y-1.3862
X13.1685Y-1.498
X13.223Y-1.3862
X13.2776Y-1.498
X13.3321Y-1.3862
X13.3433Y-6.0551
X13.3866Y-1.498
X13.4411Y-1.3862
X13.4433Y-6.0551
X13.4957Y-1.498
X13.5433Y-6.0551
X13.5807Y-4.0728
X13.5807Y-4.1728
X13.5807Y-4.2728
X13.5807Y-4.3728
X13.5807Y-4.4728
X13.5807Y-4.5728
X13.8209Y-4.8228
X13.8209Y-5.1228
X13.9209Y-4.8228
X13.9209Y-5.1228
T9
X3.6417Y-9.4291
X3.6417Y-9.6063
X3.8976Y-9.4291
X3.8976Y-9.6063
X4.1929Y-9.4291
X4.1929Y-9.6063
X4.4488Y-9.4291
X4.4488Y-9.6063
X5.2Y-8.7
X5.2Y-9.4
X5.25Y-8.8
X5.25Y-9.5
X5.3Y-8.7
X5.3Y-9.4
X5.35Y-8.8
X5.35Y-9.5
X5.4Y-8.7
X5.4Y-9.4
X5.45Y-8.8
X5.45Y-9.5
X5.5Y-8.7
X5.5Y-9.4
X5.55Y-8.8
X5.55Y-9.5
X5.6Y-8.7
X5.6Y-9.4
X5.65Y-8.8
X5.65Y-9.5
X5.7Y-8.7
X5.7Y-9.4
X5.75Y-8.8
X5.75Y-9.5
X5.8Y-8.7
X5.8Y-9.4
X5.85Y-8.8
X5.85Y-9.5
X5.9Y-8.7
X5.9Y-9.4
X5.95Y-8.8
X5.95Y-9.5
X6.0Y-8.7
X6.0Y-9.4
X6.05Y-8.8
X6.05Y-9.5
X6.1Y-8.7
X6.1Y-9.4
X6.15Y-8.8
X6.15Y-9.5
X6.2Y-8.7
X6.2Y-9.4
X6.25Y-8.8
X6.25Y-9.5
X6.3Y-8.7
X6.3Y-9.4
X6.35Y-8.8
X6.35Y-9.5
X6.4Y-8.7
X6.4Y-9.4
X6.45Y-8.8
X6.45Y-9.5
X6.5Y-8.7
X6.5Y-9.4
X6.55Y-8.8
X6.55Y-9.5
X6.6Y-8.7
X6.6Y-9.4
X6.65Y-8.8
X6.65Y-9.5
X6.7Y-8.7
X6.7Y-9.4
X6.75Y-8.8
X6.75Y-9.5
X6.8Y-8.7
X6.8Y-9.4
X6.85Y-8.8
X6.85Y-9.5
X6.9Y-8.7
X6.9Y-9.4
X6.95Y-8.8
X6.95Y-9.5
X7.2Y-8.7
X7.2Y-9.4
X7.25Y-8.8
X7.25Y-9.5
X7.3Y-8.7
X7.3Y-9.4
X7.35Y-8.8
X7.35Y-9.5
X7.4Y-8.7
X7.4Y-9.4
X7.45Y-8.8
X7.45Y-9.5
X7.5Y-8.7
X7.5Y-9.4
X7.55Y-8.8
X7.55Y-9.5
X7.6Y-8.7
X7.6Y-9.4
X7.65Y-8.8
X7.65Y-9.5
X7.7Y-8.7
X7.7Y-9.4
X7.75Y-8.8
X7.75Y-9.5
X7.8Y-8.7
X7.8Y-9.4
X7.85Y-8.8
X7.85Y-9.5
X7.9Y-8.7
X7.9Y-9.4
X7.95Y-8.8
X7.95Y-9.5
X8.0Y-8.7
X8.0Y-9.4
X8.05Y-8.8
X8.05Y-9.5
X8.1Y-8.7
X8.1Y-9.4
X8.15Y-8.8
X8.15Y-9.5
X8.2Y-8.7
X8.2Y-9.4
X8.25Y-8.8
X8.25Y-9.5
X8.3Y-8.7
X8.3Y-9.4
X8.35Y-8.8
X8.35Y-9.5
X8.4Y-8.7
X8.4Y-9.4
X8.45Y-8.8
X8.45Y-9.5
X8.5Y-8.7
X8.5Y-9.4
X8.55Y-8.8
X8.55Y-9.5
X8.6Y-8.7
X8.6Y-9.4
X8.65Y-8.8
X8.65Y-9.5
X8.7Y-8.7
X8.7Y-9.4
X8.75Y-8.8
X8.75Y-9.5
X8.8Y-8.7
X8.8Y-9.4
X8.85Y-8.8
X8.85Y-9.5
X8.9Y-8.7
X8.9Y-9.4
X8.95Y-8.8
X8.95Y-9.5
T10
X1.5748Y-7.3228
X1.5748Y-7.4882
X1.5748Y-7.6535
X1.5748Y-7.8189
X1.5748Y-7.9843
X1.5748Y-8.1496
X1.5748Y-8.315
X1.5748Y-8.4803
X1.5748Y-8.6457
X1.5748Y-8.811
X1.5748Y-8.9764
X1.5748Y-9.1417
X1.7913Y-7.3228
X1.7913Y-7.4882
X1.7913Y-7.6535
X1.7913Y-7.8189
X1.7913Y-7.9843
X1.7913Y-8.1496
X1.7913Y-8.315
X1.7913Y-8.4803
X1.7913Y-8.6457
X1.7913Y-8.811
X1.7913Y-8.9764
X1.7913Y-9.1417
T11
X10.6987Y-3.5039
X11.5054Y-3.5039
T12
X7.5567Y-1.6752
X8.1689Y-1.6752
T13
X8.9961Y-1.3976
X9.2618Y-1.3661
X9.5276Y-1.3976
X9.872Y-1.3976
X10.1378Y-1.3661
X10.4035Y-1.3976
T14
X1.5788Y-7.1353
T15
X11.4075Y-1.4862
X12.3917Y-1.4862
X12.7854Y-1.4862
X13.7697Y-1.4862
T0
M30
