M48
; DRILL file {KiCad (6.0.11)} date Sun Feb  5 13:30:25 2023
; FORMAT={-:-/ absolute / metric / decimal}
; #@! TF.CreationDate,2023-02-05T13:30:25+00:00
; #@! TF.GenerationSoftware,Kicad,Pcbnew,(6.0.11)
; #@! TF.FileFunction,Plated,1,4,PTH
FMAT,2
METRIC
; #@! TA.AperFunction,Plated,PTH,ViaDrill
T1C0.250
; #@! TA.AperFunction,Plated,PTH,ComponentDrill
T2C0.700
; #@! TA.AperFunction,Plated,PTH,ComponentDrill
T3C0.762
; #@! TA.AperFunction,Plated,PTH,ComponentDrill
T4C0.800
; #@! TA.AperFunction,Plated,PTH,ComponentDrill
T5C0.890
; #@! TA.AperFunction,Plated,PTH,ComponentDrill
T6C0.900
; #@! TA.AperFunction,Plated,PTH,ComponentDrill
T7C1.000
; #@! TA.AperFunction,Plated,PTH,ComponentDrill
T8C1.100
; #@! TA.AperFunction,Plated,PTH,ComponentDrill
T9C1.397
; #@! TA.AperFunction,Plated,PTH,ComponentDrill
T10C1.500
; #@! TA.AperFunction,Plated,PTH,ComponentDrill
T11C1.600
; #@! TA.AperFunction,Plated,PTH,ComponentDrill
T12C2.300
; #@! TA.AperFunction,Plated,PTH,ComponentDrill
T13C2.997
; #@! TA.AperFunction,Plated,PTH,ComponentDrill
T14C3.200
%
G90
G05
T1
X33.85Y-132.25
X35.0Y-190.2
X35.75Y-46.2
X36.7Y-196.35
X36.7Y-225.9
X37.2Y-119.4
X37.3Y-230.25
X38.15Y-132.25
X39.0Y-118.45
X39.05Y-140.9
X39.05Y-148.0
X42.0Y-131.1
X42.75Y-217.4
X44.075Y-143.525
X44.8Y-132.6
X45.85Y-151.85
X46.1Y-141.9
X47.15Y-146.85
X49.5Y-125.7
X49.55Y-131.4
X49.6Y-174.05
X49.65Y-154.55
X50.841Y-172.008
X50.85Y-183.0
X50.9Y-154.55
X51.4Y-219.6
X51.65Y-241.8
X52.1Y-204.95
X52.15Y-154.55
X52.15Y-173.5
X52.45Y-132.6
X52.45Y-195.0
X52.81Y-109.6
X53.3Y-48.15
X53.3Y-221.5
X53.4Y-137.95
X53.45Y-154.55
X53.5Y-173.0
X54.7Y-101.2
X54.7Y-138.0
X54.75Y-154.5
X54.75Y-175.0
X55.5Y-233.3
X55.85Y-99.45
X55.85Y-138.0
X56.0Y-154.5
X56.05Y-174.5
X56.25Y-236.0
X56.879Y-219.6
X57.0Y-103.7
X57.0Y-137.95
X57.3Y-151.8
X57.45Y-183.0
X58.2Y-137.95
X59.21Y-225.19
X59.3Y-137.95
X59.4Y-228.95
X59.7Y-236.0
X59.8Y-97.45
X59.8Y-100.9
X60.45Y-137.95
X61.55Y-102.2
X61.55Y-137.95
X61.65Y-148.1
X62.05Y-215.0
X62.1Y-200.0
X62.15Y-195.0
X62.15Y-205.0
X62.15Y-210.0
X62.25Y-190.0
X62.65Y-41.2
X62.7Y-124.45
X62.7Y-126.95
X63.55Y-143.0
X63.7Y-219.6
X63.75Y-94.55
X63.754Y-229.108
X64.0Y-235.95
X64.3Y-156.5
X64.65Y-98.65
X65.0Y-219.25
X65.024Y-221.234
X65.75Y-151.85
X66.2Y-86.8
X66.2Y-138.1
X66.2Y-141.2
X66.35Y-234.1
X66.35Y-239.2
X67.0Y-154.45
X67.0Y-167.0
X67.5Y-90.85
X67.5Y-138.0
X68.072Y-225.171
X68.35Y-154.45
X68.35Y-169.5
X68.75Y-89.3
X68.75Y-138.0
X69.6Y-154.5
X69.6Y-164.5
X70.0Y-93.55
X70.0Y-138.0
X70.2Y-236.0
X70.65Y-232.8
X70.85Y-154.5
X70.85Y-171.55
X71.25Y-219.6
X71.3Y-91.7
X71.3Y-138.0
X71.95Y-234.0
X72.05Y-206.5
X72.055Y-203.195
X72.1Y-154.5
X72.1Y-169.0
X72.5Y-138.0
X72.55Y-58.1
X72.95Y-60.5
X73.05Y-224.85
X73.05Y-226.6
X73.05Y-229.35
X73.05Y-231.65
X73.35Y-109.6
X73.35Y-206.5
X73.4Y-154.5
X73.409Y-166.492
X73.7Y-56.55
X73.8Y-59.1
X73.9Y-85.9
X73.9Y-116.4
X73.9Y-236.0
X73.95Y-88.55
X73.95Y-91.05
X73.95Y-96.15
X73.95Y-98.65
X73.95Y-101.2
X73.95Y-103.7
X73.95Y-106.25
X73.95Y-113.9
X74.0Y-63.05
X74.0Y-65.6
X74.0Y-68.15
X74.0Y-70.7
X74.0Y-73.3
X74.0Y-75.85
X74.0Y-80.75
X74.0Y-83.4
X74.0Y-93.55
X74.0Y-108.75
X74.15Y-165.0
X74.5Y-199.9
X74.6Y-203.124
X74.6Y-208.75
X74.65Y-131.4
X74.7Y-154.5
X74.7Y-171.0
X74.9Y-138.3
X75.95Y-140.15
X75.95Y-154.5
X75.95Y-168.5
X76.25Y-236.0
X77.2Y-139.25
X77.2Y-151.75
X78.8Y-216.0
X80.1Y-131.4
X80.5Y-177.5
X80.95Y-208.7
X81.8Y-191.0
X82.412Y-235.137
X82.7Y-141.15
X83.05Y-132.6
X83.15Y-92.2
X83.2Y-48.15
X83.495Y-90.145
X83.78Y-100.33
X83.815Y-97.765
X83.85Y-209.15
X83.865Y-205.165
X83.879Y-112.979
X83.93Y-64.77
X83.935Y-105.385
X83.946Y-95.254
X83.96Y-72.39
X83.98Y-74.93
X84.031Y-115.519
X84.125Y-69.825
X84.215Y-67.285
X84.255Y-87.655
X84.3Y-166.0
X84.45Y-82.6
X84.735Y-85.065
X84.75Y-61.65
X84.8Y-236.0
X84.85Y-118.25
X85.35Y-229.0
X85.6Y-216.0
X85.6Y-222.5
X85.75Y-151.75
X86.2Y-141.1
X86.396Y-120.904
X86.85Y-190.1
X87.0Y-244.55
X87.05Y-154.5
X87.05Y-180.15
X87.5Y-237.25
X87.65Y-46.5
X87.65Y-124.2
X88.3Y-154.5
X88.3Y-177.5
X88.75Y-92.2
X88.75Y-141.0
X88.85Y-201.0
X89.35Y-223.55
X89.4Y-229.95
X89.4Y-242.0
X89.45Y-191.0
X89.6Y-154.5
X89.6Y-166.0
X90.2Y-80.8
X90.2Y-141.0
X90.85Y-154.5
X90.85Y-168.0
X91.45Y-78.75
X91.45Y-141.0
X92.075Y-214.63
X92.1Y-154.5
X92.1Y-165.5
X92.3Y-201.0
X92.85Y-83.4
X92.85Y-141.0
X93.4Y-154.5
X93.4Y-167.5
X94.1Y-45.2
X94.1Y-201.0
X94.2Y-81.6
X94.2Y-141.0
X94.361Y-218.44
X94.65Y-229.0
X94.7Y-154.5
X94.7Y-170.0
X95.4Y-85.95
X95.4Y-141.0
X95.7Y-179.6
X95.7Y-217.2
X95.8Y-198.25
X95.95Y-154.5
X95.95Y-165.0
X96.25Y-63.5
X96.75Y-84.2
X96.75Y-141.0
X96.95Y-58.75
X97.1Y-65.55
X97.25Y-151.8
X97.5Y-201.0
X97.75Y-223.45
X98.0Y-88.5
X98.0Y-141.0
X98.85Y-124.45
X99.15Y-201.05
X99.314Y-214.63
X99.35Y-223.5
X99.6Y-183.6
X100.55Y-107.2
X100.9Y-190.65
X101.0Y-61.4
X101.0Y-111.05
X101.0Y-176.5
X101.85Y-55.55
X101.85Y-57.25
X101.86Y-53.34
X102.2Y-58.75
X102.2Y-60.55
X102.2Y-188.0
X102.65Y-201.05
X102.85Y-117.2
X102.85Y-139.45
X103.45Y-176.5
X103.45Y-203.95
X103.65Y-229.0
X104.275Y-201.05
X104.4Y-63.05
X104.4Y-70.7
X104.4Y-80.75
X104.4Y-83.45
X104.45Y-68.35
X104.45Y-73.3
X104.45Y-75.8
X104.45Y-85.95
X104.45Y-88.5
X104.45Y-91.1
X104.45Y-93.5
X104.45Y-96.15
X104.45Y-98.65
X104.45Y-101.2
X104.45Y-103.65
X104.45Y-113.85
X104.5Y-65.7
X104.5Y-106.25
X104.5Y-108.8
X104.5Y-116.45
X105.2Y-131.4
X105.3Y-234.0
X105.7Y-138.85
X105.85Y-142.05
X106.5Y-247.45
X107.05Y-220.6
X107.2Y-176.5
X107.75Y-145.5
X107.85Y-155.5
X107.85Y-182.55
X108.5Y-197.4
X108.6Y-160.0
X108.6Y-191.3
X108.9Y-151.85
X108.9Y-217.6
X109.0Y-141.4
X109.1Y-233.9
X109.25Y-181.0
X109.25Y-190.15
X110.15Y-175.5
X110.2Y-154.4
X110.45Y-131.4
X110.8Y-160.5
X111.42Y-142.73
X111.45Y-154.4
X111.45Y-176.0
X112.05Y-220.6
X112.3Y-190.15
X112.3Y-211.0
X112.69Y-142.76
X112.7Y-137.5
X112.7Y-154.4
X112.7Y-176.45
X113.55Y-132.6
X113.6Y-161.0
X113.75Y-48.15
X113.95Y-121.2
X113.95Y-154.4
X113.96Y-142.66
X114.1Y-108.8
X114.15Y-233.9
X114.35Y-123.8
X114.35Y-181.5
X114.8Y-62.2
X114.85Y-211.5
X114.95Y-95.3
X114.95Y-113.0
X115.0Y-64.75
X115.0Y-90.15
X115.0Y-97.8
X115.0Y-100.3
X115.0Y-105.4
X115.0Y-115.5
X115.05Y-59.4
X115.05Y-67.3
X115.05Y-72.4
X115.05Y-85.1
X115.05Y-87.7
X115.05Y-92.7
X115.1Y-74.95
X115.1Y-82.5
X115.15Y-79.9
X115.25Y-69.8
X115.25Y-142.7
X115.3Y-56.85
X115.95Y-159.5
X116.1Y-199.4
X116.1Y-218.5
X116.5Y-142.65
X116.5Y-235.0
X117.45Y-212.1
X117.55Y-161.5
X117.8Y-107.2
X117.8Y-142.65
X118.45Y-159.0
X118.5Y-126.05
X118.75Y-203.95
X119.05Y-154.4
X119.1Y-233.5
X119.15Y-110.3
X119.25Y-178.45
X119.9Y-212.55
X120.05Y-162.0
X120.109Y-118.059
X120.3Y-151.8
X120.7Y-231.0
X120.75Y-121.2
X121.55Y-158.5
X121.85Y-128.3
X121.85Y-141.15
X122.209Y-162.492
X122.45Y-210.3
X123.0Y-155.5
X123.0Y-184.5
X123.45Y-39.75
X123.8Y-162.95
X124.3Y-231.0
X124.5Y-40.5
X124.5Y-156.5
X125.0Y-185.55
X125.125Y-209.75
X126.25Y-120.6
X126.25Y-137.7
X126.3Y-163.5
X126.65Y-231.0
X127.525Y-209.2
X128.85Y-163.95
X129.25Y-232.5
X129.55Y-70.35
X130.125Y-208.6
X130.35Y-231.0
X131.45Y-146.75
X131.45Y-230.5
X131.5Y-118.65
X131.5Y-120.2
X131.6Y-124.5
X131.6Y-127.05
X132.2Y-62.2
X132.2Y-230.0
X132.35Y-59.65
X132.35Y-64.75
X132.45Y-67.3
X132.45Y-150.85
X132.55Y-117.3
X132.55Y-137.7
X132.65Y-187.7
X133.05Y-144.25
X133.55Y-124.5
X133.6Y-41.4
X134.0Y-147.9
X134.35Y-202.0
X134.404Y-139.754
X134.5Y-181.0
X134.5Y-194.0
X134.625Y-208.65
X134.85Y-113.85
X134.9Y-85.9
X134.9Y-101.1
X134.9Y-116.35
X134.95Y-75.65
X134.95Y-83.4
X134.95Y-88.5
X134.95Y-90.8
X134.95Y-98.6
X134.95Y-108.8
X135.0Y-80.7
X135.0Y-93.4
X135.0Y-96.1
X135.0Y-103.6
X135.0Y-106.15
X135.0Y-181.5
X135.0Y-195.35
X135.05Y-73.15
X135.1Y-70.5
X135.15Y-57.25
X135.15Y-60.35
X135.15Y-126.2
X135.2Y-62.82
X135.2Y-65.55
X135.2Y-68.05
X135.4Y-131.4
X135.7Y-185.55
X135.7Y-199.4
X136.5Y-180.15
X136.5Y-190.2
X136.945Y-140.255
X137.1Y-146.85
X137.125Y-209.25
X137.85Y-202.0
X138.35Y-146.85
X138.365Y-154.165
X139.65Y-146.85
X139.675Y-209.75
X140.05Y-157.5
X140.8Y-158.0
X140.9Y-146.85
X140.95Y-131.4
X141.5Y-156.5
X141.7Y-144.25
X142.0Y-157.0
X142.175Y-210.25
X142.2Y-146.85
X142.2Y-149.5
X142.2Y-154.15
X142.3Y-155.4
X143.449Y-151.849
X143.45Y-47.8
X143.45Y-146.85
X143.55Y-156.0
X144.2Y-132.6
X144.4Y-216.0
X144.5Y-102.8
X144.5Y-105.1
X144.55Y-140.85
X144.8Y-226.9
X145.3Y-216.85
X145.45Y-154.5
X145.7Y-116.15
X145.85Y-135.0
X145.9Y-149.1
X146.0Y-155.5
X146.05Y-213.75
X146.5Y-155.0
X146.65Y-125.25
X146.65Y-136.5
X146.95Y-145.0
X147.15Y-137.65
X148.2Y-178.45
X148.2Y-200.3
X148.4Y-105.5
X148.4Y-119.55
X148.95Y-147.85
X149.5Y-183.6
X149.6Y-106.8
X149.6Y-121.05
X149.645Y-145.005
X150.35Y-124.2
X150.75Y-179.6
X150.95Y-122.25
X151.3Y-140.2
X151.55Y-142.75
X151.9Y-39.75
X151.9Y-60.45
X151.9Y-113.75
X151.95Y-110.75
X152.0Y-125.15
X152.25Y-106.0
X152.3Y-127.9
X152.7Y-63.3
X152.7Y-64.6
X152.7Y-65.9
X152.7Y-67.15
X152.7Y-68.4
X152.7Y-69.65
X152.7Y-70.95
X152.7Y-72.25
X152.8Y-118.4
X152.95Y-81.05
X152.95Y-82.35
X152.95Y-83.6
X152.95Y-84.85
X152.95Y-86.15
X152.95Y-87.4
X152.95Y-88.7
X153.0Y-79.8
X153.0Y-202.25
X153.0Y-205.7
X153.5Y-178.25
X153.5Y-181.7
X154.25Y-139.55
X154.3Y-44.0
X154.5Y-110.0
X154.8Y-145.4
X155.15Y-141.5
X155.2Y-58.5
X155.35Y-74.75
X155.45Y-177.5
X155.55Y-107.25
X155.6Y-91.2
X155.6Y-123.45
X155.7Y-111.7
X155.78Y-132.62
X156.0Y-168.0
X156.3Y-57.2
X156.3Y-73.5
X156.3Y-89.95
X156.3Y-105.95
X156.9Y-167.5
X157.2Y-119.6
X157.55Y-170.0
X157.75Y-114.55
X157.8Y-44.0
X158.75Y-166.95
X158.75Y-226.9
X158.85Y-42.3
X159.25Y-166.0
X159.5Y-136.5
X159.5Y-143.05
X159.9Y-44.0
X160.2Y-165.5
X160.3Y-146.5
X160.3Y-149.1
X161.0Y-58.5
X161.0Y-74.75
X161.0Y-91.2
X161.05Y-107.2
X161.05Y-109.05
X161.3Y-169.5
X162.0Y-47.1
X162.0Y-63.4
X162.2Y-146.8
X162.35Y-95.8
X162.35Y-113.25
X162.4Y-79.8
X162.6Y-165.0
X163.3Y-44.0
X163.85Y-164.5
X163.95Y-143.55
X164.4Y-212.6
X164.7Y-127.0
X164.7Y-135.95
X164.95Y-212.1
X165.1Y-165.5
X165.1Y-186.35
X165.55Y-111.65
X165.55Y-146.8
X165.65Y-211.5
X165.684Y-61.85
X165.8Y-116.45
X165.8Y-132.8
X166.05Y-94.225
X166.134Y-78.7
X166.3Y-211.0
X166.4Y-169.0
X167.584Y-61.85
X167.65Y-171.55
X168.5Y-108.45
X168.5Y-119.5
X168.784Y-79.5
X168.8Y-95.175
X168.9Y-171.0
X169.25Y-118.85
X169.25Y-153.5
X170.0Y-92.0
X170.0Y-131.95
X170.2Y-166.5
X170.8Y-114.95
X170.8Y-124.45
X170.8Y-133.4
X171.45Y-172.5
X172.1Y-131.6
X172.45Y-91.5
X172.45Y-117.65
X172.75Y-168.55
X173.0Y-89.95
X173.0Y-120.0
X173.5Y-88.65
X173.5Y-127.0
X174.0Y-87.4
X174.0Y-127.5
X174.5Y-86.15
X174.5Y-128.0
X175.0Y-84.9
X175.0Y-130.0
X175.2Y-170.5
X175.25Y-204.3
X175.5Y-83.6
X175.5Y-128.5
X175.5Y-236.8
X175.8Y-133.9
X176.0Y-82.35
X176.0Y-129.0
X176.5Y-81.05
X176.5Y-129.5
X176.55Y-172.0
X177.0Y-73.5
X177.0Y-144.0
X177.0Y-154.5
X177.5Y-72.25
X177.5Y-142.5
X177.5Y-155.0
X177.8Y-174.05
X177.9Y-225.95
X178.0Y-71.0
X178.0Y-143.0
X178.0Y-155.5
X178.45Y-227.7
X178.5Y-69.7
X178.5Y-142.0
X178.5Y-156.0
X179.0Y-68.4
X179.0Y-143.5
X179.0Y-156.5
X179.15Y-218.5
X179.5Y-67.15
X179.5Y-141.0
X179.5Y-157.0
X180.0Y-65.9
X180.0Y-140.5
X180.0Y-157.5
X180.35Y-173.5
X180.35Y-202.95
X180.5Y-64.6
X180.5Y-141.5
X180.5Y-158.0
X181.0Y-48.4
X181.0Y-81.1
X181.0Y-163.95
X181.35Y-229.05
X181.5Y-49.65
X181.5Y-80.45
X181.5Y-163.5
X181.6Y-173.0
X182.0Y-50.95
X182.0Y-79.85
X182.0Y-162.95
X182.1Y-183.4
X182.1Y-194.0
X182.5Y-52.15
X182.5Y-79.15
X182.5Y-162.5
X182.825Y-193.425
X182.85Y-182.75
X183.0Y-53.45
X183.0Y-78.5
X183.0Y-162.0
X183.5Y-54.7
X183.5Y-77.9
X183.5Y-161.5
X184.0Y-55.95
X184.0Y-76.6
X184.0Y-161.0
X184.15Y-211.95
X184.15Y-218.5
X184.2Y-174.5
X184.55Y-57.25
X184.55Y-75.95
X184.6Y-160.6
X185.0Y-135.3
X185.0Y-160.0
X185.005Y-97.5
X185.25Y-175.05
X185.4Y-236.45
X185.5Y-87.25
X185.5Y-98.0
X185.5Y-135.95
X185.5Y-159.5
X185.55Y-70.15
X185.95Y-175.5
X186.0Y-98.5
X186.0Y-136.65
X186.0Y-159.0
X186.5Y-99.0
X186.5Y-138.0
X186.5Y-158.5
X186.7Y-176.0
X186.7Y-226.0
X187.0Y-99.5
X187.0Y-138.5
X187.2Y-61.15
X187.5Y-38.05
X187.5Y-43.05
X187.5Y-100.0
X187.5Y-139.0
X187.9Y-177.0
X188.0Y-100.5
X188.0Y-139.5
X188.0Y-145.0
X188.25Y-69.2
X188.5Y-101.0
X188.5Y-140.0
X188.625Y-178.025
X188.65Y-214.15
X189.2Y-166.0
X189.2Y-227.7
X189.25Y-176.45
X189.3Y-92.5
X190.0Y-168.0
X190.65Y-165.5
X190.754Y-111.0
X190.8Y-178.5
X190.8Y-187.65
X191.05Y-77.2
X191.35Y-73.3
X191.35Y-75.3
X191.45Y-167.5
X191.5Y-179.0
X191.5Y-190.5
X191.5Y-192.45
X191.5Y-198.0
X191.7Y-201.6
X191.9Y-83.0
X191.9Y-132.7
X193.0Y-184.95
X193.0Y-191.45
X193.05Y-88.45
X193.05Y-199.1
X193.35Y-55.3
X193.7Y-84.8
X193.95Y-61.2
X193.95Y-198.9
X194.3Y-88.5
X194.45Y-208.9
X194.45Y-210.8
X194.6Y-179.5
X194.6Y-184.4
X195.0Y-88.5
X195.35Y-53.0
X195.35Y-177.5
X195.35Y-183.35
X195.35Y-184.25
X195.35Y-197.25
X195.45Y-66.25
X195.6Y-88.9
X196.0Y-180.5
X196.0Y-188.9
X196.3Y-88.55
X196.95Y-67.4
X196.95Y-138.5
X197.6Y-88.75
X198.15Y-217.0
X198.75Y-59.75
X199.4Y-214.5
X199.55Y-183.55
X199.55Y-195.3
X199.65Y-52.95
X199.9Y-58.75
X200.15Y-88.7
X200.2Y-67.4
X200.45Y-72.0
X200.65Y-219.5
X201.55Y-56.7
X201.9Y-213.9
X202.6Y-190.1
X202.6Y-201.85
X202.6Y-209.0
X203.2Y-219.0
X203.4Y-55.55
X203.8Y-140.0
X203.9Y-201.85
X203.9Y-209.5
X204.45Y-139.5
X204.5Y-212.95
X204.75Y-88.7
X205.15Y-201.85
X205.15Y-210.0
X205.25Y-57.5
X205.45Y-139.0
X205.65Y-67.0
X205.75Y-218.5
X206.05Y-208.5
X206.3Y-138.05
X206.45Y-201.85
X206.85Y-60.85
X206.85Y-74.35
X207.01Y-216.16
X207.35Y-125.95
X207.7Y-201.85
X207.75Y-75.65
X208.05Y-60.85
X208.1Y-67.0
X208.3Y-218.0
X208.35Y-76.7
X208.595Y-91.0
X208.6Y-88.5
X208.7Y-73.35
X208.95Y-193.5
X208.95Y-201.85
X208.95Y-213.0
X209.1Y-59.75
X209.3Y-88.5
X209.3Y-91.5
X209.45Y-64.25
X209.55Y-233.5
X210.1Y-41.45
X210.25Y-201.85
X210.25Y-210.5
X210.25Y-213.85
X210.7Y-87.25
X210.85Y-185.75
X210.85Y-214.5
X211.35Y-43.6
X211.45Y-208.5
X211.5Y-201.85
X211.95Y-69.9
X212.09Y-232.54
X212.1Y-210.0
X212.15Y-160.0
X212.825Y-199.25
X213.35Y-118.25
X213.4Y-217.5
X213.5Y-36.7
X213.6Y-84.05
X213.9Y-69.9
X213.95Y-87.2
X214.0Y-192.5
X214.5Y-122.5
X214.5Y-126.85
X214.6Y-209.5
X214.63Y-230.47
X215.25Y-109.5
X215.525Y-203.15
X215.9Y-137.25
X216.1Y-64.2
X216.55Y-203.4
X217.0Y-36.65
X217.15Y-136.65
X217.15Y-193.45
X217.15Y-202.4
X217.15Y-209.0
X217.17Y-229.98
X217.8Y-90.5
X217.8Y-180.0
X218.47Y-189.77
X218.9Y-87.15
X219.5Y-193.6
X219.75Y-199.0
X220.0Y-97.5
X220.025Y-81.125
X220.5Y-80.5
X220.5Y-98.0
X221.0Y-79.825
X221.0Y-98.5
X221.4Y-193.55
X221.475Y-79.175
X221.5Y-99.0
X221.95Y-215.55
X221.975Y-78.525
X222.0Y-99.5
X222.4Y-127.0
X222.5Y-100.0
X222.525Y-77.875
X222.975Y-77.225
X223.0Y-100.5
X223.35Y-129.0
X223.5Y-101.0
X223.525Y-76.575
X224.0Y-185.75
X224.5Y-92.5
X224.7Y-106.0
X224.8Y-199.0
X224.85Y-194.0
X224.85Y-215.0
X225.2Y-88.3
X225.2Y-92.0
X225.8Y-177.5
X226.1Y-194.0
X226.1Y-199.0
X226.2Y-184.95
X226.2Y-191.3
X226.4Y-123.5
X226.4Y-177.0
X226.65Y-100.1
X226.75Y-94.8
X226.95Y-123.0
X226.95Y-176.45
X226.95Y-184.25
X226.95Y-187.7
X227.133Y-70.666
X227.4Y-201.35
X227.5Y-122.5
X227.5Y-176.0
X227.65Y-89.55
X227.9Y-97.6
X228.0Y-65.85
X228.0Y-122.0
X228.0Y-175.5
X228.05Y-105.283
X228.5Y-121.5
X228.5Y-175.05
X228.65Y-92.45
X228.75Y-232.25
X229.0Y-121.0
X229.0Y-174.5
X229.15Y-100.1
X229.2Y-97.6
X229.5Y-120.5
X229.5Y-173.0
X230.0Y-120.0
X230.0Y-173.5
X230.0Y-178.0
X230.0Y-207.5
X230.45Y-87.55
X230.45Y-95.25
X230.5Y-166.0
X230.5Y-207.0
X230.6Y-108.6
X230.8Y-56.0
X231.05Y-168.0
X231.05Y-206.5
X231.15Y-215.55
X231.5Y-190.7
X231.5Y-196.95
X231.75Y-61.95
X231.75Y-82.4
X231.75Y-95.25
X231.75Y-100.05
X231.95Y-44.5
X232.05Y-165.5
X232.05Y-192.0
X232.25Y-232.25
X232.5Y-167.5
X232.5Y-192.5
X233.0Y-91.5
X233.0Y-95.25
X233.0Y-170.0
X233.0Y-193.0
X233.2Y-225.7
X233.5Y-165.0
X233.5Y-193.5
X234.0Y-166.95
X234.0Y-194.0
X234.25Y-56.0
X234.3Y-91.0
X234.3Y-95.25
X234.3Y-100.05
X234.5Y-166.5
X234.5Y-194.5
X234.75Y-232.25
X235.0Y-119.5
X235.0Y-168.55
X235.0Y-195.0
X235.5Y-43.6
X235.5Y-118.5
X235.5Y-170.5
X235.5Y-195.5
X236.0Y-119.0
X236.0Y-172.0
X236.0Y-196.0
X236.2Y-215.0
X236.5Y-171.55
X236.5Y-206.0
X237.0Y-169.0
X237.0Y-202.05
X237.0Y-205.5
X237.5Y-164.5
X237.5Y-202.55
X237.5Y-205.0
X238.0Y-169.5
X238.0Y-203.0
X238.1Y-53.9
X238.1Y-72.8
X238.1Y-114.95
X238.4Y-232.25
X238.5Y-171.0
X238.5Y-204.5
X238.8Y-225.05
X239.0Y-172.5
X239.0Y-204.0
X239.2Y-101.8
X239.4Y-82.4
X239.5Y-174.05
X239.5Y-197.05
X239.55Y-203.5
X240.0Y-108.5
X240.0Y-180.5
X240.65Y-46.55
X240.65Y-63.9
X242.2Y-107.0
X242.2Y-137.9
X242.35Y-46.85
X242.8Y-48.55
X242.85Y-67.05
X243.0Y-130.5
X243.0Y-218.5
X243.15Y-62.7
X243.5Y-132.0
X243.5Y-219.0
X244.0Y-131.5
X244.0Y-219.5
X244.25Y-39.75
X244.25Y-53.4
X244.25Y-103.0
X244.5Y-129.5
X244.5Y-218.0
X244.55Y-64.95
X245.0Y-130.0
X245.0Y-217.5
X245.1Y-97.5
X245.5Y-131.0
X245.5Y-217.0
X245.7Y-94.697
X246.0Y-141.0
X246.0Y-196.5
X246.1Y-211.0
X246.1Y-243.55
X246.35Y-44.45
X246.5Y-126.0
X246.5Y-178.5
X246.65Y-211.5
X246.65Y-244.15
X246.9Y-87.65
X247.1Y-53.2
X247.3Y-46.85
X247.75Y-103.0
X247.752Y-200.215
X248.2Y-90.0
X248.31Y-225.965
X249.2Y-56.1
X249.46Y-94.702
X250.45Y-48.5
X250.45Y-53.55
X250.65Y-103.0
X250.75Y-66.5
X250.85Y-113.9
X251.202Y-200.215
X251.71Y-226.015
X252.0Y-82.4
X252.0Y-118.0
X252.05Y-71.4
X252.25Y-196.0
X252.5Y-117.1
X252.5Y-137.5
X252.6Y-152.4
X253.0Y-115.8
X253.0Y-138.0
X253.35Y-144.8
X253.45Y-90.5
X253.5Y-50.65
X253.55Y-54.15
X253.7Y-81.7
X254.0Y-96.5
X254.0Y-239.5
X254.1Y-43.6
X254.25Y-115.6
X254.3Y-183.1
X254.6Y-69.4
X255.05Y-117.5
X255.075Y-81.125
X255.4Y-195.5
X255.6Y-185.0
X255.7Y-117.0
X256.54Y-238.99
X256.55Y-204.0
X256.55Y-221.6
X256.85Y-144.8
X256.9Y-97.0
X257.05Y-86.2
X257.5Y-124.0
X257.5Y-184.95
X257.7Y-195.0
X258.5Y-80.5
X258.5Y-116.5
X258.5Y-223.7
X259.05Y-197.05
X259.08Y-203.53
X259.08Y-238.48
X259.334Y-182.634
X260.0Y-86.2
X260.15Y-116.0
X260.45Y-194.5
X260.6Y-186.2
X260.9Y-68.25
X261.55Y-94.0
X261.6Y-198.0
X261.62Y-237.97
X261.65Y-223.7
X261.7Y-221.65
X261.875Y-79.825
X261.9Y-185.7
X262.16Y-89.99
X262.3Y-100.55
X262.85Y-194.0
X263.1Y-184.15
X263.15Y-176.5
X263.35Y-114.45
X263.45Y-90.2
X263.5Y-68.75
X264.15Y-204.5
X264.16Y-237.41
X264.2Y-168.9
X264.4Y-198.8
X264.7Y-81.7
X265.0Y-115.0
X265.1Y-79.2
X265.4Y-193.5
X265.55Y-162.55
X265.85Y-100.5
X266.05Y-45.35
X266.05Y-70.65
X266.5Y-97.7
X266.5Y-107.0
X266.7Y-203.0
X266.7Y-236.8
X266.95Y-146.4
X266.95Y-185.15
X267.2Y-83.35
X267.3Y-145.05
X267.75Y-108.5
X267.8Y-56.0
X267.8Y-93.0
X267.9Y-193.0
X268.3Y-106.45
X268.55Y-99.45
X268.6Y-46.85
X268.6Y-61.45
X268.75Y-184.65
X269.1Y-109.5
X269.15Y-197.0
X269.24Y-202.54
X269.24Y-204.99
X269.24Y-236.11
X269.5Y-183.6
X269.7Y-99.9
X269.825Y-78.525
X270.2Y-103.8
X270.45Y-183.65
X270.5Y-192.5
X270.8Y-145.05
X271.2Y-198.0
X271.3Y-56.0
X271.4Y-143.1
X271.5Y-103.8
X271.5Y-110.3
X271.78Y-94.869
X271.78Y-202.02
X271.78Y-205.48
X271.78Y-235.47
X271.8Y-190.7
X271.8Y-194.0
X272.35Y-49.75
X272.4Y-77.9
X272.75Y-103.8
X272.75Y-106.8
X273.05Y-192.0
X273.15Y-187.6
X273.2Y-99.9
X273.3Y-109.6
X273.4Y-135.0
X273.4Y-148.35
X273.4Y-151.1
X273.885Y-234.515
X274.0Y-103.8
X274.0Y-106.75
X274.1Y-191.3
X274.32Y-208.02
X274.35Y-233.75
X274.9Y-52.45
X274.9Y-70.0
X274.9Y-77.2
X275.2Y-33.15
X275.3Y-103.8
X275.3Y-104.866
X275.3Y-106.85
X275.35Y-43.45
X275.65Y-233.75
X276.0Y-206.5
X276.05Y-134.5
X276.15Y-70.65
X276.55Y-103.75
X276.86Y-206.01
X277.1Y-192.65
X277.114Y-133.514
X277.114Y-147.786
X277.3Y-56.0
X277.45Y-70.65
X277.5Y-76.55
X277.85Y-103.75
X278.1Y-186.8
X278.13Y-232.98
X278.15Y-135.5
X278.4Y-161.4
X278.4Y-182.1
X278.8Y-61.45
X279.0Y-136.0
X279.1Y-101.5
X279.1Y-109.0
X279.4Y-207.0
X279.65Y-136.5
X279.65Y-190.6
X279.65Y-193.2
X279.654Y-147.004
X280.45Y-144.85
X280.55Y-43.45
X280.67Y-232.43
X280.8Y-56.0
X280.9Y-183.65
X280.9Y-186.2
X281.45Y-207.5
X281.55Y-132.0
X281.7Y-33.15
X281.94Y-206.49
X282.15Y-105.5
X282.15Y-107.15
X282.2Y-134.0
X282.2Y-186.85
X282.4Y-62.0
X283.1Y-137.0
X283.3Y-196.0
X283.45Y-183.1
X283.95Y-144.8
X285.7Y-196.0
X286.3Y-105.25
X286.55Y-129.0
X286.55Y-145.1
X286.65Y-167.05
X287.02Y-217.98
X287.2Y-142.6
X287.23Y-160.02
X287.85Y-149.75
X287.85Y-161.4
X287.9Y-179.1
X287.9Y-180.85
X288.2Y-104.65
X288.29Y-210.99
X288.55Y-183.7
X289.45Y-102.7
X289.5Y-141.5
X289.5Y-163.65
X290.0Y-141.0
X290.0Y-165.1
X290.5Y-99.8
X290.5Y-115.0
X290.5Y-140.5
X290.5Y-166.15
X291.0Y-112.25
X291.0Y-116.5
X291.0Y-140.0
X291.01Y-167.64
X291.05Y-191.3
X291.5Y-108.5
X291.5Y-117.0
X291.5Y-139.5
X291.525Y-167.075
X292.0Y-105.9
X292.0Y-117.5
X292.0Y-139.0
X292.03Y-170.18
X292.5Y-109.7
X292.5Y-118.0
X292.5Y-127.0
X292.5Y-162.5
X292.95Y-118.5
X293.0Y-104.5
X293.0Y-168.9
X293.35Y-126.95
X293.5Y-100.85
X293.5Y-119.0
X293.6Y-146.4
X293.6Y-191.3
X294.0Y-107.0
X294.0Y-119.5
X294.283Y-164.133
X294.283Y-178.383
X294.5Y-97.0
X294.5Y-120.0
X294.5Y-130.0
X294.51Y-154.94
X294.9Y-165.65
X295.0Y-98.3
X295.0Y-120.5
X295.0Y-147.8
X295.05Y-67.6
X295.05Y-72.1
X295.5Y-96.5
X295.5Y-121.0
X295.5Y-147.0
X295.55Y-52.0
X295.68Y-170.18
X295.75Y-167.6
X296.0Y-95.75
X296.0Y-121.5
X296.1Y-192.65
X296.5Y-122.0
X296.55Y-94.6
X296.55Y-165.1
X297.0Y-94.0
X297.0Y-122.5
X297.0Y-169.1
X297.05Y-206.5
X297.1Y-151.0
X297.25Y-146.7
X297.5Y-61.15
X297.5Y-72.3
X297.5Y-75.75
X297.5Y-93.5
X297.5Y-123.0
X297.5Y-138.5
X297.7Y-151.9
X298.0Y-123.5
X298.0Y-211.0
X298.05Y-101.85
X298.25Y-137.0
X298.55Y-178.4
X298.55Y-217.95
X298.9Y-138.0
X298.9Y-142.5
X299.0Y-110.55
X299.25Y-146.7
X299.3Y-44.75
X299.5Y-137.5
X299.5Y-144.3
X299.7Y-148.95
X299.95Y-131.0
X300.0Y-112.85
X300.0Y-117.2
X300.1Y-188.05
X300.5Y-131.5
X300.55Y-44.75
X300.7Y-150.45
X300.75Y-72.7
X301.2Y-134.0
X302.0Y-130.5
X302.45Y-223.85
X302.5Y-198.0
X302.75Y-189.0
X303.35Y-119.7
X303.35Y-125.5
X303.75Y-198.8
X303.756Y-139.588
X303.806Y-136.088
X304.546Y-150.996
X304.8Y-239.5
X304.85Y-129.5
X304.95Y-90.4
X305.0Y-97.7
X305.0Y-105.2
X305.0Y-124.5
X305.65Y-44.7
X305.65Y-48.1
X305.7Y-129.8
X305.85Y-68.25
X305.85Y-197.0
X306.3Y-55.8
X306.4Y-136.5
X306.4Y-139.05
X306.65Y-128.9
X306.75Y-146.0
X306.9Y-52.25
X307.05Y-132.8
X307.34Y-239.01
X307.35Y-130.95
X307.35Y-204.0
X307.35Y-223.85
X308.2Y-49.85
X308.35Y-90.4
X308.35Y-172.45
X308.578Y-208.478
X308.95Y-136.5
X308.95Y-139.1
X309.6Y-42.3
X309.626Y-145.074
X309.88Y-203.53
X309.88Y-238.47
X310.2Y-136.5
X310.45Y-84.4
X310.65Y-151.15
X310.85Y-163.8
X310.925Y-169.15
X310.95Y-50.2
X311.0Y-46.8
X311.1Y-131.0
X311.3Y-149.1
X311.45Y-77.3
X311.5Y-139.1
X311.5Y-143.05
X311.5Y-147.6
X312.1Y-67.05
X312.4Y-183.0
X312.4Y-209.5
X312.42Y-197.98
X312.42Y-222.37
X312.42Y-238.0
X312.5Y-52.25
X312.8Y-136.9
X313.45Y-68.8
X313.55Y-63.45
X313.7Y-214.65
X314.3Y-84.4
X314.5Y-140.25
X314.7Y-44.1
X314.706Y-180.406
X314.95Y-237.4
X314.96Y-204.51
X315.05Y-147.6
X315.45Y-89.0
X315.95Y-179.35
X316.05Y-142.0
X316.1Y-101.0
X316.55Y-76.6
X317.25Y-83.75
X317.3Y-151.0
X317.5Y-203.0
X317.5Y-236.8
X318.5Y-69.4
X318.5Y-121.4
X319.45Y-138.5
X319.45Y-140.3
X319.45Y-146.0
X319.55Y-166.35
X319.7Y-72.7
X319.85Y-101.85
X319.85Y-131.2
X320.04Y-202.51
X320.04Y-205.01
X320.04Y-236.16
X320.35Y-137.8
X320.35Y-141.35
X320.4Y-133.75
X320.6Y-171.5
X320.9Y-121.15
X321.25Y-166.35
X322.35Y-65.9
X322.5Y-202.0
X322.58Y-205.47
X322.58Y-235.43
X322.95Y-89.0
X323.25Y-137.0
X323.4Y-184.0
X323.5Y-84.4
X323.6Y-66.9
X323.85Y-145.0
X324.05Y-135.2
X324.2Y-45.8
X324.55Y-142.0
X324.85Y-67.95
X324.95Y-119.2
X325.0Y-133.55
X325.12Y-208.02
X325.12Y-234.53
X325.6Y-145.75
X325.85Y-139.4
X326.15Y-67.95
X326.2Y-48.55
X326.2Y-101.0
X326.5Y-146.6
X326.5Y-149.1
X326.5Y-171.4
X326.75Y-176.75
X326.75Y-183.0
X326.9Y-194.0
X327.15Y-139.45
X327.4Y-62.75
X327.65Y-185.15
X327.66Y-206.01
X327.66Y-233.76
X327.9Y-146.2
X328.0Y-43.1
X328.3Y-170.2
X328.35Y-135.25
X328.45Y-55.6
X328.7Y-69.3
X328.75Y-148.35
X328.803Y-128.27
X328.85Y-151.0
X329.2Y-86.25
X329.25Y-47.25
X329.46Y-232.94
X329.65Y-139.45
X329.65Y-197.5
X330.0Y-63.45
X330.0Y-85.0
X330.05Y-173.2
X330.1Y-169.702
X330.2Y-178.1
X330.2Y-181.4
X330.35Y-150.5
X330.4Y-104.6
X330.4Y-113.5
X330.45Y-203.25
X330.5Y-190.65
X330.5Y-197.5
X331.35Y-146.2
X331.47Y-232.41
X331.6Y-174.05
X332.0Y-166.0
X332.232Y-137.414
X332.25Y-141.25
X332.4Y-42.2
X332.5Y-65.0
X332.55Y-45.0
X332.8Y-109.7
X332.8Y-118.6
X332.8Y-182.65
X332.998Y-149.098
X333.69Y-167.64
X333.725Y-208.975
X333.8Y-85.65
X333.85Y-45.0
X334.25Y-159.05
X335.0Y-67.0
X335.0Y-161.6
X335.1Y-129.8
X335.25Y-132.0
X335.55Y-165.1
X336.2Y-140.5
X336.2Y-158.825
X336.3Y-63.9
X336.3Y-93.0
X336.3Y-190.65
X336.5Y-209.5
X336.7Y-135.6
X337.5Y-67.95
X337.5Y-141.55
X337.5Y-147.6
X337.55Y-187.5
X337.55Y-193.4
X337.6Y-79.85
X337.65Y-47.4
X337.82Y-210.48
X338.8Y-203.2
X338.81Y-195.64
X338.85Y-82.7
X338.85Y-245.0
X338.9Y-47.4
X338.95Y-92.1
X339.1Y-210.0
X339.25Y-126.45
X339.85Y-76.75
X339.95Y-125.2
X340.0Y-98.55
X340.0Y-109.7
X340.05Y-186.85
X340.08Y-188.57
X340.1Y-69.25
X340.2Y-47.4
X340.25Y-55.75
X340.35Y-214.2
X340.515Y-208.435
X340.55Y-139.05
X340.741Y-128.27
X341.35Y-191.65
X341.35Y-193.35
X341.376Y-88.9
X341.4Y-79.15
X341.6Y-202.6
X341.8Y-111.05
X341.8Y-114.935
X341.85Y-42.2
X342.138Y-137.414
X342.3Y-245.0
X342.45Y-106.0
X342.45Y-117.35
X342.6Y-122.2
X342.6Y-125.65
X342.6Y-193.35
X342.7Y-57.45
X342.7Y-83.25
X342.7Y-86.95
X343.0Y-120.1
X343.05Y-145.1
X343.2Y-187.3
X343.85Y-193.3
X343.9Y-190.7
X343.95Y-77.85
X344.0Y-47.2
X344.0Y-50.7
X344.06Y-162.56
X344.17Y-219.02
X344.3Y-145.1
X344.75Y-227.65
X344.84Y-87.225
X345.15Y-78.55
X345.55Y-140.5
X345.55Y-142.45
X345.694Y-196.144
X345.7Y-165.95
X345.8Y-219.0
X345.8Y-242.65
X345.85Y-146.35
X345.95Y-217.2
X346.25Y-78.25
X346.45Y-70.0
X346.45Y-70.7
X346.5Y-219.45
X346.5Y-243.5
X346.7Y-99.7
X346.85Y-135.7
X346.85Y-141.5
X347.0Y-190.05
X347.0Y-193.55
X347.24Y-93.625
X347.25Y-104.65
X347.3Y-161.6
X347.45Y-132.0
X347.5Y-163.6
X347.6Y-214.2
X347.85Y-217.15
X347.9Y-81.55
X348.15Y-131.2
X348.15Y-135.7
X348.5Y-82.7
X348.6Y-182.05
X348.6Y-229.0
X349.1Y-83.25
X349.1Y-146.3
X349.4Y-157.15
X349.422Y-198.522
X349.65Y-101.0
X349.7Y-78.25
X350.15Y-118.6
X350.15Y-185.7
X350.75Y-98.55
X350.95Y-112.35
X350.95Y-197.0
X351.05Y-132.5
X351.5Y-137.1
X351.5Y-191.85
X351.55Y-100.3
X352.1Y-197.5
X352.44Y-92.275
X352.45Y-87.25
X352.65Y-139.05
X352.65Y-196.25
X352.75Y-68.6
X353.3Y-219.0
X353.95Y-137.1
X354.15Y-219.45
X354.45Y-155.0
X354.69Y-87.125
X354.69Y-90.525
X355.55Y-120.1
X356.15Y-118.0
X357.7Y-155.0
T2
X254.254Y-149.86
X254.254Y-152.4
X254.254Y-154.94
X254.254Y-157.48
X254.254Y-160.02
X254.254Y-162.56
X254.254Y-165.1
X254.254Y-167.64
X254.254Y-170.18
X254.254Y-172.72
X254.254Y-175.26
X254.254Y-177.8
X254.254Y-180.34
X256.794Y-149.86
X256.794Y-152.4
X256.794Y-154.94
X256.794Y-157.48
X256.794Y-160.02
X256.794Y-162.56
X256.794Y-165.1
X256.794Y-167.64
X256.794Y-170.18
X256.794Y-172.72
X256.794Y-175.26
X256.794Y-177.8
X256.794Y-180.34
X259.334Y-149.86
X259.334Y-152.4
X259.334Y-154.94
X259.334Y-157.48
X259.334Y-160.02
X259.334Y-162.56
X259.334Y-165.1
X259.334Y-167.64
X259.334Y-170.18
X259.334Y-172.72
X259.334Y-175.26
X259.334Y-177.8
X259.334Y-180.34
X261.874Y-149.86
X261.874Y-152.4
X261.874Y-175.26
X261.874Y-177.8
X261.874Y-180.34
X264.414Y-149.86
X264.414Y-152.4
X264.414Y-154.94
X264.414Y-175.26
X264.414Y-177.8
X264.414Y-180.34
X266.954Y-149.86
X266.954Y-152.4
X266.954Y-154.94
X266.954Y-157.48
X266.954Y-175.26
X266.954Y-177.8
X266.954Y-180.34
X269.494Y-149.86
X269.494Y-152.4
X269.494Y-154.94
X269.494Y-175.26
X269.494Y-177.8
X269.494Y-180.34
X272.034Y-149.86
X272.034Y-152.4
X272.034Y-154.94
X272.034Y-175.26
X272.034Y-177.8
X272.034Y-180.34
X274.574Y-149.86
X274.574Y-152.4
X274.574Y-154.94
X274.574Y-175.26
X274.574Y-177.8
X274.574Y-180.34
X277.114Y-149.86
X277.114Y-152.4
X277.114Y-157.48
X277.114Y-170.18
X277.114Y-175.26
X277.114Y-177.8
X277.114Y-180.34
X279.654Y-149.86
X279.654Y-152.4
X279.654Y-154.94
X279.654Y-157.48
X279.654Y-160.02
X279.654Y-162.56
X279.654Y-165.1
X279.654Y-167.64
X279.654Y-170.18
X279.654Y-172.72
X279.654Y-175.26
X279.654Y-177.8
X279.654Y-180.34
X282.194Y-149.86
X282.194Y-152.4
X282.194Y-154.94
X282.194Y-157.48
X282.194Y-160.02
X282.194Y-162.56
X282.194Y-165.1
X282.194Y-167.64
X282.194Y-170.18
X282.194Y-172.72
X282.194Y-175.26
X282.194Y-177.8
X282.194Y-180.34
X284.734Y-149.86
X284.734Y-152.4
X284.734Y-154.94
X284.734Y-157.48
X284.734Y-160.02
X284.734Y-162.56
X284.734Y-165.1
X284.734Y-167.64
X284.734Y-170.18
X284.734Y-172.72
X284.734Y-175.26
X284.734Y-177.8
X284.734Y-180.34
T3
X231.85Y-38.5
X231.85Y-41.0
X233.95Y-38.5
X236.55Y-38.5
X238.65Y-38.5
X238.65Y-41.0
X254.1Y-38.5
X254.1Y-41.0
X256.2Y-38.5
X258.8Y-38.5
X260.9Y-38.5
X260.9Y-41.0
X261.874Y-154.94
X261.874Y-157.48
X261.874Y-170.18
X261.874Y-172.72
X266.954Y-172.72
X277.114Y-154.94
X277.114Y-172.72
T4
X38.1Y-55.88
X38.1Y-58.42
X38.1Y-60.96
X38.1Y-63.5
X38.1Y-66.04
X38.1Y-68.58
X38.1Y-71.12
X38.1Y-73.66
X38.1Y-76.2
X58.42Y-68.58
X58.42Y-71.12
X58.42Y-73.66
X58.42Y-76.2
X58.42Y-78.74
X58.42Y-81.28
X58.42Y-83.82
X58.42Y-86.36
X58.42Y-88.9
X79.22Y-185.9
X81.76Y-185.9
X84.3Y-185.9
X86.84Y-185.9
X89.38Y-185.9
X91.92Y-185.9
X94.46Y-185.9
X97.0Y-185.9
X99.06Y-50.8
X99.06Y-53.34
X99.06Y-55.88
X99.06Y-58.42
X99.06Y-60.96
X99.06Y-63.5
X99.06Y-66.04
X99.06Y-68.58
X99.06Y-71.12
X102.12Y-186.0
X104.66Y-186.0
X107.2Y-186.0
X109.74Y-186.0
X112.28Y-186.0
X114.82Y-186.0
X117.36Y-186.0
X119.9Y-186.0
X129.325Y-143.0
X129.54Y-48.245
X129.54Y-50.785
X129.54Y-53.325
X129.54Y-55.865
X129.54Y-58.405
X129.54Y-60.945
X129.54Y-63.485
X129.54Y-66.025
X129.54Y-68.565
X131.865Y-143.0
X134.405Y-143.0
X136.945Y-143.0
X139.485Y-143.0
X142.025Y-143.0
X144.565Y-143.0
X147.105Y-143.0
X149.645Y-143.0
X157.45Y-130.08
X157.45Y-132.62
X157.45Y-135.16
X157.45Y-137.7
X157.45Y-140.24
X157.45Y-142.78
X157.45Y-145.32
X157.45Y-147.86
X157.45Y-150.4
X158.76Y-181.3
X158.76Y-183.84
X158.76Y-186.38
X158.76Y-188.92
X158.76Y-191.46
X158.76Y-194.0
X158.76Y-196.54
X158.76Y-199.08
X158.76Y-201.62
X158.76Y-204.16
X158.76Y-206.7
X161.3Y-178.76
X161.3Y-181.3
X161.3Y-183.84
X161.3Y-186.38
X161.3Y-188.92
X161.3Y-191.46
X161.3Y-194.0
X161.3Y-196.54
X161.3Y-199.08
X161.3Y-201.62
X161.3Y-204.16
X161.3Y-206.7
X161.3Y-209.24
X163.84Y-178.76
X163.84Y-181.3
X163.84Y-206.7
X163.84Y-209.24
X166.38Y-178.76
X166.38Y-181.3
X166.38Y-206.7
X166.38Y-209.24
X168.92Y-178.76
X168.92Y-181.3
X168.92Y-206.7
X168.92Y-209.24
X171.46Y-178.76
X171.46Y-181.3
X171.46Y-206.7
X171.46Y-209.24
X174.0Y-178.76
X174.0Y-181.3
X174.0Y-206.7
X174.0Y-209.24
X176.54Y-178.76
X176.54Y-181.3
X176.54Y-206.7
X176.54Y-209.24
X179.08Y-178.76
X179.08Y-181.3
X179.08Y-206.7
X179.08Y-209.24
X181.62Y-178.76
X181.62Y-181.3
X181.62Y-206.7
X181.62Y-209.24
X184.16Y-178.76
X184.16Y-181.3
X184.16Y-206.7
X184.16Y-209.24
X186.7Y-178.76
X186.7Y-181.3
X186.7Y-183.84
X186.7Y-186.38
X186.7Y-188.92
X186.7Y-191.46
X186.7Y-194.0
X186.7Y-196.54
X186.7Y-199.08
X186.7Y-201.62
X186.7Y-204.16
X186.7Y-206.7
X186.7Y-209.24
X189.24Y-181.3
X189.24Y-183.84
X189.24Y-186.38
X189.24Y-188.92
X189.24Y-191.46
X189.24Y-194.0
X189.24Y-196.54
X189.24Y-199.08
X189.24Y-201.62
X189.24Y-204.16
X189.24Y-206.7
X198.15Y-187.45
X200.69Y-187.45
X203.23Y-187.45
X205.77Y-187.45
X208.31Y-187.45
X210.85Y-187.45
X213.39Y-187.45
X215.93Y-187.45
X218.03Y-48.03
X218.03Y-55.65
X218.47Y-187.45
X220.98Y-213.36
X221.062Y-68.55
X221.062Y-73.45
X223.52Y-213.36
X225.65Y-48.03
X225.65Y-55.65
X226.06Y-213.36
X228.6Y-213.36
X231.14Y-213.36
X231.74Y-59.5
X231.74Y-74.74
X233.68Y-213.36
X234.28Y-59.5
X234.28Y-74.74
X236.22Y-213.36
X236.82Y-59.5
X236.82Y-74.74
X238.76Y-213.36
X239.36Y-59.5
X239.36Y-74.74
X241.3Y-213.36
X241.9Y-59.5
X241.9Y-74.74
X244.38Y-84.5
X244.38Y-92.12
X244.44Y-59.5
X244.44Y-74.74
X246.92Y-84.5
X246.92Y-92.12
X246.98Y-59.5
X246.98Y-74.74
X249.46Y-84.5
X249.46Y-92.12
X249.52Y-59.5
X249.52Y-74.74
X252.0Y-84.5
X252.0Y-92.12
X252.06Y-59.5
X252.06Y-74.74
X254.0Y-200.406
X254.0Y-215.646
X254.0Y-226.06
X254.0Y-241.3
X254.54Y-84.5
X254.54Y-92.12
X254.6Y-59.5
X254.6Y-74.74
X256.54Y-200.406
X256.54Y-215.646
X256.54Y-226.06
X256.54Y-241.3
X257.08Y-84.5
X257.08Y-92.12
X257.14Y-59.5
X257.14Y-74.74
X259.08Y-200.406
X259.08Y-215.646
X259.08Y-226.06
X259.08Y-241.3
X259.62Y-84.5
X259.62Y-92.12
X259.68Y-59.5
X259.68Y-74.74
X261.62Y-200.406
X261.62Y-215.646
X261.62Y-226.06
X261.62Y-241.3
X262.16Y-84.5
X262.16Y-92.12
X262.22Y-59.5
X262.22Y-74.74
X264.16Y-200.406
X264.16Y-215.646
X264.16Y-226.06
X264.16Y-241.3
X264.7Y-84.5
X264.7Y-92.12
X264.76Y-59.5
X264.76Y-74.74
X265.78Y-112.2
X266.7Y-200.406
X266.7Y-215.646
X266.7Y-226.06
X266.7Y-241.3
X267.3Y-59.5
X267.3Y-74.74
X268.32Y-112.2
X269.24Y-200.406
X269.24Y-215.646
X269.24Y-226.06
X269.24Y-241.3
X269.84Y-59.5
X269.84Y-74.74
X270.86Y-112.2
X271.78Y-200.406
X271.78Y-215.646
X271.78Y-226.06
X271.78Y-241.3
X272.38Y-59.5
X272.38Y-74.74
X273.4Y-112.2
X274.32Y-200.406
X274.32Y-215.646
X274.32Y-226.06
X274.32Y-241.3
X274.92Y-59.5
X274.92Y-74.74
X275.825Y-189.0
X275.94Y-112.2
X276.86Y-200.406
X276.86Y-215.646
X276.86Y-226.06
X276.86Y-241.3
X277.46Y-59.5
X277.46Y-74.74
X278.365Y-189.0
X278.48Y-112.2
X279.4Y-200.406
X279.4Y-215.646
X279.4Y-226.06
X279.4Y-241.3
X280.0Y-59.5
X280.0Y-74.74
X280.905Y-189.0
X281.02Y-112.2
X281.94Y-200.406
X281.94Y-215.646
X281.94Y-226.06
X281.94Y-241.3
X283.445Y-189.0
X283.56Y-112.2
X284.48Y-200.406
X284.48Y-215.646
X284.48Y-226.06
X284.48Y-241.3
X285.985Y-189.0
X286.1Y-112.2
X287.02Y-200.406
X287.02Y-215.646
X287.02Y-226.06
X287.02Y-241.3
X288.525Y-189.0
X289.56Y-200.406
X289.56Y-215.646
X289.56Y-226.06
X289.56Y-241.3
X291.065Y-189.0
X292.1Y-200.406
X292.1Y-215.646
X292.1Y-226.06
X292.1Y-241.3
X293.605Y-189.0
X296.145Y-189.0
X299.466Y-154.94
X299.466Y-157.48
X299.466Y-160.02
X299.466Y-162.56
X299.466Y-165.1
X299.466Y-167.64
X299.466Y-170.18
X299.466Y-172.72
X299.466Y-175.26
X300.75Y-59.51
X300.75Y-74.75
X302.006Y-152.4
X302.006Y-154.94
X302.006Y-157.48
X302.006Y-160.02
X302.006Y-162.56
X302.006Y-165.1
X302.006Y-167.64
X302.006Y-170.18
X302.006Y-172.72
X302.006Y-175.26
X302.006Y-177.8
X303.29Y-59.51
X303.29Y-74.75
X304.546Y-152.4
X304.546Y-154.94
X304.546Y-175.26
X304.546Y-177.8
X304.8Y-200.66
X304.8Y-215.9
X304.8Y-226.06
X304.8Y-241.3
X305.83Y-59.51
X305.83Y-74.75
X307.086Y-152.4
X307.086Y-154.94
X307.086Y-175.26
X307.086Y-177.8
X307.16Y-98.28
X307.16Y-100.82
X307.16Y-103.36
X307.16Y-105.9
X307.16Y-108.44
X307.16Y-110.98
X307.16Y-113.52
X307.16Y-116.06
X307.16Y-118.6
X307.16Y-121.14
X307.16Y-123.68
X307.34Y-200.66
X307.34Y-215.9
X307.34Y-226.06
X307.34Y-241.3
X308.37Y-59.51
X308.37Y-74.75
X309.626Y-152.4
X309.626Y-154.94
X309.626Y-175.26
X309.626Y-177.8
X309.7Y-95.74
X309.7Y-98.28
X309.7Y-100.82
X309.7Y-103.36
X309.7Y-105.9
X309.7Y-108.44
X309.7Y-110.98
X309.7Y-113.52
X309.7Y-116.06
X309.7Y-118.6
X309.7Y-121.14
X309.7Y-123.68
X309.7Y-126.22
X309.88Y-200.66
X309.88Y-215.9
X309.88Y-226.06
X309.88Y-241.3
X310.91Y-59.51
X310.91Y-74.75
X312.166Y-152.4
X312.166Y-154.94
X312.166Y-175.26
X312.166Y-177.8
X312.21Y-81.3
X312.21Y-88.92
X312.24Y-95.74
X312.24Y-98.28
X312.24Y-123.68
X312.24Y-126.22
X312.42Y-200.66
X312.42Y-215.9
X312.42Y-226.06
X312.42Y-241.3
X313.45Y-59.51
X313.45Y-74.75
X314.706Y-152.4
X314.706Y-154.94
X314.706Y-175.26
X314.706Y-177.8
X314.78Y-95.74
X314.78Y-98.28
X314.78Y-123.68
X314.78Y-126.22
X314.96Y-200.66
X314.96Y-215.9
X314.96Y-226.06
X314.96Y-241.3
X315.99Y-59.51
X315.99Y-74.75
X317.246Y-152.4
X317.246Y-154.94
X317.246Y-175.26
X317.246Y-177.8
X317.32Y-95.74
X317.32Y-98.28
X317.32Y-123.68
X317.32Y-126.22
X317.35Y-54.25
X317.5Y-200.66
X317.5Y-215.9
X317.5Y-226.06
X317.5Y-241.3
X318.53Y-59.51
X318.53Y-74.75
X319.786Y-152.4
X319.786Y-154.94
X319.786Y-175.26
X319.786Y-177.8
X319.86Y-95.74
X319.86Y-98.28
X319.86Y-123.68
X319.86Y-126.22
X320.04Y-200.66
X320.04Y-215.9
X320.04Y-226.06
X320.04Y-241.3
X321.07Y-59.51
X321.07Y-74.75
X322.25Y-54.25
X322.326Y-152.4
X322.326Y-154.94
X322.326Y-157.48
X322.326Y-160.02
X322.326Y-162.56
X322.326Y-165.1
X322.326Y-167.64
X322.326Y-170.18
X322.326Y-172.72
X322.326Y-175.26
X322.326Y-177.8
X322.4Y-95.74
X322.4Y-98.28
X322.4Y-123.68
X322.4Y-126.22
X322.58Y-200.66
X322.58Y-215.9
X322.58Y-226.06
X322.58Y-241.3
X323.61Y-59.51
X323.61Y-74.75
X324.866Y-154.94
X324.866Y-157.48
X324.866Y-160.02
X324.866Y-162.56
X324.866Y-165.1
X324.866Y-167.64
X324.866Y-170.18
X324.866Y-172.72
X324.866Y-175.26
X324.94Y-95.74
X324.94Y-98.28
X324.94Y-123.68
X324.94Y-126.22
X325.12Y-200.66
X325.12Y-215.9
X325.12Y-226.06
X325.12Y-241.3
X326.15Y-59.51
X326.15Y-74.75
X327.45Y-81.3
X327.45Y-88.92
X327.48Y-95.74
X327.48Y-98.28
X327.48Y-123.68
X327.48Y-126.22
X327.66Y-200.66
X327.66Y-215.9
X327.66Y-226.06
X327.66Y-241.3
X328.69Y-59.51
X328.69Y-74.75
X330.02Y-95.74
X330.02Y-98.28
X330.02Y-123.68
X330.02Y-126.22
X330.2Y-200.66
X330.2Y-215.9
X330.2Y-226.06
X330.2Y-241.3
X331.23Y-59.51
X331.23Y-74.75
X332.56Y-95.74
X332.56Y-98.28
X332.56Y-123.68
X332.56Y-126.22
X332.74Y-200.66
X332.74Y-215.9
X332.74Y-226.06
X332.74Y-241.3
X333.77Y-59.51
X333.77Y-74.75
X335.1Y-95.74
X335.1Y-98.28
X335.1Y-100.82
X335.1Y-103.36
X335.1Y-105.9
X335.1Y-108.44
X335.1Y-110.98
X335.1Y-113.52
X335.1Y-116.06
X335.1Y-118.6
X335.1Y-121.14
X335.1Y-123.68
X335.1Y-126.22
X335.28Y-200.66
X335.28Y-215.9
X335.28Y-226.06
X335.28Y-241.3
X336.31Y-59.51
X336.31Y-74.75
X337.64Y-98.28
X337.64Y-100.82
X337.64Y-103.36
X337.64Y-105.9
X337.64Y-108.44
X337.64Y-110.98
X337.64Y-113.52
X337.64Y-116.06
X337.64Y-118.6
X337.64Y-121.14
X337.64Y-123.68
X337.82Y-200.66
X337.82Y-215.9
X337.82Y-226.06
X337.82Y-241.3
X338.85Y-59.51
X338.85Y-74.75
X339.83Y-160.165
X339.83Y-167.785
X339.83Y-174.415
X339.83Y-182.035
X340.36Y-200.66
X340.36Y-215.9
X340.36Y-226.06
X340.36Y-241.3
X341.39Y-59.51
X341.39Y-74.75
X342.9Y-200.66
X342.9Y-215.9
X342.9Y-226.06
X342.9Y-241.3
X343.93Y-59.51
X343.93Y-74.75
X346.47Y-59.51
X346.47Y-74.75
X349.01Y-59.51
X349.01Y-74.75
X355.07Y-160.165
X355.07Y-167.785
X355.07Y-174.415
X355.07Y-182.035
T5
X193.39Y-36.12
X195.93Y-34.6
X203.5Y-36.12
X206.04Y-34.6
T6
X195.27Y-48.38
X196.54Y-45.84
X197.81Y-48.38
X199.08Y-45.84
X200.35Y-48.38
X201.62Y-45.84
X202.89Y-48.38
X204.16Y-45.84
T7
X45.72Y-50.8
X45.72Y-53.34
X45.72Y-55.88
X45.72Y-58.42
X45.72Y-60.96
X45.72Y-63.5
X45.72Y-66.04
X45.72Y-68.58
X45.72Y-71.12
X45.72Y-73.66
X45.72Y-76.2
X45.72Y-78.74
X45.72Y-81.28
X45.72Y-83.82
X45.72Y-86.36
X45.72Y-88.9
X45.72Y-91.44
X45.72Y-93.98
X45.72Y-96.52
X45.72Y-99.06
X45.72Y-101.6
X45.72Y-104.14
X45.72Y-106.68
X45.72Y-109.22
X45.72Y-111.76
X45.72Y-114.3
X45.72Y-116.84
X45.72Y-119.38
X45.72Y-121.92
X45.72Y-124.46
X45.72Y-127.0
X45.72Y-129.54
X48.26Y-50.8
X48.26Y-53.34
X48.26Y-55.88
X48.26Y-58.42
X48.26Y-60.96
X48.26Y-63.5
X48.26Y-66.04
X48.26Y-68.58
X48.26Y-71.12
X48.26Y-73.66
X48.26Y-76.2
X48.26Y-78.74
X48.26Y-81.28
X48.26Y-83.82
X48.26Y-86.36
X48.26Y-88.9
X48.26Y-91.44
X48.26Y-93.98
X48.26Y-96.52
X48.26Y-99.06
X48.26Y-101.6
X48.26Y-104.14
X48.26Y-106.68
X48.26Y-109.22
X48.26Y-111.76
X48.26Y-114.3
X48.26Y-116.84
X48.26Y-119.38
X48.26Y-121.92
X48.26Y-124.46
X48.26Y-127.0
X48.26Y-129.54
X50.8Y-50.8
X50.8Y-53.34
X50.8Y-55.88
X50.8Y-58.42
X50.8Y-60.96
X50.8Y-63.5
X50.8Y-66.04
X50.8Y-68.58
X50.8Y-71.12
X50.8Y-73.66
X50.8Y-76.2
X50.8Y-78.74
X50.8Y-81.28
X50.8Y-83.82
X50.8Y-86.36
X50.8Y-88.9
X50.8Y-91.44
X50.8Y-93.98
X50.8Y-96.52
X50.8Y-99.06
X50.8Y-101.6
X50.8Y-104.14
X50.8Y-106.68
X50.8Y-109.22
X50.8Y-111.76
X50.8Y-114.3
X50.8Y-116.84
X50.8Y-119.38
X50.8Y-121.92
X50.8Y-124.46
X50.8Y-127.0
X50.8Y-129.54
X55.88Y-242.0
X55.88Y-244.54
X60.96Y-242.0
X60.96Y-244.54
X66.04Y-242.0
X66.04Y-244.54
X71.12Y-242.0
X71.12Y-244.54
X76.2Y-50.8
X76.2Y-53.34
X76.2Y-55.88
X76.2Y-58.42
X76.2Y-60.96
X76.2Y-63.5
X76.2Y-66.04
X76.2Y-68.58
X76.2Y-71.12
X76.2Y-73.66
X76.2Y-76.2
X76.2Y-78.74
X76.2Y-81.28
X76.2Y-83.82
X76.2Y-86.36
X76.2Y-88.9
X76.2Y-91.44
X76.2Y-93.98
X76.2Y-96.52
X76.2Y-99.06
X76.2Y-101.6
X76.2Y-104.14
X76.2Y-106.68
X76.2Y-109.22
X76.2Y-111.76
X76.2Y-114.3
X76.2Y-116.84
X76.2Y-119.38
X76.2Y-121.92
X76.2Y-124.46
X76.2Y-127.0
X76.2Y-129.54
X76.2Y-242.0
X76.2Y-244.54
X78.74Y-50.8
X78.74Y-53.34
X78.74Y-55.88
X78.74Y-58.42
X78.74Y-60.96
X78.74Y-63.5
X78.74Y-66.04
X78.74Y-68.58
X78.74Y-71.12
X78.74Y-73.66
X78.74Y-76.2
X78.74Y-78.74
X78.74Y-81.28
X78.74Y-83.82
X78.74Y-86.36
X78.74Y-88.9
X78.74Y-91.44
X78.74Y-93.98
X78.74Y-96.52
X78.74Y-99.06
X78.74Y-101.6
X78.74Y-104.14
X78.74Y-106.68
X78.74Y-109.22
X78.74Y-111.76
X78.74Y-114.3
X78.74Y-116.84
X78.74Y-119.38
X78.74Y-121.92
X78.74Y-124.46
X78.74Y-127.0
X78.74Y-129.54
X81.28Y-50.8
X81.28Y-53.34
X81.28Y-55.88
X81.28Y-58.42
X81.28Y-60.96
X81.28Y-63.5
X81.28Y-66.04
X81.28Y-68.58
X81.28Y-71.12
X81.28Y-73.66
X81.28Y-76.2
X81.28Y-78.74
X81.28Y-81.28
X81.28Y-83.82
X81.28Y-86.36
X81.28Y-88.9
X81.28Y-91.44
X81.28Y-93.98
X81.28Y-96.52
X81.28Y-99.06
X81.28Y-101.6
X81.28Y-104.14
X81.28Y-106.68
X81.28Y-109.22
X81.28Y-111.76
X81.28Y-114.3
X81.28Y-116.84
X81.28Y-119.38
X81.28Y-121.92
X81.28Y-124.46
X81.28Y-127.0
X81.28Y-129.54
X81.28Y-242.0
X81.28Y-244.54
X84.37Y-192.748
X84.37Y-195.287
X86.91Y-192.748
X86.91Y-195.287
X89.45Y-192.748
X89.45Y-195.287
X91.99Y-192.748
X91.99Y-195.287
X94.53Y-192.748
X94.53Y-195.287
X97.07Y-192.748
X97.07Y-195.287
X99.61Y-192.748
X99.61Y-195.287
X102.15Y-192.748
X102.15Y-195.287
X104.69Y-192.748
X104.69Y-195.287
X106.68Y-50.8
X106.68Y-53.34
X106.68Y-55.88
X106.68Y-58.42
X106.68Y-60.96
X106.68Y-63.5
X106.68Y-66.04
X106.68Y-68.58
X106.68Y-71.12
X106.68Y-73.66
X106.68Y-76.2
X106.68Y-78.74
X106.68Y-81.28
X106.68Y-83.82
X106.68Y-86.36
X106.68Y-88.9
X106.68Y-91.44
X106.68Y-93.98
X106.68Y-96.52
X106.68Y-99.06
X106.68Y-101.6
X106.68Y-104.14
X106.68Y-106.68
X106.68Y-109.22
X106.68Y-111.76
X106.68Y-114.3
X106.68Y-116.84
X106.68Y-119.38
X106.68Y-121.92
X106.68Y-124.46
X106.68Y-127.0
X106.68Y-129.54
X107.23Y-192.748
X107.23Y-195.287
X109.22Y-50.8
X109.22Y-53.34
X109.22Y-55.88
X109.22Y-58.42
X109.22Y-60.96
X109.22Y-63.5
X109.22Y-66.04
X109.22Y-68.58
X109.22Y-71.12
X109.22Y-73.66
X109.22Y-76.2
X109.22Y-78.74
X109.22Y-81.28
X109.22Y-83.82
X109.22Y-86.36
X109.22Y-88.9
X109.22Y-91.44
X109.22Y-93.98
X109.22Y-96.52
X109.22Y-99.06
X109.22Y-101.6
X109.22Y-104.14
X109.22Y-106.68
X109.22Y-109.22
X109.22Y-111.76
X109.22Y-114.3
X109.22Y-116.84
X109.22Y-119.38
X109.22Y-121.92
X109.22Y-124.46
X109.22Y-127.0
X109.22Y-129.54
X109.77Y-192.748
X109.77Y-195.287
X111.76Y-50.8
X111.76Y-53.34
X111.76Y-55.88
X111.76Y-58.42
X111.76Y-60.96
X111.76Y-63.5
X111.76Y-66.04
X111.76Y-68.58
X111.76Y-71.12
X111.76Y-73.66
X111.76Y-76.2
X111.76Y-78.74
X111.76Y-81.28
X111.76Y-83.82
X111.76Y-86.36
X111.76Y-88.9
X111.76Y-91.44
X111.76Y-93.98
X111.76Y-96.52
X111.76Y-99.06
X111.76Y-101.6
X111.76Y-104.14
X111.76Y-106.68
X111.76Y-109.22
X111.76Y-111.76
X111.76Y-114.3
X111.76Y-116.84
X111.76Y-119.38
X111.76Y-121.92
X111.76Y-124.46
X111.76Y-127.0
X111.76Y-129.54
X112.31Y-192.748
X112.31Y-195.287
X114.85Y-192.748
X114.85Y-195.287
X117.39Y-192.748
X117.39Y-195.287
X119.93Y-192.748
X119.93Y-195.287
X122.47Y-192.748
X122.47Y-195.287
X125.01Y-192.748
X125.01Y-195.287
X127.55Y-192.748
X127.55Y-195.287
X130.09Y-192.748
X130.09Y-195.287
X132.63Y-192.748
X132.63Y-195.287
X137.16Y-50.8
X137.16Y-53.34
X137.16Y-55.88
X137.16Y-58.42
X137.16Y-60.96
X137.16Y-63.5
X137.16Y-66.04
X137.16Y-68.58
X137.16Y-71.12
X137.16Y-73.66
X137.16Y-76.2
X137.16Y-78.74
X137.16Y-81.28
X137.16Y-83.82
X137.16Y-86.36
X137.16Y-88.9
X137.16Y-91.44
X137.16Y-93.98
X137.16Y-96.52
X137.16Y-99.06
X137.16Y-101.6
X137.16Y-104.14
X137.16Y-106.68
X137.16Y-109.22
X137.16Y-111.76
X137.16Y-114.3
X137.16Y-116.84
X137.16Y-119.38
X137.16Y-121.92
X137.16Y-124.46
X137.16Y-127.0
X137.16Y-129.54
X139.7Y-50.8
X139.7Y-53.34
X139.7Y-55.88
X139.7Y-58.42
X139.7Y-60.96
X139.7Y-63.5
X139.7Y-66.04
X139.7Y-68.58
X139.7Y-71.12
X139.7Y-73.66
X139.7Y-76.2
X139.7Y-78.74
X139.7Y-81.28
X139.7Y-83.82
X139.7Y-86.36
X139.7Y-88.9
X139.7Y-91.44
X139.7Y-93.98
X139.7Y-96.52
X139.7Y-99.06
X139.7Y-101.6
X139.7Y-104.14
X139.7Y-106.68
X139.7Y-109.22
X139.7Y-111.76
X139.7Y-114.3
X139.7Y-116.84
X139.7Y-119.38
X139.7Y-121.92
X139.7Y-124.46
X139.7Y-127.0
X139.7Y-129.54
X142.24Y-50.8
X142.24Y-53.34
X142.24Y-55.88
X142.24Y-58.42
X142.24Y-60.96
X142.24Y-63.5
X142.24Y-66.04
X142.24Y-68.58
X142.24Y-71.12
X142.24Y-73.66
X142.24Y-76.2
X142.24Y-78.74
X142.24Y-81.28
X142.24Y-83.82
X142.24Y-86.36
X142.24Y-88.9
X142.24Y-91.44
X142.24Y-93.98
X142.24Y-96.52
X142.24Y-99.06
X142.24Y-101.6
X142.24Y-104.14
X142.24Y-106.68
X142.24Y-109.22
X142.24Y-111.76
X142.24Y-114.3
X142.24Y-116.84
X142.24Y-119.38
X142.24Y-121.92
X142.24Y-124.46
X142.24Y-127.0
X142.24Y-129.54
X296.71Y-38.05
X298.095Y-35.21
X299.48Y-38.05
X300.865Y-35.21
X302.25Y-38.05
X303.635Y-35.21
X305.02Y-38.05
X306.405Y-35.21
X307.79Y-38.05
X331.71Y-38.05
X333.095Y-35.21
X334.48Y-38.05
X335.865Y-35.21
X337.25Y-38.05
X338.635Y-35.21
X338.92Y-153.8
X340.02Y-38.05
X341.405Y-35.21
X341.46Y-153.8
X342.79Y-38.05
X344.0Y-153.8
X344.95Y-103.45
X344.95Y-105.99
X344.95Y-108.53
X344.95Y-111.07
X344.95Y-113.61
X344.95Y-116.15
X351.05Y-122.5
X351.05Y-130.12
X353.59Y-122.5
X353.59Y-130.12
T8
X92.5Y-239.5
X92.5Y-244.0
X99.0Y-239.5
X99.0Y-244.0
X106.5Y-239.5
X106.5Y-244.0
X113.0Y-239.5
X113.0Y-244.0
X132.08Y-220.98
X132.08Y-238.76
X133.35Y-223.52
X133.35Y-241.3
X134.62Y-220.98
X134.62Y-238.76
X135.89Y-223.52
X135.89Y-241.3
X137.16Y-220.98
X137.16Y-238.76
X138.43Y-223.52
X138.43Y-241.3
X139.7Y-220.98
X139.7Y-238.76
X140.97Y-223.52
X140.97Y-241.3
X142.24Y-220.98
X142.24Y-238.76
X143.51Y-223.52
X143.51Y-241.3
X144.78Y-220.98
X144.78Y-238.76
X146.05Y-223.52
X146.05Y-241.3
X147.32Y-220.98
X147.32Y-238.76
X148.59Y-223.52
X148.59Y-241.3
X149.86Y-220.98
X149.86Y-238.76
X151.13Y-223.52
X151.13Y-241.3
X152.4Y-220.98
X152.4Y-238.76
X153.67Y-223.52
X153.67Y-241.3
X154.94Y-220.98
X154.94Y-238.76
X156.21Y-223.52
X156.21Y-241.3
X157.48Y-220.98
X157.48Y-238.76
X158.75Y-223.52
X158.75Y-241.3
X160.02Y-220.98
X160.02Y-238.76
X161.29Y-223.52
X161.29Y-241.3
X162.56Y-220.98
X162.56Y-238.76
X163.83Y-223.52
X163.83Y-241.3
X165.1Y-220.98
X165.1Y-238.76
X166.37Y-223.52
X166.37Y-241.3
X167.64Y-220.98
X167.64Y-238.76
X168.91Y-223.52
X168.91Y-241.3
X170.18Y-220.98
X170.18Y-238.76
X171.45Y-223.52
X171.45Y-241.3
X172.72Y-220.98
X172.72Y-238.76
X173.99Y-223.52
X173.99Y-241.3
X175.26Y-220.98
X175.26Y-238.76
X176.53Y-223.52
X176.53Y-241.3
X182.88Y-220.98
X182.88Y-238.76
X184.15Y-223.52
X184.15Y-241.3
X185.42Y-220.98
X185.42Y-238.76
X186.69Y-223.52
X186.69Y-241.3
X187.96Y-220.98
X187.96Y-238.76
X189.23Y-223.52
X189.23Y-241.3
X190.5Y-220.98
X190.5Y-238.76
X191.77Y-223.52
X191.77Y-241.3
X193.04Y-220.98
X193.04Y-238.76
X194.31Y-223.52
X194.31Y-241.3
X195.58Y-220.98
X195.58Y-238.76
X196.85Y-223.52
X196.85Y-241.3
X198.12Y-220.98
X198.12Y-238.76
X199.39Y-223.52
X199.39Y-241.3
X200.66Y-220.98
X200.66Y-238.76
X201.93Y-223.52
X201.93Y-241.3
X203.2Y-220.98
X203.2Y-238.76
X204.47Y-223.52
X204.47Y-241.3
X205.74Y-220.98
X205.74Y-238.76
X207.01Y-223.52
X207.01Y-241.3
X208.28Y-220.98
X208.28Y-238.76
X209.55Y-223.52
X209.55Y-241.3
X210.82Y-220.98
X210.82Y-238.76
X212.09Y-223.52
X212.09Y-241.3
X213.36Y-220.98
X213.36Y-238.76
X214.63Y-223.52
X214.63Y-241.3
X215.9Y-220.98
X215.9Y-238.76
X217.17Y-223.52
X217.17Y-241.3
X218.44Y-220.98
X218.44Y-238.76
X219.71Y-223.52
X219.71Y-241.3
X220.98Y-220.98
X220.98Y-238.76
X222.25Y-223.52
X222.25Y-241.3
X223.52Y-220.98
X223.52Y-238.76
X224.79Y-223.52
X224.79Y-241.3
X226.06Y-220.98
X226.06Y-238.76
X227.33Y-223.52
X227.33Y-241.3
T9
X40.0Y-186.0
X40.0Y-190.2
X40.0Y-194.4
X40.0Y-198.6
X40.0Y-202.8
X40.0Y-207.0
X40.0Y-211.2
X40.0Y-215.4
X40.0Y-219.6
X40.0Y-223.8
X40.0Y-228.0
X40.0Y-232.2
X45.5Y-186.0
X45.5Y-190.2
X45.5Y-194.4
X45.5Y-198.6
X45.5Y-202.8
X45.5Y-207.0
X45.5Y-211.2
X45.5Y-215.4
X45.5Y-219.6
X45.5Y-223.8
X45.5Y-228.0
X45.5Y-232.2
T10
X271.748Y-89.0
X292.238Y-89.0
T11
X191.94Y-42.55
X207.49Y-42.55
T12
X228.5Y-35.5
X235.25Y-34.7
X242.0Y-35.5
X250.75Y-35.5
X257.5Y-34.7
X264.25Y-35.5
T13
X40.102Y-181.237
T14
X289.75Y-37.75
X314.75Y-37.75
X324.75Y-37.75
X349.75Y-37.75
T0
M30
