G04 #@! TF.GenerationSoftware,KiCad,Pcbnew,(6.0.11)*
G04 #@! TF.CreationDate,2023-02-06T09:10:04+00:00*
G04 #@! TF.ProjectId,yddraig030,79646472-6169-4673-9033-302e6b696361,rev?*
G04 #@! TF.SameCoordinates,Original*
G04 #@! TF.FileFunction,Soldermask,Bot*
G04 #@! TF.FilePolarity,Negative*
%FSLAX46Y46*%
G04 Gerber Fmt 4.6, Leading zero omitted, Abs format (unit mm)*
G04 Created by KiCad (PCBNEW (6.0.11)) date 2023-02-06 09:10:04*
%MOMM*%
%LPD*%
G01*
G04 APERTURE LIST*
G04 Aperture macros list*
%AMRoundRect*
0 Rectangle with rounded corners*
0 $1 Rounding radius*
0 $2 $3 $4 $5 $6 $7 $8 $9 X,Y pos of 4 corners*
0 Add a 4 corners polygon primitive as box body*
4,1,4,$2,$3,$4,$5,$6,$7,$8,$9,$2,$3,0*
0 Add four circle primitives for the rounded corners*
1,1,$1+$1,$2,$3*
1,1,$1+$1,$4,$5*
1,1,$1+$1,$6,$7*
1,1,$1+$1,$8,$9*
0 Add four rect primitives between the rounded corners*
20,1,$1+$1,$2,$3,$4,$5,0*
20,1,$1+$1,$4,$5,$6,$7,0*
20,1,$1+$1,$6,$7,$8,$9,0*
20,1,$1+$1,$8,$9,$2,$3,0*%
G04 Aperture macros list end*
%ADD10R,1.600000X1.600000*%
%ADD11O,1.600000X1.600000*%
%ADD12R,1.700000X1.700000*%
%ADD13O,1.700000X1.700000*%
%ADD14C,1.600000*%
%ADD15R,3.000000X3.000000*%
%ADD16C,3.000000*%
%ADD17C,1.524000*%
%ADD18C,3.300000*%
%ADD19C,4.300000*%
%ADD20C,2.440000*%
%ADD21C,1.660000*%
%ADD22R,1.650000X1.650000*%
%ADD23C,1.650000*%
%ADD24R,1.422400X1.422400*%
%ADD25C,1.422400*%
%ADD26C,2.850000*%
%ADD27RoundRect,0.249999X-0.525001X-0.525001X0.525001X-0.525001X0.525001X0.525001X-0.525001X0.525001X0*%
%ADD28C,1.550000*%
%ADD29C,1.905000*%
%ADD30C,3.505200*%
%ADD31R,1.400000X1.400000*%
%ADD32R,1.524000X1.524000*%
%ADD33C,4.000000*%
%ADD34RoundRect,0.250000X-0.600000X0.600000X-0.600000X-0.600000X0.600000X-0.600000X0.600000X0.600000X0*%
%ADD35C,1.700000*%
%ADD36C,2.000000*%
%ADD37C,1.500000*%
%ADD38R,1.580000X1.580000*%
%ADD39C,1.580000*%
%ADD40C,3.250000*%
%ADD41C,2.600000*%
%ADD42C,1.890000*%
%ADD43R,1.900000X1.900000*%
%ADD44C,1.900000*%
G04 APERTURE END LIST*
D10*
X254000000Y-215646000D03*
D11*
X256540000Y-215646000D03*
X259080000Y-215646000D03*
X261620000Y-215646000D03*
X264160000Y-215646000D03*
X266700000Y-215646000D03*
X269240000Y-215646000D03*
X271780000Y-215646000D03*
X274320000Y-215646000D03*
X276860000Y-215646000D03*
X279400000Y-215646000D03*
X281940000Y-215646000D03*
X284480000Y-215646000D03*
X287020000Y-215646000D03*
X289560000Y-215646000D03*
X292100000Y-215646000D03*
X292100000Y-200406000D03*
X289560000Y-200406000D03*
X287020000Y-200406000D03*
X284480000Y-200406000D03*
X281940000Y-200406000D03*
X279400000Y-200406000D03*
X276860000Y-200406000D03*
X274320000Y-200406000D03*
X271780000Y-200406000D03*
X269240000Y-200406000D03*
X266700000Y-200406000D03*
X264160000Y-200406000D03*
X261620000Y-200406000D03*
X259080000Y-200406000D03*
X256540000Y-200406000D03*
X254000000Y-200406000D03*
D10*
X300750000Y-74750000D03*
D11*
X303290000Y-74750000D03*
X305830000Y-74750000D03*
X308370000Y-74750000D03*
X310910000Y-74750000D03*
X313450000Y-74750000D03*
X315990000Y-74750000D03*
X318530000Y-74750000D03*
X321070000Y-74750000D03*
X323610000Y-74750000D03*
X326150000Y-74750000D03*
X328690000Y-74750000D03*
X331230000Y-74750000D03*
X333770000Y-74750000D03*
X336310000Y-74750000D03*
X338850000Y-74750000D03*
X341390000Y-74750000D03*
X343930000Y-74750000D03*
X346470000Y-74750000D03*
X349010000Y-74750000D03*
X349010000Y-59510000D03*
X346470000Y-59510000D03*
X343930000Y-59510000D03*
X341390000Y-59510000D03*
X338850000Y-59510000D03*
X336310000Y-59510000D03*
X333770000Y-59510000D03*
X331230000Y-59510000D03*
X328690000Y-59510000D03*
X326150000Y-59510000D03*
X323610000Y-59510000D03*
X321070000Y-59510000D03*
X318530000Y-59510000D03*
X315990000Y-59510000D03*
X313450000Y-59510000D03*
X310910000Y-59510000D03*
X308370000Y-59510000D03*
X305830000Y-59510000D03*
X303290000Y-59510000D03*
X300750000Y-59510000D03*
D10*
X231740000Y-74740000D03*
D11*
X234280000Y-74740000D03*
X236820000Y-74740000D03*
X239360000Y-74740000D03*
X241900000Y-74740000D03*
X244440000Y-74740000D03*
X246980000Y-74740000D03*
X249520000Y-74740000D03*
X252060000Y-74740000D03*
X254600000Y-74740000D03*
X257140000Y-74740000D03*
X259680000Y-74740000D03*
X262220000Y-74740000D03*
X264760000Y-74740000D03*
X267300000Y-74740000D03*
X269840000Y-74740000D03*
X272380000Y-74740000D03*
X274920000Y-74740000D03*
X277460000Y-74740000D03*
X280000000Y-74740000D03*
X280000000Y-59500000D03*
X277460000Y-59500000D03*
X274920000Y-59500000D03*
X272380000Y-59500000D03*
X269840000Y-59500000D03*
X267300000Y-59500000D03*
X264760000Y-59500000D03*
X262220000Y-59500000D03*
X259680000Y-59500000D03*
X257140000Y-59500000D03*
X254600000Y-59500000D03*
X252060000Y-59500000D03*
X249520000Y-59500000D03*
X246980000Y-59500000D03*
X244440000Y-59500000D03*
X241900000Y-59500000D03*
X239360000Y-59500000D03*
X236820000Y-59500000D03*
X234280000Y-59500000D03*
X231740000Y-59500000D03*
D12*
X81280000Y-242000000D03*
D13*
X81280000Y-244540000D03*
D10*
X218030000Y-48030000D03*
D14*
X218030000Y-55650000D03*
X225650000Y-55650000D03*
X225650000Y-48030000D03*
D10*
X129325000Y-143000000D03*
D11*
X131865000Y-143000000D03*
X134405000Y-143000000D03*
X136945000Y-143000000D03*
X139485000Y-143000000D03*
X142025000Y-143000000D03*
X144565000Y-143000000D03*
X147105000Y-143000000D03*
X149645000Y-143000000D03*
D15*
X271747584Y-89000000D03*
D16*
X292237584Y-89000000D03*
D17*
X233950000Y-38500000D03*
X236550000Y-38500000D03*
X231850000Y-38500000D03*
X238650000Y-38500000D03*
X231850000Y-41000000D03*
X238650000Y-41000000D03*
D18*
X235250000Y-34700000D03*
X242000000Y-35500000D03*
X228500000Y-35500000D03*
D17*
X256200000Y-38500000D03*
X258800000Y-38500000D03*
X254100000Y-38500000D03*
X260900000Y-38500000D03*
X254100000Y-41000000D03*
X260900000Y-41000000D03*
D18*
X257500000Y-34700000D03*
X250750000Y-35500000D03*
X264250000Y-35500000D03*
D12*
X344950000Y-116150000D03*
D13*
X344950000Y-113610000D03*
X344950000Y-111070000D03*
X344950000Y-108530000D03*
X344950000Y-105990000D03*
X344950000Y-103450000D03*
D19*
X172720000Y-38100000D03*
D20*
X235585000Y-240030000D03*
D21*
X179705000Y-240030000D03*
X123825000Y-240030000D03*
D22*
X132080000Y-238760000D03*
D23*
X133350000Y-241300000D03*
X134620000Y-238760000D03*
X135890000Y-241300000D03*
X137160000Y-238760000D03*
X138430000Y-241300000D03*
X139700000Y-238760000D03*
X140970000Y-241300000D03*
X142240000Y-238760000D03*
X143510000Y-241300000D03*
X144780000Y-238760000D03*
X146050000Y-241300000D03*
X147320000Y-238760000D03*
X148590000Y-241300000D03*
X149860000Y-238760000D03*
X151130000Y-241300000D03*
X152400000Y-238760000D03*
X153670000Y-241300000D03*
X154940000Y-238760000D03*
X156210000Y-241300000D03*
X157480000Y-238760000D03*
X158750000Y-241300000D03*
X160020000Y-238760000D03*
X161290000Y-241300000D03*
X162560000Y-238760000D03*
X163830000Y-241300000D03*
X165100000Y-238760000D03*
X166370000Y-241300000D03*
X167640000Y-238760000D03*
X168910000Y-241300000D03*
X170180000Y-238760000D03*
X171450000Y-241300000D03*
X172720000Y-238760000D03*
X173990000Y-241300000D03*
X175260000Y-238760000D03*
X176530000Y-241300000D03*
X182880000Y-238760000D03*
X184150000Y-241300000D03*
X185420000Y-238760000D03*
X186690000Y-241300000D03*
X187960000Y-238760000D03*
X189230000Y-241300000D03*
X190500000Y-238760000D03*
X191770000Y-241300000D03*
X193040000Y-238760000D03*
X194310000Y-241300000D03*
X195580000Y-238760000D03*
X196850000Y-241300000D03*
X198120000Y-238760000D03*
X199390000Y-241300000D03*
X200660000Y-238760000D03*
X201930000Y-241300000D03*
X203200000Y-238760000D03*
X204470000Y-241300000D03*
X205740000Y-238760000D03*
X207010000Y-241300000D03*
X208280000Y-238760000D03*
X209550000Y-241300000D03*
X210820000Y-238760000D03*
X212090000Y-241300000D03*
X213360000Y-238760000D03*
X214630000Y-241300000D03*
X215900000Y-238760000D03*
X217170000Y-241300000D03*
X218440000Y-238760000D03*
X219710000Y-241300000D03*
X220980000Y-238760000D03*
X222250000Y-241300000D03*
X223520000Y-238760000D03*
X224790000Y-241300000D03*
X226060000Y-238760000D03*
X227330000Y-241300000D03*
D24*
X158760000Y-194000000D03*
D25*
X161300000Y-194000000D03*
X158760000Y-196540000D03*
X161300000Y-196540000D03*
X158760000Y-199080000D03*
X161300000Y-199080000D03*
X158760000Y-201620000D03*
X161300000Y-201620000D03*
X158760000Y-204160000D03*
X161300000Y-204160000D03*
X158760000Y-206700000D03*
X161300000Y-209240000D03*
X161300000Y-206700000D03*
X163840000Y-209240000D03*
X163840000Y-206700000D03*
X166380000Y-209240000D03*
X166380000Y-206700000D03*
X168920000Y-209240000D03*
X168920000Y-206700000D03*
X171460000Y-209240000D03*
X171460000Y-206700000D03*
X174000000Y-209240000D03*
X174000000Y-206700000D03*
X176540000Y-209240000D03*
X176540000Y-206700000D03*
X179080000Y-209240000D03*
X179080000Y-206700000D03*
X181620000Y-209240000D03*
X181620000Y-206700000D03*
X184160000Y-209240000D03*
X184160000Y-206700000D03*
X186700000Y-209240000D03*
X189240000Y-206700000D03*
X186700000Y-206700000D03*
X189240000Y-204160000D03*
X186700000Y-204160000D03*
X189240000Y-201620000D03*
X186700000Y-201620000D03*
X189240000Y-199080000D03*
X186700000Y-199080000D03*
X189240000Y-196540000D03*
X186700000Y-196540000D03*
X189240000Y-194000000D03*
X186700000Y-194000000D03*
X189240000Y-191460000D03*
X186700000Y-191460000D03*
X189240000Y-188920000D03*
X186700000Y-188920000D03*
X189240000Y-186380000D03*
X186700000Y-186380000D03*
X189240000Y-183840000D03*
X186700000Y-183840000D03*
X189240000Y-181300000D03*
X186700000Y-178760000D03*
X186700000Y-181300000D03*
X184160000Y-178760000D03*
X184160000Y-181300000D03*
X181620000Y-178760000D03*
X181620000Y-181300000D03*
X179080000Y-178760000D03*
X179080000Y-181300000D03*
X176540000Y-178760000D03*
X176540000Y-181300000D03*
X174000000Y-178760000D03*
X174000000Y-181300000D03*
X171460000Y-178760000D03*
X171460000Y-181300000D03*
X168920000Y-178760000D03*
X168920000Y-181300000D03*
X166380000Y-178760000D03*
X166380000Y-181300000D03*
X163840000Y-178760000D03*
X163840000Y-181300000D03*
X161300000Y-178760000D03*
X158760000Y-181300000D03*
X161300000Y-181300000D03*
X158760000Y-183840000D03*
X161300000Y-183840000D03*
X158760000Y-186380000D03*
X161300000Y-186380000D03*
X158760000Y-188920000D03*
X161300000Y-188920000D03*
X158760000Y-191460000D03*
X161300000Y-191460000D03*
D26*
X47960000Y-45170000D03*
X47960000Y-135170000D03*
D27*
X45720000Y-50800000D03*
D28*
X45720000Y-53340000D03*
X45720000Y-55880000D03*
X45720000Y-58420000D03*
X45720000Y-60960000D03*
X45720000Y-63500000D03*
X45720000Y-66040000D03*
X45720000Y-68580000D03*
X45720000Y-71120000D03*
X45720000Y-73660000D03*
X45720000Y-76200000D03*
X45720000Y-78740000D03*
X45720000Y-81280000D03*
X45720000Y-83820000D03*
X45720000Y-86360000D03*
X45720000Y-88900000D03*
X45720000Y-91440000D03*
X45720000Y-93980000D03*
X45720000Y-96520000D03*
X45720000Y-99060000D03*
X45720000Y-101600000D03*
X45720000Y-104140000D03*
X45720000Y-106680000D03*
X45720000Y-109220000D03*
X45720000Y-111760000D03*
X45720000Y-114300000D03*
X45720000Y-116840000D03*
X45720000Y-119380000D03*
X45720000Y-121920000D03*
X45720000Y-124460000D03*
X45720000Y-127000000D03*
X45720000Y-129540000D03*
X48260000Y-50800000D03*
X48260000Y-53340000D03*
X48260000Y-55880000D03*
X48260000Y-58420000D03*
X48260000Y-60960000D03*
X48260000Y-63500000D03*
X48260000Y-66040000D03*
X48260000Y-68580000D03*
X48260000Y-71120000D03*
X48260000Y-73660000D03*
X48260000Y-76200000D03*
X48260000Y-78740000D03*
X48260000Y-81280000D03*
X48260000Y-83820000D03*
X48260000Y-86360000D03*
X48260000Y-88900000D03*
X48260000Y-91440000D03*
X48260000Y-93980000D03*
X48260000Y-96520000D03*
X48260000Y-99060000D03*
X48260000Y-101600000D03*
X48260000Y-104140000D03*
X48260000Y-106680000D03*
X48260000Y-109220000D03*
X48260000Y-111760000D03*
X48260000Y-114300000D03*
X48260000Y-116840000D03*
X48260000Y-119380000D03*
X48260000Y-121920000D03*
X48260000Y-124460000D03*
X48260000Y-127000000D03*
X48260000Y-129540000D03*
X50800000Y-50800000D03*
X50800000Y-53340000D03*
X50800000Y-55880000D03*
X50800000Y-58420000D03*
X50800000Y-60960000D03*
X50800000Y-63500000D03*
X50800000Y-66040000D03*
X50800000Y-68580000D03*
X50800000Y-71120000D03*
X50800000Y-73660000D03*
X50800000Y-76200000D03*
X50800000Y-78740000D03*
X50800000Y-81280000D03*
X50800000Y-83820000D03*
X50800000Y-86360000D03*
X50800000Y-88900000D03*
X50800000Y-91440000D03*
X50800000Y-93980000D03*
X50800000Y-96520000D03*
X50800000Y-99060000D03*
X50800000Y-101600000D03*
X50800000Y-104140000D03*
X50800000Y-106680000D03*
X50800000Y-109220000D03*
X50800000Y-111760000D03*
X50800000Y-114300000D03*
X50800000Y-116840000D03*
X50800000Y-119380000D03*
X50800000Y-121920000D03*
X50800000Y-124460000D03*
X50800000Y-127000000D03*
X50800000Y-129540000D03*
D29*
X45500000Y-186000008D03*
X45500000Y-190200007D03*
X45500000Y-194400006D03*
X45500000Y-198600005D03*
X45500000Y-202800005D03*
X45500000Y-207000004D03*
X45500000Y-211200003D03*
X45500000Y-215400002D03*
X45500000Y-219600002D03*
X45500000Y-223800001D03*
X45500000Y-228000000D03*
X45500000Y-232199999D03*
X40000001Y-186000008D03*
X40000001Y-190200007D03*
X40000001Y-194400006D03*
X40000001Y-198600005D03*
X40000001Y-202800005D03*
X40000001Y-207000004D03*
X40000001Y-211200003D03*
X40000001Y-215400002D03*
X40000001Y-219600002D03*
X40000001Y-223800001D03*
X40000001Y-228000000D03*
X40000001Y-232199999D03*
D30*
X40102500Y-181236505D03*
D19*
X94000000Y-38100000D03*
D31*
X58420000Y-68580000D03*
D11*
X58420000Y-71120000D03*
X58420000Y-73660000D03*
X58420000Y-76200000D03*
X58420000Y-78740000D03*
X58420000Y-81280000D03*
X58420000Y-83820000D03*
X58420000Y-86360000D03*
X58420000Y-88900000D03*
D32*
X254254000Y-180340000D03*
D17*
X254254000Y-177800000D03*
X254254000Y-175260000D03*
X254254000Y-172720000D03*
X254254000Y-170180000D03*
X254254000Y-167640000D03*
X254254000Y-165100000D03*
X254254000Y-162560000D03*
X254254000Y-160020000D03*
X254254000Y-157480000D03*
X254254000Y-154940000D03*
X254254000Y-152400000D03*
X254254000Y-149860000D03*
X256794000Y-180340000D03*
X256794000Y-177800000D03*
X256794000Y-175260000D03*
X256794000Y-172720000D03*
X256794000Y-170180000D03*
X256794000Y-167640000D03*
X256794000Y-165100000D03*
X256794000Y-162560000D03*
X256794000Y-160020000D03*
X256794000Y-157480000D03*
X256794000Y-154940000D03*
X256794000Y-152400000D03*
X256794000Y-149860000D03*
X259334000Y-180340000D03*
X259334000Y-177800000D03*
X259334000Y-175260000D03*
X259334000Y-172720000D03*
X259334000Y-170180000D03*
X259334000Y-167640000D03*
X259334000Y-165100000D03*
X259334000Y-162560000D03*
X259334000Y-160020000D03*
X259334000Y-157480000D03*
X259334000Y-154940000D03*
X259334000Y-152400000D03*
X259334000Y-149860000D03*
X261874000Y-180340000D03*
X261874000Y-177800000D03*
X261874000Y-175260000D03*
X261874000Y-172720000D03*
X261874000Y-170180000D03*
X261874000Y-157480000D03*
X261874000Y-154940000D03*
X261874000Y-152400000D03*
X261874000Y-149860000D03*
X264414000Y-180340000D03*
X264414000Y-177800000D03*
X264414000Y-175260000D03*
X264414000Y-154940000D03*
X264414000Y-152400000D03*
X264414000Y-149860000D03*
X266954000Y-180340000D03*
X266954000Y-177800000D03*
X266954000Y-175260000D03*
X266954000Y-172720000D03*
X266954000Y-157480000D03*
X266954000Y-154940000D03*
X266954000Y-152400000D03*
X266954000Y-149860000D03*
X269494000Y-180340000D03*
X269494000Y-177800000D03*
X269494000Y-175260000D03*
X269494000Y-154940000D03*
X269494000Y-152400000D03*
X269494000Y-149860000D03*
X272034000Y-180340000D03*
X272034000Y-177800000D03*
X272034000Y-175260000D03*
X272034000Y-154940000D03*
X272034000Y-152400000D03*
X272034000Y-149860000D03*
X274574000Y-180340000D03*
X274574000Y-177800000D03*
X274574000Y-175260000D03*
X274574000Y-154940000D03*
X274574000Y-152400000D03*
X274574000Y-149860000D03*
X277114000Y-180340000D03*
X277114000Y-177800000D03*
X277114000Y-175260000D03*
X277114000Y-172720000D03*
X277114000Y-170180000D03*
X277114000Y-157480000D03*
X277114000Y-154940000D03*
X277114000Y-152400000D03*
X277114000Y-149860000D03*
X279654000Y-180340000D03*
X279654000Y-177800000D03*
X279654000Y-175260000D03*
X279654000Y-172720000D03*
X279654000Y-170180000D03*
X279654000Y-167640000D03*
X279654000Y-165100000D03*
X279654000Y-162560000D03*
X279654000Y-160020000D03*
X279654000Y-157480000D03*
X279654000Y-154940000D03*
X279654000Y-152400000D03*
X279654000Y-149860000D03*
X282194000Y-180340000D03*
X282194000Y-177800000D03*
X282194000Y-175260000D03*
X282194000Y-172720000D03*
X282194000Y-170180000D03*
X282194000Y-167640000D03*
X282194000Y-165100000D03*
X282194000Y-162560000D03*
X282194000Y-160020000D03*
X282194000Y-157480000D03*
X282194000Y-154940000D03*
X282194000Y-152400000D03*
X282194000Y-149860000D03*
X284734000Y-180340000D03*
X284734000Y-177800000D03*
X284734000Y-175260000D03*
X284734000Y-172720000D03*
X284734000Y-170180000D03*
X284734000Y-167640000D03*
X284734000Y-165100000D03*
X284734000Y-162560000D03*
X284734000Y-160020000D03*
X284734000Y-157480000D03*
X284734000Y-154940000D03*
X284734000Y-152400000D03*
X284734000Y-149860000D03*
D24*
X299466000Y-165100000D03*
D25*
X302006000Y-165100000D03*
X299466000Y-167640000D03*
X302006000Y-167640000D03*
X299466000Y-170180000D03*
X302006000Y-170180000D03*
X299466000Y-172720000D03*
X302006000Y-172720000D03*
X299466000Y-175260000D03*
X302006000Y-177800000D03*
X302006000Y-175260000D03*
X304546000Y-177800000D03*
X304546000Y-175260000D03*
X307086000Y-177800000D03*
X307086000Y-175260000D03*
X309626000Y-177800000D03*
X309626000Y-175260000D03*
X312166000Y-177800000D03*
X312166000Y-175260000D03*
X314706000Y-177800000D03*
X314706000Y-175260000D03*
X317246000Y-177800000D03*
X317246000Y-175260000D03*
X319786000Y-177800000D03*
X319786000Y-175260000D03*
X322326000Y-177800000D03*
X324866000Y-175260000D03*
X322326000Y-175260000D03*
X324866000Y-172720000D03*
X322326000Y-172720000D03*
X324866000Y-170180000D03*
X322326000Y-170180000D03*
X324866000Y-167640000D03*
X322326000Y-167640000D03*
X324866000Y-165100000D03*
X322326000Y-165100000D03*
X324866000Y-162560000D03*
X322326000Y-162560000D03*
X324866000Y-160020000D03*
X322326000Y-160020000D03*
X324866000Y-157480000D03*
X322326000Y-157480000D03*
X324866000Y-154940000D03*
X322326000Y-152400000D03*
X322326000Y-154940000D03*
X319786000Y-152400000D03*
X319786000Y-154940000D03*
X317246000Y-152400000D03*
X317246000Y-154940000D03*
X314706000Y-152400000D03*
X314706000Y-154940000D03*
X312166000Y-152400000D03*
X312166000Y-154940000D03*
X309626000Y-152400000D03*
X309626000Y-154940000D03*
X307086000Y-152400000D03*
X307086000Y-154940000D03*
X304546000Y-152400000D03*
X304546000Y-154940000D03*
X302006000Y-152400000D03*
X299466000Y-154940000D03*
X302006000Y-154940000D03*
X299466000Y-157480000D03*
X302006000Y-157480000D03*
X299466000Y-160020000D03*
X302006000Y-160020000D03*
X299466000Y-162560000D03*
X302006000Y-162560000D03*
D33*
X289750000Y-37750000D03*
X314750000Y-37750000D03*
D10*
X307790000Y-38050000D03*
D14*
X305020000Y-38050000D03*
X302250000Y-38050000D03*
X299480000Y-38050000D03*
X296710000Y-38050000D03*
X306405000Y-35210000D03*
X303635000Y-35210000D03*
X300865000Y-35210000D03*
X298095000Y-35210000D03*
D34*
X132630000Y-192747500D03*
D35*
X132630000Y-195287500D03*
X130090000Y-192747500D03*
X130090000Y-195287500D03*
X127550000Y-192747500D03*
X127550000Y-195287500D03*
X125010000Y-192747500D03*
X125010000Y-195287500D03*
X122470000Y-192747500D03*
X122470000Y-195287500D03*
X119930000Y-192747500D03*
X119930000Y-195287500D03*
X117390000Y-192747500D03*
X117390000Y-195287500D03*
X114850000Y-192747500D03*
X114850000Y-195287500D03*
X112310000Y-192747500D03*
X112310000Y-195287500D03*
X109770000Y-192747500D03*
X109770000Y-195287500D03*
X107230000Y-192747500D03*
X107230000Y-195287500D03*
X104690000Y-192747500D03*
X104690000Y-195287500D03*
X102150000Y-192747500D03*
X102150000Y-195287500D03*
X99610000Y-192747500D03*
X99610000Y-195287500D03*
X97070000Y-192747500D03*
X97070000Y-195287500D03*
X94530000Y-192747500D03*
X94530000Y-195287500D03*
X91990000Y-192747500D03*
X91990000Y-195287500D03*
X89450000Y-192747500D03*
X89450000Y-195287500D03*
X86910000Y-192747500D03*
X86910000Y-195287500D03*
X84370000Y-192747500D03*
X84370000Y-195287500D03*
D21*
X123825000Y-222250000D03*
D20*
X235585000Y-222250000D03*
D21*
X179705000Y-222250000D03*
D22*
X132080000Y-220980000D03*
D23*
X133350000Y-223520000D03*
X134620000Y-220980000D03*
X135890000Y-223520000D03*
X137160000Y-220980000D03*
X138430000Y-223520000D03*
X139700000Y-220980000D03*
X140970000Y-223520000D03*
X142240000Y-220980000D03*
X143510000Y-223520000D03*
X144780000Y-220980000D03*
X146050000Y-223520000D03*
X147320000Y-220980000D03*
X148590000Y-223520000D03*
X149860000Y-220980000D03*
X151130000Y-223520000D03*
X152400000Y-220980000D03*
X153670000Y-223520000D03*
X154940000Y-220980000D03*
X156210000Y-223520000D03*
X157480000Y-220980000D03*
X158750000Y-223520000D03*
X160020000Y-220980000D03*
X161290000Y-223520000D03*
X162560000Y-220980000D03*
X163830000Y-223520000D03*
X165100000Y-220980000D03*
X166370000Y-223520000D03*
X167640000Y-220980000D03*
X168910000Y-223520000D03*
X170180000Y-220980000D03*
X171450000Y-223520000D03*
X172720000Y-220980000D03*
X173990000Y-223520000D03*
X175260000Y-220980000D03*
X176530000Y-223520000D03*
X182880000Y-220980000D03*
X184150000Y-223520000D03*
X185420000Y-220980000D03*
X186690000Y-223520000D03*
X187960000Y-220980000D03*
X189230000Y-223520000D03*
X190500000Y-220980000D03*
X191770000Y-223520000D03*
X193040000Y-220980000D03*
X194310000Y-223520000D03*
X195580000Y-220980000D03*
X196850000Y-223520000D03*
X198120000Y-220980000D03*
X199390000Y-223520000D03*
X200660000Y-220980000D03*
X201930000Y-223520000D03*
X203200000Y-220980000D03*
X204470000Y-223520000D03*
X205740000Y-220980000D03*
X207010000Y-223520000D03*
X208280000Y-220980000D03*
X209550000Y-223520000D03*
X210820000Y-220980000D03*
X212090000Y-223520000D03*
X213360000Y-220980000D03*
X214630000Y-223520000D03*
X215900000Y-220980000D03*
X217170000Y-223520000D03*
X218440000Y-220980000D03*
X219710000Y-223520000D03*
X220980000Y-220980000D03*
X222250000Y-223520000D03*
X223520000Y-220980000D03*
X224790000Y-223520000D03*
X226060000Y-220980000D03*
X227330000Y-223520000D03*
D19*
X352000000Y-241500000D03*
X353500000Y-50500000D03*
D12*
X344000000Y-153800000D03*
D13*
X341460000Y-153800000D03*
X338920000Y-153800000D03*
D10*
X304800000Y-241300000D03*
D11*
X307340000Y-241300000D03*
X309880000Y-241300000D03*
X312420000Y-241300000D03*
X314960000Y-241300000D03*
X317500000Y-241300000D03*
X320040000Y-241300000D03*
X322580000Y-241300000D03*
X325120000Y-241300000D03*
X327660000Y-241300000D03*
X330200000Y-241300000D03*
X332740000Y-241300000D03*
X335280000Y-241300000D03*
X337820000Y-241300000D03*
X340360000Y-241300000D03*
X342900000Y-241300000D03*
X342900000Y-226060000D03*
X340360000Y-226060000D03*
X337820000Y-226060000D03*
X335280000Y-226060000D03*
X332740000Y-226060000D03*
X330200000Y-226060000D03*
X327660000Y-226060000D03*
X325120000Y-226060000D03*
X322580000Y-226060000D03*
X320040000Y-226060000D03*
X317500000Y-226060000D03*
X314960000Y-226060000D03*
X312420000Y-226060000D03*
X309880000Y-226060000D03*
X307340000Y-226060000D03*
X304800000Y-226060000D03*
D19*
X37500000Y-242500000D03*
D36*
X113000000Y-239500000D03*
X106500000Y-239500000D03*
X106500000Y-244000000D03*
X113000000Y-244000000D03*
D12*
X71120000Y-242000000D03*
D13*
X71120000Y-244540000D03*
D37*
X317350000Y-54250000D03*
X322250000Y-54250000D03*
X221062500Y-68550000D03*
X221062500Y-73450000D03*
D19*
X38100000Y-38000000D03*
D10*
X254000000Y-241300000D03*
D11*
X256540000Y-241300000D03*
X259080000Y-241300000D03*
X261620000Y-241300000D03*
X264160000Y-241300000D03*
X266700000Y-241300000D03*
X269240000Y-241300000D03*
X271780000Y-241300000D03*
X274320000Y-241300000D03*
X276860000Y-241300000D03*
X279400000Y-241300000D03*
X281940000Y-241300000D03*
X284480000Y-241300000D03*
X287020000Y-241300000D03*
X289560000Y-241300000D03*
X292100000Y-241300000D03*
X292100000Y-226060000D03*
X289560000Y-226060000D03*
X287020000Y-226060000D03*
X284480000Y-226060000D03*
X281940000Y-226060000D03*
X279400000Y-226060000D03*
X276860000Y-226060000D03*
X274320000Y-226060000D03*
X271780000Y-226060000D03*
X269240000Y-226060000D03*
X266700000Y-226060000D03*
X264160000Y-226060000D03*
X261620000Y-226060000D03*
X259080000Y-226060000D03*
X256540000Y-226060000D03*
X254000000Y-226060000D03*
D38*
X351050000Y-130120000D03*
D39*
X351050000Y-122500000D03*
X353590000Y-130120000D03*
X353590000Y-122500000D03*
D12*
X55880000Y-242000000D03*
D13*
X55880000Y-244540000D03*
D10*
X157450000Y-150400000D03*
D11*
X157450000Y-147860000D03*
X157450000Y-145320000D03*
X157450000Y-142780000D03*
X157450000Y-140240000D03*
X157450000Y-137700000D03*
X157450000Y-135160000D03*
X157450000Y-132620000D03*
X157450000Y-130080000D03*
D12*
X76200000Y-242000000D03*
D13*
X76200000Y-244540000D03*
D10*
X241300000Y-213360000D03*
D11*
X238760000Y-213360000D03*
X236220000Y-213360000D03*
X233680000Y-213360000D03*
X231140000Y-213360000D03*
X228600000Y-213360000D03*
X226060000Y-213360000D03*
X223520000Y-213360000D03*
X220980000Y-213360000D03*
D10*
X275825000Y-189000000D03*
D11*
X278365000Y-189000000D03*
X280905000Y-189000000D03*
X283445000Y-189000000D03*
X285985000Y-189000000D03*
X288525000Y-189000000D03*
X291065000Y-189000000D03*
X293605000Y-189000000D03*
X296145000Y-189000000D03*
D26*
X78440000Y-45170000D03*
X78440000Y-135170000D03*
D27*
X76200000Y-50800000D03*
D28*
X76200000Y-53340000D03*
X76200000Y-55880000D03*
X76200000Y-58420000D03*
X76200000Y-60960000D03*
X76200000Y-63500000D03*
X76200000Y-66040000D03*
X76200000Y-68580000D03*
X76200000Y-71120000D03*
X76200000Y-73660000D03*
X76200000Y-76200000D03*
X76200000Y-78740000D03*
X76200000Y-81280000D03*
X76200000Y-83820000D03*
X76200000Y-86360000D03*
X76200000Y-88900000D03*
X76200000Y-91440000D03*
X76200000Y-93980000D03*
X76200000Y-96520000D03*
X76200000Y-99060000D03*
X76200000Y-101600000D03*
X76200000Y-104140000D03*
X76200000Y-106680000D03*
X76200000Y-109220000D03*
X76200000Y-111760000D03*
X76200000Y-114300000D03*
X76200000Y-116840000D03*
X76200000Y-119380000D03*
X76200000Y-121920000D03*
X76200000Y-124460000D03*
X76200000Y-127000000D03*
X76200000Y-129540000D03*
X78740000Y-50800000D03*
X78740000Y-53340000D03*
X78740000Y-55880000D03*
X78740000Y-58420000D03*
X78740000Y-60960000D03*
X78740000Y-63500000D03*
X78740000Y-66040000D03*
X78740000Y-68580000D03*
X78740000Y-71120000D03*
X78740000Y-73660000D03*
X78740000Y-76200000D03*
X78740000Y-78740000D03*
X78740000Y-81280000D03*
X78740000Y-83820000D03*
X78740000Y-86360000D03*
X78740000Y-88900000D03*
X78740000Y-91440000D03*
X78740000Y-93980000D03*
X78740000Y-96520000D03*
X78740000Y-99060000D03*
X78740000Y-101600000D03*
X78740000Y-104140000D03*
X78740000Y-106680000D03*
X78740000Y-109220000D03*
X78740000Y-111760000D03*
X78740000Y-114300000D03*
X78740000Y-116840000D03*
X78740000Y-119380000D03*
X78740000Y-121920000D03*
X78740000Y-124460000D03*
X78740000Y-127000000D03*
X78740000Y-129540000D03*
X81280000Y-50800000D03*
X81280000Y-53340000D03*
X81280000Y-55880000D03*
X81280000Y-58420000D03*
X81280000Y-60960000D03*
X81280000Y-63500000D03*
X81280000Y-66040000D03*
X81280000Y-68580000D03*
X81280000Y-71120000D03*
X81280000Y-73660000D03*
X81280000Y-76200000D03*
X81280000Y-78740000D03*
X81280000Y-81280000D03*
X81280000Y-83820000D03*
X81280000Y-86360000D03*
X81280000Y-88900000D03*
X81280000Y-91440000D03*
X81280000Y-93980000D03*
X81280000Y-96520000D03*
X81280000Y-99060000D03*
X81280000Y-101600000D03*
X81280000Y-104140000D03*
X81280000Y-106680000D03*
X81280000Y-109220000D03*
X81280000Y-111760000D03*
X81280000Y-114300000D03*
X81280000Y-116840000D03*
X81280000Y-119380000D03*
X81280000Y-121920000D03*
X81280000Y-124460000D03*
X81280000Y-127000000D03*
X81280000Y-129540000D03*
D10*
X265780000Y-112200000D03*
D11*
X268320000Y-112200000D03*
X270860000Y-112200000D03*
X273400000Y-112200000D03*
X275940000Y-112200000D03*
X278480000Y-112200000D03*
X281020000Y-112200000D03*
X283560000Y-112200000D03*
X286100000Y-112200000D03*
D36*
X92500000Y-239500000D03*
X99000000Y-239500000D03*
X92500000Y-244000000D03*
X99000000Y-244000000D03*
D10*
X99060000Y-50800000D03*
D11*
X99060000Y-53340000D03*
X99060000Y-55880000D03*
X99060000Y-58420000D03*
X99060000Y-60960000D03*
X99060000Y-63500000D03*
X99060000Y-66040000D03*
X99060000Y-68580000D03*
X99060000Y-71120000D03*
D26*
X108920000Y-135170000D03*
X108920000Y-45170000D03*
D27*
X106680000Y-50800000D03*
D28*
X106680000Y-53340000D03*
X106680000Y-55880000D03*
X106680000Y-58420000D03*
X106680000Y-60960000D03*
X106680000Y-63500000D03*
X106680000Y-66040000D03*
X106680000Y-68580000D03*
X106680000Y-71120000D03*
X106680000Y-73660000D03*
X106680000Y-76200000D03*
X106680000Y-78740000D03*
X106680000Y-81280000D03*
X106680000Y-83820000D03*
X106680000Y-86360000D03*
X106680000Y-88900000D03*
X106680000Y-91440000D03*
X106680000Y-93980000D03*
X106680000Y-96520000D03*
X106680000Y-99060000D03*
X106680000Y-101600000D03*
X106680000Y-104140000D03*
X106680000Y-106680000D03*
X106680000Y-109220000D03*
X106680000Y-111760000D03*
X106680000Y-114300000D03*
X106680000Y-116840000D03*
X106680000Y-119380000D03*
X106680000Y-121920000D03*
X106680000Y-124460000D03*
X106680000Y-127000000D03*
X106680000Y-129540000D03*
X109220000Y-50800000D03*
X109220000Y-53340000D03*
X109220000Y-55880000D03*
X109220000Y-58420000D03*
X109220000Y-60960000D03*
X109220000Y-63500000D03*
X109220000Y-66040000D03*
X109220000Y-68580000D03*
X109220000Y-71120000D03*
X109220000Y-73660000D03*
X109220000Y-76200000D03*
X109220000Y-78740000D03*
X109220000Y-81280000D03*
X109220000Y-83820000D03*
X109220000Y-86360000D03*
X109220000Y-88900000D03*
X109220000Y-91440000D03*
X109220000Y-93980000D03*
X109220000Y-96520000D03*
X109220000Y-99060000D03*
X109220000Y-101600000D03*
X109220000Y-104140000D03*
X109220000Y-106680000D03*
X109220000Y-109220000D03*
X109220000Y-111760000D03*
X109220000Y-114300000D03*
X109220000Y-116840000D03*
X109220000Y-119380000D03*
X109220000Y-121920000D03*
X109220000Y-124460000D03*
X109220000Y-127000000D03*
X109220000Y-129540000D03*
X111760000Y-50800000D03*
X111760000Y-53340000D03*
X111760000Y-55880000D03*
X111760000Y-58420000D03*
X111760000Y-60960000D03*
X111760000Y-63500000D03*
X111760000Y-66040000D03*
X111760000Y-68580000D03*
X111760000Y-71120000D03*
X111760000Y-73660000D03*
X111760000Y-76200000D03*
X111760000Y-78740000D03*
X111760000Y-81280000D03*
X111760000Y-83820000D03*
X111760000Y-86360000D03*
X111760000Y-88900000D03*
X111760000Y-91440000D03*
X111760000Y-93980000D03*
X111760000Y-96520000D03*
X111760000Y-99060000D03*
X111760000Y-101600000D03*
X111760000Y-104140000D03*
X111760000Y-106680000D03*
X111760000Y-109220000D03*
X111760000Y-111760000D03*
X111760000Y-114300000D03*
X111760000Y-116840000D03*
X111760000Y-119380000D03*
X111760000Y-121920000D03*
X111760000Y-124460000D03*
X111760000Y-127000000D03*
X111760000Y-129540000D03*
D10*
X79220000Y-185900000D03*
D11*
X81760000Y-185900000D03*
X84300000Y-185900000D03*
X86840000Y-185900000D03*
X89380000Y-185900000D03*
X91920000Y-185900000D03*
X94460000Y-185900000D03*
X97000000Y-185900000D03*
D19*
X40640000Y-167640000D03*
D10*
X244380000Y-92120000D03*
D11*
X246920000Y-92120000D03*
X249460000Y-92120000D03*
X252000000Y-92120000D03*
X254540000Y-92120000D03*
X257080000Y-92120000D03*
X259620000Y-92120000D03*
X262160000Y-92120000D03*
X264700000Y-92120000D03*
X264700000Y-84500000D03*
X262160000Y-84500000D03*
X259620000Y-84500000D03*
X257080000Y-84500000D03*
X254540000Y-84500000D03*
X252000000Y-84500000D03*
X249460000Y-84500000D03*
X246920000Y-84500000D03*
X244380000Y-84500000D03*
D12*
X60960000Y-242000000D03*
D13*
X60960000Y-244540000D03*
D10*
X327450000Y-81300000D03*
D14*
X312210000Y-81300000D03*
X312210000Y-88920000D03*
X327450000Y-88920000D03*
D10*
X129540000Y-48245000D03*
D11*
X129540000Y-50785000D03*
X129540000Y-53325000D03*
X129540000Y-55865000D03*
X129540000Y-58405000D03*
X129540000Y-60945000D03*
X129540000Y-63485000D03*
X129540000Y-66025000D03*
X129540000Y-68565000D03*
D10*
X102120000Y-186000000D03*
D11*
X104660000Y-186000000D03*
X107200000Y-186000000D03*
X109740000Y-186000000D03*
X112280000Y-186000000D03*
X114820000Y-186000000D03*
X117360000Y-186000000D03*
X119900000Y-186000000D03*
D10*
X355070000Y-160165000D03*
D14*
X339830000Y-160165000D03*
X339830000Y-167785000D03*
X355070000Y-167785000D03*
D10*
X304800000Y-215900000D03*
D11*
X307340000Y-215900000D03*
X309880000Y-215900000D03*
X312420000Y-215900000D03*
X314960000Y-215900000D03*
X317500000Y-215900000D03*
X320040000Y-215900000D03*
X322580000Y-215900000D03*
X325120000Y-215900000D03*
X327660000Y-215900000D03*
X330200000Y-215900000D03*
X332740000Y-215900000D03*
X335280000Y-215900000D03*
X337820000Y-215900000D03*
X340360000Y-215900000D03*
X342900000Y-215900000D03*
X342900000Y-200660000D03*
X340360000Y-200660000D03*
X337820000Y-200660000D03*
X335280000Y-200660000D03*
X332740000Y-200660000D03*
X330200000Y-200660000D03*
X327660000Y-200660000D03*
X325120000Y-200660000D03*
X322580000Y-200660000D03*
X320040000Y-200660000D03*
X317500000Y-200660000D03*
X314960000Y-200660000D03*
X312420000Y-200660000D03*
X309880000Y-200660000D03*
X307340000Y-200660000D03*
X304800000Y-200660000D03*
D24*
X322400000Y-95740000D03*
D25*
X322400000Y-98280000D03*
X319860000Y-95740000D03*
X319860000Y-98280000D03*
X317320000Y-95740000D03*
X317320000Y-98280000D03*
X314780000Y-95740000D03*
X314780000Y-98280000D03*
X312240000Y-95740000D03*
X312240000Y-98280000D03*
X309700000Y-95740000D03*
X307160000Y-98280000D03*
X309700000Y-98280000D03*
X307160000Y-100820000D03*
X309700000Y-100820000D03*
X307160000Y-103360000D03*
X309700000Y-103360000D03*
X307160000Y-105900000D03*
X309700000Y-105900000D03*
X307160000Y-108440000D03*
X309700000Y-108440000D03*
X307160000Y-110980000D03*
X309700000Y-110980000D03*
X307160000Y-113520000D03*
X309700000Y-113520000D03*
X307160000Y-116060000D03*
X309700000Y-116060000D03*
X307160000Y-118600000D03*
X309700000Y-118600000D03*
X307160000Y-121140000D03*
X309700000Y-121140000D03*
X307160000Y-123680000D03*
X309700000Y-126220000D03*
X309700000Y-123680000D03*
X312240000Y-126220000D03*
X312240000Y-123680000D03*
X314780000Y-126220000D03*
X314780000Y-123680000D03*
X317320000Y-126220000D03*
X317320000Y-123680000D03*
X319860000Y-126220000D03*
X319860000Y-123680000D03*
X322400000Y-126220000D03*
X322400000Y-123680000D03*
X324940000Y-126220000D03*
X324940000Y-123680000D03*
X327480000Y-126220000D03*
X327480000Y-123680000D03*
X330020000Y-126220000D03*
X330020000Y-123680000D03*
X332560000Y-126220000D03*
X332560000Y-123680000D03*
X335100000Y-126220000D03*
X337640000Y-123680000D03*
X335100000Y-123680000D03*
X337640000Y-121140000D03*
X335100000Y-121140000D03*
X337640000Y-118600000D03*
X335100000Y-118600000D03*
X337640000Y-116060000D03*
X335100000Y-116060000D03*
X337640000Y-113520000D03*
X335100000Y-113520000D03*
X337640000Y-110980000D03*
X335100000Y-110980000D03*
X337640000Y-108440000D03*
X335100000Y-108440000D03*
X337640000Y-105900000D03*
X335100000Y-105900000D03*
X337640000Y-103360000D03*
X335100000Y-103360000D03*
X337640000Y-100820000D03*
X335100000Y-100820000D03*
X337640000Y-98280000D03*
X335100000Y-95740000D03*
X335100000Y-98280000D03*
X332560000Y-95740000D03*
X332560000Y-98280000D03*
X330020000Y-95740000D03*
X330020000Y-98280000D03*
X327480000Y-95740000D03*
X327480000Y-98280000D03*
X324940000Y-95740000D03*
X324940000Y-98280000D03*
D26*
X139400000Y-135170000D03*
X139400000Y-45170000D03*
D27*
X137160000Y-50800000D03*
D28*
X137160000Y-53340000D03*
X137160000Y-55880000D03*
X137160000Y-58420000D03*
X137160000Y-60960000D03*
X137160000Y-63500000D03*
X137160000Y-66040000D03*
X137160000Y-68580000D03*
X137160000Y-71120000D03*
X137160000Y-73660000D03*
X137160000Y-76200000D03*
X137160000Y-78740000D03*
X137160000Y-81280000D03*
X137160000Y-83820000D03*
X137160000Y-86360000D03*
X137160000Y-88900000D03*
X137160000Y-91440000D03*
X137160000Y-93980000D03*
X137160000Y-96520000D03*
X137160000Y-99060000D03*
X137160000Y-101600000D03*
X137160000Y-104140000D03*
X137160000Y-106680000D03*
X137160000Y-109220000D03*
X137160000Y-111760000D03*
X137160000Y-114300000D03*
X137160000Y-116840000D03*
X137160000Y-119380000D03*
X137160000Y-121920000D03*
X137160000Y-124460000D03*
X137160000Y-127000000D03*
X137160000Y-129540000D03*
X139700000Y-50800000D03*
X139700000Y-53340000D03*
X139700000Y-55880000D03*
X139700000Y-58420000D03*
X139700000Y-60960000D03*
X139700000Y-63500000D03*
X139700000Y-66040000D03*
X139700000Y-68580000D03*
X139700000Y-71120000D03*
X139700000Y-73660000D03*
X139700000Y-76200000D03*
X139700000Y-78740000D03*
X139700000Y-81280000D03*
X139700000Y-83820000D03*
X139700000Y-86360000D03*
X139700000Y-88900000D03*
X139700000Y-91440000D03*
X139700000Y-93980000D03*
X139700000Y-96520000D03*
X139700000Y-99060000D03*
X139700000Y-101600000D03*
X139700000Y-104140000D03*
X139700000Y-106680000D03*
X139700000Y-109220000D03*
X139700000Y-111760000D03*
X139700000Y-114300000D03*
X139700000Y-116840000D03*
X139700000Y-119380000D03*
X139700000Y-121920000D03*
X139700000Y-124460000D03*
X139700000Y-127000000D03*
X139700000Y-129540000D03*
X142240000Y-50800000D03*
X142240000Y-53340000D03*
X142240000Y-55880000D03*
X142240000Y-58420000D03*
X142240000Y-60960000D03*
X142240000Y-63500000D03*
X142240000Y-66040000D03*
X142240000Y-68580000D03*
X142240000Y-71120000D03*
X142240000Y-73660000D03*
X142240000Y-76200000D03*
X142240000Y-78740000D03*
X142240000Y-81280000D03*
X142240000Y-83820000D03*
X142240000Y-86360000D03*
X142240000Y-88900000D03*
X142240000Y-91440000D03*
X142240000Y-93980000D03*
X142240000Y-96520000D03*
X142240000Y-99060000D03*
X142240000Y-101600000D03*
X142240000Y-104140000D03*
X142240000Y-106680000D03*
X142240000Y-109220000D03*
X142240000Y-111760000D03*
X142240000Y-114300000D03*
X142240000Y-116840000D03*
X142240000Y-119380000D03*
X142240000Y-121920000D03*
X142240000Y-124460000D03*
X142240000Y-127000000D03*
X142240000Y-129540000D03*
D12*
X66040000Y-242000000D03*
D13*
X66040000Y-244540000D03*
D33*
X349750000Y-37750000D03*
X324750000Y-37750000D03*
D10*
X342790000Y-38050000D03*
D14*
X340020000Y-38050000D03*
X337250000Y-38050000D03*
X334480000Y-38050000D03*
X331710000Y-38050000D03*
X341405000Y-35210000D03*
X338635000Y-35210000D03*
X335865000Y-35210000D03*
X333095000Y-35210000D03*
D10*
X198150000Y-187450000D03*
D11*
X200690000Y-187450000D03*
X203230000Y-187450000D03*
X205770000Y-187450000D03*
X208310000Y-187450000D03*
X210850000Y-187450000D03*
X213390000Y-187450000D03*
X215930000Y-187450000D03*
X218470000Y-187450000D03*
D10*
X38100000Y-55880000D03*
D11*
X38100000Y-58420000D03*
X38100000Y-60960000D03*
X38100000Y-63500000D03*
X38100000Y-66040000D03*
X38100000Y-68580000D03*
X38100000Y-71120000D03*
X38100000Y-73660000D03*
X38100000Y-76200000D03*
D40*
X205430000Y-39500000D03*
X194000000Y-39500000D03*
D41*
X207490000Y-42550000D03*
X191940000Y-42550000D03*
D42*
X193390000Y-36120000D03*
X195930000Y-34600000D03*
X203500000Y-36120000D03*
X206040000Y-34600000D03*
D43*
X204160000Y-45840000D03*
D44*
X202890000Y-48380000D03*
X201620000Y-45840000D03*
X200350000Y-48380000D03*
X199080000Y-45840000D03*
X197810000Y-48380000D03*
X196540000Y-45840000D03*
X195270000Y-48380000D03*
D19*
X198150000Y-151950000D03*
D10*
X355070000Y-174415000D03*
D14*
X339830000Y-174415000D03*
X339830000Y-182035000D03*
X355070000Y-182035000D03*
M02*
