G04 #@! TF.GenerationSoftware,KiCad,Pcbnew,(5.1.10)-1*
G04 #@! TF.CreationDate,2021-07-30T10:24:52+01:00*
G04 #@! TF.ProjectId,AudioYM2612,41756469-6f59-44d3-9236-31322e6b6963,rev?*
G04 #@! TF.SameCoordinates,Original*
G04 #@! TF.FileFunction,Legend,Bot*
G04 #@! TF.FilePolarity,Positive*
%FSLAX46Y46*%
G04 Gerber Fmt 4.6, Leading zero omitted, Abs format (unit mm)*
G04 Created by KiCad (PCBNEW (5.1.10)-1) date 2021-07-30 10:24:52*
%MOMM*%
%LPD*%
G01*
G04 APERTURE LIST*
%ADD10C,0.854000*%
%ADD11O,1.700000X1.700000*%
%ADD12R,1.700000X1.700000*%
%ADD13C,1.200000*%
%ADD14O,2.416000X1.208000*%
%ADD15O,1.208000X2.416000*%
%ADD16O,1.600000X1.600000*%
%ADD17R,1.600000X1.600000*%
%ADD18C,2.340000*%
%ADD19C,1.600000*%
%ADD20C,2.600000*%
%ADD21C,1.550000*%
%ADD22C,2.850000*%
%ADD23C,1.800000*%
%ADD24R,1.800000X1.800000*%
G04 APERTURE END LIST*
%LPC*%
D10*
X190991000Y-83566000D02*
G75*
G03*
X190991000Y-83566000I-427000J0D01*
G01*
X195991000Y-88566000D02*
G75*
G03*
X195991000Y-88566000I-427000J0D01*
G01*
X198491000Y-88566000D02*
G75*
G03*
X198491000Y-88566000I-427000J0D01*
G01*
X195991000Y-78566000D02*
G75*
G03*
X195991000Y-78566000I-427000J0D01*
G01*
X198491000Y-78566000D02*
G75*
G03*
X198491000Y-78566000I-427000J0D01*
G01*
D11*
X186944000Y-118364000D03*
X186944000Y-115824000D03*
X186944000Y-113284000D03*
X186944000Y-110744000D03*
X186944000Y-108204000D03*
D12*
X186944000Y-105664000D03*
D13*
X198064000Y-88566000D03*
X198064000Y-78566000D03*
X195564000Y-78566000D03*
X195564000Y-88566000D03*
X190564000Y-83566000D03*
D14*
X190564000Y-88566000D03*
X190564000Y-78566000D03*
D15*
X195564000Y-83566000D03*
D16*
X136398000Y-58674000D03*
X159258000Y-66294000D03*
X138938000Y-58674000D03*
X156718000Y-66294000D03*
X141478000Y-58674000D03*
X154178000Y-66294000D03*
X144018000Y-58674000D03*
X151638000Y-66294000D03*
X146558000Y-58674000D03*
X149098000Y-66294000D03*
X149098000Y-58674000D03*
X146558000Y-66294000D03*
X151638000Y-58674000D03*
X144018000Y-66294000D03*
X154178000Y-58674000D03*
X141478000Y-66294000D03*
X156718000Y-58674000D03*
X138938000Y-66294000D03*
X159258000Y-58674000D03*
D17*
X136398000Y-66294000D03*
D16*
X119126000Y-69818000D03*
X111506000Y-62198000D03*
X116586000Y-69818000D03*
X114046000Y-62198000D03*
X114046000Y-69818000D03*
X116586000Y-62198000D03*
X111506000Y-69818000D03*
D17*
X119126000Y-62198000D03*
D16*
X173482000Y-107950000D03*
X155702000Y-100330000D03*
X170942000Y-107950000D03*
X158242000Y-100330000D03*
X168402000Y-107950000D03*
X160782000Y-100330000D03*
X165862000Y-107950000D03*
X163322000Y-100330000D03*
X163322000Y-107950000D03*
X165862000Y-100330000D03*
X160782000Y-107950000D03*
X168402000Y-100330000D03*
X158242000Y-107950000D03*
X170942000Y-100330000D03*
X155702000Y-107950000D03*
D17*
X173482000Y-100330000D03*
D16*
X144018000Y-117856000D03*
X116078000Y-102616000D03*
X141478000Y-117856000D03*
X118618000Y-102616000D03*
X138938000Y-117856000D03*
X121158000Y-102616000D03*
X136398000Y-117856000D03*
X123698000Y-102616000D03*
X133858000Y-117856000D03*
X126238000Y-102616000D03*
X131318000Y-117856000D03*
X128778000Y-102616000D03*
X128778000Y-117856000D03*
X131318000Y-102616000D03*
X126238000Y-117856000D03*
X133858000Y-102616000D03*
X123698000Y-117856000D03*
X136398000Y-102616000D03*
X121158000Y-117856000D03*
X138938000Y-102616000D03*
X118618000Y-117856000D03*
X141478000Y-102616000D03*
X116078000Y-117856000D03*
D17*
X144018000Y-102616000D03*
D16*
X110998000Y-125476000D03*
X126238000Y-133096000D03*
X113538000Y-125476000D03*
X123698000Y-133096000D03*
X116078000Y-125476000D03*
X121158000Y-133096000D03*
X118618000Y-125476000D03*
X118618000Y-133096000D03*
X121158000Y-125476000D03*
X116078000Y-133096000D03*
X123698000Y-125476000D03*
X113538000Y-133096000D03*
X126238000Y-125476000D03*
D17*
X110998000Y-133096000D03*
D18*
X190000000Y-70000000D03*
X190000000Y-65000000D03*
X190000000Y-60000000D03*
X195000000Y-70000000D03*
X195000000Y-65000000D03*
X195000000Y-60000000D03*
D16*
X182118000Y-81788000D03*
D19*
X171958000Y-81788000D03*
D16*
X181864000Y-54356000D03*
D19*
X171704000Y-54356000D03*
D16*
X110236000Y-73628000D03*
D19*
X120396000Y-73628000D03*
D16*
X110236000Y-58388000D03*
D19*
X120396000Y-58388000D03*
D16*
X153416000Y-84328000D03*
D19*
X143256000Y-84328000D03*
D16*
X126746000Y-84328000D03*
D19*
X116586000Y-84328000D03*
D16*
X153416000Y-88900000D03*
D19*
X143256000Y-88900000D03*
D16*
X126746000Y-88900000D03*
D19*
X116586000Y-88900000D03*
D16*
X140208000Y-84328000D03*
D19*
X130048000Y-84328000D03*
D16*
X113538000Y-84328000D03*
D19*
X103378000Y-84328000D03*
D16*
X182372000Y-92202000D03*
D19*
X172212000Y-92202000D03*
D16*
X182372000Y-87630000D03*
D19*
X172212000Y-87630000D03*
D16*
X140208000Y-88900000D03*
D19*
X130048000Y-88900000D03*
D16*
X113538000Y-88900000D03*
D19*
X103378000Y-88900000D03*
D16*
X169418000Y-92202000D03*
D19*
X159258000Y-92202000D03*
D16*
X105156000Y-123952000D03*
D19*
X105156000Y-134112000D03*
D16*
X187452000Y-125730000D03*
D19*
X197612000Y-125730000D03*
D16*
X187452000Y-130302000D03*
D19*
X197612000Y-130302000D03*
D20*
X171704000Y-62230000D03*
X166704000Y-62230000D03*
X171958000Y-73406000D03*
X166958000Y-73406000D03*
X109474000Y-93298000D03*
X109474000Y-98298000D03*
X121666000Y-93298000D03*
X121666000Y-98298000D03*
D21*
X110744000Y-139192000D03*
X113284000Y-139192000D03*
X115824000Y-139192000D03*
X118364000Y-139192000D03*
X120904000Y-139192000D03*
X123444000Y-139192000D03*
X125984000Y-139192000D03*
X128524000Y-139192000D03*
X131064000Y-139192000D03*
X133604000Y-139192000D03*
X136144000Y-139192000D03*
X138684000Y-139192000D03*
X141224000Y-139192000D03*
X143764000Y-139192000D03*
X146304000Y-139192000D03*
X148844000Y-139192000D03*
X151384000Y-139192000D03*
X153924000Y-139192000D03*
X156464000Y-139192000D03*
X159004000Y-139192000D03*
X161544000Y-139192000D03*
X164084000Y-139192000D03*
X166624000Y-139192000D03*
X169164000Y-139192000D03*
X171704000Y-139192000D03*
X174244000Y-139192000D03*
X176784000Y-139192000D03*
X179324000Y-139192000D03*
X181864000Y-139192000D03*
X184404000Y-139192000D03*
X186944000Y-139192000D03*
X189484000Y-139192000D03*
X110744000Y-144272000D03*
X113284000Y-144272000D03*
X115824000Y-144272000D03*
X118364000Y-144272000D03*
X120904000Y-144272000D03*
X123444000Y-144272000D03*
X125984000Y-144272000D03*
X128524000Y-144272000D03*
X131064000Y-144272000D03*
X133604000Y-144272000D03*
X136144000Y-144272000D03*
X138684000Y-144272000D03*
X141224000Y-144272000D03*
X143764000Y-144272000D03*
X146304000Y-144272000D03*
X148844000Y-144272000D03*
X151384000Y-144272000D03*
X153924000Y-144272000D03*
X156464000Y-144272000D03*
X159004000Y-144272000D03*
X161544000Y-144272000D03*
X164084000Y-144272000D03*
X166624000Y-144272000D03*
X169164000Y-144272000D03*
X171704000Y-144272000D03*
X174244000Y-144272000D03*
X176784000Y-144272000D03*
X179324000Y-144272000D03*
X181864000Y-144272000D03*
X184404000Y-144272000D03*
X186944000Y-144272000D03*
G36*
G01*
X190259000Y-143746998D02*
X190259000Y-144797002D01*
G75*
G02*
X190009002Y-145047000I-249998J0D01*
G01*
X188958998Y-145047000D01*
G75*
G02*
X188709000Y-144797002I0J249998D01*
G01*
X188709000Y-143746998D01*
G75*
G02*
X188958998Y-143497000I249998J0D01*
G01*
X190009002Y-143497000D01*
G75*
G02*
X190259000Y-143746998I0J-249998D01*
G01*
G37*
D22*
X105664000Y-146812000D03*
X194564000Y-146812000D03*
D23*
X194056000Y-136906000D03*
D24*
X196596000Y-136906000D03*
D19*
X182038000Y-73406000D03*
D17*
X177038000Y-73406000D03*
D19*
X182038000Y-62230000D03*
D17*
X177038000Y-62230000D03*
D19*
X168910000Y-81788000D03*
X166410000Y-81788000D03*
X168616000Y-54356000D03*
X166116000Y-54356000D03*
X141478000Y-54356000D03*
X138978000Y-54356000D03*
X156718000Y-54356000D03*
X154218000Y-54356000D03*
X158202000Y-71628000D03*
D17*
X155702000Y-71628000D03*
D19*
X152106000Y-71628000D03*
D17*
X149606000Y-71628000D03*
D19*
X139914000Y-71628000D03*
D17*
X137414000Y-71628000D03*
D19*
X146010000Y-71628000D03*
D17*
X143510000Y-71628000D03*
D19*
X162306000Y-76962000D03*
X159806000Y-76962000D03*
X162266000Y-81788000D03*
X159766000Y-81788000D03*
X131826000Y-61254000D03*
X131826000Y-63754000D03*
X106172000Y-64524000D03*
D17*
X106172000Y-67024000D03*
D19*
X131572000Y-123698000D03*
X131572000Y-126198000D03*
X112014000Y-102870000D03*
X112014000Y-105370000D03*
X112014000Y-115570000D03*
X112014000Y-118070000D03*
X152868000Y-79248000D03*
X150368000Y-79248000D03*
X126238000Y-78994000D03*
X123738000Y-78994000D03*
X178308000Y-99568000D03*
X178308000Y-102068000D03*
X146518000Y-79248000D03*
X144018000Y-79248000D03*
X119888000Y-78994000D03*
X117388000Y-78994000D03*
X131572000Y-129834000D03*
X131572000Y-132334000D03*
X150368000Y-102616000D03*
X147868000Y-102616000D03*
X168870000Y-87630000D03*
X166370000Y-87630000D03*
X162052000Y-87630000D03*
X159552000Y-87630000D03*
X131358000Y-71374000D03*
D17*
X133858000Y-71374000D03*
D19*
X133096000Y-78994000D03*
X130596000Y-78994000D03*
X186944000Y-135128000D03*
X189444000Y-135128000D03*
X177332000Y-114300000D03*
X179832000Y-114300000D03*
X178308000Y-106720000D03*
X178308000Y-109220000D03*
X140208000Y-79248000D03*
X137708000Y-79248000D03*
X113284000Y-78994000D03*
X110784000Y-78994000D03*
M02*
