%FSLAX45Y45*%
G04 Gerber Fmt 4.5, Leading zero omitted, Abs format (unit mm)*
G04 Created by KiCad (PCBNEW (5.1.10)-1) date 2021-07-30 10:33:17*
%MOMM*%
%LPD*%
G01*
G04 APERTURE LIST*
%TA.AperFunction,Profile*%
%ADD10C,0.050000*%
%TD*%
%ADD11C,0.200000*%
%ADD12C,0.300000*%
G04 APERTURE END LIST*
D10*
X20000000Y-11250000D02*
X20000000Y-10750000D01*
X20000000Y-10750000D02*
X20000000Y-5250000D01*
X20000000Y-14750000D02*
X20000000Y-11250000D01*
X5250000Y-13250000D02*
X5250000Y-13500000D01*
X19750000Y-5000000D02*
G75*
G02*
X20000000Y-5250000I0J-250000D01*
G01*
X5250000Y-5250000D02*
G75*
G02*
X5500000Y-5000000I250000J0D01*
G01*
X5500000Y-13750000D02*
G75*
G02*
X5250000Y-13500000I0J250000D01*
G01*
X8750000Y-13750000D02*
G75*
G02*
X9000000Y-14000000I0J-250000D01*
G01*
X9250000Y-15000000D02*
G75*
G02*
X9000000Y-14750000I0J250000D01*
G01*
X20000000Y-14750000D02*
G75*
G02*
X19750000Y-15000000I-250000J0D01*
G01*
X5500000Y-5000000D02*
X19750000Y-5000000D01*
X5250000Y-13250000D02*
X5250000Y-5250000D01*
X8750000Y-13750000D02*
X5500000Y-13750000D01*
X9000000Y-14750000D02*
X9000000Y-14000000D01*
X19750000Y-15000000D02*
X9250000Y-15000000D01*
D11*
X19015000Y-5865000D02*
X19135000Y-5985000D01*
X19135000Y-5865000D02*
X19015000Y-5985000D01*
X19515000Y-5365000D02*
X19635000Y-5485000D01*
X19635000Y-5365000D02*
X19515000Y-5485000D01*
X19515000Y-6365000D02*
X19635000Y-6485000D01*
X19635000Y-6365000D02*
X19515000Y-6485000D01*
X19765000Y-5365000D02*
X19885000Y-5485000D01*
X19885000Y-5365000D02*
X19765000Y-5485000D01*
X19765000Y-6365000D02*
X19885000Y-6485000D01*
X19885000Y-6365000D02*
X19765000Y-6485000D01*
X10277100Y-14732000D02*
G75*
G03*
X10277100Y-14732000I-142500J0D01*
G01*
X19167100Y-14732000D02*
G75*
G03*
X19167100Y-14732000I-142500J0D01*
G01*
D12*
X5533928Y-15468214D02*
X5533928Y-15168214D01*
X5605357Y-15168214D01*
X5648214Y-15182500D01*
X5676786Y-15211071D01*
X5691071Y-15239643D01*
X5705357Y-15296786D01*
X5705357Y-15339643D01*
X5691071Y-15396786D01*
X5676786Y-15425357D01*
X5648214Y-15453929D01*
X5605357Y-15468214D01*
X5533928Y-15468214D01*
X5833928Y-15468214D02*
X5833928Y-15268214D01*
X5833928Y-15325357D02*
X5848214Y-15296786D01*
X5862500Y-15282500D01*
X5891071Y-15268214D01*
X5919643Y-15268214D01*
X6019643Y-15468214D02*
X6019643Y-15268214D01*
X6019643Y-15168214D02*
X6005357Y-15182500D01*
X6019643Y-15196786D01*
X6033928Y-15182500D01*
X6019643Y-15168214D01*
X6019643Y-15196786D01*
X6205357Y-15468214D02*
X6176786Y-15453929D01*
X6162500Y-15425357D01*
X6162500Y-15168214D01*
X6362500Y-15468214D02*
X6333928Y-15453929D01*
X6319643Y-15425357D01*
X6319643Y-15168214D01*
X6705357Y-15468214D02*
X6705357Y-15168214D01*
X6805357Y-15382500D01*
X6905357Y-15168214D01*
X6905357Y-15468214D01*
X7176786Y-15468214D02*
X7176786Y-15311071D01*
X7162500Y-15282500D01*
X7133928Y-15268214D01*
X7076786Y-15268214D01*
X7048214Y-15282500D01*
X7176786Y-15453929D02*
X7148214Y-15468214D01*
X7076786Y-15468214D01*
X7048214Y-15453929D01*
X7033928Y-15425357D01*
X7033928Y-15396786D01*
X7048214Y-15368214D01*
X7076786Y-15353929D01*
X7148214Y-15353929D01*
X7176786Y-15339643D01*
X7319643Y-15268214D02*
X7319643Y-15568214D01*
X7319643Y-15282500D02*
X7348214Y-15268214D01*
X7405357Y-15268214D01*
X7433928Y-15282500D01*
X7448214Y-15296786D01*
X7462500Y-15325357D01*
X7462500Y-15411071D01*
X7448214Y-15439643D01*
X7433928Y-15453929D01*
X7405357Y-15468214D01*
X7348214Y-15468214D01*
X7319643Y-15453929D01*
X7591071Y-15439643D02*
X7605357Y-15453929D01*
X7591071Y-15468214D01*
X7576786Y-15453929D01*
X7591071Y-15439643D01*
X7591071Y-15468214D01*
X7591071Y-15282500D02*
X7605357Y-15296786D01*
X7591071Y-15311071D01*
X7576786Y-15296786D01*
X7591071Y-15282500D01*
X7591071Y-15311071D01*
X5127500Y-15902500D02*
X5247500Y-16022500D01*
X5247500Y-15902500D02*
X5127500Y-16022500D01*
X5691071Y-16098214D02*
X5519643Y-16098214D01*
X5605357Y-16098214D02*
X5605357Y-15798214D01*
X5576786Y-15841071D01*
X5548214Y-15869643D01*
X5519643Y-15883929D01*
X5819643Y-16069643D02*
X5833928Y-16083929D01*
X5819643Y-16098214D01*
X5805357Y-16083929D01*
X5819643Y-16069643D01*
X5819643Y-16098214D01*
X5948214Y-15826786D02*
X5962500Y-15812500D01*
X5991071Y-15798214D01*
X6062500Y-15798214D01*
X6091071Y-15812500D01*
X6105357Y-15826786D01*
X6119643Y-15855357D01*
X6119643Y-15883929D01*
X6105357Y-15926786D01*
X5933928Y-16098214D01*
X6119643Y-16098214D01*
X6305357Y-15798214D02*
X6333928Y-15798214D01*
X6362500Y-15812500D01*
X6376786Y-15826786D01*
X6391071Y-15855357D01*
X6405357Y-15912500D01*
X6405357Y-15983929D01*
X6391071Y-16041071D01*
X6376786Y-16069643D01*
X6362500Y-16083929D01*
X6333928Y-16098214D01*
X6305357Y-16098214D01*
X6276786Y-16083929D01*
X6262500Y-16069643D01*
X6248214Y-16041071D01*
X6233928Y-15983929D01*
X6233928Y-15912500D01*
X6248214Y-15855357D01*
X6262500Y-15826786D01*
X6276786Y-15812500D01*
X6305357Y-15798214D01*
X6591071Y-15798214D02*
X6619643Y-15798214D01*
X6648214Y-15812500D01*
X6662500Y-15826786D01*
X6676786Y-15855357D01*
X6691071Y-15912500D01*
X6691071Y-15983929D01*
X6676786Y-16041071D01*
X6662500Y-16069643D01*
X6648214Y-16083929D01*
X6619643Y-16098214D01*
X6591071Y-16098214D01*
X6562500Y-16083929D01*
X6548214Y-16069643D01*
X6533928Y-16041071D01*
X6519643Y-15983929D01*
X6519643Y-15912500D01*
X6533928Y-15855357D01*
X6548214Y-15826786D01*
X6562500Y-15812500D01*
X6591071Y-15798214D01*
X6819643Y-16098214D02*
X6819643Y-15898214D01*
X6819643Y-15926786D02*
X6833928Y-15912500D01*
X6862500Y-15898214D01*
X6905357Y-15898214D01*
X6933928Y-15912500D01*
X6948214Y-15941071D01*
X6948214Y-16098214D01*
X6948214Y-15941071D02*
X6962500Y-15912500D01*
X6991071Y-15898214D01*
X7033928Y-15898214D01*
X7062500Y-15912500D01*
X7076786Y-15941071D01*
X7076786Y-16098214D01*
X7219643Y-16098214D02*
X7219643Y-15898214D01*
X7219643Y-15926786D02*
X7233928Y-15912500D01*
X7262500Y-15898214D01*
X7305357Y-15898214D01*
X7333928Y-15912500D01*
X7348214Y-15941071D01*
X7348214Y-16098214D01*
X7348214Y-15941071D02*
X7362500Y-15912500D01*
X7391071Y-15898214D01*
X7433928Y-15898214D01*
X7462500Y-15912500D01*
X7476786Y-15941071D01*
X7476786Y-16098214D01*
X8062500Y-15783929D02*
X7805357Y-16169643D01*
X8448214Y-15798214D02*
X8476786Y-15798214D01*
X8505357Y-15812500D01*
X8519643Y-15826786D01*
X8533928Y-15855357D01*
X8548214Y-15912500D01*
X8548214Y-15983929D01*
X8533928Y-16041071D01*
X8519643Y-16069643D01*
X8505357Y-16083929D01*
X8476786Y-16098214D01*
X8448214Y-16098214D01*
X8419643Y-16083929D01*
X8405357Y-16069643D01*
X8391071Y-16041071D01*
X8376786Y-15983929D01*
X8376786Y-15912500D01*
X8391071Y-15855357D01*
X8405357Y-15826786D01*
X8419643Y-15812500D01*
X8448214Y-15798214D01*
X8676786Y-16069643D02*
X8691071Y-16083929D01*
X8676786Y-16098214D01*
X8662500Y-16083929D01*
X8676786Y-16069643D01*
X8676786Y-16098214D01*
X8876786Y-15798214D02*
X8905357Y-15798214D01*
X8933928Y-15812500D01*
X8948214Y-15826786D01*
X8962500Y-15855357D01*
X8976786Y-15912500D01*
X8976786Y-15983929D01*
X8962500Y-16041071D01*
X8948214Y-16069643D01*
X8933928Y-16083929D01*
X8905357Y-16098214D01*
X8876786Y-16098214D01*
X8848214Y-16083929D01*
X8833928Y-16069643D01*
X8819643Y-16041071D01*
X8805357Y-15983929D01*
X8805357Y-15912500D01*
X8819643Y-15855357D01*
X8833928Y-15826786D01*
X8848214Y-15812500D01*
X8876786Y-15798214D01*
X9233928Y-15898214D02*
X9233928Y-16098214D01*
X9162500Y-15783929D02*
X9091071Y-15998214D01*
X9276786Y-15998214D01*
X9362500Y-15798214D02*
X9562500Y-15798214D01*
X9433928Y-16098214D01*
X9662500Y-15826786D02*
X9676786Y-15812500D01*
X9705357Y-15798214D01*
X9776786Y-15798214D01*
X9805357Y-15812500D01*
X9819643Y-15826786D01*
X9833928Y-15855357D01*
X9833928Y-15883929D01*
X9819643Y-15926786D01*
X9648214Y-16098214D01*
X9833928Y-16098214D01*
X9948214Y-15798214D02*
X9948214Y-15855357D01*
X10062500Y-15798214D02*
X10062500Y-15855357D01*
X10505357Y-16212500D02*
X10491071Y-16198214D01*
X10462500Y-16155357D01*
X10448214Y-16126786D01*
X10433928Y-16083929D01*
X10419643Y-16012500D01*
X10419643Y-15955357D01*
X10433928Y-15883929D01*
X10448214Y-15841071D01*
X10462500Y-15812500D01*
X10491071Y-15769643D01*
X10505357Y-15755357D01*
X10762500Y-15798214D02*
X10619643Y-15798214D01*
X10605357Y-15941071D01*
X10619643Y-15926786D01*
X10648214Y-15912500D01*
X10719643Y-15912500D01*
X10748214Y-15926786D01*
X10762500Y-15941071D01*
X10776786Y-15969643D01*
X10776786Y-16041071D01*
X10762500Y-16069643D01*
X10748214Y-16083929D01*
X10719643Y-16098214D01*
X10648214Y-16098214D01*
X10619643Y-16083929D01*
X10605357Y-16069643D01*
X11133928Y-16098214D02*
X11133928Y-15798214D01*
X11262500Y-16098214D02*
X11262500Y-15941071D01*
X11248214Y-15912500D01*
X11219643Y-15898214D01*
X11176786Y-15898214D01*
X11148214Y-15912500D01*
X11133928Y-15926786D01*
X11448214Y-16098214D02*
X11419643Y-16083929D01*
X11405357Y-16069643D01*
X11391071Y-16041071D01*
X11391071Y-15955357D01*
X11405357Y-15926786D01*
X11419643Y-15912500D01*
X11448214Y-15898214D01*
X11491071Y-15898214D01*
X11519643Y-15912500D01*
X11533928Y-15926786D01*
X11548214Y-15955357D01*
X11548214Y-16041071D01*
X11533928Y-16069643D01*
X11519643Y-16083929D01*
X11491071Y-16098214D01*
X11448214Y-16098214D01*
X11719643Y-16098214D02*
X11691071Y-16083929D01*
X11676786Y-16055357D01*
X11676786Y-15798214D01*
X11948214Y-16083929D02*
X11919643Y-16098214D01*
X11862500Y-16098214D01*
X11833928Y-16083929D01*
X11819643Y-16055357D01*
X11819643Y-15941071D01*
X11833928Y-15912500D01*
X11862500Y-15898214D01*
X11919643Y-15898214D01*
X11948214Y-15912500D01*
X11962500Y-15941071D01*
X11962500Y-15969643D01*
X11819643Y-15998214D01*
X12076786Y-16083929D02*
X12105357Y-16098214D01*
X12162500Y-16098214D01*
X12191071Y-16083929D01*
X12205357Y-16055357D01*
X12205357Y-16041071D01*
X12191071Y-16012500D01*
X12162500Y-15998214D01*
X12119643Y-15998214D01*
X12091071Y-15983929D01*
X12076786Y-15955357D01*
X12076786Y-15941071D01*
X12091071Y-15912500D01*
X12119643Y-15898214D01*
X12162500Y-15898214D01*
X12191071Y-15912500D01*
X12305357Y-16212500D02*
X12319643Y-16198214D01*
X12348214Y-16155357D01*
X12362500Y-16126786D01*
X12376786Y-16083929D01*
X12391071Y-16012500D01*
X12391071Y-15955357D01*
X12376786Y-15883929D01*
X12362500Y-15841071D01*
X12348214Y-15812500D01*
X12319643Y-15769643D01*
X12305357Y-15755357D01*
X12848214Y-16212500D02*
X12833928Y-16198214D01*
X12805357Y-16155357D01*
X12791071Y-16126786D01*
X12776786Y-16083929D01*
X12762500Y-16012500D01*
X12762500Y-15955357D01*
X12776786Y-15883929D01*
X12791071Y-15841071D01*
X12805357Y-15812500D01*
X12833928Y-15769643D01*
X12848214Y-15755357D01*
X12962500Y-15898214D02*
X12962500Y-16098214D01*
X12962500Y-15926786D02*
X12976786Y-15912500D01*
X13005357Y-15898214D01*
X13048214Y-15898214D01*
X13076786Y-15912500D01*
X13091071Y-15941071D01*
X13091071Y-16098214D01*
X13276786Y-16098214D02*
X13248214Y-16083929D01*
X13233928Y-16069643D01*
X13219643Y-16041071D01*
X13219643Y-15955357D01*
X13233928Y-15926786D01*
X13248214Y-15912500D01*
X13276786Y-15898214D01*
X13319643Y-15898214D01*
X13348214Y-15912500D01*
X13362500Y-15926786D01*
X13376786Y-15955357D01*
X13376786Y-16041071D01*
X13362500Y-16069643D01*
X13348214Y-16083929D01*
X13319643Y-16098214D01*
X13276786Y-16098214D01*
X13462500Y-15898214D02*
X13576786Y-15898214D01*
X13505357Y-15798214D02*
X13505357Y-16055357D01*
X13519643Y-16083929D01*
X13548214Y-16098214D01*
X13576786Y-16098214D01*
X13905357Y-15898214D02*
X13905357Y-16198214D01*
X13905357Y-15912500D02*
X13933928Y-15898214D01*
X13991071Y-15898214D01*
X14019643Y-15912500D01*
X14033928Y-15926786D01*
X14048214Y-15955357D01*
X14048214Y-16041071D01*
X14033928Y-16069643D01*
X14019643Y-16083929D01*
X13991071Y-16098214D01*
X13933928Y-16098214D01*
X13905357Y-16083929D01*
X14219643Y-16098214D02*
X14191071Y-16083929D01*
X14176786Y-16055357D01*
X14176786Y-15798214D01*
X14462500Y-16098214D02*
X14462500Y-15941071D01*
X14448214Y-15912500D01*
X14419643Y-15898214D01*
X14362500Y-15898214D01*
X14333928Y-15912500D01*
X14462500Y-16083929D02*
X14433928Y-16098214D01*
X14362500Y-16098214D01*
X14333928Y-16083929D01*
X14319643Y-16055357D01*
X14319643Y-16026786D01*
X14333928Y-15998214D01*
X14362500Y-15983929D01*
X14433928Y-15983929D01*
X14462500Y-15969643D01*
X14562500Y-15898214D02*
X14676786Y-15898214D01*
X14605357Y-15798214D02*
X14605357Y-16055357D01*
X14619643Y-16083929D01*
X14648214Y-16098214D01*
X14676786Y-16098214D01*
X14891071Y-16083929D02*
X14862500Y-16098214D01*
X14805357Y-16098214D01*
X14776786Y-16083929D01*
X14762500Y-16055357D01*
X14762500Y-15941071D01*
X14776786Y-15912500D01*
X14805357Y-15898214D01*
X14862500Y-15898214D01*
X14891071Y-15912500D01*
X14905357Y-15941071D01*
X14905357Y-15969643D01*
X14762500Y-15998214D01*
X15162500Y-16098214D02*
X15162500Y-15798214D01*
X15162500Y-16083929D02*
X15133928Y-16098214D01*
X15076786Y-16098214D01*
X15048214Y-16083929D01*
X15033928Y-16069643D01*
X15019643Y-16041071D01*
X15019643Y-15955357D01*
X15033928Y-15926786D01*
X15048214Y-15912500D01*
X15076786Y-15898214D01*
X15133928Y-15898214D01*
X15162500Y-15912500D01*
X15276786Y-16212500D02*
X15291071Y-16198214D01*
X15319643Y-16155357D01*
X15333928Y-16126786D01*
X15348214Y-16083929D01*
X15362500Y-16012500D01*
X15362500Y-15955357D01*
X15348214Y-15883929D01*
X15333928Y-15841071D01*
X15319643Y-15812500D01*
X15291071Y-15769643D01*
X15276786Y-15755357D01*
X5247500Y-16358500D02*
G75*
G03*
X5247500Y-16358500I-142500J0D01*
G01*
X5519643Y-16222786D02*
X5533928Y-16208500D01*
X5562500Y-16194214D01*
X5633928Y-16194214D01*
X5662500Y-16208500D01*
X5676786Y-16222786D01*
X5691071Y-16251357D01*
X5691071Y-16279929D01*
X5676786Y-16322786D01*
X5505357Y-16494214D01*
X5691071Y-16494214D01*
X5819643Y-16465643D02*
X5833928Y-16479929D01*
X5819643Y-16494214D01*
X5805357Y-16479929D01*
X5819643Y-16465643D01*
X5819643Y-16494214D01*
X6005357Y-16322786D02*
X5976786Y-16308500D01*
X5962500Y-16294214D01*
X5948214Y-16265643D01*
X5948214Y-16251357D01*
X5962500Y-16222786D01*
X5976786Y-16208500D01*
X6005357Y-16194214D01*
X6062500Y-16194214D01*
X6091071Y-16208500D01*
X6105357Y-16222786D01*
X6119643Y-16251357D01*
X6119643Y-16265643D01*
X6105357Y-16294214D01*
X6091071Y-16308500D01*
X6062500Y-16322786D01*
X6005357Y-16322786D01*
X5976786Y-16337071D01*
X5962500Y-16351357D01*
X5948214Y-16379929D01*
X5948214Y-16437071D01*
X5962500Y-16465643D01*
X5976786Y-16479929D01*
X6005357Y-16494214D01*
X6062500Y-16494214D01*
X6091071Y-16479929D01*
X6105357Y-16465643D01*
X6119643Y-16437071D01*
X6119643Y-16379929D01*
X6105357Y-16351357D01*
X6091071Y-16337071D01*
X6062500Y-16322786D01*
X6391071Y-16194214D02*
X6248214Y-16194214D01*
X6233928Y-16337071D01*
X6248214Y-16322786D01*
X6276786Y-16308500D01*
X6348214Y-16308500D01*
X6376786Y-16322786D01*
X6391071Y-16337071D01*
X6405357Y-16365643D01*
X6405357Y-16437071D01*
X6391071Y-16465643D01*
X6376786Y-16479929D01*
X6348214Y-16494214D01*
X6276786Y-16494214D01*
X6248214Y-16479929D01*
X6233928Y-16465643D01*
X6591071Y-16194214D02*
X6619643Y-16194214D01*
X6648214Y-16208500D01*
X6662500Y-16222786D01*
X6676786Y-16251357D01*
X6691071Y-16308500D01*
X6691071Y-16379929D01*
X6676786Y-16437071D01*
X6662500Y-16465643D01*
X6648214Y-16479929D01*
X6619643Y-16494214D01*
X6591071Y-16494214D01*
X6562500Y-16479929D01*
X6548214Y-16465643D01*
X6533928Y-16437071D01*
X6519643Y-16379929D01*
X6519643Y-16308500D01*
X6533928Y-16251357D01*
X6548214Y-16222786D01*
X6562500Y-16208500D01*
X6591071Y-16194214D01*
X6819643Y-16494214D02*
X6819643Y-16294214D01*
X6819643Y-16322786D02*
X6833928Y-16308500D01*
X6862500Y-16294214D01*
X6905357Y-16294214D01*
X6933928Y-16308500D01*
X6948214Y-16337071D01*
X6948214Y-16494214D01*
X6948214Y-16337071D02*
X6962500Y-16308500D01*
X6991071Y-16294214D01*
X7033928Y-16294214D01*
X7062500Y-16308500D01*
X7076786Y-16337071D01*
X7076786Y-16494214D01*
X7219643Y-16494214D02*
X7219643Y-16294214D01*
X7219643Y-16322786D02*
X7233928Y-16308500D01*
X7262500Y-16294214D01*
X7305357Y-16294214D01*
X7333928Y-16308500D01*
X7348214Y-16337071D01*
X7348214Y-16494214D01*
X7348214Y-16337071D02*
X7362500Y-16308500D01*
X7391071Y-16294214D01*
X7433928Y-16294214D01*
X7462500Y-16308500D01*
X7476786Y-16337071D01*
X7476786Y-16494214D01*
X8062500Y-16179929D02*
X7805357Y-16565643D01*
X8448214Y-16194214D02*
X8476786Y-16194214D01*
X8505357Y-16208500D01*
X8519643Y-16222786D01*
X8533928Y-16251357D01*
X8548214Y-16308500D01*
X8548214Y-16379929D01*
X8533928Y-16437071D01*
X8519643Y-16465643D01*
X8505357Y-16479929D01*
X8476786Y-16494214D01*
X8448214Y-16494214D01*
X8419643Y-16479929D01*
X8405357Y-16465643D01*
X8391071Y-16437071D01*
X8376786Y-16379929D01*
X8376786Y-16308500D01*
X8391071Y-16251357D01*
X8405357Y-16222786D01*
X8419643Y-16208500D01*
X8448214Y-16194214D01*
X8676786Y-16465643D02*
X8691071Y-16479929D01*
X8676786Y-16494214D01*
X8662500Y-16479929D01*
X8676786Y-16465643D01*
X8676786Y-16494214D01*
X8976786Y-16494214D02*
X8805357Y-16494214D01*
X8891071Y-16494214D02*
X8891071Y-16194214D01*
X8862500Y-16237071D01*
X8833928Y-16265643D01*
X8805357Y-16279929D01*
X9262500Y-16494214D02*
X9091071Y-16494214D01*
X9176786Y-16494214D02*
X9176786Y-16194214D01*
X9148214Y-16237071D01*
X9119643Y-16265643D01*
X9091071Y-16279929D01*
X9376786Y-16222786D02*
X9391071Y-16208500D01*
X9419643Y-16194214D01*
X9491071Y-16194214D01*
X9519643Y-16208500D01*
X9533928Y-16222786D01*
X9548214Y-16251357D01*
X9548214Y-16279929D01*
X9533928Y-16322786D01*
X9362500Y-16494214D01*
X9548214Y-16494214D01*
X9662500Y-16222786D02*
X9676786Y-16208500D01*
X9705357Y-16194214D01*
X9776786Y-16194214D01*
X9805357Y-16208500D01*
X9819643Y-16222786D01*
X9833928Y-16251357D01*
X9833928Y-16279929D01*
X9819643Y-16322786D01*
X9648214Y-16494214D01*
X9833928Y-16494214D01*
X9948214Y-16194214D02*
X9948214Y-16251357D01*
X10062500Y-16194214D02*
X10062500Y-16251357D01*
X10505357Y-16608500D02*
X10491071Y-16594214D01*
X10462500Y-16551357D01*
X10448214Y-16522786D01*
X10433928Y-16479929D01*
X10419643Y-16408500D01*
X10419643Y-16351357D01*
X10433928Y-16279929D01*
X10448214Y-16237071D01*
X10462500Y-16208500D01*
X10491071Y-16165643D01*
X10505357Y-16151357D01*
X10605357Y-16222786D02*
X10619643Y-16208500D01*
X10648214Y-16194214D01*
X10719643Y-16194214D01*
X10748214Y-16208500D01*
X10762500Y-16222786D01*
X10776786Y-16251357D01*
X10776786Y-16279929D01*
X10762500Y-16322786D01*
X10591071Y-16494214D01*
X10776786Y-16494214D01*
X11133928Y-16494214D02*
X11133928Y-16194214D01*
X11262500Y-16494214D02*
X11262500Y-16337071D01*
X11248214Y-16308500D01*
X11219643Y-16294214D01*
X11176786Y-16294214D01*
X11148214Y-16308500D01*
X11133928Y-16322786D01*
X11448214Y-16494214D02*
X11419643Y-16479929D01*
X11405357Y-16465643D01*
X11391071Y-16437071D01*
X11391071Y-16351357D01*
X11405357Y-16322786D01*
X11419643Y-16308500D01*
X11448214Y-16294214D01*
X11491071Y-16294214D01*
X11519643Y-16308500D01*
X11533928Y-16322786D01*
X11548214Y-16351357D01*
X11548214Y-16437071D01*
X11533928Y-16465643D01*
X11519643Y-16479929D01*
X11491071Y-16494214D01*
X11448214Y-16494214D01*
X11719643Y-16494214D02*
X11691071Y-16479929D01*
X11676786Y-16451357D01*
X11676786Y-16194214D01*
X11948214Y-16479929D02*
X11919643Y-16494214D01*
X11862500Y-16494214D01*
X11833928Y-16479929D01*
X11819643Y-16451357D01*
X11819643Y-16337071D01*
X11833928Y-16308500D01*
X11862500Y-16294214D01*
X11919643Y-16294214D01*
X11948214Y-16308500D01*
X11962500Y-16337071D01*
X11962500Y-16365643D01*
X11819643Y-16394214D01*
X12076786Y-16479929D02*
X12105357Y-16494214D01*
X12162500Y-16494214D01*
X12191071Y-16479929D01*
X12205357Y-16451357D01*
X12205357Y-16437071D01*
X12191071Y-16408500D01*
X12162500Y-16394214D01*
X12119643Y-16394214D01*
X12091071Y-16379929D01*
X12076786Y-16351357D01*
X12076786Y-16337071D01*
X12091071Y-16308500D01*
X12119643Y-16294214D01*
X12162500Y-16294214D01*
X12191071Y-16308500D01*
X12305357Y-16608500D02*
X12319643Y-16594214D01*
X12348214Y-16551357D01*
X12362500Y-16522786D01*
X12376786Y-16479929D01*
X12391071Y-16408500D01*
X12391071Y-16351357D01*
X12376786Y-16279929D01*
X12362500Y-16237071D01*
X12348214Y-16208500D01*
X12319643Y-16165643D01*
X12305357Y-16151357D01*
X12848214Y-16608500D02*
X12833928Y-16594214D01*
X12805357Y-16551357D01*
X12791071Y-16522786D01*
X12776786Y-16479929D01*
X12762500Y-16408500D01*
X12762500Y-16351357D01*
X12776786Y-16279929D01*
X12791071Y-16237071D01*
X12805357Y-16208500D01*
X12833928Y-16165643D01*
X12848214Y-16151357D01*
X12962500Y-16294214D02*
X12962500Y-16494214D01*
X12962500Y-16322786D02*
X12976786Y-16308500D01*
X13005357Y-16294214D01*
X13048214Y-16294214D01*
X13076786Y-16308500D01*
X13091071Y-16337071D01*
X13091071Y-16494214D01*
X13276786Y-16494214D02*
X13248214Y-16479929D01*
X13233928Y-16465643D01*
X13219643Y-16437071D01*
X13219643Y-16351357D01*
X13233928Y-16322786D01*
X13248214Y-16308500D01*
X13276786Y-16294214D01*
X13319643Y-16294214D01*
X13348214Y-16308500D01*
X13362500Y-16322786D01*
X13376786Y-16351357D01*
X13376786Y-16437071D01*
X13362500Y-16465643D01*
X13348214Y-16479929D01*
X13319643Y-16494214D01*
X13276786Y-16494214D01*
X13462500Y-16294214D02*
X13576786Y-16294214D01*
X13505357Y-16194214D02*
X13505357Y-16451357D01*
X13519643Y-16479929D01*
X13548214Y-16494214D01*
X13576786Y-16494214D01*
X13905357Y-16294214D02*
X13905357Y-16594214D01*
X13905357Y-16308500D02*
X13933928Y-16294214D01*
X13991071Y-16294214D01*
X14019643Y-16308500D01*
X14033928Y-16322786D01*
X14048214Y-16351357D01*
X14048214Y-16437071D01*
X14033928Y-16465643D01*
X14019643Y-16479929D01*
X13991071Y-16494214D01*
X13933928Y-16494214D01*
X13905357Y-16479929D01*
X14219643Y-16494214D02*
X14191071Y-16479929D01*
X14176786Y-16451357D01*
X14176786Y-16194214D01*
X14462500Y-16494214D02*
X14462500Y-16337071D01*
X14448214Y-16308500D01*
X14419643Y-16294214D01*
X14362500Y-16294214D01*
X14333928Y-16308500D01*
X14462500Y-16479929D02*
X14433928Y-16494214D01*
X14362500Y-16494214D01*
X14333928Y-16479929D01*
X14319643Y-16451357D01*
X14319643Y-16422786D01*
X14333928Y-16394214D01*
X14362500Y-16379929D01*
X14433928Y-16379929D01*
X14462500Y-16365643D01*
X14562500Y-16294214D02*
X14676786Y-16294214D01*
X14605357Y-16194214D02*
X14605357Y-16451357D01*
X14619643Y-16479929D01*
X14648214Y-16494214D01*
X14676786Y-16494214D01*
X14891071Y-16479929D02*
X14862500Y-16494214D01*
X14805357Y-16494214D01*
X14776786Y-16479929D01*
X14762500Y-16451357D01*
X14762500Y-16337071D01*
X14776786Y-16308500D01*
X14805357Y-16294214D01*
X14862500Y-16294214D01*
X14891071Y-16308500D01*
X14905357Y-16337071D01*
X14905357Y-16365643D01*
X14762500Y-16394214D01*
X15162500Y-16494214D02*
X15162500Y-16194214D01*
X15162500Y-16479929D02*
X15133928Y-16494214D01*
X15076786Y-16494214D01*
X15048214Y-16479929D01*
X15033928Y-16465643D01*
X15019643Y-16437071D01*
X15019643Y-16351357D01*
X15033928Y-16322786D01*
X15048214Y-16308500D01*
X15076786Y-16294214D01*
X15133928Y-16294214D01*
X15162500Y-16308500D01*
X15276786Y-16608500D02*
X15291071Y-16594214D01*
X15319643Y-16551357D01*
X15333928Y-16522786D01*
X15348214Y-16479929D01*
X15362500Y-16408500D01*
X15362500Y-16351357D01*
X15348214Y-16279929D01*
X15333928Y-16237071D01*
X15319643Y-16208500D01*
X15291071Y-16165643D01*
X15276786Y-16151357D01*
M02*
