G04 #@! TF.GenerationSoftware,KiCad,Pcbnew,(5.1.10)-1*
G04 #@! TF.CreationDate,2021-07-30T10:33:10+01:00*
G04 #@! TF.ProjectId,GfxV9958,47667856-3939-4353-982e-6b696361645f,rev?*
G04 #@! TF.SameCoordinates,Original*
G04 #@! TF.FileFunction,Soldermask,Top*
G04 #@! TF.FilePolarity,Negative*
%FSLAX46Y46*%
G04 Gerber Fmt 4.6, Leading zero omitted, Abs format (unit mm)*
G04 Created by KiCad (PCBNEW (5.1.10)-1) date 2021-07-30 10:33:10*
%MOMM*%
%LPD*%
G01*
G04 APERTURE LIST*
%ADD10C,0.854000*%
%ADD11C,2.300000*%
%ADD12C,1.600000*%
%ADD13O,1.600000X1.600000*%
%ADD14C,1.422400*%
%ADD15R,1.422400X1.422400*%
%ADD16C,1.200000*%
%ADD17O,2.416000X1.208000*%
%ADD18O,1.208000X2.416000*%
%ADD19O,1.700000X1.700000*%
%ADD20R,1.700000X1.700000*%
%ADD21R,1.700000X1.200000*%
%ADD22O,1.700000X1.200000*%
%ADD23R,1.600000X1.600000*%
%ADD24R,1.500000X1.050000*%
%ADD25O,1.500000X1.050000*%
%ADD26C,3.555000*%
%ADD27C,1.509000*%
%ADD28R,1.509000X1.509000*%
%ADD29C,3.600000*%
%ADD30R,3.765000X3.765000*%
%ADD31C,3.306000*%
%ADD32C,1.398000*%
%ADD33R,1.398000X1.398000*%
%ADD34C,1.550000*%
%ADD35C,2.850000*%
%ADD36C,1.800000*%
%ADD37R,1.800000X1.800000*%
G04 APERTURE END LIST*
D10*
X198677000Y-54250000D02*
G75*
G03*
X198677000Y-54250000I-427000J0D01*
G01*
X196177000Y-54250000D02*
G75*
G03*
X196177000Y-54250000I-427000J0D01*
G01*
X198677000Y-64250000D02*
G75*
G03*
X198677000Y-64250000I-427000J0D01*
G01*
X196177000Y-64250000D02*
G75*
G03*
X196177000Y-64250000I-427000J0D01*
G01*
X191177000Y-59250000D02*
G75*
G03*
X191177000Y-59250000I-427000J0D01*
G01*
D11*
X156464000Y-90932000D03*
X151564000Y-90932000D03*
D12*
X149352000Y-95758000D03*
X151852000Y-95758000D03*
X155488000Y-95758000D03*
X157988000Y-95758000D03*
D13*
X148590000Y-100330000D03*
D12*
X158750000Y-100330000D03*
D14*
X137922000Y-127736600D03*
X137922000Y-125196600D03*
X137922000Y-122656600D03*
X137922000Y-120116600D03*
X137922000Y-117576600D03*
X140462000Y-130276600D03*
X140462000Y-125196600D03*
X140462000Y-122656600D03*
X140462000Y-120116600D03*
X140462000Y-117576600D03*
X140462000Y-115036600D03*
X140462000Y-112496600D03*
X143002000Y-112496600D03*
X145542000Y-112496600D03*
X148082000Y-112496600D03*
X150622000Y-112496600D03*
X153162000Y-112496600D03*
X137922000Y-115036600D03*
X143002000Y-115036600D03*
X145542000Y-115036600D03*
X148082000Y-115036600D03*
X150622000Y-115036600D03*
X153162000Y-115036600D03*
X155702000Y-115036600D03*
X155702000Y-117576600D03*
X155702000Y-120116600D03*
X155702000Y-122656600D03*
X155702000Y-125196600D03*
X155702000Y-127736600D03*
X153162000Y-117576600D03*
X153162000Y-120116600D03*
X153162000Y-122656600D03*
X153162000Y-125196600D03*
X153162000Y-127736600D03*
X143002000Y-130276600D03*
X145542000Y-130276600D03*
X153162000Y-130276600D03*
X150622000Y-130276600D03*
X148082000Y-130276600D03*
X140462000Y-127736600D03*
X143002000Y-127736600D03*
X150622000Y-127736600D03*
X148082000Y-127736600D03*
D15*
X145542000Y-127736600D03*
D11*
X108966000Y-120396000D03*
X104066000Y-120396000D03*
D12*
X154548200Y-60198000D03*
X157048200Y-60198000D03*
D16*
X198250000Y-64250000D03*
X198250000Y-54250000D03*
X195750000Y-54250000D03*
X195750000Y-64250000D03*
X190750000Y-59250000D03*
D17*
X190750000Y-64250000D03*
X190750000Y-54250000D03*
D18*
X195750000Y-59250000D03*
D19*
X171450000Y-133350000D03*
X171450000Y-130810000D03*
X171450000Y-128270000D03*
X171450000Y-125730000D03*
X171450000Y-123190000D03*
D20*
X171450000Y-120650000D03*
D21*
X130530600Y-116104000D03*
D22*
X130530600Y-114324000D03*
X130530600Y-112544000D03*
X130530600Y-110764000D03*
X130530600Y-108984000D03*
X130530600Y-107204000D03*
X130530600Y-105424000D03*
X130530600Y-103644000D03*
X130530600Y-101864000D03*
X130530600Y-100084000D03*
X130530600Y-98304000D03*
X130530600Y-96524000D03*
X130530600Y-94744000D03*
X130530600Y-92964000D03*
X130530600Y-91184000D03*
X130530600Y-89404000D03*
X130530600Y-87624000D03*
X130530600Y-85844000D03*
X130530600Y-84064000D03*
X130530600Y-82284000D03*
X130530600Y-80504000D03*
X130530600Y-78724000D03*
X130530600Y-76944000D03*
X130530600Y-75164000D03*
X130530600Y-73384000D03*
X130530600Y-71604000D03*
X130530600Y-69824000D03*
X130530600Y-68044000D03*
X130530600Y-66264000D03*
X130530600Y-64484000D03*
X130530600Y-62704000D03*
X130530600Y-60924000D03*
X111429800Y-60924000D03*
X111429800Y-62704000D03*
X111429800Y-64484000D03*
X111429800Y-66264000D03*
X111429800Y-68044000D03*
X111429800Y-69824000D03*
X111429800Y-71604000D03*
X111429800Y-73384000D03*
X111429800Y-75164000D03*
X111429800Y-76944000D03*
X111429800Y-78724000D03*
X111429800Y-80504000D03*
X111429800Y-82284000D03*
X111429800Y-84064000D03*
X111429800Y-85844000D03*
X111429800Y-87624000D03*
X111429800Y-89404000D03*
X111429800Y-91184000D03*
X111429800Y-92964000D03*
X111429800Y-94744000D03*
X111429800Y-96524000D03*
X111429800Y-98304000D03*
X111429800Y-100084000D03*
X111429800Y-101864000D03*
X111429800Y-103644000D03*
X111429800Y-105424000D03*
X111429800Y-107204000D03*
X111429800Y-108984000D03*
X111429800Y-110764000D03*
X111429800Y-112544000D03*
X111429800Y-114324000D03*
X111429800Y-116104000D03*
D13*
X58013600Y-86360000D03*
X65633600Y-66040000D03*
X58013600Y-83820000D03*
X65633600Y-68580000D03*
X58013600Y-81280000D03*
X65633600Y-71120000D03*
X58013600Y-78740000D03*
X65633600Y-73660000D03*
X58013600Y-76200000D03*
X65633600Y-76200000D03*
X58013600Y-73660000D03*
X65633600Y-78740000D03*
X58013600Y-71120000D03*
X65633600Y-81280000D03*
X58013600Y-68580000D03*
X65633600Y-83820000D03*
X58013600Y-66040000D03*
D23*
X65633600Y-86360000D03*
D13*
X74777600Y-86360000D03*
X82397600Y-66040000D03*
X74777600Y-83820000D03*
X82397600Y-68580000D03*
X74777600Y-81280000D03*
X82397600Y-71120000D03*
X74777600Y-78740000D03*
X82397600Y-73660000D03*
X74777600Y-76200000D03*
X82397600Y-76200000D03*
X74777600Y-73660000D03*
X82397600Y-78740000D03*
X74777600Y-71120000D03*
X82397600Y-81280000D03*
X74777600Y-68580000D03*
X82397600Y-83820000D03*
X74777600Y-66040000D03*
D23*
X82397600Y-86360000D03*
D13*
X92049600Y-86360000D03*
X99669600Y-66040000D03*
X92049600Y-83820000D03*
X99669600Y-68580000D03*
X92049600Y-81280000D03*
X99669600Y-71120000D03*
X92049600Y-78740000D03*
X99669600Y-73660000D03*
X92049600Y-76200000D03*
X99669600Y-76200000D03*
X92049600Y-73660000D03*
X99669600Y-78740000D03*
X92049600Y-71120000D03*
X99669600Y-81280000D03*
X92049600Y-68580000D03*
X99669600Y-83820000D03*
X92049600Y-66040000D03*
D23*
X99669600Y-86360000D03*
D13*
X58013600Y-113284000D03*
X65633600Y-92964000D03*
X58013600Y-110744000D03*
X65633600Y-95504000D03*
X58013600Y-108204000D03*
X65633600Y-98044000D03*
X58013600Y-105664000D03*
X65633600Y-100584000D03*
X58013600Y-103124000D03*
X65633600Y-103124000D03*
X58013600Y-100584000D03*
X65633600Y-105664000D03*
X58013600Y-98044000D03*
X65633600Y-108204000D03*
X58013600Y-95504000D03*
X65633600Y-110744000D03*
X58013600Y-92964000D03*
D23*
X65633600Y-113284000D03*
D13*
X74777600Y-113284000D03*
X82397600Y-92964000D03*
X74777600Y-110744000D03*
X82397600Y-95504000D03*
X74777600Y-108204000D03*
X82397600Y-98044000D03*
X74777600Y-105664000D03*
X82397600Y-100584000D03*
X74777600Y-103124000D03*
X82397600Y-103124000D03*
X74777600Y-100584000D03*
X82397600Y-105664000D03*
X74777600Y-98044000D03*
X82397600Y-108204000D03*
X74777600Y-95504000D03*
X82397600Y-110744000D03*
X74777600Y-92964000D03*
D23*
X82397600Y-113284000D03*
D13*
X92049600Y-113284000D03*
X99669600Y-92964000D03*
X92049600Y-110744000D03*
X99669600Y-95504000D03*
X92049600Y-108204000D03*
X99669600Y-98044000D03*
X92049600Y-105664000D03*
X99669600Y-100584000D03*
X92049600Y-103124000D03*
X99669600Y-103124000D03*
X92049600Y-100584000D03*
X99669600Y-105664000D03*
X92049600Y-98044000D03*
X99669600Y-108204000D03*
X92049600Y-95504000D03*
X99669600Y-110744000D03*
X92049600Y-92964000D03*
D23*
X99669600Y-113284000D03*
G36*
G01*
X173220400Y-56627100D02*
X173220400Y-56352100D01*
G75*
G02*
X173357900Y-56214600I137500J0D01*
G01*
X175082900Y-56214600D01*
G75*
G02*
X175220400Y-56352100I0J-137500D01*
G01*
X175220400Y-56627100D01*
G75*
G02*
X175082900Y-56764600I-137500J0D01*
G01*
X173357900Y-56764600D01*
G75*
G02*
X173220400Y-56627100I0J137500D01*
G01*
G37*
G36*
G01*
X173220400Y-57897100D02*
X173220400Y-57622100D01*
G75*
G02*
X173357900Y-57484600I137500J0D01*
G01*
X175082900Y-57484600D01*
G75*
G02*
X175220400Y-57622100I0J-137500D01*
G01*
X175220400Y-57897100D01*
G75*
G02*
X175082900Y-58034600I-137500J0D01*
G01*
X173357900Y-58034600D01*
G75*
G02*
X173220400Y-57897100I0J137500D01*
G01*
G37*
G36*
G01*
X173220400Y-59167100D02*
X173220400Y-58892100D01*
G75*
G02*
X173357900Y-58754600I137500J0D01*
G01*
X175082900Y-58754600D01*
G75*
G02*
X175220400Y-58892100I0J-137500D01*
G01*
X175220400Y-59167100D01*
G75*
G02*
X175082900Y-59304600I-137500J0D01*
G01*
X173357900Y-59304600D01*
G75*
G02*
X173220400Y-59167100I0J137500D01*
G01*
G37*
G36*
G01*
X173220400Y-60437100D02*
X173220400Y-60162100D01*
G75*
G02*
X173357900Y-60024600I137500J0D01*
G01*
X175082900Y-60024600D01*
G75*
G02*
X175220400Y-60162100I0J-137500D01*
G01*
X175220400Y-60437100D01*
G75*
G02*
X175082900Y-60574600I-137500J0D01*
G01*
X173357900Y-60574600D01*
G75*
G02*
X173220400Y-60437100I0J137500D01*
G01*
G37*
G36*
G01*
X173220400Y-61707100D02*
X173220400Y-61432100D01*
G75*
G02*
X173357900Y-61294600I137500J0D01*
G01*
X175082900Y-61294600D01*
G75*
G02*
X175220400Y-61432100I0J-137500D01*
G01*
X175220400Y-61707100D01*
G75*
G02*
X175082900Y-61844600I-137500J0D01*
G01*
X173357900Y-61844600D01*
G75*
G02*
X173220400Y-61707100I0J137500D01*
G01*
G37*
G36*
G01*
X173220400Y-62977100D02*
X173220400Y-62702100D01*
G75*
G02*
X173357900Y-62564600I137500J0D01*
G01*
X175082900Y-62564600D01*
G75*
G02*
X175220400Y-62702100I0J-137500D01*
G01*
X175220400Y-62977100D01*
G75*
G02*
X175082900Y-63114600I-137500J0D01*
G01*
X173357900Y-63114600D01*
G75*
G02*
X173220400Y-62977100I0J137500D01*
G01*
G37*
G36*
G01*
X173220400Y-64247100D02*
X173220400Y-63972100D01*
G75*
G02*
X173357900Y-63834600I137500J0D01*
G01*
X175082900Y-63834600D01*
G75*
G02*
X175220400Y-63972100I0J-137500D01*
G01*
X175220400Y-64247100D01*
G75*
G02*
X175082900Y-64384600I-137500J0D01*
G01*
X173357900Y-64384600D01*
G75*
G02*
X173220400Y-64247100I0J137500D01*
G01*
G37*
G36*
G01*
X173220400Y-65517100D02*
X173220400Y-65242100D01*
G75*
G02*
X173357900Y-65104600I137500J0D01*
G01*
X175082900Y-65104600D01*
G75*
G02*
X175220400Y-65242100I0J-137500D01*
G01*
X175220400Y-65517100D01*
G75*
G02*
X175082900Y-65654600I-137500J0D01*
G01*
X173357900Y-65654600D01*
G75*
G02*
X173220400Y-65517100I0J137500D01*
G01*
G37*
G36*
G01*
X173220400Y-66787100D02*
X173220400Y-66512100D01*
G75*
G02*
X173357900Y-66374600I137500J0D01*
G01*
X175082900Y-66374600D01*
G75*
G02*
X175220400Y-66512100I0J-137500D01*
G01*
X175220400Y-66787100D01*
G75*
G02*
X175082900Y-66924600I-137500J0D01*
G01*
X173357900Y-66924600D01*
G75*
G02*
X173220400Y-66787100I0J137500D01*
G01*
G37*
G36*
G01*
X173220400Y-68057100D02*
X173220400Y-67782100D01*
G75*
G02*
X173357900Y-67644600I137500J0D01*
G01*
X175082900Y-67644600D01*
G75*
G02*
X175220400Y-67782100I0J-137500D01*
G01*
X175220400Y-68057100D01*
G75*
G02*
X175082900Y-68194600I-137500J0D01*
G01*
X173357900Y-68194600D01*
G75*
G02*
X173220400Y-68057100I0J137500D01*
G01*
G37*
G36*
G01*
X173220400Y-69327100D02*
X173220400Y-69052100D01*
G75*
G02*
X173357900Y-68914600I137500J0D01*
G01*
X175082900Y-68914600D01*
G75*
G02*
X175220400Y-69052100I0J-137500D01*
G01*
X175220400Y-69327100D01*
G75*
G02*
X175082900Y-69464600I-137500J0D01*
G01*
X173357900Y-69464600D01*
G75*
G02*
X173220400Y-69327100I0J137500D01*
G01*
G37*
G36*
G01*
X173220400Y-70597100D02*
X173220400Y-70322100D01*
G75*
G02*
X173357900Y-70184600I137500J0D01*
G01*
X175082900Y-70184600D01*
G75*
G02*
X175220400Y-70322100I0J-137500D01*
G01*
X175220400Y-70597100D01*
G75*
G02*
X175082900Y-70734600I-137500J0D01*
G01*
X173357900Y-70734600D01*
G75*
G02*
X173220400Y-70597100I0J137500D01*
G01*
G37*
G36*
G01*
X163920400Y-70597100D02*
X163920400Y-70322100D01*
G75*
G02*
X164057900Y-70184600I137500J0D01*
G01*
X165782900Y-70184600D01*
G75*
G02*
X165920400Y-70322100I0J-137500D01*
G01*
X165920400Y-70597100D01*
G75*
G02*
X165782900Y-70734600I-137500J0D01*
G01*
X164057900Y-70734600D01*
G75*
G02*
X163920400Y-70597100I0J137500D01*
G01*
G37*
G36*
G01*
X163920400Y-69327100D02*
X163920400Y-69052100D01*
G75*
G02*
X164057900Y-68914600I137500J0D01*
G01*
X165782900Y-68914600D01*
G75*
G02*
X165920400Y-69052100I0J-137500D01*
G01*
X165920400Y-69327100D01*
G75*
G02*
X165782900Y-69464600I-137500J0D01*
G01*
X164057900Y-69464600D01*
G75*
G02*
X163920400Y-69327100I0J137500D01*
G01*
G37*
G36*
G01*
X163920400Y-68057100D02*
X163920400Y-67782100D01*
G75*
G02*
X164057900Y-67644600I137500J0D01*
G01*
X165782900Y-67644600D01*
G75*
G02*
X165920400Y-67782100I0J-137500D01*
G01*
X165920400Y-68057100D01*
G75*
G02*
X165782900Y-68194600I-137500J0D01*
G01*
X164057900Y-68194600D01*
G75*
G02*
X163920400Y-68057100I0J137500D01*
G01*
G37*
G36*
G01*
X163920400Y-66787100D02*
X163920400Y-66512100D01*
G75*
G02*
X164057900Y-66374600I137500J0D01*
G01*
X165782900Y-66374600D01*
G75*
G02*
X165920400Y-66512100I0J-137500D01*
G01*
X165920400Y-66787100D01*
G75*
G02*
X165782900Y-66924600I-137500J0D01*
G01*
X164057900Y-66924600D01*
G75*
G02*
X163920400Y-66787100I0J137500D01*
G01*
G37*
G36*
G01*
X163920400Y-65517100D02*
X163920400Y-65242100D01*
G75*
G02*
X164057900Y-65104600I137500J0D01*
G01*
X165782900Y-65104600D01*
G75*
G02*
X165920400Y-65242100I0J-137500D01*
G01*
X165920400Y-65517100D01*
G75*
G02*
X165782900Y-65654600I-137500J0D01*
G01*
X164057900Y-65654600D01*
G75*
G02*
X163920400Y-65517100I0J137500D01*
G01*
G37*
G36*
G01*
X163920400Y-64247100D02*
X163920400Y-63972100D01*
G75*
G02*
X164057900Y-63834600I137500J0D01*
G01*
X165782900Y-63834600D01*
G75*
G02*
X165920400Y-63972100I0J-137500D01*
G01*
X165920400Y-64247100D01*
G75*
G02*
X165782900Y-64384600I-137500J0D01*
G01*
X164057900Y-64384600D01*
G75*
G02*
X163920400Y-64247100I0J137500D01*
G01*
G37*
G36*
G01*
X163920400Y-62977100D02*
X163920400Y-62702100D01*
G75*
G02*
X164057900Y-62564600I137500J0D01*
G01*
X165782900Y-62564600D01*
G75*
G02*
X165920400Y-62702100I0J-137500D01*
G01*
X165920400Y-62977100D01*
G75*
G02*
X165782900Y-63114600I-137500J0D01*
G01*
X164057900Y-63114600D01*
G75*
G02*
X163920400Y-62977100I0J137500D01*
G01*
G37*
G36*
G01*
X163920400Y-61707100D02*
X163920400Y-61432100D01*
G75*
G02*
X164057900Y-61294600I137500J0D01*
G01*
X165782900Y-61294600D01*
G75*
G02*
X165920400Y-61432100I0J-137500D01*
G01*
X165920400Y-61707100D01*
G75*
G02*
X165782900Y-61844600I-137500J0D01*
G01*
X164057900Y-61844600D01*
G75*
G02*
X163920400Y-61707100I0J137500D01*
G01*
G37*
G36*
G01*
X163920400Y-60437100D02*
X163920400Y-60162100D01*
G75*
G02*
X164057900Y-60024600I137500J0D01*
G01*
X165782900Y-60024600D01*
G75*
G02*
X165920400Y-60162100I0J-137500D01*
G01*
X165920400Y-60437100D01*
G75*
G02*
X165782900Y-60574600I-137500J0D01*
G01*
X164057900Y-60574600D01*
G75*
G02*
X163920400Y-60437100I0J137500D01*
G01*
G37*
G36*
G01*
X163920400Y-59167100D02*
X163920400Y-58892100D01*
G75*
G02*
X164057900Y-58754600I137500J0D01*
G01*
X165782900Y-58754600D01*
G75*
G02*
X165920400Y-58892100I0J-137500D01*
G01*
X165920400Y-59167100D01*
G75*
G02*
X165782900Y-59304600I-137500J0D01*
G01*
X164057900Y-59304600D01*
G75*
G02*
X163920400Y-59167100I0J137500D01*
G01*
G37*
G36*
G01*
X163920400Y-57897100D02*
X163920400Y-57622100D01*
G75*
G02*
X164057900Y-57484600I137500J0D01*
G01*
X165782900Y-57484600D01*
G75*
G02*
X165920400Y-57622100I0J-137500D01*
G01*
X165920400Y-57897100D01*
G75*
G02*
X165782900Y-58034600I-137500J0D01*
G01*
X164057900Y-58034600D01*
G75*
G02*
X163920400Y-57897100I0J137500D01*
G01*
G37*
G36*
G01*
X163920400Y-56627100D02*
X163920400Y-56352100D01*
G75*
G02*
X164057900Y-56214600I137500J0D01*
G01*
X165782900Y-56214600D01*
G75*
G02*
X165920400Y-56352100I0J-137500D01*
G01*
X165920400Y-56627100D01*
G75*
G02*
X165782900Y-56764600I-137500J0D01*
G01*
X164057900Y-56764600D01*
G75*
G02*
X163920400Y-56627100I0J137500D01*
G01*
G37*
D13*
X157734000Y-86360000D03*
X142494000Y-78740000D03*
X155194000Y-86360000D03*
X145034000Y-78740000D03*
X152654000Y-86360000D03*
X147574000Y-78740000D03*
X150114000Y-86360000D03*
X150114000Y-78740000D03*
X147574000Y-86360000D03*
X152654000Y-78740000D03*
X145034000Y-86360000D03*
X155194000Y-78740000D03*
X142494000Y-86360000D03*
D23*
X157734000Y-78740000D03*
D13*
X103378000Y-132842000D03*
X88138000Y-125222000D03*
X100838000Y-132842000D03*
X90678000Y-125222000D03*
X98298000Y-132842000D03*
X93218000Y-125222000D03*
X95758000Y-132842000D03*
X95758000Y-125222000D03*
X93218000Y-132842000D03*
X98298000Y-125222000D03*
X90678000Y-132842000D03*
X100838000Y-125222000D03*
X88138000Y-132842000D03*
D23*
X103378000Y-125222000D03*
D13*
X109728000Y-55880000D03*
D12*
X119888000Y-55880000D03*
D13*
X130556000Y-131318000D03*
D12*
X130556000Y-121158000D03*
D13*
X122682000Y-55880000D03*
D12*
X132842000Y-55880000D03*
D13*
X186944000Y-120650000D03*
D12*
X197104000Y-120650000D03*
D13*
X163169600Y-114554000D03*
D12*
X173329600Y-114554000D03*
D13*
X186690000Y-125222000D03*
D12*
X196850000Y-125222000D03*
D13*
X163322000Y-96774000D03*
D12*
X173482000Y-96774000D03*
D13*
X163169600Y-105918000D03*
D12*
X173329600Y-105918000D03*
D13*
X163322000Y-101346000D03*
D12*
X173482000Y-101346000D03*
D13*
X163322000Y-92202000D03*
D12*
X173482000Y-92202000D03*
D13*
X163423600Y-87630000D03*
D12*
X173583600Y-87630000D03*
D13*
X163423600Y-83058000D03*
D12*
X173583600Y-83058000D03*
D13*
X163423600Y-78536800D03*
D12*
X173583600Y-78536800D03*
D13*
X180086000Y-65278000D03*
D12*
X180086000Y-55118000D03*
D13*
X152501600Y-75387200D03*
D12*
X142341600Y-75387200D03*
D13*
X163068000Y-110236000D03*
D12*
X173228000Y-110236000D03*
D13*
X141554200Y-55219600D03*
D12*
X151714200Y-55219600D03*
D13*
X141554200Y-60198000D03*
D12*
X151714200Y-60198000D03*
D13*
X141300200Y-64871600D03*
D12*
X151460200Y-64871600D03*
D13*
X186690000Y-129794000D03*
D12*
X196850000Y-129794000D03*
D24*
X180340000Y-126746000D03*
D25*
X180340000Y-124206000D03*
X180340000Y-125476000D03*
D26*
X194500000Y-82500000D03*
X195310000Y-75740000D03*
X194500000Y-68980000D03*
D27*
X189010000Y-72390000D03*
X189010000Y-74930000D03*
X189010000Y-79090000D03*
X191500000Y-72390000D03*
X189010000Y-77040000D03*
X191500000Y-79090000D03*
X191500000Y-74440000D03*
D28*
X191500000Y-77040000D03*
D29*
X191500000Y-92250000D03*
D30*
X196000000Y-92250000D03*
D31*
X194500000Y-102230000D03*
X194500000Y-115750000D03*
X195310000Y-108990000D03*
D32*
X189010000Y-112340000D03*
X191500000Y-112340000D03*
X189010000Y-105640000D03*
D33*
X191500000Y-105640000D03*
D34*
X106426000Y-139700000D03*
X108966000Y-139700000D03*
X111506000Y-139700000D03*
X114046000Y-139700000D03*
X116586000Y-139700000D03*
X119126000Y-139700000D03*
X121666000Y-139700000D03*
X124206000Y-139700000D03*
X126746000Y-139700000D03*
X129286000Y-139700000D03*
X131826000Y-139700000D03*
X134366000Y-139700000D03*
X136906000Y-139700000D03*
X139446000Y-139700000D03*
X141986000Y-139700000D03*
X144526000Y-139700000D03*
X147066000Y-139700000D03*
X149606000Y-139700000D03*
X152146000Y-139700000D03*
X154686000Y-139700000D03*
X157226000Y-139700000D03*
X159766000Y-139700000D03*
X162306000Y-139700000D03*
X164846000Y-139700000D03*
X167386000Y-139700000D03*
X169926000Y-139700000D03*
X172466000Y-139700000D03*
X175006000Y-139700000D03*
X177546000Y-139700000D03*
X180086000Y-139700000D03*
X182626000Y-139700000D03*
X185166000Y-139700000D03*
X106426000Y-144780000D03*
X108966000Y-144780000D03*
X111506000Y-144780000D03*
X114046000Y-144780000D03*
X116586000Y-144780000D03*
X119126000Y-144780000D03*
X121666000Y-144780000D03*
X124206000Y-144780000D03*
X126746000Y-144780000D03*
X129286000Y-144780000D03*
X131826000Y-144780000D03*
X134366000Y-144780000D03*
X136906000Y-144780000D03*
X139446000Y-144780000D03*
X141986000Y-144780000D03*
X144526000Y-144780000D03*
X147066000Y-144780000D03*
X149606000Y-144780000D03*
X152146000Y-144780000D03*
X154686000Y-144780000D03*
X157226000Y-144780000D03*
X159766000Y-144780000D03*
X162306000Y-144780000D03*
X164846000Y-144780000D03*
X167386000Y-144780000D03*
X169926000Y-144780000D03*
X172466000Y-144780000D03*
X175006000Y-144780000D03*
X177546000Y-144780000D03*
X180086000Y-144780000D03*
X182626000Y-144780000D03*
G36*
G01*
X185941000Y-144254999D02*
X185941000Y-145305001D01*
G75*
G02*
X185691001Y-145555000I-249999J0D01*
G01*
X184640999Y-145555000D01*
G75*
G02*
X184391000Y-145305001I0J249999D01*
G01*
X184391000Y-144254999D01*
G75*
G02*
X184640999Y-144005000I249999J0D01*
G01*
X185691001Y-144005000D01*
G75*
G02*
X185941000Y-144254999I0J-249999D01*
G01*
G37*
D35*
X101346000Y-147320000D03*
X190246000Y-147320000D03*
D36*
X193548000Y-138176000D03*
D37*
X191008000Y-138176000D03*
D12*
X107450000Y-61000000D03*
X107450000Y-63500000D03*
X79857600Y-62534800D03*
X77357600Y-62534800D03*
X60339600Y-116890800D03*
X62839600Y-116890800D03*
X116038000Y-125476000D03*
X113538000Y-125476000D03*
X109942000Y-125476000D03*
X107442000Y-125476000D03*
X94375600Y-116890800D03*
X96875600Y-116890800D03*
X77357600Y-116890800D03*
X79857600Y-116890800D03*
X63206000Y-62484000D03*
X60706000Y-62484000D03*
X97343600Y-62534800D03*
X94843600Y-62534800D03*
X107391200Y-68112000D03*
X107391200Y-70612000D03*
X181417600Y-117652800D03*
D23*
X178917600Y-117652800D03*
D12*
X181417600Y-110286800D03*
D23*
X178917600Y-110286800D03*
D12*
X181417600Y-102920800D03*
D23*
X178917600Y-102920800D03*
D12*
X181417600Y-95554800D03*
D23*
X178917600Y-95554800D03*
D12*
X181417600Y-88188800D03*
D23*
X178917600Y-88188800D03*
D12*
X181417600Y-80822800D03*
D23*
X178917600Y-80822800D03*
D12*
X181671600Y-73456800D03*
D23*
X179171600Y-73456800D03*
D12*
X158242000Y-75184000D03*
X155742000Y-75184000D03*
X163362000Y-118618000D03*
X165862000Y-118618000D03*
X154548200Y-64871600D03*
X157048200Y-64871600D03*
X154548200Y-55219600D03*
X157048200Y-55219600D03*
X158303600Y-107035600D03*
X155803600Y-107035600D03*
X84074000Y-128564000D03*
X84074000Y-131064000D03*
X163322000Y-123444000D03*
X165822000Y-123444000D03*
M02*
