G04 #@! TF.GenerationSoftware,KiCad,Pcbnew,(5.1.10)-1*
G04 #@! TF.CreationDate,2021-07-30T10:33:10+01:00*
G04 #@! TF.ProjectId,GfxV9958,47667856-3939-4353-982e-6b696361645f,rev?*
G04 #@! TF.SameCoordinates,Original*
G04 #@! TF.FileFunction,Paste,Top*
G04 #@! TF.FilePolarity,Positive*
%FSLAX46Y46*%
G04 Gerber Fmt 4.6, Leading zero omitted, Abs format (unit mm)*
G04 Created by KiCad (PCBNEW (5.1.10)-1) date 2021-07-30 10:33:10*
%MOMM*%
%LPD*%
G01*
G04 APERTURE LIST*
G04 APERTURE END LIST*
G36*
G01*
X173220400Y-56627100D02*
X173220400Y-56352100D01*
G75*
G02*
X173357900Y-56214600I137500J0D01*
G01*
X175082900Y-56214600D01*
G75*
G02*
X175220400Y-56352100I0J-137500D01*
G01*
X175220400Y-56627100D01*
G75*
G02*
X175082900Y-56764600I-137500J0D01*
G01*
X173357900Y-56764600D01*
G75*
G02*
X173220400Y-56627100I0J137500D01*
G01*
G37*
G36*
G01*
X173220400Y-57897100D02*
X173220400Y-57622100D01*
G75*
G02*
X173357900Y-57484600I137500J0D01*
G01*
X175082900Y-57484600D01*
G75*
G02*
X175220400Y-57622100I0J-137500D01*
G01*
X175220400Y-57897100D01*
G75*
G02*
X175082900Y-58034600I-137500J0D01*
G01*
X173357900Y-58034600D01*
G75*
G02*
X173220400Y-57897100I0J137500D01*
G01*
G37*
G36*
G01*
X173220400Y-59167100D02*
X173220400Y-58892100D01*
G75*
G02*
X173357900Y-58754600I137500J0D01*
G01*
X175082900Y-58754600D01*
G75*
G02*
X175220400Y-58892100I0J-137500D01*
G01*
X175220400Y-59167100D01*
G75*
G02*
X175082900Y-59304600I-137500J0D01*
G01*
X173357900Y-59304600D01*
G75*
G02*
X173220400Y-59167100I0J137500D01*
G01*
G37*
G36*
G01*
X173220400Y-60437100D02*
X173220400Y-60162100D01*
G75*
G02*
X173357900Y-60024600I137500J0D01*
G01*
X175082900Y-60024600D01*
G75*
G02*
X175220400Y-60162100I0J-137500D01*
G01*
X175220400Y-60437100D01*
G75*
G02*
X175082900Y-60574600I-137500J0D01*
G01*
X173357900Y-60574600D01*
G75*
G02*
X173220400Y-60437100I0J137500D01*
G01*
G37*
G36*
G01*
X173220400Y-61707100D02*
X173220400Y-61432100D01*
G75*
G02*
X173357900Y-61294600I137500J0D01*
G01*
X175082900Y-61294600D01*
G75*
G02*
X175220400Y-61432100I0J-137500D01*
G01*
X175220400Y-61707100D01*
G75*
G02*
X175082900Y-61844600I-137500J0D01*
G01*
X173357900Y-61844600D01*
G75*
G02*
X173220400Y-61707100I0J137500D01*
G01*
G37*
G36*
G01*
X173220400Y-62977100D02*
X173220400Y-62702100D01*
G75*
G02*
X173357900Y-62564600I137500J0D01*
G01*
X175082900Y-62564600D01*
G75*
G02*
X175220400Y-62702100I0J-137500D01*
G01*
X175220400Y-62977100D01*
G75*
G02*
X175082900Y-63114600I-137500J0D01*
G01*
X173357900Y-63114600D01*
G75*
G02*
X173220400Y-62977100I0J137500D01*
G01*
G37*
G36*
G01*
X173220400Y-64247100D02*
X173220400Y-63972100D01*
G75*
G02*
X173357900Y-63834600I137500J0D01*
G01*
X175082900Y-63834600D01*
G75*
G02*
X175220400Y-63972100I0J-137500D01*
G01*
X175220400Y-64247100D01*
G75*
G02*
X175082900Y-64384600I-137500J0D01*
G01*
X173357900Y-64384600D01*
G75*
G02*
X173220400Y-64247100I0J137500D01*
G01*
G37*
G36*
G01*
X173220400Y-65517100D02*
X173220400Y-65242100D01*
G75*
G02*
X173357900Y-65104600I137500J0D01*
G01*
X175082900Y-65104600D01*
G75*
G02*
X175220400Y-65242100I0J-137500D01*
G01*
X175220400Y-65517100D01*
G75*
G02*
X175082900Y-65654600I-137500J0D01*
G01*
X173357900Y-65654600D01*
G75*
G02*
X173220400Y-65517100I0J137500D01*
G01*
G37*
G36*
G01*
X173220400Y-66787100D02*
X173220400Y-66512100D01*
G75*
G02*
X173357900Y-66374600I137500J0D01*
G01*
X175082900Y-66374600D01*
G75*
G02*
X175220400Y-66512100I0J-137500D01*
G01*
X175220400Y-66787100D01*
G75*
G02*
X175082900Y-66924600I-137500J0D01*
G01*
X173357900Y-66924600D01*
G75*
G02*
X173220400Y-66787100I0J137500D01*
G01*
G37*
G36*
G01*
X173220400Y-68057100D02*
X173220400Y-67782100D01*
G75*
G02*
X173357900Y-67644600I137500J0D01*
G01*
X175082900Y-67644600D01*
G75*
G02*
X175220400Y-67782100I0J-137500D01*
G01*
X175220400Y-68057100D01*
G75*
G02*
X175082900Y-68194600I-137500J0D01*
G01*
X173357900Y-68194600D01*
G75*
G02*
X173220400Y-68057100I0J137500D01*
G01*
G37*
G36*
G01*
X173220400Y-69327100D02*
X173220400Y-69052100D01*
G75*
G02*
X173357900Y-68914600I137500J0D01*
G01*
X175082900Y-68914600D01*
G75*
G02*
X175220400Y-69052100I0J-137500D01*
G01*
X175220400Y-69327100D01*
G75*
G02*
X175082900Y-69464600I-137500J0D01*
G01*
X173357900Y-69464600D01*
G75*
G02*
X173220400Y-69327100I0J137500D01*
G01*
G37*
G36*
G01*
X173220400Y-70597100D02*
X173220400Y-70322100D01*
G75*
G02*
X173357900Y-70184600I137500J0D01*
G01*
X175082900Y-70184600D01*
G75*
G02*
X175220400Y-70322100I0J-137500D01*
G01*
X175220400Y-70597100D01*
G75*
G02*
X175082900Y-70734600I-137500J0D01*
G01*
X173357900Y-70734600D01*
G75*
G02*
X173220400Y-70597100I0J137500D01*
G01*
G37*
G36*
G01*
X163920400Y-70597100D02*
X163920400Y-70322100D01*
G75*
G02*
X164057900Y-70184600I137500J0D01*
G01*
X165782900Y-70184600D01*
G75*
G02*
X165920400Y-70322100I0J-137500D01*
G01*
X165920400Y-70597100D01*
G75*
G02*
X165782900Y-70734600I-137500J0D01*
G01*
X164057900Y-70734600D01*
G75*
G02*
X163920400Y-70597100I0J137500D01*
G01*
G37*
G36*
G01*
X163920400Y-69327100D02*
X163920400Y-69052100D01*
G75*
G02*
X164057900Y-68914600I137500J0D01*
G01*
X165782900Y-68914600D01*
G75*
G02*
X165920400Y-69052100I0J-137500D01*
G01*
X165920400Y-69327100D01*
G75*
G02*
X165782900Y-69464600I-137500J0D01*
G01*
X164057900Y-69464600D01*
G75*
G02*
X163920400Y-69327100I0J137500D01*
G01*
G37*
G36*
G01*
X163920400Y-68057100D02*
X163920400Y-67782100D01*
G75*
G02*
X164057900Y-67644600I137500J0D01*
G01*
X165782900Y-67644600D01*
G75*
G02*
X165920400Y-67782100I0J-137500D01*
G01*
X165920400Y-68057100D01*
G75*
G02*
X165782900Y-68194600I-137500J0D01*
G01*
X164057900Y-68194600D01*
G75*
G02*
X163920400Y-68057100I0J137500D01*
G01*
G37*
G36*
G01*
X163920400Y-66787100D02*
X163920400Y-66512100D01*
G75*
G02*
X164057900Y-66374600I137500J0D01*
G01*
X165782900Y-66374600D01*
G75*
G02*
X165920400Y-66512100I0J-137500D01*
G01*
X165920400Y-66787100D01*
G75*
G02*
X165782900Y-66924600I-137500J0D01*
G01*
X164057900Y-66924600D01*
G75*
G02*
X163920400Y-66787100I0J137500D01*
G01*
G37*
G36*
G01*
X163920400Y-65517100D02*
X163920400Y-65242100D01*
G75*
G02*
X164057900Y-65104600I137500J0D01*
G01*
X165782900Y-65104600D01*
G75*
G02*
X165920400Y-65242100I0J-137500D01*
G01*
X165920400Y-65517100D01*
G75*
G02*
X165782900Y-65654600I-137500J0D01*
G01*
X164057900Y-65654600D01*
G75*
G02*
X163920400Y-65517100I0J137500D01*
G01*
G37*
G36*
G01*
X163920400Y-64247100D02*
X163920400Y-63972100D01*
G75*
G02*
X164057900Y-63834600I137500J0D01*
G01*
X165782900Y-63834600D01*
G75*
G02*
X165920400Y-63972100I0J-137500D01*
G01*
X165920400Y-64247100D01*
G75*
G02*
X165782900Y-64384600I-137500J0D01*
G01*
X164057900Y-64384600D01*
G75*
G02*
X163920400Y-64247100I0J137500D01*
G01*
G37*
G36*
G01*
X163920400Y-62977100D02*
X163920400Y-62702100D01*
G75*
G02*
X164057900Y-62564600I137500J0D01*
G01*
X165782900Y-62564600D01*
G75*
G02*
X165920400Y-62702100I0J-137500D01*
G01*
X165920400Y-62977100D01*
G75*
G02*
X165782900Y-63114600I-137500J0D01*
G01*
X164057900Y-63114600D01*
G75*
G02*
X163920400Y-62977100I0J137500D01*
G01*
G37*
G36*
G01*
X163920400Y-61707100D02*
X163920400Y-61432100D01*
G75*
G02*
X164057900Y-61294600I137500J0D01*
G01*
X165782900Y-61294600D01*
G75*
G02*
X165920400Y-61432100I0J-137500D01*
G01*
X165920400Y-61707100D01*
G75*
G02*
X165782900Y-61844600I-137500J0D01*
G01*
X164057900Y-61844600D01*
G75*
G02*
X163920400Y-61707100I0J137500D01*
G01*
G37*
G36*
G01*
X163920400Y-60437100D02*
X163920400Y-60162100D01*
G75*
G02*
X164057900Y-60024600I137500J0D01*
G01*
X165782900Y-60024600D01*
G75*
G02*
X165920400Y-60162100I0J-137500D01*
G01*
X165920400Y-60437100D01*
G75*
G02*
X165782900Y-60574600I-137500J0D01*
G01*
X164057900Y-60574600D01*
G75*
G02*
X163920400Y-60437100I0J137500D01*
G01*
G37*
G36*
G01*
X163920400Y-59167100D02*
X163920400Y-58892100D01*
G75*
G02*
X164057900Y-58754600I137500J0D01*
G01*
X165782900Y-58754600D01*
G75*
G02*
X165920400Y-58892100I0J-137500D01*
G01*
X165920400Y-59167100D01*
G75*
G02*
X165782900Y-59304600I-137500J0D01*
G01*
X164057900Y-59304600D01*
G75*
G02*
X163920400Y-59167100I0J137500D01*
G01*
G37*
G36*
G01*
X163920400Y-57897100D02*
X163920400Y-57622100D01*
G75*
G02*
X164057900Y-57484600I137500J0D01*
G01*
X165782900Y-57484600D01*
G75*
G02*
X165920400Y-57622100I0J-137500D01*
G01*
X165920400Y-57897100D01*
G75*
G02*
X165782900Y-58034600I-137500J0D01*
G01*
X164057900Y-58034600D01*
G75*
G02*
X163920400Y-57897100I0J137500D01*
G01*
G37*
G36*
G01*
X163920400Y-56627100D02*
X163920400Y-56352100D01*
G75*
G02*
X164057900Y-56214600I137500J0D01*
G01*
X165782900Y-56214600D01*
G75*
G02*
X165920400Y-56352100I0J-137500D01*
G01*
X165920400Y-56627100D01*
G75*
G02*
X165782900Y-56764600I-137500J0D01*
G01*
X164057900Y-56764600D01*
G75*
G02*
X163920400Y-56627100I0J137500D01*
G01*
G37*
M02*
