%FSLAX45Y45*%
G04 Gerber Fmt 4.5, Leading zero omitted, Abs format (unit mm)*
G04 Created by KiCad (PCBNEW (5.1.10)-1) date 2021-07-30 10:33:17*
%MOMM*%
%LPD*%
G01*
G04 APERTURE LIST*
%TA.AperFunction,Profile*%
%ADD10C,0.050000*%
%TD*%
%ADD11C,0.200000*%
%ADD12C,0.300000*%
G04 APERTURE END LIST*
D10*
X20000000Y-11250000D02*
X20000000Y-10750000D01*
X20000000Y-10750000D02*
X20000000Y-5250000D01*
X20000000Y-14750000D02*
X20000000Y-11250000D01*
X5250000Y-13250000D02*
X5250000Y-13500000D01*
X19750000Y-5000000D02*
G75*
G02*
X20000000Y-5250000I0J-250000D01*
G01*
X5250000Y-5250000D02*
G75*
G02*
X5500000Y-5000000I250000J0D01*
G01*
X5500000Y-13750000D02*
G75*
G02*
X5250000Y-13500000I0J250000D01*
G01*
X8750000Y-13750000D02*
G75*
G02*
X9000000Y-14000000I0J-250000D01*
G01*
X9250000Y-15000000D02*
G75*
G02*
X9000000Y-14750000I0J250000D01*
G01*
X20000000Y-14750000D02*
G75*
G02*
X19750000Y-15000000I-250000J0D01*
G01*
X5500000Y-5000000D02*
X19750000Y-5000000D01*
X5250000Y-13250000D02*
X5250000Y-5250000D01*
X8750000Y-13750000D02*
X5500000Y-13750000D01*
X9000000Y-14750000D02*
X9000000Y-14000000D01*
X19750000Y-15000000D02*
X9250000Y-15000000D01*
D11*
X5974400Y-8108000D02*
X6014400Y-8148000D01*
X6014400Y-8108000D02*
X5974400Y-8148000D01*
X5974400Y-10800400D02*
X6014400Y-10840400D01*
X6014400Y-10800400D02*
X5974400Y-10840400D01*
X6025200Y-7473000D02*
X6065200Y-7513000D01*
X6065200Y-7473000D02*
X6025200Y-7513000D01*
X6203000Y-6711000D02*
X6243000Y-6751000D01*
X6243000Y-6711000D02*
X6203000Y-6751000D01*
X6203000Y-9403400D02*
X6243000Y-9443400D01*
X6243000Y-9403400D02*
X6203000Y-9443400D01*
X6253800Y-10292400D02*
X6293800Y-10332400D01*
X6293800Y-10292400D02*
X6253800Y-10332400D01*
X6304600Y-6965000D02*
X6344600Y-7005000D01*
X6344600Y-6965000D02*
X6304600Y-7005000D01*
X6304600Y-9657400D02*
X6344600Y-9697400D01*
X6344600Y-9657400D02*
X6304600Y-9697400D01*
X6736400Y-6838000D02*
X6776400Y-6878000D01*
X6776400Y-6838000D02*
X6736400Y-6878000D01*
X6736400Y-9530400D02*
X6776400Y-9570400D01*
X6776400Y-9530400D02*
X6736400Y-9570400D01*
X6838000Y-7092000D02*
X6878000Y-7132000D01*
X6878000Y-7092000D02*
X6838000Y-7132000D01*
X6838000Y-9784400D02*
X6878000Y-9824400D01*
X6878000Y-9784400D02*
X6838000Y-9824400D01*
X6888800Y-10927400D02*
X6928800Y-10967400D01*
X6928800Y-10927400D02*
X6888800Y-10967400D01*
X6888800Y-12146600D02*
X6928800Y-12186600D01*
X6928800Y-12146600D02*
X6888800Y-12186600D01*
X6965000Y-7219000D02*
X7005000Y-7259000D01*
X7005000Y-7219000D02*
X6965000Y-7259000D01*
X6965000Y-9911400D02*
X7005000Y-9951400D01*
X7005000Y-9911400D02*
X6965000Y-9951400D01*
X7117400Y-7219000D02*
X7157400Y-7259000D01*
X7157400Y-7219000D02*
X7117400Y-7259000D01*
X7117400Y-9911400D02*
X7157400Y-9951400D01*
X7157400Y-9911400D02*
X7117400Y-9951400D01*
X7244400Y-7346000D02*
X7284400Y-7386000D01*
X7284400Y-7346000D02*
X7244400Y-7386000D01*
X7244400Y-10038400D02*
X7284400Y-10078400D01*
X7284400Y-10038400D02*
X7244400Y-10078400D01*
X7650800Y-7727000D02*
X7690800Y-7767000D01*
X7690800Y-7727000D02*
X7650800Y-7767000D01*
X7650800Y-10419400D02*
X7690800Y-10459400D01*
X7690800Y-10419400D02*
X7650800Y-10459400D01*
X7777800Y-8108000D02*
X7817800Y-8148000D01*
X7817800Y-8108000D02*
X7777800Y-8148000D01*
X7777800Y-10800400D02*
X7817800Y-10840400D01*
X7817800Y-10800400D02*
X7777800Y-10840400D01*
X8666800Y-10927400D02*
X8706800Y-10967400D01*
X8706800Y-10927400D02*
X8666800Y-10967400D01*
X8666800Y-11994200D02*
X8706800Y-12034200D01*
X8706800Y-11994200D02*
X8666800Y-12034200D01*
X8971600Y-8108000D02*
X9011600Y-8148000D01*
X9011600Y-8108000D02*
X8971600Y-8148000D01*
X8971600Y-10800400D02*
X9011600Y-10840400D01*
X9011600Y-10800400D02*
X8971600Y-10840400D01*
X9047800Y-12934000D02*
X9087800Y-12974000D01*
X9087800Y-12934000D02*
X9047800Y-12974000D01*
X9187500Y-9009700D02*
X9227500Y-9049700D01*
X9227500Y-9009700D02*
X9187500Y-9049700D01*
X9403400Y-7854000D02*
X9443400Y-7894000D01*
X9443400Y-7854000D02*
X9403400Y-7894000D01*
X9403400Y-8108000D02*
X9443400Y-8148000D01*
X9443400Y-8108000D02*
X9403400Y-8148000D01*
X9733600Y-7981000D02*
X9773600Y-8021000D01*
X9773600Y-7981000D02*
X9733600Y-8021000D01*
X9733600Y-10648000D02*
X9773600Y-10688000D01*
X9773600Y-10648000D02*
X9733600Y-10688000D01*
X9835200Y-12146600D02*
X9875200Y-12186600D01*
X9875200Y-12146600D02*
X9835200Y-12186600D01*
X9962200Y-11994200D02*
X10002200Y-12034200D01*
X10002200Y-11994200D02*
X9962200Y-12034200D01*
X10190800Y-6965000D02*
X10230800Y-7005000D01*
X10230800Y-6965000D02*
X10190800Y-7005000D01*
X10190800Y-9403400D02*
X10230800Y-9443400D01*
X10230800Y-9403400D02*
X10190800Y-9443400D01*
X10190800Y-9657400D02*
X10230800Y-9697400D01*
X10230800Y-9657400D02*
X10190800Y-9697400D01*
X10292400Y-7219000D02*
X10332400Y-7259000D01*
X10332400Y-7219000D02*
X10292400Y-7259000D01*
X10292400Y-9276400D02*
X10332400Y-9316400D01*
X10332400Y-9276400D02*
X10292400Y-9316400D01*
X10292400Y-9911400D02*
X10332400Y-9951400D01*
X10332400Y-9911400D02*
X10292400Y-9951400D01*
X10317800Y-10698800D02*
X10357800Y-10738800D01*
X10357800Y-10698800D02*
X10317800Y-10738800D01*
X10419400Y-7473000D02*
X10459400Y-7513000D01*
X10459400Y-7473000D02*
X10419400Y-7513000D01*
X10419400Y-9098600D02*
X10459400Y-9138600D01*
X10459400Y-9098600D02*
X10419400Y-9138600D01*
X10419400Y-10165400D02*
X10459400Y-10205400D01*
X10459400Y-10165400D02*
X10419400Y-10205400D01*
X10419400Y-10902000D02*
X10459400Y-10942000D01*
X10459400Y-10902000D02*
X10419400Y-10942000D01*
X10546400Y-7727000D02*
X10586400Y-7767000D01*
X10586400Y-7727000D02*
X10546400Y-7767000D01*
X10546400Y-8920800D02*
X10586400Y-8960800D01*
X10586400Y-8920800D02*
X10546400Y-8960800D01*
X10546400Y-10419400D02*
X10586400Y-10459400D01*
X10586400Y-10419400D02*
X10546400Y-10459400D01*
X10724200Y-8108000D02*
X10764200Y-8148000D01*
X10764200Y-8108000D02*
X10724200Y-8148000D01*
X10724200Y-8565200D02*
X10764200Y-8605200D01*
X10764200Y-8565200D02*
X10724200Y-8605200D01*
X10775000Y-10292400D02*
X10815000Y-10332400D01*
X10815000Y-10292400D02*
X10775000Y-10332400D01*
X10775000Y-11257600D02*
X10815000Y-11297600D01*
X10815000Y-11257600D02*
X10775000Y-11297600D01*
X10902000Y-8006400D02*
X10942000Y-8046400D01*
X10942000Y-8006400D02*
X10902000Y-8046400D01*
X10902000Y-8387400D02*
X10942000Y-8427400D01*
X10942000Y-8387400D02*
X10902000Y-8427400D01*
X10902000Y-9009700D02*
X10942000Y-9049700D01*
X10942000Y-9009700D02*
X10902000Y-9049700D01*
X10902000Y-10165400D02*
X10942000Y-10205400D01*
X10942000Y-10165400D02*
X10902000Y-10205400D01*
X11435400Y-8031800D02*
X11475400Y-8071800D01*
X11475400Y-8031800D02*
X11435400Y-8071800D01*
X11435400Y-11333800D02*
X11475400Y-11373800D01*
X11475400Y-11333800D02*
X11435400Y-11373800D01*
X11511600Y-12807000D02*
X11551600Y-12847000D01*
X11551600Y-12807000D02*
X11511600Y-12847000D01*
X11562400Y-7676200D02*
X11602400Y-7716200D01*
X11602400Y-7676200D02*
X11562400Y-7716200D01*
X11562400Y-10775000D02*
X11602400Y-10815000D01*
X11602400Y-10775000D02*
X11562400Y-10815000D01*
X11638600Y-12934000D02*
X11678600Y-12974000D01*
X11678600Y-12934000D02*
X11638600Y-12974000D01*
X11664000Y-7498400D02*
X11704000Y-7538400D01*
X11704000Y-7498400D02*
X11664000Y-7538400D01*
X11664000Y-11156000D02*
X11704000Y-11196000D01*
X11704000Y-11156000D02*
X11664000Y-11196000D01*
X11816400Y-6253800D02*
X11856400Y-6293800D01*
X11856400Y-6253800D02*
X11816400Y-6293800D01*
X11816400Y-11841800D02*
X11856400Y-11881800D01*
X11856400Y-11841800D02*
X11816400Y-11881800D01*
X11918000Y-12502200D02*
X11958000Y-12542200D01*
X11958000Y-12502200D02*
X11918000Y-12542200D01*
X11943400Y-7320600D02*
X11983400Y-7360600D01*
X11983400Y-7320600D02*
X11943400Y-7360600D01*
X11943400Y-10775000D02*
X11983400Y-10815000D01*
X11983400Y-10775000D02*
X11943400Y-10815000D01*
X11968800Y-6965000D02*
X12008800Y-7005000D01*
X12008800Y-6965000D02*
X11968800Y-7005000D01*
X12019600Y-12857800D02*
X12059600Y-12897800D01*
X12059600Y-12857800D02*
X12019600Y-12897800D01*
X12045000Y-10444800D02*
X12085000Y-10484800D01*
X12085000Y-10444800D02*
X12045000Y-10484800D01*
X12045000Y-12375200D02*
X12085000Y-12415200D01*
X12085000Y-12375200D02*
X12045000Y-12415200D01*
X12095800Y-6787200D02*
X12135800Y-6827200D01*
X12135800Y-6787200D02*
X12095800Y-6827200D01*
X12146600Y-7193600D02*
X12186600Y-7233600D01*
X12186600Y-7193600D02*
X12146600Y-7233600D01*
X12146601Y-11740200D02*
X12186601Y-11780200D01*
X12186601Y-11740200D02*
X12146601Y-11780200D01*
X12248200Y-7320600D02*
X12288200Y-7360600D01*
X12288200Y-7320600D02*
X12248200Y-7360600D01*
X12248200Y-12705400D02*
X12288200Y-12745400D01*
X12288200Y-12705400D02*
X12248200Y-12745400D01*
X12273600Y-13035600D02*
X12313600Y-13075600D01*
X12313600Y-13035600D02*
X12273600Y-13075600D01*
X12375200Y-7092000D02*
X12415200Y-7132000D01*
X12415200Y-7092000D02*
X12375200Y-7132000D01*
X12375200Y-10622600D02*
X12415200Y-10662600D01*
X12415200Y-10622600D02*
X12375200Y-10662600D01*
X12400600Y-13137200D02*
X12440600Y-13177200D01*
X12440600Y-13137200D02*
X12400600Y-13177200D01*
X12527600Y-6431600D02*
X12567600Y-6471600D01*
X12567600Y-6431600D02*
X12527600Y-6471600D01*
X12527600Y-10241600D02*
X12567600Y-10281600D01*
X12567600Y-10241600D02*
X12527600Y-10281600D01*
X12527600Y-13213400D02*
X12567600Y-13253400D01*
X12567600Y-13213400D02*
X12527600Y-13253400D01*
X12654600Y-6609400D02*
X12694600Y-6649400D01*
X12694600Y-6609400D02*
X12654600Y-6649400D01*
X12654600Y-13645200D02*
X12694600Y-13685200D01*
X12694600Y-13645200D02*
X12654600Y-13685200D01*
X12781600Y-12375200D02*
X12821600Y-12415200D01*
X12821600Y-12375200D02*
X12781600Y-12415200D01*
X13238800Y-7142800D02*
X13278800Y-7182800D01*
X13278800Y-7142800D02*
X13238800Y-7182800D01*
X13238800Y-10927400D02*
X13278800Y-10967400D01*
X13278800Y-10927400D02*
X13238800Y-10967400D01*
X13340400Y-11841800D02*
X13380400Y-11881800D01*
X13380400Y-11841800D02*
X13340400Y-11881800D01*
X13365800Y-6431600D02*
X13405800Y-6471600D01*
X13405800Y-6431600D02*
X13365800Y-6471600D01*
X13365800Y-11486200D02*
X13405800Y-11526200D01*
X13405800Y-11486200D02*
X13365800Y-11526200D01*
X13442000Y-13391200D02*
X13482000Y-13431200D01*
X13482000Y-13391200D02*
X13442000Y-13431200D01*
X13540800Y-6784400D02*
X13580800Y-6824400D01*
X13580800Y-6784400D02*
X13540800Y-6824400D01*
X13543600Y-14102400D02*
X13583600Y-14142400D01*
X13583600Y-14102400D02*
X13543600Y-14142400D01*
X13721400Y-6533200D02*
X13761400Y-6573200D01*
X13761400Y-6533200D02*
X13721400Y-6573200D01*
X13848400Y-6253800D02*
X13888400Y-6293800D01*
X13888400Y-6253800D02*
X13848400Y-6293800D01*
X14051602Y-14305600D02*
X14091602Y-14345600D01*
X14091602Y-14305600D02*
X14051602Y-14345600D01*
X14153200Y-13289600D02*
X14193200Y-13329600D01*
X14193200Y-13289600D02*
X14153200Y-13329600D01*
X14178600Y-12375200D02*
X14218600Y-12415200D01*
X14218600Y-12375200D02*
X14178600Y-12415200D01*
X14280200Y-12527600D02*
X14320200Y-12567600D01*
X14320200Y-12527600D02*
X14280200Y-12567600D01*
X14280200Y-13569000D02*
X14320200Y-13609000D01*
X14320200Y-13569000D02*
X14280200Y-13609000D01*
X14381800Y-6228400D02*
X14421800Y-6268400D01*
X14421800Y-6228400D02*
X14381800Y-6268400D01*
X14407200Y-13670600D02*
X14447200Y-13710600D01*
X14447200Y-13670600D02*
X14407200Y-13710600D01*
X14534200Y-13467400D02*
X14574200Y-13507400D01*
X14574200Y-13467400D02*
X14534200Y-13507400D01*
X14559600Y-14635800D02*
X14599600Y-14675800D01*
X14599600Y-14635800D02*
X14559600Y-14675800D01*
X14661200Y-10622600D02*
X14701200Y-10662600D01*
X14701200Y-10622600D02*
X14661200Y-10662600D01*
X14661200Y-12121200D02*
X14701200Y-12161200D01*
X14701200Y-12121200D02*
X14661200Y-12161200D01*
X14788200Y-13188000D02*
X14828200Y-13228000D01*
X14828200Y-13188000D02*
X14788200Y-13228000D01*
X14813600Y-5999800D02*
X14853600Y-6039800D01*
X14853600Y-5999800D02*
X14813600Y-6039800D01*
X14813600Y-7092000D02*
X14853600Y-7132000D01*
X14853600Y-7092000D02*
X14813600Y-7132000D01*
X14813600Y-14204000D02*
X14853600Y-14244000D01*
X14853600Y-14204000D02*
X14813600Y-14244000D01*
X14940600Y-6965000D02*
X14980600Y-7005000D01*
X14980600Y-6965000D02*
X14940600Y-7005000D01*
X15067600Y-13289600D02*
X15107600Y-13329600D01*
X15107600Y-13289600D02*
X15067600Y-13329600D01*
X15118401Y-6863400D02*
X15158401Y-6903400D01*
X15158401Y-6863400D02*
X15118401Y-6903400D01*
X15194600Y-13569000D02*
X15234600Y-13609000D01*
X15234600Y-13569000D02*
X15194600Y-13609000D01*
X15296200Y-10216200D02*
X15336200Y-10256200D01*
X15336200Y-10216200D02*
X15296200Y-10256200D01*
X15296200Y-13391200D02*
X15336200Y-13431200D01*
X15336200Y-13391200D02*
X15296200Y-13431200D01*
X15448600Y-13289600D02*
X15488600Y-13329600D01*
X15488600Y-13289600D02*
X15448600Y-13329600D01*
X15448600Y-13467400D02*
X15488600Y-13507400D01*
X15488600Y-13467400D02*
X15448600Y-13507400D01*
X15575600Y-13188000D02*
X15615600Y-13228000D01*
X15615600Y-13188000D02*
X15575600Y-13228000D01*
X15728000Y-13188000D02*
X15768000Y-13228000D01*
X15768000Y-13188000D02*
X15728000Y-13228000D01*
X15829600Y-13670600D02*
X15869600Y-13710600D01*
X15869600Y-13670600D02*
X15829600Y-13710600D01*
X15855000Y-11054400D02*
X15895000Y-11094400D01*
X15895000Y-11054400D02*
X15855000Y-11094400D01*
X15855000Y-13035600D02*
X15895000Y-13075600D01*
X15895000Y-13035600D02*
X15855000Y-13075600D01*
X15982000Y-12375200D02*
X16022000Y-12415200D01*
X16022000Y-12375200D02*
X15982000Y-12415200D01*
X15982000Y-13264200D02*
X16022000Y-13304200D01*
X16022000Y-13264200D02*
X15982000Y-13304200D01*
X16032800Y-6787200D02*
X16072800Y-6827200D01*
X16072800Y-6787200D02*
X16032800Y-6827200D01*
X16083600Y-13442000D02*
X16123600Y-13482000D01*
X16123600Y-13442000D02*
X16083600Y-13482000D01*
X16106460Y-12753660D02*
X16146460Y-12793660D01*
X16146460Y-12753660D02*
X16106460Y-12793660D01*
X16185199Y-7346000D02*
X16225199Y-7386000D01*
X16225199Y-7346000D02*
X16185199Y-7386000D01*
X16185200Y-6380800D02*
X16225200Y-6420800D01*
X16225200Y-6380800D02*
X16185200Y-6420800D01*
X16210600Y-5542600D02*
X16250600Y-5582600D01*
X16250600Y-5542600D02*
X16210600Y-5582600D01*
X16210600Y-12883200D02*
X16250600Y-12923200D01*
X16250600Y-12883200D02*
X16210600Y-12923200D01*
X16337600Y-13365800D02*
X16377600Y-13405800D01*
X16377600Y-13365800D02*
X16337600Y-13405800D01*
X16464600Y-12756200D02*
X16504600Y-12796200D01*
X16504600Y-12756200D02*
X16464600Y-12796200D01*
X16591600Y-13188000D02*
X16631600Y-13228000D01*
X16631600Y-13188000D02*
X16591600Y-13228000D01*
X16718600Y-10343200D02*
X16758600Y-10383200D01*
X16758600Y-10343200D02*
X16718600Y-10383200D01*
X16718600Y-12502200D02*
X16758600Y-12542200D01*
X16758600Y-12502200D02*
X16718600Y-12542200D01*
X16845600Y-13035600D02*
X16885600Y-13075600D01*
X16885600Y-13035600D02*
X16845600Y-13075600D01*
X16871000Y-12095800D02*
X16911000Y-12135800D01*
X16911000Y-12095800D02*
X16871000Y-12135800D01*
X16871000Y-12553000D02*
X16911000Y-12593000D01*
X16911000Y-12553000D02*
X16871000Y-12593000D01*
X16947200Y-13188000D02*
X16987200Y-13228000D01*
X16987200Y-13188000D02*
X16947200Y-13228000D01*
X17455200Y-11638600D02*
X17495200Y-11678600D01*
X17495200Y-11638600D02*
X17455200Y-11678600D01*
X17455200Y-12400600D02*
X17495200Y-12440600D01*
X17495200Y-12400600D02*
X17455200Y-12440600D01*
X17582200Y-11892600D02*
X17622200Y-11932600D01*
X17622200Y-11892600D02*
X17582200Y-11932600D01*
X17633000Y-5593400D02*
X17673000Y-5633400D01*
X17673000Y-5593400D02*
X17633000Y-5633400D01*
X18395000Y-11562400D02*
X18435000Y-11602400D01*
X18435000Y-11562400D02*
X18395000Y-11602400D01*
X18395000Y-13670600D02*
X18435000Y-13710600D01*
X18435000Y-13670600D02*
X18395000Y-13710600D01*
X11177980Y-6092400D02*
G75*
G03*
X11177980Y-6092400I-35000J0D01*
G01*
X11177980Y-6270400D02*
G75*
G03*
X11177980Y-6270400I-35000J0D01*
G01*
X11177980Y-6448400D02*
G75*
G03*
X11177980Y-6448400I-35000J0D01*
G01*
X11177980Y-6626400D02*
G75*
G03*
X11177980Y-6626400I-35000J0D01*
G01*
X11177980Y-6804400D02*
G75*
G03*
X11177980Y-6804400I-35000J0D01*
G01*
X11177980Y-6982400D02*
G75*
G03*
X11177980Y-6982400I-35000J0D01*
G01*
X11177980Y-7160400D02*
G75*
G03*
X11177980Y-7160400I-35000J0D01*
G01*
X11177980Y-7338400D02*
G75*
G03*
X11177980Y-7338400I-35000J0D01*
G01*
X11177980Y-7516400D02*
G75*
G03*
X11177980Y-7516400I-35000J0D01*
G01*
X11177980Y-7694400D02*
G75*
G03*
X11177980Y-7694400I-35000J0D01*
G01*
X11177980Y-7872400D02*
G75*
G03*
X11177980Y-7872400I-35000J0D01*
G01*
X11177980Y-8050400D02*
G75*
G03*
X11177980Y-8050400I-35000J0D01*
G01*
X11177980Y-8228400D02*
G75*
G03*
X11177980Y-8228400I-35000J0D01*
G01*
X11177980Y-8406400D02*
G75*
G03*
X11177980Y-8406400I-35000J0D01*
G01*
X11177980Y-8584400D02*
G75*
G03*
X11177980Y-8584400I-35000J0D01*
G01*
X11177980Y-8762400D02*
G75*
G03*
X11177980Y-8762400I-35000J0D01*
G01*
X11177980Y-8940400D02*
G75*
G03*
X11177980Y-8940400I-35000J0D01*
G01*
X11177980Y-9118400D02*
G75*
G03*
X11177980Y-9118400I-35000J0D01*
G01*
X11177980Y-9296400D02*
G75*
G03*
X11177980Y-9296400I-35000J0D01*
G01*
X11177980Y-9474400D02*
G75*
G03*
X11177980Y-9474400I-35000J0D01*
G01*
X11177980Y-9652400D02*
G75*
G03*
X11177980Y-9652400I-35000J0D01*
G01*
X11177980Y-9830400D02*
G75*
G03*
X11177980Y-9830400I-35000J0D01*
G01*
X11177980Y-10008400D02*
G75*
G03*
X11177980Y-10008400I-35000J0D01*
G01*
X11177980Y-10186400D02*
G75*
G03*
X11177980Y-10186400I-35000J0D01*
G01*
X11177980Y-10364400D02*
G75*
G03*
X11177980Y-10364400I-35000J0D01*
G01*
X11177980Y-10542400D02*
G75*
G03*
X11177980Y-10542400I-35000J0D01*
G01*
X11177980Y-10720400D02*
G75*
G03*
X11177980Y-10720400I-35000J0D01*
G01*
X11177980Y-10898400D02*
G75*
G03*
X11177980Y-10898400I-35000J0D01*
G01*
X11177980Y-11076400D02*
G75*
G03*
X11177980Y-11076400I-35000J0D01*
G01*
X11177980Y-11254400D02*
G75*
G03*
X11177980Y-11254400I-35000J0D01*
G01*
X11177980Y-11432400D02*
G75*
G03*
X11177980Y-11432400I-35000J0D01*
G01*
X11177980Y-11610400D02*
G75*
G03*
X11177980Y-11610400I-35000J0D01*
G01*
X13088060Y-6092400D02*
G75*
G03*
X13088060Y-6092400I-35000J0D01*
G01*
X13088060Y-6270400D02*
G75*
G03*
X13088060Y-6270400I-35000J0D01*
G01*
X13088060Y-6448400D02*
G75*
G03*
X13088060Y-6448400I-35000J0D01*
G01*
X13088060Y-6626400D02*
G75*
G03*
X13088060Y-6626400I-35000J0D01*
G01*
X13088060Y-6804400D02*
G75*
G03*
X13088060Y-6804400I-35000J0D01*
G01*
X13088060Y-6982400D02*
G75*
G03*
X13088060Y-6982400I-35000J0D01*
G01*
X13088060Y-7160400D02*
G75*
G03*
X13088060Y-7160400I-35000J0D01*
G01*
X13088060Y-7338400D02*
G75*
G03*
X13088060Y-7338400I-35000J0D01*
G01*
X13088060Y-7516400D02*
G75*
G03*
X13088060Y-7516400I-35000J0D01*
G01*
X13088060Y-7694400D02*
G75*
G03*
X13088060Y-7694400I-35000J0D01*
G01*
X13088060Y-7872400D02*
G75*
G03*
X13088060Y-7872400I-35000J0D01*
G01*
X13088060Y-8050400D02*
G75*
G03*
X13088060Y-8050400I-35000J0D01*
G01*
X13088060Y-8228400D02*
G75*
G03*
X13088060Y-8228400I-35000J0D01*
G01*
X13088060Y-8406400D02*
G75*
G03*
X13088060Y-8406400I-35000J0D01*
G01*
X13088060Y-8584400D02*
G75*
G03*
X13088060Y-8584400I-35000J0D01*
G01*
X13088060Y-8762400D02*
G75*
G03*
X13088060Y-8762400I-35000J0D01*
G01*
X13088060Y-8940400D02*
G75*
G03*
X13088060Y-8940400I-35000J0D01*
G01*
X13088060Y-9118400D02*
G75*
G03*
X13088060Y-9118400I-35000J0D01*
G01*
X13088060Y-9296400D02*
G75*
G03*
X13088060Y-9296400I-35000J0D01*
G01*
X13088060Y-9474400D02*
G75*
G03*
X13088060Y-9474400I-35000J0D01*
G01*
X13088060Y-9652400D02*
G75*
G03*
X13088060Y-9652400I-35000J0D01*
G01*
X13088060Y-9830400D02*
G75*
G03*
X13088060Y-9830400I-35000J0D01*
G01*
X13088060Y-10008400D02*
G75*
G03*
X13088060Y-10008400I-35000J0D01*
G01*
X13088060Y-10186400D02*
G75*
G03*
X13088060Y-10186400I-35000J0D01*
G01*
X13088060Y-10364400D02*
G75*
G03*
X13088060Y-10364400I-35000J0D01*
G01*
X13088060Y-10542400D02*
G75*
G03*
X13088060Y-10542400I-35000J0D01*
G01*
X13088060Y-10720400D02*
G75*
G03*
X13088060Y-10720400I-35000J0D01*
G01*
X13088060Y-10898400D02*
G75*
G03*
X13088060Y-10898400I-35000J0D01*
G01*
X13088060Y-11076400D02*
G75*
G03*
X13088060Y-11076400I-35000J0D01*
G01*
X13088060Y-11254400D02*
G75*
G03*
X13088060Y-11254400I-35000J0D01*
G01*
X13088060Y-11432400D02*
G75*
G03*
X13088060Y-11432400I-35000J0D01*
G01*
X13088060Y-11610400D02*
G75*
G03*
X13088060Y-11610400I-35000J0D01*
G01*
X19110000Y-5425000D02*
G75*
G03*
X19110000Y-5425000I-35000J0D01*
G01*
X19120000Y-5400000D02*
X19030000Y-5400000D01*
X19120000Y-5450000D02*
X19030000Y-5450000D01*
X19030000Y-5400000D02*
G75*
G03*
X19030000Y-5450000I0J-25000D01*
G01*
X19120000Y-5450000D02*
G75*
G03*
X19120000Y-5400000I0J25000D01*
G01*
X19110000Y-6425000D02*
G75*
G03*
X19110000Y-6425000I-35000J0D01*
G01*
X19120000Y-6400000D02*
X19030000Y-6400000D01*
X19120000Y-6450000D02*
X19030000Y-6450000D01*
X19030000Y-6400000D02*
G75*
G03*
X19030000Y-6450000I0J-25000D01*
G01*
X19120000Y-6450000D02*
G75*
G03*
X19120000Y-6400000I0J25000D01*
G01*
X19610000Y-5925000D02*
G75*
G03*
X19610000Y-5925000I-35000J0D01*
G01*
X19600000Y-5970000D02*
X19600000Y-5880000D01*
X19550000Y-5970000D02*
X19550000Y-5880000D01*
X19600000Y-5880000D02*
G75*
G03*
X19550000Y-5880000I-25000J0D01*
G01*
X19550000Y-5970000D02*
G75*
G03*
X19600000Y-5970000I25000J0D01*
G01*
X18034000Y-12383100D02*
X18034000Y-12458100D01*
X17996500Y-12420600D02*
X18071500Y-12420600D01*
X18034000Y-12510100D02*
X18034000Y-12585100D01*
X17996500Y-12547600D02*
X18071500Y-12547600D01*
X18034000Y-12637100D02*
X18034000Y-12712100D01*
X17996500Y-12674600D02*
X18071500Y-12674600D01*
X5829644Y-6632284D02*
X5829644Y-6575715D01*
X5773075Y-6575715D01*
X5773075Y-6632284D01*
X5829644Y-6632284D01*
X5829644Y-6886284D02*
X5829644Y-6829715D01*
X5773075Y-6829715D01*
X5773075Y-6886284D01*
X5829644Y-6886284D01*
X5829644Y-7140284D02*
X5829644Y-7083715D01*
X5773075Y-7083715D01*
X5773075Y-7140284D01*
X5829644Y-7140284D01*
X5829644Y-7394284D02*
X5829644Y-7337715D01*
X5773075Y-7337715D01*
X5773075Y-7394284D01*
X5829644Y-7394284D01*
X5829644Y-7648284D02*
X5829644Y-7591715D01*
X5773075Y-7591715D01*
X5773075Y-7648284D01*
X5829644Y-7648284D01*
X5829644Y-7902284D02*
X5829644Y-7845715D01*
X5773075Y-7845715D01*
X5773075Y-7902284D01*
X5829644Y-7902284D01*
X5829644Y-8156284D02*
X5829644Y-8099715D01*
X5773075Y-8099715D01*
X5773075Y-8156284D01*
X5829644Y-8156284D01*
X5829644Y-8410285D02*
X5829644Y-8353715D01*
X5773075Y-8353715D01*
X5773075Y-8410285D01*
X5829644Y-8410285D01*
X5829644Y-8664285D02*
X5829644Y-8607716D01*
X5773075Y-8607716D01*
X5773075Y-8664285D01*
X5829644Y-8664285D01*
X5829644Y-9324685D02*
X5829644Y-9268116D01*
X5773075Y-9268116D01*
X5773075Y-9324685D01*
X5829644Y-9324685D01*
X5829644Y-9578685D02*
X5829644Y-9522116D01*
X5773075Y-9522116D01*
X5773075Y-9578685D01*
X5829644Y-9578685D01*
X5829644Y-9832685D02*
X5829644Y-9776116D01*
X5773075Y-9776116D01*
X5773075Y-9832685D01*
X5829644Y-9832685D01*
X5829644Y-10086685D02*
X5829644Y-10030116D01*
X5773075Y-10030116D01*
X5773075Y-10086685D01*
X5829644Y-10086685D01*
X5829644Y-10340685D02*
X5829644Y-10284116D01*
X5773075Y-10284116D01*
X5773075Y-10340685D01*
X5829644Y-10340685D01*
X5829644Y-10594685D02*
X5829644Y-10538116D01*
X5773075Y-10538116D01*
X5773075Y-10594685D01*
X5829644Y-10594685D01*
X5829644Y-10848685D02*
X5829644Y-10792116D01*
X5773075Y-10792116D01*
X5773075Y-10848685D01*
X5829644Y-10848685D01*
X5829644Y-11102685D02*
X5829644Y-11046116D01*
X5773075Y-11046116D01*
X5773075Y-11102685D01*
X5829644Y-11102685D01*
X5829644Y-11356684D02*
X5829644Y-11300115D01*
X5773075Y-11300115D01*
X5773075Y-11356684D01*
X5829644Y-11356684D01*
X6062244Y-11717364D02*
X6062244Y-11660795D01*
X6005675Y-11660795D01*
X6005675Y-11717364D01*
X6062244Y-11717364D01*
X6098884Y-6276684D02*
X6098884Y-6220115D01*
X6042315Y-6220115D01*
X6042315Y-6276684D01*
X6098884Y-6276684D01*
X6312244Y-11717364D02*
X6312244Y-11660795D01*
X6255675Y-11660795D01*
X6255675Y-11717364D01*
X6312244Y-11717364D01*
X6348884Y-6276684D02*
X6348884Y-6220115D01*
X6292315Y-6220115D01*
X6292315Y-6276684D01*
X6348884Y-6276684D01*
X6591644Y-6632284D02*
X6591644Y-6575715D01*
X6535075Y-6575715D01*
X6535075Y-6632284D01*
X6591644Y-6632284D01*
X6591644Y-6886284D02*
X6591644Y-6829715D01*
X6535075Y-6829715D01*
X6535075Y-6886284D01*
X6591644Y-6886284D01*
X6591644Y-7140284D02*
X6591644Y-7083715D01*
X6535075Y-7083715D01*
X6535075Y-7140284D01*
X6591644Y-7140284D01*
X6591644Y-7394284D02*
X6591644Y-7337715D01*
X6535075Y-7337715D01*
X6535075Y-7394284D01*
X6591644Y-7394284D01*
X6591644Y-7648284D02*
X6591644Y-7591715D01*
X6535075Y-7591715D01*
X6535075Y-7648284D01*
X6591644Y-7648284D01*
X6591644Y-7902284D02*
X6591644Y-7845715D01*
X6535075Y-7845715D01*
X6535075Y-7902284D01*
X6591644Y-7902284D01*
X6591644Y-8156284D02*
X6591644Y-8099715D01*
X6535075Y-8099715D01*
X6535075Y-8156284D01*
X6591644Y-8156284D01*
X6591644Y-8410285D02*
X6591644Y-8353715D01*
X6535075Y-8353715D01*
X6535075Y-8410285D01*
X6591644Y-8410285D01*
X6591644Y-8664285D02*
X6591644Y-8607716D01*
X6535075Y-8607716D01*
X6535075Y-8664285D01*
X6591644Y-8664285D01*
X6591644Y-9324685D02*
X6591644Y-9268116D01*
X6535075Y-9268116D01*
X6535075Y-9324685D01*
X6591644Y-9324685D01*
X6591644Y-9578685D02*
X6591644Y-9522116D01*
X6535075Y-9522116D01*
X6535075Y-9578685D01*
X6591644Y-9578685D01*
X6591644Y-9832685D02*
X6591644Y-9776116D01*
X6535075Y-9776116D01*
X6535075Y-9832685D01*
X6591644Y-9832685D01*
X6591644Y-10086685D02*
X6591644Y-10030116D01*
X6535075Y-10030116D01*
X6535075Y-10086685D01*
X6591644Y-10086685D01*
X6591644Y-10340685D02*
X6591644Y-10284116D01*
X6535075Y-10284116D01*
X6535075Y-10340685D01*
X6591644Y-10340685D01*
X6591644Y-10594685D02*
X6591644Y-10538116D01*
X6535075Y-10538116D01*
X6535075Y-10594685D01*
X6591644Y-10594685D01*
X6591644Y-10848685D02*
X6591644Y-10792116D01*
X6535075Y-10792116D01*
X6535075Y-10848685D01*
X6591644Y-10848685D01*
X6591644Y-11102685D02*
X6591644Y-11046116D01*
X6535075Y-11046116D01*
X6535075Y-11102685D01*
X6591644Y-11102685D01*
X6591644Y-11356684D02*
X6591644Y-11300115D01*
X6535075Y-11300115D01*
X6535075Y-11356684D01*
X6591644Y-11356684D01*
X7506044Y-6632284D02*
X7506044Y-6575715D01*
X7449475Y-6575715D01*
X7449475Y-6632284D01*
X7506044Y-6632284D01*
X7506044Y-6886284D02*
X7506044Y-6829715D01*
X7449475Y-6829715D01*
X7449475Y-6886284D01*
X7506044Y-6886284D01*
X7506044Y-7140284D02*
X7506044Y-7083715D01*
X7449475Y-7083715D01*
X7449475Y-7140284D01*
X7506044Y-7140284D01*
X7506044Y-7394284D02*
X7506044Y-7337715D01*
X7449475Y-7337715D01*
X7449475Y-7394284D01*
X7506044Y-7394284D01*
X7506044Y-7648284D02*
X7506044Y-7591715D01*
X7449475Y-7591715D01*
X7449475Y-7648284D01*
X7506044Y-7648284D01*
X7506044Y-7902284D02*
X7506044Y-7845715D01*
X7449475Y-7845715D01*
X7449475Y-7902284D01*
X7506044Y-7902284D01*
X7506044Y-8156284D02*
X7506044Y-8099715D01*
X7449475Y-8099715D01*
X7449475Y-8156284D01*
X7506044Y-8156284D01*
X7506044Y-8410285D02*
X7506044Y-8353715D01*
X7449475Y-8353715D01*
X7449475Y-8410285D01*
X7506044Y-8410285D01*
X7506044Y-8664285D02*
X7506044Y-8607716D01*
X7449475Y-8607716D01*
X7449475Y-8664285D01*
X7506044Y-8664285D01*
X7506044Y-9324685D02*
X7506044Y-9268116D01*
X7449475Y-9268116D01*
X7449475Y-9324685D01*
X7506044Y-9324685D01*
X7506044Y-9578685D02*
X7506044Y-9522116D01*
X7449475Y-9522116D01*
X7449475Y-9578685D01*
X7506044Y-9578685D01*
X7506044Y-9832685D02*
X7506044Y-9776116D01*
X7449475Y-9776116D01*
X7449475Y-9832685D01*
X7506044Y-9832685D01*
X7506044Y-10086685D02*
X7506044Y-10030116D01*
X7449475Y-10030116D01*
X7449475Y-10086685D01*
X7506044Y-10086685D01*
X7506044Y-10340685D02*
X7506044Y-10284116D01*
X7449475Y-10284116D01*
X7449475Y-10340685D01*
X7506044Y-10340685D01*
X7506044Y-10594685D02*
X7506044Y-10538116D01*
X7449475Y-10538116D01*
X7449475Y-10594685D01*
X7506044Y-10594685D01*
X7506044Y-10848685D02*
X7506044Y-10792116D01*
X7449475Y-10792116D01*
X7449475Y-10848685D01*
X7506044Y-10848685D01*
X7506044Y-11102685D02*
X7506044Y-11046116D01*
X7449475Y-11046116D01*
X7449475Y-11102685D01*
X7506044Y-11102685D01*
X7506044Y-11356684D02*
X7506044Y-11300115D01*
X7449475Y-11300115D01*
X7449475Y-11356684D01*
X7506044Y-11356684D01*
X7764044Y-6281764D02*
X7764044Y-6225195D01*
X7707475Y-6225195D01*
X7707475Y-6281764D01*
X7764044Y-6281764D01*
X7764044Y-11717364D02*
X7764044Y-11660795D01*
X7707475Y-11660795D01*
X7707475Y-11717364D01*
X7764044Y-11717364D01*
X8014044Y-6281764D02*
X8014044Y-6225195D01*
X7957475Y-6225195D01*
X7957475Y-6281764D01*
X8014044Y-6281764D01*
X8014044Y-11717364D02*
X8014044Y-11660795D01*
X7957475Y-11660795D01*
X7957475Y-11717364D01*
X8014044Y-11717364D01*
X8268044Y-6632284D02*
X8268044Y-6575715D01*
X8211475Y-6575715D01*
X8211475Y-6632284D01*
X8268044Y-6632284D01*
X8268044Y-6886284D02*
X8268044Y-6829715D01*
X8211475Y-6829715D01*
X8211475Y-6886284D01*
X8268044Y-6886284D01*
X8268044Y-7140284D02*
X8268044Y-7083715D01*
X8211475Y-7083715D01*
X8211475Y-7140284D01*
X8268044Y-7140284D01*
X8268044Y-7394284D02*
X8268044Y-7337715D01*
X8211475Y-7337715D01*
X8211475Y-7394284D01*
X8268044Y-7394284D01*
X8268044Y-7648284D02*
X8268044Y-7591715D01*
X8211475Y-7591715D01*
X8211475Y-7648284D01*
X8268044Y-7648284D01*
X8268044Y-7902284D02*
X8268044Y-7845715D01*
X8211475Y-7845715D01*
X8211475Y-7902284D01*
X8268044Y-7902284D01*
X8268044Y-8156284D02*
X8268044Y-8099715D01*
X8211475Y-8099715D01*
X8211475Y-8156284D01*
X8268044Y-8156284D01*
X8268044Y-8410285D02*
X8268044Y-8353715D01*
X8211475Y-8353715D01*
X8211475Y-8410285D01*
X8268044Y-8410285D01*
X8268044Y-8664285D02*
X8268044Y-8607716D01*
X8211475Y-8607716D01*
X8211475Y-8664285D01*
X8268044Y-8664285D01*
X8268044Y-9324685D02*
X8268044Y-9268116D01*
X8211475Y-9268116D01*
X8211475Y-9324685D01*
X8268044Y-9324685D01*
X8268044Y-9578685D02*
X8268044Y-9522116D01*
X8211475Y-9522116D01*
X8211475Y-9578685D01*
X8268044Y-9578685D01*
X8268044Y-9832685D02*
X8268044Y-9776116D01*
X8211475Y-9776116D01*
X8211475Y-9832685D01*
X8268044Y-9832685D01*
X8268044Y-10086685D02*
X8268044Y-10030116D01*
X8211475Y-10030116D01*
X8211475Y-10086685D01*
X8268044Y-10086685D01*
X8268044Y-10340685D02*
X8268044Y-10284116D01*
X8211475Y-10284116D01*
X8211475Y-10340685D01*
X8268044Y-10340685D01*
X8268044Y-10594685D02*
X8268044Y-10538116D01*
X8211475Y-10538116D01*
X8211475Y-10594685D01*
X8268044Y-10594685D01*
X8268044Y-10848685D02*
X8268044Y-10792116D01*
X8211475Y-10792116D01*
X8211475Y-10848685D01*
X8268044Y-10848685D01*
X8268044Y-11102685D02*
X8268044Y-11046116D01*
X8211475Y-11046116D01*
X8211475Y-11102685D01*
X8268044Y-11102685D01*
X8268044Y-11356684D02*
X8268044Y-11300115D01*
X8211475Y-11300115D01*
X8211475Y-11356684D01*
X8268044Y-11356684D01*
X8435685Y-12884684D02*
X8435685Y-12828115D01*
X8379115Y-12828115D01*
X8379115Y-12884684D01*
X8435685Y-12884684D01*
X8435685Y-13134684D02*
X8435685Y-13078115D01*
X8379115Y-13078115D01*
X8379115Y-13134684D01*
X8435685Y-13134684D01*
X8842085Y-12550484D02*
X8842085Y-12493915D01*
X8785516Y-12493915D01*
X8785516Y-12550484D01*
X8842085Y-12550484D01*
X8842085Y-13312484D02*
X8842085Y-13255915D01*
X8785516Y-13255915D01*
X8785516Y-13312484D01*
X8842085Y-13312484D01*
X9096085Y-12550484D02*
X9096085Y-12493915D01*
X9039516Y-12493915D01*
X9039516Y-12550484D01*
X9096085Y-12550484D01*
X9096085Y-13312484D02*
X9096085Y-13255915D01*
X9039516Y-13255915D01*
X9039516Y-13312484D01*
X9096085Y-13312484D01*
X9233245Y-6632284D02*
X9233245Y-6575715D01*
X9176676Y-6575715D01*
X9176676Y-6632284D01*
X9233245Y-6632284D01*
X9233245Y-6886284D02*
X9233245Y-6829715D01*
X9176676Y-6829715D01*
X9176676Y-6886284D01*
X9233245Y-6886284D01*
X9233245Y-7140284D02*
X9233245Y-7083715D01*
X9176676Y-7083715D01*
X9176676Y-7140284D01*
X9233245Y-7140284D01*
X9233245Y-7394284D02*
X9233245Y-7337715D01*
X9176676Y-7337715D01*
X9176676Y-7394284D01*
X9233245Y-7394284D01*
X9233245Y-7648284D02*
X9233245Y-7591715D01*
X9176676Y-7591715D01*
X9176676Y-7648284D01*
X9233245Y-7648284D01*
X9233245Y-7902284D02*
X9233245Y-7845715D01*
X9176676Y-7845715D01*
X9176676Y-7902284D01*
X9233245Y-7902284D01*
X9233245Y-8156284D02*
X9233245Y-8099715D01*
X9176676Y-8099715D01*
X9176676Y-8156284D01*
X9233245Y-8156284D01*
X9233245Y-8410285D02*
X9233245Y-8353715D01*
X9176676Y-8353715D01*
X9176676Y-8410285D01*
X9233245Y-8410285D01*
X9233245Y-8664285D02*
X9233245Y-8607716D01*
X9176676Y-8607716D01*
X9176676Y-8664285D01*
X9233245Y-8664285D01*
X9233245Y-9324685D02*
X9233245Y-9268116D01*
X9176676Y-9268116D01*
X9176676Y-9324685D01*
X9233245Y-9324685D01*
X9233245Y-9578685D02*
X9233245Y-9522116D01*
X9176676Y-9522116D01*
X9176676Y-9578685D01*
X9233245Y-9578685D01*
X9233245Y-9832685D02*
X9233245Y-9776116D01*
X9176676Y-9776116D01*
X9176676Y-9832685D01*
X9233245Y-9832685D01*
X9233245Y-10086685D02*
X9233245Y-10030116D01*
X9176676Y-10030116D01*
X9176676Y-10086685D01*
X9233245Y-10086685D01*
X9233245Y-10340685D02*
X9233245Y-10284116D01*
X9176676Y-10284116D01*
X9176676Y-10340685D01*
X9233245Y-10340685D01*
X9233245Y-10594685D02*
X9233245Y-10538116D01*
X9176676Y-10538116D01*
X9176676Y-10594685D01*
X9233245Y-10594685D01*
X9233245Y-10848685D02*
X9233245Y-10792116D01*
X9176676Y-10792116D01*
X9176676Y-10848685D01*
X9233245Y-10848685D01*
X9233245Y-11102685D02*
X9233245Y-11046116D01*
X9176676Y-11046116D01*
X9176676Y-11102685D01*
X9233245Y-11102685D01*
X9233245Y-11356684D02*
X9233245Y-11300115D01*
X9176676Y-11300115D01*
X9176676Y-11356684D01*
X9233245Y-11356684D01*
X9350085Y-12550484D02*
X9350085Y-12493915D01*
X9293516Y-12493915D01*
X9293516Y-12550484D01*
X9350085Y-12550484D01*
X9350085Y-13312484D02*
X9350085Y-13255915D01*
X9293516Y-13255915D01*
X9293516Y-13312484D01*
X9350085Y-13312484D01*
X9465845Y-11717364D02*
X9465845Y-11660795D01*
X9409276Y-11660795D01*
X9409276Y-11717364D01*
X9465845Y-11717364D01*
X9512645Y-6281764D02*
X9512645Y-6225195D01*
X9456076Y-6225195D01*
X9456076Y-6281764D01*
X9512645Y-6281764D01*
X9604085Y-12550484D02*
X9604085Y-12493915D01*
X9547516Y-12493915D01*
X9547516Y-12550484D01*
X9604085Y-12550484D01*
X9604085Y-13312484D02*
X9604085Y-13255915D01*
X9547516Y-13255915D01*
X9547516Y-13312484D01*
X9604085Y-13312484D01*
X9715845Y-11717364D02*
X9715845Y-11660795D01*
X9659276Y-11660795D01*
X9659276Y-11717364D01*
X9715845Y-11717364D01*
X9762645Y-6281764D02*
X9762645Y-6225195D01*
X9706076Y-6225195D01*
X9706076Y-6281764D01*
X9762645Y-6281764D01*
X9858085Y-12550484D02*
X9858085Y-12493915D01*
X9801516Y-12493915D01*
X9801516Y-12550484D01*
X9858085Y-12550484D01*
X9858085Y-13312484D02*
X9858085Y-13255915D01*
X9801516Y-13255915D01*
X9801516Y-13312484D01*
X9858085Y-13312484D01*
X9995245Y-6632284D02*
X9995245Y-6575715D01*
X9938676Y-6575715D01*
X9938676Y-6632284D01*
X9995245Y-6632284D01*
X9995245Y-6886284D02*
X9995245Y-6829715D01*
X9938676Y-6829715D01*
X9938676Y-6886284D01*
X9995245Y-6886284D01*
X9995245Y-7140284D02*
X9995245Y-7083715D01*
X9938676Y-7083715D01*
X9938676Y-7140284D01*
X9995245Y-7140284D01*
X9995245Y-7394284D02*
X9995245Y-7337715D01*
X9938676Y-7337715D01*
X9938676Y-7394284D01*
X9995245Y-7394284D01*
X9995245Y-7648284D02*
X9995245Y-7591715D01*
X9938676Y-7591715D01*
X9938676Y-7648284D01*
X9995245Y-7648284D01*
X9995245Y-7902284D02*
X9995245Y-7845715D01*
X9938676Y-7845715D01*
X9938676Y-7902284D01*
X9995245Y-7902284D01*
X9995245Y-8156284D02*
X9995245Y-8099715D01*
X9938676Y-8099715D01*
X9938676Y-8156284D01*
X9995245Y-8156284D01*
X9995245Y-8410285D02*
X9995245Y-8353715D01*
X9938676Y-8353715D01*
X9938676Y-8410285D01*
X9995245Y-8410285D01*
X9995245Y-8664285D02*
X9995245Y-8607716D01*
X9938676Y-8607716D01*
X9938676Y-8664285D01*
X9995245Y-8664285D01*
X9995245Y-9324685D02*
X9995245Y-9268116D01*
X9938676Y-9268116D01*
X9938676Y-9324685D01*
X9995245Y-9324685D01*
X9995245Y-9578685D02*
X9995245Y-9522116D01*
X9938676Y-9522116D01*
X9938676Y-9578685D01*
X9995245Y-9578685D01*
X9995245Y-9832685D02*
X9995245Y-9776116D01*
X9938676Y-9776116D01*
X9938676Y-9832685D01*
X9995245Y-9832685D01*
X9995245Y-10086685D02*
X9995245Y-10030116D01*
X9938676Y-10030116D01*
X9938676Y-10086685D01*
X9995245Y-10086685D01*
X9995245Y-10340685D02*
X9995245Y-10284116D01*
X9938676Y-10284116D01*
X9938676Y-10340685D01*
X9995245Y-10340685D01*
X9995245Y-10594685D02*
X9995245Y-10538116D01*
X9938676Y-10538116D01*
X9938676Y-10594685D01*
X9995245Y-10594685D01*
X9995245Y-10848685D02*
X9995245Y-10792116D01*
X9938676Y-10792116D01*
X9938676Y-10848685D01*
X9995245Y-10848685D01*
X9995245Y-11102685D02*
X9995245Y-11046116D01*
X9938676Y-11046116D01*
X9938676Y-11102685D01*
X9995245Y-11102685D01*
X9995245Y-11356684D02*
X9995245Y-11300115D01*
X9938676Y-11300115D01*
X9938676Y-11356684D01*
X9995245Y-11356684D01*
X10112085Y-12550484D02*
X10112085Y-12493915D01*
X10055516Y-12493915D01*
X10055516Y-12550484D01*
X10112085Y-12550484D01*
X10112085Y-13312484D02*
X10112085Y-13255915D01*
X10055516Y-13255915D01*
X10055516Y-13312484D01*
X10112085Y-13312484D01*
X10366085Y-12550484D02*
X10366085Y-12493915D01*
X10309516Y-12493915D01*
X10309516Y-12550484D01*
X10366085Y-12550484D01*
X10366085Y-13312484D02*
X10366085Y-13255915D01*
X10309516Y-13255915D01*
X10309516Y-13312484D01*
X10366085Y-13312484D01*
X10767405Y-6839484D02*
X10767405Y-6782915D01*
X10710836Y-6782915D01*
X10710836Y-6839484D01*
X10767405Y-6839484D01*
X10767405Y-7089484D02*
X10767405Y-7032915D01*
X10710836Y-7032915D01*
X10710836Y-7089484D01*
X10767405Y-7089484D01*
X10772485Y-12575884D02*
X10772485Y-12519315D01*
X10715916Y-12519315D01*
X10715916Y-12575884D01*
X10772485Y-12575884D01*
X10773285Y-6128284D02*
X10773285Y-6071715D01*
X10716716Y-6071715D01*
X10716716Y-6128284D01*
X10773285Y-6128284D01*
X10773285Y-6378284D02*
X10773285Y-6321715D01*
X10716716Y-6321715D01*
X10716716Y-6378284D01*
X10773285Y-6378284D01*
X11001085Y-5616284D02*
X11001085Y-5559716D01*
X10944516Y-5559716D01*
X10944516Y-5616284D01*
X11001085Y-5616284D01*
X11022485Y-12575884D02*
X11022485Y-12519315D01*
X10965916Y-12519315D01*
X10965916Y-12575884D01*
X11022485Y-12575884D01*
X11382084Y-12575884D02*
X11382084Y-12519315D01*
X11325515Y-12519315D01*
X11325515Y-12575884D01*
X11382084Y-12575884D01*
X11632084Y-12575884D02*
X11632084Y-12519315D01*
X11575515Y-12519315D01*
X11575515Y-12575884D01*
X11632084Y-12575884D01*
X12017084Y-5616284D02*
X12017084Y-5559716D01*
X11960515Y-5559716D01*
X11960515Y-5616284D01*
X12017084Y-5616284D01*
X12296484Y-5616284D02*
X12296484Y-5559716D01*
X12239915Y-5559716D01*
X12239915Y-5616284D01*
X12296484Y-5616284D01*
X13083884Y-12144084D02*
X13083884Y-12087515D01*
X13027315Y-12087515D01*
X13027315Y-12144084D01*
X13083884Y-12144084D01*
X13083884Y-13160084D02*
X13083884Y-13103515D01*
X13027315Y-13103515D01*
X13027315Y-13160084D01*
X13083884Y-13160084D01*
X13312484Y-5616284D02*
X13312484Y-5559716D01*
X13255915Y-5559716D01*
X13255915Y-5616284D01*
X13312484Y-5616284D01*
X13820484Y-11531944D02*
X13820484Y-11475375D01*
X13763915Y-11475375D01*
X13763915Y-11531944D01*
X13820484Y-11531944D01*
X13820484Y-11785944D02*
X13820484Y-11729375D01*
X13763915Y-11729375D01*
X13763915Y-11785944D01*
X13820484Y-11785944D01*
X13820484Y-12039944D02*
X13820484Y-11983375D01*
X13763915Y-11983375D01*
X13763915Y-12039944D01*
X13820484Y-12039944D01*
X13820484Y-12293944D02*
X13820484Y-12237375D01*
X13763915Y-12237375D01*
X13763915Y-12293944D01*
X13820484Y-12293944D01*
X13820484Y-12547944D02*
X13820484Y-12491375D01*
X13763915Y-12491375D01*
X13763915Y-12547944D01*
X13820484Y-12547944D01*
X13820484Y-12801944D02*
X13820484Y-12745375D01*
X13763915Y-12745375D01*
X13763915Y-12801944D01*
X13820484Y-12801944D01*
X14074484Y-11277944D02*
X14074484Y-11221375D01*
X14017915Y-11221375D01*
X14017915Y-11277944D01*
X14074484Y-11277944D01*
X14074484Y-11531944D02*
X14074484Y-11475375D01*
X14017915Y-11475375D01*
X14017915Y-11531944D01*
X14074484Y-11531944D01*
X14074484Y-11785944D02*
X14074484Y-11729375D01*
X14017915Y-11729375D01*
X14017915Y-11785944D01*
X14074484Y-11785944D01*
X14074484Y-12039944D02*
X14074484Y-11983375D01*
X14017915Y-11983375D01*
X14017915Y-12039944D01*
X14074484Y-12039944D01*
X14074484Y-12293944D02*
X14074484Y-12237375D01*
X14017915Y-12237375D01*
X14017915Y-12293944D01*
X14074484Y-12293944D01*
X14074484Y-12547944D02*
X14074484Y-12491375D01*
X14017915Y-12491375D01*
X14017915Y-12547944D01*
X14074484Y-12547944D01*
X14074484Y-12801944D02*
X14074484Y-12745375D01*
X14017915Y-12745375D01*
X14017915Y-12801944D01*
X14074484Y-12801944D01*
X14074484Y-13055944D02*
X14074484Y-12999375D01*
X14017915Y-12999375D01*
X14017915Y-13055944D01*
X14074484Y-13055944D01*
X14158304Y-6515444D02*
X14158304Y-6458875D01*
X14101735Y-6458875D01*
X14101735Y-6515444D01*
X14158304Y-6515444D01*
X14183704Y-5550245D02*
X14183704Y-5493676D01*
X14127135Y-5493676D01*
X14127135Y-5550245D01*
X14183704Y-5550245D01*
X14183704Y-6048084D02*
X14183704Y-5991515D01*
X14127135Y-5991515D01*
X14127135Y-6048084D01*
X14183704Y-6048084D01*
X14262444Y-7567004D02*
X14262444Y-7510435D01*
X14205875Y-7510435D01*
X14205875Y-7567004D01*
X14262444Y-7567004D01*
X14277684Y-7902284D02*
X14277684Y-7845715D01*
X14221115Y-7845715D01*
X14221115Y-7902284D01*
X14277684Y-7902284D01*
X14277684Y-8664285D02*
X14277684Y-8607716D01*
X14221115Y-8607716D01*
X14221115Y-8664285D01*
X14277684Y-8664285D01*
X14328484Y-11277944D02*
X14328484Y-11221375D01*
X14271915Y-11221375D01*
X14271915Y-11277944D01*
X14328484Y-11277944D01*
X14328484Y-11531944D02*
X14328484Y-11475375D01*
X14271915Y-11475375D01*
X14271915Y-11531944D01*
X14328484Y-11531944D01*
X14328484Y-12801944D02*
X14328484Y-12745375D01*
X14271915Y-12745375D01*
X14271915Y-12801944D01*
X14328484Y-12801944D01*
X14328484Y-13055944D02*
X14328484Y-12999375D01*
X14271915Y-12999375D01*
X14271915Y-13055944D01*
X14328484Y-13055944D01*
X14531684Y-7902284D02*
X14531684Y-7845715D01*
X14475115Y-7845715D01*
X14475115Y-7902284D01*
X14531684Y-7902284D01*
X14531684Y-8664285D02*
X14531684Y-8607716D01*
X14475115Y-8607716D01*
X14475115Y-8664285D01*
X14531684Y-8664285D01*
X14582484Y-11277944D02*
X14582484Y-11221375D01*
X14525915Y-11221375D01*
X14525915Y-11277944D01*
X14582484Y-11277944D01*
X14582484Y-11531944D02*
X14582484Y-11475375D01*
X14525915Y-11475375D01*
X14525915Y-11531944D01*
X14582484Y-11531944D01*
X14582484Y-12801944D02*
X14582484Y-12745375D01*
X14525915Y-12745375D01*
X14525915Y-12801944D01*
X14582484Y-12801944D01*
X14582484Y-13055944D02*
X14582484Y-12999375D01*
X14525915Y-12999375D01*
X14525915Y-13055944D01*
X14582484Y-13055944D01*
X14785684Y-7902284D02*
X14785684Y-7845715D01*
X14729115Y-7845715D01*
X14729115Y-7902284D01*
X14785684Y-7902284D01*
X14785684Y-8664285D02*
X14785684Y-8607716D01*
X14729115Y-8607716D01*
X14729115Y-8664285D01*
X14785684Y-8664285D01*
X14836484Y-11277944D02*
X14836484Y-11221375D01*
X14779915Y-11221375D01*
X14779915Y-11277944D01*
X14836484Y-11277944D01*
X14836484Y-11531944D02*
X14836484Y-11475375D01*
X14779915Y-11475375D01*
X14779915Y-11531944D01*
X14836484Y-11531944D01*
X14836484Y-12801944D02*
X14836484Y-12745375D01*
X14779915Y-12745375D01*
X14779915Y-12801944D01*
X14836484Y-12801944D01*
X14836484Y-13055944D02*
X14836484Y-12999375D01*
X14779915Y-12999375D01*
X14779915Y-13055944D01*
X14836484Y-13055944D01*
X14887284Y-10061285D02*
X14887284Y-10004716D01*
X14830715Y-10004716D01*
X14830715Y-10061285D01*
X14887284Y-10061285D01*
X14963484Y-9604085D02*
X14963484Y-9547516D01*
X14906915Y-9547516D01*
X14906915Y-9604085D01*
X14963484Y-9604085D01*
X15039684Y-7902284D02*
X15039684Y-7845715D01*
X14983115Y-7845715D01*
X14983115Y-7902284D01*
X15039684Y-7902284D01*
X15039684Y-8664285D02*
X15039684Y-8607716D01*
X14983115Y-8607716D01*
X14983115Y-8664285D01*
X15039684Y-8664285D01*
X15090484Y-11277944D02*
X15090484Y-11221375D01*
X15033915Y-11221375D01*
X15033915Y-11277944D01*
X15090484Y-11277944D01*
X15090484Y-11531944D02*
X15090484Y-11475375D01*
X15033915Y-11475375D01*
X15033915Y-11531944D01*
X15090484Y-11531944D01*
X15090484Y-12801944D02*
X15090484Y-12745375D01*
X15033915Y-12745375D01*
X15033915Y-12801944D01*
X15090484Y-12801944D01*
X15090484Y-13055944D02*
X15090484Y-12999375D01*
X15033915Y-12999375D01*
X15033915Y-13055944D01*
X15090484Y-13055944D01*
X15174304Y-6515444D02*
X15174304Y-6458875D01*
X15117735Y-6458875D01*
X15117735Y-6515444D01*
X15174304Y-6515444D01*
X15199704Y-5550245D02*
X15199704Y-5493676D01*
X15143135Y-5493676D01*
X15143135Y-5550245D01*
X15199704Y-5550245D01*
X15199704Y-6048084D02*
X15199704Y-5991515D01*
X15143135Y-5991515D01*
X15143135Y-6048084D01*
X15199704Y-6048084D01*
X15213484Y-9604085D02*
X15213484Y-9547516D01*
X15156915Y-9547516D01*
X15156915Y-9604085D01*
X15213484Y-9604085D01*
X15278444Y-7567004D02*
X15278444Y-7510435D01*
X15221875Y-7510435D01*
X15221875Y-7567004D01*
X15278444Y-7567004D01*
X15293684Y-7902284D02*
X15293684Y-7845715D01*
X15237115Y-7845715D01*
X15237115Y-7902284D01*
X15293684Y-7902284D01*
X15293684Y-8664285D02*
X15293684Y-8607716D01*
X15237115Y-8607716D01*
X15237115Y-8664285D01*
X15293684Y-8664285D01*
X15344484Y-11277944D02*
X15344484Y-11221375D01*
X15287915Y-11221375D01*
X15287915Y-11277944D01*
X15344484Y-11277944D01*
X15344484Y-11531944D02*
X15344484Y-11475375D01*
X15287915Y-11475375D01*
X15287915Y-11531944D01*
X15344484Y-11531944D01*
X15344484Y-11785944D02*
X15344484Y-11729375D01*
X15287915Y-11729375D01*
X15287915Y-11785944D01*
X15344484Y-11785944D01*
X15344484Y-12039944D02*
X15344484Y-11983375D01*
X15287915Y-11983375D01*
X15287915Y-12039944D01*
X15344484Y-12039944D01*
X15344484Y-12293944D02*
X15344484Y-12237375D01*
X15287915Y-12237375D01*
X15287915Y-12293944D01*
X15344484Y-12293944D01*
X15344484Y-12547944D02*
X15344484Y-12491375D01*
X15287915Y-12491375D01*
X15287915Y-12547944D01*
X15344484Y-12547944D01*
X15344484Y-12801944D02*
X15344484Y-12745375D01*
X15287915Y-12745375D01*
X15287915Y-12801944D01*
X15344484Y-12801944D01*
X15344484Y-13055944D02*
X15344484Y-12999375D01*
X15287915Y-12999375D01*
X15287915Y-13055944D01*
X15344484Y-13055944D01*
X15483104Y-5550245D02*
X15483104Y-5493676D01*
X15426535Y-5493676D01*
X15426535Y-5550245D01*
X15483104Y-5550245D01*
X15483104Y-6048084D02*
X15483104Y-5991515D01*
X15426535Y-5991515D01*
X15426535Y-6048084D01*
X15483104Y-6048084D01*
X15483104Y-6515444D02*
X15483104Y-6458875D01*
X15426535Y-6458875D01*
X15426535Y-6515444D01*
X15483104Y-6515444D01*
X15547684Y-7902284D02*
X15547684Y-7845715D01*
X15491115Y-7845715D01*
X15491115Y-7902284D01*
X15547684Y-7902284D01*
X15547684Y-8664285D02*
X15547684Y-8607716D01*
X15491115Y-8607716D01*
X15491115Y-8664285D01*
X15547684Y-8664285D01*
X15577084Y-9604085D02*
X15577084Y-9547516D01*
X15520515Y-9547516D01*
X15520515Y-9604085D01*
X15577084Y-9604085D01*
X15598484Y-11531944D02*
X15598484Y-11475375D01*
X15541915Y-11475375D01*
X15541915Y-11531944D01*
X15598484Y-11531944D01*
X15598484Y-11785944D02*
X15598484Y-11729375D01*
X15541915Y-11729375D01*
X15541915Y-11785944D01*
X15598484Y-11785944D01*
X15598484Y-12039944D02*
X15598484Y-11983375D01*
X15541915Y-11983375D01*
X15541915Y-12039944D01*
X15598484Y-12039944D01*
X15598484Y-12293944D02*
X15598484Y-12237375D01*
X15541915Y-12237375D01*
X15541915Y-12293944D01*
X15598484Y-12293944D01*
X15598484Y-12547944D02*
X15598484Y-12491375D01*
X15541915Y-12491375D01*
X15541915Y-12547944D01*
X15598484Y-12547944D01*
X15598484Y-12801944D02*
X15598484Y-12745375D01*
X15541915Y-12745375D01*
X15541915Y-12801944D01*
X15598484Y-12801944D01*
X15602484Y-7546684D02*
X15602484Y-7490115D01*
X15545915Y-7490115D01*
X15545915Y-7546684D01*
X15602484Y-7546684D01*
X15608644Y-10731845D02*
X15608644Y-10675276D01*
X15552075Y-10675276D01*
X15552075Y-10731845D01*
X15608644Y-10731845D01*
X15733104Y-5550245D02*
X15733104Y-5493676D01*
X15676535Y-5493676D01*
X15676535Y-5550245D01*
X15733104Y-5550245D01*
X15733104Y-6048084D02*
X15733104Y-5991515D01*
X15676535Y-5991515D01*
X15676535Y-6048084D01*
X15733104Y-6048084D01*
X15733104Y-6515444D02*
X15733104Y-6458875D01*
X15676535Y-6458875D01*
X15676535Y-6515444D01*
X15733104Y-6515444D01*
X15801684Y-7902284D02*
X15801684Y-7845715D01*
X15745115Y-7845715D01*
X15745115Y-7902284D01*
X15801684Y-7902284D01*
X15801684Y-8664285D02*
X15801684Y-8607716D01*
X15745115Y-8607716D01*
X15745115Y-8664285D01*
X15801684Y-8664285D01*
X15827084Y-9604085D02*
X15827084Y-9547516D01*
X15770515Y-9547516D01*
X15770515Y-9604085D01*
X15827084Y-9604085D01*
X15852484Y-7546684D02*
X15852484Y-7490115D01*
X15795915Y-7490115D01*
X15795915Y-7546684D01*
X15852484Y-7546684D01*
X15858644Y-10731845D02*
X15858644Y-10675276D01*
X15802075Y-10675276D01*
X15802075Y-10731845D01*
X15858644Y-10731845D01*
X15903284Y-10061285D02*
X15903284Y-10004716D01*
X15846715Y-10004716D01*
X15846715Y-10061285D01*
X15903284Y-10061285D01*
X16335084Y-11051885D02*
X16335084Y-10995316D01*
X16278515Y-10995316D01*
X16278515Y-11051885D01*
X16335084Y-11051885D01*
X16345244Y-10620085D02*
X16345244Y-10563516D01*
X16288675Y-10563516D01*
X16288675Y-10620085D01*
X16345244Y-10620085D01*
X16345244Y-11483684D02*
X16345244Y-11427115D01*
X16288675Y-11427115D01*
X16288675Y-11483684D01*
X16345244Y-11483684D01*
X16360484Y-9248485D02*
X16360484Y-9191916D01*
X16303915Y-9191916D01*
X16303915Y-9248485D01*
X16360484Y-9248485D01*
X16360484Y-9705685D02*
X16360484Y-9649116D01*
X16303915Y-9649116D01*
X16303915Y-9705685D01*
X16360484Y-9705685D01*
X16360484Y-10162885D02*
X16360484Y-10106316D01*
X16303915Y-10106316D01*
X16303915Y-10162885D01*
X16360484Y-10162885D01*
X16360484Y-12372684D02*
X16360484Y-12316115D01*
X16303915Y-12316115D01*
X16303915Y-12372684D01*
X16360484Y-12372684D01*
X16364484Y-11890084D02*
X16364484Y-11833515D01*
X16307915Y-11833515D01*
X16307915Y-11890084D01*
X16364484Y-11890084D01*
X16370644Y-7881964D02*
X16370644Y-7825395D01*
X16314075Y-7825395D01*
X16314075Y-7881964D01*
X16370644Y-7881964D01*
X16370644Y-8334084D02*
X16370644Y-8277515D01*
X16314075Y-8277515D01*
X16314075Y-8334084D01*
X16370644Y-8334084D01*
X16370644Y-8791285D02*
X16370644Y-8734716D01*
X16314075Y-8734716D01*
X16314075Y-8791285D01*
X16370644Y-8791285D01*
X16610484Y-12372684D02*
X16610484Y-12316115D01*
X16553915Y-12316115D01*
X16553915Y-12372684D01*
X16610484Y-12372684D01*
X16614484Y-11890084D02*
X16614484Y-11833515D01*
X16557915Y-11833515D01*
X16557915Y-11890084D01*
X16614484Y-11890084D01*
X17351085Y-11051885D02*
X17351085Y-10995316D01*
X17294516Y-10995316D01*
X17294516Y-11051885D01*
X17351085Y-11051885D01*
X17361245Y-10620085D02*
X17361245Y-10563516D01*
X17304676Y-10563516D01*
X17304676Y-10620085D01*
X17361245Y-10620085D01*
X17361245Y-11483684D02*
X17361245Y-11427115D01*
X17304676Y-11427115D01*
X17304676Y-11483684D01*
X17361245Y-11483684D01*
X17376485Y-9248485D02*
X17376485Y-9191916D01*
X17319916Y-9191916D01*
X17319916Y-9248485D01*
X17376485Y-9248485D01*
X17376485Y-9705685D02*
X17376485Y-9649116D01*
X17319916Y-9649116D01*
X17319916Y-9705685D01*
X17376485Y-9705685D01*
X17376485Y-10162885D02*
X17376485Y-10106316D01*
X17319916Y-10106316D01*
X17319916Y-10162885D01*
X17376485Y-10162885D01*
X17386645Y-7881964D02*
X17386645Y-7825395D01*
X17330076Y-7825395D01*
X17330076Y-7881964D01*
X17386645Y-7881964D01*
X17386645Y-8334084D02*
X17386645Y-8277515D01*
X17330076Y-8277515D01*
X17330076Y-8334084D01*
X17386645Y-8334084D01*
X17386645Y-8791285D02*
X17386645Y-8734716D01*
X17330076Y-8734716D01*
X17330076Y-8791285D01*
X17386645Y-8791285D01*
X17920045Y-8110564D02*
X17920045Y-8053995D01*
X17863476Y-8053995D01*
X17863476Y-8110564D01*
X17920045Y-8110564D01*
X17920045Y-8847165D02*
X17920045Y-8790596D01*
X17863476Y-8790596D01*
X17863476Y-8847165D01*
X17920045Y-8847165D01*
X17920045Y-9583765D02*
X17920045Y-9527196D01*
X17863476Y-9527196D01*
X17863476Y-9583765D01*
X17920045Y-9583765D01*
X17920045Y-10320365D02*
X17920045Y-10263796D01*
X17863476Y-10263796D01*
X17863476Y-10320365D01*
X17920045Y-10320365D01*
X17920045Y-11056965D02*
X17920045Y-11000396D01*
X17863476Y-11000396D01*
X17863476Y-11056965D01*
X17920045Y-11056965D01*
X17920045Y-11793564D02*
X17920045Y-11736995D01*
X17863476Y-11736995D01*
X17863476Y-11793564D01*
X17920045Y-11793564D01*
X17945445Y-7373964D02*
X17945445Y-7317395D01*
X17888876Y-7317395D01*
X17888876Y-7373964D01*
X17945445Y-7373964D01*
X18036885Y-5540085D02*
X18036885Y-5483516D01*
X17980316Y-5483516D01*
X17980316Y-5540085D01*
X18036885Y-5540085D01*
X18036885Y-6556084D02*
X18036885Y-6499515D01*
X17980316Y-6499515D01*
X17980316Y-6556084D01*
X18036885Y-6556084D01*
X18170045Y-8110564D02*
X18170045Y-8053995D01*
X18113476Y-8053995D01*
X18113476Y-8110564D01*
X18170045Y-8110564D01*
X18170045Y-8847165D02*
X18170045Y-8790596D01*
X18113476Y-8790596D01*
X18113476Y-8847165D01*
X18170045Y-8847165D01*
X18170045Y-9583765D02*
X18170045Y-9527196D01*
X18113476Y-9527196D01*
X18113476Y-9583765D01*
X18170045Y-9583765D01*
X18170045Y-10320365D02*
X18170045Y-10263796D01*
X18113476Y-10263796D01*
X18113476Y-10320365D01*
X18170045Y-10320365D01*
X18170045Y-11056965D02*
X18170045Y-11000396D01*
X18113476Y-11000396D01*
X18113476Y-11056965D01*
X18170045Y-11056965D01*
X18170045Y-11793564D02*
X18170045Y-11736995D01*
X18113476Y-11736995D01*
X18113476Y-11793564D01*
X18170045Y-11793564D01*
X18195445Y-7373964D02*
X18195445Y-7317395D01*
X18138876Y-7317395D01*
X18138876Y-7373964D01*
X18195445Y-7373964D01*
X18697285Y-12550484D02*
X18697285Y-12493915D01*
X18640716Y-12493915D01*
X18640716Y-12550484D01*
X18697285Y-12550484D01*
X18697285Y-13007684D02*
X18697285Y-12951115D01*
X18640716Y-12951115D01*
X18640716Y-13007684D01*
X18697285Y-13007684D01*
X18722685Y-12093284D02*
X18722685Y-12036715D01*
X18666116Y-12036715D01*
X18666116Y-12093284D01*
X18722685Y-12093284D01*
X19713285Y-12550484D02*
X19713285Y-12493915D01*
X19656716Y-12493915D01*
X19656716Y-12550484D01*
X19713285Y-12550484D01*
X19713285Y-13007684D02*
X19713285Y-12951115D01*
X19656716Y-12951115D01*
X19656716Y-13007684D01*
X19713285Y-13007684D01*
X19738685Y-12093284D02*
X19738685Y-12036715D01*
X19682116Y-12036715D01*
X19682116Y-12093284D01*
X19738685Y-12093284D01*
X18901000Y-10608500D02*
X18945500Y-10564000D01*
X18901000Y-10519500D01*
X18856500Y-10564000D01*
X18901000Y-10608500D01*
X18901000Y-11278500D02*
X18945500Y-11234000D01*
X18901000Y-11189500D01*
X18856500Y-11234000D01*
X18901000Y-11278500D01*
X19150000Y-10608500D02*
X19194500Y-10564000D01*
X19150000Y-10519500D01*
X19105500Y-10564000D01*
X19150000Y-10608500D01*
X19150000Y-11278500D02*
X19194500Y-11234000D01*
X19150000Y-11189500D01*
X19105500Y-11234000D01*
X19150000Y-11278500D01*
X19055800Y-13772600D02*
X19145800Y-13862600D01*
X19145800Y-13772600D02*
X19055800Y-13862600D01*
X19145800Y-13817600D02*
G75*
G03*
X19145800Y-13817600I-45000J0D01*
G01*
X19309800Y-13772600D02*
X19399800Y-13862600D01*
X19399800Y-13772600D02*
X19309800Y-13862600D01*
X19399800Y-13817600D02*
G75*
G03*
X19399800Y-13817600I-45000J0D01*
G01*
X18852500Y-7190500D02*
X18949500Y-7287500D01*
X18949500Y-7190500D02*
X18852500Y-7287500D01*
X18901000Y-7190500D02*
X18901000Y-7287500D01*
X18852500Y-7239000D02*
X18949500Y-7239000D01*
X18852500Y-7444500D02*
X18949500Y-7541500D01*
X18949500Y-7444500D02*
X18852500Y-7541500D01*
X18901000Y-7444500D02*
X18901000Y-7541500D01*
X18852500Y-7493000D02*
X18949500Y-7493000D01*
X18852500Y-7655500D02*
X18949500Y-7752500D01*
X18949500Y-7655500D02*
X18852500Y-7752500D01*
X18901000Y-7655500D02*
X18901000Y-7752500D01*
X18852500Y-7704000D02*
X18949500Y-7704000D01*
X18852500Y-7860500D02*
X18949500Y-7957500D01*
X18949500Y-7860500D02*
X18852500Y-7957500D01*
X18901000Y-7860500D02*
X18901000Y-7957500D01*
X18852500Y-7909000D02*
X18949500Y-7909000D01*
X19101500Y-7190500D02*
X19198500Y-7287500D01*
X19198500Y-7190500D02*
X19101500Y-7287500D01*
X19150000Y-7190500D02*
X19150000Y-7287500D01*
X19101500Y-7239000D02*
X19198500Y-7239000D01*
X19101500Y-7395500D02*
X19198500Y-7492500D01*
X19198500Y-7395500D02*
X19101500Y-7492500D01*
X19150000Y-7395500D02*
X19150000Y-7492500D01*
X19101500Y-7444000D02*
X19198500Y-7444000D01*
X19101500Y-7655500D02*
X19198500Y-7752500D01*
X19198500Y-7655500D02*
X19101500Y-7752500D01*
X19150000Y-7655500D02*
X19150000Y-7752500D01*
X19101500Y-7704000D02*
X19198500Y-7704000D01*
X19101500Y-7860500D02*
X19198500Y-7957500D01*
X19198500Y-7860500D02*
X19101500Y-7957500D01*
X19150000Y-7860500D02*
X19150000Y-7957500D01*
X19101500Y-7909000D02*
X19198500Y-7909000D01*
X10592600Y-13920000D02*
X10692600Y-14020000D01*
X10692600Y-13920000D02*
X10592600Y-14020000D01*
X10677956Y-14005356D02*
X10677956Y-13934644D01*
X10607244Y-13934644D01*
X10607244Y-14005356D01*
X10677956Y-14005356D01*
X10592600Y-14428000D02*
X10692600Y-14528000D01*
X10692600Y-14428000D02*
X10592600Y-14528000D01*
X10677956Y-14513356D02*
X10677956Y-14442644D01*
X10607244Y-14442644D01*
X10607244Y-14513356D01*
X10677956Y-14513356D01*
X10846600Y-13920000D02*
X10946600Y-14020000D01*
X10946600Y-13920000D02*
X10846600Y-14020000D01*
X10931956Y-14005356D02*
X10931956Y-13934644D01*
X10861244Y-13934644D01*
X10861244Y-14005356D01*
X10931956Y-14005356D01*
X10846600Y-14428000D02*
X10946600Y-14528000D01*
X10946600Y-14428000D02*
X10846600Y-14528000D01*
X10931956Y-14513356D02*
X10931956Y-14442644D01*
X10861244Y-14442644D01*
X10861244Y-14513356D01*
X10931956Y-14513356D01*
X11100600Y-13920000D02*
X11200600Y-14020000D01*
X11200600Y-13920000D02*
X11100600Y-14020000D01*
X11185956Y-14005356D02*
X11185956Y-13934644D01*
X11115244Y-13934644D01*
X11115244Y-14005356D01*
X11185956Y-14005356D01*
X11100600Y-14428000D02*
X11200600Y-14528000D01*
X11200600Y-14428000D02*
X11100600Y-14528000D01*
X11185956Y-14513356D02*
X11185956Y-14442644D01*
X11115244Y-14442644D01*
X11115244Y-14513356D01*
X11185956Y-14513356D01*
X11354600Y-13920000D02*
X11454600Y-14020000D01*
X11454600Y-13920000D02*
X11354600Y-14020000D01*
X11439956Y-14005356D02*
X11439956Y-13934644D01*
X11369244Y-13934644D01*
X11369244Y-14005356D01*
X11439956Y-14005356D01*
X11354600Y-14428000D02*
X11454600Y-14528000D01*
X11454600Y-14428000D02*
X11354600Y-14528000D01*
X11439956Y-14513356D02*
X11439956Y-14442644D01*
X11369244Y-14442644D01*
X11369244Y-14513356D01*
X11439956Y-14513356D01*
X11608600Y-13920000D02*
X11708600Y-14020000D01*
X11708600Y-13920000D02*
X11608600Y-14020000D01*
X11693956Y-14005356D02*
X11693956Y-13934644D01*
X11623244Y-13934644D01*
X11623244Y-14005356D01*
X11693956Y-14005356D01*
X11608600Y-14428000D02*
X11708600Y-14528000D01*
X11708600Y-14428000D02*
X11608600Y-14528000D01*
X11693956Y-14513356D02*
X11693956Y-14442644D01*
X11623244Y-14442644D01*
X11623244Y-14513356D01*
X11693956Y-14513356D01*
X11862600Y-13920000D02*
X11962600Y-14020000D01*
X11962600Y-13920000D02*
X11862600Y-14020000D01*
X11947956Y-14005356D02*
X11947956Y-13934644D01*
X11877244Y-13934644D01*
X11877244Y-14005356D01*
X11947956Y-14005356D01*
X11862600Y-14428000D02*
X11962600Y-14528000D01*
X11962600Y-14428000D02*
X11862600Y-14528000D01*
X11947956Y-14513356D02*
X11947956Y-14442644D01*
X11877244Y-14442644D01*
X11877244Y-14513356D01*
X11947956Y-14513356D01*
X12116600Y-13920000D02*
X12216600Y-14020000D01*
X12216600Y-13920000D02*
X12116600Y-14020000D01*
X12201956Y-14005356D02*
X12201956Y-13934644D01*
X12131244Y-13934644D01*
X12131244Y-14005356D01*
X12201956Y-14005356D01*
X12116600Y-14428000D02*
X12216600Y-14528000D01*
X12216600Y-14428000D02*
X12116600Y-14528000D01*
X12201956Y-14513356D02*
X12201956Y-14442644D01*
X12131244Y-14442644D01*
X12131244Y-14513356D01*
X12201956Y-14513356D01*
X12370600Y-13920000D02*
X12470600Y-14020000D01*
X12470600Y-13920000D02*
X12370600Y-14020000D01*
X12455956Y-14005356D02*
X12455956Y-13934644D01*
X12385244Y-13934644D01*
X12385244Y-14005356D01*
X12455956Y-14005356D01*
X12370600Y-14428000D02*
X12470600Y-14528000D01*
X12470600Y-14428000D02*
X12370600Y-14528000D01*
X12455956Y-14513356D02*
X12455956Y-14442644D01*
X12385244Y-14442644D01*
X12385244Y-14513356D01*
X12455956Y-14513356D01*
X12624600Y-13920000D02*
X12724600Y-14020000D01*
X12724600Y-13920000D02*
X12624600Y-14020000D01*
X12709956Y-14005356D02*
X12709956Y-13934644D01*
X12639244Y-13934644D01*
X12639244Y-14005356D01*
X12709956Y-14005356D01*
X12624600Y-14428000D02*
X12724600Y-14528000D01*
X12724600Y-14428000D02*
X12624600Y-14528000D01*
X12709956Y-14513356D02*
X12709956Y-14442644D01*
X12639244Y-14442644D01*
X12639244Y-14513356D01*
X12709956Y-14513356D01*
X12878600Y-13920000D02*
X12978600Y-14020000D01*
X12978600Y-13920000D02*
X12878600Y-14020000D01*
X12963956Y-14005356D02*
X12963956Y-13934644D01*
X12893244Y-13934644D01*
X12893244Y-14005356D01*
X12963956Y-14005356D01*
X12878600Y-14428000D02*
X12978600Y-14528000D01*
X12978600Y-14428000D02*
X12878600Y-14528000D01*
X12963956Y-14513356D02*
X12963956Y-14442644D01*
X12893244Y-14442644D01*
X12893244Y-14513356D01*
X12963956Y-14513356D01*
X13132600Y-13920000D02*
X13232600Y-14020000D01*
X13232600Y-13920000D02*
X13132600Y-14020000D01*
X13217956Y-14005356D02*
X13217956Y-13934644D01*
X13147244Y-13934644D01*
X13147244Y-14005356D01*
X13217956Y-14005356D01*
X13132600Y-14428000D02*
X13232600Y-14528000D01*
X13232600Y-14428000D02*
X13132600Y-14528000D01*
X13217956Y-14513356D02*
X13217956Y-14442644D01*
X13147244Y-14442644D01*
X13147244Y-14513356D01*
X13217956Y-14513356D01*
X13386600Y-13920000D02*
X13486600Y-14020000D01*
X13486600Y-13920000D02*
X13386600Y-14020000D01*
X13471956Y-14005356D02*
X13471956Y-13934644D01*
X13401244Y-13934644D01*
X13401244Y-14005356D01*
X13471956Y-14005356D01*
X13386600Y-14428000D02*
X13486600Y-14528000D01*
X13486600Y-14428000D02*
X13386600Y-14528000D01*
X13471956Y-14513356D02*
X13471956Y-14442644D01*
X13401244Y-14442644D01*
X13401244Y-14513356D01*
X13471956Y-14513356D01*
X13640600Y-13920000D02*
X13740600Y-14020000D01*
X13740600Y-13920000D02*
X13640600Y-14020000D01*
X13725956Y-14005356D02*
X13725956Y-13934644D01*
X13655244Y-13934644D01*
X13655244Y-14005356D01*
X13725956Y-14005356D01*
X13640600Y-14428000D02*
X13740600Y-14528000D01*
X13740600Y-14428000D02*
X13640600Y-14528000D01*
X13725956Y-14513356D02*
X13725956Y-14442644D01*
X13655244Y-14442644D01*
X13655244Y-14513356D01*
X13725956Y-14513356D01*
X13894600Y-13920000D02*
X13994600Y-14020000D01*
X13994600Y-13920000D02*
X13894600Y-14020000D01*
X13979956Y-14005356D02*
X13979956Y-13934644D01*
X13909244Y-13934644D01*
X13909244Y-14005356D01*
X13979956Y-14005356D01*
X13894600Y-14428000D02*
X13994600Y-14528000D01*
X13994600Y-14428000D02*
X13894600Y-14528000D01*
X13979956Y-14513356D02*
X13979956Y-14442644D01*
X13909244Y-14442644D01*
X13909244Y-14513356D01*
X13979956Y-14513356D01*
X14148600Y-13920000D02*
X14248600Y-14020000D01*
X14248600Y-13920000D02*
X14148600Y-14020000D01*
X14233956Y-14005356D02*
X14233956Y-13934644D01*
X14163244Y-13934644D01*
X14163244Y-14005356D01*
X14233956Y-14005356D01*
X14148600Y-14428000D02*
X14248600Y-14528000D01*
X14248600Y-14428000D02*
X14148600Y-14528000D01*
X14233956Y-14513356D02*
X14233956Y-14442644D01*
X14163244Y-14442644D01*
X14163244Y-14513356D01*
X14233956Y-14513356D01*
X14402600Y-13920000D02*
X14502600Y-14020000D01*
X14502600Y-13920000D02*
X14402600Y-14020000D01*
X14487956Y-14005356D02*
X14487956Y-13934644D01*
X14417244Y-13934644D01*
X14417244Y-14005356D01*
X14487956Y-14005356D01*
X14402600Y-14428000D02*
X14502600Y-14528000D01*
X14502600Y-14428000D02*
X14402600Y-14528000D01*
X14487956Y-14513356D02*
X14487956Y-14442644D01*
X14417244Y-14442644D01*
X14417244Y-14513356D01*
X14487956Y-14513356D01*
X14656600Y-13920000D02*
X14756600Y-14020000D01*
X14756600Y-13920000D02*
X14656600Y-14020000D01*
X14741956Y-14005356D02*
X14741956Y-13934644D01*
X14671244Y-13934644D01*
X14671244Y-14005356D01*
X14741956Y-14005356D01*
X14656600Y-14428000D02*
X14756600Y-14528000D01*
X14756600Y-14428000D02*
X14656600Y-14528000D01*
X14741956Y-14513356D02*
X14741956Y-14442644D01*
X14671244Y-14442644D01*
X14671244Y-14513356D01*
X14741956Y-14513356D01*
X14910600Y-13920000D02*
X15010600Y-14020000D01*
X15010600Y-13920000D02*
X14910600Y-14020000D01*
X14995956Y-14005356D02*
X14995956Y-13934644D01*
X14925244Y-13934644D01*
X14925244Y-14005356D01*
X14995956Y-14005356D01*
X14910600Y-14428000D02*
X15010600Y-14528000D01*
X15010600Y-14428000D02*
X14910600Y-14528000D01*
X14995956Y-14513356D02*
X14995956Y-14442644D01*
X14925244Y-14442644D01*
X14925244Y-14513356D01*
X14995956Y-14513356D01*
X15164600Y-13920000D02*
X15264600Y-14020000D01*
X15264600Y-13920000D02*
X15164600Y-14020000D01*
X15249956Y-14005356D02*
X15249956Y-13934644D01*
X15179244Y-13934644D01*
X15179244Y-14005356D01*
X15249956Y-14005356D01*
X15164600Y-14428000D02*
X15264600Y-14528000D01*
X15264600Y-14428000D02*
X15164600Y-14528000D01*
X15249956Y-14513356D02*
X15249956Y-14442644D01*
X15179244Y-14442644D01*
X15179244Y-14513356D01*
X15249956Y-14513356D01*
X15418600Y-13920000D02*
X15518600Y-14020000D01*
X15518600Y-13920000D02*
X15418600Y-14020000D01*
X15503956Y-14005356D02*
X15503956Y-13934644D01*
X15433244Y-13934644D01*
X15433244Y-14005356D01*
X15503956Y-14005356D01*
X15418600Y-14428000D02*
X15518600Y-14528000D01*
X15518600Y-14428000D02*
X15418600Y-14528000D01*
X15503956Y-14513356D02*
X15503956Y-14442644D01*
X15433244Y-14442644D01*
X15433244Y-14513356D01*
X15503956Y-14513356D01*
X15672600Y-13920000D02*
X15772600Y-14020000D01*
X15772600Y-13920000D02*
X15672600Y-14020000D01*
X15757956Y-14005356D02*
X15757956Y-13934644D01*
X15687244Y-13934644D01*
X15687244Y-14005356D01*
X15757956Y-14005356D01*
X15672600Y-14428000D02*
X15772600Y-14528000D01*
X15772600Y-14428000D02*
X15672600Y-14528000D01*
X15757956Y-14513356D02*
X15757956Y-14442644D01*
X15687244Y-14442644D01*
X15687244Y-14513356D01*
X15757956Y-14513356D01*
X15926600Y-13920000D02*
X16026600Y-14020000D01*
X16026600Y-13920000D02*
X15926600Y-14020000D01*
X16011956Y-14005356D02*
X16011956Y-13934644D01*
X15941244Y-13934644D01*
X15941244Y-14005356D01*
X16011956Y-14005356D01*
X15926600Y-14428000D02*
X16026600Y-14528000D01*
X16026600Y-14428000D02*
X15926600Y-14528000D01*
X16011956Y-14513356D02*
X16011956Y-14442644D01*
X15941244Y-14442644D01*
X15941244Y-14513356D01*
X16011956Y-14513356D01*
X16180600Y-13920000D02*
X16280600Y-14020000D01*
X16280600Y-13920000D02*
X16180600Y-14020000D01*
X16265956Y-14005356D02*
X16265956Y-13934644D01*
X16195244Y-13934644D01*
X16195244Y-14005356D01*
X16265956Y-14005356D01*
X16180600Y-14428000D02*
X16280600Y-14528000D01*
X16280600Y-14428000D02*
X16180600Y-14528000D01*
X16265956Y-14513356D02*
X16265956Y-14442644D01*
X16195244Y-14442644D01*
X16195244Y-14513356D01*
X16265956Y-14513356D01*
X16434600Y-13920000D02*
X16534600Y-14020000D01*
X16534600Y-13920000D02*
X16434600Y-14020000D01*
X16519956Y-14005356D02*
X16519956Y-13934644D01*
X16449244Y-13934644D01*
X16449244Y-14005356D01*
X16519956Y-14005356D01*
X16434600Y-14428000D02*
X16534600Y-14528000D01*
X16534600Y-14428000D02*
X16434600Y-14528000D01*
X16519956Y-14513356D02*
X16519956Y-14442644D01*
X16449244Y-14442644D01*
X16449244Y-14513356D01*
X16519956Y-14513356D01*
X16688600Y-13920000D02*
X16788600Y-14020000D01*
X16788600Y-13920000D02*
X16688600Y-14020000D01*
X16773956Y-14005356D02*
X16773956Y-13934644D01*
X16703244Y-13934644D01*
X16703244Y-14005356D01*
X16773956Y-14005356D01*
X16688600Y-14428000D02*
X16788600Y-14528000D01*
X16788600Y-14428000D02*
X16688600Y-14528000D01*
X16773956Y-14513356D02*
X16773956Y-14442644D01*
X16703244Y-14442644D01*
X16703244Y-14513356D01*
X16773956Y-14513356D01*
X16942600Y-13920000D02*
X17042600Y-14020000D01*
X17042600Y-13920000D02*
X16942600Y-14020000D01*
X17027956Y-14005356D02*
X17027956Y-13934644D01*
X16957244Y-13934644D01*
X16957244Y-14005356D01*
X17027956Y-14005356D01*
X16942600Y-14428000D02*
X17042600Y-14528000D01*
X17042600Y-14428000D02*
X16942600Y-14528000D01*
X17027956Y-14513356D02*
X17027956Y-14442644D01*
X16957244Y-14442644D01*
X16957244Y-14513356D01*
X17027956Y-14513356D01*
X17095000Y-12015000D02*
X17195000Y-12115000D01*
X17195000Y-12015000D02*
X17095000Y-12115000D01*
X17180356Y-12100356D02*
X17180356Y-12029644D01*
X17109644Y-12029644D01*
X17109644Y-12100356D01*
X17180356Y-12100356D01*
X17095000Y-12269000D02*
X17195000Y-12369000D01*
X17195000Y-12269000D02*
X17095000Y-12369000D01*
X17180356Y-12354356D02*
X17180356Y-12283644D01*
X17109644Y-12283644D01*
X17109644Y-12354356D01*
X17180356Y-12354356D01*
X17095000Y-12523000D02*
X17195000Y-12623000D01*
X17195000Y-12523000D02*
X17095000Y-12623000D01*
X17180356Y-12608356D02*
X17180356Y-12537644D01*
X17109644Y-12537644D01*
X17109644Y-12608356D01*
X17180356Y-12608356D01*
X17095000Y-12777000D02*
X17195000Y-12877000D01*
X17195000Y-12777000D02*
X17095000Y-12877000D01*
X17180356Y-12862356D02*
X17180356Y-12791644D01*
X17109644Y-12791644D01*
X17109644Y-12862356D01*
X17180356Y-12862356D01*
X17095000Y-13031000D02*
X17195000Y-13131000D01*
X17195000Y-13031000D02*
X17095000Y-13131000D01*
X17180356Y-13116356D02*
X17180356Y-13045644D01*
X17109644Y-13045644D01*
X17109644Y-13116356D01*
X17180356Y-13116356D01*
X17095000Y-13285000D02*
X17195000Y-13385000D01*
X17195000Y-13285000D02*
X17095000Y-13385000D01*
X17180356Y-13370356D02*
X17180356Y-13299644D01*
X17109644Y-13299644D01*
X17109644Y-13370356D01*
X17180356Y-13370356D01*
X17196600Y-13920000D02*
X17296600Y-14020000D01*
X17296600Y-13920000D02*
X17196600Y-14020000D01*
X17281956Y-14005356D02*
X17281956Y-13934644D01*
X17211244Y-13934644D01*
X17211244Y-14005356D01*
X17281956Y-14005356D01*
X17196600Y-14428000D02*
X17296600Y-14528000D01*
X17296600Y-14428000D02*
X17196600Y-14528000D01*
X17281956Y-14513356D02*
X17281956Y-14442644D01*
X17211244Y-14442644D01*
X17211244Y-14513356D01*
X17281956Y-14513356D01*
X17450600Y-13920000D02*
X17550600Y-14020000D01*
X17550600Y-13920000D02*
X17450600Y-14020000D01*
X17535956Y-14005356D02*
X17535956Y-13934644D01*
X17465244Y-13934644D01*
X17465244Y-14005356D01*
X17535956Y-14005356D01*
X17450600Y-14428000D02*
X17550600Y-14528000D01*
X17550600Y-14428000D02*
X17450600Y-14528000D01*
X17535956Y-14513356D02*
X17535956Y-14442644D01*
X17465244Y-14442644D01*
X17465244Y-14513356D01*
X17535956Y-14513356D01*
X17704600Y-13920000D02*
X17804600Y-14020000D01*
X17804600Y-13920000D02*
X17704600Y-14020000D01*
X17789956Y-14005356D02*
X17789956Y-13934644D01*
X17719244Y-13934644D01*
X17719244Y-14005356D01*
X17789956Y-14005356D01*
X17704600Y-14428000D02*
X17804600Y-14528000D01*
X17804600Y-14428000D02*
X17704600Y-14528000D01*
X17789956Y-14513356D02*
X17789956Y-14442644D01*
X17719244Y-14442644D01*
X17719244Y-14513356D01*
X17789956Y-14513356D01*
X17958600Y-13920000D02*
X18058600Y-14020000D01*
X18058600Y-13920000D02*
X17958600Y-14020000D01*
X18043956Y-14005356D02*
X18043956Y-13934644D01*
X17973244Y-13934644D01*
X17973244Y-14005356D01*
X18043956Y-14005356D01*
X17958600Y-14428000D02*
X18058600Y-14528000D01*
X18058600Y-14428000D02*
X17958600Y-14528000D01*
X18043956Y-14513356D02*
X18043956Y-14442644D01*
X17973244Y-14442644D01*
X17973244Y-14513356D01*
X18043956Y-14513356D01*
X18212600Y-13920000D02*
X18312600Y-14020000D01*
X18312600Y-13920000D02*
X18212600Y-14020000D01*
X18297956Y-14005356D02*
X18297956Y-13934644D01*
X18227244Y-13934644D01*
X18227244Y-14005356D01*
X18297956Y-14005356D01*
X18212600Y-14428000D02*
X18312600Y-14528000D01*
X18312600Y-14428000D02*
X18212600Y-14528000D01*
X18297956Y-14513356D02*
X18297956Y-14442644D01*
X18227244Y-14442644D01*
X18227244Y-14513356D01*
X18297956Y-14513356D01*
X18466600Y-13920000D02*
X18566600Y-14020000D01*
X18566600Y-13920000D02*
X18466600Y-14020000D01*
X18551956Y-14005356D02*
X18551956Y-13934644D01*
X18481244Y-13934644D01*
X18481244Y-14005356D01*
X18551956Y-14005356D01*
X18466600Y-14428000D02*
X18566600Y-14528000D01*
X18566600Y-14428000D02*
X18466600Y-14528000D01*
X18551956Y-14513356D02*
X18551956Y-14442644D01*
X18481244Y-14442644D01*
X18481244Y-14513356D01*
X18551956Y-14513356D01*
X10331600Y-11964600D02*
X10481600Y-12114600D01*
X10481600Y-11964600D02*
X10331600Y-12114600D01*
X10406600Y-12114600D02*
X10481600Y-12039600D01*
X10406600Y-11964600D01*
X10331600Y-12039600D01*
X10406600Y-12114600D01*
X10821600Y-11964600D02*
X10971600Y-12114600D01*
X10971600Y-11964600D02*
X10821600Y-12114600D01*
X10896600Y-12114600D02*
X10971600Y-12039600D01*
X10896600Y-11964600D01*
X10821600Y-12039600D01*
X10896600Y-12114600D01*
X15081400Y-9018200D02*
X15231400Y-9168200D01*
X15231400Y-9018200D02*
X15081400Y-9168200D01*
X15156400Y-9168200D02*
X15231400Y-9093200D01*
X15156400Y-9018200D01*
X15081400Y-9093200D01*
X15156400Y-9168200D01*
X15571400Y-9018200D02*
X15721400Y-9168200D01*
X15721400Y-9018200D02*
X15571400Y-9168200D01*
X15646400Y-9168200D02*
X15721400Y-9093200D01*
X15646400Y-9018200D01*
X15571400Y-9093200D01*
X15646400Y-9168200D01*
X19450000Y-10108500D02*
X19450000Y-10337500D01*
X19335500Y-10223000D02*
X19564500Y-10223000D01*
X19564500Y-10223000D02*
G75*
G03*
X19564500Y-10223000I-114500J0D01*
G01*
X19450000Y-11460500D02*
X19450000Y-11689500D01*
X19335500Y-11575000D02*
X19564500Y-11575000D01*
X19564500Y-11575000D02*
G75*
G03*
X19564500Y-11575000I-114500J0D01*
G01*
X19531000Y-10784500D02*
X19531000Y-11013500D01*
X19416500Y-10899000D02*
X19645500Y-10899000D01*
X19645500Y-10899000D02*
G75*
G03*
X19645500Y-10899000I-114500J0D01*
G01*
X19533793Y-6981793D02*
X19533793Y-6814207D01*
X19366207Y-6814207D01*
X19366207Y-6981793D01*
X19533793Y-6981793D01*
X19568500Y-6898000D02*
G75*
G03*
X19568500Y-6898000I-118500J0D01*
G01*
X19533793Y-8333793D02*
X19533793Y-8166207D01*
X19366207Y-8166207D01*
X19366207Y-8333793D01*
X19533793Y-8333793D01*
X19568500Y-8250000D02*
G75*
G03*
X19568500Y-8250000I-118500J0D01*
G01*
X19614793Y-7657793D02*
X19614793Y-7490207D01*
X19447207Y-7490207D01*
X19447207Y-7657793D01*
X19614793Y-7657793D01*
X19649500Y-7574000D02*
G75*
G03*
X19649500Y-7574000I-118500J0D01*
G01*
X19150000Y-9346000D02*
X19271000Y-9225000D01*
X19150000Y-9104000D01*
X19029000Y-9225000D01*
X19150000Y-9346000D01*
X19271000Y-9225000D02*
G75*
G03*
X19271000Y-9225000I-121000J0D01*
G01*
X19600000Y-9099500D02*
X19600000Y-9350500D01*
X19474500Y-9225000D02*
X19725500Y-9225000D01*
X19688743Y-9313743D02*
X19688743Y-9136257D01*
X19511257Y-9136257D01*
X19511257Y-9313743D01*
X19688743Y-9313743D01*
D12*
X5533928Y-15468214D02*
X5533928Y-15168214D01*
X5605357Y-15168214D01*
X5648214Y-15182500D01*
X5676786Y-15211071D01*
X5691071Y-15239643D01*
X5705357Y-15296786D01*
X5705357Y-15339643D01*
X5691071Y-15396786D01*
X5676786Y-15425357D01*
X5648214Y-15453929D01*
X5605357Y-15468214D01*
X5533928Y-15468214D01*
X5833928Y-15468214D02*
X5833928Y-15268214D01*
X5833928Y-15325357D02*
X5848214Y-15296786D01*
X5862500Y-15282500D01*
X5891071Y-15268214D01*
X5919643Y-15268214D01*
X6019643Y-15468214D02*
X6019643Y-15268214D01*
X6019643Y-15168214D02*
X6005357Y-15182500D01*
X6019643Y-15196786D01*
X6033928Y-15182500D01*
X6019643Y-15168214D01*
X6019643Y-15196786D01*
X6205357Y-15468214D02*
X6176786Y-15453929D01*
X6162500Y-15425357D01*
X6162500Y-15168214D01*
X6362500Y-15468214D02*
X6333928Y-15453929D01*
X6319643Y-15425357D01*
X6319643Y-15168214D01*
X6705357Y-15468214D02*
X6705357Y-15168214D01*
X6805357Y-15382500D01*
X6905357Y-15168214D01*
X6905357Y-15468214D01*
X7176786Y-15468214D02*
X7176786Y-15311071D01*
X7162500Y-15282500D01*
X7133928Y-15268214D01*
X7076786Y-15268214D01*
X7048214Y-15282500D01*
X7176786Y-15453929D02*
X7148214Y-15468214D01*
X7076786Y-15468214D01*
X7048214Y-15453929D01*
X7033928Y-15425357D01*
X7033928Y-15396786D01*
X7048214Y-15368214D01*
X7076786Y-15353929D01*
X7148214Y-15353929D01*
X7176786Y-15339643D01*
X7319643Y-15268214D02*
X7319643Y-15568214D01*
X7319643Y-15282500D02*
X7348214Y-15268214D01*
X7405357Y-15268214D01*
X7433928Y-15282500D01*
X7448214Y-15296786D01*
X7462500Y-15325357D01*
X7462500Y-15411071D01*
X7448214Y-15439643D01*
X7433928Y-15453929D01*
X7405357Y-15468214D01*
X7348214Y-15468214D01*
X7319643Y-15453929D01*
X7591071Y-15439643D02*
X7605357Y-15453929D01*
X7591071Y-15468214D01*
X7576786Y-15453929D01*
X7591071Y-15439643D01*
X7591071Y-15468214D01*
X7591071Y-15282500D02*
X7605357Y-15296786D01*
X7591071Y-15311071D01*
X7576786Y-15296786D01*
X7591071Y-15282500D01*
X7591071Y-15311071D01*
X5207500Y-15942500D02*
X5247500Y-15982500D01*
X5247500Y-15942500D02*
X5207500Y-15982500D01*
X5591071Y-15798214D02*
X5619643Y-15798214D01*
X5648214Y-15812500D01*
X5662500Y-15826786D01*
X5676786Y-15855357D01*
X5691071Y-15912500D01*
X5691071Y-15983929D01*
X5676786Y-16041071D01*
X5662500Y-16069643D01*
X5648214Y-16083929D01*
X5619643Y-16098214D01*
X5591071Y-16098214D01*
X5562500Y-16083929D01*
X5548214Y-16069643D01*
X5533928Y-16041071D01*
X5519643Y-15983929D01*
X5519643Y-15912500D01*
X5533928Y-15855357D01*
X5548214Y-15826786D01*
X5562500Y-15812500D01*
X5591071Y-15798214D01*
X5819643Y-16069643D02*
X5833928Y-16083929D01*
X5819643Y-16098214D01*
X5805357Y-16083929D01*
X5819643Y-16069643D01*
X5819643Y-16098214D01*
X6091071Y-15898214D02*
X6091071Y-16098214D01*
X6019643Y-15783929D02*
X5948214Y-15998214D01*
X6133928Y-15998214D01*
X6305357Y-15798214D02*
X6333928Y-15798214D01*
X6362500Y-15812500D01*
X6376786Y-15826786D01*
X6391071Y-15855357D01*
X6405357Y-15912500D01*
X6405357Y-15983929D01*
X6391071Y-16041071D01*
X6376786Y-16069643D01*
X6362500Y-16083929D01*
X6333928Y-16098214D01*
X6305357Y-16098214D01*
X6276786Y-16083929D01*
X6262500Y-16069643D01*
X6248214Y-16041071D01*
X6233928Y-15983929D01*
X6233928Y-15912500D01*
X6248214Y-15855357D01*
X6262500Y-15826786D01*
X6276786Y-15812500D01*
X6305357Y-15798214D01*
X6591071Y-15798214D02*
X6619643Y-15798214D01*
X6648214Y-15812500D01*
X6662500Y-15826786D01*
X6676786Y-15855357D01*
X6691071Y-15912500D01*
X6691071Y-15983929D01*
X6676786Y-16041071D01*
X6662500Y-16069643D01*
X6648214Y-16083929D01*
X6619643Y-16098214D01*
X6591071Y-16098214D01*
X6562500Y-16083929D01*
X6548214Y-16069643D01*
X6533928Y-16041071D01*
X6519643Y-15983929D01*
X6519643Y-15912500D01*
X6533928Y-15855357D01*
X6548214Y-15826786D01*
X6562500Y-15812500D01*
X6591071Y-15798214D01*
X6819643Y-16098214D02*
X6819643Y-15898214D01*
X6819643Y-15926786D02*
X6833928Y-15912500D01*
X6862500Y-15898214D01*
X6905357Y-15898214D01*
X6933928Y-15912500D01*
X6948214Y-15941071D01*
X6948214Y-16098214D01*
X6948214Y-15941071D02*
X6962500Y-15912500D01*
X6991071Y-15898214D01*
X7033928Y-15898214D01*
X7062500Y-15912500D01*
X7076786Y-15941071D01*
X7076786Y-16098214D01*
X7219643Y-16098214D02*
X7219643Y-15898214D01*
X7219643Y-15926786D02*
X7233928Y-15912500D01*
X7262500Y-15898214D01*
X7305357Y-15898214D01*
X7333928Y-15912500D01*
X7348214Y-15941071D01*
X7348214Y-16098214D01*
X7348214Y-15941071D02*
X7362500Y-15912500D01*
X7391071Y-15898214D01*
X7433928Y-15898214D01*
X7462500Y-15912500D01*
X7476786Y-15941071D01*
X7476786Y-16098214D01*
X8062500Y-15783929D02*
X7805357Y-16169643D01*
X8448214Y-15798214D02*
X8476786Y-15798214D01*
X8505357Y-15812500D01*
X8519643Y-15826786D01*
X8533928Y-15855357D01*
X8548214Y-15912500D01*
X8548214Y-15983929D01*
X8533928Y-16041071D01*
X8519643Y-16069643D01*
X8505357Y-16083929D01*
X8476786Y-16098214D01*
X8448214Y-16098214D01*
X8419643Y-16083929D01*
X8405357Y-16069643D01*
X8391071Y-16041071D01*
X8376786Y-15983929D01*
X8376786Y-15912500D01*
X8391071Y-15855357D01*
X8405357Y-15826786D01*
X8419643Y-15812500D01*
X8448214Y-15798214D01*
X8676786Y-16069643D02*
X8691071Y-16083929D01*
X8676786Y-16098214D01*
X8662500Y-16083929D01*
X8676786Y-16069643D01*
X8676786Y-16098214D01*
X8876786Y-15798214D02*
X8905357Y-15798214D01*
X8933928Y-15812500D01*
X8948214Y-15826786D01*
X8962500Y-15855357D01*
X8976786Y-15912500D01*
X8976786Y-15983929D01*
X8962500Y-16041071D01*
X8948214Y-16069643D01*
X8933928Y-16083929D01*
X8905357Y-16098214D01*
X8876786Y-16098214D01*
X8848214Y-16083929D01*
X8833928Y-16069643D01*
X8819643Y-16041071D01*
X8805357Y-15983929D01*
X8805357Y-15912500D01*
X8819643Y-15855357D01*
X8833928Y-15826786D01*
X8848214Y-15812500D01*
X8876786Y-15798214D01*
X9262500Y-16098214D02*
X9091071Y-16098214D01*
X9176786Y-16098214D02*
X9176786Y-15798214D01*
X9148214Y-15841071D01*
X9119643Y-15869643D01*
X9091071Y-15883929D01*
X9533928Y-15798214D02*
X9391071Y-15798214D01*
X9376786Y-15941071D01*
X9391071Y-15926786D01*
X9419643Y-15912500D01*
X9491071Y-15912500D01*
X9519643Y-15926786D01*
X9533928Y-15941071D01*
X9548214Y-15969643D01*
X9548214Y-16041071D01*
X9533928Y-16069643D01*
X9519643Y-16083929D01*
X9491071Y-16098214D01*
X9419643Y-16098214D01*
X9391071Y-16083929D01*
X9376786Y-16069643D01*
X9648214Y-15798214D02*
X9848214Y-15798214D01*
X9719643Y-16098214D01*
X9948214Y-15798214D02*
X9948214Y-15855357D01*
X10062500Y-15798214D02*
X10062500Y-15855357D01*
X10505357Y-16212500D02*
X10491071Y-16198214D01*
X10462500Y-16155357D01*
X10448214Y-16126786D01*
X10433928Y-16083929D01*
X10419643Y-16012500D01*
X10419643Y-15955357D01*
X10433928Y-15883929D01*
X10448214Y-15841071D01*
X10462500Y-15812500D01*
X10491071Y-15769643D01*
X10505357Y-15755357D01*
X10776786Y-16098214D02*
X10605357Y-16098214D01*
X10691071Y-16098214D02*
X10691071Y-15798214D01*
X10662500Y-15841071D01*
X10633928Y-15869643D01*
X10605357Y-15883929D01*
X11048214Y-15798214D02*
X10905357Y-15798214D01*
X10891071Y-15941071D01*
X10905357Y-15926786D01*
X10933928Y-15912500D01*
X11005357Y-15912500D01*
X11033928Y-15926786D01*
X11048214Y-15941071D01*
X11062500Y-15969643D01*
X11062500Y-16041071D01*
X11048214Y-16069643D01*
X11033928Y-16083929D01*
X11005357Y-16098214D01*
X10933928Y-16098214D01*
X10905357Y-16083929D01*
X10891071Y-16069643D01*
X11176786Y-15826786D02*
X11191071Y-15812500D01*
X11219643Y-15798214D01*
X11291071Y-15798214D01*
X11319643Y-15812500D01*
X11333928Y-15826786D01*
X11348214Y-15855357D01*
X11348214Y-15883929D01*
X11333928Y-15926786D01*
X11162500Y-16098214D01*
X11348214Y-16098214D01*
X11705357Y-16098214D02*
X11705357Y-15798214D01*
X11833928Y-16098214D02*
X11833928Y-15941071D01*
X11819643Y-15912500D01*
X11791071Y-15898214D01*
X11748214Y-15898214D01*
X11719643Y-15912500D01*
X11705357Y-15926786D01*
X12019643Y-16098214D02*
X11991071Y-16083929D01*
X11976786Y-16069643D01*
X11962500Y-16041071D01*
X11962500Y-15955357D01*
X11976786Y-15926786D01*
X11991071Y-15912500D01*
X12019643Y-15898214D01*
X12062500Y-15898214D01*
X12091071Y-15912500D01*
X12105357Y-15926786D01*
X12119643Y-15955357D01*
X12119643Y-16041071D01*
X12105357Y-16069643D01*
X12091071Y-16083929D01*
X12062500Y-16098214D01*
X12019643Y-16098214D01*
X12291071Y-16098214D02*
X12262500Y-16083929D01*
X12248214Y-16055357D01*
X12248214Y-15798214D01*
X12519643Y-16083929D02*
X12491071Y-16098214D01*
X12433928Y-16098214D01*
X12405357Y-16083929D01*
X12391071Y-16055357D01*
X12391071Y-15941071D01*
X12405357Y-15912500D01*
X12433928Y-15898214D01*
X12491071Y-15898214D01*
X12519643Y-15912500D01*
X12533928Y-15941071D01*
X12533928Y-15969643D01*
X12391071Y-15998214D01*
X12648214Y-16083929D02*
X12676786Y-16098214D01*
X12733928Y-16098214D01*
X12762500Y-16083929D01*
X12776786Y-16055357D01*
X12776786Y-16041071D01*
X12762500Y-16012500D01*
X12733928Y-15998214D01*
X12691071Y-15998214D01*
X12662500Y-15983929D01*
X12648214Y-15955357D01*
X12648214Y-15941071D01*
X12662500Y-15912500D01*
X12691071Y-15898214D01*
X12733928Y-15898214D01*
X12762500Y-15912500D01*
X12876786Y-16212500D02*
X12891071Y-16198214D01*
X12919643Y-16155357D01*
X12933928Y-16126786D01*
X12948214Y-16083929D01*
X12962500Y-16012500D01*
X12962500Y-15955357D01*
X12948214Y-15883929D01*
X12933928Y-15841071D01*
X12919643Y-15812500D01*
X12891071Y-15769643D01*
X12876786Y-15755357D01*
X5247500Y-16358500D02*
G75*
G03*
X5247500Y-16358500I-35000J0D01*
G01*
X5591071Y-16194214D02*
X5619643Y-16194214D01*
X5648214Y-16208500D01*
X5662500Y-16222786D01*
X5676786Y-16251357D01*
X5691071Y-16308500D01*
X5691071Y-16379929D01*
X5676786Y-16437071D01*
X5662500Y-16465643D01*
X5648214Y-16479929D01*
X5619643Y-16494214D01*
X5591071Y-16494214D01*
X5562500Y-16479929D01*
X5548214Y-16465643D01*
X5533928Y-16437071D01*
X5519643Y-16379929D01*
X5519643Y-16308500D01*
X5533928Y-16251357D01*
X5548214Y-16222786D01*
X5562500Y-16208500D01*
X5591071Y-16194214D01*
X5819643Y-16465643D02*
X5833928Y-16479929D01*
X5819643Y-16494214D01*
X5805357Y-16479929D01*
X5819643Y-16465643D01*
X5819643Y-16494214D01*
X5933928Y-16194214D02*
X6133928Y-16194214D01*
X6005357Y-16494214D01*
X6305357Y-16194214D02*
X6333928Y-16194214D01*
X6362500Y-16208500D01*
X6376786Y-16222786D01*
X6391071Y-16251357D01*
X6405357Y-16308500D01*
X6405357Y-16379929D01*
X6391071Y-16437071D01*
X6376786Y-16465643D01*
X6362500Y-16479929D01*
X6333928Y-16494214D01*
X6305357Y-16494214D01*
X6276786Y-16479929D01*
X6262500Y-16465643D01*
X6248214Y-16437071D01*
X6233928Y-16379929D01*
X6233928Y-16308500D01*
X6248214Y-16251357D01*
X6262500Y-16222786D01*
X6276786Y-16208500D01*
X6305357Y-16194214D01*
X6591071Y-16194214D02*
X6619643Y-16194214D01*
X6648214Y-16208500D01*
X6662500Y-16222786D01*
X6676786Y-16251357D01*
X6691071Y-16308500D01*
X6691071Y-16379929D01*
X6676786Y-16437071D01*
X6662500Y-16465643D01*
X6648214Y-16479929D01*
X6619643Y-16494214D01*
X6591071Y-16494214D01*
X6562500Y-16479929D01*
X6548214Y-16465643D01*
X6533928Y-16437071D01*
X6519643Y-16379929D01*
X6519643Y-16308500D01*
X6533928Y-16251357D01*
X6548214Y-16222786D01*
X6562500Y-16208500D01*
X6591071Y-16194214D01*
X6819643Y-16494214D02*
X6819643Y-16294214D01*
X6819643Y-16322786D02*
X6833928Y-16308500D01*
X6862500Y-16294214D01*
X6905357Y-16294214D01*
X6933928Y-16308500D01*
X6948214Y-16337071D01*
X6948214Y-16494214D01*
X6948214Y-16337071D02*
X6962500Y-16308500D01*
X6991071Y-16294214D01*
X7033928Y-16294214D01*
X7062500Y-16308500D01*
X7076786Y-16337071D01*
X7076786Y-16494214D01*
X7219643Y-16494214D02*
X7219643Y-16294214D01*
X7219643Y-16322786D02*
X7233928Y-16308500D01*
X7262500Y-16294214D01*
X7305357Y-16294214D01*
X7333928Y-16308500D01*
X7348214Y-16337071D01*
X7348214Y-16494214D01*
X7348214Y-16337071D02*
X7362500Y-16308500D01*
X7391071Y-16294214D01*
X7433928Y-16294214D01*
X7462500Y-16308500D01*
X7476786Y-16337071D01*
X7476786Y-16494214D01*
X8062500Y-16179929D02*
X7805357Y-16565643D01*
X8448214Y-16194214D02*
X8476786Y-16194214D01*
X8505357Y-16208500D01*
X8519643Y-16222786D01*
X8533928Y-16251357D01*
X8548214Y-16308500D01*
X8548214Y-16379929D01*
X8533928Y-16437071D01*
X8519643Y-16465643D01*
X8505357Y-16479929D01*
X8476786Y-16494214D01*
X8448214Y-16494214D01*
X8419643Y-16479929D01*
X8405357Y-16465643D01*
X8391071Y-16437071D01*
X8376786Y-16379929D01*
X8376786Y-16308500D01*
X8391071Y-16251357D01*
X8405357Y-16222786D01*
X8419643Y-16208500D01*
X8448214Y-16194214D01*
X8676786Y-16465643D02*
X8691071Y-16479929D01*
X8676786Y-16494214D01*
X8662500Y-16479929D01*
X8676786Y-16465643D01*
X8676786Y-16494214D01*
X8876786Y-16194214D02*
X8905357Y-16194214D01*
X8933928Y-16208500D01*
X8948214Y-16222786D01*
X8962500Y-16251357D01*
X8976786Y-16308500D01*
X8976786Y-16379929D01*
X8962500Y-16437071D01*
X8948214Y-16465643D01*
X8933928Y-16479929D01*
X8905357Y-16494214D01*
X8876786Y-16494214D01*
X8848214Y-16479929D01*
X8833928Y-16465643D01*
X8819643Y-16437071D01*
X8805357Y-16379929D01*
X8805357Y-16308500D01*
X8819643Y-16251357D01*
X8833928Y-16222786D01*
X8848214Y-16208500D01*
X8876786Y-16194214D01*
X9091071Y-16222786D02*
X9105357Y-16208500D01*
X9133928Y-16194214D01*
X9205357Y-16194214D01*
X9233928Y-16208500D01*
X9248214Y-16222786D01*
X9262500Y-16251357D01*
X9262500Y-16279929D01*
X9248214Y-16322786D01*
X9076786Y-16494214D01*
X9262500Y-16494214D01*
X9362500Y-16194214D02*
X9562500Y-16194214D01*
X9433928Y-16494214D01*
X9805357Y-16194214D02*
X9748214Y-16194214D01*
X9719643Y-16208500D01*
X9705357Y-16222786D01*
X9676786Y-16265643D01*
X9662500Y-16322786D01*
X9662500Y-16437071D01*
X9676786Y-16465643D01*
X9691071Y-16479929D01*
X9719643Y-16494214D01*
X9776786Y-16494214D01*
X9805357Y-16479929D01*
X9819643Y-16465643D01*
X9833928Y-16437071D01*
X9833928Y-16365643D01*
X9819643Y-16337071D01*
X9805357Y-16322786D01*
X9776786Y-16308500D01*
X9719643Y-16308500D01*
X9691071Y-16322786D01*
X9676786Y-16337071D01*
X9662500Y-16365643D01*
X9948214Y-16194214D02*
X9948214Y-16251357D01*
X10062500Y-16194214D02*
X10062500Y-16251357D01*
X10505357Y-16608500D02*
X10491071Y-16594214D01*
X10462500Y-16551357D01*
X10448214Y-16522786D01*
X10433928Y-16479929D01*
X10419643Y-16408500D01*
X10419643Y-16351357D01*
X10433928Y-16279929D01*
X10448214Y-16237071D01*
X10462500Y-16208500D01*
X10491071Y-16165643D01*
X10505357Y-16151357D01*
X10748214Y-16194214D02*
X10691071Y-16194214D01*
X10662500Y-16208500D01*
X10648214Y-16222786D01*
X10619643Y-16265643D01*
X10605357Y-16322786D01*
X10605357Y-16437071D01*
X10619643Y-16465643D01*
X10633928Y-16479929D01*
X10662500Y-16494214D01*
X10719643Y-16494214D01*
X10748214Y-16479929D01*
X10762500Y-16465643D01*
X10776786Y-16437071D01*
X10776786Y-16365643D01*
X10762500Y-16337071D01*
X10748214Y-16322786D01*
X10719643Y-16308500D01*
X10662500Y-16308500D01*
X10633928Y-16322786D01*
X10619643Y-16337071D01*
X10605357Y-16365643D01*
X11033928Y-16294214D02*
X11033928Y-16494214D01*
X10962500Y-16179929D02*
X10891071Y-16394214D01*
X11076786Y-16394214D01*
X11419643Y-16494214D02*
X11419643Y-16194214D01*
X11548214Y-16494214D02*
X11548214Y-16337071D01*
X11533928Y-16308500D01*
X11505357Y-16294214D01*
X11462500Y-16294214D01*
X11433928Y-16308500D01*
X11419643Y-16322786D01*
X11733928Y-16494214D02*
X11705357Y-16479929D01*
X11691071Y-16465643D01*
X11676786Y-16437071D01*
X11676786Y-16351357D01*
X11691071Y-16322786D01*
X11705357Y-16308500D01*
X11733928Y-16294214D01*
X11776786Y-16294214D01*
X11805357Y-16308500D01*
X11819643Y-16322786D01*
X11833928Y-16351357D01*
X11833928Y-16437071D01*
X11819643Y-16465643D01*
X11805357Y-16479929D01*
X11776786Y-16494214D01*
X11733928Y-16494214D01*
X12005357Y-16494214D02*
X11976786Y-16479929D01*
X11962500Y-16451357D01*
X11962500Y-16194214D01*
X12233928Y-16479929D02*
X12205357Y-16494214D01*
X12148214Y-16494214D01*
X12119643Y-16479929D01*
X12105357Y-16451357D01*
X12105357Y-16337071D01*
X12119643Y-16308500D01*
X12148214Y-16294214D01*
X12205357Y-16294214D01*
X12233928Y-16308500D01*
X12248214Y-16337071D01*
X12248214Y-16365643D01*
X12105357Y-16394214D01*
X12362500Y-16479929D02*
X12391071Y-16494214D01*
X12448214Y-16494214D01*
X12476786Y-16479929D01*
X12491071Y-16451357D01*
X12491071Y-16437071D01*
X12476786Y-16408500D01*
X12448214Y-16394214D01*
X12405357Y-16394214D01*
X12376786Y-16379929D01*
X12362500Y-16351357D01*
X12362500Y-16337071D01*
X12376786Y-16308500D01*
X12405357Y-16294214D01*
X12448214Y-16294214D01*
X12476786Y-16308500D01*
X12848214Y-16379929D02*
X13076786Y-16379929D01*
X12962500Y-16494214D02*
X12962500Y-16265643D01*
X13419643Y-16194214D02*
X13605357Y-16194214D01*
X13505357Y-16308500D01*
X13548214Y-16308500D01*
X13576786Y-16322786D01*
X13591071Y-16337071D01*
X13605357Y-16365643D01*
X13605357Y-16437071D01*
X13591071Y-16465643D01*
X13576786Y-16479929D01*
X13548214Y-16494214D01*
X13462500Y-16494214D01*
X13433928Y-16479929D01*
X13419643Y-16465643D01*
X13948214Y-16479929D02*
X13976786Y-16494214D01*
X14033928Y-16494214D01*
X14062500Y-16479929D01*
X14076786Y-16451357D01*
X14076786Y-16437071D01*
X14062500Y-16408500D01*
X14033928Y-16394214D01*
X13991071Y-16394214D01*
X13962500Y-16379929D01*
X13948214Y-16351357D01*
X13948214Y-16337071D01*
X13962500Y-16308500D01*
X13991071Y-16294214D01*
X14033928Y-16294214D01*
X14062500Y-16308500D01*
X14248214Y-16494214D02*
X14219643Y-16479929D01*
X14205357Y-16451357D01*
X14205357Y-16194214D01*
X14405357Y-16494214D02*
X14376786Y-16479929D01*
X14362500Y-16465643D01*
X14348214Y-16437071D01*
X14348214Y-16351357D01*
X14362500Y-16322786D01*
X14376786Y-16308500D01*
X14405357Y-16294214D01*
X14448214Y-16294214D01*
X14476786Y-16308500D01*
X14491071Y-16322786D01*
X14505357Y-16351357D01*
X14505357Y-16437071D01*
X14491071Y-16465643D01*
X14476786Y-16479929D01*
X14448214Y-16494214D01*
X14405357Y-16494214D01*
X14591071Y-16294214D02*
X14705357Y-16294214D01*
X14633928Y-16194214D02*
X14633928Y-16451357D01*
X14648214Y-16479929D01*
X14676786Y-16494214D01*
X14705357Y-16494214D01*
X14791071Y-16479929D02*
X14819643Y-16494214D01*
X14876786Y-16494214D01*
X14905357Y-16479929D01*
X14919643Y-16451357D01*
X14919643Y-16437071D01*
X14905357Y-16408500D01*
X14876786Y-16394214D01*
X14833928Y-16394214D01*
X14805357Y-16379929D01*
X14791071Y-16351357D01*
X14791071Y-16337071D01*
X14805357Y-16308500D01*
X14833928Y-16294214D01*
X14876786Y-16294214D01*
X14905357Y-16308500D01*
X15019643Y-16608500D02*
X15033928Y-16594214D01*
X15062500Y-16551357D01*
X15076786Y-16522786D01*
X15091071Y-16479929D01*
X15105357Y-16408500D01*
X15105357Y-16351357D01*
X15091071Y-16279929D01*
X15076786Y-16237071D01*
X15062500Y-16208500D01*
X15033928Y-16165643D01*
X15019643Y-16151357D01*
X5210000Y-16717000D02*
X5210000Y-16792000D01*
X5172500Y-16754500D02*
X5247500Y-16754500D01*
X5591071Y-16590214D02*
X5619643Y-16590214D01*
X5648214Y-16604500D01*
X5662500Y-16618786D01*
X5676786Y-16647357D01*
X5691071Y-16704500D01*
X5691071Y-16775929D01*
X5676786Y-16833072D01*
X5662500Y-16861643D01*
X5648214Y-16875929D01*
X5619643Y-16890214D01*
X5591071Y-16890214D01*
X5562500Y-16875929D01*
X5548214Y-16861643D01*
X5533928Y-16833072D01*
X5519643Y-16775929D01*
X5519643Y-16704500D01*
X5533928Y-16647357D01*
X5548214Y-16618786D01*
X5562500Y-16604500D01*
X5591071Y-16590214D01*
X5819643Y-16861643D02*
X5833928Y-16875929D01*
X5819643Y-16890214D01*
X5805357Y-16875929D01*
X5819643Y-16861643D01*
X5819643Y-16890214D01*
X5933928Y-16590214D02*
X6133928Y-16590214D01*
X6005357Y-16890214D01*
X6391071Y-16590214D02*
X6248214Y-16590214D01*
X6233928Y-16733071D01*
X6248214Y-16718786D01*
X6276786Y-16704500D01*
X6348214Y-16704500D01*
X6376786Y-16718786D01*
X6391071Y-16733071D01*
X6405357Y-16761643D01*
X6405357Y-16833072D01*
X6391071Y-16861643D01*
X6376786Y-16875929D01*
X6348214Y-16890214D01*
X6276786Y-16890214D01*
X6248214Y-16875929D01*
X6233928Y-16861643D01*
X6591071Y-16590214D02*
X6619643Y-16590214D01*
X6648214Y-16604500D01*
X6662500Y-16618786D01*
X6676786Y-16647357D01*
X6691071Y-16704500D01*
X6691071Y-16775929D01*
X6676786Y-16833072D01*
X6662500Y-16861643D01*
X6648214Y-16875929D01*
X6619643Y-16890214D01*
X6591071Y-16890214D01*
X6562500Y-16875929D01*
X6548214Y-16861643D01*
X6533928Y-16833072D01*
X6519643Y-16775929D01*
X6519643Y-16704500D01*
X6533928Y-16647357D01*
X6548214Y-16618786D01*
X6562500Y-16604500D01*
X6591071Y-16590214D01*
X6819643Y-16890214D02*
X6819643Y-16690214D01*
X6819643Y-16718786D02*
X6833928Y-16704500D01*
X6862500Y-16690214D01*
X6905357Y-16690214D01*
X6933928Y-16704500D01*
X6948214Y-16733071D01*
X6948214Y-16890214D01*
X6948214Y-16733071D02*
X6962500Y-16704500D01*
X6991071Y-16690214D01*
X7033928Y-16690214D01*
X7062500Y-16704500D01*
X7076786Y-16733071D01*
X7076786Y-16890214D01*
X7219643Y-16890214D02*
X7219643Y-16690214D01*
X7219643Y-16718786D02*
X7233928Y-16704500D01*
X7262500Y-16690214D01*
X7305357Y-16690214D01*
X7333928Y-16704500D01*
X7348214Y-16733071D01*
X7348214Y-16890214D01*
X7348214Y-16733071D02*
X7362500Y-16704500D01*
X7391071Y-16690214D01*
X7433928Y-16690214D01*
X7462500Y-16704500D01*
X7476786Y-16733071D01*
X7476786Y-16890214D01*
X8062500Y-16575929D02*
X7805357Y-16961643D01*
X8448214Y-16590214D02*
X8476786Y-16590214D01*
X8505357Y-16604500D01*
X8519643Y-16618786D01*
X8533928Y-16647357D01*
X8548214Y-16704500D01*
X8548214Y-16775929D01*
X8533928Y-16833072D01*
X8519643Y-16861643D01*
X8505357Y-16875929D01*
X8476786Y-16890214D01*
X8448214Y-16890214D01*
X8419643Y-16875929D01*
X8405357Y-16861643D01*
X8391071Y-16833072D01*
X8376786Y-16775929D01*
X8376786Y-16704500D01*
X8391071Y-16647357D01*
X8405357Y-16618786D01*
X8419643Y-16604500D01*
X8448214Y-16590214D01*
X8676786Y-16861643D02*
X8691071Y-16875929D01*
X8676786Y-16890214D01*
X8662500Y-16875929D01*
X8676786Y-16861643D01*
X8676786Y-16890214D01*
X8876786Y-16590214D02*
X8905357Y-16590214D01*
X8933928Y-16604500D01*
X8948214Y-16618786D01*
X8962500Y-16647357D01*
X8976786Y-16704500D01*
X8976786Y-16775929D01*
X8962500Y-16833072D01*
X8948214Y-16861643D01*
X8933928Y-16875929D01*
X8905357Y-16890214D01*
X8876786Y-16890214D01*
X8848214Y-16875929D01*
X8833928Y-16861643D01*
X8819643Y-16833072D01*
X8805357Y-16775929D01*
X8805357Y-16704500D01*
X8819643Y-16647357D01*
X8833928Y-16618786D01*
X8848214Y-16604500D01*
X8876786Y-16590214D01*
X9091071Y-16618786D02*
X9105357Y-16604500D01*
X9133928Y-16590214D01*
X9205357Y-16590214D01*
X9233928Y-16604500D01*
X9248214Y-16618786D01*
X9262500Y-16647357D01*
X9262500Y-16675929D01*
X9248214Y-16718786D01*
X9076786Y-16890214D01*
X9262500Y-16890214D01*
X9405357Y-16890214D02*
X9462500Y-16890214D01*
X9491071Y-16875929D01*
X9505357Y-16861643D01*
X9533928Y-16818786D01*
X9548214Y-16761643D01*
X9548214Y-16647357D01*
X9533928Y-16618786D01*
X9519643Y-16604500D01*
X9491071Y-16590214D01*
X9433928Y-16590214D01*
X9405357Y-16604500D01*
X9391071Y-16618786D01*
X9376786Y-16647357D01*
X9376786Y-16718786D01*
X9391071Y-16747357D01*
X9405357Y-16761643D01*
X9433928Y-16775929D01*
X9491071Y-16775929D01*
X9519643Y-16761643D01*
X9533928Y-16747357D01*
X9548214Y-16718786D01*
X9819643Y-16590214D02*
X9676786Y-16590214D01*
X9662500Y-16733071D01*
X9676786Y-16718786D01*
X9705357Y-16704500D01*
X9776786Y-16704500D01*
X9805357Y-16718786D01*
X9819643Y-16733071D01*
X9833928Y-16761643D01*
X9833928Y-16833072D01*
X9819643Y-16861643D01*
X9805357Y-16875929D01*
X9776786Y-16890214D01*
X9705357Y-16890214D01*
X9676786Y-16875929D01*
X9662500Y-16861643D01*
X9948214Y-16590214D02*
X9948214Y-16647357D01*
X10062500Y-16590214D02*
X10062500Y-16647357D01*
X10505357Y-17004500D02*
X10491071Y-16990214D01*
X10462500Y-16947357D01*
X10448214Y-16918786D01*
X10433928Y-16875929D01*
X10419643Y-16804500D01*
X10419643Y-16747357D01*
X10433928Y-16675929D01*
X10448214Y-16633071D01*
X10462500Y-16604500D01*
X10491071Y-16561643D01*
X10505357Y-16547357D01*
X10591071Y-16590214D02*
X10776786Y-16590214D01*
X10676786Y-16704500D01*
X10719643Y-16704500D01*
X10748214Y-16718786D01*
X10762500Y-16733071D01*
X10776786Y-16761643D01*
X10776786Y-16833072D01*
X10762500Y-16861643D01*
X10748214Y-16875929D01*
X10719643Y-16890214D01*
X10633928Y-16890214D01*
X10605357Y-16875929D01*
X10591071Y-16861643D01*
X11133928Y-16890214D02*
X11133928Y-16590214D01*
X11262500Y-16890214D02*
X11262500Y-16733071D01*
X11248214Y-16704500D01*
X11219643Y-16690214D01*
X11176786Y-16690214D01*
X11148214Y-16704500D01*
X11133928Y-16718786D01*
X11448214Y-16890214D02*
X11419643Y-16875929D01*
X11405357Y-16861643D01*
X11391071Y-16833072D01*
X11391071Y-16747357D01*
X11405357Y-16718786D01*
X11419643Y-16704500D01*
X11448214Y-16690214D01*
X11491071Y-16690214D01*
X11519643Y-16704500D01*
X11533928Y-16718786D01*
X11548214Y-16747357D01*
X11548214Y-16833072D01*
X11533928Y-16861643D01*
X11519643Y-16875929D01*
X11491071Y-16890214D01*
X11448214Y-16890214D01*
X11719643Y-16890214D02*
X11691071Y-16875929D01*
X11676786Y-16847357D01*
X11676786Y-16590214D01*
X11948214Y-16875929D02*
X11919643Y-16890214D01*
X11862500Y-16890214D01*
X11833928Y-16875929D01*
X11819643Y-16847357D01*
X11819643Y-16733071D01*
X11833928Y-16704500D01*
X11862500Y-16690214D01*
X11919643Y-16690214D01*
X11948214Y-16704500D01*
X11962500Y-16733071D01*
X11962500Y-16761643D01*
X11819643Y-16790214D01*
X12076786Y-16875929D02*
X12105357Y-16890214D01*
X12162500Y-16890214D01*
X12191071Y-16875929D01*
X12205357Y-16847357D01*
X12205357Y-16833072D01*
X12191071Y-16804500D01*
X12162500Y-16790214D01*
X12119643Y-16790214D01*
X12091071Y-16775929D01*
X12076786Y-16747357D01*
X12076786Y-16733071D01*
X12091071Y-16704500D01*
X12119643Y-16690214D01*
X12162500Y-16690214D01*
X12191071Y-16704500D01*
X12305357Y-17004500D02*
X12319643Y-16990214D01*
X12348214Y-16947357D01*
X12362500Y-16918786D01*
X12376786Y-16875929D01*
X12391071Y-16804500D01*
X12391071Y-16747357D01*
X12376786Y-16675929D01*
X12362500Y-16633071D01*
X12348214Y-16604500D01*
X12319643Y-16561643D01*
X12305357Y-16547357D01*
X5235784Y-17178785D02*
X5235784Y-17122216D01*
X5179215Y-17122216D01*
X5179215Y-17178785D01*
X5235784Y-17178785D01*
X5591071Y-16986214D02*
X5619643Y-16986214D01*
X5648214Y-17000500D01*
X5662500Y-17014786D01*
X5676786Y-17043357D01*
X5691071Y-17100500D01*
X5691071Y-17171929D01*
X5676786Y-17229072D01*
X5662500Y-17257643D01*
X5648214Y-17271929D01*
X5619643Y-17286214D01*
X5591071Y-17286214D01*
X5562500Y-17271929D01*
X5548214Y-17257643D01*
X5533928Y-17229072D01*
X5519643Y-17171929D01*
X5519643Y-17100500D01*
X5533928Y-17043357D01*
X5548214Y-17014786D01*
X5562500Y-17000500D01*
X5591071Y-16986214D01*
X5819643Y-17257643D02*
X5833928Y-17271929D01*
X5819643Y-17286214D01*
X5805357Y-17271929D01*
X5819643Y-17257643D01*
X5819643Y-17286214D01*
X6005357Y-17114786D02*
X5976786Y-17100500D01*
X5962500Y-17086214D01*
X5948214Y-17057643D01*
X5948214Y-17043357D01*
X5962500Y-17014786D01*
X5976786Y-17000500D01*
X6005357Y-16986214D01*
X6062500Y-16986214D01*
X6091071Y-17000500D01*
X6105357Y-17014786D01*
X6119643Y-17043357D01*
X6119643Y-17057643D01*
X6105357Y-17086214D01*
X6091071Y-17100500D01*
X6062500Y-17114786D01*
X6005357Y-17114786D01*
X5976786Y-17129072D01*
X5962500Y-17143357D01*
X5948214Y-17171929D01*
X5948214Y-17229072D01*
X5962500Y-17257643D01*
X5976786Y-17271929D01*
X6005357Y-17286214D01*
X6062500Y-17286214D01*
X6091071Y-17271929D01*
X6105357Y-17257643D01*
X6119643Y-17229072D01*
X6119643Y-17171929D01*
X6105357Y-17143357D01*
X6091071Y-17129072D01*
X6062500Y-17114786D01*
X6305357Y-16986214D02*
X6333928Y-16986214D01*
X6362500Y-17000500D01*
X6376786Y-17014786D01*
X6391071Y-17043357D01*
X6405357Y-17100500D01*
X6405357Y-17171929D01*
X6391071Y-17229072D01*
X6376786Y-17257643D01*
X6362500Y-17271929D01*
X6333928Y-17286214D01*
X6305357Y-17286214D01*
X6276786Y-17271929D01*
X6262500Y-17257643D01*
X6248214Y-17229072D01*
X6233928Y-17171929D01*
X6233928Y-17100500D01*
X6248214Y-17043357D01*
X6262500Y-17014786D01*
X6276786Y-17000500D01*
X6305357Y-16986214D01*
X6591071Y-16986214D02*
X6619643Y-16986214D01*
X6648214Y-17000500D01*
X6662500Y-17014786D01*
X6676786Y-17043357D01*
X6691071Y-17100500D01*
X6691071Y-17171929D01*
X6676786Y-17229072D01*
X6662500Y-17257643D01*
X6648214Y-17271929D01*
X6619643Y-17286214D01*
X6591071Y-17286214D01*
X6562500Y-17271929D01*
X6548214Y-17257643D01*
X6533928Y-17229072D01*
X6519643Y-17171929D01*
X6519643Y-17100500D01*
X6533928Y-17043357D01*
X6548214Y-17014786D01*
X6562500Y-17000500D01*
X6591071Y-16986214D01*
X6819643Y-17286214D02*
X6819643Y-17086214D01*
X6819643Y-17114786D02*
X6833928Y-17100500D01*
X6862500Y-17086214D01*
X6905357Y-17086214D01*
X6933928Y-17100500D01*
X6948214Y-17129072D01*
X6948214Y-17286214D01*
X6948214Y-17129072D02*
X6962500Y-17100500D01*
X6991071Y-17086214D01*
X7033928Y-17086214D01*
X7062500Y-17100500D01*
X7076786Y-17129072D01*
X7076786Y-17286214D01*
X7219643Y-17286214D02*
X7219643Y-17086214D01*
X7219643Y-17114786D02*
X7233928Y-17100500D01*
X7262500Y-17086214D01*
X7305357Y-17086214D01*
X7333928Y-17100500D01*
X7348214Y-17129072D01*
X7348214Y-17286214D01*
X7348214Y-17129072D02*
X7362500Y-17100500D01*
X7391071Y-17086214D01*
X7433928Y-17086214D01*
X7462500Y-17100500D01*
X7476786Y-17129072D01*
X7476786Y-17286214D01*
X8062500Y-16971929D02*
X7805357Y-17357643D01*
X8448214Y-16986214D02*
X8476786Y-16986214D01*
X8505357Y-17000500D01*
X8519643Y-17014786D01*
X8533928Y-17043357D01*
X8548214Y-17100500D01*
X8548214Y-17171929D01*
X8533928Y-17229072D01*
X8519643Y-17257643D01*
X8505357Y-17271929D01*
X8476786Y-17286214D01*
X8448214Y-17286214D01*
X8419643Y-17271929D01*
X8405357Y-17257643D01*
X8391071Y-17229072D01*
X8376786Y-17171929D01*
X8376786Y-17100500D01*
X8391071Y-17043357D01*
X8405357Y-17014786D01*
X8419643Y-17000500D01*
X8448214Y-16986214D01*
X8676786Y-17257643D02*
X8691071Y-17271929D01*
X8676786Y-17286214D01*
X8662500Y-17271929D01*
X8676786Y-17257643D01*
X8676786Y-17286214D01*
X8876786Y-16986214D02*
X8905357Y-16986214D01*
X8933928Y-17000500D01*
X8948214Y-17014786D01*
X8962500Y-17043357D01*
X8976786Y-17100500D01*
X8976786Y-17171929D01*
X8962500Y-17229072D01*
X8948214Y-17257643D01*
X8933928Y-17271929D01*
X8905357Y-17286214D01*
X8876786Y-17286214D01*
X8848214Y-17271929D01*
X8833928Y-17257643D01*
X8819643Y-17229072D01*
X8805357Y-17171929D01*
X8805357Y-17100500D01*
X8819643Y-17043357D01*
X8833928Y-17014786D01*
X8848214Y-17000500D01*
X8876786Y-16986214D01*
X9076786Y-16986214D02*
X9262500Y-16986214D01*
X9162500Y-17100500D01*
X9205357Y-17100500D01*
X9233928Y-17114786D01*
X9248214Y-17129072D01*
X9262500Y-17157643D01*
X9262500Y-17229072D01*
X9248214Y-17257643D01*
X9233928Y-17271929D01*
X9205357Y-17286214D01*
X9119643Y-17286214D01*
X9091071Y-17271929D01*
X9076786Y-17257643D01*
X9548214Y-17286214D02*
X9376786Y-17286214D01*
X9462500Y-17286214D02*
X9462500Y-16986214D01*
X9433928Y-17029072D01*
X9405357Y-17057643D01*
X9376786Y-17071929D01*
X9819643Y-16986214D02*
X9676786Y-16986214D01*
X9662500Y-17129072D01*
X9676786Y-17114786D01*
X9705357Y-17100500D01*
X9776786Y-17100500D01*
X9805357Y-17114786D01*
X9819643Y-17129072D01*
X9833928Y-17157643D01*
X9833928Y-17229072D01*
X9819643Y-17257643D01*
X9805357Y-17271929D01*
X9776786Y-17286214D01*
X9705357Y-17286214D01*
X9676786Y-17271929D01*
X9662500Y-17257643D01*
X9948214Y-16986214D02*
X9948214Y-17043357D01*
X10062500Y-16986214D02*
X10062500Y-17043357D01*
X10505357Y-17400500D02*
X10491071Y-17386214D01*
X10462500Y-17343357D01*
X10448214Y-17314786D01*
X10433928Y-17271929D01*
X10419643Y-17200500D01*
X10419643Y-17143357D01*
X10433928Y-17071929D01*
X10448214Y-17029072D01*
X10462500Y-17000500D01*
X10491071Y-16957643D01*
X10505357Y-16943357D01*
X10605357Y-17014786D02*
X10619643Y-17000500D01*
X10648214Y-16986214D01*
X10719643Y-16986214D01*
X10748214Y-17000500D01*
X10762500Y-17014786D01*
X10776786Y-17043357D01*
X10776786Y-17071929D01*
X10762500Y-17114786D01*
X10591071Y-17286214D01*
X10776786Y-17286214D01*
X10876786Y-16986214D02*
X11076786Y-16986214D01*
X10948214Y-17286214D01*
X11319643Y-16986214D02*
X11262500Y-16986214D01*
X11233928Y-17000500D01*
X11219643Y-17014786D01*
X11191071Y-17057643D01*
X11176786Y-17114786D01*
X11176786Y-17229072D01*
X11191071Y-17257643D01*
X11205357Y-17271929D01*
X11233928Y-17286214D01*
X11291071Y-17286214D01*
X11319643Y-17271929D01*
X11333928Y-17257643D01*
X11348214Y-17229072D01*
X11348214Y-17157643D01*
X11333928Y-17129072D01*
X11319643Y-17114786D01*
X11291071Y-17100500D01*
X11233928Y-17100500D01*
X11205357Y-17114786D01*
X11191071Y-17129072D01*
X11176786Y-17157643D01*
X11705357Y-17286214D02*
X11705357Y-16986214D01*
X11833928Y-17286214D02*
X11833928Y-17129072D01*
X11819643Y-17100500D01*
X11791071Y-17086214D01*
X11748214Y-17086214D01*
X11719643Y-17100500D01*
X11705357Y-17114786D01*
X12019643Y-17286214D02*
X11991071Y-17271929D01*
X11976786Y-17257643D01*
X11962500Y-17229072D01*
X11962500Y-17143357D01*
X11976786Y-17114786D01*
X11991071Y-17100500D01*
X12019643Y-17086214D01*
X12062500Y-17086214D01*
X12091071Y-17100500D01*
X12105357Y-17114786D01*
X12119643Y-17143357D01*
X12119643Y-17229072D01*
X12105357Y-17257643D01*
X12091071Y-17271929D01*
X12062500Y-17286214D01*
X12019643Y-17286214D01*
X12291071Y-17286214D02*
X12262500Y-17271929D01*
X12248214Y-17243357D01*
X12248214Y-16986214D01*
X12519643Y-17271929D02*
X12491071Y-17286214D01*
X12433928Y-17286214D01*
X12405357Y-17271929D01*
X12391071Y-17243357D01*
X12391071Y-17129072D01*
X12405357Y-17100500D01*
X12433928Y-17086214D01*
X12491071Y-17086214D01*
X12519643Y-17100500D01*
X12533928Y-17129072D01*
X12533928Y-17157643D01*
X12391071Y-17186214D01*
X12648214Y-17271929D02*
X12676786Y-17286214D01*
X12733928Y-17286214D01*
X12762500Y-17271929D01*
X12776786Y-17243357D01*
X12776786Y-17229072D01*
X12762500Y-17200500D01*
X12733928Y-17186214D01*
X12691071Y-17186214D01*
X12662500Y-17171929D01*
X12648214Y-17143357D01*
X12648214Y-17129072D01*
X12662500Y-17100500D01*
X12691071Y-17086214D01*
X12733928Y-17086214D01*
X12762500Y-17100500D01*
X12876786Y-17400500D02*
X12891071Y-17386214D01*
X12919643Y-17343357D01*
X12933928Y-17314786D01*
X12948214Y-17271929D01*
X12962500Y-17200500D01*
X12962500Y-17143357D01*
X12948214Y-17071929D01*
X12933928Y-17029072D01*
X12919643Y-17000500D01*
X12891071Y-16957643D01*
X12876786Y-16943357D01*
X5203000Y-17591000D02*
X5247500Y-17546500D01*
X5203000Y-17502000D01*
X5158500Y-17546500D01*
X5203000Y-17591000D01*
X5591071Y-17382214D02*
X5619643Y-17382214D01*
X5648214Y-17396500D01*
X5662500Y-17410786D01*
X5676786Y-17439357D01*
X5691071Y-17496500D01*
X5691071Y-17567929D01*
X5676786Y-17625072D01*
X5662500Y-17653643D01*
X5648214Y-17667929D01*
X5619643Y-17682214D01*
X5591071Y-17682214D01*
X5562500Y-17667929D01*
X5548214Y-17653643D01*
X5533928Y-17625072D01*
X5519643Y-17567929D01*
X5519643Y-17496500D01*
X5533928Y-17439357D01*
X5548214Y-17410786D01*
X5562500Y-17396500D01*
X5591071Y-17382214D01*
X5819643Y-17653643D02*
X5833928Y-17667929D01*
X5819643Y-17682214D01*
X5805357Y-17667929D01*
X5819643Y-17653643D01*
X5819643Y-17682214D01*
X6005357Y-17510786D02*
X5976786Y-17496500D01*
X5962500Y-17482214D01*
X5948214Y-17453643D01*
X5948214Y-17439357D01*
X5962500Y-17410786D01*
X5976786Y-17396500D01*
X6005357Y-17382214D01*
X6062500Y-17382214D01*
X6091071Y-17396500D01*
X6105357Y-17410786D01*
X6119643Y-17439357D01*
X6119643Y-17453643D01*
X6105357Y-17482214D01*
X6091071Y-17496500D01*
X6062500Y-17510786D01*
X6005357Y-17510786D01*
X5976786Y-17525072D01*
X5962500Y-17539357D01*
X5948214Y-17567929D01*
X5948214Y-17625072D01*
X5962500Y-17653643D01*
X5976786Y-17667929D01*
X6005357Y-17682214D01*
X6062500Y-17682214D01*
X6091071Y-17667929D01*
X6105357Y-17653643D01*
X6119643Y-17625072D01*
X6119643Y-17567929D01*
X6105357Y-17539357D01*
X6091071Y-17525072D01*
X6062500Y-17510786D01*
X6262500Y-17682214D02*
X6319643Y-17682214D01*
X6348214Y-17667929D01*
X6362500Y-17653643D01*
X6391071Y-17610786D01*
X6405357Y-17553643D01*
X6405357Y-17439357D01*
X6391071Y-17410786D01*
X6376786Y-17396500D01*
X6348214Y-17382214D01*
X6291071Y-17382214D01*
X6262500Y-17396500D01*
X6248214Y-17410786D01*
X6233928Y-17439357D01*
X6233928Y-17510786D01*
X6248214Y-17539357D01*
X6262500Y-17553643D01*
X6291071Y-17567929D01*
X6348214Y-17567929D01*
X6376786Y-17553643D01*
X6391071Y-17539357D01*
X6405357Y-17510786D01*
X6591071Y-17382214D02*
X6619643Y-17382214D01*
X6648214Y-17396500D01*
X6662500Y-17410786D01*
X6676786Y-17439357D01*
X6691071Y-17496500D01*
X6691071Y-17567929D01*
X6676786Y-17625072D01*
X6662500Y-17653643D01*
X6648214Y-17667929D01*
X6619643Y-17682214D01*
X6591071Y-17682214D01*
X6562500Y-17667929D01*
X6548214Y-17653643D01*
X6533928Y-17625072D01*
X6519643Y-17567929D01*
X6519643Y-17496500D01*
X6533928Y-17439357D01*
X6548214Y-17410786D01*
X6562500Y-17396500D01*
X6591071Y-17382214D01*
X6819643Y-17682214D02*
X6819643Y-17482214D01*
X6819643Y-17510786D02*
X6833928Y-17496500D01*
X6862500Y-17482214D01*
X6905357Y-17482214D01*
X6933928Y-17496500D01*
X6948214Y-17525072D01*
X6948214Y-17682214D01*
X6948214Y-17525072D02*
X6962500Y-17496500D01*
X6991071Y-17482214D01*
X7033928Y-17482214D01*
X7062500Y-17496500D01*
X7076786Y-17525072D01*
X7076786Y-17682214D01*
X7219643Y-17682214D02*
X7219643Y-17482214D01*
X7219643Y-17510786D02*
X7233928Y-17496500D01*
X7262500Y-17482214D01*
X7305357Y-17482214D01*
X7333928Y-17496500D01*
X7348214Y-17525072D01*
X7348214Y-17682214D01*
X7348214Y-17525072D02*
X7362500Y-17496500D01*
X7391071Y-17482214D01*
X7433928Y-17482214D01*
X7462500Y-17496500D01*
X7476786Y-17525072D01*
X7476786Y-17682214D01*
X8062500Y-17367929D02*
X7805357Y-17753643D01*
X8448214Y-17382214D02*
X8476786Y-17382214D01*
X8505357Y-17396500D01*
X8519643Y-17410786D01*
X8533928Y-17439357D01*
X8548214Y-17496500D01*
X8548214Y-17567929D01*
X8533928Y-17625072D01*
X8519643Y-17653643D01*
X8505357Y-17667929D01*
X8476786Y-17682214D01*
X8448214Y-17682214D01*
X8419643Y-17667929D01*
X8405357Y-17653643D01*
X8391071Y-17625072D01*
X8376786Y-17567929D01*
X8376786Y-17496500D01*
X8391071Y-17439357D01*
X8405357Y-17410786D01*
X8419643Y-17396500D01*
X8448214Y-17382214D01*
X8676786Y-17653643D02*
X8691071Y-17667929D01*
X8676786Y-17682214D01*
X8662500Y-17667929D01*
X8676786Y-17653643D01*
X8676786Y-17682214D01*
X8876786Y-17382214D02*
X8905357Y-17382214D01*
X8933928Y-17396500D01*
X8948214Y-17410786D01*
X8962500Y-17439357D01*
X8976786Y-17496500D01*
X8976786Y-17567929D01*
X8962500Y-17625072D01*
X8948214Y-17653643D01*
X8933928Y-17667929D01*
X8905357Y-17682214D01*
X8876786Y-17682214D01*
X8848214Y-17667929D01*
X8833928Y-17653643D01*
X8819643Y-17625072D01*
X8805357Y-17567929D01*
X8805357Y-17496500D01*
X8819643Y-17439357D01*
X8833928Y-17410786D01*
X8848214Y-17396500D01*
X8876786Y-17382214D01*
X9076786Y-17382214D02*
X9262500Y-17382214D01*
X9162500Y-17496500D01*
X9205357Y-17496500D01*
X9233928Y-17510786D01*
X9248214Y-17525072D01*
X9262500Y-17553643D01*
X9262500Y-17625072D01*
X9248214Y-17653643D01*
X9233928Y-17667929D01*
X9205357Y-17682214D01*
X9119643Y-17682214D01*
X9091071Y-17667929D01*
X9076786Y-17653643D01*
X9533928Y-17382214D02*
X9391071Y-17382214D01*
X9376786Y-17525072D01*
X9391071Y-17510786D01*
X9419643Y-17496500D01*
X9491071Y-17496500D01*
X9519643Y-17510786D01*
X9533928Y-17525072D01*
X9548214Y-17553643D01*
X9548214Y-17625072D01*
X9533928Y-17653643D01*
X9519643Y-17667929D01*
X9491071Y-17682214D01*
X9419643Y-17682214D01*
X9391071Y-17667929D01*
X9376786Y-17653643D01*
X9733928Y-17382214D02*
X9762500Y-17382214D01*
X9791071Y-17396500D01*
X9805357Y-17410786D01*
X9819643Y-17439357D01*
X9833928Y-17496500D01*
X9833928Y-17567929D01*
X9819643Y-17625072D01*
X9805357Y-17653643D01*
X9791071Y-17667929D01*
X9762500Y-17682214D01*
X9733928Y-17682214D01*
X9705357Y-17667929D01*
X9691071Y-17653643D01*
X9676786Y-17625072D01*
X9662500Y-17567929D01*
X9662500Y-17496500D01*
X9676786Y-17439357D01*
X9691071Y-17410786D01*
X9705357Y-17396500D01*
X9733928Y-17382214D01*
X9948214Y-17382214D02*
X9948214Y-17439357D01*
X10062500Y-17382214D02*
X10062500Y-17439357D01*
X10505357Y-17796500D02*
X10491071Y-17782214D01*
X10462500Y-17739357D01*
X10448214Y-17710786D01*
X10433928Y-17667929D01*
X10419643Y-17596500D01*
X10419643Y-17539357D01*
X10433928Y-17467929D01*
X10448214Y-17425072D01*
X10462500Y-17396500D01*
X10491071Y-17353643D01*
X10505357Y-17339357D01*
X10748214Y-17482214D02*
X10748214Y-17682214D01*
X10676786Y-17367929D02*
X10605357Y-17582214D01*
X10791071Y-17582214D01*
X11133928Y-17682214D02*
X11133928Y-17382214D01*
X11262500Y-17682214D02*
X11262500Y-17525072D01*
X11248214Y-17496500D01*
X11219643Y-17482214D01*
X11176786Y-17482214D01*
X11148214Y-17496500D01*
X11133928Y-17510786D01*
X11448214Y-17682214D02*
X11419643Y-17667929D01*
X11405357Y-17653643D01*
X11391071Y-17625072D01*
X11391071Y-17539357D01*
X11405357Y-17510786D01*
X11419643Y-17496500D01*
X11448214Y-17482214D01*
X11491071Y-17482214D01*
X11519643Y-17496500D01*
X11533928Y-17510786D01*
X11548214Y-17539357D01*
X11548214Y-17625072D01*
X11533928Y-17653643D01*
X11519643Y-17667929D01*
X11491071Y-17682214D01*
X11448214Y-17682214D01*
X11719643Y-17682214D02*
X11691071Y-17667929D01*
X11676786Y-17639357D01*
X11676786Y-17382214D01*
X11948214Y-17667929D02*
X11919643Y-17682214D01*
X11862500Y-17682214D01*
X11833928Y-17667929D01*
X11819643Y-17639357D01*
X11819643Y-17525072D01*
X11833928Y-17496500D01*
X11862500Y-17482214D01*
X11919643Y-17482214D01*
X11948214Y-17496500D01*
X11962500Y-17525072D01*
X11962500Y-17553643D01*
X11819643Y-17582214D01*
X12076786Y-17667929D02*
X12105357Y-17682214D01*
X12162500Y-17682214D01*
X12191071Y-17667929D01*
X12205357Y-17639357D01*
X12205357Y-17625072D01*
X12191071Y-17596500D01*
X12162500Y-17582214D01*
X12119643Y-17582214D01*
X12091071Y-17567929D01*
X12076786Y-17539357D01*
X12076786Y-17525072D01*
X12091071Y-17496500D01*
X12119643Y-17482214D01*
X12162500Y-17482214D01*
X12191071Y-17496500D01*
X12305357Y-17796500D02*
X12319643Y-17782214D01*
X12348214Y-17739357D01*
X12362500Y-17710786D01*
X12376786Y-17667929D01*
X12391071Y-17596500D01*
X12391071Y-17539357D01*
X12376786Y-17467929D01*
X12362500Y-17425072D01*
X12348214Y-17396500D01*
X12319643Y-17353643D01*
X12305357Y-17339357D01*
X5157500Y-17897500D02*
X5247500Y-17987500D01*
X5247500Y-17897500D02*
X5157500Y-17987500D01*
X5247500Y-17942500D02*
G75*
G03*
X5247500Y-17942500I-45000J0D01*
G01*
X5591071Y-17778214D02*
X5619643Y-17778214D01*
X5648214Y-17792500D01*
X5662500Y-17806786D01*
X5676786Y-17835357D01*
X5691071Y-17892500D01*
X5691071Y-17963929D01*
X5676786Y-18021072D01*
X5662500Y-18049643D01*
X5648214Y-18063929D01*
X5619643Y-18078214D01*
X5591071Y-18078214D01*
X5562500Y-18063929D01*
X5548214Y-18049643D01*
X5533928Y-18021072D01*
X5519643Y-17963929D01*
X5519643Y-17892500D01*
X5533928Y-17835357D01*
X5548214Y-17806786D01*
X5562500Y-17792500D01*
X5591071Y-17778214D01*
X5819643Y-18049643D02*
X5833928Y-18063929D01*
X5819643Y-18078214D01*
X5805357Y-18063929D01*
X5819643Y-18049643D01*
X5819643Y-18078214D01*
X5976786Y-18078214D02*
X6033928Y-18078214D01*
X6062500Y-18063929D01*
X6076786Y-18049643D01*
X6105357Y-18006786D01*
X6119643Y-17949643D01*
X6119643Y-17835357D01*
X6105357Y-17806786D01*
X6091071Y-17792500D01*
X6062500Y-17778214D01*
X6005357Y-17778214D01*
X5976786Y-17792500D01*
X5962500Y-17806786D01*
X5948214Y-17835357D01*
X5948214Y-17906786D01*
X5962500Y-17935357D01*
X5976786Y-17949643D01*
X6005357Y-17963929D01*
X6062500Y-17963929D01*
X6091071Y-17949643D01*
X6105357Y-17935357D01*
X6119643Y-17906786D01*
X6305357Y-17778214D02*
X6333928Y-17778214D01*
X6362500Y-17792500D01*
X6376786Y-17806786D01*
X6391071Y-17835357D01*
X6405357Y-17892500D01*
X6405357Y-17963929D01*
X6391071Y-18021072D01*
X6376786Y-18049643D01*
X6362500Y-18063929D01*
X6333928Y-18078214D01*
X6305357Y-18078214D01*
X6276786Y-18063929D01*
X6262500Y-18049643D01*
X6248214Y-18021072D01*
X6233928Y-17963929D01*
X6233928Y-17892500D01*
X6248214Y-17835357D01*
X6262500Y-17806786D01*
X6276786Y-17792500D01*
X6305357Y-17778214D01*
X6591071Y-17778214D02*
X6619643Y-17778214D01*
X6648214Y-17792500D01*
X6662500Y-17806786D01*
X6676786Y-17835357D01*
X6691071Y-17892500D01*
X6691071Y-17963929D01*
X6676786Y-18021072D01*
X6662500Y-18049643D01*
X6648214Y-18063929D01*
X6619643Y-18078214D01*
X6591071Y-18078214D01*
X6562500Y-18063929D01*
X6548214Y-18049643D01*
X6533928Y-18021072D01*
X6519643Y-17963929D01*
X6519643Y-17892500D01*
X6533928Y-17835357D01*
X6548214Y-17806786D01*
X6562500Y-17792500D01*
X6591071Y-17778214D01*
X6819643Y-18078214D02*
X6819643Y-17878214D01*
X6819643Y-17906786D02*
X6833928Y-17892500D01*
X6862500Y-17878214D01*
X6905357Y-17878214D01*
X6933928Y-17892500D01*
X6948214Y-17921072D01*
X6948214Y-18078214D01*
X6948214Y-17921072D02*
X6962500Y-17892500D01*
X6991071Y-17878214D01*
X7033928Y-17878214D01*
X7062500Y-17892500D01*
X7076786Y-17921072D01*
X7076786Y-18078214D01*
X7219643Y-18078214D02*
X7219643Y-17878214D01*
X7219643Y-17906786D02*
X7233928Y-17892500D01*
X7262500Y-17878214D01*
X7305357Y-17878214D01*
X7333928Y-17892500D01*
X7348214Y-17921072D01*
X7348214Y-18078214D01*
X7348214Y-17921072D02*
X7362500Y-17892500D01*
X7391071Y-17878214D01*
X7433928Y-17878214D01*
X7462500Y-17892500D01*
X7476786Y-17921072D01*
X7476786Y-18078214D01*
X8062500Y-17763929D02*
X7805357Y-18149643D01*
X8448214Y-17778214D02*
X8476786Y-17778214D01*
X8505357Y-17792500D01*
X8519643Y-17806786D01*
X8533928Y-17835357D01*
X8548214Y-17892500D01*
X8548214Y-17963929D01*
X8533928Y-18021072D01*
X8519643Y-18049643D01*
X8505357Y-18063929D01*
X8476786Y-18078214D01*
X8448214Y-18078214D01*
X8419643Y-18063929D01*
X8405357Y-18049643D01*
X8391071Y-18021072D01*
X8376786Y-17963929D01*
X8376786Y-17892500D01*
X8391071Y-17835357D01*
X8405357Y-17806786D01*
X8419643Y-17792500D01*
X8448214Y-17778214D01*
X8676786Y-18049643D02*
X8691071Y-18063929D01*
X8676786Y-18078214D01*
X8662500Y-18063929D01*
X8676786Y-18049643D01*
X8676786Y-18078214D01*
X8876786Y-17778214D02*
X8905357Y-17778214D01*
X8933928Y-17792500D01*
X8948214Y-17806786D01*
X8962500Y-17835357D01*
X8976786Y-17892500D01*
X8976786Y-17963929D01*
X8962500Y-18021072D01*
X8948214Y-18049643D01*
X8933928Y-18063929D01*
X8905357Y-18078214D01*
X8876786Y-18078214D01*
X8848214Y-18063929D01*
X8833928Y-18049643D01*
X8819643Y-18021072D01*
X8805357Y-17963929D01*
X8805357Y-17892500D01*
X8819643Y-17835357D01*
X8833928Y-17806786D01*
X8848214Y-17792500D01*
X8876786Y-17778214D01*
X9076786Y-17778214D02*
X9262500Y-17778214D01*
X9162500Y-17892500D01*
X9205357Y-17892500D01*
X9233928Y-17906786D01*
X9248214Y-17921072D01*
X9262500Y-17949643D01*
X9262500Y-18021072D01*
X9248214Y-18049643D01*
X9233928Y-18063929D01*
X9205357Y-18078214D01*
X9119643Y-18078214D01*
X9091071Y-18063929D01*
X9076786Y-18049643D01*
X9533928Y-17778214D02*
X9391071Y-17778214D01*
X9376786Y-17921072D01*
X9391071Y-17906786D01*
X9419643Y-17892500D01*
X9491071Y-17892500D01*
X9519643Y-17906786D01*
X9533928Y-17921072D01*
X9548214Y-17949643D01*
X9548214Y-18021072D01*
X9533928Y-18049643D01*
X9519643Y-18063929D01*
X9491071Y-18078214D01*
X9419643Y-18078214D01*
X9391071Y-18063929D01*
X9376786Y-18049643D01*
X9805357Y-17878214D02*
X9805357Y-18078214D01*
X9733928Y-17763929D02*
X9662500Y-17978214D01*
X9848214Y-17978214D01*
X9948214Y-17778214D02*
X9948214Y-17835357D01*
X10062500Y-17778214D02*
X10062500Y-17835357D01*
X10505357Y-18192500D02*
X10491071Y-18178214D01*
X10462500Y-18135357D01*
X10448214Y-18106786D01*
X10433928Y-18063929D01*
X10419643Y-17992500D01*
X10419643Y-17935357D01*
X10433928Y-17863929D01*
X10448214Y-17821072D01*
X10462500Y-17792500D01*
X10491071Y-17749643D01*
X10505357Y-17735357D01*
X10605357Y-17806786D02*
X10619643Y-17792500D01*
X10648214Y-17778214D01*
X10719643Y-17778214D01*
X10748214Y-17792500D01*
X10762500Y-17806786D01*
X10776786Y-17835357D01*
X10776786Y-17863929D01*
X10762500Y-17906786D01*
X10591071Y-18078214D01*
X10776786Y-18078214D01*
X11133928Y-18078214D02*
X11133928Y-17778214D01*
X11262500Y-18078214D02*
X11262500Y-17921072D01*
X11248214Y-17892500D01*
X11219643Y-17878214D01*
X11176786Y-17878214D01*
X11148214Y-17892500D01*
X11133928Y-17906786D01*
X11448214Y-18078214D02*
X11419643Y-18063929D01*
X11405357Y-18049643D01*
X11391071Y-18021072D01*
X11391071Y-17935357D01*
X11405357Y-17906786D01*
X11419643Y-17892500D01*
X11448214Y-17878214D01*
X11491071Y-17878214D01*
X11519643Y-17892500D01*
X11533928Y-17906786D01*
X11548214Y-17935357D01*
X11548214Y-18021072D01*
X11533928Y-18049643D01*
X11519643Y-18063929D01*
X11491071Y-18078214D01*
X11448214Y-18078214D01*
X11719643Y-18078214D02*
X11691071Y-18063929D01*
X11676786Y-18035357D01*
X11676786Y-17778214D01*
X11948214Y-18063929D02*
X11919643Y-18078214D01*
X11862500Y-18078214D01*
X11833928Y-18063929D01*
X11819643Y-18035357D01*
X11819643Y-17921072D01*
X11833928Y-17892500D01*
X11862500Y-17878214D01*
X11919643Y-17878214D01*
X11948214Y-17892500D01*
X11962500Y-17921072D01*
X11962500Y-17949643D01*
X11819643Y-17978214D01*
X12076786Y-18063929D02*
X12105357Y-18078214D01*
X12162500Y-18078214D01*
X12191071Y-18063929D01*
X12205357Y-18035357D01*
X12205357Y-18021072D01*
X12191071Y-17992500D01*
X12162500Y-17978214D01*
X12119643Y-17978214D01*
X12091071Y-17963929D01*
X12076786Y-17935357D01*
X12076786Y-17921072D01*
X12091071Y-17892500D01*
X12119643Y-17878214D01*
X12162500Y-17878214D01*
X12191071Y-17892500D01*
X12305357Y-18192500D02*
X12319643Y-18178214D01*
X12348214Y-18135357D01*
X12362500Y-18106786D01*
X12376786Y-18063929D01*
X12391071Y-17992500D01*
X12391071Y-17935357D01*
X12376786Y-17863929D01*
X12362500Y-17821072D01*
X12348214Y-17792500D01*
X12319643Y-17749643D01*
X12305357Y-17735357D01*
X5150500Y-18290000D02*
X5247500Y-18387000D01*
X5247500Y-18290000D02*
X5150500Y-18387000D01*
X5199000Y-18290000D02*
X5199000Y-18387000D01*
X5150500Y-18338500D02*
X5247500Y-18338500D01*
X5591071Y-18174214D02*
X5619643Y-18174214D01*
X5648214Y-18188500D01*
X5662500Y-18202786D01*
X5676786Y-18231357D01*
X5691071Y-18288500D01*
X5691071Y-18359929D01*
X5676786Y-18417072D01*
X5662500Y-18445643D01*
X5648214Y-18459929D01*
X5619643Y-18474214D01*
X5591071Y-18474214D01*
X5562500Y-18459929D01*
X5548214Y-18445643D01*
X5533928Y-18417072D01*
X5519643Y-18359929D01*
X5519643Y-18288500D01*
X5533928Y-18231357D01*
X5548214Y-18202786D01*
X5562500Y-18188500D01*
X5591071Y-18174214D01*
X5819643Y-18445643D02*
X5833928Y-18459929D01*
X5819643Y-18474214D01*
X5805357Y-18459929D01*
X5819643Y-18445643D01*
X5819643Y-18474214D01*
X5976786Y-18474214D02*
X6033928Y-18474214D01*
X6062500Y-18459929D01*
X6076786Y-18445643D01*
X6105357Y-18402786D01*
X6119643Y-18345643D01*
X6119643Y-18231357D01*
X6105357Y-18202786D01*
X6091071Y-18188500D01*
X6062500Y-18174214D01*
X6005357Y-18174214D01*
X5976786Y-18188500D01*
X5962500Y-18202786D01*
X5948214Y-18231357D01*
X5948214Y-18302786D01*
X5962500Y-18331357D01*
X5976786Y-18345643D01*
X6005357Y-18359929D01*
X6062500Y-18359929D01*
X6091071Y-18345643D01*
X6105357Y-18331357D01*
X6119643Y-18302786D01*
X6219643Y-18174214D02*
X6419643Y-18174214D01*
X6291071Y-18474214D01*
X6591071Y-18174214D02*
X6619643Y-18174214D01*
X6648214Y-18188500D01*
X6662500Y-18202786D01*
X6676786Y-18231357D01*
X6691071Y-18288500D01*
X6691071Y-18359929D01*
X6676786Y-18417072D01*
X6662500Y-18445643D01*
X6648214Y-18459929D01*
X6619643Y-18474214D01*
X6591071Y-18474214D01*
X6562500Y-18459929D01*
X6548214Y-18445643D01*
X6533928Y-18417072D01*
X6519643Y-18359929D01*
X6519643Y-18288500D01*
X6533928Y-18231357D01*
X6548214Y-18202786D01*
X6562500Y-18188500D01*
X6591071Y-18174214D01*
X6819643Y-18474214D02*
X6819643Y-18274214D01*
X6819643Y-18302786D02*
X6833928Y-18288500D01*
X6862500Y-18274214D01*
X6905357Y-18274214D01*
X6933928Y-18288500D01*
X6948214Y-18317072D01*
X6948214Y-18474214D01*
X6948214Y-18317072D02*
X6962500Y-18288500D01*
X6991071Y-18274214D01*
X7033928Y-18274214D01*
X7062500Y-18288500D01*
X7076786Y-18317072D01*
X7076786Y-18474214D01*
X7219643Y-18474214D02*
X7219643Y-18274214D01*
X7219643Y-18302786D02*
X7233928Y-18288500D01*
X7262500Y-18274214D01*
X7305357Y-18274214D01*
X7333928Y-18288500D01*
X7348214Y-18317072D01*
X7348214Y-18474214D01*
X7348214Y-18317072D02*
X7362500Y-18288500D01*
X7391071Y-18274214D01*
X7433928Y-18274214D01*
X7462500Y-18288500D01*
X7476786Y-18317072D01*
X7476786Y-18474214D01*
X8062500Y-18159929D02*
X7805357Y-18545643D01*
X8448214Y-18174214D02*
X8476786Y-18174214D01*
X8505357Y-18188500D01*
X8519643Y-18202786D01*
X8533928Y-18231357D01*
X8548214Y-18288500D01*
X8548214Y-18359929D01*
X8533928Y-18417072D01*
X8519643Y-18445643D01*
X8505357Y-18459929D01*
X8476786Y-18474214D01*
X8448214Y-18474214D01*
X8419643Y-18459929D01*
X8405357Y-18445643D01*
X8391071Y-18417072D01*
X8376786Y-18359929D01*
X8376786Y-18288500D01*
X8391071Y-18231357D01*
X8405357Y-18202786D01*
X8419643Y-18188500D01*
X8448214Y-18174214D01*
X8676786Y-18445643D02*
X8691071Y-18459929D01*
X8676786Y-18474214D01*
X8662500Y-18459929D01*
X8676786Y-18445643D01*
X8676786Y-18474214D01*
X8876786Y-18174214D02*
X8905357Y-18174214D01*
X8933928Y-18188500D01*
X8948214Y-18202786D01*
X8962500Y-18231357D01*
X8976786Y-18288500D01*
X8976786Y-18359929D01*
X8962500Y-18417072D01*
X8948214Y-18445643D01*
X8933928Y-18459929D01*
X8905357Y-18474214D01*
X8876786Y-18474214D01*
X8848214Y-18459929D01*
X8833928Y-18445643D01*
X8819643Y-18417072D01*
X8805357Y-18359929D01*
X8805357Y-18288500D01*
X8819643Y-18231357D01*
X8833928Y-18202786D01*
X8848214Y-18188500D01*
X8876786Y-18174214D01*
X9076786Y-18174214D02*
X9262500Y-18174214D01*
X9162500Y-18288500D01*
X9205357Y-18288500D01*
X9233928Y-18302786D01*
X9248214Y-18317072D01*
X9262500Y-18345643D01*
X9262500Y-18417072D01*
X9248214Y-18445643D01*
X9233928Y-18459929D01*
X9205357Y-18474214D01*
X9119643Y-18474214D01*
X9091071Y-18459929D01*
X9076786Y-18445643D01*
X9433928Y-18302786D02*
X9405357Y-18288500D01*
X9391071Y-18274214D01*
X9376786Y-18245643D01*
X9376786Y-18231357D01*
X9391071Y-18202786D01*
X9405357Y-18188500D01*
X9433928Y-18174214D01*
X9491071Y-18174214D01*
X9519643Y-18188500D01*
X9533928Y-18202786D01*
X9548214Y-18231357D01*
X9548214Y-18245643D01*
X9533928Y-18274214D01*
X9519643Y-18288500D01*
X9491071Y-18302786D01*
X9433928Y-18302786D01*
X9405357Y-18317072D01*
X9391071Y-18331357D01*
X9376786Y-18359929D01*
X9376786Y-18417072D01*
X9391071Y-18445643D01*
X9405357Y-18459929D01*
X9433928Y-18474214D01*
X9491071Y-18474214D01*
X9519643Y-18459929D01*
X9533928Y-18445643D01*
X9548214Y-18417072D01*
X9548214Y-18359929D01*
X9533928Y-18331357D01*
X9519643Y-18317072D01*
X9491071Y-18302786D01*
X9662500Y-18202786D02*
X9676786Y-18188500D01*
X9705357Y-18174214D01*
X9776786Y-18174214D01*
X9805357Y-18188500D01*
X9819643Y-18202786D01*
X9833928Y-18231357D01*
X9833928Y-18259929D01*
X9819643Y-18302786D01*
X9648214Y-18474214D01*
X9833928Y-18474214D01*
X9948214Y-18174214D02*
X9948214Y-18231357D01*
X10062500Y-18174214D02*
X10062500Y-18231357D01*
X10505357Y-18588500D02*
X10491071Y-18574214D01*
X10462500Y-18531357D01*
X10448214Y-18502786D01*
X10433928Y-18459929D01*
X10419643Y-18388500D01*
X10419643Y-18331357D01*
X10433928Y-18259929D01*
X10448214Y-18217072D01*
X10462500Y-18188500D01*
X10491071Y-18145643D01*
X10505357Y-18131357D01*
X10662500Y-18302786D02*
X10633928Y-18288500D01*
X10619643Y-18274214D01*
X10605357Y-18245643D01*
X10605357Y-18231357D01*
X10619643Y-18202786D01*
X10633928Y-18188500D01*
X10662500Y-18174214D01*
X10719643Y-18174214D01*
X10748214Y-18188500D01*
X10762500Y-18202786D01*
X10776786Y-18231357D01*
X10776786Y-18245643D01*
X10762500Y-18274214D01*
X10748214Y-18288500D01*
X10719643Y-18302786D01*
X10662500Y-18302786D01*
X10633928Y-18317072D01*
X10619643Y-18331357D01*
X10605357Y-18359929D01*
X10605357Y-18417072D01*
X10619643Y-18445643D01*
X10633928Y-18459929D01*
X10662500Y-18474214D01*
X10719643Y-18474214D01*
X10748214Y-18459929D01*
X10762500Y-18445643D01*
X10776786Y-18417072D01*
X10776786Y-18359929D01*
X10762500Y-18331357D01*
X10748214Y-18317072D01*
X10719643Y-18302786D01*
X11133928Y-18474214D02*
X11133928Y-18174214D01*
X11262500Y-18474214D02*
X11262500Y-18317072D01*
X11248214Y-18288500D01*
X11219643Y-18274214D01*
X11176786Y-18274214D01*
X11148214Y-18288500D01*
X11133928Y-18302786D01*
X11448214Y-18474214D02*
X11419643Y-18459929D01*
X11405357Y-18445643D01*
X11391071Y-18417072D01*
X11391071Y-18331357D01*
X11405357Y-18302786D01*
X11419643Y-18288500D01*
X11448214Y-18274214D01*
X11491071Y-18274214D01*
X11519643Y-18288500D01*
X11533928Y-18302786D01*
X11548214Y-18331357D01*
X11548214Y-18417072D01*
X11533928Y-18445643D01*
X11519643Y-18459929D01*
X11491071Y-18474214D01*
X11448214Y-18474214D01*
X11719643Y-18474214D02*
X11691071Y-18459929D01*
X11676786Y-18431357D01*
X11676786Y-18174214D01*
X11948214Y-18459929D02*
X11919643Y-18474214D01*
X11862500Y-18474214D01*
X11833928Y-18459929D01*
X11819643Y-18431357D01*
X11819643Y-18317072D01*
X11833928Y-18288500D01*
X11862500Y-18274214D01*
X11919643Y-18274214D01*
X11948214Y-18288500D01*
X11962500Y-18317072D01*
X11962500Y-18345643D01*
X11819643Y-18374214D01*
X12076786Y-18459929D02*
X12105357Y-18474214D01*
X12162500Y-18474214D01*
X12191071Y-18459929D01*
X12205357Y-18431357D01*
X12205357Y-18417072D01*
X12191071Y-18388500D01*
X12162500Y-18374214D01*
X12119643Y-18374214D01*
X12091071Y-18359929D01*
X12076786Y-18331357D01*
X12076786Y-18317072D01*
X12091071Y-18288500D01*
X12119643Y-18274214D01*
X12162500Y-18274214D01*
X12191071Y-18288500D01*
X12305357Y-18588500D02*
X12319643Y-18574214D01*
X12348214Y-18531357D01*
X12362500Y-18502786D01*
X12376786Y-18459929D01*
X12391071Y-18388500D01*
X12391071Y-18331357D01*
X12376786Y-18259929D01*
X12362500Y-18217072D01*
X12348214Y-18188500D01*
X12319643Y-18145643D01*
X12305357Y-18131357D01*
X5147500Y-18684500D02*
X5247500Y-18784500D01*
X5247500Y-18684500D02*
X5147500Y-18784500D01*
X5232856Y-18769856D02*
X5232856Y-18699144D01*
X5162144Y-18699144D01*
X5162144Y-18769856D01*
X5232856Y-18769856D01*
X5691071Y-18870214D02*
X5519643Y-18870214D01*
X5605357Y-18870214D02*
X5605357Y-18570214D01*
X5576786Y-18613072D01*
X5548214Y-18641643D01*
X5519643Y-18655929D01*
X5819643Y-18841643D02*
X5833928Y-18855929D01*
X5819643Y-18870214D01*
X5805357Y-18855929D01*
X5819643Y-18841643D01*
X5819643Y-18870214D01*
X6019643Y-18570214D02*
X6048214Y-18570214D01*
X6076786Y-18584500D01*
X6091071Y-18598786D01*
X6105357Y-18627357D01*
X6119643Y-18684500D01*
X6119643Y-18755929D01*
X6105357Y-18813072D01*
X6091071Y-18841643D01*
X6076786Y-18855929D01*
X6048214Y-18870214D01*
X6019643Y-18870214D01*
X5991071Y-18855929D01*
X5976786Y-18841643D01*
X5962500Y-18813072D01*
X5948214Y-18755929D01*
X5948214Y-18684500D01*
X5962500Y-18627357D01*
X5976786Y-18598786D01*
X5991071Y-18584500D01*
X6019643Y-18570214D01*
X6305357Y-18570214D02*
X6333928Y-18570214D01*
X6362500Y-18584500D01*
X6376786Y-18598786D01*
X6391071Y-18627357D01*
X6405357Y-18684500D01*
X6405357Y-18755929D01*
X6391071Y-18813072D01*
X6376786Y-18841643D01*
X6362500Y-18855929D01*
X6333928Y-18870214D01*
X6305357Y-18870214D01*
X6276786Y-18855929D01*
X6262500Y-18841643D01*
X6248214Y-18813072D01*
X6233928Y-18755929D01*
X6233928Y-18684500D01*
X6248214Y-18627357D01*
X6262500Y-18598786D01*
X6276786Y-18584500D01*
X6305357Y-18570214D01*
X6591071Y-18570214D02*
X6619643Y-18570214D01*
X6648214Y-18584500D01*
X6662500Y-18598786D01*
X6676786Y-18627357D01*
X6691071Y-18684500D01*
X6691071Y-18755929D01*
X6676786Y-18813072D01*
X6662500Y-18841643D01*
X6648214Y-18855929D01*
X6619643Y-18870214D01*
X6591071Y-18870214D01*
X6562500Y-18855929D01*
X6548214Y-18841643D01*
X6533928Y-18813072D01*
X6519643Y-18755929D01*
X6519643Y-18684500D01*
X6533928Y-18627357D01*
X6548214Y-18598786D01*
X6562500Y-18584500D01*
X6591071Y-18570214D01*
X6819643Y-18870214D02*
X6819643Y-18670214D01*
X6819643Y-18698786D02*
X6833928Y-18684500D01*
X6862500Y-18670214D01*
X6905357Y-18670214D01*
X6933928Y-18684500D01*
X6948214Y-18713072D01*
X6948214Y-18870214D01*
X6948214Y-18713072D02*
X6962500Y-18684500D01*
X6991071Y-18670214D01*
X7033928Y-18670214D01*
X7062500Y-18684500D01*
X7076786Y-18713072D01*
X7076786Y-18870214D01*
X7219643Y-18870214D02*
X7219643Y-18670214D01*
X7219643Y-18698786D02*
X7233928Y-18684500D01*
X7262500Y-18670214D01*
X7305357Y-18670214D01*
X7333928Y-18684500D01*
X7348214Y-18713072D01*
X7348214Y-18870214D01*
X7348214Y-18713072D02*
X7362500Y-18684500D01*
X7391071Y-18670214D01*
X7433928Y-18670214D01*
X7462500Y-18684500D01*
X7476786Y-18713072D01*
X7476786Y-18870214D01*
X8062500Y-18555929D02*
X7805357Y-18941643D01*
X8448214Y-18570214D02*
X8476786Y-18570214D01*
X8505357Y-18584500D01*
X8519643Y-18598786D01*
X8533928Y-18627357D01*
X8548214Y-18684500D01*
X8548214Y-18755929D01*
X8533928Y-18813072D01*
X8519643Y-18841643D01*
X8505357Y-18855929D01*
X8476786Y-18870214D01*
X8448214Y-18870214D01*
X8419643Y-18855929D01*
X8405357Y-18841643D01*
X8391071Y-18813072D01*
X8376786Y-18755929D01*
X8376786Y-18684500D01*
X8391071Y-18627357D01*
X8405357Y-18598786D01*
X8419643Y-18584500D01*
X8448214Y-18570214D01*
X8676786Y-18841643D02*
X8691071Y-18855929D01*
X8676786Y-18870214D01*
X8662500Y-18855929D01*
X8676786Y-18841643D01*
X8676786Y-18870214D01*
X8876786Y-18570214D02*
X8905357Y-18570214D01*
X8933928Y-18584500D01*
X8948214Y-18598786D01*
X8962500Y-18627357D01*
X8976786Y-18684500D01*
X8976786Y-18755929D01*
X8962500Y-18813072D01*
X8948214Y-18841643D01*
X8933928Y-18855929D01*
X8905357Y-18870214D01*
X8876786Y-18870214D01*
X8848214Y-18855929D01*
X8833928Y-18841643D01*
X8819643Y-18813072D01*
X8805357Y-18755929D01*
X8805357Y-18684500D01*
X8819643Y-18627357D01*
X8833928Y-18598786D01*
X8848214Y-18584500D01*
X8876786Y-18570214D01*
X9076786Y-18570214D02*
X9262500Y-18570214D01*
X9162500Y-18684500D01*
X9205357Y-18684500D01*
X9233928Y-18698786D01*
X9248214Y-18713072D01*
X9262500Y-18741643D01*
X9262500Y-18813072D01*
X9248214Y-18841643D01*
X9233928Y-18855929D01*
X9205357Y-18870214D01*
X9119643Y-18870214D01*
X9091071Y-18855929D01*
X9076786Y-18841643D01*
X9405357Y-18870214D02*
X9462500Y-18870214D01*
X9491071Y-18855929D01*
X9505357Y-18841643D01*
X9533928Y-18798786D01*
X9548214Y-18741643D01*
X9548214Y-18627357D01*
X9533928Y-18598786D01*
X9519643Y-18584500D01*
X9491071Y-18570214D01*
X9433928Y-18570214D01*
X9405357Y-18584500D01*
X9391071Y-18598786D01*
X9376786Y-18627357D01*
X9376786Y-18698786D01*
X9391071Y-18727357D01*
X9405357Y-18741643D01*
X9433928Y-18755929D01*
X9491071Y-18755929D01*
X9519643Y-18741643D01*
X9533928Y-18727357D01*
X9548214Y-18698786D01*
X9805357Y-18670214D02*
X9805357Y-18870214D01*
X9733928Y-18555929D02*
X9662500Y-18770214D01*
X9848214Y-18770214D01*
X9948214Y-18570214D02*
X9948214Y-18627357D01*
X10062500Y-18570214D02*
X10062500Y-18627357D01*
X10505357Y-18984500D02*
X10491071Y-18970214D01*
X10462500Y-18927357D01*
X10448214Y-18898786D01*
X10433928Y-18855929D01*
X10419643Y-18784500D01*
X10419643Y-18727357D01*
X10433928Y-18655929D01*
X10448214Y-18613072D01*
X10462500Y-18584500D01*
X10491071Y-18541643D01*
X10505357Y-18527357D01*
X10591071Y-18570214D02*
X10791071Y-18570214D01*
X10662500Y-18870214D01*
X10962500Y-18570214D02*
X10991071Y-18570214D01*
X11019643Y-18584500D01*
X11033928Y-18598786D01*
X11048214Y-18627357D01*
X11062500Y-18684500D01*
X11062500Y-18755929D01*
X11048214Y-18813072D01*
X11033928Y-18841643D01*
X11019643Y-18855929D01*
X10991071Y-18870214D01*
X10962500Y-18870214D01*
X10933928Y-18855929D01*
X10919643Y-18841643D01*
X10905357Y-18813072D01*
X10891071Y-18755929D01*
X10891071Y-18684500D01*
X10905357Y-18627357D01*
X10919643Y-18598786D01*
X10933928Y-18584500D01*
X10962500Y-18570214D01*
X11419643Y-18870214D02*
X11419643Y-18570214D01*
X11548214Y-18870214D02*
X11548214Y-18713072D01*
X11533928Y-18684500D01*
X11505357Y-18670214D01*
X11462500Y-18670214D01*
X11433928Y-18684500D01*
X11419643Y-18698786D01*
X11733928Y-18870214D02*
X11705357Y-18855929D01*
X11691071Y-18841643D01*
X11676786Y-18813072D01*
X11676786Y-18727357D01*
X11691071Y-18698786D01*
X11705357Y-18684500D01*
X11733928Y-18670214D01*
X11776786Y-18670214D01*
X11805357Y-18684500D01*
X11819643Y-18698786D01*
X11833928Y-18727357D01*
X11833928Y-18813072D01*
X11819643Y-18841643D01*
X11805357Y-18855929D01*
X11776786Y-18870214D01*
X11733928Y-18870214D01*
X12005357Y-18870214D02*
X11976786Y-18855929D01*
X11962500Y-18827357D01*
X11962500Y-18570214D01*
X12233928Y-18855929D02*
X12205357Y-18870214D01*
X12148214Y-18870214D01*
X12119643Y-18855929D01*
X12105357Y-18827357D01*
X12105357Y-18713072D01*
X12119643Y-18684500D01*
X12148214Y-18670214D01*
X12205357Y-18670214D01*
X12233928Y-18684500D01*
X12248214Y-18713072D01*
X12248214Y-18741643D01*
X12105357Y-18770214D01*
X12362500Y-18855929D02*
X12391071Y-18870214D01*
X12448214Y-18870214D01*
X12476786Y-18855929D01*
X12491071Y-18827357D01*
X12491071Y-18813072D01*
X12476786Y-18784500D01*
X12448214Y-18770214D01*
X12405357Y-18770214D01*
X12376786Y-18755929D01*
X12362500Y-18727357D01*
X12362500Y-18713072D01*
X12376786Y-18684500D01*
X12405357Y-18670214D01*
X12448214Y-18670214D01*
X12476786Y-18684500D01*
X12591071Y-18984500D02*
X12605357Y-18970214D01*
X12633928Y-18927357D01*
X12648214Y-18898786D01*
X12662500Y-18855929D01*
X12676786Y-18784500D01*
X12676786Y-18727357D01*
X12662500Y-18655929D01*
X12648214Y-18613072D01*
X12633928Y-18584500D01*
X12605357Y-18541643D01*
X12591071Y-18527357D01*
X5097500Y-19055500D02*
X5247500Y-19205500D01*
X5247500Y-19055500D02*
X5097500Y-19205500D01*
X5172500Y-19205500D02*
X5247500Y-19130500D01*
X5172500Y-19055500D01*
X5097500Y-19130500D01*
X5172500Y-19205500D01*
X5691071Y-19266214D02*
X5519643Y-19266214D01*
X5605357Y-19266214D02*
X5605357Y-18966214D01*
X5576786Y-19009072D01*
X5548214Y-19037643D01*
X5519643Y-19051929D01*
X5819643Y-19237643D02*
X5833928Y-19251929D01*
X5819643Y-19266214D01*
X5805357Y-19251929D01*
X5819643Y-19237643D01*
X5819643Y-19266214D01*
X6105357Y-18966214D02*
X5962500Y-18966214D01*
X5948214Y-19109072D01*
X5962500Y-19094786D01*
X5991071Y-19080500D01*
X6062500Y-19080500D01*
X6091071Y-19094786D01*
X6105357Y-19109072D01*
X6119643Y-19137643D01*
X6119643Y-19209072D01*
X6105357Y-19237643D01*
X6091071Y-19251929D01*
X6062500Y-19266214D01*
X5991071Y-19266214D01*
X5962500Y-19251929D01*
X5948214Y-19237643D01*
X6305357Y-18966214D02*
X6333928Y-18966214D01*
X6362500Y-18980500D01*
X6376786Y-18994786D01*
X6391071Y-19023357D01*
X6405357Y-19080500D01*
X6405357Y-19151929D01*
X6391071Y-19209072D01*
X6376786Y-19237643D01*
X6362500Y-19251929D01*
X6333928Y-19266214D01*
X6305357Y-19266214D01*
X6276786Y-19251929D01*
X6262500Y-19237643D01*
X6248214Y-19209072D01*
X6233928Y-19151929D01*
X6233928Y-19080500D01*
X6248214Y-19023357D01*
X6262500Y-18994786D01*
X6276786Y-18980500D01*
X6305357Y-18966214D01*
X6591071Y-18966214D02*
X6619643Y-18966214D01*
X6648214Y-18980500D01*
X6662500Y-18994786D01*
X6676786Y-19023357D01*
X6691071Y-19080500D01*
X6691071Y-19151929D01*
X6676786Y-19209072D01*
X6662500Y-19237643D01*
X6648214Y-19251929D01*
X6619643Y-19266214D01*
X6591071Y-19266214D01*
X6562500Y-19251929D01*
X6548214Y-19237643D01*
X6533928Y-19209072D01*
X6519643Y-19151929D01*
X6519643Y-19080500D01*
X6533928Y-19023357D01*
X6548214Y-18994786D01*
X6562500Y-18980500D01*
X6591071Y-18966214D01*
X6819643Y-19266214D02*
X6819643Y-19066214D01*
X6819643Y-19094786D02*
X6833928Y-19080500D01*
X6862500Y-19066214D01*
X6905357Y-19066214D01*
X6933928Y-19080500D01*
X6948214Y-19109072D01*
X6948214Y-19266214D01*
X6948214Y-19109072D02*
X6962500Y-19080500D01*
X6991071Y-19066214D01*
X7033928Y-19066214D01*
X7062500Y-19080500D01*
X7076786Y-19109072D01*
X7076786Y-19266214D01*
X7219643Y-19266214D02*
X7219643Y-19066214D01*
X7219643Y-19094786D02*
X7233928Y-19080500D01*
X7262500Y-19066214D01*
X7305357Y-19066214D01*
X7333928Y-19080500D01*
X7348214Y-19109072D01*
X7348214Y-19266214D01*
X7348214Y-19109072D02*
X7362500Y-19080500D01*
X7391071Y-19066214D01*
X7433928Y-19066214D01*
X7462500Y-19080500D01*
X7476786Y-19109072D01*
X7476786Y-19266214D01*
X8062500Y-18951929D02*
X7805357Y-19337643D01*
X8448214Y-18966214D02*
X8476786Y-18966214D01*
X8505357Y-18980500D01*
X8519643Y-18994786D01*
X8533928Y-19023357D01*
X8548214Y-19080500D01*
X8548214Y-19151929D01*
X8533928Y-19209072D01*
X8519643Y-19237643D01*
X8505357Y-19251929D01*
X8476786Y-19266214D01*
X8448214Y-19266214D01*
X8419643Y-19251929D01*
X8405357Y-19237643D01*
X8391071Y-19209072D01*
X8376786Y-19151929D01*
X8376786Y-19080500D01*
X8391071Y-19023357D01*
X8405357Y-18994786D01*
X8419643Y-18980500D01*
X8448214Y-18966214D01*
X8676786Y-19237643D02*
X8691071Y-19251929D01*
X8676786Y-19266214D01*
X8662500Y-19251929D01*
X8676786Y-19237643D01*
X8676786Y-19266214D01*
X8876786Y-18966214D02*
X8905357Y-18966214D01*
X8933928Y-18980500D01*
X8948214Y-18994786D01*
X8962500Y-19023357D01*
X8976786Y-19080500D01*
X8976786Y-19151929D01*
X8962500Y-19209072D01*
X8948214Y-19237643D01*
X8933928Y-19251929D01*
X8905357Y-19266214D01*
X8876786Y-19266214D01*
X8848214Y-19251929D01*
X8833928Y-19237643D01*
X8819643Y-19209072D01*
X8805357Y-19151929D01*
X8805357Y-19080500D01*
X8819643Y-19023357D01*
X8833928Y-18994786D01*
X8848214Y-18980500D01*
X8876786Y-18966214D01*
X9248214Y-18966214D02*
X9105357Y-18966214D01*
X9091071Y-19109072D01*
X9105357Y-19094786D01*
X9133928Y-19080500D01*
X9205357Y-19080500D01*
X9233928Y-19094786D01*
X9248214Y-19109072D01*
X9262500Y-19137643D01*
X9262500Y-19209072D01*
X9248214Y-19237643D01*
X9233928Y-19251929D01*
X9205357Y-19266214D01*
X9133928Y-19266214D01*
X9105357Y-19251929D01*
X9091071Y-19237643D01*
X9405357Y-19266214D02*
X9462500Y-19266214D01*
X9491071Y-19251929D01*
X9505357Y-19237643D01*
X9533928Y-19194786D01*
X9548214Y-19137643D01*
X9548214Y-19023357D01*
X9533928Y-18994786D01*
X9519643Y-18980500D01*
X9491071Y-18966214D01*
X9433928Y-18966214D01*
X9405357Y-18980500D01*
X9391071Y-18994786D01*
X9376786Y-19023357D01*
X9376786Y-19094786D01*
X9391071Y-19123357D01*
X9405357Y-19137643D01*
X9433928Y-19151929D01*
X9491071Y-19151929D01*
X9519643Y-19137643D01*
X9533928Y-19123357D01*
X9548214Y-19094786D01*
X9833928Y-19266214D02*
X9662500Y-19266214D01*
X9748214Y-19266214D02*
X9748214Y-18966214D01*
X9719643Y-19009072D01*
X9691071Y-19037643D01*
X9662500Y-19051929D01*
X9948214Y-18966214D02*
X9948214Y-19023357D01*
X10062500Y-18966214D02*
X10062500Y-19023357D01*
X10505357Y-19380500D02*
X10491071Y-19366214D01*
X10462500Y-19323357D01*
X10448214Y-19294786D01*
X10433928Y-19251929D01*
X10419643Y-19180500D01*
X10419643Y-19123357D01*
X10433928Y-19051929D01*
X10448214Y-19009072D01*
X10462500Y-18980500D01*
X10491071Y-18937643D01*
X10505357Y-18923357D01*
X10748214Y-19066214D02*
X10748214Y-19266214D01*
X10676786Y-18951929D02*
X10605357Y-19166214D01*
X10791071Y-19166214D01*
X11133928Y-19266214D02*
X11133928Y-18966214D01*
X11262500Y-19266214D02*
X11262500Y-19109072D01*
X11248214Y-19080500D01*
X11219643Y-19066214D01*
X11176786Y-19066214D01*
X11148214Y-19080500D01*
X11133928Y-19094786D01*
X11448214Y-19266214D02*
X11419643Y-19251929D01*
X11405357Y-19237643D01*
X11391071Y-19209072D01*
X11391071Y-19123357D01*
X11405357Y-19094786D01*
X11419643Y-19080500D01*
X11448214Y-19066214D01*
X11491071Y-19066214D01*
X11519643Y-19080500D01*
X11533928Y-19094786D01*
X11548214Y-19123357D01*
X11548214Y-19209072D01*
X11533928Y-19237643D01*
X11519643Y-19251929D01*
X11491071Y-19266214D01*
X11448214Y-19266214D01*
X11719643Y-19266214D02*
X11691071Y-19251929D01*
X11676786Y-19223357D01*
X11676786Y-18966214D01*
X11948214Y-19251929D02*
X11919643Y-19266214D01*
X11862500Y-19266214D01*
X11833928Y-19251929D01*
X11819643Y-19223357D01*
X11819643Y-19109072D01*
X11833928Y-19080500D01*
X11862500Y-19066214D01*
X11919643Y-19066214D01*
X11948214Y-19080500D01*
X11962500Y-19109072D01*
X11962500Y-19137643D01*
X11819643Y-19166214D01*
X12076786Y-19251929D02*
X12105357Y-19266214D01*
X12162500Y-19266214D01*
X12191071Y-19251929D01*
X12205357Y-19223357D01*
X12205357Y-19209072D01*
X12191071Y-19180500D01*
X12162500Y-19166214D01*
X12119643Y-19166214D01*
X12091071Y-19151929D01*
X12076786Y-19123357D01*
X12076786Y-19109072D01*
X12091071Y-19080500D01*
X12119643Y-19066214D01*
X12162500Y-19066214D01*
X12191071Y-19080500D01*
X12305357Y-19380500D02*
X12319643Y-19366214D01*
X12348214Y-19323357D01*
X12362500Y-19294786D01*
X12376786Y-19251929D01*
X12391071Y-19180500D01*
X12391071Y-19123357D01*
X12376786Y-19051929D01*
X12362500Y-19009072D01*
X12348214Y-18980500D01*
X12319643Y-18937643D01*
X12305357Y-18923357D01*
X5133000Y-19412000D02*
X5133000Y-19641000D01*
X5018500Y-19526500D02*
X5247500Y-19526500D01*
X5247500Y-19526500D02*
G75*
G03*
X5247500Y-19526500I-114500J0D01*
G01*
X5519643Y-19390786D02*
X5533928Y-19376500D01*
X5562500Y-19362214D01*
X5633928Y-19362214D01*
X5662500Y-19376500D01*
X5676786Y-19390786D01*
X5691071Y-19419357D01*
X5691071Y-19447929D01*
X5676786Y-19490786D01*
X5505357Y-19662214D01*
X5691071Y-19662214D01*
X5819643Y-19633643D02*
X5833928Y-19647929D01*
X5819643Y-19662214D01*
X5805357Y-19647929D01*
X5819643Y-19633643D01*
X5819643Y-19662214D01*
X5948214Y-19390786D02*
X5962500Y-19376500D01*
X5991071Y-19362214D01*
X6062500Y-19362214D01*
X6091071Y-19376500D01*
X6105357Y-19390786D01*
X6119643Y-19419357D01*
X6119643Y-19447929D01*
X6105357Y-19490786D01*
X5933928Y-19662214D01*
X6119643Y-19662214D01*
X6262500Y-19662214D02*
X6319643Y-19662214D01*
X6348214Y-19647929D01*
X6362500Y-19633643D01*
X6391071Y-19590786D01*
X6405357Y-19533643D01*
X6405357Y-19419357D01*
X6391071Y-19390786D01*
X6376786Y-19376500D01*
X6348214Y-19362214D01*
X6291071Y-19362214D01*
X6262500Y-19376500D01*
X6248214Y-19390786D01*
X6233928Y-19419357D01*
X6233928Y-19490786D01*
X6248214Y-19519357D01*
X6262500Y-19533643D01*
X6291071Y-19547929D01*
X6348214Y-19547929D01*
X6376786Y-19533643D01*
X6391071Y-19519357D01*
X6405357Y-19490786D01*
X6591071Y-19362214D02*
X6619643Y-19362214D01*
X6648214Y-19376500D01*
X6662500Y-19390786D01*
X6676786Y-19419357D01*
X6691071Y-19476500D01*
X6691071Y-19547929D01*
X6676786Y-19605072D01*
X6662500Y-19633643D01*
X6648214Y-19647929D01*
X6619643Y-19662214D01*
X6591071Y-19662214D01*
X6562500Y-19647929D01*
X6548214Y-19633643D01*
X6533928Y-19605072D01*
X6519643Y-19547929D01*
X6519643Y-19476500D01*
X6533928Y-19419357D01*
X6548214Y-19390786D01*
X6562500Y-19376500D01*
X6591071Y-19362214D01*
X6819643Y-19662214D02*
X6819643Y-19462214D01*
X6819643Y-19490786D02*
X6833928Y-19476500D01*
X6862500Y-19462214D01*
X6905357Y-19462214D01*
X6933928Y-19476500D01*
X6948214Y-19505072D01*
X6948214Y-19662214D01*
X6948214Y-19505072D02*
X6962500Y-19476500D01*
X6991071Y-19462214D01*
X7033928Y-19462214D01*
X7062500Y-19476500D01*
X7076786Y-19505072D01*
X7076786Y-19662214D01*
X7219643Y-19662214D02*
X7219643Y-19462214D01*
X7219643Y-19490786D02*
X7233928Y-19476500D01*
X7262500Y-19462214D01*
X7305357Y-19462214D01*
X7333928Y-19476500D01*
X7348214Y-19505072D01*
X7348214Y-19662214D01*
X7348214Y-19505072D02*
X7362500Y-19476500D01*
X7391071Y-19462214D01*
X7433928Y-19462214D01*
X7462500Y-19476500D01*
X7476786Y-19505072D01*
X7476786Y-19662214D01*
X8062500Y-19347929D02*
X7805357Y-19733643D01*
X8448214Y-19362214D02*
X8476786Y-19362214D01*
X8505357Y-19376500D01*
X8519643Y-19390786D01*
X8533928Y-19419357D01*
X8548214Y-19476500D01*
X8548214Y-19547929D01*
X8533928Y-19605072D01*
X8519643Y-19633643D01*
X8505357Y-19647929D01*
X8476786Y-19662214D01*
X8448214Y-19662214D01*
X8419643Y-19647929D01*
X8405357Y-19633643D01*
X8391071Y-19605072D01*
X8376786Y-19547929D01*
X8376786Y-19476500D01*
X8391071Y-19419357D01*
X8405357Y-19390786D01*
X8419643Y-19376500D01*
X8448214Y-19362214D01*
X8676786Y-19633643D02*
X8691071Y-19647929D01*
X8676786Y-19662214D01*
X8662500Y-19647929D01*
X8676786Y-19633643D01*
X8676786Y-19662214D01*
X8876786Y-19362214D02*
X8905357Y-19362214D01*
X8933928Y-19376500D01*
X8948214Y-19390786D01*
X8962500Y-19419357D01*
X8976786Y-19476500D01*
X8976786Y-19547929D01*
X8962500Y-19605072D01*
X8948214Y-19633643D01*
X8933928Y-19647929D01*
X8905357Y-19662214D01*
X8876786Y-19662214D01*
X8848214Y-19647929D01*
X8833928Y-19633643D01*
X8819643Y-19605072D01*
X8805357Y-19547929D01*
X8805357Y-19476500D01*
X8819643Y-19419357D01*
X8833928Y-19390786D01*
X8848214Y-19376500D01*
X8876786Y-19362214D01*
X9119643Y-19662214D02*
X9176786Y-19662214D01*
X9205357Y-19647929D01*
X9219643Y-19633643D01*
X9248214Y-19590786D01*
X9262500Y-19533643D01*
X9262500Y-19419357D01*
X9248214Y-19390786D01*
X9233928Y-19376500D01*
X9205357Y-19362214D01*
X9148214Y-19362214D01*
X9119643Y-19376500D01*
X9105357Y-19390786D01*
X9091071Y-19419357D01*
X9091071Y-19490786D01*
X9105357Y-19519357D01*
X9119643Y-19533643D01*
X9148214Y-19547929D01*
X9205357Y-19547929D01*
X9233928Y-19533643D01*
X9248214Y-19519357D01*
X9262500Y-19490786D01*
X9448214Y-19362214D02*
X9476786Y-19362214D01*
X9505357Y-19376500D01*
X9519643Y-19390786D01*
X9533928Y-19419357D01*
X9548214Y-19476500D01*
X9548214Y-19547929D01*
X9533928Y-19605072D01*
X9519643Y-19633643D01*
X9505357Y-19647929D01*
X9476786Y-19662214D01*
X9448214Y-19662214D01*
X9419643Y-19647929D01*
X9405357Y-19633643D01*
X9391071Y-19605072D01*
X9376786Y-19547929D01*
X9376786Y-19476500D01*
X9391071Y-19419357D01*
X9405357Y-19390786D01*
X9419643Y-19376500D01*
X9448214Y-19362214D01*
X9662500Y-19390786D02*
X9676786Y-19376500D01*
X9705357Y-19362214D01*
X9776786Y-19362214D01*
X9805357Y-19376500D01*
X9819643Y-19390786D01*
X9833928Y-19419357D01*
X9833928Y-19447929D01*
X9819643Y-19490786D01*
X9648214Y-19662214D01*
X9833928Y-19662214D01*
X9948214Y-19362214D02*
X9948214Y-19419357D01*
X10062500Y-19362214D02*
X10062500Y-19419357D01*
X10505357Y-19776500D02*
X10491071Y-19762214D01*
X10462500Y-19719357D01*
X10448214Y-19690786D01*
X10433928Y-19647929D01*
X10419643Y-19576500D01*
X10419643Y-19519357D01*
X10433928Y-19447929D01*
X10448214Y-19405072D01*
X10462500Y-19376500D01*
X10491071Y-19333643D01*
X10505357Y-19319357D01*
X10591071Y-19362214D02*
X10776786Y-19362214D01*
X10676786Y-19476500D01*
X10719643Y-19476500D01*
X10748214Y-19490786D01*
X10762500Y-19505072D01*
X10776786Y-19533643D01*
X10776786Y-19605072D01*
X10762500Y-19633643D01*
X10748214Y-19647929D01*
X10719643Y-19662214D01*
X10633928Y-19662214D01*
X10605357Y-19647929D01*
X10591071Y-19633643D01*
X11133928Y-19662214D02*
X11133928Y-19362214D01*
X11262500Y-19662214D02*
X11262500Y-19505072D01*
X11248214Y-19476500D01*
X11219643Y-19462214D01*
X11176786Y-19462214D01*
X11148214Y-19476500D01*
X11133928Y-19490786D01*
X11448214Y-19662214D02*
X11419643Y-19647929D01*
X11405357Y-19633643D01*
X11391071Y-19605072D01*
X11391071Y-19519357D01*
X11405357Y-19490786D01*
X11419643Y-19476500D01*
X11448214Y-19462214D01*
X11491071Y-19462214D01*
X11519643Y-19476500D01*
X11533928Y-19490786D01*
X11548214Y-19519357D01*
X11548214Y-19605072D01*
X11533928Y-19633643D01*
X11519643Y-19647929D01*
X11491071Y-19662214D01*
X11448214Y-19662214D01*
X11719643Y-19662214D02*
X11691071Y-19647929D01*
X11676786Y-19619357D01*
X11676786Y-19362214D01*
X11948214Y-19647929D02*
X11919643Y-19662214D01*
X11862500Y-19662214D01*
X11833928Y-19647929D01*
X11819643Y-19619357D01*
X11819643Y-19505072D01*
X11833928Y-19476500D01*
X11862500Y-19462214D01*
X11919643Y-19462214D01*
X11948214Y-19476500D01*
X11962500Y-19505072D01*
X11962500Y-19533643D01*
X11819643Y-19562214D01*
X12076786Y-19647929D02*
X12105357Y-19662214D01*
X12162500Y-19662214D01*
X12191071Y-19647929D01*
X12205357Y-19619357D01*
X12205357Y-19605072D01*
X12191071Y-19576500D01*
X12162500Y-19562214D01*
X12119643Y-19562214D01*
X12091071Y-19547929D01*
X12076786Y-19519357D01*
X12076786Y-19505072D01*
X12091071Y-19476500D01*
X12119643Y-19462214D01*
X12162500Y-19462214D01*
X12191071Y-19476500D01*
X12305357Y-19776500D02*
X12319643Y-19762214D01*
X12348214Y-19719357D01*
X12362500Y-19690786D01*
X12376786Y-19647929D01*
X12391071Y-19576500D01*
X12391071Y-19519357D01*
X12376786Y-19447929D01*
X12362500Y-19405072D01*
X12348214Y-19376500D01*
X12319643Y-19333643D01*
X12305357Y-19319357D01*
X5212793Y-20006293D02*
X5212793Y-19838707D01*
X5045207Y-19838707D01*
X5045207Y-20006293D01*
X5212793Y-20006293D01*
X5247500Y-19922500D02*
G75*
G03*
X5247500Y-19922500I-118500J0D01*
G01*
X5519643Y-19786786D02*
X5533928Y-19772500D01*
X5562500Y-19758214D01*
X5633928Y-19758214D01*
X5662500Y-19772500D01*
X5676786Y-19786786D01*
X5691071Y-19815357D01*
X5691071Y-19843929D01*
X5676786Y-19886786D01*
X5505357Y-20058214D01*
X5691071Y-20058214D01*
X5819643Y-20029643D02*
X5833928Y-20043929D01*
X5819643Y-20058214D01*
X5805357Y-20043929D01*
X5819643Y-20029643D01*
X5819643Y-20058214D01*
X5933928Y-19758214D02*
X6119643Y-19758214D01*
X6019643Y-19872500D01*
X6062500Y-19872500D01*
X6091071Y-19886786D01*
X6105357Y-19901072D01*
X6119643Y-19929643D01*
X6119643Y-20001072D01*
X6105357Y-20029643D01*
X6091071Y-20043929D01*
X6062500Y-20058214D01*
X5976786Y-20058214D01*
X5948214Y-20043929D01*
X5933928Y-20029643D01*
X6219643Y-19758214D02*
X6419643Y-19758214D01*
X6291071Y-20058214D01*
X6591071Y-19758214D02*
X6619643Y-19758214D01*
X6648214Y-19772500D01*
X6662500Y-19786786D01*
X6676786Y-19815357D01*
X6691071Y-19872500D01*
X6691071Y-19943929D01*
X6676786Y-20001072D01*
X6662500Y-20029643D01*
X6648214Y-20043929D01*
X6619643Y-20058214D01*
X6591071Y-20058214D01*
X6562500Y-20043929D01*
X6548214Y-20029643D01*
X6533928Y-20001072D01*
X6519643Y-19943929D01*
X6519643Y-19872500D01*
X6533928Y-19815357D01*
X6548214Y-19786786D01*
X6562500Y-19772500D01*
X6591071Y-19758214D01*
X6819643Y-20058214D02*
X6819643Y-19858214D01*
X6819643Y-19886786D02*
X6833928Y-19872500D01*
X6862500Y-19858214D01*
X6905357Y-19858214D01*
X6933928Y-19872500D01*
X6948214Y-19901072D01*
X6948214Y-20058214D01*
X6948214Y-19901072D02*
X6962500Y-19872500D01*
X6991071Y-19858214D01*
X7033928Y-19858214D01*
X7062500Y-19872500D01*
X7076786Y-19901072D01*
X7076786Y-20058214D01*
X7219643Y-20058214D02*
X7219643Y-19858214D01*
X7219643Y-19886786D02*
X7233928Y-19872500D01*
X7262500Y-19858214D01*
X7305357Y-19858214D01*
X7333928Y-19872500D01*
X7348214Y-19901072D01*
X7348214Y-20058214D01*
X7348214Y-19901072D02*
X7362500Y-19872500D01*
X7391071Y-19858214D01*
X7433928Y-19858214D01*
X7462500Y-19872500D01*
X7476786Y-19901072D01*
X7476786Y-20058214D01*
X8062500Y-19743929D02*
X7805357Y-20129643D01*
X8448214Y-19758214D02*
X8476786Y-19758214D01*
X8505357Y-19772500D01*
X8519643Y-19786786D01*
X8533928Y-19815357D01*
X8548214Y-19872500D01*
X8548214Y-19943929D01*
X8533928Y-20001072D01*
X8519643Y-20029643D01*
X8505357Y-20043929D01*
X8476786Y-20058214D01*
X8448214Y-20058214D01*
X8419643Y-20043929D01*
X8405357Y-20029643D01*
X8391071Y-20001072D01*
X8376786Y-19943929D01*
X8376786Y-19872500D01*
X8391071Y-19815357D01*
X8405357Y-19786786D01*
X8419643Y-19772500D01*
X8448214Y-19758214D01*
X8676786Y-20029643D02*
X8691071Y-20043929D01*
X8676786Y-20058214D01*
X8662500Y-20043929D01*
X8676786Y-20029643D01*
X8676786Y-20058214D01*
X8876786Y-19758214D02*
X8905357Y-19758214D01*
X8933928Y-19772500D01*
X8948214Y-19786786D01*
X8962500Y-19815357D01*
X8976786Y-19872500D01*
X8976786Y-19943929D01*
X8962500Y-20001072D01*
X8948214Y-20029643D01*
X8933928Y-20043929D01*
X8905357Y-20058214D01*
X8876786Y-20058214D01*
X8848214Y-20043929D01*
X8833928Y-20029643D01*
X8819643Y-20001072D01*
X8805357Y-19943929D01*
X8805357Y-19872500D01*
X8819643Y-19815357D01*
X8833928Y-19786786D01*
X8848214Y-19772500D01*
X8876786Y-19758214D01*
X9119643Y-20058214D02*
X9176786Y-20058214D01*
X9205357Y-20043929D01*
X9219643Y-20029643D01*
X9248214Y-19986786D01*
X9262500Y-19929643D01*
X9262500Y-19815357D01*
X9248214Y-19786786D01*
X9233928Y-19772500D01*
X9205357Y-19758214D01*
X9148214Y-19758214D01*
X9119643Y-19772500D01*
X9105357Y-19786786D01*
X9091071Y-19815357D01*
X9091071Y-19886786D01*
X9105357Y-19915357D01*
X9119643Y-19929643D01*
X9148214Y-19943929D01*
X9205357Y-19943929D01*
X9233928Y-19929643D01*
X9248214Y-19915357D01*
X9262500Y-19886786D01*
X9362500Y-19758214D02*
X9548214Y-19758214D01*
X9448214Y-19872500D01*
X9491071Y-19872500D01*
X9519643Y-19886786D01*
X9533928Y-19901072D01*
X9548214Y-19929643D01*
X9548214Y-20001072D01*
X9533928Y-20029643D01*
X9519643Y-20043929D01*
X9491071Y-20058214D01*
X9405357Y-20058214D01*
X9376786Y-20043929D01*
X9362500Y-20029643D01*
X9648214Y-19758214D02*
X9833928Y-19758214D01*
X9733928Y-19872500D01*
X9776786Y-19872500D01*
X9805357Y-19886786D01*
X9819643Y-19901072D01*
X9833928Y-19929643D01*
X9833928Y-20001072D01*
X9819643Y-20029643D01*
X9805357Y-20043929D01*
X9776786Y-20058214D01*
X9691071Y-20058214D01*
X9662500Y-20043929D01*
X9648214Y-20029643D01*
X9948214Y-19758214D02*
X9948214Y-19815357D01*
X10062500Y-19758214D02*
X10062500Y-19815357D01*
X10505357Y-20172500D02*
X10491071Y-20158214D01*
X10462500Y-20115357D01*
X10448214Y-20086786D01*
X10433928Y-20043929D01*
X10419643Y-19972500D01*
X10419643Y-19915357D01*
X10433928Y-19843929D01*
X10448214Y-19801072D01*
X10462500Y-19772500D01*
X10491071Y-19729643D01*
X10505357Y-19715357D01*
X10591071Y-19758214D02*
X10776786Y-19758214D01*
X10676786Y-19872500D01*
X10719643Y-19872500D01*
X10748214Y-19886786D01*
X10762500Y-19901072D01*
X10776786Y-19929643D01*
X10776786Y-20001072D01*
X10762500Y-20029643D01*
X10748214Y-20043929D01*
X10719643Y-20058214D01*
X10633928Y-20058214D01*
X10605357Y-20043929D01*
X10591071Y-20029643D01*
X11133928Y-20058214D02*
X11133928Y-19758214D01*
X11262500Y-20058214D02*
X11262500Y-19901072D01*
X11248214Y-19872500D01*
X11219643Y-19858214D01*
X11176786Y-19858214D01*
X11148214Y-19872500D01*
X11133928Y-19886786D01*
X11448214Y-20058214D02*
X11419643Y-20043929D01*
X11405357Y-20029643D01*
X11391071Y-20001072D01*
X11391071Y-19915357D01*
X11405357Y-19886786D01*
X11419643Y-19872500D01*
X11448214Y-19858214D01*
X11491071Y-19858214D01*
X11519643Y-19872500D01*
X11533928Y-19886786D01*
X11548214Y-19915357D01*
X11548214Y-20001072D01*
X11533928Y-20029643D01*
X11519643Y-20043929D01*
X11491071Y-20058214D01*
X11448214Y-20058214D01*
X11719643Y-20058214D02*
X11691071Y-20043929D01*
X11676786Y-20015357D01*
X11676786Y-19758214D01*
X11948214Y-20043929D02*
X11919643Y-20058214D01*
X11862500Y-20058214D01*
X11833928Y-20043929D01*
X11819643Y-20015357D01*
X11819643Y-19901072D01*
X11833928Y-19872500D01*
X11862500Y-19858214D01*
X11919643Y-19858214D01*
X11948214Y-19872500D01*
X11962500Y-19901072D01*
X11962500Y-19929643D01*
X11819643Y-19958214D01*
X12076786Y-20043929D02*
X12105357Y-20058214D01*
X12162500Y-20058214D01*
X12191071Y-20043929D01*
X12205357Y-20015357D01*
X12205357Y-20001072D01*
X12191071Y-19972500D01*
X12162500Y-19958214D01*
X12119643Y-19958214D01*
X12091071Y-19943929D01*
X12076786Y-19915357D01*
X12076786Y-19901072D01*
X12091071Y-19872500D01*
X12119643Y-19858214D01*
X12162500Y-19858214D01*
X12191071Y-19872500D01*
X12305357Y-20172500D02*
X12319643Y-20158214D01*
X12348214Y-20115357D01*
X12362500Y-20086786D01*
X12376786Y-20043929D01*
X12391071Y-19972500D01*
X12391071Y-19915357D01*
X12376786Y-19843929D01*
X12362500Y-19801072D01*
X12348214Y-19772500D01*
X12319643Y-19729643D01*
X12305357Y-19715357D01*
X5126500Y-20439500D02*
X5247500Y-20318500D01*
X5126500Y-20197500D01*
X5005500Y-20318500D01*
X5126500Y-20439500D01*
X5247500Y-20318500D02*
G75*
G03*
X5247500Y-20318500I-121000J0D01*
G01*
X5519643Y-20182786D02*
X5533928Y-20168500D01*
X5562500Y-20154214D01*
X5633928Y-20154214D01*
X5662500Y-20168500D01*
X5676786Y-20182786D01*
X5691071Y-20211357D01*
X5691071Y-20239929D01*
X5676786Y-20282786D01*
X5505357Y-20454214D01*
X5691071Y-20454214D01*
X5819643Y-20425643D02*
X5833928Y-20439929D01*
X5819643Y-20454214D01*
X5805357Y-20439929D01*
X5819643Y-20425643D01*
X5819643Y-20454214D01*
X6091071Y-20254214D02*
X6091071Y-20454214D01*
X6019643Y-20139929D02*
X5948214Y-20354214D01*
X6133928Y-20354214D01*
X6233928Y-20182786D02*
X6248214Y-20168500D01*
X6276786Y-20154214D01*
X6348214Y-20154214D01*
X6376786Y-20168500D01*
X6391071Y-20182786D01*
X6405357Y-20211357D01*
X6405357Y-20239929D01*
X6391071Y-20282786D01*
X6219643Y-20454214D01*
X6405357Y-20454214D01*
X6591071Y-20154214D02*
X6619643Y-20154214D01*
X6648214Y-20168500D01*
X6662500Y-20182786D01*
X6676786Y-20211357D01*
X6691071Y-20268500D01*
X6691071Y-20339929D01*
X6676786Y-20397072D01*
X6662500Y-20425643D01*
X6648214Y-20439929D01*
X6619643Y-20454214D01*
X6591071Y-20454214D01*
X6562500Y-20439929D01*
X6548214Y-20425643D01*
X6533928Y-20397072D01*
X6519643Y-20339929D01*
X6519643Y-20268500D01*
X6533928Y-20211357D01*
X6548214Y-20182786D01*
X6562500Y-20168500D01*
X6591071Y-20154214D01*
X6819643Y-20454214D02*
X6819643Y-20254214D01*
X6819643Y-20282786D02*
X6833928Y-20268500D01*
X6862500Y-20254214D01*
X6905357Y-20254214D01*
X6933928Y-20268500D01*
X6948214Y-20297072D01*
X6948214Y-20454214D01*
X6948214Y-20297072D02*
X6962500Y-20268500D01*
X6991071Y-20254214D01*
X7033928Y-20254214D01*
X7062500Y-20268500D01*
X7076786Y-20297072D01*
X7076786Y-20454214D01*
X7219643Y-20454214D02*
X7219643Y-20254214D01*
X7219643Y-20282786D02*
X7233928Y-20268500D01*
X7262500Y-20254214D01*
X7305357Y-20254214D01*
X7333928Y-20268500D01*
X7348214Y-20297072D01*
X7348214Y-20454214D01*
X7348214Y-20297072D02*
X7362500Y-20268500D01*
X7391071Y-20254214D01*
X7433928Y-20254214D01*
X7462500Y-20268500D01*
X7476786Y-20297072D01*
X7476786Y-20454214D01*
X8062500Y-20139929D02*
X7805357Y-20525643D01*
X8448214Y-20154214D02*
X8476786Y-20154214D01*
X8505357Y-20168500D01*
X8519643Y-20182786D01*
X8533928Y-20211357D01*
X8548214Y-20268500D01*
X8548214Y-20339929D01*
X8533928Y-20397072D01*
X8519643Y-20425643D01*
X8505357Y-20439929D01*
X8476786Y-20454214D01*
X8448214Y-20454214D01*
X8419643Y-20439929D01*
X8405357Y-20425643D01*
X8391071Y-20397072D01*
X8376786Y-20339929D01*
X8376786Y-20268500D01*
X8391071Y-20211357D01*
X8405357Y-20182786D01*
X8419643Y-20168500D01*
X8448214Y-20154214D01*
X8676786Y-20425643D02*
X8691071Y-20439929D01*
X8676786Y-20454214D01*
X8662500Y-20439929D01*
X8676786Y-20425643D01*
X8676786Y-20454214D01*
X8876786Y-20154214D02*
X8905357Y-20154214D01*
X8933928Y-20168500D01*
X8948214Y-20182786D01*
X8962500Y-20211357D01*
X8976786Y-20268500D01*
X8976786Y-20339929D01*
X8962500Y-20397072D01*
X8948214Y-20425643D01*
X8933928Y-20439929D01*
X8905357Y-20454214D01*
X8876786Y-20454214D01*
X8848214Y-20439929D01*
X8833928Y-20425643D01*
X8819643Y-20397072D01*
X8805357Y-20339929D01*
X8805357Y-20268500D01*
X8819643Y-20211357D01*
X8833928Y-20182786D01*
X8848214Y-20168500D01*
X8876786Y-20154214D01*
X9119643Y-20454214D02*
X9176786Y-20454214D01*
X9205357Y-20439929D01*
X9219643Y-20425643D01*
X9248214Y-20382786D01*
X9262500Y-20325643D01*
X9262500Y-20211357D01*
X9248214Y-20182786D01*
X9233928Y-20168500D01*
X9205357Y-20154214D01*
X9148214Y-20154214D01*
X9119643Y-20168500D01*
X9105357Y-20182786D01*
X9091071Y-20211357D01*
X9091071Y-20282786D01*
X9105357Y-20311357D01*
X9119643Y-20325643D01*
X9148214Y-20339929D01*
X9205357Y-20339929D01*
X9233928Y-20325643D01*
X9248214Y-20311357D01*
X9262500Y-20282786D01*
X9533928Y-20154214D02*
X9391071Y-20154214D01*
X9376786Y-20297072D01*
X9391071Y-20282786D01*
X9419643Y-20268500D01*
X9491071Y-20268500D01*
X9519643Y-20282786D01*
X9533928Y-20297072D01*
X9548214Y-20325643D01*
X9548214Y-20397072D01*
X9533928Y-20425643D01*
X9519643Y-20439929D01*
X9491071Y-20454214D01*
X9419643Y-20454214D01*
X9391071Y-20439929D01*
X9376786Y-20425643D01*
X9648214Y-20154214D02*
X9833928Y-20154214D01*
X9733928Y-20268500D01*
X9776786Y-20268500D01*
X9805357Y-20282786D01*
X9819643Y-20297072D01*
X9833928Y-20325643D01*
X9833928Y-20397072D01*
X9819643Y-20425643D01*
X9805357Y-20439929D01*
X9776786Y-20454214D01*
X9691071Y-20454214D01*
X9662500Y-20439929D01*
X9648214Y-20425643D01*
X9948214Y-20154214D02*
X9948214Y-20211357D01*
X10062500Y-20154214D02*
X10062500Y-20211357D01*
X10505357Y-20568500D02*
X10491071Y-20554214D01*
X10462500Y-20511357D01*
X10448214Y-20482786D01*
X10433928Y-20439929D01*
X10419643Y-20368500D01*
X10419643Y-20311357D01*
X10433928Y-20239929D01*
X10448214Y-20197072D01*
X10462500Y-20168500D01*
X10491071Y-20125643D01*
X10505357Y-20111357D01*
X10776786Y-20454214D02*
X10605357Y-20454214D01*
X10691071Y-20454214D02*
X10691071Y-20154214D01*
X10662500Y-20197072D01*
X10633928Y-20225643D01*
X10605357Y-20239929D01*
X11133928Y-20454214D02*
X11133928Y-20154214D01*
X11262500Y-20454214D02*
X11262500Y-20297072D01*
X11248214Y-20268500D01*
X11219643Y-20254214D01*
X11176786Y-20254214D01*
X11148214Y-20268500D01*
X11133928Y-20282786D01*
X11448214Y-20454214D02*
X11419643Y-20439929D01*
X11405357Y-20425643D01*
X11391071Y-20397072D01*
X11391071Y-20311357D01*
X11405357Y-20282786D01*
X11419643Y-20268500D01*
X11448214Y-20254214D01*
X11491071Y-20254214D01*
X11519643Y-20268500D01*
X11533928Y-20282786D01*
X11548214Y-20311357D01*
X11548214Y-20397072D01*
X11533928Y-20425643D01*
X11519643Y-20439929D01*
X11491071Y-20454214D01*
X11448214Y-20454214D01*
X11719643Y-20454214D02*
X11691071Y-20439929D01*
X11676786Y-20411357D01*
X11676786Y-20154214D01*
X11948214Y-20439929D02*
X11919643Y-20454214D01*
X11862500Y-20454214D01*
X11833928Y-20439929D01*
X11819643Y-20411357D01*
X11819643Y-20297072D01*
X11833928Y-20268500D01*
X11862500Y-20254214D01*
X11919643Y-20254214D01*
X11948214Y-20268500D01*
X11962500Y-20297072D01*
X11962500Y-20325643D01*
X11819643Y-20354214D01*
X12062500Y-20568500D02*
X12076786Y-20554214D01*
X12105357Y-20511357D01*
X12119643Y-20482786D01*
X12133928Y-20439929D01*
X12148214Y-20368500D01*
X12148214Y-20311357D01*
X12133928Y-20239929D01*
X12119643Y-20197072D01*
X12105357Y-20168500D01*
X12076786Y-20125643D01*
X12062500Y-20111357D01*
X5122000Y-20589000D02*
X5122000Y-20840000D01*
X4996500Y-20714500D02*
X5247500Y-20714500D01*
X5210743Y-20803243D02*
X5210743Y-20625757D01*
X5033257Y-20625757D01*
X5033257Y-20803243D01*
X5210743Y-20803243D01*
X5519643Y-20578786D02*
X5533928Y-20564500D01*
X5562500Y-20550214D01*
X5633928Y-20550214D01*
X5662500Y-20564500D01*
X5676786Y-20578786D01*
X5691071Y-20607357D01*
X5691071Y-20635929D01*
X5676786Y-20678786D01*
X5505357Y-20850214D01*
X5691071Y-20850214D01*
X5819643Y-20821643D02*
X5833928Y-20835929D01*
X5819643Y-20850214D01*
X5805357Y-20835929D01*
X5819643Y-20821643D01*
X5819643Y-20850214D01*
X6105357Y-20550214D02*
X5962500Y-20550214D01*
X5948214Y-20693072D01*
X5962500Y-20678786D01*
X5991071Y-20664500D01*
X6062500Y-20664500D01*
X6091071Y-20678786D01*
X6105357Y-20693072D01*
X6119643Y-20721643D01*
X6119643Y-20793072D01*
X6105357Y-20821643D01*
X6091071Y-20835929D01*
X6062500Y-20850214D01*
X5991071Y-20850214D01*
X5962500Y-20835929D01*
X5948214Y-20821643D01*
X6405357Y-20850214D02*
X6233928Y-20850214D01*
X6319643Y-20850214D02*
X6319643Y-20550214D01*
X6291071Y-20593072D01*
X6262500Y-20621643D01*
X6233928Y-20635929D01*
X6591071Y-20550214D02*
X6619643Y-20550214D01*
X6648214Y-20564500D01*
X6662500Y-20578786D01*
X6676786Y-20607357D01*
X6691071Y-20664500D01*
X6691071Y-20735929D01*
X6676786Y-20793072D01*
X6662500Y-20821643D01*
X6648214Y-20835929D01*
X6619643Y-20850214D01*
X6591071Y-20850214D01*
X6562500Y-20835929D01*
X6548214Y-20821643D01*
X6533928Y-20793072D01*
X6519643Y-20735929D01*
X6519643Y-20664500D01*
X6533928Y-20607357D01*
X6548214Y-20578786D01*
X6562500Y-20564500D01*
X6591071Y-20550214D01*
X6819643Y-20850214D02*
X6819643Y-20650214D01*
X6819643Y-20678786D02*
X6833928Y-20664500D01*
X6862500Y-20650214D01*
X6905357Y-20650214D01*
X6933928Y-20664500D01*
X6948214Y-20693072D01*
X6948214Y-20850214D01*
X6948214Y-20693072D02*
X6962500Y-20664500D01*
X6991071Y-20650214D01*
X7033928Y-20650214D01*
X7062500Y-20664500D01*
X7076786Y-20693072D01*
X7076786Y-20850214D01*
X7219643Y-20850214D02*
X7219643Y-20650214D01*
X7219643Y-20678786D02*
X7233928Y-20664500D01*
X7262500Y-20650214D01*
X7305357Y-20650214D01*
X7333928Y-20664500D01*
X7348214Y-20693072D01*
X7348214Y-20850214D01*
X7348214Y-20693072D02*
X7362500Y-20664500D01*
X7391071Y-20650214D01*
X7433928Y-20650214D01*
X7462500Y-20664500D01*
X7476786Y-20693072D01*
X7476786Y-20850214D01*
X8062500Y-20535929D02*
X7805357Y-20921643D01*
X8448214Y-20550214D02*
X8476786Y-20550214D01*
X8505357Y-20564500D01*
X8519643Y-20578786D01*
X8533928Y-20607357D01*
X8548214Y-20664500D01*
X8548214Y-20735929D01*
X8533928Y-20793072D01*
X8519643Y-20821643D01*
X8505357Y-20835929D01*
X8476786Y-20850214D01*
X8448214Y-20850214D01*
X8419643Y-20835929D01*
X8405357Y-20821643D01*
X8391071Y-20793072D01*
X8376786Y-20735929D01*
X8376786Y-20664500D01*
X8391071Y-20607357D01*
X8405357Y-20578786D01*
X8419643Y-20564500D01*
X8448214Y-20550214D01*
X8676786Y-20821643D02*
X8691071Y-20835929D01*
X8676786Y-20850214D01*
X8662500Y-20835929D01*
X8676786Y-20821643D01*
X8676786Y-20850214D01*
X8876786Y-20550214D02*
X8905357Y-20550214D01*
X8933928Y-20564500D01*
X8948214Y-20578786D01*
X8962500Y-20607357D01*
X8976786Y-20664500D01*
X8976786Y-20735929D01*
X8962500Y-20793072D01*
X8948214Y-20821643D01*
X8933928Y-20835929D01*
X8905357Y-20850214D01*
X8876786Y-20850214D01*
X8848214Y-20835929D01*
X8833928Y-20821643D01*
X8819643Y-20793072D01*
X8805357Y-20735929D01*
X8805357Y-20664500D01*
X8819643Y-20607357D01*
X8833928Y-20578786D01*
X8848214Y-20564500D01*
X8876786Y-20550214D01*
X9119643Y-20850214D02*
X9176786Y-20850214D01*
X9205357Y-20835929D01*
X9219643Y-20821643D01*
X9248214Y-20778786D01*
X9262500Y-20721643D01*
X9262500Y-20607357D01*
X9248214Y-20578786D01*
X9233928Y-20564500D01*
X9205357Y-20550214D01*
X9148214Y-20550214D01*
X9119643Y-20564500D01*
X9105357Y-20578786D01*
X9091071Y-20607357D01*
X9091071Y-20678786D01*
X9105357Y-20707357D01*
X9119643Y-20721643D01*
X9148214Y-20735929D01*
X9205357Y-20735929D01*
X9233928Y-20721643D01*
X9248214Y-20707357D01*
X9262500Y-20678786D01*
X9433928Y-20678786D02*
X9405357Y-20664500D01*
X9391071Y-20650214D01*
X9376786Y-20621643D01*
X9376786Y-20607357D01*
X9391071Y-20578786D01*
X9405357Y-20564500D01*
X9433928Y-20550214D01*
X9491071Y-20550214D01*
X9519643Y-20564500D01*
X9533928Y-20578786D01*
X9548214Y-20607357D01*
X9548214Y-20621643D01*
X9533928Y-20650214D01*
X9519643Y-20664500D01*
X9491071Y-20678786D01*
X9433928Y-20678786D01*
X9405357Y-20693072D01*
X9391071Y-20707357D01*
X9376786Y-20735929D01*
X9376786Y-20793072D01*
X9391071Y-20821643D01*
X9405357Y-20835929D01*
X9433928Y-20850214D01*
X9491071Y-20850214D01*
X9519643Y-20835929D01*
X9533928Y-20821643D01*
X9548214Y-20793072D01*
X9548214Y-20735929D01*
X9533928Y-20707357D01*
X9519643Y-20693072D01*
X9491071Y-20678786D01*
X9719643Y-20678786D02*
X9691071Y-20664500D01*
X9676786Y-20650214D01*
X9662500Y-20621643D01*
X9662500Y-20607357D01*
X9676786Y-20578786D01*
X9691071Y-20564500D01*
X9719643Y-20550214D01*
X9776786Y-20550214D01*
X9805357Y-20564500D01*
X9819643Y-20578786D01*
X9833928Y-20607357D01*
X9833928Y-20621643D01*
X9819643Y-20650214D01*
X9805357Y-20664500D01*
X9776786Y-20678786D01*
X9719643Y-20678786D01*
X9691071Y-20693072D01*
X9676786Y-20707357D01*
X9662500Y-20735929D01*
X9662500Y-20793072D01*
X9676786Y-20821643D01*
X9691071Y-20835929D01*
X9719643Y-20850214D01*
X9776786Y-20850214D01*
X9805357Y-20835929D01*
X9819643Y-20821643D01*
X9833928Y-20793072D01*
X9833928Y-20735929D01*
X9819643Y-20707357D01*
X9805357Y-20693072D01*
X9776786Y-20678786D01*
X9948214Y-20550214D02*
X9948214Y-20607357D01*
X10062500Y-20550214D02*
X10062500Y-20607357D01*
X10505357Y-20964500D02*
X10491071Y-20950214D01*
X10462500Y-20907357D01*
X10448214Y-20878786D01*
X10433928Y-20835929D01*
X10419643Y-20764500D01*
X10419643Y-20707357D01*
X10433928Y-20635929D01*
X10448214Y-20593072D01*
X10462500Y-20564500D01*
X10491071Y-20521643D01*
X10505357Y-20507357D01*
X10776786Y-20850214D02*
X10605357Y-20850214D01*
X10691071Y-20850214D02*
X10691071Y-20550214D01*
X10662500Y-20593072D01*
X10633928Y-20621643D01*
X10605357Y-20635929D01*
X11133928Y-20850214D02*
X11133928Y-20550214D01*
X11262500Y-20850214D02*
X11262500Y-20693072D01*
X11248214Y-20664500D01*
X11219643Y-20650214D01*
X11176786Y-20650214D01*
X11148214Y-20664500D01*
X11133928Y-20678786D01*
X11448214Y-20850214D02*
X11419643Y-20835929D01*
X11405357Y-20821643D01*
X11391071Y-20793072D01*
X11391071Y-20707357D01*
X11405357Y-20678786D01*
X11419643Y-20664500D01*
X11448214Y-20650214D01*
X11491071Y-20650214D01*
X11519643Y-20664500D01*
X11533928Y-20678786D01*
X11548214Y-20707357D01*
X11548214Y-20793072D01*
X11533928Y-20821643D01*
X11519643Y-20835929D01*
X11491071Y-20850214D01*
X11448214Y-20850214D01*
X11719643Y-20850214D02*
X11691071Y-20835929D01*
X11676786Y-20807357D01*
X11676786Y-20550214D01*
X11948214Y-20835929D02*
X11919643Y-20850214D01*
X11862500Y-20850214D01*
X11833928Y-20835929D01*
X11819643Y-20807357D01*
X11819643Y-20693072D01*
X11833928Y-20664500D01*
X11862500Y-20650214D01*
X11919643Y-20650214D01*
X11948214Y-20664500D01*
X11962500Y-20693072D01*
X11962500Y-20721643D01*
X11819643Y-20750214D01*
X12062500Y-20964500D02*
X12076786Y-20950214D01*
X12105357Y-20907357D01*
X12119643Y-20878786D01*
X12133928Y-20835929D01*
X12148214Y-20764500D01*
X12148214Y-20707357D01*
X12133928Y-20635929D01*
X12119643Y-20593072D01*
X12105357Y-20564500D01*
X12076786Y-20521643D01*
X12062500Y-20507357D01*
M02*
