M48
; DRILL file {KiCad (5.1.10)-1} date 07/30/21 10:33:15
; FORMAT={-:-/ absolute / metric / decimal}
; #@! TF.CreationDate,2021-07-30T10:33:15+01:00
; #@! TF.GenerationSoftware,Kicad,Pcbnew,(5.1.10)-1
; #@! TF.FileFunction,Plated,1,2,PTH
FMAT,2
METRIC
T1C0.400
T2C0.700
T3C0.750
T4C0.800
T5C0.890
T6C0.900
T7C0.970
T8C1.000
T9C1.500
T10C2.290
T11C2.370
T12C2.420
T13C2.510
%
G90
G05
T1
X59.944Y-81.28
X59.944Y-108.204
X60.452Y-74.93
X62.23Y-67.31
X62.23Y-94.234
X62.738Y-103.124
X63.246Y-69.85
X63.246Y-96.774
X67.564Y-68.58
X67.564Y-95.504
X68.58Y-71.12
X68.58Y-98.044
X69.088Y-109.474
X69.088Y-121.666
X69.85Y-72.39
X69.85Y-99.314
X71.374Y-72.39
X71.374Y-99.314
X72.644Y-73.66
X72.644Y-100.584
X76.708Y-77.47
X76.708Y-104.394
X77.978Y-81.28
X77.978Y-108.204
X86.868Y-109.474
X86.868Y-120.142
X89.916Y-81.28
X89.916Y-108.204
X90.678Y-129.54
X92.075Y-90.297
X94.234Y-78.74
X94.234Y-81.28
X97.536Y-80.01
X97.536Y-106.68
X98.552Y-121.666
X99.822Y-120.142
X102.108Y-69.85
X102.108Y-94.234
X102.108Y-96.774
X103.124Y-72.39
X103.124Y-92.964
X103.124Y-99.314
X103.378Y-107.188
X104.394Y-74.93
X104.394Y-91.186
X104.394Y-101.854
X104.394Y-109.22
X105.664Y-77.47
X105.664Y-89.408
X105.664Y-104.394
X107.442Y-81.28
X107.442Y-85.852
X107.95Y-103.124
X107.95Y-112.776
X109.22Y-80.264
X109.22Y-84.074
X109.22Y-90.297
X109.22Y-101.854
X114.554Y-80.518
X114.554Y-113.538
X115.316Y-128.27
X115.824Y-76.962
X115.824Y-107.95
X116.586Y-129.54
X116.84Y-75.184
X116.84Y-111.76
X118.364Y-62.738
X118.364Y-118.618
X119.38Y-125.222
X119.634Y-73.406
X119.634Y-107.95
X119.888Y-69.85
X120.396Y-128.778
X120.65Y-104.648
X120.65Y-123.952
X121.158Y-68.072
X121.666Y-72.136
X121.666Y-117.602
X122.682Y-73.406
X122.682Y-127.254
X122.936Y-130.556
X123.952Y-71.12
X123.952Y-106.426
X124.206Y-131.572
X125.476Y-64.516
X125.476Y-102.616
X125.476Y-132.334
X126.746Y-66.294
X126.746Y-136.652
X128.016Y-123.952
X132.588Y-71.628
X132.588Y-109.474
X133.604Y-118.618
X133.858Y-64.516
X133.858Y-115.062
X134.62Y-134.112
X135.608Y-68.044
X135.636Y-141.224
X137.414Y-65.532
X138.684Y-62.738
X140.716Y-143.256
X141.732Y-133.096
X141.986Y-123.952
X143.002Y-125.476
X143.002Y-135.89
X144.018Y-62.484
X144.272Y-136.906
X145.542Y-134.874
X145.796Y-146.558
X146.812Y-106.426
X146.812Y-121.412
X148.082Y-132.08
X148.336Y-60.198
X148.336Y-71.12
X148.336Y-142.24
X149.606Y-69.85
X150.876Y-133.096
X151.384Y-68.834
X152.146Y-135.89
X153.162Y-102.362
X153.162Y-134.112
X154.686Y-133.096
X154.686Y-134.874
X155.956Y-132.08
X157.48Y-132.08
X158.496Y-136.906
X158.75Y-110.744
X158.75Y-130.556
X160.02Y-123.952
X160.02Y-132.842
X160.528Y-68.072
X161.036Y-134.62
X161.265Y-127.737
X162.052Y-73.66
X162.052Y-64.008
X162.306Y-55.626
X162.306Y-129.032
X163.576Y-133.858
X164.846Y-127.762
X166.116Y-132.08
X167.386Y-103.632
X167.386Y-125.222
X168.656Y-130.556
X168.91Y-121.158
X168.91Y-125.73
X169.672Y-132.08
X174.752Y-116.586
X174.752Y-124.206
X176.022Y-119.126
X176.53Y-56.134
X184.15Y-115.824
X184.15Y-136.906
T2
X111.43Y-60.924
X111.43Y-62.704
X111.43Y-64.484
X111.43Y-66.264
X111.43Y-68.044
X111.43Y-69.824
X111.43Y-71.604
X111.43Y-73.384
X111.43Y-75.164
X111.43Y-76.944
X111.43Y-78.724
X111.43Y-80.504
X111.43Y-82.284
X111.43Y-84.064
X111.43Y-85.844
X111.43Y-87.624
X111.43Y-89.404
X111.43Y-91.184
X111.43Y-92.964
X111.43Y-94.744
X111.43Y-96.524
X111.43Y-98.304
X111.43Y-100.084
X111.43Y-101.864
X111.43Y-103.644
X111.43Y-105.424
X111.43Y-107.204
X111.43Y-108.984
X111.43Y-110.764
X111.43Y-112.544
X111.43Y-114.324
X111.43Y-116.104
X130.531Y-60.924
X130.531Y-62.704
X130.531Y-64.484
X130.531Y-66.264
X130.531Y-68.044
X130.531Y-69.824
X130.531Y-71.604
X130.531Y-73.384
X130.531Y-75.164
X130.531Y-76.944
X130.531Y-78.724
X130.531Y-80.504
X130.531Y-82.284
X130.531Y-84.064
X130.531Y-85.844
X130.531Y-87.624
X130.531Y-89.404
X130.531Y-91.184
X130.531Y-92.964
X130.531Y-94.744
X130.531Y-96.524
X130.531Y-98.304
X130.531Y-100.084
X130.531Y-101.864
X130.531Y-103.644
X130.531Y-105.424
X130.531Y-107.204
X130.531Y-108.984
X130.531Y-110.764
X130.531Y-112.544
X130.531Y-114.324
X130.531Y-116.104
T3
X180.34Y-124.206
X180.34Y-125.476
X180.34Y-126.746
T4
X58.014Y-66.04
X58.014Y-68.58
X58.014Y-71.12
X58.014Y-73.66
X58.014Y-76.2
X58.014Y-78.74
X58.014Y-81.28
X58.014Y-83.82
X58.014Y-86.36
X58.014Y-92.964
X58.014Y-95.504
X58.014Y-98.044
X58.014Y-100.584
X58.014Y-103.124
X58.014Y-105.664
X58.014Y-108.204
X58.014Y-110.744
X58.014Y-113.284
X60.34Y-116.891
X60.706Y-62.484
X62.84Y-116.891
X63.206Y-62.484
X65.634Y-66.04
X65.634Y-68.58
X65.634Y-71.12
X65.634Y-73.66
X65.634Y-76.2
X65.634Y-78.74
X65.634Y-81.28
X65.634Y-83.82
X65.634Y-86.36
X65.634Y-92.964
X65.634Y-95.504
X65.634Y-98.044
X65.634Y-100.584
X65.634Y-103.124
X65.634Y-105.664
X65.634Y-108.204
X65.634Y-110.744
X65.634Y-113.284
X74.778Y-66.04
X74.778Y-68.58
X74.778Y-71.12
X74.778Y-73.66
X74.778Y-76.2
X74.778Y-78.74
X74.778Y-81.28
X74.778Y-83.82
X74.778Y-86.36
X74.778Y-92.964
X74.778Y-95.504
X74.778Y-98.044
X74.778Y-100.584
X74.778Y-103.124
X74.778Y-105.664
X74.778Y-108.204
X74.778Y-110.744
X74.778Y-113.284
X77.358Y-62.535
X77.358Y-116.891
X79.858Y-62.535
X79.858Y-116.891
X82.398Y-66.04
X82.398Y-68.58
X82.398Y-71.12
X82.398Y-73.66
X82.398Y-76.2
X82.398Y-78.74
X82.398Y-81.28
X82.398Y-83.82
X82.398Y-86.36
X82.398Y-92.964
X82.398Y-95.504
X82.398Y-98.044
X82.398Y-100.584
X82.398Y-103.124
X82.398Y-105.664
X82.398Y-108.204
X82.398Y-110.744
X82.398Y-113.284
X84.074Y-128.564
X84.074Y-131.064
X88.138Y-125.222
X88.138Y-132.842
X90.678Y-125.222
X90.678Y-132.842
X92.05Y-66.04
X92.05Y-68.58
X92.05Y-71.12
X92.05Y-73.66
X92.05Y-76.2
X92.05Y-78.74
X92.05Y-81.28
X92.05Y-83.82
X92.05Y-86.36
X92.05Y-92.964
X92.05Y-95.504
X92.05Y-98.044
X92.05Y-100.584
X92.05Y-103.124
X92.05Y-105.664
X92.05Y-108.204
X92.05Y-110.744
X92.05Y-113.284
X93.218Y-125.222
X93.218Y-132.842
X94.376Y-116.891
X94.844Y-62.535
X95.758Y-125.222
X95.758Y-132.842
X96.876Y-116.891
X97.344Y-62.535
X98.298Y-125.222
X98.298Y-132.842
X99.67Y-66.04
X99.67Y-68.58
X99.67Y-71.12
X99.67Y-73.66
X99.67Y-76.2
X99.67Y-78.74
X99.67Y-81.28
X99.67Y-83.82
X99.67Y-86.36
X99.67Y-92.964
X99.67Y-95.504
X99.67Y-98.044
X99.67Y-100.584
X99.67Y-103.124
X99.67Y-105.664
X99.67Y-108.204
X99.67Y-110.744
X99.67Y-113.284
X100.838Y-125.222
X100.838Y-132.842
X103.378Y-125.222
X103.378Y-132.842
X107.391Y-68.112
X107.391Y-70.612
X107.442Y-125.476
X107.45Y-61.0
X107.45Y-63.5
X109.728Y-55.88
X109.942Y-125.476
X113.538Y-125.476
X116.038Y-125.476
X119.888Y-55.88
X122.682Y-55.88
X130.556Y-121.158
X130.556Y-131.318
X132.842Y-55.88
X137.922Y-115.037
X137.922Y-117.577
X137.922Y-120.117
X137.922Y-122.657
X137.922Y-125.197
X137.922Y-127.737
X140.462Y-112.497
X140.462Y-115.037
X140.462Y-117.577
X140.462Y-120.117
X140.462Y-122.657
X140.462Y-125.197
X140.462Y-127.737
X140.462Y-130.277
X141.3Y-64.872
X141.554Y-55.22
X141.554Y-60.198
X142.342Y-75.387
X142.494Y-78.74
X142.494Y-86.36
X143.002Y-112.497
X143.002Y-115.037
X143.002Y-127.737
X143.002Y-130.277
X145.034Y-78.74
X145.034Y-86.36
X145.542Y-112.497
X145.542Y-115.037
X145.542Y-127.737
X145.542Y-130.277
X147.574Y-78.74
X147.574Y-86.36
X148.082Y-112.497
X148.082Y-115.037
X148.082Y-127.737
X148.082Y-130.277
X148.59Y-100.33
X149.352Y-95.758
X150.114Y-78.74
X150.114Y-86.36
X150.622Y-112.497
X150.622Y-115.037
X150.622Y-127.737
X150.622Y-130.277
X151.46Y-64.872
X151.714Y-55.22
X151.714Y-60.198
X151.852Y-95.758
X152.502Y-75.387
X152.654Y-78.74
X152.654Y-86.36
X153.162Y-112.497
X153.162Y-115.037
X153.162Y-117.577
X153.162Y-120.117
X153.162Y-122.657
X153.162Y-125.197
X153.162Y-127.737
X153.162Y-130.277
X154.548Y-55.22
X154.548Y-60.198
X154.548Y-64.872
X155.194Y-78.74
X155.194Y-86.36
X155.488Y-95.758
X155.702Y-115.037
X155.702Y-117.577
X155.702Y-120.117
X155.702Y-122.657
X155.702Y-125.197
X155.702Y-127.737
X155.742Y-75.184
X155.804Y-107.036
X157.048Y-55.22
X157.048Y-60.198
X157.048Y-64.872
X157.734Y-78.74
X157.734Y-86.36
X157.988Y-95.758
X158.242Y-75.184
X158.304Y-107.036
X158.75Y-100.33
X163.068Y-110.236
X163.17Y-105.918
X163.17Y-114.554
X163.322Y-92.202
X163.322Y-96.774
X163.322Y-101.346
X163.322Y-123.444
X163.362Y-118.618
X163.424Y-78.537
X163.424Y-83.058
X163.424Y-87.63
X165.822Y-123.444
X165.862Y-118.618
X173.228Y-110.236
X173.33Y-105.918
X173.33Y-114.554
X173.482Y-92.202
X173.482Y-96.774
X173.482Y-101.346
X173.584Y-78.537
X173.584Y-83.058
X173.584Y-87.63
X178.918Y-80.823
X178.918Y-88.189
X178.918Y-95.555
X178.918Y-102.921
X178.918Y-110.287
X178.918Y-117.653
X179.172Y-73.457
X180.086Y-55.118
X180.086Y-65.278
X181.418Y-80.823
X181.418Y-88.189
X181.418Y-95.555
X181.418Y-102.921
X181.418Y-110.287
X181.418Y-117.653
X181.672Y-73.457
X186.69Y-125.222
X186.69Y-129.794
X186.944Y-120.65
X196.85Y-125.222
X196.85Y-129.794
X197.104Y-120.65
T5
X189.01Y-105.64
X189.01Y-112.34
X191.5Y-105.64
X191.5Y-112.34
T6
X191.008Y-138.176
X193.548Y-138.176
T7
X189.01Y-72.39
X189.01Y-74.93
X189.01Y-77.04
X189.01Y-79.09
X191.5Y-72.39
X191.5Y-74.44
X191.5Y-77.04
X191.5Y-79.09
T8
X106.426Y-139.7
X106.426Y-144.78
X108.966Y-139.7
X108.966Y-144.78
X111.506Y-139.7
X111.506Y-144.78
X114.046Y-139.7
X114.046Y-144.78
X116.586Y-139.7
X116.586Y-144.78
X119.126Y-139.7
X119.126Y-144.78
X121.666Y-139.7
X121.666Y-144.78
X124.206Y-139.7
X124.206Y-144.78
X126.746Y-139.7
X126.746Y-144.78
X129.286Y-139.7
X129.286Y-144.78
X131.826Y-139.7
X131.826Y-144.78
X134.366Y-139.7
X134.366Y-144.78
X136.906Y-139.7
X136.906Y-144.78
X139.446Y-139.7
X139.446Y-144.78
X141.986Y-139.7
X141.986Y-144.78
X144.526Y-139.7
X144.526Y-144.78
X147.066Y-139.7
X147.066Y-144.78
X149.606Y-139.7
X149.606Y-144.78
X152.146Y-139.7
X152.146Y-144.78
X154.686Y-139.7
X154.686Y-144.78
X157.226Y-139.7
X157.226Y-144.78
X159.766Y-139.7
X159.766Y-144.78
X162.306Y-139.7
X162.306Y-144.78
X164.846Y-139.7
X164.846Y-144.78
X167.386Y-139.7
X167.386Y-144.78
X169.926Y-139.7
X169.926Y-144.78
X171.45Y-120.65
X171.45Y-123.19
X171.45Y-125.73
X171.45Y-128.27
X171.45Y-130.81
X171.45Y-133.35
X172.466Y-139.7
X172.466Y-144.78
X175.006Y-139.7
X175.006Y-144.78
X177.546Y-139.7
X177.546Y-144.78
X180.086Y-139.7
X180.086Y-144.78
X182.626Y-139.7
X182.626Y-144.78
X185.166Y-139.7
X185.166Y-144.78
T9
X104.066Y-120.396
X108.966Y-120.396
X151.564Y-90.932
X156.464Y-90.932
T10
X194.5Y-102.23
X194.5Y-115.75
X195.31Y-108.99
T11
X194.5Y-68.98
X194.5Y-82.5
X195.31Y-75.74
T12
X191.5Y-92.25
T13
X196.0Y-92.25
T2
X191.2Y-54.25G85X190.3Y-54.25
G05
X191.2Y-64.25G85X190.3Y-64.25
G05
X195.75Y-59.7G85X195.75Y-58.8
G05
T0
M30
